<?xml version="1.0" encoding="UTF-8"?>
<!DOCTYPE svg PUBLIC "-//W3C//DTD SVG 1.1//EN" "http://www.w3.org/Graphics/SVG/1.1/DTD/svg11.dtd">
<!-- FusionSpace custom symbol "fs.arrow", from product/icons/arrow.svg. Generated by tools/build/kit_symbols.py. -->
<svg version="1.1" xmlns="http://www.w3.org/2000/svg" width="3300" height="2200">
<g id="Notes"><text id="template-version" style="stroke:none;fill:black;font-family:sans-serif;font-size:13;" x="3036" y="1933">Template v.3.0</text></g>
<g id="Guides"><line id="Baseline-S" style="fill:none;stroke:#27AAE1;opacity:1;stroke-width:0.5;" x1="263" x2="3036" y1="696" y2="696"/><line id="Capline-S" style="fill:none;stroke:#27AAE1;opacity:1;stroke-width:0.5;" x1="263" x2="3036" y1="625.541" y2="625.541"/><line id="Baseline-M" style="fill:none;stroke:#27AAE1;opacity:1;stroke-width:0.5;" x1="263" x2="3036" y1="1126.0" y2="1126.0"/><line id="Capline-M" style="fill:none;stroke:#27AAE1;opacity:1;stroke-width:0.5;" x1="263" x2="3036" y1="1055.54" y2="1055.54"/><line id="Baseline-L" style="fill:none;stroke:#27AAE1;opacity:1;stroke-width:0.5;" x1="263" x2="3036" y1="1556" y2="1556"/><line id="Capline-L" style="fill:none;stroke:#27AAE1;opacity:1;stroke-width:0.5;" x1="263" x2="3036" y1="1485.54" y2="1485.54"/><line id="left-margin-Regular-S" style="fill:none;stroke:#27AAE1;opacity:1;stroke-width:0.5;" x1="1391.0" x2="1391.0" y1="614.33" y2="706.72"/><line id="right-margin-Regular-S" style="fill:none;stroke:#27AAE1;opacity:1;stroke-width:0.5;" x1="1483.39" x2="1483.39" y1="614.33" y2="706.72"/><line id="left-margin-Regular-M" style="fill:none;stroke:#27AAE1;opacity:1;stroke-width:0.5;" x1="1391.0" x2="1391.0" y1="1031.45" y2="1149.45"/><line id="right-margin-Regular-M" style="fill:none;stroke:#27AAE1;opacity:1;stroke-width:0.5;" x1="1509.00" x2="1509.00" y1="1031.45" y2="1149.45"/><line id="left-margin-Regular-L" style="fill:none;stroke:#27AAE1;opacity:1;stroke-width:0.5;" x1="1391.0" x2="1391.0" y1="1444.25" y2="1596.47"/><line id="right-margin-Regular-L" style="fill:none;stroke:#27AAE1;opacity:1;stroke-width:0.5;" x1="1543.22" x2="1543.22" y1="1444.25" y2="1596.47"/></g>
<g id="Symbols"><g id="Regular-S"><path d="M1406.399,657.637 L1468.957,657.637 L1468.957,663.411 L1403.512,663.411 L1403.512,657.637 Z"/><path d="M1443.087,633.46 L1470.155,660.524 L1441.047,689.632 L1436.962,685.547 L1461.986,660.524 L1436.962,635.5 L1441.047,631.416 Z"/></g><g id="Regular-M"><path d="M1410.667,1086.767 L1490.562,1086.767 L1490.562,1094.142 L1406.979,1094.142 L1406.979,1086.767 Z"/><path d="M1457.522,1055.891 L1492.092,1090.455 L1454.917,1127.63 L1449.7,1122.413 L1481.658,1090.455 L1449.7,1058.497 L1454.917,1053.28 Z"/></g><g id="Regular-L"><path d="M1416.37,1515.607 L1519.436,1515.607 L1519.436,1525.12 L1411.613,1525.12 L1411.613,1515.607 Z"/><path d="M1476.814,1475.776 L1521.408,1520.364 L1473.453,1568.319 L1466.723,1561.59 L1507.949,1520.364 L1466.723,1479.137 L1473.453,1472.408 Z"/></g></g>
</svg>
