  0
SECTION
  2
HEADER
  9
$ACADVER
  1
AC1024
  9
$ACADMAINTVER
 70
6
  9
$DWGCODEPAGE
  3
ANSI_1252
  9
$LASTSAVEDBY
  1
ezdxf
  9
$INSBASE
 10
0.0
 20
0.0
 30
0.0
  9
$EXTMIN
 10
1e+20
 20
1e+20
 30
1e+20
  9
$EXTMAX
 10
-1e+20
 20
-1e+20
 30
-1e+20
  9
$LIMMIN
 10
0.0
 20
0.0
  9
$LIMMAX
 10
420.0
 20
297.0
  9
$ORTHOMODE
 70
0
  9
$REGENMODE
 70
1
  9
$FILLMODE
 70
1
  9
$QTEXTMODE
 70
0
  9
$MIRRTEXT
 70
1
  9
$LTSCALE
 40
1.0
  9
$ATTMODE
 70
1
  9
$TEXTSIZE
 40
2.5
  9
$TRACEWID
 40
1.0
  9
$TEXTSTYLE
  7
Standard
  9
$CLAYER
  8
0
  9
$CELTYPE
  6
ByLayer
  9
$CECOLOR
 62
256
  9
$CELTSCALE
 40
1.0
  9
$DISPSILH
 70
0
  9
$DIMSCALE
 40
1.0
  9
$DIMASZ
 40
2.5
  9
$DIMEXO
 40
0.625
  9
$DIMDLI
 40
3.75
  9
$DIMRND
 40
0.0
  9
$DIMDLE
 40
0.0
  9
$DIMEXE
 40
1.25
  9
$DIMTP
 40
0.0
  9
$DIMTM
 40
0.0
  9
$DIMTXT
 40
2.5
  9
$DIMCEN
 40
2.5
  9
$DIMTSZ
 40
0.0
  9
$DIMTOL
 70
0
  9
$DIMLIM
 70
0
  9
$DIMTIH
 70
0
  9
$DIMTOH
 70
0
  9
$DIMSE1
 70
0
  9
$DIMSE2
 70
0
  9
$DIMTAD
 70
1
  9
$DIMZIN
 70
8
  9
$DIMBLK
  1

  9
$DIMASO
 70
1
  9
$DIMSHO
 70
1
  9
$DIMPOST
  1

  9
$DIMAPOST
  1

  9
$DIMALT
 70
0
  9
$DIMALTD
 70
3
  9
$DIMALTF
 40
0.03937007874
  9
$DIMLFAC
 40
1.0
  9
$DIMTOFL
 70
1
  9
$DIMTVP
 40
0.0
  9
$DIMTIX
 70
0
  9
$DIMSOXD
 70
0
  9
$DIMSAH
 70
0
  9
$DIMBLK1
  1

  9
$DIMBLK2
  1

  9
$DIMSTYLE
  2
ISO-25
  9
$DIMCLRD
 70
0
  9
$DIMCLRE
 70
0
  9
$DIMCLRT
 70
0
  9
$DIMTFAC
 40
1.0
  9
$DIMGAP
 40
0.625
  9
$DIMJUST
 70
0
  9
$DIMSD1
 70
0
  9
$DIMSD2
 70
0
  9
$DIMTOLJ
 70
0
  9
$DIMTZIN
 70
8
  9
$DIMALTZ
 70
0
  9
$DIMALTTZ
 70
0
  9
$DIMUPT
 70
0
  9
$DIMDEC
 70
2
  9
$DIMTDEC
 70
2
  9
$DIMALTU
 70
2
  9
$DIMALTTD
 70
3
  9
$DIMTXSTY
  7
Standard
  9
$DIMAUNIT
 70
0
  9
$DIMADEC
 70
0
  9
$DIMALTRND
 40
0.0
  9
$DIMAZIN
 70
0
  9
$DIMDSEP
 70
44
  9
$DIMATFIT
 70
3
  9
$DIMFRAC
 70
0
  9
$DIMLDRBLK
  1

  9
$DIMLUNIT
 70
2
  9
$DIMLWD
 70
-2
  9
$DIMLWE
 70
-2
  9
$DIMTMOVE
 70
0
  9
$DIMFXL
 40
1.0
  9
$DIMFXLON
 70
0
  9
$DIMJOGANG
 40
0.785398163397
  9
$DIMTFILL
 70
0
  9
$DIMTFILLCLR
 70
0
  9
$DIMARCSYM
 70
0
  9
$DIMLTYPE
  6

  9
$DIMLTEX1
  6

  9
$DIMLTEX2
  6

  9
$DIMTXTDIRECTION
 70
0
  9
$LUNITS
 70
2
  9
$LUPREC
 70
4
  9
$SKETCHINC
 40
1.0
  9
$FILLETRAD
 40
10.0
  9
$AUNITS
 70
0
  9
$AUPREC
 70
2
  9
$MENU
  1
.
  9
$ELEVATION
 40
0.0
  9
$PELEVATION
 40
0.0
  9
$THICKNESS
 40
0.0
  9
$LIMCHECK
 70
0
  9
$CHAMFERA
 40
0.0
  9
$CHAMFERB
 40
0.0
  9
$CHAMFERC
 40
0.0
  9
$CHAMFERD
 40
0.0
  9
$SKPOLY
 70
0
  9
$TDCREATE
 40
2451545.0
  9
$TDUCREATE
 40
2451545.0
  9
$TDUPDATE
 40
2451545.0
  9
$TDUUPDATE
 40
2451545.0
  9
$TDINDWG
 40
0.0
  9
$TDUSRTIMER
 40
0.0
  9
$USRTIMER
 70
1
  9
$ANGBASE
 50
0.0
  9
$ANGDIR
 70
0
  9
$PDMODE
 70
0
  9
$PDSIZE
 40
0.0
  9
$PLINEWID
 40
0.0
  9
$SPLFRAME
 70
0
  9
$SPLINETYPE
 70
6
  9
$SPLINESEGS
 70
8
  9
$HANDSEED
  5
5F
  9
$SURFTAB1
 70
6
  9
$SURFTAB2
 70
6
  9
$SURFTYPE
 70
6
  9
$SURFU
 70
6
  9
$SURFV
 70
6
  9
$UCSBASE
  2

  9
$UCSNAME
  2

  9
$UCSORG
 10
0.0
 20
0.0
 30
0.0
  9
$UCSXDIR
 10
1.0
 20
0.0
 30
0.0
  9
$UCSYDIR
 10
0.0
 20
1.0
 30
0.0
  9
$UCSORTHOREF
  2

  9
$UCSORTHOVIEW
 70
0
  9
$UCSORGTOP
 10
0.0
 20
0.0
 30
0.0
  9
$UCSORGBOTTOM
 10
0.0
 20
0.0
 30
0.0
  9
$UCSORGLEFT
 10
0.0
 20
0.0
 30
0.0
  9
$UCSORGRIGHT
 10
0.0
 20
0.0
 30
0.0
  9
$UCSORGFRONT
 10
0.0
 20
0.0
 30
0.0
  9
$UCSORGBACK
 10
0.0
 20
0.0
 30
0.0
  9
$PUCSBASE
  2

  9
$PUCSNAME
  2

  9
$PUCSORG
 10
0.0
 20
0.0
 30
0.0
  9
$PUCSXDIR
 10
1.0
 20
0.0
 30
0.0
  9
$PUCSYDIR
 10
0.0
 20
1.0
 30
0.0
  9
$PUCSORTHOREF
  2

  9
$PUCSORTHOVIEW
 70
0
  9
$PUCSORGTOP
 10
0.0
 20
0.0
 30
0.0
  9
$PUCSORGBOTTOM
 10
0.0
 20
0.0
 30
0.0
  9
$PUCSORGLEFT
 10
0.0
 20
0.0
 30
0.0
  9
$PUCSORGRIGHT
 10
0.0
 20
0.0
 30
0.0
  9
$PUCSORGFRONT
 10
0.0
 20
0.0
 30
0.0
  9
$PUCSORGBACK
 10
0.0
 20
0.0
 30
0.0
  9
$USERI1
 70
0
  9
$USERI2
 70
0
  9
$USERI3
 70
0
  9
$USERI4
 70
0
  9
$USERI5
 70
0
  9
$USERR1
 40
0.0
  9
$USERR2
 40
0.0
  9
$USERR3
 40
0.0
  9
$USERR4
 40
0.0
  9
$USERR5
 40
0.0
  9
$WORLDVIEW
 70
1
  9
$SHADEDGE
 70
3
  9
$SHADEDIF
 70
70
  9
$TILEMODE
 70
1
  9
$MAXACTVP
 70
64
  9
$PINSBASE
 10
0.0
 20
0.0
 30
0.0
  9
$PLIMCHECK
 70
0
  9
$PEXTMIN
 10
1e+20
 20
1e+20
 30
1e+20
  9
$PEXTMAX
 10
-1e+20
 20
-1e+20
 30
-1e+20
  9
$PLIMMIN
 10
0.0
 20
0.0
  9
$PLIMMAX
 10
420.0
 20
297.0
  9
$UNITMODE
 70
0
  9
$VISRETAIN
 70
1
  9
$PLINEGEN
 70
0
  9
$PSLTSCALE
 70
1
  9
$TREEDEPTH
 70
3020
  9
$CMLSTYLE
  2
Standard
  9
$CMLJUST
 70
0
  9
$CMLSCALE
 40
20.0
  9
$PROXYGRAPHICS
 70
1
  9
$MEASUREMENT
 70
1
  9
$CELWEIGHT
370
-1
  9
$ENDCAPS
280
0
  9
$JOINSTYLE
280
0
  9
$LWDISPLAY
290
0
  9
$INSUNITS
 70
4
  9
$HYPERLINKBASE
  1

  9
$STYLESHEET
  1

  9
$XEDIT
290
1
  9
$CEPSNTYPE
380
0
  9
$PSTYLEMODE
290
1
  9
$FINGERPRINTGUID
  2
{00000000-0000-0000-0000-000000000000}
  9
$VERSIONGUID
  2
{00000000-0000-0000-0000-000000000000}
  9
$EXTNAMES
290
1
  9
$PSVPSCALE
 40
0.0
  9
$OLESTARTUP
290
0
  9
$SORTENTS
280
127
  9
$INDEXCTL
280
0
  9
$HIDETEXT
280
1
  9
$XCLIPFRAME
280
1
  9
$HALOGAP
280
0
  9
$OBSCOLOR
 70
257
  9
$OBSLTYPE
280
0
  9
$INTERSECTIONDISPLAY
280
0
  9
$INTERSECTIONCOLOR
 70
257
  9
$DIMASSOC
280
2
  9
$PROJECTNAME
  1

  9
$CAMERADISPLAY
290
0
  9
$LENSLENGTH
 40
50.0
  9
$CAMERAHEIGHT
 40
0.0
  9
$STEPSPERSEC
 40
24.0
  9
$STEPSIZE
 40
100.0
  9
$3DDWFPREC
 40
2.0
  9
$PSOLWIDTH
 40
0.005
  9
$PSOLHEIGHT
 40
0.08
  9
$LOFTANG1
 40
1.570796326795
  9
$LOFTANG2
 40
1.570796326795
  9
$LOFTMAG1
 40
0.0
  9
$LOFTMAG2
 40
0.0
  9
$LOFTPARAM
 70
7
  9
$LOFTNORMALS
280
1
  9
$LATITUDE
 40
37.795
  9
$LONGITUDE
 40
-122.394
  9
$NORTHDIRECTION
 40
0.0
  9
$TIMEZONE
 70
-8000
  9
$LIGHTGLYPHDISPLAY
280
1
  9
$TILEMODELIGHTSYNCH
280
1
  9
$CMATERIAL
347
20
  9
$SOLIDHIST
280
0
  9
$SHOWHIST
280
1
  9
$DWFFRAME
280
2
  9
$DGNFRAME
280
2
  9
$REALWORLDSCALE
290
1
  9
$INTERFERECOLOR
 62
256
  9
$CSHADOW
280
0
  9
$SHADOWPLANELOCATION
 40
0.0
  0
ENDSEC
  0
SECTION
  2
CLASSES
  0
CLASS
  1
ACDBDICTIONARYWDFLT
  2
AcDbDictionaryWithDefault
  3
ObjectDBX Classes
 90
0
 91
0
280
0
281
0
  0
CLASS
  1
SUN
  2
AcDbSun
  3
SCENEOE
 90
1153
 91
0
280
0
281
0
  0
CLASS
  1
VISUALSTYLE
  2
AcDbVisualStyle
  3
ObjectDBX Classes
 90
4095
 91
0
280
0
281
0
  0
CLASS
  1
MATERIAL
  2
AcDbMaterial
  3
ObjectDBX Classes
 90
1153
 91
0
280
0
281
0
  0
CLASS
  1
SCALE
  2
AcDbScale
  3
ObjectDBX Classes
 90
1153
 91
0
280
0
281
0
  0
CLASS
  1
TABLESTYLE
  2
AcDbTableStyle
  3
ObjectDBX Classes
 90
4095
 91
0
280
0
281
0
  0
CLASS
  1
MLEADERSTYLE
  2
AcDbMLeaderStyle
  3
ACDB_MLEADERSTYLE_CLASS
 90
4095
 91
0
280
0
281
0
  0
CLASS
  1
DICTIONARYVAR
  2
AcDbDictionaryVar
  3
ObjectDBX Classes
 90
0
 91
0
280
0
281
0
  0
CLASS
  1
CELLSTYLEMAP
  2
AcDbCellStyleMap
  3
ObjectDBX Classes
 90
1152
 91
0
280
0
281
0
  0
CLASS
  1
MENTALRAYRENDERSETTINGS
  2
AcDbMentalRayRenderSettings
  3
SCENEOE
 90
1024
 91
0
280
0
281
0
  0
CLASS
  1
ACDBDETAILVIEWSTYLE
  2
AcDbDetailViewStyle
  3
ObjectDBX Classes
 90
1025
 91
0
280
0
281
0
  0
CLASS
  1
ACDBSECTIONVIEWSTYLE
  2
AcDbSectionViewStyle
  3
ObjectDBX Classes
 90
1025
 91
0
280
0
281
0
  0
CLASS
  1
RASTERVARIABLES
  2
AcDbRasterVariables
  3
ISM
 90
0
 91
0
280
0
281
0
  0
CLASS
  1
ACDBPLACEHOLDER
  2
AcDbPlaceHolder
  3
ObjectDBX Classes
 90
0
 91
0
280
0
281
0
  0
CLASS
  1
LAYOUT
  2
AcDbLayout
  3
ObjectDBX Classes
 90
0
 91
0
280
0
281
0
  0
ENDSEC
  0
SECTION
  2
TABLES
  0
TABLE
  2
VPORT
  5
8
330
0
100
AcDbSymbolTable
 70
1
  0
VPORT
  5
23
330
8
100
AcDbSymbolTableRecord
100
AcDbViewportTableRecord
  2
*Active
 70
0
 10
0.0
 20
0.0
 11
1.0
 21
1.0
 12
0.0
 22
0.0
 13
0.0
 23
0.0
 14
0.5
 24
0.5
 15
0.5
 25
0.5
 16
0.0
 26
0.0
 36
1.0
 17
0.0
 27
0.0
 37
0.0
 40
1000.0
 41
1.34
 42
50.0
 43
0.0
 44
0.0
 50
0.0
 51
0.0
 71
0
 72
1000
 73
1
 74
3
 75
0
 76
0
 77
0
 78
0
281
0
 65
0
146
0.0
  0
ENDTAB
  0
TABLE
  2
LTYPE
  5
2
330
0
100
AcDbSymbolTable
 70
3
  0
LTYPE
  5
24
330
2
100
AcDbSymbolTableRecord
100
AcDbLinetypeTableRecord
  2
ByBlock
 70
0
  3

 72
65
 73
0
 40
0.0
  0
LTYPE
  5
25
330
2
100
AcDbSymbolTableRecord
100
AcDbLinetypeTableRecord
  2
ByLayer
 70
0
  3

 72
65
 73
0
 40
0.0
  0
LTYPE
  5
26
330
2
100
AcDbSymbolTableRecord
100
AcDbLinetypeTableRecord
  2
Continuous
 70
0
  3

 72
65
 73
0
 40
0.0
  0
ENDTAB
  0
TABLE
  2
LAYER
  5
1
330
0
100
AcDbSymbolTable
 70
3
  0
LAYER
  5
27
330
1
100
AcDbSymbolTableRecord
100
AcDbLayerTableRecord
  2
0
 70
0
 62
7
  6
Continuous
370
-3
390
13
347
21
  0
LAYER
  5
28
330
1
100
AcDbSymbolTableRecord
100
AcDbLayerTableRecord
  2
Defpoints
 70
0
 62
7
  6
Continuous
290
0
370
-3
390
13
347
21
  0
LAYER
  5
2F
330
1
100
AcDbSymbolTableRecord
100
AcDbLayerTableRecord
  2
OUTLINE
 70
0
 62
7
  6
Continuous
370
-3
390
13
347
21
  0
ENDTAB
  0
TABLE
  2
STYLE
  5
5
330
0
100
AcDbSymbolTable
 70
1
  0
STYLE
  5
29
330
5
100
AcDbSymbolTableRecord
100
AcDbTextStyleTableRecord
  2
Standard
 70
0
 40
0.0
 41
1.0
 50
0.0
 71
0
 42
2.5
  3
txt
  4

  0
ENDTAB
  0
TABLE
  2
VIEW
  5
7
330
0
100
AcDbSymbolTable
 70
0
  0
ENDTAB
  0
TABLE
  2
UCS
  5
6
330
0
100
AcDbSymbolTable
 70
0
  0
ENDTAB
  0
TABLE
  2
APPID
  5
3
330
0
100
AcDbSymbolTable
 70
3
  0
APPID
  5
2A
330
3
100
AcDbSymbolTableRecord
100
AcDbRegAppTableRecord
  2
ACAD
 70
0
  0
APPID
  5
5C
330
3
100
AcDbSymbolTableRecord
100
AcDbRegAppTableRecord
  2
HATCHBACKGROUNDCOLOR
 70
0
  0
APPID
  5
5D
330
3
100
AcDbSymbolTableRecord
100
AcDbRegAppTableRecord
  2
EZDXF
 70
0
  0
ENDTAB
  0
TABLE
  2
DIMSTYLE
  5
4
330
0
100
AcDbSymbolTable
 70
1
100
AcDbDimStyleTable
  0
DIMSTYLE
105
2B
330
4
100
AcDbSymbolTableRecord
100
AcDbDimStyleTableRecord
  2
Standard
 70
0
 40
1.0
 41
2.5
 42
0.625
 43
3.75
 44
1.25
 45
0.0
 46
0.0
 47
0.0
 48
0.0
 49
2.5
140
2.5
141
2.5
142
0.0
143
0.03937007874
144
1.0
145
0.0
146
1.0
147
0.625
148
0.0
 69
0
 70
0
 71
0
 72
0
 73
0
 74
0
 75
0
 76
0
 77
1
 78
8
 79
3
170
0
171
3
172
1
173
0
174
0
175
0
176
0
177
0
178
0
179
2
271
2
272
2
273
2
274
3
275
0
276
0
277
2
278
44
279
0
280
0
281
0
282
0
283
0
284
8
285
0
286
0
288
0
289
3
290
0
371
-2
372
-2
  0
ENDTAB
  0
TABLE
  2
BLOCK_RECORD
  5
9
330
0
100
AcDbSymbolTable
 70
2
  0
BLOCK_RECORD
  5
17
330
9
100
AcDbSymbolTableRecord
100
AcDbBlockTableRecord
  2
*Model_Space
340
1A
 70
0
280
1
281
0
  0
BLOCK_RECORD
  5
1B
330
9
100
AcDbSymbolTableRecord
100
AcDbBlockTableRecord
  2
*Paper_Space
340
1E
 70
0
280
1
281
0
  0
ENDTAB
  0
ENDSEC
  0
SECTION
  2
BLOCKS
  0
BLOCK
  5
18
330
17
100
AcDbEntity
  8
0
100
AcDbBlockBegin
  2
*Model_Space
 70
0
 10
0.0
 20
0.0
 30
0.0
  3
*Model_Space
  1

  0
ENDBLK
  5
19
330
17
100
AcDbEntity
  8
0
100
AcDbBlockEnd
  0
BLOCK
  5
1C
330
1B
100
AcDbEntity
  8
0
100
AcDbBlockBegin
  2
*Paper_Space
 70
0
 10
0.0
 20
0.0
 30
0.0
  3
*Paper_Space
  1

  0
ENDBLK
  5
1D
330
1B
100
AcDbEntity
  8
0
100
AcDbBlockEnd
  0
ENDSEC
  0
SECTION
  2
ENTITIES
  0
SPLINE
  5
30
330
17
100
AcDbEntity
  8
OUTLINE
100
AcDbSpline
 70
0
 71
3
 72
8
 73
4
 74
0
 40
0.0
 40
0.0
 40
0.0
 40
0.0
 40
1.0
 40
1.0
 40
1.0
 40
1.0
 10
16.905476261365973
 20
16.878712365676478
 30
0.0
 10
16.91570796986046
 20
16.86848065718199
 30
0.0
 10
16.923317221940707
 20
16.81624323227431
 30
0.0
 10
16.925410819178914
 20
16.775610151871266
 30
0.0
  0
SPLINE
  5
31
330
17
100
AcDbEntity
  8
OUTLINE
100
AcDbSpline
 70
0
 71
3
 72
8
 73
4
 74
0
 40
0.0
 40
0.0
 40
0.0
 40
0.0
 40
1.0
 40
1.0
 40
1.0
 40
1.0
 10
16.925410819178914
 20
16.775610151871266
 30
0.0
 10
16.93259397181682
 20
16.63619765487483
 30
0.0
 10
16.902566541460782
 20
16.443799056161886
 30
0.0
 10
16.871305260529
 20
16.28912594657144
 30
0.0
  0
SPLINE
  5
32
330
17
100
AcDbEntity
  8
OUTLINE
100
AcDbSpline
 70
0
 71
3
 72
8
 73
4
 74
0
 40
0.0
 40
0.0
 40
0.0
 40
0.0
 40
1.0
 40
1.0
 40
1.0
 40
1.0
 10
16.871305260529
 20
16.28912594657144
 30
0.0
 10
16.78153642921612
 20
15.844971904586963
 30
0.0
 10
16.618579901981484
 20
15.351999753942746
 30
0.0
 10
16.432356916874948
 20
14.85680203039945
 30
0.0
  0
SPLINE
  5
33
330
17
100
AcDbEntity
  8
OUTLINE
100
AcDbSpline
 70
0
 71
3
 72
8
 73
4
 74
0
 40
0.0
 40
0.0
 40
0.0
 40
0.0
 40
1.0
 40
1.0
 40
1.0
 40
1.0
 10
16.432356916874948
 20
14.85680203039945
 30
0.0
 10
16.051231679069176
 20
13.843326975006342
 30
0.0
 10
15.536713787702045
 20
12.742872158137892
 30
0.0
 10
14.925779933437255
 20
11.581238794281719
 30
0.0
  0
SPLINE
  5
34
330
17
100
AcDbEntity
  8
OUTLINE
100
AcDbSpline
 70
0
 71
3
 72
8
 73
4
 74
0
 40
0.0
 40
0.0
 40
0.0
 40
0.0
 40
1.0
 40
1.0
 40
1.0
 40
1.0
 10
14.925779933437255
 20
11.581238794281719
 30
0.0
 10
13.72002805275686
 20
9.288614800124062
 30
0.0
 10
12.272547549627381
 20
7.063808459675068
 30
0.0
 10
11.092987232538352
 20
5.470212976495166
 30
0.0
  0
LINE
  5
35
330
17
100
AcDbEntity
  8
OUTLINE
100
AcDbLine
 10
11.092987232538352
 20
5.470212976495166
 30
0.0
 11
10.668723163826424
 21
5.894477045207093
 31
0.0
  0
ARC
  5
36
330
17
100
AcDbEntity
  8
OUTLINE
100
AcDbCircle
 10
6.509519262332434
 20
6.482755366642936
 30
0.0
 40
4.200600966251639
100
AcDbArc
 50
-8.050521281037868
 51
98.05052128103787
  0
LINE
  5
37
330
17
100
AcDbEntity
  8
OUTLINE
100
AcDbLine
 10
5.921240940896592
 20
10.641959268136926
 30
0.0
 11
5.496976872184662
 21
11.066223336848854
 31
0.0
  0
SPLINE
  5
38
330
17
100
AcDbEntity
  8
OUTLINE
100
AcDbSpline
 70
0
 71
3
 72
8
 73
4
 74
0
 40
0.0
 40
0.0
 40
0.0
 40
0.0
 40
1.0
 40
1.0
 40
1.0
 40
1.0
 10
5.496976872184662
 20
11.066223336848854
 30
0.0
 10
7.090572355364564
 20
12.245783653937885
 30
0.0
 10
9.31537869581356
 20
13.693264157067361
 30
0.0
 10
11.608002689971215
 20
14.899016037747757
 30
0.0
  0
SPLINE
  5
39
330
17
100
AcDbEntity
  8
OUTLINE
100
AcDbSpline
 70
0
 71
3
 72
8
 73
4
 74
0
 40
0.0
 40
0.0
 40
0.0
 40
0.0
 40
1.0
 40
1.0
 40
1.0
 40
1.0
 10
11.608002689971215
 20
14.899016037747757
 30
0.0
 10
12.76963605382739
 20
15.509949892012546
 30
0.0
 10
13.870090870695838
 20
16.024467783379677
 30
0.0
 10
14.883565926088949
 20
16.405593021185453
 30
0.0
  0
SPLINE
  5
3A
330
17
100
AcDbEntity
  8
OUTLINE
100
AcDbSpline
 70
0
 71
3
 72
8
 73
4
 74
0
 40
0.0
 40
0.0
 40
0.0
 40
0.0
 40
1.0
 40
1.0
 40
1.0
 40
1.0
 10
14.883565926088949
 20
16.405593021185453
 30
0.0
 10
15.378763649632244
 20
16.59181600629199
 30
0.0
 10
15.871735800276458
 20
16.754772533526626
 30
0.0
 10
16.315889842260933
 20
16.844541364839504
 30
0.0
  0
SPLINE
  5
3B
330
17
100
AcDbEntity
  8
OUTLINE
100
AcDbSpline
 70
0
 71
3
 72
8
 73
4
 74
0
 40
0.0
 40
0.0
 40
0.0
 40
0.0
 40
1.0
 40
1.0
 40
1.0
 40
1.0
 10
16.315889842260933
 20
16.844541364839504
 30
0.0
 10
16.47056295185138
 20
16.875802645771287
 30
0.0
 10
16.662961550564326
 20
16.905830076127323
 30
0.0
 10
16.80237404756076
 20
16.898646923489416
 30
0.0
  0
SPLINE
  5
3C
330
17
100
AcDbEntity
  8
OUTLINE
100
AcDbSpline
 70
0
 71
3
 72
8
 73
4
 74
0
 40
0.0
 40
0.0
 40
0.0
 40
0.0
 40
1.0
 40
1.0
 40
1.0
 40
1.0
 10
16.80237404756076
 20
16.898646923489416
 30
0.0
 10
16.843007127963805
 20
16.89655332625121
 30
0.0
 10
16.89524455287149
 20
16.88894407417096
 30
0.0
 10
16.905476261365973
 20
16.878712365676478
 30
0.0
  0
LINE
  5
3D
330
17
100
AcDbEntity
  8
OUTLINE
100
AcDbLine
 10
3.9325373378429367
 20
12.740475750933445
 30
0.0
 11
1.7477943893427703
 21
8.807938443633141
 31
0.0
  0
LINE
  5
3E
330
17
100
AcDbEntity
  8
OUTLINE
100
AcDbLine
 10
1.7477943893427703
 20
8.807938443633141
 30
0.0
 11
1.3235303206308409
 21
9.23220251234507
 31
0.0
  0
ARC
  5
3F
330
17
100
AcDbEntity
  8
OUTLINE
100
AcDbCircle
 10
-0.2258454617704786
 20
8.582092951320028
 30
0.0
 40
1.6802403865006557
100
AcDbArc
 50
22.76265339896714
 51
67.2373466010329
  0
LINE
  5
40
330
17
100
AcDbEntity
  8
OUTLINE
100
AcDbLine
 10
0.42426409925456277
 20
10.131468733721348
 30
0.0
 11
3.054263508772692e-08
 21
10.555732802433276
 31
0.0
  0
LINE
  5
41
330
17
100
AcDbEntity
  8
OUTLINE
100
AcDbLine
 10
3.054263508772692e-08
 20
10.555732802433276
 30
0.0
 11
3.9325373378429367
 21
12.740475750933445
 31
0.0
  0
ELLIPSE
  5
42
330
17
100
AcDbEntity
  8
OUTLINE
100
AcDbEllipse
 10
9.020914596720147
 20
0.08755605162754776
 30
0.0
 11
-3.1187870997100613
 21
-3.1187870997100617
 31
0.0
 40
0.28571428571428575
 41
1.8220991229326795
 42
3.141592653589793
  0
LINE
  5
43
330
17
100
AcDbEntity
  8
OUTLINE
100
AcDbLine
 10
10.65954355055589
 20
3.552713678800501e-15
 30
0.0
 11
10.235279481843962
 21
0.4242640687119348
 31
0.0
  0
ARC
  5
44
330
17
100
AcDbEntity
  8
OUTLINE
100
AcDbCircle
 10
9.020914596720147
 20
0.08755605162754776
 30
0.0
 40
1.2601802898754915
100
AcDbArc
 50
15.497144679367059
 51
74.502855320633
  0
LINE
  5
45
330
17
100
AcDbEntity
  8
OUTLINE
100
AcDbLine
 10
9.357622613804532
 20
1.3019209367513618
 30
0.0
 11
8.933358545092602
 21
1.726185005463293
 31
0.0
  0
ELLIPSE
  5
46
330
17
100
AcDbEntity
  8
OUTLINE
100
AcDbEllipse
 10
9.020914596720145
 20
0.08755605162754776
 30
0.0
 11
-3.1187870997100613
 21
-3.1187870997100617
 31
0.0
 40
0.28571428571428575
 41
3.1415926535897922
 42
4.461086184246906
  0
ARC
  5
47
330
17
100
AcDbEntity
  8
OUTLINE
100
AcDbCircle
 10
-6.506098402192761
 20
10.174925736278784
 30
0.0
 40
13.91449070070855
100
AcDbArc
 50
-38.58909303811039
 51
-13.109208198154288
  0
LINE
  5
48
330
17
100
AcDbEntity
  8
OUTLINE
100
AcDbLine
 10
4.370013276300497
 20
1.4960291349217165
 30
0.0
 11
3.9457492075885687
 21
1.9202932036336442
 31
0.0
  0
ARC
  5
49
330
17
100
AcDbEntity
  8
OUTLINE
100
AcDbCircle
 10
1.847795614887759
 20
1.8210317191982615
 30
0.0
 40
2.1003004831258196
100
AcDbArc
 50
2.7088425912754452
 51
87.29115740872447
  0
LINE
  5
4A
330
17
100
AcDbEntity
  8
OUTLINE
100
AcDbLine
 10
1.9470570993231444
 20
3.918985311899071
 30
0.0
 11
1.522793030611215
 21
4.343249380610999
 31
0.0
  0
ARC
  5
4B
330
17
100
AcDbEntity
  8
OUTLINE
100
AcDbCircle
 10
10.201689631968282
 20
-6.532862297882257
 30
0.0
 40
13.91449070070855
100
AcDbArc
 50
103.10920819815429
 51
128.58909303811038
  0
LWPOLYLINE
  5
4C
330
17
100
AcDbEntity
  8
OUTLINE
100
AcDbPolyline
 90
472
 70
1
 10
32.6165
 20
6.6742
 10
32.6165
 20
6.6144
 10
32.6165
 20
6.601
 10
32.6165
 20
6.5546
 10
32.6165
 20
6.4948
 10
32.6165
 20
6.4741
 10
32.6165
 20
6.4349
 10
32.6165
 20
6.3751
 10
32.6165
 20
6.3473
 10
32.6165
 20
6.3153
 10
32.6165
 20
6.2555
 10
32.6165
 20
6.1957
 10
32.6165
 20
6.1359
 10
32.6165
 20
6.076
 10
32.6165
 20
6.0162
 10
32.6165
 20
5.9564
 10
32.6165
 20
5.8966
 10
32.6165
 20
5.8368
 10
32.6165
 20
5.7769
 10
32.6165
 20
5.7171
 10
32.6165
 20
5.6573
 10
32.6165
 20
5.5975
 10
32.6165
 20
5.5377
 10
32.6165
 20
5.4779
 10
32.6181
 20
5.4194
 10
32.6772
 20
5.4105
 10
32.7364
 20
5.4016
 10
32.7955
 20
5.3927
 10
32.8547
 20
5.3838
 10
32.9138
 20
5.3749
 10
32.973
 20
5.366
 10
33.0321
 20
5.3571
 10
33.0913
 20
5.3482
 10
33.1504
 20
5.3393
 10
33.2096
 20
5.3303
 10
33.2687
 20
5.3214
 10
33.3279
 20
5.3125
 10
33.387
 20
5.3036
 10
33.4462
 20
5.2947
 10
33.5053
 20
5.2858
 10
33.523
 20
5.2412
 10
33.523
 20
5.1814
 10
33.523
 20
5.1216
 10
33.523
 20
5.0617
 10
33.523
 20
5.0019
 10
33.523
 20
4.9421
 10
33.523
 20
4.8823
 10
33.523
 20
4.8225
 10
33.523
 20
4.7627
 10
33.523
 20
4.7028
 10
33.523
 20
4.643
 10
33.523
 20
4.5832
 10
33.523
 20
4.5234
 10
33.523
 20
4.4636
 10
33.523
 20
4.4037
 10
33.523
 20
4.3439
 10
33.523
 20
4.2841
 10
33.523
 20
4.2243
 10
33.523
 20
4.1645
 10
33.523
 20
4.1047
 10
33.523
 20
4.0448
 10
33.4668
 20
4.0397
 10
33.407
 20
4.0381
 10
33.3472
 20
4.0365
 10
33.2874
 20
4.0349
 10
33.2276
 20
4.0334
 10
33.1678
 20
4.0318
 10
33.108
 20
4.0302
 10
33.0482
 20
4.0286
 10
32.9884
 20
4.027
 10
32.9286
 20
4.0254
 10
32.8689
 20
4.0238
 10
32.8091
 20
4.0222
 10
32.7493
 20
4.0206
 10
32.6895
 20
4.019
 10
32.6297
 20
4.0174
 10
32.5699
 20
4.0158
 10
32.5101
 20
4.0142
 10
32.4503
 20
4.0126
 10
32.3905
 20
4.011
 10
32.3307
 20
4.0094
 10
32.2709
 20
4.0078
 10
32.2111
 20
4.0062
 10
32.1513
 20
4.0046
 10
32.0915
 20
4.003
 10
32.0317
 20
4.0014
 10
31.9719
 20
3.9998
 10
31.9121
 20
3.9982
 10
31.8523
 20
3.9966
 10
31.7925
 20
3.995
 10
31.7327
 20
3.9934
 10
31.6729
 20
3.9918
 10
31.6131
 20
3.9903
 10
31.5533
 20
3.9887
 10
31.4935
 20
3.9871
 10
31.4337
 20
3.9855
 10
31.3739
 20
3.9839
 10
31.3141
 20
3.9823
 10
31.2543
 20
3.9807
 10
31.1945
 20
3.9791
 10
31.1903
 20
4.0387
 10
31.1861
 20
4.0984
 10
31.1818
 20
4.1581
 10
31.1776
 20
4.2178
 10
31.1734
 20
4.2774
 10
31.1692
 20
4.3371
 10
31.1649
 20
4.3968
 10
31.1607
 20
4.4564
 10
31.1565
 20
4.5161
 10
31.1522
 20
4.5758
 10
31.148
 20
4.6354
 10
31.1438
 20
4.6951
 10
31.1395
 20
4.7548
 10
31.1353
 20
4.8144
 10
31.1311
 20
4.8741
 10
31.1268
 20
4.9338
 10
31.1226
 20
4.9934
 10
31.1184
 20
5.0531
 10
31.1142
 20
5.1128
 10
31.1099
 20
5.1724
 10
31.1057
 20
5.2321
 10
31.1015
 20
5.2918
 10
31.1003
 20
5.308
 10
31.0373
 20
5.308
 10
30.9636
 20
5.308
 10
30.9267
 20
5.2536
 10
30.9054
 20
5.1752
 10
30.8819
 20
5.099
 10
30.8563
 20
5.0251
 10
30.8285
 20
4.9535
 10
30.7986
 20
4.8842
 10
30.7665
 20
4.8171
 10
30.7323
 20
4.7523
 10
30.6959
 20
4.6898
 10
30.6573
 20
4.6295
 10
30.6166
 20
4.5716
 10
30.5738
 20
4.5158
 10
30.5288
 20
4.4624
 10
30.4816
 20
4.4112
 10
30.4322
 20
4.3623
 10
30.3808
 20
4.3157
 10
30.3269
 20
4.2712
 10
30.2701
 20
4.2283
 10
30.2117
 20
4.1882
 10
30.1517
 20
4.1508
 10
30.0901
 20
4.1163
 10
30.0268
 20
4.0844
 10
29.962
 20
4.0554
 10
29.8956
 20
4.0291
 10
29.8276
 20
4.0056
 10
29.758
 20
3.9848
 10
29.6868
 20
3.9669
 10
29.614
 20
3.9516
 10
29.5396
 20
3.9392
 10
29.4636
 20
3.9295
 10
29.3861
 20
3.9226
 10
29.3069
 20
3.9184
 10
29.2261
 20
3.9171
 10
29.1414
 20
3.9182
 10
29.0585
 20
3.9218
 10
28.9772
 20
3.9276
 10
28.8977
 20
3.9358
 10
28.8198
 20
3.9464
 10
28.7436
 20
3.9593
 10
28.6692
 20
3.9745
 10
28.5964
 20
3.9921
 10
28.5253
 20
4.0121
 10
28.456
 20
4.0344
 10
28.3883
 20
4.059
 10
28.3223
 20
4.086
 10
28.2581
 20
4.1153
 10
28.1955
 20
4.147
 10
28.1346
 20
4.181
 10
28.0754
 20
4.2174
 10
28.018
 20
4.2561
 10
27.9622
 20
4.2972
 10
27.9081
 20
4.3406
 10
27.8557
 20
4.3863
 10
27.805
 20
4.4344
 10
27.756
 20
4.4849
 10
27.709
 20
4.5374
 10
27.6676
 20
4.5872
 10
27.6279
 20
4.6385
 10
27.5899
 20
4.6915
 10
27.5536
 20
4.746
 10
27.5189
 20
4.8021
 10
27.4859
 20
4.8599
 10
27.4546
 20
4.9192
 10
27.425
 20
4.98
 10
27.397
 20
5.0425
 10
27.3707
 20
5.1066
 10
27.3461
 20
5.1722
 10
27.3232
 20
5.2394
 10
27.3019
 20
5.3082
 10
27.2823
 20
5.3786
 10
27.2644
 20
5.4506
 10
27.2481
 20
5.5242
 10
27.2335
 20
5.5993
 10
27.2206
 20
5.6761
 10
27.2094
 20
5.7544
 10
27.1998
 20
5.8343
 10
27.192
 20
5.9158
 10
27.1857
 20
5.9989
 10
27.1812
 20
6.0835
 10
27.1783
 20
6.1698
 10
27.1771
 20
6.2576
 10
27.1771
 20
6.3345
 10
27.1771
 20
6.4082
 10
27.1771
 20
6.4819
 10
27.1771
 20
6.5556
 10
27.1771
 20
6.6292
 10
27.1771
 20
6.7029
 10
27.1771
 20
6.7766
 10
27.1771
 20
6.8503
 10
27.1771
 20
6.9239
 10
27.1771
 20
6.9976
 10
27.1771
 20
7.0713
 10
27.1771
 20
7.145
 10
27.1771
 20
7.2186
 10
27.1771
 20
7.2923
 10
27.1771
 20
7.366
 10
27.1771
 20
7.4397
 10
27.1771
 20
7.5133
 10
27.1771
 20
7.587
 10
27.1771
 20
7.6607
 10
27.1771
 20
7.7344
 10
27.1771
 20
7.808
 10
27.1771
 20
7.8817
 10
27.1771
 20
7.9554
 10
27.1771
 20
8.0291
 10
27.1771
 20
8.1027
 10
27.1771
 20
8.1764
 10
27.1771
 20
8.2501
 10
27.1771
 20
8.3238
 10
27.1771
 20
8.3974
 10
27.1771
 20
8.4711
 10
27.1771
 20
8.5448
 10
27.1771
 20
8.6185
 10
27.1771
 20
8.6921
 10
27.1771
 20
8.7658
 10
27.1771
 20
8.8395
 10
27.1771
 20
8.9132
 10
27.1771
 20
8.9869
 10
27.1771
 20
9.0605
 10
27.1771
 20
9.1342
 10
27.1771
 20
9.2079
 10
27.1771
 20
9.2816
 10
27.1771
 20
9.3552
 10
27.1771
 20
9.4289
 10
27.1771
 20
9.5026
 10
27.1771
 20
9.5763
 10
27.1771
 20
9.6499
 10
27.1771
 20
9.7236
 10
27.1771
 20
9.7973
 10
27.1771
 20
9.871
 10
27.1771
 20
9.9446
 10
27.1771
 20
10.0183
 10
27.1771
 20
10.092
 10
27.1771
 20
10.1657
 10
27.1771
 20
10.2393
 10
27.1771
 20
10.313
 10
27.1771
 20
10.3867
 10
27.1771
 20
10.4604
 10
27.1771
 20
10.534
 10
27.1771
 20
10.6077
 10
27.2353
 20
10.6232
 10
27.309
 20
10.6232
 10
27.3827
 20
10.6232
 10
27.4564
 20
10.6232
 10
27.53
 20
10.6232
 10
27.6037
 20
10.6232
 10
27.6774
 20
10.6232
 10
27.7511
 20
10.6232
 10
27.8247
 20
10.6232
 10
27.8984
 20
10.6232
 10
27.9721
 20
10.6232
 10
28.0458
 20
10.6232
 10
28.1194
 20
10.6232
 10
28.1931
 20
10.6232
 10
28.2668
 20
10.6232
 10
28.3405
 20
10.6232
 10
28.4141
 20
10.6232
 10
28.4878
 20
10.6232
 10
28.5615
 20
10.6232
 10
28.6352
 20
10.6232
 10
28.7088
 20
10.6232
 10
28.7107
 20
10.5514
 10
28.7107
 20
10.4777
 10
28.7107
 20
10.404
 10
28.7107
 20
10.3303
 10
28.7107
 20
10.2567
 10
28.7107
 20
10.183
 10
28.7107
 20
10.1093
 10
28.7107
 20
10.0356
 10
28.7107
 20
9.962
 10
28.7107
 20
9.8883
 10
28.7107
 20
9.8146
 10
28.7107
 20
9.7409
 10
28.7107
 20
9.6673
 10
28.7107
 20
9.5936
 10
28.7107
 20
9.5199
 10
28.7107
 20
9.4462
 10
28.7107
 20
9.3726
 10
28.7107
 20
9.2989
 10
28.7107
 20
9.2252
 10
28.7107
 20
9.1515
 10
28.7107
 20
9.0779
 10
28.7107
 20
9.0042
 10
28.7107
 20
8.9305
 10
28.7107
 20
8.8568
 10
28.7107
 20
8.7832
 10
28.7107
 20
8.7095
 10
28.7107
 20
8.6358
 10
28.7107
 20
8.5621
 10
28.7107
 20
8.4885
 10
28.7107
 20
8.4148
 10
28.7107
 20
8.3411
 10
28.7107
 20
8.2674
 10
28.7107
 20
8.1938
 10
28.7107
 20
8.1201
 10
28.7107
 20
8.0464
 10
28.7107
 20
7.9727
 10
28.7107
 20
7.8991
 10
28.7107
 20
7.8254
 10
28.7107
 20
7.7517
 10
28.7107
 20
7.678
 10
28.7107
 20
7.6043
 10
28.7107
 20
7.5307
 10
28.7107
 20
7.457
 10
28.7107
 20
7.3833
 10
28.7107
 20
7.3096
 10
28.7107
 20
7.236
 10
28.7107
 20
7.1623
 10
28.7107
 20
7.0886
 10
28.7107
 20
7.0149
 10
28.7107
 20
6.9413
 10
28.7107
 20
6.8676
 10
28.7107
 20
6.7939
 10
28.7107
 20
6.7202
 10
28.7107
 20
6.6466
 10
28.7107
 20
6.5729
 10
28.7109
 20
6.4942
 10
28.7139
 20
6.4084
 10
28.7204
 20
6.3257
 10
28.7304
 20
6.2461
 10
28.7439
 20
6.1698
 10
28.7609
 20
6.0966
 10
28.7814
 20
6.0265
 10
28.8054
 20
5.9596
 10
28.833
 20
5.8959
 10
28.864
 20
5.8354
 10
28.8986
 20
5.778
 10
28.9366
 20
5.7238
 10
28.9782
 20
5.6728
 10
29.0253
 20
5.6229
 10
29.0769
 20
5.5757
 10
29.1316
 20
5.5329
 10
29.1895
 20
5.4945
 10
29.2504
 20
5.4605
 10
29.3144
 20
5.4309
 10
29.3816
 20
5.4056
 10
29.4518
 20
5.3848
 10
29.5252
 20
5.3683
 10
29.6016
 20
5.3563
 10
29.6811
 20
5.3486
 10
29.7638
 20
5.3453
 10
29.8479
 20
5.3463
 10
29.9295
 20
5.3512
 10
30.0083
 20
5.3601
 10
30.0844
 20
5.373
 10
30.1576
 20
5.3898
 10
30.2281
 20
5.4106
 10
30.2958
 20
5.4353
 10
30.3608
 20
5.464
 10
30.4229
 20
5.4967
 10
30.4823
 20
5.5333
 10
30.539
 20
5.5738
 10
30.5928
 20
5.6183
 10
30.6439
 20
5.6668
 10
30.6922
 20
5.7193
 10
30.7377
 20
5.7757
 10
30.7735
 20
5.8258
 10
30.8023
 20
5.871
 10
30.8297
 20
5.9189
 10
30.8556
 20
5.9694
 10
30.8802
 20
6.0226
 10
30.9033
 20
6.0784
 10
30.9251
 20
6.1369
 10
30.9454
 20
6.1981
 10
30.9643
 20
6.2619
 10
30.9819
 20
6.3284
 10
30.998
 20
6.3975
 10
31.0127
 20
6.4693
 10
31.026
 20
6.5438
 10
31.0379
 20
6.6209
 10
31.0485
 20
6.7007
 10
31.0576
 20
6.7832
 10
31.0653
 20
6.8683
 10
31.0716
 20
6.956
 10
31.0765
 20
7.0465
 10
31.0799
 20
7.1396
 10
31.082
 20
7.2353
 10
31.0827
 20
7.3097
 10
31.0827
 20
7.4263
 10
31.0827
 20
7.5531
 10
31.0827
 20
7.68
 10
31.0827
 20
7.8068
 10
31.0827
 20
7.9337
 10
31.0827
 20
8.0605
 10
31.0827
 20
8.1874
 10
31.0827
 20
8.3142
 10
31.0827
 20
8.4411
 10
31.0827
 20
8.5679
 10
31.0827
 20
8.6948
 10
31.0827
 20
8.8216
 10
31.0827
 20
8.9485
 10
31.0827
 20
9.0753
 10
31.0827
 20
9.2022
 10
31.0827
 20
9.3291
 10
31.0827
 20
9.4559
 10
31.0827
 20
9.5828
 10
31.0827
 20
9.7096
 10
31.0827
 20
9.8365
 10
31.0827
 20
9.9633
 10
31.0827
 20
10.0902
 10
31.0827
 20
10.217
 10
31.0827
 20
10.3439
 10
31.0827
 20
10.4707
 10
31.0827
 20
10.5976
 10
31.184
 20
10.6232
 10
31.3108
 20
10.6232
 10
31.4377
 20
10.6232
 10
31.5645
 20
10.6232
 10
31.6914
 20
10.6232
 10
31.8182
 20
10.6232
 10
31.9451
 20
10.6232
 10
32.0719
 20
10.6232
 10
32.1988
 20
10.6232
 10
32.3256
 20
10.6232
 10
32.4525
 20
10.6232
 10
32.5793
 20
10.6232
 10
32.6165
 20
10.5334
 10
32.6165
 20
10.4066
 10
32.6165
 20
10.2797
 10
32.6165
 20
10.1529
 10
32.6165
 20
10.026
 10
32.6165
 20
9.8992
 10
32.6165
 20
9.7723
 10
32.6165
 20
9.6455
 10
32.6165
 20
9.5186
 10
32.6165
 20
9.3918
 10
32.6165
 20
9.2649
 10
32.6165
 20
9.138
 10
32.6165
 20
9.0112
 10
32.6165
 20
8.8843
 10
32.6165
 20
8.7575
 10
32.6165
 20
8.6306
 10
32.6165
 20
8.5038
 10
32.6165
 20
8.3769
 10
32.6165
 20
8.2501
 10
32.6165
 20
8.1232
 10
32.6165
 20
7.9964
 10
32.6165
 20
7.8695
 10
32.6165
 20
7.7427
 10
32.6165
 20
7.6158
 10
32.6165
 20
7.489
 10
32.6165
 20
7.3621
 10
32.6165
 20
7.2353
 10
32.6165
 20
7.1084
 10
32.6165
 20
6.9816
 10
32.6165
 20
6.8547
 10
32.6165
 20
6.7278
  0
LWPOLYLINE
  5
4D
330
17
100
AcDbEntity
  8
OUTLINE
100
AcDbPolyline
 90
672
 70
1
 10
37.0676
 20
3.9173
 10
37.0003
 20
3.9171
 10
36.9415
 20
3.9171
 10
36.8834
 20
3.9173
 10
36.8259
 20
3.9177
 10
36.7689
 20
3.9182
 10
36.7126
 20
3.9189
 10
36.6568
 20
3.9196
 10
36.6017
 20
3.9206
 10
36.5471
 20
3.9217
 10
36.4932
 20
3.9229
 10
36.4398
 20
3.9242
 10
36.387
 20
3.9258
 10
36.3348
 20
3.9274
 10
36.2832
 20
3.9292
 10
36.2322
 20
3.9311
 10
36.1818
 20
3.9332
 10
36.132
 20
3.9355
 10
36.0828
 20
3.9378
 10
36.0342
 20
3.9403
 10
35.9861
 20
3.943
 10
35.9387
 20
3.9458
 10
35.8918
 20
3.9487
 10
35.8456
 20
3.9518
 10
35.7999
 20
3.9551
 10
35.7549
 20
3.9584
 10
35.7104
 20
3.962
 10
35.6595
 20
3.9662
 10
35.6032
 20
3.9712
 10
35.5474
 20
3.9765
 10
35.4923
 20
3.982
 10
35.4378
 20
3.9877
 10
35.3839
 20
3.9937
 10
35.3306
 20
3.9999
 10
35.2779
 20
4.0063
 10
35.2259
 20
4.013
 10
35.1744
 20
4.02
 10
35.1236
 20
4.0272
 10
35.0734
 20
4.0346
 10
35.0238
 20
4.0423
 10
34.9748
 20
4.0502
 10
34.9264
 20
4.0583
 10
34.8786
 20
4.0667
 10
34.8315
 20
4.0753
 10
34.7849
 20
4.0842
 10
34.739
 20
4.0933
 10
34.6937
 20
4.1027
 10
34.6963
 20
4.1508
 10
34.7027
 20
4.2019
 10
34.7091
 20
4.253
 10
34.7155
 20
4.3041
 10
34.7219
 20
4.3552
 10
34.7283
 20
4.4063
 10
34.7347
 20
4.4574
 10
34.7411
 20
4.5085
 10
34.7474
 20
4.5596
 10
34.7538
 20
4.6107
 10
34.7602
 20
4.6618
 10
34.7666
 20
4.713
 10
34.773
 20
4.7641
 10
34.7794
 20
4.8152
 10
34.7858
 20
4.8663
 10
34.7922
 20
4.9174
 10
34.7985
 20
4.9685
 10
34.8049
 20
5.0196
 10
34.8113
 20
5.0707
 10
34.8177
 20
5.1218
 10
34.8241
 20
5.1729
 10
34.8305
 20
5.224
 10
34.8369
 20
5.2751
 10
34.8432
 20
5.3262
 10
34.8496
 20
5.3773
 10
34.856
 20
5.4284
 10
34.8624
 20
5.4795
 10
34.8688
 20
5.5306
 10
34.9144
 20
5.5379
 10
34.9731
 20
5.5299
 10
35.0311
 20
5.5222
 10
35.0884
 20
5.5146
 10
35.145
 20
5.5071
 10
35.2009
 20
5.4999
 10
35.2562
 20
5.4928
 10
35.3107
 20
5.4858
 10
35.3646
 20
5.4791
 10
35.4178
 20
5.4725
 10
35.4703
 20
5.466
 10
35.5221
 20
5.4598
 10
35.5732
 20
5.4537
 10
35.6236
 20
5.4477
 10
35.6733
 20
5.442
 10
35.7224
 20
5.4364
 10
35.7707
 20
5.4309
 10
35.8184
 20
5.4257
 10
35.8654
 20
5.4206
 10
35.9117
 20
5.4156
 10
35.9573
 20
5.4109
 10
36.0022
 20
5.4063
 10
36.0464
 20
5.4018
 10
36.0899
 20
5.3976
 10
36.1388
 20
5.3929
 10
36.1987
 20
5.3874
 10
36.2575
 20
5.3822
 10
36.3152
 20
5.3774
 10
36.3718
 20
5.3729
 10
36.4273
 20
5.3687
 10
36.4817
 20
5.3649
 10
36.5351
 20
5.3614
 10
36.5873
 20
5.3583
 10
36.6384
 20
5.3555
 10
36.6884
 20
5.353
 10
36.7373
 20
5.3509
 10
36.7852
 20
5.3491
 10
36.8319
 20
5.3476
 10
36.8775
 20
5.3465
 10
36.9221
 20
5.3457
 10
36.9655
 20
5.3453
 10
37.013
 20
5.3452
 10
37.0823
 20
5.3455
 10
37.1502
 20
5.3462
 10
37.2165
 20
5.3474
 10
37.2813
 20
5.3491
 10
37.3446
 20
5.3512
 10
37.4064
 20
5.3537
 10
37.4667
 20
5.3567
 10
37.5255
 20
5.3602
 10
37.5828
 20
5.3641
 10
37.6385
 20
5.3684
 10
37.6928
 20
5.3732
 10
37.7456
 20
5.3785
 10
37.7968
 20
5.3841
 10
37.8466
 20
5.3903
 10
37.8949
 20
5.3969
 10
37.9416
 20
5.4039
 10
37.9868
 20
5.4114
 10
38.0306
 20
5.4193
 10
38.0728
 20
5.4277
 10
38.1135
 20
5.4365
 10
38.1527
 20
5.4458
 10
38.1905
 20
5.4556
 10
38.2267
 20
5.4657
 10
38.2614
 20
5.4764
 10
38.2946
 20
5.4874
 10
38.3387
 20
5.5038
 10
38.397
 20
5.5286
 10
38.4504
 20
5.5555
 10
38.4991
 20
5.5845
 10
38.5428
 20
5.6155
 10
38.5818
 20
5.6486
 10
38.6159
 20
5.6837
 10
38.6452
 20
5.7209
 10
38.6697
 20
5.7602
 10
38.6894
 20
5.8016
 10
38.7042
 20
5.845
 10
38.7142
 20
5.8904
 10
38.7194
 20
5.938
 10
38.7197
 20
5.9917
 10
38.7149
 20
6.0485
 10
38.705
 20
6.1014
 10
38.6898
 20
6.1501
 10
38.6695
 20
6.1947
 10
38.644
 20
6.2353
 10
38.6134
 20
6.2718
 10
38.5817
 20
6.3011
 10
38.5478
 20
6.3271
 10
38.5097
 20
6.3517
 10
38.4674
 20
6.3751
 10
38.421
 20
6.3971
 10
38.3704
 20
6.4179
 10
38.3157
 20
6.4373
 10
38.2569
 20
6.4554
 10
38.2019
 20
6.4706
 10
38.1523
 20
6.4845
 10
38.1027
 20
6.4983
 10
38.053
 20
6.5121
 10
38.0034
 20
6.5259
 10
37.9538
 20
6.5398
 10
37.9042
 20
6.5536
 10
37.8546
 20
6.5674
 10
37.805
 20
6.5812
 10
37.7554
 20
6.5951
 10
37.7057
 20
6.6089
 10
37.6561
 20
6.6227
 10
37.6065
 20
6.6365
 10
37.5569
 20
6.6504
 10
37.5073
 20
6.6642
 10
37.4577
 20
6.678
 10
37.4081
 20
6.6918
 10
37.3585
 20
6.7057
 10
37.3088
 20
6.7195
 10
37.2592
 20
6.7333
 10
37.2096
 20
6.7471
 10
37.16
 20
6.761
 10
37.1104
 20
6.7748
 10
37.0608
 20
6.7886
 10
37.0112
 20
6.8024
 10
36.9616
 20
6.8163
 10
36.9119
 20
6.8301
 10
36.8623
 20
6.8439
 10
36.8127
 20
6.8577
 10
36.7631
 20
6.8716
 10
36.7135
 20
6.8854
 10
36.6639
 20
6.8992
 10
36.6143
 20
6.913
 10
36.5646
 20
6.9269
 10
36.515
 20
6.9407
 10
36.4654
 20
6.9545
 10
36.4158
 20
6.9683
 10
36.3662
 20
6.9822
 10
36.3123
 20
6.9972
 10
36.2525
 20
7.0146
 10
36.1939
 20
7.0324
 10
36.1365
 20
7.0508
 10
36.0803
 20
7.0696
 10
36.0254
 20
7.089
 10
35.9716
 20
7.1088
 10
35.9191
 20
7.1292
 10
35.8678
 20
7.15
 10
35.8176
 20
7.1714
 10
35.7687
 20
7.1932
 10
35.7211
 20
7.2156
 10
35.6746
 20
7.2384
 10
35.6293
 20
7.2618
 10
35.5853
 20
7.2856
 10
35.5425
 20
7.3099
 10
35.5008
 20
7.3348
 10
35.4604
 20
7.3601
 10
35.4212
 20
7.3859
 10
35.3832
 20
7.4123
 10
35.3465
 20
7.4391
 10
35.3109
 20
7.4664
 10
35.2766
 20
7.4942
 10
35.2434
 20
7.5226
 10
35.2115
 20
7.5514
 10
35.1808
 20
7.5807
 10
35.1488
 20
7.6133
 10
35.117
 20
7.6482
 10
35.0868
 20
7.6844
 10
35.0579
 20
7.7217
 10
35.0306
 20
7.7603
 10
35.0047
 20
7.8
 10
34.9803
 20
7.841
 10
34.9574
 20
7.8832
 10
34.9359
 20
7.9266
 10
34.916
 20
7.9712
 10
34.8974
 20
8.017
 10
34.8804
 20
8.064
 10
34.8648
 20
8.1122
 10
34.8507
 20
8.1616
 10
34.838
 20
8.2122
 10
34.8269
 20
8.2641
 10
34.8172
 20
8.3171
 10
34.8089
 20
8.3714
 10
34.8022
 20
8.4268
 10
34.7969
 20
8.4835
 10
34.793
 20
8.5414
 10
34.7907
 20
8.6005
 10
34.7898
 20
8.6608
 10
34.7903
 20
8.7189
 10
34.7921
 20
8.7759
 10
34.7952
 20
8.8321
 10
34.7995
 20
8.8875
 10
34.8052
 20
8.942
 10
34.8121
 20
8.9957
 10
34.8203
 20
9.0485
 10
34.8298
 20
9.1005
 10
34.8406
 20
9.1517
 10
34.8527
 20
9.2021
 10
34.866
 20
9.2516
 10
34.8807
 20
9.3003
 10
34.8966
 20
9.3481
 10
34.9138
 20
9.3951
 10
34.9323
 20
9.4413
 10
34.9521
 20
9.4866
 10
34.9732
 20
9.5312
 10
34.9956
 20
9.5748
 10
35.0192
 20
9.6177
 10
35.0441
 20
9.6597
 10
35.0704
 20
9.7009
 10
35.0979
 20
9.7412
 10
35.1267
 20
9.7807
 10
35.1567
 20
9.8194
 10
35.1881
 20
9.8572
 10
35.2207
 20
9.8942
 10
35.2547
 20
9.9304
 10
35.2899
 20
9.9658
 10
35.3264
 20
10.0003
 10
35.3642
 20
10.0339
 10
35.4032
 20
10.0668
 10
35.4436
 20
10.0988
 10
35.4852
 20
10.13
 10
35.5281
 20
10.1603
 10
35.5724
 20
10.1898
 10
35.6179
 20
10.2185
 10
35.6619
 20
10.2447
 10
35.6945
 20
10.2632
 10
35.7278
 20
10.2815
 10
35.7617
 20
10.2993
 10
35.7963
 20
10.3168
 10
35.8316
 20
10.334
 10
35.8675
 20
10.3508
 10
35.9042
 20
10.3672
 10
35.9414
 20
10.3834
 10
35.9794
 20
10.3991
 10
36.018
 20
10.4145
 10
36.0573
 20
10.4296
 10
36.0972
 20
10.4443
 10
36.1378
 20
10.4587
 10
36.1791
 20
10.4727
 10
36.221
 20
10.4864
 10
36.2636
 20
10.4997
 10
36.3069
 20
10.5127
 10
36.3508
 20
10.5253
 10
36.3954
 20
10.5376
 10
36.4407
 20
10.5495
 10
36.4866
 20
10.5611
 10
36.5332
 20
10.5723
 10
36.5805
 20
10.5832
 10
36.6284
 20
10.5937
 10
36.677
 20
10.6039
 10
36.7263
 20
10.6137
 10
36.7762
 20
10.6232
 10
36.8268
 20
10.6323
 10
36.878
 20
10.6411
 10
36.93
 20
10.6495
 10
36.9825
 20
10.6576
 10
37.0358
 20
10.6654
 10
37.0897
 20
10.6728
 10
37.1443
 20
10.6798
 10
37.1996
 20
10.6865
 10
37.2555
 20
10.6928
 10
37.3121
 20
10.6988
 10
37.3693
 20
10.7045
 10
37.4272
 20
10.7098
 10
37.4858
 20
10.7147
 10
37.545
 20
10.7193
 10
37.605
 20
10.7236
 10
37.6655
 20
10.7275
 10
37.7268
 20
10.731
 10
37.7887
 20
10.7342
 10
37.8513
 20
10.7371
 10
37.9145
 20
10.7396
 10
37.9784
 20
10.7417
 10
38.043
 20
10.7435
 10
38.1082
 20
10.745
 10
38.1741
 20
10.7461
 10
38.2407
 20
10.7469
 10
38.3079
 20
10.7473
 10
38.3706
 20
10.7473
 10
38.4226
 20
10.7472
 10
38.4744
 20
10.7468
 10
38.5263
 20
10.7462
 10
38.578
 20
10.7454
 10
38.6297
 20
10.7444
 10
38.6814
 20
10.7431
 10
38.7329
 20
10.7417
 10
38.7844
 20
10.7401
 10
38.8359
 20
10.7382
 10
38.8873
 20
10.7362
 10
38.9386
 20
10.7339
 10
38.9898
 20
10.7314
 10
39.041
 20
10.7287
 10
39.0922
 20
10.7258
 10
39.1433
 20
10.7227
 10
39.1943
 20
10.7194
 10
39.245
 20
10.7159
 10
39.2941
 20
10.7123
 10
39.3435
 20
10.7085
 10
39.3931
 20
10.7045
 10
39.443
 20
10.7003
 10
39.4931
 20
10.6959
 10
39.5435
 20
10.6913
 10
39.5942
 20
10.6866
 10
39.6451
 20
10.6816
 10
39.6962
 20
10.6765
 10
39.7476
 20
10.6711
 10
39.7993
 20
10.6656
 10
39.8512
 20
10.6599
 10
39.9034
 20
10.6539
 10
39.9558
 20
10.6478
 10
40.0085
 20
10.6415
 10
40.0614
 20
10.635
 10
40.1146
 20
10.6283
 10
40.1531
 20
10.6104
 10
40.1472
 20
10.5592
 10
40.1413
 20
10.5081
 10
40.1353
 20
10.4569
 10
40.1294
 20
10.4057
 10
40.1234
 20
10.3546
 10
40.1175
 20
10.3034
 10
40.1116
 20
10.2523
 10
40.1056
 20
10.2011
 10
40.0997
 20
10.15
 10
40.0937
 20
10.0988
 10
40.0878
 20
10.0476
 10
40.0819
 20
9.9965
 10
40.0759
 20
9.9453
 10
40.07
 20
9.8942
 10
40.064
 20
9.843
 10
40.0581
 20
9.7918
 10
40.0522
 20
9.7407
 10
40.0462
 20
9.6895
 10
40.0403
 20
9.6384
 10
40.0343
 20
9.5872
 10
40.0284
 20
9.536
 10
40.0225
 20
9.4849
 10
40.0165
 20
9.4337
 10
40.0106
 20
9.3826
 10
40.0046
 20
9.3314
 10
39.9987
 20
9.2802
 10
39.9895
 20
9.2326
 10
39.9313
 20
9.2379
 10
39.874
 20
9.243
 10
39.8174
 20
9.2479
 10
39.7616
 20
9.2526
 10
39.7065
 20
9.2572
 10
39.6523
 20
9.2616
 10
39.5989
 20
9.2657
 10
39.5462
 20
9.2698
 10
39.4943
 20
9.2736
 10
39.4432
 20
9.2772
 10
39.3929
 20
9.2807
 10
39.3434
 20
9.284
 10
39.2946
 20
9.2871
 10
39.2467
 20
9.29
 10
39.1995
 20
9.2927
 10
39.1531
 20
9.2953
 10
39.1075
 20
9.2976
 10
39.0627
 20
9.2998
 10
39.0104
 20
9.3022
 10
38.9539
 20
9.3046
 10
38.8983
 20
9.3068
 10
38.8435
 20
9.3088
 10
38.7896
 20
9.3107
 10
38.7365
 20
9.3124
 10
38.6842
 20
9.3138
 10
38.6327
 20
9.3151
 10
38.5821
 20
9.3163
 10
38.5323
 20
9.3172
 10
38.4834
 20
9.3179
 10
38.4353
 20
9.3185
 10
38.388
 20
9.3189
 10
38.3416
 20
9.3191
 10
38.2847
 20
9.3191
 10
38.2155
 20
9.3187
 10
38.1477
 20
9.3181
 10
38.0812
 20
9.3171
 10
38.016
 20
9.3157
 10
37.9522
 20
9.3141
 10
37.8897
 20
9.3121
 10
37.8285
 20
9.3097
 10
37.7686
 20
9.307
 10
37.7101
 20
9.304
 10
37.6529
 20
9.3007
 10
37.597
 20
9.297
 10
37.5425
 20
9.2929
 10
37.4892
 20
9.2886
 10
37.4373
 20
9.2839
 10
37.3868
 20
9.2788
 10
37.3375
 20
9.2735
 10
37.2896
 20
9.2677
 10
37.243
 20
9.2617
 10
37.1978
 20
9.2553
 10
37.1538
 20
9.2486
 10
37.1112
 20
9.2415
 10
37.07
 20
9.2341
 10
37.03
 20
9.2264
 10
36.9914
 20
9.2183
 10
36.9541
 20
9.2099
 10
36.9181
 20
9.2011
 10
36.8835
 20
9.192
 10
36.8502
 20
9.1826
 10
36.8055
 20
9.1688
 10
36.7419
 20
9.1462
 10
36.6834
 20
9.1218
 10
36.6298
 20
9.0955
 10
36.5811
 20
9.0674
 10
36.5374
 20
9.0374
 10
36.4987
 20
9.0055
 10
36.465
 20
8.9717
 10
36.4363
 20
8.9361
 10
36.4125
 20
8.8986
 10
36.3937
 20
8.8592
 10
36.3798
 20
8.818
 10
36.371
 20
8.7749
 10
36.3671
 20
8.7299
 10
36.3684
 20
8.6739
 10
36.3754
 20
8.6181
 10
36.3883
 20
8.5671
 10
36.407
 20
8.5208
 10
36.4316
 20
8.4792
 10
36.4619
 20
8.4425
 10
36.498
 20
8.4104
 10
36.5313
 20
8.3874
 10
36.567
 20
8.366
 10
36.6066
 20
8.3451
 10
36.6498
 20
8.325
 10
36.6968
 20
8.3054
 10
36.7476
 20
8.2865
 10
36.8021
 20
8.2681
 10
36.8604
 20
8.2504
 10
36.9224
 20
8.2334
 10
36.9729
 20
8.2198
 10
37.0226
 20
8.2064
 10
37.0724
 20
8.193
 10
37.1221
 20
8.1796
 10
37.1718
 20
8.1662
 10
37.2215
 20
8.1528
 10
37.2713
 20
8.1394
 10
37.321
 20
8.126
 10
37.3707
 20
8.1126
 10
37.4205
 20
8.0992
 10
37.4702
 20
8.0858
 10
37.5199
 20
8.0724
 10
37.5697
 20
8.059
 10
37.6194
 20
8.0456
 10
37.6691
 20
8.0322
 10
37.7188
 20
8.0188
 10
37.7686
 20
8.0054
 10
37.8183
 20
7.992
 10
37.868
 20
7.9786
 10
37.9178
 20
7.9652
 10
37.9675
 20
7.9518
 10
38.0172
 20
7.9384
 10
38.0669
 20
7.925
 10
38.1167
 20
7.9116
 10
38.1664
 20
7.8982
 10
38.2161
 20
7.8848
 10
38.2659
 20
7.8714
 10
38.3156
 20
7.858
 10
38.3653
 20
7.8446
 10
38.415
 20
7.8312
 10
38.4648
 20
7.8178
 10
38.5145
 20
7.8044
 10
38.5757
 20
7.7884
 10
38.6361
 20
7.772
 10
38.6953
 20
7.7551
 10
38.7535
 20
7.7378
 10
38.8106
 20
7.72
 10
38.8667
 20
7.7019
 10
38.9216
 20
7.6833
 10
38.9755
 20
7.6642
 10
39.0283
 20
7.6448
 10
39.08
 20
7.6249
 10
39.1307
 20
7.6046
 10
39.1802
 20
7.5838
 10
39.2287
 20
7.5626
 10
39.2761
 20
7.541
 10
39.3224
 20
7.5189
 10
39.3677
 20
7.4965
 10
39.4119
 20
7.4736
 10
39.455
 20
7.4502
 10
39.497
 20
7.4264
 10
39.5379
 20
7.4022
 10
39.5778
 20
7.3776
 10
39.6165
 20
7.3525
 10
39.6542
 20
7.327
 10
39.6909
 20
7.3011
 10
39.7264
 20
7.2747
 10
39.7609
 20
7.2479
 10
39.7943
 20
7.2207
 10
39.8266
 20
7.193
 10
39.8578
 20
7.165
 10
39.8886
 20
7.1358
 10
39.9233
 20
7.1008
 10
39.9566
 20
7.0649
 10
39.9885
 20
7.0279
 10
40.0189
 20
6.9899
 10
40.0479
 20
6.951
 10
40.0755
 20
6.911
 10
40.1016
 20
6.8701
 10
40.1264
 20
6.8282
 10
40.1497
 20
6.7852
 10
40.1715
 20
6.7413
 10
40.192
 20
6.6964
 10
40.211
 20
6.6504
 10
40.2286
 20
6.6035
 10
40.2447
 20
6.5556
 10
40.2595
 20
6.5067
 10
40.2728
 20
6.4567
 10
40.2847
 20
6.4058
 10
40.2951
 20
6.3539
 10
40.3042
 20
6.301
 10
40.3118
 20
6.2471
 10
40.318
 20
6.1922
 10
40.3227
 20
6.1363
 10
40.3261
 20
6.0794
 10
40.328
 20
6.0215
 10
40.3284
 20
5.9627
 10
40.3276
 20
5.9042
 10
40.3255
 20
5.8465
 10
40.3221
 20
5.7898
 10
40.3175
 20
5.7339
 10
40.3115
 20
5.6789
 10
40.3044
 20
5.6248
 10
40.2959
 20
5.5715
 10
40.2862
 20
5.5191
 10
40.2752
 20
5.4675
 10
40.2629
 20
5.4169
 10
40.2494
 20
5.3671
 10
40.2346
 20
5.3182
 10
40.2185
 20
5.2701
 10
40.2012
 20
5.2229
 10
40.1826
 20
5.1766
 10
40.1627
 20
5.1312
 10
40.1416
 20
5.0866
 10
40.1192
 20
5.0429
 10
40.0955
 20
5.0001
 10
40.0705
 20
4.9581
 10
40.0443
 20
4.917
 10
40.0168
 20
4.8768
 10
39.9881
 20
4.8375
 10
39.958
 20
4.799
 10
39.9267
 20
4.7614
 10
39.8942
 20
4.7246
 10
39.8604
 20
4.6887
 10
39.8253
 20
4.6537
 10
39.7889
 20
4.6196
 10
39.7512
 20
4.5863
 10
39.7123
 20
4.554
 10
39.6722
 20
4.5224
 10
39.6307
 20
4.4918
 10
39.588
 20
4.462
 10
39.544
 20
4.4331
 10
39.5044
 20
4.4085
 10
39.4717
 20
4.389
 10
39.4382
 20
4.3699
 10
39.4039
 20
4.3513
 10
39.369
 20
4.333
 10
39.3334
 20
4.3151
 10
39.2971
 20
4.2976
 10
39.2601
 20
4.2805
 10
39.2223
 20
4.2638
 10
39.1839
 20
4.2475
 10
39.1448
 20
4.2316
 10
39.1049
 20
4.216
 10
39.0644
 20
4.2009
 10
39.0231
 20
4.1862
 10
38.9811
 20
4.1718
 10
38.9385
 20
4.1578
 10
38.8951
 20
4.1443
 10
38.851
 20
4.1311
 10
38.8062
 20
4.1183
 10
38.7607
 20
4.106
 10
38.7145
 20
4.094
 10
38.6676
 20
4.0824
 10
38.62
 20
4.0712
 10
38.5717
 20
4.0604
 10
38.5226
 20
4.0499
 10
38.4729
 20
4.0399
 10
38.4225
 20
4.0303
 10
38.3713
 20
4.021
 10
38.3195
 20
4.0122
 10
38.2669
 20
4.0037
 10
38.2137
 20
3.9957
 10
38.1597
 20
3.988
 10
38.105
 20
3.9807
 10
38.0497
 20
3.9739
 10
37.9936
 20
3.9674
 10
37.9368
 20
3.9613
 10
37.8793
 20
3.9556
 10
37.8211
 20
3.9503
 10
37.7622
 20
3.9454
 10
37.7026
 20
3.9408
 10
37.6422
 20
3.9367
 10
37.5812
 20
3.933
 10
37.5195
 20
3.9296
 10
37.4571
 20
3.9267
 10
37.3939
 20
3.9241
 10
37.3301
 20
3.922
 10
37.2655
 20
3.9202
 10
37.2003
 20
3.9188
 10
37.1343
 20
3.9178
  0
LWPOLYLINE
  5
4E
330
17
100
AcDbEntity
  8
OUTLINE
100
AcDbPolyline
 90
192
 70
1
 10
52.5338
 20
3.9188
 10
52.4118
 20
3.9171
 10
52.2901
 20
3.9188
 10
52.1708
 20
3.924
 10
52.0539
 20
3.9326
 10
51.9394
 20
3.9447
 10
51.8274
 20
3.9603
 10
51.7178
 20
3.9793
 10
51.6105
 20
4.0018
 10
51.5057
 20
4.0278
 10
51.4033
 20
4.0572
 10
51.3034
 20
4.0901
 10
51.2058
 20
4.1264
 10
51.1107
 20
4.1662
 10
51.0179
 20
4.2094
 10
50.9276
 20
4.2562
 10
50.8397
 20
4.3063
 10
50.7542
 20
4.36
 10
50.6712
 20
4.4171
 10
50.5905
 20
4.4776
 10
50.5123
 20
4.5416
 10
50.4365
 20
4.6091
 10
50.363
 20
4.68
 10
50.292
 20
4.7544
 10
50.2253
 20
4.8301
 10
50.1659
 20
4.9027
 10
50.109
 20
4.9776
 10
50.0545
 20
5.0548
 10
50.0024
 20
5.1343
 10
49.9527
 20
5.2161
 10
49.9055
 20
5.3002
 10
49.8606
 20
5.3865
 10
49.8182
 20
5.4752
 10
49.7783
 20
5.5662
 10
49.7407
 20
5.6595
 10
49.7056
 20
5.7551
 10
49.6729
 20
5.8529
 10
49.6427
 20
5.9531
 10
49.6148
 20
6.0556
 10
49.5894
 20
6.1603
 10
49.5664
 20
6.2674
 10
49.5458
 20
6.3768
 10
49.5277
 20
6.4884
 10
49.512
 20
6.6024
 10
49.4987
 20
6.7186
 10
49.4878
 20
6.8372
 10
49.4794
 20
6.958
 10
49.4733
 20
7.0812
 10
49.4697
 20
7.2066
 10
49.4686
 20
7.3344
 10
49.4698
 20
7.4624
 10
49.4735
 20
7.5881
 10
49.4796
 20
7.7114
 10
49.4881
 20
7.8324
 10
49.499
 20
7.9512
 10
49.5124
 20
8.0675
 10
49.5281
 20
8.1816
 10
49.5463
 20
8.2934
 10
49.5669
 20
8.4028
 10
49.5899
 20
8.5099
 10
49.6154
 20
8.6146
 10
49.6432
 20
8.7171
 10
49.6735
 20
8.8172
 10
49.7062
 20
8.915
 10
49.7413
 20
9.0105
 10
49.7789
 20
9.1037
 10
49.8188
 20
9.1945
 10
49.8612
 20
9.283
 10
49.906
 20
9.3692
 10
49.9532
 20
9.4531
 10
50.0029
 20
9.5347
 10
50.0549
 20
9.6139
 10
50.1094
 20
9.6908
 10
50.1663
 20
9.7654
 10
50.2256
 20
9.8376
 10
50.2924
 20
9.9131
 10
50.3635
 20
9.9873
 10
50.4369
 20
10.058
 10
50.5128
 20
10.1253
 10
50.5911
 20
10.1891
 10
50.6718
 20
10.2495
 10
50.755
 20
10.3064
 10
50.8405
 20
10.3598
 10
50.9285
 20
10.4098
 10
51.0189
 20
10.4564
 10
51.1117
 20
10.4995
 10
51.207
 20
10.5391
 10
51.3046
 20
10.5753
 10
51.4047
 20
10.6081
 10
51.5072
 20
10.6374
 10
51.6121
 20
10.6632
 10
51.7194
 20
10.6856
 10
51.8291
 20
10.7045
 10
51.9413
 20
10.72
 10
52.0558
 20
10.732
 10
52.1728
 20
10.7406
 10
52.2922
 20
10.7457
 10
52.4141
 20
10.7473
 10
52.5362
 20
10.7456
 10
52.6558
 20
10.7403
 10
52.773
 20
10.7317
 10
52.8878
 20
10.7195
 10
53.0001
 20
10.704
 10
53.11
 20
10.685
 10
53.2174
 20
10.6625
 10
53.3223
 20
10.6366
 10
53.4249
 20
10.6073
 10
53.5249
 20
10.5745
 10
53.6226
 20
10.5383
 10
53.7177
 20
10.4986
 10
53.8105
 20
10.4555
 10
53.9008
 20
10.409
 10
53.9886
 20
10.359
 10
54.074
 20
10.3055
 10
54.1569
 20
10.2486
 10
54.2374
 20
10.1883
 10
54.3155
 20
10.1245
 10
54.3911
 20
10.0573
 10
54.4642
 20
9.9866
 10
54.5349
 20
9.9125
 10
54.6014
 20
9.8371
 10
54.6605
 20
9.7648
 10
54.7171
 20
9.6902
 10
54.7714
 20
9.6132
 10
54.8233
 20
9.534
 10
54.8727
 20
9.4523
 10
54.9197
 20
9.3684
 10
54.9643
 20
9.2821
 10
55.0065
 20
9.1936
 10
55.0463
 20
9.1027
 10
55.0837
 20
9.0094
 10
55.1187
 20
8.9139
 10
55.1512
 20
8.816
 10
55.1814
 20
8.7158
 10
55.2091
 20
8.6132
 10
55.2344
 20
8.5084
 10
55.2573
 20
8.4012
 10
55.2778
 20
8.2917
 10
55.2959
 20
8.1799
 10
55.3116
 20
8.0657
 10
55.3248
 20
7.9492
 10
55.3357
 20
7.8304
 10
55.3441
 20
7.7093
 10
55.3501
 20
7.5859
 10
55.3538
 20
7.4601
 10
55.355
 20
7.332
 10
55.3538
 20
7.2042
 10
55.3501
 20
7.0787
 10
55.3441
 20
6.9556
 10
55.3356
 20
6.8347
 10
55.3247
 20
6.7162
 10
55.3114
 20
6.5999
 10
55.2957
 20
6.4859
 10
55.2776
 20
6.3743
 10
55.257
 20
6.2649
 10
55.2341
 20
6.1578
 10
55.2087
 20
6.0531
 10
55.1809
 20
5.9506
 10
55.1506
 20
5.8505
 10
55.118
 20
5.7526
 10
55.083
 20
5.657
 10
55.0455
 20
5.5638
 10
55.0056
 20
5.4728
 10
54.9633
 20
5.3842
 10
54.9186
 20
5.2978
 10
54.8714
 20
5.2137
 10
54.8218
 20
5.132
 10
54.7699
 20
5.0525
 10
54.7155
 20
4.9754
 10
54.6587
 20
4.9005
 10
54.5994
 20
4.8279
 10
54.5327
 20
4.7522
 10
54.462
 20
4.678
 10
54.3888
 20
4.6072
 10
54.3131
 20
4.5399
 10
54.2351
 20
4.4761
 10
54.1545
 20
4.4157
 10
54.0716
 20
4.3588
 10
53.9862
 20
4.3053
 10
53.8983
 20
4.2552
 10
53.808
 20
4.2087
 10
53.7153
 20
4.1655
 10
53.6201
 20
4.1258
 10
53.5225
 20
4.0896
 10
53.4224
 20
4.0568
 10
53.3199
 20
4.0275
 10
53.2149
 20
4.0016
 10
53.1075
 20
3.9792
 10
52.9977
 20
3.9602
 10
52.8854
 20
3.9447
 10
52.7706
 20
3.9326
 10
52.6535
 20
3.924
  0
LWPOLYLINE
  5
4F
330
17
100
AcDbEntity
  8
OUTLINE
100
AcDbPolyline
 90
192
 70
1
 10
52.3501
 20
5.3463
 10
52.4118
 20
5.3452
 10
52.4739
 20
5.3463
 10
52.5346
 20
5.3499
 10
52.5939
 20
5.3558
 10
52.6518
 20
5.364
 10
52.7084
 20
5.3746
 10
52.7636
 20
5.3876
 10
52.8174
 20
5.403
 10
52.8698
 20
5.4206
 10
52.9208
 20
5.4407
 10
52.9704
 20
5.4631
 10
53.0187
 20
5.4879
 10
53.0655
 20
5.515
 10
53.111
 20
5.5445
 10
53.1551
 20
5.5763
 10
53.1978
 20
5.6105
 10
53.2391
 20
5.6471
 10
53.2791
 20
5.686
 10
53.3176
 20
5.7273
 10
53.3548
 20
5.771
 10
53.3906
 20
5.817
 10
53.4247
 20
5.8649
 10
53.4504
 20
5.9039
 10
53.4751
 20
5.9441
 10
53.4988
 20
5.9854
 10
53.5216
 20
6.0279
 10
53.5433
 20
6.0716
 10
53.5642
 20
6.1164
 10
53.584
 20
6.1625
 10
53.6029
 20
6.2097
 10
53.6208
 20
6.2581
 10
53.6378
 20
6.3077
 10
53.6537
 20
6.3584
 10
53.6688
 20
6.4104
 10
53.6828
 20
6.4635
 10
53.6959
 20
6.5178
 10
53.708
 20
6.5733
 10
53.7191
 20
6.6299
 10
53.7293
 20
6.6878
 10
53.7385
 20
6.7468
 10
53.7468
 20
6.8069
 10
53.754
 20
6.8683
 10
53.7603
 20
6.9309
 10
53.7657
 20
6.9946
 10
53.77
 20
7.0595
 10
53.7734
 20
7.1256
 10
53.7759
 20
7.1928
 10
53.7774
 20
7.2613
 10
53.7779
 20
7.3309
 10
53.7774
 20
7.4008
 10
53.7759
 20
7.4695
 10
53.7735
 20
7.5371
 10
53.7702
 20
7.6034
 10
53.7658
 20
7.6685
 10
53.7605
 20
7.7325
 10
53.7542
 20
7.7952
 10
53.7469
 20
7.8567
 10
53.7387
 20
7.9171
 10
53.7295
 20
7.9762
 10
53.7193
 20
8.0341
 10
53.7082
 20
8.0909
 10
53.6961
 20
8.1464
 10
53.683
 20
8.2008
 10
53.6689
 20
8.2539
 10
53.6539
 20
8.3059
 10
53.6379
 20
8.3566
 10
53.6209
 20
8.4062
 10
53.603
 20
8.4545
 10
53.5841
 20
8.5017
 10
53.5642
 20
8.5476
 10
53.5434
 20
8.5924
 10
53.5215
 20
8.636
 10
53.4987
 20
8.6783
 10
53.475
 20
8.7195
 10
53.4503
 20
8.7594
 10
53.4246
 20
8.7982
 10
53.391
 20
8.8451
 10
53.355
 20
8.8913
 10
53.3176
 20
8.9351
 10
53.2788
 20
8.9765
 10
53.2387
 20
9.0156
 10
53.1973
 20
9.0523
 10
53.1545
 20
9.0866
 10
53.1103
 20
9.1186
 10
53.0648
 20
9.1482
 10
53.0179
 20
9.1755
 10
52.9697
 20
9.2004
 10
52.9201
 20
9.2229
 10
52.8692
 20
9.243
 10
52.8169
 20
9.2608
 10
52.7633
 20
9.2762
 10
52.7083
 20
9.2893
 10
52.6519
 20
9.3
 10
52.5942
 20
9.3083
 10
52.5352
 20
9.3143
 10
52.4748
 20
9.3179
 10
52.413
 20
9.3191
 10
52.3512
 20
9.318
 10
52.2907
 20
9.3145
 10
52.2316
 20
9.3086
 10
52.1739
 20
9.3004
 10
52.1175
 20
9.2898
 10
52.0624
 20
9.2768
 10
52.0087
 20
9.2615
 10
51.9564
 20
9.2438
 10
51.9054
 20
9.2237
 10
51.8558
 20
9.2013
 10
51.8075
 20
9.1765
 10
51.7606
 20
9.1494
 10
51.715
 20
9.1198
 10
51.6708
 20
9.088
 10
51.6279
 20
9.0537
 10
51.5864
 20
9.0171
 10
51.5463
 20
8.9781
 10
51.5075
 20
8.9368
 10
51.47
 20
8.8931
 10
51.4339
 20
8.847
 10
51.4
 20
8.7997
 10
51.3743
 20
8.761
 10
51.3495
 20
8.7211
 10
51.3257
 20
8.68
 10
51.3029
 20
8.6377
 10
51.281
 20
8.5941
 10
51.2601
 20
8.5494
 10
51.2402
 20
8.5035
 10
51.2213
 20
8.4564
 10
51.2033
 20
8.4081
 10
51.1863
 20
8.3586
 10
51.1703
 20
8.3079
 10
51.1552
 20
8.256
 10
51.1411
 20
8.2029
 10
51.128
 20
8.1486
 10
51.1158
 20
8.0931
 10
51.1046
 20
8.0364
 10
51.0944
 20
7.9785
 10
51.0852
 20
7.9194
 10
51.0769
 20
7.8591
 10
51.0696
 20
7.7977
 10
51.0633
 20
7.735
 10
51.0579
 20
7.6711
 10
51.0535
 20
7.606
 10
51.0501
 20
7.5397
 10
51.0477
 20
7.4722
 10
51.0462
 20
7.4036
 10
51.0457
 20
7.3337
 10
51.0461
 20
7.2641
 10
51.0476
 20
7.1956
 10
51.05
 20
7.1284
 10
51.0534
 20
7.0623
 10
51.0578
 20
6.9974
 10
51.0631
 20
6.9336
 10
51.0694
 20
6.8711
 10
51.0767
 20
6.8097
 10
51.085
 20
6.7495
 10
51.0942
 20
6.6905
 10
51.1044
 20
6.6326
 10
51.1156
 20
6.576
 10
51.1278
 20
6.5205
 10
51.1409
 20
6.4662
 10
51.155
 20
6.413
 10
51.1701
 20
6.3611
 10
51.1861
 20
6.3103
 10
51.2032
 20
6.2607
 10
51.2212
 20
6.2122
 10
51.2402
 20
6.165
 10
51.2601
 20
6.1189
 10
51.2811
 20
6.074
 10
51.303
 20
6.0303
 10
51.3258
 20
5.9877
 10
51.3497
 20
5.9464
 10
51.3745
 20
5.9062
 10
51.4003
 20
5.8672
 10
51.4343
 20
5.8196
 10
51.4704
 20
5.7733
 10
51.5078
 20
5.7295
 10
51.5465
 20
5.6879
 10
51.5866
 20
5.6488
 10
51.628
 20
5.612
 10
51.6708
 20
5.5776
 10
51.715
 20
5.5456
 10
51.7605
 20
5.516
 10
51.8073
 20
5.4887
 10
51.8555
 20
5.4638
 10
51.9051
 20
5.4412
 10
51.956
 20
5.4211
 10
52.0082
 20
5.4033
 10
52.0618
 20
5.3879
 10
52.1168
 20
5.3748
 10
52.1731
 20
5.3641
 10
52.2307
 20
5.3558
 10
52.2897
 20
5.3499
  0
LWPOLYLINE
  5
50
330
17
100
AcDbEntity
  8
OUTLINE
100
AcDbPolyline
 90
303
 70
1
 10
46.159
 20
10.4144
 10
46.159
 20
10.31
 10
46.159
 20
10.2506
 10
46.159
 20
10.2056
 10
46.159
 20
10.1012
 10
46.159
 20
10.0894
 10
46.159
 20
9.9968
 10
46.159
 20
9.9283
 10
46.159
 20
9.8924
 10
46.159
 20
9.788
 10
46.159
 20
9.7671
 10
46.159
 20
9.6836
 10
46.159
 20
9.6059
 10
46.159
 20
9.5792
 10
46.159
 20
9.4748
 10
46.159
 20
9.4447
 10
46.159
 20
9.3704
 10
46.159
 20
9.2835
 10
46.159
 20
9.266
 10
46.159
 20
9.1223
 10
46.159
 20
8.9611
 10
46.159
 20
8.8
 10
46.159
 20
8.6388
 10
46.159
 20
8.4776
 10
46.159
 20
8.3164
 10
46.159
 20
8.1552
 10
46.159
 20
7.994
 10
46.159
 20
7.8328
 10
46.159
 20
7.6716
 10
46.159
 20
7.5105
 10
46.159
 20
7.3493
 10
46.159
 20
7.1881
 10
46.159
 20
7.0269
 10
46.159
 20
6.8657
 10
46.159
 20
6.7045
 10
46.159
 20
6.5433
 10
46.159
 20
6.3821
 10
46.159
 20
6.221
 10
46.159
 20
6.0598
 10
46.159
 20
5.8986
 10
46.159
 20
5.7374
 10
46.159
 20
5.5762
 10
46.159
 20
5.4322
 10
46.1734
 20
5.4322
 10
46.2462
 20
5.4322
 10
46.319
 20
5.4322
 10
46.3919
 20
5.4322
 10
46.4647
 20
5.4322
 10
46.5375
 20
5.4322
 10
46.6104
 20
5.4322
 10
46.6832
 20
5.4322
 10
46.756
 20
5.4322
 10
46.8289
 20
5.4322
 10
46.9017
 20
5.4322
 10
46.9745
 20
5.4322
 10
47.0473
 20
5.4322
 10
47.1202
 20
5.4322
 10
47.193
 20
5.4322
 10
47.2658
 20
5.4322
 10
47.3387
 20
5.4322
 10
47.4115
 20
5.4322
 10
47.4843
 20
5.4322
 10
47.5572
 20
5.4322
 10
47.63
 20
5.4322
 10
47.7028
 20
5.4322
 10
47.7757
 20
5.4322
 10
47.8485
 20
5.4322
 10
47.9213
 20
5.4322
 10
47.9941
 20
5.4322
 10
48.067
 20
5.4322
 10
48.1398
 20
5.4322
 10
48.1398
 20
5.3593
 10
48.1398
 20
5.2865
 10
48.1398
 20
5.2137
 10
48.1398
 20
5.1408
 10
48.1398
 20
5.068
 10
48.1398
 20
4.9952
 10
48.1398
 20
4.9223
 10
48.1398
 20
4.8495
 10
48.1398
 20
4.7767
 10
48.1398
 20
4.7038
 10
48.1398
 20
4.631
 10
48.1398
 20
4.5582
 10
48.1398
 20
4.4854
 10
48.1398
 20
4.4125
 10
48.1398
 20
4.3397
 10
48.1398
 20
4.2669
 10
48.1398
 20
4.194
 10
48.1398
 20
4.1212
 10
48.1398
 20
4.0484
 10
48.0741
 20
4.0412
 10
48.0013
 20
4.0412
 10
47.9284
 20
4.0412
 10
47.8556
 20
4.0412
 10
47.7828
 20
4.0412
 10
47.71
 20
4.0412
 10
47.6371
 20
4.0412
 10
47.5643
 20
4.0412
 10
47.4915
 20
4.0412
 10
47.4186
 20
4.0412
 10
47.3458
 20
4.0412
 10
47.273
 20
4.0412
 10
47.2001
 20
4.0412
 10
47.1273
 20
4.0412
 10
47.0545
 20
4.0412
 10
46.9816
 20
4.0412
 10
46.9088
 20
4.0412
 10
46.836
 20
4.0412
 10
46.7632
 20
4.0412
 10
46.6903
 20
4.0412
 10
46.6175
 20
4.0412
 10
46.5447
 20
4.0412
 10
46.4718
 20
4.0412
 10
46.399
 20
4.0412
 10
46.3262
 20
4.0412
 10
46.2533
 20
4.0412
 10
46.1805
 20
4.0412
 10
46.1077
 20
4.0412
 10
46.0821
 20
4.0412
 10
46.0348
 20
4.0412
 10
45.9209
 20
4.0412
 10
45.7597
 20
4.0412
 10
45.5986
 20
4.0412
 10
45.4374
 20
4.0412
 10
45.2762
 20
4.0412
 10
45.115
 20
4.0412
 10
44.9538
 20
4.0412
 10
44.7926
 20
4.0412
 10
44.737
 20
4.0412
 10
44.6541
 20
4.0412
 10
44.6314
 20
4.0412
 10
44.5712
 20
4.0412
 10
44.4882
 20
4.0412
 10
44.4053
 20
4.0412
 10
44.3224
 20
4.0412
 10
44.2395
 20
4.0412
 10
44.1565
 20
4.0412
 10
44.0736
 20
4.0412
 10
43.9907
 20
4.0412
 10
43.9078
 20
4.0412
 10
43.8249
 20
4.0412
 10
43.7419
 20
4.0412
 10
43.659
 20
4.0412
 10
43.5761
 20
4.0412
 10
43.4932
 20
4.0412
 10
43.4103
 20
4.0412
 10
43.3273
 20
4.0412
 10
43.2444
 20
4.0412
 10
43.1615
 20
4.0412
 10
43.0786
 20
4.0412
 10
42.9956
 20
4.0412
 10
42.9127
 20
4.0412
 10
42.8298
 20
4.0412
 10
42.7469
 20
4.0412
 10
42.664
 20
4.0412
 10
42.581
 20
4.0412
 10
42.4981
 20
4.0412
 10
42.4152
 20
4.0412
 10
42.3323
 20
4.0412
 10
42.2493
 20
4.0412
 10
42.1664
 20
4.0412
 10
42.1664
 20
4.1242
 10
42.1664
 20
4.2071
 10
42.1664
 20
4.29
 10
42.1664
 20
4.3729
 10
42.1664
 20
4.4558
 10
42.1664
 20
4.5388
 10
42.1664
 20
4.6217
 10
42.1664
 20
4.7046
 10
42.1664
 20
4.7875
 10
42.1664
 20
4.8705
 10
42.1664
 20
4.9534
 10
42.1664
 20
5.0363
 10
42.1664
 20
5.1192
 10
42.1664
 20
5.2021
 10
42.1664
 20
5.2851
 10
42.1664
 20
5.368
 10
42.1852
 20
5.4322
 10
42.2681
 20
5.4322
 10
42.351
 20
5.4322
 10
42.4339
 20
5.4322
 10
42.5169
 20
5.4322
 10
42.5998
 20
5.4322
 10
42.6827
 20
5.4322
 10
42.7656
 20
5.4322
 10
42.8485
 20
5.4322
 10
42.9315
 20
5.4322
 10
43.0144
 20
5.4322
 10
43.0973
 20
5.4322
 10
43.1802
 20
5.4322
 10
43.2632
 20
5.4322
 10
43.3461
 20
5.4322
 10
43.429
 20
5.4322
 10
43.5119
 20
5.4322
 10
43.5948
 20
5.4322
 10
43.6778
 20
5.4322
 10
43.7607
 20
5.4322
 10
43.8436
 20
5.4322
 10
43.9265
 20
5.4322
 10
44.0095
 20
5.4322
 10
44.0924
 20
5.4322
 10
44.1753
 20
5.4322
 10
44.2582
 20
5.4322
 10
44.3411
 20
5.4322
 10
44.4241
 20
5.4322
 10
44.507
 20
5.4322
 10
44.5899
 20
5.4322
 10
44.6314
 20
5.4322
 10
44.6314
 20
5.4919
 10
44.6314
 20
5.6531
 10
44.6314
 20
5.8143
 10
44.6314
 20
5.9755
 10
44.6314
 20
6.1367
 10
44.6314
 20
6.2979
 10
44.6314
 20
6.459
 10
44.6314
 20
6.6202
 10
44.6314
 20
6.7814
 10
44.6314
 20
6.9426
 10
44.6314
 20
7.1038
 10
44.6314
 20
7.265
 10
44.6314
 20
7.4262
 10
44.6314
 20
7.5874
 10
44.6314
 20
7.7485
 10
44.6314
 20
7.9097
 10
44.6314
 20
8.0709
 10
44.6314
 20
8.2321
 10
44.6314
 20
8.3933
 10
44.6314
 20
8.5545
 10
44.6314
 20
8.7157
 10
44.6314
 20
8.8769
 10
44.6314
 20
9.038
 10
44.6314
 20
9.1992
 10
44.6314
 20
9.2322
 10
44.6269
 20
9.2322
 10
44.5225
 20
9.2322
 10
44.4181
 20
9.2322
 10
44.3137
 20
9.2322
 10
44.2093
 20
9.2322
 10
44.1049
 20
9.2322
 10
44.0005
 20
9.2322
 10
43.8961
 20
9.2322
 10
43.7917
 20
9.2322
 10
43.6873
 20
9.2322
 10
43.5829
 20
9.2322
 10
43.4785
 20
9.2322
 10
43.3741
 20
9.2322
 10
43.2697
 20
9.2322
 10
43.1653
 20
9.2322
 10
43.0609
 20
9.2322
 10
42.9565
 20
9.2322
 10
42.8521
 20
9.2322
 10
42.7477
 20
9.2322
 10
42.6433
 20
9.2322
 10
42.539
 20
9.2322
 10
42.539
 20
9.3366
 10
42.539
 20
9.441
 10
42.539
 20
9.5454
 10
42.539
 20
9.6498
 10
42.539
 20
9.7542
 10
42.539
 20
9.8586
 10
42.539
 20
9.963
 10
42.539
 20
10.0674
 10
42.539
 20
10.1718
 10
42.539
 20
10.2762
 10
42.539
 20
10.3806
 10
42.539
 20
10.485
 10
42.539
 20
10.5894
 10
42.6096
 20
10.6232
 10
42.714
 20
10.6232
 10
42.8184
 20
10.6232
 10
42.9228
 20
10.6232
 10
43.0272
 20
10.6232
 10
43.1315
 20
10.6232
 10
43.2359
 20
10.6232
 10
43.3403
 20
10.6232
 10
43.4447
 20
10.6232
 10
43.5491
 20
10.6232
 10
43.6535
 20
10.6232
 10
43.7579
 20
10.6232
 10
43.8623
 20
10.6232
 10
43.9667
 20
10.6232
 10
44.0711
 20
10.6232
 10
44.1755
 20
10.6232
 10
44.2799
 20
10.6232
 10
44.3843
 20
10.6232
 10
44.4887
 20
10.6232
 10
44.5931
 20
10.6232
 10
44.6975
 20
10.6232
 10
44.8019
 20
10.6232
 10
44.9063
 20
10.6232
 10
45.0107
 20
10.6232
 10
45.1151
 20
10.6232
 10
45.2195
 20
10.6232
 10
45.3239
 20
10.6232
 10
45.4282
 20
10.6232
 10
45.5326
 20
10.6232
 10
45.637
 20
10.6232
 10
45.7414
 20
10.6232
 10
45.8458
 20
10.6232
 10
45.9502
 20
10.6232
 10
46.0546
 20
10.6232
 10
46.159
 20
10.6232
 10
46.159
 20
10.5188
  0
LWPOLYLINE
  5
51
330
17
100
AcDbEntity
  8
OUTLINE
100
AcDbPolyline
 90
246
 70
1
 10
20.0876
 20
12.8585
 10
20.1442
 20
12.8585
 10
20.2405
 20
12.8585
 10
20.3591
 20
12.8585
 10
20.3934
 20
12.8585
 10
20.5463
 20
12.8585
 10
20.5739
 20
12.8585
 10
20.6992
 20
12.8585
 10
20.7888
 20
12.8585
 10
20.8521
 20
12.8585
 10
21.0037
 20
12.8585
 10
21.005
 20
12.8585
 10
21.1579
 20
12.8585
 10
21.2185
 20
12.8585
 10
21.3108
 20
12.8585
 10
21.4334
 20
12.8585
 10
21.4637
 20
12.8585
 10
21.6167
 20
12.8585
 10
21.7696
 20
12.8585
 10
21.9225
 20
12.8585
 10
22.0754
 20
12.8585
 10
22.2283
 20
12.8585
 10
22.3812
 20
12.8585
 10
22.5341
 20
12.8585
 10
22.687
 20
12.8585
 10
22.8399
 20
12.8585
 10
22.9928
 20
12.8585
 10
23.1457
 20
12.8585
 10
23.2986
 20
12.8585
 10
23.4515
 20
12.8585
 10
23.6044
 20
12.8585
 10
23.7573
 20
12.8585
 10
23.9102
 20
12.8585
 10
24.0631
 20
12.8585
 10
24.2161
 20
12.8585
 10
24.369
 20
12.8585
 10
24.5219
 20
12.8585
 10
24.6748
 20
12.8585
 10
24.8277
 20
12.8585
 10
24.9806
 20
12.8585
 10
25.1335
 20
12.8585
 10
25.2864
 20
12.8585
 10
25.4393
 20
12.8585
 10
25.5922
 20
12.8585
 10
25.7451
 20
12.8585
 10
25.898
 20
12.8585
 10
25.898
 20
12.7056
 10
25.898
 20
12.5527
 10
25.898
 20
12.3998
 10
25.898
 20
12.2469
 10
25.898
 20
12.094
 10
25.898
 20
11.941
 10
25.898
 20
11.7881
 10
25.898
 20
11.6352
 10
25.898
 20
11.4823
 10
25.7474
 20
11.4801
 10
25.5945
 20
11.4801
 10
25.4416
 20
11.4801
 10
25.2887
 20
11.4801
 10
25.1358
 20
11.4801
 10
24.9829
 20
11.4801
 10
24.83
 20
11.4801
 10
24.677
 20
11.4801
 10
24.5241
 20
11.4801
 10
24.3712
 20
11.4801
 10
24.2183
 20
11.4801
 10
24.0654
 20
11.4801
 10
23.9125
 20
11.4801
 10
23.7596
 20
11.4801
 10
23.6067
 20
11.4801
 10
23.4538
 20
11.4801
 10
23.3009
 20
11.4801
 10
23.148
 20
11.4801
 10
22.9951
 20
11.4801
 10
22.8422
 20
11.4801
 10
22.6893
 20
11.4801
 10
22.5364
 20
11.4801
 10
22.3835
 20
11.4801
 10
22.2306
 20
11.4801
 10
22.0776
 20
11.4801
 10
21.9247
 20
11.4801
 10
21.7718
 20
11.4801
 10
21.6189
 20
11.4801
 10
21.466
 20
11.4801
 10
21.4334
 20
11.4801
 10
21.4334
 20
11.3544
 10
21.4334
 20
11.1395
 10
21.4334
 20
10.9247
 10
21.4334
 20
10.7098
 10
21.4334
 20
10.4949
 10
21.4334
 20
10.2801
 10
21.4334
 20
10.0652
 10
21.4334
 20
9.8503
 10
21.4334
 20
9.6355
 10
21.4334
 20
9.4206
 10
21.4334
 20
9.2057
 10
21.4334
 20
8.9909
 10
21.4334
 20
8.7789
 10
21.5068
 20
8.7789
 10
21.6352
 20
8.7789
 10
21.7637
 20
8.7789
 10
21.8922
 20
8.7789
 10
22.0206
 20
8.7789
 10
22.1491
 20
8.7789
 10
22.2775
 20
8.7789
 10
22.406
 20
8.7789
 10
22.5344
 20
8.7789
 10
22.6629
 20
8.7789
 10
22.7913
 20
8.7789
 10
22.9198
 20
8.7789
 10
23.0482
 20
8.7789
 10
23.1767
 20
8.7789
 10
23.3051
 20
8.7789
 10
23.4336
 20
8.7789
 10
23.562
 20
8.7789
 10
23.6905
 20
8.7789
 10
23.8189
 20
8.7789
 10
23.9474
 20
8.7789
 10
24.0759
 20
8.7789
 10
24.2043
 20
8.7789
 10
24.3328
 20
8.7789
 10
24.4612
 20
8.7789
 10
24.5897
 20
8.7789
 10
24.7181
 20
8.7789
 10
24.7181
 20
8.6504
 10
24.7181
 20
8.522
 10
24.7181
 20
8.3935
 10
24.7181
 20
8.2651
 10
24.7181
 20
8.1366
 10
24.7181
 20
8.0082
 10
24.7181
 20
7.8797
 10
24.7181
 20
7.7513
 10
24.7181
 20
7.6228
 10
24.7181
 20
7.4944
 10
24.6897
 20
7.3943
 10
24.5613
 20
7.3943
 10
24.4328
 20
7.3943
 10
24.3044
 20
7.3943
 10
24.1759
 20
7.3943
 10
24.0475
 20
7.3943
 10
23.919
 20
7.3943
 10
23.7906
 20
7.3943
 10
23.6621
 20
7.3943
 10
23.5337
 20
7.3943
 10
23.4052
 20
7.3943
 10
23.2768
 20
7.3943
 10
23.1483
 20
7.3943
 10
23.0198
 20
7.3943
 10
22.8914
 20
7.3943
 10
22.7629
 20
7.3943
 10
22.6345
 20
7.3943
 10
22.506
 20
7.3943
 10
22.3776
 20
7.3943
 10
22.2491
 20
7.3943
 10
22.1207
 20
7.3943
 10
21.9922
 20
7.3943
 10
21.8638
 20
7.3943
 10
21.7353
 20
7.3943
 10
21.6069
 20
7.3943
 10
21.4784
 20
7.3943
 10
21.4334
 20
7.3943
 10
21.4334
 20
7.2719
 10
21.4334
 20
7.057
 10
21.4334
 20
6.8422
 10
21.4334
 20
6.6273
 10
21.4334
 20
6.4124
 10
21.4334
 20
6.1976
 10
21.4334
 20
5.9827
 10
21.4334
 20
5.7678
 10
21.4334
 20
5.553
 10
21.4334
 20
5.3381
 10
21.4334
 20
5.1232
 10
21.4334
 20
4.9084
 10
21.4334
 20
4.6935
 10
21.4334
 20
4.4786
 10
21.4334
 20
4.2638
 10
21.4334
 20
4.0489
 10
21.2262
 20
4.0412
 10
21.0113
 20
4.0412
 10
20.7964
 20
4.0412
 10
20.5816
 20
4.0412
 10
20.3667
 20
4.0412
 10
20.1518
 20
4.0412
 10
19.937
 20
4.0412
 10
19.937
 20
4.2561
 10
19.937
 20
4.471
 10
19.937
 20
4.6858
 10
19.937
 20
4.9007
 10
19.937
 20
5.1156
 10
19.937
 20
5.3304
 10
19.937
 20
5.5453
 10
19.937
 20
5.7602
 10
19.937
 20
5.9751
 10
19.937
 20
6.1899
 10
19.937
 20
6.4048
 10
19.937
 20
6.6197
 10
19.937
 20
6.8345
 10
19.937
 20
7.0494
 10
19.937
 20
7.2643
 10
19.937
 20
7.3943
 10
19.937
 20
7.4791
 10
19.937
 20
7.5227
 10
19.937
 20
7.6512
 10
19.937
 20
7.694
 10
19.937
 20
7.7796
 10
19.937
 20
7.9081
 10
19.937
 20
7.9089
 10
19.937
 20
8.0366
 10
19.937
 20
8.1237
 10
19.937
 20
8.165
 10
19.937
 20
8.2935
 10
19.937
 20
8.3386
 10
19.937
 20
8.4219
 10
19.937
 20
8.5504
 10
19.937
 20
8.5535
 10
19.937
 20
8.6788
 10
19.937
 20
8.7683
 10
19.937
 20
8.9832
 10
19.937
 20
9.1981
 10
19.937
 20
9.4129
 10
19.937
 20
9.6278
 10
19.937
 20
9.8427
 10
19.937
 20
10.0576
 10
19.937
 20
10.2724
 10
19.937
 20
10.4873
 10
19.937
 20
10.7022
 10
19.937
 20
10.917
 10
19.937
 20
11.1319
 10
19.937
 20
11.3468
 10
19.937
 20
11.4801
 10
19.937
 20
11.5616
 10
19.937
 20
11.633
 10
19.937
 20
11.7765
 10
19.937
 20
11.7859
 10
19.937
 20
11.9388
 10
19.937
 20
11.9914
 10
19.937
 20
12.0917
 10
19.937
 20
12.2062
 10
19.937
 20
12.2446
 10
19.937
 20
12.3975
 10
19.937
 20
12.4211
 10
19.937
 20
12.5504
 10
19.937
 20
12.636
 10
19.937
 20
12.7033
 10
19.937
 20
12.8508
 10
19.937
 20
12.8562
  0
LWPOLYLINE
  5
52
330
17
100
AcDbEntity
  8
OUTLINE
100
AcDbPolyline
 90
192
 70
1
 10
45.4055
 20
11.5752
 10
45.3696
 20
11.5737
 10
45.3331
 20
11.5732
 10
45.2967
 20
11.5737
 10
45.2607
 20
11.5752
 10
45.2253
 20
11.5777
 10
45.1905
 20
11.5812
 10
45.1562
 20
11.5856
 10
45.1224
 20
11.5911
 10
45.0892
 20
11.5975
 10
45.0565
 20
11.6049
 10
45.0243
 20
11.6134
 10
44.9927
 20
11.6228
 10
44.9616
 20
11.6332
 10
44.9311
 20
11.6446
 10
44.9011
 20
11.657
 10
44.8716
 20
11.6704
 10
44.8427
 20
11.6848
 10
44.8143
 20
11.7001
 10
44.7864
 20
11.7165
 10
44.7591
 20
11.7338
 10
44.7324
 20
11.7522
 10
44.7061
 20
11.7715
 10
44.6804
 20
11.7918
 10
44.6553
 20
11.8131
 10
44.6307
 20
11.8355
 10
44.6066
 20
11.8588
 10
44.5833
 20
11.8828
 10
44.561
 20
11.9074
 10
44.5397
 20
11.9326
 10
44.5193
 20
11.9583
 10
44.5
 20
11.9845
 10
44.4817
 20
12.0113
 10
44.4643
 20
12.0386
 10
44.448
 20
12.0665
 10
44.4326
 20
12.0948
 10
44.4182
 20
12.1238
 10
44.4048
 20
12.1532
 10
44.3924
 20
12.1832
 10
44.381
 20
12.2138
 10
44.3706
 20
12.2449
 10
44.3612
 20
12.2765
 10
44.3528
 20
12.3086
 10
44.3454
 20
12.3413
 10
44.3389
 20
12.3746
 10
44.3335
 20
12.4083
 10
44.329
 20
12.4427
 10
44.3255
 20
12.4775
 10
44.323
 20
12.5129
 10
44.3216
 20
12.5488
 10
44.3211
 20
12.5853
 10
44.3216
 20
12.6218
 10
44.323
 20
12.6577
 10
44.3255
 20
12.6931
 10
44.329
 20
12.7279
 10
44.3335
 20
12.7623
 10
44.3389
 20
12.796
 10
44.3454
 20
12.8293
 10
44.3528
 20
12.862
 10
44.3612
 20
12.8941
 10
44.3706
 20
12.9257
 10
44.381
 20
12.9568
 10
44.3924
 20
12.9874
 10
44.4048
 20
13.0174
 10
44.4182
 20
13.0468
 10
44.4326
 20
13.0758
 10
44.448
 20
13.1041
 10
44.4643
 20
13.132
 10
44.4817
 20
13.1593
 10
44.5
 20
13.1861
 10
44.5193
 20
13.2123
 10
44.5397
 20
13.238
 10
44.561
 20
13.2631
 10
44.5833
 20
13.2878
 10
44.6066
 20
13.3118
 10
44.6307
 20
13.3351
 10
44.6553
 20
13.3574
 10
44.6804
 20
13.3788
 10
44.7061
 20
13.3991
 10
44.7324
 20
13.4184
 10
44.7591
 20
13.4368
 10
44.7864
 20
13.4541
 10
44.8143
 20
13.4705
 10
44.8427
 20
13.4858
 10
44.8716
 20
13.5002
 10
44.9011
 20
13.5136
 10
44.9311
 20
13.526
 10
44.9616
 20
13.5374
 10
44.9927
 20
13.5478
 10
45.0243
 20
13.5572
 10
45.0565
 20
13.5656
 10
45.0892
 20
13.5731
 10
45.1224
 20
13.5795
 10
45.1562
 20
13.585
 10
45.1905
 20
13.5894
 10
45.2253
 20
13.5929
 10
45.2607
 20
13.5954
 10
45.2967
 20
13.5969
 10
45.3331
 20
13.5974
 10
45.3696
 20
13.5969
 10
45.4055
 20
13.5954
 10
45.4409
 20
13.5929
 10
45.4758
 20
13.5894
 10
45.5101
 20
13.585
 10
45.5439
 20
13.5795
 10
45.5771
 20
13.5731
 10
45.6098
 20
13.5656
 10
45.642
 20
13.5572
 10
45.6736
 20
13.5478
 10
45.7047
 20
13.5374
 10
45.7352
 20
13.526
 10
45.7652
 20
13.5136
 10
45.7947
 20
13.5002
 10
45.8236
 20
13.4858
 10
45.852
 20
13.4705
 10
45.8798
 20
13.4541
 10
45.9071
 20
13.4368
 10
45.9339
 20
13.4184
 10
45.9601
 20
13.3991
 10
45.9858
 20
13.3788
 10
46.011
 20
13.3574
 10
46.0356
 20
13.3351
 10
46.0597
 20
13.3118
 10
46.083
 20
13.2878
 10
46.1053
 20
13.2631
 10
46.1266
 20
13.238
 10
46.1469
 20
13.2123
 10
46.1663
 20
13.1861
 10
46.1846
 20
13.1593
 10
46.2019
 20
13.132
 10
46.2183
 20
13.1041
 10
46.2337
 20
13.0758
 10
46.248
 20
13.0468
 10
46.2614
 20
13.0174
 10
46.2738
 20
12.9874
 10
46.2852
 20
12.9568
 10
46.2956
 20
12.9257
 10
46.3051
 20
12.8941
 10
46.3135
 20
12.862
 10
46.3209
 20
12.8293
 10
46.3274
 20
12.796
 10
46.3328
 20
12.7623
 10
46.3373
 20
12.7279
 10
46.3407
 20
12.6931
 10
46.3432
 20
12.6577
 10
46.3447
 20
12.6218
 10
46.3452
 20
12.5853
 10
46.3447
 20
12.5488
 10
46.3432
 20
12.5129
 10
46.3407
 20
12.4775
 10
46.3373
 20
12.4427
 10
46.3328
 20
12.4083
 10
46.3274
 20
12.3746
 10
46.3209
 20
12.3413
 10
46.3135
 20
12.3086
 10
46.3051
 20
12.2765
 10
46.2956
 20
12.2449
 10
46.2852
 20
12.2138
 10
46.2738
 20
12.1832
 10
46.2614
 20
12.1532
 10
46.248
 20
12.1238
 10
46.2337
 20
12.0948
 10
46.2183
 20
12.0665
 10
46.2019
 20
12.0386
 10
46.1846
 20
12.0113
 10
46.1663
 20
11.9845
 10
46.1469
 20
11.9583
 10
46.1266
 20
11.9326
 10
46.1053
 20
11.9074
 10
46.083
 20
11.8828
 10
46.0597
 20
11.8588
 10
46.0356
 20
11.8355
 10
46.011
 20
11.8131
 10
45.9858
 20
11.7918
 10
45.9601
 20
11.7715
 10
45.9339
 20
11.7522
 10
45.9071
 20
11.7338
 10
45.8798
 20
11.7165
 10
45.852
 20
11.7001
 10
45.8236
 20
11.6848
 10
45.7947
 20
11.6704
 10
45.7652
 20
11.657
 10
45.7352
 20
11.6446
 10
45.7047
 20
11.6332
 10
45.6736
 20
11.6228
 10
45.642
 20
11.6134
 10
45.6098
 20
11.6049
 10
45.5771
 20
11.5975
 10
45.5439
 20
11.5911
 10
45.5101
 20
11.5856
 10
45.4758
 20
11.5812
 10
45.4409
 20
11.5777
  0
LWPOLYLINE
  5
53
330
17
100
AcDbEntity
  8
OUTLINE
100
AcDbPolyline
 90
329
 70
1
 10
73.5368
 20
9.4309
 10
73.5388
 20
9.4309
 10
73.6029
 20
9.4309
 10
73.6464
 20
9.4597
 10
73.66
 20
9.5305
 10
73.6757
 20
9.5993
 10
73.6933
 20
9.6662
 10
73.713
 20
9.7312
 10
73.7347
 20
9.7941
 10
73.7583
 20
9.8551
 10
73.784
 20
9.9142
 10
73.8116
 20
9.9713
 10
73.8413
 20
10.0264
 10
73.8729
 20
10.0796
 10
73.9066
 20
10.1308
 10
73.9423
 20
10.18
 10
73.9799
 20
10.2273
 10
74.0196
 20
10.2727
 10
74.0612
 20
10.316
 10
74.1049
 20
10.3574
 10
74.1505
 20
10.3969
 10
74.1957
 20
10.4324
 10
74.2409
 20
10.4649
 10
74.288
 20
10.4956
 10
74.3367
 20
10.5245
 10
74.3873
 20
10.5516
 10
74.4396
 20
10.577
 10
74.4937
 20
10.6007
 10
74.5495
 20
10.6225
 10
74.6071
 20
10.6426
 10
74.6665
 20
10.661
 10
74.7276
 20
10.6775
 10
74.7905
 20
10.6924
 10
74.8552
 20
10.7054
 10
74.9216
 20
10.7167
 10
74.9898
 20
10.7262
 10
75.0597
 20
10.734
 10
75.1315
 20
10.7399
 10
75.2049
 20
10.7442
 10
75.2802
 20
10.7466
 10
75.3567
 20
10.7473
 10
75.4291
 20
10.7464
 10
75.5006
 20
10.744
 10
75.5711
 20
10.7402
 10
75.6406
 20
10.7348
 10
75.7091
 20
10.7279
 10
75.7766
 20
10.7196
 10
75.8432
 20
10.7097
 10
75.9087
 20
10.6984
 10
75.9733
 20
10.6855
 10
76.0369
 20
10.6712
 10
76.0995
 20
10.6554
 10
76.1611
 20
10.6381
 10
76.2217
 20
10.6193
 10
76.2814
 20
10.599
 10
76.34
 20
10.5773
 10
76.3977
 20
10.554
 10
76.4544
 20
10.5292
 10
76.5101
 20
10.503
 10
76.5648
 20
10.4752
 10
76.6186
 20
10.446
 10
76.6713
 20
10.4153
 10
76.7231
 20
10.3831
 10
76.7738
 20
10.3494
 10
76.8236
 20
10.3142
 10
76.8724
 20
10.2775
 10
76.9203
 20
10.2393
 10
76.9671
 20
10.1996
 10
77.013
 20
10.1585
 10
77.0578
 20
10.1158
 10
77.1017
 20
10.0717
 10
77.1446
 20
10.026
 10
77.1865
 20
9.9789
 10
77.2274
 20
9.9303
 10
77.2674
 20
9.8802
 10
77.3022
 20
9.8341
 10
77.3335
 20
9.7909
 10
77.364
 20
9.7467
 10
77.3937
 20
9.7017
 10
77.4227
 20
9.6557
 10
77.4509
 20
9.6089
 10
77.4783
 20
9.5612
 10
77.5049
 20
9.5126
 10
77.5308
 20
9.4631
 10
77.556
 20
9.4128
 10
77.5804
 20
9.3615
 10
77.604
 20
9.3094
 10
77.6268
 20
9.2563
 10
77.6489
 20
9.2024
 10
77.6702
 20
9.1476
 10
77.6908
 20
9.0919
 10
77.7105
 20
9.0353
 10
77.7296
 20
8.9779
 10
77.7478
 20
8.9195
 10
77.7653
 20
8.8603
 10
77.7821
 20
8.8001
 10
77.798
 20
8.7391
 10
77.8132
 20
8.6772
 10
77.8277
 20
8.6144
 10
77.8413
 20
8.5508
 10
77.8542
 20
8.4862
 10
77.8664
 20
8.4207
 10
77.8778
 20
8.3544
 10
77.8884
 20
8.2872
 10
77.8982
 20
8.219
 10
77.9073
 20
8.15
 10
77.9157
 20
8.0802
 10
77.9232
 20
8.0094
 10
77.93
 20
7.9377
 10
77.9361
 20
7.8652
 10
77.9413
 20
7.7917
 10
77.9458
 20
7.7174
 10
77.9496
 20
7.6422
 10
77.9525
 20
7.5661
 10
77.9548
 20
7.4891
 10
77.9562
 20
7.4112
 10
77.9569
 20
7.3324
 10
77.9568
 20
7.2531
 10
77.9559
 20
7.1745
 10
77.9543
 20
7.0968
 10
77.9518
 20
7.02
 10
77.9486
 20
6.9442
 10
77.9446
 20
6.8692
 10
77.9398
 20
6.7952
 10
77.9342
 20
6.722
 10
77.9278
 20
6.6498
 10
77.9206
 20
6.5785
 10
77.9126
 20
6.508
 10
77.9039
 20
6.4385
 10
77.8943
 20
6.3699
 10
77.884
 20
6.3022
 10
77.8729
 20
6.2354
 10
77.861
 20
6.1696
 10
77.8483
 20
6.1046
 10
77.8348
 20
6.0405
 10
77.8205
 20
5.9774
 10
77.8055
 20
5.9151
 10
77.7896
 20
5.8538
 10
77.773
 20
5.7934
 10
77.7556
 20
5.7338
 10
77.7374
 20
5.6752
 10
77.7184
 20
5.6175
 10
77.6986
 20
5.5607
 10
77.678
 20
5.5048
 10
77.6566
 20
5.4498
 10
77.6345
 20
5.3958
 10
77.6116
 20
5.3426
 10
77.5878
 20
5.2903
 10
77.5633
 20
5.239
 10
77.538
 20
5.1885
 10
77.5119
 20
5.139
 10
77.485
 20
5.0904
 10
77.4574
 20
5.0427
 10
77.4289
 20
4.9958
 10
77.3997
 20
4.9499
 10
77.3696
 20
4.9049
 10
77.3388
 20
4.8609
 10
77.3072
 20
4.8177
 10
77.2731
 20
4.7732
 10
77.233
 20
4.7235
 10
77.1919
 20
4.6754
 10
77.1498
 20
4.6288
 10
77.1068
 20
4.5836
 10
77.0627
 20
4.5399
 10
77.0177
 20
4.4977
 10
76.9717
 20
4.4569
 10
76.9247
 20
4.4177
 10
76.8767
 20
4.3799
 10
76.8277
 20
4.3436
 10
76.7777
 20
4.3088
 10
76.7268
 20
4.2755
 10
76.6748
 20
4.2437
 10
76.6219
 20
4.2133
 10
76.5679
 20
4.1844
 10
76.513
 20
4.157
 10
76.4571
 20
4.1311
 10
76.4002
 20
4.1066
 10
76.3423
 20
4.0837
 10
76.2834
 20
4.0622
 10
76.2236
 20
4.0422
 10
76.1627
 20
4.0237
 10
76.1009
 20
4.0067
 10
76.038
 20
3.9911
 10
75.9742
 20
3.977
 10
75.9094
 20
3.9645
 10
75.8436
 20
3.9533
 10
75.7768
 20
3.9437
 10
75.709
 20
3.9356
 10
75.6402
 20
3.9289
 10
75.5705
 20
3.9237
 10
75.4997
 20
3.92
 10
75.428
 20
3.9178
 10
75.3553
 20
3.9171
 10
75.2809
 20
3.918
 10
75.2081
 20
3.9208
 10
75.1369
 20
3.9254
 10
75.0672
 20
3.9319
 10
74.9991
 20
3.9403
 10
74.9324
 20
3.9505
 10
74.8674
 20
3.9625
 10
74.8039
 20
3.9764
 10
74.7419
 20
3.9922
 10
74.6815
 20
4.0098
 10
74.6226
 20
4.0293
 10
74.5653
 20
4.0506
 10
74.5095
 20
4.0738
 10
74.4552
 20
4.0989
 10
74.4025
 20
4.1258
 10
74.3514
 20
4.1545
 10
74.3018
 20
4.1851
 10
74.2537
 20
4.2176
 10
74.2072
 20
4.2519
 10
74.1595
 20
4.2905
 10
74.1139
 20
4.3311
 10
74.0705
 20
4.3736
 10
74.0293
 20
4.4181
 10
73.9903
 20
4.4645
 10
73.9536
 20
4.5129
 10
73.919
 20
4.5633
 10
73.8866
 20
4.6156
 10
73.8563
 20
4.6699
 10
73.8283
 20
4.7262
 10
73.8025
 20
4.7844
 10
73.7789
 20
4.8445
 10
73.7575
 20
4.9067
 10
73.7382
 20
4.9708
 10
73.7212
 20
5.0368
 10
73.7064
 20
5.1048
 10
73.6937
 20
5.1748
 10
73.6733
 20
5.2335
 10
73.6092
 20
5.2335
 10
73.5545
 20
5.2335
 10
73.5545
 20
5.1076
 10
73.5545
 20
4.9257
 10
73.5545
 20
4.7438
 10
73.5545
 20
4.5619
 10
73.5545
 20
4.3801
 10
73.5545
 20
4.1982
 10
73.5545
 20
4.0163
 10
73.5545
 20
3.8344
 10
73.5545
 20
3.6526
 10
73.5545
 20
3.4707
 10
73.5545
 20
3.2888
 10
73.5545
 20
3.1069
 10
73.5545
 20
2.925
 10
73.5545
 20
2.7432
 10
73.5545
 20
2.5613
 10
73.5545
 20
2.3794
 10
73.5545
 20
2.1975
 10
73.5545
 20
2.0157
 10
73.5545
 20
1.8338
 10
73.5545
 20
1.6519
 10
73.5545
 20
1.47
 10
73.5545
 20
1.2882
 10
73.4759
 20
1.1849
 10
73.294
 20
1.1849
 10
73.1121
 20
1.1849
 10
72.9303
 20
1.1849
 10
72.7484
 20
1.1849
 10
72.5665
 20
1.1849
 10
72.3846
 20
1.1849
 10
72.2028
 20
1.1849
 10
72.0209
 20
1.1849
 10
72.0209
 20
1.3668
 10
72.0209
 20
1.5486
 10
72.0209
 20
1.7305
 10
72.0209
 20
1.9124
 10
72.0209
 20
2.0943
 10
72.0209
 20
2.2761
 10
72.0209
 20
2.458
 10
72.0209
 20
2.6399
 10
72.0209
 20
2.8218
 10
72.0209
 20
3.0037
 10
72.0209
 20
3.1855
 10
72.0209
 20
3.3674
 10
72.0209
 20
3.5493
 10
72.0209
 20
3.7312
 10
72.0209
 20
3.913
 10
72.0209
 20
4.0949
 10
72.0209
 20
4.2768
 10
72.0209
 20
4.4587
 10
72.0209
 20
4.6405
 10
72.0209
 20
4.8224
 10
72.0209
 20
5.0043
 10
72.0209
 20
5.1862
 10
72.0209
 20
5.368
 10
72.0209
 20
5.5499
 10
72.0209
 20
5.7318
 10
72.0209
 20
5.9137
 10
72.0209
 20
6.0955
 10
72.0209
 20
6.2774
 10
72.0209
 20
6.4593
 10
72.0209
 20
6.6412
 10
72.0209
 20
6.823
 10
72.0209
 20
7.0049
 10
72.0209
 20
7.1868
 10
72.0209
 20
7.3687
 10
72.0209
 20
7.5506
 10
72.0209
 20
7.7324
 10
72.0209
 20
7.9143
 10
72.0209
 20
8.0962
 10
72.0209
 20
8.2781
 10
72.0209
 20
8.4599
 10
72.0209
 20
8.6418
 10
72.0209
 20
8.8237
 10
72.0209
 20
9.0056
 10
72.0209
 20
9.1874
 10
72.0209
 20
9.3693
 10
72.0209
 20
9.5512
 10
72.0209
 20
9.7331
 10
72.0209
 20
9.9149
 10
72.0209
 20
10.0968
 10
72.0209
 20
10.2787
 10
72.0209
 20
10.4606
 10
72.0402
 20
10.6232
 10
72.222
 20
10.6232
 10
72.4039
 20
10.6232
 10
72.5858
 20
10.6232
 10
72.7677
 20
10.6232
 10
72.9495
 20
10.6232
 10
73.1314
 20
10.6232
 10
73.3133
 20
10.6232
 10
73.4361
 20
10.5586
 10
73.4523
 20
10.3774
 10
73.4684
 20
10.1963
 10
73.4846
 20
10.0151
 10
73.5008
 20
9.8339
 10
73.517
 20
9.6528
 10
73.5331
 20
9.4716
  0
LWPOLYLINE
  5
54
330
17
100
AcDbEntity
  8
OUTLINE
100
AcDbPolyline
 90
177
 70
1
 10
73.5545
 20
7.4776
 10
73.5545
 20
7.4719
 10
73.5545
 20
7.2901
 10
73.5545
 20
7.2293
 10
73.5545
 20
7.2293
 10
73.5552
 20
7.1473
 10
73.5572
 20
7.0671
 10
73.5603
 20
6.9887
 10
73.5646
 20
6.9122
 10
73.5701
 20
6.8375
 10
73.5768
 20
6.7646
 10
73.5847
 20
6.6935
 10
73.5938
 20
6.6243
 10
73.6041
 20
6.5569
 10
73.6156
 20
6.4914
 10
73.6283
 20
6.4276
 10
73.6421
 20
6.3657
 10
73.6572
 20
6.3056
 10
73.6734
 20
6.2474
 10
73.6909
 20
6.191
 10
73.7095
 20
6.1364
 10
73.7293
 20
6.0836
 10
73.7504
 20
6.0327
 10
73.7726
 20
5.9836
 10
73.796
 20
5.9363
 10
73.8206
 20
5.8908
 10
73.8464
 20
5.8472
 10
73.8734
 20
5.8054
 10
73.9052
 20
5.7605
 10
73.9424
 20
5.7136
 10
73.9819
 20
5.6693
 10
74.0236
 20
5.6276
 10
74.0675
 20
5.5884
 10
74.1137
 20
5.5519
 10
74.1622
 20
5.518
 10
74.2129
 20
5.4867
 10
74.2658
 20
5.458
 10
74.321
 20
5.432
 10
74.3784
 20
5.4085
 10
74.4381
 20
5.3876
 10
74.5
 20
5.3693
 10
74.5642
 20
5.3537
 10
74.6306
 20
5.3406
 10
74.6993
 20
5.3302
 10
74.7702
 20
5.3224
 10
74.8433
 20
5.3171
 10
74.9188
 20
5.3145
 10
74.994
 20
5.3145
 10
75.0659
 20
5.3171
 10
75.136
 20
5.3225
 10
75.2042
 20
5.3305
 10
75.2706
 20
5.3412
 10
75.3351
 20
5.3546
 10
75.3977
 20
5.3707
 10
75.4585
 20
5.3895
 10
75.5175
 20
5.411
 10
75.5746
 20
5.4351
 10
75.6298
 20
5.4619
 10
75.6832
 20
5.4914
 10
75.7347
 20
5.5236
 10
75.7843
 20
5.5585
 10
75.8322
 20
5.5961
 10
75.8781
 20
5.6363
 10
75.9222
 20
5.6792
 10
75.9644
 20
5.7249
 10
76.0048
 20
5.7732
 10
76.0423
 20
5.8227
 10
76.0718
 20
5.8653
 10
76.1
 20
5.9095
 10
76.127
 20
5.9553
 10
76.1527
 20
6.0027
 10
76.1771
 20
6.0518
 10
76.2003
 20
6.1024
 10
76.2223
 20
6.1548
 10
76.243
 20
6.2087
 10
76.2625
 20
6.2643
 10
76.2807
 20
6.3215
 10
76.2977
 20
6.3803
 10
76.3134
 20
6.4408
 10
76.3279
 20
6.5029
 10
76.3411
 20
6.5666
 10
76.3531
 20
6.632
 10
76.3638
 20
6.699
 10
76.3733
 20
6.7676
 10
76.3815
 20
6.8378
 10
76.3885
 20
6.9097
 10
76.3942
 20
6.9832
 10
76.3987
 20
7.0583
 10
76.4019
 20
7.1351
 10
76.4039
 20
7.2135
 10
76.4047
 20
7.2935
 10
76.4042
 20
7.373
 10
76.4025
 20
7.451
 10
76.3996
 20
7.5275
 10
76.3954
 20
7.6024
 10
76.3901
 20
7.6758
 10
76.3836
 20
7.7477
 10
76.3758
 20
7.8181
 10
76.3668
 20
7.887
 10
76.3567
 20
7.9544
 10
76.3453
 20
8.0202
 10
76.3327
 20
8.0846
 10
76.3189
 20
8.1474
 10
76.3038
 20
8.2087
 10
76.2876
 20
8.2685
 10
76.2702
 20
8.3268
 10
76.2515
 20
8.3836
 10
76.2316
 20
8.4388
 10
76.2106
 20
8.4926
 10
76.1883
 20
8.5448
 10
76.1648
 20
8.5955
 10
76.1401
 20
8.6448
 10
76.1141
 20
8.6924
 10
76.087
 20
8.7386
 10
76.0587
 20
8.7833
 10
76.0283
 20
8.8275
 10
75.989
 20
8.8801
 10
75.948
 20
8.9299
 10
75.9052
 20
8.9769
 10
75.8607
 20
9.0211
 10
75.8145
 20
9.0625
 10
75.7665
 20
9.1011
 10
75.7168
 20
9.137
 10
75.6654
 20
9.1701
 10
75.6122
 20
9.2003
 10
75.5573
 20
9.2278
 10
75.5006
 20
9.2526
 10
75.4422
 20
9.2745
 10
75.3821
 20
9.2936
 10
75.3202
 20
9.31
 10
75.2567
 20
9.3236
 10
75.1913
 20
9.3344
 10
75.1243
 20
9.3424
 10
75.0555
 20
9.3476
 10
74.9849
 20
9.3501
 10
74.9119
 20
9.3497
 10
74.8397
 20
9.3467
 10
74.7694
 20
9.3409
 10
74.7011
 20
9.3324
 10
74.6347
 20
9.3212
 10
74.5703
 20
9.3072
 10
74.5079
 20
9.2906
 10
74.4474
 20
9.2712
 10
74.3888
 20
9.2491
 10
74.3323
 20
9.2243
 10
74.2776
 20
9.1968
 10
74.225
 20
9.1665
 10
74.1743
 20
9.1335
 10
74.1255
 20
9.0978
 10
74.0787
 20
9.0594
 10
74.0339
 20
9.0183
 10
73.991
 20
8.9744
 10
73.95
 20
8.9279
 10
73.9111
 20
8.8786
 10
73.8813
 20
8.8371
 10
73.8533
 20
8.7945
 10
73.8265
 20
8.7502
 10
73.801
 20
8.704
 10
73.7768
 20
8.6561
 10
73.7538
 20
8.6064
 10
73.732
 20
8.5549
 10
73.7116
 20
8.5016
 10
73.6923
 20
8.4465
 10
73.6744
 20
8.3896
 10
73.6577
 20
8.3309
 10
73.6422
 20
8.2704
 10
73.628
 20
8.2081
 10
73.615
 20
8.144
 10
73.6033
 20
8.0782
 10
73.5929
 20
8.0105
 10
73.5837
 20
7.9411
 10
73.5758
 20
7.8698
 10
73.5691
 20
7.7968
 10
73.5637
 20
7.722
 10
73.5595
 20
7.6453
 10
73.5566
 20
7.5669
 10
73.5549
 20
7.4867
  0
LWPOLYLINE
  5
55
330
17
100
AcDbEntity
  8
OUTLINE
100
AcDbPolyline
 90
562
 70
1
 10
83.4007
 20
5.3443
 10
83.3965
 20
5.4126
 10
83.3954
 20
5.4322
 10
83.3544
 20
5.4322
 10
83.3091
 20
5.4322
 10
83.2637
 20
5.4322
 10
83.2537
 20
5.4322
 10
83.2495
 20
5.3935
 10
83.2432
 20
5.3459
 10
83.2359
 20
5.299
 10
83.2277
 20
5.253
 10
83.2185
 20
5.2077
 10
83.2083
 20
5.1632
 10
83.1971
 20
5.1194
 10
83.185
 20
5.0765
 10
83.1719
 20
5.0343
 10
83.1578
 20
4.9929
 10
83.1427
 20
4.9522
 10
83.1266
 20
4.9124
 10
83.1096
 20
4.8733
 10
83.0916
 20
4.835
 10
83.0726
 20
4.7974
 10
83.0526
 20
4.7607
 10
83.0316
 20
4.7247
 10
83.0097
 20
4.6895
 10
82.9855
 20
4.6531
 10
82.9596
 20
4.6166
 10
82.9327
 20
4.581
 10
82.9049
 20
4.5463
 10
82.876
 20
4.5126
 10
82.8462
 20
4.4798
 10
82.8154
 20
4.448
 10
82.7837
 20
4.417
 10
82.7509
 20
4.387
 10
82.7172
 20
4.358
 10
82.6825
 20
4.3299
 10
82.6468
 20
4.3027
 10
82.6102
 20
4.2764
 10
82.5725
 20
4.2511
 10
82.5339
 20
4.2268
 10
82.4943
 20
4.2033
 10
82.4538
 20
4.1808
 10
82.4122
 20
4.1592
 10
82.3697
 20
4.1386
 10
82.3262
 20
4.1188
 10
82.2843
 20
4.1011
 10
82.2465
 20
4.0861
 10
82.2082
 20
4.0717
 10
82.1693
 20
4.058
 10
82.1298
 20
4.0449
 10
82.0898
 20
4.0324
 10
82.0491
 20
4.0206
 10
82.0079
 20
4.0094
 10
81.966
 20
3.9989
 10
81.9236
 20
3.989
 10
81.8806
 20
3.9797
 10
81.837
 20
3.9711
 10
81.7928
 20
3.9631
 10
81.748
 20
3.9557
 10
81.7027
 20
3.949
 10
81.6567
 20
3.9429
 10
81.6102
 20
3.9375
 10
81.5631
 20
3.9327
 10
81.5154
 20
3.9286
 10
81.4671
 20
3.9251
 10
81.4182
 20
3.9222
 10
81.3688
 20
3.9199
 10
81.3187
 20
3.9183
 10
81.2681
 20
3.9174
 10
81.2168
 20
3.9171
 10
81.1626
 20
3.9174
 10
81.109
 20
3.9185
 10
81.0561
 20
3.9202
 10
81.0038
 20
3.9226
 10
80.9521
 20
3.9258
 10
80.9011
 20
3.9296
 10
80.8507
 20
3.9341
 10
80.8009
 20
3.9393
 10
80.7518
 20
3.9453
 10
80.7034
 20
3.9519
 10
80.6556
 20
3.9592
 10
80.6084
 20
3.9672
 10
80.5618
 20
3.9759
 10
80.516
 20
3.9853
 10
80.4707
 20
3.9954
 10
80.4261
 20
4.0062
 10
80.3821
 20
4.0177
 10
80.3388
 20
4.0299
 10
80.2961
 20
4.0427
 10
80.254
 20
4.0563
 10
80.2126
 20
4.0706
 10
80.1718
 20
4.0856
 10
80.1317
 20
4.1012
 10
80.0922
 20
4.1176
 10
80.0534
 20
4.1346
 10
80.0152
 20
4.1524
 10
79.9776
 20
4.1709
 10
79.9407
 20
4.19
 10
79.9044
 20
4.2098
 10
79.8687
 20
4.2304
 10
79.8337
 20
4.2516
 10
79.7994
 20
4.2736
 10
79.7657
 20
4.2962
 10
79.7326
 20
4.3195
 10
79.7001
 20
4.3435
 10
79.6683
 20
4.3683
 10
79.6372
 20
4.3937
 10
79.6067
 20
4.4198
 10
79.575
 20
4.4483
 10
79.5436
 20
4.4779
 10
79.5131
 20
4.5083
 10
79.4836
 20
4.5394
 10
79.455
 20
4.5711
 10
79.4273
 20
4.6035
 10
79.4005
 20
4.6366
 10
79.3747
 20
4.6704
 10
79.3498
 20
4.7048
 10
79.3258
 20
4.7399
 10
79.3027
 20
4.7757
 10
79.2805
 20
4.8122
 10
79.2593
 20
4.8493
 10
79.239
 20
4.8872
 10
79.2196
 20
4.9257
 10
79.2011
 20
4.9648
 10
79.1835
 20
5.0047
 10
79.1669
 20
5.0452
 10
79.1512
 20
5.0864
 10
79.1364
 20
5.1283
 10
79.1225
 20
5.1709
 10
79.1096
 20
5.2142
 10
79.0976
 20
5.2581
 10
79.0865
 20
5.3027
 10
79.0763
 20
5.348
 10
79.067
 20
5.3939
 10
79.0587
 20
5.4405
 10
79.0513
 20
5.4879
 10
79.0448
 20
5.5358
 10
79.0392
 20
5.5845
 10
79.0345
 20
5.6339
 10
79.0308
 20
5.6839
 10
79.028
 20
5.7346
 10
79.0261
 20
5.7859
 10
79.0251
 20
5.838
 10
79.0251
 20
5.8901
 10
79.0259
 20
5.9411
 10
79.0276
 20
5.9915
 10
79.0302
 20
6.0413
 10
79.0337
 20
6.0906
 10
79.038
 20
6.1393
 10
79.0432
 20
6.1875
 10
79.0493
 20
6.235
 10
79.0563
 20
6.282
 10
79.0641
 20
6.3284
 10
79.0729
 20
6.3743
 10
79.0825
 20
6.4196
 10
79.0929
 20
6.4643
 10
79.1043
 20
6.5084
 10
79.1165
 20
6.5519
 10
79.1296
 20
6.5949
 10
79.1436
 20
6.6373
 10
79.1584
 20
6.6792
 10
79.1742
 20
6.7205
 10
79.1908
 20
6.7611
 10
79.2082
 20
6.8013
 10
79.2266
 20
6.8408
 10
79.2458
 20
6.8798
 10
79.2659
 20
6.9182
 10
79.2869
 20
6.956
 10
79.3088
 20
6.9933
 10
79.3315
 20
7.03
 10
79.3551
 20
7.0661
 10
79.3796
 20
7.1016
 10
79.405
 20
7.1366
 10
79.4312
 20
7.171
 10
79.4583
 20
7.2048
 10
79.4863
 20
7.2381
 10
79.5152
 20
7.2708
 10
79.545
 20
7.3029
 10
79.5756
 20
7.3344
 10
79.6071
 20
7.3654
 10
79.6395
 20
7.3958
 10
79.6727
 20
7.4256
 10
79.7068
 20
7.4548
 10
79.7418
 20
7.4835
 10
79.7777
 20
7.5116
 10
79.8111
 20
7.5367
 10
79.8421
 20
7.559
 10
79.8735
 20
7.581
 10
79.9055
 20
7.6024
 10
79.9379
 20
7.6234
 10
79.9709
 20
7.644
 10
80.0044
 20
7.6641
 10
80.0383
 20
7.6838
 10
80.0728
 20
7.703
 10
80.1078
 20
7.7218
 10
80.1432
 20
7.7401
 10
80.1792
 20
7.7579
 10
80.2156
 20
7.7753
 10
80.2526
 20
7.7923
 10
80.2901
 20
7.8088
 10
80.328
 20
7.8248
 10
80.3665
 20
7.8404
 10
80.4054
 20
7.8556
 10
80.4449
 20
7.8703
 10
80.4849
 20
7.8845
 10
80.5253
 20
7.8983
 10
80.5663
 20
7.9117
 10
80.6077
 20
7.9245
 10
80.6497
 20
7.937
 10
80.6922
 20
7.949
 10
80.7351
 20
7.9605
 10
80.7786
 20
7.9716
 10
80.8225
 20
7.9822
 10
80.867
 20
7.9924
 10
80.912
 20
8.0021
 10
80.9574
 20
8.0114
 10
81.0034
 20
8.0202
 10
81.0498
 20
8.0286
 10
81.0968
 20
8.0365
 10
81.1442
 20
8.044
 10
81.1922
 20
8.051
 10
81.2407
 20
8.0576
 10
81.2896
 20
8.0637
 10
81.3391
 20
8.0694
 10
81.389
 20
8.0746
 10
81.4395
 20
8.0794
 10
81.4904
 20
8.0837
 10
81.5419
 20
8.0875
 10
81.5939
 20
8.0909
 10
81.6463
 20
8.0939
 10
81.6993
 20
8.0964
 10
81.7527
 20
8.0985
 10
81.8067
 20
8.1001
 10
81.8611
 20
8.1012
 10
81.9161
 20
8.1019
 10
81.9715
 20
8.1022
 10
82.023
 20
8.102
 10
82.0737
 20
8.1017
 10
82.1238
 20
8.101
 10
82.1733
 20
8.1001
 10
82.2222
 20
8.0989
 10
82.2706
 20
8.0975
 10
82.3183
 20
8.0958
 10
82.3655
 20
8.0938
 10
82.4121
 20
8.0916
 10
82.4582
 20
8.0891
 10
82.5036
 20
8.0863
 10
82.5485
 20
8.0833
 10
82.5928
 20
8.08
 10
82.6365
 20
8.0765
 10
82.6796
 20
8.0727
 10
82.7221
 20
8.0686
 10
82.7641
 20
8.0642
 10
82.8055
 20
8.0596
 10
82.8463
 20
8.0548
 10
82.8865
 20
8.0496
 10
82.9262
 20
8.0442
 10
82.967
 20
8.0383
 10
83.0129
 20
8.0312
 10
83.0586
 20
8.0237
 10
83.1041
 20
8.0158
 10
83.1493
 20
8.0075
 10
83.1944
 20
7.9988
 10
83.2392
 20
7.9897
 10
83.2783
 20
7.9814
 10
83.2783
 20
8.0052
 10
83.2783
 20
8.0736
 10
83.278
 20
8.1457
 10
83.2742
 20
8.2213
 10
83.2663
 20
8.2941
 10
83.2543
 20
8.3641
 10
83.2381
 20
8.4313
 10
83.2177
 20
8.4957
 10
83.1932
 20
8.5572
 10
83.1646
 20
8.616
 10
83.1318
 20
8.6719
 10
83.0948
 20
8.725
 10
83.0537
 20
8.7753
 10
83.0084
 20
8.8228
 10
82.959
 20
8.8674
 10
82.9055
 20
8.9093
 10
82.8477
 20
8.9483
 10
82.7969
 20
8.9784
 10
82.7502
 20
9.0035
 10
82.7014
 20
9.0274
 10
82.6504
 20
9.0502
 10
82.5973
 20
9.0717
 10
82.542
 20
9.0921
 10
82.4846
 20
9.1114
 10
82.4251
 20
9.1294
 10
82.3634
 20
9.1463
 10
82.2996
 20
9.162
 10
82.2337
 20
9.1765
 10
82.1656
 20
9.1899
 10
82.0955
 20
9.2021
 10
82.0231
 20
9.2131
 10
81.9487
 20
9.223
 10
81.8721
 20
9.2316
 10
81.7933
 20
9.2391
 10
81.7124
 20
9.2455
 10
81.6294
 20
9.2506
 10
81.5443
 20
9.2546
 10
81.4603
 20
9.2574
 10
81.3919
 20
9.2592
 10
81.3235
 20
9.261
 10
81.2552
 20
9.2628
 10
81.1868
 20
9.2646
 10
81.1185
 20
9.2664
 10
81.0501
 20
9.2683
 10
80.9817
 20
9.2701
 10
80.9134
 20
9.2719
 10
80.845
 20
9.2737
 10
80.7766
 20
9.2755
 10
80.7083
 20
9.2773
 10
80.6399
 20
9.2791
 10
80.5716
 20
9.281
 10
80.5032
 20
9.2828
 10
80.4348
 20
9.2846
 10
80.3665
 20
9.2864
 10
80.2981
 20
9.2882
 10
80.2297
 20
9.29
 10
80.1614
 20
9.2918
 10
80.093
 20
9.2937
 10
80.0246
 20
9.2955
 10
79.9563
 20
9.2973
 10
79.8879
 20
9.2991
 10
79.8334
 20
9.3132
 10
79.8395
 20
9.3813
 10
79.8456
 20
9.4494
 10
79.8517
 20
9.5175
 10
79.8578
 20
9.5857
 10
79.8639
 20
9.6538
 10
79.87
 20
9.7219
 10
79.8761
 20
9.79
 10
79.8822
 20
9.8581
 10
79.8883
 20
9.9262
 10
79.8944
 20
9.9943
 10
79.9006
 20
10.0625
 10
79.9067
 20
10.1306
 10
79.9128
 20
10.1987
 10
79.9189
 20
10.2668
 10
79.925
 20
10.3349
 10
79.9311
 20
10.403
 10
79.9372
 20
10.4711
 10
79.9433
 20
10.5393
 10
79.9494
 20
10.6074
 10
79.9555
 20
10.6755
 10
80.015
 20
10.6844
 10
80.0834
 20
10.6835
 10
80.1518
 20
10.6826
 10
80.2202
 20
10.6817
 10
80.2886
 20
10.6808
 10
80.357
 20
10.6798
 10
80.4253
 20
10.6789
 10
80.4937
 20
10.678
 10
80.5621
 20
10.6771
 10
80.6305
 20
10.6762
 10
80.6989
 20
10.6753
 10
80.7672
 20
10.6744
 10
80.8356
 20
10.6735
 10
80.904
 20
10.6726
 10
80.9724
 20
10.6717
 10
81.0408
 20
10.6707
 10
81.1091
 20
10.6698
 10
81.1775
 20
10.6689
 10
81.2459
 20
10.668
 10
81.3143
 20
10.6671
 10
81.3922
 20
10.6659
 10
81.4783
 20
10.6638
 10
81.5632
 20
10.6608
 10
81.647
 20
10.6571
 10
81.7296
 20
10.6524
 10
81.8111
 20
10.647
 10
81.8915
 20
10.6407
 10
81.9708
 20
10.6336
 10
82.0489
 20
10.6256
 10
82.1259
 20
10.6168
 10
82.2017
 20
10.6072
 10
82.2764
 20
10.5967
 10
82.35
 20
10.5854
 10
82.4225
 20
10.5733
 10
82.4938
 20
10.5603
 10
82.564
 20
10.5465
 10
82.633
 20
10.5318
 10
82.7009
 20
10.5164
 10
82.7677
 20
10.5001
 10
82.8334
 20
10.4829
 10
82.8979
 20
10.4649
 10
82.9613
 20
10.4461
 10
83.0235
 20
10.4264
 10
83.0847
 20
10.4059
 10
83.1447
 20
10.3846
 10
83.2035
 20
10.3624
 10
83.2612
 20
10.3394
 10
83.3178
 20
10.3156
 10
83.3733
 20
10.2909
 10
83.4276
 20
10.2654
 10
83.4808
 20
10.2391
 10
83.5328
 20
10.2119
 10
83.5838
 20
10.1839
 10
83.6336
 20
10.1551
 10
83.6822
 20
10.1254
 10
83.7298
 20
10.0949
 10
83.7761
 20
10.0635
 10
83.8214
 20
10.0313
 10
83.8655
 20
9.9983
 10
83.9085
 20
9.9644
 10
83.9586
 20
9.9228
 10
84.0077
 20
9.8794
 10
84.0553
 20
9.8349
 10
84.1012
 20
9.7892
 10
84.1456
 20
9.7424
 10
84.1885
 20
9.6943
 10
84.2297
 20
9.6451
 10
84.2694
 20
9.5947
 10
84.3075
 20
9.5432
 10
84.3441
 20
9.4905
 10
84.379
 20
9.4366
 10
84.4124
 20
9.3815
 10
84.4442
 20
9.3252
 10
84.4745
 20
9.2678
 10
84.5031
 20
9.2092
 10
84.5302
 20
9.1495
 10
84.5557
 20
9.0886
 10
84.5797
 20
9.0265
 10
84.602
 20
8.9632
 10
84.6228
 20
8.8987
 10
84.6421
 20
8.8331
 10
84.6597
 20
8.7663
 10
84.6758
 20
8.6984
 10
84.6903
 20
8.6292
 10
84.7032
 20
8.5589
 10
84.7145
 20
8.4875
 10
84.7243
 20
8.4148
 10
84.7325
 20
8.341
 10
84.7391
 20
8.266
 10
84.7441
 20
8.1898
 10
84.7476
 20
8.1125
 10
84.7495
 20
8.034
 10
84.7499
 20
7.9578
 10
84.7499
 20
7.8894
 10
84.7499
 20
7.821
 10
84.7499
 20
7.7526
 10
84.7499
 20
7.6842
 10
84.7499
 20
7.6158
 10
84.7499
 20
7.5474
 10
84.7499
 20
7.479
 10
84.7499
 20
7.4107
 10
84.7499
 20
7.3423
 10
84.7499
 20
7.2739
 10
84.7499
 20
7.2055
 10
84.7499
 20
7.1371
 10
84.7499
 20
7.0687
 10
84.7499
 20
7.0003
 10
84.7499
 20
6.9319
 10
84.7499
 20
6.8636
 10
84.7499
 20
6.7952
 10
84.7499
 20
6.7268
 10
84.7499
 20
6.6584
 10
84.7499
 20
6.59
 10
84.7499
 20
6.5216
 10
84.7499
 20
6.4532
 10
84.7499
 20
6.3848
 10
84.7499
 20
6.3165
 10
84.7499
 20
6.2481
 10
84.7499
 20
6.1797
 10
84.7499
 20
6.1113
 10
84.7499
 20
6.0429
 10
84.7499
 20
5.9745
 10
84.7499
 20
5.9061
 10
84.7499
 20
5.8377
 10
84.7499
 20
5.7694
 10
84.7499
 20
5.701
 10
84.7499
 20
5.6326
 10
84.7499
 20
5.5642
 10
84.7499
 20
5.4958
 10
84.7499
 20
5.4274
 10
84.81
 20
5.4114
 10
84.8777
 20
5.4021
 10
84.9455
 20
5.3928
 10
85.0132
 20
5.3835
 10
85.081
 20
5.3742
 10
85.1487
 20
5.3649
 10
85.2165
 20
5.3556
 10
85.2842
 20
5.3462
 10
85.352
 20
5.3369
 10
85.4197
 20
5.3276
 10
85.4875
 20
5.3183
 10
85.5552
 20
5.309
 10
85.623
 20
5.2997
 10
85.6907
 20
5.2904
 10
85.7435
 20
5.268
 10
85.7435
 20
5.1996
 10
85.7435
 20
5.1312
 10
85.7435
 20
5.0628
 10
85.7435
 20
4.9944
 10
85.7435
 20
4.926
 10
85.7435
 20
4.8577
 10
85.7435
 20
4.7893
 10
85.7435
 20
4.7209
 10
85.7435
 20
4.6525
 10
85.7435
 20
4.5841
 10
85.7435
 20
4.5157
 10
85.7435
 20
4.4473
 10
85.7435
 20
4.3789
 10
85.7435
 20
4.3106
 10
85.7435
 20
4.2422
 10
85.7435
 20
4.1738
 10
85.7435
 20
4.1054
 10
85.7392
 20
4.0411
 10
85.6709
 20
4.0392
 10
85.6025
 20
4.0374
 10
85.5341
 20
4.0355
 10
85.4658
 20
4.0336
 10
85.3974
 20
4.0317
 10
85.3291
 20
4.0298
 10
85.2607
 20
4.028
 10
85.1923
 20
4.0261
 10
85.124
 20
4.0242
 10
85.0556
 20
4.0223
 10
84.9873
 20
4.0204
 10
84.9189
 20
4.0186
 10
84.8505
 20
4.0167
 10
84.7822
 20
4.0148
 10
84.7138
 20
4.0129
 10
84.6454
 20
4.011
 10
84.5771
 20
4.0092
 10
84.5087
 20
4.0073
 10
84.4404
 20
4.0054
 10
84.372
 20
4.0035
 10
84.3036
 20
4.0016
 10
84.2353
 20
3.9998
 10
84.1669
 20
3.9979
 10
84.0986
 20
3.996
 10
84.0302
 20
3.9941
 10
83.9618
 20
3.9922
 10
83.8935
 20
3.9904
 10
83.8251
 20
3.9885
 10
83.7567
 20
3.9866
 10
83.6884
 20
3.9847
 10
83.62
 20
3.9828
 10
83.5517
 20
3.981
 10
83.4833
 20
3.9791
 10
83.4792
 20
4.0473
 10
83.475
 20
4.1156
 10
83.4709
 20
4.1839
 10
83.4668
 20
4.2521
 10
83.4626
 20
4.3204
 10
83.4585
 20
4.3887
 10
83.4544
 20
4.4569
 10
83.4503
 20
4.5252
 10
83.4461
 20
4.5934
 10
83.442
 20
4.6617
 10
83.4379
 20
4.73
 10
83.4337
 20
4.7982
 10
83.4296
 20
4.8665
 10
83.4255
 20
4.9348
 10
83.4213
 20
5.003
 10
83.4172
 20
5.0713
 10
83.4131
 20
5.1395
 10
83.4089
 20
5.2078
 10
83.4048
 20
5.2761
  0
LWPOLYLINE
  5
56
330
17
100
AcDbEntity
  8
OUTLINE
100
AcDbPolyline
 90
163
 70
1
 10
83.2783
 20
6.7492
 10
83.2527
 20
6.7539
 10
83.2067
 20
6.762
 10
83.1611
 20
6.7695
 10
83.116
 20
6.7764
 10
83.0712
 20
6.7828
 10
83.0269
 20
6.7887
 10
82.9829
 20
6.794
 10
82.9393
 20
6.7987
 10
82.8962
 20
6.8029
 10
82.8534
 20
6.8065
 10
82.811
 20
6.8096
 10
82.769
 20
6.8122
 10
82.727
 20
6.8142
 10
82.6834
 20
6.816
 10
82.6396
 20
6.8178
 10
82.5955
 20
6.8194
 10
82.5512
 20
6.8209
 10
82.5066
 20
6.8222
 10
82.4619
 20
6.8235
 10
82.4168
 20
6.8246
 10
82.3716
 20
6.8256
 10
82.326
 20
6.8265
 10
82.2803
 20
6.8272
 10
82.2343
 20
6.8279
 10
82.1881
 20
6.8284
 10
82.1416
 20
6.8288
 10
82.0949
 20
6.8291
 10
82.0479
 20
6.8292
 10
81.9956
 20
6.8292
 10
81.9274
 20
6.8285
 10
81.8608
 20
6.8268
 10
81.7959
 20
6.8242
 10
81.7327
 20
6.8206
 10
81.671
 20
6.816
 10
81.611
 20
6.8105
 10
81.5527
 20
6.8039
 10
81.496
 20
6.7964
 10
81.441
 20
6.788
 10
81.3876
 20
6.7786
 10
81.3358
 20
6.7682
 10
81.2857
 20
6.7568
 10
81.2372
 20
6.7445
 10
81.1904
 20
6.7312
 10
81.1452
 20
6.7169
 10
81.1016
 20
6.7017
 10
81.0597
 20
6.6855
 10
81.0194
 20
6.6684
 10
80.9808
 20
6.6502
 10
80.9439
 20
6.6311
 10
80.9085
 20
6.6111
 10
80.8748
 20
6.59
 10
80.8428
 20
6.568
 10
80.8124
 20
6.545
 10
80.7836
 20
6.5211
 10
80.7565
 20
6.4962
 10
80.7311
 20
6.4703
 10
80.7072
 20
6.4435
 10
80.6851
 20
6.4157
 10
80.6645
 20
6.3869
 10
80.6456
 20
6.3571
 10
80.6284
 20
6.3264
 10
80.6128
 20
6.2947
 10
80.5988
 20
6.2621
 10
80.5865
 20
6.2285
 10
80.5758
 20
6.1939
 10
80.5668
 20
6.1583
 10
80.5594
 20
6.1218
 10
80.5537
 20
6.0843
 10
80.5495
 20
6.0458
 10
80.5471
 20
6.0064
 10
80.5463
 20
5.966
 10
80.5475
 20
5.9145
 10
80.5512
 20
5.8648
 10
80.5574
 20
5.8168
 10
80.566
 20
5.7705
 10
80.577
 20
5.7259
 10
80.5906
 20
5.683
 10
80.6065
 20
5.6419
 10
80.625
 20
5.6025
 10
80.6458
 20
5.5648
 10
80.6692
 20
5.5288
 10
80.695
 20
5.4945
 10
80.7232
 20
5.462
 10
80.754
 20
5.4311
 10
80.7871
 20
5.402
 10
80.8196
 20
5.3769
 10
80.8508
 20
5.3554
 10
80.8836
 20
5.3352
 10
80.9179
 20
5.3163
 10
80.9538
 20
5.2987
 10
80.9912
 20
5.2825
 10
81.0301
 20
5.2675
 10
81.0706
 20
5.2539
 10
81.1126
 20
5.2416
 10
81.1562
 20
5.2306
 10
81.2013
 20
5.2209
 10
81.248
 20
5.2125
 10
81.2961
 20
5.2055
 10
81.3459
 20
5.1998
 10
81.3972
 20
5.1953
 10
81.45
 20
5.1922
 10
81.5043
 20
5.1905
 10
81.5596
 20
5.19
 10
81.6115
 20
5.1905
 10
81.6626
 20
5.192
 10
81.713
 20
5.1943
 10
81.7625
 20
5.1975
 10
81.8113
 20
5.2015
 10
81.8593
 20
5.2065
 10
81.9065
 20
5.2123
 10
81.9529
 20
5.219
 10
81.9985
 20
5.2265
 10
82.0433
 20
5.235
 10
82.0874
 20
5.2443
 10
82.1307
 20
5.2545
 10
82.1732
 20
5.2655
 10
82.2149
 20
5.2775
 10
82.2558
 20
5.2903
 10
82.296
 20
5.304
 10
82.3353
 20
5.3185
 10
82.3739
 20
5.334
 10
82.4117
 20
5.3503
 10
82.4487
 20
5.3675
 10
82.4849
 20
5.3855
 10
82.5233
 20
5.4061
 10
82.5664
 20
5.4305
 10
82.6081
 20
5.4557
 10
82.6487
 20
5.4816
 10
82.6879
 20
5.5083
 10
82.7259
 20
5.5356
 10
82.7626
 20
5.5637
 10
82.798
 20
5.5926
 10
82.8322
 20
5.6222
 10
82.8652
 20
5.6525
 10
82.8968
 20
5.6835
 10
82.9272
 20
5.7153
 10
82.9564
 20
5.7478
 10
82.9842
 20
5.781
 10
83.0108
 20
5.815
 10
83.0362
 20
5.8497
 10
83.0603
 20
5.8851
 10
83.0831
 20
5.9213
 10
83.1071
 20
5.9623
 10
83.1299
 20
6.0042
 10
83.1511
 20
6.0462
 10
83.1706
 20
6.0884
 10
83.1885
 20
6.1308
 10
83.2048
 20
6.1733
 10
83.2195
 20
6.2161
 10
83.2325
 20
6.259
 10
83.2439
 20
6.3021
 10
83.2537
 20
6.3454
 10
83.2618
 20
6.3889
 10
83.2683
 20
6.4326
 10
83.2732
 20
6.4765
 10
83.2765
 20
6.5205
 10
83.2781
 20
6.5647
 10
83.2783
 20
6.6096
 10
83.2783
 20
6.6549
 10
83.2783
 20
6.7003
 10
83.2783
 20
6.7059
 10
83.2783
 20
6.7456
  0
LWPOLYLINE
  5
57
330
17
100
AcDbEntity
  8
OUTLINE
100
AcDbPolyline
 90
368
 70
1
 10
95.7076
 20
6.6989
 10
95.6773
 20
6.6989
 10
95.6926
 20
6.6436
 10
95.7162
 20
6.5697
 10
95.7423
 20
6.4979
 10
95.7708
 20
6.4281
 10
95.8018
 20
6.3604
 10
95.8352
 20
6.2947
 10
95.8711
 20
6.2311
 10
95.9095
 20
6.1695
 10
95.9503
 20
6.11
 10
95.9936
 20
6.0525
 10
96.0394
 20
5.9971
 10
96.0876
 20
5.9438
 10
96.1383
 20
5.8925
 10
96.1906
 20
5.844
 10
96.2437
 20
5.7988
 10
96.2988
 20
5.7556
 10
96.3557
 20
5.7145
 10
96.4145
 20
5.6755
 10
96.4753
 20
5.6387
 10
96.538
 20
5.6039
 10
96.6026
 20
5.5712
 10
96.6691
 20
5.5406
 10
96.7376
 20
5.5121
 10
96.8079
 20
5.4857
 10
96.8802
 20
5.4614
 10
96.9544
 20
5.4393
 10
97.0305
 20
5.4192
 10
97.1085
 20
5.4012
 10
97.1884
 20
5.3853
 10
97.2703
 20
5.3715
 10
97.354
 20
5.3598
 10
97.4397
 20
5.3502
 10
97.5273
 20
5.3427
 10
97.6168
 20
5.3373
 10
97.7082
 20
5.334
 10
97.8016
 20
5.3328
 10
97.8822
 20
5.3332
 10
97.9615
 20
5.3343
 10
98.0406
 20
5.3362
 10
98.1194
 20
5.3389
 10
98.198
 20
5.3423
 10
98.2763
 20
5.3466
 10
98.3543
 20
5.3516
 10
98.4321
 20
5.3575
 10
98.5096
 20
5.3641
 10
98.5869
 20
5.3715
 10
98.6639
 20
5.3796
 10
98.7402
 20
5.3884
 10
98.8168
 20
5.3977
 10
98.8936
 20
5.4076
 10
98.9707
 20
5.418
 10
99.048
 20
5.4291
 10
99.1256
 20
5.4406
 10
99.2034
 20
5.4528
 10
99.2815
 20
5.4655
 10
99.3598
 20
5.4787
 10
99.4384
 20
5.4926
 10
99.5159
 20
5.5051
 10
99.5248
 20
5.4272
 10
99.5337
 20
5.3492
 10
99.5426
 20
5.2713
 10
99.5514
 20
5.1933
 10
99.5603
 20
5.1154
 10
99.5692
 20
5.0374
 10
99.5781
 20
4.9595
 10
99.587
 20
4.8816
 10
99.5959
 20
4.8036
 10
99.6048
 20
4.7257
 10
99.6137
 20
4.6477
 10
99.6226
 20
4.5698
 10
99.6315
 20
4.4918
 10
99.6404
 20
4.4139
 10
99.6492
 20
4.336
 10
99.6581
 20
4.258
 10
99.667
 20
4.1801
 10
99.6759
 20
4.1021
 10
99.6051
 20
4.0779
 10
99.5217
 20
4.0634
 10
99.4393
 20
4.0497
 10
99.3578
 20
4.0367
 10
99.2773
 20
4.0246
 10
99.1978
 20
4.0132
 10
99.1192
 20
4.0026
 10
99.0416
 20
3.9928
 10
98.965
 20
3.9838
 10
98.8893
 20
3.9755
 10
98.8146
 20
3.9681
 10
98.7408
 20
3.9614
 10
98.668
 20
3.9555
 10
98.5962
 20
3.9504
 10
98.5168
 20
3.9455
 10
98.4299
 20
3.9406
 10
98.3447
 20
3.9361
 10
98.2614
 20
3.9321
 10
98.1798
 20
3.9286
 10
98.1001
 20
3.9255
 10
98.0221
 20
3.9229
 10
97.946
 20
3.9208
 10
97.8716
 20
3.9192
 10
97.799
 20
3.918
 10
97.7282
 20
3.9173
 10
97.6592
 20
3.9171
 10
97.566
 20
3.9177
 10
97.474
 20
3.9198
 10
97.3832
 20
3.9232
 10
97.2935
 20
3.9279
 10
97.205
 20
3.934
 10
97.1177
 20
3.9414
 10
97.0316
 20
3.9502
 10
96.9466
 20
3.9604
 10
96.8629
 20
3.9719
 10
96.7803
 20
3.9848
 10
96.6989
 20
3.999
 10
96.6186
 20
4.0146
 10
96.5396
 20
4.0315
 10
96.4617
 20
4.0498
 10
96.385
 20
4.0694
 10
96.3095
 20
4.0904
 10
96.2351
 20
4.1127
 10
96.162
 20
4.1364
 10
96.09
 20
4.1615
 10
96.0192
 20
4.1879
 10
95.9496
 20
4.2156
 10
95.8811
 20
4.2448
 10
95.8138
 20
4.2752
 10
95.7478
 20
4.307
 10
95.6828
 20
4.3402
 10
95.6191
 20
4.3747
 10
95.5566
 20
4.4106
 10
95.4952
 20
4.4479
 10
95.435
 20
4.4865
 10
95.376
 20
4.5264
 10
95.3181
 20
4.5677
 10
95.2615
 20
4.6104
 10
95.206
 20
4.6544
 10
95.1517
 20
4.6997
 10
95.0986
 20
4.7464
 10
95.0466
 20
4.7945
 10
94.9951
 20
4.8447
 10
94.945
 20
4.8962
 10
94.8963
 20
4.9489
 10
94.8491
 20
5.0029
 10
94.8033
 20
5.0581
 10
94.759
 20
5.1146
 10
94.7162
 20
5.1722
 10
94.6749
 20
5.2311
 10
94.635
 20
5.2912
 10
94.5966
 20
5.3526
 10
94.5596
 20
5.4151
 10
94.5242
 20
5.4789
 10
94.4902
 20
5.544
 10
94.4576
 20
5.6102
 10
94.4266
 20
5.6777
 10
94.397
 20
5.7464
 10
94.3689
 20
5.8164
 10
94.3422
 20
5.8875
 10
94.317
 20
5.9599
 10
94.2933
 20
6.0336
 10
94.2711
 20
6.1084
 10
94.2503
 20
6.1845
 10
94.231
 20
6.2618
 10
94.2132
 20
6.3403
 10
94.1968
 20
6.4201
 10
94.1819
 20
6.5011
 10
94.1685
 20
6.5833
 10
94.1565
 20
6.6667
 10
94.146
 20
6.7514
 10
94.137
 20
6.8373
 10
94.1295
 20
6.9244
 10
94.1234
 20
7.0128
 10
94.1188
 20
7.1024
 10
94.1156
 20
7.1932
 10
94.114
 20
7.2852
 10
94.1138
 20
7.3786
 10
94.1149
 20
7.4718
 10
94.1174
 20
7.5638
 10
94.1212
 20
7.6546
 10
94.1264
 20
7.7441
 10
94.1329
 20
7.8324
 10
94.1408
 20
7.9194
 10
94.1499
 20
8.0052
 10
94.1605
 20
8.0898
 10
94.1723
 20
8.1732
 10
94.1855
 20
8.2554
 10
94.2001
 20
8.3363
 10
94.216
 20
8.416
 10
94.2332
 20
8.4944
 10
94.2517
 20
8.5717
 10
94.2716
 20
8.6477
 10
94.2929
 20
8.7225
 10
94.3154
 20
8.796
 10
94.3393
 20
8.8684
 10
94.3646
 20
8.9395
 10
94.3912
 20
9.0093
 10
94.4191
 20
9.078
 10
94.4484
 20
9.1454
 10
94.479
 20
9.2116
 10
94.5109
 20
9.2765
 10
94.5442
 20
9.3403
 10
94.5788
 20
9.4028
 10
94.6148
 20
9.464
 10
94.6521
 20
9.5241
 10
94.6907
 20
9.5829
 10
94.7307
 20
9.6405
 10
94.772
 20
9.6969
 10
94.8146
 20
9.752
 10
94.8586
 20
9.8059
 10
94.9044
 20
9.8591
 10
94.9552
 20
9.9149
 10
95.0073
 20
9.9689
 10
95.0606
 20
10.0211
 10
95.1153
 20
10.0715
 10
95.1713
 20
10.12
 10
95.2286
 20
10.1668
 10
95.2871
 20
10.2118
 10
95.347
 20
10.2549
 10
95.4082
 20
10.2962
 10
95.4707
 20
10.3357
 10
95.5345
 20
10.3734
 10
95.5996
 20
10.4093
 10
95.666
 20
10.4434
 10
95.7336
 20
10.4757
 10
95.8026
 20
10.5061
 10
95.8729
 20
10.5348
 10
95.9445
 20
10.5616
 10
96.0174
 20
10.5867
 10
96.0916
 20
10.6099
 10
96.1671
 20
10.6313
 10
96.2439
 20
10.6509
 10
96.322
 20
10.6687
 10
96.4014
 20
10.6846
 10
96.4821
 20
10.6988
 10
96.5641
 20
10.7112
 10
96.6474
 20
10.7217
 10
96.732
 20
10.7304
 10
96.8179
 20
10.7373
 10
96.9052
 20
10.7425
 10
96.9937
 20
10.7458
 10
97.0835
 20
10.7472
 10
97.1746
 20
10.7469
 10
97.2648
 20
10.7448
 10
97.3536
 20
10.7408
 10
97.4411
 20
10.735
 10
97.5271
 20
10.7274
 10
97.6118
 20
10.718
 10
97.6951
 20
10.7068
 10
97.777
 20
10.6937
 10
97.8575
 20
10.6788
 10
97.9366
 20
10.6622
 10
98.0144
 20
10.6436
 10
98.0907
 20
10.6233
 10
98.1657
 20
10.6011
 10
98.2393
 20
10.5772
 10
98.3115
 20
10.5514
 10
98.3823
 20
10.5238
 10
98.4517
 20
10.4943
 10
98.5198
 20
10.4631
 10
98.5864
 20
10.43
 10
98.6517
 20
10.3951
 10
98.7156
 20
10.3584
 10
98.7781
 20
10.3199
 10
98.8392
 20
10.2796
 10
98.899
 20
10.2374
 10
98.9573
 20
10.1934
 10
99.0143
 20
10.1476
 10
99.0699
 20
10.1
 10
99.1241
 20
10.0505
 10
99.1769
 20
9.9993
 10
99.2283
 20
9.9462
 10
99.2758
 20
9.8942
 10
99.3205
 20
9.8422
 10
99.3638
 20
9.7889
 10
99.4056
 20
9.7341
 10
99.446
 20
9.678
 10
99.485
 20
9.6205
 10
99.5226
 20
9.5615
 10
99.5588
 20
9.5012
 10
99.5935
 20
9.4395
 10
99.6268
 20
9.3764
 10
99.6587
 20
9.3119
 10
99.6892
 20
9.246
 10
99.7182
 20
9.1787
 10
99.7458
 20
9.11
 10
99.772
 20
9.0399
 10
99.7968
 20
8.9684
 10
99.8201
 20
8.8956
 10
99.842
 20
8.8213
 10
99.8625
 20
8.7456
 10
99.8816
 20
8.6686
 10
99.8993
 20
8.5901
 10
99.9155
 20
8.5103
 10
99.9303
 20
8.429
 10
99.9437
 20
8.3464
 10
99.9556
 20
8.2624
 10
99.9662
 20
8.177
 10
99.9753
 20
8.0901
 10
99.983
 20
8.0019
 10
99.9892
 20
7.9123
 10
99.9941
 20
7.8213
 10
99.9975
 20
7.7289
 10
99.9995
 20
7.6352
 10
100.0001
 20
7.5412
 10
99.9997
 20
7.4583
 10
99.9987
 20
7.3763
 10
99.997
 20
7.2953
 10
99.9948
 20
7.2152
 10
99.9919
 20
7.1361
 10
99.9883
 20
7.0579
 10
99.9842
 20
6.9806
 10
99.9794
 20
6.9044
 10
99.9739
 20
6.829
 10
99.9679
 20
6.7546
 10
99.9438
 20
6.6989
 10
99.8654
 20
6.6989
 10
99.7869
 20
6.6989
 10
99.7085
 20
6.6989
 10
99.6301
 20
6.6989
 10
99.5516
 20
6.6989
 10
99.4732
 20
6.6989
 10
99.3947
 20
6.6989
 10
99.3163
 20
6.6989
 10
99.2378
 20
6.6989
 10
99.1594
 20
6.6989
 10
99.0809
 20
6.6989
 10
99.0025
 20
6.6989
 10
98.924
 20
6.6989
 10
98.8456
 20
6.6989
 10
98.7671
 20
6.6989
 10
98.6887
 20
6.6989
 10
98.6102
 20
6.6989
 10
98.5318
 20
6.6989
 10
98.4533
 20
6.6989
 10
98.3749
 20
6.6989
 10
98.2964
 20
6.6989
 10
98.218
 20
6.6989
 10
98.1395
 20
6.6989
 10
98.0611
 20
6.6989
 10
97.9826
 20
6.6989
 10
97.9042
 20
6.6989
 10
97.8257
 20
6.6989
 10
97.7473
 20
6.6989
 10
97.6688
 20
6.6989
 10
97.5904
 20
6.6989
 10
97.5119
 20
6.6989
 10
97.4335
 20
6.6989
 10
97.355
 20
6.6989
 10
97.2766
 20
6.6989
 10
97.1981
 20
6.6989
 10
97.1197
 20
6.6989
 10
97.0412
 20
6.6989
 10
96.9628
 20
6.6989
 10
96.8843
 20
6.6989
 10
96.8059
 20
6.6989
 10
96.7274
 20
6.6989
 10
96.649
 20
6.6989
 10
96.5705
 20
6.6989
 10
96.4921
 20
6.6989
 10
96.4136
 20
6.6989
 10
96.3352
 20
6.6989
 10
96.2567
 20
6.6989
 10
96.1783
 20
6.6989
 10
96.0998
 20
6.6989
 10
96.0214
 20
6.6989
 10
95.9429
 20
6.6989
 10
95.8645
 20
6.6989
 10
95.786
 20
6.6989
  0
LWPOLYLINE
  5
58
330
17
100
AcDbEntity
  8
OUTLINE
100
AcDbPolyline
 90
100
 70
1
 10
95.6173
 20
7.8541
 10
95.6119
 20
7.8041
 10
95.6647
 20
7.8041
 10
95.7432
 20
7.8041
 10
95.8216
 20
7.8041
 10
95.9001
 20
7.8041
 10
95.9785
 20
7.8041
 10
96.057
 20
7.8041
 10
96.1354
 20
7.8041
 10
96.2139
 20
7.8041
 10
96.2923
 20
7.8041
 10
96.3708
 20
7.8041
 10
96.4492
 20
7.8041
 10
96.5277
 20
7.8041
 10
96.6061
 20
7.8041
 10
96.6846
 20
7.8041
 10
96.763
 20
7.8041
 10
96.8415
 20
7.8041
 10
96.9199
 20
7.8041
 10
96.9984
 20
7.8041
 10
97.0768
 20
7.8041
 10
97.1553
 20
7.8041
 10
97.2337
 20
7.8041
 10
97.3122
 20
7.8041
 10
97.3906
 20
7.8041
 10
97.4691
 20
7.8041
 10
97.5475
 20
7.8041
 10
97.626
 20
7.8041
 10
97.7044
 20
7.8041
 10
97.7829
 20
7.8041
 10
97.8613
 20
7.8041
 10
97.9398
 20
7.8041
 10
98.0182
 20
7.8041
 10
98.0967
 20
7.8041
 10
98.1751
 20
7.8041
 10
98.2536
 20
7.8041
 10
98.332
 20
7.8041
 10
98.4105
 20
7.8041
 10
98.4889
 20
7.8041
 10
98.5344
 20
7.8435
 10
98.5317
 20
7.9358
 10
98.526
 20
8.0253
 10
98.5173
 20
8.1121
 10
98.5057
 20
8.1961
 10
98.4911
 20
8.2773
 10
98.4735
 20
8.3558
 10
98.453
 20
8.4315
 10
98.4294
 20
8.5044
 10
98.403
 20
8.5746
 10
98.3735
 20
8.6419
 10
98.3411
 20
8.7065
 10
98.3057
 20
8.7684
 10
98.2673
 20
8.8274
 10
98.226
 20
8.8837
 10
98.1817
 20
8.9373
 10
98.1322
 20
8.9903
 10
98.0783
 20
9.0415
 10
98.0217
 20
9.0888
 10
97.9623
 20
9.1324
 10
97.9002
 20
9.1722
 10
97.8353
 20
9.2083
 10
97.7678
 20
9.2405
 10
97.6975
 20
9.269
 10
97.6244
 20
9.2937
 10
97.5487
 20
9.3146
 10
97.4702
 20
9.3318
 10
97.3889
 20
9.3451
 10
97.305
 20
9.3547
 10
97.2183
 20
9.3605
 10
97.1288
 20
9.3626
 10
97.0412
 20
9.3608
 10
96.9561
 20
9.3553
 10
96.8734
 20
9.346
 10
96.793
 20
9.3329
 10
96.7151
 20
9.316
 10
96.6396
 20
9.2953
 10
96.5665
 20
9.2708
 10
96.4958
 20
9.2425
 10
96.4275
 20
9.2105
 10
96.3616
 20
9.1746
 10
96.2981
 20
9.135
 10
96.237
 20
9.0915
 10
96.1783
 20
9.0443
 10
96.122
 20
8.9933
 10
96.0681
 20
8.9385
 10
96.0166
 20
8.8799
 10
95.972
 20
8.8234
 10
95.9329
 20
8.7688
 10
95.8959
 20
8.712
 10
95.861
 20
8.6529
 10
95.8282
 20
8.5915
 10
95.7976
 20
8.5279
 10
95.7691
 20
8.4621
 10
95.7427
 20
8.394
 10
95.7184
 20
8.3236
 10
95.6963
 20
8.251
 10
95.6762
 20
8.1761
 10
95.6583
 20
8.099
 10
95.6425
 20
8.0196
 10
95.6289
 20
7.938
  0
LWPOLYLINE
  5
59
330
17
100
AcDbEntity
  8
OUTLINE
100
AcDbPolyline
 90
432
 70
1
 10
90.5153
 20
3.9177
 10
90.4484
 20
3.9172
 10
90.3818
 20
3.9171
 10
90.2998
 20
3.9176
 10
90.2187
 20
3.919
 10
90.1385
 20
3.9215
 10
90.0591
 20
3.9249
 10
89.9807
 20
3.9293
 10
89.9031
 20
3.9347
 10
89.8265
 20
3.9411
 10
89.7507
 20
3.9484
 10
89.6758
 20
3.9568
 10
89.6017
 20
3.9661
 10
89.5286
 20
3.9764
 10
89.4563
 20
3.9876
 10
89.385
 20
3.9999
 10
89.3145
 20
4.0131
 10
89.2449
 20
4.0273
 10
89.1761
 20
4.0425
 10
89.1083
 20
4.0587
 10
89.0414
 20
4.0759
 10
88.9753
 20
4.094
 10
88.9101
 20
4.1131
 10
88.8458
 20
4.1332
 10
88.7824
 20
4.1543
 10
88.7198
 20
4.1764
 10
88.6582
 20
4.1994
 10
88.5974
 20
4.2234
 10
88.5375
 20
4.2484
 10
88.4785
 20
4.2744
 10
88.4204
 20
4.3013
 10
88.3632
 20
4.3293
 10
88.3069
 20
4.3582
 10
88.2514
 20
4.3881
 10
88.1968
 20
4.419
 10
88.1431
 20
4.4508
 10
88.0903
 20
4.4837
 10
88.0384
 20
4.5175
 10
87.9873
 20
4.5523
 10
87.9372
 20
4.5881
 10
87.8879
 20
4.6248
 10
87.8395
 20
4.6626
 10
87.792
 20
4.7013
 10
87.7454
 20
4.741
 10
87.6996
 20
4.7817
 10
87.6539
 20
4.8242
 10
87.6083
 20
4.8686
 10
87.5638
 20
4.9138
 10
87.5205
 20
4.96
 10
87.4784
 20
5.0071
 10
87.4374
 20
5.0552
 10
87.3976
 20
5.1042
 10
87.3588
 20
5.1541
 10
87.3213
 20
5.2049
 10
87.2849
 20
5.2567
 10
87.2496
 20
5.3094
 10
87.2155
 20
5.363
 10
87.1825
 20
5.4176
 10
87.1507
 20
5.4731
 10
87.12
 20
5.5295
 10
87.0905
 20
5.5868
 10
87.0621
 20
5.6451
 10
87.0348
 20
5.7043
 10
87.0087
 20
5.7645
 10
86.9838
 20
5.8255
 10
86.96
 20
5.8875
 10
86.9373
 20
5.9504
 10
86.9158
 20
6.0143
 10
86.8954
 20
6.0791
 10
86.8762
 20
6.1448
 10
86.8582
 20
6.2114
 10
86.8412
 20
6.279
 10
86.8254
 20
6.3475
 10
86.8108
 20
6.417
 10
86.7973
 20
6.4873
 10
86.785
 20
6.5586
 10
86.7738
 20
6.6308
 10
86.7637
 20
6.704
 10
86.7548
 20
6.7781
 10
86.7471
 20
6.8531
 10
86.7404
 20
6.929
 10
86.735
 20
7.0059
 10
86.7307
 20
7.0837
 10
86.7275
 20
7.1624
 10
86.7254
 20
7.2421
 10
86.7246
 20
7.3227
 10
86.7248
 20
7.4036
 10
86.7262
 20
7.4836
 10
86.7287
 20
7.5627
 10
86.7323
 20
7.6409
 10
86.737
 20
7.7181
 10
86.7428
 20
7.7945
 10
86.7497
 20
7.87
 10
86.7578
 20
7.9445
 10
86.7669
 20
8.0182
 10
86.7772
 20
8.0909
 10
86.7886
 20
8.1627
 10
86.8011
 20
8.2336
 10
86.8147
 20
8.3036
 10
86.8294
 20
8.3727
 10
86.8453
 20
8.4409
 10
86.8622
 20
8.5082
 10
86.8803
 20
8.5746
 10
86.8995
 20
8.64
 10
86.9198
 20
8.7046
 10
86.9412
 20
8.7682
 10
86.9637
 20
8.8309
 10
86.9873
 20
8.8928
 10
87.0121
 20
8.9537
 10
87.038
 20
9.0137
 10
87.0649
 20
9.0727
 10
87.093
 20
9.1309
 10
87.1222
 20
9.1882
 10
87.1525
 20
9.2446
 10
87.184
 20
9.3
 10
87.2165
 20
9.3546
 10
87.2501
 20
9.4082
 10
87.2849
 20
9.4609
 10
87.3208
 20
9.5127
 10
87.3578
 20
9.5636
 10
87.3959
 20
9.6136
 10
87.4351
 20
9.6627
 10
87.4754
 20
9.7109
 10
87.5169
 20
9.7581
 10
87.5594
 20
9.8045
 10
87.6031
 20
9.85
 10
87.6475
 20
9.8941
 10
87.6929
 20
9.9372
 10
87.7392
 20
9.9791
 10
87.7864
 20
10.0199
 10
87.8346
 20
10.0596
 10
87.8837
 20
10.0982
 10
87.9338
 20
10.1356
 10
87.9848
 20
10.172
 10
88.0368
 20
10.2072
 10
88.0897
 20
10.2413
 10
88.1435
 20
10.2744
 10
88.1983
 20
10.3062
 10
88.254
 20
10.337
 10
88.3107
 20
10.3667
 10
88.3683
 20
10.3953
 10
88.4269
 20
10.4227
 10
88.4864
 20
10.449
 10
88.5468
 20
10.4743
 10
88.6082
 20
10.4984
 10
88.6705
 20
10.5214
 10
88.7338
 20
10.5432
 10
88.798
 20
10.564
 10
88.8632
 20
10.5836
 10
88.9293
 20
10.6022
 10
88.9963
 20
10.6196
 10
89.0643
 20
10.6359
 10
89.1333
 20
10.6511
 10
89.2031
 20
10.6652
 10
89.2739
 20
10.6782
 10
89.3457
 20
10.69
 10
89.4184
 20
10.7008
 10
89.4921
 20
10.7104
 10
89.5667
 20
10.7189
 10
89.6422
 20
10.7263
 10
89.7187
 20
10.7326
 10
89.7961
 20
10.7378
 10
89.8745
 20
10.7418
 10
89.9538
 20
10.7448
 10
90.034
 20
10.7466
 10
90.1152
 20
10.7473
 10
90.193
 20
10.7469
 10
90.2693
 20
10.7454
 10
90.3447
 20
10.7427
 10
90.4192
 20
10.7388
 10
90.4929
 20
10.7338
 10
90.5657
 20
10.7277
 10
90.6376
 20
10.7204
 10
90.7087
 20
10.712
 10
90.7789
 20
10.7024
 10
90.8483
 20
10.6917
 10
90.9168
 20
10.6798
 10
90.9844
 20
10.6668
 10
91.0511
 20
10.6527
 10
91.117
 20
10.6374
 10
91.182
 20
10.6209
 10
91.2461
 20
10.6033
 10
91.3094
 20
10.5846
 10
91.3718
 20
10.5647
 10
91.4334
 20
10.5437
 10
91.494
 20
10.5215
 10
91.5539
 20
10.4982
 10
91.6128
 20
10.4737
 10
91.6709
 20
10.4481
 10
91.7281
 20
10.4213
 10
91.7844
 20
10.3934
 10
91.8403
 20
10.3642
 10
91.9041
 20
10.3287
 10
91.9663
 20
10.2919
 10
92.0267
 20
10.2538
 10
92.0854
 20
10.2144
 10
92.1424
 20
10.1737
 10
92.1977
 20
10.1317
 10
92.2513
 20
10.0884
 10
92.3032
 20
10.0438
 10
92.3533
 20
9.9979
 10
92.4017
 20
9.9507
 10
92.4485
 20
9.9022
 10
92.4935
 20
9.8524
 10
92.5368
 20
9.8013
 10
92.5783
 20
9.7488
 10
92.6182
 20
9.6951
 10
92.6564
 20
9.6401
 10
92.6928
 20
9.5838
 10
92.7275
 20
9.5262
 10
92.7605
 20
9.4672
 10
92.7918
 20
9.407
 10
92.8214
 20
9.3455
 10
92.8423
 20
9.2845
 10
92.7882
 20
9.2422
 10
92.7342
 20
9.2
 10
92.6801
 20
9.1577
 10
92.6261
 20
9.1155
 10
92.572
 20
9.0733
 10
92.518
 20
9.031
 10
92.4639
 20
8.9888
 10
92.4099
 20
8.9466
 10
92.3558
 20
8.9043
 10
92.3018
 20
8.8621
 10
92.2478
 20
8.8199
 10
92.1937
 20
8.7776
 10
92.1397
 20
8.7354
 10
92.0856
 20
8.6932
 10
92.0316
 20
8.6509
 10
91.9775
 20
8.6087
 10
91.9235
 20
8.5665
 10
91.8694
 20
8.5242
 10
91.8154
 20
8.482
 10
91.7613
 20
8.4398
 10
91.7083
 20
8.404
 10
91.6694
 20
8.4643
 10
91.6291
 20
8.5226
 10
91.5872
 20
8.579
 10
91.5439
 20
8.6334
 10
91.4992
 20
8.6858
 10
91.4529
 20
8.7363
 10
91.4052
 20
8.7849
 10
91.3561
 20
8.8314
 10
91.3054
 20
8.8761
 10
91.2533
 20
8.9187
 10
91.1997
 20
8.9595
 10
91.1446
 20
8.9982
 10
91.0881
 20
9.035
 10
91.0301
 20
9.0699
 10
90.9703
 20
9.1029
 10
90.9095
 20
9.1337
 10
90.8479
 20
9.1621
 10
90.7854
 20
9.1882
 10
90.7221
 20
9.2119
 10
90.658
 20
9.2332
 10
90.593
 20
9.2522
 10
90.5273
 20
9.2688
 10
90.4607
 20
9.283
 10
90.3932
 20
9.2949
 10
90.3249
 20
9.3044
 10
90.2558
 20
9.3116
 10
90.1859
 20
9.3163
 10
90.1152
 20
9.3188
 10
90.0399
 20
9.3188
 10
89.9615
 20
9.3167
 10
89.8848
 20
9.3123
 10
89.8098
 20
9.3057
 10
89.7365
 20
9.2968
 10
89.6648
 20
9.2857
 10
89.5948
 20
9.2724
 10
89.5264
 20
9.2569
 10
89.4598
 20
9.2391
 10
89.3948
 20
9.2191
 10
89.3315
 20
9.1969
 10
89.2698
 20
9.1724
 10
89.2098
 20
9.1458
 10
89.1515
 20
9.1169
 10
89.0949
 20
9.0857
 10
89.0399
 20
9.0524
 10
88.9867
 20
9.0168
 10
88.935
 20
8.979
 10
88.8851
 20
8.9389
 10
88.8368
 20
8.8967
 10
88.7902
 20
8.8522
 10
88.7461
 20
8.8064
 10
88.7055
 20
8.7604
 10
88.6667
 20
8.7127
 10
88.6298
 20
8.6633
 10
88.5948
 20
8.6122
 10
88.5617
 20
8.5594
 10
88.5305
 20
8.5049
 10
88.5012
 20
8.4487
 10
88.4738
 20
8.3908
 10
88.4483
 20
8.3312
 10
88.4247
 20
8.27
 10
88.4029
 20
8.207
 10
88.3831
 20
8.1423
 10
88.3652
 20
8.0759
 10
88.3492
 20
8.0079
 10
88.3351
 20
7.9381
 10
88.3228
 20
7.8666
 10
88.3125
 20
7.7934
 10
88.3041
 20
7.7186
 10
88.2975
 20
7.642
 10
88.2929
 20
7.5638
 10
88.2901
 20
7.4838
 10
88.2893
 20
7.4022
 10
88.2904
 20
7.3214
 10
88.2933
 20
7.2423
 10
88.2982
 20
7.1647
 10
88.305
 20
7.0886
 10
88.3137
 20
7.0142
 10
88.3243
 20
6.9413
 10
88.3369
 20
6.87
 10
88.3513
 20
6.8003
 10
88.3676
 20
6.7321
 10
88.3859
 20
6.6655
 10
88.4061
 20
6.6005
 10
88.4282
 20
6.5371
 10
88.4522
 20
6.4752
 10
88.4781
 20
6.4149
 10
88.5059
 20
6.3562
 10
88.5356
 20
6.2991
 10
88.5673
 20
6.2435
 10
88.6008
 20
6.1896
 10
88.6363
 20
6.1371
 10
88.6737
 20
6.0863
 10
88.713
 20
6.037
 10
88.7542
 20
5.9893
 10
88.7973
 20
5.9432
 10
88.8423
 20
5.8987
 10
88.8882
 20
5.8566
 10
88.9342
 20
5.8174
 10
88.9817
 20
5.7798
 10
89.0306
 20
5.7438
 10
89.081
 20
5.7093
 10
89.1329
 20
5.6763
 10
89.1863
 20
5.6449
 10
89.2412
 20
5.6151
 10
89.2975
 20
5.5869
 10
89.3553
 20
5.5602
 10
89.4146
 20
5.5351
 10
89.4754
 20
5.5115
 10
89.5376
 20
5.4895
 10
89.6014
 20
5.469
 10
89.6666
 20
5.4501
 10
89.7333
 20
5.4328
 10
89.8014
 20
5.4171
 10
89.8711
 20
5.4028
 10
89.9422
 20
5.3902
 10
90.0148
 20
5.3791
 10
90.0889
 20
5.3696
 10
90.1645
 20
5.3617
 10
90.2415
 20
5.3553
 10
90.32
 20
5.3504
 10
90.4
 20
5.3472
 10
90.4815
 20
5.3454
 10
90.5585
 20
5.3452
 10
90.6272
 20
5.3457
 10
90.6959
 20
5.3466
 10
90.7645
 20
5.3481
 10
90.8331
 20
5.35
 10
90.9016
 20
5.3525
 10
90.9702
 20
5.3554
 10
91.0386
 20
5.3589
 10
91.1071
 20
5.3628
 10
91.1755
 20
5.3673
 10
91.2438
 20
5.3722
 10
91.3122
 20
5.3777
 10
91.3804
 20
5.3836
 10
91.449
 20
5.3901
 10
91.5185
 20
5.3971
 10
91.5877
 20
5.4044
 10
91.6566
 20
5.4122
 10
91.7253
 20
5.4203
 10
91.7937
 20
5.4288
 10
91.8619
 20
5.4376
 10
91.9298
 20
5.4468
 10
91.9974
 20
5.4564
 10
92.0648
 20
5.4664
 10
92.1319
 20
5.4767
 10
92.1988
 20
5.4874
 10
92.2654
 20
5.4985
 10
92.3151
 20
5.4873
 10
92.323
 20
5.4192
 10
92.3308
 20
5.3511
 10
92.3386
 20
5.2829
 10
92.3465
 20
5.2148
 10
92.3543
 20
5.1466
 10
92.3622
 20
5.0785
 10
92.37
 20
5.0103
 10
92.3779
 20
4.9422
 10
92.3857
 20
4.8741
 10
92.3935
 20
4.8059
 10
92.4014
 20
4.7378
 10
92.4092
 20
4.6696
 10
92.4171
 20
4.6015
 10
92.4249
 20
4.5334
 10
92.4328
 20
4.4652
 10
92.4406
 20
4.3971
 10
92.4484
 20
4.3289
 10
92.4563
 20
4.2608
 10
92.4641
 20
4.1926
 10
92.472
 20
4.1245
 10
92.4292
 20
4.0935
 10
92.3634
 20
4.0797
 10
92.2973
 20
4.0666
 10
92.2308
 20
4.054
 10
92.1641
 20
4.0421
 10
92.097
 20
4.0308
 10
92.0297
 20
4.0202
 10
91.962
 20
4.0102
 10
91.894
 20
4.0008
 10
91.8257
 20
3.992
 10
91.7571
 20
3.9839
 10
91.6881
 20
3.9764
 10
91.6189
 20
3.9696
 10
91.5493
 20
3.9633
 10
91.4794
 20
3.9577
 10
91.4092
 20
3.9527
 10
91.3388
 20
3.9481
 10
91.2687
 20
3.9439
 10
91.1989
 20
3.9399
 10
91.1294
 20
3.9362
 10
91.0601
 20
3.9329
 10
90.9911
 20
3.9299
 10
90.9223
 20
3.9272
 10
90.8538
 20
3.9248
 10
90.7856
 20
3.9228
 10
90.7176
 20
3.921
 10
90.6499
 20
3.9196
 10
90.5825
 20
3.9185
  0
LWPOLYLINE
  5
5A
330
17
100
AcDbEntity
  8
OUTLINE
100
AcDbPolyline
 90
366
 70
1
 10
58.6522
 20
7.1989
 10
58.6522
 20
7.0648
 10
58.6522
 20
6.9308
 10
58.6522
 20
6.7968
 10
58.6522
 20
6.6627
 10
58.6522
 20
6.5287
 10
58.6522
 20
6.3946
 10
58.6522
 20
6.2606
 10
58.6522
 20
6.1266
 10
58.6522
 20
5.9925
 10
58.6522
 20
5.8585
 10
58.6522
 20
5.7244
 10
58.6522
 20
5.5904
 10
58.6522
 20
5.4564
 10
58.6522
 20
5.3223
 10
58.6522
 20
5.1883
 10
58.6522
 20
5.0542
 10
58.6522
 20
4.9202
 10
58.6522
 20
4.7862
 10
58.6522
 20
4.6521
 10
58.6522
 20
4.5181
 10
58.6522
 20
4.384
 10
58.6522
 20
4.25
 10
58.6522
 20
4.116
 10
58.5929
 20
4.0412
 10
58.4588
 20
4.0412
 10
58.3248
 20
4.0412
 10
58.1907
 20
4.0412
 10
58.0567
 20
4.0412
 10
57.9227
 20
4.0412
 10
57.7886
 20
4.0412
 10
57.6546
 20
4.0412
 10
57.5205
 20
4.0412
 10
57.3865
 20
4.0412
 10
57.2525
 20
4.0412
 10
57.1184
 20
4.0412
 10
57.1184
 20
4.1753
 10
57.1184
 20
4.3093
 10
57.1184
 20
4.4434
 10
57.1184
 20
4.5774
 10
57.1184
 20
4.7114
 10
57.1184
 20
4.8455
 10
57.1184
 20
4.9795
 10
57.1184
 20
5.1136
 10
57.1184
 20
5.2476
 10
57.1184
 20
5.3816
 10
57.1184
 20
5.5157
 10
57.1184
 20
5.6497
 10
57.1184
 20
5.7838
 10
57.1184
 20
5.9178
 10
57.1184
 20
6.0518
 10
57.1184
 20
6.1859
 10
57.1184
 20
6.3199
 10
57.1184
 20
6.454
 10
57.1184
 20
6.588
 10
57.1184
 20
6.722
 10
57.1184
 20
6.8561
 10
57.1184
 20
6.9901
 10
57.1184
 20
7.1242
 10
57.1184
 20
7.2582
 10
57.1184
 20
7.3922
 10
57.1184
 20
7.5263
 10
57.1184
 20
7.6603
 10
57.1184
 20
7.7944
 10
57.1184
 20
7.9284
 10
57.1184
 20
8.0624
 10
57.1184
 20
8.1965
 10
57.1184
 20
8.3305
 10
57.1184
 20
8.4646
 10
57.1184
 20
8.5986
 10
57.1184
 20
8.7326
 10
57.1184
 20
8.8667
 10
57.1184
 20
9.0007
 10
57.1184
 20
9.1348
 10
57.1184
 20
9.2688
 10
57.1184
 20
9.4028
 10
57.1184
 20
9.5369
 10
57.1184
 20
9.6709
 10
57.1184
 20
9.805
 10
57.1184
 20
9.939
 10
57.1184
 20
10.073
 10
57.1184
 20
10.2071
 10
57.1184
 20
10.3411
 10
57.1184
 20
10.4752
 10
57.1184
 20
10.6092
 10
57.2385
 20
10.6232
 10
57.3725
 20
10.6232
 10
57.5066
 20
10.6232
 10
57.6406
 20
10.6232
 10
57.7747
 20
10.6232
 10
57.9087
 20
10.6232
 10
58.0427
 20
10.6232
 10
58.1768
 20
10.6232
 10
58.3108
 20
10.6232
 10
58.4449
 20
10.6232
 10
58.5061
 20
10.5418
 10
58.5209
 20
10.4085
 10
58.5358
 20
10.2753
 10
58.5507
 20
10.1421
 10
58.5655
 20
10.0089
 10
58.5804
 20
9.8757
 10
58.5952
 20
9.7425
 10
58.6101
 20
9.6093
 10
58.625
 20
9.4761
 10
58.63
 20
9.4309
 10
58.6842
 20
9.4309
 10
58.7636
 20
9.4309
 10
58.8072
 20
9.4801
 10
58.821
 20
9.5708
 10
58.8379
 20
9.6581
 10
58.858
 20
9.742
 10
58.8813
 20
9.8224
 10
58.9077
 20
9.8995
 10
58.9372
 20
9.9732
 10
58.9699
 20
10.0435
 10
59.0058
 20
10.1104
 10
59.0448
 20
10.1738
 10
59.0869
 20
10.2339
 10
59.1322
 20
10.2906
 10
59.1807
 20
10.3439
 10
59.2323
 20
10.3938
 10
59.285
 20
10.4386
 10
59.3382
 20
10.4783
 10
59.3946
 20
10.5153
 10
59.4541
 20
10.5495
 10
59.5169
 20
10.581
 10
59.5828
 20
10.6098
 10
59.652
 20
10.6358
 10
59.7243
 20
10.6592
 10
59.7998
 20
10.6797
 10
59.8786
 20
10.6976
 10
59.9605
 20
10.7127
 10
60.0456
 20
10.7251
 10
60.134
 20
10.7347
 10
60.2255
 20
10.7417
 10
60.3202
 20
10.7459
 10
60.4181
 20
10.7473
 10
60.5101
 20
10.7462
 10
60.6001
 20
10.7425
 10
60.6881
 20
10.7364
 10
60.7743
 20
10.7277
 10
60.8586
 20
10.7166
 10
60.9411
 20
10.7029
 10
61.0217
 20
10.6868
 10
61.1004
 20
10.6682
 10
61.1773
 20
10.647
 10
61.2524
 20
10.6234
 10
61.3255
 20
10.5973
 10
61.3968
 20
10.5687
 10
61.4663
 20
10.5375
 10
61.5338
 20
10.5039
 10
61.5996
 20
10.4678
 10
61.6634
 20
10.4292
 10
61.7254
 20
10.3881
 10
61.7856
 20
10.3445
 10
61.8438
 20
10.2984
 10
61.9003
 20
10.2498
 10
61.9548
 20
10.1987
 10
62.0075
 20
10.1451
 10
62.0568
 20
10.0908
 10
62.1022
 20
10.0367
 10
62.1456
 20
9.9809
 10
62.1871
 20
9.9233
 10
62.2267
 20
9.8639
 10
62.2643
 20
9.8027
 10
62.2999
 20
9.7397
 10
62.3336
 20
9.675
 10
62.3653
 20
9.6085
 10
62.3951
 20
9.5401
 10
62.4229
 20
9.47
 10
62.4488
 20
9.3982
 10
62.4727
 20
9.3245
 10
62.4947
 20
9.2491
 10
62.5147
 20
9.1718
 10
62.5327
 20
9.0928
 10
62.5488
 20
9.012
 10
62.563
 20
8.9294
 10
62.5752
 20
8.8451
 10
62.5854
 20
8.7589
 10
62.5937
 20
8.671
 10
62.6001
 20
8.5813
 10
62.6045
 20
8.4898
 10
62.6069
 20
8.3965
 10
62.6074
 20
8.3056
 10
62.6074
 20
8.2262
 10
62.6074
 20
8.1467
 10
62.6074
 20
8.0673
 10
62.6074
 20
7.9879
 10
62.6074
 20
7.9085
 10
62.6074
 20
7.829
 10
62.6074
 20
7.7496
 10
62.6074
 20
7.6702
 10
62.6074
 20
7.5908
 10
62.6074
 20
7.5113
 10
62.6074
 20
7.4319
 10
62.6074
 20
7.3525
 10
62.6074
 20
7.2731
 10
62.6074
 20
7.1936
 10
62.6074
 20
7.1142
 10
62.6074
 20
7.0348
 10
62.6074
 20
6.9554
 10
62.6074
 20
6.8759
 10
62.6074
 20
6.7965
 10
62.6074
 20
6.7171
 10
62.6074
 20
6.6377
 10
62.6074
 20
6.5582
 10
62.6074
 20
6.4788
 10
62.6074
 20
6.3994
 10
62.6074
 20
6.32
 10
62.6074
 20
6.2406
 10
62.6074
 20
6.1611
 10
62.6074
 20
6.0817
 10
62.6074
 20
6.0023
 10
62.6074
 20
5.9229
 10
62.6074
 20
5.8434
 10
62.6074
 20
5.764
 10
62.6074
 20
5.6846
 10
62.6074
 20
5.6052
 10
62.6074
 20
5.5257
 10
62.6074
 20
5.4463
 10
62.6074
 20
5.3669
 10
62.6074
 20
5.2875
 10
62.6074
 20
5.208
 10
62.6074
 20
5.1286
 10
62.6074
 20
5.0492
 10
62.6074
 20
4.9698
 10
62.6074
 20
4.8903
 10
62.6074
 20
4.8109
 10
62.6074
 20
4.7315
 10
62.6074
 20
4.6521
 10
62.6074
 20
4.5726
 10
62.6074
 20
4.4932
 10
62.6074
 20
4.4138
 10
62.6074
 20
4.3344
 10
62.6074
 20
4.255
 10
62.6074
 20
4.1755
 10
62.6074
 20
4.0961
 10
62.5829
 20
4.0412
 10
62.5035
 20
4.0412
 10
62.424
 20
4.0412
 10
62.3446
 20
4.0412
 10
62.2652
 20
4.0412
 10
62.1858
 20
4.0412
 10
62.1063
 20
4.0412
 10
62.0269
 20
4.0412
 10
61.9475
 20
4.0412
 10
61.8681
 20
4.0412
 10
61.7886
 20
4.0412
 10
61.7092
 20
4.0412
 10
61.6298
 20
4.0412
 10
61.5504
 20
4.0412
 10
61.471
 20
4.0412
 10
61.3915
 20
4.0412
 10
61.3121
 20
4.0412
 10
61.2327
 20
4.0412
 10
61.1533
 20
4.0412
 10
61.0738
 20
4.0412
 10
61.0738
 20
4.1207
 10
61.0738
 20
4.2001
 10
61.0738
 20
4.2795
 10
61.0738
 20
4.3589
 10
61.0738
 20
4.4384
 10
61.0738
 20
4.5178
 10
61.0738
 20
4.5972
 10
61.0738
 20
4.6766
 10
61.0738
 20
4.7561
 10
61.0738
 20
4.8355
 10
61.0738
 20
4.9149
 10
61.0738
 20
4.9943
 10
61.0738
 20
5.0737
 10
61.0738
 20
5.1532
 10
61.0738
 20
5.2326
 10
61.0738
 20
5.312
 10
61.0738
 20
5.3914
 10
61.0738
 20
5.4709
 10
61.0738
 20
5.5503
 10
61.0738
 20
5.6297
 10
61.0738
 20
5.7091
 10
61.0738
 20
5.7886
 10
61.0738
 20
5.868
 10
61.0738
 20
5.9474
 10
61.0738
 20
6.0268
 10
61.0738
 20
6.1063
 10
61.0738
 20
6.1857
 10
61.0738
 20
6.2651
 10
61.0738
 20
6.3445
 10
61.0738
 20
6.424
 10
61.0738
 20
6.5034
 10
61.0738
 20
6.5828
 10
61.0738
 20
6.6622
 10
61.0738
 20
6.7417
 10
61.0738
 20
6.8211
 10
61.0738
 20
6.9005
 10
61.0738
 20
6.9799
 10
61.0738
 20
7.0593
 10
61.0738
 20
7.1388
 10
61.0738
 20
7.2182
 10
61.0738
 20
7.2976
 10
61.0738
 20
7.377
 10
61.0738
 20
7.4565
 10
61.0738
 20
7.5359
 10
61.0738
 20
7.6153
 10
61.0738
 20
7.6947
 10
61.0738
 20
7.7742
 10
61.0738
 20
7.8536
 10
61.0738
 20
7.933
 10
61.0738
 20
8.0124
 10
61.0738
 20
8.095
 10
61.0713
 20
8.1892
 10
61.0653
 20
8.2799
 10
61.0556
 20
8.367
 10
61.0424
 20
8.4505
 10
61.0255
 20
8.5304
 10
61.0051
 20
8.6067
 10
60.981
 20
8.6794
 10
60.9534
 20
8.7485
 10
60.9221
 20
8.814
 10
60.8873
 20
8.8759
 10
60.8489
 20
8.9342
 10
60.8068
 20
8.9889
 10
60.756
 20
9.0453
 10
60.7006
 20
9.0972
 10
60.6414
 20
9.1437
 10
60.5785
 20
9.1848
 10
60.5117
 20
9.2203
 10
60.4412
 20
9.2504
 10
60.3669
 20
9.2751
 10
60.2888
 20
9.2943
 10
60.207
 20
9.308
 10
60.1214
 20
9.3163
 10
60.032
 20
9.3191
 10
59.9492
 20
9.3175
 10
59.8691
 20
9.3124
 10
59.7916
 20
9.304
 10
59.7166
 20
9.2923
 10
59.6441
 20
9.2771
 10
59.5743
 20
9.2586
 10
59.5069
 20
9.2366
 10
59.4421
 20
9.2113
 10
59.3799
 20
9.1826
 10
59.3202
 20
9.1506
 10
59.2631
 20
9.1151
 10
59.2086
 20
9.0763
 10
59.1565
 20
9.0341
 10
59.1071
 20
8.9885
 10
59.0602
 20
8.9396
 10
59.0158
 20
8.8872
 10
58.974
 20
8.8315
 10
58.9347
 20
8.7724
 10
58.898
 20
8.7099
 10
58.8639
 20
8.6441
 10
58.8323
 20
8.5748
 10
58.8032
 20
8.5022
 10
58.7767
 20
8.4262
 10
58.7528
 20
8.3468
 10
58.7314
 20
8.2641
 10
58.7126
 20
8.1779
 10
58.6963
 20
8.0884
 10
58.6826
 20
7.9955
 10
58.6714
 20
7.8992
 10
58.6628
 20
7.7995
 10
58.6567
 20
7.6965
 10
58.6532
 20
7.5901
 10
58.6522
 20
7.5598
 10
58.6522
 20
7.467
 10
58.6522
 20
7.3329
  0
LWPOLYLINE
  5
5B
330
17
100
AcDbEntity
  8
OUTLINE
100
AcDbPolyline
 90
648
 70
1
 10
67.1582
 20
3.9185
 10
67.0845
 20
3.9174
 10
67.0099
 20
3.9171
 10
66.9477
 20
3.9173
 10
66.8857
 20
3.9179
 10
66.8239
 20
3.919
 10
66.7624
 20
3.9205
 10
66.7011
 20
3.9224
 10
66.64
 20
3.9247
 10
66.5792
 20
3.9275
 10
66.5185
 20
3.9307
 10
66.4581
 20
3.9344
 10
66.3979
 20
3.9384
 10
66.338
 20
3.9429
 10
66.2782
 20
3.9478
 10
66.2187
 20
3.9532
 10
66.1594
 20
3.9589
 10
66.1004
 20
3.9651
 10
66.0415
 20
3.9717
 10
65.9829
 20
3.9788
 10
65.9245
 20
3.9863
 10
65.8663
 20
3.9942
 10
65.8084
 20
4.0025
 10
65.7507
 20
4.0112
 10
65.6932
 20
4.0204
 10
65.6359
 20
4.03
 10
65.5789
 20
4.0401
 10
65.5165
 20
4.0516
 10
65.4539
 20
4.0637
 10
65.3919
 20
4.0763
 10
65.3304
 20
4.0894
 10
65.2695
 20
4.1029
 10
65.2091
 20
4.1169
 10
65.1493
 20
4.1314
 10
65.0899
 20
4.1464
 10
65.0312
 20
4.1619
 10
64.9729
 20
4.1778
 10
64.9153
 20
4.1942
 10
64.8581
 20
4.2111
 10
64.8015
 20
4.2284
 10
64.7455
 20
4.2463
 10
64.69
 20
4.2646
 10
64.635
 20
4.2834
 10
64.5806
 20
4.3026
 10
64.5267
 20
4.3224
 10
64.4733
 20
4.3426
 10
64.4205
 20
4.3633
 10
64.3683
 20
4.3844
 10
64.3292
 20
4.4141
 10
64.337
 20
4.4735
 10
64.3449
 20
4.5329
 10
64.3527
 20
4.5923
 10
64.3605
 20
4.6517
 10
64.3683
 20
4.7111
 10
64.3761
 20
4.7705
 10
64.384
 20
4.8299
 10
64.3918
 20
4.8893
 10
64.3996
 20
4.9487
 10
64.4074
 20
5.0081
 10
64.4153
 20
5.0675
 10
64.4231
 20
5.1269
 10
64.4309
 20
5.1863
 10
64.4387
 20
5.2457
 10
64.4465
 20
5.3051
 10
64.4544
 20
5.3645
 10
64.4622
 20
5.4239
 10
64.47
 20
5.4833
 10
64.4778
 20
5.5427
 10
64.4857
 20
5.6021
 10
64.4935
 20
5.6615
 10
64.5013
 20
5.7209
 10
64.5091
 20
5.7803
 10
64.5169
 20
5.8397
 10
64.5248
 20
5.8991
 10
64.5733
 20
5.8902
 10
64.631
 20
5.8662
 10
64.6887
 20
5.8426
 10
64.7462
 20
5.8196
 10
64.8037
 20
5.797
 10
64.8611
 20
5.7749
 10
64.9184
 20
5.7534
 10
64.9756
 20
5.7323
 10
65.0327
 20
5.7118
 10
65.0898
 20
5.6917
 10
65.1467
 20
5.6722
 10
65.2036
 20
5.6531
 10
65.2603
 20
5.6346
 10
65.317
 20
5.6165
 10
65.3736
 20
5.599
 10
65.4301
 20
5.5819
 10
65.4865
 20
5.5654
 10
65.5428
 20
5.5493
 10
65.599
 20
5.5338
 10
65.6551
 20
5.5188
 10
65.7112
 20
5.5042
 10
65.7671
 20
5.4902
 10
65.823
 20
5.4767
 10
65.8802
 20
5.4633
 10
65.9429
 20
5.4492
 10
66.0052
 20
5.4359
 10
66.0672
 20
5.4232
 10
66.1288
 20
5.4113
 10
66.1901
 20
5.4
 10
66.2511
 20
5.3894
 10
66.3117
 20
5.3795
 10
66.372
 20
5.3704
 10
66.4319
 20
5.3619
 10
66.4915
 20
5.3541
 10
66.5508
 20
5.347
 10
66.6097
 20
5.3406
 10
66.6683
 20
5.3349
 10
66.7266
 20
5.3298
 10
66.7845
 20
5.3255
 10
66.842
 20
5.3219
 10
66.8992
 20
5.319
 10
66.9561
 20
5.3167
 10
67.0126
 20
5.3152
 10
67.0688
 20
5.3143
 10
67.1303
 20
5.3142
 10
67.2048
 20
5.3153
 10
67.2775
 20
5.3177
 10
67.3483
 20
5.3215
 10
67.4172
 20
5.3267
 10
67.4841
 20
5.3333
 10
67.5492
 20
5.3412
 10
67.6125
 20
5.3505
 10
67.6738
 20
5.3612
 10
67.7332
 20
5.3733
 10
67.7907
 20
5.3867
 10
67.8464
 20
5.4015
 10
67.9001
 20
5.4177
 10
67.952
 20
5.4352
 10
68.002
 20
5.4542
 10
68.05
 20
5.4745
 10
68.0962
 20
5.4961
 10
68.1405
 20
5.5192
 10
68.1829
 20
5.5436
 10
68.2235
 20
5.5694
 10
68.2698
 20
5.6023
 10
68.3166
 20
5.64
 10
68.3601
 20
5.6798
 10
68.4002
 20
5.7219
 10
68.4369
 20
5.7661
 10
68.4703
 20
5.8124
 10
68.5002
 20
5.861
 10
68.5268
 20
5.9117
 10
68.55
 20
5.9646
 10
68.5698
 20
6.0197
 10
68.5862
 20
6.0769
 10
68.5992
 20
6.1363
 10
68.6088
 20
6.1979
 10
68.6151
 20
6.2617
 10
68.618
 20
6.3276
 10
68.6175
 20
6.3894
 10
68.6141
 20
6.4472
 10
68.6076
 20
6.5037
 10
68.5981
 20
6.5589
 10
68.5856
 20
6.6129
 10
68.5701
 20
6.6657
 10
68.5516
 20
6.7172
 10
68.5301
 20
6.7674
 10
68.5055
 20
6.8163
 10
68.478
 20
6.8641
 10
68.4474
 20
6.9105
 10
68.4139
 20
6.9557
 10
68.3773
 20
6.9997
 10
68.3377
 20
7.0423
 10
68.2951
 20
7.0838
 10
68.2495
 20
7.1239
 10
68.2009
 20
7.1628
 10
68.1493
 20
7.2005
 10
68.0947
 20
7.2369
 10
68.0371
 20
7.272
 10
67.9764
 20
7.3059
 10
67.9128
 20
7.3385
 10
67.849
 20
7.3688
 10
67.7949
 20
7.3945
 10
67.7408
 20
7.4202
 10
67.6867
 20
7.4459
 10
67.6326
 20
7.4716
 10
67.5784
 20
7.4973
 10
67.5243
 20
7.523
 10
67.4702
 20
7.5487
 10
67.4161
 20
7.5745
 10
67.362
 20
7.6002
 10
67.3079
 20
7.6259
 10
67.2537
 20
7.6516
 10
67.1996
 20
7.6773
 10
67.1455
 20
7.703
 10
67.0914
 20
7.7287
 10
67.0373
 20
7.7544
 10
66.9831
 20
7.7801
 10
66.929
 20
7.8058
 10
66.8749
 20
7.8315
 10
66.8208
 20
7.8573
 10
66.7667
 20
7.883
 10
66.7125
 20
7.9087
 10
66.6584
 20
7.9344
 10
66.6043
 20
7.9601
 10
66.5502
 20
7.9858
 10
66.4961
 20
8.0115
 10
66.4359
 20
8.0401
 10
66.3756
 20
8.0697
 10
66.3163
 20
8.0997
 10
66.2579
 20
8.1301
 10
66.2004
 20
8.161
 10
66.1439
 20
8.1924
 10
66.0884
 20
8.2242
 10
66.0337
 20
8.2564
 10
65.98
 20
8.2891
 10
65.9273
 20
8.3223
 10
65.8755
 20
8.3559
 10
65.8246
 20
8.39
 10
65.7747
 20
8.4245
 10
65.7257
 20
8.4595
 10
65.6777
 20
8.4949
 10
65.6306
 20
8.5308
 10
65.5844
 20
8.5671
 10
65.5392
 20
8.6039
 10
65.4949
 20
8.6412
 10
65.4516
 20
8.6789
 10
65.4092
 20
8.717
 10
65.3678
 20
8.7556
 10
65.3273
 20
8.7947
 10
65.2877
 20
8.8342
 10
65.2491
 20
8.8742
 10
65.2114
 20
8.9146
 10
65.1746
 20
8.9555
 10
65.1388
 20
8.9968
 10
65.104
 20
9.0386
 10
65.0701
 20
9.0808
 10
65.0336
 20
9.1282
 10
64.9977
 20
9.1773
 10
64.9631
 20
9.2269
 10
64.93
 20
9.2771
 10
64.8984
 20
9.3278
 10
64.8681
 20
9.3791
 10
64.8393
 20
9.4309
 10
64.812
 20
9.4833
 10
64.786
 20
9.5363
 10
64.7615
 20
9.5898
 10
64.7384
 20
9.6438
 10
64.7168
 20
9.6984
 10
64.6965
 20
9.7535
 10
64.6777
 20
9.8092
 10
64.6604
 20
9.8655
 10
64.6444
 20
9.9223
 10
64.6299
 20
9.9796
 10
64.6168
 20
10.0375
 10
64.6052
 20
10.0959
 10
64.595
 20
10.1549
 10
64.5862
 20
10.2145
 10
64.5788
 20
10.2746
 10
64.5729
 20
10.3352
 10
64.5684
 20
10.3964
 10
64.5653
 20
10.4582
 10
64.5637
 20
10.5205
 10
64.5635
 20
10.5854
 10
64.5646
 20
10.6539
 10
64.5671
 20
10.7214
 10
64.5708
 20
10.788
 10
64.5759
 20
10.8536
 10
64.5824
 20
10.9183
 10
64.5901
 20
10.982
 10
64.5992
 20
11.0448
 10
64.6095
 20
11.1067
 10
64.6213
 20
11.1677
 10
64.6343
 20
11.2277
 10
64.6486
 20
11.2867
 10
64.6643
 20
11.3449
 10
64.6813
 20
11.402
 10
64.6996
 20
11.4583
 10
64.7193
 20
11.5136
 10
64.7402
 20
11.568
 10
64.7625
 20
11.6214
 10
64.7861
 20
11.674
 10
64.8111
 20
11.7255
 10
64.8373
 20
11.7761
 10
64.8649
 20
11.8258
 10
64.8938
 20
11.8746
 10
64.924
 20
11.9224
 10
64.9555
 20
11.9693
 10
64.9884
 20
12.0152
 10
65.0226
 20
12.0603
 10
65.0581
 20
12.1043
 10
65.0949
 20
12.1475
 10
65.1331
 20
12.1897
 10
65.1726
 20
12.2309
 10
65.2134
 20
12.2712
 10
65.2555
 20
12.3106
 10
65.2989
 20
12.3491
 10
65.339
 20
12.3828
 10
65.38
 20
12.4155
 10
65.4219
 20
12.4473
 10
65.4646
 20
12.4782
 10
65.5082
 20
12.5082
 10
65.5527
 20
12.5373
 10
65.5981
 20
12.5654
 10
65.6444
 20
12.5927
 10
65.6916
 20
12.619
 10
65.7397
 20
12.6444
 10
65.7886
 20
12.6689
 10
65.8385
 20
12.6924
 10
65.8892
 20
12.7151
 10
65.9408
 20
12.7368
 10
65.9933
 20
12.7576
 10
66.0467
 20
12.7775
 10
66.101
 20
12.7964
 10
66.1561
 20
12.8145
 10
66.2122
 20
12.8316
 10
66.2691
 20
12.8478
 10
66.3269
 20
12.8631
 10
66.3857
 20
12.8774
 10
66.4453
 20
12.8909
 10
66.5058
 20
12.9034
 10
66.5671
 20
12.915
 10
66.6294
 20
12.9257
 10
66.6925
 20
12.9355
 10
66.7566
 20
12.9443
 10
66.8215
 20
12.9523
 10
66.8873
 20
12.9593
 10
66.954
 20
12.9654
 10
67.0216
 20
12.9706
 10
67.0901
 20
12.9748
 10
67.1595
 20
12.9782
 10
67.2297
 20
12.9806
 10
67.3008
 20
12.9821
 10
67.3729
 20
12.9827
 10
67.4376
 20
12.9824
 10
67.5007
 20
12.9813
 10
67.5635
 20
12.9794
 10
67.6259
 20
12.9768
 10
67.688
 20
12.9734
 10
67.7496
 20
12.9691
 10
67.8109
 20
12.9641
 10
67.8718
 20
12.9583
 10
67.9323
 20
12.9518
 10
67.9924
 20
12.9444
 10
68.0522
 20
12.9363
 10
68.1115
 20
12.9273
 10
68.1705
 20
12.9176
 10
68.2291
 20
12.9071
 10
68.2874
 20
12.8958
 10
68.3452
 20
12.8838
 10
68.4027
 20
12.8709
 10
68.4598
 20
12.8573
 10
68.5165
 20
12.8428
 10
68.5728
 20
12.8276
 10
68.6288
 20
12.8116
 10
68.6843
 20
12.7948
 10
68.7395
 20
12.7773
 10
68.7944
 20
12.7589
 10
68.8488
 20
12.7398
 10
68.9028
 20
12.7198
 10
68.9569
 20
12.699
 10
69.0114
 20
12.677
 10
69.0655
 20
12.6541
 10
69.1192
 20
12.6305
 10
69.1726
 20
12.606
 10
69.2256
 20
12.5806
 10
69.2783
 20
12.5544
 10
69.3306
 20
12.5274
 10
69.3825
 20
12.4996
 10
69.4341
 20
12.4709
 10
69.4853
 20
12.4413
 10
69.5362
 20
12.411
 10
69.5867
 20
12.3797
 10
69.6369
 20
12.3477
 10
69.6866
 20
12.3148
 10
69.7361
 20
12.2811
 10
69.7851
 20
12.2465
 10
69.8339
 20
12.2111
 10
69.8822
 20
12.1749
 10
69.9302
 20
12.1378
 10
69.9778
 20
12.0999
 10
70.0251
 20
12.0611
 10
70.072
 20
12.0215
 10
70.1186
 20
11.9811
 10
70.1648
 20
11.9398
 10
70.2106
 20
11.8977
 10
70.2234
 20
11.8543
 10
70.1832
 20
11.8099
 10
70.1429
 20
11.7655
 10
70.1027
 20
11.7211
 10
70.0624
 20
11.6767
 10
70.0222
 20
11.6324
 10
69.9819
 20
11.588
 10
69.9417
 20
11.5436
 10
69.9015
 20
11.4992
 10
69.8612
 20
11.4548
 10
69.821
 20
11.4104
 10
69.7807
 20
11.366
 10
69.7405
 20
11.3216
 10
69.7002
 20
11.2773
 10
69.66
 20
11.2329
 10
69.6198
 20
11.1885
 10
69.5795
 20
11.1441
 10
69.5393
 20
11.0997
 10
69.499
 20
11.0553
 10
69.4588
 20
11.0109
 10
69.4185
 20
10.9665
 10
69.3783
 20
10.9222
 10
69.3381
 20
10.8778
 10
69.2978
 20
10.8334
 10
69.2576
 20
10.789
 10
69.2173
 20
10.7446
 10
69.1675
 20
10.782
 10
69.117
 20
10.8251
 10
69.0666
 20
10.8671
 10
69.0164
 20
10.9079
 10
68.9664
 20
10.9475
 10
68.9165
 20
10.986
 10
68.8668
 20
11.0233
 10
68.8172
 20
11.0594
 10
68.7678
 20
11.0943
 10
68.7185
 20
11.1281
 10
68.6694
 20
11.1607
 10
68.6205
 20
11.1921
 10
68.5717
 20
11.2224
 10
68.523
 20
11.2515
 10
68.4746
 20
11.2794
 10
68.4263
 20
11.3062
 10
68.3781
 20
11.3317
 10
68.3301
 20
11.3561
 10
68.2815
 20
11.3797
 10
68.2235
 20
11.4063
 10
68.1655
 20
11.4311
 10
68.1076
 20
11.4541
 10
68.0497
 20
11.4753
 10
67.9918
 20
11.4948
 10
67.934
 20
11.5124
 10
67.8761
 20
11.5283
 10
67.8183
 20
11.5425
 10
67.7606
 20
11.5548
 10
67.7028
 20
11.5654
 10
67.6451
 20
11.5742
 10
67.5874
 20
11.5812
 10
67.5297
 20
11.5864
 10
67.4721
 20
11.5899
 10
67.4145
 20
11.5916
 10
67.3489
 20
11.5914
 10
67.2784
 20
11.5893
 10
67.2099
 20
11.5851
 10
67.1434
 20
11.5788
 10
67.079
 20
11.5706
 10
67.0165
 20
11.5602
 10
66.9561
 20
11.5479
 10
66.8977
 20
11.5335
 10
66.8414
 20
11.517
 10
66.787
 20
11.4985
 10
66.7347
 20
11.478
 10
66.6844
 20
11.4554
 10
66.6361
 20
11.4308
 10
66.5898
 20
11.4042
 10
66.5455
 20
11.3755
 10
66.5033
 20
11.3447
 10
66.4609
 20
11.31
 10
66.4191
 20
11.2711
 10
66.3804
 20
11.2298
 10
66.3448
 20
11.1862
 10
66.3123
 20
11.1404
 10
66.283
 20
11.0922
 10
66.2567
 20
11.0416
 10
66.2336
 20
10.9888
 10
66.2136
 20
10.9337
 10
66.1967
 20
10.8763
 10
66.183
 20
10.8165
 10
66.1724
 20
10.7545
 10
66.1648
 20
10.6901
 10
66.1605
 20
10.6234
 10
66.1592
 20
10.5551
 10
66.1613
 20
10.4932
 10
66.167
 20
10.4326
 10
66.1764
 20
10.3734
 10
66.1892
 20
10.3156
 10
66.2057
 20
10.2591
 10
66.2258
 20
10.204
 10
66.2495
 20
10.1503
 10
66.2767
 20
10.0979
 10
66.3076
 20
10.0469
 10
66.342
 20
9.9972
 10
66.3799
 20
9.949
 10
66.4141
 20
9.9097
 10
66.4504
 20
9.8711
 10
66.489
 20
9.833
 10
66.5297
 20
9.7955
 10
66.5727
 20
9.7587
 10
66.6178
 20
9.7224
 10
66.6652
 20
9.6867
 10
66.7147
 20
9.6516
 10
66.7664
 20
9.6171
 10
66.8204
 20
9.5832
 10
66.8765
 20
9.5499
 10
66.9348
 20
9.5172
 10
66.9953
 20
9.485
 10
67.0518
 20
9.4567
 10
67.1054
 20
9.43
 10
67.1591
 20
9.4033
 10
67.2127
 20
9.3766
 10
67.2663
 20
9.3499
 10
67.32
 20
9.3232
 10
67.3736
 20
9.2966
 10
67.4273
 20
9.2699
 10
67.4809
 20
9.2432
 10
67.5346
 20
9.2165
 10
67.5882
 20
9.1898
 10
67.6419
 20
9.1631
 10
67.6955
 20
9.1364
 10
67.7491
 20
9.1098
 10
67.8028
 20
9.0831
 10
67.8564
 20
9.0564
 10
67.9101
 20
9.0297
 10
67.9637
 20
9.003
 10
68.0174
 20
8.9763
 10
68.071
 20
8.9496
 10
68.1247
 20
8.923
 10
68.1783
 20
8.8963
 10
68.2319
 20
8.8696
 10
68.2908
 20
8.8402
 10
68.3518
 20
8.809
 10
68.4119
 20
8.7775
 10
68.4711
 20
8.7456
 10
68.5293
 20
8.7134
 10
68.5866
 20
8.681
 10
68.6429
 20
8.6482
 10
68.6982
 20
8.6151
 10
68.7527
 20
8.5817
 10
68.8061
 20
8.548
 10
68.8586
 20
8.5139
 10
68.9102
 20
8.4796
 10
68.9608
 20
8.445
 10
69.0105
 20
8.41
 10
69.0592
 20
8.3747
 10
69.107
 20
8.3391
 10
69.1538
 20
8.3032
 10
69.1996
 20
8.267
 10
69.2446
 20
8.2305
 10
69.2885
 20
8.1937
 10
69.3315
 20
8.1565
 10
69.3736
 20
8.1191
 10
69.4147
 20
8.0813
 10
69.4549
 20
8.0432
 10
69.4941
 20
8.0048
 10
69.5324
 20
7.9661
 10
69.5697
 20
7.9271
 10
69.6061
 20
7.8878
 10
69.6415
 20
7.8481
 10
69.6759
 20
7.8082
 10
69.7098
 20
7.7675
 10
69.7482
 20
7.7193
 10
69.7851
 20
7.6704
 10
69.8205
 20
7.621
 10
69.8544
 20
7.571
 10
69.8868
 20
7.5205
 10
69.9176
 20
7.4694
 10
69.9469
 20
7.4177
 10
69.9747
 20
7.3654
 10
70.0009
 20
7.3126
 10
70.0256
 20
7.2592
 10
70.0488
 20
7.2052
 10
70.0705
 20
7.1507
 10
70.0907
 20
7.0955
 10
70.1093
 20
7.0399
 10
70.1264
 20
6.9836
 10
70.142
 20
6.9268
 10
70.156
 20
6.8694
 10
70.1685
 20
6.8114
 10
70.1795
 20
6.7529
 10
70.189
 20
6.6938
 10
70.197
 20
6.6341
 10
70.2034
 20
6.5738
 10
70.2083
 20
6.513
 10
70.2117
 20
6.4516
 10
70.2135
 20
6.3897
 10
70.2139
 20
6.3254
 10
70.2128
 20
6.2572
 10
70.2103
 20
6.1899
 10
70.2065
 20
6.1236
 10
70.2013
 20
6.0583
 10
70.1947
 20
5.9939
 10
70.1867
 20
5.9304
 10
70.1773
 20
5.868
 10
70.1666
 20
5.8064
 10
70.1545
 20
5.7459
 10
70.1409
 20
5.6862
 10
70.1261
 20
5.6276
 10
70.1098
 20
5.5699
 10
70.0921
 20
5.5131
 10
70.0731
 20
5.4573
 10
70.0527
 20
5.4025
 10
70.0309
 20
5.3486
 10
70.0078
 20
5.2956
 10
69.9832
 20
5.2437
 10
69.9573
 20
5.1926
 10
69.93
 20
5.1426
 10
69.9013
 20
5.0935
 10
69.8712
 20
5.0453
 10
69.8397
 20
4.9981
 10
69.8069
 20
4.9519
 10
69.7727
 20
4.9066
 10
69.7371
 20
4.8622
 10
69.7001
 20
4.8188
 10
69.6618
 20
4.7764
 10
69.622
 20
4.7349
 10
69.5809
 20
4.6944
 10
69.5384
 20
4.6549
 10
69.4946
 20
4.6163
 10
69.4493
 20
4.5786
 10
69.4027
 20
4.5419
 10
69.3624
 20
4.5118
 10
69.3222
 20
4.4832
 10
69.2812
 20
4.4552
 10
69.2393
 20
4.428
 10
69.1965
 20
4.4014
 10
69.1529
 20
4.3756
 10
69.1084
 20
4.3505
 10
69.0631
 20
4.3261
 10
69.0169
 20
4.3024
 10
68.9698
 20
4.2794
 10
68.9219
 20
4.2571
 10
68.8731
 20
4.2355
 10
68.8235
 20
4.2146
 10
68.773
 20
4.1945
 10
68.7216
 20
4.175
 10
68.6694
 20
4.1562
 10
68.6163
 20
4.1382
 10
68.5624
 20
4.1209
 10
68.5076
 20
4.1042
 10
68.4519
 20
4.0883
 10
68.3954
 20
4.0731
 10
68.338
 20
4.0586
 10
68.2798
 20
4.0448
 10
68.2207
 20
4.0317
 10
68.1607
 20
4.0193
 10
68.0999
 20
4.0076
 10
68.0382
 20
3.9967
 10
67.9757
 20
3.9864
 10
67.9123
 20
3.9769
 10
67.848
 20
3.968
 10
67.7829
 20
3.9599
 10
67.7169
 20
3.9524
 10
67.6501
 20
3.9457
 10
67.5824
 20
3.9397
 10
67.5138
 20
3.9344
 10
67.4444
 20
3.9298
 10
67.3742
 20
3.9259
 10
67.303
 20
3.9227
 10
67.231
 20
3.9202
  0
ENDSEC
  0
SECTION
  2
OBJECTS
  0
DICTIONARY
  5
A
330
0
100
AcDbDictionary
281
1
  3
ACAD_COLOR
350
B
  3
ACAD_GROUP
350
C
  3
ACAD_LAYOUT
350
D
  3
ACAD_MATERIAL
350
E
  3
ACAD_MLEADERSTYLE
350
F
  3
ACAD_MLINESTYLE
350
10
  3
ACAD_PLOTSETTINGS
350
11
  3
ACAD_PLOTSTYLENAME
350
12
  3
ACAD_SCALELIST
350
14
  3
ACAD_TABLESTYLE
350
15
  3
ACAD_VISUALSTYLE
350
16
  3
EZDXF_META
350
2D
  0
DICTIONARY
  5
B
330
A
100
AcDbDictionary
281
1
  0
DICTIONARY
  5
C
330
A
100
AcDbDictionary
281
1
  0
DICTIONARY
  5
D
330
A
100
AcDbDictionary
281
1
  3
Model
350
1A
  3
Layout1
350
1E
  0
DICTIONARY
  5
E
330
A
100
AcDbDictionary
281
1
  3
ByBlock
350
1F
  3
ByLayer
350
20
  3
Global
350
21
  0
DICTIONARY
  5
F
330
A
100
AcDbDictionary
281
1
  3
Standard
350
2C
  0
DICTIONARY
  5
10
330
A
100
AcDbDictionary
281
1
  3
Standard
350
22
  0
DICTIONARY
  5
11
330
A
100
AcDbDictionary
281
1
  0
ACDBDICTIONARYWDFLT
  5
12
330
A
100
AcDbDictionary
281
1
  3
Normal
350
13
100
AcDbDictionaryWithDefault
340
13
  0
ACDBPLACEHOLDER
  5
13
330
12
  0
DICTIONARY
  5
14
330
A
100
AcDbDictionary
281
1
  0
DICTIONARY
  5
15
330
A
100
AcDbDictionary
281
1
  0
DICTIONARY
  5
16
330
A
100
AcDbDictionary
281
1
  0
LAYOUT
  5
1A
330
D
100
AcDbPlotSettings
  1

  4
A3
  6

 40
7.5
 41
20.0
 42
7.5
 43
20.0
 44
420.0
 45
297.0
 46
0.0
 47
0.0
 48
0.0
 49
0.0
140
0.0
141
0.0
142
1.0
143
1.0
 70
1024
 72
1
 73
0
 74
5
  7

 75
16
 76
0
 77
2
 78
300
147
1.0
148
0.0
149
0.0
100
AcDbLayout
  1
Model
 70
1
 71
0
 10
0.0
 20
0.0
 11
420.0
 21
297.0
 12
0.0
 22
0.0
 32
0.0
 14
1e+20
 24
1e+20
 34
1e+20
 15
-1e+20
 25
-1e+20
 35
-1e+20
146
0.0
 13
0.0
 23
0.0
 33
0.0
 16
1.0
 26
0.0
 36
0.0
 17
0.0
 27
1.0
 37
0.0
 76
1
330
17
  0
LAYOUT
  5
1E
330
D
100
AcDbPlotSettings
  1

  4
A3
  6

 40
7.5
 41
20.0
 42
7.5
 43
20.0
 44
420.0
 45
297.0
 46
0.0
 47
0.0
 48
0.0
 49
0.0
140
0.0
141
0.0
142
1.0
143
1.0
 70
0
 72
1
 73
0
 74
5
  7

 75
16
 76
0
 77
2
 78
300
147
1.0
148
0.0
149
0.0
100
AcDbLayout
  1
Layout1
 70
1
 71
1
 10
0.0
 20
0.0
 11
420.0
 21
297.0
 12
0.0
 22
0.0
 32
0.0
 14
1e+20
 24
1e+20
 34
1e+20
 15
-1e+20
 25
-1e+20
 35
-1e+20
146
0.0
 13
0.0
 23
0.0
 33
0.0
 16
1.0
 26
0.0
 36
0.0
 17
0.0
 27
1.0
 37
0.0
 76
1
330
1B
  0
MATERIAL
  5
1F
102
{ACAD_REACTORS
330
E
102
}
330
E
100
AcDbMaterial
  1
ByBlock
  2

 70
0
 40
1.0
 71
1
 41
1.0
 91
-1023410177
 42
1.0
 72
1
  3

 73
1
 74
1
 75
1
 44
0.5
 73
0
 45
1.0
 46
1.0
 77
1
  4

 78
1
 79
1
170
1
 48
1.0
171
1
  6

172
1
173
1
174
1
140
1.0
141
1.0
175
1
  7

176
1
177
1
178
1
143
1.0
179
1
  8

270
1
271
1
272
1
145
1.0
146
1.0
273
1
  9

274
1
275
1
276
1
 42
1.0
 72
1
  3

 73
1
 74
1
 75
1
 94
63
  0
MATERIAL
  5
20
102
{ACAD_REACTORS
330
E
102
}
330
E
100
AcDbMaterial
  1
ByLayer
  2

 70
0
 40
1.0
 71
1
 41
1.0
 91
-1023410177
 42
1.0
 72
1
  3

 73
1
 74
1
 75
1
 44
0.5
 73
0
 45
1.0
 46
1.0
 77
1
  4

 78
1
 79
1
170
1
 48
1.0
171
1
  6

172
1
173
1
174
1
140
1.0
141
1.0
175
1
  7

176
1
177
1
178
1
143
1.0
179
1
  8

270
1
271
1
272
1
145
1.0
146
1.0
273
1
  9

274
1
275
1
276
1
 42
1.0
 72
1
  3

 73
1
 74
1
 75
1
 94
63
  0
MATERIAL
  5
21
102
{ACAD_REACTORS
330
E
102
}
330
E
100
AcDbMaterial
  1
Global
  2

 70
0
 40
1.0
 71
1
 41
1.0
 91
-1023410177
 42
1.0
 72
1
  3

 73
1
 74
1
 75
1
 44
0.5
 73
0
 45
1.0
 46
1.0
 77
1
  4

 78
1
 79
1
170
1
 48
1.0
171
1
  6

172
1
173
1
174
1
140
1.0
141
1.0
175
1
  7

176
1
177
1
178
1
143
1.0
179
1
  8

270
1
271
1
272
1
145
1.0
146
1.0
273
1
  9

274
1
275
1
276
1
 42
1.0
 72
1
  3

 73
1
 74
1
 75
1
 94
63
  0
MLINESTYLE
  5
22
102
{ACAD_REACTORS
330
10
102
}
330
10
100
AcDbMlineStyle
  2
Standard
 70
0
  3

 62
256
 51
90.0
 52
90.0
 71
2
 49
0.5
 62
256
  6
BYLAYER
 49
-0.5
 62
256
  6
BYLAYER
  0
MLEADERSTYLE
  5
2C
102
{ACAD_REACTORS
330
F
102
}
330
F
100
AcDbMLeaderStyle
179
2
170
2
171
1
172
0
 90
2
 40
0.0
 41
0.0
173
1
 91
-1056964608
 92
-2
290
1
 42
2.0
291
1
 43
8.0
  3
Standard
 44
4.0
300

342
29
174
1
175
1
176
0
178
1
 93
-1056964608
 45
4.0
292
0
297
0
 46
4.0
 94
-1056964608
 47
1.0
 49
1.0
140
1.0
294
1
141
0.0
177
0
142
1.0
295
0
296
0
143
3.75
271
0
272
9
273
9
  0
DICTIONARY
  5
2D
330
A
100
AcDbDictionary
280
1
281
1
  3
CREATED_BY_EZDXF
350
2E
  3
WRITTEN_BY_EZDXF
350
5E
  0
DICTIONARYVAR
  5
2E
330
2D
100
DictionaryVariables
280
0
  1
0.0 @ 2000-01-01T00:00:00.000000+00:00
  0
DICTIONARYVAR
  5
5E
330
2D
100
DictionaryVariables
280
0
  1
0.0 @ 2000-01-01T00:00:00.000000+00:00
  0
ENDSEC
  0
EOF
