  0
SECTION
  2
HEADER
  9
$ACADVER
  1
AC1024
  9
$ACADMAINTVER
 70
6
  9
$DWGCODEPAGE
  3
ANSI_1252
  9
$LASTSAVEDBY
  1
ezdxf
  9
$INSBASE
 10
0.0
 20
0.0
 30
0.0
  9
$EXTMIN
 10
1e+20
 20
1e+20
 30
1e+20
  9
$EXTMAX
 10
-1e+20
 20
-1e+20
 30
-1e+20
  9
$LIMMIN
 10
0.0
 20
0.0
  9
$LIMMAX
 10
420.0
 20
297.0
  9
$ORTHOMODE
 70
0
  9
$REGENMODE
 70
1
  9
$FILLMODE
 70
1
  9
$QTEXTMODE
 70
0
  9
$MIRRTEXT
 70
1
  9
$LTSCALE
 40
1.0
  9
$ATTMODE
 70
1
  9
$TEXTSIZE
 40
2.5
  9
$TRACEWID
 40
1.0
  9
$TEXTSTYLE
  7
Standard
  9
$CLAYER
  8
0
  9
$CELTYPE
  6
ByLayer
  9
$CECOLOR
 62
256
  9
$CELTSCALE
 40
1.0
  9
$DISPSILH
 70
0
  9
$DIMSCALE
 40
1.0
  9
$DIMASZ
 40
2.5
  9
$DIMEXO
 40
0.625
  9
$DIMDLI
 40
3.75
  9
$DIMRND
 40
0.0
  9
$DIMDLE
 40
0.0
  9
$DIMEXE
 40
1.25
  9
$DIMTP
 40
0.0
  9
$DIMTM
 40
0.0
  9
$DIMTXT
 40
2.5
  9
$DIMCEN
 40
2.5
  9
$DIMTSZ
 40
0.0
  9
$DIMTOL
 70
0
  9
$DIMLIM
 70
0
  9
$DIMTIH
 70
0
  9
$DIMTOH
 70
0
  9
$DIMSE1
 70
0
  9
$DIMSE2
 70
0
  9
$DIMTAD
 70
1
  9
$DIMZIN
 70
8
  9
$DIMBLK
  1

  9
$DIMASO
 70
1
  9
$DIMSHO
 70
1
  9
$DIMPOST
  1

  9
$DIMAPOST
  1

  9
$DIMALT
 70
0
  9
$DIMALTD
 70
3
  9
$DIMALTF
 40
0.03937007874
  9
$DIMLFAC
 40
1.0
  9
$DIMTOFL
 70
1
  9
$DIMTVP
 40
0.0
  9
$DIMTIX
 70
0
  9
$DIMSOXD
 70
0
  9
$DIMSAH
 70
0
  9
$DIMBLK1
  1

  9
$DIMBLK2
  1

  9
$DIMSTYLE
  2
ISO-25
  9
$DIMCLRD
 70
0
  9
$DIMCLRE
 70
0
  9
$DIMCLRT
 70
0
  9
$DIMTFAC
 40
1.0
  9
$DIMGAP
 40
0.625
  9
$DIMJUST
 70
0
  9
$DIMSD1
 70
0
  9
$DIMSD2
 70
0
  9
$DIMTOLJ
 70
0
  9
$DIMTZIN
 70
8
  9
$DIMALTZ
 70
0
  9
$DIMALTTZ
 70
0
  9
$DIMUPT
 70
0
  9
$DIMDEC
 70
2
  9
$DIMTDEC
 70
2
  9
$DIMALTU
 70
2
  9
$DIMALTTD
 70
3
  9
$DIMTXSTY
  7
Standard
  9
$DIMAUNIT
 70
0
  9
$DIMADEC
 70
0
  9
$DIMALTRND
 40
0.0
  9
$DIMAZIN
 70
0
  9
$DIMDSEP
 70
44
  9
$DIMATFIT
 70
3
  9
$DIMFRAC
 70
0
  9
$DIMLDRBLK
  1

  9
$DIMLUNIT
 70
2
  9
$DIMLWD
 70
-2
  9
$DIMLWE
 70
-2
  9
$DIMTMOVE
 70
0
  9
$DIMFXL
 40
1.0
  9
$DIMFXLON
 70
0
  9
$DIMJOGANG
 40
0.785398163397
  9
$DIMTFILL
 70
0
  9
$DIMTFILLCLR
 70
0
  9
$DIMARCSYM
 70
0
  9
$DIMLTYPE
  6

  9
$DIMLTEX1
  6

  9
$DIMLTEX2
  6

  9
$DIMTXTDIRECTION
 70
0
  9
$LUNITS
 70
2
  9
$LUPREC
 70
4
  9
$SKETCHINC
 40
1.0
  9
$FILLETRAD
 40
10.0
  9
$AUNITS
 70
0
  9
$AUPREC
 70
2
  9
$MENU
  1
.
  9
$ELEVATION
 40
0.0
  9
$PELEVATION
 40
0.0
  9
$THICKNESS
 40
0.0
  9
$LIMCHECK
 70
0
  9
$CHAMFERA
 40
0.0
  9
$CHAMFERB
 40
0.0
  9
$CHAMFERC
 40
0.0
  9
$CHAMFERD
 40
0.0
  9
$SKPOLY
 70
0
  9
$TDCREATE
 40
2451545.0
  9
$TDUCREATE
 40
2451545.0
  9
$TDUPDATE
 40
2451545.0
  9
$TDUUPDATE
 40
2451545.0
  9
$TDINDWG
 40
0.0
  9
$TDUSRTIMER
 40
0.0
  9
$USRTIMER
 70
1
  9
$ANGBASE
 50
0.0
  9
$ANGDIR
 70
0
  9
$PDMODE
 70
0
  9
$PDSIZE
 40
0.0
  9
$PLINEWID
 40
0.0
  9
$SPLFRAME
 70
0
  9
$SPLINETYPE
 70
6
  9
$SPLINESEGS
 70
8
  9
$HANDSEED
  5
43
  9
$SURFTAB1
 70
6
  9
$SURFTAB2
 70
6
  9
$SURFTYPE
 70
6
  9
$SURFU
 70
6
  9
$SURFV
 70
6
  9
$UCSBASE
  2

  9
$UCSNAME
  2

  9
$UCSORG
 10
0.0
 20
0.0
 30
0.0
  9
$UCSXDIR
 10
1.0
 20
0.0
 30
0.0
  9
$UCSYDIR
 10
0.0
 20
1.0
 30
0.0
  9
$UCSORTHOREF
  2

  9
$UCSORTHOVIEW
 70
0
  9
$UCSORGTOP
 10
0.0
 20
0.0
 30
0.0
  9
$UCSORGBOTTOM
 10
0.0
 20
0.0
 30
0.0
  9
$UCSORGLEFT
 10
0.0
 20
0.0
 30
0.0
  9
$UCSORGRIGHT
 10
0.0
 20
0.0
 30
0.0
  9
$UCSORGFRONT
 10
0.0
 20
0.0
 30
0.0
  9
$UCSORGBACK
 10
0.0
 20
0.0
 30
0.0
  9
$PUCSBASE
  2

  9
$PUCSNAME
  2

  9
$PUCSORG
 10
0.0
 20
0.0
 30
0.0
  9
$PUCSXDIR
 10
1.0
 20
0.0
 30
0.0
  9
$PUCSYDIR
 10
0.0
 20
1.0
 30
0.0
  9
$PUCSORTHOREF
  2

  9
$PUCSORTHOVIEW
 70
0
  9
$PUCSORGTOP
 10
0.0
 20
0.0
 30
0.0
  9
$PUCSORGBOTTOM
 10
0.0
 20
0.0
 30
0.0
  9
$PUCSORGLEFT
 10
0.0
 20
0.0
 30
0.0
  9
$PUCSORGRIGHT
 10
0.0
 20
0.0
 30
0.0
  9
$PUCSORGFRONT
 10
0.0
 20
0.0
 30
0.0
  9
$PUCSORGBACK
 10
0.0
 20
0.0
 30
0.0
  9
$USERI1
 70
0
  9
$USERI2
 70
0
  9
$USERI3
 70
0
  9
$USERI4
 70
0
  9
$USERI5
 70
0
  9
$USERR1
 40
0.0
  9
$USERR2
 40
0.0
  9
$USERR3
 40
0.0
  9
$USERR4
 40
0.0
  9
$USERR5
 40
0.0
  9
$WORLDVIEW
 70
1
  9
$SHADEDGE
 70
3
  9
$SHADEDIF
 70
70
  9
$TILEMODE
 70
1
  9
$MAXACTVP
 70
64
  9
$PINSBASE
 10
0.0
 20
0.0
 30
0.0
  9
$PLIMCHECK
 70
0
  9
$PEXTMIN
 10
1e+20
 20
1e+20
 30
1e+20
  9
$PEXTMAX
 10
-1e+20
 20
-1e+20
 30
-1e+20
  9
$PLIMMIN
 10
0.0
 20
0.0
  9
$PLIMMAX
 10
420.0
 20
297.0
  9
$UNITMODE
 70
0
  9
$VISRETAIN
 70
1
  9
$PLINEGEN
 70
0
  9
$PSLTSCALE
 70
1
  9
$TREEDEPTH
 70
3020
  9
$CMLSTYLE
  2
Standard
  9
$CMLJUST
 70
0
  9
$CMLSCALE
 40
20.0
  9
$PROXYGRAPHICS
 70
1
  9
$MEASUREMENT
 70
1
  9
$CELWEIGHT
370
-1
  9
$ENDCAPS
280
0
  9
$JOINSTYLE
280
0
  9
$LWDISPLAY
290
0
  9
$INSUNITS
 70
4
  9
$HYPERLINKBASE
  1

  9
$STYLESHEET
  1

  9
$XEDIT
290
1
  9
$CEPSNTYPE
380
0
  9
$PSTYLEMODE
290
1
  9
$FINGERPRINTGUID
  2
{00000000-0000-0000-0000-000000000000}
  9
$VERSIONGUID
  2
{00000000-0000-0000-0000-000000000000}
  9
$EXTNAMES
290
1
  9
$PSVPSCALE
 40
0.0
  9
$OLESTARTUP
290
0
  9
$SORTENTS
280
127
  9
$INDEXCTL
280
0
  9
$HIDETEXT
280
1
  9
$XCLIPFRAME
280
1
  9
$HALOGAP
280
0
  9
$OBSCOLOR
 70
257
  9
$OBSLTYPE
280
0
  9
$INTERSECTIONDISPLAY
280
0
  9
$INTERSECTIONCOLOR
 70
257
  9
$DIMASSOC
280
2
  9
$PROJECTNAME
  1

  9
$CAMERADISPLAY
290
0
  9
$LENSLENGTH
 40
50.0
  9
$CAMERAHEIGHT
 40
0.0
  9
$STEPSPERSEC
 40
24.0
  9
$STEPSIZE
 40
100.0
  9
$3DDWFPREC
 40
2.0
  9
$PSOLWIDTH
 40
0.005
  9
$PSOLHEIGHT
 40
0.08
  9
$LOFTANG1
 40
1.570796326795
  9
$LOFTANG2
 40
1.570796326795
  9
$LOFTMAG1
 40
0.0
  9
$LOFTMAG2
 40
0.0
  9
$LOFTPARAM
 70
7
  9
$LOFTNORMALS
280
1
  9
$LATITUDE
 40
37.795
  9
$LONGITUDE
 40
-122.394
  9
$NORTHDIRECTION
 40
0.0
  9
$TIMEZONE
 70
-8000
  9
$LIGHTGLYPHDISPLAY
280
1
  9
$TILEMODELIGHTSYNCH
280
1
  9
$CMATERIAL
347
20
  9
$SOLIDHIST
280
0
  9
$SHOWHIST
280
1
  9
$DWFFRAME
280
2
  9
$DGNFRAME
280
2
  9
$REALWORLDSCALE
290
1
  9
$INTERFERECOLOR
 62
256
  9
$CSHADOW
280
0
  9
$SHADOWPLANELOCATION
 40
0.0
  0
ENDSEC
  0
SECTION
  2
CLASSES
  0
CLASS
  1
ACDBDICTIONARYWDFLT
  2
AcDbDictionaryWithDefault
  3
ObjectDBX Classes
 90
0
 91
0
280
0
281
0
  0
CLASS
  1
SUN
  2
AcDbSun
  3
SCENEOE
 90
1153
 91
0
280
0
281
0
  0
CLASS
  1
VISUALSTYLE
  2
AcDbVisualStyle
  3
ObjectDBX Classes
 90
4095
 91
0
280
0
281
0
  0
CLASS
  1
MATERIAL
  2
AcDbMaterial
  3
ObjectDBX Classes
 90
1153
 91
0
280
0
281
0
  0
CLASS
  1
SCALE
  2
AcDbScale
  3
ObjectDBX Classes
 90
1153
 91
0
280
0
281
0
  0
CLASS
  1
TABLESTYLE
  2
AcDbTableStyle
  3
ObjectDBX Classes
 90
4095
 91
0
280
0
281
0
  0
CLASS
  1
MLEADERSTYLE
  2
AcDbMLeaderStyle
  3
ACDB_MLEADERSTYLE_CLASS
 90
4095
 91
0
280
0
281
0
  0
CLASS
  1
DICTIONARYVAR
  2
AcDbDictionaryVar
  3
ObjectDBX Classes
 90
0
 91
0
280
0
281
0
  0
CLASS
  1
CELLSTYLEMAP
  2
AcDbCellStyleMap
  3
ObjectDBX Classes
 90
1152
 91
0
280
0
281
0
  0
CLASS
  1
MENTALRAYRENDERSETTINGS
  2
AcDbMentalRayRenderSettings
  3
SCENEOE
 90
1024
 91
0
280
0
281
0
  0
CLASS
  1
ACDBDETAILVIEWSTYLE
  2
AcDbDetailViewStyle
  3
ObjectDBX Classes
 90
1025
 91
0
280
0
281
0
  0
CLASS
  1
ACDBSECTIONVIEWSTYLE
  2
AcDbSectionViewStyle
  3
ObjectDBX Classes
 90
1025
 91
0
280
0
281
0
  0
CLASS
  1
RASTERVARIABLES
  2
AcDbRasterVariables
  3
ISM
 90
0
 91
0
280
0
281
0
  0
CLASS
  1
ACDBPLACEHOLDER
  2
AcDbPlaceHolder
  3
ObjectDBX Classes
 90
0
 91
0
280
0
281
0
  0
CLASS
  1
LAYOUT
  2
AcDbLayout
  3
ObjectDBX Classes
 90
0
 91
0
280
0
281
0
  0
ENDSEC
  0
SECTION
  2
TABLES
  0
TABLE
  2
VPORT
  5
8
330
0
100
AcDbSymbolTable
 70
1
  0
VPORT
  5
23
330
8
100
AcDbSymbolTableRecord
100
AcDbViewportTableRecord
  2
*Active
 70
0
 10
0.0
 20
0.0
 11
1.0
 21
1.0
 12
0.0
 22
0.0
 13
0.0
 23
0.0
 14
0.5
 24
0.5
 15
0.5
 25
0.5
 16
0.0
 26
0.0
 36
1.0
 17
0.0
 27
0.0
 37
0.0
 40
1000.0
 41
1.34
 42
50.0
 43
0.0
 44
0.0
 50
0.0
 51
0.0
 71
0
 72
1000
 73
1
 74
3
 75
0
 76
0
 77
0
 78
0
281
0
 65
0
146
0.0
  0
ENDTAB
  0
TABLE
  2
LTYPE
  5
2
330
0
100
AcDbSymbolTable
 70
3
  0
LTYPE
  5
24
330
2
100
AcDbSymbolTableRecord
100
AcDbLinetypeTableRecord
  2
ByBlock
 70
0
  3

 72
65
 73
0
 40
0.0
  0
LTYPE
  5
25
330
2
100
AcDbSymbolTableRecord
100
AcDbLinetypeTableRecord
  2
ByLayer
 70
0
  3

 72
65
 73
0
 40
0.0
  0
LTYPE
  5
26
330
2
100
AcDbSymbolTableRecord
100
AcDbLinetypeTableRecord
  2
Continuous
 70
0
  3

 72
65
 73
0
 40
0.0
  0
ENDTAB
  0
TABLE
  2
LAYER
  5
1
330
0
100
AcDbSymbolTable
 70
3
  0
LAYER
  5
27
330
1
100
AcDbSymbolTableRecord
100
AcDbLayerTableRecord
  2
0
 70
0
 62
7
  6
Continuous
370
-3
390
13
347
21
  0
LAYER
  5
28
330
1
100
AcDbSymbolTableRecord
100
AcDbLayerTableRecord
  2
Defpoints
 70
0
 62
7
  6
Continuous
290
0
370
-3
390
13
347
21
  0
LAYER
  5
2F
330
1
100
AcDbSymbolTableRecord
100
AcDbLayerTableRecord
  2
OUTLINE
 70
0
 62
7
  6
Continuous
370
-3
390
13
347
21
  0
ENDTAB
  0
TABLE
  2
STYLE
  5
5
330
0
100
AcDbSymbolTable
 70
1
  0
STYLE
  5
29
330
5
100
AcDbSymbolTableRecord
100
AcDbTextStyleTableRecord
  2
Standard
 70
0
 40
0.0
 41
1.0
 50
0.0
 71
0
 42
2.5
  3
txt
  4

  0
ENDTAB
  0
TABLE
  2
VIEW
  5
7
330
0
100
AcDbSymbolTable
 70
0
  0
ENDTAB
  0
TABLE
  2
UCS
  5
6
330
0
100
AcDbSymbolTable
 70
0
  0
ENDTAB
  0
TABLE
  2
APPID
  5
3
330
0
100
AcDbSymbolTable
 70
3
  0
APPID
  5
2A
330
3
100
AcDbSymbolTableRecord
100
AcDbRegAppTableRecord
  2
ACAD
 70
0
  0
APPID
  5
40
330
3
100
AcDbSymbolTableRecord
100
AcDbRegAppTableRecord
  2
HATCHBACKGROUNDCOLOR
 70
0
  0
APPID
  5
41
330
3
100
AcDbSymbolTableRecord
100
AcDbRegAppTableRecord
  2
EZDXF
 70
0
  0
ENDTAB
  0
TABLE
  2
DIMSTYLE
  5
4
330
0
100
AcDbSymbolTable
 70
1
100
AcDbDimStyleTable
  0
DIMSTYLE
105
2B
330
4
100
AcDbSymbolTableRecord
100
AcDbDimStyleTableRecord
  2
Standard
 70
0
 40
1.0
 41
2.5
 42
0.625
 43
3.75
 44
1.25
 45
0.0
 46
0.0
 47
0.0
 48
0.0
 49
2.5
140
2.5
141
2.5
142
0.0
143
0.03937007874
144
1.0
145
0.0
146
1.0
147
0.625
148
0.0
 69
0
 70
0
 71
0
 72
0
 73
0
 74
0
 75
0
 76
0
 77
1
 78
8
 79
3
170
0
171
3
172
1
173
0
174
0
175
0
176
0
177
0
178
0
179
2
271
2
272
2
273
2
274
3
275
0
276
0
277
2
278
44
279
0
280
0
281
0
282
0
283
0
284
8
285
0
286
0
288
0
289
3
290
0
371
-2
372
-2
  0
ENDTAB
  0
TABLE
  2
BLOCK_RECORD
  5
9
330
0
100
AcDbSymbolTable
 70
2
  0
BLOCK_RECORD
  5
17
330
9
100
AcDbSymbolTableRecord
100
AcDbBlockTableRecord
  2
*Model_Space
340
1A
 70
0
280
1
281
0
  0
BLOCK_RECORD
  5
1B
330
9
100
AcDbSymbolTableRecord
100
AcDbBlockTableRecord
  2
*Paper_Space
340
1E
 70
0
280
1
281
0
  0
ENDTAB
  0
ENDSEC
  0
SECTION
  2
BLOCKS
  0
BLOCK
  5
18
330
17
100
AcDbEntity
  8
0
100
AcDbBlockBegin
  2
*Model_Space
 70
0
 10
0.0
 20
0.0
 30
0.0
  3
*Model_Space
  1

  0
ENDBLK
  5
19
330
17
100
AcDbEntity
  8
0
100
AcDbBlockEnd
  0
BLOCK
  5
1C
330
1B
100
AcDbEntity
  8
0
100
AcDbBlockBegin
  2
*Paper_Space
 70
0
 10
0.0
 20
0.0
 30
0.0
  3
*Paper_Space
  1

  0
ENDBLK
  5
1D
330
1B
100
AcDbEntity
  8
0
100
AcDbBlockEnd
  0
ENDSEC
  0
SECTION
  2
ENTITIES
  0
LWPOLYLINE
  5
30
330
17
100
AcDbEntity
  8
OUTLINE
100
AcDbPolyline
 90
472
 70
1
 10
31.6738
 20
13.7123
 10
31.6738
 20
13.5628
 10
31.6738
 20
13.5296
 10
31.6738
 20
13.4134
 10
31.6738
 20
13.264
 10
31.6738
 20
13.2128
 10
31.6738
 20
13.1146
 10
31.6738
 20
12.9651
 10
31.6738
 20
12.8959
 10
31.6738
 20
12.8157
 10
31.6738
 20
12.6663
 10
31.6738
 20
12.5169
 10
31.6738
 20
12.3675
 10
31.6738
 20
12.218
 10
31.6738
 20
12.0686
 10
31.6738
 20
11.9192
 10
31.6738
 20
11.7698
 10
31.6738
 20
11.6203
 10
31.6738
 20
11.4709
 10
31.6738
 20
11.3215
 10
31.6738
 20
11.1721
 10
31.6738
 20
11.0226
 10
31.6738
 20
10.8732
 10
31.6738
 20
10.7238
 10
31.678
 20
10.5781
 10
31.8258
 20
10.5558
 10
31.9735
 20
10.5335
 10
32.1213
 20
10.5113
 10
32.2691
 20
10.489
 10
32.4168
 20
10.4667
 10
32.5646
 20
10.4445
 10
32.7123
 20
10.4222
 10
32.8601
 20
10.3999
 10
33.0078
 20
10.3777
 10
33.1556
 20
10.3554
 10
33.3033
 20
10.3332
 10
33.4511
 20
10.3109
 10
33.5989
 20
10.2886
 10
33.7466
 20
10.2664
 10
33.8944
 20
10.2441
 10
33.9383
 20
10.1325
 10
33.9383
 20
9.9831
 10
33.9383
 20
9.8336
 10
33.9383
 20
9.6842
 10
33.9383
 20
9.5348
 10
33.9383
 20
9.3854
 10
33.9383
 20
9.2359
 10
33.9383
 20
9.0865
 10
33.9383
 20
8.9371
 10
33.9383
 20
8.7877
 10
33.9383
 20
8.6383
 10
33.9383
 20
8.4888
 10
33.9383
 20
8.3394
 10
33.9383
 20
8.19
 10
33.9383
 20
8.0406
 10
33.9383
 20
7.8911
 10
33.9383
 20
7.7417
 10
33.9383
 20
7.5923
 10
33.9383
 20
7.4429
 10
33.9383
 20
7.2934
 10
33.9383
 20
7.144
 10
33.7977
 20
7.1315
 10
33.6483
 20
7.1275
 10
33.499
 20
7.1235
 10
33.3496
 20
7.1195
 10
33.2002
 20
7.1156
 10
33.0509
 20
7.1116
 10
32.9015
 20
7.1076
 10
32.7521
 20
7.1036
 10
32.6028
 20
7.0996
 10
32.4534
 20
7.0957
 10
32.304
 20
7.0917
 10
32.1546
 20
7.0877
 10
32.0053
 20
7.0837
 10
31.8559
 20
7.0798
 10
31.7065
 20
7.0758
 10
31.5572
 20
7.0718
 10
31.4078
 20
7.0678
 10
31.2584
 20
7.0638
 10
31.109
 20
7.0599
 10
30.9597
 20
7.0559
 10
30.8103
 20
7.0519
 10
30.6609
 20
7.0479
 10
30.5116
 20
7.0439
 10
30.3622
 20
7.04
 10
30.2128
 20
7.036
 10
30.0635
 20
7.032
 10
29.9141
 20
7.028
 10
29.7647
 20
7.0241
 10
29.6153
 20
7.0201
 10
29.466
 20
7.0161
 10
29.3166
 20
7.0121
 10
29.1672
 20
7.0081
 10
29.0179
 20
7.0042
 10
28.8685
 20
7.0002
 10
28.7191
 20
6.9962
 10
28.5697
 20
6.9922
 10
28.4204
 20
6.9882
 10
28.271
 20
6.9843
 10
28.1216
 20
6.9803
 10
28.1111
 20
7.1293
 10
28.1005
 20
7.2784
 10
28.0899
 20
7.4274
 10
28.0794
 20
7.5765
 10
28.0688
 20
7.7255
 10
28.0582
 20
7.8746
 10
28.0477
 20
8.0236
 10
28.0371
 20
8.1727
 10
28.0266
 20
8.3217
 10
28.016
 20
8.4708
 10
28.0054
 20
8.6198
 10
27.9949
 20
8.7689
 10
27.9843
 20
8.9179
 10
27.9737
 20
9.067
 10
27.9632
 20
9.216
 10
27.9526
 20
9.3651
 10
27.942
 20
9.5141
 10
27.9315
 20
9.6632
 10
27.9209
 20
9.8122
 10
27.9103
 20
9.9613
 10
27.8998
 20
10.1103
 10
27.8892
 20
10.2594
 10
27.8864
 20
10.2995
 10
27.7293
 20
10.2995
 10
27.5453
 20
10.2995
 10
27.4526
 20
10.164
 10
27.3995
 20
9.9681
 10
27.3409
 20
9.7779
 10
27.2769
 20
9.5934
 10
27.2076
 20
9.4145
 10
27.1328
 20
9.2413
 10
27.0527
 20
9.0738
 10
26.9672
 20
8.9119
 10
26.8763
 20
8.7558
 10
26.78
 20
8.6052
 10
26.6783
 20
8.4604
 10
26.5712
 20
8.3212
 10
26.4587
 20
8.1876
 10
26.3409
 20
8.0598
 10
26.2176
 20
7.9376
 10
26.089
 20
7.8211
 10
25.9545
 20
7.7098
 10
25.8126
 20
7.6027
 10
25.6667
 20
7.5025
 10
25.5168
 20
7.4091
 10
25.3629
 20
7.3227
 10
25.205
 20
7.2432
 10
25.0431
 20
7.1706
 10
24.8772
 20
7.105
 10
24.7074
 20
7.0462
 10
24.5335
 20
6.9944
 10
24.3557
 20
6.9494
 10
24.1738
 20
6.9114
 10
23.988
 20
6.8803
 10
23.7981
 20
6.8561
 10
23.6043
 20
6.8388
 10
23.4065
 20
6.8284
 10
23.2047
 20
6.825
 10
22.9932
 20
6.8279
 10
22.786
 20
6.8367
 10
22.583
 20
6.8514
 10
22.3843
 20
6.8719
 10
22.1898
 20
6.8982
 10
21.9995
 20
6.9305
 10
21.8135
 20
6.9686
 10
21.6317
 20
7.0125
 10
21.4542
 20
7.0623
 10
21.2809
 20
7.118
 10
21.1119
 20
7.1795
 10
20.9471
 20
7.2469
 10
20.7865
 20
7.3202
 10
20.6302
 20
7.3993
 10
20.4781
 20
7.4843
 10
20.3302
 20
7.5751
 10
20.1866
 20
7.6718
 10
20.0473
 20
7.7744
 10
19.9122
 20
7.8828
 10
19.7813
 20
7.9971
 10
19.6547
 20
8.1172
 10
19.5323
 20
8.2432
 10
19.4147
 20
8.3744
 10
19.3113
 20
8.4988
 10
19.2122
 20
8.6271
 10
19.1173
 20
8.7594
 10
19.0265
 20
8.8956
 10
18.9399
 20
9.0358
 10
18.8575
 20
9.1799
 10
18.7792
 20
9.328
 10
18.7052
 20
9.4801
 10
18.6353
 20
9.6361
 10
18.5696
 20
9.7961
 10
18.5081
 20
9.9601
 10
18.4508
 20
10.128
 10
18.3976
 20
10.2999
 10
18.3487
 20
10.4757
 10
18.3039
 20
10.6555
 10
18.2632
 20
10.8393
 10
18.2268
 20
11.027
 10
18.1946
 20
11.2187
 10
18.1665
 20
11.4144
 10
18.1426
 20
11.614
 10
18.1229
 20
11.8176
 10
18.1074
 20
12.0251
 10
18.096
 20
12.2366
 10
18.0888
 20
12.452
 10
18.0858
 20
12.6715
 10
18.0857
 20
12.8636
 10
18.0857
 20
13.0477
 10
18.0857
 20
13.2317
 10
18.0857
 20
13.4158
 10
18.0857
 20
13.5998
 10
18.0857
 20
13.7839
 10
18.0857
 20
13.9679
 10
18.0857
 20
14.152
 10
18.0857
 20
14.336
 10
18.0857
 20
14.5201
 10
18.0857
 20
14.7041
 10
18.0857
 20
14.8881
 10
18.0857
 20
15.0722
 10
18.0857
 20
15.2562
 10
18.0857
 20
15.4403
 10
18.0857
 20
15.6243
 10
18.0857
 20
15.8084
 10
18.0857
 20
15.9924
 10
18.0857
 20
16.1765
 10
18.0857
 20
16.3605
 10
18.0857
 20
16.5446
 10
18.0857
 20
16.7286
 10
18.0857
 20
16.9126
 10
18.0857
 20
17.0967
 10
18.0857
 20
17.2807
 10
18.0857
 20
17.4648
 10
18.0857
 20
17.6488
 10
18.0857
 20
17.8329
 10
18.0857
 20
18.0169
 10
18.0857
 20
18.201
 10
18.0857
 20
18.385
 10
18.0857
 20
18.5691
 10
18.0857
 20
18.7531
 10
18.0857
 20
18.9371
 10
18.0857
 20
19.1212
 10
18.0857
 20
19.3052
 10
18.0857
 20
19.4893
 10
18.0857
 20
19.6733
 10
18.0857
 20
19.8574
 10
18.0857
 20
20.0414
 10
18.0857
 20
20.2255
 10
18.0857
 20
20.4095
 10
18.0857
 20
20.5936
 10
18.0857
 20
20.7776
 10
18.0857
 20
20.9616
 10
18.0857
 20
21.1457
 10
18.0857
 20
21.3297
 10
18.0857
 20
21.5138
 10
18.0857
 20
21.6978
 10
18.0857
 20
21.8819
 10
18.0857
 20
22.0659
 10
18.0857
 20
22.25
 10
18.0857
 20
22.434
 10
18.0857
 20
22.618
 10
18.0857
 20
22.8021
 10
18.0857
 20
22.9861
 10
18.0857
 20
23.1702
 10
18.0857
 20
23.3542
 10
18.0857
 20
23.5383
 10
18.2312
 20
23.5769
 10
18.4152
 20
23.5769
 10
18.5993
 20
23.5769
 10
18.7833
 20
23.5769
 10
18.9674
 20
23.5769
 10
19.1514
 20
23.5769
 10
19.3355
 20
23.5769
 10
19.5195
 20
23.5769
 10
19.7036
 20
23.5769
 10
19.8876
 20
23.5769
 10
20.0716
 20
23.5769
 10
20.2557
 20
23.5769
 10
20.4397
 20
23.5769
 10
20.6238
 20
23.5769
 10
20.8078
 20
23.5769
 10
20.9919
 20
23.5769
 10
21.1759
 20
23.5769
 10
21.36
 20
23.5769
 10
21.544
 20
23.5769
 10
21.7281
 20
23.5769
 10
21.9121
 20
23.5769
 10
21.9171
 20
23.3978
 10
21.9171
 20
23.2138
 10
21.9171
 20
23.0297
 10
21.9171
 20
22.8457
 10
21.9171
 20
22.6616
 10
21.9171
 20
22.4776
 10
21.9171
 20
22.2936
 10
21.9171
 20
22.1095
 10
21.9171
 20
21.9255
 10
21.9171
 20
21.7414
 10
21.9171
 20
21.5574
 10
21.9171
 20
21.3733
 10
21.9171
 20
21.1893
 10
21.9171
 20
21.0052
 10
21.9171
 20
20.8212
 10
21.9171
 20
20.6371
 10
21.9171
 20
20.4531
 10
21.9171
 20
20.2691
 10
21.9171
 20
20.085
 10
21.9171
 20
19.901
 10
21.9171
 20
19.7169
 10
21.9171
 20
19.5329
 10
21.9171
 20
19.3488
 10
21.9171
 20
19.1648
 10
21.9171
 20
18.9807
 10
21.9171
 20
18.7967
 10
21.9171
 20
18.6126
 10
21.9171
 20
18.4286
 10
21.9171
 20
18.2446
 10
21.9171
 20
18.0605
 10
21.9171
 20
17.8765
 10
21.9171
 20
17.6924
 10
21.9171
 20
17.5084
 10
21.9171
 20
17.3243
 10
21.9171
 20
17.1403
 10
21.9171
 20
16.9562
 10
21.9171
 20
16.7722
 10
21.9171
 20
16.5881
 10
21.9171
 20
16.4041
 10
21.9171
 20
16.2201
 10
21.9171
 20
16.036
 10
21.9171
 20
15.852
 10
21.9171
 20
15.6679
 10
21.9171
 20
15.4839
 10
21.9171
 20
15.2998
 10
21.9171
 20
15.1158
 10
21.9171
 20
14.9317
 10
21.9171
 20
14.7477
 10
21.9171
 20
14.5636
 10
21.9171
 20
14.3796
 10
21.9171
 20
14.1956
 10
21.9171
 20
14.0115
 10
21.9171
 20
13.8275
 10
21.9171
 20
13.6434
 10
21.9171
 20
13.4594
 10
21.9176
 20
13.2628
 10
21.9251
 20
13.0483
 10
21.9413
 20
12.8418
 10
21.9662
 20
12.6431
 10
22.0
 20
12.4523
 10
22.0425
 20
12.2695
 10
22.0937
 20
12.0945
 10
22.1537
 20
11.9275
 10
22.2225
 20
11.7683
 10
22.3
 20
11.617
 10
22.3863
 20
11.4737
 10
22.4813
 20
11.3382
 10
22.5851
 20
11.2107
 10
22.7026
 20
11.086
 10
22.8317
 20
10.9682
 10
22.9684
 20
10.8614
 10
23.1129
 20
10.7654
 10
23.2651
 20
10.6805
 10
23.4251
 20
10.6065
 10
23.5928
 20
10.5435
 10
23.7683
 20
10.4914
 10
23.9515
 20
10.4503
 10
24.1425
 20
10.4202
 10
24.3411
 20
10.401
 10
24.5476
 20
10.3928
 10
24.7578
 20
10.3952
 10
24.9615
 20
10.4075
 10
25.1584
 20
10.4298
 10
25.3483
 20
10.4619
 10
25.5313
 20
10.5039
 10
25.7074
 20
10.5558
 10
25.8766
 20
10.6176
 10
26.0388
 20
10.6893
 10
26.1941
 20
10.7708
 10
26.3425
 20
10.8622
 10
26.4839
 20
10.9636
 10
26.6185
 20
11.0748
 10
26.7461
 20
11.1959
 10
26.8668
 20
11.3269
 10
26.9805
 20
11.4677
 10
27.0701
 20
11.5931
 10
27.142
 20
11.7059
 10
27.2103
 20
11.8255
 10
27.2751
 20
11.9517
 10
27.3365
 20
12.0845
 10
27.3943
 20
12.224
 10
27.4486
 20
12.3701
 10
27.4994
 20
12.5229
 10
27.5467
 20
12.6823
 10
27.5905
 20
12.8484
 10
27.6308
 20
13.0211
 10
27.6676
 20
13.2005
 10
27.7008
 20
13.3865
 10
27.7306
 20
13.5792
 10
27.7568
 20
13.7785
 10
27.7796
 20
13.9844
 10
27.7988
 20
14.197
 10
27.8145
 20
14.4163
 10
27.8268
 20
14.6422
 10
27.8355
 20
14.8748
 10
27.8407
 20
15.114
 10
27.8424
 20
15.3027
 10
27.8424
 20
15.5911
 10
27.8424
 20
15.908
 10
27.8424
 20
16.2249
 10
27.8424
 20
16.5417
 10
27.8424
 20
16.8586
 10
27.8424
 20
17.1755
 10
27.8424
 20
17.4924
 10
27.8424
 20
17.8092
 10
27.8424
 20
18.1261
 10
27.8424
 20
18.443
 10
27.8424
 20
18.7599
 10
27.8424
 20
19.0767
 10
27.8424
 20
19.3936
 10
27.8424
 20
19.7105
 10
27.8424
 20
20.0274
 10
27.8424
 20
20.3442
 10
27.8424
 20
20.6611
 10
27.8424
 20
20.978
 10
27.8424
 20
21.2949
 10
27.8424
 20
21.6117
 10
27.8424
 20
21.9286
 10
27.8424
 20
22.2455
 10
27.8424
 20
22.5624
 10
27.8424
 20
22.8792
 10
27.8424
 20
23.1961
 10
27.8424
 20
23.513
 10
28.0954
 20
23.5769
 10
28.4122
 20
23.5769
 10
28.7291
 20
23.5769
 10
29.046
 20
23.5769
 10
29.3629
 20
23.5769
 10
29.6797
 20
23.5769
 10
29.9966
 20
23.5769
 10
30.3135
 20
23.5769
 10
30.6304
 20
23.5769
 10
30.9472
 20
23.5769
 10
31.2641
 20
23.5769
 10
31.581
 20
23.5769
 10
31.6738
 20
23.3528
 10
31.6738
 20
23.0359
 10
31.6738
 20
22.719
 10
31.6738
 20
22.4021
 10
31.6738
 20
22.0853
 10
31.6738
 20
21.7684
 10
31.6738
 20
21.4515
 10
31.6738
 20
21.1346
 10
31.6738
 20
20.8178
 10
31.6738
 20
20.5009
 10
31.6738
 20
20.184
 10
31.6738
 20
19.8671
 10
31.6738
 20
19.5503
 10
31.6738
 20
19.2334
 10
31.6738
 20
18.9165
 10
31.6738
 20
18.5996
 10
31.6738
 20
18.2828
 10
31.6738
 20
17.9659
 10
31.6738
 20
17.649
 10
31.6738
 20
17.3321
 10
31.6738
 20
17.0153
 10
31.6738
 20
16.6984
 10
31.6738
 20
16.3815
 10
31.6738
 20
16.0646
 10
31.6738
 20
15.7478
 10
31.6738
 20
15.4309
 10
31.6738
 20
15.114
 10
31.6738
 20
14.7971
 10
31.6738
 20
14.4803
 10
31.6738
 20
14.1634
 10
31.6738
 20
13.8465
  0
LWPOLYLINE
  5
31
330
17
100
AcDbEntity
  8
OUTLINE
100
AcDbPolyline
 90
672
 70
1
 10
42.7926
 20
6.8255
 10
42.6243
 20
6.825
 10
42.4776
 20
6.8252
 10
42.3324
 20
6.8257
 10
42.1887
 20
6.8266
 10
42.0464
 20
6.8279
 10
41.9057
 20
6.8295
 10
41.7664
 20
6.8315
 10
41.6286
 20
6.8338
 10
41.4923
 20
6.8365
 10
41.3575
 20
6.8395
 10
41.2242
 20
6.843
 10
41.0923
 20
6.8467
 10
40.962
 20
6.8509
 10
40.8331
 20
6.8554
 10
40.7057
 20
6.8602
 10
40.5798
 20
6.8654
 10
40.4554
 20
6.871
 10
40.3324
 20
6.8769
 10
40.2109
 20
6.8832
 10
40.091
 20
6.8899
 10
39.9725
 20
6.8969
 10
39.8555
 20
6.9042
 10
39.7399
 20
6.912
 10
39.6259
 20
6.9201
 10
39.5133
 20
6.9285
 10
39.4023
 20
6.9373
 10
39.275
 20
6.948
 10
39.1342
 20
6.9604
 10
38.9949
 20
6.9735
 10
38.8572
 20
6.9872
 10
38.721
 20
7.0015
 10
38.5864
 20
7.0164
 10
38.4533
 20
7.0319
 10
38.3217
 20
7.048
 10
38.1917
 20
7.0647
 10
38.0631
 20
7.082
 10
37.9362
 20
7.0999
 10
37.8107
 20
7.1184
 10
37.6868
 20
7.1376
 10
37.5644
 20
7.1573
 10
37.4436
 20
7.1776
 10
37.3243
 20
7.1986
 10
37.2065
 20
7.2201
 10
37.0902
 20
7.2423
 10
36.9755
 20
7.2651
 10
36.8623
 20
7.2884
 10
36.8691
 20
7.4086
 10
36.885
 20
7.5363
 10
36.901
 20
7.664
 10
36.917
 20
7.7916
 10
36.9329
 20
7.9193
 10
36.9489
 20
8.047
 10
36.9648
 20
8.1746
 10
36.9808
 20
8.3023
 10
36.9968
 20
8.43
 10
37.0127
 20
8.5576
 10
37.0287
 20
8.6853
 10
37.0446
 20
8.8129
 10
37.0606
 20
8.9406
 10
37.0765
 20
9.0683
 10
37.0925
 20
9.1959
 10
37.1085
 20
9.3236
 10
37.1244
 20
9.4513
 10
37.1404
 20
9.5789
 10
37.1563
 20
9.7066
 10
37.1723
 20
9.8343
 10
37.1882
 20
9.9619
 10
37.2042
 20
10.0896
 10
37.2202
 20
10.2173
 10
37.2361
 20
10.3449
 10
37.2521
 20
10.4726
 10
37.268
 20
10.6002
 10
37.284
 20
10.7279
 10
37.3
 20
10.8556
 10
37.4135
 20
10.874
 10
37.5601
 20
10.8542
 10
37.705
 20
10.8348
 10
37.8481
 20
10.8158
 10
37.9895
 20
10.7972
 10
38.1293
 20
10.779
 10
38.2672
 20
10.7613
 10
38.4035
 20
10.744
 10
38.5381
 20
10.7271
 10
38.6709
 20
10.7106
 10
38.802
 20
10.6945
 10
38.9314
 20
10.6789
 10
39.0591
 20
10.6636
 10
39.1851
 20
10.6488
 10
39.3093
 20
10.6344
 10
39.4318
 20
10.6204
 10
39.5526
 20
10.6069
 10
39.6717
 20
10.5937
 10
39.7891
 20
10.581
 10
39.9047
 20
10.5687
 10
40.0187
 20
10.5568
 10
40.1309
 20
10.5453
 10
40.2414
 20
10.5342
 10
40.3502
 20
10.5236
 10
40.4722
 20
10.5119
 10
40.6219
 20
10.4982
 10
40.7688
 20
10.4852
 10
40.913
 20
10.4731
 10
41.0544
 20
10.4618
 10
41.1931
 20
10.4514
 10
41.329
 20
10.4419
 10
41.4622
 20
10.4332
 10
41.5927
 20
10.4253
 10
41.7204
 20
10.4182
 10
41.8453
 20
10.4121
 10
41.9675
 20
10.4067
 10
42.087
 20
10.4022
 10
42.2037
 20
10.3986
 10
42.3177
 20
10.3958
 10
42.4289
 20
10.3938
 10
42.5374
 20
10.3927
 10
42.6559
 20
10.3924
 10
42.8291
 20
10.3932
 10
42.9985
 20
10.3951
 10
43.1642
 20
10.3981
 10
43.3261
 20
10.4022
 10
43.4843
 20
10.4075
 10
43.6387
 20
10.4138
 10
43.7893
 20
10.4213
 10
43.9362
 20
10.4299
 10
44.0793
 20
10.4397
 10
44.2186
 20
10.4505
 10
44.3542
 20
10.4625
 10
44.486
 20
10.4756
 10
44.6141
 20
10.4898
 10
44.7384
 20
10.5052
 10
44.8589
 20
10.5217
 10
44.9757
 20
10.5392
 10
45.0887
 20
10.558
 10
45.198
 20
10.5778
 10
45.3035
 20
10.5987
 10
45.4052
 20
10.6208
 10
45.5032
 20
10.644
 10
45.5974
 20
10.6683
 10
45.6879
 20
10.6938
 10
45.7746
 20
10.7203
 10
45.8575
 20
10.748
 10
45.9676
 20
10.7887
 10
46.1132
 20
10.8507
 10
46.2468
 20
10.9179
 10
46.3683
 20
10.9902
 10
46.4777
 20
11.0677
 10
46.5751
 20
11.1503
 10
46.6605
 20
11.2381
 10
46.7337
 20
11.331
 10
46.7949
 20
11.4291
 10
46.8441
 20
11.5323
 10
46.8812
 20
11.6407
 10
46.9062
 20
11.7543
 10
46.9192
 20
11.873
 10
46.92
 20
12.0071
 10
46.908
 20
12.1492
 10
46.8831
 20
12.2811
 10
46.8453
 20
12.4028
 10
46.7946
 20
12.5143
 10
46.7309
 20
12.6156
 10
46.6543
 20
12.7068
 10
46.5752
 20
12.78
 10
46.4905
 20
12.845
 10
46.3953
 20
12.9067
 10
46.2898
 20
12.965
 10
46.1739
 20
13.0201
 10
46.0476
 20
13.0719
 10
45.911
 20
13.1203
 10
45.764
 20
13.1655
 10
45.6265
 20
13.2037
 10
45.5025
 20
13.2383
 10
45.3786
 20
13.2728
 10
45.2547
 20
13.3073
 10
45.1307
 20
13.3419
 10
45.0068
 20
13.3764
 10
44.8829
 20
13.411
 10
44.7589
 20
13.4455
 10
44.635
 20
13.4801
 10
44.5111
 20
13.5146
 10
44.3871
 20
13.5491
 10
44.2632
 20
13.5837
 10
44.1393
 20
13.6182
 10
44.0153
 20
13.6528
 10
43.8914
 20
13.6873
 10
43.7675
 20
13.7219
 10
43.6435
 20
13.7564
 10
43.5196
 20
13.7909
 10
43.3957
 20
13.8255
 10
43.2717
 20
13.86
 10
43.1478
 20
13.8946
 10
43.0239
 20
13.9291
 10
42.8999
 20
13.9637
 10
42.776
 20
13.9982
 10
42.6521
 20
14.0327
 10
42.5281
 20
14.0673
 10
42.4042
 20
14.1018
 10
42.2803
 20
14.1364
 10
42.1563
 20
14.1709
 10
42.0324
 20
14.2055
 10
41.9085
 20
14.24
 10
41.7845
 20
14.2746
 10
41.6606
 20
14.3091
 10
41.5367
 20
14.3436
 10
41.4127
 20
14.3782
 10
41.2888
 20
14.4127
 10
41.1649
 20
14.4473
 10
41.0409
 20
14.4818
 10
40.9063
 20
14.5194
 10
40.7569
 20
14.5628
 10
40.6105
 20
14.6074
 10
40.4671
 20
14.6532
 10
40.3267
 20
14.7003
 10
40.1894
 20
14.7486
 10
40.0551
 20
14.7982
 10
39.9239
 20
14.849
 10
39.7956
 20
14.9011
 10
39.6704
 20
14.9544
 10
39.5483
 20
15.0089
 10
39.4292
 20
15.0647
 10
39.3131
 20
15.1218
 10
39.2
 20
15.1801
 10
39.0899
 20
15.2396
 10
38.9829
 20
15.3004
 10
38.879
 20
15.3624
 10
38.778
 20
15.4257
 10
38.6801
 20
15.4902
 10
38.5852
 20
15.5559
 10
38.4934
 20
15.6229
 10
38.4045
 20
15.6912
 10
38.3188
 20
15.7607
 10
38.236
 20
15.8314
 10
38.1563
 20
15.9034
 10
38.0796
 20
15.9766
 10
37.9996
 20
16.058
 10
37.9202
 20
16.1453
 10
37.8446
 20
16.2357
 10
37.7726
 20
16.329
 10
37.7043
 20
16.4253
 10
37.6397
 20
16.5247
 10
37.5787
 20
16.627
 10
37.5214
 20
16.7324
 10
37.4678
 20
16.8408
 10
37.4179
 20
16.9522
 10
37.3716
 20
17.0666
 10
37.329
 20
17.184
 10
37.29
 20
17.3045
 10
37.2548
 20
17.4279
 10
37.2232
 20
17.5544
 10
37.1952
 20
17.6839
 10
37.171
 20
17.8164
 10
37.1504
 20
17.9519
 10
37.1335
 20
18.0904
 10
37.1203
 20
18.2319
 10
37.1107
 20
18.3764
 10
37.1048
 20
18.524
 10
37.1026
 20
18.6746
 10
37.1038
 20
18.8198
 10
37.1083
 20
18.9623
 10
37.116
 20
19.1026
 10
37.1269
 20
19.2409
 10
37.141
 20
19.3771
 10
37.1583
 20
19.5113
 10
37.1788
 20
19.6433
 10
37.2025
 20
19.7732
 10
37.2295
 20
19.9011
 10
37.2597
 20
20.0269
 10
37.293
 20
20.1506
 10
37.3296
 20
20.2722
 10
37.3694
 20
20.3917
 10
37.4124
 20
20.5092
 10
37.4586
 20
20.6246
 10
37.508
 20
20.7378
 10
37.5607
 20
20.849
 10
37.6165
 20
20.9582
 10
37.6756
 20
21.0652
 10
37.7378
 20
21.1701
 10
37.8033
 20
21.273
 10
37.872
 20
21.3738
 10
37.9439
 20
21.4725
 10
38.019
 20
21.5691
 10
38.0974
 20
21.6636
 10
38.1789
 20
21.7561
 10
38.2636
 20
21.8464
 10
38.3516
 20
21.9347
 10
38.4428
 20
22.0209
 10
38.5371
 20
22.105
 10
38.6347
 20
22.1871
 10
38.7355
 20
22.267
 10
38.8395
 20
22.3449
 10
38.9468
 20
22.4206
 10
39.0572
 20
22.4943
 10
39.1708
 20
22.566
 10
39.2809
 20
22.6315
 10
39.3623
 20
22.6779
 10
39.4455
 20
22.7233
 10
39.5303
 20
22.7679
 10
39.6168
 20
22.8117
 10
39.7049
 20
22.8545
 10
39.7947
 20
22.8965
 10
39.8861
 20
22.9376
 10
39.9792
 20
22.9779
 10
40.074
 20
23.0173
 10
40.1705
 20
23.0558
 10
40.2686
 20
23.0934
 10
40.3684
 20
23.1301
 10
40.4698
 20
23.166
 10
40.5729
 20
23.201
 10
40.6776
 20
23.2352
 10
40.7841
 20
23.2685
 10
40.8921
 20
23.3009
 10
41.0019
 20
23.3324
 10
41.1133
 20
23.363
 10
41.2264
 20
23.3928
 10
41.3411
 20
23.4217
 10
41.4575
 20
23.4498
 10
41.5756
 20
23.477
 10
41.6953
 20
23.5033
 10
41.8167
 20
23.5287
 10
41.9397
 20
23.5532
 10
42.0644
 20
23.5769
 10
42.1908
 20
23.5998
 10
42.3189
 20
23.6217
 10
42.4486
 20
23.6428
 10
42.5799
 20
23.663
 10
42.713
 20
23.6823
 10
42.8476
 20
23.7008
 10
42.984
 20
23.7183
 10
43.122
 20
23.7351
 10
43.2617
 20
23.7509
 10
43.403
 20
23.7659
 10
43.546
 20
23.78
 10
43.6907
 20
23.7932
 10
43.837
 20
23.8056
 10
43.985
 20
23.817
 10
44.1347
 20
23.8277
 10
44.286
 20
23.8374
 10
44.439
 20
23.8463
 10
44.5936
 20
23.8543
 10
44.7499
 20
23.8614
 10
44.9079
 20
23.8677
 10
45.0675
 20
23.873
 10
45.2288
 20
23.8776
 10
45.3918
 20
23.8812
 10
45.5564
 20
23.884
 10
45.7227
 20
23.8859
 10
45.8907
 20
23.8869
 10
46.0474
 20
23.8871
 10
46.1772
 20
23.8866
 10
46.3068
 20
23.8857
 10
46.4363
 20
23.8842
 10
46.5656
 20
23.8822
 10
46.6947
 20
23.8797
 10
46.8237
 20
23.8766
 10
46.9526
 20
23.873
 10
47.0812
 20
23.8689
 10
47.2097
 20
23.8643
 10
47.3381
 20
23.8591
 10
47.4663
 20
23.8534
 10
47.5943
 20
23.8472
 10
47.7222
 20
23.8405
 10
47.8499
 20
23.8332
 10
47.9775
 20
23.8255
 10
48.1049
 20
23.8171
 10
48.2315
 20
23.8084
 10
48.3543
 20
23.7994
 10
48.4776
 20
23.79
 10
48.6016
 20
23.78
 10
48.7262
 20
23.7696
 10
48.8515
 20
23.7587
 10
48.9773
 20
23.7473
 10
49.1039
 20
23.7355
 10
49.231
 20
23.7231
 10
49.3588
 20
23.7102
 10
49.4872
 20
23.6969
 10
49.6162
 20
23.6831
 10
49.7459
 20
23.6687
 10
49.8762
 20
23.6539
 10
50.0072
 20
23.6386
 10
50.1388
 20
23.6228
 10
50.271
 20
23.6066
 10
50.4038
 20
23.5898
 10
50.5006
 20
23.5453
 10
50.4857
 20
23.4175
 10
50.4709
 20
23.2897
 10
50.4561
 20
23.1619
 10
50.4412
 20
23.0341
 10
50.4264
 20
22.9063
 10
50.4115
 20
22.7785
 10
50.3967
 20
22.6507
 10
50.3818
 20
22.5229
 10
50.367
 20
22.3951
 10
50.3522
 20
22.2673
 10
50.3373
 20
22.1395
 10
50.3225
 20
22.0117
 10
50.3076
 20
21.8839
 10
50.2928
 20
21.7561
 10
50.2779
 20
21.6283
 10
50.2631
 20
21.5005
 10
50.2482
 20
21.3727
 10
50.2334
 20
21.2449
 10
50.2186
 20
21.1171
 10
50.2037
 20
20.9893
 10
50.1889
 20
20.8615
 10
50.174
 20
20.7337
 10
50.1592
 20
20.6059
 10
50.1443
 20
20.4781
 10
50.1295
 20
20.3503
 10
50.1147
 20
20.2225
 10
50.0919
 20
20.1032
 10
49.9466
 20
20.1164
 10
49.8032
 20
20.1292
 10
49.6619
 20
20.1415
 10
49.5224
 20
20.1534
 10
49.385
 20
20.1648
 10
49.2495
 20
20.1757
 10
49.1159
 20
20.1862
 10
48.9844
 20
20.1962
 10
48.8548
 20
20.2058
 10
48.7271
 20
20.2148
 10
48.6015
 20
20.2235
 10
48.4777
 20
20.2317
 10
48.356
 20
20.2394
 10
48.2362
 20
20.2466
 10
48.1184
 20
20.2534
 10
48.0025
 20
20.2598
 10
47.8887
 20
20.2657
 10
47.7767
 20
20.2711
 10
47.646
 20
20.277
 10
47.505
 20
20.2831
 10
47.366
 20
20.2887
 10
47.2291
 20
20.2938
 10
47.0943
 20
20.2985
 10
46.9616
 20
20.3027
 10
46.831
 20
20.3064
 10
46.7025
 20
20.3097
 10
46.5761
 20
20.3125
 10
46.4517
 20
20.3149
 10
46.3295
 20
20.3168
 10
46.2093
 20
20.3182
 10
46.0912
 20
20.3191
 10
45.9752
 20
20.3196
 10
45.8333
 20
20.3196
 10
45.6605
 20
20.3188
 10
45.4911
 20
20.3171
 10
45.3249
 20
20.3146
 10
45.1621
 20
20.3113
 10
45.0026
 20
20.3071
 10
44.8464
 20
20.3021
 10
44.6936
 20
20.2962
 10
44.544
 20
20.2895
 10
44.3978
 20
20.282
 10
44.2549
 20
20.2736
 10
44.1153
 20
20.2644
 10
43.979
 20
20.2543
 10
43.8461
 20
20.2434
 10
43.7164
 20
20.2316
 10
43.5901
 20
20.219
 10
43.4671
 20
20.2055
 10
43.3474
 20
20.1913
 10
43.231
 20
20.1761
 10
43.118
 20
20.1601
 10
43.0082
 20
20.1433
 10
42.9018
 20
20.1256
 10
42.7987
 20
20.1071
 10
42.6989
 20
20.0878
 10
42.6024
 20
20.0676
 10
42.5093
 20
20.0466
 10
42.4194
 20
20.0247
 10
42.3329
 20
20.0019
 10
42.2497
 20
19.9784
 10
42.1382
 20
19.9438
 10
41.9794
 20
19.8876
 10
41.833
 20
19.8266
 10
41.6991
 20
19.761
 10
41.5775
 20
19.6907
 10
41.4684
 20
19.6157
 10
41.3717
 20
19.5361
 10
41.2874
 20
19.4518
 10
41.2156
 20
19.3629
 10
41.1561
 20
19.2692
 10
41.1091
 20
19.1709
 10
41.0746
 20
19.0679
 10
41.0524
 20
18.9603
 10
41.0427
 20
18.848
 10
41.0459
 20
18.7081
 10
41.0635
 20
18.5687
 10
41.0957
 20
18.4412
 10
41.1425
 20
18.3255
 10
41.2037
 20
18.2217
 10
41.2795
 20
18.1298
 10
41.3698
 20
18.0498
 10
41.4529
 20
17.9922
 10
41.5422
 20
17.9386
 10
41.6409
 20
17.8866
 10
41.749
 20
17.8362
 10
41.8664
 20
17.7873
 10
41.9932
 20
17.74
 10
42.1294
 20
17.6943
 10
42.2749
 20
17.6501
 10
42.4299
 20
17.6075
 10
42.556
 20
17.5736
 10
42.6802
 20
17.5401
 10
42.8044
 20
17.5066
 10
42.9287
 20
17.4731
 10
43.0529
 20
17.4396
 10
43.1771
 20
17.4061
 10
43.3013
 20
17.3727
 10
43.4256
 20
17.3392
 10
43.5498
 20
17.3057
 10
43.674
 20
17.2722
 10
43.7982
 20
17.2387
 10
43.9224
 20
17.2052
 10
44.0467
 20
17.1718
 10
44.1709
 20
17.1383
 10
44.2951
 20
17.1048
 10
44.4193
 20
17.0713
 10
44.5436
 20
17.0378
 10
44.6678
 20
17.0043
 10
44.792
 20
16.9708
 10
44.9162
 20
16.9374
 10
45.0405
 20
16.9039
 10
45.1647
 20
16.8704
 10
45.2889
 20
16.8369
 10
45.4131
 20
16.8034
 10
45.5374
 20
16.7699
 10
45.6616
 20
16.7364
 10
45.7858
 20
16.703
 10
45.91
 20
16.6695
 10
46.0342
 20
16.636
 10
46.1585
 20
16.6025
 10
46.2827
 20
16.569
 10
46.4069
 20
16.5355
 10
46.5599
 20
16.4956
 10
46.7106
 20
16.4546
 10
46.8587
 20
16.4124
 10
47.0041
 20
16.3692
 10
47.1467
 20
16.3249
 10
47.2867
 20
16.2795
 10
47.424
 20
16.233
 10
47.5586
 20
16.1855
 10
47.6905
 20
16.1369
 10
47.8197
 20
16.0872
 10
47.9462
 20
16.0364
 10
48.07
 20
15.9846
 10
48.1911
 20
15.9317
 10
48.3096
 20
15.8776
 10
48.4253
 20
15.8226
 10
48.5383
 20
15.7664
 10
48.6487
 20
15.7092
 10
48.7563
 20
15.6508
 10
48.8613
 20
15.5915
 10
48.9635
 20
15.531
 10
49.0631
 20
15.4694
 10
49.1599
 20
15.4068
 10
49.2541
 20
15.3431
 10
49.3456
 20
15.2783
 10
49.4344
 20
15.2124
 10
49.5204
 20
15.1455
 10
49.6038
 20
15.0775
 10
49.6845
 20
15.0084
 10
49.7625
 20
14.9382
 10
49.8395
 20
14.8653
 10
49.9262
 20
14.778
 10
50.0094
 20
14.6882
 10
50.089
 20
14.5959
 10
50.165
 20
14.5011
 10
50.2374
 20
14.4038
 10
50.3063
 20
14.304
 10
50.3717
 20
14.2017
 10
50.4335
 20
14.097
 10
50.4917
 20
13.9897
 10
50.5463
 20
13.88
 10
50.5974
 20
13.7677
 10
50.6449
 20
13.653
 10
50.6889
 20
13.5358
 10
50.7293
 20
13.416
 10
50.7661
 20
13.2938
 10
50.7993
 20
13.1692
 10
50.829
 20
13.042
 10
50.8552
 20
12.9123
 10
50.8778
 20
12.7801
 10
50.8968
 20
12.6455
 10
50.9122
 20
12.5083
 10
50.9241
 20
12.3687
 10
50.9324
 20
12.2265
 10
50.9372
 20
12.0819
 10
50.9384
 20
11.9349
 10
50.9363
 20
11.7888
 10
50.931
 20
11.6448
 10
50.9226
 20
11.503
 10
50.9109
 20
11.3634
 10
50.8962
 20
11.226
 10
50.8782
 20
11.0907
 10
50.8571
 20
10.9577
 10
50.8328
 20
10.8267
 10
50.8053
 20
10.698
 10
50.7747
 20
10.5714
 10
50.7409
 20
10.4471
 10
50.7039
 20
10.3248
 10
50.6638
 20
10.2048
 10
50.6204
 20
10.0869
 10
50.574
 20
9.9713
 10
50.5243
 20
9.8577
 10
50.4715
 20
9.7464
 10
50.4155
 20
9.6372
 10
50.3563
 20
9.5302
 10
50.294
 20
9.4254
 10
50.2285
 20
9.3228
 10
50.1598
 20
9.2223
 10
50.088
 20
9.124
 10
50.013
 20
9.0279
 10
49.9348
 20
8.934
 10
49.8535
 20
8.8422
 10
49.769
 20
8.7526
 10
49.6813
 20
8.6652
 10
49.5904
 20
8.5799
 10
49.4964
 20
8.4969
 10
49.3992
 20
8.416
 10
49.2988
 20
8.3373
 10
49.1953
 20
8.2607
 10
49.0886
 20
8.1863
 10
48.9787
 20
8.1141
 10
48.8799
 20
8.0527
 10
48.798
 20
8.0041
 10
48.7143
 20
7.9564
 10
48.6289
 20
7.9098
 10
48.5416
 20
7.8641
 10
48.4527
 20
7.8194
 10
48.362
 20
7.7757
 10
48.2695
 20
7.733
 10
48.1752
 20
7.6913
 10
48.0792
 20
7.6505
 10
47.9814
 20
7.6107
 10
47.8819
 20
7.5719
 10
47.7805
 20
7.5341
 10
47.6775
 20
7.4973
 10
47.5726
 20
7.4614
 10
47.466
 20
7.4266
 10
47.3577
 20
7.3927
 10
47.2476
 20
7.3598
 10
47.1357
 20
7.3279
 10
47.022
 20
7.2969
 10
46.9066
 20
7.267
 10
46.7894
 20
7.238
 10
46.6705
 20
7.21
 10
46.5498
 20
7.183
 10
46.4273
 20
7.157
 10
46.3031
 20
7.1319
 10
46.1771
 20
7.1079
 10
46.0493
 20
7.0848
 10
45.9198
 20
7.0627
 10
45.7885
 20
7.0416
 10
45.6555
 20
7.0214
 10
45.5207
 20
7.0023
 10
45.3841
 20
6.9841
 10
45.2458
 20
6.9669
 10
45.1057
 20
6.9507
 10
44.9638
 20
6.9355
 10
44.8202
 20
6.9212
 10
44.6748
 20
6.908
 10
44.5276
 20
6.8957
 10
44.3787
 20
6.8844
 10
44.228
 20
6.8741
 10
44.0756
 20
6.8648
 10
43.9214
 20
6.8564
 10
43.7654
 20
6.8491
 10
43.6077
 20
6.8427
 10
43.4482
 20
6.8373
 10
43.2869
 20
6.8328
 10
43.1239
 20
6.8294
 10
42.9591
 20
6.827
  0
LWPOLYLINE
  5
32
330
17
100
AcDbEntity
  8
OUTLINE
100
AcDbPolyline
 90
192
 70
1
 10
81.428
 20
6.8293
 10
81.123
 20
6.825
 10
80.819
 20
6.8293
 10
80.521
 20
6.8423
 10
80.229
 20
6.8639
 10
79.9431
 20
6.8941
 10
79.6632
 20
6.933
 10
79.3893
 20
6.9806
 10
79.1215
 20
7.0368
 10
78.8597
 20
7.1016
 10
78.6039
 20
7.1751
 10
78.3542
 20
7.2572
 10
78.1105
 20
7.3479
 10
77.8728
 20
7.4473
 10
77.6411
 20
7.5554
 10
77.4155
 20
7.6721
 10
77.196
 20
7.7974
 10
76.9824
 20
7.9314
 10
76.7749
 20
8.074
 10
76.5735
 20
8.2253
 10
76.378
 20
8.3852
 10
76.1886
 20
8.5537
 10
76.0052
 20
8.7309
 10
75.8279
 20
8.9168
 10
75.6611
 20
9.1059
 10
75.5128
 20
9.2873
 10
75.3705
 20
9.4743
 10
75.2343
 20
9.6671
 10
75.1042
 20
9.8657
 10
74.9801
 20
10.0699
 10
74.8621
 20
10.28
 10
74.7501
 20
10.4957
 10
74.6442
 20
10.7172
 10
74.5443
 20
10.9445
 10
74.4505
 20
11.1775
 10
74.3628
 20
11.4162
 10
74.2811
 20
11.6607
 10
74.2055
 20
11.9109
 10
74.1359
 20
12.1669
 10
74.0724
 20
12.4286
 10
74.015
 20
12.696
 10
73.9636
 20
12.9692
 10
73.9182
 20
13.2482
 10
73.879
 20
13.5328
 10
73.8457
 20
13.8232
 10
73.8186
 20
14.1194
 10
73.7975
 20
14.4213
 10
73.7824
 20
14.7289
 10
73.7735
 20
15.0423
 10
73.7705
 20
15.3614
 10
73.7736
 20
15.6812
 10
73.7828
 20
15.9951
 10
73.798
 20
16.3033
 10
73.8193
 20
16.6056
 10
73.8466
 20
16.9022
 10
73.8799
 20
17.1929
 10
73.9193
 20
17.4778
 10
73.9647
 20
17.757
 10
74.0162
 20
18.0303
 10
74.0737
 20
18.2978
 10
74.1373
 20
18.5596
 10
74.2069
 20
18.8155
 10
74.2825
 20
19.0656
 10
74.3642
 20
19.31
 10
74.4519
 20
19.5485
 10
74.5457
 20
19.7812
 10
74.6455
 20
20.0081
 10
74.7514
 20
20.2293
 10
74.8633
 20
20.4446
 10
74.9812
 20
20.6541
 10
75.1052
 20
20.8578
 10
75.2352
 20
21.0557
 10
75.3713
 20
21.2479
 10
75.5134
 20
21.4342
 10
75.6616
 20
21.6147
 10
75.8285
 20
21.8032
 10
76.0059
 20
21.9885
 10
76.1895
 20
22.1652
 10
76.379
 20
22.3332
 10
76.5746
 20
22.4926
 10
76.7763
 20
22.6434
 10
76.9839
 20
22.7856
 10
77.1977
 20
22.9191
 10
77.4174
 20
23.044
 10
77.6432
 20
23.1603
 10
77.8751
 20
23.2679
 10
78.113
 20
23.367
 10
78.3569
 20
23.4574
 10
78.6069
 20
23.5392
 10
78.8629
 20
23.6123
 10
79.1249
 20
23.6769
 10
79.393
 20
23.7328
 10
79.6672
 20
23.78
 10
79.9473
 20
23.8187
 10
80.2336
 20
23.8487
 10
80.5258
 20
23.8701
 10
80.8241
 20
23.8829
 10
81.1285
 20
23.8871
 10
81.4335
 20
23.8826
 10
81.7324
 20
23.8696
 10
82.0252
 20
23.8479
 10
82.3119
 20
23.8177
 10
82.5925
 20
23.7788
 10
82.8669
 20
23.7313
 10
83.1353
 20
23.6753
 10
83.3975
 20
23.6106
 10
83.6536
 20
23.5373
 10
83.9036
 20
23.4555
 10
84.1475
 20
23.365
 10
84.3853
 20
23.2659
 10
84.6169
 20
23.1582
 10
84.8425
 20
23.042
 10
85.0619
 20
22.9171
 10
85.2752
 20
22.7836
 10
85.4824
 20
22.6415
 10
85.6835
 20
22.4908
 10
85.8784
 20
22.3315
 10
86.0673
 20
22.1636
 10
86.25
 20
21.9871
 10
86.4266
 20
21.802
 10
86.5926
 20
21.6137
 10
86.7402
 20
21.4331
 10
86.8818
 20
21.2466
 10
87.0173
 20
21.0544
 10
87.1468
 20
20.8563
 10
87.2703
 20
20.6525
 10
87.3878
 20
20.4428
 10
87.4993
 20
20.2273
 10
87.6047
 20
20.006
 10
87.7041
 20
19.7789
 10
87.7975
 20
19.546
 10
87.8848
 20
19.3073
 10
87.9661
 20
19.0628
 10
88.0414
 20
18.8125
 10
88.1107
 20
18.5564
 10
88.174
 20
18.2944
 10
88.2312
 20
18.0267
 10
88.2824
 20
17.7532
 10
88.3276
 20
17.4738
 10
88.3667
 20
17.1886
 10
88.3999
 20
16.8977
 10
88.427
 20
16.6009
 10
88.448
 20
16.2983
 10
88.4631
 20
15.9899
 10
88.4721
 20
15.6757
 10
88.4751
 20
15.3557
 10
88.4721
 20
15.0365
 10
88.463
 20
14.7231
 10
88.4479
 20
14.4154
 10
88.4268
 20
14.1135
 10
88.3996
 20
13.8173
 10
88.3664
 20
13.5269
 10
88.3271
 20
13.2422
 10
88.2818
 20
12.9633
 10
88.2305
 20
12.6901
 10
88.1731
 20
12.4226
 10
88.1097
 20
12.1609
 10
88.0402
 20
11.905
 10
87.9647
 20
11.6548
 10
87.8832
 20
11.4103
 10
87.7956
 20
11.1716
 10
87.702
 20
10.9386
 10
87.6024
 20
10.7114
 10
87.4967
 20
10.49
 10
87.3849
 20
10.2742
 10
87.2672
 20
10.0643
 10
87.1433
 20
9.86
 10
87.0135
 20
9.6616
 10
86.8776
 20
9.4688
 10
86.7357
 20
9.2818
 10
86.5877
 20
9.1006
 10
86.421
 20
8.9113
 10
86.2443
 20
8.7259
 10
86.0615
 20
8.5492
 10
85.8726
 20
8.3811
 10
85.6776
 20
8.2216
 10
85.4765
 20
8.0707
 10
85.2692
 20
7.9285
 10
85.0559
 20
7.7949
 10
84.8365
 20
7.6698
 10
84.6109
 20
7.5535
 10
84.3792
 20
7.4457
 10
84.1415
 20
7.3466
 10
83.8976
 20
7.256
 10
83.6476
 20
7.1741
 10
83.3915
 20
7.1009
 10
83.1293
 20
7.0362
 10
82.861
 20
6.9802
 10
82.5866
 20
6.9328
 10
82.3061
 20
6.894
 10
82.0195
 20
6.8638
 10
81.7268
 20
6.8422
  0
LWPOLYLINE
  5
33
330
17
100
AcDbEntity
  8
OUTLINE
100
AcDbPolyline
 90
192
 70
1
 10
80.9689
 20
10.3954
 10
81.123
 20
10.3924
 10
81.2781
 20
10.3954
 10
81.4298
 20
10.4042
 10
81.5779
 20
10.4189
 10
81.7227
 20
10.4396
 10
81.8639
 20
10.4661
 10
82.0018
 20
10.4985
 10
82.1361
 20
10.5368
 10
82.267
 20
10.581
 10
82.3944
 20
10.6311
 10
82.5184
 20
10.6871
 10
82.639
 20
10.749
 10
82.756
 20
10.8168
 10
82.8696
 20
10.8904
 10
82.9798
 20
10.97
 10
83.0865
 20
11.0555
 10
83.1897
 20
11.1468
 10
83.2895
 20
11.2441
 10
83.3858
 20
11.3472
 10
83.4786
 20
11.4563
 10
83.568
 20
11.5712
 10
83.6533
 20
11.6911
 10
83.7174
 20
11.7884
 10
83.7791
 20
11.8887
 10
83.8384
 20
11.9919
 10
83.8952
 20
12.098
 10
83.9496
 20
12.2071
 10
84.0017
 20
12.3192
 10
84.0512
 20
12.4342
 10
84.0984
 20
12.5521
 10
84.1432
 20
12.673
 10
84.1855
 20
12.7969
 10
84.2255
 20
12.9237
 10
84.263
 20
13.0534
 10
84.298
 20
13.1861
 10
84.3307
 20
13.3217
 10
84.361
 20
13.4603
 10
84.3888
 20
13.6018
 10
84.4142
 20
13.7463
 10
84.4372
 20
13.8937
 10
84.4578
 20
14.0441
 10
84.476
 20
14.1974
 10
84.4918
 20
14.3537
 10
84.5051
 20
14.5129
 10
84.516
 20
14.675
 10
84.5245
 20
14.8401
 10
84.5306
 20
15.0082
 10
84.5343
 20
15.1791
 10
84.5355
 20
15.3531
 10
84.5343
 20
15.5278
 10
84.5307
 20
15.6994
 10
84.5247
 20
15.8681
 10
84.5163
 20
16.0338
 10
84.5054
 20
16.1965
 10
84.4921
 20
16.3563
 10
84.4764
 20
16.513
 10
84.4583
 20
16.6667
 10
84.4377
 20
16.8174
 10
84.4147
 20
16.9652
 10
84.3893
 20
17.1099
 10
84.3615
 20
17.2516
 10
84.3312
 20
17.3904
 10
84.2985
 20
17.5261
 10
84.2634
 20
17.6589
 10
84.2259
 20
17.7887
 10
84.1859
 20
17.9154
 10
84.1435
 20
18.0392
 10
84.0987
 20
18.16
 10
84.0515
 20
18.2778
 10
84.0019
 20
18.3926
 10
83.9498
 20
18.5044
 10
83.8953
 20
18.6132
 10
83.8384
 20
18.719
 10
83.779
 20
18.8218
 10
83.7172
 20
18.9217
 10
83.653
 20
19.0185
 10
83.5692
 20
19.1356
 10
83.4791
 20
19.251
 10
83.3857
 20
19.3604
 10
83.2888
 20
19.4639
 10
83.1886
 20
19.5615
 10
83.0851
 20
19.6532
 10
82.9781
 20
19.739
 10
82.8678
 20
19.8189
 10
82.7541
 20
19.8929
 10
82.637
 20
19.9609
 10
82.5165
 20
20.0231
 10
82.3927
 20
20.0793
 10
82.2654
 20
20.1297
 10
82.1348
 20
20.1741
 10
82.0009
 20
20.2126
 10
81.8635
 20
20.2452
 10
81.7228
 20
20.2719
 10
81.5786
 20
20.2927
 10
81.4311
 20
20.3076
 10
81.2803
 20
20.3166
 10
81.126
 20
20.3197
 10
80.9716
 20
20.3168
 10
80.8206
 20
20.3081
 10
80.6729
 20
20.2934
 10
80.5287
 20
20.2729
 10
80.3878
 20
20.2464
 10
80.2503
 20
20.214
 10
80.1161
 20
20.1757
 10
79.9854
 20
20.1315
 10
79.858
 20
20.0814
 10
79.7341
 20
20.0254
 10
79.6135
 20
19.9635
 10
79.4963
 20
19.8956
 10
79.3824
 20
19.8219
 10
79.272
 20
19.7422
 10
79.1649
 20
19.6567
 10
79.0612
 20
19.5652
 10
78.9609
 20
19.4678
 10
78.864
 20
19.3645
 10
78.7704
 20
19.2553
 10
78.6803
 20
19.1402
 10
78.5955
 20
19.0222
 10
78.5312
 20
18.9255
 10
78.4694
 20
18.8258
 10
78.4099
 20
18.7231
 10
78.3529
 20
18.6174
 10
78.2983
 20
18.5087
 10
78.2462
 20
18.397
 10
78.1964
 20
18.2823
 10
78.1491
 20
18.1647
 10
78.1042
 20
18.044
 10
78.0617
 20
17.9203
 10
78.0217
 20
17.7937
 10
77.984
 20
17.664
 10
77.9488
 20
17.5314
 10
77.916
 20
17.3957
 10
77.8857
 20
17.2571
 10
77.8578
 20
17.1155
 10
77.8323
 20
16.9708
 10
77.8092
 20
16.8232
 10
77.7885
 20
16.6726
 10
77.7703
 20
16.519
 10
77.7545
 20
16.3624
 10
77.7411
 20
16.2028
 10
77.7301
 20
16.0402
 10
77.7216
 20
15.8746
 10
77.7155
 20
15.7061
 10
77.7118
 20
15.5345
 10
77.7105
 20
15.3599
 10
77.7117
 20
15.186
 10
77.7153
 20
15.015
 10
77.7213
 20
14.8469
 10
77.7298
 20
14.6818
 10
77.7407
 20
14.5197
 10
77.754
 20
14.3604
 10
77.7698
 20
14.2042
 10
77.788
 20
14.0508
 10
77.8086
 20
13.9004
 10
77.8317
 20
13.753
 10
77.8572
 20
13.6085
 10
77.8851
 20
13.4669
 10
77.9155
 20
13.3283
 10
77.9483
 20
13.1926
 10
77.9836
 20
13.0599
 10
78.0213
 20
12.9301
 10
78.0614
 20
12.8032
 10
78.1039
 20
12.6793
 10
78.1489
 20
12.5583
 10
78.1963
 20
12.4403
 10
78.2462
 20
12.3252
 10
78.2984
 20
12.2131
 10
78.3532
 20
12.1039
 10
78.4103
 20
11.9976
 10
78.4699
 20
11.8943
 10
78.5319
 20
11.794
 10
78.5964
 20
11.6965
 10
78.6813
 20
11.5776
 10
78.7714
 20
11.4621
 10
78.8648
 20
11.3524
 10
78.9616
 20
11.2487
 10
79.0618
 20
11.151
 10
79.1653
 20
11.0591
 10
79.2722
 20
10.9732
 10
79.3825
 20
10.8932
 10
79.4962
 20
10.8191
 10
79.6132
 20
10.7509
 10
79.7336
 20
10.6887
 10
79.8574
 20
10.6324
 10
79.9845
 20
10.582
 10
80.115
 20
10.5376
 10
80.2489
 20
10.4991
 10
80.3862
 20
10.4665
 10
80.5268
 20
10.4398
 10
80.6708
 20
10.4191
 10
80.8182
 20
10.4043
  0
LWPOLYLINE
  5
34
330
17
100
AcDbEntity
  8
OUTLINE
100
AcDbPolyline
 90
303
 70
1
 10
65.5034
 20
23.0553
 10
65.5034
 20
22.7945
 10
65.5034
 20
22.6462
 10
65.5034
 20
22.5337
 10
65.5034
 20
22.2729
 10
65.5034
 20
22.2435
 10
65.5034
 20
22.0122
 10
65.5034
 20
21.8409
 10
65.5034
 20
21.7514
 10
65.5034
 20
21.4906
 10
65.5034
 20
21.4383
 10
65.5034
 20
21.2298
 10
65.5034
 20
21.0356
 10
65.5034
 20
20.969
 10
65.5034
 20
20.7082
 10
65.5034
 20
20.633
 10
65.5034
 20
20.4474
 10
65.5034
 20
20.2304
 10
65.5034
 20
20.1867
 10
65.5034
 20
19.8277
 10
65.5034
 20
19.4251
 10
65.5034
 20
19.0224
 10
65.5034
 20
18.6198
 10
65.5034
 20
18.2172
 10
65.5034
 20
17.8145
 10
65.5034
 20
17.4119
 10
65.5034
 20
17.0092
 10
65.5034
 20
16.6066
 10
65.5034
 20
16.204
 10
65.5034
 20
15.8013
 10
65.5034
 20
15.3987
 10
65.5034
 20
14.9961
 10
65.5034
 20
14.5934
 10
65.5034
 20
14.1908
 10
65.5034
 20
13.7881
 10
65.5034
 20
13.3855
 10
65.5034
 20
12.9829
 10
65.5034
 20
12.5802
 10
65.5034
 20
12.1776
 10
65.5034
 20
11.7749
 10
65.5034
 20
11.3723
 10
65.5034
 20
10.9697
 10
65.5034
 20
10.6097
 10
65.5392
 20
10.6097
 10
65.7212
 20
10.6097
 10
65.9031
 20
10.6097
 10
66.085
 20
10.6097
 10
66.267
 20
10.6097
 10
66.4489
 20
10.6097
 10
66.6308
 20
10.6097
 10
66.8128
 20
10.6097
 10
66.9947
 20
10.6097
 10
67.1766
 20
10.6097
 10
67.3585
 20
10.6097
 10
67.5405
 20
10.6097
 10
67.7224
 20
10.6097
 10
67.9043
 20
10.6097
 10
68.0863
 20
10.6097
 10
68.2682
 20
10.6097
 10
68.4501
 20
10.6097
 10
68.6321
 20
10.6097
 10
68.814
 20
10.6097
 10
68.9959
 20
10.6097
 10
69.1778
 20
10.6097
 10
69.3598
 20
10.6097
 10
69.5417
 20
10.6097
 10
69.7236
 20
10.6097
 10
69.9056
 20
10.6097
 10
70.0875
 20
10.6097
 10
70.2694
 20
10.6097
 10
70.4514
 20
10.6097
 10
70.4514
 20
10.4278
 10
70.4514
 20
10.2458
 10
70.4514
 20
10.0639
 10
70.4514
 20
9.882
 10
70.4514
 20
9.7
 10
70.4514
 20
9.5181
 10
70.4514
 20
9.3362
 10
70.4514
 20
9.1542
 10
70.4514
 20
8.9723
 10
70.4514
 20
8.7904
 10
70.4514
 20
8.6085
 10
70.4514
 20
8.4265
 10
70.4514
 20
8.2446
 10
70.4514
 20
8.0627
 10
70.4514
 20
7.8807
 10
70.4514
 20
7.6988
 10
70.4514
 20
7.5169
 10
70.4514
 20
7.3349
 10
70.4514
 20
7.153
 10
70.2872
 20
7.1352
 10
70.1053
 20
7.1352
 10
69.9234
 20
7.1352
 10
69.7414
 20
7.1352
 10
69.5595
 20
7.1352
 10
69.3776
 20
7.1352
 10
69.1956
 20
7.1352
 10
69.0137
 20
7.1352
 10
68.8318
 20
7.1352
 10
68.6499
 20
7.1352
 10
68.4679
 20
7.1352
 10
68.286
 20
7.1352
 10
68.1041
 20
7.1352
 10
67.9221
 20
7.1352
 10
67.7402
 20
7.1352
 10
67.5583
 20
7.1352
 10
67.3763
 20
7.1352
 10
67.1944
 20
7.1352
 10
67.0125
 20
7.1352
 10
66.8306
 20
7.1352
 10
66.6486
 20
7.1352
 10
66.4667
 20
7.1352
 10
66.2848
 20
7.1352
 10
66.1028
 20
7.1352
 10
65.9209
 20
7.1352
 10
65.739
 20
7.1352
 10
65.557
 20
7.1352
 10
65.3751
 20
7.1352
 10
65.3115
 20
7.1352
 10
65.1932
 20
7.1352
 10
64.9088
 20
7.1352
 10
64.5062
 20
7.1352
 10
64.1036
 20
7.1352
 10
63.7009
 20
7.1352
 10
63.2983
 20
7.1352
 10
62.8956
 20
7.1352
 10
62.493
 20
7.1352
 10
62.0904
 20
7.1352
 10
61.951
 20
7.1352
 10
61.7438
 20
7.1352
 10
61.6877
 20
7.1352
 10
61.5367
 20
7.1352
 10
61.3295
 20
7.1352
 10
61.1224
 20
7.1352
 10
60.9152
 20
7.1352
 10
60.7081
 20
7.1352
 10
60.501
 20
7.1352
 10
60.2938
 20
7.1352
 10
60.0867
 20
7.1352
 10
59.8795
 20
7.1352
 10
59.6724
 20
7.1352
 10
59.4652
 20
7.1352
 10
59.2581
 20
7.1352
 10
59.0509
 20
7.1352
 10
58.8438
 20
7.1352
 10
58.6367
 20
7.1352
 10
58.4295
 20
7.1352
 10
58.2224
 20
7.1352
 10
58.0152
 20
7.1352
 10
57.8081
 20
7.1352
 10
57.6009
 20
7.1352
 10
57.3938
 20
7.1352
 10
57.1866
 20
7.1352
 10
56.9795
 20
7.1352
 10
56.7724
 20
7.1352
 10
56.5652
 20
7.1352
 10
56.3581
 20
7.1352
 10
56.1509
 20
7.1352
 10
55.9438
 20
7.1352
 10
55.7366
 20
7.1352
 10
55.5295
 20
7.1352
 10
55.5295
 20
7.3424
 10
55.5295
 20
7.5495
 10
55.5295
 20
7.7567
 10
55.5295
 20
7.9638
 10
55.5295
 20
8.1709
 10
55.5295
 20
8.3781
 10
55.5295
 20
8.5852
 10
55.5295
 20
8.7924
 10
55.5295
 20
8.9995
 10
55.5295
 20
9.2067
 10
55.5295
 20
9.4138
 10
55.5295
 20
9.621
 10
55.5295
 20
9.8281
 10
55.5295
 20
10.0352
 10
55.5295
 20
10.2424
 10
55.5295
 20
10.4495
 10
55.5765
 20
10.6097
 10
55.7836
 20
10.6097
 10
55.9908
 20
10.6097
 10
56.1979
 20
10.6097
 10
56.4051
 20
10.6097
 10
56.6122
 20
10.6097
 10
56.8193
 20
10.6097
 10
57.0265
 20
10.6097
 10
57.2336
 20
10.6097
 10
57.4408
 20
10.6097
 10
57.6479
 20
10.6097
 10
57.8551
 20
10.6097
 10
58.0622
 20
10.6097
 10
58.2694
 20
10.6097
 10
58.4765
 20
10.6097
 10
58.6836
 20
10.6097
 10
58.8908
 20
10.6097
 10
59.0979
 20
10.6097
 10
59.3051
 20
10.6097
 10
59.5122
 20
10.6097
 10
59.7194
 20
10.6097
 10
59.9265
 20
10.6097
 10
60.1337
 20
10.6097
 10
60.3408
 20
10.6097
 10
60.5479
 20
10.6097
 10
60.7551
 20
10.6097
 10
60.9622
 20
10.6097
 10
61.1694
 20
10.6097
 10
61.3765
 20
10.6097
 10
61.5837
 20
10.6097
 10
61.6877
 20
10.6097
 10
61.6877
 20
10.759
 10
61.6877
 20
11.1616
 10
61.6877
 20
11.5642
 10
61.6877
 20
11.9669
 10
61.6877
 20
12.3695
 10
61.6877
 20
12.7722
 10
61.6877
 20
13.1748
 10
61.6877
 20
13.5774
 10
61.6877
 20
13.9801
 10
61.6877
 20
14.3827
 10
61.6877
 20
14.7853
 10
61.6877
 20
15.188
 10
61.6877
 20
15.5906
 10
61.6877
 20
15.9933
 10
61.6877
 20
16.3959
 10
61.6877
 20
16.7985
 10
61.6877
 20
17.2012
 10
61.6877
 20
17.6038
 10
61.6877
 20
18.0065
 10
61.6877
 20
18.4091
 10
61.6877
 20
18.8117
 10
61.6877
 20
19.2144
 10
61.6877
 20
19.617
 10
61.6877
 20
20.0196
 10
61.6877
 20
20.1024
 10
61.6759
 20
20.1024
 10
61.4151
 20
20.1024
 10
61.1543
 20
20.1024
 10
60.8935
 20
20.1024
 10
60.6327
 20
20.1024
 10
60.372
 20
20.1024
 10
60.1112
 20
20.1024
 10
59.8504
 20
20.1024
 10
59.5896
 20
20.1024
 10
59.3288
 20
20.1024
 10
59.068
 20
20.1024
 10
58.8072
 20
20.1024
 10
58.5465
 20
20.1024
 10
58.2857
 20
20.1024
 10
58.0249
 20
20.1024
 10
57.7641
 20
20.1024
 10
57.5033
 20
20.1024
 10
57.2425
 20
20.1024
 10
56.9817
 20
20.1024
 10
56.721
 20
20.1024
 10
56.4602
 20
20.1024
 10
56.4602
 20
20.3632
 10
56.4602
 20
20.624
 10
56.4602
 20
20.8848
 10
56.4602
 20
21.1455
 10
56.4602
 20
21.4063
 10
56.4602
 20
21.6671
 10
56.4602
 20
21.9279
 10
56.4602
 20
22.1887
 10
56.4602
 20
22.4495
 10
56.4602
 20
22.7103
 10
56.4602
 20
22.971
 10
56.4602
 20
23.2318
 10
56.4602
 20
23.4926
 10
56.6367
 20
23.5769
 10
56.8975
 20
23.5769
 10
57.1583
 20
23.5769
 10
57.4191
 20
23.5769
 10
57.6798
 20
23.5769
 10
57.9406
 20
23.5769
 10
58.2014
 20
23.5769
 10
58.4622
 20
23.5769
 10
58.723
 20
23.5769
 10
58.9838
 20
23.5769
 10
59.2446
 20
23.5769
 10
59.5053
 20
23.5769
 10
59.7661
 20
23.5769
 10
60.0269
 20
23.5769
 10
60.2877
 20
23.5769
 10
60.5485
 20
23.5769
 10
60.8093
 20
23.5769
 10
61.0701
 20
23.5769
 10
61.3308
 20
23.5769
 10
61.5916
 20
23.5769
 10
61.8524
 20
23.5769
 10
62.1132
 20
23.5769
 10
62.374
 20
23.5769
 10
62.6348
 20
23.5769
 10
62.8956
 20
23.5769
 10
63.1563
 20
23.5769
 10
63.4171
 20
23.5769
 10
63.6779
 20
23.5769
 10
63.9387
 20
23.5769
 10
64.1995
 20
23.5769
 10
64.4603
 20
23.5769
 10
64.7211
 20
23.5769
 10
64.9818
 20
23.5769
 10
65.2426
 20
23.5769
 10
65.5034
 20
23.5769
 10
65.5034
 20
23.3161
  0
LWPOLYLINE
  5
35
330
17
100
AcDbEntity
  8
OUTLINE
100
AcDbPolyline
 90
245
 70
1
 10
0.3761
 20
29.161
 10
0.5176
 20
29.161
 10
0.7581
 20
29.161
 10
1.0543
 20
29.161
 10
1.14
 20
29.161
 10
1.522
 20
29.161
 10
1.591
 20
29.161
 10
1.9039
 20
29.161
 10
2.1278
 20
29.161
 10
2.2859
 20
29.161
 10
2.6645
 20
29.161
 10
2.6679
 20
29.161
 10
3.0498
 20
29.161
 10
3.2013
 20
29.161
 10
3.4318
 20
29.161
 10
3.8137
 20
29.161
 10
4.1957
 20
29.161
 10
4.5776
 20
29.161
 10
4.9596
 20
29.161
 10
5.3416
 20
29.161
 10
5.7235
 20
29.161
 10
6.1055
 20
29.161
 10
6.4874
 20
29.161
 10
6.8694
 20
29.161
 10
7.2514
 20
29.161
 10
7.6333
 20
29.161
 10
8.0153
 20
29.161
 10
8.3972
 20
29.161
 10
8.7792
 20
29.161
 10
9.1611
 20
29.161
 10
9.5431
 20
29.161
 10
9.9251
 20
29.161
 10
10.307
 20
29.161
 10
10.689
 20
29.161
 10
11.0709
 20
29.161
 10
11.4529
 20
29.161
 10
11.8348
 20
29.161
 10
12.2168
 20
29.161
 10
12.5988
 20
29.161
 10
12.9807
 20
29.161
 10
13.3627
 20
29.161
 10
13.7446
 20
29.161
 10
14.1266
 20
29.161
 10
14.5086
 20
29.161
 10
14.8905
 20
29.161
 10
14.8905
 20
28.779
 10
14.8905
 20
28.397
 10
14.8905
 20
28.0151
 10
14.8905
 20
27.6331
 10
14.8905
 20
27.2512
 10
14.8905
 20
26.8692
 10
14.8905
 20
26.4872
 10
14.8905
 20
26.1053
 10
14.8905
 20
25.7233
 10
14.5144
 20
25.7175
 10
14.1325
 20
25.7175
 10
13.7505
 20
25.7175
 10
13.3685
 20
25.7175
 10
12.9866
 20
25.7175
 10
12.6046
 20
25.7175
 10
12.2227
 20
25.7175
 10
11.8407
 20
25.7175
 10
11.4587
 20
25.7175
 10
11.0768
 20
25.7175
 10
10.6948
 20
25.7175
 10
10.3129
 20
25.7175
 10
9.9309
 20
25.7175
 10
9.549
 20
25.7175
 10
9.167
 20
25.7175
 10
8.785
 20
25.7175
 10
8.4031
 20
25.7175
 10
8.0211
 20
25.7175
 10
7.6392
 20
25.7175
 10
7.2572
 20
25.7175
 10
6.8752
 20
25.7175
 10
6.4933
 20
25.7175
 10
6.1113
 20
25.7175
 10
5.7294
 20
25.7175
 10
5.3474
 20
25.7175
 10
4.9655
 20
25.7175
 10
4.5835
 20
25.7175
 10
4.2015
 20
25.7175
 10
3.8196
 20
25.7175
 10
3.738
 20
25.7175
 10
3.738
 20
25.4037
 10
3.738
 20
24.867
 10
3.738
 20
24.3302
 10
3.738
 20
23.7935
 10
3.738
 20
23.2568
 10
3.738
 20
22.72
 10
3.738
 20
22.1833
 10
3.738
 20
21.6465
 10
3.738
 20
21.1098
 10
3.738
 20
20.573
 10
3.738
 20
20.0363
 10
3.738
 20
19.4995
 10
3.738
 20
18.9701
 10
3.9215
 20
18.9701
 10
4.2424
 20
18.9701
 10
4.5633
 20
18.9701
 10
4.8841
 20
18.9701
 10
5.205
 20
18.9701
 10
5.5259
 20
18.9701
 10
5.8468
 20
18.9701
 10
6.1677
 20
18.9701
 10
6.4886
 20
18.9701
 10
6.8094
 20
18.9701
 10
7.1303
 20
18.9701
 10
7.4512
 20
18.9701
 10
7.7721
 20
18.9701
 10
8.093
 20
18.9701
 10
8.4138
 20
18.9701
 10
8.7347
 20
18.9701
 10
9.0556
 20
18.9701
 10
9.3765
 20
18.9701
 10
9.6974
 20
18.9701
 10
10.0183
 20
18.9701
 10
10.3391
 20
18.9701
 10
10.66
 20
18.9701
 10
10.9809
 20
18.9701
 10
11.3018
 20
18.9701
 10
11.6227
 20
18.9701
 10
11.9435
 20
18.9701
 10
11.9435
 20
18.6492
 10
11.9435
 20
18.3284
 10
11.9435
 20
18.0075
 10
11.9435
 20
17.6866
 10
11.9435
 20
17.3657
 10
11.9435
 20
17.0448
 10
11.9435
 20
16.724
 10
11.9435
 20
16.4031
 10
11.9435
 20
16.0822
 10
11.9435
 20
15.7613
 10
11.8726
 20
15.5113
 10
11.5518
 20
15.5113
 10
11.2309
 20
15.5113
 10
10.91
 20
15.5113
 10
10.5891
 20
15.5113
 10
10.2682
 20
15.5113
 10
9.9473
 20
15.5113
 10
9.6265
 20
15.5113
 10
9.3056
 20
15.5113
 10
8.9847
 20
15.5113
 10
8.6638
 20
15.5113
 10
8.3429
 20
15.5113
 10
8.022
 20
15.5113
 10
7.7012
 20
15.5113
 10
7.3803
 20
15.5113
 10
7.0594
 20
15.5113
 10
6.7385
 20
15.5113
 10
6.4176
 20
15.5113
 10
6.0968
 20
15.5113
 10
5.7759
 20
15.5113
 10
5.455
 20
15.5113
 10
5.1341
 20
15.5113
 10
4.8132
 20
15.5113
 10
4.4923
 20
15.5113
 10
4.1715
 20
15.5113
 10
3.8506
 20
15.5113
 10
3.738
 20
15.5113
 10
3.738
 20
15.2056
 10
3.738
 20
14.6688
 10
3.738
 20
14.1321
 10
3.738
 20
13.5953
 10
3.738
 20
13.0586
 10
3.738
 20
12.5219
 10
3.738
 20
11.9851
 10
3.738
 20
11.4484
 10
3.738
 20
10.9116
 10
3.738
 20
10.3749
 10
3.738
 20
9.8381
 10
3.738
 20
9.3014
 10
3.738
 20
8.7646
 10
3.738
 20
8.2279
 10
3.738
 20
7.6911
 10
3.738
 20
7.1544
 10
3.2205
 20
7.1352
 10
2.6837
 20
7.1352
 10
2.147
 20
7.1352
 10
1.6102
 20
7.1352
 10
1.0735
 20
7.1352
 10
0.5367
 20
7.1352
 10
0.0
 20
7.1352
 10
0.0
 20
7.672
 10
0.0
 20
8.2087
 10
0.0
 20
8.7455
 10
0.0
 20
9.2822
 10
0.0
 20
9.8189
 10
0.0
 20
10.3557
 10
0.0
 20
10.8924
 10
0.0
 20
11.4292
 10
0.0
 20
11.9659
 10
0.0
 20
12.5027
 10
0.0
 20
13.0394
 10
0.0
 20
13.5762
 10
0.0
 20
14.1129
 10
0.0
 20
14.6496
 10
0.0
 20
15.1864
 10
0.0
 20
15.5113
 10
0.0
 20
15.7231
 10
0.0
 20
15.8322
 10
0.0
 20
16.1531
 10
0.0
 20
16.2599
 10
0.0
 20
16.474
 10
0.0
 20
16.7949
 10
0.0
 20
16.7966
 10
0.0
 20
17.1158
 10
0.0
 20
17.3334
 10
0.0
 20
17.4366
 10
0.0
 20
17.7575
 10
0.0
 20
17.8701
 10
0.0
 20
18.0784
 10
0.0
 20
18.3993
 10
0.0
 20
18.4069
 10
0.0
 20
18.7202
 10
0.0
 20
18.9436
 10
0.0
 20
19.4804
 10
0.0
 20
20.0171
 10
0.0
 20
20.5538
 10
0.0
 20
21.0906
 10
0.0
 20
21.6273
 10
0.0
 20
22.1641
 10
0.0
 20
22.7008
 10
0.0
 20
23.2376
 10
0.0
 20
23.7743
 10
0.0
 20
24.3111
 10
0.0
 20
24.8478
 10
0.0
 20
25.3845
 10
0.0
 20
25.7175
 10
0.0
 20
25.9213
 10
0.0
 20
26.0994
 10
0.0
 20
26.458
 10
0.0
 20
26.4814
 10
0.0
 20
26.8633
 10
0.0
 20
26.9948
 10
0.0
 20
27.2453
 10
0.0
 20
27.5315
 10
0.0
 20
27.6273
 10
0.0
 20
28.0092
 10
0.0
 20
28.0683
 10
0.0
 20
28.3912
 10
0.0
 20
28.605
 10
0.0
 20
28.7731
 10
0.0
 20
29.1418
 10
0.0
 20
29.1551
  0
LWPOLYLINE
  5
36
330
17
100
AcDbEntity
  8
OUTLINE
100
AcDbPolyline
 90
192
 70
1
 10
63.6213
 20
25.955
 10
63.5316
 20
25.9513
 10
63.4405
 20
25.95
 10
63.3494
 20
25.9513
 10
63.2596
 20
25.955
 10
63.1712
 20
25.9612
 10
63.0842
 20
25.9699
 10
62.9985
 20
25.981
 10
62.9141
 20
25.9946
 10
62.8311
 20
26.0107
 10
62.7494
 20
26.0293
 10
62.6691
 20
26.0504
 10
62.5901
 20
26.0739
 10
62.5125
 20
26.0999
 10
62.4362
 20
26.1284
 10
62.3613
 20
26.1594
 10
62.2877
 20
26.1928
 10
62.2154
 20
26.2288
 10
62.1445
 20
26.2672
 10
62.0749
 20
26.308
 10
62.0067
 20
26.3514
 10
61.9399
 20
26.3972
 10
61.8743
 20
26.4455
 10
61.8101
 20
26.4963
 10
61.7473
 20
26.5496
 10
61.6858
 20
26.6053
 10
61.6257
 20
26.6636
 10
61.5674
 20
26.7237
 10
61.5117
 20
26.7852
 10
61.4584
 20
26.848
 10
61.4076
 20
26.9121
 10
61.3593
 20
26.9776
 10
61.3135
 20
27.0445
 10
61.2701
 20
27.1127
 10
61.2292
 20
27.1823
 10
61.1908
 20
27.2532
 10
61.1549
 20
27.3254
 10
61.1214
 20
27.399
 10
61.0904
 20
27.4739
 10
61.0619
 20
27.5502
 10
61.0359
 20
27.6278
 10
61.0124
 20
27.7068
 10
60.9913
 20
27.7871
 10
60.9727
 20
27.8688
 10
60.9566
 20
27.9518
 10
60.943
 20
28.0362
 10
60.9318
 20
28.1219
 10
60.9231
 20
28.209
 10
60.9169
 20
28.2974
 10
60.9132
 20
28.3871
 10
60.912
 20
28.4783
 10
60.9132
 20
28.5694
 10
60.9169
 20
28.6591
 10
60.9231
 20
28.7475
 10
60.9318
 20
28.8346
 10
60.9429
 20
28.9203
 10
60.9565
 20
29.0047
 10
60.9726
 20
29.0877
 10
60.9912
 20
29.1694
 10
61.0122
 20
29.2498
 10
61.0358
 20
29.3287
 10
61.0618
 20
29.4064
 10
61.0903
 20
29.4827
 10
61.1212
 20
29.5576
 10
61.1547
 20
29.6312
 10
61.1906
 20
29.7035
 10
61.229
 20
29.7744
 10
61.2698
 20
29.8439
 10
61.3132
 20
29.9121
 10
61.359
 20
29.979
 10
61.4073
 20
30.0445
 10
61.4581
 20
30.1087
 10
61.5114
 20
30.1715
 10
61.5671
 20
30.233
 10
61.6253
 20
30.2931
 10
61.6854
 20
30.3513
 10
61.7469
 20
30.4071
 10
61.8098
 20
30.4603
 10
61.874
 20
30.5111
 10
61.9395
 20
30.5594
 10
62.0064
 20
30.6052
 10
62.0746
 20
30.6486
 10
62.1441
 20
30.6895
 10
62.215
 20
30.7279
 10
62.2873
 20
30.7638
 10
62.3609
 20
30.7972
 10
62.4358
 20
30.8282
 10
62.5121
 20
30.8567
 10
62.5898
 20
30.8827
 10
62.6687
 20
30.9062
 10
62.7491
 20
30.9273
 10
62.8307
 20
30.9459
 10
62.9138
 20
30.962
 10
62.9981
 20
30.9756
 10
63.0838
 20
30.9868
 10
63.1709
 20
30.9955
 10
63.2593
 20
31.0017
 10
63.349
 20
31.0054
 10
63.4401
 20
31.0066
 10
63.5312
 20
31.0054
 10
63.621
 20
31.0017
 10
63.7094
 20
30.9955
 10
63.7965
 20
30.9869
 10
63.8822
 20
30.9757
 10
63.9666
 20
30.9621
 10
64.0496
 20
30.946
 10
64.1313
 20
30.9274
 10
64.2116
 20
30.9064
 10
64.2906
 20
30.8829
 10
64.3682
 20
30.8569
 10
64.4445
 20
30.8284
 10
64.5195
 20
30.7974
 10
64.5931
 20
30.764
 10
64.6653
 20
30.7281
 10
64.7363
 20
30.6897
 10
64.8058
 20
30.6488
 10
64.874
 20
30.6055
 10
64.9409
 20
30.5596
 10
65.0064
 20
30.5113
 10
65.0706
 20
30.4606
 10
65.1334
 20
30.4073
 10
65.1949
 20
30.3516
 10
65.255
 20
30.2934
 10
65.3132
 20
30.2332
 10
65.369
 20
30.1718
 10
65.4222
 20
30.1089
 10
65.473
 20
30.0448
 10
65.5213
 20
29.9793
 10
65.5672
 20
29.9124
 10
65.6105
 20
29.8442
 10
65.6514
 20
29.7746
 10
65.6898
 20
29.7037
 10
65.7257
 20
29.6315
 10
65.7592
 20
29.5579
 10
65.7902
 20
29.483
 10
65.8187
 20
29.4067
 10
65.8447
 20
29.329
 10
65.8682
 20
29.2501
 10
65.8893
 20
29.1697
 10
65.9079
 20
29.0881
 10
65.924
 20
29.005
 10
65.9376
 20
28.9207
 10
65.9487
 20
28.8349
 10
65.9574
 20
28.7479
 10
65.9636
 20
28.6595
 10
65.9673
 20
28.5697
 10
65.9686
 20
28.4786
 10
65.9673
 20
28.3875
 10
65.9636
 20
28.2977
 10
65.9574
 20
28.2093
 10
65.9488
 20
28.1223
 10
65.9376
 20
28.0365
 10
65.924
 20
27.9522
 10
65.9079
 20
27.8691
 10
65.8893
 20
27.7875
 10
65.8682
 20
27.7071
 10
65.8447
 20
27.6281
 10
65.8187
 20
27.5505
 10
65.7902
 20
27.4742
 10
65.7592
 20
27.3993
 10
65.7258
 20
27.3257
 10
65.6899
 20
27.2534
 10
65.6515
 20
27.1825
 10
65.6106
 20
27.113
 10
65.5673
 20
27.0448
 10
65.5214
 20
26.9779
 10
65.4731
 20
26.9124
 10
65.4223
 20
26.8482
 10
65.3691
 20
26.7854
 10
65.3133
 20
26.7239
 10
65.2551
 20
26.6638
 10
65.195
 20
26.6056
 10
65.1335
 20
26.5498
 10
65.0707
 20
26.4965
 10
65.0065
 20
26.4457
 10
64.941
 20
26.3974
 10
64.8742
 20
26.3515
 10
64.806
 20
26.3082
 10
64.7364
 20
26.2673
 10
64.6655
 20
26.2289
 10
64.5933
 20
26.1929
 10
64.5197
 20
26.1595
 10
64.4447
 20
26.1285
 10
64.3685
 20
26.1
 10
64.2908
 20
26.074
 10
64.2119
 20
26.0504
 10
64.1315
 20
26.0294
 10
64.0499
 20
26.0108
 10
63.9668
 20
25.9947
 10
63.8825
 20
25.981
 10
63.7968
 20
25.9699
 10
63.7097
 20
25.9612
  0
LWPOLYLINE
  5
37
330
17
100
AcDbEntity
  8
OUTLINE
100
AcDbPolyline
 90
329
 70
1
 10
133.8938
 20
20.5989
 10
133.8991
 20
20.5989
 10
134.0592
 20
20.5989
 10
134.1676
 20
20.671
 10
134.2017
 20
20.8478
 10
134.2408
 20
21.0198
 10
134.285
 20
21.1869
 10
134.3341
 20
21.3491
 10
134.3882
 20
21.5064
 10
134.4473
 20
21.6588
 10
134.5114
 20
21.8063
 10
134.5805
 20
21.9489
 10
134.6546
 20
22.0866
 10
134.7337
 20
22.2194
 10
134.8177
 20
22.3473
 10
134.9068
 20
22.4703
 10
135.0009
 20
22.5884
 10
135.1
 20
22.7017
 10
135.2041
 20
22.81
 10
135.3132
 20
22.9134
 10
135.4272
 20
23.012
 10
135.54
 20
23.1007
 10
135.653
 20
23.1818
 10
135.7705
 20
23.2584
 10
135.8923
 20
23.3306
 10
136.0186
 20
23.3984
 10
136.1493
 20
23.4619
 10
136.2844
 20
23.5209
 10
136.4238
 20
23.5755
 10
136.5678
 20
23.6257
 10
136.7161
 20
23.6715
 10
136.8688
 20
23.7129
 10
137.0259
 20
23.7498
 10
137.1874
 20
23.7824
 10
137.3534
 20
23.8106
 10
137.5237
 20
23.8343
 10
137.6985
 20
23.8537
 10
137.8777
 20
23.8686
 10
138.0612
 20
23.8792
 10
138.2492
 20
23.8853
 10
138.4403
 20
23.8871
 10
138.6213
 20
23.8848
 10
138.7998
 20
23.8788
 10
138.9759
 20
23.8691
 10
139.1495
 20
23.8557
 10
139.3206
 20
23.8385
 10
139.4893
 20
23.8177
 10
139.6555
 20
23.793
 10
139.8193
 20
23.7647
 10
139.9806
 20
23.7327
 10
140.1394
 20
23.6969
 10
140.2958
 20
23.6574
 10
140.4497
 20
23.6141
 10
140.6011
 20
23.5672
 10
140.7501
 20
23.5165
 10
140.8967
 20
23.4621
 10
141.0407
 20
23.404
 10
141.1823
 20
23.3421
 10
141.3215
 20
23.2765
 10
141.4582
 20
23.2072
 10
141.5924
 20
23.1342
 10
141.7242
 20
23.0575
 10
141.8535
 20
22.977
 10
141.9803
 20
22.8928
 10
142.1047
 20
22.8049
 10
142.2266
 20
22.7132
 10
142.3461
 20
22.6178
 10
142.4631
 20
22.5187
 10
142.5776
 20
22.4159
 10
142.6897
 20
22.3094
 10
142.7993
 20
22.1991
 10
142.9065
 20
22.0851
 10
143.0112
 20
21.9674
 10
143.1134
 20
21.8459
 10
143.2132
 20
21.7208
 10
143.3002
 20
21.6058
 10
143.3783
 20
21.4977
 10
143.4545
 20
21.3874
 10
143.5287
 20
21.2749
 10
143.601
 20
21.1601
 10
143.6715
 20
21.0432
 10
143.74
 20
20.924
 10
143.8066
 20
20.8026
 10
143.8713
 20
20.679
 10
143.9341
 20
20.5532
 10
143.995
 20
20.4252
 10
144.054
 20
20.2949
 10
144.111
 20
20.1624
 10
144.1662
 20
20.0277
 10
144.2194
 20
19.8908
 10
144.2708
 20
19.7517
 10
144.3202
 20
19.6104
 10
144.3677
 20
19.4668
 10
144.4133
 20
19.321
 10
144.457
 20
19.173
 10
144.4988
 20
19.0228
 10
144.5387
 20
18.8704
 10
144.5767
 20
18.7158
 10
144.6127
 20
18.5589
 10
144.6469
 20
18.3998
 10
144.6792
 20
18.2385
 10
144.7095
 20
18.075
 10
144.7379
 20
17.9093
 10
144.7645
 20
17.7414
 10
144.7891
 20
17.5712
 10
144.8118
 20
17.3988
 10
144.8326
 20
17.2242
 10
144.8514
 20
17.0474
 10
144.8684
 20
16.8684
 10
144.8835
 20
16.6872
 10
144.8967
 20
16.5037
 10
144.9079
 20
16.318
 10
144.9172
 20
16.1301
 10
144.9247
 20
15.94
 10
144.9302
 20
15.7477
 10
144.9338
 20
15.5531
 10
144.9355
 20
15.3564
 10
144.9353
 20
15.1582
 10
144.9331
 20
14.9619
 10
144.929
 20
14.7678
 10
144.9229
 20
14.576
 10
144.9148
 20
14.3865
 10
144.9047
 20
14.1993
 10
144.8927
 20
14.0143
 10
144.8787
 20
13.8316
 10
144.8627
 20
13.6512
 10
144.8448
 20
13.473
 10
144.8249
 20
13.2971
 10
144.803
 20
13.1234
 10
144.7792
 20
12.9521
 10
144.7534
 20
12.783
 10
144.7256
 20
12.6162
 10
144.6959
 20
12.4516
 10
144.6642
 20
12.2893
 10
144.6305
 20
12.1293
 10
144.5948
 20
11.9715
 10
144.5572
 20
11.816
 10
144.5176
 20
11.6628
 10
144.476
 20
11.5119
 10
144.4325
 20
11.3632
 10
144.387
 20
11.2168
 10
144.3396
 20
11.0726
 10
144.2901
 20
10.9307
 10
144.2387
 20
10.7911
 10
144.1853
 20
10.6538
 10
144.13
 20
10.5187
 10
144.0727
 20
10.3859
 10
144.0134
 20
10.2553
 10
143.9522
 20
10.1271
 10
143.8889
 20
10.0011
 10
143.8237
 20
9.8773
 10
143.7566
 20
9.7559
 10
143.6875
 20
9.6367
 10
143.6164
 20
9.5198
 10
143.5433
 20
9.4051
 10
143.4683
 20
9.2927
 10
143.3913
 20
9.1826
 10
143.3123
 20
9.0747
 10
143.2269
 20
8.9635
 10
143.1268
 20
8.8395
 10
143.0242
 20
8.7193
 10
142.9191
 20
8.6028
 10
142.8115
 20
8.4899
 10
142.7015
 20
8.3808
 10
142.589
 20
8.2753
 10
142.474
 20
8.1736
 10
142.3566
 20
8.0755
 10
142.2367
 20
7.9812
 10
142.1143
 20
7.8905
 10
141.9895
 20
7.8036
 10
141.8622
 20
7.7203
 10
141.7324
 20
7.6408
 10
141.6001
 20
7.565
 10
141.4654
 20
7.4928
 10
141.3282
 20
7.4244
 10
141.1885
 20
7.3596
 10
141.0464
 20
7.2986
 10
140.9018
 20
7.2412
 10
140.7547
 20
7.1876
 10
140.6052
 20
7.1376
 10
140.4531
 20
7.0914
 10
140.2986
 20
7.0488
 10
140.1417
 20
7.01
 10
139.9823
 20
6.9748
 10
139.8204
 20
6.9434
 10
139.656
 20
6.9156
 10
139.4891
 20
6.8916
 10
139.3198
 20
6.8712
 10
139.148
 20
6.8546
 10
138.9738
 20
6.8416
 10
138.7971
 20
6.8324
 10
138.6179
 20
6.8268
 10
138.4362
 20
6.825
 10
138.2505
 20
6.8273
 10
138.0687
 20
6.8343
 10
137.8907
 20
6.8458
 10
137.7166
 20
6.8621
 10
137.5463
 20
6.8829
 10
137.3799
 20
6.9084
 10
137.2174
 20
6.9385
 10
137.0587
 20
6.9733
 10
136.9039
 20
7.0127
 10
136.753
 20
7.0567
 10
136.6059
 20
7.1054
 10
136.4627
 20
7.1587
 10
136.3234
 20
7.2166
 10
136.1879
 20
7.2792
 10
136.0562
 20
7.3464
 10
135.9285
 20
7.4183
 10
135.8046
 20
7.4947
 10
135.6845
 20
7.5758
 10
135.5684
 20
7.6616
 10
135.4491
 20
7.758
 10
135.3353
 20
7.8593
 10
135.2269
 20
7.9656
 10
135.124
 20
8.0767
 10
135.0266
 20
8.1927
 10
134.9347
 20
8.3137
 10
134.8483
 20
8.4395
 10
134.7674
 20
8.5702
 10
134.6919
 20
8.7059
 10
134.6219
 20
8.8464
 10
134.5575
 20
8.9918
 10
134.4984
 20
9.1421
 10
134.4449
 20
9.2973
 10
134.3969
 20
9.4574
 10
134.3543
 20
9.6224
 10
134.3173
 20
9.7923
 10
134.2857
 20
9.9671
 10
134.2344
 20
10.1132
 10
134.0743
 20
10.1132
 10
133.9381
 20
10.1132
 10
133.9381
 20
9.7987
 10
133.9381
 20
9.3443
 10
133.9381
 20
8.89
 10
133.9381
 20
8.4357
 10
133.9381
 20
7.9813
 10
133.9381
 20
7.527
 10
133.9381
 20
7.0727
 10
133.9381
 20
6.6183
 10
133.9381
 20
6.164
 10
133.9381
 20
5.7097
 10
133.9381
 20
5.2553
 10
133.9381
 20
4.801
 10
133.9381
 20
4.3466
 10
133.9381
 20
3.8923
 10
133.9381
 20
3.438
 10
133.9381
 20
2.9836
 10
133.9381
 20
2.5293
 10
133.9381
 20
2.075
 10
133.9381
 20
1.6206
 10
133.9381
 20
1.1663
 10
133.9381
 20
0.712
 10
133.9381
 20
0.2576
 10
133.7414
 20
-0.0
 10
133.2871
 20
-0.0
 10
132.8328
 20
-0.0
 10
132.3784
 20
-0.0
 10
131.9241
 20
-0.0
 10
131.4698
 20
-0.0
 10
131.0154
 20
-0.0
 10
130.5611
 20
-0.0
 10
130.1068
 20
-0.0
 10
130.1068
 20
0.4543
 10
130.1068
 20
0.9087
 10
130.1068
 20
1.363
 10
130.1068
 20
1.8173
 10
130.1068
 20
2.2717
 10
130.1068
 20
2.726
 10
130.1068
 20
3.1803
 10
130.1068
 20
3.6347
 10
130.1068
 20
4.089
 10
130.1068
 20
4.5433
 10
130.1068
 20
4.9977
 10
130.1068
 20
5.452
 10
130.1068
 20
5.9063
 10
130.1068
 20
6.3607
 10
130.1068
 20
6.815
 10
130.1068
 20
7.2693
 10
130.1068
 20
7.7237
 10
130.1068
 20
8.178
 10
130.1068
 20
8.6323
 10
130.1068
 20
9.0867
 10
130.1068
 20
9.541
 10
130.1068
 20
9.9953
 10
130.1068
 20
10.4497
 10
130.1068
 20
10.904
 10
130.1068
 20
11.3583
 10
130.1068
 20
11.8127
 10
130.1068
 20
12.267
 10
130.1068
 20
12.7213
 10
130.1068
 20
13.1757
 10
130.1068
 20
13.63
 10
130.1068
 20
14.0843
 10
130.1068
 20
14.5387
 10
130.1068
 20
14.993
 10
130.1068
 20
15.4473
 10
130.1068
 20
15.9017
 10
130.1068
 20
16.356
 10
130.1068
 20
16.8103
 10
130.1068
 20
17.2647
 10
130.1068
 20
17.719
 10
130.1068
 20
18.1733
 10
130.1068
 20
18.6277
 10
130.1068
 20
19.082
 10
130.1068
 20
19.5363
 10
130.1068
 20
19.9907
 10
130.1068
 20
20.445
 10
130.1068
 20
20.8994
 10
130.1068
 20
21.3537
 10
130.1068
 20
21.808
 10
130.1068
 20
22.2624
 10
130.1068
 20
22.7167
 10
130.1068
 20
23.171
 10
130.1552
 20
23.5769
 10
130.6096
 20
23.5769
 10
131.0639
 20
23.5769
 10
131.5182
 20
23.5769
 10
131.9726
 20
23.5769
 10
132.4269
 20
23.5769
 10
132.8812
 20
23.5769
 10
133.3356
 20
23.5769
 10
133.6423
 20
23.4155
 10
133.6827
 20
22.963
 10
133.7231
 20
22.5104
 10
133.7635
 20
22.0579
 10
133.8039
 20
21.6054
 10
133.8443
 20
21.1528
 10
133.8847
 20
20.7003
  0
LWPOLYLINE
  5
38
330
17
100
AcDbEntity
  8
OUTLINE
100
AcDbPolyline
 90
177
 70
1
 10
133.9381
 20
15.7194
 10
133.9381
 20
15.705
 10
133.9381
 20
15.2507
 10
133.9381
 20
15.0983
 10
133.9381
 20
15.0984
 10
133.94
 20
14.8935
 10
133.9448
 20
14.6932
 10
133.9526
 20
14.4975
 10
133.9634
 20
14.3063
 10
133.9772
 20
14.1197
 10
133.9939
 20
13.9376
 10
134.0137
 20
13.7601
 10
134.0364
 20
13.5872
 10
134.0621
 20
13.4189
 10
134.0908
 20
13.2551
 10
134.1224
 20
13.0959
 10
134.1571
 20
12.9413
 10
134.1947
 20
12.7912
 10
134.2353
 20
12.6457
 10
134.2789
 20
12.5048
 10
134.3254
 20
12.3684
 10
134.375
 20
12.2366
 10
134.4275
 20
12.1094
 10
134.483
 20
11.9867
 10
134.5415
 20
11.8687
 10
134.603
 20
11.7551
 10
134.6674
 20
11.6462
 10
134.7348
 20
11.5418
 10
134.8145
 20
11.4297
 10
134.9074
 20
11.3125
 10
135.006
 20
11.2018
 10
135.1102
 20
11.0976
 10
135.22
 20
10.9999
 10
135.3355
 20
10.9087
 10
135.4565
 20
10.8241
 10
135.5832
 20
10.7459
 10
135.7154
 20
10.6743
 10
135.8533
 20
10.6091
 10
135.9968
 20
10.5505
 10
136.1459
 20
10.4984
 10
136.3006
 20
10.4528
 10
136.4609
 20
10.4137
 10
136.6268
 20
10.3811
 10
136.7984
 20
10.3551
 10
136.9755
 20
10.3355
 10
137.1583
 20
10.3225
 10
137.3467
 20
10.316
 10
137.5346
 20
10.316
 10
137.7142
 20
10.3226
 10
137.8893
 20
10.336
 10
138.0597
 20
10.3561
 10
138.2254
 20
10.3829
 10
138.3866
 20
10.4164
 10
138.543
 20
10.4566
 10
138.6949
 20
10.5035
 10
138.8421
 20
10.5572
 10
138.9847
 20
10.6175
 10
139.1227
 20
10.6845
 10
139.256
 20
10.7582
 10
139.3847
 20
10.8387
 10
139.5087
 20
10.9258
 10
139.6281
 20
11.0196
 10
139.7429
 20
11.1202
 10
139.8531
 20
11.2274
 10
139.9586
 20
11.3414
 10
140.0595
 20
11.462
 10
140.1531
 20
11.5858
 10
140.2266
 20
11.6921
 10
140.297
 20
11.8025
 10
140.3644
 20
11.9169
 10
140.4285
 20
12.0355
 10
140.4896
 20
12.1581
 10
140.5476
 20
12.2847
 10
140.6024
 20
12.4155
 10
140.6541
 20
12.5503
 10
140.7027
 20
12.6891
 10
140.7482
 20
12.8321
 10
140.7906
 20
12.9791
 10
140.8298
 20
13.1302
 10
140.866
 20
13.2853
 10
140.899
 20
13.4445
 10
140.9289
 20
13.6078
 10
140.9556
 20
13.7751
 10
140.9793
 20
13.9465
 10
140.9998
 20
14.122
 10
141.0173
 20
14.3015
 10
141.0316
 20
14.4852
 10
141.0428
 20
14.6728
 10
141.0508
 20
14.8646
 10
141.0558
 20
15.0604
 10
141.0576
 20
15.2603
 10
141.0564
 20
15.459
 10
141.0521
 20
15.6537
 10
141.0448
 20
15.8446
 10
141.0345
 20
16.0318
 10
141.0212
 20
16.2152
 10
141.0048
 20
16.3948
 10
140.9854
 20
16.5706
 10
140.963
 20
16.7427
 10
140.9376
 20
16.911
 10
140.9092
 20
17.0754
 10
140.8777
 20
17.2362
 10
140.8432
 20
17.3931
 10
140.8057
 20
17.5462
 10
140.7651
 20
17.6956
 10
140.7215
 20
17.8412
 10
140.6749
 20
17.983
 10
140.6253
 20
18.1211
 10
140.5727
 20
18.2553
 10
140.517
 20
18.3858
 10
140.4583
 20
18.5125
 10
140.3966
 20
18.6354
 10
140.3319
 20
18.7546
 10
140.2641
 20
18.8699
 10
140.1933
 20
18.9815
 10
140.1174
 20
19.0922
 10
140.0193
 20
19.2234
 10
139.9167
 20
19.3477
 10
139.8099
 20
19.4651
 10
139.6987
 20
19.5755
 10
139.5832
 20
19.6789
 10
139.4633
 20
19.7754
 10
139.3391
 20
19.8649
 10
139.2106
 20
19.9475
 10
139.0777
 20
20.0231
 10
138.9405
 20
20.0918
 10
138.799
 20
20.1535
 10
138.6531
 20
20.2082
 10
138.5029
 20
20.256
 10
138.3484
 20
20.2969
 10
138.1895
 20
20.3308
 10
138.0263
 20
20.3577
 10
137.8587
 20
20.3777
 10
137.6868
 20
20.3908
 10
137.5106
 20
20.3968
 10
137.3282
 20
20.396
 10
137.1478
 20
20.3883
 10
136.9723
 20
20.3739
 10
136.8017
 20
20.3527
 10
136.636
 20
20.3246
 10
136.4751
 20
20.2898
 10
136.3191
 20
20.2482
 10
136.168
 20
20.1998
 10
136.0218
 20
20.1445
 10
135.8805
 20
20.0825
 10
135.7441
 20
20.0137
 10
135.6125
 20
19.9381
 10
135.4858
 20
19.8558
 10
135.364
 20
19.7666
 10
135.2471
 20
19.6706
 10
135.1351
 20
19.5678
 10
135.0279
 20
19.4583
 10
134.9256
 20
19.3419
 10
134.8282
 20
19.2187
 10
134.7539
 20
19.1152
 10
134.684
 20
19.0089
 10
134.6172
 20
18.8981
 10
134.5535
 20
18.7828
 10
134.493
 20
18.6631
 10
134.4356
 20
18.5388
 10
134.3813
 20
18.4101
 10
134.3302
 20
18.277
 10
134.2822
 20
18.1393
 10
134.2374
 20
17.9971
 10
134.1956
 20
17.8505
 10
134.157
 20
17.6994
 10
134.1216
 20
17.5438
 10
134.0892
 20
17.3838
 10
134.06
 20
17.2192
 10
134.034
 20
17.0502
 10
134.011
 20
16.8767
 10
133.9912
 20
16.6987
 10
133.9745
 20
16.5162
 10
133.961
 20
16.3293
 10
133.9506
 20
16.1379
 10
133.9433
 20
15.9419
 10
133.9392
 20
15.7416
  0
LWPOLYLINE
  5
39
330
17
100
AcDbEntity
  8
OUTLINE
100
AcDbPolyline
 90
562
 70
1
 10
158.5339
 20
10.3907
 10
158.5236
 20
10.5612
 10
158.5207
 20
10.6097
 10
158.4184
 20
10.6097
 10
158.3051
 20
10.6097
 10
158.1918
 20
10.6097
 10
158.1669
 20
10.6097
 10
158.1563
 20
10.5131
 10
158.1406
 20
10.3941
 10
158.1225
 20
10.2771
 10
158.102
 20
10.1621
 10
158.0789
 20
10.0489
 10
158.0535
 20
9.9378
 10
158.0256
 20
9.8285
 10
157.9952
 20
9.7212
 10
157.9625
 20
9.6158
 10
157.9272
 20
9.5124
 10
157.8895
 20
9.4109
 10
157.8494
 20
9.3113
 10
157.8068
 20
9.2137
 10
157.7618
 20
9.118
 10
157.7144
 20
9.0243
 10
157.6645
 20
8.9324
 10
157.6121
 20
8.8426
 10
157.5573
 20
8.7546
 10
157.4968
 20
8.6637
 10
157.4321
 20
8.5725
 10
157.365
 20
8.4836
 10
157.2955
 20
8.397
 10
157.2235
 20
8.3128
 10
157.149
 20
8.2309
 10
157.0721
 20
8.1513
 10
156.9928
 20
8.0741
 10
156.911
 20
7.9992
 10
156.8268
 20
7.9266
 10
156.7401
 20
7.8563
 10
156.651
 20
7.7884
 10
156.5594
 20
7.7228
 10
156.4654
 20
7.6595
 10
156.369
 20
7.5986
 10
156.2701
 20
7.54
 10
156.1687
 20
7.4837
 10
156.0649
 20
7.4298
 10
155.9587
 20
7.3781
 10
155.85
 20
7.3288
 10
155.7454
 20
7.2845
 10
155.6511
 20
7.247
 10
155.5554
 20
7.2111
 10
155.4582
 20
7.1768
 10
155.3595
 20
7.1441
 10
155.2594
 20
7.113
 10
155.1578
 20
7.0835
 10
155.0547
 20
7.0556
 10
154.9502
 20
7.0292
 10
154.8442
 20
7.0045
 10
154.7368
 20
6.9814
 10
154.6279
 20
6.9598
 10
154.5175
 20
6.9399
 10
154.4057
 20
6.9215
 10
154.2924
 20
6.9048
 10
154.1776
 20
6.8896
 10
154.0614
 20
6.8761
 10
153.9437
 20
6.8641
 10
153.8245
 20
6.8537
 10
153.7039
 20
6.8449
 10
153.5818
 20
6.8378
 10
153.4583
 20
6.8322
 10
153.3333
 20
6.8282
 10
153.2068
 20
6.8258
 10
153.0788
 20
6.825
 10
152.9434
 20
6.8259
 10
152.8095
 20
6.8285
 10
152.6773
 20
6.8328
 10
152.5466
 20
6.8389
 10
152.4175
 20
6.8467
 10
152.2901
 20
6.8563
 10
152.1642
 20
6.8676
 10
152.0399
 20
6.8806
 10
151.9173
 20
6.8954
 10
151.7962
 20
6.9119
 10
151.6768
 20
6.9302
 10
151.5589
 20
6.9502
 10
151.4427
 20
6.9719
 10
151.328
 20
6.9954
 10
151.215
 20
7.0206
 10
151.1035
 20
7.0476
 10
150.9936
 20
7.0763
 10
150.8854
 20
7.1067
 10
150.7787
 20
7.1389
 10
150.6737
 20
7.1728
 10
150.5702
 20
7.2085
 10
150.4684
 20
7.2458
 10
150.3681
 20
7.285
 10
150.2695
 20
7.3258
 10
150.1725
 20
7.3685
 10
150.077
 20
7.4128
 10
149.9832
 20
7.4589
 10
149.8909
 20
7.5067
 10
149.8003
 20
7.5563
 10
149.7112
 20
7.6076
 10
149.6238
 20
7.6606
 10
149.538
 20
7.7154
 10
149.4537
 20
7.7719
 10
149.3711
 20
7.8302
 10
149.29
 20
7.8902
 10
149.2106
 20
7.9519
 10
149.1328
 20
8.0154
 10
149.0565
 20
8.0806
 10
148.9774
 20
8.1517
 10
148.899
 20
8.2259
 10
148.8229
 20
8.3018
 10
148.7491
 20
8.3793
 10
148.6776
 20
8.4586
 10
148.6085
 20
8.5396
 10
148.5416
 20
8.6222
 10
148.477
 20
8.7065
 10
148.4147
 20
8.7926
 10
148.3548
 20
8.8803
 10
148.2971
 20
8.9697
 10
148.2417
 20
9.0608
 10
148.1887
 20
9.1536
 10
148.1379
 20
9.2481
 10
148.0894
 20
9.3442
 10
148.0433
 20
9.4421
 10
147.9994
 20
9.5417
 10
147.9579
 20
9.6429
 10
147.9186
 20
9.7459
 10
147.8817
 20
9.8505
 10
147.847
 20
9.9569
 10
147.8147
 20
10.0649
 10
147.7847
 20
10.1746
 10
147.7569
 20
10.286
 10
147.7315
 20
10.3991
 10
147.7083
 20
10.5139
 10
147.6875
 20
10.6304
 10
147.669
 20
10.7486
 10
147.6528
 20
10.8685
 10
147.6388
 20
10.99
 10
147.6272
 20
11.1133
 10
147.6179
 20
11.2382
 10
147.6109
 20
11.3649
 10
147.6062
 20
11.4932
 10
147.6037
 20
11.6233
 10
147.6036
 20
11.7533
 10
147.6057
 20
11.8807
 10
147.61
 20
12.0066
 10
147.6164
 20
12.1312
 10
147.6251
 20
12.2543
 10
147.6359
 20
12.376
 10
147.6489
 20
12.4962
 10
147.6642
 20
12.615
 10
147.6816
 20
12.7324
 10
147.7011
 20
12.8484
 10
147.7229
 20
12.9629
 10
147.7469
 20
13.076
 10
147.773
 20
13.1877
 10
147.8014
 20
13.2979
 10
147.8319
 20
13.4067
 10
147.8646
 20
13.5141
 10
147.8995
 20
13.62
 10
147.9366
 20
13.7246
 10
147.9759
 20
13.8277
 10
148.0174
 20
13.9293
 10
148.0611
 20
14.0295
 10
148.1069
 20
14.1283
 10
148.155
 20
14.2257
 10
148.2052
 20
14.3217
 10
148.2576
 20
14.4162
 10
148.3122
 20
14.5092
 10
148.369
 20
14.6009
 10
148.428
 20
14.6911
 10
148.4891
 20
14.7799
 10
148.5525
 20
14.8673
 10
148.618
 20
14.9532
 10
148.6858
 20
15.0377
 10
148.7557
 20
15.1208
 10
148.8278
 20
15.2024
 10
148.9021
 20
15.2826
 10
148.9786
 20
15.3614
 10
149.0573
 20
15.4388
 10
149.1381
 20
15.5147
 10
149.2212
 20
15.5892
 10
149.3064
 20
15.6623
 10
149.3939
 20
15.7339
 10
149.4835
 20
15.8041
 10
149.5669
 20
15.8667
 10
149.6442
 20
15.9226
 10
149.7228
 20
15.9774
 10
149.8026
 20
16.031
 10
149.8837
 20
16.0835
 10
149.9661
 20
16.1348
 10
150.0496
 20
16.1851
 10
150.1345
 20
16.2342
 10
150.2205
 20
16.2822
 10
150.3079
 20
16.3291
 10
150.3964
 20
16.3748
 10
150.4863
 20
16.4194
 10
150.5773
 20
16.4629
 10
150.6696
 20
16.5052
 10
150.7632
 20
16.5464
 10
150.858
 20
16.5865
 10
150.9541
 20
16.6255
 10
151.0514
 20
16.6633
 10
151.15
 20
16.7
 10
151.2498
 20
16.7356
 10
151.3509
 20
16.7701
 10
151.4532
 20
16.8034
 10
151.5567
 20
16.8356
 10
151.6615
 20
16.8667
 10
151.7676
 20
16.8966
 10
151.8749
 20
16.9254
 10
151.9835
 20
16.9531
 10
152.0933
 20
16.9797
 10
152.2043
 20
17.0051
 10
152.3166
 20
17.0294
 10
152.4302
 20
17.0526
 10
152.545
 20
17.0747
 10
152.6611
 20
17.0956
 10
152.7784
 20
17.1154
 10
152.8969
 20
17.134
 10
153.0167
 20
17.1516
 10
153.1378
 20
17.168
 10
153.2601
 20
17.1833
 10
153.3836
 20
17.1974
 10
153.5084
 20
17.2105
 10
153.6344
 20
17.2224
 10
153.7617
 20
17.2331
 10
153.8903
 20
17.2428
 10
154.0201
 20
17.2513
 10
154.1511
 20
17.2587
 10
154.2834
 20
17.265
 10
154.4169
 20
17.2701
 10
154.5517
 20
17.2741
 10
154.6878
 20
17.277
 10
154.8251
 20
17.2787
 10
154.9636
 20
17.2794
 10
155.0922
 20
17.2791
 10
155.2187
 20
17.2781
 10
155.3439
 20
17.2765
 10
155.4675
 20
17.2743
 10
155.5898
 20
17.2713
 10
155.7105
 20
17.2677
 10
155.8299
 20
17.2635
 10
155.9477
 20
17.2586
 10
156.0642
 20
17.253
 10
156.1792
 20
17.2468
 10
156.2927
 20
17.24
 10
156.4048
 20
17.2324
 10
156.5154
 20
17.2242
 10
156.6246
 20
17.2154
 10
156.7324
 20
17.2059
 10
156.8386
 20
17.1957
 10
156.9435
 20
17.1849
 10
157.0469
 20
17.1734
 10
157.1488
 20
17.1613
 10
157.2494
 20
17.1485
 10
157.3484
 20
17.135
 10
157.4505
 20
17.1202
 10
157.5652
 20
17.1025
 10
157.6793
 20
17.0838
 10
157.7929
 20
17.0641
 10
157.9059
 20
17.0433
 10
158.0184
 20
17.0215
 10
158.1303
 20
16.9988
 10
158.2284
 20
16.9778
 10
158.2284
 20
17.0377
 10
158.2284
 20
17.2085
 10
158.2275
 20
17.3886
 10
158.2182
 20
17.5775
 10
158.1984
 20
17.7594
 10
158.1683
 20
17.9342
 10
158.1278
 20
18.102
 10
158.077
 20
18.2628
 10
158.0157
 20
18.4165
 10
157.9441
 20
18.5632
 10
157.8622
 20
18.7029
 10
157.7698
 20
18.8355
 10
157.6671
 20
18.9611
 10
157.554
 20
19.0797
 10
157.4305
 20
19.1913
 10
157.2967
 20
19.2958
 10
157.1525
 20
19.3933
 10
157.0256
 20
19.4686
 10
156.9089
 20
19.5312
 10
156.7869
 20
19.591
 10
156.6596
 20
19.6477
 10
156.5269
 20
19.7016
 10
156.3888
 20
19.7525
 10
156.2455
 20
19.8005
 10
156.0968
 20
19.8456
 10
155.9427
 20
19.8878
 10
155.7834
 20
19.927
 10
155.6187
 20
19.9633
 10
155.4486
 20
19.9967
 10
155.2733
 20
20.0271
 10
155.0926
 20
20.0546
 10
154.9065
 20
20.0792
 10
154.7152
 20
20.1009
 10
154.5185
 20
20.1196
 10
154.3164
 20
20.1355
 10
154.109
 20
20.1483
 10
153.8963
 20
20.1583
 10
153.6865
 20
20.1651
 10
153.5158
 20
20.1697
 10
153.345
 20
20.1742
 10
153.1742
 20
20.1787
 10
153.0034
 20
20.1832
 10
152.8327
 20
20.1878
 10
152.6619
 20
20.1923
 10
152.4911
 20
20.1968
 10
152.3203
 20
20.2014
 10
152.1496
 20
20.2059
 10
151.9788
 20
20.2104
 10
151.808
 20
20.215
 10
151.6373
 20
20.2195
 10
151.4665
 20
20.224
 10
151.2957
 20
20.2286
 10
151.1249
 20
20.2331
 10
150.9542
 20
20.2376
 10
150.7834
 20
20.2421
 10
150.6126
 20
20.2467
 10
150.4419
 20
20.2512
 10
150.2711
 20
20.2557
 10
150.1003
 20
20.2603
 10
149.9295
 20
20.2648
 10
149.7588
 20
20.2693
 10
149.6229
 20
20.305
 10
149.6382
 20
20.4751
 10
149.6534
 20
20.6453
 10
149.6686
 20
20.8154
 10
149.6839
 20
20.9856
 10
149.6991
 20
21.1557
 10
149.7144
 20
21.3259
 10
149.7296
 20
21.496
 10
149.7448
 20
21.6662
 10
149.7601
 20
21.8363
 10
149.7753
 20
22.0065
 10
149.7906
 20
22.1766
 10
149.8058
 20
22.3468
 10
149.8211
 20
22.5169
 10
149.8363
 20
22.6871
 10
149.8515
 20
22.8572
 10
149.8668
 20
23.0274
 10
149.882
 20
23.1975
 10
149.8973
 20
23.3677
 10
149.9125
 20
23.5378
 10
149.9277
 20
23.708
 10
150.0764
 20
23.7302
 10
150.2473
 20
23.7279
 10
150.4181
 20
23.7256
 10
150.5889
 20
23.7233
 10
150.7597
 20
23.721
 10
150.9305
 20
23.7187
 10
151.1013
 20
23.7164
 10
151.2722
 20
23.7141
 10
151.443
 20
23.7118
 10
151.6138
 20
23.7096
 10
151.7846
 20
23.7073
 10
151.9554
 20
23.705
 10
152.1262
 20
23.7027
 10
152.2971
 20
23.7004
 10
152.4679
 20
23.6981
 10
152.6387
 20
23.6958
 10
152.8095
 20
23.6935
 10
152.9803
 20
23.6912
 10
153.1511
 20
23.6889
 10
153.322
 20
23.6866
 10
153.5166
 20
23.6836
 10
153.7316
 20
23.6784
 10
153.9437
 20
23.671
 10
154.153
 20
23.6616
 10
154.3594
 20
23.6501
 10
154.563
 20
23.6365
 10
154.7638
 20
23.6208
 10
154.9618
 20
23.603
 10
155.1569
 20
23.5831
 10
155.3492
 20
23.5612
 10
155.5387
 20
23.5371
 10
155.7253
 20
23.511
 10
155.9092
 20
23.4828
 10
156.0901
 20
23.4525
 10
156.2683
 20
23.4201
 10
156.4436
 20
23.3856
 10
156.6161
 20
23.349
 10
156.7858
 20
23.3104
 10
156.9526
 20
23.2696
 10
157.1166
 20
23.2268
 10
157.2778
 20
23.1818
 10
157.4361
 20
23.1348
 10
157.5917
 20
23.0857
 10
157.7443
 20
23.0345
 10
157.8942
 20
22.9812
 10
158.0412
 20
22.9259
 10
158.1854
 20
22.8684
 10
158.3268
 20
22.8089
 10
158.4653
 20
22.7472
 10
158.601
 20
22.6835
 10
158.7339
 20
22.6177
 10
158.8639
 20
22.5498
 10
158.9912
 20
22.4798
 10
159.1156
 20
22.4078
 10
159.2371
 20
22.3336
 10
159.3558
 20
22.2573
 10
159.4717
 20
22.179
 10
159.5848
 20
22.0986
 10
159.695
 20
22.0161
 10
159.8024
 20
21.9315
 10
159.9274
 20
21.8275
 10
160.0502
 20
21.7193
 10
160.169
 20
21.6081
 10
160.2839
 20
21.494
 10
160.3949
 20
21.3769
 10
160.5019
 20
21.257
 10
160.605
 20
21.1341
 10
160.7041
 20
21.0082
 10
160.7994
 20
20.8795
 10
160.8906
 20
20.7478
 10
160.978
 20
20.6132
 10
161.0614
 20
20.4756
 10
161.1409
 20
20.3352
 10
161.2165
 20
20.1918
 10
161.2881
 20
20.0454
 10
161.3558
 20
19.8962
 10
161.4195
 20
19.744
 10
161.4794
 20
19.5889
 10
161.5353
 20
19.4308
 10
161.5872
 20
19.2698
 10
161.6352
 20
19.1059
 10
161.6793
 20
18.9391
 10
161.7195
 20
18.7693
 10
161.7557
 20
18.5967
 10
161.788
 20
18.421
 10
161.8163
 20
18.2425
 10
161.8407
 20
18.061
 10
161.8612
 20
17.8766
 10
161.8778
 20
17.6893
 10
161.8904
 20
17.499
 10
161.8991
 20
17.3058
 10
161.9038
 20
17.1097
 10
161.9048
 20
16.9192
 10
161.9048
 20
16.7484
 10
161.9048
 20
16.5775
 10
161.9048
 20
16.4067
 10
161.9048
 20
16.2359
 10
161.9048
 20
16.065
 10
161.9048
 20
15.8942
 10
161.9048
 20
15.7234
 10
161.9048
 20
15.5525
 10
161.9048
 20
15.3817
 10
161.9048
 20
15.2109
 10
161.9048
 20
15.04
 10
161.9048
 20
14.8692
 10
161.9048
 20
14.6984
 10
161.9048
 20
14.5275
 10
161.9048
 20
14.3567
 10
161.9048
 20
14.1859
 10
161.9048
 20
14.015
 10
161.9048
 20
13.8442
 10
161.9048
 20
13.6734
 10
161.9048
 20
13.5026
 10
161.9048
 20
13.3317
 10
161.9048
 20
13.1609
 10
161.9048
 20
12.9901
 10
161.9048
 20
12.8192
 10
161.9048
 20
12.6484
 10
161.9048
 20
12.4776
 10
161.9048
 20
12.3067
 10
161.9048
 20
12.1359
 10
161.9048
 20
11.9651
 10
161.9048
 20
11.7942
 10
161.9048
 20
11.6234
 10
161.9048
 20
11.4526
 10
161.9048
 20
11.2817
 10
161.9048
 20
11.1109
 10
161.9048
 20
10.9401
 10
161.9048
 20
10.7692
 10
161.9048
 20
10.5984
 10
162.0545
 20
10.5581
 10
162.2238
 20
10.5348
 10
162.393
 20
10.5116
 10
162.5623
 20
10.4883
 10
162.7315
 20
10.465
 10
162.9007
 20
10.4418
 10
163.07
 20
10.4185
 10
163.2392
 20
10.3952
 10
163.4085
 20
10.3719
 10
163.5777
 20
10.3487
 10
163.7469
 20
10.3254
 10
163.9162
 20
10.3021
 10
164.0854
 20
10.2789
 10
164.2547
 20
10.2556
 10
164.3863
 20
10.1995
 10
164.3863
 20
10.0287
 10
164.3863
 20
9.8578
 10
164.3863
 20
9.687
 10
164.3863
 20
9.5162
 10
164.3863
 20
9.3453
 10
164.3863
 20
9.1745
 10
164.3863
 20
9.0037
 10
164.3863
 20
8.8328
 10
164.3863
 20
8.662
 10
164.3863
 20
8.4912
 10
164.3863
 20
8.3203
 10
164.3863
 20
8.1495
 10
164.3863
 20
7.9787
 10
164.3863
 20
7.8078
 10
164.3863
 20
7.637
 10
164.3863
 20
7.4662
 10
164.3863
 20
7.2953
 10
164.3756
 20
7.1349
 10
164.2048
 20
7.1302
 10
164.034
 20
7.1256
 10
163.8632
 20
7.1209
 10
163.6925
 20
7.1162
 10
163.5217
 20
7.1115
 10
163.3509
 20
7.1068
 10
163.1802
 20
7.1021
 10
163.0094
 20
7.0974
 10
162.8386
 20
7.0928
 10
162.6679
 20
7.0881
 10
162.4971
 20
7.0834
 10
162.3263
 20
7.0787
 10
162.1556
 20
7.074
 10
161.9848
 20
7.0693
 10
161.814
 20
7.0646
 10
161.6433
 20
7.06
 10
161.4725
 20
7.0553
 10
161.3017
 20
7.0506
 10
161.131
 20
7.0459
 10
160.9602
 20
7.0412
 10
160.7894
 20
7.0365
 10
160.6187
 20
7.0318
 10
160.4479
 20
7.0271
 10
160.2771
 20
7.0225
 10
160.1063
 20
7.0178
 10
159.9356
 20
7.0131
 10
159.7648
 20
7.0084
 10
159.594
 20
7.0037
 10
159.4233
 20
6.999
 10
159.2525
 20
6.9943
 10
159.0817
 20
6.9897
 10
158.911
 20
6.985
 10
158.7402
 20
6.9803
 10
158.7299
 20
7.1508
 10
158.7196
 20
7.3213
 10
158.7093
 20
7.4919
 10
158.699
 20
7.6624
 10
158.6886
 20
7.8329
 10
158.6783
 20
8.0034
 10
158.668
 20
8.1739
 10
158.6577
 20
8.3445
 10
158.6474
 20
8.515
 10
158.6371
 20
8.6855
 10
158.6268
 20
8.856
 10
158.6164
 20
9.0265
 10
158.6061
 20
9.1971
 10
158.5958
 20
9.3676
 10
158.5855
 20
9.5381
 10
158.5752
 20
9.7086
 10
158.5649
 20
9.8791
 10
158.5546
 20
10.0497
 10
158.5443
 20
10.2202
  0
LWPOLYLINE
  5
3A
330
17
100
AcDbEntity
  8
OUTLINE
100
AcDbPolyline
 90
163
 70
1
 10
158.2284
 20
13.8997
 10
158.1648
 20
13.9115
 10
158.05
 20
13.9316
 10
157.9362
 20
13.9504
 10
157.8234
 20
13.9678
 10
157.7116
 20
13.9838
 10
157.6007
 20
13.9984
 10
157.4909
 20
14.0116
 10
157.3821
 20
14.0235
 10
157.2742
 20
14.034
 10
157.1674
 20
14.0431
 10
157.0616
 20
14.0508
 10
156.9567
 20
14.0572
 10
156.8516
 20
14.0622
 10
156.7428
 20
14.0668
 10
156.6333
 20
14.0712
 10
156.5232
 20
14.0752
 10
156.4126
 20
14.0789
 10
156.3013
 20
14.0823
 10
156.1894
 20
14.0854
 10
156.077
 20
14.0882
 10
155.9639
 20
14.0907
 10
155.8502
 20
14.0929
 10
155.7359
 20
14.0948
 10
155.621
 20
14.0964
 10
155.5055
 20
14.0977
 10
155.3894
 20
14.0987
 10
155.2727
 20
14.0994
 10
155.1554
 20
14.0997
 10
155.0251
 20
14.0998
 10
154.8547
 20
14.098
 10
154.6884
 20
14.0938
 10
154.5263
 20
14.0872
 10
154.3682
 20
14.0782
 10
154.2142
 20
14.0668
 10
154.0644
 20
14.053
 10
153.9186
 20
14.0367
 10
153.777
 20
14.018
 10
153.6395
 20
13.9969
 10
153.506
 20
13.9734
 10
153.3767
 20
13.9474
 10
153.2515
 20
13.9191
 10
153.1303
 20
13.8883
 10
153.0133
 20
13.8551
 10
152.9004
 20
13.8195
 10
152.7916
 20
13.7815
 10
152.6869
 20
13.741
 10
152.5863
 20
13.6982
 10
152.4898
 20
13.6529
 10
152.3975
 20
13.6052
 10
152.3092
 20
13.555
 10
152.225
 20
13.5025
 10
152.145
 20
13.4475
 10
152.069
 20
13.3902
 10
151.9971
 20
13.3304
 10
151.9294
 20
13.2681
 10
151.8658
 20
13.2035
 10
151.8062
 20
13.1364
 10
151.7508
 20
13.067
 10
151.6995
 20
12.9951
 10
151.6522
 20
12.9208
 10
151.6091
 20
12.8441
 10
151.5701
 20
12.7649
 10
151.5352
 20
12.6833
 10
151.5044
 20
12.5994
 10
151.4777
 20
12.513
 10
151.4551
 20
12.4241
 10
151.4366
 20
12.3329
 10
151.4223
 20
12.2392
 10
151.412
 20
12.1432
 10
151.4058
 20
12.0447
 10
151.4038
 20
11.9438
 10
151.4068
 20
11.8153
 10
151.416
 20
11.6911
 10
151.4313
 20
11.5712
 10
151.4528
 20
11.4555
 10
151.4804
 20
11.3442
 10
151.5142
 20
11.2371
 10
151.554
 20
11.1343
 10
151.6001
 20
11.0358
 10
151.6522
 20
10.9416
 10
151.7105
 20
10.8516
 10
151.7749
 20
10.766
 10
151.8455
 20
10.6846
 10
151.9222
 20
10.6076
 10
152.005
 20
10.5348
 10
152.0861
 20
10.472
 10
152.1641
 20
10.4183
 10
152.2459
 20
10.3678
 10
152.3316
 20
10.3206
 10
152.4211
 20
10.2767
 10
152.5145
 20
10.2361
 10
152.6118
 20
10.1988
 10
152.7129
 20
10.1647
 10
152.8179
 20
10.1339
 10
152.9267
 20
10.1065
 10
153.0394
 20
10.0823
 10
153.1559
 20
10.0614
 10
153.2763
 20
10.0437
 10
153.4005
 20
10.0294
 10
153.5286
 20
10.0184
 10
153.6606
 20
10.0106
 10
153.7964
 20
10.0061
 10
153.9346
 20
10.0049
 10
154.0642
 20
10.0063
 10
154.1919
 20
10.0099
 10
154.3177
 20
10.0157
 10
154.4414
 20
10.0236
 10
154.5633
 20
10.0338
 10
154.6831
 20
10.0461
 10
154.801
 20
10.0606
 10
154.917
 20
10.0773
 10
155.0309
 20
10.0962
 10
155.143
 20
10.1173
 10
155.253
 20
10.1405
 10
155.3612
 20
10.166
 10
155.4673
 20
10.1936
 10
155.5715
 20
10.2234
 10
155.6738
 20
10.2555
 10
155.774
 20
10.2897
 10
155.8724
 20
10.326
 10
155.9687
 20
10.3646
 10
156.0632
 20
10.4054
 10
156.1556
 20
10.4483
 10
156.2461
 20
10.4934
 10
156.342
 20
10.5447
 10
156.4495
 20
10.6057
 10
156.5538
 20
10.6686
 10
156.655
 20
10.7332
 10
156.7531
 20
10.7998
 10
156.848
 20
10.8681
 10
156.9397
 20
10.9383
 10
157.0283
 20
11.0103
 10
157.1137
 20
11.0841
 10
157.196
 20
11.1598
 10
157.2751
 20
11.2374
 10
157.3511
 20
11.3167
 10
157.4239
 20
11.3979
 10
157.4936
 20
11.4809
 10
157.5601
 20
11.5658
 10
157.6234
 20
11.6525
 10
157.6836
 20
11.741
 10
157.7407
 20
11.8313
 10
157.8007
 20
11.9338
 10
157.8576
 20
12.0383
 10
157.9105
 20
12.1433
 10
157.9593
 20
12.2487
 10
158.0041
 20
12.3546
 10
158.0447
 20
12.461
 10
158.0813
 20
12.5678
 10
158.1139
 20
12.675
 10
158.1424
 20
12.7827
 10
158.1668
 20
12.8909
 10
158.1871
 20
12.9995
 10
158.2034
 20
13.1086
 10
158.2156
 20
13.2182
 10
158.2238
 20
13.3282
 10
158.2279
 20
13.4386
 10
158.2284
 20
13.5506
 10
158.2284
 20
13.6639
 10
158.2284
 20
13.7772
 10
158.2284
 20
13.7918
 10
158.2284
 20
13.8905
  0
LWPOLYLINE
  5
3B
330
17
100
AcDbEntity
  8
OUTLINE
100
AcDbPolyline
 90
368
 70
1
 10
189.2766
 20
13.7739
 10
189.2016
 20
13.7739
 10
189.24
 20
13.6358
 10
189.2989
 20
13.4512
 10
189.364
 20
13.2717
 10
189.4352
 20
13.0974
 10
189.5126
 20
12.9282
 10
189.5961
 20
12.7642
 10
189.6858
 20
12.6053
 10
189.7817
 20
12.4515
 10
189.8837
 20
12.3029
 10
189.9919
 20
12.1594
 10
190.1062
 20
12.021
 10
190.2267
 20
11.8878
 10
190.3534
 20
11.7597
 10
190.484
 20
11.6387
 10
190.6167
 20
11.5256
 10
190.7541
 20
11.4177
 10
190.8964
 20
11.315
 10
191.0434
 20
11.2176
 10
191.1953
 20
11.1255
 10
191.3519
 20
11.0386
 10
191.5133
 20
10.9569
 10
191.6794
 20
10.8805
 10
191.8504
 20
10.8094
 10
192.0261
 20
10.7434
 10
192.2067
 20
10.6828
 10
192.392
 20
10.6273
 10
192.5821
 20
10.5771
 10
192.7769
 20
10.5322
 10
192.9766
 20
10.4925
 10
193.1811
 20
10.458
 10
193.3903
 20
10.4288
 10
193.6043
 20
10.4049
 10
193.8231
 20
10.3861
 10
194.0467
 20
10.3727
 10
194.2751
 20
10.3644
 10
194.5082
 20
10.3614
 10
194.7096
 20
10.3623
 10
194.9078
 20
10.3651
 10
195.1053
 20
10.3698
 10
195.3022
 20
10.3766
 10
195.4984
 20
10.3852
 10
195.694
 20
10.3959
 10
195.889
 20
10.4085
 10
196.0833
 20
10.423
 10
196.2769
 20
10.4395
 10
196.4699
 20
10.458
 10
196.6622
 20
10.4784
 10
196.8528
 20
10.5003
 10
197.044
 20
10.5236
 10
197.2359
 20
10.5482
 10
197.4284
 20
10.5743
 10
197.6215
 20
10.6018
 10
197.8153
 20
10.6308
 10
198.0098
 20
10.6611
 10
198.2049
 20
10.6929
 10
198.4006
 20
10.7261
 10
198.597
 20
10.7607
 10
198.7905
 20
10.7921
 10
198.8127
 20
10.5974
 10
198.8349
 20
10.4027
 10
198.8571
 20
10.2079
 10
198.8793
 20
10.0132
 10
198.9015
 20
9.8185
 10
198.9237
 20
9.6238
 10
198.9459
 20
9.4291
 10
198.9681
 20
9.2344
 10
198.9903
 20
9.0397
 10
199.0125
 20
8.845
 10
199.0347
 20
8.6503
 10
199.0569
 20
8.4555
 10
199.0791
 20
8.2608
 10
199.1013
 20
8.0661
 10
199.1235
 20
7.8714
 10
199.1457
 20
7.6767
 10
199.1679
 20
7.482
 10
199.1901
 20
7.2873
 10
199.0132
 20
7.2267
 10
198.8049
 20
7.1905
 10
198.599
 20
7.1563
 10
198.3955
 20
7.124
 10
198.1944
 20
7.0937
 10
197.9957
 20
7.0653
 10
197.7995
 20
7.0389
 10
197.6056
 20
7.0144
 10
197.4141
 20
6.9919
 10
197.2251
 20
6.9713
 10
197.0384
 20
6.9527
 10
196.8542
 20
6.936
 10
196.6723
 20
6.9213
 10
196.4929
 20
6.9085
 10
196.2945
 20
6.8962
 10
196.0774
 20
6.8839
 10
195.8648
 20
6.8727
 10
195.6566
 20
6.8627
 10
195.4529
 20
6.8538
 10
195.2537
 20
6.8462
 10
195.059
 20
6.8397
 10
194.8687
 20
6.8344
 10
194.6829
 20
6.8303
 10
194.5016
 20
6.8273
 10
194.3247
 20
6.8256
 10
194.1524
 20
6.825
 10
193.9196
 20
6.8267
 10
193.6897
 20
6.8318
 10
193.4628
 20
6.8402
 10
193.2388
 20
6.8521
 10
193.0178
 20
6.8673
 10
192.7997
 20
6.8859
 10
192.5846
 20
6.9079
 10
192.3724
 20
6.9332
 10
192.1631
 20
6.962
 10
191.9568
 20
6.9941
 10
191.7535
 20
7.0296
 10
191.553
 20
7.0685
 10
191.3556
 20
7.1108
 10
191.161
 20
7.1565
 10
190.9694
 20
7.2055
 10
190.7808
 20
7.258
 10
190.5951
 20
7.3138
 10
190.4123
 20
7.373
 10
190.2325
 20
7.4356
 10
190.0556
 20
7.5015
 10
189.8817
 20
7.5709
 10
189.7107
 20
7.6436
 10
189.5427
 20
7.7197
 10
189.3776
 20
7.7992
 10
189.2154
 20
7.8821
 10
189.0562
 20
7.9684
 10
188.8999
 20
8.058
 10
188.7466
 20
8.151
 10
188.5962
 20
8.2474
 10
188.4488
 20
8.3472
 10
188.3043
 20
8.4504
 10
188.1627
 20
8.5569
 10
188.0241
 20
8.6669
 10
187.8884
 20
8.7802
 10
187.7557
 20
8.8969
 10
187.6259
 20
9.017
 10
187.4973
 20
9.1423
 10
187.372
 20
9.271
 10
187.2504
 20
9.4028
 10
187.1324
 20
9.5376
 10
187.0181
 20
9.6756
 10
186.9075
 20
9.8165
 10
186.8005
 20
9.9606
 10
186.6973
 20
10.1077
 10
186.5976
 20
10.2579
 10
186.5017
 20
10.4111
 10
186.4094
 20
10.5675
 10
186.3208
 20
10.7268
 10
186.2359
 20
10.8893
 10
186.1546
 20
11.0548
 10
186.077
 20
11.2234
 10
186.0031
 20
11.395
 10
185.9329
 20
11.5697
 10
185.8663
 20
11.7475
 10
185.8034
 20
11.9284
 10
185.7442
 20
12.1123
 10
185.6886
 20
12.2993
 10
185.6367
 20
12.4893
 10
185.5885
 20
12.6824
 10
185.5439
 20
12.8786
 10
185.5031
 20
13.0779
 10
185.4658
 20
13.2802
 10
185.4323
 20
13.4856
 10
185.4024
 20
13.694
 10
185.3762
 20
13.9055
 10
185.3537
 20
14.1201
 10
185.3349
 20
14.3377
 10
185.3197
 20
14.5585
 10
185.3082
 20
14.7822
 10
185.3003
 20
15.0091
 10
185.2961
 20
15.239
 10
185.2956
 20
15.4723
 10
185.2985
 20
15.7051
 10
185.3047
 20
15.9349
 10
185.3143
 20
16.1615
 10
185.3272
 20
16.3851
 10
185.3435
 20
16.6057
 10
185.3631
 20
16.8231
 10
185.386
 20
17.0375
 10
185.4123
 20
17.2489
 10
185.442
 20
17.4572
 10
185.475
 20
17.6624
 10
185.5113
 20
17.8645
 10
185.551
 20
18.0636
 10
185.594
 20
18.2596
 10
185.6403
 20
18.4525
 10
185.69
 20
18.6424
 10
185.7431
 20
18.8292
 10
185.7995
 20
19.0129
 10
185.8592
 20
19.1936
 10
185.9223
 20
19.3712
 10
185.9887
 20
19.5458
 10
186.0585
 20
19.7172
 10
186.1316
 20
19.8856
 10
186.208
 20
20.051
 10
186.2878
 20
20.2132
 10
186.371
 20
20.3724
 10
186.4574
 20
20.5286
 10
186.5473
 20
20.6817
 10
186.6404
 20
20.8317
 10
186.737
 20
20.9786
 10
186.8368
 20
21.1225
 10
186.94
 20
21.2633
 10
187.0466
 20
21.401
 10
187.1565
 20
21.5357
 10
187.2708
 20
21.6685
 10
187.3976
 20
21.808
 10
187.5277
 20
21.9428
 10
187.6611
 20
22.0732
 10
187.7977
 20
22.199
 10
187.9375
 20
22.3203
 10
188.0806
 20
22.4371
 10
188.2269
 20
22.5494
 10
188.3765
 20
22.6571
 10
188.5294
 20
22.7604
 10
188.6855
 20
22.859
 10
188.8448
 20
22.9532
 10
189.0074
 20
23.0429
 10
189.1733
 20
23.128
 10
189.3424
 20
23.2086
 10
189.5147
 20
23.2847
 10
189.6903
 20
23.3562
 10
189.8692
 20
23.4233
 10
190.0513
 20
23.4858
 10
190.2366
 20
23.5438
 10
190.4252
 20
23.5972
 10
190.6171
 20
23.6462
 10
190.8122
 20
23.6906
 10
191.0105
 20
23.7305
 10
191.2121
 20
23.7659
 10
191.417
 20
23.7967
 10
191.6251
 20
23.8231
 10
191.8365
 20
23.8449
 10
192.0511
 20
23.8622
 10
192.2689
 20
23.8749
 10
192.49
 20
23.8831
 10
192.7144
 20
23.8869
 10
192.9421
 20
23.886
 10
193.1674
 20
23.8807
 10
193.3893
 20
23.8708
 10
193.6078
 20
23.8563
 10
193.8227
 20
23.8374
 10
194.0342
 20
23.8138
 10
194.2423
 20
23.7857
 10
194.4469
 20
23.7531
 10
194.648
 20
23.716
 10
194.8457
 20
23.6742
 10
195.0399
 20
23.628
 10
195.2306
 20
23.5772
 10
195.4179
 20
23.5219
 10
195.6017
 20
23.462
 10
195.7821
 20
23.3975
 10
195.959
 20
23.3286
 10
196.1324
 20
23.2551
 10
196.3024
 20
23.177
 10
196.4689
 20
23.0944
 10
196.632
 20
23.0072
 10
196.7916
 20
22.9155
 10
196.9477
 20
22.8193
 10
197.1004
 20
22.7185
 10
197.2497
 20
22.6132
 10
197.3954
 20
22.5033
 10
197.5377
 20
22.3889
 10
197.6766
 20
22.27
 10
197.8119
 20
22.1465
 10
197.9439
 20
22.0184
 10
198.0723
 20
21.8858
 10
198.1908
 20
21.756
 10
198.3025
 20
21.6261
 10
198.4106
 20
21.4928
 10
198.5151
 20
21.3561
 10
198.6161
 20
21.2158
 10
198.7135
 20
21.0721
 10
198.8074
 20
20.9248
 10
198.8977
 20
20.7741
 10
198.9845
 20
20.6199
 10
199.0677
 20
20.4623
 10
199.1473
 20
20.3011
 10
199.2234
 20
20.1365
 10
199.296
 20
19.9684
 10
199.3649
 20
19.7968
 10
199.4304
 20
19.6217
 10
199.4922
 20
19.4431
 10
199.5506
 20
19.2611
 10
199.6053
 20
19.0755
 10
199.6565
 20
18.8865
 10
199.7042
 20
18.6941
 10
199.7482
 20
18.4981
 10
199.7888
 20
18.2986
 10
199.8258
 20
18.0957
 10
199.8592
 20
17.8893
 10
199.8891
 20
17.6794
 10
199.9154
 20
17.466
 10
199.9381
 20
17.2491
 10
199.9573
 20
17.0288
 10
199.973
 20
16.805
 10
199.9851
 20
16.5777
 10
199.9936
 20
16.3469
 10
199.9986
 20
16.1126
 10
200.0
 20
15.8779
 10
199.999
 20
15.6708
 10
199.9965
 20
15.466
 10
199.9924
 20
15.2636
 10
199.9867
 20
15.0636
 10
199.9794
 20
14.8659
 10
199.9705
 20
14.6706
 10
199.9601
 20
14.4777
 10
199.9481
 20
14.2871
 10
199.9344
 20
14.0989
 10
199.9192
 20
13.9131
 10
199.8591
 20
13.7739
 10
199.6631
 20
13.7739
 10
199.4671
 20
13.7739
 10
199.2712
 20
13.7739
 10
199.0752
 20
13.7739
 10
198.8792
 20
13.7739
 10
198.6833
 20
13.7739
 10
198.4873
 20
13.7739
 10
198.2913
 20
13.7739
 10
198.0953
 20
13.7739
 10
197.8994
 20
13.7739
 10
197.7034
 20
13.7739
 10
197.5074
 20
13.7739
 10
197.3115
 20
13.7739
 10
197.1155
 20
13.7739
 10
196.9195
 20
13.7739
 10
196.7235
 20
13.7739
 10
196.5276
 20
13.7739
 10
196.3316
 20
13.7739
 10
196.1356
 20
13.7739
 10
195.9397
 20
13.7739
 10
195.7437
 20
13.7739
 10
195.5477
 20
13.7739
 10
195.3517
 20
13.7739
 10
195.1558
 20
13.7739
 10
194.9598
 20
13.7739
 10
194.7638
 20
13.7739
 10
194.5679
 20
13.7739
 10
194.3719
 20
13.7739
 10
194.1759
 20
13.7739
 10
193.98
 20
13.7739
 10
193.784
 20
13.7739
 10
193.588
 20
13.7739
 10
193.392
 20
13.7739
 10
193.1961
 20
13.7739
 10
193.0001
 20
13.7739
 10
192.8041
 20
13.7739
 10
192.6082
 20
13.7739
 10
192.4122
 20
13.7739
 10
192.2162
 20
13.7739
 10
192.0202
 20
13.7739
 10
191.8243
 20
13.7739
 10
191.6283
 20
13.7739
 10
191.4323
 20
13.7739
 10
191.2364
 20
13.7739
 10
191.0404
 20
13.7739
 10
190.8444
 20
13.7739
 10
190.6484
 20
13.7739
 10
190.4525
 20
13.7739
 10
190.2565
 20
13.7739
 10
190.0605
 20
13.7739
 10
189.8646
 20
13.7739
 10
189.6686
 20
13.7739
 10
189.4726
 20
13.7739
  0
LWPOLYLINE
  5
3C
330
17
100
AcDbEntity
  8
OUTLINE
100
AcDbPolyline
 90
100
 70
1
 10
189.0517
 20
16.6597
 10
189.0381
 20
16.535
 10
189.1705
 20
16.535
 10
189.3664
 20
16.535
 10
189.5624
 20
16.535
 10
189.7584
 20
16.535
 10
189.9543
 20
16.535
 10
190.1503
 20
16.535
 10
190.3463
 20
16.535
 10
190.5423
 20
16.535
 10
190.7382
 20
16.535
 10
190.9342
 20
16.535
 10
191.1302
 20
16.535
 10
191.3261
 20
16.535
 10
191.5221
 20
16.535
 10
191.7181
 20
16.535
 10
191.9141
 20
16.535
 10
192.11
 20
16.535
 10
192.306
 20
16.535
 10
192.502
 20
16.535
 10
192.6979
 20
16.535
 10
192.8939
 20
16.535
 10
193.0899
 20
16.535
 10
193.2859
 20
16.535
 10
193.4818
 20
16.535
 10
193.6778
 20
16.535
 10
193.8738
 20
16.535
 10
194.0697
 20
16.535
 10
194.2657
 20
16.535
 10
194.4617
 20
16.535
 10
194.6577
 20
16.535
 10
194.8536
 20
16.535
 10
195.0496
 20
16.535
 10
195.2456
 20
16.535
 10
195.4415
 20
16.535
 10
195.6375
 20
16.535
 10
195.8335
 20
16.535
 10
196.0295
 20
16.535
 10
196.2254
 20
16.535
 10
196.3386
 20
16.6337
 10
196.3318
 20
16.8643
 10
196.3175
 20
17.088
 10
196.2959
 20
17.3047
 10
196.2668
 20
17.5145
 10
196.2303
 20
17.7175
 10
196.1864
 20
17.9134
 10
196.1351
 20
18.1025
 10
196.0763
 20
18.2846
 10
196.0101
 20
18.4599
 10
195.9366
 20
18.6282
 10
195.8555
 20
18.7895
 10
195.7671
 20
18.944
 10
195.6713
 20
19.0915
 10
195.568
 20
19.2321
 10
195.4573
 20
19.3658
 10
195.3336
 20
19.4983
 10
195.199
 20
19.6261
 10
195.0574
 20
19.7444
 10
194.9091
 20
19.8533
 10
194.754
 20
19.9528
 10
194.592
 20
20.0428
 10
194.4232
 20
20.1233
 10
194.2476
 20
20.1945
 10
194.0651
 20
20.2562
 10
193.8758
 20
20.3085
 10
193.6798
 20
20.3513
 10
193.4768
 20
20.3847
 10
193.2671
 20
20.4087
 10
193.0505
 20
20.4232
 10
192.8272
 20
20.4283
 10
192.6083
 20
20.4239
 10
192.3956
 20
20.4101
 10
192.189
 20
20.3868
 10
191.9884
 20
20.3541
 10
191.7937
 20
20.3118
 10
191.6051
 20
20.2602
 10
191.4224
 20
20.199
 10
191.2458
 20
20.1284
 10
191.0752
 20
20.0483
 10
190.9105
 20
19.9587
 10
190.7519
 20
19.8597
 10
190.5993
 20
19.7512
 10
190.4527
 20
19.6332
 10
190.312
 20
19.5058
 10
190.1774
 20
19.3689
 10
190.0488
 20
19.2226
 10
189.9372
 20
19.0814
 10
189.8396
 20
18.945
 10
189.7472
 20
18.803
 10
189.6601
 20
18.6553
 10
189.5783
 20
18.502
 10
189.5018
 20
18.3431
 10
189.4306
 20
18.1786
 10
189.3647
 20
18.0084
 10
189.3041
 20
17.8326
 10
189.2488
 20
17.6512
 10
189.1988
 20
17.4642
 10
189.1541
 20
17.2715
 10
189.1147
 20
17.0732
 10
189.0806
 20
16.8693
  0
LWPOLYLINE
  5
3D
330
17
100
AcDbEntity
  8
OUTLINE
100
AcDbPolyline
 90
432
 70
1
 10
176.3069
 20
6.8266
 10
176.1397
 20
6.8254
 10
175.9733
 20
6.825
 10
175.7685
 20
6.8262
 10
175.5659
 20
6.8299
 10
175.3655
 20
6.836
 10
175.1674
 20
6.8446
 10
174.9714
 20
6.8556
 10
174.7776
 20
6.8691
 10
174.5861
 20
6.885
 10
174.3968
 20
6.9034
 10
174.2096
 20
6.9242
 10
174.0247
 20
6.9474
 10
173.842
 20
6.9731
 10
173.6615
 20
7.0013
 10
173.4832
 20
7.0319
 10
173.3071
 20
7.065
 10
173.1332
 20
7.1005
 10
172.9616
 20
7.1384
 10
172.7921
 20
7.1788
 10
172.6248
 20
7.2217
 10
172.4598
 20
7.267
 10
172.297
 20
7.3148
 10
172.1363
 20
7.365
 10
171.9779
 20
7.4176
 10
171.8217
 20
7.4727
 10
171.6677
 20
7.5302
 10
171.5159
 20
7.5902
 10
171.3663
 20
7.6527
 10
171.2189
 20
7.7176
 10
171.0737
 20
7.7849
 10
170.9308
 20
7.8547
 10
170.79
 20
7.927
 10
170.6515
 20
8.0016
 10
170.5151
 20
8.0788
 10
170.381
 20
8.1584
 10
170.2491
 20
8.2404
 10
170.1193
 20
8.3249
 10
169.9918
 20
8.4118
 10
169.8665
 20
8.5012
 10
169.7434
 20
8.593
 10
169.6226
 20
8.6873
 10
169.5039
 20
8.784
 10
169.3874
 20
8.8832
 10
169.2731
 20
8.9848
 10
169.1588
 20
9.0911
 10
169.0449
 20
9.2019
 10
168.9339
 20
9.315
 10
168.8257
 20
9.4303
 10
168.7205
 20
9.5481
 10
168.618
 20
9.6681
 10
168.5185
 20
9.7905
 10
168.4218
 20
9.9151
 10
168.328
 20
10.0421
 10
168.237
 20
10.1715
 10
168.1489
 20
10.3031
 10
168.0636
 20
10.4371
 10
167.9813
 20
10.5734
 10
167.9018
 20
10.712
 10
167.8251
 20
10.8529
 10
167.7513
 20
10.9962
 10
167.6804
 20
11.1418
 10
167.6123
 20
11.2897
 10
167.5471
 20
11.4399
 10
167.4848
 20
11.5924
 10
167.4253
 20
11.7473
 10
167.3687
 20
11.9045
 10
167.315
 20
12.064
 10
167.2641
 20
12.2258
 10
167.2161
 20
12.39
 10
167.1709
 20
12.5565
 10
167.1286
 20
12.7253
 10
167.0892
 20
12.8964
 10
167.0526
 20
13.0698
 10
167.0189
 20
13.2456
 10
166.9881
 20
13.4237
 10
166.9601
 20
13.6041
 10
166.935
 20
13.7868
 10
166.9128
 20
13.9718
 10
166.8934
 20
14.1592
 10
166.8769
 20
14.3489
 10
166.8632
 20
14.5409
 10
166.8524
 20
14.7353
 10
166.8445
 20
14.9319
 10
166.8394
 20
15.1309
 10
166.8372
 20
15.3322
 10
166.8378
 20
15.5343
 10
166.8412
 20
15.7342
 10
166.8474
 20
15.9317
 10
166.8564
 20
16.1271
 10
166.8682
 20
16.3201
 10
166.8827
 20
16.5109
 10
166.9001
 20
16.6994
 10
166.9202
 20
16.8856
 10
166.943
 20
17.0696
 10
166.9687
 20
17.2513
 10
166.9972
 20
17.4307
 10
167.0284
 20
17.6078
 10
167.0624
 20
17.7827
 10
167.0992
 20
17.9553
 10
167.1388
 20
18.1256
 10
167.1811
 20
18.2937
 10
167.2262
 20
18.4595
 10
167.2742
 20
18.623
 10
167.3248
 20
18.7842
 10
167.3783
 20
18.9432
 10
167.4346
 20
19.0999
 10
167.4936
 20
19.2543
 10
167.5554
 20
19.4065
 10
167.62
 20
19.5564
 10
167.6874
 20
19.704
 10
167.7576
 20
19.8493
 10
167.8305
 20
19.9924
 10
167.9062
 20
20.1332
 10
167.9847
 20
20.2717
 10
168.066
 20
20.408
 10
168.1501
 20
20.5419
 10
168.2369
 20
20.6737
 10
168.3265
 20
20.8031
 10
168.419
 20
20.9303
 10
168.5141
 20
21.0551
 10
168.6121
 20
21.1778
 10
168.7129
 20
21.2981
 10
168.8164
 20
21.4162
 10
168.9227
 20
21.532
 10
169.0318
 20
21.6455
 10
169.1428
 20
21.7559
 10
169.2561
 20
21.8634
 10
169.3717
 20
21.9681
 10
169.4897
 20
22.07
 10
169.6101
 20
22.1692
 10
169.7328
 20
22.2655
 10
169.8579
 20
22.3591
 10
169.9853
 20
22.4499
 10
170.1151
 20
22.5379
 10
170.2472
 20
22.6232
 10
170.3817
 20
22.7056
 10
170.5186
 20
22.7853
 10
170.6578
 20
22.8622
 10
170.7993
 20
22.9363
 10
170.9433
 20
23.0077
 10
171.0895
 20
23.0762
 10
171.2382
 20
23.142
 10
171.3892
 20
23.205
 10
171.5425
 20
23.2652
 10
171.6982
 20
23.3226
 10
171.8563
 20
23.3773
 10
172.0167
 20
23.4291
 10
172.1795
 20
23.4782
 10
172.3446
 20
23.5245
 10
172.5121
 20
23.568
 10
172.682
 20
23.6088
 10
172.8542
 20
23.6467
 10
173.0287
 20
23.6819
 10
173.2056
 20
23.7143
 10
173.3849
 20
23.7439
 10
173.5665
 20
23.7707
 10
173.7505
 20
23.7948
 10
173.9369
 20
23.8161
 10
174.1256
 20
23.8346
 10
174.3166
 20
23.8503
 10
174.51
 20
23.8632
 10
174.7058
 20
23.8733
 10
174.9039
 20
23.8807
 10
175.1044
 20
23.8853
 10
175.3072
 20
23.8871
 10
175.5015
 20
23.8861
 10
175.6921
 20
23.8822
 10
175.8804
 20
23.8754
 10
176.0667
 20
23.8658
 10
176.2507
 20
23.8534
 10
176.4326
 20
23.8381
 10
176.6123
 20
23.8199
 10
176.7899
 20
23.7988
 10
176.9653
 20
23.7749
 10
177.1385
 20
23.7481
 10
177.3096
 20
23.7185
 10
177.4785
 20
23.686
 10
177.6452
 20
23.6507
 10
177.8097
 20
23.6124
 10
177.9721
 20
23.5713
 10
178.1324
 20
23.5274
 10
178.2904
 20
23.4806
 10
178.4463
 20
23.4309
 10
178.6001
 20
23.3784
 10
178.7517
 20
23.323
 10
178.9011
 20
23.2647
 10
179.0483
 20
23.2036
 10
179.1934
 20
23.1396
 10
179.3363
 20
23.0728
 10
179.477
 20
23.0031
 10
179.6165
 20
22.93
 10
179.776
 20
22.8414
 10
179.9312
 20
22.7495
 10
180.0822
 20
22.6543
 10
180.2289
 20
22.5559
 10
180.3713
 20
22.4542
 10
180.5094
 20
22.3493
 10
180.6432
 20
22.2412
 10
180.7727
 20
22.1297
 10
180.898
 20
22.0151
 10
181.019
 20
21.8971
 10
181.1357
 20
21.776
 10
181.2481
 20
21.6515
 10
181.3563
 20
21.5238
 10
181.4602
 20
21.3929
 10
181.5597
 20
21.2587
 10
181.655
 20
21.1213
 10
181.7461
 20
20.9806
 10
181.8328
 20
20.8366
 10
181.9153
 20
20.6894
 10
181.9935
 20
20.539
 10
182.0674
 20
20.3853
 10
182.1195
 20
20.2329
 10
181.9844
 20
20.1274
 10
181.8494
 20
20.0219
 10
181.7144
 20
19.9164
 10
181.5794
 20
19.8109
 10
181.4444
 20
19.7054
 10
181.3093
 20
19.5999
 10
181.1743
 20
19.4944
 10
181.0393
 20
19.389
 10
180.9043
 20
19.2835
 10
180.7693
 20
19.178
 10
180.6342
 20
19.0725
 10
180.4992
 20
18.967
 10
180.3642
 20
18.8615
 10
180.2292
 20
18.756
 10
180.0942
 20
18.6505
 10
179.9591
 20
18.545
 10
179.8241
 20
18.4395
 10
179.6891
 20
18.334
 10
179.5541
 20
18.2285
 10
179.4191
 20
18.1231
 10
179.2865
 20
18.0337
 10
179.1894
 20
18.1843
 10
179.0887
 20
18.3299
 10
178.9842
 20
18.4707
 10
178.8761
 20
18.6067
 10
178.7643
 20
18.7377
 10
178.6488
 20
18.8638
 10
178.5296
 20
18.9851
 10
178.4068
 20
19.1014
 10
178.2802
 20
19.2129
 10
178.15
 20
19.3195
 10
178.0161
 20
19.4212
 10
177.8785
 20
19.518
 10
177.7372
 20
19.6099
 10
177.5923
 20
19.6969
 10
177.443
 20
19.7794
 10
177.2911
 20
19.8564
 10
177.1371
 20
19.9274
 10
176.9811
 20
19.9925
 10
176.823
 20
20.0517
 10
176.6628
 20
20.105
 10
176.5006
 20
20.1524
 10
176.3362
 20
20.1939
 10
176.1699
 20
20.2295
 10
176.0014
 20
20.2592
 10
175.8309
 20
20.283
 10
175.6583
 20
20.3008
 10
175.4836
 20
20.3128
 10
175.3068
 20
20.3189
 10
175.1188
 20
20.319
 10
174.9231
 20
20.3136
 10
174.7315
 20
20.3026
 10
174.5441
 20
20.2861
 10
174.3609
 20
20.2639
 10
174.1819
 20
20.2363
 10
174.007
 20
20.203
 10
173.8363
 20
20.1642
 10
173.6698
 20
20.1198
 10
173.5074
 20
20.0698
 10
173.3493
 20
20.0143
 10
173.1953
 20
19.9532
 10
173.0455
 20
19.8866
 10
172.8998
 20
19.8144
 10
172.7583
 20
19.7366
 10
172.6211
 20
19.6533
 10
172.4879
 20
19.5644
 10
172.359
 20
19.4699
 10
172.2342
 20
19.3698
 10
172.1136
 20
19.2642
 10
171.9972
 20
19.1531
 10
171.8871
 20
19.0386
 10
171.7855
 20
18.9237
 10
171.6886
 20
18.8045
 10
171.5964
 20
18.6811
 10
171.509
 20
18.5535
 10
171.4264
 20
18.4216
 10
171.3484
 20
18.2855
 10
171.2752
 20
18.1451
 10
171.2068
 20
18.0005
 10
171.1431
 20
17.8516
 10
171.0841
 20
17.6985
 10
171.0299
 20
17.5412
 10
170.9804
 20
17.3796
 10
170.9356
 20
17.2138
 10
170.8956
 20
17.0438
 10
170.8603
 20
16.8695
 10
170.8298
 20
16.6909
 10
170.804
 20
16.5082
 10
170.7829
 20
16.3211
 10
170.7666
 20
16.1299
 10
170.755
 20
15.9344
 10
170.7482
 20
15.7346
 10
170.7461
 20
15.5308
 10
170.7488
 20
15.3291
 10
170.7562
 20
15.1313
 10
170.7684
 20
14.9375
 10
170.7854
 20
14.7476
 10
170.8071
 20
14.5616
 10
170.8337
 20
14.3795
 10
170.865
 20
14.2014
 10
170.901
 20
14.0273
 10
170.9419
 20
13.857
 10
170.9875
 20
13.6907
 10
171.0379
 20
13.5283
 10
171.0931
 20
13.3698
 10
171.153
 20
13.2153
 10
171.2178
 20
13.0647
 10
171.2873
 20
12.9181
 10
171.3615
 20
12.7753
 10
171.4406
 20
12.6365
 10
171.5244
 20
12.5017
 10
171.613
 20
12.3707
 10
171.7064
 20
12.2437
 10
171.8045
 20
12.1207
 10
171.9074
 20
12.0015
 10
172.0151
 20
11.8863
 10
172.1276
 20
11.775
 10
172.2422
 20
11.6699
 10
172.3571
 20
11.5721
 10
172.4757
 20
11.4781
 10
172.5979
 20
11.388
 10
172.7239
 20
11.3018
 10
172.8535
 20
11.2196
 10
172.9869
 20
11.1412
 10
173.1239
 20
11.0667
 10
173.2647
 20
10.9962
 10
173.4091
 20
10.9295
 10
173.5572
 20
10.8667
 10
173.709
 20
10.8078
 10
173.8645
 20
10.7529
 10
174.0238
 20
10.7018
 10
174.1867
 20
10.6546
 10
174.3533
 20
10.6113
 10
174.5235
 20
10.572
 10
174.6975
 20
10.5365
 10
174.8752
 20
10.5049
 10
175.0566
 20
10.4772
 10
175.2417
 20
10.4535
 10
175.4304
 20
10.4336
 10
175.6229
 20
10.4176
 10
175.819
 20
10.4056
 10
176.0189
 20
10.3974
 10
176.2224
 20
10.3931
 10
176.4148
 20
10.3925
 10
176.5864
 20
10.3936
 10
176.7579
 20
10.396
 10
176.9294
 20
10.3996
 10
177.1007
 20
10.4045
 10
177.2719
 20
10.4106
 10
177.443
 20
10.418
 10
177.6141
 20
10.4266
 10
177.7851
 20
10.4365
 10
177.9559
 20
10.4476
 10
178.1267
 20
10.46
 10
178.2974
 20
10.4736
 10
178.468
 20
10.4885
 10
178.6393
 20
10.5047
 10
178.8128
 20
10.5221
 10
178.9857
 20
10.5405
 10
179.1579
 20
10.5598
 10
179.3295
 20
10.5801
 10
179.5004
 20
10.6013
 10
179.6706
 20
10.6234
 10
179.8403
 20
10.6464
 10
180.0092
 20
10.6704
 10
180.1775
 20
10.6953
 10
180.3452
 20
10.7211
 10
180.5122
 20
10.7479
 10
180.6786
 20
10.7756
 10
180.8029
 20
10.7477
 10
180.8224
 20
10.5774
 10
180.842
 20
10.4072
 10
180.8616
 20
10.237
 10
180.8812
 20
10.0668
 10
180.9007
 20
9.8965
 10
180.9203
 20
9.7263
 10
180.9399
 20
9.5561
 10
180.9595
 20
9.3859
 10
180.979
 20
9.2157
 10
180.9986
 20
9.0454
 10
181.0182
 20
8.8752
 10
181.0378
 20
8.705
 10
181.0573
 20
8.5348
 10
181.0769
 20
8.3645
 10
181.0965
 20
8.1943
 10
181.1161
 20
8.0241
 10
181.1356
 20
7.8539
 10
181.1552
 20
7.6837
 10
181.1748
 20
7.5134
 10
181.1944
 20
7.3432
 10
181.0878
 20
7.2656
 10
180.9234
 20
7.2311
 10
180.7583
 20
7.1983
 10
180.5923
 20
7.167
 10
180.4256
 20
7.1373
 10
180.2581
 20
7.1092
 10
180.0898
 20
7.0827
 10
179.9207
 20
7.0577
 10
179.7509
 20
7.0342
 10
179.5802
 20
7.0124
 10
179.4088
 20
6.9921
 10
179.2366
 20
6.9734
 10
179.0636
 20
6.9562
 10
178.8898
 20
6.9407
 10
178.7153
 20
6.9267
 10
178.5398
 20
6.9142
 10
178.364
 20
6.9027
 10
178.189
 20
6.892
 10
178.0146
 20
6.8821
 10
177.8408
 20
6.873
 10
177.6677
 20
6.8646
 10
177.4953
 20
6.8571
 10
177.3235
 20
6.8504
 10
177.1524
 20
6.8444
 10
176.982
 20
6.8393
 10
176.8122
 20
6.8349
 10
176.6431
 20
6.8313
 10
176.4747
 20
6.8286
  0
LWPOLYLINE
  5
3E
330
17
100
AcDbEntity
  8
OUTLINE
100
AcDbPolyline
 90
366
 70
1
 10
96.7116
 20
15.0229
 10
96.7116
 20
14.6881
 10
96.7116
 20
14.3533
 10
96.7116
 20
14.0185
 10
96.7116
 20
13.6836
 10
96.7116
 20
13.3488
 10
96.7116
 20
13.014
 10
96.7116
 20
12.6791
 10
96.7116
 20
12.3443
 10
96.7116
 20
12.0095
 10
96.7116
 20
11.6746
 10
96.7116
 20
11.3398
 10
96.7116
 20
11.005
 10
96.7116
 20
10.6701
 10
96.7116
 20
10.3353
 10
96.7116
 20
10.0005
 10
96.7116
 20
9.6656
 10
96.7116
 20
9.3308
 10
96.7116
 20
8.996
 10
96.7116
 20
8.6612
 10
96.7116
 20
8.3263
 10
96.7116
 20
7.9915
 10
96.7116
 20
7.6567
 10
96.7116
 20
7.3218
 10
96.5634
 20
7.1352
 10
96.2286
 20
7.1352
 10
95.8938
 20
7.1352
 10
95.5589
 20
7.1352
 10
95.2241
 20
7.1352
 10
94.8893
 20
7.1352
 10
94.5544
 20
7.1352
 10
94.2196
 20
7.1352
 10
93.8848
 20
7.1352
 10
93.5499
 20
7.1352
 10
93.2151
 20
7.1352
 10
92.8803
 20
7.1352
 10
92.8803
 20
7.47
 10
92.8803
 20
7.8049
 10
92.8803
 20
8.1397
 10
92.8803
 20
8.4745
 10
92.8803
 20
8.8094
 10
92.8803
 20
9.1442
 10
92.8803
 20
9.479
 10
92.8803
 20
9.8139
 10
92.8803
 20
10.1487
 10
92.8803
 20
10.4835
 10
92.8803
 20
10.8184
 10
92.8803
 20
11.1532
 10
92.8803
 20
11.488
 10
92.8803
 20
11.8229
 10
92.8803
 20
12.1577
 10
92.8803
 20
12.4925
 10
92.8803
 20
12.8273
 10
92.8803
 20
13.1622
 10
92.8803
 20
13.497
 10
92.8803
 20
13.8318
 10
92.8803
 20
14.1667
 10
92.8803
 20
14.5015
 10
92.8803
 20
14.8363
 10
92.8803
 20
15.1712
 10
92.8803
 20
15.506
 10
92.8803
 20
15.8408
 10
92.8803
 20
16.1757
 10
92.8803
 20
16.5105
 10
92.8803
 20
16.8453
 10
92.8803
 20
17.1801
 10
92.8803
 20
17.515
 10
92.8803
 20
17.8498
 10
92.8803
 20
18.1846
 10
92.8803
 20
18.5195
 10
92.8803
 20
18.8543
 10
92.8803
 20
19.1891
 10
92.8803
 20
19.524
 10
92.8803
 20
19.8588
 10
92.8803
 20
20.1936
 10
92.8803
 20
20.5285
 10
92.8803
 20
20.8633
 10
92.8803
 20
21.1981
 10
92.8803
 20
21.533
 10
92.8803
 20
21.8678
 10
92.8803
 20
22.2026
 10
92.8803
 20
22.5374
 10
92.8803
 20
22.8723
 10
92.8803
 20
23.2071
 10
92.8803
 20
23.5419
 10
93.1802
 20
23.5769
 10
93.515
 20
23.5769
 10
93.8498
 20
23.5769
 10
94.1847
 20
23.5769
 10
94.5195
 20
23.5769
 10
94.8543
 20
23.5769
 10
95.1892
 20
23.5769
 10
95.524
 20
23.5769
 10
95.8588
 20
23.5769
 10
96.1937
 20
23.5769
 10
96.3465
 20
23.3734
 10
96.3836
 20
23.0406
 10
96.4208
 20
22.7079
 10
96.4579
 20
22.3751
 10
96.4951
 20
22.0423
 10
96.5322
 20
21.7096
 10
96.5694
 20
21.3768
 10
96.6065
 20
21.0441
 10
96.6437
 20
20.7113
 10
96.6562
 20
20.5989
 10
96.7916
 20
20.5989
 10
96.99
 20
20.5989
 10
97.0988
 20
20.7217
 10
97.1333
 20
20.9483
 10
97.1757
 20
21.1663
 10
97.2259
 20
21.3759
 10
97.284
 20
21.577
 10
97.3499
 20
21.7695
 10
97.4237
 20
21.9536
 10
97.5054
 20
22.1292
 10
97.5949
 20
22.2963
 10
97.6923
 20
22.4548
 10
97.7976
 20
22.6049
 10
97.9107
 20
22.7465
 10
98.0317
 20
22.8796
 10
98.1606
 20
23.0042
 10
98.2923
 20
23.1163
 10
98.4251
 20
23.2154
 10
98.5659
 20
23.3077
 10
98.7147
 20
23.3932
 10
98.8715
 20
23.4718
 10
99.0362
 20
23.5437
 10
99.2089
 20
23.6087
 10
99.3897
 20
23.6669
 10
99.5784
 20
23.7183
 10
99.7751
 20
23.7629
 10
99.9798
 20
23.8006
 10
100.1924
 20
23.8315
 10
100.4131
 20
23.8557
 10
100.6417
 20
23.873
 10
100.8784
 20
23.8834
 10
101.123
 20
23.8871
 10
101.3529
 20
23.8842
 10
101.5775
 20
23.8751
 10
101.7975
 20
23.8597
 10
102.0128
 20
23.8381
 10
102.2234
 20
23.8103
 10
102.4294
 20
23.7762
 10
102.6308
 20
23.7359
 10
102.8275
 20
23.6893
 10
103.0196
 20
23.6365
 10
103.207
 20
23.5775
 10
103.3898
 20
23.5122
 10
103.5679
 20
23.4407
 10
103.7414
 20
23.363
 10
103.9102
 20
23.279
 10
104.0743
 20
23.1888
 10
104.2339
 20
23.0924
 10
104.3887
 20
22.9897
 10
104.539
 20
22.8807
 10
104.6845
 20
22.7656
 10
104.8255
 20
22.6442
 10
104.9617
 20
22.5166
 10
105.0933
 20
22.3827
 10
105.2165
 20
22.247
 10
105.3299
 20
22.112
 10
105.4385
 20
21.9725
 10
105.5421
 20
21.8286
 10
105.6409
 20
21.6802
 10
105.7348
 20
21.5274
 10
105.8239
 20
21.3701
 10
105.908
 20
21.2083
 10
105.9873
 20
21.0421
 10
106.0617
 20
20.8715
 10
106.1312
 20
20.6964
 10
106.1958
 20
20.5168
 10
106.2556
 20
20.3328
 10
106.3105
 20
20.1443
 10
106.3605
 20
19.9514
 10
106.4056
 20
19.754
 10
106.4458
 20
19.5522
 10
106.4812
 20
19.3459
 10
106.5117
 20
19.1352
 10
106.5373
 20
18.92
 10
106.558
 20
18.7003
 10
106.5738
 20
18.4762
 10
106.5848
 20
18.2476
 10
106.5909
 20
18.0146
 10
106.5922
 20
17.7875
 10
106.5922
 20
17.5891
 10
106.5922
 20
17.3907
 10
106.5922
 20
17.1923
 10
106.5922
 20
16.9939
 10
106.5922
 20
16.7955
 10
106.5922
 20
16.5971
 10
106.5922
 20
16.3987
 10
106.5922
 20
16.2003
 10
106.5922
 20
16.0018
 10
106.5922
 20
15.8034
 10
106.5922
 20
15.605
 10
106.5922
 20
15.4066
 10
106.5922
 20
15.2082
 10
106.5922
 20
15.0098
 10
106.5922
 20
14.8114
 10
106.5922
 20
14.613
 10
106.5922
 20
14.4146
 10
106.5922
 20
14.2162
 10
106.5922
 20
14.0178
 10
106.5922
 20
13.8194
 10
106.5922
 20
13.621
 10
106.5922
 20
13.4226
 10
106.5922
 20
13.2242
 10
106.5922
 20
13.0258
 10
106.5922
 20
12.8273
 10
106.5922
 20
12.6289
 10
106.5922
 20
12.4305
 10
106.5922
 20
12.2321
 10
106.5922
 20
12.0337
 10
106.5922
 20
11.8353
 10
106.5922
 20
11.6369
 10
106.5922
 20
11.4385
 10
106.5922
 20
11.2401
 10
106.5922
 20
11.0417
 10
106.5922
 20
10.8433
 10
106.5922
 20
10.6449
 10
106.5922
 20
10.4465
 10
106.5922
 20
10.2481
 10
106.5922
 20
10.0497
 10
106.5922
 20
9.8513
 10
106.5922
 20
9.6529
 10
106.5922
 20
9.4544
 10
106.5922
 20
9.256
 10
106.5922
 20
9.0576
 10
106.5922
 20
8.8592
 10
106.5922
 20
8.6608
 10
106.5922
 20
8.4624
 10
106.5922
 20
8.264
 10
106.5922
 20
8.0656
 10
106.5922
 20
7.8672
 10
106.5922
 20
7.6688
 10
106.5922
 20
7.4704
 10
106.5922
 20
7.272
 10
106.5306
 20
7.1352
 10
106.3322
 20
7.1352
 10
106.1338
 20
7.1352
 10
105.9354
 20
7.1352
 10
105.737
 20
7.1352
 10
105.5386
 20
7.1352
 10
105.3401
 20
7.1352
 10
105.1417
 20
7.1352
 10
104.9433
 20
7.1352
 10
104.7449
 20
7.1352
 10
104.5465
 20
7.1352
 10
104.3481
 20
7.1352
 10
104.1497
 20
7.1352
 10
103.9513
 20
7.1352
 10
103.7529
 20
7.1352
 10
103.5545
 20
7.1352
 10
103.3561
 20
7.1352
 10
103.1577
 20
7.1352
 10
102.9593
 20
7.1352
 10
102.7609
 20
7.1352
 10
102.7609
 20
7.3336
 10
102.7609
 20
7.532
 10
102.7609
 20
7.7304
 10
102.7609
 20
7.9288
 10
102.7609
 20
8.1272
 10
102.7609
 20
8.3257
 10
102.7609
 20
8.5241
 10
102.7609
 20
8.7225
 10
102.7609
 20
8.9209
 10
102.7609
 20
9.1193
 10
102.7609
 20
9.3177
 10
102.7609
 20
9.5161
 10
102.7609
 20
9.7145
 10
102.7609
 20
9.9129
 10
102.7609
 20
10.1113
 10
102.7609
 20
10.3097
 10
102.7609
 20
10.5081
 10
102.7609
 20
10.7065
 10
102.7609
 20
10.9049
 10
102.7609
 20
11.1033
 10
102.7609
 20
11.3017
 10
102.7609
 20
11.5001
 10
102.7609
 20
11.6986
 10
102.7609
 20
11.897
 10
102.7609
 20
12.0954
 10
102.7609
 20
12.2938
 10
102.7609
 20
12.4922
 10
102.7609
 20
12.6906
 10
102.7609
 20
12.889
 10
102.7609
 20
13.0874
 10
102.7609
 20
13.2858
 10
102.7609
 20
13.4842
 10
102.7609
 20
13.6826
 10
102.7609
 20
13.881
 10
102.7609
 20
14.0794
 10
102.7609
 20
14.2778
 10
102.7609
 20
14.4762
 10
102.7609
 20
14.6746
 10
102.7609
 20
14.8731
 10
102.7609
 20
15.0715
 10
102.7609
 20
15.2699
 10
102.7609
 20
15.4683
 10
102.7609
 20
15.6667
 10
102.7609
 20
15.8651
 10
102.7609
 20
16.0635
 10
102.7609
 20
16.2619
 10
102.7609
 20
16.4603
 10
102.7609
 20
16.6587
 10
102.7609
 20
16.8571
 10
102.7609
 20
17.0555
 10
102.7607
 20
17.2617
 10
102.7546
 20
17.4973
 10
102.7394
 20
17.7238
 10
102.7153
 20
17.9413
 10
102.6822
 20
18.1499
 10
102.6401
 20
18.3495
 10
102.589
 20
18.54
 10
102.529
 20
18.7216
 10
102.4599
 20
18.8942
 10
102.3818
 20
19.0578
 10
102.2948
 20
19.2124
 10
102.1988
 20
19.358
 10
102.0938
 20
19.4946
 10
101.9669
 20
19.6356
 10
101.8286
 20
19.7654
 10
101.6807
 20
19.8816
 10
101.5235
 20
19.9841
 10
101.3568
 20
20.073
 10
101.1806
 20
20.1482
 10
100.995
 20
20.2098
 10
100.8
 20
20.2577
 10
100.5955
 20
20.292
 10
100.3816
 20
20.3127
 10
100.1582
 20
20.3197
 10
99.9515
 20
20.3156
 10
99.7514
 20
20.303
 10
99.5577
 20
20.282
 10
99.3704
 20
20.2526
 10
99.1895
 20
20.2147
 10
99.0149
 20
20.1684
 10
98.8467
 20
20.1136
 10
98.6849
 20
20.0504
 10
98.5295
 20
19.9787
 10
98.3804
 20
19.8986
 10
98.2377
 20
19.8101
 10
98.1014
 20
19.7131
 10
97.9715
 20
19.6077
 10
97.8479
 20
19.4938
 10
97.7308
 20
19.3715
 10
97.62
 20
19.2407
 10
97.5155
 20
19.1015
 10
97.4175
 20
18.9539
 10
97.3258
 20
18.7978
 10
97.2405
 20
18.6332
 10
97.1616
 20
18.4603
 10
97.089
 20
18.2788
 10
97.0228
 20
18.089
 10
96.963
 20
17.8907
 10
96.9096
 20
17.6839
 10
96.8625
 20
17.4687
 10
96.8219
 20
17.2451
 10
96.7876
 20
17.013
 10
96.7596
 20
16.7725
 10
96.7381
 20
16.5235
 10
96.7229
 20
16.2661
 10
96.7141
 20
16.0002
 10
96.7116
 20
15.9245
 10
96.7116
 20
15.6926
 10
96.7116
 20
15.3578
  0
LWPOLYLINE
  5
3F
330
17
100
AcDbEntity
  8
OUTLINE
100
AcDbPolyline
 90
648
 70
1
 10
117.9598
 20
6.8285
 10
117.7757
 20
6.8259
 10
117.5894
 20
6.825
 10
117.434
 20
6.8255
 10
117.2792
 20
6.8271
 10
117.1249
 20
6.8298
 10
116.9712
 20
6.8335
 10
116.8181
 20
6.8383
 10
116.6655
 20
6.8442
 10
116.5135
 20
6.8511
 10
116.362
 20
6.8591
 10
116.2111
 20
6.8682
 10
116.0608
 20
6.8784
 10
115.911
 20
6.8896
 10
115.7618
 20
6.9018
 10
115.6131
 20
6.9152
 10
115.465
 20
6.9296
 10
115.3174
 20
6.9451
 10
115.1705
 20
6.9616
 10
115.024
 20
6.9792
 10
114.8782
 20
6.9979
 10
114.7329
 20
7.0176
 10
114.5881
 20
7.0384
 10
114.4439
 20
7.0603
 10
114.3003
 20
7.0833
 10
114.1572
 20
7.1073
 10
114.0147
 20
7.1324
 10
113.8589
 20
7.1611
 10
113.7026
 20
7.1914
 10
113.5476
 20
7.2229
 10
113.3941
 20
7.2555
 10
113.2418
 20
7.2893
 10
113.091
 20
7.3244
 10
112.9414
 20
7.3606
 10
112.7933
 20
7.398
 10
112.6465
 20
7.4366
 10
112.501
 20
7.4764
 10
112.3569
 20
7.5174
 10
112.2142
 20
7.5595
 10
112.0728
 20
7.6029
 10
111.9328
 20
7.6474
 10
111.7941
 20
7.6931
 10
111.6568
 20
7.74
 10
111.5209
 20
7.7881
 10
111.3863
 20
7.8374
 10
111.253
 20
7.8879
 10
111.1211
 20
7.9396
 10
110.9906
 20
7.9925
 10
110.8929
 20
8.0665
 10
110.9124
 20
8.2148
 10
110.932
 20
8.3632
 10
110.9515
 20
8.5116
 10
110.971
 20
8.66
 10
110.9906
 20
8.8084
 10
111.0101
 20
8.9568
 10
111.0296
 20
9.1052
 10
111.0492
 20
9.2536
 10
111.0687
 20
9.402
 10
111.0882
 20
9.5503
 10
111.1078
 20
9.6987
 10
111.1273
 20
9.8471
 10
111.1468
 20
9.9955
 10
111.1664
 20
10.1439
 10
111.1859
 20
10.2923
 10
111.2054
 20
10.4407
 10
111.225
 20
10.5891
 10
111.2445
 20
10.7375
 10
111.264
 20
10.8858
 10
111.2836
 20
11.0342
 10
111.3031
 20
11.1826
 10
111.3226
 20
11.331
 10
111.3422
 20
11.4794
 10
111.3617
 20
11.6278
 10
111.3812
 20
11.7762
 10
111.5023
 20
11.7542
 10
111.6466
 20
11.6941
 10
111.7906
 20
11.6352
 10
111.9344
 20
11.5777
 10
112.078
 20
11.5213
 10
112.2214
 20
11.4662
 10
112.3645
 20
11.4124
 10
112.5074
 20
11.3598
 10
112.6501
 20
11.3085
 10
112.7926
 20
11.2584
 10
112.9348
 20
11.2096
 10
113.0768
 20
11.162
 10
113.2186
 20
11.1157
 10
113.3602
 20
11.0706
 10
113.5015
 20
11.0268
 10
113.6426
 20
10.9842
 10
113.7835
 20
10.9429
 10
113.9242
 20
10.9028
 10
114.0647
 20
10.864
 10
114.2049
 20
10.8265
 10
114.3449
 20
10.7901
 10
114.4847
 20
10.7551
 10
114.6242
 20
10.7213
 10
114.7672
 20
10.6879
 10
114.9237
 20
10.6528
 10
115.0794
 20
10.6194
 10
115.2342
 20
10.5878
 10
115.3882
 20
10.5579
 10
115.5413
 20
10.5297
 10
115.6936
 20
10.5033
 10
115.845
 20
10.4786
 10
115.9956
 20
10.4556
 10
116.1453
 20
10.4344
 10
116.2942
 20
10.415
 10
116.4423
 20
10.3972
 10
116.5895
 20
10.3812
 10
116.7358
 20
10.3669
 10
116.8813
 20
10.3544
 10
117.0259
 20
10.3436
 10
117.1697
 20
10.3345
 10
117.3127
 20
10.3272
 10
117.4548
 20
10.3216
 10
117.596
 20
10.3177
 10
117.7364
 20
10.3156
 10
117.8897
 20
10.3153
 10
118.076
 20
10.3179
 10
118.2575
 20
10.324
 10
118.4343
 20
10.3335
 10
118.6064
 20
10.3465
 10
118.7738
 20
10.3629
 10
118.9364
 20
10.3827
 10
119.0943
 20
10.4059
 10
119.2475
 20
10.4326
 10
119.396
 20
10.4627
 10
119.5397
 20
10.4962
 10
119.6787
 20
10.5331
 10
119.813
 20
10.5735
 10
119.9426
 20
10.6173
 10
120.0674
 20
10.6646
 10
120.1876
 20
10.7153
 10
120.303
 20
10.7694
 10
120.4136
 20
10.8269
 10
120.5196
 20
10.8879
 10
120.6208
 20
10.9523
 10
120.7364
 20
11.0344
 10
120.8535
 20
11.1285
 10
120.9621
 20
11.2281
 10
121.0623
 20
11.333
 10
121.154
 20
11.4435
 10
121.2372
 20
11.5593
 10
121.312
 20
11.6806
 10
121.3784
 20
11.8073
 10
121.4363
 20
11.9394
 10
121.4857
 20
12.077
 10
121.5267
 20
12.22
 10
121.5592
 20
12.3684
 10
121.5833
 20
12.5223
 10
121.599
 20
12.6815
 10
121.6062
 20
12.8462
 10
121.6051
 20
13.0007
 10
121.5965
 20
13.145
 10
121.5803
 20
13.2862
 10
121.5566
 20
13.4242
 10
121.5254
 20
13.5591
 10
121.4867
 20
13.6909
 10
121.4405
 20
13.8195
 10
121.3867
 20
13.945
 10
121.3255
 20
14.0673
 10
121.2567
 20
14.1865
 10
121.1804
 20
14.3026
 10
121.0966
 20
14.4155
 10
121.0052
 20
14.5252
 10
120.9064
 20
14.6319
 10
120.8
 20
14.7353
 10
120.6861
 20
14.8357
 10
120.5647
 20
14.9329
 10
120.4358
 20
15.0269
 10
120.2994
 20
15.1178
 10
120.1554
 20
15.2056
 10
120.0039
 20
15.2902
 10
119.8449
 20
15.3717
 10
119.6857
 20
15.4473
 10
119.5505
 20
15.5115
 10
119.4153
 20
15.5758
 10
119.2801
 20
15.64
 10
119.145
 20
15.7042
 10
119.0098
 20
15.7685
 10
118.8746
 20
15.8327
 10
118.7394
 20
15.897
 10
118.6042
 20
15.9612
 10
118.469
 20
16.0254
 10
118.3338
 20
16.0897
 10
118.1987
 20
16.1539
 10
118.0635
 20
16.2181
 10
117.9283
 20
16.2824
 10
117.7931
 20
16.3466
 10
117.6579
 20
16.4108
 10
117.5227
 20
16.4751
 10
117.3876
 20
16.5393
 10
117.2524
 20
16.6035
 10
117.1172
 20
16.6678
 10
116.982
 20
16.732
 10
116.8468
 20
16.7962
 10
116.7116
 20
16.8605
 10
116.5765
 20
16.9247
 10
116.4413
 20
16.9889
 10
116.3061
 20
17.0532
 10
116.1559
 20
17.1247
 10
116.0053
 20
17.1984
 10
115.857
 20
17.2733
 10
115.7111
 20
17.3494
 10
115.5676
 20
17.4266
 10
115.4264
 20
17.5049
 10
115.2876
 20
17.5843
 10
115.1511
 20
17.6649
 10
115.017
 20
17.7466
 10
114.8852
 20
17.8294
 10
114.7558
 20
17.9134
 10
114.6288
 20
17.9985
 10
114.504
 20
18.0847
 10
114.3817
 20
18.1721
 10
114.2617
 20
18.2606
 10
114.144
 20
18.3503
 10
114.0287
 20
18.441
 10
113.9158
 20
18.5329
 10
113.8052
 20
18.626
 10
113.6969
 20
18.7202
 10
113.591
 20
18.8155
 10
113.4875
 20
18.9119
 10
113.3863
 20
19.0095
 10
113.2875
 20
19.1082
 10
113.191
 20
19.208
 10
113.0969
 20
19.309
 10
113.0051
 20
19.4111
 10
112.9157
 20
19.5144
 10
112.8286
 20
19.6188
 10
112.7439
 20
19.7243
 10
112.6529
 20
19.8426
 10
112.563
 20
19.9652
 10
112.4768
 20
20.0891
 10
112.3941
 20
20.2145
 10
112.315
 20
20.3412
 10
112.2395
 20
20.4693
 10
112.1675
 20
20.5988
 10
112.0992
 20
20.7297
 10
112.0343
 20
20.8619
 10
111.9731
 20
20.9955
 10
111.9154
 20
21.1305
 10
111.8613
 20
21.2669
 10
111.8108
 20
21.4046
 10
111.7638
 20
21.5437
 10
111.7205
 20
21.6842
 10
111.6806
 20
21.8261
 10
111.6444
 20
21.9693
 10
111.6117
 20
22.114
 10
111.5826
 20
22.26
 10
111.5571
 20
22.4073
 10
111.5352
 20
22.5561
 10
111.5168
 20
22.7062
 10
111.502
 20
22.8577
 10
111.4907
 20
23.0106
 10
111.4831
 20
23.1648
 10
111.479
 20
23.3205
 10
111.4784
 20
23.4828
 10
111.4812
 20
23.6538
 10
111.4873
 20
23.8224
 10
111.4968
 20
23.9887
 10
111.5095
 20
24.1526
 10
111.5255
 20
24.3142
 10
111.5449
 20
24.4735
 10
111.5675
 20
24.6304
 10
111.5934
 20
24.785
 10
111.6227
 20
24.9372
 10
111.6552
 20
25.0871
 10
111.6911
 20
25.2347
 10
111.7302
 20
25.3799
 10
111.7727
 20
25.5228
 10
111.8184
 20
25.6633
 10
111.8675
 20
25.8015
 10
111.9198
 20
25.9374
 10
111.9755
 20
26.0709
 10
112.0345
 20
26.202
 10
112.0968
 20
26.3308
 10
112.1623
 20
26.4573
 10
112.2312
 20
26.5815
 10
112.3034
 20
26.7033
 10
112.3789
 20
26.8227
 10
112.4577
 20
26.9398
 10
112.5397
 20
27.0546
 10
112.6251
 20
27.167
 10
112.7138
 20
27.2771
 10
112.8058
 20
27.3849
 10
112.9011
 20
27.4903
 10
112.9997
 20
27.5933
 10
113.1017
 20
27.6941
 10
113.2069
 20
27.7924
 10
113.3154
 20
27.8885
 10
113.4156
 20
27.9726
 10
113.5179
 20
28.0544
 10
113.6225
 20
28.1339
 10
113.7292
 20
28.2111
 10
113.8382
 20
28.2861
 10
113.9494
 20
28.3587
 10
114.0628
 20
28.429
 10
114.1785
 20
28.497
 10
114.2963
 20
28.5628
 10
114.4164
 20
28.6262
 10
114.5387
 20
28.6873
 10
114.6632
 20
28.7462
 10
114.7899
 20
28.8027
 10
114.9188
 20
28.857
 10
115.05
 20
28.9089
 10
115.1833
 20
28.9586
 10
115.3189
 20
29.0059
 10
115.4567
 20
29.051
 10
115.5968
 20
29.0938
 10
115.739
 20
29.1343
 10
115.8834
 20
29.1725
 10
116.0301
 20
29.2083
 10
116.179
 20
29.2419
 10
116.3301
 20
29.2732
 10
116.4834
 20
29.3022
 10
116.6389
 20
29.3289
 10
116.7967
 20
29.3533
 10
116.9567
 20
29.3754
 10
117.1188
 20
29.3953
 10
117.2832
 20
29.4128
 10
117.4499
 20
29.428
 10
117.6187
 20
29.4409
 10
117.7897
 20
29.4516
 10
117.963
 20
29.4599
 10
118.1385
 20
29.466
 10
118.3162
 20
29.4697
 10
118.4961
 20
29.4712
 10
118.6578
 20
29.4704
 10
118.8156
 20
29.4678
 10
118.9724
 20
29.4631
 10
119.1283
 20
29.4565
 10
119.2833
 20
29.4479
 10
119.4373
 20
29.4374
 10
119.5903
 20
29.4249
 10
119.7424
 20
29.4104
 10
119.8936
 20
29.394
 10
120.0438
 20
29.3756
 10
120.193
 20
29.3553
 10
120.3413
 20
29.333
 10
120.4887
 20
29.3087
 10
120.6351
 20
29.2824
 10
120.7806
 20
29.2542
 10
120.9251
 20
29.2241
 10
121.0686
 20
29.1919
 10
121.2113
 20
29.1579
 10
121.3529
 20
29.1218
 10
121.4936
 20
29.0838
 10
121.6334
 20
29.0438
 10
121.7722
 20
29.0019
 10
121.9101
 20
28.958
 10
122.047
 20
28.9121
 10
122.183
 20
28.8643
 10
122.318
 20
28.8145
 10
122.4531
 20
28.7623
 10
122.5891
 20
28.7074
 10
122.7243
 20
28.6503
 10
122.8585
 20
28.5912
 10
122.9919
 20
28.53
 10
123.1243
 20
28.4667
 10
123.2559
 20
28.4013
 10
123.3866
 20
28.3338
 10
123.5163
 20
28.2642
 10
123.6452
 20
28.1925
 10
123.7732
 20
28.1187
 10
123.9002
 20
28.0429
 10
124.0264
 20
27.9649
 10
124.1517
 20
27.8848
 10
124.2761
 20
27.8027
 10
124.3995
 20
27.7184
 10
124.5221
 20
27.6321
 10
124.6438
 20
27.5437
 10
124.7646
 20
27.4532
 10
124.8845
 20
27.3606
 10
125.0035
 20
27.2658
 10
125.1216
 20
27.169
 10
125.2387
 20
27.0702
 10
125.355
 20
26.9692
 10
125.4704
 20
26.8661
 10
125.5849
 20
26.7609
 10
125.617
 20
26.6525
 10
125.5164
 20
26.5416
 10
125.4159
 20
26.4308
 10
125.3154
 20
26.3199
 10
125.2149
 20
26.209
 10
125.1143
 20
26.0981
 10
125.0138
 20
25.9872
 10
124.9133
 20
25.8764
 10
124.8127
 20
25.7655
 10
124.7122
 20
25.6546
 10
124.6117
 20
25.5437
 10
124.5111
 20
25.4328
 10
124.4106
 20
25.3219
 10
124.3101
 20
25.2111
 10
124.2096
 20
25.1002
 10
124.109
 20
24.9893
 10
124.0085
 20
24.8784
 10
123.908
 20
24.7675
 10
123.8074
 20
24.6567
 10
123.7069
 20
24.5458
 10
123.6064
 20
24.4349
 10
123.5059
 20
24.324
 10
123.4053
 20
24.2131
 10
123.3048
 20
24.1023
 10
123.2043
 20
23.9914
 10
123.1037
 20
23.8805
 10
122.9792
 20
23.9737
 10
122.853
 20
24.0815
 10
122.7272
 20
24.1863
 10
122.6018
 20
24.2882
 10
122.4768
 20
24.3872
 10
122.3522
 20
24.4833
 10
122.2279
 20
24.5764
 10
122.1041
 20
24.6667
 10
121.9807
 20
24.7539
 10
121.8576
 20
24.8383
 10
121.7349
 20
24.9197
 10
121.6127
 20
24.9982
 10
121.4908
 20
25.0738
 10
121.3693
 20
25.1465
 10
121.2483
 20
25.2162
 10
121.1276
 20
25.283
 10
121.0073
 20
25.3468
 10
120.8874
 20
25.4078
 10
120.7658
 20
25.4667
 10
120.621
 20
25.5331
 10
120.4762
 20
25.5951
 10
120.3315
 20
25.6526
 10
120.1869
 20
25.7057
 10
120.0423
 20
25.7543
 10
119.8978
 20
25.7985
 10
119.7533
 20
25.8382
 10
119.6089
 20
25.8735
 10
119.4646
 20
25.9044
 10
119.3204
 20
25.9308
 10
119.1762
 20
25.9528
 10
119.0321
 20
25.9703
 10
118.8881
 20
25.9834
 10
118.7441
 20
25.9921
 10
118.6002
 20
25.9963
 10
118.4364
 20
25.9959
 10
118.2603
 20
25.9906
 10
118.0892
 20
25.9801
 10
117.9231
 20
25.9645
 10
117.7621
 20
25.9438
 10
117.6062
 20
25.918
 10
117.4553
 20
25.8872
 10
117.3094
 20
25.8512
 10
117.1686
 20
25.8101
 10
117.0328
 20
25.7639
 10
116.9021
 20
25.7126
 10
116.7764
 20
25.6562
 10
116.6558
 20
25.5946
 10
116.5402
 20
25.528
 10
116.4297
 20
25.4563
 10
116.3242
 20
25.3795
 10
116.2184
 20
25.2929
 10
116.1139
 20
25.1955
 10
116.0171
 20
25.0925
 10
115.9282
 20
24.9836
 10
115.847
 20
24.869
 10
115.7737
 20
24.7486
 10
115.7081
 20
24.6224
 10
115.6504
 20
24.4905
 10
115.6005
 20
24.3528
 10
115.5583
 20
24.2093
 10
115.5239
 20
24.06
 10
115.4974
 20
23.905
 10
115.4786
 20
23.7442
 10
115.4677
 20
23.5777
 10
115.4645
 20
23.4071
 10
115.4699
 20
23.2524
 10
115.4842
 20
23.1011
 10
115.5074
 20
22.9532
 10
115.5396
 20
22.8087
 10
115.5808
 20
22.6676
 10
115.631
 20
22.53
 10
115.6901
 20
22.3957
 10
115.7581
 20
22.2649
 10
115.8352
 20
22.1374
 10
115.9212
 20
22.0134
 10
116.0159
 20
21.893
 10
116.1013
 20
21.7949
 10
116.1921
 20
21.6984
 10
116.2884
 20
21.6033
 10
116.3902
 20
21.5097
 10
116.4975
 20
21.4176
 10
116.6102
 20
21.3269
 10
116.7285
 20
21.2378
 10
116.8522
 20
21.1501
 10
116.9815
 20
21.0639
 10
117.1162
 20
20.9792
 10
117.2564
 20
20.896
 10
117.4021
 20
20.8143
 10
117.5533
 20
20.7341
 10
117.6942
 20
20.6632
 10
117.8282
 20
20.5965
 10
117.9622
 20
20.5298
 10
118.0962
 20
20.4632
 10
118.2302
 20
20.3965
 10
118.3642
 20
20.3298
 10
118.4982
 20
20.2631
 10
118.6322
 20
20.1965
 10
118.7662
 20
20.1298
 10
118.9002
 20
20.0631
 10
119.0342
 20
19.9964
 10
119.1682
 20
19.9298
 10
119.3022
 20
19.8631
 10
119.4362
 20
19.7964
 10
119.5702
 20
19.7297
 10
119.7042
 20
19.6631
 10
119.8382
 20
19.5964
 10
119.9722
 20
19.5297
 10
120.1062
 20
19.463
 10
120.2402
 20
19.3964
 10
120.3742
 20
19.3297
 10
120.5082
 20
19.263
 10
120.6422
 20
19.1963
 10
120.7891
 20
19.123
 10
120.9416
 20
19.045
 10
121.0918
 20
18.9662
 10
121.2396
 20
18.8867
 10
121.385
 20
18.8064
 10
121.528
 20
18.7253
 10
121.6687
 20
18.6435
 10
121.807
 20
18.5608
 10
121.9429
 20
18.4774
 10
122.0764
 20
18.3932
 10
122.2076
 20
18.3082
 10
122.3364
 20
18.2224
 10
122.4629
 20
18.1359
 10
122.5869
 20
18.0485
 10
122.7086
 20
17.9604
 10
122.8279
 20
17.8715
 10
122.9449
 20
17.7818
 10
123.0595
 20
17.6914
 10
123.1717
 20
17.6002
 10
123.2815
 20
17.5081
 10
123.389
 20
17.4153
 10
123.494
 20
17.3218
 10
123.5968
 20
17.2274
 10
123.6971
 20
17.1323
 10
123.7951
 20
17.0363
 10
123.8907
 20
16.9396
 10
123.9839
 20
16.8421
 10
124.0747
 20
16.7439
 10
124.1632
 20
16.6448
 10
124.2493
 20
16.545
 10
124.3339
 20
16.4435
 10
124.4299
 20
16.3229
 10
124.5221
 20
16.2009
 10
124.6106
 20
16.0775
 10
124.6952
 20
15.9526
 10
124.776
 20
15.8263
 10
124.853
 20
15.6986
 10
124.9262
 20
15.5695
 10
124.9956
 20
15.4389
 10
125.0612
 20
15.307
 10
125.1229
 20
15.1736
 10
125.1809
 20
15.0387
 10
125.235
 20
14.9025
 10
125.2854
 20
14.7648
 10
125.3319
 20
14.6257
 10
125.3746
 20
14.4852
 10
125.4136
 20
14.3432
 10
125.4487
 20
14.1999
 10
125.48
 20
14.0551
 10
125.5074
 20
13.9088
 10
125.5311
 20
13.7612
 10
125.551
 20
13.6121
 10
125.567
 20
13.4616
 10
125.5793
 20
13.3097
 10
125.5877
 20
13.1564
 10
125.5924
 20
13.0016
 10
125.5932
 20
12.8411
 10
125.5905
 20
12.6706
 10
125.5843
 20
12.5026
 10
125.5747
 20
12.337
 10
125.5617
 20
12.1737
 10
125.5452
 20
12.0129
 10
125.5252
 20
11.8544
 10
125.5018
 20
11.6983
 10
125.475
 20
11.5446
 10
125.4447
 20
11.3933
 10
125.411
 20
11.2444
 10
125.3738
 20
11.0978
 10
125.3331
 20
10.9537
 10
125.289
 20
10.8119
 10
125.2415
 20
10.6725
 10
125.1905
 20
10.5355
 10
125.1361
 20
10.4009
 10
125.0782
 20
10.2687
 10
125.0169
 20
10.1389
 10
124.9521
 20
10.0114
 10
124.8839
 20
9.8863
 10
124.8122
 20
9.7637
 10
124.737
 20
9.6434
 10
124.6585
 20
9.5255
 10
124.5764
 20
9.4099
 10
124.491
 20
9.2968
 10
124.4021
 20
9.1861
 10
124.3097
 20
9.0777
 10
124.2139
 20
8.9717
 10
124.1146
 20
8.8682
 10
124.0119
 20
8.767
 10
123.9057
 20
8.6681
 10
123.7961
 20
8.5717
 10
123.683
 20
8.4777
 10
123.5665
 20
8.386
 10
123.466
 20
8.3109
 10
123.3656
 20
8.2393
 10
123.2631
 20
8.1695
 10
123.1584
 20
8.1014
 10
123.0516
 20
8.0351
 10
122.9426
 20
7.9706
 10
122.8315
 20
7.9078
 10
122.7182
 20
7.8468
 10
122.6028
 20
7.7876
 10
122.4853
 20
7.7301
 10
122.3656
 20
7.6745
 10
122.2437
 20
7.6205
 10
122.1197
 20
7.5684
 10
121.9936
 20
7.518
 10
121.8653
 20
7.4694
 10
121.7348
 20
7.4225
 10
121.6022
 20
7.3774
 10
121.4675
 20
7.3341
 10
121.3306
 20
7.2926
 10
121.1916
 20
7.2528
 10
121.0504
 20
7.2148
 10
120.9071
 20
7.1786
 10
120.7616
 20
7.1441
 10
120.614
 20
7.1114
 10
120.4642
 20
7.0804
 10
120.3123
 20
7.0513
 10
120.1582
 20
7.0239
 10
120.002
 20
6.9982
 10
119.8436
 20
6.9744
 10
119.6831
 20
6.9523
 10
119.5204
 20
6.9319
 10
119.3556
 20
6.9134
 10
119.1887
 20
6.8966
 10
119.0196
 20
6.8816
 10
118.8483
 20
6.8683
 10
118.6749
 20
6.8568
 10
118.4994
 20
6.8471
 10
118.3217
 20
6.8391
 10
118.1418
 20
6.8329
  0
ENDSEC
  0
SECTION
  2
OBJECTS
  0
DICTIONARY
  5
A
330
0
100
AcDbDictionary
281
1
  3
ACAD_COLOR
350
B
  3
ACAD_GROUP
350
C
  3
ACAD_LAYOUT
350
D
  3
ACAD_MATERIAL
350
E
  3
ACAD_MLEADERSTYLE
350
F
  3
ACAD_MLINESTYLE
350
10
  3
ACAD_PLOTSETTINGS
350
11
  3
ACAD_PLOTSTYLENAME
350
12
  3
ACAD_SCALELIST
350
14
  3
ACAD_TABLESTYLE
350
15
  3
ACAD_VISUALSTYLE
350
16
  3
EZDXF_META
350
2D
  0
DICTIONARY
  5
B
330
A
100
AcDbDictionary
281
1
  0
DICTIONARY
  5
C
330
A
100
AcDbDictionary
281
1
  0
DICTIONARY
  5
D
330
A
100
AcDbDictionary
281
1
  3
Model
350
1A
  3
Layout1
350
1E
  0
DICTIONARY
  5
E
330
A
100
AcDbDictionary
281
1
  3
ByBlock
350
1F
  3
ByLayer
350
20
  3
Global
350
21
  0
DICTIONARY
  5
F
330
A
100
AcDbDictionary
281
1
  3
Standard
350
2C
  0
DICTIONARY
  5
10
330
A
100
AcDbDictionary
281
1
  3
Standard
350
22
  0
DICTIONARY
  5
11
330
A
100
AcDbDictionary
281
1
  0
ACDBDICTIONARYWDFLT
  5
12
330
A
100
AcDbDictionary
281
1
  3
Normal
350
13
100
AcDbDictionaryWithDefault
340
13
  0
ACDBPLACEHOLDER
  5
13
330
12
  0
DICTIONARY
  5
14
330
A
100
AcDbDictionary
281
1
  0
DICTIONARY
  5
15
330
A
100
AcDbDictionary
281
1
  0
DICTIONARY
  5
16
330
A
100
AcDbDictionary
281
1
  0
LAYOUT
  5
1A
330
D
100
AcDbPlotSettings
  1

  4
A3
  6

 40
7.5
 41
20.0
 42
7.5
 43
20.0
 44
420.0
 45
297.0
 46
0.0
 47
0.0
 48
0.0
 49
0.0
140
0.0
141
0.0
142
1.0
143
1.0
 70
1024
 72
1
 73
0
 74
5
  7

 75
16
 76
0
 77
2
 78
300
147
1.0
148
0.0
149
0.0
100
AcDbLayout
  1
Model
 70
1
 71
0
 10
0.0
 20
0.0
 11
420.0
 21
297.0
 12
0.0
 22
0.0
 32
0.0
 14
1e+20
 24
1e+20
 34
1e+20
 15
-1e+20
 25
-1e+20
 35
-1e+20
146
0.0
 13
0.0
 23
0.0
 33
0.0
 16
1.0
 26
0.0
 36
0.0
 17
0.0
 27
1.0
 37
0.0
 76
1
330
17
  0
LAYOUT
  5
1E
330
D
100
AcDbPlotSettings
  1

  4
A3
  6

 40
7.5
 41
20.0
 42
7.5
 43
20.0
 44
420.0
 45
297.0
 46
0.0
 47
0.0
 48
0.0
 49
0.0
140
0.0
141
0.0
142
1.0
143
1.0
 70
0
 72
1
 73
0
 74
5
  7

 75
16
 76
0
 77
2
 78
300
147
1.0
148
0.0
149
0.0
100
AcDbLayout
  1
Layout1
 70
1
 71
1
 10
0.0
 20
0.0
 11
420.0
 21
297.0
 12
0.0
 22
0.0
 32
0.0
 14
1e+20
 24
1e+20
 34
1e+20
 15
-1e+20
 25
-1e+20
 35
-1e+20
146
0.0
 13
0.0
 23
0.0
 33
0.0
 16
1.0
 26
0.0
 36
0.0
 17
0.0
 27
1.0
 37
0.0
 76
1
330
1B
  0
MATERIAL
  5
1F
102
{ACAD_REACTORS
330
E
102
}
330
E
100
AcDbMaterial
  1
ByBlock
  2

 70
0
 40
1.0
 71
1
 41
1.0
 91
-1023410177
 42
1.0
 72
1
  3

 73
1
 74
1
 75
1
 44
0.5
 73
0
 45
1.0
 46
1.0
 77
1
  4

 78
1
 79
1
170
1
 48
1.0
171
1
  6

172
1
173
1
174
1
140
1.0
141
1.0
175
1
  7

176
1
177
1
178
1
143
1.0
179
1
  8

270
1
271
1
272
1
145
1.0
146
1.0
273
1
  9

274
1
275
1
276
1
 42
1.0
 72
1
  3

 73
1
 74
1
 75
1
 94
63
  0
MATERIAL
  5
20
102
{ACAD_REACTORS
330
E
102
}
330
E
100
AcDbMaterial
  1
ByLayer
  2

 70
0
 40
1.0
 71
1
 41
1.0
 91
-1023410177
 42
1.0
 72
1
  3

 73
1
 74
1
 75
1
 44
0.5
 73
0
 45
1.0
 46
1.0
 77
1
  4

 78
1
 79
1
170
1
 48
1.0
171
1
  6

172
1
173
1
174
1
140
1.0
141
1.0
175
1
  7

176
1
177
1
178
1
143
1.0
179
1
  8

270
1
271
1
272
1
145
1.0
146
1.0
273
1
  9

274
1
275
1
276
1
 42
1.0
 72
1
  3

 73
1
 74
1
 75
1
 94
63
  0
MATERIAL
  5
21
102
{ACAD_REACTORS
330
E
102
}
330
E
100
AcDbMaterial
  1
Global
  2

 70
0
 40
1.0
 71
1
 41
1.0
 91
-1023410177
 42
1.0
 72
1
  3

 73
1
 74
1
 75
1
 44
0.5
 73
0
 45
1.0
 46
1.0
 77
1
  4

 78
1
 79
1
170
1
 48
1.0
171
1
  6

172
1
173
1
174
1
140
1.0
141
1.0
175
1
  7

176
1
177
1
178
1
143
1.0
179
1
  8

270
1
271
1
272
1
145
1.0
146
1.0
273
1
  9

274
1
275
1
276
1
 42
1.0
 72
1
  3

 73
1
 74
1
 75
1
 94
63
  0
MLINESTYLE
  5
22
102
{ACAD_REACTORS
330
10
102
}
330
10
100
AcDbMlineStyle
  2
Standard
 70
0
  3

 62
256
 51
90.0
 52
90.0
 71
2
 49
0.5
 62
256
  6
BYLAYER
 49
-0.5
 62
256
  6
BYLAYER
  0
MLEADERSTYLE
  5
2C
102
{ACAD_REACTORS
330
F
102
}
330
F
100
AcDbMLeaderStyle
179
2
170
2
171
1
172
0
 90
2
 40
0.0
 41
0.0
173
1
 91
-1056964608
 92
-2
290
1
 42
2.0
291
1
 43
8.0
  3
Standard
 44
4.0
300

342
29
174
1
175
1
176
0
178
1
 93
-1056964608
 45
4.0
292
0
297
0
 46
4.0
 94
-1056964608
 47
1.0
 49
1.0
140
1.0
294
1
141
0.0
177
0
142
1.0
295
0
296
0
143
3.75
271
0
272
9
273
9
  0
DICTIONARY
  5
2D
330
A
100
AcDbDictionary
280
1
281
1
  3
CREATED_BY_EZDXF
350
2E
  3
WRITTEN_BY_EZDXF
350
42
  0
DICTIONARYVAR
  5
2E
330
2D
100
DictionaryVariables
280
0
  1
0.0 @ 2000-01-01T00:00:00.000000+00:00
  0
DICTIONARYVAR
  5
42
330
2D
100
DictionaryVariables
280
0
  1
0.0 @ 2000-01-01T00:00:00.000000+00:00
  0
ENDSEC
  0
EOF
