  0
SECTION
  2
HEADER
  9
$ACADVER
  1
AC1024
  9
$ACADMAINTVER
 70
6
  9
$DWGCODEPAGE
  3
ANSI_1252
  9
$LASTSAVEDBY
  1
ezdxf
  9
$INSBASE
 10
0.0
 20
0.0
 30
0.0
  9
$EXTMIN
 10
1e+20
 20
1e+20
 30
1e+20
  9
$EXTMAX
 10
-1e+20
 20
-1e+20
 30
-1e+20
  9
$LIMMIN
 10
0.0
 20
0.0
  9
$LIMMAX
 10
420.0
 20
297.0
  9
$ORTHOMODE
 70
0
  9
$REGENMODE
 70
1
  9
$FILLMODE
 70
1
  9
$QTEXTMODE
 70
0
  9
$MIRRTEXT
 70
1
  9
$LTSCALE
 40
1.0
  9
$ATTMODE
 70
1
  9
$TEXTSIZE
 40
2.5
  9
$TRACEWID
 40
1.0
  9
$TEXTSTYLE
  7
Standard
  9
$CLAYER
  8
0
  9
$CELTYPE
  6
ByLayer
  9
$CECOLOR
 62
256
  9
$CELTSCALE
 40
1.0
  9
$DISPSILH
 70
0
  9
$DIMSCALE
 40
1.0
  9
$DIMASZ
 40
2.5
  9
$DIMEXO
 40
0.625
  9
$DIMDLI
 40
3.75
  9
$DIMRND
 40
0.0
  9
$DIMDLE
 40
0.0
  9
$DIMEXE
 40
1.25
  9
$DIMTP
 40
0.0
  9
$DIMTM
 40
0.0
  9
$DIMTXT
 40
2.5
  9
$DIMCEN
 40
2.5
  9
$DIMTSZ
 40
0.0
  9
$DIMTOL
 70
0
  9
$DIMLIM
 70
0
  9
$DIMTIH
 70
0
  9
$DIMTOH
 70
0
  9
$DIMSE1
 70
0
  9
$DIMSE2
 70
0
  9
$DIMTAD
 70
1
  9
$DIMZIN
 70
8
  9
$DIMBLK
  1

  9
$DIMASO
 70
1
  9
$DIMSHO
 70
1
  9
$DIMPOST
  1

  9
$DIMAPOST
  1

  9
$DIMALT
 70
0
  9
$DIMALTD
 70
3
  9
$DIMALTF
 40
0.03937007874
  9
$DIMLFAC
 40
1.0
  9
$DIMTOFL
 70
1
  9
$DIMTVP
 40
0.0
  9
$DIMTIX
 70
0
  9
$DIMSOXD
 70
0
  9
$DIMSAH
 70
0
  9
$DIMBLK1
  1

  9
$DIMBLK2
  1

  9
$DIMSTYLE
  2
ISO-25
  9
$DIMCLRD
 70
0
  9
$DIMCLRE
 70
0
  9
$DIMCLRT
 70
0
  9
$DIMTFAC
 40
1.0
  9
$DIMGAP
 40
0.625
  9
$DIMJUST
 70
0
  9
$DIMSD1
 70
0
  9
$DIMSD2
 70
0
  9
$DIMTOLJ
 70
0
  9
$DIMTZIN
 70
8
  9
$DIMALTZ
 70
0
  9
$DIMALTTZ
 70
0
  9
$DIMUPT
 70
0
  9
$DIMDEC
 70
2
  9
$DIMTDEC
 70
2
  9
$DIMALTU
 70
2
  9
$DIMALTTD
 70
3
  9
$DIMTXSTY
  7
Standard
  9
$DIMAUNIT
 70
0
  9
$DIMADEC
 70
0
  9
$DIMALTRND
 40
0.0
  9
$DIMAZIN
 70
0
  9
$DIMDSEP
 70
44
  9
$DIMATFIT
 70
3
  9
$DIMFRAC
 70
0
  9
$DIMLDRBLK
  1

  9
$DIMLUNIT
 70
2
  9
$DIMLWD
 70
-2
  9
$DIMLWE
 70
-2
  9
$DIMTMOVE
 70
0
  9
$DIMFXL
 40
1.0
  9
$DIMFXLON
 70
0
  9
$DIMJOGANG
 40
0.785398163397
  9
$DIMTFILL
 70
0
  9
$DIMTFILLCLR
 70
0
  9
$DIMARCSYM
 70
0
  9
$DIMLTYPE
  6

  9
$DIMLTEX1
  6

  9
$DIMLTEX2
  6

  9
$DIMTXTDIRECTION
 70
0
  9
$LUNITS
 70
2
  9
$LUPREC
 70
4
  9
$SKETCHINC
 40
1.0
  9
$FILLETRAD
 40
10.0
  9
$AUNITS
 70
0
  9
$AUPREC
 70
2
  9
$MENU
  1
.
  9
$ELEVATION
 40
0.0
  9
$PELEVATION
 40
0.0
  9
$THICKNESS
 40
0.0
  9
$LIMCHECK
 70
0
  9
$CHAMFERA
 40
0.0
  9
$CHAMFERB
 40
0.0
  9
$CHAMFERC
 40
0.0
  9
$CHAMFERD
 40
0.0
  9
$SKPOLY
 70
0
  9
$TDCREATE
 40
2451545.0
  9
$TDUCREATE
 40
2451545.0
  9
$TDUPDATE
 40
2451545.0
  9
$TDUUPDATE
 40
2451545.0
  9
$TDINDWG
 40
0.0
  9
$TDUSRTIMER
 40
0.0
  9
$USRTIMER
 70
1
  9
$ANGBASE
 50
0.0
  9
$ANGDIR
 70
0
  9
$PDMODE
 70
0
  9
$PDSIZE
 40
0.0
  9
$PLINEWID
 40
0.0
  9
$SPLFRAME
 70
0
  9
$SPLINETYPE
 70
6
  9
$SPLINESEGS
 70
8
  9
$HANDSEED
  5
5F
  9
$SURFTAB1
 70
6
  9
$SURFTAB2
 70
6
  9
$SURFTYPE
 70
6
  9
$SURFU
 70
6
  9
$SURFV
 70
6
  9
$UCSBASE
  2

  9
$UCSNAME
  2

  9
$UCSORG
 10
0.0
 20
0.0
 30
0.0
  9
$UCSXDIR
 10
1.0
 20
0.0
 30
0.0
  9
$UCSYDIR
 10
0.0
 20
1.0
 30
0.0
  9
$UCSORTHOREF
  2

  9
$UCSORTHOVIEW
 70
0
  9
$UCSORGTOP
 10
0.0
 20
0.0
 30
0.0
  9
$UCSORGBOTTOM
 10
0.0
 20
0.0
 30
0.0
  9
$UCSORGLEFT
 10
0.0
 20
0.0
 30
0.0
  9
$UCSORGRIGHT
 10
0.0
 20
0.0
 30
0.0
  9
$UCSORGFRONT
 10
0.0
 20
0.0
 30
0.0
  9
$UCSORGBACK
 10
0.0
 20
0.0
 30
0.0
  9
$PUCSBASE
  2

  9
$PUCSNAME
  2

  9
$PUCSORG
 10
0.0
 20
0.0
 30
0.0
  9
$PUCSXDIR
 10
1.0
 20
0.0
 30
0.0
  9
$PUCSYDIR
 10
0.0
 20
1.0
 30
0.0
  9
$PUCSORTHOREF
  2

  9
$PUCSORTHOVIEW
 70
0
  9
$PUCSORGTOP
 10
0.0
 20
0.0
 30
0.0
  9
$PUCSORGBOTTOM
 10
0.0
 20
0.0
 30
0.0
  9
$PUCSORGLEFT
 10
0.0
 20
0.0
 30
0.0
  9
$PUCSORGRIGHT
 10
0.0
 20
0.0
 30
0.0
  9
$PUCSORGFRONT
 10
0.0
 20
0.0
 30
0.0
  9
$PUCSORGBACK
 10
0.0
 20
0.0
 30
0.0
  9
$USERI1
 70
0
  9
$USERI2
 70
0
  9
$USERI3
 70
0
  9
$USERI4
 70
0
  9
$USERI5
 70
0
  9
$USERR1
 40
0.0
  9
$USERR2
 40
0.0
  9
$USERR3
 40
0.0
  9
$USERR4
 40
0.0
  9
$USERR5
 40
0.0
  9
$WORLDVIEW
 70
1
  9
$SHADEDGE
 70
3
  9
$SHADEDIF
 70
70
  9
$TILEMODE
 70
1
  9
$MAXACTVP
 70
64
  9
$PINSBASE
 10
0.0
 20
0.0
 30
0.0
  9
$PLIMCHECK
 70
0
  9
$PEXTMIN
 10
1e+20
 20
1e+20
 30
1e+20
  9
$PEXTMAX
 10
-1e+20
 20
-1e+20
 30
-1e+20
  9
$PLIMMIN
 10
0.0
 20
0.0
  9
$PLIMMAX
 10
420.0
 20
297.0
  9
$UNITMODE
 70
0
  9
$VISRETAIN
 70
1
  9
$PLINEGEN
 70
0
  9
$PSLTSCALE
 70
1
  9
$TREEDEPTH
 70
3020
  9
$CMLSTYLE
  2
Standard
  9
$CMLJUST
 70
0
  9
$CMLSCALE
 40
20.0
  9
$PROXYGRAPHICS
 70
1
  9
$MEASUREMENT
 70
1
  9
$CELWEIGHT
370
-1
  9
$ENDCAPS
280
0
  9
$JOINSTYLE
280
0
  9
$LWDISPLAY
290
0
  9
$INSUNITS
 70
4
  9
$HYPERLINKBASE
  1

  9
$STYLESHEET
  1

  9
$XEDIT
290
1
  9
$CEPSNTYPE
380
0
  9
$PSTYLEMODE
290
1
  9
$FINGERPRINTGUID
  2
{00000000-0000-0000-0000-000000000000}
  9
$VERSIONGUID
  2
{00000000-0000-0000-0000-000000000000}
  9
$EXTNAMES
290
1
  9
$PSVPSCALE
 40
0.0
  9
$OLESTARTUP
290
0
  9
$SORTENTS
280
127
  9
$INDEXCTL
280
0
  9
$HIDETEXT
280
1
  9
$XCLIPFRAME
280
1
  9
$HALOGAP
280
0
  9
$OBSCOLOR
 70
257
  9
$OBSLTYPE
280
0
  9
$INTERSECTIONDISPLAY
280
0
  9
$INTERSECTIONCOLOR
 70
257
  9
$DIMASSOC
280
2
  9
$PROJECTNAME
  1

  9
$CAMERADISPLAY
290
0
  9
$LENSLENGTH
 40
50.0
  9
$CAMERAHEIGHT
 40
0.0
  9
$STEPSPERSEC
 40
24.0
  9
$STEPSIZE
 40
100.0
  9
$3DDWFPREC
 40
2.0
  9
$PSOLWIDTH
 40
0.005
  9
$PSOLHEIGHT
 40
0.08
  9
$LOFTANG1
 40
1.570796326795
  9
$LOFTANG2
 40
1.570796326795
  9
$LOFTMAG1
 40
0.0
  9
$LOFTMAG2
 40
0.0
  9
$LOFTPARAM
 70
7
  9
$LOFTNORMALS
280
1
  9
$LATITUDE
 40
37.795
  9
$LONGITUDE
 40
-122.394
  9
$NORTHDIRECTION
 40
0.0
  9
$TIMEZONE
 70
-8000
  9
$LIGHTGLYPHDISPLAY
280
1
  9
$TILEMODELIGHTSYNCH
280
1
  9
$CMATERIAL
347
20
  9
$SOLIDHIST
280
0
  9
$SHOWHIST
280
1
  9
$DWFFRAME
280
2
  9
$DGNFRAME
280
2
  9
$REALWORLDSCALE
290
1
  9
$INTERFERECOLOR
 62
256
  9
$CSHADOW
280
0
  9
$SHADOWPLANELOCATION
 40
0.0
  0
ENDSEC
  0
SECTION
  2
CLASSES
  0
CLASS
  1
ACDBDICTIONARYWDFLT
  2
AcDbDictionaryWithDefault
  3
ObjectDBX Classes
 90
0
 91
0
280
0
281
0
  0
CLASS
  1
SUN
  2
AcDbSun
  3
SCENEOE
 90
1153
 91
0
280
0
281
0
  0
CLASS
  1
VISUALSTYLE
  2
AcDbVisualStyle
  3
ObjectDBX Classes
 90
4095
 91
0
280
0
281
0
  0
CLASS
  1
MATERIAL
  2
AcDbMaterial
  3
ObjectDBX Classes
 90
1153
 91
0
280
0
281
0
  0
CLASS
  1
SCALE
  2
AcDbScale
  3
ObjectDBX Classes
 90
1153
 91
0
280
0
281
0
  0
CLASS
  1
TABLESTYLE
  2
AcDbTableStyle
  3
ObjectDBX Classes
 90
4095
 91
0
280
0
281
0
  0
CLASS
  1
MLEADERSTYLE
  2
AcDbMLeaderStyle
  3
ACDB_MLEADERSTYLE_CLASS
 90
4095
 91
0
280
0
281
0
  0
CLASS
  1
DICTIONARYVAR
  2
AcDbDictionaryVar
  3
ObjectDBX Classes
 90
0
 91
0
280
0
281
0
  0
CLASS
  1
CELLSTYLEMAP
  2
AcDbCellStyleMap
  3
ObjectDBX Classes
 90
1152
 91
0
280
0
281
0
  0
CLASS
  1
MENTALRAYRENDERSETTINGS
  2
AcDbMentalRayRenderSettings
  3
SCENEOE
 90
1024
 91
0
280
0
281
0
  0
CLASS
  1
ACDBDETAILVIEWSTYLE
  2
AcDbDetailViewStyle
  3
ObjectDBX Classes
 90
1025
 91
0
280
0
281
0
  0
CLASS
  1
ACDBSECTIONVIEWSTYLE
  2
AcDbSectionViewStyle
  3
ObjectDBX Classes
 90
1025
 91
0
280
0
281
0
  0
CLASS
  1
RASTERVARIABLES
  2
AcDbRasterVariables
  3
ISM
 90
0
 91
0
280
0
281
0
  0
CLASS
  1
ACDBPLACEHOLDER
  2
AcDbPlaceHolder
  3
ObjectDBX Classes
 90
0
 91
0
280
0
281
0
  0
CLASS
  1
LAYOUT
  2
AcDbLayout
  3
ObjectDBX Classes
 90
0
 91
0
280
0
281
0
  0
ENDSEC
  0
SECTION
  2
TABLES
  0
TABLE
  2
VPORT
  5
8
330
0
100
AcDbSymbolTable
 70
1
  0
VPORT
  5
23
330
8
100
AcDbSymbolTableRecord
100
AcDbViewportTableRecord
  2
*Active
 70
0
 10
0.0
 20
0.0
 11
1.0
 21
1.0
 12
0.0
 22
0.0
 13
0.0
 23
0.0
 14
0.5
 24
0.5
 15
0.5
 25
0.5
 16
0.0
 26
0.0
 36
1.0
 17
0.0
 27
0.0
 37
0.0
 40
1000.0
 41
1.34
 42
50.0
 43
0.0
 44
0.0
 50
0.0
 51
0.0
 71
0
 72
1000
 73
1
 74
3
 75
0
 76
0
 77
0
 78
0
281
0
 65
0
146
0.0
  0
ENDTAB
  0
TABLE
  2
LTYPE
  5
2
330
0
100
AcDbSymbolTable
 70
3
  0
LTYPE
  5
24
330
2
100
AcDbSymbolTableRecord
100
AcDbLinetypeTableRecord
  2
ByBlock
 70
0
  3

 72
65
 73
0
 40
0.0
  0
LTYPE
  5
25
330
2
100
AcDbSymbolTableRecord
100
AcDbLinetypeTableRecord
  2
ByLayer
 70
0
  3

 72
65
 73
0
 40
0.0
  0
LTYPE
  5
26
330
2
100
AcDbSymbolTableRecord
100
AcDbLinetypeTableRecord
  2
Continuous
 70
0
  3

 72
65
 73
0
 40
0.0
  0
ENDTAB
  0
TABLE
  2
LAYER
  5
1
330
0
100
AcDbSymbolTable
 70
3
  0
LAYER
  5
27
330
1
100
AcDbSymbolTableRecord
100
AcDbLayerTableRecord
  2
0
 70
0
 62
7
  6
Continuous
370
-3
390
13
347
21
  0
LAYER
  5
28
330
1
100
AcDbSymbolTableRecord
100
AcDbLayerTableRecord
  2
Defpoints
 70
0
 62
7
  6
Continuous
290
0
370
-3
390
13
347
21
  0
LAYER
  5
2F
330
1
100
AcDbSymbolTableRecord
100
AcDbLayerTableRecord
  2
OUTLINE
 70
0
 62
7
  6
Continuous
370
-3
390
13
347
21
  0
ENDTAB
  0
TABLE
  2
STYLE
  5
5
330
0
100
AcDbSymbolTable
 70
1
  0
STYLE
  5
29
330
5
100
AcDbSymbolTableRecord
100
AcDbTextStyleTableRecord
  2
Standard
 70
0
 40
0.0
 41
1.0
 50
0.0
 71
0
 42
2.5
  3
txt
  4

  0
ENDTAB
  0
TABLE
  2
VIEW
  5
7
330
0
100
AcDbSymbolTable
 70
0
  0
ENDTAB
  0
TABLE
  2
UCS
  5
6
330
0
100
AcDbSymbolTable
 70
0
  0
ENDTAB
  0
TABLE
  2
APPID
  5
3
330
0
100
AcDbSymbolTable
 70
3
  0
APPID
  5
2A
330
3
100
AcDbSymbolTableRecord
100
AcDbRegAppTableRecord
  2
ACAD
 70
0
  0
APPID
  5
5C
330
3
100
AcDbSymbolTableRecord
100
AcDbRegAppTableRecord
  2
HATCHBACKGROUNDCOLOR
 70
0
  0
APPID
  5
5D
330
3
100
AcDbSymbolTableRecord
100
AcDbRegAppTableRecord
  2
EZDXF
 70
0
  0
ENDTAB
  0
TABLE
  2
DIMSTYLE
  5
4
330
0
100
AcDbSymbolTable
 70
1
100
AcDbDimStyleTable
  0
DIMSTYLE
105
2B
330
4
100
AcDbSymbolTableRecord
100
AcDbDimStyleTableRecord
  2
Standard
 70
0
 40
1.0
 41
2.5
 42
0.625
 43
3.75
 44
1.25
 45
0.0
 46
0.0
 47
0.0
 48
0.0
 49
2.5
140
2.5
141
2.5
142
0.0
143
0.03937007874
144
1.0
145
0.0
146
1.0
147
0.625
148
0.0
 69
0
 70
0
 71
0
 72
0
 73
0
 74
0
 75
0
 76
0
 77
1
 78
8
 79
3
170
0
171
3
172
1
173
0
174
0
175
0
176
0
177
0
178
0
179
2
271
2
272
2
273
2
274
3
275
0
276
0
277
2
278
44
279
0
280
0
281
0
282
0
283
0
284
8
285
0
286
0
288
0
289
3
290
0
371
-2
372
-2
  0
ENDTAB
  0
TABLE
  2
BLOCK_RECORD
  5
9
330
0
100
AcDbSymbolTable
 70
2
  0
BLOCK_RECORD
  5
17
330
9
100
AcDbSymbolTableRecord
100
AcDbBlockTableRecord
  2
*Model_Space
340
1A
 70
0
280
1
281
0
  0
BLOCK_RECORD
  5
1B
330
9
100
AcDbSymbolTableRecord
100
AcDbBlockTableRecord
  2
*Paper_Space
340
1E
 70
0
280
1
281
0
  0
ENDTAB
  0
ENDSEC
  0
SECTION
  2
BLOCKS
  0
BLOCK
  5
18
330
17
100
AcDbEntity
  8
0
100
AcDbBlockBegin
  2
*Model_Space
 70
0
 10
0.0
 20
0.0
 30
0.0
  3
*Model_Space
  1

  0
ENDBLK
  5
19
330
17
100
AcDbEntity
  8
0
100
AcDbBlockEnd
  0
BLOCK
  5
1C
330
1B
100
AcDbEntity
  8
0
100
AcDbBlockBegin
  2
*Paper_Space
 70
0
 10
0.0
 20
0.0
 30
0.0
  3
*Paper_Space
  1

  0
ENDBLK
  5
1D
330
1B
100
AcDbEntity
  8
0
100
AcDbBlockEnd
  0
ENDSEC
  0
SECTION
  2
ENTITIES
  0
SPLINE
  5
30
330
17
100
AcDbEntity
  8
OUTLINE
100
AcDbSpline
 70
0
 71
3
 72
8
 73
4
 74
0
 40
0.0
 40
0.0
 40
0.0
 40
0.0
 40
1.0
 40
1.0
 40
1.0
 40
1.0
 10
13.52744603285676
 20
13.502914113949577
 30
0.0
 10
13.535658568901773
 20
13.494701577904564
 30
0.0
 10
13.541766176152144
 20
13.452772926869976
 30
0.0
 10
13.54344661327482
 20
13.420158565582247
 30
0.0
  0
SPLINE
  5
31
330
17
100
AcDbEntity
  8
OUTLINE
100
AcDbSpline
 70
0
 71
3
 72
8
 73
4
 74
0
 40
0.0
 40
0.0
 40
0.0
 40
0.0
 40
1.0
 40
1.0
 40
1.0
 40
1.0
 10
13.54344661327482
 20
13.420158565582247
 30
0.0
 10
13.549212209508081
 20
13.308258372439973
 30
0.0
 10
13.525110530470709
 20
13.15382859878179
 30
0.0
 10
13.500018494609455
 20
13.029679392577345
 30
0.0
  0
SPLINE
  5
32
330
17
100
AcDbEntity
  8
OUTLINE
100
AcDbSpline
 70
0
 71
3
 72
8
 73
4
 74
0
 40
0.0
 40
0.0
 40
0.0
 40
0.0
 40
1.0
 40
1.0
 40
1.0
 40
1.0
 10
13.500018494609455
 20
13.029679392577345
 30
0.0
 10
13.427965057661659
 20
12.673176753619124
 30
0.0
 10
13.297167121578381
 20
12.277489996267235
 30
0.0
 10
13.147694237512006
 20
11.880016870816178
 30
0.0
  0
SPLINE
  5
33
330
17
100
AcDbEntity
  8
OUTLINE
100
AcDbSpline
 70
0
 71
3
 72
8
 73
4
 74
0
 40
0.0
 40
0.0
 40
0.0
 40
0.0
 40
1.0
 40
1.0
 40
1.0
 40
1.0
 10
13.147694237512006
 20
11.880016870816178
 30
0.0
 10
12.841782008402793
 20
11.066545647743077
 30
0.0
 10
12.428801445974381
 20
10.18325964968027
 30
0.0
 10
11.93843209055618
 20
9.250868360688877
 30
0.0
  0
SPLINE
  5
34
330
17
100
AcDbEntity
  8
OUTLINE
100
AcDbSpline
 70
0
 71
3
 72
8
 73
4
 74
0
 40
0.0
 40
0.0
 40
0.0
 40
0.0
 40
1.0
 40
1.0
 40
1.0
 40
1.0
 10
11.93843209055618
 20
9.250868360688877
 30
0.0
 10
11.00722900932296
 20
7.480273131540974
 30
0.0
 10
9.896398827647527
 20
5.760072797176566
 30
0.0
 10
8.970336304271248
 20
4.493088922304853
 30
0.0
  0
LINE
  5
35
330
17
100
AcDbEntity
  8
OUTLINE
100
AcDbLine
 10
8.970336304271248
 20
4.493088922304853
 30
0.0
 11
8.54607223555932
 21
4.917352991016781
 31
0.0
  0
ARC
  5
36
330
17
100
AcDbEntity
  8
OUTLINE
100
AcDbCircle
 10
5.183075039197787
 20
5.158543120290604
 30
0.0
 40
3.371635036772909
100
AcDbArc
 50
-4.102161000812501
 51
94.10216100081249
  0
LINE
  5
37
330
17
100
AcDbEntity
  8
OUTLINE
100
AcDbLine
 10
4.941884909923965
 20
8.521540316652137
 30
0.0
 11
4.517620841212036
 21
8.945804385364067
 31
0.0
  0
SPLINE
  5
38
330
17
100
AcDbEntity
  8
OUTLINE
100
AcDbSpline
 70
0
 71
3
 72
8
 73
4
 74
0
 40
0.0
 40
0.0
 40
0.0
 40
0.0
 40
1.0
 40
1.0
 40
1.0
 40
1.0
 10
4.517620841212036
 20
8.945804385364067
 30
0.0
 10
5.784604716083749
 20
9.871866908740344
 30
0.0
 10
7.504805050448156
 20
10.982697090415778
 30
0.0
 10
9.27540027959606
 20
11.913900171648997
 30
0.0
  0
SPLINE
  5
39
330
17
100
AcDbEntity
  8
OUTLINE
100
AcDbSpline
 70
0
 71
3
 72
8
 73
4
 74
0
 40
0.0
 40
0.0
 40
0.0
 40
0.0
 40
1.0
 40
1.0
 40
1.0
 40
1.0
 10
9.27540027959606
 20
11.913900171648997
 30
0.0
 10
10.207791568587451
 20
12.404269527067198
 30
0.0
 10
11.09107756665026
 20
12.81725008949561
 30
0.0
 10
11.90454878972336
 20
13.123162318604823
 30
0.0
  0
SPLINE
  5
3A
330
17
100
AcDbEntity
  8
OUTLINE
100
AcDbSpline
 70
0
 71
3
 72
8
 73
4
 74
0
 40
0.0
 40
0.0
 40
0.0
 40
0.0
 40
1.0
 40
1.0
 40
1.0
 40
1.0
 10
11.90454878972336
 20
13.123162318604823
 30
0.0
 10
12.302021915174416
 20
13.2726352026712
 30
0.0
 10
12.697708672526307
 20
13.403433138754478
 30
0.0
 10
13.054211311484526
 20
13.475486575702273
 30
0.0
  0
SPLINE
  5
3B
330
17
100
AcDbEntity
  8
OUTLINE
100
AcDbSpline
 70
0
 71
3
 72
8
 73
4
 74
0
 40
0.0
 40
0.0
 40
0.0
 40
0.0
 40
1.0
 40
1.0
 40
1.0
 40
1.0
 10
13.054211311484526
 20
13.475486575702273
 30
0.0
 10
13.178360517688972
 20
13.500578611563526
 30
0.0
 10
13.332790291347154
 20
13.524680290600898
 30
0.0
 10
13.444690484489428
 20
13.518914694367638
 30
0.0
  0
SPLINE
  5
3C
330
17
100
AcDbEntity
  8
OUTLINE
100
AcDbSpline
 70
0
 71
3
 72
8
 73
4
 74
0
 40
0.0
 40
0.0
 40
0.0
 40
0.0
 40
1.0
 40
1.0
 40
1.0
 40
1.0
 10
13.444690484489428
 20
13.518914694367638
 30
0.0
 10
13.477304845777157
 20
13.517234257244963
 30
0.0
 10
13.519233496811747
 20
13.51112664999459
 30
0.0
 10
13.52744603285676
 20
13.502914113949577
 30
0.0
  0
LINE
  5
3D
330
17
100
AcDbEntity
  8
OUTLINE
100
AcDbLine
 10
3.114646589186626
 20
10.181336160503886
 30
0.0
 11
1.3842873816557155
 21
7.066689586948245
 31
0.0
  0
LINE
  5
3E
330
17
100
AcDbEntity
  8
OUTLINE
100
AcDbLine
 10
1.3842873816557155
 20
7.066689586948245
 30
0.0
 11
0.9600233129437878
 21
7.4909536556601735
 31
0.0
  0
ARC
  5
3F
330
17
100
AcDbEntity
  8
OUTLINE
100
AcDbCircle
 10
-0.22310180827696213
 20
6.843587763040295
 30
0.0
 40
1.3486540147091637
100
AcDbArc
 50
28.685981474522986
 51
61.314018525477024
  0
LINE
  5
40
330
17
100
AcDbEntity
  8
OUTLINE
100
AcDbLine
 10
0.42426408434291574
 20
8.026712884261045
 30
0.0
 11
1.5630988059456286e-08
 21
8.450976952972974
 31
0.0
  0
LINE
  5
41
330
17
100
AcDbEntity
  8
OUTLINE
100
AcDbLine
 10
1.5630988059456286e-08
 20
8.450976952972974
 30
0.0
 11
3.114646589186626
 21
10.181336160503886
 31
0.0
  0
ELLIPSE
  5
42
330
17
100
AcDbEntity
  8
OUTLINE
100
AcDbEllipse
 10
7.198860058684062
 20
0.025401874338633945
 30
0.0
 11
-2.5033112980976915
 21
-2.503311298097692
 31
0.0
 40
0.28571428571428575
 41
1.8393389499695203
 42
3.141592653589793
  0
LINE
  5
43
330
17
100
AcDbEntity
  8
OUTLINE
100
AcDbLine
 10
8.552651966574162
 20
1.7763568394002505e-15
 30
0.0
 11
8.128387897862233
 21
0.4242640687119277
 31
0.0
  0
ARC
  5
44
330
17
100
AcDbEntity
  8
OUTLINE
100
AcDbCircle
 10
7.198860058684062
 20
0.02540187433863572
 30
0.0
 40
1.0114905110318726
100
AcDbArc
 50
23.22426477049554
 51
66.77573522950419
  0
LINE
  5
45
330
17
100
AcDbEntity
  8
OUTLINE
100
AcDbLine
 10
7.597722253057358
 20
0.9549297135168047
 30
0.0
 11
7.17345818434543
 21
1.3791937822287323
 31
0.0
  0
ELLIPSE
  5
46
330
17
100
AcDbEntity
  8
OUTLINE
100
AcDbEllipse
 10
7.198860058684062
 20
0.025401874338633945
 30
0.0
 11
-2.5033112980976915
 21
-2.503311298097692
 31
0.0
 40
0.28571428571428575
 41
3.141592653589793
 42
4.443846357210066
  0
ARC
  5
47
330
17
100
AcDbEntity
  8
OUTLINE
100
AcDbCircle
 10
-5.263980726280661
 20
8.122083594621216
 30
0.0
 40
11.168541059310257
100
AcDbArc
 50
-38.032985415326024
 51
-13.109208198154292
  0
LINE
  5
48
330
17
100
AcDbEntity
  8
OUTLINE
100
AcDbLine
 10
3.532989707597954
 20
1.2409775368014007
 30
0.0
 11
3.1087256388860256
 21
1.6652416055133283
 31
0.0
  0
ARC
  5
49
330
17
100
AcDbEntity
  8
OUTLINE
100
AcDbCircle
 10
1.4413173936238688
 20
1.4167854747166864
 30
0.0
 40
1.6858175183864545
100
AcDbArc
 50
8.47513596464203
 51
81.52486403535795
  0
LINE
  5
4A
330
17
100
AcDbEntity
  8
OUTLINE
100
AcDbLine
 10
1.6897735244205112
 20
3.084193719978842
 30
0.0
 11
1.2655094557085835
 21
3.5084577886907695
 31
0.0
  0
ARC
  5
4B
330
17
100
AcDbEntity
  8
OUTLINE
100
AcDbCircle
 10
8.146615513528399
 20
-5.288512645187847
 30
0.0
 40
11.168541059310257
100
AcDbArc
 50
103.10920819815428
 51
128.032985415326
  0
LWPOLYLINE
  5
4C
330
17
100
AcDbEntity
  8
OUTLINE
100
AcDbPolyline
 90
472
 70
1
 10
26.0932
 20
5.3394
 10
26.0932
 20
5.2915
 10
26.0932
 20
5.2808
 10
26.0932
 20
5.2437
 10
26.0932
 20
5.1958
 10
26.0932
 20
5.1793
 10
26.0932
 20
5.148
 10
26.0932
 20
5.1001
 10
26.0932
 20
5.0778
 10
26.0932
 20
5.0522
 10
26.0932
 20
5.0044
 10
26.0932
 20
4.9565
 10
26.0932
 20
4.9087
 10
26.0932
 20
4.8608
 10
26.0932
 20
4.813
 10
26.0932
 20
4.7651
 10
26.0932
 20
4.7173
 10
26.0932
 20
4.6694
 10
26.0932
 20
4.6216
 10
26.0932
 20
4.5737
 10
26.0932
 20
4.5258
 10
26.0932
 20
4.478
 10
26.0932
 20
4.4301
 10
26.0932
 20
4.3823
 10
26.0945
 20
4.3355
 10
26.1418
 20
4.3284
 10
26.1891
 20
4.3213
 10
26.2364
 20
4.3142
 10
26.2837
 20
4.307
 10
26.3311
 20
4.2999
 10
26.3784
 20
4.2928
 10
26.4257
 20
4.2857
 10
26.473
 20
4.2785
 10
26.5204
 20
4.2714
 10
26.5677
 20
4.2643
 10
26.615
 20
4.2572
 10
26.6623
 20
4.25
 10
26.7096
 20
4.2429
 10
26.757
 20
4.2358
 10
26.8043
 20
4.2286
 10
26.8184
 20
4.193
 10
26.8184
 20
4.1451
 10
26.8184
 20
4.0973
 10
26.8184
 20
4.0494
 10
26.8184
 20
4.0015
 10
26.8184
 20
3.9537
 10
26.8184
 20
3.9058
 10
26.8184
 20
3.858
 10
26.8184
 20
3.8101
 10
26.8184
 20
3.7623
 10
26.8184
 20
3.7144
 10
26.8184
 20
3.6666
 10
26.8184
 20
3.6187
 10
26.8184
 20
3.5709
 10
26.8184
 20
3.523
 10
26.8184
 20
3.4751
 10
26.8184
 20
3.4273
 10
26.8184
 20
3.3794
 10
26.8184
 20
3.3316
 10
26.8184
 20
3.2837
 10
26.8184
 20
3.2359
 10
26.7735
 20
3.2318
 10
26.7256
 20
3.2305
 10
26.6778
 20
3.2292
 10
26.6299
 20
3.228
 10
26.5821
 20
3.2267
 10
26.5343
 20
3.2254
 10
26.4864
 20
3.2241
 10
26.4386
 20
3.2229
 10
26.3908
 20
3.2216
 10
26.3429
 20
3.2203
 10
26.2951
 20
3.219
 10
26.2472
 20
3.2177
 10
26.1994
 20
3.2165
 10
26.1516
 20
3.2152
 10
26.1037
 20
3.2139
 10
26.0559
 20
3.2126
 10
26.0081
 20
3.2114
 10
25.9602
 20
3.2101
 10
25.9124
 20
3.2088
 10
25.8645
 20
3.2075
 10
25.8167
 20
3.2062
 10
25.7689
 20
3.205
 10
25.721
 20
3.2037
 10
25.6732
 20
3.2024
 10
25.6254
 20
3.2011
 10
25.5775
 20
3.1999
 10
25.5297
 20
3.1986
 10
25.4818
 20
3.1973
 10
25.434
 20
3.196
 10
25.3862
 20
3.1948
 10
25.3383
 20
3.1935
 10
25.2905
 20
3.1922
 10
25.2427
 20
3.1909
 10
25.1948
 20
3.1896
 10
25.147
 20
3.1884
 10
25.0991
 20
3.1871
 10
25.0513
 20
3.1858
 10
25.0035
 20
3.1845
 10
24.9556
 20
3.1833
 10
24.9522
 20
3.231
 10
24.9489
 20
3.2787
 10
24.9455
 20
3.3265
 10
24.9421
 20
3.3742
 10
24.9387
 20
3.4219
 10
24.9353
 20
3.4697
 10
24.9319
 20
3.5174
 10
24.9286
 20
3.5651
 10
24.9252
 20
3.6129
 10
24.9218
 20
3.6606
 10
24.9184
 20
3.7083
 10
24.915
 20
3.7561
 10
24.9116
 20
3.8038
 10
24.9082
 20
3.8515
 10
24.9049
 20
3.8993
 10
24.9015
 20
3.947
 10
24.8981
 20
3.9948
 10
24.8947
 20
4.0425
 10
24.8913
 20
4.0902
 10
24.8879
 20
4.138
 10
24.8846
 20
4.1857
 10
24.8812
 20
4.2334
 10
24.8802
 20
4.2464
 10
24.8298
 20
4.2464
 10
24.7709
 20
4.2464
 10
24.7413
 20
4.2029
 10
24.7243
 20
4.1401
 10
24.7055
 20
4.0792
 10
24.685
 20
4.0201
 10
24.6628
 20
3.9628
 10
24.6389
 20
3.9073
 10
24.6132
 20
3.8537
 10
24.5858
 20
3.8019
 10
24.5567
 20
3.7518
 10
24.5259
 20
3.7036
 10
24.4933
 20
3.6572
 10
24.459
 20
3.6127
 10
24.423
 20
3.5699
 10
24.3853
 20
3.529
 10
24.3458
 20
3.4899
 10
24.3046
 20
3.4526
 10
24.2616
 20
3.417
 10
24.2161
 20
3.3826
 10
24.1694
 20
3.3506
 10
24.1213
 20
3.3207
 10
24.072
 20
3.293
 10
24.0215
 20
3.2676
 10
23.9696
 20
3.2443
 10
23.9165
 20
3.2233
 10
23.8621
 20
3.2045
 10
23.8064
 20
3.1879
 10
23.7495
 20
3.1735
 10
23.6912
 20
3.1613
 10
23.6317
 20
3.1514
 10
23.5709
 20
3.1436
 10
23.5088
 20
3.1381
 10
23.4455
 20
3.1348
 10
23.3809
 20
3.1336
 10
23.3131
 20
3.1346
 10
23.2468
 20
3.1374
 10
23.1818
 20
3.1421
 10
23.1181
 20
3.1487
 10
23.0558
 20
3.1571
 10
22.9949
 20
3.1674
 10
22.9353
 20
3.1796
 10
22.8771
 20
3.1937
 10
22.8203
 20
3.2097
 10
22.7648
 20
3.2275
 10
22.7106
 20
3.2472
 10
22.6579
 20
3.2688
 10
22.6064
 20
3.2923
 10
22.5564
 20
3.3176
 10
22.5077
 20
3.3448
 10
22.4603
 20
3.3739
 10
22.4144
 20
3.4049
 10
22.3697
 20
3.4377
 10
22.3265
 20
3.4724
 10
22.2846
 20
3.509
 10
22.244
 20
3.5475
 10
22.2048
 20
3.5879
 10
22.1672
 20
3.6299
 10
22.1341
 20
3.6697
 10
22.1023
 20
3.7108
 10
22.0719
 20
3.7532
 10
22.0429
 20
3.7968
 10
22.0151
 20
3.8417
 10
21.9888
 20
3.8879
 10
21.9637
 20
3.9353
 10
21.94
 20
3.984
 10
21.9176
 20
4.034
 10
21.8966
 20
4.0852
 10
21.8769
 20
4.1378
 10
21.8585
 20
4.1915
 10
21.8415
 20
4.2466
 10
21.8258
 20
4.3029
 10
21.8115
 20
4.3605
 10
21.7985
 20
4.4193
 10
21.7868
 20
4.4795
 10
21.7765
 20
4.5408
 10
21.7675
 20
4.6035
 10
21.7599
 20
4.6674
 10
21.7536
 20
4.7326
 10
21.7486
 20
4.7991
 10
21.745
 20
4.8668
 10
21.7427
 20
4.9358
 10
21.7417
 20
5.0061
 10
21.7417
 20
5.0676
 10
21.7417
 20
5.1266
 10
21.7417
 20
5.1855
 10
21.7417
 20
5.2444
 10
21.7417
 20
5.3034
 10
21.7417
 20
5.3623
 10
21.7417
 20
5.4213
 10
21.7417
 20
5.4802
 10
21.7417
 20
5.5391
 10
21.7417
 20
5.5981
 10
21.7417
 20
5.657
 10
21.7417
 20
5.716
 10
21.7417
 20
5.7749
 10
21.7417
 20
5.8339
 10
21.7417
 20
5.8928
 10
21.7417
 20
5.9517
 10
21.7417
 20
6.0107
 10
21.7417
 20
6.0696
 10
21.7417
 20
6.1286
 10
21.7417
 20
6.1875
 10
21.7417
 20
6.2464
 10
21.7417
 20
6.3054
 10
21.7417
 20
6.3643
 10
21.7417
 20
6.4233
 10
21.7417
 20
6.4822
 10
21.7417
 20
6.5411
 10
21.7417
 20
6.6001
 10
21.7417
 20
6.659
 10
21.7417
 20
6.718
 10
21.7417
 20
6.7769
 10
21.7417
 20
6.8358
 10
21.7417
 20
6.8948
 10
21.7417
 20
6.9537
 10
21.7417
 20
7.0127
 10
21.7417
 20
7.0716
 10
21.7417
 20
7.1305
 10
21.7417
 20
7.1895
 10
21.7417
 20
7.2484
 10
21.7417
 20
7.3074
 10
21.7417
 20
7.3663
 10
21.7417
 20
7.4252
 10
21.7417
 20
7.4842
 10
21.7417
 20
7.5431
 10
21.7417
 20
7.6021
 10
21.7417
 20
7.661
 10
21.7417
 20
7.7199
 10
21.7417
 20
7.7789
 10
21.7417
 20
7.8378
 10
21.7417
 20
7.8968
 10
21.7417
 20
7.9557
 10
21.7417
 20
8.0146
 10
21.7417
 20
8.0736
 10
21.7417
 20
8.1325
 10
21.7417
 20
8.1915
 10
21.7417
 20
8.2504
 10
21.7417
 20
8.3093
 10
21.7417
 20
8.3683
 10
21.7417
 20
8.4272
 10
21.7417
 20
8.4862
 10
21.7883
 20
8.4985
 10
21.8472
 20
8.4985
 10
21.9061
 20
8.4985
 10
21.9651
 20
8.4985
 10
22.024
 20
8.4985
 10
22.083
 20
8.4985
 10
22.1419
 20
8.4985
 10
22.2008
 20
8.4985
 10
22.2598
 20
8.4985
 10
22.3187
 20
8.4985
 10
22.3777
 20
8.4985
 10
22.4366
 20
8.4985
 10
22.4955
 20
8.4985
 10
22.5545
 20
8.4985
 10
22.6134
 20
8.4985
 10
22.6724
 20
8.4985
 10
22.7313
 20
8.4985
 10
22.7902
 20
8.4985
 10
22.8492
 20
8.4985
 10
22.9081
 20
8.4985
 10
22.9671
 20
8.4985
 10
22.9686
 20
8.4411
 10
22.9686
 20
8.3822
 10
22.9686
 20
8.3232
 10
22.9686
 20
8.2643
 10
22.9686
 20
8.2053
 10
22.9686
 20
8.1464
 10
22.9686
 20
8.0875
 10
22.9686
 20
8.0285
 10
22.9686
 20
7.9696
 10
22.9686
 20
7.9106
 10
22.9686
 20
7.8517
 10
22.9686
 20
7.7928
 10
22.9686
 20
7.7338
 10
22.9686
 20
7.6749
 10
22.9686
 20
7.6159
 10
22.9686
 20
7.557
 10
22.9686
 20
7.498
 10
22.9686
 20
7.4391
 10
22.9686
 20
7.3802
 10
22.9686
 20
7.3212
 10
22.9686
 20
7.2623
 10
22.9686
 20
7.2033
 10
22.9686
 20
7.1444
 10
22.9686
 20
7.0855
 10
22.9686
 20
7.0265
 10
22.9686
 20
6.9676
 10
22.9686
 20
6.9086
 10
22.9686
 20
6.8497
 10
22.9686
 20
6.7908
 10
22.9686
 20
6.7318
 10
22.9686
 20
6.6729
 10
22.9686
 20
6.6139
 10
22.9686
 20
6.555
 10
22.9686
 20
6.4961
 10
22.9686
 20
6.4371
 10
22.9686
 20
6.3782
 10
22.9686
 20
6.3192
 10
22.9686
 20
6.2603
 10
22.9686
 20
6.2014
 10
22.9686
 20
6.1424
 10
22.9686
 20
6.0835
 10
22.9686
 20
6.0245
 10
22.9686
 20
5.9656
 10
22.9686
 20
5.9067
 10
22.9686
 20
5.8477
 10
22.9686
 20
5.7888
 10
22.9686
 20
5.7298
 10
22.9686
 20
5.6709
 10
22.9686
 20
5.612
 10
22.9686
 20
5.553
 10
22.9686
 20
5.4941
 10
22.9686
 20
5.4351
 10
22.9686
 20
5.3762
 10
22.9686
 20
5.3173
 10
22.9686
 20
5.2583
 10
22.9687
 20
5.1954
 10
22.9711
 20
5.1267
 10
22.9763
 20
5.0605
 10
22.9843
 20
4.9969
 10
22.9951
 20
4.9358
 10
23.0087
 20
4.8772
 10
23.0251
 20
4.8212
 10
23.0444
 20
4.7677
 10
23.0664
 20
4.7167
 10
23.0912
 20
4.6683
 10
23.1189
 20
4.6224
 10
23.1493
 20
4.579
 10
23.1826
 20
4.5382
 10
23.2202
 20
4.4983
 10
23.2615
 20
4.4606
 10
23.3053
 20
4.4263
 10
23.3516
 20
4.3956
 10
23.4003
 20
4.3684
 10
23.4516
 20
4.3447
 10
23.5053
 20
4.3245
 10
23.5615
 20
4.3078
 10
23.6201
 20
4.2947
 10
23.6813
 20
4.285
 10
23.7449
 20
4.2789
 10
23.811
 20
4.2762
 10
23.8783
 20
4.277
 10
23.9436
 20
4.281
 10
24.0067
 20
4.2881
 10
24.0675
 20
4.2984
 10
24.1261
 20
4.3118
 10
24.1825
 20
4.3285
 10
24.2367
 20
4.3482
 10
24.2886
 20
4.3712
 10
24.3384
 20
4.3973
 10
24.3859
 20
4.4266
 10
24.4312
 20
4.4591
 10
24.4742
 20
4.4947
 10
24.5151
 20
4.5335
 10
24.5537
 20
4.5754
 10
24.5902
 20
4.6205
 10
24.6188
 20
4.6607
 10
24.6418
 20
4.6968
 10
24.6637
 20
4.7351
 10
24.6845
 20
4.7755
 10
24.7041
 20
4.8181
 10
24.7227
 20
4.8627
 10
24.7401
 20
4.9095
 10
24.7563
 20
4.9585
 10
24.7715
 20
5.0095
 10
24.7855
 20
5.0627
 10
24.7984
 20
5.118
 10
24.8102
 20
5.1755
 10
24.8208
 20
5.235
 10
24.8304
 20
5.2967
 10
24.8388
 20
5.3606
 10
24.846
 20
5.4265
 10
24.8522
 20
5.4946
 10
24.8572
 20
5.5648
 10
24.8612
 20
5.6372
 10
24.864
 20
5.7117
 10
24.8656
 20
5.7883
 10
24.8662
 20
5.8478
 10
24.8662
 20
5.941
 10
24.8662
 20
6.0425
 10
24.8662
 20
6.144
 10
24.8662
 20
6.2455
 10
24.8662
 20
6.3469
 10
24.8662
 20
6.4484
 10
24.8662
 20
6.5499
 10
24.8662
 20
6.6514
 10
24.8662
 20
6.7529
 10
24.8662
 20
6.8543
 10
24.8662
 20
6.9558
 10
24.8662
 20
7.0573
 10
24.8662
 20
7.1588
 10
24.8662
 20
7.2603
 10
24.8662
 20
7.3618
 10
24.8662
 20
7.4632
 10
24.8662
 20
7.5647
 10
24.8662
 20
7.6662
 10
24.8662
 20
7.7677
 10
24.8662
 20
7.8692
 10
24.8662
 20
7.9707
 10
24.8662
 20
8.0721
 10
24.8662
 20
8.1736
 10
24.8662
 20
8.2751
 10
24.8662
 20
8.3766
 10
24.8662
 20
8.4781
 10
24.9472
 20
8.4985
 10
25.0487
 20
8.4985
 10
25.1501
 20
8.4985
 10
25.2516
 20
8.4985
 10
25.3531
 20
8.4985
 10
25.4546
 20
8.4985
 10
25.5561
 20
8.4985
 10
25.6575
 20
8.4985
 10
25.759
 20
8.4985
 10
25.8605
 20
8.4985
 10
25.962
 20
8.4985
 10
26.0635
 20
8.4985
 10
26.0932
 20
8.4267
 10
26.0932
 20
8.3253
 10
26.0932
 20
8.2238
 10
26.0932
 20
8.1223
 10
26.0932
 20
8.0208
 10
26.0932
 20
7.9193
 10
26.0932
 20
7.8178
 10
26.0932
 20
7.7164
 10
26.0932
 20
7.6149
 10
26.0932
 20
7.5134
 10
26.0932
 20
7.4119
 10
26.0932
 20
7.3104
 10
26.0932
 20
7.209
 10
26.0932
 20
7.1075
 10
26.0932
 20
7.006
 10
26.0932
 20
6.9045
 10
26.0932
 20
6.803
 10
26.0932
 20
6.7015
 10
26.0932
 20
6.6001
 10
26.0932
 20
6.4986
 10
26.0932
 20
6.3971
 10
26.0932
 20
6.2956
 10
26.0932
 20
6.1941
 10
26.0932
 20
6.0927
 10
26.0932
 20
5.9912
 10
26.0932
 20
5.8897
 10
26.0932
 20
5.7882
 10
26.0932
 20
5.6867
 10
26.0932
 20
5.5852
 10
26.0932
 20
5.4838
 10
26.0932
 20
5.3823
  0
LWPOLYLINE
  5
4D
330
17
100
AcDbEntity
  8
OUTLINE
100
AcDbPolyline
 90
672
 70
1
 10
29.6541
 20
3.1338
 10
29.6002
 20
3.1336
 10
29.5532
 20
3.1337
 10
29.5067
 20
3.1339
 10
29.4607
 20
3.1342
 10
29.4151
 20
3.1346
 10
29.3701
 20
3.1351
 10
29.3255
 20
3.1357
 10
29.2813
 20
3.1365
 10
29.2377
 20
3.1373
 10
29.1945
 20
3.1383
 10
29.1518
 20
3.1394
 10
29.1096
 20
3.1406
 10
29.0678
 20
3.1419
 10
29.0266
 20
3.1434
 10
28.9858
 20
3.1449
 10
28.9454
 20
3.1466
 10
28.9056
 20
3.1484
 10
28.8662
 20
3.1503
 10
28.8273
 20
3.1523
 10
28.7889
 20
3.1544
 10
28.7509
 20
3.1566
 10
28.7135
 20
3.159
 10
28.6765
 20
3.1615
 10
28.6399
 20
3.1641
 10
28.6039
 20
3.1668
 10
28.5683
 20
3.1696
 10
28.5276
 20
3.173
 10
28.4825
 20
3.177
 10
28.4379
 20
3.1812
 10
28.3938
 20
3.1856
 10
28.3502
 20
3.1902
 10
28.3071
 20
3.1949
 10
28.2645
 20
3.1999
 10
28.2223
 20
3.2051
 10
28.1807
 20
3.2104
 10
28.1395
 20
3.216
 10
28.0989
 20
3.2217
 10
28.0587
 20
3.2277
 10
28.019
 20
3.2338
 10
27.9798
 20
3.2401
 10
27.9411
 20
3.2467
 10
27.9029
 20
3.2534
 10
27.8652
 20
3.2603
 10
27.828
 20
3.2674
 10
27.7912
 20
3.2747
 10
27.755
 20
3.2822
 10
27.7571
 20
3.3206
 10
27.7622
 20
3.3615
 10
27.7673
 20
3.4024
 10
27.7724
 20
3.4433
 10
27.7775
 20
3.4842
 10
27.7826
 20
3.5251
 10
27.7877
 20
3.5659
 10
27.7928
 20
3.6068
 10
27.798
 20
3.6477
 10
27.8031
 20
3.6886
 10
27.8082
 20
3.7295
 10
27.8133
 20
3.7704
 10
27.8184
 20
3.8112
 10
27.8235
 20
3.8521
 10
27.8286
 20
3.893
 10
27.8337
 20
3.9339
 10
27.8388
 20
3.9748
 10
27.8439
 20
4.0157
 10
27.8491
 20
4.0566
 10
27.8542
 20
4.0974
 10
27.8593
 20
4.1383
 10
27.8644
 20
4.1792
 10
27.8695
 20
4.2201
 10
27.8746
 20
4.261
 10
27.8797
 20
4.3019
 10
27.8848
 20
4.3427
 10
27.8899
 20
4.3836
 10
27.895
 20
4.4245
 10
27.9315
 20
4.4303
 10
27.9785
 20
4.4239
 10
28.0249
 20
4.4177
 10
28.0707
 20
4.4116
 10
28.116
 20
4.4057
 10
28.1607
 20
4.3999
 10
28.2049
 20
4.3942
 10
28.2486
 20
4.3887
 10
28.2917
 20
4.3832
 10
28.3342
 20
4.378
 10
28.3762
 20
4.3728
 10
28.4176
 20
4.3678
 10
28.4585
 20
4.3629
 10
28.4989
 20
4.3582
 10
28.5387
 20
4.3536
 10
28.5779
 20
4.3491
 10
28.6166
 20
4.3447
 10
28.6547
 20
4.3405
 10
28.6923
 20
4.3365
 10
28.7293
 20
4.3325
 10
28.7658
 20
4.3287
 10
28.8017
 20
4.325
 10
28.8371
 20
4.3215
 10
28.872
 20
4.3181
 10
28.9111
 20
4.3143
 10
28.959
 20
4.3099
 10
29.006
 20
4.3058
 10
29.0522
 20
4.3019
 10
29.0975
 20
4.2983
 10
29.1419
 20
4.295
 10
29.1854
 20
4.2919
 10
29.228
 20
4.2891
 10
29.2698
 20
4.2866
 10
29.3107
 20
4.2844
 10
29.3507
 20
4.2824
 10
29.3899
 20
4.2807
 10
29.4281
 20
4.2793
 10
29.4655
 20
4.2781
 10
29.502
 20
4.2772
 10
29.5377
 20
4.2766
 10
29.5724
 20
4.2762
 10
29.6104
 20
4.2761
 10
29.6659
 20
4.2764
 10
29.7201
 20
4.277
 10
29.7732
 20
4.2779
 10
29.825
 20
4.2793
 10
29.8757
 20
4.2809
 10
29.9251
 20
4.283
 10
29.9734
 20
4.2854
 10
30.0204
 20
4.2881
 10
30.0662
 20
4.2913
 10
30.1108
 20
4.2947
 10
30.1543
 20
4.2986
 10
30.1965
 20
4.3028
 10
30.2375
 20
4.3073
 10
30.2773
 20
4.3122
 10
30.3159
 20
4.3175
 10
30.3533
 20
4.3231
 10
30.3895
 20
4.3291
 10
30.4245
 20
4.3355
 10
30.4582
 20
4.3422
 10
30.4908
 20
4.3492
 10
30.5222
 20
4.3567
 10
30.5524
 20
4.3644
 10
30.5813
 20
4.3726
 10
30.6091
 20
4.3811
 10
30.6357
 20
4.3899
 10
30.671
 20
4.403
 10
30.7176
 20
4.4229
 10
30.7604
 20
4.4444
 10
30.7992
 20
4.4676
 10
30.8343
 20
4.4924
 10
30.8654
 20
4.5189
 10
30.8927
 20
4.547
 10
30.9162
 20
4.5768
 10
30.9358
 20
4.6082
 10
30.9515
 20
4.6413
 10
30.9634
 20
4.676
 10
30.9714
 20
4.7124
 10
30.9755
 20
4.7504
 10
30.9758
 20
4.7933
 10
30.972
 20
4.8388
 10
30.964
 20
4.8811
 10
30.9519
 20
4.9201
 10
30.9356
 20
4.9558
 10
30.9152
 20
4.9882
 10
30.8907
 20
5.0174
 10
30.8654
 20
5.0409
 10
30.8382
 20
5.0617
 10
30.8077
 20
5.0814
 10
30.7739
 20
5.1001
 10
30.7368
 20
5.1177
 10
30.6963
 20
5.1343
 10
30.6526
 20
5.1498
 10
30.6055
 20
5.1643
 10
30.5615
 20
5.1765
 10
30.5218
 20
5.1876
 10
30.4821
 20
5.1986
 10
30.4424
 20
5.2097
 10
30.4027
 20
5.2208
 10
30.363
 20
5.2318
 10
30.3234
 20
5.2429
 10
30.2837
 20
5.2539
 10
30.244
 20
5.265
 10
30.2043
 20
5.276
 10
30.1646
 20
5.2871
 10
30.1249
 20
5.2982
 10
30.0852
 20
5.3092
 10
30.0455
 20
5.3203
 10
30.0058
 20
5.3313
 10
29.9661
 20
5.3424
 10
29.9265
 20
5.3535
 10
29.8868
 20
5.3645
 10
29.8471
 20
5.3756
 10
29.8074
 20
5.3866
 10
29.7677
 20
5.3977
 10
29.728
 20
5.4088
 10
29.6883
 20
5.4198
 10
29.6486
 20
5.4309
 10
29.6089
 20
5.4419
 10
29.5692
 20
5.453
 10
29.5295
 20
5.4641
 10
29.4899
 20
5.4751
 10
29.4502
 20
5.4862
 10
29.4105
 20
5.4972
 10
29.3708
 20
5.5083
 10
29.3311
 20
5.5194
 10
29.2914
 20
5.5304
 10
29.2517
 20
5.5415
 10
29.212
 20
5.5525
 10
29.1723
 20
5.5636
 10
29.1326
 20
5.5747
 10
29.093
 20
5.5857
 10
29.0498
 20
5.5978
 10
29.002
 20
5.6117
 10
28.9551
 20
5.6259
 10
28.9092
 20
5.6406
 10
28.8643
 20
5.6557
 10
28.8203
 20
5.6712
 10
28.7773
 20
5.6871
 10
28.7353
 20
5.7034
 10
28.6942
 20
5.72
 10
28.6541
 20
5.7371
 10
28.615
 20
5.7546
 10
28.5768
 20
5.7725
 10
28.5397
 20
5.7907
 10
28.5035
 20
5.8094
 10
28.4682
 20
5.8285
 10
28.434
 20
5.8479
 10
28.4007
 20
5.8678
 10
28.3683
 20
5.8881
 10
28.337
 20
5.9087
 10
28.3066
 20
5.9298
 10
28.2772
 20
5.9513
 10
28.2487
 20
5.9731
 10
28.2213
 20
5.9954
 10
28.1948
 20
6.018
 10
28.1692
 20
6.0411
 10
28.1447
 20
6.0646
 10
28.119
 20
6.0906
 10
28.0936
 20
6.1186
 10
28.0694
 20
6.1475
 10
28.0464
 20
6.1774
 10
28.0245
 20
6.2082
 10
28.0038
 20
6.24
 10
27.9843
 20
6.2728
 10
27.9659
 20
6.3065
 10
27.9488
 20
6.3413
 10
27.9328
 20
6.3769
 10
27.9179
 20
6.4136
 10
27.9043
 20
6.4512
 10
27.8918
 20
6.4898
 10
27.8805
 20
6.5293
 10
27.8704
 20
6.5698
 10
27.8615
 20
6.6113
 10
27.8537
 20
6.6537
 10
27.8471
 20
6.6971
 10
27.8417
 20
6.7415
 10
27.8375
 20
6.7868
 10
27.8344
 20
6.8331
 10
27.8325
 20
6.8804
 10
27.8318
 20
6.9286
 10
27.8322
 20
6.9751
 10
27.8337
 20
7.0207
 10
27.8361
 20
7.0657
 10
27.8396
 20
7.11
 10
27.8441
 20
7.1536
 10
27.8497
 20
7.1965
 10
27.8563
 20
7.2388
 10
27.8639
 20
7.2804
 10
27.8725
 20
7.3214
 10
27.8822
 20
7.3616
 10
27.8928
 20
7.4013
 10
27.9046
 20
7.4402
 10
27.9173
 20
7.4785
 10
27.9311
 20
7.5161
 10
27.9459
 20
7.553
 10
27.9617
 20
7.5893
 10
27.9786
 20
7.6249
 10
27.9965
 20
7.6599
 10
28.0154
 20
7.6941
 10
28.0353
 20
7.7277
 10
28.0563
 20
7.7607
 10
28.0783
 20
7.793
 10
28.1013
 20
7.8246
 10
28.1254
 20
7.8555
 10
28.1505
 20
7.8858
 10
28.1766
 20
7.9154
 10
28.2037
 20
7.9443
 10
28.2319
 20
7.9726
 10
28.2611
 20
8.0002
 10
28.2913
 20
8.0271
 10
28.3226
 20
8.0534
 10
28.3549
 20
8.079
 10
28.3882
 20
8.104
 10
28.4225
 20
8.1282
 10
28.4579
 20
8.1518
 10
28.4943
 20
8.1748
 10
28.5295
 20
8.1958
 10
28.5556
 20
8.2106
 10
28.5822
 20
8.2252
 10
28.6094
 20
8.2394
 10
28.6371
 20
8.2535
 10
28.6653
 20
8.2672
 10
28.694
 20
8.2806
 10
28.7233
 20
8.2938
 10
28.7531
 20
8.3067
 10
28.7835
 20
8.3193
 10
28.8144
 20
8.3316
 10
28.8458
 20
8.3437
 10
28.8778
 20
8.3554
 10
28.9102
 20
8.3669
 10
28.9433
 20
8.3782
 10
28.9768
 20
8.3891
 10
29.0109
 20
8.3997
 10
29.0455
 20
8.4101
 10
29.0807
 20
8.4202
 10
29.1163
 20
8.43
 10
29.1525
 20
8.4396
 10
29.1893
 20
8.4488
 10
29.2266
 20
8.4578
 10
29.2644
 20
8.4665
 10
29.3027
 20
8.475
 10
29.3416
 20
8.4831
 10
29.381
 20
8.491
 10
29.4209
 20
8.4985
 10
29.4614
 20
8.5059
 10
29.5024
 20
8.5129
 10
29.544
 20
8.5196
 10
29.586
 20
8.5261
 10
29.6286
 20
8.5323
 10
29.6718
 20
8.5382
 10
29.7154
 20
8.5438
 10
29.7596
 20
8.5492
 10
29.8044
 20
8.5543
 10
29.8496
 20
8.5591
 10
29.8954
 20
8.5636
 10
29.9418
 20
8.5678
 10
29.9886
 20
8.5718
 10
30.036
 20
8.5754
 10
30.084
 20
8.5788
 10
30.1324
 20
8.582
 10
30.1814
 20
8.5848
 10
30.2309
 20
8.5874
 10
30.281
 20
8.5896
 10
30.3316
 20
8.5916
 10
30.3827
 20
8.5934
 10
30.4344
 20
8.5948
 10
30.4866
 20
8.596
 10
30.5393
 20
8.5969
 10
30.5925
 20
8.5975
 10
30.6463
 20
8.5978
 10
30.6965
 20
8.5979
 10
30.738
 20
8.5977
 10
30.7796
 20
8.5974
 10
30.821
 20
8.5969
 10
30.8624
 20
8.5963
 10
30.9038
 20
8.5955
 10
30.9451
 20
8.5945
 10
30.9863
 20
8.5934
 10
31.0276
 20
8.5921
 10
31.0687
 20
8.5906
 10
31.1098
 20
8.5889
 10
31.1509
 20
8.5871
 10
31.1919
 20
8.5851
 10
31.2328
 20
8.583
 10
31.2737
 20
8.5807
 10
31.3146
 20
8.5782
 10
31.3554
 20
8.5755
 10
31.396
 20
8.5727
 10
31.4353
 20
8.5698
 10
31.4748
 20
8.5668
 10
31.5145
 20
8.5636
 10
31.5544
 20
8.5602
 10
31.5945
 20
8.5567
 10
31.6348
 20
8.5531
 10
31.6753
 20
8.5493
 10
31.7161
 20
8.5453
 10
31.757
 20
8.5412
 10
31.7981
 20
8.5369
 10
31.8394
 20
8.5325
 10
31.881
 20
8.5279
 10
31.9227
 20
8.5232
 10
31.9646
 20
8.5183
 10
32.0068
 20
8.5132
 10
32.0491
 20
8.508
 10
32.0916
 20
8.5027
 10
32.1225
 20
8.4883
 10
32.1178
 20
8.4474
 10
32.113
 20
8.4065
 10
32.1083
 20
8.3655
 10
32.1035
 20
8.3246
 10
32.0987
 20
8.2837
 10
32.094
 20
8.2427
 10
32.0892
 20
8.2018
 10
32.0845
 20
8.1609
 10
32.0797
 20
8.12
 10
32.075
 20
8.079
 10
32.0702
 20
8.0381
 10
32.0655
 20
7.9972
 10
32.0607
 20
7.9563
 10
32.056
 20
7.9153
 10
32.0512
 20
7.8744
 10
32.0465
 20
7.8335
 10
32.0417
 20
7.7925
 10
32.037
 20
7.7516
 10
32.0322
 20
7.7107
 10
32.0275
 20
7.6698
 10
32.0227
 20
7.6288
 10
32.018
 20
7.5879
 10
32.0132
 20
7.547
 10
32.0085
 20
7.506
 10
32.0037
 20
7.4651
 10
31.999
 20
7.4242
 10
31.9916
 20
7.3861
 10
31.9451
 20
7.3903
 10
31.8992
 20
7.3944
 10
31.8539
 20
7.3983
 10
31.8092
 20
7.4021
 10
31.7652
 20
7.4057
 10
31.7218
 20
7.4092
 10
31.6791
 20
7.4126
 10
31.6369
 20
7.4158
 10
31.5954
 20
7.4189
 10
31.5546
 20
7.4218
 10
31.5143
 20
7.4245
 10
31.4747
 20
7.4272
 10
31.4357
 20
7.4296
 10
31.3973
 20
7.432
 10
31.3596
 20
7.4342
 10
31.3225
 20
7.4362
 10
31.286
 20
7.4381
 10
31.2502
 20
7.4398
 10
31.2083
 20
7.4417
 10
31.1631
 20
7.4437
 10
31.1187
 20
7.4454
 10
31.0748
 20
7.4471
 10
31.0317
 20
7.4486
 10
30.9892
 20
7.4499
 10
30.9473
 20
7.4511
 10
30.9062
 20
7.4521
 10
30.8657
 20
7.453
 10
30.8259
 20
7.4538
 10
30.7867
 20
7.4543
 10
30.7482
 20
7.4548
 10
30.7104
 20
7.4551
 10
30.6733
 20
7.4553
 10
30.6277
 20
7.4552
 10
30.5724
 20
7.455
 10
30.5182
 20
7.4545
 10
30.465
 20
7.4537
 10
30.4128
 20
7.4526
 10
30.3617
 20
7.4513
 10
30.3117
 20
7.4497
 10
30.2628
 20
7.4478
 10
30.2149
 20
7.4456
 10
30.1681
 20
7.4432
 10
30.1223
 20
7.4405
 10
30.0776
 20
7.4376
 10
30.034
 20
7.4344
 10
29.9914
 20
7.4309
 10
29.9499
 20
7.4271
 10
29.9094
 20
7.4231
 10
29.87
 20
7.4188
 10
29.8317
 20
7.4142
 10
29.7944
 20
7.4093
 10
29.7582
 20
7.4042
 10
29.7231
 20
7.3989
 10
29.689
 20
7.3932
 10
29.656
 20
7.3873
 10
29.624
 20
7.3811
 10
29.5931
 20
7.3746
 10
29.5633
 20
7.3679
 10
29.5345
 20
7.3609
 10
29.5068
 20
7.3536
 10
29.4801
 20
7.3461
 10
29.4444
 20
7.335
 10
29.3936
 20
7.317
 10
29.3467
 20
7.2975
 10
29.3038
 20
7.2764
 10
29.2649
 20
7.2539
 10
29.23
 20
7.2299
 10
29.199
 20
7.2044
 10
29.172
 20
7.1774
 10
29.149
 20
7.1489
 10
29.13
 20
7.1189
 10
29.1149
 20
7.0874
 10
29.1039
 20
7.0544
 10
29.0968
 20
7.0199
 10
29.0937
 20
6.984
 10
29.0947
 20
6.9392
 10
29.1004
 20
6.8945
 10
29.1107
 20
6.8537
 10
29.1256
 20
6.8166
 10
29.1453
 20
6.7834
 10
29.1695
 20
6.754
 10
29.1984
 20
6.7284
 10
29.225
 20
6.7099
 10
29.2536
 20
6.6928
 10
29.2852
 20
6.6761
 10
29.3198
 20
6.66
 10
29.3575
 20
6.6443
 10
29.3981
 20
6.6292
 10
29.4417
 20
6.6145
 10
29.4883
 20
6.6004
 10
29.5379
 20
6.5867
 10
29.5783
 20
6.5758
 10
29.6181
 20
6.5651
 10
29.6579
 20
6.5544
 10
29.6977
 20
6.5437
 10
29.7375
 20
6.533
 10
29.7772
 20
6.5222
 10
29.817
 20
6.5115
 10
29.8568
 20
6.5008
 10
29.8966
 20
6.4901
 10
29.9364
 20
6.4794
 10
29.9762
 20
6.4686
 10
30.0159
 20
6.4579
 10
30.0557
 20
6.4472
 10
30.0955
 20
6.4365
 10
30.1353
 20
6.4258
 10
30.1751
 20
6.415
 10
30.2149
 20
6.4043
 10
30.2546
 20
6.3936
 10
30.2944
 20
6.3829
 10
30.3342
 20
6.3721
 10
30.374
 20
6.3614
 10
30.4138
 20
6.3507
 10
30.4536
 20
6.34
 10
30.4933
 20
6.3293
 10
30.5331
 20
6.3185
 10
30.5729
 20
6.3078
 10
30.6127
 20
6.2971
 10
30.6525
 20
6.2864
 10
30.6923
 20
6.2757
 10
30.732
 20
6.2649
 10
30.7718
 20
6.2542
 10
30.8116
 20
6.2435
 10
30.8606
 20
6.2307
 10
30.9089
 20
6.2176
 10
30.9563
 20
6.2041
 10
31.0028
 20
6.1902
 10
31.0485
 20
6.176
 10
31.0933
 20
6.1615
 10
31.1373
 20
6.1466
 10
31.1804
 20
6.1314
 10
31.2226
 20
6.1158
 10
31.264
 20
6.0999
 10
31.3045
 20
6.0836
 10
31.3442
 20
6.067
 10
31.383
 20
6.0501
 10
31.4209
 20
6.0328
 10
31.458
 20
6.0152
 10
31.4942
 20
5.9972
 10
31.5295
 20
5.9788
 10
31.564
 20
5.9602
 10
31.5976
 20
5.9411
 10
31.6303
 20
5.9218
 10
31.6622
 20
5.9021
 10
31.6932
 20
5.882
 10
31.7234
 20
5.8616
 10
31.7527
 20
5.8409
 10
31.7811
 20
5.8198
 10
31.8087
 20
5.7983
 10
31.8354
 20
5.7766
 10
31.8613
 20
5.7544
 10
31.8862
 20
5.732
 10
31.9109
 20
5.7086
 10
31.9387
 20
5.6807
 10
31.9653
 20
5.6519
 10
31.9908
 20
5.6223
 10
32.0151
 20
5.592
 10
32.0383
 20
5.5608
 10
32.0604
 20
5.5288
 10
32.0813
 20
5.4961
 10
32.1011
 20
5.4625
 10
32.1197
 20
5.4282
 10
32.1372
 20
5.393
 10
32.1536
 20
5.3571
 10
32.1688
 20
5.3203
 10
32.1829
 20
5.2828
 10
32.1958
 20
5.2445
 10
32.2076
 20
5.2053
 10
32.2182
 20
5.1654
 10
32.2277
 20
5.1247
 10
32.2361
 20
5.0831
 10
32.2433
 20
5.0408
 10
32.2494
 20
4.9977
 10
32.2544
 20
4.9538
 10
32.2582
 20
4.909
 10
32.2609
 20
4.8635
 10
32.2624
 20
4.8172
 10
32.2628
 20
4.7701
 10
32.2621
 20
4.7233
 10
32.2604
 20
4.6772
 10
32.2577
 20
4.6318
 10
32.254
 20
4.5871
 10
32.2492
 20
4.5431
 10
32.2435
 20
4.4998
 10
32.2367
 20
4.4572
 10
32.2289
 20
4.4153
 10
32.2201
 20
4.374
 10
32.2103
 20
4.3335
 10
32.1995
 20
4.2937
 10
32.1877
 20
4.2545
 10
32.1748
 20
4.2161
 10
32.161
 20
4.1784
 10
32.1461
 20
4.1413
 10
32.1302
 20
4.1049
 10
32.1133
 20
4.0693
 10
32.0953
 20
4.0343
 10
32.0764
 20
4.0001
 10
32.0564
 20
3.9665
 10
32.0354
 20
3.9336
 10
32.0135
 20
3.9014
 10
31.9905
 20
3.87
 10
31.9664
 20
3.8392
 10
31.9414
 20
3.8091
 10
31.9153
 20
3.7797
 10
31.8883
 20
3.751
 10
31.8602
 20
3.723
 10
31.8311
 20
3.6957
 10
31.801
 20
3.6691
 10
31.7699
 20
3.6432
 10
31.7377
 20
3.6179
 10
31.7046
 20
3.5934
 10
31.6704
 20
3.5696
 10
31.6352
 20
3.5465
 10
31.6036
 20
3.5268
 10
31.5773
 20
3.5112
 10
31.5505
 20
3.496
 10
31.5232
 20
3.481
 10
31.4952
 20
3.4664
 10
31.4667
 20
3.4521
 10
31.4377
 20
3.4381
 10
31.4081
 20
3.4244
 10
31.3779
 20
3.411
 10
31.3471
 20
3.398
 10
31.3158
 20
3.3852
 10
31.2839
 20
3.3728
 10
31.2515
 20
3.3607
 10
31.2185
 20
3.3489
 10
31.1849
 20
3.3374
 10
31.1508
 20
3.3263
 10
31.1161
 20
3.3154
 10
31.0808
 20
3.3049
 10
31.045
 20
3.2947
 10
31.0086
 20
3.2848
 10
30.9716
 20
3.2752
 10
30.9341
 20
3.2659
 10
30.896
 20
3.2569
 10
30.8573
 20
3.2483
 10
30.8181
 20
3.2399
 10
30.7783
 20
3.2319
 10
30.738
 20
3.2242
 10
30.6971
 20
3.2168
 10
30.6556
 20
3.2098
 10
30.6135
 20
3.203
 10
30.5709
 20
3.1965
 10
30.5278
 20
3.1904
 10
30.484
 20
3.1846
 10
30.4397
 20
3.1791
 10
30.3949
 20
3.1739
 10
30.3494
 20
3.169
 10
30.3034
 20
3.1645
 10
30.2569
 20
3.1602
 10
30.2097
 20
3.1563
 10
30.1621
 20
3.1527
 10
30.1138
 20
3.1494
 10
30.065
 20
3.1464
 10
30.0156
 20
3.1437
 10
29.9656
 20
3.1414
 10
29.9151
 20
3.1393
 10
29.8641
 20
3.1376
 10
29.8124
 20
3.1362
 10
29.7602
 20
3.1351
 10
29.7074
 20
3.1343
  0
LWPOLYLINE
  5
4E
330
17
100
AcDbEntity
  8
OUTLINE
100
AcDbPolyline
 90
192
 70
1
 10
42.0271
 20
3.135
 10
41.9294
 20
3.1336
 10
41.832
 20
3.135
 10
41.7366
 20
3.1392
 10
41.6431
 20
3.1461
 10
41.5515
 20
3.1558
 10
41.4619
 20
3.1683
 10
41.3742
 20
3.1835
 10
41.2884
 20
3.2015
 10
41.2046
 20
3.2222
 10
41.1227
 20
3.2458
 10
41.0427
 20
3.2721
 10
40.9646
 20
3.3011
 10
40.8885
 20
3.333
 10
40.8143
 20
3.3676
 10
40.7421
 20
3.4049
 10
40.6718
 20
3.4451
 10
40.6034
 20
3.488
 10
40.5369
 20
3.5336
 10
40.4724
 20
3.5821
 10
40.4098
 20
3.6333
 10
40.3492
 20
3.6873
 10
40.2904
 20
3.744
 10
40.2336
 20
3.8035
 10
40.1802
 20
3.8641
 10
40.1327
 20
3.9222
 10
40.0872
 20
3.9821
 10
40.0436
 20
4.0438
 10
40.0019
 20
4.1074
 10
39.9622
 20
4.1729
 10
39.9244
 20
4.2401
 10
39.8885
 20
4.3092
 10
39.8546
 20
4.3802
 10
39.8226
 20
4.453
 10
39.7926
 20
4.5276
 10
39.7645
 20
4.604
 10
39.7383
 20
4.6823
 10
39.7141
 20
4.7625
 10
39.6918
 20
4.8444
 10
39.6715
 20
4.9283
 10
39.6531
 20
5.0139
 10
39.6367
 20
5.1014
 10
39.6221
 20
5.1907
 10
39.6096
 20
5.2819
 10
39.5989
 20
5.3749
 10
39.5902
 20
5.4697
 10
39.5835
 20
5.5664
 10
39.5787
 20
5.6649
 10
39.5758
 20
5.7653
 10
39.5749
 20
5.8675
 10
39.5759
 20
5.9699
 10
39.5788
 20
6.0705
 10
39.5837
 20
6.1691
 10
39.5905
 20
6.266
 10
39.5992
 20
6.3609
 10
39.6099
 20
6.454
 10
39.6225
 20
6.5453
 10
39.6371
 20
6.6347
 10
39.6535
 20
6.7222
 10
39.672
 20
6.8079
 10
39.6923
 20
6.8917
 10
39.7146
 20
6.9737
 10
39.7388
 20
7.0538
 10
39.765
 20
7.132
 10
39.7931
 20
7.2084
 10
39.8231
 20
7.2829
 10
39.8551
 20
7.3556
 10
39.889
 20
7.4264
 10
39.9248
 20
7.4954
 10
39.9626
 20
7.5625
 10
40.0023
 20
7.6277
 10
40.0439
 20
7.6911
 10
40.0875
 20
7.7526
 10
40.133
 20
7.8123
 10
40.1805
 20
7.8701
 10
40.2339
 20
7.9305
 10
40.2908
 20
7.9898
 10
40.3495
 20
8.0464
 10
40.4102
 20
8.1002
 10
40.4729
 20
8.1513
 10
40.5375
 20
8.1996
 10
40.604
 20
8.2451
 10
40.6724
 20
8.2879
 10
40.7428
 20
8.3279
 10
40.8151
 20
8.3651
 10
40.8894
 20
8.3996
 10
40.9656
 20
8.4313
 10
41.0437
 20
8.4603
 10
41.1237
 20
8.4865
 10
41.2057
 20
8.5099
 10
41.2896
 20
8.5306
 10
41.3755
 20
8.5485
 10
41.4633
 20
8.5636
 10
41.553
 20
8.576
 10
41.6447
 20
8.5856
 10
41.7383
 20
8.5925
 10
41.8338
 20
8.5965
 10
41.9313
 20
8.5979
 10
42.0289
 20
8.5964
 10
42.1247
 20
8.5923
 10
42.2184
 20
8.5853
 10
42.3102
 20
8.5756
 10
42.4001
 20
8.5632
 10
42.488
 20
8.548
 10
42.5739
 20
8.53
 10
42.6579
 20
8.5093
 10
42.7399
 20
8.4858
 10
42.8199
 20
8.4596
 10
42.898
 20
8.4306
 10
42.9742
 20
8.3989
 10
43.0484
 20
8.3644
 10
43.1206
 20
8.3272
 10
43.1909
 20
8.2872
 10
43.2592
 20
8.2444
 10
43.3255
 20
8.1989
 10
43.3899
 20
8.1506
 10
43.4524
 20
8.0996
 10
43.5129
 20
8.0458
 10
43.5714
 20
7.9893
 10
43.628
 20
7.93
 10
43.6811
 20
7.8697
 10
43.7284
 20
7.8119
 10
43.7737
 20
7.7522
 10
43.8171
 20
7.6906
 10
43.8586
 20
7.6272
 10
43.8982
 20
7.5619
 10
43.9358
 20
7.4947
 10
43.9715
 20
7.4257
 10
44.0052
 20
7.3549
 10
44.0371
 20
7.2821
 10
44.067
 20
7.2075
 10
44.0949
 20
7.1311
 10
44.121
 20
7.0528
 10
44.1451
 20
6.9726
 10
44.1673
 20
6.8906
 10
44.1875
 20
6.8067
 10
44.2059
 20
6.721
 10
44.2223
 20
6.6334
 10
44.2367
 20
6.5439
 10
44.2493
 20
6.4526
 10
44.2599
 20
6.3594
 10
44.2685
 20
6.2643
 10
44.2753
 20
6.1674
 10
44.2801
 20
6.0687
 10
44.283
 20
5.9681
 10
44.284
 20
5.8656
 10
44.283
 20
5.7634
 10
44.2801
 20
5.663
 10
44.2753
 20
5.5645
 10
44.2685
 20
5.4678
 10
44.2598
 20
5.3729
 10
44.2491
 20
5.2799
 10
44.2366
 20
5.1887
 10
44.2221
 20
5.0994
 10
44.2056
 20
5.0119
 10
44.1872
 20
4.9263
 10
44.1669
 20
4.8425
 10
44.1447
 20
4.7605
 10
44.1205
 20
4.6804
 10
44.0944
 20
4.6021
 10
44.0664
 20
4.5256
 10
44.0364
 20
4.451
 10
44.0045
 20
4.3783
 10
43.9706
 20
4.3073
 10
43.9348
 20
4.2382
 10
43.8971
 20
4.171
 10
43.8575
 20
4.1056
 10
43.8159
 20
4.042
 10
43.7724
 20
3.9803
 10
43.7269
 20
3.9204
 10
43.6795
 20
3.8624
 10
43.6262
 20
3.8017
 10
43.5696
 20
3.7424
 10
43.511
 20
3.6858
 10
43.4505
 20
3.6319
 10
43.388
 20
3.5809
 10
43.3236
 20
3.5326
 10
43.2573
 20
3.487
 10
43.1889
 20
3.4442
 10
43.1187
 20
3.4042
 10
43.0464
 20
3.3669
 10
42.9722
 20
3.3324
 10
42.8961
 20
3.3007
 10
42.818
 20
3.2717
 10
42.7379
 20
3.2455
 10
42.6559
 20
3.222
 10
42.5719
 20
3.2013
 10
42.486
 20
3.1833
 10
42.3981
 20
3.1682
 10
42.3083
 20
3.1557
 10
42.2165
 20
3.1461
 10
42.1228
 20
3.1392
  0
LWPOLYLINE
  5
4F
330
17
100
AcDbEntity
  8
OUTLINE
100
AcDbPolyline
 90
192
 70
1
 10
41.8801
 20
4.2771
 10
41.9294
 20
4.2761
 10
41.9791
 20
4.2771
 10
42.0277
 20
4.2799
 10
42.0751
 20
4.2846
 10
42.1215
 20
4.2912
 10
42.1667
 20
4.2997
 10
42.2109
 20
4.3101
 10
42.2539
 20
4.3224
 10
42.2958
 20
4.3365
 10
42.3366
 20
4.3526
 10
42.3763
 20
4.3705
 10
42.4149
 20
4.3903
 10
42.4524
 20
4.412
 10
42.4888
 20
4.4356
 10
42.5241
 20
4.4611
 10
42.5583
 20
4.4884
 10
42.5913
 20
4.5177
 10
42.6233
 20
4.5488
 10
42.6541
 20
4.5818
 10
42.6838
 20
4.6168
 10
42.7125
 20
4.6536
 10
42.7398
 20
4.6919
 10
42.7603
 20
4.7231
 10
42.7801
 20
4.7552
 10
42.799
 20
4.7883
 10
42.8172
 20
4.8223
 10
42.8347
 20
4.8573
 10
42.8513
 20
4.8931
 10
42.8672
 20
4.93
 10
42.8823
 20
4.9678
 10
42.8966
 20
5.0065
 10
42.9102
 20
5.0461
 10
42.923
 20
5.0868
 10
42.935
 20
5.1283
 10
42.9462
 20
5.1708
 10
42.9567
 20
5.2142
 10
42.9664
 20
5.2586
 10
42.9753
 20
5.3039
 10
42.9834
 20
5.3502
 10
42.9908
 20
5.3974
 10
42.9974
 20
5.4456
 10
43.0032
 20
5.4947
 10
43.0083
 20
5.5447
 10
43.0125
 20
5.5957
 10
43.016
 20
5.6476
 10
43.0188
 20
5.7005
 10
43.0207
 20
5.7543
 10
43.0219
 20
5.809
 10
43.0223
 20
5.8647
 10
43.0219
 20
5.9207
 10
43.0208
 20
5.9756
 10
43.0188
 20
6.0297
 10
43.0161
 20
6.0827
 10
43.0126
 20
6.1348
 10
43.0084
 20
6.186
 10
43.0034
 20
6.2361
 10
42.9975
 20
6.2854
 10
42.991
 20
6.3336
 10
42.9836
 20
6.381
 10
42.9755
 20
6.4273
 10
42.9665
 20
6.4727
 10
42.9569
 20
6.5171
 10
42.9464
 20
6.5606
 10
42.9351
 20
6.6031
 10
42.9231
 20
6.6447
 10
42.9103
 20
6.6853
 10
42.8967
 20
6.7249
 10
42.8824
 20
6.7636
 10
42.8673
 20
6.8013
 10
42.8514
 20
6.8381
 10
42.8347
 20
6.8739
 10
42.8172
 20
6.9088
 10
42.799
 20
6.9427
 10
42.78
 20
6.9756
 10
42.7602
 20
7.0076
 10
42.7396
 20
7.0386
 10
42.7128
 20
7.0761
 10
42.684
 20
7.113
 10
42.6541
 20
7.1481
 10
42.6231
 20
7.1812
 10
42.591
 20
7.2125
 10
42.5578
 20
7.2418
 10
42.5236
 20
7.2693
 10
42.4883
 20
7.2949
 10
42.4519
 20
7.3186
 10
42.4144
 20
7.3404
 10
42.3758
 20
7.3603
 10
42.3361
 20
7.3783
 10
42.2954
 20
7.3944
 10
42.2535
 20
7.4087
 10
42.2106
 20
7.421
 10
42.1666
 20
7.4314
 10
42.1216
 20
7.44
 10
42.0754
 20
7.4466
 10
42.0281
 20
7.4514
 10
41.9798
 20
7.4543
 10
41.9304
 20
7.4553
 10
41.881
 20
7.4544
 10
41.8326
 20
7.4516
 10
41.7853
 20
7.4469
 10
41.7391
 20
7.4403
 10
41.694
 20
7.4318
 10
41.6499
 20
7.4214
 10
41.607
 20
7.4092
 10
41.5651
 20
7.395
 10
41.5243
 20
7.379
 10
41.4846
 20
7.361
 10
41.446
 20
7.3412
 10
41.4084
 20
7.3195
 10
41.372
 20
7.2959
 10
41.3366
 20
7.2704
 10
41.3023
 20
7.243
 10
41.2691
 20
7.2137
 10
41.237
 20
7.1825
 10
41.206
 20
7.1494
 10
41.176
 20
7.1144
 10
41.1471
 20
7.0776
 10
41.12
 20
7.0398
 10
41.0994
 20
7.0088
 10
41.0796
 20
6.9769
 10
41.0606
 20
6.944
 10
41.0423
 20
6.9101
 10
41.0248
 20
6.8753
 10
41.0081
 20
6.8395
 10
40.9922
 20
6.8028
 10
40.977
 20
6.7651
 10
40.9626
 20
6.7265
 10
40.949
 20
6.6869
 10
40.9362
 20
6.6463
 10
40.9242
 20
6.6048
 10
40.9129
 20
6.5623
 10
40.9024
 20
6.5189
 10
40.8927
 20
6.4745
 10
40.8837
 20
6.4291
 10
40.8755
 20
6.3828
 10
40.8681
 20
6.3355
 10
40.8615
 20
6.2873
 10
40.8557
 20
6.2381
 10
40.8506
 20
6.188
 10
40.8463
 20
6.1369
 10
40.8428
 20
6.0848
 10
40.8401
 20
6.0318
 10
40.8381
 20
5.9778
 10
40.837
 20
5.9229
 10
40.8365
 20
5.867
 10
40.8369
 20
5.8113
 10
40.8381
 20
5.7565
 10
40.84
 20
5.7027
 10
40.8427
 20
5.6498
 10
40.8462
 20
5.5979
 10
40.8505
 20
5.5469
 10
40.8555
 20
5.4969
 10
40.8614
 20
5.4478
 10
40.868
 20
5.3996
 10
40.8754
 20
5.3524
 10
40.8835
 20
5.3061
 10
40.8925
 20
5.2608
 10
40.9022
 20
5.2164
 10
40.9127
 20
5.1729
 10
40.924
 20
5.1304
 10
40.9361
 20
5.0888
 10
40.9489
 20
5.0482
 10
40.9625
 20
5.0085
 10
40.9769
 20
4.9698
 10
40.9921
 20
4.932
 10
41.0081
 20
4.8951
 10
41.0248
 20
4.8592
 10
41.0424
 20
4.8242
 10
41.0607
 20
4.7902
 10
41.0798
 20
4.7571
 10
41.0996
 20
4.725
 10
41.1203
 20
4.6937
 10
41.1474
 20
4.6557
 10
41.1763
 20
4.6187
 10
41.2062
 20
4.5836
 10
41.2372
 20
4.5504
 10
41.2693
 20
4.519
 10
41.3024
 20
4.4896
 10
41.3367
 20
4.4621
 10
41.372
 20
4.4365
 10
41.4084
 20
4.4128
 10
41.4459
 20
4.3909
 10
41.4844
 20
4.371
 10
41.5241
 20
4.353
 10
41.5648
 20
4.3369
 10
41.6066
 20
4.3226
 10
41.6495
 20
4.3103
 10
41.6934
 20
4.2999
 10
41.7385
 20
4.2913
 10
41.7846
 20
4.2847
 10
41.8318
 20
4.2799
  0
LWPOLYLINE
  5
50
330
17
100
AcDbEntity
  8
OUTLINE
100
AcDbPolyline
 90
303
 70
1
 10
36.9272
 20
8.3315
 10
36.9272
 20
8.248
 10
36.9272
 20
8.2005
 10
36.9272
 20
8.1645
 10
36.9272
 20
8.0809
 10
36.9272
 20
8.0716
 10
36.9272
 20
7.9974
 10
36.9272
 20
7.9426
 10
36.9272
 20
7.9139
 10
36.9272
 20
7.8304
 10
36.9272
 20
7.8137
 10
36.9272
 20
7.7469
 10
36.9272
 20
7.6847
 10
36.9272
 20
7.6634
 10
36.9272
 20
7.5799
 10
36.9272
 20
7.5558
 10
36.9272
 20
7.4963
 10
36.9272
 20
7.4268
 10
36.9272
 20
7.4128
 10
36.9272
 20
7.2979
 10
36.9272
 20
7.1689
 10
36.9272
 20
7.04
 10
36.9272
 20
6.911
 10
36.9272
 20
6.7821
 10
36.9272
 20
6.6531
 10
36.9272
 20
6.5242
 10
36.9272
 20
6.3952
 10
36.9272
 20
6.2663
 10
36.9272
 20
6.1373
 10
36.9272
 20
6.0084
 10
36.9272
 20
5.8794
 10
36.9272
 20
5.7505
 10
36.9272
 20
5.6215
 10
36.9272
 20
5.4926
 10
36.9272
 20
5.3636
 10
36.9272
 20
5.2347
 10
36.9272
 20
5.1057
 10
36.9272
 20
4.9768
 10
36.9272
 20
4.8478
 10
36.9272
 20
4.7189
 10
36.9272
 20
4.5899
 10
36.9272
 20
4.461
 10
36.9272
 20
4.3457
 10
36.9387
 20
4.3457
 10
36.997
 20
4.3457
 10
37.0552
 20
4.3457
 10
37.1135
 20
4.3457
 10
37.1718
 20
4.3457
 10
37.23
 20
4.3457
 10
37.2883
 20
4.3457
 10
37.3466
 20
4.3457
 10
37.4048
 20
4.3457
 10
37.4631
 20
4.3457
 10
37.5213
 20
4.3457
 10
37.5796
 20
4.3457
 10
37.6379
 20
4.3457
 10
37.6961
 20
4.3457
 10
37.7544
 20
4.3457
 10
37.8127
 20
4.3457
 10
37.8709
 20
4.3457
 10
37.9292
 20
4.3457
 10
37.9875
 20
4.3457
 10
38.0457
 20
4.3457
 10
38.104
 20
4.3457
 10
38.1623
 20
4.3457
 10
38.2205
 20
4.3457
 10
38.2788
 20
4.3457
 10
38.3371
 20
4.3457
 10
38.3953
 20
4.3457
 10
38.4536
 20
4.3457
 10
38.5118
 20
4.3457
 10
38.5118
 20
4.2875
 10
38.5118
 20
4.2292
 10
38.5118
 20
4.1709
 10
38.5118
 20
4.1127
 10
38.5118
 20
4.0544
 10
38.5118
 20
3.9961
 10
38.5118
 20
3.9379
 10
38.5118
 20
3.8796
 10
38.5118
 20
3.8213
 10
38.5118
 20
3.7631
 10
38.5118
 20
3.7048
 10
38.5118
 20
3.6465
 10
38.5118
 20
3.5883
 10
38.5118
 20
3.53
 10
38.5118
 20
3.4718
 10
38.5118
 20
3.4135
 10
38.5118
 20
3.3552
 10
38.5118
 20
3.297
 10
38.5118
 20
3.2387
 10
38.4593
 20
3.233
 10
38.401
 20
3.233
 10
38.3428
 20
3.233
 10
38.2845
 20
3.233
 10
38.2262
 20
3.233
 10
38.168
 20
3.233
 10
38.1097
 20
3.233
 10
38.0514
 20
3.233
 10
37.9932
 20
3.233
 10
37.9349
 20
3.233
 10
37.8766
 20
3.233
 10
37.8184
 20
3.233
 10
37.7601
 20
3.233
 10
37.7018
 20
3.233
 10
37.6436
 20
3.233
 10
37.5853
 20
3.233
 10
37.5271
 20
3.233
 10
37.4688
 20
3.233
 10
37.4105
 20
3.233
 10
37.3523
 20
3.233
 10
37.294
 20
3.233
 10
37.2357
 20
3.233
 10
37.1775
 20
3.233
 10
37.1192
 20
3.233
 10
37.0609
 20
3.233
 10
37.0027
 20
3.233
 10
36.9444
 20
3.233
 10
36.8861
 20
3.233
 10
36.8657
 20
3.233
 10
36.8279
 20
3.233
 10
36.7367
 20
3.233
 10
36.6078
 20
3.233
 10
36.4788
 20
3.233
 10
36.3499
 20
3.233
 10
36.2209
 20
3.233
 10
36.092
 20
3.233
 10
35.963
 20
3.233
 10
35.8341
 20
3.233
 10
35.7896
 20
3.233
 10
35.7233
 20
3.233
 10
35.7051
 20
3.233
 10
35.6569
 20
3.233
 10
35.5906
 20
3.233
 10
35.5243
 20
3.233
 10
35.4579
 20
3.233
 10
35.3916
 20
3.233
 10
35.3252
 20
3.233
 10
35.2589
 20
3.233
 10
35.1926
 20
3.233
 10
35.1262
 20
3.233
 10
35.0599
 20
3.233
 10
34.9936
 20
3.233
 10
34.9272
 20
3.233
 10
34.8609
 20
3.233
 10
34.7945
 20
3.233
 10
34.7282
 20
3.233
 10
34.6619
 20
3.233
 10
34.5955
 20
3.233
 10
34.5292
 20
3.233
 10
34.4629
 20
3.233
 10
34.3965
 20
3.233
 10
34.3302
 20
3.233
 10
34.2638
 20
3.233
 10
34.1975
 20
3.233
 10
34.1312
 20
3.233
 10
34.0648
 20
3.233
 10
33.9985
 20
3.233
 10
33.9322
 20
3.233
 10
33.8658
 20
3.233
 10
33.7995
 20
3.233
 10
33.7331
 20
3.233
 10
33.7331
 20
3.2993
 10
33.7331
 20
3.3657
 10
33.7331
 20
3.432
 10
33.7331
 20
3.4983
 10
33.7331
 20
3.5647
 10
33.7331
 20
3.631
 10
33.7331
 20
3.6974
 10
33.7331
 20
3.7637
 10
33.7331
 20
3.83
 10
33.7331
 20
3.8964
 10
33.7331
 20
3.9627
 10
33.7331
 20
4.029
 10
33.7331
 20
4.0954
 10
33.7331
 20
4.1617
 10
33.7331
 20
4.2281
 10
33.7331
 20
4.2944
 10
33.7481
 20
4.3457
 10
33.8145
 20
4.3457
 10
33.8808
 20
4.3457
 10
33.9472
 20
4.3457
 10
34.0135
 20
4.3457
 10
34.0798
 20
4.3457
 10
34.1462
 20
4.3457
 10
34.2125
 20
4.3457
 10
34.2788
 20
4.3457
 10
34.3452
 20
4.3457
 10
34.4115
 20
4.3457
 10
34.4779
 20
4.3457
 10
34.5442
 20
4.3457
 10
34.6105
 20
4.3457
 10
34.6769
 20
4.3457
 10
34.7432
 20
4.3457
 10
34.8095
 20
4.3457
 10
34.8759
 20
4.3457
 10
34.9422
 20
4.3457
 10
35.0086
 20
4.3457
 10
35.0749
 20
4.3457
 10
35.1412
 20
4.3457
 10
35.2076
 20
4.3457
 10
35.2739
 20
4.3457
 10
35.3402
 20
4.3457
 10
35.4066
 20
4.3457
 10
35.4729
 20
4.3457
 10
35.5393
 20
4.3457
 10
35.6056
 20
4.3457
 10
35.6719
 20
4.3457
 10
35.7051
 20
4.3457
 10
35.7051
 20
4.3935
 10
35.7051
 20
4.5225
 10
35.7051
 20
4.6514
 10
35.7051
 20
4.7804
 10
35.7051
 20
4.9093
 10
35.7051
 20
5.0383
 10
35.7051
 20
5.1672
 10
35.7051
 20
5.2962
 10
35.7051
 20
5.4251
 10
35.7051
 20
5.5541
 10
35.7051
 20
5.683
 10
35.7051
 20
5.812
 10
35.7051
 20
5.9409
 10
35.7051
 20
6.0699
 10
35.7051
 20
6.1988
 10
35.7051
 20
6.3278
 10
35.7051
 20
6.4567
 10
35.7051
 20
6.5857
 10
35.7051
 20
6.7146
 10
35.7051
 20
6.8436
 10
35.7051
 20
6.9725
 10
35.7051
 20
7.1015
 10
35.7051
 20
7.2304
 10
35.7051
 20
7.3594
 10
35.7051
 20
7.3858
 10
35.7015
 20
7.3858
 10
35.618
 20
7.3858
 10
35.5345
 20
7.3858
 10
35.4509
 20
7.3858
 10
35.3674
 20
7.3858
 10
35.2839
 20
7.3858
 10
35.2004
 20
7.3858
 10
35.1169
 20
7.3858
 10
35.0334
 20
7.3858
 10
34.9498
 20
7.3858
 10
34.8663
 20
7.3858
 10
34.7828
 20
7.3858
 10
34.6993
 20
7.3858
 10
34.6158
 20
7.3858
 10
34.5323
 20
7.3858
 10
34.4487
 20
7.3858
 10
34.3652
 20
7.3858
 10
34.2817
 20
7.3858
 10
34.1982
 20
7.3858
 10
34.1147
 20
7.3858
 10
34.0312
 20
7.3858
 10
34.0312
 20
7.4693
 10
34.0312
 20
7.5528
 10
34.0312
 20
7.6363
 10
34.0312
 20
7.7199
 10
34.0312
 20
7.8034
 10
34.0312
 20
7.8869
 10
34.0312
 20
7.9704
 10
34.0312
 20
8.0539
 10
34.0312
 20
8.1374
 10
34.0312
 20
8.221
 10
34.0312
 20
8.3045
 10
34.0312
 20
8.388
 10
34.0312
 20
8.4715
 10
34.0877
 20
8.4985
 10
34.1712
 20
8.4985
 10
34.2547
 20
8.4985
 10
34.3382
 20
8.4985
 10
34.4217
 20
8.4985
 10
34.5052
 20
8.4985
 10
34.5888
 20
8.4985
 10
34.6723
 20
8.4985
 10
34.7558
 20
8.4985
 10
34.8393
 20
8.4985
 10
34.9228
 20
8.4985
 10
35.0063
 20
8.4985
 10
35.0899
 20
8.4985
 10
35.1734
 20
8.4985
 10
35.2569
 20
8.4985
 10
35.3404
 20
8.4985
 10
35.4239
 20
8.4985
 10
35.5074
 20
8.4985
 10
35.591
 20
8.4985
 10
35.6745
 20
8.4985
 10
35.758
 20
8.4985
 10
35.8415
 20
8.4985
 10
35.925
 20
8.4985
 10
36.0085
 20
8.4985
 10
36.092
 20
8.4985
 10
36.1756
 20
8.4985
 10
36.2591
 20
8.4985
 10
36.3426
 20
8.4985
 10
36.4261
 20
8.4985
 10
36.5096
 20
8.4985
 10
36.5931
 20
8.4985
 10
36.6767
 20
8.4985
 10
36.7602
 20
8.4985
 10
36.8437
 20
8.4985
 10
36.9272
 20
8.4985
 10
36.9272
 20
8.415
  0
LWPOLYLINE
  5
51
330
17
100
AcDbEntity
  8
OUTLINE
100
AcDbPolyline
 90
246
 70
1
 10
16.0701
 20
10.2868
 10
16.1154
 20
10.2868
 10
16.1924
 20
10.2868
 10
16.2872
 20
10.2868
 10
16.3147
 20
10.2868
 10
16.4371
 20
10.2868
 10
16.4591
 20
10.2868
 10
16.5594
 20
10.2868
 10
16.631
 20
10.2868
 10
16.6817
 20
10.2868
 10
16.8029
 20
10.2868
 10
16.804
 20
10.2868
 10
16.9263
 20
10.2868
 10
16.9748
 20
10.2868
 10
17.0487
 20
10.2868
 10
17.1467
 20
10.2868
 10
17.171
 20
10.2868
 10
17.2933
 20
10.2868
 10
17.4156
 20
10.2868
 10
17.538
 20
10.2868
 10
17.6603
 20
10.2868
 10
17.7826
 20
10.2868
 10
17.9049
 20
10.2868
 10
18.0273
 20
10.2868
 10
18.1496
 20
10.2868
 10
18.2719
 20
10.2868
 10
18.3942
 20
10.2868
 10
18.5166
 20
10.2868
 10
18.6389
 20
10.2868
 10
18.7612
 20
10.2868
 10
18.8835
 20
10.2868
 10
19.0059
 20
10.2868
 10
19.1282
 20
10.2868
 10
19.2505
 20
10.2868
 10
19.3728
 20
10.2868
 10
19.4952
 20
10.2868
 10
19.6175
 20
10.2868
 10
19.7398
 20
10.2868
 10
19.8621
 20
10.2868
 10
19.9845
 20
10.2868
 10
20.1068
 20
10.2868
 10
20.2291
 20
10.2868
 10
20.3514
 20
10.2868
 10
20.4738
 20
10.2868
 10
20.5961
 20
10.2868
 10
20.7184
 20
10.2868
 10
20.7184
 20
10.1645
 10
20.7184
 20
10.0421
 10
20.7184
 20
9.9198
 10
20.7184
 20
9.7975
 10
20.7184
 20
9.6752
 10
20.7184
 20
9.5528
 10
20.7184
 20
9.4305
 10
20.7184
 20
9.3082
 10
20.7184
 20
9.1859
 10
20.5979
 20
9.184
 10
20.4756
 20
9.184
 10
20.3533
 20
9.184
 10
20.2309
 20
9.184
 10
20.1086
 20
9.184
 10
19.9863
 20
9.184
 10
19.864
 20
9.184
 10
19.7416
 20
9.184
 10
19.6193
 20
9.184
 10
19.497
 20
9.184
 10
19.3747
 20
9.184
 10
19.2523
 20
9.184
 10
19.13
 20
9.184
 10
19.0077
 20
9.184
 10
18.8854
 20
9.184
 10
18.763
 20
9.184
 10
18.6407
 20
9.184
 10
18.5184
 20
9.184
 10
18.3961
 20
9.184
 10
18.2737
 20
9.184
 10
18.1514
 20
9.184
 10
18.0291
 20
9.184
 10
17.9068
 20
9.184
 10
17.7844
 20
9.184
 10
17.6621
 20
9.184
 10
17.5398
 20
9.184
 10
17.4175
 20
9.184
 10
17.2951
 20
9.184
 10
17.1728
 20
9.184
 10
17.1467
 20
9.184
 10
17.1467
 20
9.0835
 10
17.1467
 20
8.9116
 10
17.1467
 20
8.7397
 10
17.1467
 20
8.5678
 10
17.1467
 20
8.3959
 10
17.1467
 20
8.2241
 10
17.1467
 20
8.0522
 10
17.1467
 20
7.8803
 10
17.1467
 20
7.7084
 10
17.1467
 20
7.5365
 10
17.1467
 20
7.3646
 10
17.1467
 20
7.1927
 10
17.1467
 20
7.0231
 10
17.2054
 20
7.0231
 10
17.3082
 20
7.0231
 10
17.411
 20
7.0231
 10
17.5137
 20
7.0231
 10
17.6165
 20
7.0231
 10
17.7192
 20
7.0231
 10
17.822
 20
7.0231
 10
17.9248
 20
7.0231
 10
18.0275
 20
7.0231
 10
18.1303
 20
7.0231
 10
18.2331
 20
7.0231
 10
18.3358
 20
7.0231
 10
18.4386
 20
7.0231
 10
18.5413
 20
7.0231
 10
18.6441
 20
7.0231
 10
18.7469
 20
7.0231
 10
18.8496
 20
7.0231
 10
18.9524
 20
7.0231
 10
19.0552
 20
7.0231
 10
19.1579
 20
7.0231
 10
19.2607
 20
7.0231
 10
19.3634
 20
7.0231
 10
19.4662
 20
7.0231
 10
19.569
 20
7.0231
 10
19.6717
 20
7.0231
 10
19.7745
 20
7.0231
 10
19.7745
 20
6.9204
 10
19.7745
 20
6.8176
 10
19.7745
 20
6.7148
 10
19.7745
 20
6.6121
 10
19.7745
 20
6.5093
 10
19.7745
 20
6.4065
 10
19.7745
 20
6.3038
 10
19.7745
 20
6.201
 10
19.7745
 20
6.0982
 10
19.7745
 20
5.9955
 10
19.7518
 20
5.9154
 10
19.649
 20
5.9154
 10
19.5463
 20
5.9154
 10
19.4435
 20
5.9154
 10
19.3407
 20
5.9154
 10
19.238
 20
5.9154
 10
19.1352
 20
5.9154
 10
19.0325
 20
5.9154
 10
18.9297
 20
5.9154
 10
18.8269
 20
5.9154
 10
18.7242
 20
5.9154
 10
18.6214
 20
5.9154
 10
18.5186
 20
5.9154
 10
18.4159
 20
5.9154
 10
18.3131
 20
5.9154
 10
18.2104
 20
5.9154
 10
18.1076
 20
5.9154
 10
18.0048
 20
5.9154
 10
17.9021
 20
5.9154
 10
17.7993
 20
5.9154
 10
17.6965
 20
5.9154
 10
17.5938
 20
5.9154
 10
17.491
 20
5.9154
 10
17.3883
 20
5.9154
 10
17.2855
 20
5.9154
 10
17.1827
 20
5.9154
 10
17.1467
 20
5.9154
 10
17.1467
 20
5.8175
 10
17.1467
 20
5.6456
 10
17.1467
 20
5.4737
 10
17.1467
 20
5.3018
 10
17.1467
 20
5.1299
 10
17.1467
 20
4.9581
 10
17.1467
 20
4.7862
 10
17.1467
 20
4.6143
 10
17.1467
 20
4.4424
 10
17.1467
 20
4.2705
 10
17.1467
 20
4.0986
 10
17.1467
 20
3.9267
 10
17.1467
 20
3.7548
 10
17.1467
 20
3.5829
 10
17.1467
 20
3.411
 10
17.1467
 20
3.2391
 10
16.9809
 20
3.233
 10
16.809
 20
3.233
 10
16.6372
 20
3.233
 10
16.4653
 20
3.233
 10
16.2934
 20
3.233
 10
16.1215
 20
3.233
 10
15.9496
 20
3.233
 10
15.9496
 20
3.4049
 10
15.9496
 20
3.5768
 10
15.9496
 20
3.7487
 10
15.9496
 20
3.9206
 10
15.9496
 20
4.0925
 10
15.9496
 20
4.2644
 10
15.9496
 20
4.4363
 10
15.9496
 20
4.6081
 10
15.9496
 20
4.78
 10
15.9496
 20
4.9519
 10
15.9496
 20
5.1238
 10
15.9496
 20
5.2957
 10
15.9496
 20
5.4676
 10
15.9496
 20
5.6395
 10
15.9496
 20
5.8114
 10
15.9496
 20
5.9154
 10
15.9496
 20
5.9833
 10
15.9496
 20
6.0182
 10
15.9496
 20
6.121
 10
15.9496
 20
6.1552
 10
15.9496
 20
6.2237
 10
15.9496
 20
6.3265
 10
15.9496
 20
6.3271
 10
15.9496
 20
6.4292
 10
15.9496
 20
6.499
 10
15.9496
 20
6.532
 10
15.9496
 20
6.6348
 10
15.9496
 20
6.6709
 10
15.9496
 20
6.7375
 10
15.9496
 20
6.8403
 10
15.9496
 20
6.8428
 10
15.9496
 20
6.9431
 10
15.9496
 20
7.0147
 10
15.9496
 20
7.1866
 10
15.9496
 20
7.3585
 10
15.9496
 20
7.5304
 10
15.9496
 20
7.7023
 10
15.9496
 20
7.8741
 10
15.9496
 20
8.046
 10
15.9496
 20
8.2179
 10
15.9496
 20
8.3898
 10
15.9496
 20
8.5617
 10
15.9496
 20
8.7336
 10
15.9496
 20
8.9055
 10
15.9496
 20
9.0774
 10
15.9496
 20
9.184
 10
15.9496
 20
9.2493
 10
15.9496
 20
9.3064
 10
15.9496
 20
9.4212
 10
15.9496
 20
9.4287
 10
15.9496
 20
9.551
 10
15.9496
 20
9.5931
 10
15.9496
 20
9.6733
 10
15.9496
 20
9.765
 10
15.9496
 20
9.7957
 10
15.9496
 20
9.918
 10
15.9496
 20
9.9369
 10
15.9496
 20
10.0403
 10
15.9496
 20
10.1088
 10
15.9496
 20
10.1626
 10
15.9496
 20
10.2807
 10
15.9496
 20
10.285
  0
LWPOLYLINE
  5
52
330
17
100
AcDbEntity
  8
OUTLINE
100
AcDbPolyline
 90
192
 70
1
 10
36.3244
 20
9.2602
 10
36.2957
 20
9.259
 10
36.2665
 20
9.2586
 10
36.2373
 20
9.259
 10
36.2086
 20
9.2602
 10
36.1803
 20
9.2621
 10
36.1524
 20
9.2649
 10
36.1249
 20
9.2685
 10
36.0979
 20
9.2729
 10
36.0713
 20
9.278
 10
36.0452
 20
9.284
 10
36.0194
 20
9.2907
 10
35.9942
 20
9.2982
 10
35.9693
 20
9.3066
 10
35.9449
 20
9.3157
 10
35.9209
 20
9.3256
 10
35.8973
 20
9.3363
 10
35.8741
 20
9.3478
 10
35.8514
 20
9.3601
 10
35.8292
 20
9.3732
 10
35.8073
 20
9.3871
 10
35.7859
 20
9.4017
 10
35.7649
 20
9.4172
 10
35.7444
 20
9.4335
 10
35.7242
 20
9.4505
 10
35.7045
 20
9.4684
 10
35.6853
 20
9.487
 10
35.6666
 20
9.5063
 10
35.6488
 20
9.526
 10
35.6317
 20
9.5461
 10
35.6155
 20
9.5666
 10
35.6
 20
9.5876
 10
35.5853
 20
9.609
 10
35.5715
 20
9.6309
 10
35.5584
 20
9.6532
 10
35.5461
 20
9.6759
 10
35.5346
 20
9.699
 10
35.5239
 20
9.7226
 10
35.514
 20
9.7466
 10
35.5048
 20
9.771
 10
35.4965
 20
9.7959
 10
35.489
 20
9.8212
 10
35.4822
 20
9.8469
 10
35.4763
 20
9.8731
 10
35.4711
 20
9.8997
 10
35.4668
 20
9.9267
 10
35.4632
 20
9.9541
 10
35.4604
 20
9.982
 10
35.4584
 20
10.0103
 10
35.4572
 20
10.0391
 10
35.4569
 20
10.0682
 10
35.4572
 20
10.0974
 10
35.4584
 20
10.1262
 10
35.4604
 20
10.1545
 10
35.4632
 20
10.1824
 10
35.4668
 20
10.2098
 10
35.4711
 20
10.2368
 10
35.4763
 20
10.2634
 10
35.4822
 20
10.2896
 10
35.489
 20
10.3153
 10
35.4965
 20
10.3406
 10
35.5048
 20
10.3655
 10
35.514
 20
10.3899
 10
35.5239
 20
10.4139
 10
35.5346
 20
10.4375
 10
35.5461
 20
10.4606
 10
35.5584
 20
10.4833
 10
35.5715
 20
10.5056
 10
35.5853
 20
10.5274
 10
35.6
 20
10.5489
 10
35.6155
 20
10.5698
 10
35.6317
 20
10.5904
 10
35.6488
 20
10.6105
 10
35.6666
 20
10.6302
 10
35.6853
 20
10.6495
 10
35.7045
 20
10.6681
 10
35.7242
 20
10.686
 10
35.7444
 20
10.703
 10
35.7649
 20
10.7193
 10
35.7859
 20
10.7347
 10
35.8073
 20
10.7494
 10
35.8292
 20
10.7633
 10
35.8514
 20
10.7764
 10
35.8741
 20
10.7887
 10
35.8973
 20
10.8002
 10
35.9209
 20
10.8109
 10
35.9449
 20
10.8208
 10
35.9693
 20
10.8299
 10
35.9942
 20
10.8382
 10
36.0194
 20
10.8458
 10
36.0452
 20
10.8525
 10
36.0713
 20
10.8585
 10
36.0979
 20
10.8636
 10
36.1249
 20
10.868
 10
36.1524
 20
10.8716
 10
36.1803
 20
10.8743
 10
36.2086
 20
10.8763
 10
36.2373
 20
10.8775
 10
36.2665
 20
10.8779
 10
36.2957
 20
10.8775
 10
36.3244
 20
10.8763
 10
36.3527
 20
10.8743
 10
36.3806
 20
10.8716
 10
36.4081
 20
10.868
 10
36.4351
 20
10.8636
 10
36.4617
 20
10.8585
 10
36.4878
 20
10.8525
 10
36.5136
 20
10.8458
 10
36.5389
 20
10.8382
 10
36.5637
 20
10.8299
 10
36.5882
 20
10.8208
 10
36.6122
 20
10.8109
 10
36.6357
 20
10.8002
 10
36.6589
 20
10.7887
 10
36.6816
 20
10.7764
 10
36.7039
 20
10.7633
 10
36.7257
 20
10.7494
 10
36.7471
 20
10.7347
 10
36.7681
 20
10.7193
 10
36.7887
 20
10.703
 10
36.8088
 20
10.686
 10
36.8285
 20
10.6681
 10
36.8477
 20
10.6495
 10
36.8664
 20
10.6302
 10
36.8842
 20
10.6105
 10
36.9013
 20
10.5904
 10
36.9175
 20
10.5698
 10
36.933
 20
10.5489
 10
36.9477
 20
10.5274
 10
36.9616
 20
10.5056
 10
36.9746
 20
10.4833
 10
36.9869
 20
10.4606
 10
36.9984
 20
10.4375
 10
37.0091
 20
10.4139
 10
37.0191
 20
10.3899
 10
37.0282
 20
10.3655
 10
37.0365
 20
10.3406
 10
37.044
 20
10.3153
 10
37.0508
 20
10.2896
 10
37.0567
 20
10.2634
 10
37.0619
 20
10.2368
 10
37.0663
 20
10.2098
 10
37.0698
 20
10.1824
 10
37.0726
 20
10.1545
 10
37.0746
 20
10.1262
 10
37.0758
 20
10.0974
 10
37.0762
 20
10.0682
 10
37.0758
 20
10.0391
 10
37.0746
 20
10.0103
 10
37.0726
 20
9.982
 10
37.0698
 20
9.9541
 10
37.0663
 20
9.9267
 10
37.0619
 20
9.8997
 10
37.0567
 20
9.8731
 10
37.0508
 20
9.8469
 10
37.044
 20
9.8212
 10
37.0365
 20
9.7959
 10
37.0282
 20
9.771
 10
37.0191
 20
9.7466
 10
37.0091
 20
9.7226
 10
36.9984
 20
9.699
 10
36.9869
 20
9.6759
 10
36.9746
 20
9.6532
 10
36.9616
 20
9.6309
 10
36.9477
 20
9.609
 10
36.933
 20
9.5876
 10
36.9175
 20
9.5666
 10
36.9013
 20
9.5461
 10
36.8842
 20
9.526
 10
36.8664
 20
9.5063
 10
36.8477
 20
9.487
 10
36.8285
 20
9.4684
 10
36.8088
 20
9.4505
 10
36.7887
 20
9.4335
 10
36.7681
 20
9.4172
 10
36.7471
 20
9.4017
 10
36.7257
 20
9.3871
 10
36.7039
 20
9.3732
 10
36.6816
 20
9.3601
 10
36.6589
 20
9.3478
 10
36.6357
 20
9.3363
 10
36.6122
 20
9.3256
 10
36.5882
 20
9.3157
 10
36.5637
 20
9.3066
 10
36.5389
 20
9.2982
 10
36.5136
 20
9.2907
 10
36.4878
 20
9.284
 10
36.4617
 20
9.278
 10
36.4351
 20
9.2729
 10
36.4081
 20
9.2685
 10
36.3806
 20
9.2649
 10
36.3527
 20
9.2621
  0
LWPOLYLINE
  5
53
330
17
100
AcDbEntity
  8
OUTLINE
100
AcDbPolyline
 90
329
 70
1
 10
58.8294
 20
7.5447
 10
58.8311
 20
7.5447
 10
58.8823
 20
7.5447
 10
58.9171
 20
7.5677
 10
58.928
 20
7.6244
 10
58.9405
 20
7.6795
 10
58.9547
 20
7.733
 10
58.9704
 20
7.7849
 10
58.9877
 20
7.8353
 10
59.0066
 20
7.8841
 10
59.0272
 20
7.9314
 10
59.0493
 20
7.977
 10
59.073
 20
8.0211
 10
59.0983
 20
8.0637
 10
59.1253
 20
8.1046
 10
59.1538
 20
8.144
 10
59.1839
 20
8.1819
 10
59.2157
 20
8.2181
 10
59.249
 20
8.2528
 10
59.2839
 20
8.286
 10
59.3204
 20
8.3175
 10
59.3565
 20
8.3459
 10
59.3927
 20
8.3719
 10
59.4304
 20
8.3964
 10
59.4694
 20
8.4196
 10
59.5098
 20
8.4413
 10
59.5517
 20
8.4616
 10
59.595
 20
8.4805
 10
59.6396
 20
8.498
 10
59.6857
 20
8.5141
 10
59.7332
 20
8.5288
 10
59.7821
 20
8.542
 10
59.8324
 20
8.5539
 10
59.8842
 20
8.5643
 10
59.9373
 20
8.5733
 10
59.9918
 20
8.581
 10
60.0478
 20
8.5872
 10
60.1052
 20
8.592
 10
60.1639
 20
8.5953
 10
60.2241
 20
8.5973
 10
60.2853
 20
8.5979
 10
60.3433
 20
8.5971
 10
60.4005
 20
8.5952
 10
60.4569
 20
8.5921
 10
60.5125
 20
8.5878
 10
60.5673
 20
8.5823
 10
60.6213
 20
8.5757
 10
60.6745
 20
8.5678
 10
60.727
 20
8.5587
 10
60.7786
 20
8.5484
 10
60.8295
 20
8.537
 10
60.8796
 20
8.5243
 10
60.9289
 20
8.5105
 10
60.9774
 20
8.4955
 10
61.0251
 20
8.4792
 10
61.072
 20
8.4618
 10
61.1182
 20
8.4432
 10
61.1635
 20
8.4234
 10
61.2081
 20
8.4024
 10
61.2519
 20
8.3802
 10
61.2948
 20
8.3568
 10
61.337
 20
8.3322
 10
61.3785
 20
8.3065
 10
61.4191
 20
8.2795
 10
61.4589
 20
8.2513
 10
61.498
 20
8.222
 10
61.5362
 20
8.1914
 10
61.5737
 20
8.1597
 10
61.6104
 20
8.1268
 10
61.6463
 20
8.0927
 10
61.6814
 20
8.0573
 10
61.7157
 20
8.0208
 10
61.7492
 20
7.9831
 10
61.782
 20
7.9442
 10
61.8139
 20
7.9042
 10
61.8418
 20
7.8673
 10
61.8668
 20
7.8327
 10
61.8912
 20
7.7974
 10
61.915
 20
7.7613
 10
61.9381
 20
7.7246
 10
61.9607
 20
7.6871
 10
61.9826
 20
7.649
 10
62.004
 20
7.6101
 10
62.0247
 20
7.5705
 10
62.0448
 20
7.5302
 10
62.0643
 20
7.4892
 10
62.0832
 20
7.4475
 10
62.1014
 20
7.4051
 10
62.1191
 20
7.3619
 10
62.1362
 20
7.3181
 10
62.1526
 20
7.2735
 10
62.1684
 20
7.2283
 10
62.1837
 20
7.1823
 10
62.1983
 20
7.1356
 10
62.2123
 20
7.0882
 10
62.2256
 20
7.0401
 10
62.2384
 20
6.9913
 10
62.2506
 20
6.9418
 10
62.2621
 20
6.8915
 10
62.2731
 20
6.8406
 10
62.2834
 20
6.7889
 10
62.2931
 20
6.7366
 10
62.3022
 20
6.6835
 10
62.3107
 20
6.6297
 10
62.3186
 20
6.5752
 10
62.3259
 20
6.52
 10
62.3325
 20
6.4641
 10
62.3386
 20
6.4075
 10
62.344
 20
6.3502
 10
62.3488
 20
6.2921
 10
62.3531
 20
6.2334
 10
62.3567
 20
6.1739
 10
62.3597
 20
6.1137
 10
62.362
 20
6.0529
 10
62.3638
 20
5.9913
 10
62.365
 20
5.929
 10
62.3655
 20
5.866
 10
62.3654
 20
5.8025
 10
62.3647
 20
5.7396
 10
62.3634
 20
5.6775
 10
62.3615
 20
5.616
 10
62.3589
 20
5.5553
 10
62.3557
 20
5.4954
 10
62.3518
 20
5.4361
 10
62.3473
 20
5.3776
 10
62.3422
 20
5.3198
 10
62.3365
 20
5.2628
 10
62.3301
 20
5.2064
 10
62.3231
 20
5.1508
 10
62.3155
 20
5.0959
 10
62.3072
 20
5.0418
 10
62.2983
 20
4.9884
 10
62.2888
 20
4.9357
 10
62.2786
 20
4.8837
 10
62.2678
 20
4.8324
 10
62.2564
 20
4.7819
 10
62.2444
 20
4.7321
 10
62.2317
 20
4.683
 10
62.2184
 20
4.6347
 10
62.2045
 20
4.5871
 10
62.1899
 20
4.5402
 10
62.1747
 20
4.494
 10
62.1589
 20
4.4486
 10
62.1424
 20
4.4039
 10
62.1253
 20
4.3599
 10
62.1076
 20
4.3166
 10
62.0892
 20
4.2741
 10
62.0703
 20
4.2323
 10
62.0507
 20
4.1912
 10
62.0304
 20
4.1508
 10
62.0095
 20
4.1112
 10
61.988
 20
4.0723
 10
61.9659
 20
4.0341
 10
61.9431
 20
3.9967
 10
61.9197
 20
3.96
 10
61.8957
 20
3.924
 10
61.8711
 20
3.8887
 10
61.8458
 20
3.8541
 10
61.8184
 20
3.8185
 10
61.7864
 20
3.7788
 10
61.7535
 20
3.7403
 10
61.7199
 20
3.703
 10
61.6854
 20
3.6669
 10
61.6502
 20
3.6319
 10
61.6142
 20
3.5981
 10
61.5774
 20
3.5656
 10
61.5397
 20
3.5342
 10
61.5013
 20
3.5039
 10
61.4622
 20
3.4749
 10
61.4222
 20
3.4471
 10
61.3814
 20
3.4204
 10
61.3398
 20
3.3949
 10
61.2975
 20
3.3706
 10
61.2543
 20
3.3475
 10
61.2104
 20
3.3256
 10
61.1657
 20
3.3049
 10
61.1202
 20
3.2853
 10
61.0738
 20
3.267
 10
61.0267
 20
3.2498
 10
60.9788
 20
3.2338
 10
60.9302
 20
3.219
 10
60.8807
 20
3.2053
 10
60.8304
 20
3.1929
 10
60.7794
 20
3.1816
 10
60.7275
 20
3.1716
 10
60.6749
 20
3.1627
 10
60.6214
 20
3.155
 10
60.5672
 20
3.1485
 10
60.5122
 20
3.1431
 10
60.4564
 20
3.139
 10
60.3998
 20
3.136
 10
60.3424
 20
3.1342
 10
60.2842
 20
3.1336
 10
60.2247
 20
3.1344
 10
60.1665
 20
3.1366
 10
60.1095
 20
3.1403
 10
60.0538
 20
3.1455
 10
59.9992
 20
3.1522
 10
59.946
 20
3.1604
 10
59.8939
 20
3.17
 10
59.8431
 20
3.1811
 10
59.7935
 20
3.1938
 10
59.7452
 20
3.2079
 10
59.6981
 20
3.2234
 10
59.6522
 20
3.2405
 10
59.6076
 20
3.2591
 10
59.5642
 20
3.2791
 10
59.522
 20
3.3006
 10
59.4811
 20
3.3236
 10
59.4414
 20
3.3481
 10
59.403
 20
3.3741
 10
59.3657
 20
3.4015
 10
59.3276
 20
3.4324
 10
59.2911
 20
3.4648
 10
59.2564
 20
3.4989
 10
59.2235
 20
3.5345
 10
59.1923
 20
3.5716
 10
59.1628
 20
3.6103
 10
59.1352
 20
3.6506
 10
59.1092
 20
3.6925
 10
59.0851
 20
3.7359
 10
59.0627
 20
3.7809
 10
59.042
 20
3.8275
 10
59.0231
 20
3.8756
 10
59.006
 20
3.9253
 10
58.9906
 20
3.9766
 10
58.977
 20
4.0295
 10
58.9651
 20
4.0839
 10
58.955
 20
4.1398
 10
58.9386
 20
4.1868
 10
58.8874
 20
4.1868
 10
58.8436
 20
4.1868
 10
58.8436
 20
4.086
 10
58.8436
 20
3.9405
 10
58.8436
 20
3.795
 10
58.8436
 20
3.6495
 10
58.8436
 20
3.504
 10
58.8436
 20
3.3585
 10
58.8436
 20
3.213
 10
58.8436
 20
3.0675
 10
58.8436
 20
2.922
 10
58.8436
 20
2.7765
 10
58.8436
 20
2.631
 10
58.8436
 20
2.4855
 10
58.8436
 20
2.34
 10
58.8436
 20
2.1945
 10
58.8436
 20
2.049
 10
58.8436
 20
1.9035
 10
58.8436
 20
1.758
 10
58.8436
 20
1.6125
 10
58.8436
 20
1.467
 10
58.8436
 20
1.3215
 10
58.8436
 20
1.176
 10
58.8436
 20
1.0305
 10
58.7807
 20
0.9479
 10
58.6352
 20
0.9479
 10
58.4897
 20
0.9479
 10
58.3442
 20
0.9479
 10
58.1987
 20
0.9479
 10
58.0532
 20
0.9479
 10
57.9077
 20
0.9479
 10
57.7622
 20
0.9479
 10
57.6167
 20
0.9479
 10
57.6167
 20
1.0934
 10
57.6167
 20
1.2389
 10
57.6167
 20
1.3844
 10
57.6167
 20
1.5299
 10
57.6167
 20
1.6754
 10
57.6167
 20
1.8209
 10
57.6167
 20
1.9664
 10
57.6167
 20
2.1119
 10
57.6167
 20
2.2574
 10
57.6167
 20
2.4029
 10
57.6167
 20
2.5484
 10
57.6167
 20
2.6939
 10
57.6167
 20
2.8394
 10
57.6167
 20
2.9849
 10
57.6167
 20
3.1304
 10
57.6167
 20
3.2759
 10
57.6167
 20
3.4214
 10
57.6167
 20
3.5669
 10
57.6167
 20
3.7124
 10
57.6167
 20
3.8579
 10
57.6167
 20
4.0034
 10
57.6167
 20
4.1489
 10
57.6167
 20
4.2944
 10
57.6167
 20
4.4399
 10
57.6167
 20
4.5854
 10
57.6167
 20
4.7309
 10
57.6167
 20
4.8764
 10
57.6167
 20
5.0219
 10
57.6167
 20
5.1674
 10
57.6167
 20
5.3129
 10
57.6167
 20
5.4584
 10
57.6167
 20
5.6039
 10
57.6167
 20
5.7494
 10
57.6167
 20
5.8949
 10
57.6167
 20
6.0404
 10
57.6167
 20
6.1859
 10
57.6167
 20
6.3314
 10
57.6167
 20
6.4769
 10
57.6167
 20
6.6224
 10
57.6167
 20
6.7679
 10
57.6167
 20
6.9134
 10
57.6167
 20
7.0589
 10
57.6167
 20
7.2044
 10
57.6167
 20
7.35
 10
57.6167
 20
7.4955
 10
57.6167
 20
7.641
 10
57.6167
 20
7.7865
 10
57.6167
 20
7.932
 10
57.6167
 20
8.0775
 10
57.6167
 20
8.223
 10
57.6167
 20
8.3685
 10
57.6321
 20
8.4985
 10
57.7776
 20
8.4985
 10
57.9231
 20
8.4985
 10
58.0686
 20
8.4985
 10
58.2141
 20
8.4985
 10
58.3596
 20
8.4985
 10
58.5051
 20
8.4985
 10
58.6506
 20
8.4985
 10
58.7489
 20
8.4469
 10
58.7618
 20
8.3019
 10
58.7747
 20
8.157
 10
58.7877
 20
8.0121
 10
58.8006
 20
7.8672
 10
58.8136
 20
7.7222
 10
58.8265
 20
7.5773
  0
LWPOLYLINE
  5
54
330
17
100
AcDbEntity
  8
OUTLINE
100
AcDbPolyline
 90
177
 70
1
 10
58.8436
 20
5.9821
 10
58.8436
 20
5.9776
 10
58.8436
 20
5.8321
 10
58.8436
 20
5.7834
 10
58.8436
 20
5.7834
 10
58.8442
 20
5.7178
 10
58.8457
 20
5.6537
 10
58.8482
 20
5.591
 10
58.8517
 20
5.5297
 10
58.8561
 20
5.47
 10
58.8615
 20
5.4117
 10
58.8678
 20
5.3548
 10
58.8751
 20
5.2995
 10
58.8833
 20
5.2455
 10
58.8925
 20
5.1931
 10
58.9026
 20
5.1421
 10
58.9137
 20
5.0926
 10
58.9257
 20
5.0445
 10
58.9387
 20
4.9979
 10
58.9527
 20
4.9528
 10
58.9676
 20
4.9091
 10
58.9835
 20
4.8669
 10
59.0003
 20
4.8261
 10
59.0181
 20
4.7868
 10
59.0368
 20
4.749
 10
59.0565
 20
4.7127
 10
59.0771
 20
4.6778
 10
59.0987
 20
4.6443
 10
59.1242
 20
4.6084
 10
59.154
 20
4.5709
 10
59.1855
 20
4.5354
 10
59.2189
 20
4.5021
 10
59.254
 20
4.4708
 10
59.291
 20
4.4415
 10
59.3297
 20
4.4144
 10
59.3703
 20
4.3894
 10
59.4126
 20
4.3664
 10
59.4568
 20
4.3456
 10
59.5027
 20
4.3268
 10
59.5505
 20
4.3101
 10
59.6
 20
4.2955
 10
59.6513
 20
4.283
 10
59.7045
 20
4.2725
 10
59.7594
 20
4.2642
 10
59.8161
 20
4.2579
 10
59.8747
 20
4.2537
 10
59.935
 20
4.2516
 10
59.9952
 20
4.2516
 10
60.0527
 20
4.2537
 10
60.1088
 20
4.258
 10
60.1634
 20
4.2644
 10
60.2165
 20
4.273
 10
60.2681
 20
4.2837
 10
60.3182
 20
4.2966
 10
60.3668
 20
4.3116
 10
60.414
 20
4.3288
 10
60.4596
 20
4.3481
 10
60.5038
 20
4.3695
 10
60.5465
 20
4.3931
 10
60.5877
 20
4.4189
 10
60.6275
 20
4.4468
 10
60.6657
 20
4.4769
 10
60.7025
 20
4.509
 10
60.7378
 20
4.5434
 10
60.7716
 20
4.5799
 10
60.8039
 20
4.6185
 10
60.8339
 20
4.6582
 10
60.8574
 20
4.6922
 10
60.88
 20
4.7276
 10
60.9016
 20
4.7642
 10
60.9221
 20
4.8022
 10
60.9417
 20
4.8414
 10
60.9603
 20
4.882
 10
60.9778
 20
4.9238
 10
60.9944
 20
4.967
 10
61.01
 20
5.0114
 10
61.0246
 20
5.0572
 10
61.0381
 20
5.1043
 10
61.0507
 20
5.1526
 10
61.0623
 20
5.2023
 10
61.0729
 20
5.2533
 10
61.0824
 20
5.3056
 10
61.091
 20
5.3592
 10
61.0986
 20
5.4141
 10
61.1052
 20
5.4703
 10
61.1108
 20
5.5278
 10
61.1154
 20
5.5866
 10
61.119
 20
5.6467
 10
61.1215
 20
5.7081
 10
61.1231
 20
5.7708
 10
61.1237
 20
5.8348
 10
61.1233
 20
5.8984
 10
61.122
 20
5.9608
 10
61.1196
 20
6.022
 10
61.1163
 20
6.0819
 10
61.1121
 20
6.1407
 10
61.1068
 20
6.1982
 10
61.1006
 20
6.2545
 10
61.0935
 20
6.3096
 10
61.0853
 20
6.3635
 10
61.0762
 20
6.4162
 10
61.0661
 20
6.4677
 10
61.0551
 20
6.5179
 10
61.0431
 20
6.567
 10
61.0301
 20
6.6148
 10
61.0161
 20
6.6614
 10
61.0012
 20
6.7069
 10
60.9853
 20
6.7511
 10
60.9684
 20
6.7941
 10
60.9506
 20
6.8359
 10
60.9318
 20
6.8764
 10
60.9121
 20
6.9158
 10
60.8913
 20
6.954
 10
60.8696
 20
6.9909
 10
60.8469
 20
7.0266
 10
60.8227
 20
7.062
 10
60.7912
 20
7.1041
 10
60.7584
 20
7.1439
 10
60.7242
 20
7.1815
 10
60.6886
 20
7.2169
 10
60.6516
 20
7.25
 10
60.6132
 20
7.2809
 10
60.5735
 20
7.3096
 10
60.5323
 20
7.3361
 10
60.4897
 20
7.3603
 10
60.4458
 20
7.3823
 10
60.4005
 20
7.4021
 10
60.3538
 20
7.4196
 10
60.3057
 20
7.4349
 10
60.2562
 20
7.448
 10
60.2053
 20
7.4589
 10
60.1531
 20
7.4675
 10
60.0994
 20
7.4739
 10
60.0444
 20
7.4781
 10
59.9879
 20
7.48
 10
59.9295
 20
7.4798
 10
59.8717
 20
7.4773
 10
59.8155
 20
7.4727
 10
59.7609
 20
7.4659
 10
59.7078
 20
7.4569
 10
59.6562
 20
7.4458
 10
59.6063
 20
7.4325
 10
59.5579
 20
7.417
 10
59.5111
 20
7.3993
 10
59.4658
 20
7.3794
 10
59.4221
 20
7.3574
 10
59.38
 20
7.3332
 10
59.3394
 20
7.3068
 10
59.3004
 20
7.2783
 10
59.263
 20
7.2475
 10
59.2271
 20
7.2146
 10
59.1928
 20
7.1795
 10
59.16
 20
7.1423
 10
59.1288
 20
7.1028
 10
59.105
 20
7.0697
 10
59.0826
 20
7.0356
 10
59.0612
 20
7.0001
 10
59.0408
 20
6.9632
 10
59.0214
 20
6.9249
 10
59.003
 20
6.8851
 10
58.9856
 20
6.8439
 10
58.9693
 20
6.8012
 10
58.9539
 20
6.7572
 10
58.9395
 20
6.7116
 10
58.9261
 20
6.6647
 10
58.9138
 20
6.6163
 10
58.9024
 20
6.5665
 10
58.892
 20
6.5152
 10
58.8827
 20
6.4625
 10
58.8743
 20
6.4084
 10
58.867
 20
6.3529
 10
58.8606
 20
6.2959
 10
58.8553
 20
6.2374
 10
58.8509
 20
6.1776
 10
58.8476
 20
6.1163
 10
58.8453
 20
6.0535
 10
58.8439
 20
5.9894
  0
LWPOLYLINE
  5
55
330
17
100
AcDbEntity
  8
OUTLINE
100
AcDbPolyline
 90
562
 70
1
 10
66.7205
 20
4.2755
 10
66.7172
 20
4.3301
 10
66.7163
 20
4.3457
 10
66.6835
 20
4.3457
 10
66.6472
 20
4.3457
 10
66.611
 20
4.3457
 10
66.603
 20
4.3457
 10
66.5996
 20
4.3148
 10
66.5946
 20
4.2767
 10
66.5888
 20
4.2392
 10
66.5822
 20
4.2024
 10
66.5748
 20
4.1661
 10
66.5666
 20
4.1305
 10
66.5577
 20
4.0955
 10
66.548
 20
4.0612
 10
66.5375
 20
4.0274
 10
66.5262
 20
3.9943
 10
66.5141
 20
3.9618
 10
66.5013
 20
3.9299
 10
66.4877
 20
3.8986
 10
66.4732
 20
3.868
 10
66.458
 20
3.838
 10
66.4421
 20
3.8085
 10
66.4253
 20
3.7798
 10
66.4078
 20
3.7516
 10
66.3884
 20
3.7225
 10
66.3677
 20
3.6932
 10
66.3462
 20
3.6648
 10
66.3239
 20
3.637
 10
66.3008
 20
3.6101
 10
66.277
 20
3.5838
 10
66.2524
 20
3.5584
 10
66.2269
 20
3.5336
 10
66.2007
 20
3.5096
 10
66.1738
 20
3.4864
 10
66.146
 20
3.4639
 10
66.1175
 20
3.4422
 10
66.0881
 20
3.4212
 10
66.058
 20
3.4009
 10
66.0271
 20
3.3814
 10
65.9955
 20
3.3626
 10
65.963
 20
3.3446
 10
65.9298
 20
3.3274
 10
65.8957
 20
3.3108
 10
65.8609
 20
3.2951
 10
65.8274
 20
3.2809
 10
65.7972
 20
3.2689
 10
65.7666
 20
3.2574
 10
65.7355
 20
3.2464
 10
65.7039
 20
3.2359
 10
65.6718
 20
3.2259
 10
65.6393
 20
3.2165
 10
65.6063
 20
3.2075
 10
65.5728
 20
3.1991
 10
65.5389
 20
3.1912
 10
65.5045
 20
3.1838
 10
65.4696
 20
3.1769
 10
65.4343
 20
3.1705
 10
65.3984
 20
3.1646
 10
65.3622
 20
3.1592
 10
65.3254
 20
3.1544
 10
65.2882
 20
3.15
 10
65.2505
 20
3.1462
 10
65.2123
 20
3.1429
 10
65.1737
 20
3.14
 10
65.1346
 20
3.1377
 10
65.095
 20
3.1359
 10
65.055
 20
3.1347
 10
65.0144
 20
3.1339
 10
64.9735
 20
3.1336
 10
64.9301
 20
3.1339
 10
64.8872
 20
3.1348
 10
64.8449
 20
3.1362
 10
64.803
 20
3.1381
 10
64.7617
 20
3.1406
 10
64.7209
 20
3.1437
 10
64.6806
 20
3.1473
 10
64.6408
 20
3.1515
 10
64.6015
 20
3.1562
 10
64.5627
 20
3.1615
 10
64.5245
 20
3.1673
 10
64.4867
 20
3.1738
 10
64.4495
 20
3.1807
 10
64.4128
 20
3.1882
 10
64.3766
 20
3.1963
 10
64.3409
 20
3.2049
 10
64.3057
 20
3.2141
 10
64.271
 20
3.2239
 10
64.2369
 20
3.2342
 10
64.2032
 20
3.2451
 10
64.1701
 20
3.2565
 10
64.1375
 20
3.2684
 10
64.1054
 20
3.281
 10
64.0738
 20
3.2941
 10
64.0427
 20
3.3077
 10
64.0121
 20
3.3219
 10
63.9821
 20
3.3367
 10
63.9525
 20
3.352
 10
63.9235
 20
3.3679
 10
63.895
 20
3.3843
 10
63.867
 20
3.4013
 10
63.8395
 20
3.4188
 10
63.8125
 20
3.4369
 10
63.7861
 20
3.4556
 10
63.7601
 20
3.4748
 10
63.7347
 20
3.4946
 10
63.7097
 20
3.5149
 10
63.6853
 20
3.5358
 10
63.66
 20
3.5586
 10
63.6349
 20
3.5824
 10
63.6105
 20
3.6067
 10
63.5869
 20
3.6315
 10
63.564
 20
3.6569
 10
63.5418
 20
3.6828
 10
63.5204
 20
3.7093
 10
63.4998
 20
3.7363
 10
63.4798
 20
3.7638
 10
63.4606
 20
3.7919
 10
63.4421
 20
3.8206
 10
63.4244
 20
3.8497
 10
63.4074
 20
3.8795
 10
63.3912
 20
3.9097
 10
63.3757
 20
3.9405
 10
63.3609
 20
3.9719
 10
63.3468
 20
4.0038
 10
63.3335
 20
4.0362
 10
63.321
 20
4.0692
 10
63.3091
 20
4.1027
 10
63.298
 20
4.1367
 10
63.2877
 20
4.1713
 10
63.2781
 20
4.2065
 10
63.2692
 20
4.2421
 10
63.261
 20
4.2784
 10
63.2536
 20
4.3151
 10
63.2469
 20
4.3524
 10
63.241
 20
4.3903
 10
63.2358
 20
4.4287
 10
63.2314
 20
4.4676
 10
63.2276
 20
4.5071
 10
63.2246
 20
4.5471
 10
63.2224
 20
4.5877
 10
63.2209
 20
4.6288
 10
63.2201
 20
4.6704
 10
63.2201
 20
4.712
 10
63.2207
 20
4.7528
 10
63.2221
 20
4.7932
 10
63.2242
 20
4.8331
 10
63.227
 20
4.8725
 10
63.2304
 20
4.9115
 10
63.2346
 20
4.95
 10
63.2395
 20
4.988
 10
63.245
 20
5.0256
 10
63.2513
 20
5.0627
 10
63.2583
 20
5.0994
 10
63.266
 20
5.1356
 10
63.2743
 20
5.1714
 10
63.2834
 20
5.2067
 10
63.2932
 20
5.2416
 10
63.3037
 20
5.2759
 10
63.3149
 20
5.3099
 10
63.3267
 20
5.3433
 10
63.3393
 20
5.3764
 10
63.3526
 20
5.4089
 10
63.3666
 20
5.441
 10
63.3813
 20
5.4727
 10
63.3967
 20
5.5038
 10
63.4127
 20
5.5346
 10
63.4295
 20
5.5648
 10
63.447
 20
5.5946
 10
63.4652
 20
5.624
 10
63.4841
 20
5.6529
 10
63.5037
 20
5.6813
 10
63.524
 20
5.7093
 10
63.545
 20
5.7368
 10
63.5667
 20
5.7639
 10
63.5891
 20
5.7905
 10
63.6122
 20
5.8166
 10
63.636
 20
5.8423
 10
63.6605
 20
5.8675
 10
63.6857
 20
5.8923
 10
63.7116
 20
5.9166
 10
63.7382
 20
5.9405
 10
63.7655
 20
5.9639
 10
63.7935
 20
5.9868
 10
63.8222
 20
6.0093
 10
63.8489
 20
6.0293
 10
63.8736
 20
6.0472
 10
63.8988
 20
6.0648
 10
63.9244
 20
6.0819
 10
63.9504
 20
6.0988
 10
63.9767
 20
6.1152
 10
64.0035
 20
6.1313
 10
64.0307
 20
6.147
 10
64.0582
 20
6.1624
 10
64.0862
 20
6.1774
 10
64.1146
 20
6.192
 10
64.1433
 20
6.2063
 10
64.1725
 20
6.2203
 10
64.2021
 20
6.2338
 10
64.232
 20
6.247
 10
64.2624
 20
6.2599
 10
64.2932
 20
6.2723
 10
64.3244
 20
6.2845
 10
64.3559
 20
6.2962
 10
64.3879
 20
6.3076
 10
64.4203
 20
6.3186
 10
64.453
 20
6.3293
 10
64.4862
 20
6.3396
 10
64.5198
 20
6.3496
 10
64.5537
 20
6.3592
 10
64.5881
 20
6.3684
 10
64.6229
 20
6.3773
 10
64.658
 20
6.3858
 10
64.6936
 20
6.3939
 10
64.7296
 20
6.4017
 10
64.7659
 20
6.4091
 10
64.8027
 20
6.4162
 10
64.8399
 20
6.4229
 10
64.8774
 20
6.4292
 10
64.9154
 20
6.4352
 10
64.9538
 20
6.4408
 10
64.9925
 20
6.4461
 10
65.0317
 20
6.451
 10
65.0713
 20
6.4555
 10
65.1112
 20
6.4597
 10
65.1516
 20
6.4635
 10
65.1924
 20
6.4669
 10
65.2335
 20
6.47
 10
65.2751
 20
6.4728
 10
65.3171
 20
6.4751
 10
65.3594
 20
6.4771
 10
65.4022
 20
6.4788
 10
65.4453
 20
6.4801
 10
65.4889
 20
6.481
 10
65.5329
 20
6.4815
 10
65.5772
 20
6.4817
 10
65.6184
 20
6.4816
 10
65.6589
 20
6.4813
 10
65.699
 20
6.4808
 10
65.7386
 20
6.4801
 10
65.7778
 20
6.4791
 10
65.8165
 20
6.478
 10
65.8547
 20
6.4766
 10
65.8924
 20
6.4751
 10
65.9297
 20
6.4733
 10
65.9665
 20
6.4713
 10
66.0029
 20
6.4691
 10
66.0388
 20
6.4667
 10
66.0742
 20
6.464
 10
66.1092
 20
6.4612
 10
66.1437
 20
6.4581
 10
66.1777
 20
6.4549
 10
66.2113
 20
6.4514
 10
66.2444
 20
6.4477
 10
66.277
 20
6.4438
 10
66.3092
 20
6.4397
 10
66.3409
 20
6.4354
 10
66.3736
 20
6.4306
 10
66.4104
 20
6.425
 10
66.4469
 20
6.419
 10
66.4833
 20
6.4127
 10
66.5195
 20
6.406
 10
66.5555
 20
6.3991
 10
66.5913
 20
6.3918
 10
66.6226
 20
6.3851
 10
66.6226
 20
6.4042
 10
66.6226
 20
6.4589
 10
66.6224
 20
6.5166
 10
66.6194
 20
6.5771
 10
66.6131
 20
6.6353
 10
66.6034
 20
6.6913
 10
66.5905
 20
6.7451
 10
66.5742
 20
6.7966
 10
66.5546
 20
6.8458
 10
66.5317
 20
6.8928
 10
66.5054
 20
6.9375
 10
66.4758
 20
6.98
 10
66.443
 20
7.0202
 10
66.4067
 20
7.0582
 10
66.3672
 20
7.0939
 10
66.3244
 20
7.1274
 10
66.2782
 20
7.1586
 10
66.2375
 20
7.1828
 10
66.2002
 20
7.2028
 10
66.1611
 20
7.2219
 10
66.1203
 20
7.2401
 10
66.0778
 20
7.2574
 10
66.0336
 20
7.2737
 10
65.9877
 20
7.2891
 10
65.9401
 20
7.3035
 10
65.8907
 20
7.317
 10
65.8397
 20
7.3296
 10
65.787
 20
7.3412
 10
65.7325
 20
7.3519
 10
65.6764
 20
7.3617
 10
65.6185
 20
7.3705
 10
65.5589
 20
7.3784
 10
65.4976
 20
7.3853
 10
65.4347
 20
7.3913
 10
65.37
 20
7.3964
 10
65.3036
 20
7.4005
 10
65.2354
 20
7.4037
 10
65.1682
 20
7.4059
 10
65.1135
 20
7.4074
 10
65.0588
 20
7.4088
 10
65.0041
 20
7.4103
 10
64.9495
 20
7.4117
 10
64.8948
 20
7.4132
 10
64.8401
 20
7.4146
 10
64.7854
 20
7.4161
 10
64.7307
 20
7.4175
 10
64.676
 20
7.419
 10
64.6213
 20
7.4204
 10
64.5666
 20
7.4219
 10
64.5119
 20
7.4233
 10
64.4572
 20
7.4248
 10
64.4026
 20
7.4262
 10
64.3479
 20
7.4277
 10
64.2932
 20
7.4291
 10
64.2385
 20
7.4306
 10
64.1838
 20
7.432
 10
64.1291
 20
7.4335
 10
64.0744
 20
7.4349
 10
64.0197
 20
7.4364
 10
63.965
 20
7.4378
 10
63.9103
 20
7.4393
 10
63.8667
 20
7.4506
 10
63.8716
 20
7.5051
 10
63.8765
 20
7.5595
 10
63.8813
 20
7.614
 10
63.8862
 20
7.6685
 10
63.8911
 20
7.723
 10
63.896
 20
7.7775
 10
63.9009
 20
7.832
 10
63.9058
 20
7.8865
 10
63.9107
 20
7.941
 10
63.9156
 20
7.9955
 10
63.9204
 20
8.05
 10
63.9253
 20
8.1045
 10
63.9302
 20
8.1589
 10
63.9351
 20
8.2134
 10
63.94
 20
8.2679
 10
63.9449
 20
8.3224
 10
63.9498
 20
8.3769
 10
63.9547
 20
8.4314
 10
63.9595
 20
8.4859
 10
63.9644
 20
8.5404
 10
64.012
 20
8.5475
 10
64.0667
 20
8.5468
 10
64.1214
 20
8.5461
 10
64.1762
 20
8.5453
 10
64.2309
 20
8.5446
 10
64.2856
 20
8.5439
 10
64.3403
 20
8.5431
 10
64.395
 20
8.5424
 10
64.4497
 20
8.5417
 10
64.5044
 20
8.541
 10
64.5591
 20
8.5402
 10
64.6138
 20
8.5395
 10
64.6685
 20
8.5388
 10
64.7232
 20
8.5381
 10
64.7779
 20
8.5373
 10
64.8326
 20
8.5366
 10
64.8873
 20
8.5359
 10
64.942
 20
8.5351
 10
64.9967
 20
8.5344
 10
65.0514
 20
8.5337
 10
65.1138
 20
8.5327
 10
65.1826
 20
8.531
 10
65.2506
 20
8.5287
 10
65.3176
 20
8.5256
 10
65.3837
 20
8.522
 10
65.4489
 20
8.5176
 10
65.5132
 20
8.5126
 10
65.5766
 20
8.5069
 10
65.6391
 20
8.5005
 10
65.7007
 20
8.4935
 10
65.7614
 20
8.4857
 10
65.8211
 20
8.4774
 10
65.88
 20
8.4683
 10
65.938
 20
8.4586
 10
65.995
 20
8.4482
 10
66.0512
 20
8.4372
 10
66.1064
 20
8.4255
 10
66.1608
 20
8.4131
 10
66.2142
 20
8.4
 10
66.2667
 20
8.3863
 10
66.3183
 20
8.3719
 10
66.369
 20
8.3569
 10
66.4188
 20
8.3411
 10
66.4677
 20
8.3248
 10
66.5157
 20
8.3077
 10
66.5628
 20
8.29
 10
66.609
 20
8.2716
 10
66.6543
 20
8.2525
 10
66.6986
 20
8.2328
 10
66.7421
 20
8.2123
 10
66.7846
 20
8.1913
 10
66.8263
 20
8.1695
 10
66.867
 20
8.1471
 10
66.9069
 20
8.124
 10
66.9458
 20
8.1003
 10
66.9838
 20
8.0759
 10
67.0209
 20
8.0508
 10
67.0571
 20
8.025
 10
67.0924
 20
7.9986
 10
67.1268
 20
7.9715
 10
67.1669
 20
7.9382
 10
67.2062
 20
7.9035
 10
67.2442
 20
7.8679
 10
67.281
 20
7.8314
 10
67.3165
 20
7.7939
 10
67.3508
 20
7.7555
 10
67.3838
 20
7.7161
 10
67.4155
 20
7.6758
 10
67.446
 20
7.6345
 10
67.4753
 20
7.5924
 10
67.5032
 20
7.5492
 10
67.5299
 20
7.5052
 10
67.5554
 20
7.4602
 10
67.5796
 20
7.4143
 10
67.6025
 20
7.3674
 10
67.6242
 20
7.3196
 10
67.6446
 20
7.2709
 10
67.6637
 20
7.2212
 10
67.6816
 20
7.1706
 10
67.6983
 20
7.119
 10
67.7136
 20
7.0665
 10
67.7278
 20
7.0131
 10
67.7406
 20
6.9587
 10
67.7522
 20
6.9034
 10
67.7625
 20
6.8471
 10
67.7716
 20
6.79
 10
67.7794
 20
6.7318
 10
67.786
 20
6.6728
 10
67.7913
 20
6.6128
 10
67.7953
 20
6.5519
 10
67.7981
 20
6.49
 10
67.7996
 20
6.4272
 10
67.7999
 20
6.3662
 10
67.7999
 20
6.3115
 10
67.7999
 20
6.2568
 10
67.7999
 20
6.2021
 10
67.7999
 20
6.1474
 10
67.7999
 20
6.0927
 10
67.7999
 20
6.0379
 10
67.7999
 20
5.9832
 10
67.7999
 20
5.9285
 10
67.7999
 20
5.8738
 10
67.7999
 20
5.8191
 10
67.7999
 20
5.7644
 10
67.7999
 20
5.7097
 10
67.7999
 20
5.655
 10
67.7999
 20
5.6003
 10
67.7999
 20
5.5456
 10
67.7999
 20
5.4908
 10
67.7999
 20
5.4361
 10
67.7999
 20
5.3814
 10
67.7999
 20
5.3267
 10
67.7999
 20
5.272
 10
67.7999
 20
5.2173
 10
67.7999
 20
5.1626
 10
67.7999
 20
5.1079
 10
67.7999
 20
5.0532
 10
67.7999
 20
4.9985
 10
67.7999
 20
4.9437
 10
67.7999
 20
4.889
 10
67.7999
 20
4.8343
 10
67.7999
 20
4.7796
 10
67.7999
 20
4.7249
 10
67.7999
 20
4.6702
 10
67.7999
 20
4.6155
 10
67.7999
 20
4.5608
 10
67.7999
 20
4.5061
 10
67.7999
 20
4.4514
 10
67.7999
 20
4.3966
 10
67.7999
 20
4.3419
 10
67.848
 20
4.3291
 10
67.9022
 20
4.3217
 10
67.9564
 20
4.3142
 10
68.0106
 20
4.3068
 10
68.0648
 20
4.2993
 10
68.119
 20
4.2919
 10
68.1732
 20
4.2844
 10
68.2274
 20
4.277
 10
68.2816
 20
4.2696
 10
68.3358
 20
4.2621
 10
68.39
 20
4.2547
 10
68.4442
 20
4.2472
 10
68.4984
 20
4.2398
 10
68.5526
 20
4.2323
 10
68.5948
 20
4.2144
 10
68.5948
 20
4.1597
 10
68.5948
 20
4.105
 10
68.5948
 20
4.0503
 10
68.5948
 20
3.9955
 10
68.5948
 20
3.9408
 10
68.5948
 20
3.8861
 10
68.5948
 20
3.8314
 10
68.5948
 20
3.7767
 10
68.5948
 20
3.722
 10
68.5948
 20
3.6673
 10
68.5948
 20
3.6126
 10
68.5948
 20
3.5579
 10
68.5948
 20
3.5032
 10
68.5948
 20
3.4484
 10
68.5948
 20
3.3937
 10
68.5948
 20
3.339
 10
68.5948
 20
3.2843
 10
68.5914
 20
3.2329
 10
68.5367
 20
3.2314
 10
68.482
 20
3.2299
 10
68.4273
 20
3.2284
 10
68.3726
 20
3.2269
 10
68.3179
 20
3.2254
 10
68.2632
 20
3.2239
 10
68.2086
 20
3.2224
 10
68.1539
 20
3.2209
 10
68.0992
 20
3.2194
 10
68.0445
 20
3.2179
 10
67.9898
 20
3.2164
 10
67.9351
 20
3.2148
 10
67.8804
 20
3.2133
 10
67.8257
 20
3.2118
 10
67.771
 20
3.2103
 10
67.7164
 20
3.2088
 10
67.6617
 20
3.2073
 10
67.607
 20
3.2058
 10
67.5523
 20
3.2043
 10
67.4976
 20
3.2028
 10
67.4429
 20
3.2013
 10
67.3882
 20
3.1998
 10
67.3335
 20
3.1983
 10
67.2788
 20
3.1968
 10
67.2242
 20
3.1953
 10
67.1695
 20
3.1938
 10
67.1148
 20
3.1923
 10
67.0601
 20
3.1908
 10
67.0054
 20
3.1893
 10
66.9507
 20
3.1878
 10
66.896
 20
3.1863
 10
66.8413
 20
3.1848
 10
66.7866
 20
3.1833
 10
66.7833
 20
3.2379
 10
66.78
 20
3.2925
 10
66.7767
 20
3.3471
 10
66.7734
 20
3.4017
 10
66.7701
 20
3.4563
 10
66.7668
 20
3.5109
 10
66.7635
 20
3.5655
 10
66.7602
 20
3.6201
 10
66.7569
 20
3.6748
 10
66.7536
 20
3.7294
 10
66.7503
 20
3.784
 10
66.747
 20
3.8386
 10
66.7437
 20
3.8932
 10
66.7404
 20
3.9478
 10
66.7371
 20
4.0024
 10
66.7338
 20
4.057
 10
66.7305
 20
4.1116
 10
66.7272
 20
4.1662
 10
66.7238
 20
4.2208
  0
LWPOLYLINE
  5
56
330
17
100
AcDbEntity
  8
OUTLINE
100
AcDbPolyline
 90
163
 70
1
 10
66.6226
 20
5.3993
 10
66.6021
 20
5.4031
 10
66.5654
 20
5.4096
 10
66.5289
 20
5.4156
 10
66.4928
 20
5.4211
 10
66.457
 20
5.4263
 10
66.4215
 20
5.4309
 10
66.3863
 20
5.4352
 10
66.3515
 20
5.439
 10
66.3169
 20
5.4423
 10
66.2827
 20
5.4452
 10
66.2488
 20
5.4477
 10
66.2152
 20
5.4497
 10
66.1816
 20
5.4513
 10
66.1467
 20
5.4528
 10
66.1116
 20
5.4542
 10
66.0764
 20
5.4555
 10
66.0409
 20
5.4567
 10
66.0053
 20
5.4578
 10
65.9695
 20
5.4588
 10
65.9335
 20
5.4597
 10
65.8972
 20
5.4605
 10
65.8608
 20
5.4612
 10
65.8242
 20
5.4618
 10
65.7874
 20
5.4623
 10
65.7504
 20
5.4627
 10
65.7133
 20
5.463
 10
65.6759
 20
5.4632
 10
65.6383
 20
5.4634
 10
65.5965
 20
5.4634
 10
65.5419
 20
5.4628
 10
65.4887
 20
5.4615
 10
65.4367
 20
5.4594
 10
65.3861
 20
5.4565
 10
65.3368
 20
5.4528
 10
65.2888
 20
5.4484
 10
65.2422
 20
5.4431
 10
65.1968
 20
5.4372
 10
65.1528
 20
5.4304
 10
65.11
 20
5.4229
 10
65.0686
 20
5.4145
 10
65.0285
 20
5.4055
 10
64.9897
 20
5.3956
 10
64.9523
 20
5.385
 10
64.9161
 20
5.3736
 10
64.8813
 20
5.3614
 10
64.8478
 20
5.3484
 10
64.8156
 20
5.3347
 10
64.7847
 20
5.3202
 10
64.7551
 20
5.3049
 10
64.7268
 20
5.2888
 10
64.6999
 20
5.272
 10
64.6742
 20
5.2544
 10
64.6499
 20
5.236
 10
64.6269
 20
5.2169
 10
64.6052
 20
5.197
 10
64.5849
 20
5.1763
 10
64.5658
 20
5.1548
 10
64.5481
 20
5.1325
 10
64.5316
 20
5.1095
 10
64.5165
 20
5.0857
 10
64.5027
 20
5.0611
 10
64.4902
 20
5.0358
 10
64.479
 20
5.0097
 10
64.4692
 20
4.9828
 10
64.4607
 20
4.9551
 10
64.4534
 20
4.9266
 10
64.4475
 20
4.8974
 10
64.4429
 20
4.8674
 10
64.4396
 20
4.8367
 10
64.4377
 20
4.8051
 10
64.437
 20
4.7728
 10
64.438
 20
4.7316
 10
64.441
 20
4.6918
 10
64.4459
 20
4.6534
 10
64.4528
 20
4.6164
 10
64.4616
 20
4.5807
 10
64.4724
 20
4.5464
 10
64.4852
 20
4.5135
 10
64.5
 20
4.482
 10
64.5167
 20
4.4518
 10
64.5354
 20
4.423
 10
64.556
 20
4.3956
 10
64.5786
 20
4.3696
 10
64.6032
 20
4.3449
 10
64.6297
 20
4.3216
 10
64.6556
 20
4.3015
 10
64.6806
 20
4.2843
 10
64.7069
 20
4.2682
 10
64.7343
 20
4.253
 10
64.763
 20
4.239
 10
64.7929
 20
4.226
 10
64.8241
 20
4.214
 10
64.8565
 20
4.2031
 10
64.8901
 20
4.1933
 10
64.9249
 20
4.1845
 10
64.961
 20
4.1767
 10
64.9984
 20
4.17
 10
65.0369
 20
4.1644
 10
65.0767
 20
4.1598
 10
65.1177
 20
4.1563
 10
65.16
 20
4.1538
 10
65.2035
 20
4.1524
 10
65.2477
 20
4.152
 10
65.2892
 20
4.1524
 10
65.3301
 20
4.1536
 10
65.3704
 20
4.1554
 10
65.41
 20
4.158
 10
65.449
 20
4.1612
 10
65.4874
 20
4.1652
 10
65.5252
 20
4.1698
 10
65.5623
 20
4.1752
 10
65.5988
 20
4.1812
 10
65.6347
 20
4.188
 10
65.6699
 20
4.1954
 10
65.7045
 20
4.2036
 10
65.7385
 20
4.2124
 10
65.7719
 20
4.222
 10
65.8047
 20
4.2322
 10
65.8368
 20
4.2432
 10
65.8683
 20
4.2548
 10
65.8991
 20
4.2672
 10
65.9294
 20
4.2802
 10
65.959
 20
4.294
 10
65.9879
 20
4.3084
 10
66.0187
 20
4.3249
 10
66.0531
 20
4.3444
 10
66.0865
 20
4.3646
 10
66.1189
 20
4.3853
 10
66.1503
 20
4.4066
 10
66.1807
 20
4.4285
 10
66.2101
 20
4.451
 10
66.2384
 20
4.4741
 10
66.2658
 20
4.4977
 10
66.2921
 20
4.522
 10
66.3175
 20
4.5468
 10
66.3418
 20
4.5722
 10
66.3651
 20
4.5982
 10
66.3874
 20
4.6248
 10
66.4087
 20
4.652
 10
66.4289
 20
4.6798
 10
66.4482
 20
4.7081
 10
66.4665
 20
4.737
 10
66.4857
 20
4.7699
 10
66.5039
 20
4.8033
 10
66.5209
 20
4.8369
 10
66.5365
 20
4.8707
 10
66.5508
 20
4.9046
 10
66.5638
 20
4.9387
 10
66.5756
 20
4.9729
 10
66.586
 20
5.0072
 10
66.5951
 20
5.0417
 10
66.6029
 20
5.0764
 10
66.6094
 20
5.1111
 10
66.6146
 20
5.1461
 10
66.6186
 20
5.1812
 10
66.6212
 20
5.2164
 10
66.6225
 20
5.2518
 10
66.6226
 20
5.2877
 10
66.6226
 20
5.3239
 10
66.6226
 20
5.3602
 10
66.6226
 20
5.3647
 10
66.6226
 20
5.3965
  0
LWPOLYLINE
  5
57
330
17
100
AcDbEntity
  8
OUTLINE
100
AcDbPolyline
 90
368
 70
1
 10
76.566
 20
5.3591
 10
76.5418
 20
5.3591
 10
76.5541
 20
5.3149
 10
76.573
 20
5.2558
 10
76.5938
 20
5.1983
 10
76.6166
 20
5.1425
 10
76.6414
 20
5.0883
 10
76.6682
 20
5.0357
 10
76.6969
 20
4.9848
 10
76.7276
 20
4.9356
 10
76.7603
 20
4.888
 10
76.7949
 20
4.842
 10
76.8315
 20
4.7977
 10
76.8701
 20
4.755
 10
76.9107
 20
4.714
 10
76.9525
 20
4.6752
 10
76.995
 20
4.639
 10
77.039
 20
4.6045
 10
77.0846
 20
4.5716
 10
77.1316
 20
4.5404
 10
77.1803
 20
4.5109
 10
77.2304
 20
4.4831
 10
77.2821
 20
4.4569
 10
77.3353
 20
4.4325
 10
77.39
 20
4.4097
 10
77.4463
 20
4.3886
 10
77.5041
 20
4.3692
 10
77.5635
 20
4.3514
 10
77.6244
 20
4.3353
 10
77.6868
 20
4.3209
 10
77.7507
 20
4.3082
 10
77.8162
 20
4.2972
 10
77.8832
 20
4.2878
 10
77.9518
 20
4.2802
 10
78.0218
 20
4.2742
 10
78.0934
 20
4.2699
 10
78.1666
 20
4.2672
 10
78.2413
 20
4.2663
 10
78.3058
 20
4.2665
 10
78.3692
 20
4.2674
 10
78.4325
 20
4.2689
 10
78.4955
 20
4.2711
 10
78.5584
 20
4.2739
 10
78.621
 20
4.2773
 10
78.6835
 20
4.2813
 10
78.7457
 20
4.286
 10
78.8077
 20
4.2912
 10
78.8695
 20
4.2972
 10
78.9311
 20
4.3037
 10
78.9922
 20
4.3107
 10
79.0534
 20
4.3182
 10
79.1149
 20
4.3261
 10
79.1765
 20
4.3344
 10
79.2384
 20
4.3432
 10
79.3005
 20
4.3525
 10
79.3627
 20
4.3622
 10
79.4252
 20
4.3724
 10
79.4879
 20
4.383
 10
79.5507
 20
4.3941
 10
79.6127
 20
4.4041
 10
79.6198
 20
4.3417
 10
79.6269
 20
4.2794
 10
79.634
 20
4.217
 10
79.6412
 20
4.1547
 10
79.6483
 20
4.0923
 10
79.6554
 20
4.03
 10
79.6625
 20
3.9676
 10
79.6696
 20
3.9052
 10
79.6767
 20
3.8429
 10
79.6838
 20
3.7805
 10
79.6909
 20
3.7182
 10
79.6981
 20
3.6558
 10
79.7052
 20
3.5935
 10
79.7123
 20
3.5311
 10
79.7194
 20
3.4688
 10
79.7265
 20
3.4064
 10
79.7336
 20
3.3441
 10
79.7407
 20
3.2817
 10
79.684
 20
3.2623
 10
79.6173
 20
3.2507
 10
79.5514
 20
3.2397
 10
79.4862
 20
3.2294
 10
79.4219
 20
3.2197
 10
79.3582
 20
3.2106
 10
79.2954
 20
3.2021
 10
79.2333
 20
3.1942
 10
79.172
 20
3.187
 10
79.1114
 20
3.1804
 10
79.0516
 20
3.1745
 10
78.9926
 20
3.1691
 10
78.9344
 20
3.1644
 10
78.8769
 20
3.1603
 10
78.8134
 20
3.1564
 10
78.7439
 20
3.1525
 10
78.6758
 20
3.1489
 10
78.6091
 20
3.1457
 10
78.5439
 20
3.1429
 10
78.4801
 20
3.1404
 10
78.4177
 20
3.1384
 10
78.3568
 20
3.1367
 10
78.2973
 20
3.1353
 10
78.2392
 20
3.1344
 10
78.1826
 20
3.1338
 10
78.1274
 20
3.1336
 10
78.0528
 20
3.1342
 10
77.9792
 20
3.1358
 10
77.9065
 20
3.1385
 10
77.8348
 20
3.1423
 10
77.764
 20
3.1472
 10
77.6942
 20
3.1531
 10
77.6253
 20
3.1602
 10
77.5573
 20
3.1683
 10
77.4903
 20
3.1775
 10
77.4242
 20
3.1878
 10
77.3591
 20
3.1992
 10
77.2949
 20
3.2116
 10
77.2317
 20
3.2252
 10
77.1694
 20
3.2398
 10
77.108
 20
3.2555
 10
77.0476
 20
3.2723
 10
76.9881
 20
3.2902
 10
76.9296
 20
3.3091
 10
76.872
 20
3.3292
 10
76.8154
 20
3.3503
 10
76.7596
 20
3.3725
 10
76.7049
 20
3.3958
 10
76.6511
 20
3.4202
 10
76.5982
 20
3.4456
 10
76.5463
 20
3.4722
 10
76.4953
 20
3.4998
 10
76.4452
 20
3.5285
 10
76.3961
 20
3.5583
 10
76.348
 20
3.5892
 10
76.3008
 20
3.6211
 10
76.2545
 20
3.6542
 10
76.2092
 20
3.6883
 10
76.1648
 20
3.7235
 10
76.1213
 20
3.7598
 10
76.0788
 20
3.7972
 10
76.0373
 20
3.8356
 10
75.9961
 20
3.8757
 10
75.956
 20
3.917
 10
75.917
 20
3.9592
 10
75.8792
 20
4.0023
 10
75.8426
 20
4.0465
 10
75.8072
 20
4.0916
 10
75.773
 20
4.1378
 10
75.7399
 20
4.1849
 10
75.708
 20
4.233
 10
75.6773
 20
4.2821
 10
75.6477
 20
4.3321
 10
75.6193
 20
4.3832
 10
75.5921
 20
4.4352
 10
75.5661
 20
4.4882
 10
75.5413
 20
4.5422
 10
75.5176
 20
4.5971
 10
75.4951
 20
4.6531
 10
75.4738
 20
4.71
 10
75.4536
 20
4.7679
 10
75.4347
 20
4.8268
 10
75.4169
 20
4.8867
 10
75.4003
 20
4.9476
 10
75.3848
 20
5.0094
 10
75.3705
 20
5.0723
 10
75.3574
 20
5.1361
 10
75.3455
 20
5.2009
 10
75.3348
 20
5.2666
 10
75.3252
 20
5.3334
 10
75.3168
 20
5.4011
 10
75.3096
 20
5.4699
 10
75.3036
 20
5.5396
 10
75.2987
 20
5.6102
 10
75.295
 20
5.6819
 10
75.2925
 20
5.7546
 10
75.2912
 20
5.8282
 10
75.291
 20
5.9029
 10
75.2919
 20
5.9775
 10
75.2939
 20
6.051
 10
75.297
 20
6.1236
 10
75.3011
 20
6.1953
 10
75.3063
 20
6.2659
 10
75.3126
 20
6.3355
 10
75.32
 20
6.4042
 10
75.3284
 20
6.4719
 10
75.3379
 20
6.5386
 10
75.3484
 20
6.6043
 10
75.3601
 20
6.669
 10
75.3728
 20
6.7328
 10
75.3865
 20
6.7956
 10
75.4014
 20
6.8573
 10
75.4173
 20
6.9182
 10
75.4343
 20
6.978
 10
75.4523
 20
7.0368
 10
75.4715
 20
7.0947
 10
75.4917
 20
7.1516
 10
75.5129
 20
7.2075
 10
75.5353
 20
7.2624
 10
75.5587
 20
7.3163
 10
75.5832
 20
7.3693
 10
75.6087
 20
7.4212
 10
75.6354
 20
7.4722
 10
75.6631
 20
7.5222
 10
75.6918
 20
7.5712
 10
75.7217
 20
7.6193
 10
75.7526
 20
7.6663
 10
75.7845
 20
7.7124
 10
75.8176
 20
7.7575
 10
75.8517
 20
7.8016
 10
75.8869
 20
7.8447
 10
75.9235
 20
7.8873
 10
75.9641
 20
7.9319
 10
76.0058
 20
7.9751
 10
76.0485
 20
8.0169
 10
76.0922
 20
8.0572
 10
76.137
 20
8.096
 10
76.1829
 20
8.1334
 10
76.2297
 20
8.1694
 10
76.2776
 20
8.2039
 10
76.3266
 20
8.237
 10
76.3766
 20
8.2686
 10
76.4276
 20
8.2987
 10
76.4797
 20
8.3275
 10
76.5328
 20
8.3547
 10
76.5869
 20
8.3805
 10
76.6421
 20
8.4049
 10
76.6983
 20
8.4278
 10
76.7556
 20
8.4493
 10
76.8139
 20
8.4693
 10
76.8733
 20
8.4879
 10
76.9337
 20
8.505
 10
76.9951
 20
8.5207
 10
77.0576
 20
8.5349
 10
77.1211
 20
8.5477
 10
77.1857
 20
8.559
 10
77.2513
 20
8.5689
 10
77.3179
 20
8.5774
 10
77.3856
 20
8.5843
 10
77.4544
 20
8.5899
 10
77.5241
 20
8.594
 10
77.5949
 20
8.5966
 10
77.6668
 20
8.5978
 10
77.7397
 20
8.5975
 10
77.8119
 20
8.5958
 10
77.8829
 20
8.5927
 10
77.9529
 20
8.588
 10
78.0217
 20
8.582
 10
78.0894
 20
8.5744
 10
78.1561
 20
8.5654
 10
78.2216
 20
8.555
 10
78.286
 20
8.5431
 10
78.3493
 20
8.5297
 10
78.4115
 20
8.5149
 10
78.4726
 20
8.4986
 10
78.5325
 20
8.4809
 10
78.5914
 20
8.4617
 10
78.6492
 20
8.4411
 10
78.7058
 20
8.419
 10
78.7614
 20
8.3955
 10
78.8158
 20
8.3705
 10
78.8691
 20
8.344
 10
78.9214
 20
8.3161
 10
78.9725
 20
8.2867
 10
79.0225
 20
8.2559
 10
79.0714
 20
8.2236
 10
79.1192
 20
8.1899
 10
79.1659
 20
8.1547
 10
79.2114
 20
8.1181
 10
79.2559
 20
8.08
 10
79.2993
 20
8.0404
 10
79.3415
 20
7.9994
 10
79.3827
 20
7.957
 10
79.4206
 20
7.9154
 10
79.4564
 20
7.8738
 10
79.491
 20
7.8311
 10
79.5245
 20
7.7873
 10
79.5568
 20
7.7424
 10
79.588
 20
7.6964
 10
79.6181
 20
7.6492
 10
79.647
 20
7.601
 10
79.6748
 20
7.5516
 10
79.7015
 20
7.5011
 10
79.727
 20
7.4495
 10
79.7513
 20
7.3968
 10
79.7746
 20
7.3429
 10
79.7967
 20
7.288
 10
79.8176
 20
7.2319
 10
79.8374
 20
7.1747
 10
79.8561
 20
7.1164
 10
79.8736
 20
7.057
 10
79.89
 20
6.9965
 10
79.9053
 20
6.9349
 10
79.9194
 20
6.8721
 10
79.9324
 20
6.8082
 10
79.9442
 20
6.7432
 10
79.9549
 20
6.6771
 10
79.9645
 20
6.6099
 10
79.9729
 20
6.5416
 10
79.9802
 20
6.4721
 10
79.9864
 20
6.4016
 10
79.9914
 20
6.3299
 10
79.9953
 20
6.2571
 10
79.998
 20
6.1832
 10
79.9996
 20
6.1081
 10
80.0
 20
6.033
 10
79.9997
 20
5.9666
 10
79.9989
 20
5.901
 10
79.9976
 20
5.8362
 10
79.9958
 20
5.7722
 10
79.9935
 20
5.7089
 10
79.9907
 20
5.6463
 10
79.9873
 20
5.5845
 10
79.9835
 20
5.5235
 10
79.9792
 20
5.4632
 10
79.9743
 20
5.4037
 10
79.9551
 20
5.3591
 10
79.8923
 20
5.3591
 10
79.8296
 20
5.3591
 10
79.7668
 20
5.3591
 10
79.704
 20
5.3591
 10
79.6413
 20
5.3591
 10
79.5785
 20
5.3591
 10
79.5158
 20
5.3591
 10
79.453
 20
5.3591
 10
79.3902
 20
5.3591
 10
79.3275
 20
5.3591
 10
79.2647
 20
5.3591
 10
79.202
 20
5.3591
 10
79.1392
 20
5.3591
 10
79.0764
 20
5.3591
 10
79.0137
 20
5.3591
 10
78.9509
 20
5.3591
 10
78.8882
 20
5.3591
 10
78.8254
 20
5.3591
 10
78.7626
 20
5.3591
 10
78.6999
 20
5.3591
 10
78.6371
 20
5.3591
 10
78.5744
 20
5.3591
 10
78.5116
 20
5.3591
 10
78.4488
 20
5.3591
 10
78.3861
 20
5.3591
 10
78.3233
 20
5.3591
 10
78.2606
 20
5.3591
 10
78.1978
 20
5.3591
 10
78.135
 20
5.3591
 10
78.0723
 20
5.3591
 10
78.0095
 20
5.3591
 10
77.9468
 20
5.3591
 10
77.884
 20
5.3591
 10
77.8212
 20
5.3591
 10
77.7585
 20
5.3591
 10
77.6957
 20
5.3591
 10
77.633
 20
5.3591
 10
77.5702
 20
5.3591
 10
77.5074
 20
5.3591
 10
77.4447
 20
5.3591
 10
77.3819
 20
5.3591
 10
77.3192
 20
5.3591
 10
77.2564
 20
5.3591
 10
77.1936
 20
5.3591
 10
77.1309
 20
5.3591
 10
77.0681
 20
5.3591
 10
77.0054
 20
5.3591
 10
76.9426
 20
5.3591
 10
76.8798
 20
5.3591
 10
76.8171
 20
5.3591
 10
76.7543
 20
5.3591
 10
76.6916
 20
5.3591
 10
76.6288
 20
5.3591
  0
LWPOLYLINE
  5
58
330
17
100
AcDbEntity
  8
OUTLINE
100
AcDbPolyline
 90
100
 70
1
 10
76.4939
 20
6.2833
 10
76.4895
 20
6.2433
 10
76.5318
 20
6.2433
 10
76.5945
 20
6.2433
 10
76.6573
 20
6.2433
 10
76.72
 20
6.2433
 10
76.7828
 20
6.2433
 10
76.8456
 20
6.2433
 10
76.9083
 20
6.2433
 10
76.9711
 20
6.2433
 10
77.0338
 20
6.2433
 10
77.0966
 20
6.2433
 10
77.1594
 20
6.2433
 10
77.2221
 20
6.2433
 10
77.2849
 20
6.2433
 10
77.3476
 20
6.2433
 10
77.4104
 20
6.2433
 10
77.4732
 20
6.2433
 10
77.5359
 20
6.2433
 10
77.5987
 20
6.2433
 10
77.6614
 20
6.2433
 10
77.7242
 20
6.2433
 10
77.787
 20
6.2433
 10
77.8497
 20
6.2433
 10
77.9125
 20
6.2433
 10
77.9752
 20
6.2433
 10
78.038
 20
6.2433
 10
78.1008
 20
6.2433
 10
78.1635
 20
6.2433
 10
78.2263
 20
6.2433
 10
78.289
 20
6.2433
 10
78.3518
 20
6.2433
 10
78.4146
 20
6.2433
 10
78.4773
 20
6.2433
 10
78.5401
 20
6.2433
 10
78.6028
 20
6.2433
 10
78.6656
 20
6.2433
 10
78.7284
 20
6.2433
 10
78.7911
 20
6.2433
 10
78.8275
 20
6.2748
 10
78.8253
 20
6.3486
 10
78.8208
 20
6.4203
 10
78.8138
 20
6.4897
 10
78.8045
 20
6.5569
 10
78.7929
 20
6.6219
 10
78.7788
 20
6.6846
 10
78.7624
 20
6.7452
 10
78.7436
 20
6.8035
 10
78.7224
 20
6.8596
 10
78.6988
 20
6.9135
 10
78.6729
 20
6.9652
 10
78.6446
 20
7.0147
 10
78.6139
 20
7.062
 10
78.5808
 20
7.107
 10
78.5454
 20
7.1498
 10
78.5058
 20
7.1922
 10
78.4626
 20
7.2332
 10
78.4173
 20
7.2711
 10
78.3698
 20
7.3059
 10
78.3201
 20
7.3378
 10
78.2683
 20
7.3666
 10
78.2142
 20
7.3924
 10
78.158
 20
7.4152
 10
78.0995
 20
7.435
 10
78.0389
 20
7.4517
 10
77.9761
 20
7.4654
 10
77.9111
 20
7.4761
 10
77.844
 20
7.4838
 10
77.7746
 20
7.4884
 10
77.7031
 20
7.4901
 10
77.633
 20
7.4887
 10
77.5649
 20
7.4843
 10
77.4987
 20
7.4768
 10
77.4344
 20
7.4663
 10
77.3721
 20
7.4528
 10
77.3117
 20
7.4362
 10
77.2532
 20
7.4166
 10
77.1966
 20
7.394
 10
77.142
 20
7.3684
 10
77.0893
 20
7.3397
 10
77.0385
 20
7.308
 10
76.9896
 20
7.2732
 10
76.9426
 20
7.2355
 10
76.8976
 20
7.1946
 10
76.8545
 20
7.1508
 10
76.8133
 20
7.1039
 10
76.7776
 20
7.0587
 10
76.7463
 20
7.0151
 10
76.7167
 20
6.9696
 10
76.6888
 20
6.9223
 10
76.6626
 20
6.8732
 10
76.6381
 20
6.8223
 10
76.6153
 20
6.7697
 10
76.5941
 20
6.7152
 10
76.5747
 20
6.6589
 10
76.557
 20
6.6008
 10
76.541
 20
6.5409
 10
76.5267
 20
6.4792
 10
76.514
 20
6.4157
 10
76.5031
 20
6.3504
  0
LWPOLYLINE
  5
59
330
17
100
AcDbEntity
  8
OUTLINE
100
AcDbPolyline
 90
432
 70
1
 10
72.4123
 20
3.1342
 10
72.3587
 20
3.1338
 10
72.3054
 20
3.1336
 10
72.2398
 20
3.134
 10
72.175
 20
3.1352
 10
72.1108
 20
3.1372
 10
72.0473
 20
3.1399
 10
71.9846
 20
3.1435
 10
71.9225
 20
3.1478
 10
71.8612
 20
3.1529
 10
71.8005
 20
3.1587
 10
71.7406
 20
3.1654
 10
71.6814
 20
3.1729
 10
71.6229
 20
3.1811
 10
71.5651
 20
3.1901
 10
71.508
 20
3.1999
 10
71.4516
 20
3.2105
 10
71.3959
 20
3.2219
 10
71.3409
 20
3.234
 10
71.2866
 20
3.247
 10
71.2331
 20
3.2607
 10
71.1802
 20
3.2752
 10
71.1281
 20
3.2905
 10
71.0766
 20
3.3066
 10
71.0259
 20
3.3234
 10
70.9759
 20
3.3411
 10
70.9266
 20
3.3595
 10
70.8779
 20
3.3787
 10
70.83
 20
3.3987
 10
70.7828
 20
3.4195
 10
70.7363
 20
3.4411
 10
70.6906
 20
3.4634
 10
70.6455
 20
3.4866
 10
70.6011
 20
3.5105
 10
70.5574
 20
3.5352
 10
70.5145
 20
3.5607
 10
70.4722
 20
3.5869
 10
70.4307
 20
3.614
 10
70.3899
 20
3.6418
 10
70.3497
 20
3.6705
 10
70.3103
 20
3.6999
 10
70.2716
 20
3.7301
 10
70.2336
 20
3.761
 10
70.1963
 20
3.7928
 10
70.1597
 20
3.8254
 10
70.1231
 20
3.8594
 10
70.0866
 20
3.8949
 10
70.0511
 20
3.9311
 10
70.0164
 20
3.968
 10
69.9827
 20
4.0057
 10
69.9499
 20
4.0442
 10
69.918
 20
4.0833
 10
69.8871
 20
4.1233
 10
69.857
 20
4.1639
 10
69.8279
 20
4.2054
 10
69.7997
 20
4.2475
 10
69.7724
 20
4.2904
 10
69.746
 20
4.3341
 10
69.7206
 20
4.3785
 10
69.696
 20
4.4236
 10
69.6724
 20
4.4695
 10
69.6497
 20
4.5161
 10
69.6279
 20
4.5635
 10
69.607
 20
4.6116
 10
69.587
 20
4.6604
 10
69.568
 20
4.71
 10
69.5499
 20
4.7604
 10
69.5327
 20
4.8114
 10
69.5164
 20
4.8633
 10
69.501
 20
4.9158
 10
69.4865
 20
4.9692
 10
69.473
 20
5.0232
 10
69.4604
 20
5.078
 10
69.4486
 20
5.1336
 10
69.4379
 20
5.1899
 10
69.428
 20
5.2469
 10
69.419
 20
5.3047
 10
69.411
 20
5.3632
 10
69.4039
 20
5.4225
 10
69.3976
 20
5.4825
 10
69.3924
 20
5.5432
 10
69.388
 20
5.6047
 10
69.3845
 20
5.667
 10
69.382
 20
5.7299
 10
69.3804
 20
5.7937
 10
69.3797
 20
5.8581
 10
69.3799
 20
5.9229
 10
69.3809
 20
5.9869
 10
69.3829
 20
6.0501
 10
69.3858
 20
6.1127
 10
69.3896
 20
6.1745
 10
69.3942
 20
6.2356
 10
69.3998
 20
6.296
 10
69.4062
 20
6.3556
 10
69.4136
 20
6.4145
 10
69.4218
 20
6.4727
 10
69.4309
 20
6.5302
 10
69.4409
 20
6.5869
 10
69.4518
 20
6.6429
 10
69.4636
 20
6.6982
 10
69.4762
 20
6.7527
 10
69.4898
 20
6.8066
 10
69.5042
 20
6.8597
 10
69.5196
 20
6.912
 10
69.5358
 20
6.9637
 10
69.553
 20
7.0146
 10
69.571
 20
7.0647
 10
69.5899
 20
7.1142
 10
69.6097
 20
7.1629
 10
69.6304
 20
7.2109
 10
69.6519
 20
7.2582
 10
69.6744
 20
7.3047
 10
69.6978
 20
7.3506
 10
69.722
 20
7.3956
 10
69.7472
 20
7.44
 10
69.7732
 20
7.4836
 10
69.8001
 20
7.5265
 10
69.8279
 20
7.5687
 10
69.8566
 20
7.6102
 10
69.8862
 20
7.6509
 10
69.9167
 20
7.6909
 10
69.9481
 20
7.7302
 10
69.9804
 20
7.7687
 10
70.0135
 20
7.8065
 10
70.0476
 20
7.8436
 10
70.0825
 20
7.88
 10
70.118
 20
7.9153
 10
70.1543
 20
7.9497
 10
70.1914
 20
7.9833
 10
70.2291
 20
8.0159
 10
70.2677
 20
8.0477
 10
70.307
 20
8.0785
 10
70.347
 20
8.1085
 10
70.3879
 20
8.1376
 10
70.4294
 20
8.1658
 10
70.4717
 20
8.1931
 10
70.5148
 20
8.2195
 10
70.5586
 20
8.245
 10
70.6032
 20
8.2696
 10
70.6486
 20
8.2934
 10
70.6946
 20
8.3162
 10
70.7415
 20
8.3382
 10
70.7891
 20
8.3592
 10
70.8374
 20
8.3794
 10
70.8866
 20
8.3987
 10
70.9364
 20
8.4171
 10
70.987
 20
8.4346
 10
71.0384
 20
8.4512
 10
71.0905
 20
8.4669
 10
71.1434
 20
8.4817
 10
71.1971
 20
8.4957
 10
71.2515
 20
8.5087
 10
71.3066
 20
8.5209
 10
71.3625
 20
8.5322
 10
71.4192
 20
8.5425
 10
71.4766
 20
8.552
 10
71.5347
 20
8.5606
 10
71.5937
 20
8.5683
 10
71.6533
 20
8.5751
 10
71.7138
 20
8.581
 10
71.7749
 20
8.5861
 10
71.8369
 20
8.5902
 10
71.8996
 20
8.5935
 10
71.963
 20
8.5958
 10
72.0272
 20
8.5973
 10
72.0922
 20
8.5979
 10
72.1544
 20
8.5975
 10
72.2154
 20
8.5963
 10
72.2757
 20
8.5941
 10
72.3354
 20
8.5911
 10
72.3943
 20
8.5871
 10
72.4526
 20
8.5822
 10
72.5101
 20
8.5763
 10
72.567
 20
8.5696
 10
72.6231
 20
8.5619
 10
72.6786
 20
8.5534
 10
72.7334
 20
8.5439
 10
72.7875
 20
8.5335
 10
72.8409
 20
8.5221
 10
72.8936
 20
8.5099
 10
72.9456
 20
8.4967
 10
72.9969
 20
8.4827
 10
73.0475
 20
8.4677
 10
73.0975
 20
8.4518
 10
73.1467
 20
8.4349
 10
73.1952
 20
8.4172
 10
73.2431
 20
8.3985
 10
73.2902
 20
8.379
 10
73.3367
 20
8.3585
 10
73.3825
 20
8.337
 10
73.4276
 20
8.3147
 10
73.4722
 20
8.2913
 10
73.5233
 20
8.2629
 10
73.573
 20
8.2335
 10
73.6214
 20
8.203
 10
73.6683
 20
8.1715
 10
73.7139
 20
8.139
 10
73.7582
 20
8.1054
 10
73.801
 20
8.0707
 10
73.8425
 20
8.035
 10
73.8827
 20
7.9983
 10
73.9214
 20
7.9606
 10
73.9588
 20
7.9217
 10
73.9948
 20
7.8819
 10
74.0294
 20
7.841
 10
74.0627
 20
7.7991
 10
74.0946
 20
7.7561
 10
74.1251
 20
7.7121
 10
74.1542
 20
7.667
 10
74.182
 20
7.6209
 10
74.2084
 20
7.5738
 10
74.2334
 20
7.5256
 10
74.2571
 20
7.4764
 10
74.2738
 20
7.4276
 10
74.2306
 20
7.3938
 10
74.1873
 20
7.36
 10
74.1441
 20
7.3262
 10
74.1009
 20
7.2924
 10
74.0576
 20
7.2586
 10
74.0144
 20
7.2248
 10
73.9712
 20
7.1911
 10
73.9279
 20
7.1573
 10
73.8847
 20
7.1235
 10
73.8414
 20
7.0897
 10
73.7982
 20
7.0559
 10
73.755
 20
7.0221
 10
73.7117
 20
6.9883
 10
73.6685
 20
6.9545
 10
73.6253
 20
6.9208
 10
73.582
 20
6.887
 10
73.5388
 20
6.8532
 10
73.4955
 20
6.8194
 10
73.4523
 20
6.7856
 10
73.4091
 20
6.7518
 10
73.3666
 20
6.7232
 10
73.3355
 20
6.7714
 10
73.3032
 20
6.8181
 10
73.2698
 20
6.8632
 10
73.2352
 20
6.9067
 10
73.1993
 20
6.9487
 10
73.1624
 20
6.9891
 10
73.1242
 20
7.0279
 10
73.0848
 20
7.0652
 10
73.0443
 20
7.1009
 10
73.0026
 20
7.135
 10
72.9597
 20
7.1676
 10
72.9157
 20
7.1986
 10
72.8705
 20
7.228
 10
72.8241
 20
7.2559
 10
72.7762
 20
7.2823
 10
72.7276
 20
7.307
 10
72.6783
 20
7.3297
 10
72.6283
 20
7.3505
 10
72.5777
 20
7.3695
 10
72.5264
 20
7.3866
 10
72.4744
 20
7.4017
 10
72.4218
 20
7.415
 10
72.3685
 20
7.4264
 10
72.3146
 20
7.4359
 10
72.26
 20
7.4435
 10
72.2047
 20
7.4492
 10
72.1487
 20
7.4531
 10
72.0921
 20
7.455
 10
72.0319
 20
7.4551
 10
71.9692
 20
7.4533
 10
71.9079
 20
7.4498
 10
71.8478
 20
7.4445
 10
71.7892
 20
7.4374
 10
71.7318
 20
7.4286
 10
71.6758
 20
7.4179
 10
71.6211
 20
7.4055
 10
71.5678
 20
7.3913
 10
71.5158
 20
7.3753
 10
71.4652
 20
7.3575
 10
71.4159
 20
7.338
 10
71.3679
 20
7.3166
 10
71.3212
 20
7.2935
 10
71.2759
 20
7.2686
 10
71.232
 20
7.2419
 10
71.1893
 20
7.2134
 10
71.148
 20
7.1832
 10
71.1081
 20
7.1511
 10
71.0695
 20
7.1173
 10
71.0322
 20
7.0817
 10
70.9969
 20
7.0451
 10
70.9644
 20
7.0083
 10
70.9333
 20
6.9701
 10
70.9038
 20
6.9306
 10
70.8758
 20
6.8897
 10
70.8493
 20
6.8475
 10
70.8244
 20
6.8039
 10
70.8009
 20
6.759
 10
70.779
 20
6.7127
 10
70.7586
 20
6.665
 10
70.7397
 20
6.616
 10
70.7223
 20
6.5656
 10
70.7065
 20
6.5138
 10
70.6922
 20
6.4607
 10
70.6793
 20
6.4063
 10
70.668
 20
6.3505
 10
70.6583
 20
6.2933
 10
70.65
 20
6.2348
 10
70.6432
 20
6.1749
 10
70.638
 20
6.1136
 10
70.6343
 20
6.051
 10
70.6321
 20
5.987
 10
70.6314
 20
5.9217
 10
70.6323
 20
5.8571
 10
70.6347
 20
5.7938
 10
70.6386
 20
5.7317
 10
70.644
 20
5.6709
 10
70.651
 20
5.6113
 10
70.6595
 20
5.553
 10
70.6695
 20
5.496
 10
70.681
 20
5.4402
 10
70.6941
 20
5.3857
 10
70.7087
 20
5.3324
 10
70.7249
 20
5.2804
 10
70.7425
 20
5.2297
 10
70.7617
 20
5.1802
 10
70.7825
 20
5.132
 10
70.8047
 20
5.085
 10
70.8285
 20
5.0393
 10
70.8538
 20
4.9948
 10
70.8807
 20
4.9516
 10
70.909
 20
4.9097
 10
70.9389
 20
4.869
 10
70.9704
 20
4.8296
 10
71.0033
 20
4.7915
 10
71.0378
 20
4.7546
 10
71.0738
 20
4.719
 10
71.1106
 20
4.6853
 10
71.1473
 20
4.654
 10
71.1853
 20
4.6239
 10
71.2245
 20
4.595
 10
71.2648
 20
4.5674
 10
71.3063
 20
4.5411
 10
71.349
 20
4.516
 10
71.3929
 20
4.4921
 10
71.438
 20
4.4695
 10
71.4843
 20
4.4481
 10
71.5317
 20
4.428
 10
71.5803
 20
4.4092
 10
71.6301
 20
4.3916
 10
71.6811
 20
4.3752
 10
71.7333
 20
4.3601
 10
71.7866
 20
4.3463
 10
71.8412
 20
4.3336
 10
71.8969
 20
4.3223
 10
71.9538
 20
4.3122
 10
72.0119
 20
4.3033
 10
72.0711
 20
4.2957
 10
72.1316
 20
4.2893
 10
72.1932
 20
4.2842
 10
72.256
 20
4.2803
 10
72.32
 20
4.2777
 10
72.3852
 20
4.2764
 10
72.4468
 20
4.2762
 10
72.5018
 20
4.2765
 10
72.5567
 20
4.2773
 10
72.6116
 20
4.2784
 10
72.6665
 20
4.28
 10
72.7213
 20
4.282
 10
72.7761
 20
4.2843
 10
72.8309
 20
4.2871
 10
72.8857
 20
4.2903
 10
72.9404
 20
4.2938
 10
72.9951
 20
4.2978
 10
73.0497
 20
4.3021
 10
73.1044
 20
4.3069
 10
73.1592
 20
4.3121
 10
73.2148
 20
4.3177
 10
73.2701
 20
4.3236
 10
73.3253
 20
4.3297
 10
73.3802
 20
4.3362
 10
73.435
 20
4.343
 10
73.4895
 20
4.3501
 10
73.5438
 20
4.3575
 10
73.5979
 20
4.3651
 10
73.6518
 20
4.3731
 10
73.7055
 20
4.3814
 10
73.759
 20
4.3899
 10
73.8123
 20
4.3988
 10
73.8521
 20
4.3899
 10
73.8584
 20
4.3354
 10
73.8646
 20
4.2808
 10
73.8709
 20
4.2263
 10
73.8772
 20
4.1718
 10
73.8835
 20
4.1173
 10
73.8897
 20
4.0628
 10
73.896
 20
4.0083
 10
73.9023
 20
3.9538
 10
73.9086
 20
3.8992
 10
73.9148
 20
3.8447
 10
73.9211
 20
3.7902
 10
73.9274
 20
3.7357
 10
73.9337
 20
3.6812
 10
73.9399
 20
3.6267
 10
73.9462
 20
3.5722
 10
73.9525
 20
3.5177
 10
73.9588
 20
3.4631
 10
73.965
 20
3.4086
 10
73.9713
 20
3.3541
 10
73.9776
 20
3.2996
 10
73.9433
 20
3.2748
 10
73.8907
 20
3.2638
 10
73.8378
 20
3.2532
 10
73.7847
 20
3.2432
 10
73.7313
 20
3.2337
 10
73.6776
 20
3.2247
 10
73.6237
 20
3.2162
 10
73.5696
 20
3.2081
 10
73.5152
 20
3.2006
 10
73.4606
 20
3.1936
 10
73.4057
 20
3.1871
 10
73.3505
 20
3.1811
 10
73.2951
 20
3.1757
 10
73.2395
 20
3.1707
 10
73.1835
 20
3.1662
 10
73.1273
 20
3.1622
 10
73.0711
 20
3.1585
 10
73.015
 20
3.1551
 10
72.9591
 20
3.1519
 10
72.9035
 20
3.149
 10
72.8481
 20
3.1463
 10
72.7929
 20
3.1439
 10
72.7378
 20
3.1418
 10
72.6831
 20
3.1399
 10
72.6285
 20
3.1382
 10
72.5741
 20
3.1368
 10
72.5199
 20
3.1357
 10
72.466
 20
3.1348
  0
LWPOLYLINE
  5
5A
330
17
100
AcDbEntity
  8
OUTLINE
100
AcDbPolyline
 90
366
 70
1
 10
46.9217
 20
5.7591
 10
46.9217
 20
5.6519
 10
46.9217
 20
5.5446
 10
46.9217
 20
5.4374
 10
46.9217
 20
5.3302
 10
46.9217
 20
5.2229
 10
46.9217
 20
5.1157
 10
46.9217
 20
5.0085
 10
46.9217
 20
4.9013
 10
46.9217
 20
4.794
 10
46.9217
 20
4.6868
 10
46.9217
 20
4.5796
 10
46.9217
 20
4.4723
 10
46.9217
 20
4.3651
 10
46.9217
 20
4.2579
 10
46.9217
 20
4.1506
 10
46.9217
 20
4.0434
 10
46.9217
 20
3.9362
 10
46.9217
 20
3.8289
 10
46.9217
 20
3.7217
 10
46.9217
 20
3.6145
 10
46.9217
 20
3.5072
 10
46.9217
 20
3.4
 10
46.9217
 20
3.2928
 10
46.8743
 20
3.233
 10
46.7671
 20
3.233
 10
46.6598
 20
3.233
 10
46.5526
 20
3.233
 10
46.4454
 20
3.233
 10
46.3381
 20
3.233
 10
46.2309
 20
3.233
 10
46.1237
 20
3.233
 10
46.0164
 20
3.233
 10
45.9092
 20
3.233
 10
45.802
 20
3.233
 10
45.6947
 20
3.233
 10
45.6947
 20
3.3402
 10
45.6947
 20
3.4475
 10
45.6947
 20
3.5547
 10
45.6947
 20
3.6619
 10
45.6947
 20
3.7692
 10
45.6947
 20
3.8764
 10
45.6947
 20
3.9836
 10
45.6947
 20
4.0908
 10
45.6947
 20
4.1981
 10
45.6947
 20
4.3053
 10
45.6947
 20
4.4125
 10
45.6947
 20
4.5198
 10
45.6947
 20
4.627
 10
45.6947
 20
4.7342
 10
45.6947
 20
4.8415
 10
45.6947
 20
4.9487
 10
45.6947
 20
5.0559
 10
45.6947
 20
5.1632
 10
45.6947
 20
5.2704
 10
45.6947
 20
5.3776
 10
45.6947
 20
5.4849
 10
45.6947
 20
5.5921
 10
45.6947
 20
5.6993
 10
45.6947
 20
5.8066
 10
45.6947
 20
5.9138
 10
45.6947
 20
6.021
 10
45.6947
 20
6.1283
 10
45.6947
 20
6.2355
 10
45.6947
 20
6.3427
 10
45.6947
 20
6.45
 10
45.6947
 20
6.5572
 10
45.6947
 20
6.6644
 10
45.6947
 20
6.7717
 10
45.6947
 20
6.8789
 10
45.6947
 20
6.9861
 10
45.6947
 20
7.0933
 10
45.6947
 20
7.2006
 10
45.6947
 20
7.3078
 10
45.6947
 20
7.415
 10
45.6947
 20
7.5223
 10
45.6947
 20
7.6295
 10
45.6947
 20
7.7367
 10
45.6947
 20
7.844
 10
45.6947
 20
7.9512
 10
45.6947
 20
8.0584
 10
45.6947
 20
8.1657
 10
45.6947
 20
8.2729
 10
45.6947
 20
8.3801
 10
45.6947
 20
8.4874
 10
45.7908
 20
8.4985
 10
45.898
 20
8.4985
 10
46.0053
 20
8.4985
 10
46.1125
 20
8.4985
 10
46.2197
 20
8.4985
 10
46.327
 20
8.4985
 10
46.4342
 20
8.4985
 10
46.5414
 20
8.4985
 10
46.6487
 20
8.4985
 10
46.7559
 20
8.4985
 10
46.8049
 20
8.4334
 10
46.8167
 20
8.3268
 10
46.8286
 20
8.2203
 10
46.8405
 20
8.1137
 10
46.8524
 20
8.0071
 10
46.8643
 20
7.9006
 10
46.8762
 20
7.794
 10
46.8881
 20
7.6874
 10
46.9
 20
7.5808
 10
46.904
 20
7.5447
 10
46.9474
 20
7.5447
 10
47.0109
 20
7.5447
 10
47.0458
 20
7.5841
 10
47.0568
 20
7.6566
 10
47.0704
 20
7.7265
 10
47.0864
 20
7.7936
 10
47.105
 20
7.858
 10
47.1261
 20
7.9196
 10
47.1498
 20
7.9786
 10
47.1759
 20
8.0348
 10
47.2046
 20
8.0883
 10
47.2358
 20
8.1391
 10
47.2695
 20
8.1871
 10
47.3058
 20
8.2325
 10
47.3446
 20
8.2751
 10
47.3858
 20
8.315
 10
47.428
 20
8.3509
 10
47.4706
 20
8.3827
 10
47.5157
 20
8.4122
 10
47.5633
 20
8.4396
 10
47.6135
 20
8.4648
 10
47.6663
 20
8.4878
 10
47.7216
 20
8.5087
 10
47.7794
 20
8.5273
 10
47.8399
 20
8.5438
 10
47.9029
 20
8.5581
 10
47.9684
 20
8.5702
 10
48.0365
 20
8.5801
 10
48.1072
 20
8.5878
 10
48.1804
 20
8.5933
 10
48.2562
 20
8.5967
 10
48.3345
 20
8.5979
 10
48.4081
 20
8.5969
 10
48.48
 20
8.594
 10
48.5505
 20
8.5891
 10
48.6194
 20
8.5822
 10
48.6869
 20
8.5733
 10
48.7529
 20
8.5624
 10
48.8174
 20
8.5494
 10
48.8804
 20
8.5345
 10
48.9419
 20
8.5176
 10
49.0019
 20
8.4987
 10
49.0604
 20
8.4778
 10
49.1175
 20
8.4549
 10
49.173
 20
8.43
 10
49.2271
 20
8.4031
 10
49.2796
 20
8.3743
 10
49.3307
 20
8.3434
 10
49.3803
 20
8.3105
 10
49.4284
 20
8.2756
 10
49.4751
 20
8.2387
 10
49.5202
 20
8.1998
 10
49.5638
 20
8.159
 10
49.606
 20
8.1161
 10
49.6454
 20
8.0726
 10
49.6818
 20
8.0294
 10
49.7165
 20
7.9847
 10
49.7497
 20
7.9386
 10
49.7813
 20
7.8911
 10
49.8114
 20
7.8422
 10
49.8399
 20
7.7918
 10
49.8669
 20
7.74
 10
49.8923
 20
7.6868
 10
49.9161
 20
7.6321
 10
49.9383
 20
7.576
 10
49.959
 20
7.5185
 10
49.9782
 20
7.4596
 10
49.9957
 20
7.3992
 10
50.0117
 20
7.3375
 10
50.0262
 20
7.2743
 10
50.0391
 20
7.2096
 10
50.0504
 20
7.1435
 10
50.0602
 20
7.0761
 10
50.0684
 20
7.0071
 10
50.075
 20
6.9368
 10
50.0801
 20
6.865
 10
50.0836
 20
6.7918
 10
50.0855
 20
6.7172
 10
50.086
 20
6.6445
 10
50.086
 20
6.5809
 10
50.086
 20
6.5174
 10
50.086
 20
6.4538
 10
50.086
 20
6.3903
 10
50.086
 20
6.3268
 10
50.086
 20
6.2632
 10
50.086
 20
6.1997
 10
50.086
 20
6.1361
 10
50.086
 20
6.0726
 10
50.086
 20
6.0091
 10
50.086
 20
5.9455
 10
50.086
 20
5.882
 10
50.086
 20
5.8185
 10
50.086
 20
5.7549
 10
50.086
 20
5.6914
 10
50.086
 20
5.6278
 10
50.086
 20
5.5643
 10
50.086
 20
5.5008
 10
50.086
 20
5.4372
 10
50.086
 20
5.3737
 10
50.086
 20
5.3101
 10
50.086
 20
5.2466
 10
50.086
 20
5.1831
 10
50.086
 20
5.1195
 10
50.086
 20
5.056
 10
50.086
 20
4.9924
 10
50.086
 20
4.9289
 10
50.086
 20
4.8654
 10
50.086
 20
4.8018
 10
50.086
 20
4.7383
 10
50.086
 20
4.6747
 10
50.086
 20
4.6112
 10
50.086
 20
4.5477
 10
50.086
 20
4.4841
 10
50.086
 20
4.4206
 10
50.086
 20
4.357
 10
50.086
 20
4.2935
 10
50.086
 20
4.23
 10
50.086
 20
4.1664
 10
50.086
 20
4.1029
 10
50.086
 20
4.0394
 10
50.086
 20
3.9758
 10
50.086
 20
3.9123
 10
50.086
 20
3.8487
 10
50.086
 20
3.7852
 10
50.086
 20
3.7217
 10
50.086
 20
3.6581
 10
50.086
 20
3.5946
 10
50.086
 20
3.531
 10
50.086
 20
3.4675
 10
50.086
 20
3.404
 10
50.086
 20
3.3404
 10
50.086
 20
3.2769
 10
50.0663
 20
3.233
 10
50.0028
 20
3.233
 10
49.9392
 20
3.233
 10
49.8757
 20
3.233
 10
49.8122
 20
3.233
 10
49.7486
 20
3.233
 10
49.6851
 20
3.233
 10
49.6215
 20
3.233
 10
49.558
 20
3.233
 10
49.4945
 20
3.233
 10
49.4309
 20
3.233
 10
49.3674
 20
3.233
 10
49.3038
 20
3.233
 10
49.2403
 20
3.233
 10
49.1768
 20
3.233
 10
49.1132
 20
3.233
 10
49.0497
 20
3.233
 10
48.9861
 20
3.233
 10
48.9226
 20
3.233
 10
48.8591
 20
3.233
 10
48.8591
 20
3.2965
 10
48.8591
 20
3.3601
 10
48.8591
 20
3.4236
 10
48.8591
 20
3.4871
 10
48.8591
 20
3.5507
 10
48.8591
 20
3.6142
 10
48.8591
 20
3.6778
 10
48.8591
 20
3.7413
 10
48.8591
 20
3.8048
 10
48.8591
 20
3.8684
 10
48.8591
 20
3.9319
 10
48.8591
 20
3.9955
 10
48.8591
 20
4.059
 10
48.8591
 20
4.1225
 10
48.8591
 20
4.1861
 10
48.8591
 20
4.2496
 10
48.8591
 20
4.3132
 10
48.8591
 20
4.3767
 10
48.8591
 20
4.4402
 10
48.8591
 20
4.5038
 10
48.8591
 20
4.5673
 10
48.8591
 20
4.6309
 10
48.8591
 20
4.6944
 10
48.8591
 20
4.7579
 10
48.8591
 20
4.8215
 10
48.8591
 20
4.885
 10
48.8591
 20
4.9485
 10
48.8591
 20
5.0121
 10
48.8591
 20
5.0756
 10
48.8591
 20
5.1392
 10
48.8591
 20
5.2027
 10
48.8591
 20
5.2662
 10
48.8591
 20
5.3298
 10
48.8591
 20
5.3933
 10
48.8591
 20
5.4569
 10
48.8591
 20
5.5204
 10
48.8591
 20
5.5839
 10
48.8591
 20
5.6475
 10
48.8591
 20
5.711
 10
48.8591
 20
5.7746
 10
48.8591
 20
5.8381
 10
48.8591
 20
5.9016
 10
48.8591
 20
5.9652
 10
48.8591
 20
6.0287
 10
48.8591
 20
6.0923
 10
48.8591
 20
6.1558
 10
48.8591
 20
6.2193
 10
48.8591
 20
6.2829
 10
48.8591
 20
6.3464
 10
48.8591
 20
6.4099
 10
48.859
 20
6.476
 10
48.8571
 20
6.5514
 10
48.8522
 20
6.6239
 10
48.8445
 20
6.6936
 10
48.8339
 20
6.7604
 10
48.8204
 20
6.8243
 10
48.804
 20
6.8853
 10
48.7848
 20
6.9435
 10
48.7627
 20
6.9988
 10
48.7377
 20
7.0512
 10
48.7098
 20
7.1007
 10
48.6791
 20
7.1473
 10
48.6455
 20
7.1911
 10
48.6048
 20
7.2362
 10
48.5605
 20
7.2778
 10
48.5131
 20
7.315
 10
48.4628
 20
7.3478
 10
48.4094
 20
7.3763
 10
48.353
 20
7.4003
 10
48.2935
 20
7.4201
 10
48.2311
 20
7.4354
 10
48.1656
 20
7.4464
 10
48.0971
 20
7.453
 10
48.0256
 20
7.4553
 10
47.9594
 20
7.454
 10
47.8953
 20
7.4499
 10
47.8333
 20
7.4432
 10
47.7733
 20
7.4338
 10
47.7153
 20
7.4217
 10
47.6594
 20
7.4068
 10
47.6055
 20
7.3893
 10
47.5537
 20
7.3691
 10
47.5039
 20
7.3461
 10
47.4562
 20
7.3205
 10
47.4105
 20
7.2921
 10
47.3668
 20
7.2611
 10
47.3252
 20
7.2273
 10
47.2857
 20
7.1908
 10
47.2481
 20
7.1517
 10
47.2126
 20
7.1098
 10
47.1792
 20
7.0652
 10
47.1478
 20
7.0179
 10
47.1184
 20
6.9679
 10
47.0911
 20
6.9153
 10
47.0658
 20
6.8599
 10
47.0426
 20
6.8018
 10
47.0214
 20
6.741
 10
47.0022
 20
6.6775
 10
46.9851
 20
6.6112
 10
46.9701
 20
6.5423
 10
46.957
 20
6.4707
 10
46.9461
 20
6.3964
 10
46.9371
 20
6.3194
 10
46.9302
 20
6.2396
 10
46.9253
 20
6.1572
 10
46.9225
 20
6.0721
 10
46.9217
 20
6.0479
 10
46.9217
 20
5.9736
 10
46.9217
 20
5.8663
  0
LWPOLYLINE
  5
5B
330
17
100
AcDbEntity
  8
OUTLINE
100
AcDbPolyline
 90
648
 70
1
 10
53.7265
 20
3.1348
 10
53.6676
 20
3.1339
 10
53.6079
 20
3.1336
 10
53.5582
 20
3.1338
 10
53.5086
 20
3.1343
 10
53.4592
 20
3.1352
 10
53.4099
 20
3.1364
 10
53.3609
 20
3.1379
 10
53.312
 20
3.1398
 10
53.2633
 20
3.142
 10
53.2148
 20
3.1446
 10
53.1665
 20
3.1475
 10
53.1183
 20
3.1507
 10
53.0704
 20
3.1543
 10
53.0226
 20
3.1583
 10
52.975
 20
3.1625
 10
52.9275
 20
3.1671
 10
52.8803
 20
3.1721
 10
52.8332
 20
3.1774
 10
52.7863
 20
3.183
 10
52.7396
 20
3.189
 10
52.6931
 20
3.1953
 10
52.6467
 20
3.202
 10
52.6005
 20
3.209
 10
52.5546
 20
3.2163
 10
52.5087
 20
3.224
 10
52.4631
 20
3.2321
 10
52.4132
 20
3.2413
 10
52.3631
 20
3.251
 10
52.3135
 20
3.261
 10
52.2643
 20
3.2715
 10
52.2156
 20
3.2823
 10
52.1673
 20
3.2935
 10
52.1194
 20
3.3051
 10
52.072
 20
3.3171
 10
52.0249
 20
3.3295
 10
51.9784
 20
3.3422
 10
51.9322
 20
3.3554
 10
51.8865
 20
3.3689
 10
51.8412
 20
3.3827
 10
51.7964
 20
3.397
 10
51.752
 20
3.4117
 10
51.708
 20
3.4267
 10
51.6645
 20
3.4421
 10
51.6213
 20
3.4579
 10
51.5787
 20
3.4741
 10
51.5364
 20
3.4906
 10
51.4946
 20
3.5075
 10
51.4634
 20
3.5313
 10
51.4696
 20
3.5788
 10
51.4759
 20
3.6263
 10
51.4821
 20
3.6738
 10
51.4884
 20
3.7214
 10
51.4947
 20
3.7689
 10
51.5009
 20
3.8164
 10
51.5072
 20
3.8639
 10
51.5134
 20
3.9114
 10
51.5197
 20
3.959
 10
51.5259
 20
4.0065
 10
51.5322
 20
4.054
 10
51.5385
 20
4.1015
 10
51.5447
 20
4.149
 10
51.551
 20
4.1966
 10
51.5572
 20
4.2441
 10
51.5635
 20
4.2916
 10
51.5697
 20
4.3391
 10
51.576
 20
4.3867
 10
51.5823
 20
4.4342
 10
51.5885
 20
4.4817
 10
51.5948
 20
4.5292
 10
51.601
 20
4.5767
 10
51.6073
 20
4.6243
 10
51.6136
 20
4.6718
 10
51.6198
 20
4.7193
 10
51.6586
 20
4.7122
 10
51.7048
 20
4.6929
 10
51.7509
 20
4.6741
 10
51.797
 20
4.6556
 10
51.843
 20
4.6376
 10
51.8889
 20
4.6199
 10
51.9347
 20
4.6027
 10
51.9805
 20
4.5859
 10
52.0262
 20
4.5694
 10
52.0718
 20
4.5534
 10
52.1174
 20
4.5377
 10
52.1628
 20
4.5225
 10
52.2083
 20
4.5076
 10
52.2536
 20
4.4932
 10
52.2989
 20
4.4792
 10
52.344
 20
4.4655
 10
52.3892
 20
4.4523
 10
52.4342
 20
4.4395
 10
52.4792
 20
4.427
 10
52.5241
 20
4.415
 10
52.5689
 20
4.4034
 10
52.6137
 20
4.3921
 10
52.6584
 20
4.3813
 10
52.7042
 20
4.3706
 10
52.7543
 20
4.3594
 10
52.8042
 20
4.3487
 10
52.8538
 20
4.3386
 10
52.9031
 20
4.329
 10
52.9521
 20
4.32
 10
53.0009
 20
4.3115
 10
53.0494
 20
4.3036
 10
53.0976
 20
4.2963
 10
53.1456
 20
4.2895
 10
53.1932
 20
4.2833
 10
53.2406
 20
4.2776
 10
53.2878
 20
4.2725
 10
53.3346
 20
4.2679
 10
53.3812
 20
4.2639
 10
53.4276
 20
4.2604
 10
53.4736
 20
4.2575
 10
53.5194
 20
4.2552
 10
53.5649
 20
4.2534
 10
53.6101
 20
4.2521
 10
53.6551
 20
4.2515
 10
53.7042
 20
4.2514
 10
53.7639
 20
4.2522
 10
53.822
 20
4.2542
 10
53.8786
 20
4.2572
 10
53.9337
 20
4.2614
 10
53.9873
 20
4.2666
 10
54.0394
 20
4.273
 10
54.09
 20
4.2804
 10
54.139
 20
4.289
 10
54.1866
 20
4.2986
 10
54.2326
 20
4.3094
 10
54.2771
 20
4.3212
 10
54.3201
 20
4.3341
 10
54.3616
 20
4.3482
 10
54.4016
 20
4.3633
 10
54.44
 20
4.3796
 10
54.477
 20
4.3969
 10
54.5124
 20
4.4153
 10
54.5464
 20
4.4349
 10
54.5788
 20
4.4555
 10
54.6158
 20
4.4818
 10
54.6533
 20
4.512
 10
54.6881
 20
4.5439
 10
54.7202
 20
4.5775
 10
54.7495
 20
4.6129
 10
54.7762
 20
4.65
 10
54.8002
 20
4.6888
 10
54.8214
 20
4.7294
 10
54.84
 20
4.7717
 10
54.8558
 20
4.8157
 10
54.8689
 20
4.8615
 10
54.8793
 20
4.9091
 10
54.8871
 20
4.9583
 10
54.8921
 20
5.0093
 10
54.8944
 20
5.0621
 10
54.894
 20
5.1115
 10
54.8912
 20
5.1577
 10
54.8861
 20
5.2029
 10
54.8785
 20
5.2471
 10
54.8685
 20
5.2903
 10
54.8561
 20
5.3325
 10
54.8413
 20
5.3737
 10
54.8241
 20
5.4139
 10
54.8044
 20
5.4531
 10
54.7824
 20
5.4912
 10
54.758
 20
5.5284
 10
54.7311
 20
5.5646
 10
54.7018
 20
5.5997
 10
54.6702
 20
5.6339
 10
54.6361
 20
5.667
 10
54.5996
 20
5.6991
 10
54.5608
 20
5.7303
 10
54.5195
 20
5.7604
 10
54.4758
 20
5.7895
 10
54.4297
 20
5.8176
 10
54.3811
 20
5.8447
 10
54.3302
 20
5.8708
 10
54.2792
 20
5.895
 10
54.2359
 20
5.9156
 10
54.1926
 20
5.9362
 10
54.1493
 20
5.9567
 10
54.1061
 20
5.9773
 10
54.0628
 20
5.9979
 10
54.0195
 20
6.0184
 10
53.9762
 20
6.039
 10
53.9329
 20
6.0596
 10
53.8896
 20
6.0801
 10
53.8463
 20
6.1007
 10
53.803
 20
6.1213
 10
53.7597
 20
6.1418
 10
53.7164
 20
6.1624
 10
53.6731
 20
6.183
 10
53.6298
 20
6.2035
 10
53.5865
 20
6.2241
 10
53.5432
 20
6.2447
 10
53.4999
 20
6.2652
 10
53.4566
 20
6.2858
 10
53.4133
 20
6.3064
 10
53.37
 20
6.3269
 10
53.3267
 20
6.3475
 10
53.2834
 20
6.3681
 10
53.2402
 20
6.3886
 10
53.1969
 20
6.4092
 10
53.1487
 20
6.4321
 10
53.1005
 20
6.4557
 10
53.053
 20
6.4797
 10
53.0063
 20
6.5041
 10
52.9604
 20
6.5288
 10
52.9151
 20
6.5539
 10
52.8707
 20
6.5793
 10
52.827
 20
6.6051
 10
52.784
 20
6.6313
 10
52.7418
 20
6.6578
 10
52.7004
 20
6.6847
 10
52.6597
 20
6.712
 10
52.6198
 20
6.7396
 10
52.5806
 20
6.7676
 10
52.5421
 20
6.7959
 10
52.5045
 20
6.8246
 10
52.4675
 20
6.8537
 10
52.4314
 20
6.8832
 10
52.3959
 20
6.913
 10
52.3613
 20
6.9431
 10
52.3274
 20
6.9736
 10
52.2942
 20
7.0045
 10
52.2618
 20
7.0358
 10
52.2302
 20
7.0674
 10
52.1993
 20
7.0993
 10
52.1691
 20
7.1317
 10
52.1397
 20
7.1644
 10
52.1111
 20
7.1974
 10
52.0832
 20
7.2309
 10
52.0561
 20
7.2647
 10
52.0269
 20
7.3025
 10
51.9981
 20
7.3418
 10
51.9705
 20
7.3815
 10
51.944
 20
7.4217
 10
51.9187
 20
7.4623
 10
51.8945
 20
7.5033
 10
51.8715
 20
7.5448
 10
51.8496
 20
7.5867
 10
51.8288
 20
7.629
 10
51.8092
 20
7.6718
 10
51.7907
 20
7.715
 10
51.7734
 20
7.7587
 10
51.7572
 20
7.8028
 10
51.7422
 20
7.8474
 10
51.7283
 20
7.8924
 10
51.7155
 20
7.9378
 10
51.7039
 20
7.9837
 10
51.6935
 20
8.03
 10
51.6842
 20
8.0767
 10
51.676
 20
8.1239
 10
51.669
 20
8.1716
 10
51.6631
 20
8.2197
 10
51.6583
 20
8.2682
 10
51.6547
 20
8.3171
 10
51.6523
 20
8.3665
 10
51.651
 20
8.4164
 10
51.6508
 20
8.4684
 10
51.6517
 20
8.5231
 10
51.6537
 20
8.5771
 10
51.6567
 20
8.6304
 10
51.6607
 20
8.6829
 10
51.6659
 20
8.7346
 10
51.6721
 20
8.7856
 10
51.6793
 20
8.8359
 10
51.6876
 20
8.8854
 10
51.697
 20
8.9341
 10
51.7074
 20
8.9821
 10
51.7189
 20
9.0294
 10
51.7314
 20
9.0759
 10
51.745
 20
9.1216
 10
51.7597
 20
9.1666
 10
51.7754
 20
9.2109
 10
51.7922
 20
9.2544
 10
51.81
 20
9.2972
 10
51.8289
 20
9.3392
 10
51.8488
 20
9.3804
 10
51.8698
 20
9.4209
 10
51.8919
 20
9.4607
 10
51.915
 20
9.4997
 10
51.9392
 20
9.5379
 10
51.9644
 20
9.5754
 10
51.9907
 20
9.6122
 10
52.0181
 20
9.6482
 10
52.0465
 20
9.6835
 10
52.076
 20
9.718
 10
52.1065
 20
9.7517
 10
52.1381
 20
9.7847
 10
52.1707
 20
9.817
 10
52.2044
 20
9.8485
 10
52.2392
 20
9.8792
 10
52.2712
 20
9.9062
 10
52.304
 20
9.9324
 10
52.3375
 20
9.9579
 10
52.3717
 20
9.9826
 10
52.4066
 20
10.0066
 10
52.4422
 20
10.0298
 10
52.4785
 20
10.0524
 10
52.5155
 20
10.0741
 10
52.5533
 20
10.0952
 10
52.5917
 20
10.1155
 10
52.6309
 20
10.1351
 10
52.6708
 20
10.1539
 10
52.7113
 20
10.172
 10
52.7526
 20
10.1894
 10
52.7946
 20
10.2061
 10
52.8374
 20
10.222
 10
52.8808
 20
10.2371
 10
52.9249
 20
10.2516
 10
52.9697
 20
10.2653
 10
53.0153
 20
10.2782
 10
53.0616
 20
10.2905
 10
53.1085
 20
10.302
 10
53.1562
 20
10.3127
 10
53.2046
 20
10.3227
 10
53.2537
 20
10.332
 10
53.3035
 20
10.3406
 10
53.354
 20
10.3484
 10
53.4053
 20
10.3555
 10
53.4572
 20
10.3618
 10
53.5099
 20
10.3674
 10
53.5632
 20
10.3723
 10
53.6173
 20
10.3764
 10
53.6721
 20
10.3799
 10
53.7276
 20
10.3825
 10
53.7838
 20
10.3845
 10
53.8407
 20
10.3857
 10
53.8983
 20
10.3861
 10
53.9501
 20
10.3859
 10
54.0006
 20
10.385
 10
54.0508
 20
10.3835
 10
54.1008
 20
10.3814
 10
54.1504
 20
10.3787
 10
54.1997
 20
10.3753
 10
54.2487
 20
10.3713
 10
54.2974
 20
10.3667
 10
54.3458
 20
10.3614
 10
54.3939
 20
10.3555
 10
54.4417
 20
10.349
 10
54.4892
 20
10.3419
 10
54.5364
 20
10.3341
 10
54.5833
 20
10.3257
 10
54.6299
 20
10.3167
 10
54.6762
 20
10.307
 10
54.7222
 20
10.2967
 10
54.7678
 20
10.2858
 10
54.8132
 20
10.2743
 10
54.8583
 20
10.2621
 10
54.903
 20
10.2493
 10
54.9475
 20
10.2359
 10
54.9916
 20
10.2218
 10
55.0355
 20
10.2071
 10
55.079
 20
10.1918
 10
55.1223
 20
10.1759
 10
55.1655
 20
10.1592
 10
55.2091
 20
10.1416
 10
55.2524
 20
10.1233
 10
55.2954
 20
10.1044
 10
55.3381
 20
10.0848
 10
55.3805
 20
10.0645
 10
55.4226
 20
10.0435
 10
55.4645
 20
10.0219
 10
55.506
 20
9.9996
 10
55.5473
 20
9.9767
 10
55.5883
 20
9.9531
 10
55.629
 20
9.9288
 10
55.6694
 20
9.9038
 10
55.7095
 20
9.8782
 10
55.7493
 20
9.8518
 10
55.7889
 20
9.8249
 10
55.8281
 20
9.7972
 10
55.8671
 20
9.7689
 10
55.9058
 20
9.7399
 10
55.9442
 20
9.7102
 10
55.9823
 20
9.6799
 10
56.0201
 20
9.6489
 10
56.0576
 20
9.6172
 10
56.0949
 20
9.5849
 10
56.1318
 20
9.5518
 10
56.1685
 20
9.5182
 10
56.1787
 20
9.4834
 10
56.1465
 20
9.4479
 10
56.1143
 20
9.4124
 10
56.0821
 20
9.3769
 10
56.0499
 20
9.3414
 10
56.0178
 20
9.3059
 10
55.9856
 20
9.2704
 10
55.9534
 20
9.2349
 10
55.9212
 20
9.1994
 10
55.889
 20
9.1638
 10
55.8568
 20
9.1283
 10
55.8246
 20
9.0928
 10
55.7924
 20
9.0573
 10
55.7602
 20
9.0218
 10
55.728
 20
8.9863
 10
55.6958
 20
8.9508
 10
55.6636
 20
8.9153
 10
55.6314
 20
8.8798
 10
55.5992
 20
8.8443
 10
55.567
 20
8.8087
 10
55.5348
 20
8.7732
 10
55.5026
 20
8.7377
 10
55.4704
 20
8.7022
 10
55.4382
 20
8.6667
 10
55.4061
 20
8.6312
 10
55.3739
 20
8.5957
 10
55.334
 20
8.6256
 10
55.2936
 20
8.6601
 10
55.2533
 20
8.6937
 10
55.2131
 20
8.7263
 10
55.1731
 20
8.758
 10
55.1332
 20
8.7888
 10
55.0934
 20
8.8186
 10
55.0538
 20
8.8475
 10
55.0142
 20
8.8755
 10
54.9748
 20
8.9025
 10
54.9355
 20
8.9286
 10
54.8964
 20
8.9537
 10
54.8573
 20
8.9779
 10
54.8184
 20
9.0012
 10
54.7797
 20
9.0235
 10
54.741
 20
9.0449
 10
54.7025
 20
9.0654
 10
54.6641
 20
9.0849
 10
54.6252
 20
9.1038
 10
54.5788
 20
9.125
 10
54.5324
 20
9.1449
 10
54.4861
 20
9.1633
 10
54.4398
 20
9.1803
 10
54.3935
 20
9.1958
 10
54.3472
 20
9.21
 10
54.3009
 20
9.2227
 10
54.2547
 20
9.234
 10
54.2085
 20
9.2438
 10
54.1623
 20
9.2523
 10
54.1161
 20
9.2593
 10
54.0699
 20
9.2649
 10
54.0238
 20
9.2691
 10
53.9777
 20
9.2719
 10
53.9316
 20
9.2732
 10
53.8791
 20
9.2731
 10
53.8227
 20
9.2714
 10
53.7679
 20
9.2681
 10
53.7147
 20
9.2631
 10
53.6632
 20
9.2565
 10
53.6132
 20
9.2482
 10
53.5649
 20
9.2383
 10
53.5182
 20
9.2268
 10
53.4731
 20
9.2136
 10
53.4296
 20
9.1988
 10
53.3877
 20
9.1824
 10
53.3475
 20
9.1644
 10
53.3089
 20
9.1447
 10
53.2718
 20
9.1233
 10
53.2364
 20
9.1004
 10
53.2026
 20
9.0758
 10
53.1688
 20
9.048
 10
53.1353
 20
9.0169
 10
53.1043
 20
8.9839
 10
53.0758
 20
8.949
 10
53.0498
 20
8.9123
 10
53.0264
 20
8.8737
 10
53.0054
 20
8.8333
 10
52.9869
 20
8.7911
 10
52.9709
 20
8.747
 10
52.9574
 20
8.701
 10
52.9464
 20
8.6532
 10
52.9379
 20
8.6036
 10
52.9319
 20
8.5521
 10
52.9284
 20
8.4987
 10
52.9274
 20
8.4441
 10
52.9291
 20
8.3945
 10
52.9336
 20
8.3461
 10
52.9411
 20
8.2987
 10
52.9514
 20
8.2525
 10
52.9646
 20
8.2073
 10
52.9806
 20
8.1632
 10
52.9996
 20
8.1202
 10
53.0214
 20
8.0783
 10
53.046
 20
8.0375
 10
53.0736
 20
7.9978
 10
53.1039
 20
7.9592
 10
53.1313
 20
7.9278
 10
53.1604
 20
7.8969
 10
53.1912
 20
7.8664
 10
53.2238
 20
7.8364
 10
53.2582
 20
7.8069
 10
53.2943
 20
7.7779
 10
53.3321
 20
7.7494
 10
53.3718
 20
7.7213
 10
53.4132
 20
7.6937
 10
53.4563
 20
7.6666
 10
53.5012
 20
7.6399
 10
53.5479
 20
7.6137
 10
53.5963
 20
7.588
 10
53.6414
 20
7.5653
 10
53.6843
 20
7.544
 10
53.7272
 20
7.5226
 10
53.7702
 20
7.5013
 10
53.8131
 20
7.4799
 10
53.856
 20
7.4586
 10
53.8989
 20
7.4372
 10
53.9418
 20
7.4159
 10
53.9847
 20
7.3945
 10
54.0277
 20
7.3732
 10
54.0706
 20
7.3519
 10
54.1135
 20
7.3305
 10
54.1564
 20
7.3092
 10
54.1993
 20
7.2878
 10
54.2422
 20
7.2665
 10
54.2852
 20
7.2451
 10
54.3281
 20
7.2238
 10
54.371
 20
7.2024
 10
54.4139
 20
7.1811
 10
54.4568
 20
7.1597
 10
54.4997
 20
7.1384
 10
54.5426
 20
7.117
 10
54.5856
 20
7.0957
 10
54.6326
 20
7.0722
 10
54.6815
 20
7.0472
 10
54.7295
 20
7.022
 10
54.7769
 20
6.9965
 10
54.8234
 20
6.9708
 10
54.8693
 20
6.9448
 10
54.9143
 20
6.9186
 10
54.9586
 20
6.8921
 10
55.0021
 20
6.8654
 10
55.0449
 20
6.8384
 10
55.0869
 20
6.8112
 10
55.1282
 20
6.7837
 10
55.1687
 20
6.756
 10
55.2084
 20
6.728
 10
55.2474
 20
6.6998
 10
55.2856
 20
6.6713
 10
55.323
 20
6.6426
 10
55.3597
 20
6.6136
 10
55.3956
 20
6.5844
 10
55.4308
 20
6.5549
 10
55.4652
 20
6.5252
 10
55.4989
 20
6.4952
 10
55.5318
 20
6.465
 10
55.5639
 20
6.4346
 10
55.5953
 20
6.4038
 10
55.6259
 20
6.3729
 10
55.6558
 20
6.3417
 10
55.6848
 20
6.3102
 10
55.7132
 20
6.2785
 10
55.7408
 20
6.2465
 10
55.7678
 20
6.214
 10
55.7986
 20
6.1754
 10
55.8281
 20
6.1363
 10
55.8564
 20
6.0968
 10
55.8835
 20
6.0568
 10
55.9094
 20
6.0164
 10
55.9341
 20
5.9755
 10
55.9575
 20
5.9341
 10
55.9797
 20
5.8923
 10
56.0007
 20
5.8501
 10
56.0205
 20
5.8073
 10
56.0391
 20
5.7642
 10
56.0564
 20
5.7205
 10
56.0725
 20
5.6764
 10
56.0874
 20
5.6319
 10
56.1011
 20
5.5869
 10
56.1136
 20
5.5414
 10
56.1248
 20
5.4955
 10
56.1348
 20
5.4491
 10
56.1436
 20
5.4023
 10
56.1512
 20
5.355
 10
56.1576
 20
5.3073
 10
56.1627
 20
5.2591
 10
56.1666
 20
5.2104
 10
56.1693
 20
5.1613
 10
56.1708
 20
5.1117
 10
56.1711
 20
5.0603
 10
56.1702
 20
5.0058
 10
56.1683
 20
4.9519
 10
56.1652
 20
4.8989
 10
56.161
 20
4.8466
 10
56.1557
 20
4.7951
 10
56.1493
 20
4.7444
 10
56.1419
 20
4.6944
 10
56.1333
 20
4.6451
 10
56.1236
 20
4.5967
 10
56.1128
 20
4.549
 10
56.1008
 20
4.5021
 10
56.0878
 20
4.4559
 10
56.0737
 20
4.4105
 10
56.0585
 20
4.3658
 10
56.0422
 20
4.322
 10
56.0247
 20
4.2789
 10
56.0062
 20
4.2365
 10
55.9866
 20
4.1949
 10
55.9658
 20
4.1541
 10
55.944
 20
4.1141
 10
55.921
 20
4.0748
 10
55.897
 20
4.0362
 10
55.8718
 20
3.9985
 10
55.8455
 20
3.9615
 10
55.8182
 20
3.9252
 10
55.7897
 20
3.8898
 10
55.7601
 20
3.8551
 10
55.7294
 20
3.8211
 10
55.6976
 20
3.788
 10
55.6647
 20
3.7555
 10
55.6307
 20
3.7239
 10
55.5956
 20
3.693
 10
55.5594
 20
3.6629
 10
55.5221
 20
3.6335
 10
55.4899
 20
3.6095
 10
55.4578
 20
3.5865
 10
55.4249
 20
3.5642
 10
55.3914
 20
3.5424
 10
55.3572
 20
3.5212
 10
55.3223
 20
3.5005
 10
55.2867
 20
3.4804
 10
55.2505
 20
3.4609
 10
55.2135
 20
3.4419
 10
55.1758
 20
3.4235
 10
55.1375
 20
3.4057
 10
55.0985
 20
3.3884
 10
55.0588
 20
3.3717
 10
55.0184
 20
3.3556
 10
54.9773
 20
3.34
 10
54.9355
 20
3.325
 10
54.893
 20
3.3106
 10
54.8499
 20
3.2967
 10
54.806
 20
3.2834
 10
54.7615
 20
3.2706
 10
54.7163
 20
3.2585
 10
54.6704
 20
3.2469
 10
54.6238
 20
3.2358
 10
54.5765
 20
3.2254
 10
54.5286
 20
3.2155
 10
54.4799
 20
3.2061
 10
54.4306
 20
3.1973
 10
54.3805
 20
3.1891
 10
54.3298
 20
3.1815
 10
54.2784
 20
3.1744
 10
54.2263
 20
3.1679
 10
54.1735
 20
3.162
 10
54.1201
 20
3.1566
 10
54.0659
 20
3.1518
 10
54.0111
 20
3.1475
 10
53.9555
 20
3.1438
 10
53.8993
 20
3.1407
 10
53.8424
 20
3.1382
 10
53.7848
 20
3.1362
  0
ENDSEC
  0
SECTION
  2
OBJECTS
  0
DICTIONARY
  5
A
330
0
100
AcDbDictionary
281
1
  3
ACAD_COLOR
350
B
  3
ACAD_GROUP
350
C
  3
ACAD_LAYOUT
350
D
  3
ACAD_MATERIAL
350
E
  3
ACAD_MLEADERSTYLE
350
F
  3
ACAD_MLINESTYLE
350
10
  3
ACAD_PLOTSETTINGS
350
11
  3
ACAD_PLOTSTYLENAME
350
12
  3
ACAD_SCALELIST
350
14
  3
ACAD_TABLESTYLE
350
15
  3
ACAD_VISUALSTYLE
350
16
  3
EZDXF_META
350
2D
  0
DICTIONARY
  5
B
330
A
100
AcDbDictionary
281
1
  0
DICTIONARY
  5
C
330
A
100
AcDbDictionary
281
1
  0
DICTIONARY
  5
D
330
A
100
AcDbDictionary
281
1
  3
Model
350
1A
  3
Layout1
350
1E
  0
DICTIONARY
  5
E
330
A
100
AcDbDictionary
281
1
  3
ByBlock
350
1F
  3
ByLayer
350
20
  3
Global
350
21
  0
DICTIONARY
  5
F
330
A
100
AcDbDictionary
281
1
  3
Standard
350
2C
  0
DICTIONARY
  5
10
330
A
100
AcDbDictionary
281
1
  3
Standard
350
22
  0
DICTIONARY
  5
11
330
A
100
AcDbDictionary
281
1
  0
ACDBDICTIONARYWDFLT
  5
12
330
A
100
AcDbDictionary
281
1
  3
Normal
350
13
100
AcDbDictionaryWithDefault
340
13
  0
ACDBPLACEHOLDER
  5
13
330
12
  0
DICTIONARY
  5
14
330
A
100
AcDbDictionary
281
1
  0
DICTIONARY
  5
15
330
A
100
AcDbDictionary
281
1
  0
DICTIONARY
  5
16
330
A
100
AcDbDictionary
281
1
  0
LAYOUT
  5
1A
330
D
100
AcDbPlotSettings
  1

  4
A3
  6

 40
7.5
 41
20.0
 42
7.5
 43
20.0
 44
420.0
 45
297.0
 46
0.0
 47
0.0
 48
0.0
 49
0.0
140
0.0
141
0.0
142
1.0
143
1.0
 70
1024
 72
1
 73
0
 74
5
  7

 75
16
 76
0
 77
2
 78
300
147
1.0
148
0.0
149
0.0
100
AcDbLayout
  1
Model
 70
1
 71
0
 10
0.0
 20
0.0
 11
420.0
 21
297.0
 12
0.0
 22
0.0
 32
0.0
 14
1e+20
 24
1e+20
 34
1e+20
 15
-1e+20
 25
-1e+20
 35
-1e+20
146
0.0
 13
0.0
 23
0.0
 33
0.0
 16
1.0
 26
0.0
 36
0.0
 17
0.0
 27
1.0
 37
0.0
 76
1
330
17
  0
LAYOUT
  5
1E
330
D
100
AcDbPlotSettings
  1

  4
A3
  6

 40
7.5
 41
20.0
 42
7.5
 43
20.0
 44
420.0
 45
297.0
 46
0.0
 47
0.0
 48
0.0
 49
0.0
140
0.0
141
0.0
142
1.0
143
1.0
 70
0
 72
1
 73
0
 74
5
  7

 75
16
 76
0
 77
2
 78
300
147
1.0
148
0.0
149
0.0
100
AcDbLayout
  1
Layout1
 70
1
 71
1
 10
0.0
 20
0.0
 11
420.0
 21
297.0
 12
0.0
 22
0.0
 32
0.0
 14
1e+20
 24
1e+20
 34
1e+20
 15
-1e+20
 25
-1e+20
 35
-1e+20
146
0.0
 13
0.0
 23
0.0
 33
0.0
 16
1.0
 26
0.0
 36
0.0
 17
0.0
 27
1.0
 37
0.0
 76
1
330
1B
  0
MATERIAL
  5
1F
102
{ACAD_REACTORS
330
E
102
}
330
E
100
AcDbMaterial
  1
ByBlock
  2

 70
0
 40
1.0
 71
1
 41
1.0
 91
-1023410177
 42
1.0
 72
1
  3

 73
1
 74
1
 75
1
 44
0.5
 73
0
 45
1.0
 46
1.0
 77
1
  4

 78
1
 79
1
170
1
 48
1.0
171
1
  6

172
1
173
1
174
1
140
1.0
141
1.0
175
1
  7

176
1
177
1
178
1
143
1.0
179
1
  8

270
1
271
1
272
1
145
1.0
146
1.0
273
1
  9

274
1
275
1
276
1
 42
1.0
 72
1
  3

 73
1
 74
1
 75
1
 94
63
  0
MATERIAL
  5
20
102
{ACAD_REACTORS
330
E
102
}
330
E
100
AcDbMaterial
  1
ByLayer
  2

 70
0
 40
1.0
 71
1
 41
1.0
 91
-1023410177
 42
1.0
 72
1
  3

 73
1
 74
1
 75
1
 44
0.5
 73
0
 45
1.0
 46
1.0
 77
1
  4

 78
1
 79
1
170
1
 48
1.0
171
1
  6

172
1
173
1
174
1
140
1.0
141
1.0
175
1
  7

176
1
177
1
178
1
143
1.0
179
1
  8

270
1
271
1
272
1
145
1.0
146
1.0
273
1
  9

274
1
275
1
276
1
 42
1.0
 72
1
  3

 73
1
 74
1
 75
1
 94
63
  0
MATERIAL
  5
21
102
{ACAD_REACTORS
330
E
102
}
330
E
100
AcDbMaterial
  1
Global
  2

 70
0
 40
1.0
 71
1
 41
1.0
 91
-1023410177
 42
1.0
 72
1
  3

 73
1
 74
1
 75
1
 44
0.5
 73
0
 45
1.0
 46
1.0
 77
1
  4

 78
1
 79
1
170
1
 48
1.0
171
1
  6

172
1
173
1
174
1
140
1.0
141
1.0
175
1
  7

176
1
177
1
178
1
143
1.0
179
1
  8

270
1
271
1
272
1
145
1.0
146
1.0
273
1
  9

274
1
275
1
276
1
 42
1.0
 72
1
  3

 73
1
 74
1
 75
1
 94
63
  0
MLINESTYLE
  5
22
102
{ACAD_REACTORS
330
10
102
}
330
10
100
AcDbMlineStyle
  2
Standard
 70
0
  3

 62
256
 51
90.0
 52
90.0
 71
2
 49
0.5
 62
256
  6
BYLAYER
 49
-0.5
 62
256
  6
BYLAYER
  0
MLEADERSTYLE
  5
2C
102
{ACAD_REACTORS
330
F
102
}
330
F
100
AcDbMLeaderStyle
179
2
170
2
171
1
172
0
 90
2
 40
0.0
 41
0.0
173
1
 91
-1056964608
 92
-2
290
1
 42
2.0
291
1
 43
8.0
  3
Standard
 44
4.0
300

342
29
174
1
175
1
176
0
178
1
 93
-1056964608
 45
4.0
292
0
297
0
 46
4.0
 94
-1056964608
 47
1.0
 49
1.0
140
1.0
294
1
141
0.0
177
0
142
1.0
295
0
296
0
143
3.75
271
0
272
9
273
9
  0
DICTIONARY
  5
2D
330
A
100
AcDbDictionary
280
1
281
1
  3
CREATED_BY_EZDXF
350
2E
  3
WRITTEN_BY_EZDXF
350
5E
  0
DICTIONARYVAR
  5
2E
330
2D
100
DictionaryVariables
280
0
  1
0.0 @ 2000-01-01T00:00:00.000000+00:00
  0
DICTIONARYVAR
  5
5E
330
2D
100
DictionaryVariables
280
0
  1
0.0 @ 2000-01-01T00:00:00.000000+00:00
  0
ENDSEC
  0
EOF
