  0
SECTION
  2
HEADER
  9
$ACADVER
  1
AC1024
  9
$ACADMAINTVER
 70
6
  9
$DWGCODEPAGE
  3
ANSI_1252
  9
$LASTSAVEDBY
  1
ezdxf
  9
$INSBASE
 10
0.0
 20
0.0
 30
0.0
  9
$EXTMIN
 10
1e+20
 20
1e+20
 30
1e+20
  9
$EXTMAX
 10
-1e+20
 20
-1e+20
 30
-1e+20
  9
$LIMMIN
 10
0.0
 20
0.0
  9
$LIMMAX
 10
420.0
 20
297.0
  9
$ORTHOMODE
 70
0
  9
$REGENMODE
 70
1
  9
$FILLMODE
 70
1
  9
$QTEXTMODE
 70
0
  9
$MIRRTEXT
 70
1
  9
$LTSCALE
 40
1.0
  9
$ATTMODE
 70
1
  9
$TEXTSIZE
 40
2.5
  9
$TRACEWID
 40
1.0
  9
$TEXTSTYLE
  7
Standard
  9
$CLAYER
  8
0
  9
$CELTYPE
  6
ByLayer
  9
$CECOLOR
 62
256
  9
$CELTSCALE
 40
1.0
  9
$DISPSILH
 70
0
  9
$DIMSCALE
 40
1.0
  9
$DIMASZ
 40
2.5
  9
$DIMEXO
 40
0.625
  9
$DIMDLI
 40
3.75
  9
$DIMRND
 40
0.0
  9
$DIMDLE
 40
0.0
  9
$DIMEXE
 40
1.25
  9
$DIMTP
 40
0.0
  9
$DIMTM
 40
0.0
  9
$DIMTXT
 40
2.5
  9
$DIMCEN
 40
2.5
  9
$DIMTSZ
 40
0.0
  9
$DIMTOL
 70
0
  9
$DIMLIM
 70
0
  9
$DIMTIH
 70
0
  9
$DIMTOH
 70
0
  9
$DIMSE1
 70
0
  9
$DIMSE2
 70
0
  9
$DIMTAD
 70
1
  9
$DIMZIN
 70
8
  9
$DIMBLK
  1

  9
$DIMASO
 70
1
  9
$DIMSHO
 70
1
  9
$DIMPOST
  1

  9
$DIMAPOST
  1

  9
$DIMALT
 70
0
  9
$DIMALTD
 70
3
  9
$DIMALTF
 40
0.03937007874
  9
$DIMLFAC
 40
1.0
  9
$DIMTOFL
 70
1
  9
$DIMTVP
 40
0.0
  9
$DIMTIX
 70
0
  9
$DIMSOXD
 70
0
  9
$DIMSAH
 70
0
  9
$DIMBLK1
  1

  9
$DIMBLK2
  1

  9
$DIMSTYLE
  2
ISO-25
  9
$DIMCLRD
 70
0
  9
$DIMCLRE
 70
0
  9
$DIMCLRT
 70
0
  9
$DIMTFAC
 40
1.0
  9
$DIMGAP
 40
0.625
  9
$DIMJUST
 70
0
  9
$DIMSD1
 70
0
  9
$DIMSD2
 70
0
  9
$DIMTOLJ
 70
0
  9
$DIMTZIN
 70
8
  9
$DIMALTZ
 70
0
  9
$DIMALTTZ
 70
0
  9
$DIMUPT
 70
0
  9
$DIMDEC
 70
2
  9
$DIMTDEC
 70
2
  9
$DIMALTU
 70
2
  9
$DIMALTTD
 70
3
  9
$DIMTXSTY
  7
Standard
  9
$DIMAUNIT
 70
0
  9
$DIMADEC
 70
0
  9
$DIMALTRND
 40
0.0
  9
$DIMAZIN
 70
0
  9
$DIMDSEP
 70
44
  9
$DIMATFIT
 70
3
  9
$DIMFRAC
 70
0
  9
$DIMLDRBLK
  1

  9
$DIMLUNIT
 70
2
  9
$DIMLWD
 70
-2
  9
$DIMLWE
 70
-2
  9
$DIMTMOVE
 70
0
  9
$DIMFXL
 40
1.0
  9
$DIMFXLON
 70
0
  9
$DIMJOGANG
 40
0.785398163397
  9
$DIMTFILL
 70
0
  9
$DIMTFILLCLR
 70
0
  9
$DIMARCSYM
 70
0
  9
$DIMLTYPE
  6

  9
$DIMLTEX1
  6

  9
$DIMLTEX2
  6

  9
$DIMTXTDIRECTION
 70
0
  9
$LUNITS
 70
2
  9
$LUPREC
 70
4
  9
$SKETCHINC
 40
1.0
  9
$FILLETRAD
 40
10.0
  9
$AUNITS
 70
0
  9
$AUPREC
 70
2
  9
$MENU
  1
.
  9
$ELEVATION
 40
0.0
  9
$PELEVATION
 40
0.0
  9
$THICKNESS
 40
0.0
  9
$LIMCHECK
 70
0
  9
$CHAMFERA
 40
0.0
  9
$CHAMFERB
 40
0.0
  9
$CHAMFERC
 40
0.0
  9
$CHAMFERD
 40
0.0
  9
$SKPOLY
 70
0
  9
$TDCREATE
 40
2451545.0
  9
$TDUCREATE
 40
2451545.0
  9
$TDUPDATE
 40
2451545.0
  9
$TDUUPDATE
 40
2451545.0
  9
$TDINDWG
 40
0.0
  9
$TDUSRTIMER
 40
0.0
  9
$USRTIMER
 70
1
  9
$ANGBASE
 50
0.0
  9
$ANGDIR
 70
0
  9
$PDMODE
 70
0
  9
$PDSIZE
 40
0.0
  9
$PLINEWID
 40
0.0
  9
$SPLFRAME
 70
0
  9
$SPLINETYPE
 70
6
  9
$SPLINESEGS
 70
8
  9
$HANDSEED
  5
5F
  9
$SURFTAB1
 70
6
  9
$SURFTAB2
 70
6
  9
$SURFTYPE
 70
6
  9
$SURFU
 70
6
  9
$SURFV
 70
6
  9
$UCSBASE
  2

  9
$UCSNAME
  2

  9
$UCSORG
 10
0.0
 20
0.0
 30
0.0
  9
$UCSXDIR
 10
1.0
 20
0.0
 30
0.0
  9
$UCSYDIR
 10
0.0
 20
1.0
 30
0.0
  9
$UCSORTHOREF
  2

  9
$UCSORTHOVIEW
 70
0
  9
$UCSORGTOP
 10
0.0
 20
0.0
 30
0.0
  9
$UCSORGBOTTOM
 10
0.0
 20
0.0
 30
0.0
  9
$UCSORGLEFT
 10
0.0
 20
0.0
 30
0.0
  9
$UCSORGRIGHT
 10
0.0
 20
0.0
 30
0.0
  9
$UCSORGFRONT
 10
0.0
 20
0.0
 30
0.0
  9
$UCSORGBACK
 10
0.0
 20
0.0
 30
0.0
  9
$PUCSBASE
  2

  9
$PUCSNAME
  2

  9
$PUCSORG
 10
0.0
 20
0.0
 30
0.0
  9
$PUCSXDIR
 10
1.0
 20
0.0
 30
0.0
  9
$PUCSYDIR
 10
0.0
 20
1.0
 30
0.0
  9
$PUCSORTHOREF
  2

  9
$PUCSORTHOVIEW
 70
0
  9
$PUCSORGTOP
 10
0.0
 20
0.0
 30
0.0
  9
$PUCSORGBOTTOM
 10
0.0
 20
0.0
 30
0.0
  9
$PUCSORGLEFT
 10
0.0
 20
0.0
 30
0.0
  9
$PUCSORGRIGHT
 10
0.0
 20
0.0
 30
0.0
  9
$PUCSORGFRONT
 10
0.0
 20
0.0
 30
0.0
  9
$PUCSORGBACK
 10
0.0
 20
0.0
 30
0.0
  9
$USERI1
 70
0
  9
$USERI2
 70
0
  9
$USERI3
 70
0
  9
$USERI4
 70
0
  9
$USERI5
 70
0
  9
$USERR1
 40
0.0
  9
$USERR2
 40
0.0
  9
$USERR3
 40
0.0
  9
$USERR4
 40
0.0
  9
$USERR5
 40
0.0
  9
$WORLDVIEW
 70
1
  9
$SHADEDGE
 70
3
  9
$SHADEDIF
 70
70
  9
$TILEMODE
 70
1
  9
$MAXACTVP
 70
64
  9
$PINSBASE
 10
0.0
 20
0.0
 30
0.0
  9
$PLIMCHECK
 70
0
  9
$PEXTMIN
 10
1e+20
 20
1e+20
 30
1e+20
  9
$PEXTMAX
 10
-1e+20
 20
-1e+20
 30
-1e+20
  9
$PLIMMIN
 10
0.0
 20
0.0
  9
$PLIMMAX
 10
420.0
 20
297.0
  9
$UNITMODE
 70
0
  9
$VISRETAIN
 70
1
  9
$PLINEGEN
 70
0
  9
$PSLTSCALE
 70
1
  9
$TREEDEPTH
 70
3020
  9
$CMLSTYLE
  2
Standard
  9
$CMLJUST
 70
0
  9
$CMLSCALE
 40
20.0
  9
$PROXYGRAPHICS
 70
1
  9
$MEASUREMENT
 70
1
  9
$CELWEIGHT
370
-1
  9
$ENDCAPS
280
0
  9
$JOINSTYLE
280
0
  9
$LWDISPLAY
290
0
  9
$INSUNITS
 70
4
  9
$HYPERLINKBASE
  1

  9
$STYLESHEET
  1

  9
$XEDIT
290
1
  9
$CEPSNTYPE
380
0
  9
$PSTYLEMODE
290
1
  9
$FINGERPRINTGUID
  2
{00000000-0000-0000-0000-000000000000}
  9
$VERSIONGUID
  2
{00000000-0000-0000-0000-000000000000}
  9
$EXTNAMES
290
1
  9
$PSVPSCALE
 40
0.0
  9
$OLESTARTUP
290
0
  9
$SORTENTS
280
127
  9
$INDEXCTL
280
0
  9
$HIDETEXT
280
1
  9
$XCLIPFRAME
280
1
  9
$HALOGAP
280
0
  9
$OBSCOLOR
 70
257
  9
$OBSLTYPE
280
0
  9
$INTERSECTIONDISPLAY
280
0
  9
$INTERSECTIONCOLOR
 70
257
  9
$DIMASSOC
280
2
  9
$PROJECTNAME
  1

  9
$CAMERADISPLAY
290
0
  9
$LENSLENGTH
 40
50.0
  9
$CAMERAHEIGHT
 40
0.0
  9
$STEPSPERSEC
 40
24.0
  9
$STEPSIZE
 40
100.0
  9
$3DDWFPREC
 40
2.0
  9
$PSOLWIDTH
 40
0.005
  9
$PSOLHEIGHT
 40
0.08
  9
$LOFTANG1
 40
1.570796326795
  9
$LOFTANG2
 40
1.570796326795
  9
$LOFTMAG1
 40
0.0
  9
$LOFTMAG2
 40
0.0
  9
$LOFTPARAM
 70
7
  9
$LOFTNORMALS
280
1
  9
$LATITUDE
 40
37.795
  9
$LONGITUDE
 40
-122.394
  9
$NORTHDIRECTION
 40
0.0
  9
$TIMEZONE
 70
-8000
  9
$LIGHTGLYPHDISPLAY
280
1
  9
$TILEMODELIGHTSYNCH
280
1
  9
$CMATERIAL
347
20
  9
$SOLIDHIST
280
0
  9
$SHOWHIST
280
1
  9
$DWFFRAME
280
2
  9
$DGNFRAME
280
2
  9
$REALWORLDSCALE
290
1
  9
$INTERFERECOLOR
 62
256
  9
$CSHADOW
280
0
  9
$SHADOWPLANELOCATION
 40
0.0
  0
ENDSEC
  0
SECTION
  2
CLASSES
  0
CLASS
  1
ACDBDICTIONARYWDFLT
  2
AcDbDictionaryWithDefault
  3
ObjectDBX Classes
 90
0
 91
0
280
0
281
0
  0
CLASS
  1
SUN
  2
AcDbSun
  3
SCENEOE
 90
1153
 91
0
280
0
281
0
  0
CLASS
  1
VISUALSTYLE
  2
AcDbVisualStyle
  3
ObjectDBX Classes
 90
4095
 91
0
280
0
281
0
  0
CLASS
  1
MATERIAL
  2
AcDbMaterial
  3
ObjectDBX Classes
 90
1153
 91
0
280
0
281
0
  0
CLASS
  1
SCALE
  2
AcDbScale
  3
ObjectDBX Classes
 90
1153
 91
0
280
0
281
0
  0
CLASS
  1
TABLESTYLE
  2
AcDbTableStyle
  3
ObjectDBX Classes
 90
4095
 91
0
280
0
281
0
  0
CLASS
  1
MLEADERSTYLE
  2
AcDbMLeaderStyle
  3
ACDB_MLEADERSTYLE_CLASS
 90
4095
 91
0
280
0
281
0
  0
CLASS
  1
DICTIONARYVAR
  2
AcDbDictionaryVar
  3
ObjectDBX Classes
 90
0
 91
0
280
0
281
0
  0
CLASS
  1
CELLSTYLEMAP
  2
AcDbCellStyleMap
  3
ObjectDBX Classes
 90
1152
 91
0
280
0
281
0
  0
CLASS
  1
MENTALRAYRENDERSETTINGS
  2
AcDbMentalRayRenderSettings
  3
SCENEOE
 90
1024
 91
0
280
0
281
0
  0
CLASS
  1
ACDBDETAILVIEWSTYLE
  2
AcDbDetailViewStyle
  3
ObjectDBX Classes
 90
1025
 91
0
280
0
281
0
  0
CLASS
  1
ACDBSECTIONVIEWSTYLE
  2
AcDbSectionViewStyle
  3
ObjectDBX Classes
 90
1025
 91
0
280
0
281
0
  0
CLASS
  1
RASTERVARIABLES
  2
AcDbRasterVariables
  3
ISM
 90
0
 91
0
280
0
281
0
  0
CLASS
  1
ACDBPLACEHOLDER
  2
AcDbPlaceHolder
  3
ObjectDBX Classes
 90
0
 91
0
280
0
281
0
  0
CLASS
  1
LAYOUT
  2
AcDbLayout
  3
ObjectDBX Classes
 90
0
 91
0
280
0
281
0
  0
ENDSEC
  0
SECTION
  2
TABLES
  0
TABLE
  2
VPORT
  5
8
330
0
100
AcDbSymbolTable
 70
1
  0
VPORT
  5
23
330
8
100
AcDbSymbolTableRecord
100
AcDbViewportTableRecord
  2
*Active
 70
0
 10
0.0
 20
0.0
 11
1.0
 21
1.0
 12
0.0
 22
0.0
 13
0.0
 23
0.0
 14
0.5
 24
0.5
 15
0.5
 25
0.5
 16
0.0
 26
0.0
 36
1.0
 17
0.0
 27
0.0
 37
0.0
 40
1000.0
 41
1.34
 42
50.0
 43
0.0
 44
0.0
 50
0.0
 51
0.0
 71
0
 72
1000
 73
1
 74
3
 75
0
 76
0
 77
0
 78
0
281
0
 65
0
146
0.0
  0
ENDTAB
  0
TABLE
  2
LTYPE
  5
2
330
0
100
AcDbSymbolTable
 70
3
  0
LTYPE
  5
24
330
2
100
AcDbSymbolTableRecord
100
AcDbLinetypeTableRecord
  2
ByBlock
 70
0
  3

 72
65
 73
0
 40
0.0
  0
LTYPE
  5
25
330
2
100
AcDbSymbolTableRecord
100
AcDbLinetypeTableRecord
  2
ByLayer
 70
0
  3

 72
65
 73
0
 40
0.0
  0
LTYPE
  5
26
330
2
100
AcDbSymbolTableRecord
100
AcDbLinetypeTableRecord
  2
Continuous
 70
0
  3

 72
65
 73
0
 40
0.0
  0
ENDTAB
  0
TABLE
  2
LAYER
  5
1
330
0
100
AcDbSymbolTable
 70
3
  0
LAYER
  5
27
330
1
100
AcDbSymbolTableRecord
100
AcDbLayerTableRecord
  2
0
 70
0
 62
7
  6
Continuous
370
-3
390
13
347
21
  0
LAYER
  5
28
330
1
100
AcDbSymbolTableRecord
100
AcDbLayerTableRecord
  2
Defpoints
 70
0
 62
7
  6
Continuous
290
0
370
-3
390
13
347
21
  0
LAYER
  5
2F
330
1
100
AcDbSymbolTableRecord
100
AcDbLayerTableRecord
  2
OUTLINE
 70
0
 62
7
  6
Continuous
370
-3
390
13
347
21
  0
ENDTAB
  0
TABLE
  2
STYLE
  5
5
330
0
100
AcDbSymbolTable
 70
1
  0
STYLE
  5
29
330
5
100
AcDbSymbolTableRecord
100
AcDbTextStyleTableRecord
  2
Standard
 70
0
 40
0.0
 41
1.0
 50
0.0
 71
0
 42
2.5
  3
txt
  4

  0
ENDTAB
  0
TABLE
  2
VIEW
  5
7
330
0
100
AcDbSymbolTable
 70
0
  0
ENDTAB
  0
TABLE
  2
UCS
  5
6
330
0
100
AcDbSymbolTable
 70
0
  0
ENDTAB
  0
TABLE
  2
APPID
  5
3
330
0
100
AcDbSymbolTable
 70
3
  0
APPID
  5
2A
330
3
100
AcDbSymbolTableRecord
100
AcDbRegAppTableRecord
  2
ACAD
 70
0
  0
APPID
  5
5C
330
3
100
AcDbSymbolTableRecord
100
AcDbRegAppTableRecord
  2
HATCHBACKGROUNDCOLOR
 70
0
  0
APPID
  5
5D
330
3
100
AcDbSymbolTableRecord
100
AcDbRegAppTableRecord
  2
EZDXF
 70
0
  0
ENDTAB
  0
TABLE
  2
DIMSTYLE
  5
4
330
0
100
AcDbSymbolTable
 70
1
100
AcDbDimStyleTable
  0
DIMSTYLE
105
2B
330
4
100
AcDbSymbolTableRecord
100
AcDbDimStyleTableRecord
  2
Standard
 70
0
 40
1.0
 41
2.5
 42
0.625
 43
3.75
 44
1.25
 45
0.0
 46
0.0
 47
0.0
 48
0.0
 49
2.5
140
2.5
141
2.5
142
0.0
143
0.03937007874
144
1.0
145
0.0
146
1.0
147
0.625
148
0.0
 69
0
 70
0
 71
0
 72
0
 73
0
 74
0
 75
0
 76
0
 77
1
 78
8
 79
3
170
0
171
3
172
1
173
0
174
0
175
0
176
0
177
0
178
0
179
2
271
2
272
2
273
2
274
3
275
0
276
0
277
2
278
44
279
0
280
0
281
0
282
0
283
0
284
8
285
0
286
0
288
0
289
3
290
0
371
-2
372
-2
  0
ENDTAB
  0
TABLE
  2
BLOCK_RECORD
  5
9
330
0
100
AcDbSymbolTable
 70
2
  0
BLOCK_RECORD
  5
17
330
9
100
AcDbSymbolTableRecord
100
AcDbBlockTableRecord
  2
*Model_Space
340
1A
 70
0
280
1
281
0
  0
BLOCK_RECORD
  5
1B
330
9
100
AcDbSymbolTableRecord
100
AcDbBlockTableRecord
  2
*Paper_Space
340
1E
 70
0
280
1
281
0
  0
ENDTAB
  0
ENDSEC
  0
SECTION
  2
BLOCKS
  0
BLOCK
  5
18
330
17
100
AcDbEntity
  8
0
100
AcDbBlockBegin
  2
*Model_Space
 70
0
 10
0.0
 20
0.0
 30
0.0
  3
*Model_Space
  1

  0
ENDBLK
  5
19
330
17
100
AcDbEntity
  8
0
100
AcDbBlockEnd
  0
BLOCK
  5
1C
330
1B
100
AcDbEntity
  8
0
100
AcDbBlockBegin
  2
*Paper_Space
 70
0
 10
0.0
 20
0.0
 30
0.0
  3
*Paper_Space
  1

  0
ENDBLK
  5
1D
330
1B
100
AcDbEntity
  8
0
100
AcDbBlockEnd
  0
ENDSEC
  0
SECTION
  2
ENTITIES
  0
SPLINE
  5
30
330
17
100
AcDbEntity
  8
OUTLINE
100
AcDbSpline
 70
0
 71
3
 72
8
 73
4
 74
0
 40
0.0
 40
0.0
 40
0.0
 40
0.0
 40
1.0
 40
1.0
 40
1.0
 40
1.0
 10
20.283234497089776
 20
20.25452824621696
 30
0.0
 10
20.295476796180715
 20
20.24228594712602
 30
0.0
 10
20.304581310825064
 20
20.17978356252378
 30
0.0
 10
20.30708631217258
 20
20.13116584403147
 30
0.0
  0
SPLINE
  5
31
330
17
100
AcDbEntity
  8
OUTLINE
100
AcDbSpline
 70
0
 71
3
 72
8
 73
4
 74
0
 40
0.0
 40
0.0
 40
0.0
 40
0.0
 40
1.0
 40
1.0
 40
1.0
 40
1.0
 10
20.30708631217258
 20
20.13116584403147
 30
0.0
 10
20.31568099634058
 20
19.96435797551519
 30
0.0
 10
20.279753000195157
 20
19.73415192621355
 30
0.0
 10
20.2423486946152
 20
19.549084645421445
 30
0.0
  0
SPLINE
  5
32
330
17
100
AcDbEntity
  8
OUTLINE
100
AcDbSpline
 70
0
 71
3
 72
8
 73
4
 74
0
 40
0.0
 40
0.0
 40
0.0
 40
0.0
 40
1.0
 40
1.0
 40
1.0
 40
1.0
 10
20.2423486946152
 20
19.549084645421445
 30
0.0
 10
20.134939762610472
 20
19.01765173493985
 30
0.0
 10
19.93996132413146
 20
18.427807671756963
 30
0.0
 10
19.71714443265038
 20
17.83530069757598
 30
0.0
  0
SPLINE
  5
33
330
17
100
AcDbEntity
  8
OUTLINE
100
AcDbSpline
 70
0
 71
3
 72
8
 73
4
 74
0
 40
0.0
 40
0.0
 40
0.0
 40
0.0
 40
1.0
 40
1.0
 40
1.0
 40
1.0
 10
19.71714443265038
 20
17.83530069757598
 30
0.0
 10
19.26112585522136
 20
16.62267186281041
 30
0.0
 10
18.645502187175026
 20
15.305971234422728
 30
0.0
 10
17.914516255282905
 20
13.916070116539423
 30
0.0
  0
SPLINE
  5
34
330
17
100
AcDbEntity
  8
OUTLINE
100
AcDbSpline
 70
0
 71
3
 72
8
 73
4
 74
0
 40
0.0
 40
0.0
 40
0.0
 40
0.0
 40
1.0
 40
1.0
 40
1.0
 40
1.0
 10
17.914516255282905
 20
13.916070116539423
 30
0.0
 10
16.428727689418217
 20
11.090982657895532
 30
0.0
 10
14.636170189180577
 20
8.351960097769242
 30
0.0
 10
13.202942400136122
 20
6.435343704032828
 30
0.0
  0
LINE
  5
35
330
17
100
AcDbEntity
  8
OUTLINE
100
AcDbLine
 10
13.202942400136122
 20
6.435343704032828
 30
0.0
 11
12.778678331424192
 21
6.859607772744754
 31
0.0
  0
ARC
  5
36
330
17
100
AcDbEntity
  8
OUTLINE
100
AcDbCircle
 10
7.844411109254905
 20
7.815704858382087
 30
0.0
 40
5.026043638582779
100
AcDbArc
 50
-10.966123480756442
 51
100.96612348075645
  0
LINE
  5
37
330
17
100
AcDbEntity
  8
OUTLINE
100
AcDbLine
 10
6.88831402361757
 20
12.749972080551375
 30
0.0
 11
6.464049954905642
 21
13.174236149263304
 31
0.0
  0
SPLINE
  5
38
330
17
100
AcDbEntity
  8
OUTLINE
100
AcDbSpline
 70
0
 71
3
 72
8
 73
4
 74
0
 40
0.0
 40
0.0
 40
0.0
 40
0.0
 40
1.0
 40
1.0
 40
1.0
 40
1.0
 10
6.464049954905642
 20
13.174236149263304
 30
0.0
 10
8.380666348642057
 20
14.607463938307761
 30
0.0
 10
11.119688908768346
 20
16.4000214385454
 30
0.0
 10
13.944776367412238
 20
17.88581000441009
 30
0.0
  0
SPLINE
  5
39
330
17
100
AcDbEntity
  8
OUTLINE
100
AcDbSpline
 70
0
 71
3
 72
8
 73
4
 74
0
 40
0.0
 40
0.0
 40
0.0
 40
0.0
 40
1.0
 40
1.0
 40
1.0
 40
1.0
 10
13.944776367412238
 20
17.88581000441009
 30
0.0
 10
15.334677485295543
 20
18.61679593630221
 30
0.0
 10
16.651378113683226
 20
19.232419604348543
 30
0.0
 10
17.864006948448797
 20
19.688438181777567
 30
0.0
  0
SPLINE
  5
3A
330
17
100
AcDbEntity
  8
OUTLINE
100
AcDbSpline
 70
0
 71
3
 72
8
 73
4
 74
0
 40
0.0
 40
0.0
 40
0.0
 40
0.0
 40
1.0
 40
1.0
 40
1.0
 40
1.0
 10
17.864006948448797
 20
19.688438181777567
 30
0.0
 10
18.456513922629778
 20
19.911255073258644
 30
0.0
 10
19.046357985812662
 20
20.10623351173766
 30
0.0
 10
19.577790896294257
 20
20.213642443742387
 30
0.0
  0
SPLINE
  5
3B
330
17
100
AcDbEntity
  8
OUTLINE
100
AcDbSpline
 70
0
 71
3
 72
8
 73
4
 74
0
 40
0.0
 40
0.0
 40
0.0
 40
0.0
 40
1.0
 40
1.0
 40
1.0
 40
1.0
 10
19.577790896294257
 20
20.213642443742387
 30
0.0
 10
19.762858177086365
 20
20.25104674932234
 30
0.0
 10
19.993064226388004
 20
20.286974745467766
 30
0.0
 10
20.159872094904287
 20
20.278380061299767
 30
0.0
  0
SPLINE
  5
3C
330
17
100
AcDbEntity
  8
OUTLINE
100
AcDbSpline
 70
0
 71
3
 72
8
 73
4
 74
0
 40
0.0
 40
0.0
 40
0.0
 40
0.0
 40
1.0
 40
1.0
 40
1.0
 40
1.0
 10
20.159872094904287
 20
20.278380061299767
 30
0.0
 10
20.208489813396596
 20
20.27587505995225
 30
0.0
 10
20.270992197998837
 20
20.2667705453079
 30
0.0
 10
20.283234497089776
 20
20.25452824621696
 30
0.0
  0
LINE
  5
3D
330
17
100
AcDbEntity
  8
OUTLINE
100
AcDbLine
 10
4.76103715577014
 20
15.303103919178518
 30
0.0
 11
2.116016535121396
 21
10.542066802010774
 31
0.0
  0
LINE
  5
3E
330
17
100
AcDbEntity
  8
OUTLINE
100
AcDbLine
 10
2.116016535121396
 20
10.542066802010774
 30
0.0
 11
1.6917524664094667
 21
10.966330870722704
 31
0.0
  0
ARC
  5
3F
330
17
100
AcDbEntity
  8
OUTLINE
100
AcDbCircle
 10
-0.2144921993638058
 20
10.327574564044571
 30
0.0
 40
2.0104174554331116
100
AcDbArc
 50
18.525290602223002
 51
71.47470939777699
  0
LINE
  5
40
330
17
100
AcDbEntity
  8
OUTLINE
100
AcDbLine
 10
0.4242641073143272
 20
12.233819229817843
 30
0.0
 11
3.860239772279783e-08
 21
12.658083298529773
 31
0.0
  0
LINE
  5
41
330
17
100
AcDbEntity
  8
OUTLINE
100
AcDbLine
 10
3.860239772279783e-08
 20
12.658083298529773
 30
0.0
 11
4.76103715577014
 21
15.303103919178518
 31
0.0
  0
ELLIPSE
  5
42
330
17
100
AcDbEntity
  8
OUTLINE
100
AcDbEllipse
 10
10.849310323861637
 20
0.16381145242877437
 30
0.0
 11
-3.73164701635046
 21
-3.7316470163504607
 31
0.0
 40
0.28571428571428575
 41
1.8068745643904363
 42
3.141592653589793
  0
LINE
  5
43
330
17
100
AcDbEntity
  8
OUTLINE
100
AcDbLine
 10
12.758722450443797
 20
3.552713678800501e-15
 30
0.0
 11
12.334458381731869
 21
0.42426406871193123
 31
0.0
  0
ARC
  5
44
330
17
100
AcDbEntity
  8
OUTLINE
100
AcDbCircle
 10
10.849310323861639
 20
0.16381145242877437
 30
0.0
 40
1.5078130915748333
100
AcDbArc
 50
9.946896104313145
 51
80.05310389568692
  0
LINE
  5
45
330
17
100
AcDbEntity
  8
OUTLINE
100
AcDbLine
 10
11.109762940144794
 20
1.6489595102990044
 30
0.0
 11
10.685498871432866
 21
2.073223579010932
 31
0.0
  0
ELLIPSE
  5
46
330
17
100
AcDbEntity
  8
OUTLINE
100
AcDbEllipse
 10
10.84931032386164
 20
0.16381145242877437
 30
0.0
 11
-3.73164701635046
 21
-3.7316470163504607
 31
0.0
 40
0.28571428571428575
 41
3.1415926535897944
 42
4.476310742789151
  0
ARC
  5
47
330
17
100
AcDbEntity
  8
OUTLINE
100
AcDbCircle
 10
-7.728851595435351
 20
12.233408312712154
 30
0.0
 40
16.648769552805447
100
AcDbArc
 50
-39.03617328623166
 51
-13.109208198154285
  0
LINE
  5
48
330
17
100
AcDbEntity
  8
OUTLINE
100
AcDbLine
 10
5.203055008585823
 20
1.7478315900280208
 30
0.0
 11
4.778790939873895
 21
2.172095658739952
 31
0.0
  0
ARC
  5
49
330
17
100
AcDbEntity
  8
OUTLINE
100
AcDbCircle
 10
2.2666314840748103
 20
2.2379252332019917
 30
0.0
 40
2.5130218192913896
100
AcDbArc
 50
-1.5010567159566544
 51
91.50105671595676
  0
LINE
  5
4A
330
17
100
AcDbEntity
  8
OUTLINE
100
AcDbLine
 10
2.200801909612766
 20
4.750084689001078
 30
0.0
 11
1.776537840900838
 21
5.174348757713005
 31
0.0
  0
ARC
  5
4B
330
17
100
AcDbEntity
  8
OUTLINE
100
AcDbCircle
 10
12.26211456358497
 20
-7.7575578463081705
 30
0.0
 40
16.648769552805447
100
AcDbArc
 50
103.10920819815428
 51
129.03617328623164
  0
LWPOLYLINE
  5
4C
330
17
100
AcDbEntity
  8
OUTLINE
100
AcDbPolyline
 90
472
 70
1
 10
39.1398
 20
8.0091
 10
39.1398
 20
7.9373
 10
39.1398
 20
7.9212
 10
39.1398
 20
7.8655
 10
39.1398
 20
7.7937
 10
39.1398
 20
7.769
 10
39.1398
 20
7.7219
 10
39.1398
 20
7.6502
 10
39.1398
 20
7.6167
 10
39.1398
 20
7.5784
 10
39.1398
 20
7.5066
 10
39.1398
 20
7.4348
 10
39.1398
 20
7.363
 10
39.1398
 20
7.2912
 10
39.1398
 20
7.2195
 10
39.1398
 20
7.1477
 10
39.1398
 20
7.0759
 10
39.1398
 20
7.0041
 10
39.1398
 20
6.9323
 10
39.1398
 20
6.8605
 10
39.1398
 20
6.7888
 10
39.1398
 20
6.717
 10
39.1398
 20
6.6452
 10
39.1398
 20
6.5734
 10
39.1417
 20
6.5033
 10
39.2127
 20
6.4926
 10
39.2837
 20
6.4819
 10
39.3546
 20
6.4712
 10
39.4256
 20
6.4606
 10
39.4966
 20
6.4499
 10
39.5676
 20
6.4392
 10
39.6386
 20
6.4285
 10
39.7095
 20
6.4178
 10
39.7805
 20
6.4071
 10
39.8515
 20
6.3964
 10
39.9225
 20
6.3857
 10
39.9935
 20
6.375
 10
40.0645
 20
6.3643
 10
40.1354
 20
6.3537
 10
40.2064
 20
6.343
 10
40.2276
 20
6.2894
 10
40.2276
 20
6.2177
 10
40.2276
 20
6.1459
 10
40.2276
 20
6.0741
 10
40.2276
 20
6.0023
 10
40.2276
 20
5.9305
 10
40.2276
 20
5.8587
 10
40.2276
 20
5.787
 10
40.2276
 20
5.7152
 10
40.2276
 20
5.6434
 10
40.2276
 20
5.5716
 10
40.2276
 20
5.4998
 10
40.2276
 20
5.4281
 10
40.2276
 20
5.3563
 10
40.2276
 20
5.2845
 10
40.2276
 20
5.2127
 10
40.2276
 20
5.1409
 10
40.2276
 20
5.0691
 10
40.2276
 20
4.9974
 10
40.2276
 20
4.9256
 10
40.2276
 20
4.8538
 10
40.1602
 20
4.8477
 10
40.0884
 20
4.8458
 10
40.0167
 20
4.8439
 10
39.9449
 20
4.8419
 10
39.8732
 20
4.84
 10
39.8014
 20
4.8381
 10
39.7296
 20
4.8362
 10
39.6579
 20
4.8343
 10
39.5861
 20
4.8324
 10
39.5144
 20
4.8304
 10
39.4426
 20
4.8285
 10
39.3709
 20
4.8266
 10
39.2991
 20
4.8247
 10
39.2274
 20
4.8228
 10
39.1556
 20
4.8209
 10
39.0838
 20
4.819
 10
39.0121
 20
4.817
 10
38.9403
 20
4.8151
 10
38.8686
 20
4.8132
 10
38.7968
 20
4.8113
 10
38.7251
 20
4.8094
 10
38.6533
 20
4.8075
 10
38.5815
 20
4.8055
 10
38.5098
 20
4.8036
 10
38.438
 20
4.8017
 10
38.3663
 20
4.7998
 10
38.2945
 20
4.7979
 10
38.2228
 20
4.796
 10
38.151
 20
4.794
 10
38.0792
 20
4.7921
 10
38.0075
 20
4.7902
 10
37.9357
 20
4.7883
 10
37.864
 20
4.7864
 10
37.7922
 20
4.7845
 10
37.7205
 20
4.7826
 10
37.6487
 20
4.7806
 10
37.577
 20
4.7787
 10
37.5052
 20
4.7768
 10
37.4334
 20
4.7749
 10
37.4284
 20
4.8465
 10
37.4233
 20
4.9181
 10
37.4182
 20
4.9897
 10
37.4131
 20
5.0613
 10
37.4081
 20
5.1329
 10
37.403
 20
5.2045
 10
37.3979
 20
5.2761
 10
37.3928
 20
5.3477
 10
37.3878
 20
5.4193
 10
37.3827
 20
5.4909
 10
37.3776
 20
5.5625
 10
37.3725
 20
5.6341
 10
37.3674
 20
5.7057
 10
37.3624
 20
5.7773
 10
37.3573
 20
5.8489
 10
37.3522
 20
5.9205
 10
37.3471
 20
5.9921
 10
37.3421
 20
6.0637
 10
37.337
 20
6.1353
 10
37.3319
 20
6.2069
 10
37.3268
 20
6.2785
 10
37.3218
 20
6.3501
 10
37.3204
 20
6.3696
 10
37.2448
 20
6.3696
 10
37.1564
 20
6.3696
 10
37.112
 20
6.3043
 10
37.0864
 20
6.2102
 10
37.0583
 20
6.1188
 10
37.0275
 20
6.0301
 10
36.9942
 20
5.9442
 10
36.9583
 20
5.861
 10
36.9198
 20
5.7805
 10
36.8787
 20
5.7028
 10
36.8351
 20
5.6277
 10
36.7888
 20
5.5554
 10
36.74
 20
5.4859
 10
36.6885
 20
5.419
 10
36.6345
 20
5.3549
 10
36.5779
 20
5.2935
 10
36.5187
 20
5.2348
 10
36.4569
 20
5.1788
 10
36.3923
 20
5.1254
 10
36.3241
 20
5.074
 10
36.254
 20
5.0258
 10
36.182
 20
4.981
 10
36.1081
 20
4.9395
 10
36.0322
 20
4.9013
 10
35.9544
 20
4.8665
 10
35.8748
 20
4.8349
 10
35.7931
 20
4.8067
 10
35.7096
 20
4.7818
 10
35.6242
 20
4.7602
 10
35.5368
 20
4.742
 10
35.4476
 20
4.727
 10
35.3564
 20
4.7154
 10
35.2633
 20
4.7071
 10
35.1682
 20
4.7021
 10
35.0713
 20
4.7005
 10
34.9697
 20
4.7019
 10
34.8702
 20
4.7061
 10
34.7727
 20
4.7131
 10
34.6772
 20
4.723
 10
34.5838
 20
4.7357
 10
34.4924
 20
4.7512
 10
34.403
 20
4.7695
 10
34.3157
 20
4.7906
 10
34.2304
 20
4.8145
 10
34.1472
 20
4.8412
 10
34.066
 20
4.8708
 10
33.9868
 20
4.9032
 10
33.9097
 20
4.9384
 10
33.8346
 20
4.9764
 10
33.7615
 20
5.0172
 10
33.6905
 20
5.0609
 10
33.6215
 20
5.1073
 10
33.5546
 20
5.1566
 10
33.4897
 20
5.2087
 10
33.4268
 20
5.2636
 10
33.366
 20
5.3213
 10
33.3072
 20
5.3818
 10
33.2507
 20
5.4449
 10
33.2011
 20
5.5046
 10
33.1535
 20
5.5662
 10
33.1079
 20
5.6298
 10
33.0643
 20
5.6952
 10
33.0227
 20
5.7626
 10
32.9831
 20
5.8318
 10
32.9456
 20
5.903
 10
32.91
 20
5.976
 10
32.8764
 20
6.051
 10
32.8449
 20
6.1279
 10
32.8153
 20
6.2066
 10
32.7878
 20
6.2873
 10
32.7623
 20
6.3699
 10
32.7388
 20
6.4543
 10
32.7172
 20
6.5407
 10
32.6977
 20
6.629
 10
32.6802
 20
6.7192
 10
32.6648
 20
6.8113
 10
32.6513
 20
6.9053
 10
32.6398
 20
7.0012
 10
32.6303
 20
7.0989
 10
32.6229
 20
7.1986
 10
32.6174
 20
7.3002
 10
32.614
 20
7.4038
 10
32.6126
 20
7.5092
 10
32.6125
 20
7.6014
 10
32.6125
 20
7.6898
 10
32.6125
 20
7.7783
 10
32.6125
 20
7.8667
 10
32.6125
 20
7.9551
 10
32.6125
 20
8.0435
 10
32.6125
 20
8.1319
 10
32.6125
 20
8.2203
 10
32.6125
 20
8.3087
 10
32.6125
 20
8.3971
 10
32.6125
 20
8.4855
 10
32.6125
 20
8.574
 10
32.6125
 20
8.6624
 10
32.6125
 20
8.7508
 10
32.6125
 20
8.8392
 10
32.6125
 20
8.9276
 10
32.6125
 20
9.016
 10
32.6125
 20
9.1044
 10
32.6125
 20
9.1928
 10
32.6125
 20
9.2812
 10
32.6125
 20
9.3697
 10
32.6125
 20
9.4581
 10
32.6125
 20
9.5465
 10
32.6125
 20
9.6349
 10
32.6125
 20
9.7233
 10
32.6125
 20
9.8117
 10
32.6125
 20
9.9001
 10
32.6125
 20
9.9885
 10
32.6125
 20
10.0769
 10
32.6125
 20
10.1653
 10
32.6125
 20
10.2538
 10
32.6125
 20
10.3422
 10
32.6125
 20
10.4306
 10
32.6125
 20
10.519
 10
32.6125
 20
10.6074
 10
32.6125
 20
10.6958
 10
32.6125
 20
10.7842
 10
32.6125
 20
10.8726
 10
32.6125
 20
10.961
 10
32.6125
 20
11.0495
 10
32.6125
 20
11.1379
 10
32.6125
 20
11.2263
 10
32.6125
 20
11.3147
 10
32.6125
 20
11.4031
 10
32.6125
 20
11.4915
 10
32.6125
 20
11.5799
 10
32.6125
 20
11.6683
 10
32.6125
 20
11.7567
 10
32.6125
 20
11.8451
 10
32.6125
 20
11.9336
 10
32.6125
 20
12.022
 10
32.6125
 20
12.1104
 10
32.6125
 20
12.1988
 10
32.6125
 20
12.2872
 10
32.6125
 20
12.3756
 10
32.6125
 20
12.464
 10
32.6125
 20
12.5524
 10
32.6125
 20
12.6408
 10
32.6125
 20
12.7293
 10
32.6824
 20
12.7478
 10
32.7708
 20
12.7478
 10
32.8592
 20
12.7478
 10
32.9476
 20
12.7478
 10
33.036
 20
12.7478
 10
33.1244
 20
12.7478
 10
33.2129
 20
12.7478
 10
33.3013
 20
12.7478
 10
33.3897
 20
12.7478
 10
33.4781
 20
12.7478
 10
33.5665
 20
12.7478
 10
33.6549
 20
12.7478
 10
33.7433
 20
12.7478
 10
33.8317
 20
12.7478
 10
33.9201
 20
12.7478
 10
34.0086
 20
12.7478
 10
34.097
 20
12.7478
 10
34.1854
 20
12.7478
 10
34.2738
 20
12.7478
 10
34.3622
 20
12.7478
 10
34.4506
 20
12.7478
 10
34.4529
 20
12.6616
 10
34.4529
 20
12.5732
 10
34.4529
 20
12.4848
 10
34.4529
 20
12.3964
 10
34.4529
 20
12.308
 10
34.4529
 20
12.2196
 10
34.4529
 20
12.1312
 10
34.4529
 20
12.0428
 10
34.4529
 20
11.9544
 10
34.4529
 20
11.8659
 10
34.4529
 20
11.7775
 10
34.4529
 20
11.6891
 10
34.4529
 20
11.6007
 10
34.4529
 20
11.5123
 10
34.4529
 20
11.4239
 10
34.4529
 20
11.3355
 10
34.4529
 20
11.2471
 10
34.4529
 20
11.1587
 10
34.4529
 20
11.0703
 10
34.4529
 20
10.9818
 10
34.4529
 20
10.8934
 10
34.4529
 20
10.805
 10
34.4529
 20
10.7166
 10
34.4529
 20
10.6282
 10
34.4529
 20
10.5398
 10
34.4529
 20
10.4514
 10
34.4529
 20
10.363
 10
34.4529
 20
10.2746
 10
34.4529
 20
10.1861
 10
34.4529
 20
10.0977
 10
34.4529
 20
10.0093
 10
34.4529
 20
9.9209
 10
34.4529
 20
9.8325
 10
34.4529
 20
9.7441
 10
34.4529
 20
9.6557
 10
34.4529
 20
9.5673
 10
34.4529
 20
9.4789
 10
34.4529
 20
9.3904
 10
34.4529
 20
9.302
 10
34.4529
 20
9.2136
 10
34.4529
 20
9.1252
 10
34.4529
 20
9.0368
 10
34.4529
 20
8.9484
 10
34.4529
 20
8.86
 10
34.4529
 20
8.7716
 10
34.4529
 20
8.6832
 10
34.4529
 20
8.5948
 10
34.4529
 20
8.5063
 10
34.4529
 20
8.4179
 10
34.4529
 20
8.3295
 10
34.4529
 20
8.2411
 10
34.4529
 20
8.1527
 10
34.4529
 20
8.0643
 10
34.4529
 20
7.9759
 10
34.4529
 20
7.8875
 10
34.4531
 20
7.7931
 10
34.4567
 20
7.69
 10
34.4645
 20
7.5908
 10
34.4765
 20
7.4953
 10
34.4927
 20
7.4037
 10
34.5131
 20
7.3159
 10
34.5377
 20
7.2318
 10
34.5665
 20
7.1516
 10
34.5996
 20
7.0751
 10
34.6368
 20
7.0025
 10
34.6783
 20
6.9336
 10
34.724
 20
6.8686
 10
34.7738
 20
6.8073
 10
34.8303
 20
6.7474
 10
34.8923
 20
6.6908
 10
34.958
 20
6.6395
 10
35.0274
 20
6.5934
 10
35.1005
 20
6.5526
 10
35.1773
 20
6.5171
 10
35.2579
 20
6.4868
 10
35.3422
 20
6.4618
 10
35.4302
 20
6.442
 10
35.5219
 20
6.4275
 10
35.6174
 20
6.4183
 10
35.7165
 20
6.4144
 10
35.8175
 20
6.4155
 10
35.9154
 20
6.4215
 10
36.01
 20
6.4321
 10
36.1012
 20
6.4476
 10
36.1892
 20
6.4678
 10
36.2737
 20
6.4927
 10
36.355
 20
6.5224
 10
36.4329
 20
6.5568
 10
36.5075
 20
6.596
 10
36.5788
 20
6.6399
 10
36.6467
 20
6.6886
 10
36.7114
 20
6.742
 10
36.7726
 20
6.8002
 10
36.8306
 20
6.8631
 10
36.8852
 20
6.9308
 10
36.9282
 20
6.991
 10
36.9628
 20
7.0452
 10
36.9956
 20
7.1027
 10
37.0267
 20
7.1633
 10
37.0562
 20
7.2271
 10
37.084
 20
7.2941
 10
37.1101
 20
7.3643
 10
37.1345
 20
7.4377
 10
37.1572
 20
7.5143
 10
37.1782
 20
7.5941
 10
37.1976
 20
7.677
 10
37.2153
 20
7.7632
 10
37.2312
 20
7.8526
 10
37.2455
 20
7.9451
 10
37.2581
 20
8.0409
 10
37.2691
 20
8.1398
 10
37.2783
 20
8.2419
 10
37.2859
 20
8.3473
 10
37.2917
 20
8.4558
 10
37.2959
 20
8.5675
 10
37.2984
 20
8.6824
 10
37.2992
 20
8.7717
 10
37.2992
 20
8.9115
 10
37.2992
 20
9.0637
 10
37.2992
 20
9.216
 10
37.2992
 20
9.3682
 10
37.2992
 20
9.5204
 10
37.2992
 20
9.6726
 10
37.2992
 20
9.8249
 10
37.2992
 20
9.9771
 10
37.2992
 20
10.1293
 10
37.2992
 20
10.2815
 10
37.2992
 20
10.4337
 10
37.2992
 20
10.586
 10
37.2992
 20
10.7382
 10
37.2992
 20
10.8904
 10
37.2992
 20
11.0426
 10
37.2992
 20
11.1949
 10
37.2992
 20
11.3471
 10
37.2992
 20
11.4993
 10
37.2992
 20
11.6515
 10
37.2992
 20
11.8038
 10
37.2992
 20
11.956
 10
37.2992
 20
12.1082
 10
37.2992
 20
12.2604
 10
37.2992
 20
12.4126
 10
37.2992
 20
12.5649
 10
37.2992
 20
12.7171
 10
37.4208
 20
12.7478
 10
37.573
 20
12.7478
 10
37.7252
 20
12.7478
 10
37.8774
 20
12.7478
 10
38.0297
 20
12.7478
 10
38.1819
 20
12.7478
 10
38.3341
 20
12.7478
 10
38.4863
 20
12.7478
 10
38.6385
 20
12.7478
 10
38.7908
 20
12.7478
 10
38.943
 20
12.7478
 10
39.0952
 20
12.7478
 10
39.1398
 20
12.6401
 10
39.1398
 20
12.4879
 10
39.1398
 20
12.3357
 10
39.1398
 20
12.1834
 10
39.1398
 20
12.0312
 10
39.1398
 20
11.879
 10
39.1398
 20
11.7268
 10
39.1398
 20
11.5746
 10
39.1398
 20
11.4223
 10
39.1398
 20
11.2701
 10
39.1398
 20
11.1179
 10
39.1398
 20
10.9657
 10
39.1398
 20
10.8134
 10
39.1398
 20
10.6612
 10
39.1398
 20
10.509
 10
39.1398
 20
10.3568
 10
39.1398
 20
10.2045
 10
39.1398
 20
10.0523
 10
39.1398
 20
9.9001
 10
39.1398
 20
9.7479
 10
39.1398
 20
9.5956
 10
39.1398
 20
9.4434
 10
39.1398
 20
9.2912
 10
39.1398
 20
9.139
 10
39.1398
 20
8.9868
 10
39.1398
 20
8.8345
 10
39.1398
 20
8.6823
 10
39.1398
 20
8.5301
 10
39.1398
 20
8.3779
 10
39.1398
 20
8.2256
 10
39.1398
 20
8.0734
  0
LWPOLYLINE
  5
4D
330
17
100
AcDbEntity
  8
OUTLINE
100
AcDbPolyline
 90
672
 70
1
 10
44.4812
 20
4.7007
 10
44.4003
 20
4.7005
 10
44.3298
 20
4.7006
 10
44.2601
 20
4.7008
 10
44.191
 20
4.7012
 10
44.1227
 20
4.7019
 10
44.0551
 20
4.7026
 10
43.9882
 20
4.7036
 10
43.922
 20
4.7047
 10
43.8565
 20
4.706
 10
43.7918
 20
4.7075
 10
43.7277
 20
4.7091
 10
43.6644
 20
4.7109
 10
43.6018
 20
4.7129
 10
43.5399
 20
4.715
 10
43.4787
 20
4.7174
 10
43.4182
 20
4.7199
 10
43.3584
 20
4.7225
 10
43.2993
 20
4.7254
 10
43.241
 20
4.7284
 10
43.1833
 20
4.7316
 10
43.1264
 20
4.735
 10
43.0702
 20
4.7385
 10
43.0147
 20
4.7422
 10
42.9599
 20
4.7461
 10
42.9058
 20
4.7501
 10
42.8525
 20
4.7544
 10
42.7914
 20
4.7595
 10
42.7238
 20
4.7655
 10
42.6569
 20
4.7718
 10
42.5908
 20
4.7784
 10
42.5253
 20
4.7852
 10
42.4607
 20
4.7924
 10
42.3967
 20
4.7999
 10
42.3335
 20
4.8076
 10
42.2711
 20
4.8156
 10
42.2093
 20
4.824
 10
42.1483
 20
4.8326
 10
42.0881
 20
4.8415
 10
42.0285
 20
4.8507
 10
41.9697
 20
4.8602
 10
41.9117
 20
4.87
 10
41.8544
 20
4.88
 10
41.7978
 20
4.8904
 10
41.7419
 20
4.9011
 10
41.6868
 20
4.912
 10
41.6324
 20
4.9233
 10
41.6356
 20
4.9809
 10
41.6433
 20
5.0423
 10
41.6509
 20
5.1036
 10
41.6586
 20
5.1649
 10
41.6663
 20
5.2263
 10
41.6739
 20
5.2876
 10
41.6816
 20
5.3489
 10
41.6893
 20
5.4102
 10
41.6969
 20
5.4716
 10
41.7046
 20
5.5329
 10
41.7123
 20
5.5942
 10
41.7199
 20
5.6555
 10
41.7276
 20
5.7169
 10
41.7353
 20
5.7782
 10
41.7429
 20
5.8395
 10
41.7506
 20
5.9008
 10
41.7582
 20
5.9622
 10
41.7659
 20
6.0235
 10
41.7736
 20
6.0848
 10
41.7812
 20
6.1462
 10
41.7889
 20
6.2075
 10
41.7966
 20
6.2688
 10
41.8042
 20
6.3301
 10
41.8119
 20
6.3915
 10
41.8196
 20
6.4528
 10
41.8272
 20
6.5141
 10
41.8349
 20
6.5754
 10
41.8426
 20
6.6368
 10
41.8973
 20
6.6454
 10
41.9677
 20
6.6359
 10
42.0373
 20
6.6266
 10
42.1061
 20
6.6175
 10
42.174
 20
6.6085
 10
42.2411
 20
6.5998
 10
42.3074
 20
6.5913
 10
42.3729
 20
6.583
 10
42.4375
 20
6.5749
 10
42.5013
 20
6.5669
 10
42.5643
 20
6.5592
 10
42.6265
 20
6.5517
 10
42.6878
 20
6.5444
 10
42.7483
 20
6.5373
 10
42.808
 20
6.5304
 10
42.8668
 20
6.5236
 10
42.9249
 20
6.5171
 10
42.9821
 20
6.5108
 10
43.0384
 20
6.5047
 10
43.094
 20
6.4988
 10
43.1487
 20
6.493
 10
43.2026
 20
6.4875
 10
43.2557
 20
6.4822
 10
43.3079
 20
6.4771
 10
43.3666
 20
6.4715
 10
43.4385
 20
6.4649
 10
43.509
 20
6.4587
 10
43.5783
 20
6.4529
 10
43.6462
 20
6.4475
 10
43.7128
 20
6.4425
 10
43.7781
 20
6.4379
 10
43.8421
 20
6.4337
 10
43.9047
 20
6.4299
 10
43.9661
 20
6.4266
 10
44.0261
 20
6.4236
 10
44.0848
 20
6.4211
 10
44.1422
 20
6.4189
 10
44.1983
 20
6.4171
 10
44.253
 20
6.4158
 10
44.3065
 20
6.4149
 10
44.3586
 20
6.4143
 10
44.4156
 20
6.4142
 10
44.4988
 20
6.4146
 10
44.5802
 20
6.4155
 10
44.6598
 20
6.4169
 10
44.7376
 20
6.4189
 10
44.8135
 20
6.4214
 10
44.8877
 20
6.4245
 10
44.96
 20
6.4281
 10
45.0306
 20
6.4322
 10
45.0993
 20
6.4369
 10
45.1663
 20
6.4421
 10
45.2314
 20
6.4479
 10
45.2947
 20
6.4541
 10
45.3562
 20
6.461
 10
45.4159
 20
6.4683
 10
45.4738
 20
6.4762
 10
45.5299
 20
6.4847
 10
45.5842
 20
6.4937
 10
45.6367
 20
6.5032
 10
45.6874
 20
6.5133
 10
45.7362
 20
6.5239
 10
45.7833
 20
6.535
 10
45.8286
 20
6.5467
 10
45.872
 20
6.5589
 10
45.9136
 20
6.5716
 10
45.9535
 20
6.5849
 10
46.0065
 20
6.6045
 10
46.0764
 20
6.6343
 10
46.1405
 20
6.6666
 10
46.1989
 20
6.7013
 10
46.2514
 20
6.7386
 10
46.2982
 20
6.7783
 10
46.3391
 20
6.8205
 10
46.3743
 20
6.8651
 10
46.4037
 20
6.9123
 10
46.4273
 20
6.9619
 10
46.4451
 20
7.014
 10
46.4571
 20
7.0685
 10
46.4633
 20
7.1256
 10
46.4637
 20
7.19
 10
46.4579
 20
7.2583
 10
46.446
 20
7.3216
 10
46.4278
 20
7.3801
 10
46.4034
 20
7.4337
 10
46.3729
 20
7.4823
 10
46.3361
 20
7.5261
 10
46.2981
 20
7.5613
 10
46.2573
 20
7.5925
 10
46.2116
 20
7.6221
 10
46.1609
 20
7.6501
 10
46.1052
 20
7.6766
 10
46.0445
 20
7.7014
 10
45.9789
 20
7.7247
 10
45.9082
 20
7.7464
 10
45.8423
 20
7.7648
 10
45.7827
 20
7.7814
 10
45.7232
 20
7.7979
 10
45.6636
 20
7.8145
 10
45.6041
 20
7.8311
 10
45.5446
 20
7.8477
 10
45.485
 20
7.8643
 10
45.4255
 20
7.8809
 10
45.366
 20
7.8975
 10
45.3064
 20
7.9141
 10
45.2469
 20
7.9307
 10
45.1874
 20
7.9473
 10
45.1278
 20
7.9638
 10
45.0683
 20
7.9804
 10
45.0088
 20
7.997
 10
44.9492
 20
8.0136
 10
44.8897
 20
8.0302
 10
44.8301
 20
8.0468
 10
44.7706
 20
8.0634
 10
44.7111
 20
8.08
 10
44.6515
 20
8.0966
 10
44.592
 20
8.1132
 10
44.5325
 20
8.1297
 10
44.4729
 20
8.1463
 10
44.4134
 20
8.1629
 10
44.3539
 20
8.1795
 10
44.2943
 20
8.1961
 10
44.2348
 20
8.2127
 10
44.1753
 20
8.2293
 10
44.1157
 20
8.2459
 10
44.0562
 20
8.2625
 10
43.9966
 20
8.279
 10
43.9371
 20
8.2956
 10
43.8776
 20
8.3122
 10
43.818
 20
8.3288
 10
43.7585
 20
8.3454
 10
43.699
 20
8.362
 10
43.6394
 20
8.3786
 10
43.5747
 20
8.3967
 10
43.503
 20
8.4175
 10
43.4327
 20
8.4389
 10
43.3638
 20
8.4609
 10
43.2964
 20
8.4836
 10
43.2304
 20
8.5068
 10
43.1659
 20
8.5306
 10
43.1029
 20
8.555
 10
43.0413
 20
8.58
 10
42.9812
 20
8.6057
 10
42.9225
 20
8.6319
 10
42.8653
 20
8.6587
 10
42.8095
 20
8.6861
 10
42.7552
 20
8.7141
 10
42.7023
 20
8.7427
 10
42.6509
 20
8.7719
 10
42.601
 20
8.8017
 10
42.5525
 20
8.8321
 10
42.5055
 20
8.8631
 10
42.4599
 20
8.8947
 10
42.4158
 20
8.9269
 10
42.3731
 20
8.9597
 10
42.3319
 20
8.9931
 10
42.2921
 20
9.0271
 10
42.2538
 20
9.0617
 10
42.217
 20
9.0968
 10
42.1785
 20
9.136
 10
42.1404
 20
9.1779
 10
42.1041
 20
9.2212
 10
42.0695
 20
9.2661
 10
42.0367
 20
9.3123
 10
42.0057
 20
9.36
 10
41.9764
 20
9.4092
 10
41.9489
 20
9.4598
 10
41.9231
 20
9.5119
 10
41.8991
 20
9.5654
 10
41.8769
 20
9.6204
 10
41.8565
 20
9.6768
 10
41.8378
 20
9.7346
 10
41.8208
 20
9.7939
 10
41.8056
 20
9.8547
 10
41.7922
 20
9.9169
 10
41.7806
 20
9.9806
 10
41.7707
 20
10.0457
 10
41.7626
 20
10.1122
 10
41.7562
 20
10.1802
 10
41.7516
 20
10.2497
 10
41.7488
 20
10.3206
 10
41.7477
 20
10.3929
 10
41.7483
 20
10.4627
 10
41.7505
 20
10.5311
 10
41.7542
 20
10.5985
 10
41.7594
 20
10.665
 10
41.7662
 20
10.7304
 10
41.7745
 20
10.7948
 10
41.7844
 20
10.8582
 10
41.7958
 20
10.9206
 10
41.8087
 20
10.9821
 10
41.8232
 20
11.0425
 10
41.8393
 20
11.1019
 10
41.8568
 20
11.1603
 10
41.876
 20
11.2177
 10
41.8966
 20
11.2741
 10
41.9188
 20
11.3296
 10
41.9426
 20
11.384
 10
41.9679
 20
11.4374
 10
41.9947
 20
11.4898
 10
42.0231
 20
11.5412
 10
42.053
 20
11.5916
 10
42.0844
 20
11.641
 10
42.1174
 20
11.6894
 10
42.152
 20
11.7369
 10
42.1881
 20
11.7833
 10
42.2257
 20
11.8287
 10
42.2649
 20
11.8731
 10
42.3056
 20
11.9165
 10
42.3478
 20
11.9589
 10
42.3916
 20
12.0003
 10
42.437
 20
12.0407
 10
42.4839
 20
12.0801
 10
42.5323
 20
12.1185
 10
42.5823
 20
12.1559
 10
42.6338
 20
12.1923
 10
42.6868
 20
12.2278
 10
42.7414
 20
12.2622
 10
42.7942
 20
12.2936
 10
42.8334
 20
12.3159
 10
42.8733
 20
12.3377
 10
42.914
 20
12.3592
 10
42.9556
 20
12.3802
 10
42.9979
 20
12.4008
 10
43.0411
 20
12.4209
 10
43.085
 20
12.4407
 10
43.1297
 20
12.46
 10
43.1753
 20
12.4789
 10
43.2216
 20
12.4974
 10
43.2687
 20
12.5155
 10
43.3166
 20
12.5332
 10
43.3654
 20
12.5504
 10
43.4149
 20
12.5672
 10
43.4652
 20
12.5836
 10
43.5163
 20
12.5996
 10
43.5683
 20
12.6152
 10
43.621
 20
12.6303
 10
43.6745
 20
12.6451
 10
43.7288
 20
12.6594
 10
43.7839
 20
12.6733
 10
43.8399
 20
12.6867
 10
43.8966
 20
12.6998
 10
43.9541
 20
12.7124
 10
44.0124
 20
12.7246
 10
44.0715
 20
12.7364
 10
44.1314
 20
12.7478
 10
44.1921
 20
12.7588
 10
44.2536
 20
12.7693
 10
44.3159
 20
12.7794
 10
44.3791
 20
12.7891
 10
44.443
 20
12.7984
 10
44.5077
 20
12.8073
 10
44.5732
 20
12.8157
 10
44.6395
 20
12.8238
 10
44.7066
 20
12.8314
 10
44.7745
 20
12.8386
 10
44.8432
 20
12.8454
 10
44.9127
 20
12.8517
 10
44.983
 20
12.8576
 10
45.0541
 20
12.8632
 10
45.1259
 20
12.8683
 10
45.1986
 20
12.8729
 10
45.2721
 20
12.8772
 10
45.3464
 20
12.881
 10
45.4215
 20
12.8845
 10
45.4974
 20
12.8875
 10
45.5741
 20
12.8901
 10
45.6516
 20
12.8922
 10
45.7298
 20
12.894
 10
45.8089
 20
12.8953
 10
45.8888
 20
12.8962
 10
45.9695
 20
12.8967
 10
46.0447
 20
12.8968
 10
46.1071
 20
12.8966
 10
46.1693
 20
12.8961
 10
46.2315
 20
12.8954
 10
46.2936
 20
12.8945
 10
46.3557
 20
12.8932
 10
46.4176
 20
12.8918
 10
46.4795
 20
12.8901
 10
46.5413
 20
12.8881
 10
46.6031
 20
12.8859
 10
46.6647
 20
12.8834
 10
46.7263
 20
12.8807
 10
46.7878
 20
12.8777
 10
46.8493
 20
12.8745
 10
46.9106
 20
12.871
 10
46.9719
 20
12.8673
 10
47.0331
 20
12.8633
 10
47.0939
 20
12.8591
 10
47.1529
 20
12.8547
 10
47.2122
 20
12.8502
 10
47.2717
 20
12.8454
 10
47.3316
 20
12.8404
 10
47.3918
 20
12.8351
 10
47.4522
 20
12.8296
 10
47.513
 20
12.8239
 10
47.5741
 20
12.818
 10
47.6355
 20
12.8118
 10
47.6972
 20
12.8054
 10
47.7592
 20
12.7987
 10
47.8214
 20
12.7918
 10
47.884
 20
12.7847
 10
47.9469
 20
12.7774
 10
48.0102
 20
12.7698
 10
48.0737
 20
12.762
 10
48.1375
 20
12.754
 10
48.1838
 20
12.7325
 10
48.1766
 20
12.6711
 10
48.1695
 20
12.6097
 10
48.1624
 20
12.5483
 10
48.1553
 20
12.4869
 10
48.1481
 20
12.4255
 10
48.141
 20
12.3641
 10
48.1339
 20
12.3027
 10
48.1267
 20
12.2413
 10
48.1196
 20
12.1799
 10
48.1125
 20
12.1186
 10
48.1054
 20
12.0572
 10
48.0982
 20
11.9958
 10
48.0911
 20
11.9344
 10
48.084
 20
11.873
 10
48.0768
 20
11.8116
 10
48.0697
 20
11.7502
 10
48.0626
 20
11.6888
 10
48.0555
 20
11.6274
 10
48.0483
 20
11.566
 10
48.0412
 20
11.5046
 10
48.0341
 20
11.4432
 10
48.0269
 20
11.3819
 10
48.0198
 20
11.3205
 10
48.0127
 20
11.2591
 10
48.0056
 20
11.1977
 10
47.9984
 20
11.1363
 10
47.9874
 20
11.0791
 10
47.9176
 20
11.0854
 10
47.8487
 20
11.0916
 10
47.7808
 20
11.0975
 10
47.7139
 20
11.1032
 10
47.6478
 20
11.1086
 10
47.5828
 20
11.1139
 10
47.5186
 20
11.1189
 10
47.4554
 20
11.1237
 10
47.3932
 20
11.1283
 10
47.3319
 20
11.1327
 10
47.2715
 20
11.1368
 10
47.212
 20
11.1408
 10
47.1536
 20
11.1445
 10
47.096
 20
11.148
 10
47.0394
 20
11.1512
 10
46.9838
 20
11.1543
 10
46.929
 20
11.1571
 10
46.8753
 20
11.1598
 10
46.8125
 20
11.1626
 10
46.7447
 20
11.1655
 10
46.678
 20
11.1682
 10
46.6122
 20
11.1706
 10
46.5475
 20
11.1728
 10
46.4838
 20
11.1748
 10
46.421
 20
11.1766
 10
46.3593
 20
11.1782
 10
46.2985
 20
11.1795
 10
46.2388
 20
11.1806
 10
46.1801
 20
11.1815
 10
46.1223
 20
11.1822
 10
46.0656
 20
11.1826
 10
46.0099
 20
11.1829
 10
45.9416
 20
11.1829
 10
45.8586
 20
11.1825
 10
45.7772
 20
11.1817
 10
45.6974
 20
11.1805
 10
45.6192
 20
11.1789
 10
45.5426
 20
11.1769
 10
45.4676
 20
11.1745
 10
45.3942
 20
11.1717
 10
45.3223
 20
11.1685
 10
45.2521
 20
11.1648
 10
45.1835
 20
11.1608
 10
45.1164
 20
11.1564
 10
45.0509
 20
11.1515
 10
44.9871
 20
11.1463
 10
44.9248
 20
11.1406
 10
44.8641
 20
11.1346
 10
44.805
 20
11.1281
 10
44.7475
 20
11.1213
 10
44.6916
 20
11.114
 10
44.6373
 20
11.1064
 10
44.5846
 20
11.0983
 10
44.5335
 20
11.0898
 10
44.4839
 20
11.0809
 10
44.436
 20
11.0716
 10
44.3897
 20
11.062
 10
44.3449
 20
11.0519
 10
44.3017
 20
11.0414
 10
44.2602
 20
11.0305
 10
44.2202
 20
11.0192
 10
44.1666
 20
11.0025
 10
44.0903
 20
10.9755
 10
44.02
 20
10.9462
 10
43.9557
 20
10.9146
 10
43.8973
 20
10.8809
 10
43.8449
 20
10.8448
 10
43.7985
 20
10.8066
 10
43.758
 20
10.7661
 10
43.7235
 20
10.7233
 10
43.695
 20
10.6783
 10
43.6724
 20
10.6311
 10
43.6558
 20
10.5816
 10
43.6452
 20
10.5299
 10
43.6405
 20
10.4759
 10
43.642
 20
10.4087
 10
43.6505
 20
10.3418
 10
43.666
 20
10.2805
 10
43.6885
 20
10.2249
 10
43.7179
 20
10.1751
 10
43.7543
 20
10.131
 10
43.7977
 20
10.0925
 10
43.8376
 20
10.0649
 10
43.8805
 20
10.0392
 10
43.9279
 20
10.0142
 10
43.9798
 20
9.9899
 10
44.0362
 20
9.9665
 10
44.0971
 20
9.9437
 10
44.1625
 20
9.9218
 10
44.2325
 20
9.9005
 10
44.3069
 20
9.8801
 10
44.3675
 20
9.8638
 10
44.4272
 20
9.8477
 10
44.4868
 20
9.8316
 10
44.5465
 20
9.8155
 10
44.6062
 20
9.7994
 10
44.6659
 20
9.7834
 10
44.7255
 20
9.7673
 10
44.7852
 20
9.7512
 10
44.8449
 20
9.7351
 10
44.9046
 20
9.719
 10
44.9642
 20
9.703
 10
45.0239
 20
9.6869
 10
45.0836
 20
9.6708
 10
45.1433
 20
9.6547
 10
45.2029
 20
9.6386
 10
45.2626
 20
9.6225
 10
45.3223
 20
9.6065
 10
45.382
 20
9.5904
 10
45.4416
 20
9.5743
 10
45.5013
 20
9.5582
 10
45.561
 20
9.5421
 10
45.6207
 20
9.5261
 10
45.6803
 20
9.51
 10
45.74
 20
9.4939
 10
45.7997
 20
9.4778
 10
45.8594
 20
9.4617
 10
45.919
 20
9.4457
 10
45.9787
 20
9.4296
 10
46.0384
 20
9.4135
 10
46.0981
 20
9.3974
 10
46.1577
 20
9.3813
 10
46.2174
 20
9.3652
 10
46.2909
 20
9.3461
 10
46.3633
 20
9.3263
 10
46.4344
 20
9.3061
 10
46.5042
 20
9.2853
 10
46.5728
 20
9.264
 10
46.64
 20
9.2422
 10
46.706
 20
9.2199
 10
46.7706
 20
9.1971
 10
46.834
 20
9.1737
 10
46.896
 20
9.1499
 10
46.9568
 20
9.1255
 10
47.0163
 20
9.1006
 10
47.0745
 20
9.0751
 10
47.1313
 20
9.0492
 10
47.1869
 20
9.0227
 10
47.2412
 20
8.9958
 10
47.2942
 20
8.9683
 10
47.3459
 20
8.9402
 10
47.3964
 20
8.9117
 10
47.4455
 20
8.8827
 10
47.4933
 20
8.8531
 10
47.5399
 20
8.823
 10
47.5851
 20
8.7924
 10
47.629
 20
8.7613
 10
47.6717
 20
8.7297
 10
47.7131
 20
8.6975
 10
47.7531
 20
8.6648
 10
47.7919
 20
8.6317
 10
47.8294
 20
8.5979
 10
47.8664
 20
8.5629
 10
47.908
 20
8.521
 10
47.9479
 20
8.4778
 10
47.9862
 20
8.4335
 10
48.0227
 20
8.3879
 10
48.0575
 20
8.3412
 10
48.0906
 20
8.2933
 10
48.122
 20
8.2441
 10
48.1516
 20
8.1938
 10
48.1796
 20
8.1423
 10
48.2058
 20
8.0895
 10
48.2304
 20
8.0356
 10
48.2532
 20
7.9805
 10
48.2743
 20
7.9242
 10
48.2937
 20
7.8667
 10
48.3114
 20
7.808
 10
48.3274
 20
7.7481
 10
48.3416
 20
7.687
 10
48.3542
 20
7.6247
 10
48.365
 20
7.5612
 10
48.3742
 20
7.4965
 10
48.3816
 20
7.4306
 10
48.3873
 20
7.3635
 10
48.3913
 20
7.2953
 10
48.3936
 20
7.2258
 10
48.3941
 20
7.1552
 10
48.3931
 20
7.085
 10
48.3906
 20
7.0159
 10
48.3865
 20
6.9477
 10
48.381
 20
6.8807
 10
48.3739
 20
6.8147
 10
48.3652
 20
6.7497
 10
48.3551
 20
6.6858
 10
48.3434
 20
6.6229
 10
48.3302
 20
6.5611
 10
48.3155
 20
6.5003
 10
48.2993
 20
6.4405
 10
48.2815
 20
6.3818
 10
48.2622
 20
6.3241
 10
48.2414
 20
6.2675
 10
48.2191
 20
6.212
 10
48.1953
 20
6.1574
 10
48.1699
 20
6.1039
 10
48.143
 20
6.0515
 10
48.1146
 20
6.0001
 10
48.0846
 20
5.9497
 10
48.0532
 20
5.9004
 10
48.0202
 20
5.8522
 10
47.9857
 20
5.8049
 10
47.9496
 20
5.7588
 10
47.9121
 20
5.7136
 10
47.873
 20
5.6695
 10
47.8324
 20
5.6265
 10
47.7903
 20
5.5845
 10
47.7467
 20
5.5435
 10
47.7015
 20
5.5036
 10
47.6548
 20
5.4647
 10
47.6066
 20
5.4269
 10
47.5569
 20
5.3901
 10
47.5056
 20
5.3544
 10
47.4528
 20
5.3197
 10
47.4053
 20
5.2902
 10
47.366
 20
5.2668
 10
47.3258
 20
5.2439
 10
47.2847
 20
5.2215
 10
47.2428
 20
5.1996
 10
47.2001
 20
5.1781
 10
47.1565
 20
5.1571
 10
47.1121
 20
5.1366
 10
47.0668
 20
5.1166
 10
47.0207
 20
5.097
 10
46.9737
 20
5.0779
 10
46.9259
 20
5.0592
 10
46.8772
 20
5.0411
 10
46.8277
 20
5.0234
 10
46.7774
 20
5.0062
 10
46.7261
 20
4.9894
 10
46.6741
 20
4.9731
 10
46.6212
 20
4.9573
 10
46.5674
 20
4.942
 10
46.5128
 20
4.9271
 10
46.4574
 20
4.9128
 10
46.4011
 20
4.8988
 10
46.344
 20
4.8854
 10
46.286
 20
4.8724
 10
46.2272
 20
4.8599
 10
46.1675
 20
4.8479
 10
46.107
 20
4.8363
 10
46.0456
 20
4.8253
 10
45.9834
 20
4.8146
 10
45.9203
 20
4.8045
 10
45.8564
 20
4.7948
 10
45.7916
 20
4.7856
 10
45.726
 20
4.7769
 10
45.6596
 20
4.7686
 10
45.5923
 20
4.7609
 10
45.5241
 20
4.7535
 10
45.4551
 20
4.7467
 10
45.3853
 20
4.7403
 10
45.3146
 20
4.7344
 10
45.2431
 20
4.729
 10
45.1707
 20
4.7241
 10
45.0975
 20
4.7196
 10
45.0234
 20
4.7156
 10
44.9485
 20
4.712
 10
44.8727
 20
4.709
 10
44.7961
 20
4.7064
 10
44.7186
 20
4.7042
 10
44.6403
 20
4.7026
 10
44.5612
 20
4.7014
  0
LWPOLYLINE
  5
4E
330
17
100
AcDbEntity
  8
OUTLINE
100
AcDbPolyline
 90
192
 70
1
 10
63.0406
 20
4.7025
 10
62.8941
 20
4.7005
 10
62.7481
 20
4.7025
 10
62.6049
 20
4.7088
 10
62.4647
 20
4.7192
 10
62.3273
 20
4.7337
 10
62.1929
 20
4.7524
 10
62.0613
 20
4.7752
 10
61.9326
 20
4.8022
 10
61.8069
 20
4.8333
 10
61.684
 20
4.8686
 10
61.564
 20
4.9081
 10
61.447
 20
4.9517
 10
61.3328
 20
4.9994
 10
61.2215
 20
5.0513
 10
61.1131
 20
5.1074
 10
61.0077
 20
5.1676
 10
60.9051
 20
5.232
 10
60.8054
 20
5.3005
 10
60.7086
 20
5.3731
 10
60.6147
 20
5.4499
 10
60.5237
 20
5.5309
 10
60.4356
 20
5.616
 10
60.3505
 20
5.7053
 10
60.2703
 20
5.7962
 10
60.1991
 20
5.8833
 10
60.1308
 20
5.9731
 10
60.0653
 20
6.0658
 10
60.0028
 20
6.1612
 10
59.9432
 20
6.2593
 10
59.8865
 20
6.3602
 10
59.8328
 20
6.4639
 10
59.7819
 20
6.5703
 10
59.7339
 20
6.6794
 10
59.6889
 20
6.7914
 10
59.6467
 20
6.9061
 10
59.6075
 20
7.0235
 10
59.5712
 20
7.1437
 10
59.5378
 20
7.2667
 10
59.5073
 20
7.3924
 10
59.4797
 20
7.5209
 10
59.455
 20
7.6521
 10
59.4332
 20
7.7861
 10
59.4144
 20
7.9228
 10
59.3984
 20
8.0624
 10
59.3854
 20
8.2046
 10
59.3752
 20
8.3496
 10
59.368
 20
8.4974
 10
59.3637
 20
8.648
 10
59.3623
 20
8.8013
 10
59.3638
 20
8.9549
 10
59.3682
 20
9.1057
 10
59.3755
 20
9.2537
 10
59.3857
 20
9.3989
 10
59.3988
 20
9.5414
 10
59.4148
 20
9.6811
 10
59.4338
 20
9.8179
 10
59.4556
 20
9.952
 10
59.4803
 20
10.0833
 10
59.5079
 20
10.2118
 10
59.5385
 20
10.3376
 10
59.5719
 20
10.4605
 10
59.6082
 20
10.5807
 10
59.6475
 20
10.698
 10
59.6896
 20
10.8126
 10
59.7347
 20
10.9244
 10
59.7826
 20
11.0334
 10
59.8335
 20
11.1396
 10
59.8872
 20
11.2431
 10
59.9439
 20
11.3437
 10
60.0034
 20
11.4416
 10
60.0659
 20
11.5367
 10
60.1313
 20
11.6289
 10
60.1995
 20
11.7184
 10
60.2707
 20
11.8052
 10
60.3509
 20
11.8958
 10
60.4361
 20
11.9848
 10
60.5243
 20
12.0696
 10
60.6154
 20
12.1504
 10
60.7093
 20
12.2269
 10
60.8062
 20
12.2994
 10
60.906
 20
12.3677
 10
61.0086
 20
12.4318
 10
61.1142
 20
12.4918
 10
61.2227
 20
12.5477
 10
61.3341
 20
12.5994
 10
61.4483
 20
12.647
 10
61.5655
 20
12.6904
 10
61.6856
 20
12.7297
 10
61.8086
 20
12.7648
 10
61.9345
 20
12.7958
 10
62.0633
 20
12.8227
 10
62.1949
 20
12.8454
 10
62.3295
 20
12.864
 10
62.467
 20
12.8784
 10
62.6074
 20
12.8887
 10
62.7507
 20
12.8948
 10
62.8969
 20
12.8968
 10
63.0434
 20
12.8947
 10
63.187
 20
12.8884
 10
63.3276
 20
12.878
 10
63.4653
 20
12.8634
 10
63.6001
 20
12.8448
 10
63.7319
 20
12.822
 10
63.8608
 20
12.795
 10
63.9868
 20
12.764
 10
64.1098
 20
12.7287
 10
64.2299
 20
12.6894
 10
64.3471
 20
12.6459
 10
64.4613
 20
12.5983
 10
64.5726
 20
12.5466
 10
64.6809
 20
12.4907
 10
64.7863
 20
12.4307
 10
64.8888
 20
12.3666
 10
64.9883
 20
12.2984
 10
65.0849
 20
12.226
 10
65.1786
 20
12.1494
 10
65.2693
 20
12.0688
 10
65.3571
 20
11.984
 10
65.4419
 20
11.8951
 10
65.5217
 20
11.8046
 10
65.5926
 20
11.7178
 10
65.6606
 20
11.6282
 10
65.7257
 20
11.5359
 10
65.7879
 20
11.4407
 10
65.8472
 20
11.3428
 10
65.9037
 20
11.2421
 10
65.9572
 20
11.1386
 10
66.0078
 20
11.0323
 10
66.0556
 20
10.9232
 10
66.1004
 20
10.8113
 10
66.1424
 20
10.6966
 10
66.1815
 20
10.5792
 10
66.2176
 20
10.4589
 10
66.2509
 20
10.3359
 10
66.2813
 20
10.2101
 10
66.3088
 20
10.0814
 10
66.3334
 20
9.95
 10
66.3551
 20
9.8158
 10
66.3739
 20
9.6789
 10
66.3898
 20
9.5391
 10
66.4028
 20
9.3965
 10
66.4129
 20
9.2512
 10
66.4202
 20
9.103
 10
66.4245
 20
8.9521
 10
66.426
 20
8.7984
 10
66.4245
 20
8.645
 10
66.4201
 20
8.4945
 10
66.4129
 20
8.3467
 10
66.4027
 20
8.2017
 10
66.3897
 20
8.0594
 10
66.3737
 20
7.9199
 10
66.3549
 20
7.7831
 10
66.3331
 20
7.6491
 10
66.3084
 20
7.5179
 10
66.2809
 20
7.3894
 10
66.2504
 20
7.2637
 10
66.217
 20
7.1407
 10
66.1808
 20
7.0205
 10
66.1416
 20
6.9031
 10
66.0995
 20
6.7884
 10
66.0546
 20
6.6765
 10
66.0067
 20
6.5674
 10
65.9559
 20
6.461
 10
65.9023
 20
6.3574
 10
65.8457
 20
6.2565
 10
65.7862
 20
6.1584
 10
65.7238
 20
6.063
 10
65.6586
 20
5.9704
 10
65.5904
 20
5.8806
 10
65.5193
 20
5.7935
 10
65.4392
 20
5.7026
 10
65.3543
 20
5.6136
 10
65.2665
 20
5.5287
 10
65.1758
 20
5.4479
 10
65.0821
 20
5.3713
 10
64.9854
 20
5.2988
 10
64.8859
 20
5.2305
 10
64.7834
 20
5.1663
 10
64.678
 20
5.1063
 10
64.5696
 20
5.0504
 10
64.4583
 20
4.9986
 10
64.3441
 20
4.951
 10
64.227
 20
4.9075
 10
64.1069
 20
4.8682
 10
63.9839
 20
4.833
 10
63.8579
 20
4.8019
 10
63.729
 20
4.775
 10
63.5972
 20
4.7522
 10
63.4625
 20
4.7336
 10
63.3248
 20
4.7191
 10
63.1842
 20
4.7088
  0
LWPOLYLINE
  5
4F
330
17
100
AcDbEntity
  8
OUTLINE
100
AcDbPolyline
 90
192
 70
1
 10
62.8201
 20
6.4156
 10
62.8941
 20
6.4142
 10
62.9686
 20
6.4156
 10
63.0415
 20
6.4199
 10
63.1127
 20
6.4269
 10
63.1822
 20
6.4368
 10
63.2501
 20
6.4496
 10
63.3163
 20
6.4651
 10
63.3808
 20
6.4835
 10
63.4437
 20
6.5048
 10
63.5049
 20
6.5288
 10
63.5645
 20
6.5557
 10
63.6224
 20
6.5855
 10
63.6786
 20
6.618
 10
63.7332
 20
6.6534
 10
63.7861
 20
6.6916
 10
63.8374
 20
6.7327
 10
63.887
 20
6.7765
 10
63.9349
 20
6.8232
 10
63.9812
 20
6.8728
 10
64.0258
 20
6.9251
 10
64.0687
 20
6.9803
 10
64.1097
 20
7.0379
 10
64.1405
 20
7.0847
 10
64.1701
 20
7.1329
 10
64.1986
 20
7.1825
 10
64.2259
 20
7.2335
 10
64.252
 20
7.2859
 10
64.277
 20
7.3397
 10
64.3008
 20
7.395
 10
64.3235
 20
7.4516
 10
64.345
 20
7.5097
 10
64.3653
 20
7.5692
 10
64.3845
 20
7.6301
 10
64.4025
 20
7.6925
 10
64.4194
 20
7.7562
 10
64.4351
 20
7.8214
 10
64.4496
 20
7.8879
 10
64.463
 20
7.9559
 10
64.4752
 20
8.0253
 10
64.4862
 20
8.0961
 10
64.4961
 20
8.1683
 10
64.5048
 20
8.242
 10
64.5124
 20
8.317
 10
64.5188
 20
8.3935
 10
64.5241
 20
8.4714
 10
64.5281
 20
8.5507
 10
64.5311
 20
8.6314
 10
64.5328
 20
8.7135
 10
64.5334
 20
8.7971
 10
64.5329
 20
8.881
 10
64.5311
 20
8.9634
 10
64.5282
 20
9.0445
 10
64.5242
 20
9.1241
 10
64.519
 20
9.2022
 10
64.5126
 20
9.2789
 10
64.505
 20
9.3542
 10
64.4963
 20
9.4281
 10
64.4864
 20
9.5005
 10
64.4754
 20
9.5714
 10
64.4632
 20
9.641
 10
64.4498
 20
9.709
 10
64.4353
 20
9.7757
 10
64.4196
 20
9.8409
 10
64.4027
 20
9.9047
 10
64.3847
 20
9.967
 10
64.3655
 20
10.0279
 10
64.3451
 20
10.0874
 10
64.3236
 20
10.1454
 10
64.3009
 20
10.202
 10
64.277
 20
10.2572
 10
64.252
 20
10.3109
 10
64.2258
 20
10.3631
 10
64.1985
 20
10.414
 10
64.17
 20
10.4634
 10
64.1403
 20
10.5113
 10
64.1095
 20
10.5579
 10
64.0692
 20
10.6141
 10
64.026
 20
10.6695
 10
63.9811
 20
10.7221
 10
63.9346
 20
10.7718
 10
63.8865
 20
10.8187
 10
63.8368
 20
10.8628
 10
63.7854
 20
10.904
 10
63.7324
 20
10.9423
 10
63.6778
 20
10.9779
 10
63.6215
 20
11.0106
 10
63.5637
 20
11.0404
 10
63.5042
 20
11.0675
 10
63.4431
 20
11.0916
 10
63.3803
 20
11.113
 10
63.3159
 20
11.1315
 10
63.25
 20
11.1472
 10
63.1823
 20
11.16
 10
63.1131
 20
11.17
 10
63.0422
 20
11.1771
 10
62.9697
 20
11.1814
 10
62.8956
 20
11.1829
 10
62.8214
 20
11.1815
 10
62.7489
 20
11.1773
 10
62.6779
 20
11.1703
 10
62.6086
 20
11.1604
 10
62.5409
 20
11.1477
 10
62.4749
 20
11.1322
 10
62.4105
 20
11.1138
 10
62.3476
 20
11.0925
 10
62.2865
 20
11.0685
 10
62.2269
 20
11.0416
 10
62.169
 20
11.0118
 10
62.1127
 20
10.9792
 10
62.058
 20
10.9438
 10
62.0049
 20
10.9055
 10
61.9535
 20
10.8644
 10
61.9037
 20
10.8205
 10
61.8555
 20
10.7737
 10
61.809
 20
10.7241
 10
61.764
 20
10.6717
 10
61.7207
 20
10.6164
 10
61.68
 20
10.5597
 10
61.6491
 20
10.5132
 10
61.6194
 20
10.4653
 10
61.5909
 20
10.416
 10
61.5635
 20
10.3652
 10
61.5372
 20
10.313
 10
61.5122
 20
10.2593
 10
61.4883
 20
10.2042
 10
61.4655
 20
10.1477
 10
61.444
 20
10.0897
 10
61.4236
 20
10.0303
 10
61.4043
 20
9.9695
 10
61.3862
 20
9.9072
 10
61.3693
 20
9.8435
 10
61.3536
 20
9.7783
 10
61.339
 20
9.7117
 10
61.3256
 20
9.6437
 10
61.3133
 20
9.5742
 10
61.3022
 20
9.5033
 10
61.2923
 20
9.431
 10
61.2835
 20
9.3572
 10
61.2759
 20
9.282
 10
61.2695
 20
9.2053
 10
61.2642
 20
9.1272
 10
61.2601
 20
9.0477
 10
61.2572
 20
8.9667
 10
61.2554
 20
8.8843
 10
61.2548
 20
8.8004
 10
61.2554
 20
8.7169
 10
61.2571
 20
8.6348
 10
61.26
 20
8.554
 10
61.2641
 20
8.4747
 10
61.2693
 20
8.3968
 10
61.2757
 20
8.3204
 10
61.2833
 20
8.2453
 10
61.292
 20
8.1716
 10
61.3019
 20
8.0994
 10
61.313
 20
8.0286
 10
61.3253
 20
7.9592
 10
61.3387
 20
7.8912
 10
61.3533
 20
7.8246
 10
61.3691
 20
7.7594
 10
61.386
 20
7.6956
 10
61.4041
 20
7.6333
 10
61.4234
 20
7.5723
 10
61.4438
 20
7.5128
 10
61.4654
 20
7.4547
 10
61.4882
 20
7.398
 10
61.5121
 20
7.3427
 10
61.5373
 20
7.2888
 10
61.5636
 20
7.2364
 10
61.591
 20
7.1853
 10
61.6196
 20
7.1357
 10
61.6494
 20
7.0874
 10
61.6804
 20
7.0406
 10
61.7212
 20
6.9835
 10
61.7644
 20
6.928
 10
61.8093
 20
6.8754
 10
61.8558
 20
6.8255
 10
61.9039
 20
6.7786
 10
61.9537
 20
6.7344
 10
62.005
 20
6.6932
 10
62.058
 20
6.6547
 10
62.1126
 20
6.6192
 10
62.1688
 20
6.5864
 10
62.2266
 20
6.5565
 10
62.2861
 20
6.5295
 10
62.3472
 20
6.5053
 10
62.4099
 20
6.4839
 10
62.4742
 20
6.4654
 10
62.5401
 20
6.4498
 10
62.6077
 20
6.437
 10
62.6769
 20
6.427
 10
62.7477
 20
6.4199
  0
LWPOLYLINE
  5
50
330
17
100
AcDbEntity
  8
OUTLINE
100
AcDbPolyline
 90
303
 70
1
 10
55.3908
 20
12.4972
 10
55.3908
 20
12.372
 10
55.3908
 20
12.3008
 10
55.3908
 20
12.2467
 10
55.3908
 20
12.1214
 10
55.3908
 20
12.1073
 10
55.3908
 20
11.9961
 10
55.3908
 20
11.9139
 10
55.3908
 20
11.8709
 10
55.3908
 20
11.7456
 10
55.3908
 20
11.7205
 10
55.3908
 20
11.6203
 10
55.3908
 20
11.5271
 10
55.3908
 20
11.4951
 10
55.3908
 20
11.3698
 10
55.3908
 20
11.3336
 10
55.3908
 20
11.2445
 10
55.3908
 20
11.1402
 10
55.3908
 20
11.1192
 10
55.3908
 20
10.9468
 10
55.3908
 20
10.7534
 10
55.3908
 20
10.5599
 10
55.3908
 20
10.3665
 10
55.3908
 20
10.1731
 10
55.3908
 20
9.9797
 10
55.3908
 20
9.7862
 10
55.3908
 20
9.5928
 10
55.3908
 20
9.3994
 10
55.3908
 20
9.206
 10
55.3908
 20
9.0125
 10
55.3908
 20
8.8191
 10
55.3908
 20
8.6257
 10
55.3908
 20
8.4323
 10
55.3908
 20
8.2388
 10
55.3908
 20
8.0454
 10
55.3908
 20
7.852
 10
55.3908
 20
7.6586
 10
55.3908
 20
7.4651
 10
55.3908
 20
7.2717
 10
55.3908
 20
7.0783
 10
55.3908
 20
6.8849
 10
55.3908
 20
6.6914
 10
55.3908
 20
6.5186
 10
55.408
 20
6.5186
 10
55.4954
 20
6.5186
 10
55.5828
 20
6.5186
 10
55.6702
 20
6.5186
 10
55.7576
 20
6.5186
 10
55.845
 20
6.5186
 10
55.9324
 20
6.5186
 10
56.0198
 20
6.5186
 10
56.1072
 20
6.5186
 10
56.1946
 20
6.5186
 10
56.282
 20
6.5186
 10
56.3694
 20
6.5186
 10
56.4568
 20
6.5186
 10
56.5442
 20
6.5186
 10
56.6316
 20
6.5186
 10
56.719
 20
6.5186
 10
56.8064
 20
6.5186
 10
56.8938
 20
6.5186
 10
56.9812
 20
6.5186
 10
57.0686
 20
6.5186
 10
57.156
 20
6.5186
 10
57.2434
 20
6.5186
 10
57.3308
 20
6.5186
 10
57.4182
 20
6.5186
 10
57.5056
 20
6.5186
 10
57.593
 20
6.5186
 10
57.6804
 20
6.5186
 10
57.7678
 20
6.5186
 10
57.7678
 20
6.4312
 10
57.7678
 20
6.3438
 10
57.7678
 20
6.2564
 10
57.7678
 20
6.169
 10
57.7678
 20
6.0816
 10
57.7678
 20
5.9942
 10
57.7678
 20
5.9068
 10
57.7678
 20
5.8194
 10
57.7678
 20
5.732
 10
57.7678
 20
5.6446
 10
57.7678
 20
5.5572
 10
57.7678
 20
5.4698
 10
57.7678
 20
5.3824
 10
57.7678
 20
5.295
 10
57.7678
 20
5.2076
 10
57.7678
 20
5.1202
 10
57.7678
 20
5.0328
 10
57.7678
 20
4.9454
 10
57.7678
 20
4.858
 10
57.6889
 20
4.8495
 10
57.6015
 20
4.8495
 10
57.5141
 20
4.8495
 10
57.4267
 20
4.8495
 10
57.3393
 20
4.8495
 10
57.2519
 20
4.8495
 10
57.1645
 20
4.8495
 10
57.0772
 20
4.8495
 10
56.9898
 20
4.8495
 10
56.9024
 20
4.8495
 10
56.815
 20
4.8495
 10
56.7276
 20
4.8495
 10
56.6402
 20
4.8495
 10
56.5528
 20
4.8495
 10
56.4654
 20
4.8495
 10
56.378
 20
4.8495
 10
56.2906
 20
4.8495
 10
56.2032
 20
4.8495
 10
56.1158
 20
4.8495
 10
56.0284
 20
4.8495
 10
55.941
 20
4.8495
 10
55.8536
 20
4.8495
 10
55.7662
 20
4.8495
 10
55.6788
 20
4.8495
 10
55.5914
 20
4.8495
 10
55.504
 20
4.8495
 10
55.4166
 20
4.8495
 10
55.3292
 20
4.8495
 10
55.2985
 20
4.8495
 10
55.2418
 20
4.8495
 10
55.1051
 20
4.8495
 10
54.9117
 20
4.8495
 10
54.7183
 20
4.8495
 10
54.5248
 20
4.8495
 10
54.3314
 20
4.8495
 10
54.138
 20
4.8495
 10
53.9446
 20
4.8495
 10
53.7511
 20
4.8495
 10
53.6844
 20
4.8495
 10
53.5849
 20
4.8495
 10
53.5577
 20
4.8495
 10
53.4854
 20
4.8495
 10
53.3859
 20
4.8495
 10
53.2864
 20
4.8495
 10
53.1869
 20
4.8495
 10
53.0874
 20
4.8495
 10
52.9879
 20
4.8495
 10
52.8884
 20
4.8495
 10
52.7888
 20
4.8495
 10
52.6893
 20
4.8495
 10
52.5898
 20
4.8495
 10
52.4903
 20
4.8495
 10
52.3908
 20
4.8495
 10
52.2913
 20
4.8495
 10
52.1918
 20
4.8495
 10
52.0923
 20
4.8495
 10
51.9928
 20
4.8495
 10
51.8933
 20
4.8495
 10
51.7938
 20
4.8495
 10
51.6943
 20
4.8495
 10
51.5948
 20
4.8495
 10
51.4953
 20
4.8495
 10
51.3958
 20
4.8495
 10
51.2963
 20
4.8495
 10
51.1967
 20
4.8495
 10
51.0972
 20
4.8495
 10
50.9977
 20
4.8495
 10
50.8982
 20
4.8495
 10
50.7987
 20
4.8495
 10
50.6992
 20
4.8495
 10
50.5997
 20
4.8495
 10
50.5997
 20
4.949
 10
50.5997
 20
5.0485
 10
50.5997
 20
5.148
 10
50.5997
 20
5.2475
 10
50.5997
 20
5.347
 10
50.5997
 20
5.4465
 10
50.5997
 20
5.546
 10
50.5997
 20
5.6455
 10
50.5997
 20
5.745
 10
50.5997
 20
5.8445
 10
50.5997
 20
5.9441
 10
50.5997
 20
6.0436
 10
50.5997
 20
6.1431
 10
50.5997
 20
6.2426
 10
50.5997
 20
6.3421
 10
50.5997
 20
6.4416
 10
50.6222
 20
6.5186
 10
50.7217
 20
6.5186
 10
50.8212
 20
6.5186
 10
50.9207
 20
6.5186
 10
51.0202
 20
6.5186
 10
51.1197
 20
6.5186
 10
51.2192
 20
6.5186
 10
51.3188
 20
6.5186
 10
51.4183
 20
6.5186
 10
51.5178
 20
6.5186
 10
51.6173
 20
6.5186
 10
51.7168
 20
6.5186
 10
51.8163
 20
6.5186
 10
51.9158
 20
6.5186
 10
52.0153
 20
6.5186
 10
52.1148
 20
6.5186
 10
52.2143
 20
6.5186
 10
52.3138
 20
6.5186
 10
52.4133
 20
6.5186
 10
52.5128
 20
6.5186
 10
52.6123
 20
6.5186
 10
52.7118
 20
6.5186
 10
52.8113
 20
6.5186
 10
52.9109
 20
6.5186
 10
53.0104
 20
6.5186
 10
53.1099
 20
6.5186
 10
53.2094
 20
6.5186
 10
53.3089
 20
6.5186
 10
53.4084
 20
6.5186
 10
53.5079
 20
6.5186
 10
53.5577
 20
6.5186
 10
53.5577
 20
6.5903
 10
53.5577
 20
6.7837
 10
53.5577
 20
6.9772
 10
53.5577
 20
7.1706
 10
53.5577
 20
7.364
 10
53.5577
 20
7.5574
 10
53.5577
 20
7.7509
 10
53.5577
 20
7.9443
 10
53.5577
 20
8.1377
 10
53.5577
 20
8.3311
 10
53.5577
 20
8.5246
 10
53.5577
 20
8.718
 10
53.5577
 20
8.9114
 10
53.5577
 20
9.1048
 10
53.5577
 20
9.2983
 10
53.5577
 20
9.4917
 10
53.5577
 20
9.6851
 10
53.5577
 20
9.8785
 10
53.5577
 20
10.072
 10
53.5577
 20
10.2654
 10
53.5577
 20
10.4588
 10
53.5577
 20
10.6522
 10
53.5577
 20
10.8456
 10
53.5577
 20
11.0391
 10
53.5577
 20
11.0787
 10
53.5522
 20
11.0787
 10
53.427
 20
11.0787
 10
53.3017
 20
11.0787
 10
53.1764
 20
11.0787
 10
53.0511
 20
11.0787
 10
52.9259
 20
11.0787
 10
52.8006
 20
11.0787
 10
52.6753
 20
11.0787
 10
52.55
 20
11.0787
 10
52.4248
 20
11.0787
 10
52.2995
 20
11.0787
 10
52.1742
 20
11.0787
 10
52.0489
 20
11.0787
 10
51.9237
 20
11.0787
 10
51.7984
 20
11.0787
 10
51.6731
 20
11.0787
 10
51.5478
 20
11.0787
 10
51.4226
 20
11.0787
 10
51.2973
 20
11.0787
 10
51.172
 20
11.0787
 10
51.0467
 20
11.0787
 10
51.0467
 20
11.204
 10
51.0467
 20
11.3292
 10
51.0467
 20
11.4545
 10
51.0467
 20
11.5798
 10
51.0467
 20
11.7051
 10
51.0467
 20
11.8303
 10
51.0467
 20
11.9556
 10
51.0467
 20
12.0809
 10
51.0467
 20
12.2062
 10
51.0467
 20
12.3314
 10
51.0467
 20
12.4567
 10
51.0467
 20
12.582
 10
51.0467
 20
12.7073
 10
51.1315
 20
12.7478
 10
51.2568
 20
12.7478
 10
51.382
 20
12.7478
 10
51.5073
 20
12.7478
 10
51.6326
 20
12.7478
 10
51.7579
 20
12.7478
 10
51.8831
 20
12.7478
 10
52.0084
 20
12.7478
 10
52.1337
 20
12.7478
 10
52.259
 20
12.7478
 10
52.3842
 20
12.7478
 10
52.5095
 20
12.7478
 10
52.6348
 20
12.7478
 10
52.7601
 20
12.7478
 10
52.8853
 20
12.7478
 10
53.0106
 20
12.7478
 10
53.1359
 20
12.7478
 10
53.2612
 20
12.7478
 10
53.3864
 20
12.7478
 10
53.5117
 20
12.7478
 10
53.637
 20
12.7478
 10
53.7623
 20
12.7478
 10
53.8875
 20
12.7478
 10
54.0128
 20
12.7478
 10
54.1381
 20
12.7478
 10
54.2633
 20
12.7478
 10
54.3886
 20
12.7478
 10
54.5139
 20
12.7478
 10
54.6392
 20
12.7478
 10
54.7644
 20
12.7478
 10
54.8897
 20
12.7478
 10
55.015
 20
12.7478
 10
55.1403
 20
12.7478
 10
55.2655
 20
12.7478
 10
55.3908
 20
12.7478
 10
55.3908
 20
12.6225
  0
LWPOLYLINE
  5
51
330
17
100
AcDbEntity
  8
OUTLINE
100
AcDbPolyline
 90
246
 70
1
 10
24.1051
 20
15.4302
 10
24.173
 20
15.4302
 10
24.2886
 20
15.4302
 10
24.4309
 20
15.4302
 10
24.4721
 20
15.4302
 10
24.6556
 20
15.4302
 10
24.6887
 20
15.4302
 10
24.8391
 20
15.4302
 10
24.9466
 20
15.4302
 10
25.0226
 20
15.4302
 10
25.2044
 20
15.4302
 10
25.206
 20
15.4302
 10
25.3895
 20
15.4302
 10
25.4622
 20
15.4302
 10
25.573
 20
15.4302
 10
25.7201
 20
15.4302
 10
25.7565
 20
15.4302
 10
25.94
 20
15.4302
 10
26.1235
 20
15.4302
 10
26.307
 20
15.4302
 10
26.4904
 20
15.4302
 10
26.6739
 20
15.4302
 10
26.8574
 20
15.4302
 10
27.0409
 20
15.4302
 10
27.2244
 20
15.4302
 10
27.4079
 20
15.4302
 10
27.5914
 20
15.4302
 10
27.7749
 20
15.4302
 10
27.9583
 20
15.4302
 10
28.1418
 20
15.4302
 10
28.3253
 20
15.4302
 10
28.5088
 20
15.4302
 10
28.6923
 20
15.4302
 10
28.8758
 20
15.4302
 10
29.0593
 20
15.4302
 10
29.2427
 20
15.4302
 10
29.4262
 20
15.4302
 10
29.6097
 20
15.4302
 10
29.7932
 20
15.4302
 10
29.9767
 20
15.4302
 10
30.1602
 20
15.4302
 10
30.3437
 20
15.4302
 10
30.5272
 20
15.4302
 10
30.7106
 20
15.4302
 10
30.8941
 20
15.4302
 10
31.0776
 20
15.4302
 10
31.0776
 20
15.2467
 10
31.0776
 20
15.0632
 10
31.0776
 20
14.8797
 10
31.0776
 20
14.6962
 10
31.0776
 20
14.5127
 10
31.0776
 20
14.3293
 10
31.0776
 20
14.1458
 10
31.0776
 20
13.9623
 10
31.0776
 20
13.7788
 10
30.8969
 20
13.7761
 10
30.7134
 20
13.7761
 10
30.5299
 20
13.7761
 10
30.3464
 20
13.7761
 10
30.1629
 20
13.7761
 10
29.9794
 20
13.7761
 10
29.7959
 20
13.7761
 10
29.6125
 20
13.7761
 10
29.429
 20
13.7761
 10
29.2455
 20
13.7761
 10
29.062
 20
13.7761
 10
28.8785
 20
13.7761
 10
28.695
 20
13.7761
 10
28.5115
 20
13.7761
 10
28.328
 20
13.7761
 10
28.1446
 20
13.7761
 10
27.9611
 20
13.7761
 10
27.7776
 20
13.7761
 10
27.5941
 20
13.7761
 10
27.4106
 20
13.7761
 10
27.2271
 20
13.7761
 10
27.0436
 20
13.7761
 10
26.8602
 20
13.7761
 10
26.6767
 20
13.7761
 10
26.4932
 20
13.7761
 10
26.3097
 20
13.7761
 10
26.1262
 20
13.7761
 10
25.9427
 20
13.7761
 10
25.7592
 20
13.7761
 10
25.7201
 20
13.7761
 10
25.7201
 20
13.6253
 10
25.7201
 20
13.3674
 10
25.7201
 20
13.1096
 10
25.7201
 20
12.8518
 10
25.7201
 20
12.5939
 10
25.7201
 20
12.3361
 10
25.7201
 20
12.0782
 10
25.7201
 20
11.8204
 10
25.7201
 20
11.5626
 10
25.7201
 20
11.3047
 10
25.7201
 20
11.0469
 10
25.7201
 20
10.789
 10
25.7201
 20
10.5347
 10
25.8081
 20
10.5347
 10
25.9623
 20
10.5347
 10
26.1164
 20
10.5347
 10
26.2706
 20
10.5347
 10
26.4247
 20
10.5347
 10
26.5789
 20
10.5347
 10
26.733
 20
10.5347
 10
26.8872
 20
10.5347
 10
27.0413
 20
10.5347
 10
27.1954
 20
10.5347
 10
27.3496
 20
10.5347
 10
27.5037
 20
10.5347
 10
27.6579
 20
10.5347
 10
27.812
 20
10.5347
 10
27.9662
 20
10.5347
 10
28.1203
 20
10.5347
 10
28.2745
 20
10.5347
 10
28.4286
 20
10.5347
 10
28.5827
 20
10.5347
 10
28.7369
 20
10.5347
 10
28.891
 20
10.5347
 10
29.0452
 20
10.5347
 10
29.1993
 20
10.5347
 10
29.3535
 20
10.5347
 10
29.5076
 20
10.5347
 10
29.6617
 20
10.5347
 10
29.6617
 20
10.3805
 10
29.6617
 20
10.2264
 10
29.6617
 20
10.0722
 10
29.6617
 20
9.9181
 10
29.6617
 20
9.764
 10
29.6617
 20
9.6098
 10
29.6617
 20
9.4557
 10
29.6617
 20
9.3015
 10
29.6617
 20
9.1474
 10
29.6617
 20
8.9932
 10
29.6277
 20
8.8731
 10
29.4735
 20
8.8731
 10
29.3194
 20
8.8731
 10
29.1653
 20
8.8731
 10
29.0111
 20
8.8731
 10
28.857
 20
8.8731
 10
28.7028
 20
8.8731
 10
28.5487
 20
8.8731
 10
28.3945
 20
8.8731
 10
28.2404
 20
8.8731
 10
28.0862
 20
8.8731
 10
27.9321
 20
8.8731
 10
27.778
 20
8.8731
 10
27.6238
 20
8.8731
 10
27.4697
 20
8.8731
 10
27.3155
 20
8.8731
 10
27.1614
 20
8.8731
 10
27.0072
 20
8.8731
 10
26.8531
 20
8.8731
 10
26.699
 20
8.8731
 10
26.5448
 20
8.8731
 10
26.3907
 20
8.8731
 10
26.2365
 20
8.8731
 10
26.0824
 20
8.8731
 10
25.9282
 20
8.8731
 10
25.7741
 20
8.8731
 10
25.7201
 20
8.8731
 10
25.7201
 20
8.7263
 10
25.7201
 20
8.4684
 10
25.7201
 20
8.2106
 10
25.7201
 20
7.9528
 10
25.7201
 20
7.6949
 10
25.7201
 20
7.4371
 10
25.7201
 20
7.1792
 10
25.7201
 20
6.9214
 10
25.7201
 20
6.6636
 10
25.7201
 20
6.4057
 10
25.7201
 20
6.1479
 10
25.7201
 20
5.89
 10
25.7201
 20
5.6322
 10
25.7201
 20
5.3743
 10
25.7201
 20
5.1165
 10
25.7201
 20
4.8587
 10
25.4714
 20
4.8495
 10
25.2136
 20
4.8495
 10
24.9557
 20
4.8495
 10
24.6979
 20
4.8495
 10
24.44
 20
4.8495
 10
24.1822
 20
4.8495
 10
23.9244
 20
4.8495
 10
23.9244
 20
5.1073
 10
23.9244
 20
5.3652
 10
23.9244
 20
5.623
 10
23.9244
 20
5.8809
 10
23.9244
 20
6.1387
 10
23.9244
 20
6.3965
 10
23.9244
 20
6.6544
 10
23.9244
 20
6.9122
 10
23.9244
 20
7.1701
 10
23.9244
 20
7.4279
 10
23.9244
 20
7.6857
 10
23.9244
 20
7.9436
 10
23.9244
 20
8.2014
 10
23.9244
 20
8.4593
 10
23.9244
 20
8.7171
 10
23.9244
 20
8.8731
 10
23.9244
 20
8.975
 10
23.9244
 20
9.0273
 10
23.9244
 20
9.1814
 10
23.9244
 20
9.2328
 10
23.9244
 20
9.3356
 10
23.9244
 20
9.4897
 10
23.9244
 20
9.4906
 10
23.9244
 20
9.6439
 10
23.9244
 20
9.7485
 10
23.9244
 20
9.798
 10
23.9244
 20
9.9522
 10
23.9244
 20
10.0063
 10
23.9244
 20
10.1063
 10
23.9244
 20
10.2604
 10
23.9244
 20
10.2642
 10
23.9244
 20
10.4146
 10
23.9244
 20
10.522
 10
23.9244
 20
10.7799
 10
23.9244
 20
11.0377
 10
23.9244
 20
11.2955
 10
23.9244
 20
11.5534
 10
23.9244
 20
11.8112
 10
23.9244
 20
12.0691
 10
23.9244
 20
12.3269
 10
23.9244
 20
12.5847
 10
23.9244
 20
12.8426
 10
23.9244
 20
13.1004
 10
23.9244
 20
13.3583
 10
23.9244
 20
13.6161
 10
23.9244
 20
13.7761
 10
23.9244
 20
13.874
 10
23.9244
 20
13.9596
 10
23.9244
 20
14.1318
 10
23.9244
 20
14.143
 10
23.9244
 20
14.3265
 10
23.9244
 20
14.3896
 10
23.9244
 20
14.51
 10
23.9244
 20
14.6475
 10
23.9244
 20
14.6935
 10
23.9244
 20
14.877
 10
23.9244
 20
14.9053
 10
23.9244
 20
15.0605
 10
23.9244
 20
15.1632
 10
23.9244
 20
15.244
 10
23.9244
 20
15.421
 10
23.9244
 20
15.4274
  0
LWPOLYLINE
  5
52
330
17
100
AcDbEntity
  8
OUTLINE
100
AcDbPolyline
 90
192
 70
1
 10
54.4866
 20
13.8902
 10
54.4435
 20
13.8885
 10
54.3998
 20
13.8879
 10
54.356
 20
13.8885
 10
54.3129
 20
13.8902
 10
54.2704
 20
13.8932
 10
54.2286
 20
13.8974
 10
54.1874
 20
13.9027
 10
54.1469
 20
13.9093
 10
54.107
 20
13.917
 10
54.0678
 20
13.9259
 10
54.0292
 20
13.9361
 10
53.9912
 20
13.9474
 10
53.9539
 20
13.9598
 10
53.9173
 20
13.9735
 10
53.8813
 20
13.9884
 10
53.8459
 20
14.0045
 10
53.8112
 20
14.0217
 10
53.7771
 20
14.0402
 10
53.7437
 20
14.0598
 10
53.711
 20
14.0806
 10
53.6788
 20
14.1026
 10
53.6474
 20
14.1258
 10
53.6165
 20
14.1502
 10
53.5863
 20
14.1758
 10
53.5568
 20
14.2025
 10
53.5279
 20
14.2305
 10
53.5
 20
14.2594
 10
53.4732
 20
14.2889
 10
53.4476
 20
14.3191
 10
53.4232
 20
14.35
 10
53.4
 20
14.3814
 10
53.378
 20
14.4136
 10
53.3572
 20
14.4463
 10
53.3376
 20
14.4797
 10
53.3191
 20
14.5138
 10
53.3019
 20
14.5485
 10
53.2858
 20
14.5839
 10
53.2709
 20
14.6199
 10
53.2573
 20
14.6565
 10
53.2448
 20
14.6938
 10
53.2335
 20
14.7318
 10
53.2233
 20
14.7704
 10
53.2144
 20
14.8096
 10
53.2067
 20
14.8495
 10
53.2001
 20
14.89
 10
53.1948
 20
14.9312
 10
53.1906
 20
14.973
 10
53.1877
 20
15.0155
 10
53.1859
 20
15.0586
 10
53.1853
 20
15.1024
 10
53.1859
 20
15.1461
 10
53.1877
 20
15.1892
 10
53.1906
 20
15.2317
 10
53.1948
 20
15.2735
 10
53.2001
 20
15.3147
 10
53.2067
 20
15.3552
 10
53.2144
 20
15.3951
 10
53.2233
 20
15.4344
 10
53.2335
 20
15.4729
 10
53.2448
 20
15.5109
 10
53.2573
 20
15.5482
 10
53.2709
 20
15.5848
 10
53.2858
 20
15.6208
 10
53.3019
 20
15.6562
 10
53.3191
 20
15.6909
 10
53.3376
 20
15.725
 10
53.3572
 20
15.7584
 10
53.378
 20
15.7912
 10
53.4
 20
15.8233
 10
53.4232
 20
15.8548
 10
53.4476
 20
15.8856
 10
53.4732
 20
15.9158
 10
53.5
 20
15.9453
 10
53.5279
 20
15.9742
 10
53.5568
 20
16.0022
 10
53.5863
 20
16.0289
 10
53.6165
 20
16.0545
 10
53.6474
 20
16.0789
 10
53.6788
 20
16.1021
 10
53.711
 20
16.1241
 10
53.7437
 20
16.1449
 10
53.7771
 20
16.1646
 10
53.8112
 20
16.183
 10
53.8459
 20
16.2003
 10
53.8813
 20
16.2163
 10
53.9173
 20
16.2312
 10
53.9539
 20
16.2449
 10
53.9912
 20
16.2574
 10
54.0292
 20
16.2687
 10
54.0678
 20
16.2788
 10
54.107
 20
16.2877
 10
54.1469
 20
16.2954
 10
54.1874
 20
16.302
 10
54.2286
 20
16.3073
 10
54.2704
 20
16.3115
 10
54.3129
 20
16.3145
 10
54.356
 20
16.3162
 10
54.3998
 20
16.3168
 10
54.4435
 20
16.3162
 10
54.4866
 20
16.3145
 10
54.5291
 20
16.3115
 10
54.5709
 20
16.3073
 10
54.6121
 20
16.302
 10
54.6526
 20
16.2954
 10
54.6925
 20
16.2877
 10
54.7318
 20
16.2788
 10
54.7704
 20
16.2687
 10
54.8083
 20
16.2574
 10
54.8456
 20
16.2449
 10
54.8822
 20
16.2312
 10
54.9182
 20
16.2163
 10
54.9536
 20
16.2003
 10
54.9883
 20
16.183
 10
55.0224
 20
16.1646
 10
55.0558
 20
16.1449
 10
55.0886
 20
16.1241
 10
55.1207
 20
16.1021
 10
55.1522
 20
16.0789
 10
55.183
 20
16.0545
 10
55.2132
 20
16.0289
 10
55.2427
 20
16.0022
 10
55.2716
 20
15.9742
 10
55.2996
 20
15.9453
 10
55.3263
 20
15.9158
 10
55.3519
 20
15.8856
 10
55.3763
 20
15.8548
 10
55.3995
 20
15.8233
 10
55.4215
 20
15.7912
 10
55.4423
 20
15.7584
 10
55.462
 20
15.725
 10
55.4804
 20
15.6909
 10
55.4977
 20
15.6562
 10
55.5137
 20
15.6208
 10
55.5286
 20
15.5848
 10
55.5423
 20
15.5482
 10
55.5548
 20
15.5109
 10
55.5661
 20
15.4729
 10
55.5762
 20
15.4344
 10
55.5851
 20
15.3951
 10
55.5928
 20
15.3552
 10
55.5994
 20
15.3147
 10
55.6047
 20
15.2735
 10
55.6089
 20
15.2317
 10
55.6119
 20
15.1892
 10
55.6137
 20
15.1461
 10
55.6143
 20
15.1024
 10
55.6137
 20
15.0586
 10
55.6119
 20
15.0155
 10
55.6089
 20
14.973
 10
55.6047
 20
14.9312
 10
55.5994
 20
14.89
 10
55.5928
 20
14.8495
 10
55.5851
 20
14.8096
 10
55.5762
 20
14.7704
 10
55.5661
 20
14.7318
 10
55.5548
 20
14.6938
 10
55.5423
 20
14.6565
 10
55.5286
 20
14.6199
 10
55.5137
 20
14.5839
 10
55.4977
 20
14.5485
 10
55.4804
 20
14.5138
 10
55.462
 20
14.4797
 10
55.4423
 20
14.4463
 10
55.4215
 20
14.4136
 10
55.3995
 20
14.3814
 10
55.3763
 20
14.35
 10
55.3519
 20
14.3191
 10
55.3263
 20
14.2889
 10
55.2996
 20
14.2594
 10
55.2716
 20
14.2305
 10
55.2427
 20
14.2025
 10
55.2132
 20
14.1758
 10
55.183
 20
14.1502
 10
55.1522
 20
14.1258
 10
55.1207
 20
14.1026
 10
55.0886
 20
14.0806
 10
55.0558
 20
14.0598
 10
55.0224
 20
14.0402
 10
54.9883
 20
14.0217
 10
54.9536
 20
14.0045
 10
54.9182
 20
13.9884
 10
54.8822
 20
13.9735
 10
54.8456
 20
13.9598
 10
54.8083
 20
13.9474
 10
54.7704
 20
13.9361
 10
54.7318
 20
13.9259
 10
54.6925
 20
13.917
 10
54.6526
 20
13.9093
 10
54.6121
 20
13.9027
 10
54.5709
 20
13.8974
 10
54.5291
 20
13.8932
  0
LWPOLYLINE
  5
53
330
17
100
AcDbEntity
  8
OUTLINE
100
AcDbPolyline
 90
329
 70
1
 10
88.2441
 20
11.3171
 10
88.2466
 20
11.3171
 10
88.3235
 20
11.3171
 10
88.3756
 20
11.3516
 10
88.392
 20
11.4366
 10
88.4108
 20
11.5192
 10
88.432
 20
11.5995
 10
88.4556
 20
11.6774
 10
88.4816
 20
11.753
 10
88.51
 20
11.8262
 10
88.5408
 20
11.897
 10
88.5739
 20
11.9655
 10
88.6095
 20
12.0317
 10
88.6475
 20
12.0955
 10
88.6879
 20
12.157
 10
88.7307
 20
12.2161
 10
88.7759
 20
12.2728
 10
88.8235
 20
12.3272
 10
88.8735
 20
12.3792
 10
88.9259
 20
12.4289
 10
88.9806
 20
12.4763
 10
89.0348
 20
12.5189
 10
89.0891
 20
12.5578
 10
89.1455
 20
12.5947
 10
89.2041
 20
12.6294
 10
89.2648
 20
12.662
 10
89.3275
 20
12.6924
 10
89.3924
 20
12.7208
 10
89.4594
 20
12.747
 10
89.5286
 20
12.7712
 10
89.5998
 20
12.7932
 10
89.6732
 20
12.813
 10
89.7486
 20
12.8308
 10
89.8262
 20
12.8465
 10
89.9059
 20
12.86
 10
89.9878
 20
12.8714
 10
90.0717
 20
12.8807
 10
90.1578
 20
12.8879
 10
90.2459
 20
12.893
 10
90.3362
 20
12.896
 10
90.428
 20
12.8968
 10
90.515
 20
12.8957
 10
90.6007
 20
12.8928
 10
90.6853
 20
12.8882
 10
90.7687
 20
12.8817
 10
90.8509
 20
12.8735
 10
90.9319
 20
12.8635
 10
91.0118
 20
12.8517
 10
91.0905
 20
12.8381
 10
91.1679
 20
12.8227
 10
91.2442
 20
12.8055
 10
91.3194
 20
12.7865
 10
91.3933
 20
12.7657
 10
91.4661
 20
12.7432
 10
91.5376
 20
12.7188
 10
91.608
 20
12.6927
 10
91.6772
 20
12.6648
 10
91.7453
 20
12.6351
 10
91.8121
 20
12.6036
 10
91.8778
 20
12.5703
 10
91.9423
 20
12.5352
 10
92.0056
 20
12.4983
 10
92.0677
 20
12.4597
 10
92.1286
 20
12.4192
 10
92.1884
 20
12.377
 10
92.2469
 20
12.333
 10
92.3043
 20
12.2872
 10
92.3605
 20
12.2396
 10
92.4156
 20
12.1902
 10
92.4694
 20
12.139
 10
92.5221
 20
12.086
 10
92.5735
 20
12.0313
 10
92.6238
 20
11.9747
 10
92.6729
 20
11.9164
 10
92.7209
 20
11.8562
 10
92.7627
 20
11.801
 10
92.8002
 20
11.7491
 10
92.8368
 20
11.6961
 10
92.8724
 20
11.642
 10
92.9072
 20
11.5869
 10
92.941
 20
11.5307
 10
92.9739
 20
11.4735
 10
93.0059
 20
11.4151
 10
93.037
 20
11.3558
 10
93.0672
 20
11.2953
 10
93.0964
 20
11.2338
 10
93.1248
 20
11.1712
 10
93.1522
 20
11.1076
 10
93.1787
 20
11.0429
 10
93.2043
 20
10.9771
 10
93.2289
 20
10.9103
 10
93.2527
 20
10.8424
 10
93.2755
 20
10.7734
 10
93.2974
 20
10.7034
 10
93.3184
 20
10.6323
 10
93.3385
 20
10.5602
 10
93.3576
 20
10.487
 10
93.3759
 20
10.4127
 10
93.3932
 20
10.3373
 10
93.4096
 20
10.2609
 10
93.4251
 20
10.1834
 10
93.4397
 20
10.1049
 10
93.4533
 20
10.0253
 10
93.4661
 20
9.9446
 10
93.4779
 20
9.8629
 10
93.4888
 20
9.7801
 10
93.4988
 20
9.6962
 10
93.5079
 20
9.6112
 10
93.516
 20
9.5252
 10
93.5233
 20
9.4382
 10
93.5296
 20
9.3501
 10
93.535
 20
9.2609
 10
93.5395
 20
9.1706
 10
93.5431
 20
9.0793
 10
93.5457
 20
8.9869
 10
93.5474
 20
8.8934
 10
93.5483
 20
8.7989
 10
93.5482
 20
8.7037
 10
93.5471
 20
8.6094
 10
93.5451
 20
8.5162
 10
93.5422
 20
8.4241
 10
93.5383
 20
8.333
 10
93.5335
 20
8.2431
 10
93.5277
 20
8.1542
 10
93.521
 20
8.0664
 10
93.5133
 20
7.9797
 10
93.5047
 20
7.8942
 10
93.4951
 20
7.8097
 10
93.4846
 20
7.7262
 10
93.4732
 20
7.6439
 10
93.4608
 20
7.5627
 10
93.4475
 20
7.4825
 10
93.4332
 20
7.4035
 10
93.4179
 20
7.3255
 10
93.4018
 20
7.2486
 10
93.3846
 20
7.1729
 10
93.3666
 20
7.0982
 10
93.3476
 20
7.0246
 10
93.3276
 20
6.952
 10
93.3067
 20
6.8806
 10
93.2848
 20
6.8103
 10
93.262
 20
6.741
 10
93.2383
 20
6.6729
 10
93.2136
 20
6.6058
 10
93.188
 20
6.5398
 10
93.1614
 20
6.4749
 10
93.1339
 20
6.4111
 10
93.1054
 20
6.3484
 10
93.076
 20
6.2868
 10
93.0456
 20
6.2262
 10
93.0143
 20
6.1668
 10
92.982
 20
6.1085
 10
92.9488
 20
6.0512
 10
92.9147
 20
5.995
 10
92.8796
 20
5.9399
 10
92.8436
 20
5.8859
 10
92.8066
 20
5.833
 10
92.7687
 20
5.7812
 10
92.7277
 20
5.7278
 10
92.6796
 20
5.6683
 10
92.6303
 20
5.6105
 10
92.5798
 20
5.5545
 10
92.5281
 20
5.5003
 10
92.4753
 20
5.4479
 10
92.4213
 20
5.3972
 10
92.366
 20
5.3483
 10
92.3096
 20
5.3012
 10
92.252
 20
5.2559
 10
92.1932
 20
5.2124
 10
92.1333
 20
5.1706
 10
92.0721
 20
5.1306
 10
92.0098
 20
5.0924
 10
91.9462
 20
5.0559
 10
91.8815
 20
5.0213
 10
91.8156
 20
4.9884
 10
91.7485
 20
4.9573
 10
91.6802
 20
4.928
 10
91.6108
 20
4.9004
 10
91.5401
 20
4.8747
 10
91.4683
 20
4.8507
 10
91.3952
 20
4.8284
 10
91.321
 20
4.808
 10
91.2456
 20
4.7893
 10
91.169
 20
4.7725
 10
91.0913
 20
4.7573
 10
91.0123
 20
4.744
 10
90.9321
 20
4.7325
 10
90.8508
 20
4.7227
 10
90.7683
 20
4.7147
 10
90.6846
 20
4.7085
 10
90.5997
 20
4.704
 10
90.5136
 20
4.7014
 10
90.4263
 20
4.7005
 10
90.3371
 20
4.7016
 10
90.2498
 20
4.7049
 10
90.1643
 20
4.7105
 10
90.0806
 20
4.7183
 10
89.9989
 20
4.7283
 10
89.9189
 20
4.7405
 10
89.8409
 20
4.755
 10
89.7646
 20
4.7717
 10
89.6903
 20
4.7906
 10
89.6178
 20
4.8118
 10
89.5471
 20
4.8352
 10
89.4783
 20
4.8608
 10
89.4114
 20
4.8886
 10
89.3463
 20
4.9186
 10
89.283
 20
4.9509
 10
89.2216
 20
4.9854
 10
89.1621
 20
5.0222
 10
89.1044
 20
5.0611
 10
89.0486
 20
5.1023
 10
88.9913
 20
5.1486
 10
88.9367
 20
5.1973
 10
88.8846
 20
5.2483
 10
88.8352
 20
5.3017
 10
88.7884
 20
5.3574
 10
88.7443
 20
5.4155
 10
88.7027
 20
5.476
 10
88.6639
 20
5.5387
 10
88.6276
 20
5.6039
 10
88.594
 20
5.6714
 10
88.563
 20
5.7412
 10
88.5347
 20
5.8135
 10
88.509
 20
5.888
 10
88.4859
 20
5.9649
 10
88.4654
 20
6.0442
 10
88.4476
 20
6.1258
 10
88.4324
 20
6.2098
 10
88.408
 20
6.2802
 10
88.331
 20
6.2802
 10
88.2654
 20
6.2802
 10
88.2654
 20
6.1291
 10
88.2654
 20
5.9108
 10
88.2654
 20
5.6926
 10
88.2654
 20
5.4743
 10
88.2654
 20
5.2561
 10
88.2654
 20
5.0378
 10
88.2654
 20
4.8196
 10
88.2654
 20
4.6013
 10
88.2654
 20
4.3831
 10
88.2654
 20
4.1648
 10
88.2654
 20
3.9466
 10
88.2654
 20
3.7283
 10
88.2654
 20
3.5101
 10
88.2654
 20
3.2918
 10
88.2654
 20
3.0736
 10
88.2654
 20
2.8553
 10
88.2654
 20
2.6371
 10
88.2654
 20
2.4188
 10
88.2654
 20
2.2005
 10
88.2654
 20
1.9823
 10
88.2654
 20
1.764
 10
88.2654
 20
1.5458
 10
88.1711
 20
1.4219
 10
87.9528
 20
1.4219
 10
87.7346
 20
1.4219
 10
87.5163
 20
1.4219
 10
87.2981
 20
1.4219
 10
87.0798
 20
1.4219
 10
86.8616
 20
1.4219
 10
86.6433
 20
1.4219
 10
86.4251
 20
1.4219
 10
86.4251
 20
1.6401
 10
86.4251
 20
1.8584
 10
86.4251
 20
2.0766
 10
86.4251
 20
2.2949
 10
86.4251
 20
2.5131
 10
86.4251
 20
2.7314
 10
86.4251
 20
2.9496
 10
86.4251
 20
3.1679
 10
86.4251
 20
3.3861
 10
86.4251
 20
3.6044
 10
86.4251
 20
3.8226
 10
86.4251
 20
4.0409
 10
86.4251
 20
4.2591
 10
86.4251
 20
4.4774
 10
86.4251
 20
4.6956
 10
86.4251
 20
4.9139
 10
86.4251
 20
5.1321
 10
86.4251
 20
5.3504
 10
86.4251
 20
5.5686
 10
86.4251
 20
5.7869
 10
86.4251
 20
6.0051
 10
86.4251
 20
6.2234
 10
86.4251
 20
6.4416
 10
86.4251
 20
6.6599
 10
86.4251
 20
6.8782
 10
86.4251
 20
7.0964
 10
86.4251
 20
7.3147
 10
86.4251
 20
7.5329
 10
86.4251
 20
7.7512
 10
86.4251
 20
7.9694
 10
86.4251
 20
8.1877
 10
86.4251
 20
8.4059
 10
86.4251
 20
8.6242
 10
86.4251
 20
8.8424
 10
86.4251
 20
9.0607
 10
86.4251
 20
9.2789
 10
86.4251
 20
9.4972
 10
86.4251
 20
9.7154
 10
86.4251
 20
9.9337
 10
86.4251
 20
10.1519
 10
86.4251
 20
10.3702
 10
86.4251
 20
10.5884
 10
86.4251
 20
10.8067
 10
86.4251
 20
11.0249
 10
86.4251
 20
11.2432
 10
86.4251
 20
11.4614
 10
86.4251
 20
11.6797
 10
86.4251
 20
11.8979
 10
86.4251
 20
12.1162
 10
86.4251
 20
12.3344
 10
86.4251
 20
12.5527
 10
86.4482
 20
12.7478
 10
86.6664
 20
12.7478
 10
86.8847
 20
12.7478
 10
87.103
 20
12.7478
 10
87.3212
 20
12.7478
 10
87.5395
 20
12.7478
 10
87.7577
 20
12.7478
 10
87.976
 20
12.7478
 10
88.1233
 20
12.6703
 10
88.1427
 20
12.4529
 10
88.1621
 20
12.2355
 10
88.1815
 20
12.0181
 10
88.2009
 20
11.8007
 10
88.2203
 20
11.5833
 10
88.2397
 20
11.366
  0
LWPOLYLINE
  5
54
330
17
100
AcDbEntity
  8
OUTLINE
100
AcDbPolyline
 90
177
 70
1
 10
88.2654
 20
8.9731
 10
88.2654
 20
8.9663
 10
88.2654
 20
8.7481
 10
88.2654
 20
8.6751
 10
88.2654
 20
8.6751
 10
88.2663
 20
8.5767
 10
88.2686
 20
8.4805
 10
88.2724
 20
8.3865
 10
88.2775
 20
8.2946
 10
88.2842
 20
8.205
 10
88.2922
 20
8.1175
 10
88.3017
 20
8.0323
 10
88.3126
 20
7.9492
 10
88.3249
 20
7.8683
 10
88.3387
 20
7.7896
 10
88.3539
 20
7.7132
 10
88.3705
 20
7.6389
 10
88.3886
 20
7.5668
 10
88.4081
 20
7.4969
 10
88.4291
 20
7.4292
 10
88.4514
 20
7.3636
 10
88.4752
 20
7.3003
 10
88.5004
 20
7.2392
 10
88.5271
 20
7.1803
 10
88.5552
 20
7.1235
 10
88.5847
 20
7.069
 10
88.6157
 20
7.0166
 10
88.6481
 20
6.9665
 10
88.6863
 20
6.9127
 10
88.7309
 20
6.8563
 10
88.7783
 20
6.8031
 10
88.8283
 20
6.7531
 10
88.881
 20
6.7061
 10
88.9365
 20
6.6623
 10
88.9946
 20
6.6216
 10
89.0554
 20
6.5841
 10
89.1189
 20
6.5497
 10
89.1852
 20
6.5184
 10
89.2541
 20
6.4902
 10
89.3257
 20
6.4651
 10
89.4
 20
6.4432
 10
89.477
 20
6.4244
 10
89.5567
 20
6.4088
 10
89.6391
 20
6.3962
 10
89.7242
 20
6.3868
 10
89.812
 20
6.3805
 10
89.9025
 20
6.3774
 10
89.9928
 20
6.3774
 10
90.0791
 20
6.3806
 10
90.1632
 20
6.387
 10
90.2451
 20
6.3966
 10
90.3247
 20
6.4095
 10
90.4021
 20
6.4256
 10
90.4773
 20
6.4449
 10
90.5502
 20
6.4674
 10
90.621
 20
6.4931
 10
90.6895
 20
6.5221
 10
90.7557
 20
6.5543
 10
90.8198
 20
6.5897
 10
90.8816
 20
6.6283
 10
90.9412
 20
6.6702
 10
90.9986
 20
6.7153
 10
91.0537
 20
6.7636
 10
91.1066
 20
6.8151
 10
91.1573
 20
6.8698
 10
91.2058
 20
6.9278
 10
91.2508
 20
6.9873
 10
91.2862
 20
7.0383
 10
91.32
 20
7.0913
 10
91.3523
 20
7.1463
 10
91.3832
 20
7.2032
 10
91.4125
 20
7.2621
 10
91.4404
 20
7.3229
 10
91.4667
 20
7.3857
 10
91.4916
 20
7.4505
 10
91.515
 20
7.5172
 10
91.5368
 20
7.5858
 10
91.5572
 20
7.6564
 10
91.5761
 20
7.729
 10
91.5934
 20
7.8035
 10
91.6093
 20
7.88
 10
91.6237
 20
7.9584
 10
91.6365
 20
8.0388
 10
91.6479
 20
8.1211
 10
91.6578
 20
8.2054
 10
91.6662
 20
8.2916
 10
91.673
 20
8.3798
 10
91.6784
 20
8.47
 10
91.6823
 20
8.5621
 10
91.6847
 20
8.6562
 10
91.6856
 20
8.7522
 10
91.685
 20
8.8477
 10
91.683
 20
8.9412
 10
91.6795
 20
9.033
 10
91.6745
 20
9.1229
 10
91.6681
 20
9.211
 10
91.6603
 20
9.2973
 10
91.651
 20
9.3818
 10
91.6402
 20
9.4644
 10
91.628
 20
9.5453
 10
91.6143
 20
9.6243
 10
91.5992
 20
9.7015
 10
91.5826
 20
9.7769
 10
91.5646
 20
9.8505
 10
91.5451
 20
9.9222
 10
91.5242
 20
9.9922
 10
91.5018
 20
10.0603
 10
91.478
 20
10.1266
 10
91.4527
 20
10.1911
 10
91.4259
 20
10.2538
 10
91.3977
 20
10.3147
 10
91.3681
 20
10.3737
 10
91.337
 20
10.4309
 10
91.3044
 20
10.4863
 10
91.2704
 20
10.5399
 10
91.234
 20
10.5931
 10
91.1868
 20
10.6561
 10
91.1376
 20
10.7159
 10
91.0863
 20
10.7722
 10
91.0329
 20
10.8253
 10
90.9774
 20
10.875
 10
90.9198
 20
10.9214
 10
90.8602
 20
10.9644
 10
90.7984
 20
11.0041
 10
90.7346
 20
11.0404
 10
90.6687
 20
11.0734
 10
90.6007
 20
11.1031
 10
90.5307
 20
11.1294
 10
90.4585
 20
11.1524
 10
90.3843
 20
11.172
 10
90.308
 20
11.1883
 10
90.2296
 20
11.2013
 10
90.1491
 20
11.2109
 10
90.0665
 20
11.2171
 10
89.9819
 20
11.2201
 10
89.8943
 20
11.2197
 10
89.8076
 20
11.216
 10
89.7233
 20
11.2091
 10
89.6413
 20
11.1989
 10
89.5617
 20
11.1854
 10
89.4844
 20
11.1687
 10
89.4094
 20
11.1487
 10
89.3368
 20
11.1255
 10
89.2666
 20
11.0989
 10
89.1987
 20
11.0692
 10
89.1332
 20
11.0361
 10
89.07
 20
10.9998
 10
89.0091
 20
10.9602
 10
88.9506
 20
10.9174
 10
88.8944
 20
10.8713
 10
88.8406
 20
10.8219
 10
88.7892
 20
10.7693
 10
88.74
 20
10.7134
 10
88.6933
 20
10.6543
 10
88.6575
 20
10.6045
 10
88.6239
 20
10.5534
 10
88.5918
 20
10.5002
 10
88.5612
 20
10.4449
 10
88.5321
 20
10.3873
 10
88.5045
 20
10.3277
 10
88.4785
 20
10.2658
 10
88.4539
 20
10.2019
 10
88.4308
 20
10.1357
 10
88.4093
 20
10.0675
 10
88.3892
 20
9.997
 10
88.3706
 20
9.9245
 10
88.3536
 20
9.8497
 10
88.3381
 20
9.7728
 10
88.324
 20
9.6938
 10
88.3115
 20
9.6126
 10
88.3005
 20
9.5293
 10
88.2909
 20
9.4438
 10
88.2829
 20
9.3561
 10
88.2764
 20
9.2664
 10
88.2714
 20
9.1744
 10
88.2679
 20
9.0803
 10
88.2659
 20
8.9841
  0
LWPOLYLINE
  5
55
330
17
100
AcDbEntity
  8
OUTLINE
100
AcDbPolyline
 90
562
 70
1
 10
100.0808
 20
6.4132
 10
100.0759
 20
6.4951
 10
100.0744
 20
6.5186
 10
100.0253
 20
6.5186
 10
99.9709
 20
6.5186
 10
99.9165
 20
6.5186
 10
99.9045
 20
6.5186
 10
99.8994
 20
6.4722
 10
99.8918
 20
6.415
 10
99.8831
 20
6.3588
 10
99.8733
 20
6.3036
 10
99.8622
 20
6.2492
 10
99.85
 20
6.1958
 10
99.8366
 20
6.1433
 10
99.822
 20
6.0918
 10
99.8062
 20
6.0411
 10
99.7893
 20
5.9914
 10
99.7712
 20
5.9427
 10
99.7519
 20
5.8949
 10
99.7315
 20
5.8479
 10
99.7099
 20
5.802
 10
99.6871
 20
5.7569
 10
99.6631
 20
5.7128
 10
99.638
 20
5.6696
 10
99.6116
 20
5.6274
 10
99.5826
 20
5.5837
 10
99.5515
 20
5.5399
 10
99.5193
 20
5.4972
 10
99.4858
 20
5.4556
 10
99.4512
 20
5.4151
 10
99.4155
 20
5.3758
 10
99.3785
 20
5.3375
 10
99.3404
 20
5.3004
 10
99.3011
 20
5.2645
 10
99.2607
 20
5.2296
 10
99.219
 20
5.1959
 10
99.1762
 20
5.1632
 10
99.1322
 20
5.1317
 10
99.087
 20
5.1014
 10
99.0407
 20
5.0721
 10
98.9932
 20
5.044
 10
98.9445
 20
5.0169
 10
98.8946
 20
4.991
 10
98.8436
 20
4.9663
 10
98.7914
 20
4.9426
 10
98.7411
 20
4.9213
 10
98.6959
 20
4.9033
 10
98.6499
 20
4.8861
 10
98.6032
 20
4.8696
 10
98.5558
 20
4.8539
 10
98.5077
 20
4.8389
 10
98.4589
 20
4.8247
 10
98.4094
 20
4.8113
 10
98.3592
 20
4.7986
 10
98.3083
 20
4.7868
 10
98.2567
 20
4.7756
 10
98.2044
 20
4.7653
 10
98.1514
 20
4.7557
 10
98.0977
 20
4.7469
 10
98.0432
 20
4.7388
 10
97.9881
 20
4.7315
 10
97.9323
 20
4.725
 10
97.8757
 20
4.7193
 10
97.8185
 20
4.7143
 10
97.7605
 20
4.7101
 10
97.7019
 20
4.7066
 10
97.6425
 20
4.7039
 10
97.5824
 20
4.702
 10
97.5217
 20
4.7009
 10
97.4602
 20
4.7005
 10
97.3951
 20
4.7009
 10
97.3308
 20
4.7021
 10
97.2673
 20
4.7042
 10
97.2045
 20
4.7072
 10
97.1425
 20
4.7109
 10
97.0813
 20
4.7155
 10
97.0208
 20
4.7209
 10
96.9611
 20
4.7272
 10
96.9022
 20
4.7343
 10
96.8441
 20
4.7423
 10
96.7867
 20
4.751
 10
96.7301
 20
4.7606
 10
96.6742
 20
4.7711
 10
96.6191
 20
4.7824
 10
96.5648
 20
4.7945
 10
96.5113
 20
4.8074
 10
96.4585
 20
4.8212
 10
96.4065
 20
4.8358
 10
96.3553
 20
4.8513
 10
96.3048
 20
4.8676
 10
96.2551
 20
4.8847
 10
96.2062
 20
4.9027
 10
96.1581
 20
4.9215
 10
96.1107
 20
4.9411
 10
96.0641
 20
4.9616
 10
96.0182
 20
4.9829
 10
95.9731
 20
5.005
 10
95.9288
 20
5.028
 10
95.8853
 20
5.0518
 10
95.8425
 20
5.0765
 10
95.8005
 20
5.1019
 10
95.7593
 20
5.1283
 10
95.7188
 20
5.1554
 10
95.6791
 20
5.1834
 10
95.6402
 20
5.2122
 10
95.602
 20
5.2419
 10
95.5646
 20
5.2724
 10
95.528
 20
5.3037
 10
95.49
 20
5.3379
 10
95.4523
 20
5.3735
 10
95.4158
 20
5.41
 10
95.3803
 20
5.4472
 10
95.346
 20
5.4853
 10
95.3128
 20
5.5242
 10
95.2807
 20
5.5639
 10
95.2496
 20
5.6044
 10
95.2197
 20
5.6458
 10
95.1909
 20
5.6879
 10
95.1632
 20
5.7308
 10
95.1366
 20
5.7746
 10
95.1111
 20
5.8192
 10
95.0868
 20
5.8646
 10
95.0635
 20
5.9108
 10
95.0413
 20
5.9578
 10
95.0202
 20
6.0056
 10
95.0003
 20
6.0543
 10
94.9814
 20
6.1037
 10
94.9637
 20
6.154
 10
94.947
 20
6.2051
 10
94.9315
 20
6.257
 10
94.9171
 20
6.3097
 10
94.9038
 20
6.3632
 10
94.8915
 20
6.4175
 10
94.8804
 20
6.4727
 10
94.8704
 20
6.5287
 10
94.8615
 20
6.5854
 10
94.8537
 20
6.643
 10
94.847
 20
6.7014
 10
94.8415
 20
6.7606
 10
94.837
 20
6.8206
 10
94.8336
 20
6.8815
 10
94.8313
 20
6.9431
 10
94.8302
 20
7.0056
 10
94.8301
 20
7.0681
 10
94.8311
 20
7.1293
 10
94.8332
 20
7.1898
 10
94.8363
 20
7.2496
 10
94.8404
 20
7.3087
 10
94.8456
 20
7.3672
 10
94.8519
 20
7.425
 10
94.8592
 20
7.482
 10
94.8676
 20
7.5384
 10
94.877
 20
7.5941
 10
94.8874
 20
7.6491
 10
94.8989
 20
7.7035
 10
94.9115
 20
7.7571
 10
94.9251
 20
7.8101
 10
94.9398
 20
7.8623
 10
94.9555
 20
7.9139
 10
94.9723
 20
7.9648
 10
94.9901
 20
8.015
 10
95.009
 20
8.0645
 10
95.0289
 20
8.1134
 10
95.0499
 20
8.1615
 10
95.0719
 20
8.209
 10
95.095
 20
8.2558
 10
95.1191
 20
8.3018
 10
95.1443
 20
8.3472
 10
95.1705
 20
8.392
 10
95.1978
 20
8.436
 10
95.2262
 20
8.4793
 10
95.2555
 20
8.522
 10
95.286
 20
8.5639
 10
95.3175
 20
8.6052
 10
95.35
 20
8.6458
 10
95.3836
 20
8.6857
 10
95.4183
 20
8.7249
 10
95.4539
 20
8.7635
 10
95.4907
 20
8.8013
 10
95.5285
 20
8.8385
 10
95.5673
 20
8.8749
 10
95.6072
 20
8.9107
 10
95.6482
 20
8.9458
 10
95.6902
 20
8.9802
 10
95.7333
 20
9.0139
 10
95.7733
 20
9.044
 10
95.8105
 20
9.0708
 10
95.8482
 20
9.0971
 10
95.8866
 20
9.1229
 10
95.9255
 20
9.1481
 10
95.9651
 20
9.1728
 10
96.0052
 20
9.1969
 10
96.046
 20
9.2205
 10
96.0873
 20
9.2436
 10
96.1293
 20
9.2661
 10
96.1719
 20
9.2881
 10
96.215
 20
9.3095
 10
96.2588
 20
9.3304
 10
96.3031
 20
9.3507
 10
96.3481
 20
9.3705
 10
96.3936
 20
9.3898
 10
96.4398
 20
9.4085
 10
96.4865
 20
9.4267
 10
96.5339
 20
9.4443
 10
96.5818
 20
9.4614
 10
96.6304
 20
9.478
 10
96.6795
 20
9.494
 10
96.7293
 20
9.5095
 10
96.7796
 20
9.5244
 10
96.8306
 20
9.5388
 10
96.8821
 20
9.5526
 10
96.9343
 20
9.5659
 10
96.987
 20
9.5787
 10
97.0404
 20
9.5909
 10
97.0943
 20
9.6026
 10
97.1489
 20
9.6137
 10
97.204
 20
9.6243
 10
97.2598
 20
9.6343
 10
97.3161
 20
9.6438
 10
97.3731
 20
9.6528
 10
97.4306
 20
9.6612
 10
97.4888
 20
9.6691
 10
97.5475
 20
9.6765
 10
97.6069
 20
9.6833
 10
97.6668
 20
9.6895
 10
97.7274
 20
9.6952
 10
97.7885
 20
9.7004
 10
97.8503
 20
9.705
 10
97.9126
 20
9.7091
 10
97.9756
 20
9.7127
 10
98.0391
 20
9.7157
 10
98.1033
 20
9.7182
 10
98.168
 20
9.7201
 10
98.2334
 20
9.7215
 10
98.2993
 20
9.7223
 10
98.3659
 20
9.7226
 10
98.4276
 20
9.7225
 10
98.4884
 20
9.722
 10
98.5485
 20
9.7212
 10
98.6079
 20
9.7201
 10
98.6667
 20
9.7187
 10
98.7247
 20
9.717
 10
98.782
 20
9.7149
 10
98.8386
 20
9.7126
 10
98.8946
 20
9.7099
 10
98.9498
 20
9.7069
 10
99.0043
 20
9.7036
 10
99.0582
 20
9.7
 10
99.1113
 20
9.696
 10
99.1638
 20
9.6918
 10
99.2155
 20
9.6872
 10
99.2666
 20
9.6823
 10
99.3169
 20
9.6771
 10
99.3666
 20
9.6716
 10
99.4156
 20
9.6657
 10
99.4638
 20
9.6595
 10
99.5114
 20
9.6531
 10
99.5604
 20
9.6459
 10
99.6155
 20
9.6375
 10
99.6704
 20
9.6285
 10
99.7249
 20
9.619
 10
99.7792
 20
9.6091
 10
99.8332
 20
9.5986
 10
99.887
 20
9.5877
 10
99.934
 20
9.5776
 10
99.934
 20
9.6063
 10
99.934
 20
9.6883
 10
99.9336
 20
9.7748
 10
99.9291
 20
9.8656
 10
99.9196
 20
9.953
 10
99.9051
 20
10.037
 10
99.8857
 20
10.1176
 10
99.8613
 20
10.1948
 10
99.8319
 20
10.2687
 10
99.7975
 20
10.3392
 10
99.7581
 20
10.4063
 10
99.7138
 20
10.47
 10
99.6644
 20
10.5304
 10
99.6101
 20
10.5873
 10
99.5508
 20
10.6409
 10
99.4865
 20
10.6911
 10
99.4173
 20
10.7379
 10
99.3563
 20
10.7741
 10
99.3003
 20
10.8042
 10
99.2416
 20
10.8329
 10
99.1805
 20
10.8602
 10
99.1167
 20
10.8861
 10
99.0504
 20
10.9106
 10
98.9815
 20
10.9336
 10
98.9101
 20
10.9553
 10
98.8361
 20
10.9755
 10
98.7596
 20
10.9944
 10
98.6805
 20
11.0118
 10
98.5988
 20
11.0279
 10
98.5145
 20
11.0425
 10
98.4277
 20
11.0557
 10
98.3384
 20
11.0676
 10
98.2465
 20
11.078
 10
98.152
 20
11.087
 10
98.0549
 20
11.0946
 10
97.9553
 20
11.1008
 10
97.8532
 20
11.1056
 10
97.7523
 20
11.1089
 10
97.6703
 20
11.111
 10
97.5883
 20
11.1132
 10
97.5062
 20
11.1154
 10
97.4242
 20
11.1176
 10
97.3422
 20
11.1197
 10
97.2601
 20
11.1219
 10
97.1781
 20
11.1241
 10
97.096
 20
11.1263
 10
97.014
 20
11.1284
 10
96.932
 20
11.1306
 10
96.8499
 20
11.1328
 10
96.7679
 20
11.135
 10
96.6859
 20
11.1372
 10
96.6038
 20
11.1393
 10
96.5218
 20
11.1415
 10
96.4398
 20
11.1437
 10
96.3577
 20
11.1459
 10
96.2757
 20
11.148
 10
96.1936
 20
11.1502
 10
96.1116
 20
11.1524
 10
96.0296
 20
11.1546
 10
95.9475
 20
11.1567
 10
95.8655
 20
11.1589
 10
95.8
 20
11.1758
 10
95.8074
 20
11.2576
 10
95.8147
 20
11.3393
 10
95.822
 20
11.4211
 10
95.8294
 20
11.5028
 10
95.8367
 20
11.5845
 10
95.844
 20
11.6663
 10
95.8513
 20
11.748
 10
95.8587
 20
11.8297
 10
95.866
 20
11.9115
 10
95.8733
 20
11.9932
 10
95.8807
 20
12.0749
 10
95.888
 20
12.1567
 10
95.8953
 20
12.2384
 10
95.9027
 20
12.3202
 10
95.91
 20
12.4019
 10
95.9173
 20
12.4836
 10
95.9246
 20
12.5654
 10
95.932
 20
12.6471
 10
95.9393
 20
12.7288
 10
95.9466
 20
12.8106
 10
96.0181
 20
12.8213
 10
96.1001
 20
12.8202
 10
96.1822
 20
12.8191
 10
96.2642
 20
12.818
 10
96.3463
 20
12.8169
 10
96.4283
 20
12.8158
 10
96.5104
 20
12.8147
 10
96.5925
 20
12.8136
 10
96.6745
 20
12.8125
 10
96.7566
 20
12.8114
 10
96.8386
 20
12.8104
 10
96.9207
 20
12.8093
 10
97.0027
 20
12.8082
 10
97.0848
 20
12.8071
 10
97.1669
 20
12.806
 10
97.2489
 20
12.8049
 10
97.331
 20
12.8038
 10
97.413
 20
12.8027
 10
97.4951
 20
12.8016
 10
97.5771
 20
12.8005
 10
97.6707
 20
12.7991
 10
97.774
 20
12.7965
 10
97.8758
 20
12.793
 10
97.9764
 20
12.7885
 10
98.0756
 20
12.7829
 10
98.1734
 20
12.7764
 10
98.2698
 20
12.7688
 10
98.3649
 20
12.7603
 10
98.4587
 20
12.7507
 10
98.551
 20
12.7402
 10
98.6421
 20
12.7286
 10
98.7317
 20
12.7161
 10
98.82
 20
12.7025
 10
98.907
 20
12.6879
 10
98.9925
 20
12.6724
 10
99.0768
 20
12.6558
 10
99.1596
 20
12.6382
 10
99.2411
 20
12.6196
 10
99.3213
 20
12.6001
 10
99.4001
 20
12.5795
 10
99.4775
 20
12.5579
 10
99.5535
 20
12.5353
 10
99.6283
 20
12.5117
 10
99.7016
 20
12.4871
 10
99.7736
 20
12.4615
 10
99.8442
 20
12.4349
 10
99.9135
 20
12.4073
 10
99.9814
 20
12.3787
 10
100.0479
 20
12.3491
 10
100.1131
 20
12.3185
 10
100.177
 20
12.2869
 10
100.2394
 20
12.2543
 10
100.3005
 20
12.2207
 10
100.3603
 20
12.1861
 10
100.4187
 20
12.1504
 10
100.4757
 20
12.1138
 10
100.5314
 20
12.0762
 10
100.5857
 20
12.0376
 10
100.6386
 20
11.9979
 10
100.6902
 20
11.9573
 10
100.7503
 20
11.9073
 10
100.8092
 20
11.8553
 10
100.8663
 20
11.8019
 10
100.9215
 20
11.7471
 10
100.9748
 20
11.6908
 10
101.0262
 20
11.6332
 10
101.0757
 20
11.5741
 10
101.1233
 20
11.5137
 10
101.169
 20
11.4518
 10
101.2129
 20
11.3885
 10
101.2548
 20
11.3239
 10
101.2949
 20
11.2578
 10
101.3331
 20
11.1903
 10
101.3694
 20
11.1214
 10
101.4038
 20
11.0511
 10
101.4363
 20
10.9794
 10
101.4669
 20
10.9063
 10
101.4956
 20
10.8318
 10
101.5225
 20
10.7558
 10
101.5474
 20
10.6785
 10
101.5705
 20
10.5997
 10
101.5916
 20
10.5196
 10
101.6109
 20
10.438
 10
101.6283
 20
10.3551
 10
101.6438
 20
10.2707
 10
101.6574
 20
10.1849
 10
101.6691
 20
10.0978
 10
101.679
 20
10.0092
 10
101.6869
 20
9.9192
 10
101.693
 20
9.8278
 10
101.6971
 20
9.735
 10
101.6994
 20
9.6408
 10
101.6999
 20
9.5493
 10
101.6999
 20
9.4672
 10
101.6999
 20
9.3852
 10
101.6999
 20
9.3031
 10
101.6999
 20
9.221
 10
101.6999
 20
9.139
 10
101.6999
 20
9.0569
 10
101.6999
 20
8.9748
 10
101.6999
 20
8.8928
 10
101.6999
 20
8.8107
 10
101.6999
 20
8.7287
 10
101.6999
 20
8.6466
 10
101.6999
 20
8.5645
 10
101.6999
 20
8.4825
 10
101.6999
 20
8.4004
 10
101.6999
 20
8.3183
 10
101.6999
 20
8.2363
 10
101.6999
 20
8.1542
 10
101.6999
 20
8.0721
 10
101.6999
 20
7.9901
 10
101.6999
 20
7.908
 10
101.6999
 20
7.8259
 10
101.6999
 20
7.7439
 10
101.6999
 20
7.6618
 10
101.6999
 20
7.5797
 10
101.6999
 20
7.4977
 10
101.6999
 20
7.4156
 10
101.6999
 20
7.3336
 10
101.6999
 20
7.2515
 10
101.6999
 20
7.1694
 10
101.6999
 20
7.0874
 10
101.6999
 20
7.0053
 10
101.6999
 20
6.9232
 10
101.6999
 20
6.8412
 10
101.6999
 20
6.7591
 10
101.6999
 20
6.677
 10
101.6999
 20
6.595
 10
101.6999
 20
6.5129
 10
101.772
 20
6.4937
 10
101.8533
 20
6.4825
 10
101.9346
 20
6.4714
 10
102.0159
 20
6.4602
 10
102.0972
 20
6.449
 10
102.1785
 20
6.4378
 10
102.2598
 20
6.4267
 10
102.3411
 20
6.4155
 10
102.4224
 20
6.4043
 10
102.5037
 20
6.3932
 10
102.585
 20
6.382
 10
102.6663
 20
6.3708
 10
102.7476
 20
6.3596
 10
102.8289
 20
6.3485
 10
102.8921
 20
6.3216
 10
102.8921
 20
6.2395
 10
102.8921
 20
6.1574
 10
102.8921
 20
6.0754
 10
102.8921
 20
5.9933
 10
102.8921
 20
5.9113
 10
102.8921
 20
5.8292
 10
102.8921
 20
5.7471
 10
102.8921
 20
5.6651
 10
102.8921
 20
5.583
 10
102.8921
 20
5.5009
 10
102.8921
 20
5.4189
 10
102.8921
 20
5.3368
 10
102.8921
 20
5.2547
 10
102.8921
 20
5.1727
 10
102.8921
 20
5.0906
 10
102.8921
 20
5.0085
 10
102.8921
 20
4.9265
 10
102.8871
 20
4.8493
 10
102.805
 20
4.8471
 10
102.723
 20
4.8448
 10
102.641
 20
4.8426
 10
102.5589
 20
4.8403
 10
102.4769
 20
4.8381
 10
102.3949
 20
4.8358
 10
102.3128
 20
4.8336
 10
102.2308
 20
4.8313
 10
102.1488
 20
4.829
 10
102.0667
 20
4.8268
 10
101.9847
 20
4.8245
 10
101.9027
 20
4.8223
 10
101.8206
 20
4.82
 10
101.7386
 20
4.8178
 10
101.6566
 20
4.8155
 10
101.5745
 20
4.8132
 10
101.4925
 20
4.811
 10
101.4105
 20
4.8087
 10
101.3284
 20
4.8065
 10
101.2464
 20
4.8042
 10
101.1644
 20
4.802
 10
101.0823
 20
4.7997
 10
101.0003
 20
4.7975
 10
100.9183
 20
4.7952
 10
100.8362
 20
4.7929
 10
100.7542
 20
4.7907
 10
100.6722
 20
4.7884
 10
100.5901
 20
4.7862
 10
100.5081
 20
4.7839
 10
100.4261
 20
4.7817
 10
100.344
 20
4.7794
 10
100.262
 20
4.7771
 10
100.18
 20
4.7749
 10
100.175
 20
4.8568
 10
100.17
 20
4.9387
 10
100.1651
 20
5.0206
 10
100.1601
 20
5.1026
 10
100.1552
 20
5.1845
 10
100.1502
 20
5.2664
 10
100.1453
 20
5.3483
 10
100.1403
 20
5.4302
 10
100.1353
 20
5.5121
 10
100.1304
 20
5.594
 10
100.1254
 20
5.676
 10
100.1205
 20
5.7579
 10
100.1155
 20
5.8398
 10
100.1106
 20
5.9217
 10
100.1056
 20
6.0036
 10
100.1006
 20
6.0855
 10
100.0957
 20
6.1674
 10
100.0907
 20
6.2494
 10
100.0858
 20
6.3313
  0
LWPOLYLINE
  5
56
330
17
100
AcDbEntity
  8
OUTLINE
100
AcDbPolyline
 90
163
 70
1
 10
99.934
 20
8.099
 10
99.9032
 20
8.1047
 10
99.848
 20
8.1144
 10
99.7934
 20
8.1234
 10
99.7392
 20
8.1317
 10
99.6855
 20
8.1394
 10
99.6322
 20
8.1464
 10
99.5795
 20
8.1528
 10
99.5272
 20
8.1585
 10
99.4754
 20
8.1635
 10
99.4241
 20
8.1679
 10
99.3732
 20
8.1715
 10
99.3228
 20
8.1746
 10
99.2723
 20
8.177
 10
99.22
 20
8.1792
 10
99.1675
 20
8.1813
 10
99.1146
 20
8.1832
 10
99.0614
 20
8.185
 10
99.008
 20
8.1867
 10
98.9542
 20
8.1882
 10
98.9002
 20
8.1895
 10
98.8459
 20
8.1907
 10
98.7913
 20
8.1918
 10
98.7363
 20
8.1927
 10
98.6812
 20
8.1934
 10
98.6257
 20
8.1941
 10
98.5699
 20
8.1945
 10
98.5138
 20
8.1949
 10
98.4575
 20
8.1951
 10
98.3947
 20
8.1951
 10
98.3129
 20
8.1942
 10
98.233
 20
8.1922
 10
98.1551
 20
8.189
 10
98.0792
 20
8.1847
 10
98.0052
 20
8.1792
 10
97.9333
 20
8.1725
 10
97.8633
 20
8.1647
 10
97.7952
 20
8.1557
 10
97.7292
 20
8.1456
 10
97.6651
 20
8.1343
 10
97.6029
 20
8.1218
 10
97.5428
 20
8.1082
 10
97.4846
 20
8.0934
 10
97.4284
 20
8.0775
 10
97.3742
 20
8.0603
 10
97.3219
 20
8.0421
 10
97.2717
 20
8.0226
 10
97.2233
 20
8.002
 10
97.177
 20
7.9803
 10
97.1326
 20
7.9573
 10
97.0902
 20
7.9333
 10
97.0498
 20
7.908
 10
97.0114
 20
7.8816
 10
96.9749
 20
7.854
 10
96.9404
 20
7.8253
 10
96.9078
 20
7.7954
 10
96.8773
 20
7.7644
 10
96.8487
 20
7.7322
 10
96.8221
 20
7.6988
 10
96.7974
 20
7.6643
 10
96.7748
 20
7.6286
 10
96.7541
 20
7.5917
 10
96.7353
 20
7.5537
 10
96.7186
 20
7.5145
 10
96.7038
 20
7.4741
 10
96.691
 20
7.4326
 10
96.6801
 20
7.39
 10
96.6713
 20
7.3461
 10
96.6644
 20
7.3011
 10
96.6595
 20
7.255
 10
96.6565
 20
7.2077
 10
96.6555
 20
7.1591
 10
96.657
 20
7.0974
 10
96.6615
 20
7.0377
 10
96.6688
 20
6.9801
 10
96.6792
 20
6.9246
 10
96.6924
 20
6.8711
 10
96.7087
 20
6.8196
 10
96.7278
 20
6.7703
 10
96.75
 20
6.723
 10
96.775
 20
6.6777
 10
96.803
 20
6.6345
 10
96.834
 20
6.5934
 10
96.8679
 20
6.5543
 10
96.9048
 20
6.5173
 10
96.9446
 20
6.4824
 10
96.9835
 20
6.4523
 10
97.0209
 20
6.4265
 10
97.0603
 20
6.4022
 10
97.1015
 20
6.3796
 10
97.1445
 20
6.3585
 10
97.1894
 20
6.339
 10
97.2361
 20
6.321
 10
97.2847
 20
6.3047
 10
97.3351
 20
6.2899
 10
97.3874
 20
6.2767
 10
97.4416
 20
6.2651
 10
97.4975
 20
6.2551
 10
97.5554
 20
6.2466
 10
97.6151
 20
6.2397
 10
97.6766
 20
6.2344
 10
97.74
 20
6.2307
 10
97.8052
 20
6.2286
 10
97.8716
 20
6.228
 10
97.9338
 20
6.2287
 10
97.9952
 20
6.2304
 10
98.0556
 20
6.2332
 10
98.115
 20
6.237
 10
98.1735
 20
6.2419
 10
98.2311
 20
6.2478
 10
98.2878
 20
6.2548
 10
98.3434
 20
6.2628
 10
98.3982
 20
6.2719
 10
98.452
 20
6.282
 10
98.5049
 20
6.2931
 10
98.5568
 20
6.3054
 10
98.6078
 20
6.3186
 10
98.6579
 20
6.333
 10
98.707
 20
6.3483
 10
98.7552
 20
6.3648
 10
98.8024
 20
6.3822
 10
98.8487
 20
6.4008
 10
98.894
 20
6.4203
 10
98.9385
 20
6.441
 10
98.9819
 20
6.4626
 10
99.028
 20
6.4873
 10
99.0796
 20
6.5166
 10
99.1298
 20
6.5468
 10
99.1784
 20
6.5779
 10
99.2255
 20
6.6099
 10
99.2711
 20
6.6428
 10
99.3151
 20
6.6765
 10
99.3577
 20
6.7111
 10
99.3987
 20
6.7466
 10
99.4382
 20
6.783
 10
99.4762
 20
6.8202
 10
99.5127
 20
6.8583
 10
99.5476
 20
6.8973
 10
99.5811
 20
6.9372
 10
99.613
 20
6.978
 10
99.6434
 20
7.0196
 10
99.6723
 20
7.0622
 10
99.6997
 20
7.1056
 10
99.7286
 20
7.1548
 10
99.7559
 20
7.205
 10
99.7813
 20
7.2554
 10
99.8047
 20
7.3061
 10
99.8262
 20
7.3569
 10
99.8458
 20
7.408
 10
99.8634
 20
7.4593
 10
99.879
 20
7.5108
 10
99.8927
 20
7.5626
 10
99.9044
 20
7.6145
 10
99.9142
 20
7.6667
 10
99.922
 20
7.7191
 10
99.9278
 20
7.7718
 10
99.9318
 20
7.8246
 10
99.9337
 20
7.8777
 10
99.934
 20
7.9315
 10
99.934
 20
7.9859
 10
99.934
 20
8.0403
 10
99.934
 20
8.047
 10
99.934
 20
8.0947
  0
LWPOLYLINE
  5
57
330
17
100
AcDbEntity
  8
OUTLINE
100
AcDbPolyline
 90
368
 70
1
 10
114.8491
 20
8.0387
 10
114.8127
 20
8.0387
 10
114.8312
 20
7.9723
 10
114.8595
 20
7.8836
 10
114.8907
 20
7.7974
 10
114.9249
 20
7.7137
 10
114.9621
 20
7.6324
 10
115.0022
 20
7.5536
 10
115.0453
 20
7.4773
 10
115.0914
 20
7.4034
 10
115.1404
 20
7.332
 10
115.1924
 20
7.263
 10
115.2473
 20
7.1966
 10
115.3052
 20
7.1325
 10
115.366
 20
7.071
 10
115.4287
 20
7.0129
 10
115.4925
 20
6.9585
 10
115.5585
 20
6.9067
 10
115.6268
 20
6.8574
 10
115.6975
 20
6.8106
 10
115.7704
 20
6.7664
 10
115.8456
 20
6.7246
 10
115.9231
 20
6.6854
 10
116.003
 20
6.6487
 10
116.0851
 20
6.6145
 10
116.1695
 20
6.5829
 10
116.2562
 20
6.5537
 10
116.3452
 20
6.5271
 10
116.4366
 20
6.503
 10
116.5302
 20
6.4814
 10
116.6261
 20
6.4623
 10
116.7243
 20
6.4458
 10
116.8248
 20
6.4318
 10
116.9276
 20
6.4202
 10
117.0327
 20
6.4113
 10
117.1402
 20
6.4048
 10
117.2499
 20
6.4008
 10
117.3619
 20
6.3994
 10
117.4586
 20
6.3998
 10
117.5538
 20
6.4011
 10
117.6487
 20
6.4034
 10
117.7433
 20
6.4066
 10
117.8376
 20
6.4108
 10
117.9316
 20
6.4159
 10
118.0252
 20
6.422
 10
118.1185
 20
6.4289
 10
118.2116
 20
6.4369
 10
118.3043
 20
6.4457
 10
118.3967
 20
6.4555
 10
118.4882
 20
6.4661
 10
118.5801
 20
6.4772
 10
118.6723
 20
6.4891
 10
118.7648
 20
6.5017
 10
118.8576
 20
6.5149
 10
118.9507
 20
6.5288
 10
119.0441
 20
6.5433
 10
119.1378
 20
6.5586
 10
119.2318
 20
6.5745
 10
119.3261
 20
6.5911
 10
119.4191
 20
6.6061
 10
119.4297
 20
6.5126
 10
119.4404
 20
6.4191
 10
119.4511
 20
6.3255
 10
119.4617
 20
6.232
 10
119.4724
 20
6.1385
 10
119.4831
 20
6.0449
 10
119.4937
 20
5.9514
 10
119.5044
 20
5.8579
 10
119.5151
 20
5.7643
 10
119.5258
 20
5.6708
 10
119.5364
 20
5.5773
 10
119.5471
 20
5.4837
 10
119.5578
 20
5.3902
 10
119.5684
 20
5.2967
 10
119.5791
 20
5.2031
 10
119.5898
 20
5.1096
 10
119.6004
 20
5.0161
 10
119.6111
 20
4.9225
 10
119.5261
 20
4.8934
 10
119.426
 20
4.876
 10
119.3271
 20
4.8596
 10
119.2294
 20
4.8441
 10
119.1328
 20
4.8295
 10
119.0373
 20
4.8158
 10
118.9431
 20
4.8031
 10
118.8499
 20
4.7914
 10
118.758
 20
4.7805
 10
118.6671
 20
4.7706
 10
118.5775
 20
4.7617
 10
118.489
 20
4.7537
 10
118.4016
 20
4.7466
 10
118.3154
 20
4.7405
 10
118.2201
 20
4.7346
 10
118.1158
 20
4.7287
 10
118.0137
 20
4.7233
 10
117.9137
 20
4.7185
 10
117.8158
 20
4.7143
 10
117.7201
 20
4.7106
 10
117.6266
 20
4.7075
 10
117.5352
 20
4.705
 10
117.4459
 20
4.703
 10
117.3588
 20
4.7016
 10
117.2739
 20
4.7008
 10
117.1911
 20
4.7005
 10
117.0792
 20
4.7013
 10
116.9688
 20
4.7037
 10
116.8598
 20
4.7078
 10
116.7522
 20
4.7135
 10
116.646
 20
4.7208
 10
116.5413
 20
4.7297
 10
116.4379
 20
4.7403
 10
116.336
 20
4.7525
 10
116.2354
 20
4.7663
 10
116.1363
 20
4.7817
 10
116.0386
 20
4.7988
 10
115.9424
 20
4.8175
 10
115.8475
 20
4.8378
 10
115.754
 20
4.8597
 10
115.662
 20
4.8833
 10
115.5714
 20
4.9085
 10
115.4822
 20
4.9353
 10
115.3944
 20
4.9637
 10
115.308
 20
4.9938
 10
115.223
 20
5.0255
 10
115.1395
 20
5.0588
 10
115.0573
 20
5.0937
 10
114.9766
 20
5.1303
 10
114.8973
 20
5.1684
 10
114.8194
 20
5.2083
 10
114.7429
 20
5.2497
 10
114.6679
 20
5.2928
 10
114.5942
 20
5.3374
 10
114.522
 20
5.3837
 10
114.4512
 20
5.4317
 10
114.3818
 20
5.4812
 10
114.3138
 20
5.5324
 10
114.2472
 20
5.5852
 10
114.182
 20
5.6397
 10
114.1183
 20
5.6957
 10
114.0559
 20
5.7534
 10
113.9942
 20
5.8136
 10
113.934
 20
5.8754
 10
113.8755
 20
5.9387
 10
113.8189
 20
6.0035
 10
113.764
 20
6.0698
 10
113.7108
 20
6.1375
 10
113.6594
 20
6.2067
 10
113.6098
 20
6.2773
 10
113.562
 20
6.3495
 10
113.5159
 20
6.4231
 10
113.4716
 20
6.4982
 10
113.429
 20
6.5747
 10
113.3882
 20
6.6528
 10
113.3492
 20
6.7323
 10
113.3119
 20
6.8133
 10
113.2764
 20
6.8957
 10
113.2427
 20
6.9796
 10
113.2107
 20
7.065
 10
113.1805
 20
7.1519
 10
113.152
 20
7.2403
 10
113.1253
 20
7.3301
 10
113.1004
 20
7.4214
 10
113.0772
 20
7.5142
 10
113.0558
 20
7.6084
 10
113.0362
 20
7.7041
 10
113.0183
 20
7.8013
 10
113.0022
 20
7.9
 10
112.9878
 20
8.0001
 10
112.9752
 20
8.1017
 10
112.9644
 20
8.2048
 10
112.9554
 20
8.3093
 10
112.9481
 20
8.4154
 10
112.9425
 20
8.5229
 10
112.9388
 20
8.6318
 10
112.9368
 20
8.7423
 10
112.9365
 20
8.8544
 10
112.9379
 20
8.9662
 10
112.9409
 20
9.0766
 10
112.9455
 20
9.1855
 10
112.9517
 20
9.2929
 10
112.9595
 20
9.3988
 10
112.9689
 20
9.5033
 10
112.9799
 20
9.6063
 10
112.9926
 20
9.7078
 10
113.0068
 20
9.8079
 10
113.0226
 20
9.9064
 10
113.0401
 20
10.0035
 10
113.0591
 20
10.0992
 10
113.0798
 20
10.1933
 10
113.1021
 20
10.286
 10
113.1259
 20
10.3772
 10
113.1514
 20
10.467
 10
113.1785
 20
10.5552
 10
113.2072
 20
10.642
 10
113.2375
 20
10.7273
 10
113.2694
 20
10.8112
 10
113.3029
 20
10.8936
 10
113.338
 20
10.9745
 10
113.3748
 20
11.0539
 10
113.4131
 20
11.1318
 10
113.453
 20
11.2083
 10
113.4946
 20
11.2833
 10
113.5377
 20
11.3569
 10
113.5825
 20
11.4289
 10
113.6289
 20
11.4995
 10
113.6768
 20
11.5686
 10
113.7264
 20
11.6363
 10
113.7776
 20
11.7024
 10
113.8304
 20
11.7671
 10
113.8853
 20
11.8309
 10
113.9462
 20
11.8979
 10
114.0087
 20
11.9627
 10
114.0728
 20
12.0253
 10
114.1384
 20
12.0858
 10
114.2055
 20
12.1441
 10
114.2743
 20
12.2002
 10
114.3446
 20
12.2541
 10
114.4164
 20
12.3059
 10
114.4899
 20
12.3555
 10
114.5648
 20
12.4029
 10
114.6414
 20
12.4481
 10
114.7195
 20
12.4912
 10
114.7992
 20
12.5321
 10
114.8804
 20
12.5708
 10
114.9632
 20
12.6074
 10
115.0475
 20
12.6417
 10
115.1334
 20
12.6739
 10
115.2209
 20
12.704
 10
115.3099
 20
12.7318
 10
115.4005
 20
12.7575
 10
115.4927
 20
12.781
 10
115.5864
 20
12.8024
 10
115.6817
 20
12.8216
 10
115.7785
 20
12.8386
 10
115.8769
 20
12.8534
 10
115.9769
 20
12.866
 10
116.0784
 20
12.8765
 10
116.1815
 20
12.8848
 10
116.2862
 20
12.8909
 10
116.3924
 20
12.8949
 10
116.5002
 20
12.8967
 10
116.6095
 20
12.8963
 10
116.7178
 20
12.8937
 10
116.8244
 20
12.889
 10
116.9293
 20
12.882
 10
117.0326
 20
12.8729
 10
117.1342
 20
12.8616
 10
117.2341
 20
12.8481
 10
117.3324
 20
12.8325
 10
117.429
 20
12.8146
 10
117.5239
 20
12.7946
 10
117.6172
 20
12.7724
 10
117.7089
 20
12.748
 10
117.7988
 20
12.7214
 10
117.8871
 20
12.6926
 10
117.9738
 20
12.6617
 10
118.0587
 20
12.6285
 10
118.1421
 20
12.5932
 10
118.2237
 20
12.5557
 10
118.3037
 20
12.516
 10
118.3821
 20
12.4742
 10
118.4587
 20
12.4301
 10
118.5337
 20
12.3839
 10
118.6071
 20
12.3355
 10
118.6788
 20
12.2849
 10
118.7488
 20
12.2321
 10
118.8172
 20
12.1771
 10
118.8839
 20
12.12
 10
118.9489
 20
12.0606
 10
119.0123
 20
11.9991
 10
119.074
 20
11.9354
 10
119.131
 20
11.873
 10
119.1846
 20
11.8107
 10
119.2365
 20
11.7467
 10
119.2867
 20
11.681
 10
119.3352
 20
11.6136
 10
119.382
 20
11.5446
 10
119.4271
 20
11.4738
 10
119.4705
 20
11.4014
 10
119.5122
 20
11.3274
 10
119.5522
 20
11.2517
 10
119.5904
 20
11.1742
 10
119.627
 20
11.0952
 10
119.6618
 20
11.0144
 10
119.695
 20
10.932
 10
119.7264
 20
10.8479
 10
119.7561
 20
10.7621
 10
119.7841
 20
10.6747
 10
119.8104
 20
10.5855
 10
119.835
 20
10.4948
 10
119.8579
 20
10.4023
 10
119.8791
 20
10.3081
 10
119.8986
 20
10.2123
 10
119.9164
 20
10.1148
 10
119.9324
 20
10.0157
 10
119.9468
 20
9.9149
 10
119.9594
 20
9.8124
 10
119.9703
 20
9.7082
 10
119.9796
 20
9.6023
 10
119.9871
 20
9.4948
 10
119.9929
 20
9.3856
 10
119.997
 20
9.2747
 10
119.9994
 20
9.1622
 10
120.0001
 20
9.0494
 10
119.9996
 20
8.9499
 10
119.9984
 20
8.8516
 10
119.9964
 20
8.7543
 10
119.9937
 20
8.6582
 10
119.9902
 20
8.5633
 10
119.986
 20
8.4695
 10
119.981
 20
8.3768
 10
119.9752
 20
8.2852
 10
119.9687
 20
8.1948
 10
119.9615
 20
8.1055
 10
119.9326
 20
8.0387
 10
119.8385
 20
8.0387
 10
119.7443
 20
8.0387
 10
119.6502
 20
8.0387
 10
119.5561
 20
8.0387
 10
119.4619
 20
8.0387
 10
119.3678
 20
8.0387
 10
119.2736
 20
8.0387
 10
119.1795
 20
8.0387
 10
119.0854
 20
8.0387
 10
118.9912
 20
8.0387
 10
118.8971
 20
8.0387
 10
118.8029
 20
8.0387
 10
118.7088
 20
8.0387
 10
118.6147
 20
8.0387
 10
118.5205
 20
8.0387
 10
118.4264
 20
8.0387
 10
118.3322
 20
8.0387
 10
118.2381
 20
8.0387
 10
118.144
 20
8.0387
 10
118.0498
 20
8.0387
 10
117.9557
 20
8.0387
 10
117.8615
 20
8.0387
 10
117.7674
 20
8.0387
 10
117.6733
 20
8.0387
 10
117.5791
 20
8.0387
 10
117.485
 20
8.0387
 10
117.3908
 20
8.0387
 10
117.2967
 20
8.0387
 10
117.2026
 20
8.0387
 10
117.1084
 20
8.0387
 10
117.0143
 20
8.0387
 10
116.9201
 20
8.0387
 10
116.826
 20
8.0387
 10
116.7319
 20
8.0387
 10
116.6377
 20
8.0387
 10
116.5436
 20
8.0387
 10
116.4494
 20
8.0387
 10
116.3553
 20
8.0387
 10
116.2612
 20
8.0387
 10
116.167
 20
8.0387
 10
116.0729
 20
8.0387
 10
115.9787
 20
8.0387
 10
115.8846
 20
8.0387
 10
115.7905
 20
8.0387
 10
115.6963
 20
8.0387
 10
115.6022
 20
8.0387
 10
115.5081
 20
8.0387
 10
115.4139
 20
8.0387
 10
115.3198
 20
8.0387
 10
115.2256
 20
8.0387
 10
115.1315
 20
8.0387
 10
115.0374
 20
8.0387
 10
114.9432
 20
8.0387
  0
LWPOLYLINE
  5
58
330
17
100
AcDbEntity
  8
OUTLINE
100
AcDbPolyline
 90
100
 70
1
 10
114.7408
 20
9.4249
 10
114.7342
 20
9.365
 10
114.7977
 20
9.365
 10
114.8918
 20
9.365
 10
114.9859
 20
9.365
 10
115.0801
 20
9.365
 10
115.1742
 20
9.365
 10
115.2684
 20
9.365
 10
115.3625
 20
9.365
 10
115.4566
 20
9.365
 10
115.5508
 20
9.365
 10
115.6449
 20
9.365
 10
115.7391
 20
9.365
 10
115.8332
 20
9.365
 10
115.9273
 20
9.365
 10
116.0215
 20
9.365
 10
116.1156
 20
9.365
 10
116.2098
 20
9.365
 10
116.3039
 20
9.365
 10
116.398
 20
9.365
 10
116.4922
 20
9.365
 10
116.5863
 20
9.365
 10
116.6804
 20
9.365
 10
116.7746
 20
9.365
 10
116.8687
 20
9.365
 10
116.9629
 20
9.365
 10
117.057
 20
9.365
 10
117.1511
 20
9.365
 10
117.2453
 20
9.365
 10
117.3394
 20
9.365
 10
117.4336
 20
9.365
 10
117.5277
 20
9.365
 10
117.6218
 20
9.365
 10
117.716
 20
9.365
 10
117.8101
 20
9.365
 10
117.9043
 20
9.365
 10
117.9984
 20
9.365
 10
118.0925
 20
9.365
 10
118.1867
 20
9.365
 10
118.2413
 20
9.4122
 10
118.238
 20
9.5229
 10
118.2312
 20
9.6304
 10
118.2208
 20
9.7345
 10
118.2068
 20
9.8353
 10
118.1893
 20
9.9328
 10
118.1682
 20
10.0269
 10
118.1435
 20
10.1178
 10
118.1153
 20
10.2053
 10
118.0836
 20
10.2895
 10
118.0482
 20
10.3703
 10
118.0093
 20
10.4478
 10
117.9668
 20
10.5221
 10
117.9208
 20
10.5929
 10
117.8712
 20
10.6605
 10
117.8181
 20
10.7247
 10
117.7587
 20
10.7884
 10
117.694
 20
10.8497
 10
117.626
 20
10.9066
 10
117.5547
 20
10.9589
 10
117.4802
 20
11.0067
 10
117.4024
 20
11.0499
 10
117.3213
 20
11.0886
 10
117.237
 20
11.1228
 10
117.1493
 20
11.1524
 10
117.0584
 20
11.1775
 10
116.9642
 20
11.1981
 10
116.8667
 20
11.2142
 10
116.766
 20
11.2257
 10
116.6619
 20
11.2327
 10
116.5546
 20
11.2351
 10
116.4495
 20
11.233
 10
116.3473
 20
11.2264
 10
116.248
 20
11.2152
 10
116.1516
 20
11.1995
 10
116.0581
 20
11.1792
 10
115.9675
 20
11.1543
 10
115.8798
 20
11.125
 10
115.7949
 20
11.091
 10
115.713
 20
11.0526
 10
115.6339
 20
11.0095
 10
115.5577
 20
10.962
 10
115.4844
 20
10.9099
 10
115.4139
 20
10.8532
 10
115.3464
 20
10.792
 10
115.2817
 20
10.7262
 10
115.22
 20
10.6559
 10
115.1664
 20
10.5881
 10
115.1194
 20
10.5226
 10
115.075
 20
10.4544
 10
115.0332
 20
10.3835
 10
114.9939
 20
10.3098
 10
114.9571
 20
10.2335
 10
114.9229
 20
10.1545
 10
114.8912
 20
10.0727
 10
114.8621
 20
9.9883
 10
114.8355
 20
9.9012
 10
114.8115
 20
9.8113
 10
114.79
 20
9.7188
 10
114.771
 20
9.6235
 10
114.7546
 20
9.5256
  0
LWPOLYLINE
  5
59
330
17
100
AcDbEntity
  8
OUTLINE
100
AcDbPolyline
 90
432
 70
1
 10
108.6184
 20
4.7012
 10
108.5381
 20
4.7007
 10
108.4581
 20
4.7005
 10
108.3597
 20
4.7011
 10
108.2624
 20
4.7028
 10
108.1662
 20
4.7058
 10
108.071
 20
4.7099
 10
107.9768
 20
4.7152
 10
107.8838
 20
4.7216
 10
107.7918
 20
4.7293
 10
107.7008
 20
4.7381
 10
107.6109
 20
4.7481
 10
107.5221
 20
4.7593
 10
107.4343
 20
4.7716
 10
107.3476
 20
4.7852
 10
107.262
 20
4.7999
 10
107.1774
 20
4.8158
 10
107.0938
 20
4.8328
 10
107.0114
 20
4.851
 10
106.93
 20
4.8705
 10
106.8496
 20
4.891
 10
106.7703
 20
4.9128
 10
106.6921
 20
4.9357
 10
106.615
 20
4.9599
 10
106.5389
 20
4.9852
 10
106.4638
 20
5.0116
 10
106.3898
 20
5.0393
 10
106.3169
 20
5.0681
 10
106.2451
 20
5.0981
 10
106.1743
 20
5.1293
 10
106.1045
 20
5.1616
 10
106.0358
 20
5.1951
 10
105.9682
 20
5.2298
 10
105.9017
 20
5.2657
 10
105.8362
 20
5.3028
 10
105.7717
 20
5.341
 10
105.7084
 20
5.3804
 10
105.6461
 20
5.421
 10
105.5848
 20
5.4628
 10
105.5246
 20
5.5057
 10
105.4655
 20
5.5498
 10
105.4074
 20
5.5951
 10
105.3504
 20
5.6416
 10
105.2944
 20
5.6892
 10
105.2396
 20
5.738
 10
105.1846
 20
5.7891
 10
105.1299
 20
5.8423
 10
105.0766
 20
5.8966
 10
105.0247
 20
5.952
 10
104.9741
 20
6.0086
 10
104.9249
 20
6.0662
 10
104.8771
 20
6.125
 10
104.8306
 20
6.1849
 10
104.7855
 20
6.2459
 10
104.7419
 20
6.308
 10
104.6995
 20
6.3713
 10
104.6586
 20
6.4356
 10
104.619
 20
6.5011
 10
104.5808
 20
6.5677
 10
104.544
 20
6.6354
 10
104.5086
 20
6.7042
 10
104.4745
 20
6.7741
 10
104.4418
 20
6.8452
 10
104.4105
 20
6.9174
 10
104.3805
 20
6.9906
 10
104.352
 20
7.065
 10
104.3248
 20
7.1405
 10
104.299
 20
7.2172
 10
104.2745
 20
7.2949
 10
104.2515
 20
7.3738
 10
104.2298
 20
7.4537
 10
104.2095
 20
7.5348
 10
104.1905
 20
7.617
 10
104.173
 20
7.7003
 10
104.1568
 20
7.7848
 10
104.142
 20
7.8703
 10
104.1285
 20
7.957
 10
104.1165
 20
8.0448
 10
104.1058
 20
8.1337
 10
104.0965
 20
8.2237
 10
104.0885
 20
8.3148
 10
104.082
 20
8.4071
 10
104.0768
 20
8.5004
 10
104.073
 20
8.5949
 10
104.0705
 20
8.6905
 10
104.0695
 20
8.7872
 10
104.0698
 20
8.8843
 10
104.0714
 20
8.9803
 10
104.0744
 20
9.0752
 10
104.0787
 20
9.169
 10
104.0844
 20
9.2618
 10
104.0914
 20
9.3534
 10
104.0997
 20
9.444
 10
104.1093
 20
9.5334
 10
104.1203
 20
9.6218
 10
104.1327
 20
9.7091
 10
104.1463
 20
9.7953
 10
104.1613
 20
9.8804
 10
104.1777
 20
9.9644
 10
104.1953
 20
10.0473
 10
104.2143
 20
10.1291
 10
104.2347
 20
10.2098
 10
104.2564
 20
10.2895
 10
104.2794
 20
10.368
 10
104.3037
 20
10.4455
 10
104.3294
 20
10.5218
 10
104.3565
 20
10.5971
 10
104.3848
 20
10.6713
 10
104.4145
 20
10.7444
 10
104.4455
 20
10.8164
 10
104.4779
 20
10.8873
 10
104.5116
 20
10.9571
 10
104.5467
 20
11.0258
 10
104.583
 20
11.0935
 10
104.6207
 20
11.16
 10
104.6598
 20
11.2255
 10
104.7002
 20
11.2898
 10
104.7419
 20
11.3531
 10
104.785
 20
11.4153
 10
104.8293
 20
11.4764
 10
104.8751
 20
11.5363
 10
104.9221
 20
11.5952
 10
104.9705
 20
11.6531
 10
105.0203
 20
11.7098
 10
105.0713
 20
11.7654
 10
105.1237
 20
11.8199
 10
105.1771
 20
11.8729
 10
105.2315
 20
11.9246
 10
105.287
 20
11.9749
 10
105.3437
 20
12.0239
 10
105.4015
 20
12.0715
 10
105.4605
 20
12.1178
 10
105.5206
 20
12.1627
 10
105.5818
 20
12.2064
 10
105.6441
 20
12.2487
 10
105.7076
 20
12.2896
 10
105.7722
 20
12.3292
 10
105.8379
 20
12.3675
 10
105.9048
 20
12.4044
 10
105.9728
 20
12.44
 10
106.042
 20
12.4743
 10
106.1122
 20
12.5073
 10
106.1836
 20
12.5388
 10
106.2562
 20
12.5691
 10
106.3298
 20
12.598
 10
106.4046
 20
12.6256
 10
106.4806
 20
12.6519
 10
106.5576
 20
12.6768
 10
106.6358
 20
12.7004
 10
106.7151
 20
12.7226
 10
106.7956
 20
12.7435
 10
106.8772
 20
12.7631
 10
106.9599
 20
12.7813
 10
107.0438
 20
12.7982
 10
107.1287
 20
12.8138
 10
107.2149
 20
12.828
 10
107.3021
 20
12.8409
 10
107.3905
 20
12.8525
 10
107.48
 20
12.8627
 10
107.5706
 20
12.8716
 10
107.6624
 20
12.8791
 10
107.7553
 20
12.8853
 10
107.8494
 20
12.8902
 10
107.9445
 20
12.8937
 10
108.0408
 20
12.8959
 10
108.1383
 20
12.8968
 10
108.2316
 20
12.8963
 10
108.3231
 20
12.8944
 10
108.4136
 20
12.8912
 10
108.5031
 20
12.8866
 10
108.5915
 20
12.8806
 10
108.6788
 20
12.8733
 10
108.7652
 20
12.8645
 10
108.8505
 20
12.8544
 10
108.9347
 20
12.8429
 10
109.0179
 20
12.8301
 10
109.1001
 20
12.8158
 10
109.1812
 20
12.8002
 10
109.2613
 20
12.7832
 10
109.3404
 20
12.7648
 10
109.4184
 20
12.7451
 10
109.4954
 20
12.724
 10
109.5713
 20
12.7015
 10
109.6462
 20
12.6776
 10
109.72
 20
12.6524
 10
109.7929
 20
12.6258
 10
109.8646
 20
12.5978
 10
109.9354
 20
12.5684
 10
110.0051
 20
12.5377
 10
110.0737
 20
12.5056
 10
110.1413
 20
12.4721
 10
110.2083
 20
12.437
 10
110.285
 20
12.3944
 10
110.3595
 20
12.3503
 10
110.4321
 20
12.3045
 10
110.5025
 20
12.2573
 10
110.5709
 20
12.2084
 10
110.6373
 20
12.158
 10
110.7016
 20
12.1061
 10
110.7638
 20
12.0526
 10
110.824
 20
11.9975
 10
110.8821
 20
11.9408
 10
110.9382
 20
11.8826
 10
110.9922
 20
11.8228
 10
111.0441
 20
11.7615
 10
111.094
 20
11.6986
 10
111.1418
 20
11.6341
 10
111.1876
 20
11.5681
 10
111.2314
 20
11.5005
 10
111.273
 20
11.4314
 10
111.3126
 20
11.3607
 10
111.3502
 20
11.2884
 10
111.3857
 20
11.2146
 10
111.4107
 20
11.1413
 10
111.3459
 20
11.0907
 10
111.281
 20
11.04
 10
111.2162
 20
10.9893
 10
111.1513
 20
10.9386
 10
111.0864
 20
10.8879
 10
111.0216
 20
10.8373
 10
110.9567
 20
10.7866
 10
110.8919
 20
10.7359
 10
110.827
 20
10.6852
 10
110.7622
 20
10.6345
 10
110.6973
 20
10.5839
 10
110.6324
 20
10.5332
 10
110.5676
 20
10.4825
 10
110.5027
 20
10.4318
 10
110.4379
 20
10.3811
 10
110.373
 20
10.3305
 10
110.3082
 20
10.2798
 10
110.2433
 20
10.2291
 10
110.1785
 20
10.1784
 10
110.1136
 20
10.1277
 10
110.0499
 20
10.0848
 10
110.0033
 20
10.1572
 10
109.9549
 20
10.2271
 10
109.9047
 20
10.2948
 10
109.8527
 20
10.36
 10
109.799
 20
10.423
 10
109.7435
 20
10.4836
 10
109.6863
 20
10.5418
 10
109.6273
 20
10.5977
 10
109.5665
 20
10.6513
 10
109.5039
 20
10.7025
 10
109.4396
 20
10.7514
 10
109.3735
 20
10.7979
 10
109.3057
 20
10.842
 10
109.2361
 20
10.8839
 10
109.1644
 20
10.9235
 10
109.0914
 20
10.9604
 10
109.0174
 20
10.9945
 10
108.9425
 20
11.0258
 10
108.8665
 20
11.0542
 10
108.7896
 20
11.0798
 10
108.7117
 20
11.1026
 10
108.6327
 20
11.1225
 10
108.5528
 20
11.1396
 10
108.4719
 20
11.1539
 10
108.3899
 20
11.1653
 10
108.307
 20
11.1739
 10
108.2231
 20
11.1796
 10
108.1382
 20
11.1825
 10
108.0479
 20
11.1826
 10
107.9538
 20
11.18
 10
107.8618
 20
11.1747
 10
107.7718
 20
11.1668
 10
107.6837
 20
11.1562
 10
107.5977
 20
11.1429
 10
107.5137
 20
11.1269
 10
107.4317
 20
11.1082
 10
107.3517
 20
11.0869
 10
107.2737
 20
11.0629
 10
107.1978
 20
11.0363
 10
107.1238
 20
11.0069
 10
107.0518
 20
10.9749
 10
106.9818
 20
10.9402
 10
106.9139
 20
10.9029
 10
106.8479
 20
10.8628
 10
106.784
 20
10.8201
 10
106.722
 20
10.7748
 10
106.6621
 20
10.7267
 10
106.6042
 20
10.676
 10
106.5483
 20
10.6226
 10
106.4954
 20
10.5676
 10
106.4466
 20
10.5124
 10
106.4
 20
10.4552
 10
106.3557
 20
10.3959
 10
106.3137
 20
10.3346
 10
106.274
 20
10.2713
 10
106.2366
 20
10.2059
 10
106.2014
 20
10.1385
 10
106.1685
 20
10.069
 10
106.1379
 20
9.9975
 10
106.1096
 20
9.924
 10
106.0835
 20
9.8484
 10
106.0597
 20
9.7708
 10
106.0382
 20
9.6911
 10
106.019
 20
9.6094
 10
106.0021
 20
9.5257
 10
105.9874
 20
9.4399
 10
105.975
 20
9.3521
 10
105.9649
 20
9.2623
 10
105.957
 20
9.1704
 10
105.9515
 20
9.0765
 10
105.9482
 20
8.9806
 10
105.9472
 20
8.8826
 10
105.9484
 20
8.7857
 10
105.952
 20
8.6907
 10
105.9578
 20
8.5976
 10
105.966
 20
8.5064
 10
105.9764
 20
8.417
 10
105.9892
 20
8.3296
 10
106.0042
 20
8.244
 10
106.0216
 20
8.1603
 10
106.0412
 20
8.0785
 10
106.0631
 20
7.9986
 10
106.0873
 20
7.9206
 10
106.1138
 20
7.8445
 10
106.1426
 20
7.7703
 10
106.1737
 20
7.6979
 10
106.2071
 20
7.6275
 10
106.2428
 20
7.5589
 10
106.2807
 20
7.4922
 10
106.321
 20
7.4275
 10
106.3636
 20
7.3646
 10
106.4084
 20
7.3036
 10
106.4556
 20
7.2444
 10
106.505
 20
7.1872
 10
106.5567
 20
7.1319
 10
106.6108
 20
7.0784
 10
106.6658
 20
7.028
 10
106.721
 20
6.9809
 10
106.778
 20
6.9358
 10
106.8367
 20
6.8925
 10
106.8972
 20
6.8511
 10
106.9595
 20
6.8116
 10
107.0236
 20
6.7739
 10
107.0894
 20
6.7382
 10
107.157
 20
6.7043
 10
107.2264
 20
6.6722
 10
107.2975
 20
6.6421
 10
107.3705
 20
6.6138
 10
107.4452
 20
6.5874
 10
107.5216
 20
6.5628
 10
107.5999
 20
6.5402
 10
107.6799
 20
6.5194
 10
107.7617
 20
6.5005
 10
107.8453
 20
6.4834
 10
107.9307
 20
6.4682
 10
108.0178
 20
6.455
 10
108.1067
 20
6.4435
 10
108.1974
 20
6.434
 10
108.2898
 20
6.4263
 10
108.384
 20
6.4205
 10
108.48
 20
6.4166
 10
108.5778
 20
6.4145
 10
108.6702
 20
6.4142
 10
108.7527
 20
6.4148
 10
108.8351
 20
6.4159
 10
108.9174
 20
6.4177
 10
108.9997
 20
6.42
 10
109.082
 20
6.423
 10
109.1642
 20
6.4265
 10
109.2464
 20
6.4306
 10
109.3285
 20
6.4354
 10
109.4106
 20
6.4407
 10
109.4926
 20
6.4467
 10
109.5746
 20
6.4532
 10
109.6565
 20
6.4603
 10
109.7388
 20
6.4681
 10
109.8221
 20
6.4765
 10
109.9052
 20
6.4853
 10
109.9879
 20
6.4946
 10
110.0704
 20
6.5044
 10
110.1525
 20
6.5145
 10
110.2343
 20
6.5251
 10
110.3157
 20
6.5362
 10
110.3969
 20
6.5477
 10
110.4778
 20
6.5597
 10
110.5583
 20
6.5721
 10
110.6385
 20
6.5849
 10
110.7184
 20
6.5982
 10
110.7781
 20
6.5848
 10
110.7876
 20
6.503
 10
110.797
 20
6.4213
 10
110.8064
 20
6.3395
 10
110.8158
 20
6.2577
 10
110.8252
 20
6.176
 10
110.8346
 20
6.0942
 10
110.844
 20
6.0124
 10
110.8534
 20
5.9306
 10
110.8628
 20
5.8489
 10
110.8722
 20
5.7671
 10
110.8817
 20
5.6853
 10
110.8911
 20
5.6036
 10
110.9005
 20
5.5218
 10
110.9099
 20
5.44
 10
110.9193
 20
5.3583
 10
110.9287
 20
5.2765
 10
110.9381
 20
5.1947
 10
110.9475
 20
5.1129
 10
110.9569
 20
5.0312
 10
110.9664
 20
4.9494
 10
110.915
 20
4.9122
 10
110.836
 20
4.8957
 10
110.7567
 20
4.8799
 10
110.677
 20
4.8648
 10
110.5969
 20
4.8505
 10
110.5165
 20
4.837
 10
110.4356
 20
4.8242
 10
110.3544
 20
4.8122
 10
110.2728
 20
4.801
 10
110.1908
 20
4.7905
 10
110.1085
 20
4.7807
 10
110.0258
 20
4.7717
 10
109.9427
 20
4.7635
 10
109.8592
 20
4.756
 10
109.7753
 20
4.7493
 10
109.691
 20
4.7433
 10
109.6066
 20
4.7378
 10
109.5225
 20
4.7326
 10
109.4387
 20
4.7279
 10
109.3553
 20
4.7235
 10
109.2721
 20
4.7195
 10
109.1893
 20
4.7159
 10
109.1068
 20
4.7127
 10
109.0246
 20
4.7098
 10
108.9427
 20
4.7073
 10
108.8611
 20
4.7052
 10
108.7799
 20
4.7035
 10
108.699
 20
4.7022
  0
LWPOLYLINE
  5
5A
330
17
100
AcDbEntity
  8
OUTLINE
100
AcDbPolyline
 90
366
 70
1
 10
70.3826
 20
8.6387
 10
70.3826
 20
8.4778
 10
70.3826
 20
8.317
 10
70.3826
 20
8.1561
 10
70.3826
 20
7.9953
 10
70.3826
 20
7.8344
 10
70.3826
 20
7.6736
 10
70.3826
 20
7.5127
 10
70.3826
 20
7.3519
 10
70.3826
 20
7.191
 10
70.3826
 20
7.0302
 10
70.3826
 20
6.8693
 10
70.3826
 20
6.7085
 10
70.3826
 20
6.5476
 10
70.3826
 20
6.3868
 10
70.3826
 20
6.2259
 10
70.3826
 20
6.0651
 10
70.3826
 20
5.9042
 10
70.3826
 20
5.7434
 10
70.3826
 20
5.5825
 10
70.3826
 20
5.4217
 10
70.3826
 20
5.2608
 10
70.3826
 20
5.1
 10
70.3826
 20
4.9392
 10
70.3114
 20
4.8495
 10
70.1506
 20
4.8495
 10
69.9897
 20
4.8495
 10
69.8289
 20
4.8495
 10
69.668
 20
4.8495
 10
69.5072
 20
4.8495
 10
69.3463
 20
4.8495
 10
69.1855
 20
4.8495
 10
69.0246
 20
4.8495
 10
68.8638
 20
4.8495
 10
68.7029
 20
4.8495
 10
68.5421
 20
4.8495
 10
68.5421
 20
5.0103
 10
68.5421
 20
5.1712
 10
68.5421
 20
5.332
 10
68.5421
 20
5.4929
 10
68.5421
 20
5.6537
 10
68.5421
 20
5.8146
 10
68.5421
 20
5.9754
 10
68.5421
 20
6.1363
 10
68.5421
 20
6.2971
 10
68.5421
 20
6.458
 10
68.5421
 20
6.6188
 10
68.5421
 20
6.7797
 10
68.5421
 20
6.9405
 10
68.5421
 20
7.1014
 10
68.5421
 20
7.2622
 10
68.5421
 20
7.4231
 10
68.5421
 20
7.5839
 10
68.5421
 20
7.7448
 10
68.5421
 20
7.9056
 10
68.5421
 20
8.0664
 10
68.5421
 20
8.2273
 10
68.5421
 20
8.3881
 10
68.5421
 20
8.549
 10
68.5421
 20
8.7098
 10
68.5421
 20
8.8707
 10
68.5421
 20
9.0315
 10
68.5421
 20
9.1924
 10
68.5421
 20
9.3532
 10
68.5421
 20
9.5141
 10
68.5421
 20
9.6749
 10
68.5421
 20
9.8358
 10
68.5421
 20
9.9966
 10
68.5421
 20
10.1575
 10
68.5421
 20
10.3183
 10
68.5421
 20
10.4792
 10
68.5421
 20
10.64
 10
68.5421
 20
10.8009
 10
68.5421
 20
10.9617
 10
68.5421
 20
11.1226
 10
68.5421
 20
11.2834
 10
68.5421
 20
11.4443
 10
68.5421
 20
11.6051
 10
68.5421
 20
11.766
 10
68.5421
 20
11.9268
 10
68.5421
 20
12.0877
 10
68.5421
 20
12.2485
 10
68.5421
 20
12.4094
 10
68.5421
 20
12.5702
 10
68.5421
 20
12.731
 10
68.6862
 20
12.7478
 10
68.847
 20
12.7478
 10
69.0079
 20
12.7478
 10
69.1687
 20
12.7478
 10
69.3296
 20
12.7478
 10
69.4904
 20
12.7478
 10
69.6513
 20
12.7478
 10
69.8121
 20
12.7478
 10
69.973
 20
12.7478
 10
70.1338
 20
12.7478
 10
70.2073
 20
12.6501
 10
70.2251
 20
12.4903
 10
70.243
 20
12.3304
 10
70.2608
 20
12.1705
 10
70.2786
 20
12.0107
 10
70.2965
 20
11.8508
 10
70.3143
 20
11.691
 10
70.3321
 20
11.5311
 10
70.35
 20
11.3713
 10
70.356
 20
11.3171
 10
70.4211
 20
11.3171
 10
70.5164
 20
11.3171
 10
70.5686
 20
11.3761
 10
70.5852
 20
11.485
 10
70.6055
 20
11.5897
 10
70.6296
 20
11.6904
 10
70.6575
 20
11.7869
 10
70.6892
 20
11.8794
 10
70.7247
 20
11.9678
 10
70.7639
 20
12.0522
 10
70.8069
 20
12.1324
 10
70.8537
 20
12.2086
 10
70.9043
 20
12.2807
 10
70.9587
 20
12.3487
 10
71.0168
 20
12.4127
 10
71.0787
 20
12.4725
 10
71.1421
 20
12.5264
 10
71.2058
 20
12.574
 10
71.2735
 20
12.6184
 10
71.3449
 20
12.6594
 10
71.4202
 20
12.6972
 10
71.4994
 20
12.7318
 10
71.5823
 20
12.763
 10
71.6692
 20
12.791
 10
71.7598
 20
12.8157
 10
71.8543
 20
12.8371
 10
71.9526
 20
12.8552
 10
72.0548
 20
12.8701
 10
72.1607
 20
12.8817
 10
72.2706
 20
12.89
 10
72.3842
 20
12.895
 10
72.5017
 20
12.8968
 10
72.6122
 20
12.8954
 10
72.7201
 20
12.891
 10
72.8257
 20
12.8837
 10
72.9292
 20
12.8733
 10
73.0303
 20
12.8599
 10
73.1293
 20
12.8435
 10
73.226
 20
12.8242
 10
73.3205
 20
12.8018
 10
73.4128
 20
12.7765
 10
73.5028
 20
12.7481
 10
73.5906
 20
12.7167
 10
73.6762
 20
12.6824
 10
73.7595
 20
12.6451
 10
73.8406
 20
12.6047
 10
73.9195
 20
12.5614
 10
73.9961
 20
12.515
 10
74.0705
 20
12.4657
 10
74.1427
 20
12.4134
 10
74.2126
 20
12.3581
 10
74.2803
 20
12.2998
 10
74.3458
 20
12.2384
 10
74.409
 20
12.1741
 10
74.4682
 20
12.1089
 10
74.5226
 20
12.0441
 10
74.5748
 20
11.9771
 10
74.6246
 20
11.9079
 10
74.672
 20
11.8367
 10
74.7171
 20
11.7633
 10
74.7599
 20
11.6877
 10
74.8003
 20
11.61
 10
74.8384
 20
11.5302
 10
74.8741
 20
11.4482
 10
74.9075
 20
11.3641
 10
74.9385
 20
11.2778
 10
74.9672
 20
11.1894
 10
74.9936
 20
11.0989
 10
75.0176
 20
11.0062
 10
75.0393
 20
10.9114
 10
75.0586
 20
10.8144
 10
75.0756
 20
10.7153
 10
75.0902
 20
10.6141
 10
75.1025
 20
10.5107
 10
75.1125
 20
10.4052
 10
75.1201
 20
10.2975
 10
75.1254
 20
10.1877
 10
75.1283
 20
10.0758
 10
75.1289
 20
9.9667
 10
75.1289
 20
9.8714
 10
75.1289
 20
9.7761
 10
75.1289
 20
9.6808
 10
75.1289
 20
9.5855
 10
75.1289
 20
9.4901
 10
75.1289
 20
9.3948
 10
75.1289
 20
9.2995
 10
75.1289
 20
9.2042
 10
75.1289
 20
9.1089
 10
75.1289
 20
9.0136
 10
75.1289
 20
8.9183
 10
75.1289
 20
8.823
 10
75.1289
 20
8.7277
 10
75.1289
 20
8.6324
 10
75.1289
 20
8.5371
 10
75.1289
 20
8.4418
 10
75.1289
 20
8.3464
 10
75.1289
 20
8.2511
 10
75.1289
 20
8.1558
 10
75.1289
 20
8.0605
 10
75.1289
 20
7.9652
 10
75.1289
 20
7.8699
 10
75.1289
 20
7.7746
 10
75.1289
 20
7.6793
 10
75.1289
 20
7.584
 10
75.1289
 20
7.4887
 10
75.1289
 20
7.3934
 10
75.1289
 20
7.298
 10
75.1289
 20
7.2027
 10
75.1289
 20
7.1074
 10
75.1289
 20
7.0121
 10
75.1289
 20
6.9168
 10
75.1289
 20
6.8215
 10
75.1289
 20
6.7262
 10
75.1289
 20
6.6309
 10
75.1289
 20
6.5356
 10
75.1289
 20
6.4403
 10
75.1289
 20
6.345
 10
75.1289
 20
6.2496
 10
75.1289
 20
6.1543
 10
75.1289
 20
6.059
 10
75.1289
 20
5.9637
 10
75.1289
 20
5.8684
 10
75.1289
 20
5.7731
 10
75.1289
 20
5.6778
 10
75.1289
 20
5.5825
 10
75.1289
 20
5.4872
 10
75.1289
 20
5.3919
 10
75.1289
 20
5.2966
 10
75.1289
 20
5.2013
 10
75.1289
 20
5.1059
 10
75.1289
 20
5.0106
 10
75.1289
 20
4.9153
 10
75.0995
 20
4.8495
 10
75.0042
 20
4.8495
 10
74.9088
 20
4.8495
 10
74.8135
 20
4.8495
 10
74.7182
 20
4.8495
 10
74.6229
 20
4.8495
 10
74.5276
 20
4.8495
 10
74.4323
 20
4.8495
 10
74.337
 20
4.8495
 10
74.2417
 20
4.8495
 10
74.1464
 20
4.8495
 10
74.0511
 20
4.8495
 10
73.9558
 20
4.8495
 10
73.8604
 20
4.8495
 10
73.7651
 20
4.8495
 10
73.6698
 20
4.8495
 10
73.5745
 20
4.8495
 10
73.4792
 20
4.8495
 10
73.3839
 20
4.8495
 10
73.2886
 20
4.8495
 10
73.2886
 20
4.9448
 10
73.2886
 20
5.0401
 10
73.2886
 20
5.1354
 10
73.2886
 20
5.2307
 10
73.2886
 20
5.326
 10
73.2886
 20
5.4213
 10
73.2886
 20
5.5166
 10
73.2886
 20
5.612
 10
73.2886
 20
5.7073
 10
73.2886
 20
5.8026
 10
73.2886
 20
5.8979
 10
73.2886
 20
5.9932
 10
73.2886
 20
6.0885
 10
73.2886
 20
6.1838
 10
73.2886
 20
6.2791
 10
73.2886
 20
6.3744
 10
73.2886
 20
6.4697
 10
73.2886
 20
6.565
 10
73.2886
 20
6.6604
 10
73.2886
 20
6.7557
 10
73.2886
 20
6.851
 10
73.2886
 20
6.9463
 10
73.2886
 20
7.0416
 10
73.2886
 20
7.1369
 10
73.2886
 20
7.2322
 10
73.2886
 20
7.3275
 10
73.2886
 20
7.4228
 10
73.2886
 20
7.5181
 10
73.2886
 20
7.6134
 10
73.2886
 20
7.7087
 10
73.2886
 20
7.8041
 10
73.2886
 20
7.8994
 10
73.2886
 20
7.9947
 10
73.2886
 20
8.09
 10
73.2886
 20
8.1853
 10
73.2886
 20
8.2806
 10
73.2886
 20
8.3759
 10
73.2886
 20
8.4712
 10
73.2886
 20
8.5665
 10
73.2886
 20
8.6618
 10
73.2886
 20
8.7571
 10
73.2886
 20
8.8525
 10
73.2886
 20
8.9478
 10
73.2886
 20
9.0431
 10
73.2886
 20
9.1384
 10
73.2886
 20
9.2337
 10
73.2886
 20
9.329
 10
73.2886
 20
9.4243
 10
73.2886
 20
9.5196
 10
73.2886
 20
9.6149
 10
73.2885
 20
9.714
 10
73.2856
 20
9.8271
 10
73.2783
 20
9.9359
 10
73.2667
 20
10.0404
 10
73.2508
 20
10.1406
 10
73.2306
 20
10.2365
 10
73.2061
 20
10.328
 10
73.1772
 20
10.4152
 10
73.144
 20
10.4981
 10
73.1066
 20
10.5767
 10
73.0648
 20
10.651
 10
73.0186
 20
10.721
 10
72.9682
 20
10.7866
 10
72.9072
 20
10.8543
 10
72.8407
 20
10.9167
 10
72.7697
 20
10.9725
 10
72.6942
 20
11.0217
 10
72.6141
 20
11.0644
 10
72.5295
 20
11.1005
 10
72.4403
 20
11.1301
 10
72.3466
 20
11.1531
 10
72.2484
 20
11.1696
 10
72.1456
 20
11.1795
 10
72.0383
 20
11.1829
 10
71.939
 20
11.1809
 10
71.8429
 20
11.1749
 10
71.7499
 20
11.1648
 10
71.6599
 20
11.1507
 10
71.573
 20
11.1325
 10
71.4891
 20
11.1103
 10
71.4083
 20
11.084
 10
71.3306
 20
11.0536
 10
71.2559
 20
11.0192
 10
71.1843
 20
10.9807
 10
71.1157
 20
10.9382
 10
71.0503
 20
10.8916
 10
70.9878
 20
10.8409
 10
70.9285
 20
10.7862
 10
70.8722
 20
10.7275
 10
70.819
 20
10.6647
 10
70.7688
 20
10.5978
 10
70.7217
 20
10.5269
 10
70.6776
 20
10.4519
 10
70.6367
 20
10.3729
 10
70.5987
 20
10.2898
 10
70.5639
 20
10.2026
 10
70.5321
 20
10.1114
 10
70.5034
 20
10.0162
 10
70.4777
 20
9.9169
 10
70.4551
 20
9.8135
 10
70.4356
 20
9.7061
 10
70.4191
 20
9.5946
 10
70.4057
 20
9.479
 10
70.3953
 20
9.3594
 10
70.388
 20
9.2358
 10
70.3838
 20
9.1081
 10
70.3826
 20
9.0718
 10
70.3826
 20
8.9604
 10
70.3826
 20
8.7995
  0
LWPOLYLINE
  5
5B
330
17
100
AcDbEntity
  8
OUTLINE
100
AcDbPolyline
 90
648
 70
1
 10
80.5898
 20
4.7022
 10
80.5014
 20
4.7009
 10
80.4119
 20
4.7005
 10
80.3372
 20
4.7007
 10
80.2628
 20
4.7015
 10
80.1887
 20
4.7028
 10
80.1149
 20
4.7046
 10
80.0413
 20
4.7069
 10
79.968
 20
4.7097
 10
79.895
 20
4.713
 10
79.8222
 20
4.7169
 10
79.7497
 20
4.7212
 10
79.6775
 20
4.7261
 10
79.6056
 20
4.7315
 10
79.5339
 20
4.7374
 10
79.4625
 20
4.7438
 10
79.3913
 20
4.7507
 10
79.3204
 20
4.7581
 10
79.2498
 20
4.7661
 10
79.1795
 20
4.7745
 10
79.1094
 20
4.7835
 10
79.0396
 20
4.793
 10
78.9701
 20
4.803
 10
78.9008
 20
4.8135
 10
78.8318
 20
4.8245
 10
78.7631
 20
4.836
 10
78.6947
 20
4.8481
 10
78.6198
 20
4.8619
 10
78.5447
 20
4.8764
 10
78.4703
 20
4.8916
 10
78.3965
 20
4.9072
 10
78.3234
 20
4.9235
 10
78.2509
 20
4.9403
 10
78.1791
 20
4.9577
 10
78.1079
 20
4.9757
 10
78.0374
 20
4.9942
 10
77.9675
 20
5.0134
 10
77.8983
 20
5.033
 10
77.8298
 20
5.0533
 10
77.7618
 20
5.0741
 10
77.6946
 20
5.0955
 10
77.628
 20
5.1175
 10
77.562
 20
5.14
 10
77.4967
 20
5.1631
 10
77.432
 20
5.1868
 10
77.368
 20
5.2111
 10
77.3046
 20
5.2359
 10
77.2419
 20
5.2613
 10
77.195
 20
5.2969
 10
77.2044
 20
5.3682
 10
77.2138
 20
5.4395
 10
77.2232
 20
5.5107
 10
77.2326
 20
5.582
 10
77.242
 20
5.6533
 10
77.2514
 20
5.7246
 10
77.2608
 20
5.7959
 10
77.2701
 20
5.8672
 10
77.2795
 20
5.9384
 10
77.2889
 20
6.0097
 10
77.2983
 20
6.081
 10
77.3077
 20
6.1523
 10
77.3171
 20
6.2236
 10
77.3265
 20
6.2949
 10
77.3359
 20
6.3661
 10
77.3452
 20
6.4374
 10
77.3546
 20
6.5087
 10
77.364
 20
6.58
 10
77.3734
 20
6.6513
 10
77.3828
 20
6.7226
 10
77.3922
 20
6.7938
 10
77.4016
 20
6.8651
 10
77.4109
 20
6.9364
 10
77.4203
 20
7.0077
 10
77.4297
 20
7.079
 10
77.4879
 20
7.0683
 10
77.5572
 20
7.0394
 10
77.6264
 20
7.0111
 10
77.6955
 20
6.9835
 10
77.7645
 20
6.9564
 10
77.8333
 20
6.9299
 10
77.9021
 20
6.9041
 10
77.9707
 20
6.8788
 10
78.0393
 20
6.8541
 10
78.1077
 20
6.8301
 10
78.176
 20
6.8066
 10
78.2443
 20
6.7837
 10
78.3124
 20
6.7615
 10
78.3804
 20
6.7398
 10
78.4483
 20
6.7188
 10
78.5161
 20
6.6983
 10
78.5838
 20
6.6785
 10
78.6513
 20
6.6592
 10
78.7188
 20
6.6406
 10
78.7862
 20
6.6225
 10
78.8534
 20
6.6051
 10
78.9205
 20
6.5882
 10
78.9876
 20
6.572
 10
79.0563
 20
6.5559
 10
79.1315
 20
6.5391
 10
79.2063
 20
6.5231
 10
79.2806
 20
6.5079
 10
79.3546
 20
6.4935
 10
79.4282
 20
6.48
 10
79.5013
 20
6.4673
 10
79.5741
 20
6.4555
 10
79.6464
 20
6.4444
 10
79.7183
 20
6.4343
 10
79.7899
 20
6.4249
 10
79.861
 20
6.4164
 10
79.9317
 20
6.4087
 10
80.002
 20
6.4018
 10
80.0719
 20
6.3958
 10
80.1413
 20
6.3906
 10
80.2104
 20
6.3863
 10
80.2791
 20
6.3828
 10
80.3473
 20
6.3801
 10
80.4152
 20
6.3782
 10
80.4826
 20
6.3772
 10
80.5563
 20
6.377
 10
80.6458
 20
6.3783
 10
80.733
 20
6.3813
 10
80.8179
 20
6.3858
 10
80.9006
 20
6.3921
 10
80.981
 20
6.3999
 10
81.0591
 20
6.4095
 10
81.135
 20
6.4206
 10
81.2085
 20
6.4335
 10
81.2798
 20
6.4479
 10
81.3489
 20
6.464
 10
81.4157
 20
6.4818
 10
81.4802
 20
6.5012
 10
81.5424
 20
6.5223
 10
81.6024
 20
6.545
 10
81.6601
 20
6.5694
 10
81.7155
 20
6.5954
 10
81.7686
 20
6.623
 10
81.8195
 20
6.6523
 10
81.8681
 20
6.6833
 10
81.9237
 20
6.7227
 10
81.98
 20
6.768
 10
82.0321
 20
6.8158
 10
82.0803
 20
6.8662
 10
82.1243
 20
6.9193
 10
82.1643
 20
6.9749
 10
82.2003
 20
7.0332
 10
82.2321
 20
7.0941
 10
82.26
 20
7.1575
 10
82.2837
 20
7.2236
 10
82.3034
 20
7.2923
 10
82.319
 20
7.3636
 10
82.3306
 20
7.4375
 10
82.3381
 20
7.514
 10
82.3415
 20
7.5931
 10
82.341
 20
7.6673
 10
82.3369
 20
7.7366
 10
82.3291
 20
7.8044
 10
82.3177
 20
7.8707
 10
82.3027
 20
7.9355
 10
82.2841
 20
7.9988
 10
82.2619
 20
8.0606
 10
82.2361
 20
8.1209
 10
82.2066
 20
8.1796
 10
82.1736
 20
8.2369
 10
82.1369
 20
8.2926
 10
82.0967
 20
8.3469
 10
82.0528
 20
8.3996
 10
82.0053
 20
8.4508
 10
81.9542
 20
8.5005
 10
81.8995
 20
8.5487
 10
81.8411
 20
8.5954
 10
81.7792
 20
8.6406
 10
81.7136
 20
8.6843
 10
81.6445
 20
8.7264
 10
81.5717
 20
8.7671
 10
81.4953
 20
8.8062
 10
81.4189
 20
8.8425
 10
81.3539
 20
8.8734
 10
81.289
 20
8.9042
 10
81.224
 20
8.9351
 10
81.1591
 20
8.9659
 10
81.0941
 20
8.9968
 10
81.0292
 20
9.0276
 10
80.9643
 20
9.0585
 10
80.8993
 20
9.0893
 10
80.8344
 20
9.1202
 10
80.7694
 20
9.151
 10
80.7045
 20
9.1819
 10
80.6395
 20
9.2127
 10
80.5746
 20
9.2436
 10
80.5097
 20
9.2744
 10
80.4447
 20
9.3053
 10
80.3798
 20
9.3361
 10
80.3148
 20
9.367
 10
80.2499
 20
9.3978
 10
80.1849
 20
9.4287
 10
80.12
 20
9.4596
 10
80.0551
 20
9.4904
 10
79.9901
 20
9.5213
 10
79.9252
 20
9.5521
 10
79.8602
 20
9.583
 10
79.7953
 20
9.6138
 10
79.7231
 20
9.6482
 10
79.6508
 20
9.6836
 10
79.5796
 20
9.7196
 10
79.5095
 20
9.7561
 10
79.4405
 20
9.7932
 10
79.3727
 20
9.8308
 10
79.306
 20
9.869
 10
79.2405
 20
9.9077
 10
79.176
 20
9.947
 10
79.1127
 20
9.9868
 10
79.0506
 20
10.0271
 10
78.9895
 20
10.068
 10
78.9296
 20
10.1094
 10
78.8709
 20
10.1514
 10
78.8132
 20
10.1939
 10
78.7567
 20
10.237
 10
78.7013
 20
10.2806
 10
78.647
 20
10.3247
 10
78.5939
 20
10.3694
 10
78.5419
 20
10.4147
 10
78.491
 20
10.4604
 10
78.4413
 20
10.5068
 10
78.3927
 20
10.5536
 10
78.3452
 20
10.6011
 10
78.2989
 20
10.649
 10
78.2537
 20
10.6975
 10
78.2096
 20
10.7466
 10
78.1666
 20
10.7962
 10
78.1248
 20
10.8463
 10
78.0841
 20
10.897
 10
78.0403
 20
10.9538
 10
77.9972
 20
11.0127
 10
77.9558
 20
11.0723
 10
77.9161
 20
11.1325
 10
77.8781
 20
11.1934
 10
77.8418
 20
11.2549
 10
77.8072
 20
11.3171
 10
77.7744
 20
11.38
 10
77.7432
 20
11.4435
 10
77.7138
 20
11.5077
 10
77.6861
 20
11.5726
 10
77.6601
 20
11.6381
 10
77.6358
 20
11.7042
 10
77.6133
 20
11.7711
 10
77.5924
 20
11.8386
 10
77.5733
 20
11.9067
 10
77.5559
 20
11.9755
 10
77.5402
 20
12.045
 10
77.5262
 20
12.1151
 10
77.514
 20
12.1859
 10
77.5034
 20
12.2574
 10
77.4946
 20
12.3295
 10
77.4875
 20
12.4023
 10
77.4821
 20
12.4757
 10
77.4784
 20
12.5498
 10
77.4764
 20
12.6245
 10
77.4762
 20
12.7025
 10
77.4775
 20
12.7847
 10
77.4805
 20
12.8657
 10
77.485
 20
12.9455
 10
77.4911
 20
13.0243
 10
77.4988
 20
13.1019
 10
77.5081
 20
13.1784
 10
77.519
 20
13.2538
 10
77.5315
 20
13.3281
 10
77.5455
 20
13.4012
 10
77.5611
 20
13.4732
 10
77.5784
 20
13.5441
 10
77.5972
 20
13.6138
 10
77.6176
 20
13.6825
 10
77.6395
 20
13.75
 10
77.6631
 20
13.8163
 10
77.6883
 20
13.8816
 10
77.715
 20
13.9457
 10
77.7434
 20
14.0087
 10
77.7733
 20
14.0706
 10
77.8048
 20
14.1314
 10
77.8379
 20
14.191
 10
77.8725
 20
14.2495
 10
77.9088
 20
14.3069
 10
77.9467
 20
14.3632
 10
77.9861
 20
14.4183
 10
78.0271
 20
14.4723
 10
78.0697
 20
14.5252
 10
78.1139
 20
14.5769
 10
78.1597
 20
14.6276
 10
78.2071
 20
14.6771
 10
78.256
 20
14.7255
 10
78.3066
 20
14.7727
 10
78.3587
 20
14.8189
 10
78.4068
 20
14.8593
 10
78.456
 20
14.8986
 10
78.5062
 20
14.9368
 10
78.5575
 20
14.9739
 10
78.6099
 20
15.0099
 10
78.6633
 20
15.0448
 10
78.7178
 20
15.0785
 10
78.7733
 20
15.1112
 10
78.8299
 20
15.1428
 10
78.8876
 20
15.1733
 10
78.9463
 20
15.2026
 10
79.0062
 20
15.2309
 10
79.067
 20
15.2581
 10
79.129
 20
15.2841
 10
79.192
 20
15.3091
 10
79.256
 20
15.333
 10
79.3212
 20
15.3557
 10
79.3874
 20
15.3774
 10
79.4546
 20
15.3979
 10
79.5229
 20
15.4173
 10
79.5923
 20
15.4357
 10
79.6628
 20
15.4529
 10
79.7343
 20
15.4691
 10
79.8069
 20
15.4841
 10
79.8806
 20
15.498
 10
79.9553
 20
15.5109
 10
80.0311
 20
15.5226
 10
80.1079
 20
15.5332
 10
80.1858
 20
15.5427
 10
80.2648
 20
15.5511
 10
80.3448
 20
15.5585
 10
80.4259
 20
15.5647
 10
80.5081
 20
15.5698
 10
80.5913
 20
15.5738
 10
80.6756
 20
15.5767
 10
80.761
 20
15.5785
 10
80.8474
 20
15.5792
 10
80.9251
 20
15.5788
 10
81.0009
 20
15.5775
 10
81.0762
 20
15.5753
 10
81.1511
 20
15.5721
 10
81.2256
 20
15.568
 10
81.2995
 20
15.563
 10
81.3731
 20
15.557
 10
81.4461
 20
15.55
 10
81.5187
 20
15.5421
 10
81.5909
 20
15.5333
 10
81.6626
 20
15.5235
 10
81.7338
 20
15.5128
 10
81.8046
 20
15.5011
 10
81.875
 20
15.4885
 10
81.9448
 20
15.475
 10
82.0143
 20
15.4605
 10
82.0832
 20
15.4451
 10
82.1517
 20
15.4287
 10
82.2198
 20
15.4114
 10
82.2874
 20
15.3931
 10
82.3545
 20
15.3739
 10
82.4212
 20
15.3538
 10
82.4874
 20
15.3327
 10
82.5532
 20
15.3107
 10
82.6185
 20
15.2877
 10
82.6834
 20
15.2638
 10
82.7483
 20
15.2387
 10
82.8136
 20
15.2124
 10
82.8786
 20
15.185
 10
82.9431
 20
15.1566
 10
83.0071
 20
15.1272
 10
83.0707
 20
15.0967
 10
83.1339
 20
15.0653
 10
83.1967
 20
15.0329
 10
83.259
 20
14.9995
 10
83.3209
 20
14.965
 10
83.3824
 20
14.9296
 10
83.4434
 20
14.8931
 10
83.504
 20
14.8557
 10
83.5642
 20
14.8172
 10
83.624
 20
14.7778
 10
83.6833
 20
14.7373
 10
83.7422
 20
14.6958
 10
83.8006
 20
14.6533
 10
83.8586
 20
14.6098
 10
83.9162
 20
14.5653
 10
83.9734
 20
14.5198
 10
84.0301
 20
14.4733
 10
84.0864
 20
14.4258
 10
84.1423
 20
14.3773
 10
84.1977
 20
14.3278
 10
84.2527
 20
14.2772
 10
84.2681
 20
14.2252
 10
84.2198
 20
14.1719
 10
84.1715
 20
14.1186
 10
84.1232
 20
14.0654
 10
84.0749
 20
14.0121
 10
84.0266
 20
13.9588
 10
83.9783
 20
13.9056
 10
83.93
 20
13.8523
 10
83.8818
 20
13.799
 10
83.8335
 20
13.7458
 10
83.7852
 20
13.6925
 10
83.7369
 20
13.6392
 10
83.6886
 20
13.586
 10
83.6403
 20
13.5327
 10
83.592
 20
13.4794
 10
83.5437
 20
13.4262
 10
83.4954
 20
13.3729
 10
83.4471
 20
13.3196
 10
83.3988
 20
13.2664
 10
83.3505
 20
13.2131
 10
83.3022
 20
13.1599
 10
83.254
 20
13.1066
 10
83.2057
 20
13.0533
 10
83.1574
 20
13.0001
 10
83.1091
 20
12.9468
 10
83.0608
 20
12.8935
 10
83.001
 20
12.9384
 10
82.9404
 20
12.9902
 10
82.8799
 20
13.0405
 10
82.8197
 20
13.0895
 10
82.7596
 20
13.137
 10
82.6998
 20
13.1832
 10
82.6401
 20
13.2279
 10
82.5806
 20
13.2713
 10
82.5213
 20
13.3132
 10
82.4622
 20
13.3537
 10
82.4033
 20
13.3929
 10
82.3446
 20
13.4306
 10
82.286
 20
13.4669
 10
82.2277
 20
13.5018
 10
82.1695
 20
13.5353
 10
82.1115
 20
13.5674
 10
82.0537
 20
13.5981
 10
81.9961
 20
13.6274
 10
81.9377
 20
13.6557
 10
81.8682
 20
13.6876
 10
81.7986
 20
13.7173
 10
81.7291
 20
13.7449
 10
81.6596
 20
13.7704
 10
81.5902
 20
13.7937
 10
81.5208
 20
13.8149
 10
81.4514
 20
13.834
 10
81.382
 20
13.851
 10
81.3127
 20
13.8658
 10
81.2434
 20
13.8785
 10
81.1741
 20
13.889
 10
81.1049
 20
13.8974
 10
81.0357
 20
13.9037
 10
80.9665
 20
13.9079
 10
80.8974
 20
13.9099
 10
80.8186
 20
13.9097
 10
80.734
 20
13.9071
 10
80.6519
 20
13.9021
 10
80.5721
 20
13.8946
 10
80.4947
 20
13.8847
 10
80.4198
 20
13.8723
 10
80.3473
 20
13.8575
 10
80.2773
 20
13.8402
 10
80.2096
 20
13.8204
 10
80.1444
 20
13.7983
 10
80.0816
 20
13.7736
 10
80.0212
 20
13.7465
 10
79.9633
 20
13.717
 10
79.9078
 20
13.685
 10
79.8547
 20
13.6506
 10
79.804
 20
13.6137
 10
79.7531
 20
13.5721
 10
79.7029
 20
13.5253
 10
79.6565
 20
13.4758
 10
79.6137
 20
13.4235
 10
79.5748
 20
13.3684
 10
79.5395
 20
13.3106
 10
79.5081
 20
13.25
 10
79.4803
 20
13.1866
 10
79.4563
 20
13.1204
 10
79.4361
 20
13.0515
 10
79.4196
 20
12.9798
 10
79.4068
 20
12.9053
 10
79.3978
 20
12.8281
 10
79.3925
 20
12.7481
 10
79.391
 20
12.6661
 10
79.3936
 20
12.5918
 10
79.4005
 20
12.5191
 10
79.4116
 20
12.4481
 10
79.4271
 20
12.3787
 10
79.4469
 20
12.3109
 10
79.471
 20
12.2448
 10
79.4994
 20
12.1803
 10
79.5321
 20
12.1175
 10
79.5691
 20
12.0562
 10
79.6104
 20
11.9966
 10
79.6559
 20
11.9388
 10
79.6969
 20
11.8917
 10
79.7405
 20
11.8453
 10
79.7868
 20
11.7996
 10
79.8357
 20
11.7546
 10
79.8872
 20
11.7104
 10
79.9414
 20
11.6669
 10
79.9982
 20
11.624
 10
80.0576
 20
11.5819
 10
80.1197
 20
11.5405
 10
80.1844
 20
11.4998
 10
80.2518
 20
11.4599
 10
80.3218
 20
11.4206
 10
80.3944
 20
11.382
 10
80.4621
 20
11.348
 10
80.5265
 20
11.316
 10
80.5909
 20
11.284
 10
80.6552
 20
11.2519
 10
80.7196
 20
11.2199
 10
80.784
 20
11.1879
 10
80.8484
 20
11.1559
 10
80.9127
 20
11.1238
 10
80.9771
 20
11.0918
 10
81.0415
 20
11.0598
 10
81.1059
 20
11.0278
 10
81.1702
 20
10.9958
 10
81.2346
 20
10.9637
 10
81.299
 20
10.9317
 10
81.3634
 20
10.8997
 10
81.4277
 20
10.8677
 10
81.4921
 20
10.8356
 10
81.5565
 20
10.8036
 10
81.6208
 20
10.7716
 10
81.6852
 20
10.7396
 10
81.7496
 20
10.7076
 10
81.814
 20
10.6755
 10
81.8783
 20
10.6435
 10
81.9489
 20
10.6083
 10
82.0222
 20
10.5708
 10
82.0943
 20
10.5329
 10
82.1653
 20
10.4947
 10
82.2352
 20
10.4561
 10
82.3039
 20
10.4172
 10
82.3715
 20
10.3778
 10
82.4379
 20
10.3381
 10
82.5032
 20
10.298
 10
82.5673
 20
10.2576
 10
82.6304
 20
10.2167
 10
82.6922
 20
10.1755
 10
82.753
 20
10.1339
 10
82.8126
 20
10.092
 10
82.871
 20
10.0497
 10
82.9284
 20
10.007
 10
82.9845
 20
9.9639
 10
83.0396
 20
9.9204
 10
83.0935
 20
9.8766
 10
83.1462
 20
9.8324
 10
83.1978
 20
9.7878
 10
83.2483
 20
9.7429
 10
83.2977
 20
9.6975
 10
83.3459
 20
9.6518
 10
83.3929
 20
9.6058
 10
83.4389
 20
9.5593
 10
83.4836
 20
9.5125
 10
83.5273
 20
9.4653
 10
83.5698
 20
9.4177
 10
83.6111
 20
9.3698
 10
83.6517
 20
9.321
 10
83.6979
 20
9.2631
 10
83.7422
 20
9.2045
 10
83.7846
 20
9.1452
 10
83.8253
 20
9.0852
 10
83.8641
 20
9.0246
 10
83.9011
 20
8.9632
 10
83.9363
 20
8.9012
 10
83.9696
 20
8.8385
 10
84.0011
 20
8.7751
 10
84.0308
 20
8.711
 10
84.0586
 20
8.6462
 10
84.0846
 20
8.5808
 10
84.1088
 20
8.5147
 10
84.1311
 20
8.4478
 10
84.1517
 20
8.3803
 10
84.1703
 20
8.3121
 10
84.1872
 20
8.2433
 10
84.2022
 20
8.1737
 10
84.2154
 20
8.1035
 10
84.2268
 20
8.0325
 10
84.2364
 20
7.9609
 10
84.2441
 20
7.8886
 10
84.25
 20
7.8156
 10
84.254
 20
7.742
 10
84.2563
 20
7.6676
 10
84.2567
 20
7.5905
 10
84.2554
 20
7.5086
 10
84.2524
 20
7.4279
 10
84.2478
 20
7.3484
 10
84.2415
 20
7.2699
 10
84.2336
 20
7.1927
 10
84.224
 20
7.1165
 10
84.2128
 20
7.0415
 10
84.1999
 20
6.9677
 10
84.1853
 20
6.895
 10
84.1691
 20
6.8235
 10
84.1513
 20
6.7531
 10
84.1318
 20
6.6838
 10
84.1106
 20
6.6157
 10
84.0877
 20
6.5488
 10
84.0633
 20
6.483
 10
84.0371
 20
6.4183
 10
84.0093
 20
6.3548
 10
83.9798
 20
6.2924
 10
83.9487
 20
6.2312
 10
83.916
 20
6.1711
 10
83.8815
 20
6.1122
 10
83.8454
 20
6.0544
 10
83.8077
 20
5.9977
 10
83.7683
 20
5.9422
 10
83.7272
 20
5.8879
 10
83.6845
 20
5.8347
 10
83.6402
 20
5.7826
 10
83.5941
 20
5.7317
 10
83.5464
 20
5.6819
 10
83.4971
 20
5.6333
 10
83.4461
 20
5.5858
 10
83.3935
 20
5.5395
 10
83.3392
 20
5.4943
 10
83.2832
 20
5.4503
 10
83.2349
 20
5.4142
 10
83.1867
 20
5.3798
 10
83.1374
 20
5.3463
 10
83.0871
 20
5.3136
 10
83.0358
 20
5.2817
 10
82.9835
 20
5.2507
 10
82.9301
 20
5.2206
 10
82.8757
 20
5.1913
 10
82.8202
 20
5.1628
 10
82.7638
 20
5.1352
 10
82.7063
 20
5.1085
 10
82.6477
 20
5.0826
 10
82.5881
 20
5.0575
 10
82.5275
 20
5.0333
 10
82.4659
 20
5.01
 10
82.4032
 20
4.9875
 10
82.3396
 20
4.9658
 10
82.2748
 20
4.945
 10
82.2091
 20
4.9251
 10
82.1423
 20
4.906
 10
82.0745
 20
4.8877
 10
82.0056
 20
4.8703
 10
81.9357
 20
4.8537
 10
81.8648
 20
4.838
 10
81.7928
 20
4.8232
 10
81.7199
 20
4.8092
 10
81.6459
 20
4.796
 10
81.5708
 20
4.7837
 10
81.4947
 20
4.7722
 10
81.4176
 20
4.7616
 10
81.3395
 20
4.7518
 10
81.2603
 20
4.7429
 10
81.1801
 20
4.7349
 10
81.0989
 20
4.7276
 10
81.0166
 20
4.7213
 10
80.9333
 20
4.7158
 10
80.849
 20
4.7111
 10
80.7636
 20
4.7073
 10
80.6772
 20
4.7043
  0
ENDSEC
  0
SECTION
  2
OBJECTS
  0
DICTIONARY
  5
A
330
0
100
AcDbDictionary
281
1
  3
ACAD_COLOR
350
B
  3
ACAD_GROUP
350
C
  3
ACAD_LAYOUT
350
D
  3
ACAD_MATERIAL
350
E
  3
ACAD_MLEADERSTYLE
350
F
  3
ACAD_MLINESTYLE
350
10
  3
ACAD_PLOTSETTINGS
350
11
  3
ACAD_PLOTSTYLENAME
350
12
  3
ACAD_SCALELIST
350
14
  3
ACAD_TABLESTYLE
350
15
  3
ACAD_VISUALSTYLE
350
16
  3
EZDXF_META
350
2D
  0
DICTIONARY
  5
B
330
A
100
AcDbDictionary
281
1
  0
DICTIONARY
  5
C
330
A
100
AcDbDictionary
281
1
  0
DICTIONARY
  5
D
330
A
100
AcDbDictionary
281
1
  3
Model
350
1A
  3
Layout1
350
1E
  0
DICTIONARY
  5
E
330
A
100
AcDbDictionary
281
1
  3
ByBlock
350
1F
  3
ByLayer
350
20
  3
Global
350
21
  0
DICTIONARY
  5
F
330
A
100
AcDbDictionary
281
1
  3
Standard
350
2C
  0
DICTIONARY
  5
10
330
A
100
AcDbDictionary
281
1
  3
Standard
350
22
  0
DICTIONARY
  5
11
330
A
100
AcDbDictionary
281
1
  0
ACDBDICTIONARYWDFLT
  5
12
330
A
100
AcDbDictionary
281
1
  3
Normal
350
13
100
AcDbDictionaryWithDefault
340
13
  0
ACDBPLACEHOLDER
  5
13
330
12
  0
DICTIONARY
  5
14
330
A
100
AcDbDictionary
281
1
  0
DICTIONARY
  5
15
330
A
100
AcDbDictionary
281
1
  0
DICTIONARY
  5
16
330
A
100
AcDbDictionary
281
1
  0
LAYOUT
  5
1A
330
D
100
AcDbPlotSettings
  1

  4
A3
  6

 40
7.5
 41
20.0
 42
7.5
 43
20.0
 44
420.0
 45
297.0
 46
0.0
 47
0.0
 48
0.0
 49
0.0
140
0.0
141
0.0
142
1.0
143
1.0
 70
1024
 72
1
 73
0
 74
5
  7

 75
16
 76
0
 77
2
 78
300
147
1.0
148
0.0
149
0.0
100
AcDbLayout
  1
Model
 70
1
 71
0
 10
0.0
 20
0.0
 11
420.0
 21
297.0
 12
0.0
 22
0.0
 32
0.0
 14
1e+20
 24
1e+20
 34
1e+20
 15
-1e+20
 25
-1e+20
 35
-1e+20
146
0.0
 13
0.0
 23
0.0
 33
0.0
 16
1.0
 26
0.0
 36
0.0
 17
0.0
 27
1.0
 37
0.0
 76
1
330
17
  0
LAYOUT
  5
1E
330
D
100
AcDbPlotSettings
  1

  4
A3
  6

 40
7.5
 41
20.0
 42
7.5
 43
20.0
 44
420.0
 45
297.0
 46
0.0
 47
0.0
 48
0.0
 49
0.0
140
0.0
141
0.0
142
1.0
143
1.0
 70
0
 72
1
 73
0
 74
5
  7

 75
16
 76
0
 77
2
 78
300
147
1.0
148
0.0
149
0.0
100
AcDbLayout
  1
Layout1
 70
1
 71
1
 10
0.0
 20
0.0
 11
420.0
 21
297.0
 12
0.0
 22
0.0
 32
0.0
 14
1e+20
 24
1e+20
 34
1e+20
 15
-1e+20
 25
-1e+20
 35
-1e+20
146
0.0
 13
0.0
 23
0.0
 33
0.0
 16
1.0
 26
0.0
 36
0.0
 17
0.0
 27
1.0
 37
0.0
 76
1
330
1B
  0
MATERIAL
  5
1F
102
{ACAD_REACTORS
330
E
102
}
330
E
100
AcDbMaterial
  1
ByBlock
  2

 70
0
 40
1.0
 71
1
 41
1.0
 91
-1023410177
 42
1.0
 72
1
  3

 73
1
 74
1
 75
1
 44
0.5
 73
0
 45
1.0
 46
1.0
 77
1
  4

 78
1
 79
1
170
1
 48
1.0
171
1
  6

172
1
173
1
174
1
140
1.0
141
1.0
175
1
  7

176
1
177
1
178
1
143
1.0
179
1
  8

270
1
271
1
272
1
145
1.0
146
1.0
273
1
  9

274
1
275
1
276
1
 42
1.0
 72
1
  3

 73
1
 74
1
 75
1
 94
63
  0
MATERIAL
  5
20
102
{ACAD_REACTORS
330
E
102
}
330
E
100
AcDbMaterial
  1
ByLayer
  2

 70
0
 40
1.0
 71
1
 41
1.0
 91
-1023410177
 42
1.0
 72
1
  3

 73
1
 74
1
 75
1
 44
0.5
 73
0
 45
1.0
 46
1.0
 77
1
  4

 78
1
 79
1
170
1
 48
1.0
171
1
  6

172
1
173
1
174
1
140
1.0
141
1.0
175
1
  7

176
1
177
1
178
1
143
1.0
179
1
  8

270
1
271
1
272
1
145
1.0
146
1.0
273
1
  9

274
1
275
1
276
1
 42
1.0
 72
1
  3

 73
1
 74
1
 75
1
 94
63
  0
MATERIAL
  5
21
102
{ACAD_REACTORS
330
E
102
}
330
E
100
AcDbMaterial
  1
Global
  2

 70
0
 40
1.0
 71
1
 41
1.0
 91
-1023410177
 42
1.0
 72
1
  3

 73
1
 74
1
 75
1
 44
0.5
 73
0
 45
1.0
 46
1.0
 77
1
  4

 78
1
 79
1
170
1
 48
1.0
171
1
  6

172
1
173
1
174
1
140
1.0
141
1.0
175
1
  7

176
1
177
1
178
1
143
1.0
179
1
  8

270
1
271
1
272
1
145
1.0
146
1.0
273
1
  9

274
1
275
1
276
1
 42
1.0
 72
1
  3

 73
1
 74
1
 75
1
 94
63
  0
MLINESTYLE
  5
22
102
{ACAD_REACTORS
330
10
102
}
330
10
100
AcDbMlineStyle
  2
Standard
 70
0
  3

 62
256
 51
90.0
 52
90.0
 71
2
 49
0.5
 62
256
  6
BYLAYER
 49
-0.5
 62
256
  6
BYLAYER
  0
MLEADERSTYLE
  5
2C
102
{ACAD_REACTORS
330
F
102
}
330
F
100
AcDbMLeaderStyle
179
2
170
2
171
1
172
0
 90
2
 40
0.0
 41
0.0
173
1
 91
-1056964608
 92
-2
290
1
 42
2.0
291
1
 43
8.0
  3
Standard
 44
4.0
300

342
29
174
1
175
1
176
0
178
1
 93
-1056964608
 45
4.0
292
0
297
0
 46
4.0
 94
-1056964608
 47
1.0
 49
1.0
140
1.0
294
1
141
0.0
177
0
142
1.0
295
0
296
0
143
3.75
271
0
272
9
273
9
  0
DICTIONARY
  5
2D
330
A
100
AcDbDictionary
280
1
281
1
  3
CREATED_BY_EZDXF
350
2E
  3
WRITTEN_BY_EZDXF
350
5E
  0
DICTIONARYVAR
  5
2E
330
2D
100
DictionaryVariables
280
0
  1
0.0 @ 2000-01-01T00:00:00.000000+00:00
  0
DICTIONARYVAR
  5
5E
330
2D
100
DictionaryVariables
280
0
  1
0.0 @ 2000-01-01T00:00:00.000000+00:00
  0
ENDSEC
  0
EOF
