<?xml version="1.0" encoding="UTF-8"?>
<svg xmlns="http://www.w3.org/2000/svg" width="104.000mm" height="44.246mm" viewBox="-2.000 -2.000 104.000 44.246">
<title>FusionSpace stacked, outline for CAD, 100 mm wide</title>
<path d="M61.7013,0.0289 C61.7154,0.0429 61.7258,0.1147 61.7287,0.1705 C61.7386,0.3619 61.6973,0.6262 61.6544,0.8386 C61.5311,1.4487 61.3073,2.1258 61.0515,2.8059 C60.5280,4.1979 59.8214,5.7094 58.9822,7.3048 C57.2398,10.6179 55.1298,13.8279 53.4676,16.0335 L53.0434,15.6092 A5.7694,5.7694 0.0000 0 0 46.1210,8.6868 L45.6967,8.2626 C47.9023,6.6003 51.1123,4.4904 54.4253,2.7479 C56.0208,1.9088 57.5323,1.2021 58.9243,0.6787 C59.6044,0.4229 60.2815,0.1991 60.8915,0.0758 C61.1040,0.0329 61.3682,-0.0084 61.5597,0.0015 C61.6155,0.0044 61.6873,0.0148 61.7013,0.0289 ZM43.8832,5.7126 L40.8190,11.2283 L40.3947,10.8041 A2.3078,2.3078 0.0000 0 0 38.7918,9.2012 L38.3675,8.7769 L43.8832,5.7126 ZM55.1556,18.8076 A1.7308,6.0579 45.0000 0 1 53.0174,23.3323 L52.5931,22.9081 A1.7308,1.7308 0.0000 0 0 51.0551,21.3701 L50.6309,20.9458 A1.7308,6.0579 45.0000 0 1 55.1556,18.8076 ZM48.1592,13.5710 A19.1113,19.1113 0.0000 0 1 44.3201,21.3594 L43.8958,20.9351 A2.8847,2.8847 0.0000 0 0 40.7951,17.8343 L40.3708,17.4101 A19.1113,19.1113 0.0000 0 1 48.1592,13.5710 ZM15.8369,33.3899 L15.8369,33.4646 L15.8369,33.4812 L15.8369,33.5393 L15.8369,33.6141 L15.8369,33.6397 L15.8369,33.6888 L15.8369,33.7635 L15.8369,33.7981 L15.8369,33.8382 L15.8369,33.9129 L15.8369,33.9876 L15.8369,34.0623 L15.8369,34.1370 L15.8369,34.2117 L15.8369,34.2865 L15.8369,34.3612 L15.8369,34.4359 L15.8369,34.5106 L15.8369,34.5853 L15.8369,34.6600 L15.8369,34.7347 L15.8369,34.8094 L15.8369,34.8842 L15.8390,34.9570 L15.9129,34.9682 L15.9868,34.9793 L16.0606,34.9904 L16.1345,35.0016 L16.2084,35.0127 L16.2823,35.0238 L16.3562,35.0349 L16.4300,35.0461 L16.5039,35.0572 L16.5778,35.0683 L16.6517,35.0795 L16.7255,35.0906 L16.7994,35.1017 L16.8733,35.1129 L16.9472,35.1240 L16.9691,35.1798 L16.9691,35.2545 L16.9691,35.3292 L16.9691,35.4039 L16.9691,35.4787 L16.9691,35.5534 L16.9691,35.6281 L16.9691,35.7028 L16.9691,35.7775 L16.9691,35.8522 L16.9691,35.9269 L16.9691,36.0016 L16.9691,36.0764 L16.9691,36.1511 L16.9691,36.2258 L16.9691,36.3005 L16.9691,36.3752 L16.9691,36.4499 L16.9691,36.5246 L16.9691,36.5993 L16.9691,36.6740 L16.8989,36.6803 L16.8242,36.6823 L16.7495,36.6843 L16.6748,36.6863 L16.6001,36.6883 L16.5254,36.6903 L16.4507,36.6923 L16.3761,36.6942 L16.3014,36.6962 L16.2267,36.6982 L16.1520,36.7002 L16.0773,36.7022 L16.0026,36.7042 L15.9280,36.7062 L15.8533,36.7082 L15.7786,36.7102 L15.7039,36.7121 L15.6292,36.7141 L15.5545,36.7161 L15.4798,36.7181 L15.4052,36.7201 L15.3305,36.7221 L15.2558,36.7241 L15.1811,36.7261 L15.1064,36.7281 L15.0317,36.7300 L14.9570,36.7320 L14.8824,36.7340 L14.8077,36.7360 L14.7330,36.7380 L14.6583,36.7400 L14.5836,36.7420 L14.5089,36.7440 L14.4342,36.7460 L14.3596,36.7480 L14.2849,36.7499 L14.2102,36.7519 L14.1355,36.7539 L14.0608,36.7559 L14.0555,36.6814 L14.0503,36.6069 L14.0450,36.5323 L14.0397,36.4578 L14.0344,36.3833 L14.0291,36.3088 L14.0238,36.2342 L14.0186,36.1597 L14.0133,36.0852 L14.0080,36.0107 L14.0027,35.9361 L13.9974,35.8616 L13.9921,35.7871 L13.9869,35.7126 L13.9816,35.6380 L13.9763,35.5635 L13.9710,35.4890 L13.9657,35.4145 L13.9605,35.3399 L13.9552,35.2654 L13.9499,35.1909 L13.9446,35.1164 L13.9432,35.0963 L13.8647,35.0963 L13.7726,35.0963 L13.7263,35.1640 L13.6997,35.2620 L13.6704,35.3571 L13.6385,35.4493 L13.6038,35.5388 L13.5664,35.6254 L13.5263,35.7091 L13.4836,35.7901 L13.4381,35.8682 L13.3900,35.9434 L13.3391,36.0159 L13.2856,36.0855 L13.2294,36.1522 L13.1704,36.2162 L13.1088,36.2773 L13.0445,36.3355 L12.9773,36.3911 L12.9063,36.4447 L12.8334,36.4948 L12.7584,36.5415 L12.6814,36.5847 L12.6025,36.6244 L12.5216,36.6607 L12.4386,36.6936 L12.3537,36.7230 L12.2668,36.7489 L12.1778,36.7713 L12.0869,36.7904 L11.9940,36.8059 L11.8991,36.8180 L11.8022,36.8266 L11.7032,36.8318 L11.6023,36.8336 L11.4966,36.8321 L11.3930,36.8277 L11.2915,36.8204 L11.1921,36.8101 L11.0949,36.7969 L10.9998,36.7808 L10.9068,36.7618 L10.8159,36.7398 L10.7271,36.7149 L10.6405,36.6870 L10.5559,36.6563 L10.4735,36.6226 L10.3932,36.5860 L10.3151,36.5464 L10.2390,36.5039 L10.1651,36.4585 L10.0933,36.4101 L10.0236,36.3589 L9.9561,36.3047 L9.8906,36.2475 L9.8273,36.1874 L9.7661,36.1244 L9.7073,36.0588 L9.6557,35.9967 L9.6061,35.9325 L9.5586,35.8664 L9.5132,35.7983 L9.4699,35.7282 L9.4287,35.6561 L9.3896,35.5820 L9.3526,35.5060 L9.3177,35.4280 L9.2848,35.3480 L9.2541,35.2660 L9.2254,35.1820 L9.1988,35.0961 L9.1743,35.0082 L9.1519,34.9183 L9.1316,34.8264 L9.1134,34.7325 L9.0973,34.6367 L9.0832,34.5389 L9.0713,34.4391 L9.0614,34.3373 L9.0537,34.2335 L9.0480,34.1278 L9.0444,34.0200 L9.0429,33.9103 L9.0429,33.8142 L9.0429,33.7222 L9.0429,33.6302 L9.0429,33.5382 L9.0429,33.4461 L9.0429,33.3541 L9.0429,33.2621 L9.0429,33.1701 L9.0429,33.0780 L9.0429,32.9860 L9.0429,32.8940 L9.0429,32.8020 L9.0429,32.7100 L9.0429,32.6179 L9.0429,32.5259 L9.0429,32.4339 L9.0429,32.3419 L9.0429,32.2498 L9.0429,32.1578 L9.0429,32.0658 L9.0429,31.9738 L9.0429,31.8818 L9.0429,31.7897 L9.0429,31.6977 L9.0429,31.6057 L9.0429,31.5137 L9.0429,31.4216 L9.0429,31.3296 L9.0429,31.2376 L9.0429,31.1456 L9.0429,31.0536 L9.0429,30.9615 L9.0429,30.8695 L9.0429,30.7775 L9.0429,30.6855 L9.0429,30.5934 L9.0429,30.5014 L9.0429,30.4094 L9.0429,30.3174 L9.0429,30.2253 L9.0429,30.1333 L9.0429,30.0413 L9.0429,29.9493 L9.0429,29.8573 L9.0429,29.7652 L9.0429,29.6732 L9.0429,29.5812 L9.0429,29.4892 L9.0429,29.3971 L9.0429,29.3051 L9.0429,29.2131 L9.0429,29.1211 L9.0429,29.0291 L9.0429,28.9370 L9.0429,28.8450 L9.0429,28.7530 L9.0429,28.6610 L9.0429,28.5689 L9.0429,28.4769 L9.1156,28.4576 L9.2076,28.4576 L9.2996,28.4576 L9.3917,28.4576 L9.4837,28.4576 L9.5757,28.4576 L9.6677,28.4576 L9.7598,28.4576 L9.8518,28.4576 L9.9438,28.4576 L10.0358,28.4576 L10.1278,28.4576 L10.2199,28.4576 L10.3119,28.4576 L10.4039,28.4576 L10.4959,28.4576 L10.5880,28.4576 L10.6800,28.4576 L10.7720,28.4576 L10.8640,28.4576 L10.9560,28.4576 L10.9585,28.5471 L10.9585,28.6392 L10.9585,28.7312 L10.9585,28.8232 L10.9585,28.9152 L10.9585,29.0073 L10.9585,29.0993 L10.9585,29.1913 L10.9585,29.2833 L10.9585,29.3753 L10.9585,29.4674 L10.9585,29.5594 L10.9585,29.6514 L10.9585,29.7434 L10.9585,29.8355 L10.9585,29.9275 L10.9585,30.0195 L10.9585,30.1115 L10.9585,30.2036 L10.9585,30.2956 L10.9585,30.3876 L10.9585,30.4796 L10.9585,30.5716 L10.9585,30.6637 L10.9585,30.7557 L10.9585,30.8477 L10.9585,30.9397 L10.9585,31.0318 L10.9585,31.1238 L10.9585,31.2158 L10.9585,31.3078 L10.9585,31.3998 L10.9585,31.4919 L10.9585,31.5839 L10.9585,31.6759 L10.9585,31.7679 L10.9585,31.8600 L10.9585,31.9520 L10.9585,32.0440 L10.9585,32.1360 L10.9585,32.2280 L10.9585,32.3201 L10.9585,32.4121 L10.9585,32.5041 L10.9585,32.5961 L10.9585,32.6882 L10.9585,32.7802 L10.9585,32.8722 L10.9585,32.9642 L10.9585,33.0563 L10.9585,33.1483 L10.9585,33.2403 L10.9585,33.3323 L10.9585,33.4243 L10.9585,33.5164 L10.9588,33.6146 L10.9625,33.7219 L10.9706,33.8252 L10.9831,33.9245 L11.0000,34.0199 L11.0212,34.1113 L11.0468,34.1988 L11.0768,34.2823 L11.1112,34.3619 L11.1500,34.4375 L11.1931,34.5092 L11.2406,34.5769 L11.2925,34.6407 L11.3513,34.7030 L11.4158,34.7619 L11.4842,34.8154 L11.5565,34.8633 L11.6326,34.9058 L11.7126,34.9428 L11.7964,34.9743 L11.8842,35.0003 L11.9758,35.0209 L12.0712,35.0360 L12.1706,35.0456 L12.2738,35.0497 L12.3789,35.0485 L12.4808,35.0423 L12.5792,35.0312 L12.6742,35.0151 L12.7657,34.9941 L12.8537,34.9682 L12.9383,34.9373 L13.0194,34.9014 L13.0970,34.8607 L13.1712,34.8149 L13.2420,34.7643 L13.3092,34.7087 L13.3730,34.6481 L13.4334,34.5826 L13.4903,34.5122 L13.5351,34.4495 L13.5710,34.3931 L13.6052,34.3333 L13.6376,34.2702 L13.6682,34.2038 L13.6971,34.1341 L13.7243,34.0610 L13.7497,33.9846 L13.7734,33.9049 L13.7952,33.8219 L13.8154,33.7355 L13.8338,33.6458 L13.8504,33.5528 L13.8653,33.4565 L13.8784,33.3568 L13.8898,33.2538 L13.8994,33.1475 L13.9073,33.0379 L13.9134,32.9249 L13.9177,32.8087 L13.9203,32.6891 L13.9212,32.5947 L13.9212,32.4505 L13.9212,32.2921 L13.9212,32.1336 L13.9212,31.9752 L13.9212,31.8167 L13.9212,31.6583 L13.9212,31.4999 L13.9212,31.3414 L13.9212,31.1830 L13.9212,31.0246 L13.9212,30.8661 L13.9212,30.7077 L13.9212,30.5493 L13.9212,30.3908 L13.9212,30.2324 L13.9212,30.0739 L13.9212,29.9155 L13.9212,29.7571 L13.9212,29.5986 L13.9212,29.4402 L13.9212,29.2818 L13.9212,29.1233 L13.9212,28.9649 L13.9212,28.8064 L13.9212,28.6480 L13.9212,28.4896 L14.0477,28.4576 L14.2061,28.4576 L14.3646,28.4576 L14.5230,28.4576 L14.6814,28.4576 L14.8399,28.4576 L14.9983,28.4576 L15.1567,28.4576 L15.3152,28.4576 L15.4736,28.4576 L15.6321,28.4576 L15.7905,28.4576 L15.8369,28.5697 L15.8369,28.7281 L15.8369,28.8866 L15.8369,29.0450 L15.8369,29.2034 L15.8369,29.3619 L15.8369,29.5203 L15.8369,29.6787 L15.8369,29.8372 L15.8369,29.9956 L15.8369,30.1541 L15.8369,30.3125 L15.8369,30.4709 L15.8369,30.6294 L15.8369,30.7878 L15.8369,30.9462 L15.8369,31.1047 L15.8369,31.2631 L15.8369,31.4215 L15.8369,31.5800 L15.8369,31.7384 L15.8369,31.8969 L15.8369,32.0553 L15.8369,32.2137 L15.8369,32.3722 L15.8369,32.5306 L15.8369,32.6890 L15.8369,32.8475 L15.8369,33.0059 L15.8369,33.1644 L15.8369,33.3228ZM21.3963,36.8333 L21.3121,36.8336 L21.2388,36.8335 L21.1662,36.8332 L21.0943,36.8327 L21.0232,36.8321 L20.9528,36.8313 L20.8832,36.8303 L20.8143,36.8292 L20.7462,36.8278 L20.6788,36.8263 L20.6121,36.8246 L20.5462,36.8227 L20.4810,36.8206 L20.4165,36.8184 L20.3528,36.8159 L20.2899,36.8133 L20.2277,36.8106 L20.1662,36.8076 L20.1055,36.8044 L20.0455,36.8011 L19.9862,36.7976 L19.9277,36.7939 L19.8700,36.7901 L19.8129,36.7860 L19.7567,36.7818 L19.7011,36.7774 L19.6375,36.7721 L19.5671,36.7658 L19.4975,36.7593 L19.4286,36.7525 L19.3605,36.7453 L19.2932,36.7379 L19.2266,36.7301 L19.1609,36.7221 L19.0958,36.7137 L19.0316,36.7051 L18.9681,36.6961 L18.9054,36.6868 L18.8434,36.6773 L18.7822,36.6674 L18.7218,36.6572 L18.6621,36.6468 L18.6032,36.6360 L18.5451,36.6249 L18.4878,36.6135 L18.4312,36.6018 L18.4345,36.5417 L18.4425,36.4779 L18.4505,36.4141 L18.4585,36.3502 L18.4665,36.2864 L18.4744,36.2226 L18.4824,36.1587 L18.4904,36.0949 L18.4984,36.0311 L18.5064,35.9672 L18.5143,35.9034 L18.5223,35.8396 L18.5303,35.7757 L18.5383,35.7119 L18.5463,35.6481 L18.5542,35.5843 L18.5622,35.5204 L18.5702,35.4566 L18.5782,35.3928 L18.5861,35.3289 L18.5941,35.2651 L18.6021,35.2013 L18.6101,35.1374 L18.6181,35.0736 L18.6260,35.0098 L18.6340,34.9459 L18.6420,34.8821 L18.6500,34.8183 L18.7068,34.8090 L18.7801,34.8190 L18.8525,34.8287 L18.9241,34.8382 L18.9948,34.8475 L19.0646,34.8565 L19.1336,34.8654 L19.2018,34.8741 L19.2690,34.8825 L19.3355,34.8908 L19.4010,34.8988 L19.4657,34.9066 L19.5296,34.9142 L19.5925,34.9216 L19.6547,34.9288 L19.7159,34.9358 L19.7763,34.9426 L19.8359,34.9492 L19.8945,34.9556 L19.9524,34.9617 L20.0093,34.9677 L20.0654,34.9734 L20.1207,34.9789 L20.1751,34.9843 L20.2361,34.9901 L20.3109,34.9970 L20.3844,35.0035 L20.4565,35.0095 L20.5272,35.0151 L20.5965,35.0203 L20.6645,35.0251 L20.7311,35.0295 L20.7963,35.0334 L20.8602,35.0369 L20.9227,35.0400 L20.9838,35.0427 L21.0435,35.0449 L21.1019,35.0468 L21.1589,35.0482 L21.2145,35.0491 L21.2687,35.0497 L21.3280,35.0498 L21.4146,35.0495 L21.4993,35.0485 L21.5821,35.0470 L21.6631,35.0449 L21.7421,35.0423 L21.8193,35.0391 L21.8946,35.0354 L21.9681,35.0311 L22.0396,35.0262 L22.1093,35.0208 L22.1771,35.0148 L22.2430,35.0082 L22.3070,35.0011 L22.3692,34.9935 L22.4295,34.9852 L22.4879,34.9764 L22.5444,34.9671 L22.5990,34.9572 L22.6517,34.9467 L22.7026,34.9356 L22.7516,34.9240 L22.7987,34.9119 L22.8439,34.8992 L22.8873,34.8859 L22.9288,34.8720 L22.9838,34.8517 L23.0566,34.8207 L23.1234,34.7871 L23.1841,34.7510 L23.2389,34.7122 L23.2876,34.6709 L23.3302,34.6270 L23.3669,34.5805 L23.3975,34.5315 L23.4220,34.4799 L23.4406,34.4257 L23.4531,34.3689 L23.4596,34.3096 L23.4600,34.2425 L23.4540,34.1715 L23.4416,34.1055 L23.4227,34.0447 L23.3973,33.9889 L23.3655,33.9382 L23.3272,33.8927 L23.2876,33.8561 L23.2452,33.8236 L23.1977,33.7927 L23.1449,33.7635 L23.0870,33.7360 L23.0238,33.7101 L22.9555,33.6859 L22.8820,33.6633 L22.8132,33.6442 L22.7513,33.6269 L22.6893,33.6097 L22.6273,33.5924 L22.5654,33.5751 L22.5034,33.5578 L22.4414,33.5406 L22.3795,33.5233 L22.3175,33.5060 L22.2555,33.4888 L22.1936,33.4715 L22.1316,33.4542 L22.0696,33.4369 L22.0077,33.4197 L21.9457,33.4024 L21.8837,33.3851 L21.8218,33.3679 L21.7598,33.3506 L21.6978,33.3333 L21.6359,33.3160 L21.5739,33.2988 L21.5119,33.2815 L21.4500,33.2642 L21.3880,33.2470 L21.3260,33.2297 L21.2641,33.2124 L21.2021,33.1951 L21.1401,33.1779 L21.0782,33.1606 L21.0162,33.1433 L20.9542,33.1260 L20.8923,33.1088 L20.8303,33.0915 L20.7683,33.0742 L20.7064,33.0570 L20.6444,33.0397 L20.5824,33.0224 L20.5205,33.0051 L20.4532,32.9863 L20.3784,32.9647 L20.3052,32.9424 L20.2335,32.9195 L20.1634,32.8959 L20.0947,32.8717 L20.0276,32.8470 L19.9619,32.8215 L19.8978,32.7955 L19.8352,32.7689 L19.7741,32.7416 L19.7146,32.7137 L19.6565,32.6852 L19.6000,32.6560 L19.5450,32.6263 L19.4915,32.5959 L19.4395,32.5649 L19.3890,32.5332 L19.3401,32.5010 L19.2926,32.4681 L19.2467,32.4346 L19.2023,32.4005 L19.1594,32.3657 L19.1180,32.3303 L19.0781,32.2944 L19.0398,32.2577 L18.9998,32.2170 L18.9601,32.1734 L18.9223,32.1282 L18.8863,32.0816 L18.8522,32.0334 L18.8198,31.9837 L18.7894,31.9325 L18.7607,31.8799 L18.7339,31.8257 L18.7089,31.7700 L18.6858,31.7128 L18.6645,31.6540 L18.6450,31.5938 L18.6274,31.5321 L18.6116,31.4689 L18.5976,31.4041 L18.5855,31.3379 L18.5752,31.2701 L18.5667,31.2009 L18.5601,31.1301 L18.5553,31.0578 L18.5524,30.9841 L18.5513,30.9088 L18.5519,30.8361 L18.5541,30.7649 L18.5580,30.6947 L18.5634,30.6256 L18.5705,30.5575 L18.5791,30.4904 L18.5894,30.4244 L18.6013,30.3594 L18.6147,30.2955 L18.6298,30.2326 L18.6465,30.1708 L18.6648,30.1099 L18.6847,30.0502 L18.7062,29.9915 L18.7293,29.9338 L18.7540,29.8771 L18.7803,29.8215 L18.8083,29.7670 L18.8378,29.7135 L18.8689,29.6610 L18.9017,29.6096 L18.9360,29.5592 L18.9720,29.5098 L19.0095,29.4615 L19.0487,29.4142 L19.0894,29.3680 L19.1318,29.3228 L19.1758,29.2787 L19.2214,29.2356 L19.2686,29.1935 L19.3174,29.1525 L19.3678,29.1126 L19.4198,29.0736 L19.4734,29.0357 L19.5286,28.9989 L19.5854,28.9631 L19.6404,28.9303 L19.6812,28.9071 L19.7227,28.8844 L19.7651,28.8621 L19.8084,28.8402 L19.8524,28.8188 L19.8973,28.7978 L19.9431,28.7772 L19.9896,28.7571 L20.0370,28.7374 L20.0852,28.7182 L20.1343,28.6994 L20.1842,28.6810 L20.2349,28.6630 L20.2864,28.6455 L20.3388,28.6285 L20.3920,28.6118 L20.4461,28.5956 L20.5009,28.5799 L20.5567,28.5645 L20.6132,28.5496 L20.6706,28.5352 L20.7288,28.5212 L20.7878,28.5076 L20.8476,28.4944 L20.9083,28.4817 L20.9699,28.4694 L21.0322,28.4576 L21.0954,28.4462 L21.1594,28.4352 L21.2243,28.4247 L21.2900,28.4146 L21.3565,28.4049 L21.4238,28.3957 L21.4920,28.3869 L21.5610,28.3785 L21.6308,28.3706 L21.7015,28.3631 L21.7730,28.3561 L21.8454,28.3495 L21.9185,28.3433 L21.9925,28.3375 L22.0673,28.3322 L22.1430,28.3274 L22.2195,28.3229 L22.2968,28.3189 L22.3750,28.3154 L22.4540,28.3122 L22.5338,28.3095 L22.6144,28.3073 L22.6959,28.3055 L22.7782,28.3041 L22.8614,28.3031 L22.9453,28.3026 L23.0237,28.3025 L23.0886,28.3027 L23.1534,28.3032 L23.2181,28.3040 L23.2828,28.3050 L23.3474,28.3062 L23.4119,28.3078 L23.4763,28.3095 L23.5406,28.3116 L23.6049,28.3139 L23.6691,28.3165 L23.7331,28.3193 L23.7972,28.3224 L23.8611,28.3258 L23.9250,28.3294 L23.9887,28.3333 L24.0525,28.3375 L24.1158,28.3419 L24.1771,28.3464 L24.2388,28.3511 L24.3008,28.3560 L24.3631,28.3612 L24.4257,28.3667 L24.4887,28.3724 L24.5519,28.3783 L24.6155,28.3845 L24.6794,28.3909 L24.7436,28.3976 L24.8081,28.4045 L24.8730,28.4117 L24.9381,28.4191 L25.0036,28.4267 L25.0694,28.4346 L25.1355,28.4428 L25.2019,28.4511 L25.2503,28.4734 L25.2429,28.5373 L25.2355,28.6012 L25.2280,28.6651 L25.2206,28.7290 L25.2132,28.7929 L25.2058,28.8568 L25.1983,28.9207 L25.1909,28.9846 L25.1835,29.0485 L25.1761,29.1124 L25.1687,29.1763 L25.1612,29.2402 L25.1538,29.3041 L25.1464,29.3680 L25.1390,29.4319 L25.1315,29.4958 L25.1241,29.5597 L25.1167,29.6236 L25.1093,29.6875 L25.1019,29.7514 L25.0944,29.8153 L25.0870,29.8792 L25.0796,29.9431 L25.0722,30.0070 L25.0647,30.0709 L25.0573,30.1348 L25.0460,30.1944 L24.9733,30.1878 L24.9016,30.1814 L24.8309,30.1753 L24.7612,30.1694 L24.6925,30.1637 L24.6247,30.1582 L24.5580,30.1530 L24.4922,30.1480 L24.4274,30.1432 L24.3636,30.1386 L24.3007,30.1343 L24.2389,30.1302 L24.1780,30.1264 L24.1181,30.1227 L24.0592,30.1193 L24.0013,30.1162 L23.9443,30.1132 L23.8884,30.1105 L23.8230,30.1075 L23.7525,30.1045 L23.6830,30.1017 L23.6146,30.0991 L23.5472,30.0968 L23.4808,30.0947 L23.4155,30.0928 L23.3512,30.0912 L23.2880,30.0898 L23.2259,30.0886 L23.1647,30.0877 L23.1047,30.0870 L23.0456,30.0865 L22.9876,30.0863 L22.9166,30.0863 L22.8302,30.0867 L22.7455,30.0875 L22.6625,30.0887 L22.5811,30.0904 L22.5013,30.0925 L22.4232,30.0950 L22.3468,30.0979 L22.2720,30.1013 L22.1989,30.1051 L22.1275,30.1093 L22.0577,30.1139 L21.9895,30.1189 L21.9230,30.1244 L21.8582,30.1303 L21.7951,30.1366 L21.7336,30.1433 L21.6737,30.1504 L21.6155,30.1580 L21.5590,30.1660 L21.5041,30.1744 L21.4509,30.1832 L21.3994,30.1925 L21.3495,30.2022 L21.3012,30.2123 L21.2546,30.2228 L21.2097,30.2337 L21.1665,30.2451 L21.1248,30.2569 L21.0691,30.2741 L20.9897,30.3023 L20.9165,30.3328 L20.8495,30.3656 L20.7888,30.4007 L20.7342,30.4382 L20.6859,30.4780 L20.6437,30.5201 L20.6078,30.5646 L20.5781,30.6114 L20.5546,30.6606 L20.5373,30.7121 L20.5262,30.7659 L20.5213,30.8221 L20.5229,30.8920 L20.5318,30.9617 L20.5479,31.0255 L20.5712,31.0833 L20.6019,31.1352 L20.6397,31.1811 L20.6849,31.2211 L20.7265,31.2500 L20.7711,31.2767 L20.8205,31.3028 L20.8745,31.3280 L20.9332,31.3524 L20.9966,31.3761 L21.0647,31.3989 L21.1375,31.4210 L21.2149,31.4423 L21.2780,31.4593 L21.3401,31.4760 L21.4022,31.4928 L21.4643,31.5095 L21.5264,31.5262 L21.5886,31.5430 L21.6507,31.5597 L21.7128,31.5765 L21.7749,31.5932 L21.8370,31.6100 L21.8991,31.6267 L21.9612,31.6434 L22.0233,31.6602 L22.0854,31.6769 L22.1476,31.6937 L22.2097,31.7104 L22.2718,31.7271 L22.3339,31.7439 L22.3960,31.7606 L22.4581,31.7774 L22.5202,31.7941 L22.5823,31.8109 L22.6445,31.8276 L22.7066,31.8443 L22.7687,31.8611 L22.8308,31.8778 L22.8929,31.8946 L22.9550,31.9113 L23.0171,31.9281 L23.0792,31.9448 L23.1413,31.9615 L23.2035,31.9783 L23.2799,31.9982 L23.3553,32.0188 L23.4293,32.0398 L23.5020,32.0615 L23.5734,32.0836 L23.6434,32.1063 L23.7120,32.1295 L23.7793,32.1533 L23.8453,32.1776 L23.9099,32.2025 L23.9731,32.2278 L24.0350,32.2538 L24.0956,32.2802 L24.1548,32.3072 L24.2126,32.3348 L24.2692,32.3629 L24.3243,32.3915 L24.3782,32.4206 L24.4306,32.4503 L24.4818,32.4806 L24.5315,32.5113 L24.5800,32.5427 L24.6270,32.5745 L24.6728,32.6069 L24.7172,32.6398 L24.7602,32.6733 L24.8019,32.7073 L24.8423,32.7419 L24.8813,32.7769 L24.9198,32.8134 L24.9631,32.8571 L25.0047,32.9020 L25.0445,32.9481 L25.0825,32.9955 L25.1187,33.0442 L25.1532,33.0941 L25.1858,33.1452 L25.2167,33.1976 L25.2458,33.2512 L25.2732,33.3061 L25.2987,33.3622 L25.3225,33.4196 L25.3444,33.4782 L25.3646,33.5380 L25.3830,33.5991 L25.3997,33.6615 L25.4145,33.7251 L25.4276,33.7899 L25.4389,33.8560 L25.4484,33.9233 L25.4561,33.9919 L25.4621,34.0617 L25.4662,34.1328 L25.4686,34.2051 L25.4692,34.2786 L25.4681,34.3517 L25.4655,34.4236 L25.4613,34.4945 L25.4555,34.5643 L25.4481,34.6331 L25.4391,34.7007 L25.4285,34.7672 L25.4164,34.8327 L25.4027,34.8971 L25.3873,34.9603 L25.3704,35.0225 L25.3520,35.0836 L25.3319,35.1437 L25.3102,35.2026 L25.2870,35.2604 L25.2622,35.3172 L25.2357,35.3729 L25.2078,35.4274 L25.1782,35.4809 L25.1470,35.5333 L25.1143,35.5847 L25.0799,35.6349 L25.0440,35.6840 L25.0065,35.7321 L24.9674,35.7791 L24.9267,35.8250 L24.8845,35.8698 L24.8406,35.9135 L24.7952,35.9561 L24.7482,35.9976 L24.6996,36.0381 L24.6494,36.0774 L24.5976,36.1157 L24.5443,36.1529 L24.4894,36.1890 L24.4399,36.2197 L24.3990,36.2440 L24.3571,36.2678 L24.3144,36.2912 L24.2708,36.3140 L24.2263,36.3363 L24.1810,36.3582 L24.1347,36.3796 L24.0876,36.4004 L24.0396,36.4208 L23.9907,36.4407 L23.9409,36.4601 L23.8903,36.4790 L23.8387,36.4974 L23.7863,36.5153 L23.7330,36.5328 L23.6788,36.5497 L23.6238,36.5662 L23.5678,36.5821 L23.5110,36.5976 L23.4533,36.6126 L23.3947,36.6271 L23.3352,36.6411 L23.2749,36.6546 L23.2137,36.6676 L23.1515,36.6801 L23.0885,36.6921 L23.0247,36.7037 L22.9599,36.7147 L22.8943,36.7253 L22.8277,36.7353 L22.7603,36.7449 L22.6920,36.7540 L22.6229,36.7626 L22.5528,36.7707 L22.4819,36.7783 L22.4101,36.7854 L22.3374,36.7921 L22.2638,36.7982 L22.1894,36.8038 L22.1140,36.8090 L22.0378,36.8137 L21.9607,36.8178 L21.8827,36.8215 L21.8038,36.8247 L21.7241,36.8274 L21.6435,36.8296 L21.5620,36.8313 L21.4796,36.8326ZM40.7140,36.8314 L40.5615,36.8336 L40.4095,36.8314 L40.2605,36.8249 L40.1145,36.8141 L39.9715,36.7990 L39.8316,36.7795 L39.6947,36.7558 L39.5607,36.7277 L39.4298,36.6953 L39.3019,36.6585 L39.1771,36.6175 L39.0552,36.5721 L38.9364,36.5224 L38.8206,36.4684 L38.7078,36.4100 L38.5980,36.3473 L38.4912,36.2804 L38.3875,36.2090 L38.2867,36.1334 L38.1890,36.0535 L38.0943,35.9692 L38.0026,35.8806 L37.9140,35.7877 L37.8306,35.6931 L37.7564,35.6024 L37.6853,35.5089 L37.6172,35.4125 L37.5521,35.3132 L37.4901,35.2111 L37.4310,35.1061 L37.3750,34.9982 L37.3221,34.8874 L37.2722,34.7738 L37.2253,34.6573 L37.1814,34.5379 L37.1406,34.4157 L37.1027,34.2906 L37.0680,34.1626 L37.0362,34.0318 L37.0075,33.8980 L36.9818,33.7614 L36.9591,33.6220 L36.9395,33.4796 L36.9229,33.3344 L36.9093,33.1864 L36.8987,33.0354 L36.8912,32.8816 L36.8867,32.7249 L36.8853,32.5653 L36.8868,32.4055 L36.8914,32.2485 L36.8990,32.0944 L36.9096,31.9432 L36.9233,31.7950 L36.9400,31.6496 L36.9596,31.5071 L36.9824,31.3676 L37.0081,31.2309 L37.0368,31.0971 L37.0686,30.9663 L37.1034,30.8383 L37.1412,30.7132 L37.1821,30.5911 L37.2260,30.4718 L37.2728,30.3554 L37.3227,30.2420 L37.3757,30.1314 L37.4316,30.0238 L37.4906,29.9190 L37.5526,29.8171 L37.6176,29.7182 L37.6856,29.6221 L37.7567,29.5290 L37.8308,29.4387 L37.9142,29.3444 L38.0030,29.2518 L38.0947,29.1635 L38.1895,29.0794 L38.2873,28.9997 L38.3881,28.9244 L38.4920,28.8533 L38.5988,28.7865 L38.7087,28.7241 L38.8216,28.6659 L38.9375,28.6121 L39.0565,28.5626 L39.1784,28.5174 L39.3034,28.4765 L39.4314,28.4399 L39.5625,28.4076 L39.6965,28.3797 L39.8336,28.3560 L39.9737,28.3367 L40.1168,28.3217 L40.2629,28.3110 L40.4121,28.3046 L40.5642,28.3025 L40.7167,28.3047 L40.8662,28.3113 L41.0126,28.3221 L41.1559,28.3372 L41.2962,28.3567 L41.4335,28.3804 L41.5676,28.4084 L41.6987,28.4408 L41.8268,28.4774 L41.9518,28.5183 L42.0737,28.5636 L42.1926,28.6131 L42.3085,28.6669 L42.4212,28.7251 L42.5309,28.7875 L42.6376,28.8543 L42.7412,28.9253 L42.8417,29.0006 L42.9392,29.0803 L43.0336,29.1642 L43.1250,29.2525 L43.2133,29.3450 L43.2963,29.4392 L43.3701,29.5295 L43.4409,29.6227 L43.5087,29.7189 L43.5734,29.8179 L43.6352,29.9198 L43.6939,30.0247 L43.7496,30.1324 L43.8023,30.2430 L43.8520,30.3566 L43.8987,30.4730 L43.9424,30.5924 L43.9831,30.7146 L44.0207,30.8398 L44.0554,30.9679 L44.0870,31.0988 L44.1156,31.2327 L44.1412,31.3695 L44.1638,31.5092 L44.1834,31.6517 L44.1999,31.7972 L44.2135,31.9456 L44.2240,32.0969 L44.2315,32.2511 L44.2361,32.4082 L44.2376,32.5682 L44.2361,32.7278 L44.2315,32.8845 L44.2240,33.0383 L44.2134,33.1893 L44.1998,33.3374 L44.1832,33.4826 L44.1636,33.6250 L44.1409,33.7644 L44.1152,33.9010 L44.0866,34.0347 L44.0548,34.1656 L44.0201,34.2936 L43.9824,34.4187 L43.9416,34.5409 L43.8978,34.6603 L43.8510,34.7767 L43.8012,34.8903 L43.7483,35.0011 L43.6925,35.1089 L43.6336,35.2139 L43.5717,35.3160 L43.5067,35.4153 L43.4388,35.5116 L43.3678,35.6051 L43.2939,35.6957 L43.2105,35.7904 L43.1222,35.8831 L43.0308,35.9715 L42.9363,36.0555 L42.8388,36.1353 L42.7382,36.2107 L42.6346,36.2818 L42.5279,36.3486 L42.4182,36.4111 L42.3054,36.4693 L42.1896,36.5232 L42.0707,36.5728 L41.9488,36.6180 L41.8238,36.6590 L41.6958,36.6956 L41.5647,36.7280 L41.4305,36.7560 L41.2933,36.7797 L41.1531,36.7991 L41.0098,36.8142 L40.8634,36.8249ZM40.4845,35.0484 L40.5615,35.0498 L40.6391,35.0484 L40.7149,35.0440 L40.7890,35.0366 L40.8613,35.0263 L40.9320,35.0130 L41.0009,34.9968 L41.0681,34.9776 L41.1335,34.9555 L41.1972,34.9305 L41.2592,34.9025 L41.3195,34.8716 L41.3780,34.8377 L41.4348,34.8008 L41.4899,34.7610 L41.5432,34.7183 L41.5948,34.6726 L41.6447,34.6240 L41.6929,34.5724 L41.7393,34.5179 L41.7840,34.4605 L41.8267,34.4005 L41.8587,34.3519 L41.8896,34.3017 L41.9192,34.2501 L41.9476,34.1970 L41.9748,34.1425 L42.0008,34.0865 L42.0256,34.0290 L42.0492,33.9700 L42.0716,33.9095 L42.0928,33.8476 L42.1127,33.7842 L42.1315,33.7193 L42.1490,33.6530 L42.1654,33.5852 L42.1805,33.5159 L42.1944,33.4451 L42.2071,33.3729 L42.2186,33.2992 L42.2289,33.2240 L42.2380,33.1474 L42.2459,33.0692 L42.2525,32.9896 L42.2580,32.9085 L42.2623,32.8260 L42.2653,32.7420 L42.2671,32.6565 L42.2678,32.5695 L42.2672,32.4822 L42.2654,32.3963 L42.2624,32.3120 L42.2581,32.2291 L42.2527,32.1478 L42.2461,32.0679 L42.2382,31.9896 L42.2291,31.9127 L42.2189,31.8373 L42.2074,31.7635 L42.1947,31.6911 L42.1807,31.6202 L42.1656,31.5509 L42.1493,31.4830 L42.1317,31.4166 L42.1129,31.3517 L42.0930,31.2883 L42.0718,31.2264 L42.0494,31.1660 L42.0258,31.1072 L42.0009,31.0498 L41.9749,30.9939 L41.9476,30.9394 L41.9192,30.8865 L41.8895,30.8351 L41.8586,30.7852 L41.8265,30.7368 L41.7846,30.6782 L41.7395,30.6206 L41.6928,30.5659 L41.6444,30.5141 L41.5943,30.4653 L41.5425,30.4194 L41.4891,30.3765 L41.4339,30.3366 L41.3770,30.2996 L41.3185,30.2656 L41.2583,30.2345 L41.1963,30.2064 L41.1327,30.1812 L41.0674,30.1590 L41.0004,30.1397 L40.9317,30.1234 L40.8614,30.1101 L40.7893,30.0997 L40.7156,30.0922 L40.6401,30.0878 L40.5630,30.0862 L40.4858,30.0876 L40.4103,30.0920 L40.3365,30.0993 L40.2643,30.1096 L40.1939,30.1229 L40.1251,30.1391 L40.0581,30.1582 L39.9927,30.1803 L39.9290,30.2054 L39.8670,30.2334 L39.8067,30.2643 L39.7481,30.2982 L39.6912,30.3351 L39.6360,30.3749 L39.5824,30.4177 L39.5306,30.4635 L39.4805,30.5121 L39.4320,30.5638 L39.3852,30.6184 L39.3401,30.6759 L39.2978,30.7350 L39.2656,30.7833 L39.2347,30.8332 L39.2050,30.8845 L39.1765,30.9374 L39.1492,30.9917 L39.1231,31.0476 L39.0982,31.1049 L39.0745,31.1637 L39.0521,31.2241 L39.0309,31.2859 L39.0108,31.3492 L38.9920,31.4140 L38.9744,31.4804 L38.9580,31.5482 L38.9428,31.6175 L38.9289,31.6883 L38.9161,31.7606 L38.9046,31.8344 L38.8943,31.9097 L38.8851,31.9865 L38.8772,32.0648 L38.8705,32.1446 L38.8651,32.2259 L38.8608,32.3087 L38.8577,32.3930 L38.8559,32.4788 L38.8553,32.5661 L38.8558,32.6531 L38.8576,32.7386 L38.8607,32.8226 L38.8649,32.9051 L38.8703,32.9862 L38.8770,33.0658 L38.8849,33.1440 L38.8940,33.2206 L38.9043,33.2958 L38.9158,33.3696 L38.9286,33.4418 L38.9426,33.5126 L38.9578,33.5819 L38.9742,33.6498 L38.9918,33.7161 L39.0106,33.7810 L39.0307,33.8444 L39.0520,33.9064 L39.0744,33.9669 L39.0982,34.0259 L39.1231,34.0834 L39.1492,34.1395 L39.1766,34.1941 L39.2052,34.2472 L39.2350,34.2989 L39.2660,34.3491 L39.2982,34.3978 L39.3407,34.4572 L39.3857,34.5150 L39.4324,34.5698 L39.4808,34.6217 L39.5309,34.6706 L39.5827,34.7165 L39.6361,34.7595 L39.6913,34.7995 L39.7481,34.8365 L39.8066,34.8706 L39.8668,34.9017 L39.9287,34.9298 L39.9923,34.9550 L40.0575,34.9773 L40.1245,34.9965 L40.1931,35.0128 L40.2634,35.0261 L40.3354,35.0365 L40.4091,35.0439ZM32.7517,28.7184 L32.7517,28.8488 L32.7517,28.9230 L32.7517,28.9792 L32.7517,29.1096 L32.7517,29.1243 L32.7517,29.2400 L32.7517,29.3256 L32.7517,29.3704 L32.7517,29.5008 L32.7517,29.5269 L32.7517,29.6312 L32.7517,29.7282 L32.7517,29.7615 L32.7517,29.8919 L32.7517,29.9296 L32.7517,30.0223 L32.7517,30.1309 L32.7517,30.1527 L32.7517,30.3322 L32.7517,30.5335 L32.7517,30.7348 L32.7517,30.9362 L32.7517,31.1375 L32.7517,31.3388 L32.7517,31.5401 L32.7517,31.7414 L32.7517,31.9427 L32.7517,32.1441 L32.7517,32.3454 L32.7517,32.5467 L32.7517,32.7480 L32.7517,32.9493 L32.7517,33.1507 L32.7517,33.3520 L32.7517,33.5533 L32.7517,33.7546 L32.7517,33.9559 L32.7517,34.1573 L32.7517,34.3586 L32.7517,34.5599 L32.7517,34.7612 L32.7517,34.9412 L32.7696,34.9412 L32.8606,34.9412 L32.9516,34.9412 L33.0425,34.9412 L33.1335,34.9412 L33.2244,34.9412 L33.3154,34.9412 L33.4064,34.9412 L33.4973,34.9412 L33.5883,34.9412 L33.6793,34.9412 L33.7702,34.9412 L33.8612,34.9412 L33.9522,34.9412 L34.0431,34.9412 L34.1341,34.9412 L34.2251,34.9412 L34.3160,34.9412 L34.4070,34.9412 L34.4980,34.9412 L34.5889,34.9412 L34.6799,34.9412 L34.7709,34.9412 L34.8618,34.9412 L34.9528,34.9412 L35.0437,34.9412 L35.1347,34.9412 L35.2257,34.9412 L35.2257,35.0322 L35.2257,35.1231 L35.2257,35.2141 L35.2257,35.3051 L35.2257,35.3960 L35.2257,35.4870 L35.2257,35.5780 L35.2257,35.6689 L35.2257,35.7599 L35.2257,35.8509 L35.2257,35.9418 L35.2257,36.0328 L35.2257,36.1238 L35.2257,36.2147 L35.2257,36.3057 L35.2257,36.3967 L35.2257,36.4876 L35.2257,36.5786 L35.2257,36.6695 L35.1436,36.6784 L35.0526,36.6784 L34.9617,36.6784 L34.8707,36.6784 L34.7798,36.6784 L34.6888,36.6784 L34.5978,36.6784 L34.5069,36.6784 L34.4159,36.6784 L34.3249,36.6784 L34.2340,36.6784 L34.1430,36.6784 L34.0520,36.6784 L33.9611,36.6784 L33.8701,36.6784 L33.7791,36.6784 L33.6882,36.6784 L33.5972,36.6784 L33.5062,36.6784 L33.4153,36.6784 L33.3243,36.6784 L33.2333,36.6784 L33.1424,36.6784 L33.0514,36.6784 L32.9605,36.6784 L32.8695,36.6784 L32.7785,36.6784 L32.6876,36.6784 L32.6557,36.6784 L32.5966,36.6784 L32.4544,36.6784 L32.2531,36.6784 L32.0518,36.6784 L31.8505,36.6784 L31.6491,36.6784 L31.4478,36.6784 L31.2465,36.6784 L31.0452,36.6784 L30.9755,36.6784 L30.8719,36.6784 L30.8439,36.6784 L30.7683,36.6784 L30.6648,36.6784 L30.5612,36.6784 L30.4576,36.6784 L30.3540,36.6784 L30.2505,36.6784 L30.1469,36.6784 L30.0433,36.6784 L29.9398,36.6784 L29.8362,36.6784 L29.7326,36.6784 L29.6290,36.6784 L29.5255,36.6784 L29.4219,36.6784 L29.3183,36.6784 L29.2148,36.6784 L29.1112,36.6784 L29.0076,36.6784 L28.9040,36.6784 L28.8005,36.6784 L28.6969,36.6784 L28.5933,36.6784 L28.4897,36.6784 L28.3862,36.6784 L28.2826,36.6784 L28.1790,36.6784 L28.0755,36.6784 L27.9719,36.6784 L27.8683,36.6784 L27.7647,36.6784 L27.7647,36.5749 L27.7647,36.4713 L27.7647,36.3677 L27.7647,36.2642 L27.7647,36.1606 L27.7647,36.0570 L27.7647,35.9534 L27.7647,35.8499 L27.7647,35.7463 L27.7647,35.6427 L27.7647,35.5391 L27.7647,35.4356 L27.7647,35.3320 L27.7647,35.2284 L27.7647,35.1249 L27.7647,35.0213 L27.7882,34.9412 L27.8918,34.9412 L27.9954,34.9412 L28.0990,34.9412 L28.2025,34.9412 L28.3061,34.9412 L28.4097,34.9412 L28.5132,34.9412 L28.6168,34.9412 L28.7204,34.9412 L28.8240,34.9412 L28.9275,34.9412 L29.0311,34.9412 L29.1347,34.9412 L29.2383,34.9412 L29.3418,34.9412 L29.4454,34.9412 L29.5490,34.9412 L29.6525,34.9412 L29.7561,34.9412 L29.8597,34.9412 L29.9633,34.9412 L30.0668,34.9412 L30.1704,34.9412 L30.2740,34.9412 L30.3775,34.9412 L30.4811,34.9412 L30.5847,34.9412 L30.6883,34.9412 L30.7918,34.9412 L30.8439,34.9412 L30.8439,34.8666 L30.8439,34.6653 L30.8439,34.4639 L30.8439,34.2626 L30.8439,34.0613 L30.8439,33.8600 L30.8439,33.6587 L30.8439,33.4573 L30.8439,33.2560 L30.8439,33.0547 L30.8439,32.8534 L30.8439,32.6521 L30.8439,32.4507 L30.8439,32.2494 L30.8439,32.0481 L30.8439,31.8468 L30.8439,31.6455 L30.8439,31.4441 L30.8439,31.2428 L30.8439,31.0415 L30.8439,30.8402 L30.8439,30.6389 L30.8439,30.4375 L30.8439,30.2362 L30.8439,30.1949 L30.8379,30.1949 L30.7075,30.1949 L30.5772,30.1949 L30.4468,30.1949 L30.3164,30.1949 L30.1860,30.1949 L30.0556,30.1949 L29.9252,30.1949 L29.7948,30.1949 L29.6644,30.1949 L29.5340,30.1949 L29.4036,30.1949 L29.2732,30.1949 L29.1428,30.1949 L29.0124,30.1949 L28.8820,30.1949 L28.7517,30.1949 L28.6213,30.1949 L28.4909,30.1949 L28.3605,30.1949 L28.2301,30.1949 L28.2301,30.0645 L28.2301,29.9341 L28.2301,29.8037 L28.2301,29.6733 L28.2301,29.5429 L28.2301,29.4125 L28.2301,29.2821 L28.2301,29.1517 L28.2301,29.0213 L28.2301,28.8909 L28.2301,28.7605 L28.2301,28.6301 L28.2301,28.4997 L28.3183,28.4576 L28.4487,28.4576 L28.5791,28.4576 L28.7095,28.4576 L28.8399,28.4576 L28.9703,28.4576 L29.1007,28.4576 L29.2311,28.4576 L29.3615,28.4576 L29.4919,28.4576 L29.6223,28.4576 L29.7527,28.4576 L29.8831,28.4576 L30.0135,28.4576 L30.1438,28.4576 L30.2742,28.4576 L30.4046,28.4576 L30.5350,28.4576 L30.6654,28.4576 L30.7958,28.4576 L30.9262,28.4576 L31.0566,28.4576 L31.1870,28.4576 L31.3174,28.4576 L31.4478,28.4576 L31.5782,28.4576 L31.7086,28.4576 L31.8390,28.4576 L31.9693,28.4576 L32.0997,28.4576 L32.2301,28.4576 L32.3605,28.4576 L32.4909,28.4576 L32.6213,28.4576 L32.7517,28.4576 L32.7517,28.5880ZM0.1881,25.6656 L0.2588,25.6656 L0.3790,25.6656 L0.5272,25.6656 L0.5700,25.6656 L0.7610,25.6656 L0.7955,25.6656 L0.9520,25.6656 L1.0639,25.6656 L1.1429,25.6656 L1.3323,25.6656 L1.3339,25.6656 L1.5249,25.6656 L1.6006,25.6656 L1.7159,25.6656 L1.8690,25.6656 L1.9069,25.6656 L2.0978,25.6656 L2.2888,25.6656 L2.4798,25.6656 L2.6708,25.6656 L2.8618,25.6656 L3.0527,25.6656 L3.2437,25.6656 L3.4347,25.6656 L3.6257,25.6656 L3.8167,25.6656 L4.0076,25.6656 L4.1986,25.6656 L4.3896,25.6656 L4.5806,25.6656 L4.7715,25.6656 L4.9625,25.6656 L5.1535,25.6656 L5.3445,25.6656 L5.5355,25.6656 L5.7264,25.6656 L5.9174,25.6656 L6.1084,25.6656 L6.2994,25.6656 L6.4904,25.6656 L6.6813,25.6656 L6.8723,25.6656 L7.0633,25.6656 L7.2543,25.6656 L7.4453,25.6656 L7.4453,25.8566 L7.4453,26.0475 L7.4453,26.2385 L7.4453,26.4295 L7.4453,26.6205 L7.4453,26.8115 L7.4453,27.0024 L7.4453,27.1934 L7.4453,27.3844 L7.2572,27.3873 L7.0662,27.3873 L6.8752,27.3873 L6.6843,27.3873 L6.4933,27.3873 L6.3023,27.3873 L6.1113,27.3873 L5.9204,27.3873 L5.7294,27.3873 L5.5384,27.3873 L5.3474,27.3873 L5.1564,27.3873 L4.9655,27.3873 L4.7745,27.3873 L4.5835,27.3873 L4.3925,27.3873 L4.2015,27.3873 L4.0106,27.3873 L3.8196,27.3873 L3.6286,27.3873 L3.4376,27.3873 L3.2466,27.3873 L3.0557,27.3873 L2.8647,27.3873 L2.6737,27.3873 L2.4827,27.3873 L2.2917,27.3873 L2.1008,27.3873 L1.9098,27.3873 L1.8690,27.3873 L1.8690,27.5442 L1.8690,27.8126 L1.8690,28.0809 L1.8690,28.3493 L1.8690,28.6177 L1.8690,28.8860 L1.8690,29.1544 L1.8690,29.4228 L1.8690,29.6912 L1.8690,29.9595 L1.8690,30.2279 L1.8690,30.4963 L1.8690,30.7610 L1.9607,30.7610 L2.1212,30.7610 L2.2816,30.7610 L2.4421,30.7610 L2.6025,30.7610 L2.7630,30.7610 L2.9234,30.7610 L3.0838,30.7610 L3.2443,30.7610 L3.4047,30.7610 L3.5652,30.7610 L3.7256,30.7610 L3.8860,30.7610 L4.0465,30.7610 L4.2069,30.7610 L4.3674,30.7610 L4.5278,30.7610 L4.6882,30.7610 L4.8487,30.7610 L5.0091,30.7610 L5.1696,30.7610 L5.3300,30.7610 L5.4905,30.7610 L5.6509,30.7610 L5.8113,30.7610 L5.9718,30.7610 L5.9718,30.9214 L5.9718,31.0819 L5.9718,31.2423 L5.9718,31.4028 L5.9718,31.5632 L5.9718,31.7236 L5.9718,31.8841 L5.9718,32.0445 L5.9718,32.2050 L5.9718,32.3654 L5.9363,32.4904 L5.7759,32.4904 L5.6154,32.4904 L5.4550,32.4904 L5.2946,32.4904 L5.1341,32.4904 L4.9737,32.4904 L4.8132,32.4904 L4.6528,32.4904 L4.4923,32.4904 L4.3319,32.4904 L4.1715,32.4904 L4.0110,32.4904 L3.8506,32.4904 L3.6901,32.4904 L3.5297,32.4904 L3.3693,32.4904 L3.2088,32.4904 L3.0484,32.4904 L2.8879,32.4904 L2.7275,32.4904 L2.5671,32.4904 L2.4066,32.4904 L2.2462,32.4904 L2.0857,32.4904 L1.9253,32.4904 L1.8690,32.4904 L1.8690,32.6433 L1.8690,32.9116 L1.8690,33.1800 L1.8690,33.4484 L1.8690,33.7168 L1.8690,33.9851 L1.8690,34.2535 L1.8690,34.5219 L1.8690,34.7902 L1.8690,35.0586 L1.8690,35.3270 L1.8690,35.5954 L1.8690,35.8637 L1.8690,36.1321 L1.8690,36.4005 L1.8690,36.6689 L1.6102,36.6784 L1.3419,36.6784 L1.0735,36.6784 L0.8051,36.6784 L0.5367,36.6784 L0.2684,36.6784 L0.0000,36.6784 L0.0000,36.4101 L0.0000,36.1417 L0.0000,35.8733 L0.0000,35.6050 L0.0000,35.3366 L0.0000,35.0682 L0.0000,34.7998 L0.0000,34.5315 L0.0000,34.2631 L0.0000,33.9947 L0.0000,33.7263 L0.0000,33.4580 L0.0000,33.1896 L0.0000,32.9212 L0.0000,32.6529 L0.0000,32.4904 L0.0000,32.3845 L0.0000,32.3299 L0.0000,32.1695 L0.0000,32.1161 L0.0000,32.0091 L0.0000,31.8486 L0.0000,31.8477 L0.0000,31.6882 L0.0000,31.5794 L0.0000,31.5277 L0.0000,31.3673 L0.0000,31.3110 L0.0000,31.2069 L0.0000,31.0464 L0.0000,31.0426 L0.0000,30.8860 L0.0000,30.7742 L0.0000,30.5059 L0.0000,30.2375 L0.0000,29.9691 L0.0000,29.7008 L0.0000,29.4324 L0.0000,29.1640 L0.0000,28.8956 L0.0000,28.6273 L0.0000,28.3589 L0.0000,28.0905 L0.0000,27.8222 L0.0000,27.5538 L0.0000,27.3873 L0.0000,27.2854 L0.0000,27.1963 L0.0000,27.0170 L0.0000,27.0054 L0.0000,26.8144 L0.0000,26.7487 L0.0000,26.6234 L0.0000,26.4803 L0.0000,26.4324 L0.0000,26.2414 L0.0000,26.2119 L0.0000,26.0505 L0.0000,25.9435 L0.0000,25.8595 L0.0000,25.6752 L0.0000,25.6685ZM31.8107,27.2686 L31.7658,27.2704 L31.7202,27.2710 L31.6747,27.2704 L31.6298,27.2686 L31.5856,27.2655 L31.5421,27.2611 L31.4992,27.2555 L31.4571,27.2487 L31.4156,27.2407 L31.3747,27.2314 L31.3346,27.2209 L31.2951,27.2091 L31.2563,27.1961 L31.2181,27.1818 L31.1806,27.1664 L31.1438,27.1496 L31.1077,27.1317 L31.0723,27.1125 L31.0375,27.0920 L31.0034,27.0704 L30.9699,27.0474 L30.9372,27.0233 L30.9051,26.9979 L30.8736,26.9713 L30.8429,26.9434 L30.8128,26.9143 L30.7837,26.8842 L30.7558,26.8535 L30.7292,26.8221 L30.7038,26.7900 L30.6796,26.7572 L30.6567,26.7238 L30.6350,26.6897 L30.6146,26.6549 L30.5954,26.6195 L30.5774,26.5834 L30.5607,26.5466 L30.5452,26.5091 L30.5310,26.4709 L30.5180,26.4321 L30.5062,26.3926 L30.4957,26.3525 L30.4864,26.3116 L30.4783,26.2701 L30.4715,26.2279 L30.4659,26.1851 L30.4616,26.1416 L30.4585,26.0974 L30.4566,26.0525 L30.4560,26.0069 L30.4566,25.9614 L30.4585,25.9165 L30.4616,25.8723 L30.4659,25.8287 L30.4715,25.7859 L30.4783,25.7437 L30.4863,25.7022 L30.4956,25.6613 L30.5061,25.6212 L30.5179,25.5817 L30.5309,25.5429 L30.5451,25.5047 L30.5606,25.4672 L30.5773,25.4304 L30.5953,25.3943 L30.6145,25.3589 L30.6349,25.3241 L30.6566,25.2900 L30.6795,25.2565 L30.7037,25.2238 L30.7290,25.1917 L30.7557,25.1603 L30.7835,25.1296 L30.8126,25.0995 L30.8427,25.0704 L30.8735,25.0425 L30.9049,25.0159 L30.9370,24.9905 L30.9697,24.9663 L31.0032,24.9434 L31.0373,24.9218 L31.0721,24.9013 L31.1075,24.8821 L31.1437,24.8642 L31.1805,24.8474 L31.2179,24.8320 L31.2561,24.8177 L31.2949,24.8047 L31.3344,24.7929 L31.3745,24.7824 L31.4154,24.7731 L31.4569,24.7651 L31.4991,24.7582 L31.5419,24.7527 L31.5854,24.7483 L31.6296,24.7452 L31.6745,24.7434 L31.7201,24.7427 L31.7656,24.7434 L31.8105,24.7452 L31.8547,24.7483 L31.8982,24.7526 L31.9411,24.7582 L31.9833,24.7650 L32.0248,24.7731 L32.0656,24.7823 L32.1058,24.7929 L32.1453,24.8046 L32.1841,24.8176 L32.2223,24.8319 L32.2597,24.8473 L32.2965,24.8641 L32.3327,24.8820 L32.3681,24.9012 L32.4029,24.9217 L32.4370,24.9433 L32.4704,24.9662 L32.5032,24.9904 L32.5353,25.0158 L32.5667,25.0424 L32.5974,25.0703 L32.6275,25.0994 L32.6566,25.1294 L32.6845,25.1602 L32.7111,25.1916 L32.7365,25.2237 L32.7607,25.2564 L32.7836,25.2899 L32.8053,25.3240 L32.8257,25.3587 L32.8449,25.3942 L32.8629,25.4303 L32.8796,25.4671 L32.8951,25.5046 L32.9093,25.5427 L32.9223,25.5815 L32.9341,25.6210 L32.9446,25.6612 L32.9539,25.7020 L32.9620,25.7435 L32.9688,25.7857 L32.9744,25.8286 L32.9787,25.8721 L32.9818,25.9163 L32.9837,25.9612 L32.9843,26.0068 L32.9837,26.0523 L32.9818,26.0972 L32.9787,26.1414 L32.9744,26.1849 L32.9688,26.2278 L32.9620,26.2700 L32.9539,26.3115 L32.9447,26.3523 L32.9341,26.3925 L32.9224,26.4320 L32.9094,26.4708 L32.8951,26.5089 L32.8796,26.5464 L32.8629,26.5832 L32.8449,26.6193 L32.8257,26.6548 L32.8053,26.6896 L32.7836,26.7237 L32.7607,26.7571 L32.7366,26.7899 L32.7112,26.8219 L32.6845,26.8534 L32.6567,26.8841 L32.6276,26.9142 L32.5975,26.9433 L32.5668,26.9712 L32.5354,26.9978 L32.5033,27.0232 L32.4705,27.0474 L32.4371,27.0703 L32.4030,27.0920 L32.3682,27.1124 L32.3328,27.1316 L32.2966,27.1496 L32.2598,27.1663 L32.2224,27.1818 L32.1842,27.1961 L32.1454,27.2091 L32.1059,27.2208 L32.0658,27.2314 L32.0249,27.2407 L31.9834,27.2487 L31.9412,27.2555 L31.8984,27.2611 L31.8549,27.2655ZM66.9469,29.9466 L66.9496,29.9466 L67.0296,29.9466 L67.0838,29.9106 L67.1009,29.8221 L67.1204,29.7361 L67.1425,29.6526 L67.1670,29.5715 L67.1941,29.4929 L67.2236,29.4167 L67.2557,29.3429 L67.2902,29.2716 L67.3273,29.2028 L67.3668,29.1364 L67.4089,29.0724 L67.4534,29.0109 L67.5005,28.9518 L67.5500,28.8952 L67.6020,28.8411 L67.6566,28.7893 L67.7136,28.7401 L67.7700,28.6957 L67.8265,28.6552 L67.8852,28.6169 L67.9462,28.5807 L68.0093,28.5468 L68.0746,28.5151 L68.1422,28.4856 L68.2119,28.4583 L68.2839,28.4332 L68.3580,28.4103 L68.4344,28.3896 L68.5130,28.3711 L68.5937,28.3548 L68.6767,28.3408 L68.7619,28.3289 L68.8492,28.3192 L68.9388,28.3117 L69.0306,28.3065 L69.1246,28.3034 L69.2202,28.3025 L69.3107,28.3036 L69.3999,28.3066 L69.4879,28.3115 L69.5747,28.3182 L69.6603,28.3268 L69.7446,28.3372 L69.8278,28.3495 L69.9096,28.3637 L69.9903,28.3797 L70.0697,28.3976 L70.1479,28.4174 L70.2248,28.4390 L70.3006,28.4625 L70.3751,28.4878 L70.4483,28.5150 L70.5204,28.5441 L70.5912,28.5750 L70.6607,28.6078 L70.7291,28.6424 L70.7962,28.6789 L70.8621,28.7173 L70.9267,28.7576 L70.9902,28.7997 L71.0523,28.8436 L71.1133,28.8894 L71.1730,28.9371 L71.2315,28.9867 L71.2888,29.0381 L71.3449,29.0914 L71.3997,29.1465 L71.4532,29.2035 L71.5056,29.2624 L71.5567,29.3231 L71.6066,29.3857 L71.6501,29.4432 L71.6891,29.4972 L71.7272,29.5524 L71.7644,29.6086 L71.8005,29.6660 L71.8357,29.7245 L71.8700,29.7840 L71.9033,29.8447 L71.9357,29.9065 L71.9670,29.9695 L71.9975,30.0335 L72.0270,30.0986 L72.0555,30.1648 L72.0831,30.2322 L72.1097,30.3006 L72.1354,30.3702 L72.1601,30.4409 L72.1839,30.5126 L72.2067,30.5855 L72.2285,30.6595 L72.2494,30.7346 L72.2694,30.8108 L72.2883,30.8882 L72.3064,30.9666 L72.3235,31.0461 L72.3396,31.1268 L72.3547,31.2085 L72.3690,31.2914 L72.3822,31.3754 L72.3945,31.4604 L72.4059,31.5466 L72.4163,31.6339 L72.4257,31.7223 L72.4342,31.8119 L72.4417,31.9025 L72.4483,31.9942 L72.4540,32.0870 L72.4586,32.1810 L72.4623,32.2760 L72.4651,32.3722 L72.4669,32.4695 L72.4678,32.5679 L72.4677,32.6670 L72.4666,32.7651 L72.4645,32.8621 L72.4614,32.9580 L72.4574,33.0528 L72.4524,33.1464 L72.4463,33.2389 L72.4394,33.3303 L72.4314,33.4205 L72.4224,33.5096 L72.4125,33.5975 L72.4015,33.6843 L72.3896,33.7700 L72.3767,33.8546 L72.3628,33.9380 L72.3479,34.0203 L72.3321,34.1014 L72.3152,34.1814 L72.2974,34.2603 L72.2786,34.3380 L72.2588,34.4147 L72.2380,34.4901 L72.2163,34.5645 L72.1935,34.6377 L72.1698,34.7098 L72.1451,34.7807 L72.1194,34.8505 L72.0927,34.9192 L72.0650,34.9867 L72.0363,35.0531 L72.0067,35.1184 L71.9761,35.1825 L71.9445,35.2455 L71.9119,35.3074 L71.8783,35.3681 L71.8437,35.4277 L71.8082,35.4862 L71.7717,35.5435 L71.7341,35.5997 L71.6956,35.6548 L71.6561,35.7087 L71.6135,35.7643 L71.5634,35.8263 L71.5121,35.8864 L71.4595,35.9447 L71.4058,36.0011 L71.3508,36.0557 L71.2945,36.1084 L71.2370,36.1593 L71.1783,36.2083 L71.1184,36.2555 L71.0572,36.3008 L70.9947,36.3443 L70.9311,36.3859 L70.8662,36.4257 L70.8001,36.4636 L70.7327,36.4996 L70.6641,36.5339 L70.5943,36.5662 L70.5232,36.5968 L70.4509,36.6254 L70.3774,36.6523 L70.3026,36.6772 L70.2266,36.7004 L70.1493,36.7216 L70.0708,36.7411 L69.9911,36.7586 L69.9102,36.7744 L69.8280,36.7882 L69.7446,36.8003 L69.6599,36.8104 L69.5740,36.8188 L69.4869,36.8252 L69.3985,36.8299 L69.3089,36.8326 L69.2181,36.8336 L69.1253,36.8324 L69.0343,36.8289 L68.9453,36.8231 L68.8583,36.8150 L68.7732,36.8046 L68.6900,36.7918 L68.6087,36.7768 L68.5294,36.7594 L68.4520,36.7397 L68.3765,36.7177 L68.3030,36.6934 L68.2314,36.6667 L68.1617,36.6377 L68.0939,36.6064 L68.0281,36.5728 L67.9642,36.5369 L67.9023,36.4987 L67.8423,36.4581 L67.7842,36.4153 L67.7246,36.3671 L67.6676,36.3164 L67.6135,36.2633 L67.5620,36.2077 L67.5133,36.1497 L67.4674,36.0892 L67.4242,36.0263 L67.3837,35.9609 L67.3460,35.8931 L67.3110,35.8229 L67.2787,35.7502 L67.2492,35.6750 L67.2225,35.5974 L67.1984,35.5174 L67.1772,35.4349 L67.1586,35.3499 L67.1429,35.2625 L67.1172,35.1895 L67.0371,35.1895 L66.9691,35.1895 L66.9691,35.3467 L66.9691,35.5739 L66.9691,35.8011 L66.9691,36.0282 L66.9691,36.2554 L66.9691,36.4826 L66.9691,36.7097 L66.9691,36.9369 L66.9691,37.1641 L66.9691,37.3912 L66.9691,37.6184 L66.9691,37.8456 L66.9691,38.0727 L66.9691,38.2999 L66.9691,38.5271 L66.9691,38.7542 L66.9691,38.9814 L66.9691,39.2086 L66.9691,39.4357 L66.9691,39.6629 L66.9691,39.8901 L66.9691,40.1172 L66.8707,40.2461 L66.6435,40.2461 L66.4164,40.2461 L66.1892,40.2461 L65.9620,40.2461 L65.7349,40.2461 L65.5077,40.2461 L65.2805,40.2461 L65.0534,40.2461 L65.0534,40.0189 L65.0534,39.7917 L65.0534,39.5646 L65.0534,39.3374 L65.0534,39.1102 L65.0534,38.8831 L65.0534,38.6559 L65.0534,38.4287 L65.0534,38.2016 L65.0534,37.9744 L65.0534,37.7472 L65.0534,37.5201 L65.0534,37.2929 L65.0534,37.0657 L65.0534,36.8386 L65.0534,36.6114 L65.0534,36.3842 L65.0534,36.1571 L65.0534,35.9299 L65.0534,35.7027 L65.0534,35.4755 L65.0534,35.2484 L65.0534,35.0212 L65.0534,34.7940 L65.0534,34.5669 L65.0534,34.3397 L65.0534,34.1125 L65.0534,33.8854 L65.0534,33.6582 L65.0534,33.4310 L65.0534,33.2039 L65.0534,32.9767 L65.0534,32.7495 L65.0534,32.5224 L65.0534,32.2952 L65.0534,32.0680 L65.0534,31.8409 L65.0534,31.6137 L65.0534,31.3865 L65.0534,31.1594 L65.0534,30.9322 L65.0534,30.7050 L65.0534,30.4779 L65.0534,30.2507 L65.0534,30.0235 L65.0534,29.7964 L65.0534,29.5692 L65.0534,29.3420 L65.0534,29.1149 L65.0534,28.8877 L65.0534,28.6605 L65.0776,28.4576 L65.3048,28.4576 L65.5320,28.4576 L65.7591,28.4576 L65.9863,28.4576 L66.2135,28.4576 L66.4406,28.4576 L66.6678,28.4576 L66.8211,28.5383 L66.8413,28.7646 L66.8616,28.9908 L66.8818,29.2171 L66.9020,29.4434 L66.9222,29.6696 L66.9424,29.8959ZM66.9691,32.3864 L66.9691,32.3936 L66.9691,32.6207 L66.9691,32.6969 L66.9691,32.6968 L66.9700,32.7993 L66.9724,32.8994 L66.9763,32.9973 L66.9817,33.0929 L66.9886,33.1862 L66.9970,33.2772 L67.0068,33.3660 L67.0182,33.4524 L67.0310,33.5366 L67.0454,33.6185 L67.0612,33.6981 L67.0785,33.7754 L67.0973,33.8504 L67.1176,33.9232 L67.1394,33.9937 L67.1627,34.0618 L67.1875,34.1277 L67.2138,34.1914 L67.2415,34.2527 L67.2707,34.3117 L67.3015,34.3685 L67.3337,34.4230 L67.3674,34.4752 L67.4072,34.5312 L67.4537,34.5898 L67.5030,34.6452 L67.5551,34.6973 L67.6100,34.7461 L67.6677,34.7917 L67.7283,34.8340 L67.7916,34.8731 L67.8577,34.9089 L67.9266,34.9415 L67.9984,34.9708 L68.0729,34.9969 L68.1503,35.0196 L68.2305,35.0392 L68.3134,35.0555 L68.3992,35.0685 L68.4878,35.0783 L68.5792,35.0848 L68.6733,35.0881 L68.7673,35.0881 L68.8571,35.0847 L68.9446,35.0780 L69.0298,35.0680 L69.1127,35.0546 L69.1933,35.0378 L69.2715,35.0177 L69.3474,34.9943 L69.4211,34.9675 L69.4924,34.9373 L69.5613,34.9038 L69.6280,34.8669 L69.6923,34.8267 L69.7544,34.7832 L69.8141,34.7362 L69.8715,34.6860 L69.9265,34.6323 L69.9793,34.5754 L70.0297,34.5150 L70.0765,34.4532 L70.1133,34.4000 L70.1485,34.3448 L70.1822,34.2876 L70.2143,34.2283 L70.2448,34.1670 L70.2738,34.1037 L70.3012,34.0383 L70.3271,33.9709 L70.3514,33.9015 L70.3741,33.8300 L70.3953,33.7565 L70.4149,33.6810 L70.4330,33.6034 L70.4495,33.5238 L70.4644,33.4422 L70.4778,33.3585 L70.4896,33.2728 L70.4999,33.1851 L70.5086,33.0953 L70.5158,33.0035 L70.5214,32.9096 L70.5254,32.8138 L70.5279,32.7159 L70.5288,32.6159 L70.5282,32.5166 L70.5261,32.4192 L70.5224,32.3237 L70.5173,32.2302 L70.5106,32.1385 L70.5024,32.0487 L70.4927,31.9607 L70.4815,31.8747 L70.4688,31.7906 L70.4546,31.7083 L70.4388,31.6280 L70.4216,31.5495 L70.4028,31.4729 L70.3826,31.3982 L70.3608,31.3254 L70.3375,31.2545 L70.3127,31.1855 L70.2863,31.1184 L70.2585,31.0532 L70.2292,30.9898 L70.1983,30.9283 L70.1659,30.8688 L70.1320,30.8111 L70.0967,30.7553 L70.0587,30.7000 L70.0096,30.6343 L69.9584,30.5722 L69.9049,30.5135 L69.8494,30.4583 L69.7916,30.4066 L69.7317,30.3584 L69.6696,30.3136 L69.6053,30.2723 L69.5389,30.2345 L69.4703,30.2002 L69.3995,30.1693 L69.3266,30.1419 L69.2515,30.1180 L69.1742,30.0976 L69.0947,30.0807 L69.0131,30.0672 L68.9294,30.0572 L68.8434,30.0507 L68.7553,30.0476 L68.6641,30.0481 L68.5739,30.0519 L68.4862,30.0591 L68.4008,30.0697 L68.3180,30.0837 L68.2376,30.1012 L68.1596,30.1220 L68.0840,30.1462 L68.0109,30.1738 L67.9403,30.2048 L67.8720,30.2392 L67.8063,30.2770 L67.7429,30.3182 L67.6820,30.3628 L67.6236,30.4108 L67.5675,30.4621 L67.5140,30.5169 L67.4628,30.5751 L67.4141,30.6367 L67.3769,30.6885 L67.3420,30.7416 L67.3086,30.7970 L67.2768,30.8546 L67.2465,30.9145 L67.2178,30.9766 L67.1907,31.0410 L67.1651,31.1076 L67.1411,31.1764 L67.1187,31.2475 L67.0978,31.3208 L67.0785,31.3963 L67.0608,31.4741 L67.0446,31.5542 L67.0300,31.6364 L67.0170,31.7210 L67.0055,31.8077 L66.9956,31.8967 L66.9873,31.9879 L66.9805,32.0814 L66.9753,32.1771 L66.9717,32.2751 L66.9696,32.3753ZM79.2670,35.0507 L79.2618,34.9654 L79.2604,34.9412 L79.2092,34.9412 L79.1525,34.9412 L79.0959,34.9412 L79.0834,34.9412 L79.0782,34.9895 L79.0703,35.0490 L79.0613,35.1075 L79.0510,35.1650 L79.0395,35.2216 L79.0267,35.2772 L79.0128,35.3318 L78.9976,35.3855 L78.9812,35.4381 L78.9636,35.4899 L78.9448,35.5406 L78.9247,35.5904 L78.9034,35.6392 L78.8809,35.6871 L78.8572,35.7339 L78.8322,35.7798 L78.8061,35.8248 L78.7787,35.8687 L78.7484,35.9142 L78.7161,35.9598 L78.6825,36.0043 L78.6477,36.0475 L78.6117,36.0897 L78.5745,36.1306 L78.5361,36.1704 L78.4964,36.2090 L78.4555,36.2465 L78.4134,36.2828 L78.3701,36.3179 L78.3255,36.3519 L78.2797,36.3847 L78.2327,36.4163 L78.1845,36.4468 L78.1350,36.4761 L78.0844,36.5042 L78.0325,36.5312 L77.9794,36.5570 L77.9250,36.5816 L77.8727,36.6038 L77.8256,36.6225 L77.7777,36.6405 L77.7291,36.6576 L77.6798,36.6740 L77.6297,36.6896 L77.5789,36.7043 L77.5274,36.7183 L77.4751,36.7314 L77.4221,36.7438 L77.3684,36.7554 L77.3139,36.7661 L77.2587,36.7761 L77.2028,36.7853 L77.1462,36.7937 L77.0888,36.8012 L77.0307,36.8080 L76.9718,36.8140 L76.9123,36.8192 L76.8519,36.8236 L76.7909,36.8272 L76.7291,36.8300 L76.6666,36.8320 L76.6034,36.8332 L76.5394,36.8336 L76.4717,36.8331 L76.4048,36.8318 L76.3386,36.8296 L76.2733,36.8266 L76.2088,36.8227 L76.1450,36.8179 L76.0821,36.8123 L76.0200,36.8057 L75.9586,36.7983 L75.8981,36.7901 L75.8384,36.7810 L75.7795,36.7710 L75.7213,36.7601 L75.6640,36.7483 L75.6075,36.7357 L75.5518,36.7223 L75.4968,36.7079 L75.4427,36.6927 L75.3894,36.6766 L75.3368,36.6596 L75.2851,36.6418 L75.2342,36.6231 L75.1841,36.6036 L75.1348,36.5831 L75.0862,36.5618 L75.0385,36.5397 L74.9916,36.5166 L74.9455,36.4927 L74.9001,36.4679 L74.8556,36.4423 L74.8119,36.4157 L74.7690,36.3884 L74.7269,36.3601 L74.6855,36.3310 L74.6450,36.3010 L74.6053,36.2701 L74.5664,36.2384 L74.5283,36.2057 L74.4887,36.1702 L74.4495,36.1331 L74.4115,36.0952 L74.3746,36.0564 L74.3388,36.0168 L74.3042,35.9763 L74.2708,35.9350 L74.2385,35.8928 L74.2074,35.8498 L74.1774,35.8059 L74.1485,35.7612 L74.1209,35.7157 L74.0943,35.6693 L74.0690,35.6220 L74.0447,35.5739 L74.0216,35.5250 L73.9997,35.4752 L73.9789,35.4246 L73.9593,35.3731 L73.9408,35.3208 L73.9235,35.2676 L73.9073,35.2136 L73.8923,35.1587 L73.8785,35.1030 L73.8657,35.0465 L73.8542,34.9891 L73.8438,34.9308 L73.8345,34.8718 L73.8264,34.8118 L73.8194,34.7510 L73.8136,34.6894 L73.8089,34.6269 L73.8054,34.5636 L73.8031,34.4994 L73.8019,34.4344 L73.8018,34.3694 L73.8029,34.3057 L73.8050,34.2427 L73.8082,34.1805 L73.8125,34.1189 L73.8180,34.0581 L73.8245,33.9979 L73.8321,33.9385 L73.8408,33.8798 L73.8506,33.8219 L73.8615,33.7646 L73.8734,33.7081 L73.8865,33.6522 L73.9007,33.5971 L73.9160,33.5427 L73.9323,33.4890 L73.9498,33.4360 L73.9683,33.3838 L73.9880,33.3322 L74.0087,33.2814 L74.0305,33.2313 L74.0535,33.1819 L74.0775,33.1332 L74.1026,33.0852 L74.1288,33.0380 L74.1561,32.9914 L74.1845,32.9456 L74.2140,32.9005 L74.2446,32.8561 L74.2762,32.8124 L74.3090,32.7695 L74.3429,32.7272 L74.3779,32.6857 L74.4139,32.6448 L74.4511,32.6047 L74.4893,32.5653 L74.5286,32.5267 L74.5691,32.4887 L74.6106,32.4515 L74.6532,32.4149 L74.6969,32.3791 L74.7417,32.3440 L74.7835,32.3127 L74.8221,32.2848 L74.8614,32.2574 L74.9013,32.2306 L74.9419,32.2043 L74.9830,32.1786 L75.0248,32.1535 L75.0672,32.1290 L75.1103,32.1050 L75.1539,32.0815 L75.1982,32.0587 L75.2431,32.0364 L75.2887,32.0146 L75.3348,31.9934 L75.3816,31.9728 L75.4290,31.9528 L75.4770,31.9333 L75.5257,31.9144 L75.5750,31.8960 L75.6249,31.8782 L75.6754,31.8610 L75.7266,31.8443 L75.7784,31.8282 L75.8308,31.8127 L75.8838,31.7977 L75.9375,31.7833 L75.9917,31.7695 L76.0466,31.7562 L76.1022,31.7435 L76.1583,31.7313 L76.2151,31.7197 L76.2725,31.7087 L76.3305,31.6983 L76.3892,31.6884 L76.4485,31.6790 L76.5084,31.6703 L76.5689,31.6621 L76.6300,31.6544 L76.6918,31.6473 L76.7542,31.6408 L76.8172,31.6349 L76.8809,31.6295 L76.9451,31.6247 L77.0100,31.6204 L77.0756,31.6167 L77.1417,31.6136 L77.2085,31.6110 L77.2759,31.6090 L77.3439,31.6076 L77.4125,31.6067 L77.4818,31.6064 L77.5461,31.6065 L77.6094,31.6070 L77.6719,31.6078 L77.7338,31.6089 L77.7949,31.6104 L77.8553,31.6122 L77.9149,31.6143 L77.9739,31.6168 L78.0321,31.6195 L78.0896,31.6226 L78.1463,31.6261 L78.2024,31.6298 L78.2577,31.6339 L78.3123,31.6384 L78.3662,31.6431 L78.4193,31.6482 L78.4717,31.6536 L78.5234,31.6594 L78.5744,31.6654 L78.6247,31.6718 L78.6742,31.6785 L78.7252,31.6859 L78.7826,31.6948 L78.8396,31.7042 L78.8964,31.7140 L78.9530,31.7244 L79.0092,31.7353 L79.0652,31.7467 L79.1142,31.7571 L79.1142,31.7272 L79.1142,31.6418 L79.1138,31.5518 L79.1091,31.4573 L79.0992,31.3664 L79.0842,31.2790 L79.0639,31.1951 L79.0385,31.1147 L79.0079,31.0378 L78.9721,30.9645 L78.9311,30.8946 L78.8849,30.8283 L78.8335,30.7655 L78.7770,30.7062 L78.7153,30.6504 L78.6484,30.5982 L78.5762,30.5494 L78.5128,30.5117 L78.4545,30.4804 L78.3935,30.4506 L78.3298,30.4222 L78.2634,30.3952 L78.1944,30.3698 L78.1227,30.3458 L78.0484,30.3232 L77.9714,30.3022 L77.8917,30.2825 L77.8093,30.2644 L77.7243,30.2477 L77.6366,30.2325 L77.5463,30.2187 L77.4533,30.2064 L77.3576,30.1956 L77.2592,30.1862 L77.1582,30.1783 L77.0545,30.1719 L76.9482,30.1669 L76.8433,30.1635 L76.7579,30.1612 L76.6725,30.1590 L76.5871,30.1567 L76.5017,30.1544 L76.4163,30.1522 L76.3309,30.1499 L76.2456,30.1476 L76.1602,30.1454 L76.0748,30.1431 L75.9894,30.1408 L75.9040,30.1386 L75.8186,30.1363 L75.7332,30.1340 L75.6479,30.1318 L75.5625,30.1295 L75.4771,30.1272 L75.3917,30.1250 L75.3063,30.1227 L75.2209,30.1205 L75.1355,30.1182 L75.0502,30.1159 L74.9648,30.1137 L74.8794,30.1114 L74.8115,30.0936 L74.8191,30.0085 L74.8267,29.9234 L74.8343,29.8383 L74.8419,29.7533 L74.8496,29.6682 L74.8572,29.5831 L74.8648,29.4980 L74.8724,29.4130 L74.8800,29.3279 L74.8877,29.2428 L74.8953,29.1577 L74.9029,29.0727 L74.9105,28.9876 L74.9181,28.9025 L74.9258,28.8174 L74.9334,28.7324 L74.9410,28.6473 L74.9486,28.5622 L74.9563,28.4771 L74.9639,28.3921 L75.0382,28.3810 L75.1236,28.3821 L75.2090,28.3832 L75.2944,28.3844 L75.3799,28.3855 L75.4653,28.3867 L75.5507,28.3878 L75.6361,28.3890 L75.7215,28.3901 L75.8069,28.3913 L75.8923,28.3924 L75.9777,28.3936 L76.0631,28.3947 L76.1485,28.3959 L76.2339,28.3970 L76.3193,28.3982 L76.4048,28.3993 L76.4902,28.4005 L76.5756,28.4016 L76.6610,28.4027 L76.7583,28.4042 L76.8658,28.4069 L76.9718,28.4105 L77.0765,28.4153 L77.1797,28.4210 L77.2815,28.4278 L77.3819,28.4357 L77.4809,28.4446 L77.5785,28.4545 L77.6746,28.4655 L77.7694,28.4775 L77.8627,28.4906 L77.9546,28.5047 L78.0451,28.5198 L78.1342,28.5360 L78.2218,28.5533 L78.3081,28.5715 L78.3929,28.5909 L78.4763,28.6113 L78.5583,28.6327 L78.6389,28.6551 L78.7181,28.6786 L78.7958,28.7032 L78.8722,28.7288 L78.9471,28.7554 L79.0206,28.7831 L79.0927,28.8118 L79.1634,28.8416 L79.2327,28.8724 L79.3005,28.9043 L79.3670,28.9372 L79.4320,28.9711 L79.4956,29.0061 L79.5578,29.0422 L79.6186,29.0793 L79.6779,29.1174 L79.7359,29.1566 L79.7924,29.1968 L79.8475,29.2380 L79.9012,29.2803 L79.9637,29.3323 L80.0251,29.3864 L80.0845,29.4420 L80.1419,29.4991 L80.1974,29.5576 L80.2509,29.6176 L80.3025,29.6790 L80.3521,29.7419 L80.3997,29.8063 L80.4453,29.8722 L80.4890,29.9395 L80.5307,30.0082 L80.5705,30.0785 L80.6082,30.1502 L80.6440,30.2233 L80.6779,30.2980 L80.7098,30.3741 L80.7397,30.4516 L80.7676,30.5306 L80.7936,30.6111 L80.8176,30.6931 L80.8397,30.7765 L80.8597,30.8614 L80.8778,30.9477 L80.8940,31.0355 L80.9082,31.1248 L80.9204,31.2155 L80.9306,31.3078 L80.9389,31.4014 L80.9452,31.4965 L80.9495,31.5931 L80.9519,31.6912 L80.9524,31.7865 L80.9524,31.8719 L80.9524,31.9573 L80.9524,32.0427 L80.9524,32.1281 L80.9524,32.2135 L80.9524,32.2990 L80.9524,32.3844 L80.9524,32.4698 L80.9524,32.5552 L80.9524,32.6406 L80.9524,32.7260 L80.9524,32.8114 L80.9524,32.8969 L80.9524,32.9823 L80.9524,33.0677 L80.9524,33.1531 L80.9524,33.2385 L80.9524,33.3239 L80.9524,33.4094 L80.9524,33.4948 L80.9524,33.5802 L80.9524,33.6656 L80.9524,33.7510 L80.9524,33.8364 L80.9524,33.9219 L80.9524,34.0073 L80.9524,34.0927 L80.9524,34.1781 L80.9524,34.2635 L80.9524,34.3489 L80.9524,34.4344 L80.9524,34.5198 L80.9524,34.6052 L80.9524,34.6906 L80.9524,34.7760 L80.9524,34.8614 L80.9524,34.9469 L81.0273,34.9670 L81.1119,34.9786 L81.1965,34.9903 L81.2811,35.0019 L81.3657,35.0135 L81.4504,35.0252 L81.5350,35.0368 L81.6196,35.0484 L81.7042,35.0601 L81.7888,35.0717 L81.8735,35.0834 L81.9581,35.0950 L82.0427,35.1066 L82.1273,35.1183 L82.1931,35.1463 L82.1931,35.2317 L82.1931,35.3171 L82.1931,35.4026 L82.1931,35.4880 L82.1931,35.5734 L82.1931,35.6588 L82.1931,35.7442 L82.1931,35.8296 L82.1931,35.9151 L82.1931,36.0005 L82.1931,36.0859 L82.1931,36.1713 L82.1931,36.2567 L82.1931,36.3421 L82.1931,36.4276 L82.1931,36.5130 L82.1931,36.5984 L82.1878,36.6786 L82.1024,36.6809 L82.0170,36.6833 L81.9316,36.6856 L81.8462,36.6880 L81.7609,36.6903 L81.6755,36.6926 L81.5901,36.6950 L81.5047,36.6973 L81.4193,36.6997 L81.3339,36.7020 L81.2486,36.7044 L81.1632,36.7067 L81.0778,36.7090 L80.9924,36.7114 L80.9070,36.7137 L80.8216,36.7161 L80.7362,36.7184 L80.6509,36.7208 L80.5655,36.7231 L80.4801,36.7255 L80.3947,36.7278 L80.3093,36.7301 L80.2239,36.7325 L80.1386,36.7348 L80.0532,36.7372 L79.9678,36.7395 L79.8824,36.7419 L79.7970,36.7442 L79.7116,36.7465 L79.6263,36.7489 L79.5409,36.7512 L79.4555,36.7536 L79.3701,36.7559 L79.3649,36.6706 L79.3598,36.5854 L79.3546,36.5001 L79.3495,36.4149 L79.3443,36.3296 L79.3392,36.2443 L79.3340,36.1591 L79.3289,36.0738 L79.3237,35.9886 L79.3185,35.9033 L79.3134,35.8180 L79.3082,35.7328 L79.3031,35.6475 L79.2979,35.5623 L79.2928,35.4770 L79.2876,35.3917 L79.2824,35.3065 L79.2773,35.2212 L79.2721,35.1360ZM79.1142,33.2962 L79.0824,33.2903 L79.0250,33.2802 L78.9681,33.2709 L78.9117,33.2622 L78.8558,33.2542 L78.8004,33.2469 L78.7455,33.2402 L78.6910,33.2343 L78.6371,33.2291 L78.5837,33.2245 L78.5308,33.2206 L78.4784,33.2175 L78.4258,33.2149 L78.3714,33.2126 L78.3167,33.2105 L78.2616,33.2085 L78.2063,33.2066 L78.1507,33.2049 L78.0947,33.2034 L78.0385,33.2020 L77.9819,33.2007 L77.9251,33.1996 L77.8680,33.1987 L77.8105,33.1979 L77.7528,33.1972 L77.6947,33.1967 L77.6363,33.1964 L77.5777,33.1962 L77.5126,33.1962 L77.4274,33.1970 L77.3442,33.1991 L77.2631,33.2024 L77.1841,33.2069 L77.1071,33.2127 L77.0322,33.2196 L76.9593,33.2277 L76.8885,33.2370 L76.8197,33.2476 L76.7530,33.2594 L76.6883,33.2723 L76.6257,33.2865 L76.5652,33.3019 L76.5067,33.3185 L76.4502,33.3363 L76.3958,33.3553 L76.3435,33.3755 L76.2932,33.3970 L76.2449,33.4196 L76.1987,33.4435 L76.1546,33.4685 L76.1125,33.4948 L76.0725,33.5223 L76.0345,33.5510 L75.9986,33.5809 L75.9647,33.6120 L75.9329,33.6443 L75.9031,33.6778 L75.8754,33.7126 L75.8497,33.7485 L75.8261,33.7857 L75.8046,33.8240 L75.7851,33.8636 L75.7676,33.9044 L75.7522,33.9464 L75.7389,33.9896 L75.7276,34.0340 L75.7183,34.0796 L75.7111,34.1264 L75.7060,34.1745 L75.7029,34.2237 L75.7019,34.2742 L75.7034,34.3384 L75.7080,34.4005 L75.7157,34.4605 L75.7264,34.5183 L75.7402,34.5740 L75.7571,34.6275 L75.7770,34.6789 L75.8000,34.7282 L75.8261,34.7753 L75.8552,34.8202 L75.8875,34.8631 L75.9227,34.9037 L75.9611,34.9423 L76.0025,34.9787 L76.0430,35.0100 L76.0820,35.0369 L76.1229,35.0622 L76.1658,35.0857 L76.2106,35.1077 L76.2573,35.1280 L76.3059,35.1467 L76.3565,35.1637 L76.4089,35.1791 L76.4634,35.1928 L76.5197,35.2049 L76.5780,35.2154 L76.6382,35.2242 L76.7003,35.2313 L76.7643,35.2369 L76.8303,35.2408 L76.8982,35.2430 L76.9673,35.2436 L77.0321,35.2429 L77.0960,35.2411 L77.1588,35.2382 L77.2207,35.2342 L77.2816,35.2292 L77.3416,35.2230 L77.4005,35.2157 L77.4585,35.2074 L77.5155,35.1980 L77.5715,35.1874 L77.6265,35.1758 L77.6806,35.1631 L77.7337,35.1492 L77.7858,35.1343 L77.8369,35.1183 L77.8870,35.1012 L77.9362,35.0830 L77.9844,35.0638 L78.0316,35.0434 L78.0778,35.0219 L78.1231,34.9993 L78.1710,34.9737 L78.2247,34.9432 L78.2769,34.9118 L78.3275,34.8794 L78.3765,34.8462 L78.4240,34.8120 L78.4698,34.7769 L78.5141,34.7409 L78.5569,34.7040 L78.5980,34.6661 L78.6376,34.6274 L78.6755,34.5877 L78.7119,34.5471 L78.7468,34.5056 L78.7800,34.4632 L78.8117,34.4198 L78.8418,34.3756 L78.8703,34.3304 L78.9004,34.2791 L78.9288,34.2269 L78.9553,34.1744 L78.9797,34.1217 L79.0020,34.0687 L79.0224,34.0156 L79.0407,33.9622 L79.0569,33.9085 L79.0712,33.8547 L79.0834,33.8006 L79.0936,33.7463 L79.1017,33.6917 L79.1078,33.6370 L79.1119,33.5820 L79.1139,33.5267 L79.1142,33.4707 L79.1142,33.4141 L79.1142,33.3575 L79.1142,33.3501 L79.1142,33.3008ZM94.6383,33.3591 L94.6008,33.3591 L94.6200,33.4282 L94.6495,33.5205 L94.6820,33.6102 L94.7176,33.6973 L94.7563,33.7819 L94.7981,33.8640 L94.8429,33.9434 L94.8908,34.0203 L94.9419,34.0946 L94.9959,34.1664 L95.0531,34.2355 L95.1134,34.3022 L95.1767,34.3662 L95.2420,34.4267 L95.3083,34.4833 L95.3771,34.5372 L95.4482,34.5885 L95.5217,34.6372 L95.5976,34.6833 L95.6759,34.7268 L95.7566,34.7676 L95.8397,34.8058 L95.9252,34.8414 L96.0131,34.8743 L96.1033,34.9047 L96.1960,34.9324 L96.2910,34.9575 L96.3885,34.9800 L96.4883,34.9998 L96.5905,35.0170 L96.6951,35.0316 L96.8022,35.0436 L96.9116,35.0530 L97.0233,35.0597 L97.1375,35.0638 L97.2541,35.0653 L97.3548,35.0649 L97.4539,35.0635 L97.5526,35.0611 L97.6511,35.0578 L97.7492,35.0534 L97.8470,35.0481 L97.9445,35.0418 L98.0416,35.0345 L98.1385,35.0263 L98.2350,35.0170 L98.3311,35.0068 L98.4264,34.9959 L98.5220,34.9843 L98.6179,34.9719 L98.7142,34.9589 L98.8108,34.9451 L98.9077,34.9307 L99.0049,34.9155 L99.1024,34.8996 L99.2003,34.8830 L99.2985,34.8657 L99.3953,34.8500 L99.4064,34.9474 L99.4175,35.0447 L99.4286,35.1421 L99.4397,35.2394 L99.4508,35.3368 L99.4618,35.4341 L99.4729,35.5315 L99.4840,35.6289 L99.4951,35.7262 L99.5062,35.8236 L99.5173,35.9209 L99.5284,36.0183 L99.5395,36.1156 L99.5506,36.2130 L99.5617,36.3103 L99.5728,36.4077 L99.5839,36.5051 L99.5950,36.6024 L99.5066,36.6327 L99.4024,36.6508 L99.2995,36.6679 L99.1977,36.6840 L99.0972,36.6992 L98.9979,36.7134 L98.8997,36.7266 L98.8028,36.7388 L98.7071,36.7501 L98.6125,36.7604 L98.5192,36.7697 L98.4271,36.7781 L98.3362,36.7854 L98.2464,36.7918 L98.1473,36.7979 L98.0387,36.8041 L97.9324,36.8097 L97.8283,36.8147 L97.7265,36.8191 L97.6269,36.8230 L97.5295,36.8262 L97.4344,36.8288 L97.3415,36.8309 L97.2508,36.8324 L97.1624,36.8333 L97.0762,36.8336 L96.9598,36.8327 L96.8449,36.8302 L96.7314,36.8259 L96.6194,36.8200 L96.5089,36.8124 L96.3999,36.8031 L96.2923,36.7921 L96.1862,36.7794 L96.0816,36.7651 L95.9784,36.7490 L95.8767,36.7312 L95.7765,36.7118 L95.6778,36.6906 L95.5805,36.6678 L95.4847,36.6433 L95.3904,36.6171 L95.2975,36.5892 L95.2062,36.5596 L95.1162,36.5283 L95.0278,36.4953 L94.9408,36.4606 L94.8554,36.4242 L94.7713,36.3862 L94.6888,36.3464 L94.6077,36.3050 L94.5281,36.2619 L94.4500,36.2171 L94.3733,36.1705 L94.2981,36.1223 L94.2244,36.0724 L94.1521,36.0209 L94.0814,35.9676 L94.0121,35.9126 L93.9442,35.8560 L93.8779,35.7976 L93.8130,35.7376 L93.7487,35.6749 L93.6860,35.6105 L93.6252,35.5447 L93.5662,35.4772 L93.5091,35.4083 L93.4537,35.3378 L93.4003,35.2658 L93.3486,35.1922 L93.2988,35.1171 L93.2508,35.0405 L93.2047,34.9623 L93.1604,34.8826 L93.1179,34.8014 L93.0773,34.7187 L93.0385,34.6344 L93.0016,34.5485 L92.9664,34.4612 L92.9332,34.3723 L92.9017,34.2819 L92.8721,34.1899 L92.8443,34.0964 L92.8184,34.0014 L92.7942,33.9048 L92.7720,33.8067 L92.7515,33.7071 L92.7329,33.6060 L92.7162,33.5033 L92.7012,33.3991 L92.6881,33.2933 L92.6769,33.1860 L92.6674,33.0772 L92.6598,32.9668 L92.6541,32.8549 L92.6502,32.7415 L92.6481,32.6266 L92.6478,32.5099 L92.6493,32.3935 L92.6524,32.2786 L92.6572,32.1653 L92.6636,32.0535 L92.6717,31.9432 L92.6815,31.8345 L92.6930,31.7273 L92.7062,31.6216 L92.7210,31.5175 L92.7375,31.4149 L92.7556,31.3138 L92.7755,31.2143 L92.7970,31.1163 L92.8202,31.0198 L92.8450,30.9249 L92.8715,30.8315 L92.8997,30.7396 L92.9296,30.6493 L92.9611,30.5604 L92.9943,30.4732 L93.0292,30.3874 L93.0658,30.3032 L93.1040,30.2206 L93.1439,30.1394 L93.1855,30.0598 L93.2287,29.9818 L93.2736,29.9052 L93.3202,29.8302 L93.3685,29.7567 L93.4184,29.6848 L93.4700,29.6144 L93.5233,29.5455 L93.5782,29.4782 L93.6354,29.4118 L93.6988,29.3421 L93.7639,29.2746 L93.8305,29.2095 L93.8988,29.1465 L93.9687,29.0859 L94.0403,29.0275 L94.1135,28.9714 L94.1883,28.9175 L94.2647,28.8659 L94.3427,28.8165 L94.4224,28.7694 L94.5037,28.7246 L94.5866,28.6821 L94.6712,28.6418 L94.7574,28.6037 L94.8452,28.5679 L94.9346,28.5344 L95.0256,28.5032 L95.1183,28.4742 L95.2126,28.4474 L95.3085,28.4230 L95.4061,28.4007 L95.5053,28.3808 L95.6061,28.3631 L95.7085,28.3477 L95.8126,28.3345 L95.9182,28.3236 L96.0255,28.3150 L96.1345,28.3086 L96.2450,28.3045 L96.3572,28.3026 L96.4710,28.3030 L96.5837,28.3057 L96.6947,28.3107 L96.8039,28.3179 L96.9114,28.3274 L97.0171,28.3391 L97.1211,28.3532 L97.2234,28.3695 L97.3240,28.3881 L97.4228,28.4089 L97.5199,28.4321 L97.6153,28.4575 L97.7089,28.4851 L97.8009,28.5151 L97.8910,28.5473 L97.9795,28.5818 L98.0662,28.6185 L98.1512,28.6576 L98.2345,28.6989 L98.3160,28.7424 L98.3958,28.7883 L98.4739,28.8364 L98.5502,28.8868 L98.6248,28.9395 L98.6977,28.9944 L98.7689,29.0516 L98.8383,29.1111 L98.9060,29.1728 L98.9719,29.2368 L99.0362,29.3031 L99.0954,29.3681 L99.1512,29.4330 L99.2053,29.4996 L99.2576,29.5680 L99.3081,29.6382 L99.3568,29.7100 L99.4037,29.7836 L99.4489,29.8590 L99.4922,29.9361 L99.5338,30.0149 L99.5737,30.0955 L99.6117,30.1778 L99.6480,30.2619 L99.6825,30.3477 L99.7152,30.4352 L99.7461,30.5245 L99.7753,30.6155 L99.8027,30.7083 L99.8283,30.8028 L99.8521,30.8990 L99.8741,30.9970 L99.8944,31.0967 L99.9129,31.1982 L99.9296,31.3014 L99.9445,31.4064 L99.9577,31.5131 L99.9691,31.6215 L99.9787,31.7317 L99.9865,31.8436 L99.9925,31.9572 L99.9968,32.0726 L99.9993,32.1898 L100.0000,32.3071 L99.9995,32.4107 L99.9983,32.5130 L99.9962,32.6142 L99.9933,32.7143 L99.9897,32.8131 L99.9853,32.9108 L99.9800,33.0072 L99.9740,33.1025 L99.9672,33.1966 L99.9596,33.2895 L99.9295,33.3591 L99.8316,33.3591 L99.7336,33.3591 L99.6356,33.3591 L99.5376,33.3591 L99.4396,33.3591 L99.3416,33.3591 L99.2436,33.3591 L99.1457,33.3591 L99.0477,33.3591 L98.9497,33.3591 L98.8517,33.3591 L98.7537,33.3591 L98.6557,33.3591 L98.5577,33.3591 L98.4598,33.3591 L98.3618,33.3591 L98.2638,33.3591 L98.1658,33.3591 L98.0678,33.3591 L97.9698,33.3591 L97.8718,33.3591 L97.7739,33.3591 L97.6759,33.3591 L97.5779,33.3591 L97.4799,33.3591 L97.3819,33.3591 L97.2839,33.3591 L97.1859,33.3591 L97.0880,33.3591 L96.9900,33.3591 L96.8920,33.3591 L96.7940,33.3591 L96.6960,33.3591 L96.5980,33.3591 L96.5000,33.3591 L96.4021,33.3591 L96.3041,33.3591 L96.2061,33.3591 L96.1081,33.3591 L96.0101,33.3591 L95.9121,33.3591 L95.8141,33.3591 L95.7162,33.3591 L95.6182,33.3591 L95.5202,33.3591 L95.4222,33.3591 L95.3242,33.3591 L95.2262,33.3591 L95.1282,33.3591 L95.0303,33.3591 L94.9323,33.3591 L94.8343,33.3591 L94.7363,33.3591ZM94.5259,31.9162 L94.5191,31.9786 L94.5852,31.9786 L94.6832,31.9786 L94.7812,31.9786 L94.8792,31.9786 L94.9772,31.9786 L95.0752,31.9786 L95.1731,31.9786 L95.2711,31.9786 L95.3691,31.9786 L95.4671,31.9786 L95.5651,31.9786 L95.6631,31.9786 L95.7611,31.9786 L95.8590,31.9786 L95.9570,31.9786 L96.0550,31.9786 L96.1530,31.9786 L96.2510,31.9786 L96.3490,31.9786 L96.4470,31.9786 L96.5449,31.9786 L96.6429,31.9786 L96.7409,31.9786 L96.8389,31.9786 L96.9369,31.9786 L97.0349,31.9786 L97.1329,31.9786 L97.2308,31.9786 L97.3288,31.9786 L97.4268,31.9786 L97.5248,31.9786 L97.6228,31.9786 L97.7208,31.9786 L97.8188,31.9786 L97.9167,31.9786 L98.0147,31.9786 L98.1127,31.9786 L98.1693,31.9292 L98.1659,31.8139 L98.1588,31.7021 L98.1479,31.5937 L98.1334,31.4888 L98.1152,31.3873 L98.0932,31.2893 L98.0675,31.1948 L98.0382,31.1037 L98.0051,31.0161 L97.9683,30.9320 L97.9278,30.8513 L97.8836,30.7741 L97.8356,30.7003 L97.7840,30.6300 L97.7287,30.5631 L97.6668,30.4969 L97.5995,30.4330 L97.5287,30.3738 L97.4546,30.3194 L97.3770,30.2697 L97.2960,30.2247 L97.2116,30.1844 L97.1238,30.1488 L97.0326,30.1180 L96.9379,30.0918 L96.8399,30.0704 L96.7384,30.0537 L96.6336,30.0417 L96.5253,30.0345 L96.4136,30.0319 L96.3041,30.0341 L96.1978,30.0410 L96.0945,30.0526 L95.9942,30.0690 L95.8969,30.0901 L95.8025,30.1160 L95.7112,30.1466 L95.6229,30.1819 L95.5376,30.2219 L95.4553,30.2667 L95.3760,30.3162 L95.2996,30.3705 L95.2263,30.4294 L95.1560,30.4931 L95.0887,30.5616 L95.0244,30.6348 L94.9686,30.7053 L94.9198,30.7735 L94.8736,30.8446 L94.8300,30.9184 L94.7891,30.9950 L94.7509,31.0745 L94.7153,31.1568 L94.6823,31.2418 L94.6520,31.3297 L94.6244,31.4205 L94.5994,31.5140 L94.5770,31.6103 L94.5573,31.7095 L94.5403,31.8114ZM88.1534,36.8328 L88.0699,36.8334 L87.9866,36.8336 L87.8842,36.8329 L87.7830,36.8311 L87.6828,36.8280 L87.5837,36.8238 L87.4857,36.8183 L87.3888,36.8115 L87.2931,36.8036 L87.1984,36.7944 L87.1048,36.7840 L87.0124,36.7723 L86.9210,36.7595 L86.8307,36.7454 L86.7416,36.7301 L86.6536,36.7136 L86.5666,36.6958 L86.4808,36.6768 L86.3961,36.6566 L86.3124,36.6352 L86.2299,36.6126 L86.1485,36.5887 L86.0682,36.5636 L85.9890,36.5373 L85.9108,36.5097 L85.8338,36.4809 L85.7579,36.4509 L85.6831,36.4197 L85.6095,36.3873 L85.5369,36.3536 L85.4654,36.3187 L85.3950,36.2826 L85.3257,36.2452 L85.2576,36.2067 L85.1905,36.1669 L85.1245,36.1259 L85.0597,36.0836 L84.9959,36.0401 L84.9333,35.9955 L84.8717,35.9495 L84.8113,35.9024 L84.7519,35.8540 L84.6937,35.8044 L84.6366,35.7536 L84.5794,35.7005 L84.5225,35.6451 L84.4669,35.5886 L84.4129,35.5309 L84.3602,35.4720 L84.3090,35.4120 L84.2592,35.3508 L84.2109,35.2885 L84.1640,35.2250 L84.1185,35.1603 L84.0744,35.0945 L84.0318,35.0275 L83.9906,34.9594 L83.9509,34.8901 L83.9126,34.8196 L83.8757,34.7480 L83.8402,34.6752 L83.8062,34.6012 L83.7736,34.5261 L83.7424,34.4498 L83.7127,34.3724 L83.6844,34.2938 L83.6575,34.2141 L83.6320,34.1331 L83.6080,34.0511 L83.5855,33.9678 L83.5643,33.8834 L83.5446,33.7979 L83.5263,33.7111 L83.5095,33.6233 L83.4940,33.5342 L83.4801,33.4440 L83.4675,33.3527 L83.4564,33.2601 L83.4467,33.1664 L83.4384,33.0716 L83.4316,32.9756 L83.4262,32.8784 L83.4222,32.7801 L83.4197,32.6806 L83.4186,32.5799 L83.4189,32.4789 L83.4206,32.3790 L83.4237,32.2802 L83.4282,32.1825 L83.4341,32.0860 L83.4414,31.9906 L83.4500,31.8964 L83.4601,31.8032 L83.4715,31.7113 L83.4844,31.6204 L83.4986,31.5307 L83.5142,31.4421 L83.5312,31.3547 L83.5496,31.2684 L83.5694,31.1832 L83.5906,31.0992 L83.6131,31.0163 L83.6371,30.9346 L83.6624,30.8539 L83.6892,30.7744 L83.7173,30.6961 L83.7468,30.6189 L83.7777,30.5428 L83.8100,30.4679 L83.8437,30.3941 L83.8788,30.3214 L83.9153,30.2499 L83.9531,30.1795 L83.9924,30.1102 L84.0330,30.0421 L84.0750,29.9751 L84.1185,29.9092 L84.1633,29.8445 L84.2095,29.7809 L84.2571,29.7185 L84.3061,29.6572 L84.3564,29.5970 L84.4082,29.5380 L84.4613,29.4801 L84.5159,29.4233 L84.5714,29.3681 L84.6280,29.3144 L84.6859,29.2620 L84.7449,29.2111 L84.8050,29.1615 L84.8664,29.1133 L84.9289,29.0665 L84.9926,29.0211 L85.0575,28.9771 L85.1236,28.9345 L85.1909,28.8932 L85.2593,28.8534 L85.3289,28.8149 L85.3997,28.7779 L85.4716,28.7422 L85.5448,28.7079 L85.6191,28.6751 L85.6946,28.6436 L85.7713,28.6135 L85.8491,28.5847 L85.9281,28.5574 L86.0084,28.5315 L86.0897,28.5069 L86.1723,28.4838 L86.2561,28.4620 L86.3410,28.4417 L86.4271,28.4227 L86.5144,28.4051 L86.6028,28.3889 L86.6925,28.3741 L86.7833,28.3607 L86.8753,28.3487 L86.9684,28.3380 L87.0628,28.3288 L87.1583,28.3209 L87.2550,28.3145 L87.3529,28.3094 L87.4520,28.3057 L87.5522,28.3034 L87.6536,28.3025 L87.7508,28.3030 L87.8460,28.3050 L87.9402,28.3083 L88.0333,28.3131 L88.1254,28.3194 L88.2163,28.3270 L88.3062,28.3361 L88.3949,28.3466 L88.4826,28.3586 L88.5692,28.3720 L88.6548,28.3868 L88.7392,28.4030 L88.8226,28.4207 L88.9049,28.4398 L88.9861,28.4604 L89.0662,28.4824 L89.1452,28.5058 L89.2232,28.5306 L89.3000,28.5569 L89.3758,28.5846 L89.4505,28.6137 L89.5242,28.6442 L89.5967,28.6762 L89.6681,28.7097 L89.7385,28.7445 L89.8083,28.7810 L89.8880,28.8254 L89.9656,28.8713 L90.0411,28.9189 L90.1144,28.9681 L90.1856,29.0189 L90.2547,29.0714 L90.3216,29.1255 L90.3864,29.1812 L90.4490,29.2385 L90.5095,29.2975 L90.5679,29.3581 L90.6241,29.4203 L90.6781,29.4841 L90.7301,29.5496 L90.7799,29.6167 L90.8275,29.6854 L90.8730,29.7558 L90.9164,29.8277 L90.9576,29.9013 L90.9967,29.9766 L91.0337,30.0534 L91.0597,30.1296 L90.9922,30.1824 L90.9247,30.2351 L90.8572,30.2878 L90.7897,30.3406 L90.7222,30.3933 L90.6547,30.4461 L90.5872,30.4988 L90.5196,30.5516 L90.4521,30.6043 L90.3846,30.6571 L90.3171,30.7098 L90.2496,30.7626 L90.1821,30.8153 L90.1146,30.8681 L90.0471,30.9208 L89.9796,30.9735 L89.9121,31.0263 L89.8445,31.0790 L89.7770,31.1318 L89.7095,31.1845 L89.6433,31.2292 L89.5947,31.1539 L89.5443,31.0811 L89.4921,31.0107 L89.4381,30.9427 L89.3822,30.8772 L89.3244,30.8141 L89.2648,30.7535 L89.2034,30.6953 L89.1401,30.6396 L89.0750,30.5863 L89.0080,30.5355 L88.9393,30.4871 L88.8686,30.4411 L88.7961,30.3976 L88.7215,30.3563 L88.6455,30.3179 L88.5686,30.2824 L88.4905,30.2498 L88.4115,30.2202 L88.3314,30.1935 L88.2503,30.1698 L88.1681,30.1491 L88.0849,30.1313 L88.0007,30.1165 L87.9154,30.1046 L87.8291,30.0956 L87.7418,30.0897 L87.6534,30.0866 L87.5594,30.0865 L87.4615,30.0892 L87.3657,30.0947 L87.2721,30.1030 L87.1804,30.1141 L87.0909,30.1279 L87.0035,30.1446 L86.9182,30.1640 L86.8349,30.1862 L86.7537,30.2111 L86.6746,30.2389 L86.5976,30.2694 L86.5227,30.3028 L86.4499,30.3389 L86.3792,30.3778 L86.3105,30.4194 L86.2440,30.4639 L86.1795,30.5111 L86.1171,30.5611 L86.0568,30.6139 L85.9986,30.6695 L85.9436,30.7267 L85.8927,30.7842 L85.8443,30.8438 L85.7982,30.9055 L85.7545,30.9693 L85.7132,31.0353 L85.6742,31.1033 L85.6376,31.1735 L85.6034,31.2458 L85.5715,31.3202 L85.5421,31.3968 L85.5149,31.4754 L85.4902,31.5562 L85.4678,31.6391 L85.4478,31.7242 L85.4302,31.8113 L85.4149,31.9006 L85.4020,31.9920 L85.3915,32.0855 L85.3833,32.1811 L85.3775,32.2789 L85.3741,32.3787 L85.3731,32.4807 L85.3744,32.5815 L85.3781,32.6804 L85.3842,32.7773 L85.3927,32.8723 L85.4036,32.9653 L85.4168,33.0563 L85.4325,33.1453 L85.4505,33.2324 L85.4709,33.3176 L85.4938,33.4007 L85.5190,33.4819 L85.5465,33.5611 L85.5765,33.6384 L85.6089,33.7137 L85.6436,33.7870 L85.6808,33.8584 L85.7203,33.9278 L85.7622,33.9952 L85.8065,34.0607 L85.8532,34.1242 L85.9023,34.1857 L85.9537,34.2453 L86.0076,34.3029 L86.0638,34.3585 L86.1211,34.4111 L86.1785,34.4600 L86.2378,34.5070 L86.2990,34.5520 L86.3619,34.5951 L86.4268,34.6363 L86.4934,34.6755 L86.5620,34.7127 L86.6323,34.7480 L86.7045,34.7813 L86.7786,34.8127 L86.8545,34.8421 L86.9323,34.8696 L87.0119,34.8952 L87.0933,34.9187 L87.1766,34.9404 L87.2618,34.9601 L87.3488,34.9778 L87.4376,34.9936 L87.5283,35.0074 L87.6208,35.0193 L87.7152,35.0293 L87.8114,35.0372 L87.9095,35.0433 L88.0094,35.0474 L88.1112,35.0495 L88.2074,35.0498 L88.2932,35.0492 L88.3790,35.0480 L88.4647,35.0462 L88.5503,35.0438 L88.6360,35.0407 L88.7215,35.0370 L88.8070,35.0327 L88.8925,35.0278 L88.9780,35.0222 L89.0634,35.0161 L89.1487,35.0092 L89.2340,35.0018 L89.3196,34.9937 L89.4064,34.9850 L89.4928,34.9758 L89.5789,34.9661 L89.6647,34.9560 L89.7502,34.9454 L89.8353,34.9344 L89.9201,34.9228 L90.0046,34.9109 L90.0888,34.8984 L90.1726,34.8855 L90.2561,34.8721 L90.3393,34.8583 L90.4014,34.8722 L90.4112,34.9573 L90.4210,35.0424 L90.4308,35.1276 L90.4406,35.2127 L90.4504,35.2978 L90.4602,35.3829 L90.4699,35.4680 L90.4797,35.5531 L90.4895,35.6382 L90.4993,35.7233 L90.5091,35.8084 L90.5189,35.8936 L90.5287,35.9787 L90.5385,36.0638 L90.5482,36.1489 L90.5580,36.2340 L90.5678,36.3191 L90.5776,36.4042 L90.5874,36.4893 L90.5972,36.5744 L90.5439,36.6133 L90.4617,36.6305 L90.3791,36.6469 L90.2962,36.6625 L90.2128,36.6774 L90.1290,36.6914 L90.0449,36.7047 L89.9604,36.7172 L89.8754,36.7289 L89.7901,36.7399 L89.7044,36.7500 L89.6183,36.7594 L89.5318,36.7679 L89.4449,36.7757 L89.3576,36.7827 L89.2699,36.7890 L89.1820,36.7947 L89.0945,36.8001 L89.0073,36.8050 L88.9204,36.8096 L88.8339,36.8137 L88.7476,36.8175 L88.6618,36.8209 L88.5762,36.8238 L88.4910,36.8264 L88.4061,36.8286 L88.3216,36.8304 L88.2373,36.8318ZM48.3558,32.7346 L48.3558,32.9020 L48.3558,33.0694 L48.3558,33.2368 L48.3558,33.4042 L48.3558,33.5717 L48.3558,33.7391 L48.3558,33.9065 L48.3558,34.0739 L48.3558,34.2413 L48.3558,34.4087 L48.3558,34.5762 L48.3558,34.7436 L48.3558,34.9110 L48.3558,35.0784 L48.3558,35.2458 L48.3558,35.4132 L48.3558,35.5806 L48.3558,35.7481 L48.3558,35.9155 L48.3558,36.0829 L48.3558,36.2503 L48.3558,36.4177 L48.3558,36.5851 L48.2817,36.6784 L48.1143,36.6784 L47.9469,36.6784 L47.7795,36.6784 L47.6120,36.6784 L47.4446,36.6784 L47.2772,36.6784 L47.1098,36.6784 L46.9424,36.6784 L46.7750,36.6784 L46.6076,36.6784 L46.4401,36.6784 L46.4401,36.5110 L46.4401,36.3436 L46.4401,36.1762 L46.4401,36.0088 L46.4401,35.8414 L46.4401,35.6740 L46.4401,35.5065 L46.4401,35.3391 L46.4401,35.1717 L46.4401,35.0043 L46.4401,34.8369 L46.4401,34.6695 L46.4401,34.5020 L46.4401,34.3346 L46.4401,34.1672 L46.4401,33.9998 L46.4401,33.8324 L46.4401,33.6650 L46.4401,33.4976 L46.4401,33.3301 L46.4401,33.1627 L46.4401,32.9953 L46.4401,32.8279 L46.4401,32.6605 L46.4401,32.4931 L46.4401,32.3256 L46.4401,32.1582 L46.4401,31.9908 L46.4401,31.8234 L46.4401,31.6560 L46.4401,31.4886 L46.4401,31.3211 L46.4401,31.1537 L46.4401,30.9863 L46.4401,30.8189 L46.4401,30.6515 L46.4401,30.4841 L46.4401,30.3167 L46.4401,30.1492 L46.4401,29.9818 L46.4401,29.8144 L46.4401,29.6470 L46.4401,29.4796 L46.4401,29.3122 L46.4401,29.1447 L46.4401,28.9773 L46.4401,28.8099 L46.4401,28.6425 L46.4401,28.4751 L46.5901,28.4576 L46.7575,28.4576 L46.9249,28.4576 L47.0923,28.4576 L47.2598,28.4576 L47.4272,28.4576 L47.5946,28.4576 L47.7620,28.4576 L47.9294,28.4576 L48.0968,28.4576 L48.1732,28.5594 L48.1918,28.7257 L48.2104,28.8921 L48.2290,29.0585 L48.2475,29.2249 L48.2661,29.3913 L48.2847,29.5576 L48.3033,29.7240 L48.3218,29.8904 L48.3281,29.9466 L48.3958,29.9466 L48.4950,29.9466 L48.5494,29.8852 L48.5667,29.7719 L48.5878,29.6629 L48.6129,29.5581 L48.6420,29.4576 L48.6750,29.3613 L48.7119,29.2693 L48.7527,29.1815 L48.7975,29.0979 L48.8462,29.0186 L48.8988,28.9436 L48.9554,28.8728 L49.0159,28.8062 L49.0803,28.7439 L49.1462,28.6879 L49.2126,28.6383 L49.2830,28.5922 L49.3574,28.5495 L49.4357,28.5101 L49.5181,28.4742 L49.6045,28.4417 L49.6948,28.4126 L49.7892,28.3869 L49.8875,28.3646 L49.9899,28.3457 L50.0962,28.3303 L50.2065,28.3182 L50.3209,28.3096 L50.4392,28.3043 L50.5615,28.3025 L50.6764,28.3040 L50.7887,28.3085 L50.8987,28.3162 L51.0064,28.3270 L51.1117,28.3409 L51.2147,28.3580 L51.3154,28.3781 L51.4138,28.4014 L51.5098,28.4278 L51.6035,28.4573 L51.6949,28.4899 L51.7839,28.5257 L51.8707,28.5646 L51.9551,28.6065 L52.0372,28.6516 L52.1169,28.6999 L52.1944,28.7512 L52.2695,28.8057 L52.3423,28.8633 L52.4127,28.9240 L52.4809,28.9878 L52.5467,29.0547 L52.6082,29.1226 L52.6650,29.1901 L52.7192,29.2598 L52.7711,29.3318 L52.8205,29.4060 L52.8674,29.4824 L52.9119,29.5610 L52.9540,29.6419 L52.9937,29.7250 L53.0308,29.8103 L53.0656,29.8979 L53.0979,29.9876 L53.1278,30.0797 L53.1552,30.1739 L53.1802,30.2704 L53.2028,30.3690 L53.2229,30.4700 L53.2406,30.5731 L53.2558,30.6785 L53.2686,30.7861 L53.2790,30.8959 L53.2869,31.0079 L53.2924,31.1222 L53.2954,31.2387 L53.2961,31.3523 L53.2961,31.4515 L53.2961,31.5507 L53.2961,31.6499 L53.2961,31.7491 L53.2961,31.8483 L53.2961,31.9475 L53.2961,32.0467 L53.2961,32.1459 L53.2961,32.2451 L53.2961,32.3443 L53.2961,32.4435 L53.2961,32.5427 L53.2961,32.6419 L53.2961,32.7411 L53.2961,32.8403 L53.2961,32.9396 L53.2961,33.0388 L53.2961,33.1380 L53.2961,33.2372 L53.2961,33.3364 L53.2961,33.4356 L53.2961,33.5348 L53.2961,33.6340 L53.2961,33.7332 L53.2961,33.8324 L53.2961,33.9316 L53.2961,34.0308 L53.2961,34.1300 L53.2961,34.2292 L53.2961,34.3284 L53.2961,34.4276 L53.2961,34.5268 L53.2961,34.6260 L53.2961,34.7252 L53.2961,34.8244 L53.2961,34.9236 L53.2961,35.0228 L53.2961,35.1220 L53.2961,35.2212 L53.2961,35.3204 L53.2961,35.4196 L53.2961,35.5188 L53.2961,35.6180 L53.2961,35.7172 L53.2961,35.8164 L53.2961,35.9156 L53.2961,36.0148 L53.2961,36.1140 L53.2961,36.2133 L53.2961,36.3125 L53.2961,36.4117 L53.2961,36.5109 L53.2961,36.6101 L53.2653,36.6784 L53.1661,36.6784 L53.0669,36.6784 L52.9677,36.6784 L52.8685,36.6784 L52.7693,36.6784 L52.6701,36.6784 L52.5709,36.6784 L52.4717,36.6784 L52.3725,36.6784 L52.2733,36.6784 L52.1741,36.6784 L52.0749,36.6784 L51.9757,36.6784 L51.8764,36.6784 L51.7772,36.6784 L51.6780,36.6784 L51.5788,36.6784 L51.4796,36.6784 L51.3804,36.6784 L51.3804,36.5792 L51.3804,36.4800 L51.3804,36.3808 L51.3804,36.2816 L51.3804,36.1824 L51.3804,36.0832 L51.3804,35.9840 L51.3804,35.8848 L51.3804,35.7856 L51.3804,35.6864 L51.3804,35.5872 L51.3804,35.4880 L51.3804,35.3888 L51.3804,35.2896 L51.3804,35.1904 L51.3804,35.0912 L51.3804,34.9920 L51.3804,34.8928 L51.3804,34.7936 L51.3804,34.6944 L51.3804,34.5952 L51.3804,34.4960 L51.3804,34.3968 L51.3804,34.2976 L51.3804,34.1984 L51.3804,34.0992 L51.3804,34.0000 L51.3804,33.9008 L51.3804,33.8016 L51.3804,33.7024 L51.3804,33.6032 L51.3804,33.5039 L51.3804,33.4047 L51.3804,33.3055 L51.3804,33.2063 L51.3804,33.1071 L51.3804,33.0079 L51.3804,32.9087 L51.3804,32.8095 L51.3804,32.7103 L51.3804,32.6111 L51.3804,32.5119 L51.3804,32.4127 L51.3804,32.3135 L51.3804,32.2143 L51.3804,32.1151 L51.3804,32.0159 L51.3804,31.9167 L51.3804,31.8175 L51.3804,31.7183 L51.3804,31.6152 L51.3773,31.4974 L51.3697,31.3842 L51.3577,31.2754 L51.3411,31.1711 L51.3201,31.0713 L51.2945,30.9760 L51.2645,30.8853 L51.2299,30.7990 L51.1909,30.7172 L51.1474,30.6399 L51.0994,30.5671 L51.0469,30.4987 L50.9835,30.4283 L50.9143,30.3634 L50.8404,30.3053 L50.7617,30.2540 L50.6784,30.2096 L50.5903,30.1720 L50.4975,30.1412 L50.4000,30.1172 L50.2977,30.1000 L50.1908,30.0897 L50.0791,30.0862 L49.9757,30.0883 L49.8757,30.0945 L49.7789,30.1050 L49.6852,30.1198 L49.5947,30.1387 L49.5075,30.1619 L49.4234,30.1893 L49.3425,30.2209 L49.2647,30.2567 L49.1902,30.2967 L49.1189,30.3410 L49.0507,30.3895 L48.9858,30.4422 L48.9240,30.4992 L48.8654,30.5603 L48.8100,30.6257 L48.7578,30.6953 L48.7087,30.7691 L48.6629,30.8472 L48.6202,30.9294 L48.5808,31.0159 L48.5445,31.1066 L48.5114,31.2016 L48.4815,31.3007 L48.4548,31.4041 L48.4313,31.5117 L48.4109,31.6235 L48.3938,31.7396 L48.3798,31.8598 L48.3690,31.9843 L48.3615,32.1130 L48.3571,32.2459 L48.3558,32.2838 L48.3558,32.3997 L48.3558,32.5672ZM58.9799,36.8318 L58.8879,36.8331 L58.7947,36.8336 L58.7170,36.8333 L58.6396,36.8325 L58.5625,36.8312 L58.4856,36.8293 L58.4090,36.8269 L58.3328,36.8240 L58.2567,36.8205 L58.1810,36.8165 L58.1056,36.8119 L58.0304,36.8069 L57.9555,36.8013 L57.8809,36.7951 L57.8065,36.7885 L57.7325,36.7813 L57.6587,36.7735 L57.5852,36.7653 L57.5120,36.7565 L57.4391,36.7471 L57.3664,36.7372 L57.2941,36.7268 L57.2220,36.7159 L57.1501,36.7044 L57.0786,36.6924 L57.0074,36.6799 L56.9294,36.6655 L56.8513,36.6504 L56.7738,36.6346 L56.6970,36.6183 L56.6209,36.6014 L56.5455,36.5839 L56.4707,36.5658 L56.3966,36.5471 L56.3232,36.5278 L56.2505,36.5079 L56.1785,36.4874 L56.1071,36.4663 L56.0364,36.4446 L55.9664,36.4224 L55.8971,36.3995 L55.8284,36.3760 L55.7604,36.3520 L55.6931,36.3273 L55.6265,36.3021 L55.5606,36.2763 L55.4953,36.2498 L55.4464,36.2128 L55.4562,36.1386 L55.4660,36.0644 L55.4757,35.9902 L55.4855,35.9160 L55.4953,35.8419 L55.5050,35.7677 L55.5148,35.6935 L55.5246,35.6193 L55.5343,35.5451 L55.5441,35.4709 L55.5539,35.3967 L55.5636,35.3225 L55.5734,35.2483 L55.5832,35.1741 L55.5929,35.0999 L55.6027,35.0257 L55.6125,34.9515 L55.6222,34.8773 L55.6320,34.8031 L55.6418,34.7289 L55.6515,34.6547 L55.6613,34.5805 L55.6711,34.5064 L55.6808,34.4322 L55.6906,34.3580 L55.7512,34.3690 L55.8233,34.3990 L55.8953,34.4284 L55.9672,34.4572 L56.0390,34.4854 L56.1107,34.5129 L56.1822,34.5398 L56.2537,34.5661 L56.3250,34.5918 L56.3963,34.6168 L56.4674,34.6413 L56.5384,34.6650 L56.6093,34.6882 L56.6801,34.7107 L56.7508,34.7327 L56.8213,34.7539 L56.8918,34.7746 L56.9621,34.7946 L57.0323,34.8140 L57.1024,34.8328 L57.1724,34.8510 L57.2423,34.8685 L57.3121,34.8854 L57.3836,34.9021 L57.4618,34.9197 L57.5397,34.9364 L57.6171,34.9522 L57.6941,34.9671 L57.7707,34.9812 L57.8468,34.9944 L57.9225,35.0068 L57.9978,35.0182 L58.0727,35.0288 L58.1471,35.0386 L58.2211,35.0475 L58.2947,35.0555 L58.3679,35.0626 L58.4406,35.0689 L58.5130,35.0743 L58.5849,35.0788 L58.6563,35.0825 L58.7274,35.0853 L58.7980,35.0872 L58.8682,35.0883 L58.9449,35.0884 L59.0380,35.0871 L59.1287,35.0840 L59.2172,35.0793 L59.3032,35.0728 L59.3869,35.0646 L59.4682,35.0547 L59.5472,35.0431 L59.6237,35.0298 L59.6980,35.0147 L59.7699,34.9980 L59.8394,34.9795 L59.9065,34.9593 L59.9713,34.9374 L60.0337,34.9138 L60.0938,34.8884 L60.1515,34.8614 L60.2068,34.8326 L60.2598,34.8021 L60.3104,34.7699 L60.3682,34.7289 L60.4267,34.6818 L60.4810,34.6320 L60.5311,34.5795 L60.5770,34.5243 L60.6186,34.4664 L60.6560,34.4058 L60.6892,34.3424 L60.7181,34.2763 L60.7429,34.2076 L60.7634,34.1361 L60.7796,34.0619 L60.7917,33.9849 L60.7995,33.9053 L60.8031,33.8229 L60.8025,33.7457 L60.7982,33.6736 L60.7901,33.6030 L60.7783,33.5339 L60.7627,33.4665 L60.7434,33.4006 L60.7202,33.3363 L60.6934,33.2736 L60.6627,33.2124 L60.6283,33.1528 L60.5902,33.0948 L60.5483,33.0383 L60.5026,32.9834 L60.4532,32.9301 L60.4000,32.8784 L60.3431,32.8282 L60.2824,32.7796 L60.2179,32.7326 L60.1497,32.6871 L60.0777,32.6433 L60.0020,32.6009 L59.9225,32.5602 L59.8428,32.5224 L59.7753,32.4903 L59.7077,32.4582 L59.6401,32.4260 L59.5725,32.3939 L59.5049,32.3618 L59.4373,32.3297 L59.3697,32.2976 L59.3021,32.2655 L59.2345,32.2333 L59.1669,32.2012 L59.0993,32.1691 L59.0317,32.1370 L58.9641,32.1049 L58.8966,32.0728 L58.8290,32.0406 L58.7614,32.0085 L58.6938,31.9764 L58.6262,31.9443 L58.5586,31.9122 L58.4910,31.8800 L58.4234,31.8479 L58.3558,31.8158 L58.2882,31.7837 L58.2206,31.7516 L58.1530,31.7195 L58.0779,31.6837 L58.0026,31.6468 L57.9285,31.6094 L57.8556,31.5714 L57.7838,31.5328 L57.7132,31.4936 L57.6438,31.4539 L57.5756,31.4136 L57.5085,31.3728 L57.4426,31.3313 L57.3779,31.2894 L57.3144,31.2468 L57.2520,31.2037 L57.1908,31.1600 L57.1308,31.1157 L57.0720,31.0709 L57.0144,31.0255 L56.9579,30.9796 L56.9026,30.9331 L56.8485,30.8860 L56.7955,30.8383 L56.7438,30.7901 L56.6932,30.7413 L56.6437,30.6920 L56.5955,30.6420 L56.5484,30.5915 L56.5026,30.5405 L56.4578,30.4889 L56.4143,30.4367 L56.3719,30.3839 L56.3264,30.3248 L56.2815,30.2635 L56.2384,30.2015 L56.1971,30.1388 L56.1575,30.0754 L56.1197,30.0114 L56.0838,29.9466 L56.0496,29.8812 L56.0172,29.8151 L55.9865,29.7483 L55.9577,29.6808 L55.9307,29.6126 L55.9054,29.5437 L55.8819,29.4742 L55.8602,29.4039 L55.8403,29.3330 L55.8222,29.2614 L55.8059,29.1891 L55.7913,29.1161 L55.7786,29.0424 L55.7676,28.9680 L55.7584,28.8930 L55.7510,28.8172 L55.7454,28.7408 L55.7415,28.6636 L55.7395,28.5858 L55.7392,28.5046 L55.7406,28.4192 L55.7437,28.3348 L55.7484,28.2517 L55.7547,28.1697 L55.7628,28.0889 L55.7724,28.0093 L55.7837,27.9308 L55.7967,27.8535 L55.8113,27.7774 L55.8276,27.7025 L55.8455,27.6287 L55.8651,27.5561 L55.8863,27.4847 L55.9092,27.4144 L55.9337,27.3453 L55.9599,27.2774 L55.9878,27.2106 L56.0172,27.1450 L56.0484,27.0806 L56.0812,27.0174 L56.1156,26.9553 L56.1517,26.8944 L56.1894,26.8347 L56.2288,26.7761 L56.2699,26.7188 L56.3126,26.6625 L56.3569,26.6075 L56.4029,26.5536 L56.4506,26.5009 L56.4999,26.4494 L56.5508,26.3990 L56.6034,26.3498 L56.6577,26.3018 L56.7078,26.2597 L56.7590,26.2188 L56.8112,26.1791 L56.8646,26.1405 L56.9191,26.1030 L56.9747,26.0667 L57.0314,26.0316 L57.0892,25.9975 L57.1482,25.9647 L57.2082,25.9330 L57.2693,25.9024 L57.3316,25.8730 L57.3949,25.8447 L57.4594,25.8176 L57.5250,25.7916 L57.5917,25.7668 L57.6595,25.7431 L57.7284,25.7205 L57.7984,25.6992 L57.8695,25.6789 L57.9417,25.6598 L58.0151,25.6419 L58.0895,25.6251 L58.1650,25.6094 L58.2417,25.5949 L58.3195,25.5816 L58.3983,25.5694 L58.4783,25.5583 L58.5594,25.5484 L58.6416,25.5397 L58.7249,25.5320 L58.8093,25.5256 L58.8949,25.5203 L58.9815,25.5161 L59.0692,25.5131 L59.1581,25.5112 L59.2481,25.5105 L59.3289,25.5108 L59.4078,25.5122 L59.4862,25.5145 L59.5642,25.5178 L59.6416,25.5221 L59.7186,25.5274 L59.7952,25.5336 L59.8712,25.5408 L59.9468,25.5491 L60.0219,25.5582 L60.0965,25.5684 L60.1707,25.5796 L60.2443,25.5917 L60.3176,25.6048 L60.3903,25.6189 L60.4625,25.6340 L60.5343,25.6501 L60.6056,25.6671 L60.6765,25.6852 L60.7468,25.7042 L60.8167,25.7242 L60.8861,25.7451 L60.9550,25.7671 L61.0235,25.7900 L61.0915,25.8139 L61.1590,25.8388 L61.2265,25.8649 L61.2946,25.8924 L61.3621,25.9209 L61.4293,25.9504 L61.4959,25.9811 L61.5622,26.0127 L61.6280,26.0454 L61.6933,26.0792 L61.7582,26.1140 L61.8226,26.1498 L61.8866,26.1867 L61.9501,26.2246 L62.0132,26.2636 L62.0758,26.3036 L62.1380,26.3447 L62.1998,26.3868 L62.2611,26.4300 L62.3219,26.4742 L62.3823,26.5195 L62.4422,26.5658 L62.5017,26.6131 L62.5608,26.6615 L62.6194,26.7110 L62.6775,26.7615 L62.7352,26.8130 L62.7925,26.8656 L62.8085,26.9198 L62.7582,26.9752 L62.7080,27.0307 L62.6577,27.0861 L62.6074,27.1416 L62.5572,27.1970 L62.5069,27.2524 L62.4566,27.3079 L62.4064,27.3633 L62.3561,27.4188 L62.3058,27.4742 L62.2556,27.5296 L62.2053,27.5851 L62.1550,27.6405 L62.1048,27.6960 L62.0545,27.7514 L62.0042,27.8068 L61.9540,27.8623 L61.9037,27.9177 L61.8535,27.9732 L61.8032,28.0286 L61.7529,28.0840 L61.7027,28.1395 L61.6524,28.1949 L61.6021,28.2504 L61.5519,28.3058 L61.4896,28.2592 L61.4265,28.2053 L61.3636,28.1529 L61.3009,28.1019 L61.2384,28.0524 L61.1761,28.0044 L61.1140,27.9578 L61.0520,27.9127 L60.9903,27.8691 L60.9288,27.8269 L60.8675,27.7862 L60.8063,27.7469 L60.7454,27.7091 L60.6847,27.6728 L60.6241,27.6380 L60.5638,27.6046 L60.5036,27.5726 L60.4437,27.5422 L60.3829,27.5127 L60.3105,27.4795 L60.2381,27.4485 L60.1657,27.4198 L60.0934,27.3932 L60.0211,27.3689 L59.9489,27.3468 L59.8767,27.3269 L59.8045,27.3093 L59.7323,27.2939 L59.6602,27.2807 L59.5881,27.2697 L59.5161,27.2609 L59.4440,27.2544 L59.3721,27.2500 L59.3001,27.2479 L59.2182,27.2481 L59.1301,27.2508 L59.0446,27.2560 L58.9616,27.2638 L58.8811,27.2741 L58.8031,27.2870 L58.7276,27.3025 L58.6547,27.3205 L58.5843,27.3410 L58.5164,27.3641 L58.4511,27.3898 L58.3882,27.4180 L58.3279,27.4487 L58.2701,27.4820 L58.2148,27.5179 L58.1621,27.5563 L58.1092,27.5996 L58.0569,27.6483 L58.0086,27.6998 L57.9641,27.7543 L57.9235,27.8116 L57.8868,27.8718 L57.8541,27.9349 L57.8252,28.0008 L57.8002,28.0697 L57.7792,28.1414 L57.7620,28.2160 L57.7487,28.2936 L57.7393,28.3739 L57.7338,28.4572 L57.7323,28.5425 L57.7349,28.6199 L57.7421,28.6955 L57.7537,28.7695 L57.7698,28.8417 L57.7904,28.9122 L57.8155,28.9811 L57.8450,29.0482 L57.8791,29.1136 L57.9176,29.1773 L57.9606,29.2393 L58.0080,29.2996 L58.0506,29.3486 L58.0960,29.3969 L58.1442,29.4444 L58.1951,29.4912 L58.2487,29.5373 L58.3051,29.5826 L58.3642,29.6272 L58.4261,29.6710 L58.4907,29.7141 L58.5581,29.7564 L58.6282,29.7980 L58.7010,29.8389 L58.7766,29.8790 L58.8471,29.9145 L58.9141,29.9478 L58.9811,29.9811 L59.0481,30.0145 L59.1151,30.0478 L59.1821,30.0811 L59.2491,30.1145 L59.3161,30.1478 L59.3831,30.1812 L59.4501,30.2145 L59.5171,30.2478 L59.5841,30.2812 L59.6511,30.3145 L59.7181,30.3478 L59.7851,30.3812 L59.8521,30.4145 L59.9191,30.4479 L59.9861,30.4812 L60.0531,30.5145 L60.1201,30.5479 L60.1871,30.5812 L60.2541,30.6145 L60.3211,30.6479 L60.3945,30.6846 L60.4708,30.7236 L60.5459,30.7629 L60.6198,30.8027 L60.6925,30.8428 L60.7640,30.8834 L60.8343,30.9243 L60.9035,30.9656 L60.9714,31.0074 L61.0382,31.0495 L61.1038,31.0920 L61.1682,31.1348 L61.2314,31.1781 L61.2935,31.2218 L61.3543,31.2658 L61.4140,31.3103 L61.4724,31.3551 L61.5297,31.4004 L61.5858,31.4460 L61.6407,31.4920 L61.6945,31.5384 L61.7470,31.5852 L61.7984,31.6324 L61.8485,31.6799 L61.8975,31.7279 L61.9453,31.7762 L61.9919,31.8250 L62.0374,31.8741 L62.0816,31.9236 L62.1247,31.9735 L62.1669,32.0243 L62.2150,32.0846 L62.2611,32.1456 L62.3053,32.2073 L62.3476,32.2698 L62.3880,32.3329 L62.4265,32.3967 L62.4631,32.4613 L62.4978,32.5266 L62.5306,32.5926 L62.5615,32.6593 L62.5904,32.7267 L62.6175,32.7948 L62.6427,32.8636 L62.6660,32.9332 L62.6873,33.0035 L62.7068,33.0744 L62.7243,33.1461 L62.7400,33.2185 L62.7537,33.2916 L62.7656,33.3655 L62.7755,33.4400 L62.7835,33.5152 L62.7896,33.5912 L62.7939,33.6679 L62.7962,33.7453 L62.7966,33.8255 L62.7952,33.9107 L62.7922,33.9947 L62.7874,34.0776 L62.7808,34.1592 L62.7726,34.2396 L62.7626,34.3188 L62.7509,34.3969 L62.7375,34.4737 L62.7224,34.5494 L62.7055,34.6239 L62.6869,34.6971 L62.6666,34.7692 L62.6445,34.8401 L62.6208,34.9098 L62.5953,34.9783 L62.5680,35.0456 L62.5391,35.1117 L62.5084,35.1766 L62.4760,35.2404 L62.4419,35.3029 L62.4061,35.3642 L62.3685,35.4244 L62.3292,35.4833 L62.2882,35.5411 L62.2455,35.5976 L62.2010,35.6530 L62.1548,35.7072 L62.1069,35.7602 L62.0573,35.8120 L62.0059,35.8626 L61.9529,35.9120 L61.8980,35.9602 L61.8415,36.0072 L61.7833,36.0530 L61.7330,36.0906 L61.6828,36.1264 L61.6315,36.1613 L61.5792,36.1954 L61.5258,36.2285 L61.4713,36.2608 L61.4158,36.2921 L61.3591,36.3226 L61.3014,36.3523 L61.2426,36.3810 L61.1828,36.4088 L61.1219,36.4358 L61.0599,36.4619 L60.9968,36.4871 L60.9326,36.5114 L60.8674,36.5348 L60.8011,36.5573 L60.7338,36.5790 L60.6653,36.5998 L60.5958,36.6196 L60.5252,36.6387 L60.4535,36.6568 L60.3808,36.6740 L60.3070,36.6904 L60.2321,36.7058 L60.1561,36.7204 L60.0791,36.7341 L60.0010,36.7469 L59.9218,36.7589 L59.8416,36.7699 L59.7602,36.7801 L59.6778,36.7894 L59.5943,36.7978 L59.5098,36.8053 L59.4242,36.8119 L59.3375,36.8176 L59.2497,36.8225 L59.1608,36.8265 L59.0709,36.8296Z" fill="none" stroke="#000000" stroke-width="0.01" fill-rule="evenodd"/>
</svg>
