  0
SECTION
  2
HEADER
  9
$ACADVER
  1
AC1024
  9
$ACADMAINTVER
 70
6
  9
$DWGCODEPAGE
  3
ANSI_1252
  9
$LASTSAVEDBY
  1
ezdxf
  9
$INSBASE
 10
0.0
 20
0.0
 30
0.0
  9
$EXTMIN
 10
1e+20
 20
1e+20
 30
1e+20
  9
$EXTMAX
 10
-1e+20
 20
-1e+20
 30
-1e+20
  9
$LIMMIN
 10
0.0
 20
0.0
  9
$LIMMAX
 10
420.0
 20
297.0
  9
$ORTHOMODE
 70
0
  9
$REGENMODE
 70
1
  9
$FILLMODE
 70
1
  9
$QTEXTMODE
 70
0
  9
$MIRRTEXT
 70
1
  9
$LTSCALE
 40
1.0
  9
$ATTMODE
 70
1
  9
$TEXTSIZE
 40
2.5
  9
$TRACEWID
 40
1.0
  9
$TEXTSTYLE
  7
Standard
  9
$CLAYER
  8
0
  9
$CELTYPE
  6
ByLayer
  9
$CECOLOR
 62
256
  9
$CELTSCALE
 40
1.0
  9
$DISPSILH
 70
0
  9
$DIMSCALE
 40
1.0
  9
$DIMASZ
 40
2.5
  9
$DIMEXO
 40
0.625
  9
$DIMDLI
 40
3.75
  9
$DIMRND
 40
0.0
  9
$DIMDLE
 40
0.0
  9
$DIMEXE
 40
1.25
  9
$DIMTP
 40
0.0
  9
$DIMTM
 40
0.0
  9
$DIMTXT
 40
2.5
  9
$DIMCEN
 40
2.5
  9
$DIMTSZ
 40
0.0
  9
$DIMTOL
 70
0
  9
$DIMLIM
 70
0
  9
$DIMTIH
 70
0
  9
$DIMTOH
 70
0
  9
$DIMSE1
 70
0
  9
$DIMSE2
 70
0
  9
$DIMTAD
 70
1
  9
$DIMZIN
 70
8
  9
$DIMBLK
  1

  9
$DIMASO
 70
1
  9
$DIMSHO
 70
1
  9
$DIMPOST
  1

  9
$DIMAPOST
  1

  9
$DIMALT
 70
0
  9
$DIMALTD
 70
3
  9
$DIMALTF
 40
0.03937007874
  9
$DIMLFAC
 40
1.0
  9
$DIMTOFL
 70
1
  9
$DIMTVP
 40
0.0
  9
$DIMTIX
 70
0
  9
$DIMSOXD
 70
0
  9
$DIMSAH
 70
0
  9
$DIMBLK1
  1

  9
$DIMBLK2
  1

  9
$DIMSTYLE
  2
ISO-25
  9
$DIMCLRD
 70
0
  9
$DIMCLRE
 70
0
  9
$DIMCLRT
 70
0
  9
$DIMTFAC
 40
1.0
  9
$DIMGAP
 40
0.625
  9
$DIMJUST
 70
0
  9
$DIMSD1
 70
0
  9
$DIMSD2
 70
0
  9
$DIMTOLJ
 70
0
  9
$DIMTZIN
 70
8
  9
$DIMALTZ
 70
0
  9
$DIMALTTZ
 70
0
  9
$DIMUPT
 70
0
  9
$DIMDEC
 70
2
  9
$DIMTDEC
 70
2
  9
$DIMALTU
 70
2
  9
$DIMALTTD
 70
3
  9
$DIMTXSTY
  7
Standard
  9
$DIMAUNIT
 70
0
  9
$DIMADEC
 70
0
  9
$DIMALTRND
 40
0.0
  9
$DIMAZIN
 70
0
  9
$DIMDSEP
 70
44
  9
$DIMATFIT
 70
3
  9
$DIMFRAC
 70
0
  9
$DIMLDRBLK
  1

  9
$DIMLUNIT
 70
2
  9
$DIMLWD
 70
-2
  9
$DIMLWE
 70
-2
  9
$DIMTMOVE
 70
0
  9
$DIMFXL
 40
1.0
  9
$DIMFXLON
 70
0
  9
$DIMJOGANG
 40
0.785398163397
  9
$DIMTFILL
 70
0
  9
$DIMTFILLCLR
 70
0
  9
$DIMARCSYM
 70
0
  9
$DIMLTYPE
  6

  9
$DIMLTEX1
  6

  9
$DIMLTEX2
  6

  9
$DIMTXTDIRECTION
 70
0
  9
$LUNITS
 70
2
  9
$LUPREC
 70
4
  9
$SKETCHINC
 40
1.0
  9
$FILLETRAD
 40
10.0
  9
$AUNITS
 70
0
  9
$AUPREC
 70
2
  9
$MENU
  1
.
  9
$ELEVATION
 40
0.0
  9
$PELEVATION
 40
0.0
  9
$THICKNESS
 40
0.0
  9
$LIMCHECK
 70
0
  9
$CHAMFERA
 40
0.0
  9
$CHAMFERB
 40
0.0
  9
$CHAMFERC
 40
0.0
  9
$CHAMFERD
 40
0.0
  9
$SKPOLY
 70
0
  9
$TDCREATE
 40
2451545.0
  9
$TDUCREATE
 40
2451545.0
  9
$TDUPDATE
 40
2451545.0
  9
$TDUUPDATE
 40
2451545.0
  9
$TDINDWG
 40
0.0
  9
$TDUSRTIMER
 40
0.0
  9
$USRTIMER
 70
1
  9
$ANGBASE
 50
0.0
  9
$ANGDIR
 70
0
  9
$PDMODE
 70
0
  9
$PDSIZE
 40
0.0
  9
$PLINEWID
 40
0.0
  9
$SPLFRAME
 70
0
  9
$SPLINETYPE
 70
6
  9
$SPLINESEGS
 70
8
  9
$HANDSEED
  5
5F
  9
$SURFTAB1
 70
6
  9
$SURFTAB2
 70
6
  9
$SURFTYPE
 70
6
  9
$SURFU
 70
6
  9
$SURFV
 70
6
  9
$UCSBASE
  2

  9
$UCSNAME
  2

  9
$UCSORG
 10
0.0
 20
0.0
 30
0.0
  9
$UCSXDIR
 10
1.0
 20
0.0
 30
0.0
  9
$UCSYDIR
 10
0.0
 20
1.0
 30
0.0
  9
$UCSORTHOREF
  2

  9
$UCSORTHOVIEW
 70
0
  9
$UCSORGTOP
 10
0.0
 20
0.0
 30
0.0
  9
$UCSORGBOTTOM
 10
0.0
 20
0.0
 30
0.0
  9
$UCSORGLEFT
 10
0.0
 20
0.0
 30
0.0
  9
$UCSORGRIGHT
 10
0.0
 20
0.0
 30
0.0
  9
$UCSORGFRONT
 10
0.0
 20
0.0
 30
0.0
  9
$UCSORGBACK
 10
0.0
 20
0.0
 30
0.0
  9
$PUCSBASE
  2

  9
$PUCSNAME
  2

  9
$PUCSORG
 10
0.0
 20
0.0
 30
0.0
  9
$PUCSXDIR
 10
1.0
 20
0.0
 30
0.0
  9
$PUCSYDIR
 10
0.0
 20
1.0
 30
0.0
  9
$PUCSORTHOREF
  2

  9
$PUCSORTHOVIEW
 70
0
  9
$PUCSORGTOP
 10
0.0
 20
0.0
 30
0.0
  9
$PUCSORGBOTTOM
 10
0.0
 20
0.0
 30
0.0
  9
$PUCSORGLEFT
 10
0.0
 20
0.0
 30
0.0
  9
$PUCSORGRIGHT
 10
0.0
 20
0.0
 30
0.0
  9
$PUCSORGFRONT
 10
0.0
 20
0.0
 30
0.0
  9
$PUCSORGBACK
 10
0.0
 20
0.0
 30
0.0
  9
$USERI1
 70
0
  9
$USERI2
 70
0
  9
$USERI3
 70
0
  9
$USERI4
 70
0
  9
$USERI5
 70
0
  9
$USERR1
 40
0.0
  9
$USERR2
 40
0.0
  9
$USERR3
 40
0.0
  9
$USERR4
 40
0.0
  9
$USERR5
 40
0.0
  9
$WORLDVIEW
 70
1
  9
$SHADEDGE
 70
3
  9
$SHADEDIF
 70
70
  9
$TILEMODE
 70
1
  9
$MAXACTVP
 70
64
  9
$PINSBASE
 10
0.0
 20
0.0
 30
0.0
  9
$PLIMCHECK
 70
0
  9
$PEXTMIN
 10
1e+20
 20
1e+20
 30
1e+20
  9
$PEXTMAX
 10
-1e+20
 20
-1e+20
 30
-1e+20
  9
$PLIMMIN
 10
0.0
 20
0.0
  9
$PLIMMAX
 10
420.0
 20
297.0
  9
$UNITMODE
 70
0
  9
$VISRETAIN
 70
1
  9
$PLINEGEN
 70
0
  9
$PSLTSCALE
 70
1
  9
$TREEDEPTH
 70
3020
  9
$CMLSTYLE
  2
Standard
  9
$CMLJUST
 70
0
  9
$CMLSCALE
 40
20.0
  9
$PROXYGRAPHICS
 70
1
  9
$MEASUREMENT
 70
1
  9
$CELWEIGHT
370
-1
  9
$ENDCAPS
280
0
  9
$JOINSTYLE
280
0
  9
$LWDISPLAY
290
0
  9
$INSUNITS
 70
4
  9
$HYPERLINKBASE
  1

  9
$STYLESHEET
  1

  9
$XEDIT
290
1
  9
$CEPSNTYPE
380
0
  9
$PSTYLEMODE
290
1
  9
$FINGERPRINTGUID
  2
{00000000-0000-0000-0000-000000000000}
  9
$VERSIONGUID
  2
{00000000-0000-0000-0000-000000000000}
  9
$EXTNAMES
290
1
  9
$PSVPSCALE
 40
0.0
  9
$OLESTARTUP
290
0
  9
$SORTENTS
280
127
  9
$INDEXCTL
280
0
  9
$HIDETEXT
280
1
  9
$XCLIPFRAME
280
1
  9
$HALOGAP
280
0
  9
$OBSCOLOR
 70
257
  9
$OBSLTYPE
280
0
  9
$INTERSECTIONDISPLAY
280
0
  9
$INTERSECTIONCOLOR
 70
257
  9
$DIMASSOC
280
2
  9
$PROJECTNAME
  1

  9
$CAMERADISPLAY
290
0
  9
$LENSLENGTH
 40
50.0
  9
$CAMERAHEIGHT
 40
0.0
  9
$STEPSPERSEC
 40
24.0
  9
$STEPSIZE
 40
100.0
  9
$3DDWFPREC
 40
2.0
  9
$PSOLWIDTH
 40
0.005
  9
$PSOLHEIGHT
 40
0.08
  9
$LOFTANG1
 40
1.570796326795
  9
$LOFTANG2
 40
1.570796326795
  9
$LOFTMAG1
 40
0.0
  9
$LOFTMAG2
 40
0.0
  9
$LOFTPARAM
 70
7
  9
$LOFTNORMALS
280
1
  9
$LATITUDE
 40
37.795
  9
$LONGITUDE
 40
-122.394
  9
$NORTHDIRECTION
 40
0.0
  9
$TIMEZONE
 70
-8000
  9
$LIGHTGLYPHDISPLAY
280
1
  9
$TILEMODELIGHTSYNCH
280
1
  9
$CMATERIAL
347
20
  9
$SOLIDHIST
280
0
  9
$SHOWHIST
280
1
  9
$DWFFRAME
280
2
  9
$DGNFRAME
280
2
  9
$REALWORLDSCALE
290
1
  9
$INTERFERECOLOR
 62
256
  9
$CSHADOW
280
0
  9
$SHADOWPLANELOCATION
 40
0.0
  0
ENDSEC
  0
SECTION
  2
CLASSES
  0
CLASS
  1
ACDBDICTIONARYWDFLT
  2
AcDbDictionaryWithDefault
  3
ObjectDBX Classes
 90
0
 91
0
280
0
281
0
  0
CLASS
  1
SUN
  2
AcDbSun
  3
SCENEOE
 90
1153
 91
0
280
0
281
0
  0
CLASS
  1
VISUALSTYLE
  2
AcDbVisualStyle
  3
ObjectDBX Classes
 90
4095
 91
0
280
0
281
0
  0
CLASS
  1
MATERIAL
  2
AcDbMaterial
  3
ObjectDBX Classes
 90
1153
 91
0
280
0
281
0
  0
CLASS
  1
SCALE
  2
AcDbScale
  3
ObjectDBX Classes
 90
1153
 91
0
280
0
281
0
  0
CLASS
  1
TABLESTYLE
  2
AcDbTableStyle
  3
ObjectDBX Classes
 90
4095
 91
0
280
0
281
0
  0
CLASS
  1
MLEADERSTYLE
  2
AcDbMLeaderStyle
  3
ACDB_MLEADERSTYLE_CLASS
 90
4095
 91
0
280
0
281
0
  0
CLASS
  1
DICTIONARYVAR
  2
AcDbDictionaryVar
  3
ObjectDBX Classes
 90
0
 91
0
280
0
281
0
  0
CLASS
  1
CELLSTYLEMAP
  2
AcDbCellStyleMap
  3
ObjectDBX Classes
 90
1152
 91
0
280
0
281
0
  0
CLASS
  1
MENTALRAYRENDERSETTINGS
  2
AcDbMentalRayRenderSettings
  3
SCENEOE
 90
1024
 91
0
280
0
281
0
  0
CLASS
  1
ACDBDETAILVIEWSTYLE
  2
AcDbDetailViewStyle
  3
ObjectDBX Classes
 90
1025
 91
0
280
0
281
0
  0
CLASS
  1
ACDBSECTIONVIEWSTYLE
  2
AcDbSectionViewStyle
  3
ObjectDBX Classes
 90
1025
 91
0
280
0
281
0
  0
CLASS
  1
RASTERVARIABLES
  2
AcDbRasterVariables
  3
ISM
 90
0
 91
0
280
0
281
0
  0
CLASS
  1
ACDBPLACEHOLDER
  2
AcDbPlaceHolder
  3
ObjectDBX Classes
 90
0
 91
0
280
0
281
0
  0
CLASS
  1
LAYOUT
  2
AcDbLayout
  3
ObjectDBX Classes
 90
0
 91
0
280
0
281
0
  0
ENDSEC
  0
SECTION
  2
TABLES
  0
TABLE
  2
VPORT
  5
8
330
0
100
AcDbSymbolTable
 70
1
  0
VPORT
  5
23
330
8
100
AcDbSymbolTableRecord
100
AcDbViewportTableRecord
  2
*Active
 70
0
 10
0.0
 20
0.0
 11
1.0
 21
1.0
 12
0.0
 22
0.0
 13
0.0
 23
0.0
 14
0.5
 24
0.5
 15
0.5
 25
0.5
 16
0.0
 26
0.0
 36
1.0
 17
0.0
 27
0.0
 37
0.0
 40
1000.0
 41
1.34
 42
50.0
 43
0.0
 44
0.0
 50
0.0
 51
0.0
 71
0
 72
1000
 73
1
 74
3
 75
0
 76
0
 77
0
 78
0
281
0
 65
0
146
0.0
  0
ENDTAB
  0
TABLE
  2
LTYPE
  5
2
330
0
100
AcDbSymbolTable
 70
3
  0
LTYPE
  5
24
330
2
100
AcDbSymbolTableRecord
100
AcDbLinetypeTableRecord
  2
ByBlock
 70
0
  3

 72
65
 73
0
 40
0.0
  0
LTYPE
  5
25
330
2
100
AcDbSymbolTableRecord
100
AcDbLinetypeTableRecord
  2
ByLayer
 70
0
  3

 72
65
 73
0
 40
0.0
  0
LTYPE
  5
26
330
2
100
AcDbSymbolTableRecord
100
AcDbLinetypeTableRecord
  2
Continuous
 70
0
  3

 72
65
 73
0
 40
0.0
  0
ENDTAB
  0
TABLE
  2
LAYER
  5
1
330
0
100
AcDbSymbolTable
 70
3
  0
LAYER
  5
27
330
1
100
AcDbSymbolTableRecord
100
AcDbLayerTableRecord
  2
0
 70
0
 62
7
  6
Continuous
370
-3
390
13
347
21
  0
LAYER
  5
28
330
1
100
AcDbSymbolTableRecord
100
AcDbLayerTableRecord
  2
Defpoints
 70
0
 62
7
  6
Continuous
290
0
370
-3
390
13
347
21
  0
LAYER
  5
2F
330
1
100
AcDbSymbolTableRecord
100
AcDbLayerTableRecord
  2
OUTLINE
 70
0
 62
7
  6
Continuous
370
-3
390
13
347
21
  0
ENDTAB
  0
TABLE
  2
STYLE
  5
5
330
0
100
AcDbSymbolTable
 70
1
  0
STYLE
  5
29
330
5
100
AcDbSymbolTableRecord
100
AcDbTextStyleTableRecord
  2
Standard
 70
0
 40
0.0
 41
1.0
 50
0.0
 71
0
 42
2.5
  3
txt
  4

  0
ENDTAB
  0
TABLE
  2
VIEW
  5
7
330
0
100
AcDbSymbolTable
 70
0
  0
ENDTAB
  0
TABLE
  2
UCS
  5
6
330
0
100
AcDbSymbolTable
 70
0
  0
ENDTAB
  0
TABLE
  2
APPID
  5
3
330
0
100
AcDbSymbolTable
 70
3
  0
APPID
  5
2A
330
3
100
AcDbSymbolTableRecord
100
AcDbRegAppTableRecord
  2
ACAD
 70
0
  0
APPID
  5
5C
330
3
100
AcDbSymbolTableRecord
100
AcDbRegAppTableRecord
  2
HATCHBACKGROUNDCOLOR
 70
0
  0
APPID
  5
5D
330
3
100
AcDbSymbolTableRecord
100
AcDbRegAppTableRecord
  2
EZDXF
 70
0
  0
ENDTAB
  0
TABLE
  2
DIMSTYLE
  5
4
330
0
100
AcDbSymbolTable
 70
1
100
AcDbDimStyleTable
  0
DIMSTYLE
105
2B
330
4
100
AcDbSymbolTableRecord
100
AcDbDimStyleTableRecord
  2
Standard
 70
0
 40
1.0
 41
2.5
 42
0.625
 43
3.75
 44
1.25
 45
0.0
 46
0.0
 47
0.0
 48
0.0
 49
2.5
140
2.5
141
2.5
142
0.0
143
0.03937007874
144
1.0
145
0.0
146
1.0
147
0.625
148
0.0
 69
0
 70
0
 71
0
 72
0
 73
0
 74
0
 75
0
 76
0
 77
1
 78
8
 79
3
170
0
171
3
172
1
173
0
174
0
175
0
176
0
177
0
178
0
179
2
271
2
272
2
273
2
274
3
275
0
276
0
277
2
278
44
279
0
280
0
281
0
282
0
283
0
284
8
285
0
286
0
288
0
289
3
290
0
371
-2
372
-2
  0
ENDTAB
  0
TABLE
  2
BLOCK_RECORD
  5
9
330
0
100
AcDbSymbolTable
 70
2
  0
BLOCK_RECORD
  5
17
330
9
100
AcDbSymbolTableRecord
100
AcDbBlockTableRecord
  2
*Model_Space
340
1A
 70
0
280
1
281
0
  0
BLOCK_RECORD
  5
1B
330
9
100
AcDbSymbolTableRecord
100
AcDbBlockTableRecord
  2
*Paper_Space
340
1E
 70
0
280
1
281
0
  0
ENDTAB
  0
ENDSEC
  0
SECTION
  2
BLOCKS
  0
BLOCK
  5
18
330
17
100
AcDbEntity
  8
0
100
AcDbBlockBegin
  2
*Model_Space
 70
0
 10
0.0
 20
0.0
 30
0.0
  3
*Model_Space
  1

  0
ENDBLK
  5
19
330
17
100
AcDbEntity
  8
0
100
AcDbBlockEnd
  0
BLOCK
  5
1C
330
1B
100
AcDbEntity
  8
0
100
AcDbBlockBegin
  2
*Paper_Space
 70
0
 10
0.0
 20
0.0
 30
0.0
  3
*Paper_Space
  1

  0
ENDBLK
  5
1D
330
1B
100
AcDbEntity
  8
0
100
AcDbBlockEnd
  0
ENDSEC
  0
SECTION
  2
ENTITIES
  0
SPLINE
  5
30
330
17
100
AcDbEntity
  8
OUTLINE
100
AcDbSpline
 70
0
 71
3
 72
8
 73
4
 74
0
 40
0.0
 40
0.0
 40
0.0
 40
0.0
 40
1.0
 40
1.0
 40
1.0
 40
1.0
 10
25.349511095751318
 20
25.318273926434642
 30
0.0
 10
25.364758639679614
 20
25.303026382506346
 30
0.0
 10
25.37609813448809
 20
25.225180885695117
 30
0.0
 10
25.379218064641975
 20
25.164628468792184
 30
0.0
  0
SPLINE
  5
31
330
17
100
AcDbEntity
  8
OUTLINE
100
AcDbSpline
 70
0
 71
3
 72
8
 73
4
 74
0
 40
0.0
 40
0.0
 40
0.0
 40
0.0
 40
1.0
 40
1.0
 40
1.0
 40
1.0
 10
25.379218064641975
 20
25.164628468792184
 30
0.0
 10
25.38992257556986
 20
24.956872533089737
 30
0.0
 10
25.34517495950415
 20
24.67015540396128
 30
0.0
 10
25.298588628930027
 20
24.439657727617448
 30
0.0
  0
SPLINE
  5
32
330
17
100
AcDbEntity
  8
OUTLINE
100
AcDbSpline
 70
0
 71
3
 72
8
 73
4
 74
0
 40
0.0
 40
0.0
 40
0.0
 40
0.0
 40
1.0
 40
1.0
 40
1.0
 40
1.0
 10
25.298588628930027
 20
24.439657727617448
 30
0.0
 10
25.16481290617829
 20
23.77776843808792
 30
0.0
 10
24.92197107690298
 20
23.043129201011816
 30
0.0
 10
24.644456999229586
 20
22.305173360402428
 30
0.0
  0
SPLINE
  5
33
330
17
100
AcDbEntity
  8
OUTLINE
100
AcDbSpline
 70
0
 71
3
 72
8
 73
4
 74
0
 40
0.0
 40
0.0
 40
0.0
 40
0.0
 40
1.0
 40
1.0
 40
1.0
 40
1.0
 10
24.644456999229586
 20
22.305173360402428
 30
0.0
 10
24.07649478561125
 20
20.794867878608592
 30
0.0
 10
23.30974755520076
 20
19.15494301460868
 30
0.0
 10
22.399318882882177
 20
17.42384837352145
 30
0.0
  0
SPLINE
  5
34
330
17
100
AcDbEntity
  8
OUTLINE
100
AcDbSpline
 70
0
 71
3
 72
8
 73
4
 74
0
 40
0.0
 40
0.0
 40
0.0
 40
0.0
 40
1.0
 40
1.0
 40
1.0
 40
1.0
 10
22.399318882882177
 20
17.42384837352145
 30
0.0
 10
20.48565248222807
 20
13.785191385089304
 30
0.0
 10
18.163391211372385
 20
10.261166851571765
 30
0.0
 10
16.35000617437672
 20
7.865996676132596
 30
0.0
  0
LINE
  5
35
330
17
100
AcDbEntity
  8
OUTLINE
100
AcDbLine
 10
16.35000617437672
 20
7.865996676132596
 30
0.0
 11
15.925742105664789
 21
8.290260744844517
 31
0.0
  0
ARC
  5
36
330
17
100
AcDbEntity
  8
OUTLINE
100
AcDbCircle
 10
9.857200001776556
 20
9.825962832459878
 30
0.0
 40
6.259838989029221
100
AcDbArc
 50
-14.201107942731978
 51
104.20110794273195
  0
LINE
  5
37
330
17
100
AcDbEntity
  8
OUTLINE
100
AcDbLine
 10
8.321497914161199
 20
15.89450493634811
 30
0.0
 11
7.89723384544927
 21
16.318769005060037
 31
0.0
  0
SPLINE
  5
38
330
17
100
AcDbEntity
  8
OUTLINE
100
AcDbSpline
 70
0
 71
3
 72
8
 73
4
 74
0
 40
0.0
 40
0.0
 40
0.0
 40
0.0
 40
1.0
 40
1.0
 40
1.0
 40
1.0
 10
7.89723384544927
 20
16.318769005060037
 30
0.0
 10
10.292404020888444
 20
18.132154042055706
 30
0.0
 10
13.81642855440598
 20
20.45441531291139
 30
0.0
 10
17.455085542838127
 20
22.3680817135655
 30
0.0
  0
SPLINE
  5
39
330
17
100
AcDbEntity
  8
OUTLINE
100
AcDbSpline
 70
0
 71
3
 72
8
 73
4
 74
0
 40
0.0
 40
0.0
 40
0.0
 40
0.0
 40
1.0
 40
1.0
 40
1.0
 40
1.0
 10
17.455085542838127
 20
22.3680817135655
 30
0.0
 10
19.18618018392536
 20
23.278510385884083
 30
0.0
 10
20.82610504792527
 20
24.04525761629457
 30
0.0
 10
22.336410529719107
 20
24.613219829912907
 30
0.0
  0
SPLINE
  5
3A
330
17
100
AcDbEntity
  8
OUTLINE
100
AcDbSpline
 70
0
 71
3
 72
8
 73
4
 74
0
 40
0.0
 40
0.0
 40
0.0
 40
0.0
 40
1.0
 40
1.0
 40
1.0
 40
1.0
 10
22.336410529719107
 20
24.613219829912907
 30
0.0
 10
23.07436637032849
 20
24.890733907586302
 30
0.0
 10
23.809005607404597
 20
25.133575736861616
 30
0.0
 10
24.470894896934126
 20
25.26735145961335
 30
0.0
  0
SPLINE
  5
3B
330
17
100
AcDbEntity
  8
OUTLINE
100
AcDbSpline
 70
0
 71
3
 72
8
 73
4
 74
0
 40
0.0
 40
0.0
 40
0.0
 40
0.0
 40
1.0
 40
1.0
 40
1.0
 40
1.0
 10
24.470894896934126
 20
25.26735145961335
 30
0.0
 10
24.701392573277957
 20
25.313937790187474
 30
0.0
 10
24.988109702406415
 20
25.35868540625318
 30
0.0
 10
25.195865638108863
 20
25.3479808953253
 30
0.0
  0
SPLINE
  5
3C
330
17
100
AcDbEntity
  8
OUTLINE
100
AcDbSpline
 70
0
 71
3
 72
8
 73
4
 74
0
 40
0.0
 40
0.0
 40
0.0
 40
0.0
 40
1.0
 40
1.0
 40
1.0
 40
1.0
 10
25.195865638108863
 20
25.3479808953253
 30
0.0
 10
25.256418055011792
 20
25.344860965171414
 30
0.0
 10
25.33426355182302
 20
25.33352147036294
 30
0.0
 10
25.349511095751318
 20
25.318273926434642
 30
0.0
  0
LINE
  5
3D
330
17
100
AcDbEntity
  8
OUTLINE
100
AcDbLine
 10
6.016918086273009
 20
19.151371829587177
 30
0.0
 11
2.6741858390729423
 21
13.134453784627055
 31
0.0
  0
LINE
  5
3E
330
17
100
AcDbEntity
  8
OUTLINE
100
AcDbLine
 10
2.6741858390729423
 20
13.134453784627055
 30
0.0
 11
2.2499217703610146
 21
13.558717853338985
 31
0.0
  0
ARC
  5
3F
330
17
100
AcDbEntity
  8
OUTLINE
100
AcDbCircle
 10
-0.1800063513168948
 20
12.95444739199727
 30
0.0
 40
2.5039355956116887
100
AcDbArc
 50
13.964949565281271
 51
76.03505043471876
  0
LINE
  5
40
330
17
100
AcDbEntity
  8
OUTLINE
100
AcDbLine
 10
0.42426411002481856
 20
15.38437551367518
 30
0.0
 11
4.131288733333349e-08
 21
15.808639582387109
 31
0.0
  0
LINE
  5
41
330
17
100
AcDbEntity
  8
OUTLINE
100
AcDbLine
 10
4.131288733333349e-08
 20
15.808639582387109
 30
0.0
 11
6.016918086273009
 21
19.151371829587177
 31
0.0
  0
ELLIPSE
  5
42
330
17
100
AcDbEntity
  8
OUTLINE
100
AcDbEllipse
 10
13.599743165807368
 20
0.29567934769716686
 30
0.0
 11
-4.647693328192428
 21
-4.647693328192429
 31
0.0
 40
0.28571428571428575
 41
1.7878870470466566
 42
3.141592653589792
  0
LINE
  5
43
330
17
100
AcDbEntity
  8
OUTLINE
100
AcDbLine
 10
15.89755161474969
 20
0.0
 30
0.0
 11
15.47328754603776
 21
0.4242640687119277
 31
0.0
  0
ARC
  5
44
330
17
100
AcDbEntity
  8
OUTLINE
100
AcDbCircle
 10
13.599743165807366
 20
0.29567934769716686
 30
0.0
 40
1.877951696708766
100
AcDbArc
 50
3.926155649642853
 51
86.07384435035709
  0
LINE
  5
45
330
17
100
AcDbEntity
  8
OUTLINE
100
AcDbLine
 10
13.728327886822129
 20
2.169223727927559
 30
0.0
 11
13.304063818110201
 21
2.5934877966394865
 31
0.0
  0
ELLIPSE
  5
46
330
17
100
AcDbEntity
  8
OUTLINE
100
AcDbEllipse
 10
13.599743165807368
 20
0.2956793476971633
 30
0.0
 11
-4.647693328192428
 21
-4.647693328192429
 31
0.0
 40
0.28571428571428575
 41
3.141592653589793
 42
4.495298260132929
  0
ARC
  5
47
330
17
100
AcDbEntity
  8
OUTLINE
100
AcDbCircle
 10
-9.538993918398681
 20
15.328126027601213
 30
0.0
 40
20.735716651159287
100
AcDbArc
 50
-39.5637573301075
 51
-13.109208198154276
  0
LINE
  5
48
330
17
100
AcDbEntity
  8
OUTLINE
100
AcDbLine
 10
6.446507908309291
 20
2.120791838391014
 30
0.0
 11
6.022243839597364
 21
2.5450559071029417
 31
0.0
  0
ARC
  5
49
330
17
100
AcDbEntity
  8
OUTLINE
100
AcDbCircle
 10
2.910184639259608
 20
2.878947469942929
 30
0.0
 40
3.1299194945146107
100
AcDbArc
 50
-6.123815325568825
 51
96.12381532556874
  0
LINE
  5
4A
330
17
100
AcDbEntity
  8
OUTLINE
100
AcDbLine
 10
2.576293076419626
 20
5.991006670280683
 30
0.0
 11
2.1520290077076982
 21
6.415270738992611
 31
0.0
  0
ARC
  5
4B
330
17
100
AcDbEntity
  8
OUTLINE
100
AcDbCircle
 10
15.3593631969179
 20
-9.570231087715356
 30
0.0
 40
20.735716651159287
100
AcDbArc
 50
103.1092081981543
 51
129.5637573301075
  0
LWPOLYLINE
  5
4C
330
17
100
AcDbEntity
  8
OUTLINE
100
AcDbPolyline
 90
472
 70
1
 10
48.9247
 20
10.0113
 10
48.9247
 20
9.9216
 10
48.9247
 20
9.9015
 10
48.9247
 20
9.8319
 10
48.9247
 20
9.7421
 10
48.9247
 20
9.7112
 10
48.9247
 20
9.6524
 10
48.9247
 20
9.5627
 10
48.9247
 20
9.5209
 10
48.9247
 20
9.473
 10
48.9247
 20
9.3832
 10
48.9247
 20
9.2935
 10
48.9247
 20
9.2038
 10
48.9247
 20
9.1141
 10
48.9247
 20
9.0243
 10
48.9247
 20
8.9346
 10
48.9247
 20
8.8449
 10
48.9247
 20
8.7551
 10
48.9247
 20
8.6654
 10
48.9247
 20
8.5757
 10
48.9247
 20
8.486
 10
48.9247
 20
8.3962
 10
48.9247
 20
8.3065
 10
48.9247
 20
8.2168
 10
48.9271
 20
8.1291
 10
49.0158
 20
8.1158
 10
49.1046
 20
8.1024
 10
49.1933
 20
8.0891
 10
49.282
 20
8.0757
 10
49.3708
 20
8.0623
 10
49.4595
 20
8.049
 10
49.5482
 20
8.0356
 10
49.6369
 20
8.0222
 10
49.7257
 20
8.0089
 10
49.8144
 20
7.9955
 10
49.9031
 20
7.9822
 10
49.9918
 20
7.9688
 10
50.0806
 20
7.9554
 10
50.1693
 20
7.9421
 10
50.258
 20
7.9287
 10
50.2845
 20
7.8618
 10
50.2845
 20
7.7721
 10
50.2845
 20
7.6823
 10
50.2845
 20
7.5926
 10
50.2845
 20
7.5029
 10
50.2845
 20
7.4132
 10
50.2845
 20
7.3234
 10
50.2845
 20
7.2337
 10
50.2845
 20
7.144
 10
50.2845
 20
7.0543
 10
50.2845
 20
6.9645
 10
50.2845
 20
6.8748
 10
50.2845
 20
6.7851
 10
50.2845
 20
6.6953
 10
50.2845
 20
6.6056
 10
50.2845
 20
6.5159
 10
50.2845
 20
6.4262
 10
50.2845
 20
6.3364
 10
50.2845
 20
6.2467
 10
50.2845
 20
6.157
 10
50.2845
 20
6.0673
 10
50.2002
 20
6.0596
 10
50.1105
 20
6.0572
 10
50.0208
 20
6.0548
 10
49.9311
 20
6.0524
 10
49.8414
 20
6.05
 10
49.7518
 20
6.0476
 10
49.6621
 20
6.0452
 10
49.5724
 20
6.0428
 10
49.4827
 20
6.0404
 10
49.393
 20
6.0381
 10
49.3033
 20
6.0357
 10
49.2136
 20
6.0333
 10
49.1239
 20
6.0309
 10
49.0342
 20
6.0285
 10
48.9445
 20
6.0261
 10
48.8548
 20
6.0237
 10
48.7651
 20
6.0213
 10
48.6754
 20
6.0189
 10
48.5857
 20
6.0165
 10
48.496
 20
6.0141
 10
48.4063
 20
6.0117
 10
48.3166
 20
6.0093
 10
48.2269
 20
6.0069
 10
48.1372
 20
6.0045
 10
48.0475
 20
6.0021
 10
47.9578
 20
5.9997
 10
47.8681
 20
5.9973
 10
47.7785
 20
5.995
 10
47.6888
 20
5.9926
 10
47.5991
 20
5.9902
 10
47.5094
 20
5.9878
 10
47.4197
 20
5.9854
 10
47.33
 20
5.983
 10
47.2403
 20
5.9806
 10
47.1506
 20
5.9782
 10
47.0609
 20
5.9758
 10
46.9712
 20
5.9734
 10
46.8815
 20
5.971
 10
46.7918
 20
5.9686
 10
46.7855
 20
6.0581
 10
46.7791
 20
6.1476
 10
46.7728
 20
6.2371
 10
46.7664
 20
6.3266
 10
46.7601
 20
6.4161
 10
46.7537
 20
6.5056
 10
46.7474
 20
6.5951
 10
46.741
 20
6.6846
 10
46.7347
 20
6.7741
 10
46.7283
 20
6.8636
 10
46.722
 20
6.9531
 10
46.7157
 20
7.0426
 10
46.7093
 20
7.1322
 10
46.703
 20
7.2217
 10
46.6966
 20
7.3112
 10
46.6903
 20
7.4007
 10
46.6839
 20
7.4902
 10
46.6776
 20
7.5797
 10
46.6712
 20
7.6692
 10
46.6649
 20
7.7587
 10
46.6585
 20
7.8482
 10
46.6522
 20
7.9377
 10
46.6505
 20
7.962
 10
46.556
 20
7.962
 10
46.4455
 20
7.962
 10
46.39
 20
7.8804
 10
46.358
 20
7.7627
 10
46.3229
 20
7.6485
 10
46.2844
 20
7.5377
 10
46.2428
 20
7.4303
 10
46.1979
 20
7.3263
 10
46.1498
 20
7.2257
 10
46.0984
 20
7.1285
 10
46.0438
 20
7.0347
 10
45.986
 20
6.9443
 10
45.9249
 20
6.8573
 10
45.8607
 20
6.7738
 10
45.7931
 20
6.6936
 10
45.7224
 20
6.6168
 10
45.6484
 20
6.5435
 10
45.5711
 20
6.4735
 10
45.4904
 20
6.4068
 10
45.4052
 20
6.3425
 10
45.3175
 20
6.2823
 10
45.2275
 20
6.2263
 10
45.1351
 20
6.1744
 10
45.0403
 20
6.1267
 10
44.9431
 20
6.0831
 10
44.8434
 20
6.0437
 10
44.7414
 20
6.0084
 10
44.637
 20
5.9773
 10
44.5302
 20
5.9503
 10
44.421
 20
5.9275
 10
44.3094
 20
5.9088
 10
44.1955
 20
5.8943
 10
44.0791
 20
5.8839
 10
43.9603
 20
5.8777
 10
43.8391
 20
5.8756
 10
43.7121
 20
5.8774
 10
43.5877
 20
5.8826
 10
43.4658
 20
5.8914
 10
43.3465
 20
5.9037
 10
43.2297
 20
5.9196
 10
43.1155
 20
5.9389
 10
43.0038
 20
5.9618
 10
42.8946
 20
5.9882
 10
42.788
 20
6.0181
 10
42.684
 20
6.0516
 10
42.5825
 20
6.0885
 10
42.4835
 20
6.129
 10
42.3871
 20
6.173
 10
42.2932
 20
6.2205
 10
42.2019
 20
6.2715
 10
42.1131
 20
6.3261
 10
42.0269
 20
6.3841
 10
41.9433
 20
6.4457
 10
41.8621
 20
6.5108
 10
41.7835
 20
6.5795
 10
41.7075
 20
6.6516
 10
41.634
 20
6.7273
 10
41.5634
 20
6.8061
 10
41.5014
 20
6.8808
 10
41.4419
 20
6.9578
 10
41.3849
 20
7.0372
 10
41.3304
 20
7.119
 10
41.2784
 20
7.2032
 10
41.2289
 20
7.2898
 10
41.1819
 20
7.3787
 10
41.1375
 20
7.47
 10
41.0955
 20
7.5637
 10
41.0561
 20
7.6598
 10
41.0192
 20
7.7583
 10
40.9848
 20
7.8591
 10
40.9528
 20
7.9623
 10
40.9234
 20
8.0679
 10
40.8966
 20
8.1759
 10
40.8722
 20
8.2863
 10
40.8503
 20
8.399
 10
40.8309
 20
8.5141
 10
40.8141
 20
8.6316
 10
40.7998
 20
8.7514
 10
40.7879
 20
8.8737
 10
40.7786
 20
8.9983
 10
40.7718
 20
9.1253
 10
40.7675
 20
9.2547
 10
40.7657
 20
9.3864
 10
40.7657
 20
9.5018
 10
40.7657
 20
9.6123
 10
40.7657
 20
9.7228
 10
40.7657
 20
9.8333
 10
40.7657
 20
9.9439
 10
40.7657
 20
10.0544
 10
40.7657
 20
10.1649
 10
40.7657
 20
10.2754
 10
40.7657
 20
10.3859
 10
40.7657
 20
10.4964
 10
40.7657
 20
10.6069
 10
40.7657
 20
10.7174
 10
40.7657
 20
10.828
 10
40.7657
 20
10.9385
 10
40.7657
 20
11.049
 10
40.7657
 20
11.1595
 10
40.7657
 20
11.27
 10
40.7657
 20
11.3805
 10
40.7657
 20
11.491
 10
40.7657
 20
11.6015
 10
40.7657
 20
11.7121
 10
40.7657
 20
11.8226
 10
40.7657
 20
11.9331
 10
40.7657
 20
12.0436
 10
40.7657
 20
12.1541
 10
40.7657
 20
12.2646
 10
40.7657
 20
12.3751
 10
40.7657
 20
12.4857
 10
40.7657
 20
12.5962
 10
40.7657
 20
12.7067
 10
40.7657
 20
12.8172
 10
40.7657
 20
12.9277
 10
40.7657
 20
13.0382
 10
40.7657
 20
13.1487
 10
40.7657
 20
13.2592
 10
40.7657
 20
13.3698
 10
40.7657
 20
13.4803
 10
40.7657
 20
13.5908
 10
40.7657
 20
13.7013
 10
40.7657
 20
13.8118
 10
40.7657
 20
13.9223
 10
40.7657
 20
14.0328
 10
40.7657
 20
14.1434
 10
40.7657
 20
14.2539
 10
40.7657
 20
14.3644
 10
40.7657
 20
14.4749
 10
40.7657
 20
14.5854
 10
40.7657
 20
14.6959
 10
40.7657
 20
14.8064
 10
40.7657
 20
14.9169
 10
40.7657
 20
15.0275
 10
40.7657
 20
15.138
 10
40.7657
 20
15.2485
 10
40.7657
 20
15.359
 10
40.7657
 20
15.4695
 10
40.7657
 20
15.58
 10
40.7657
 20
15.6905
 10
40.7657
 20
15.8011
 10
40.7657
 20
15.9116
 10
40.853
 20
15.9347
 10
40.9635
 20
15.9347
 10
41.074
 20
15.9347
 10
41.1845
 20
15.9347
 10
41.295
 20
15.9347
 10
41.4056
 20
15.9347
 10
41.5161
 20
15.9347
 10
41.6266
 20
15.9347
 10
41.7371
 20
15.9347
 10
41.8476
 20
15.9347
 10
41.9581
 20
15.9347
 10
42.0686
 20
15.9347
 10
42.1791
 20
15.9347
 10
42.2897
 20
15.9347
 10
42.4002
 20
15.9347
 10
42.5107
 20
15.9347
 10
42.6212
 20
15.9347
 10
42.7317
 20
15.9347
 10
42.8422
 20
15.9347
 10
42.9527
 20
15.9347
 10
43.0633
 20
15.9347
 10
43.0661
 20
15.8271
 10
43.0661
 20
15.7165
 10
43.0661
 20
15.606
 10
43.0661
 20
15.4955
 10
43.0661
 20
15.385
 10
43.0661
 20
15.2745
 10
43.0661
 20
15.164
 10
43.0661
 20
15.0535
 10
43.0661
 20
14.9429
 10
43.0661
 20
14.8324
 10
43.0661
 20
14.7219
 10
43.0661
 20
14.6114
 10
43.0661
 20
14.5009
 10
43.0661
 20
14.3904
 10
43.0661
 20
14.2799
 10
43.0661
 20
14.1694
 10
43.0661
 20
14.0588
 10
43.0661
 20
13.9483
 10
43.0661
 20
13.8378
 10
43.0661
 20
13.7273
 10
43.0661
 20
13.6168
 10
43.0661
 20
13.5063
 10
43.0661
 20
13.3958
 10
43.0661
 20
13.2852
 10
43.0661
 20
13.1747
 10
43.0661
 20
13.0642
 10
43.0661
 20
12.9537
 10
43.0661
 20
12.8432
 10
43.0661
 20
12.7327
 10
43.0661
 20
12.6222
 10
43.0661
 20
12.5117
 10
43.0661
 20
12.4011
 10
43.0661
 20
12.2906
 10
43.0661
 20
12.1801
 10
43.0661
 20
12.0696
 10
43.0661
 20
11.9591
 10
43.0661
 20
11.8486
 10
43.0661
 20
11.7381
 10
43.0661
 20
11.6275
 10
43.0661
 20
11.517
 10
43.0661
 20
11.4065
 10
43.0661
 20
11.296
 10
43.0661
 20
11.1855
 10
43.0661
 20
11.075
 10
43.0661
 20
10.9645
 10
43.0661
 20
10.854
 10
43.0661
 20
10.7434
 10
43.0661
 20
10.6329
 10
43.0661
 20
10.5224
 10
43.0661
 20
10.4119
 10
43.0661
 20
10.3014
 10
43.0661
 20
10.1909
 10
43.0661
 20
10.0804
 10
43.0661
 20
9.9698
 10
43.0661
 20
9.8593
 10
43.0664
 20
9.7413
 10
43.0709
 20
9.6125
 10
43.0806
 20
9.4885
 10
43.0956
 20
9.3692
 10
43.1158
 20
9.2546
 10
43.1413
 20
9.1448
 10
43.1721
 20
9.0398
 10
43.2082
 20
8.9395
 10
43.2495
 20
8.8439
 10
43.296
 20
8.7531
 10
43.3479
 20
8.667
 10
43.4049
 20
8.5857
 10
43.4673
 20
8.5091
 10
43.5379
 20
8.4343
 10
43.6153
 20
8.3635
 10
43.6974
 20
8.2994
 10
43.7842
 20
8.2418
 10
43.8756
 20
8.1907
 10
43.9717
 20
8.1463
 10
44.0724
 20
8.1085
 10
44.1777
 20
8.0772
 10
44.2877
 20
8.0525
 10
44.4024
 20
8.0344
 10
44.5217
 20
8.0229
 10
44.6457
 20
8.0179
 10
44.7719
 20
8.0194
 10
44.8943
 20
8.0268
 10
45.0125
 20
8.0402
 10
45.1265
 20
8.0595
 10
45.2364
 20
8.0847
 10
45.3422
 20
8.1159
 10
45.4437
 20
8.153
 10
45.5412
 20
8.196
 10
45.6344
 20
8.245
 10
45.7235
 20
8.2999
 10
45.8084
 20
8.3607
 10
45.8892
 20
8.4275
 10
45.9658
 20
8.5002
 10
46.0383
 20
8.5789
 10
46.1065
 20
8.6635
 10
46.1603
 20
8.7388
 10
46.2035
 20
8.8065
 10
46.2445
 20
8.8783
 10
46.2834
 20
8.9541
 10
46.3203
 20
9.0339
 10
46.355
 20
9.1176
 10
46.3876
 20
9.2054
 10
46.4181
 20
9.2971
 10
46.4465
 20
9.3929
 10
46.4728
 20
9.4926
 10
46.497
 20
9.5963
 10
46.5191
 20
9.704
 10
46.5391
 20
9.8157
 10
46.5569
 20
9.9314
 10
46.5727
 20
10.0511
 10
46.5863
 20
10.1747
 10
46.5979
 20
10.3024
 10
46.6073
 20
10.4341
 10
46.6147
 20
10.5697
 10
46.6199
 20
10.7093
 10
46.623
 20
10.853
 10
46.6241
 20
10.9646
 10
46.6241
 20
11.1394
 10
46.6241
 20
11.3297
 10
46.6241
 20
11.5199
 10
46.6241
 20
11.7102
 10
46.6241
 20
11.9005
 10
46.6241
 20
12.0908
 10
46.6241
 20
12.2811
 10
46.6241
 20
12.4713
 10
46.6241
 20
12.6616
 10
46.6241
 20
12.8519
 10
46.6241
 20
13.0422
 10
46.6241
 20
13.2325
 10
46.6241
 20
13.4227
 10
46.6241
 20
13.613
 10
46.6241
 20
13.8033
 10
46.6241
 20
13.9936
 10
46.6241
 20
14.1839
 10
46.6241
 20
14.3741
 10
46.6241
 20
14.5644
 10
46.6241
 20
14.7547
 10
46.6241
 20
14.945
 10
46.6241
 20
15.1352
 10
46.6241
 20
15.3255
 10
46.6241
 20
15.5158
 10
46.6241
 20
15.7061
 10
46.6241
 20
15.8964
 10
46.776
 20
15.9347
 10
46.9662
 20
15.9347
 10
47.1565
 20
15.9347
 10
47.3468
 20
15.9347
 10
47.5371
 20
15.9347
 10
47.7273
 20
15.9347
 10
47.9176
 20
15.9347
 10
48.1079
 20
15.9347
 10
48.2982
 20
15.9347
 10
48.4885
 20
15.9347
 10
48.6787
 20
15.9347
 10
48.869
 20
15.9347
 10
48.9247
 20
15.8001
 10
48.9247
 20
15.6099
 10
48.9247
 20
15.4196
 10
48.9247
 20
15.2293
 10
48.9247
 20
15.039
 10
48.9247
 20
14.8487
 10
48.9247
 20
14.6585
 10
48.9247
 20
14.4682
 10
48.9247
 20
14.2779
 10
48.9247
 20
14.0876
 10
48.9247
 20
13.8974
 10
48.9247
 20
13.7071
 10
48.9247
 20
13.5168
 10
48.9247
 20
13.3265
 10
48.9247
 20
13.1362
 10
48.9247
 20
12.946
 10
48.9247
 20
12.7557
 10
48.9247
 20
12.5654
 10
48.9247
 20
12.3751
 10
48.9247
 20
12.1848
 10
48.9247
 20
11.9946
 10
48.9247
 20
11.8043
 10
48.9247
 20
11.614
 10
48.9247
 20
11.4237
 10
48.9247
 20
11.2334
 10
48.9247
 20
11.0432
 10
48.9247
 20
10.8529
 10
48.9247
 20
10.6626
 10
48.9247
 20
10.4723
 10
48.9247
 20
10.282
 10
48.9247
 20
10.0918
  0
LWPOLYLINE
  5
4D
330
17
100
AcDbEntity
  8
OUTLINE
100
AcDbPolyline
 90
672
 70
1
 10
55.6014
 20
5.8759
 10
55.5004
 20
5.8756
 10
55.4123
 20
5.8757
 10
55.3251
 20
5.876
 10
55.2388
 20
5.8766
 10
55.1534
 20
5.8773
 10
55.0689
 20
5.8783
 10
54.9853
 20
5.8795
 10
54.9025
 20
5.8809
 10
54.8207
 20
5.8825
 10
54.7397
 20
5.8843
 10
54.6597
 20
5.8864
 10
54.5805
 20
5.8886
 10
54.5022
 20
5.8911
 10
54.4248
 20
5.8938
 10
54.3483
 20
5.8967
 10
54.2727
 20
5.8998
 10
54.198
 20
5.9032
 10
54.1242
 20
5.9067
 10
54.0512
 20
5.9105
 10
53.9792
 20
5.9145
 10
53.908
 20
5.9187
 10
53.8378
 20
5.9231
 10
53.7684
 20
5.9278
 10
53.6999
 20
5.9326
 10
53.6323
 20
5.9377
 10
53.5656
 20
5.9429
 10
53.4893
 20
5.9493
 10
53.4047
 20
5.9569
 10
53.3211
 20
5.9647
 10
53.2384
 20
5.9729
 10
53.1567
 20
5.9815
 10
53.0758
 20
5.9905
 10
52.9959
 20
5.9998
 10
52.9169
 20
6.0095
 10
52.8388
 20
6.0196
 10
52.7617
 20
6.03
 10
52.6854
 20
6.0407
 10
52.6101
 20
6.0519
 10
52.5357
 20
6.0634
 10
52.4622
 20
6.0752
 10
52.3896
 20
6.0875
 10
52.318
 20
6.1001
 10
52.2472
 20
6.113
 10
52.1774
 20
6.1263
 10
52.1085
 20
6.14
 10
52.0405
 20
6.1541
 10
52.0445
 20
6.2262
 10
52.0541
 20
6.3028
 10
52.0637
 20
6.3795
 10
52.0733
 20
6.4562
 10
52.0828
 20
6.5328
 10
52.0924
 20
6.6095
 10
52.102
 20
6.6861
 10
52.1116
 20
6.7628
 10
52.1212
 20
6.8395
 10
52.1307
 20
6.9161
 10
52.1403
 20
6.9928
 10
52.1499
 20
7.0694
 10
52.1595
 20
7.1461
 10
52.1691
 20
7.2227
 10
52.1786
 20
7.2994
 10
52.1882
 20
7.3761
 10
52.1978
 20
7.4527
 10
52.2074
 20
7.5294
 10
52.217
 20
7.606
 10
52.2265
 20
7.6827
 10
52.2361
 20
7.7594
 10
52.2457
 20
7.836
 10
52.2553
 20
7.9127
 10
52.2649
 20
7.9893
 10
52.2745
 20
8.066
 10
52.284
 20
8.1426
 10
52.2936
 20
8.2193
 10
52.3032
 20
8.296
 10
52.3716
 20
8.3068
 10
52.4596
 20
8.2949
 10
52.5466
 20
8.2832
 10
52.6326
 20
8.2718
 10
52.7175
 20
8.2607
 10
52.8014
 20
8.2498
 10
52.8843
 20
8.2391
 10
52.9661
 20
8.2287
 10
53.0469
 20
8.2186
 10
53.1267
 20
8.2087
 10
53.2054
 20
8.199
 10
53.2831
 20
8.1896
 10
53.3597
 20
8.1805
 10
53.4354
 20
8.1716
 10
53.51
 20
8.1629
 10
53.5835
 20
8.1545
 10
53.6561
 20
8.1464
 10
53.7276
 20
8.1385
 10
53.7981
 20
8.1308
 10
53.8675
 20
8.1235
 10
53.9359
 20
8.1163
 10
54.0033
 20
8.1094
 10
54.0696
 20
8.1028
 10
54.1349
 20
8.0964
 10
54.2082
 20
8.0894
 10
54.2981
 20
8.0811
 10
54.3863
 20
8.0733
 10
54.4728
 20
8.0661
 10
54.5577
 20
8.0593
 10
54.641
 20
8.0531
 10
54.7226
 20
8.0474
 10
54.8026
 20
8.0422
 10
54.8809
 20
8.0374
 10
54.9576
 20
8.0332
 10
55.0326
 20
8.0295
 10
55.106
 20
8.0263
 10
55.1778
 20
8.0236
 10
55.2479
 20
8.0214
 10
55.3163
 20
8.0198
 10
55.3831
 20
8.0186
 10
55.4483
 20
8.0179
 10
55.5195
 20
8.0178
 10
55.6235
 20
8.0182
 10
55.7253
 20
8.0193
 10
55.8247
 20
8.0211
 10
55.9219
 20
8.0236
 10
56.0169
 20
8.0268
 10
56.1096
 20
8.0306
 10
56.2
 20
8.0351
 10
56.2882
 20
8.0403
 10
56.3742
 20
8.0461
 10
56.4578
 20
8.0526
 10
56.5392
 20
8.0598
 10
56.6184
 20
8.0677
 10
56.6953
 20
8.0762
 10
56.7699
 20
8.0854
 10
56.8423
 20
8.0953
 10
56.9124
 20
8.1059
 10
56.9803
 20
8.1171
 10
57.0459
 20
8.129
 10
57.1092
 20
8.1416
 10
57.1703
 20
8.1548
 10
57.2291
 20
8.1687
 10
57.2857
 20
8.1833
 10
57.34
 20
8.1986
 10
57.3921
 20
8.2145
 10
57.4419
 20
8.2312
 10
57.5081
 20
8.2557
 10
57.5955
 20
8.2929
 10
57.6757
 20
8.3332
 10
57.7486
 20
8.3767
 10
57.8143
 20
8.4232
 10
57.8727
 20
8.4729
 10
57.9239
 20
8.5256
 10
57.9679
 20
8.5814
 10
58.0046
 20
8.6403
 10
58.0341
 20
8.7023
 10
58.0563
 20
8.7675
 10
58.0713
 20
8.8357
 10
58.0791
 20
8.907
 10
58.0796
 20
8.9875
 10
58.0724
 20
9.0728
 10
58.0575
 20
9.152
 10
58.0348
 20
9.2251
 10
58.0043
 20
9.2921
 10
57.9661
 20
9.3529
 10
57.9201
 20
9.4077
 10
57.8726
 20
9.4516
 10
57.8216
 20
9.4906
 10
57.7645
 20
9.5276
 10
57.7011
 20
9.5626
 10
57.6315
 20
9.5957
 10
57.5557
 20
9.6268
 10
57.4736
 20
9.6559
 10
57.3853
 20
9.683
 10
57.3028
 20
9.706
 10
57.2284
 20
9.7267
 10
57.154
 20
9.7474
 10
57.0796
 20
9.7682
 10
57.0051
 20
9.7889
 10
56.9307
 20
9.8096
 10
56.8563
 20
9.8304
 10
56.7819
 20
9.8511
 10
56.7075
 20
9.8719
 10
56.633
 20
9.8926
 10
56.5586
 20
9.9133
 10
56.4842
 20
9.9341
 10
56.4098
 20
9.9548
 10
56.3354
 20
9.9755
 10
56.2609
 20
9.9963
 10
56.1865
 20
10.017
 10
56.1121
 20
10.0378
 10
56.0377
 20
10.0585
 10
55.9633
 20
10.0792
 10
55.8888
 20
10.1
 10
55.8144
 20
10.1207
 10
55.74
 20
10.1414
 10
55.6656
 20
10.1622
 10
55.5912
 20
10.1829
 10
55.5167
 20
10.2037
 10
55.4423
 20
10.2244
 10
55.3679
 20
10.2451
 10
55.2935
 20
10.2659
 10
55.2191
 20
10.2866
 10
55.1446
 20
10.3073
 10
55.0702
 20
10.3281
 10
54.9958
 20
10.3488
 10
54.9214
 20
10.3695
 10
54.847
 20
10.3903
 10
54.7725
 20
10.411
 10
54.6981
 20
10.4318
 10
54.6237
 20
10.4525
 10
54.5493
 20
10.4732
 10
54.4684
 20
10.4958
 10
54.3787
 20
10.5219
 10
54.2908
 20
10.5487
 10
54.2047
 20
10.5762
 10
54.1205
 20
10.6045
 10
54.038
 20
10.6335
 10
53.9574
 20
10.6633
 10
53.8786
 20
10.6938
 10
53.8016
 20
10.7251
 10
53.7265
 20
10.7571
 10
53.6531
 20
10.7898
 10
53.5816
 20
10.8234
 10
53.5119
 20
10.8576
 10
53.444
 20
10.8926
 10
53.3779
 20
10.9284
 10
53.3137
 20
10.9649
 10
53.2512
 20
11.0021
 10
53.1906
 20
11.0401
 10
53.1318
 20
11.0789
 10
53.0749
 20
11.1184
 10
53.0197
 20
11.1586
 10
52.9664
 20
11.1996
 10
52.9149
 20
11.2414
 10
52.8652
 20
11.2838
 10
52.8173
 20
11.3271
 10
52.7712
 20
11.3711
 10
52.7232
 20
11.4199
 10
52.6756
 20
11.4723
 10
52.6301
 20
11.5266
 10
52.5869
 20
11.5826
 10
52.5459
 20
11.6404
 10
52.5071
 20
11.7001
 10
52.4705
 20
11.7615
 10
52.4361
 20
11.8248
 10
52.4039
 20
11.8899
 10
52.3739
 20
11.9567
 10
52.3462
 20
12.0254
 10
52.3206
 20
12.096
 10
52.2972
 20
12.1683
 10
52.276
 20
12.2424
 10
52.2571
 20
12.3184
 10
52.2403
 20
12.3961
 10
52.2257
 20
12.4757
 10
52.2134
 20
12.5571
 10
52.2032
 20
12.6403
 10
52.1953
 20
12.7253
 10
52.1895
 20
12.8121
 10
52.186
 20
12.9007
 10
52.1847
 20
12.9911
 10
52.1854
 20
13.0784
 10
52.1881
 20
13.1639
 10
52.1927
 20
13.2482
 10
52.1993
 20
13.3312
 10
52.2077
 20
13.413
 10
52.2181
 20
13.4935
 10
52.2305
 20
13.5728
 10
52.2447
 20
13.6508
 10
52.2609
 20
13.7276
 10
52.279
 20
13.8031
 10
52.2991
 20
13.8774
 10
52.321
 20
13.9504
 10
52.3449
 20
14.0222
 10
52.3708
 20
14.0927
 10
52.3985
 20
14.1619
 10
52.4282
 20
14.23
 10
52.4598
 20
14.2967
 10
52.4934
 20
14.3622
 10
52.5288
 20
14.4265
 10
52.5662
 20
14.4895
 10
52.6055
 20
14.5513
 10
52.6468
 20
14.6118
 10
52.69
 20
14.6711
 10
52.7351
 20
14.7291
 10
52.7821
 20
14.7858
 10
52.8311
 20
14.8414
 10
52.882
 20
14.8956
 10
52.9348
 20
14.9486
 10
52.9895
 20
15.0004
 10
53.0462
 20
15.0509
 10
53.1048
 20
15.1002
 10
53.1654
 20
15.1482
 10
53.2278
 20
15.1949
 10
53.2922
 20
15.2404
 10
53.3585
 20
15.2847
 10
53.4268
 20
15.3277
 10
53.4928
 20
15.367
 10
53.5417
 20
15.3949
 10
53.5916
 20
15.4222
 10
53.6426
 20
15.449
 10
53.6945
 20
15.4752
 10
53.7474
 20
15.501
 10
53.8013
 20
15.5262
 10
53.8562
 20
15.5509
 10
53.9122
 20
15.575
 10
53.9691
 20
15.5987
 10
54.027
 20
15.6218
 10
54.0859
 20
15.6444
 10
54.1458
 20
15.6665
 10
54.2067
 20
15.688
 10
54.2686
 20
15.709
 10
54.3315
 20
15.7295
 10
54.3954
 20
15.7495
 10
54.4603
 20
15.769
 10
54.5262
 20
15.7879
 10
54.5931
 20
15.8063
 10
54.661
 20
15.8242
 10
54.7299
 20
15.8416
 10
54.7998
 20
15.8584
 10
54.8707
 20
15.8747
 10
54.9426
 20
15.8905
 10
55.0155
 20
15.9058
 10
55.0894
 20
15.9206
 10
55.1643
 20
15.9348
 10
55.2402
 20
15.9485
 10
55.3171
 20
15.9617
 10
55.3949
 20
15.9743
 10
55.4738
 20
15.9864
 10
55.5537
 20
15.998
 10
55.6346
 20
16.0091
 10
55.7165
 20
16.0197
 10
55.7993
 20
16.0297
 10
55.8832
 20
16.0392
 10
55.9681
 20
16.0482
 10
56.054
 20
16.0567
 10
56.1408
 20
16.0646
 10
56.2287
 20
16.0721
 10
56.3176
 20
16.079
 10
56.4074
 20
16.0853
 10
56.4983
 20
16.0912
 10
56.5902
 20
16.0965
 10
56.683
 20
16.1013
 10
56.7769
 20
16.1056
 10
56.8717
 20
16.1093
 10
56.9676
 20
16.1126
 10
57.0645
 20
16.1153
 10
57.1623
 20
16.1175
 10
57.2612
 20
16.1191
 10
57.361
 20
16.1203
 10
57.4619
 20
16.1209
 10
57.5559
 20
16.121
 10
57.6338
 20
16.1207
 10
57.7117
 20
16.1202
 10
57.7894
 20
16.1193
 10
57.867
 20
16.1181
 10
57.9446
 20
16.1166
 10
58.022
 20
16.1147
 10
58.0994
 20
16.1126
 10
58.1767
 20
16.1101
 10
58.2538
 20
16.1073
 10
58.3309
 20
16.1042
 10
58.4079
 20
16.1008
 10
58.4848
 20
16.0971
 10
58.5616
 20
16.0931
 10
58.6383
 20
16.0887
 10
58.7149
 20
16.0841
 10
58.7914
 20
16.0791
 10
58.8674
 20
16.0738
 10
58.9411
 20
16.0684
 10
59.0152
 20
16.0627
 10
59.0897
 20
16.0567
 10
59.1645
 20
16.0504
 10
59.2397
 20
16.0439
 10
59.3153
 20
16.037
 10
59.3913
 20
16.0299
 10
59.4676
 20
16.0224
 10
59.5443
 20
16.0147
 10
59.6215
 20
16.0067
 10
59.6989
 20
15.9984
 10
59.7768
 20
15.9898
 10
59.8551
 20
15.9809
 10
59.9337
 20
15.9717
 10
60.0127
 20
15.9623
 10
60.0921
 20
15.9525
 10
60.1718
 20
15.9425
 10
60.2297
 20
15.9156
 10
60.2208
 20
15.8388
 10
60.2119
 20
15.7621
 10
60.203
 20
15.6854
 10
60.1941
 20
15.6086
 10
60.1852
 20
15.5319
 10
60.1762
 20
15.4551
 10
60.1673
 20
15.3784
 10
60.1584
 20
15.3017
 10
60.1495
 20
15.2249
 10
60.1406
 20
15.1482
 10
60.1317
 20
15.0714
 10
60.1228
 20
14.9947
 10
60.1139
 20
14.918
 10
60.105
 20
14.8412
 10
60.096
 20
14.7645
 10
60.0871
 20
14.6878
 10
60.0782
 20
14.611
 10
60.0693
 20
14.5343
 10
60.0604
 20
14.4575
 10
60.0515
 20
14.3808
 10
60.0426
 20
14.3041
 10
60.0337
 20
14.2273
 10
60.0248
 20
14.1506
 10
60.0159
 20
14.0738
 10
60.0069
 20
13.9971
 10
59.998
 20
13.9204
 10
59.9842
 20
13.8489
 10
59.897
 20
13.8568
 10
59.8109
 20
13.8644
 10
59.726
 20
13.8718
 10
59.6423
 20
13.8789
 10
59.5598
 20
13.8858
 10
59.4785
 20
13.8923
 10
59.3983
 20
13.8986
 10
59.3193
 20
13.9046
 10
59.2415
 20
13.9104
 10
59.1648
 20
13.9158
 10
59.0893
 20
13.921
 10
59.0151
 20
13.9259
 10
58.942
 20
13.9306
 10
58.87
 20
13.935
 10
58.7993
 20
13.9391
 10
58.7297
 20
13.9429
 10
58.6613
 20
13.9464
 10
58.5941
 20
13.9497
 10
58.5156
 20
13.9533
 10
58.4309
 20
13.9569
 10
58.3475
 20
13.9602
 10
58.2653
 20
13.9633
 10
58.1844
 20
13.966
 10
58.1047
 20
13.9685
 10
58.0263
 20
13.9708
 10
57.9491
 20
13.9727
 10
57.8732
 20
13.9744
 10
57.7985
 20
13.9758
 10
57.7251
 20
13.9769
 10
57.6529
 20
13.9777
 10
57.582
 20
13.9783
 10
57.5124
 20
13.9786
 10
57.427
 20
13.9786
 10
57.3233
 20
13.9781
 10
57.2215
 20
13.9771
 10
57.1218
 20
13.9756
 10
57.024
 20
13.9736
 10
56.9283
 20
13.9711
 10
56.8345
 20
13.9681
 10
56.7427
 20
13.9646
 10
56.6529
 20
13.9606
 10
56.5651
 20
13.956
 10
56.4793
 20
13.951
 10
56.3955
 20
13.9455
 10
56.3137
 20
13.9394
 10
56.2338
 20
13.9329
 10
56.156
 20
13.9258
 10
56.0801
 20
13.9182
 10
56.0063
 20
13.9102
 10
55.9344
 20
13.9016
 10
55.8645
 20
13.8925
 10
55.7966
 20
13.8829
 10
55.7307
 20
13.8729
 10
55.6668
 20
13.8623
 10
55.6049
 20
13.8512
 10
55.545
 20
13.8396
 10
55.4871
 20
13.8274
 10
55.4311
 20
13.8148
 10
55.3772
 20
13.8017
 10
55.3252
 20
13.7881
 10
55.2752
 20
13.7739
 10
55.2083
 20
13.7532
 10
55.1129
 20
13.7193
 10
55.025
 20
13.6827
 10
54.9446
 20
13.6433
 10
54.8717
 20
13.6011
 10
54.8062
 20
13.556
 10
54.7481
 20
13.5082
 10
54.6975
 20
13.4576
 10
54.6544
 20
13.4041
 10
54.6187
 20
13.3479
 10
54.5905
 20
13.2889
 10
54.5698
 20
13.227
 10
54.5565
 20
13.1624
 10
54.5506
 20
13.0949
 10
54.5526
 20
13.0109
 10
54.5632
 20
12.9272
 10
54.5825
 20
12.8506
 10
54.6106
 20
12.7812
 10
54.6473
 20
12.7189
 10
54.6928
 20
12.6637
 10
54.7471
 20
12.6157
 10
54.797
 20
12.5811
 10
54.8506
 20
12.5489
 10
54.9098
 20
12.5177
 10
54.9747
 20
12.4874
 10
55.0452
 20
12.4581
 10
55.1214
 20
12.4297
 10
55.2032
 20
12.4022
 10
55.2906
 20
12.3757
 10
55.3837
 20
12.3501
 10
55.4594
 20
12.3297
 10
55.5339
 20
12.3096
 10
55.6085
 20
12.2895
 10
55.6831
 20
12.2694
 10
55.7577
 20
12.2493
 10
55.8323
 20
12.2292
 10
55.9069
 20
12.2091
 10
55.9815
 20
12.189
 10
56.0561
 20
12.1689
 10
56.1307
 20
12.1488
 10
56.2053
 20
12.1287
 10
56.2799
 20
12.1086
 10
56.3545
 20
12.0885
 10
56.4291
 20
12.0684
 10
56.5037
 20
12.0483
 10
56.5783
 20
12.0282
 10
56.6529
 20
12.0081
 10
56.7274
 20
11.988
 10
56.802
 20
11.9679
 10
56.8766
 20
11.9478
 10
56.9512
 20
11.9277
 10
57.0258
 20
11.9076
 10
57.1004
 20
11.8875
 10
57.175
 20
11.8674
 10
57.2496
 20
11.8473
 10
57.3242
 20
11.8272
 10
57.3988
 20
11.8071
 10
57.4734
 20
11.787
 10
57.548
 20
11.7669
 10
57.6226
 20
11.7468
 10
57.6972
 20
11.7267
 10
57.7718
 20
11.7066
 10
57.8636
 20
11.6826
 10
57.9541
 20
11.6579
 10
58.043
 20
11.6326
 10
58.1303
 20
11.6067
 10
58.216
 20
11.5801
 10
58.3
 20
11.5528
 10
58.3824
 20
11.5249
 10
58.4633
 20
11.4964
 10
58.5425
 20
11.4672
 10
58.62
 20
11.4373
 10
58.696
 20
11.4068
 10
58.7703
 20
11.3757
 10
58.8431
 20
11.3439
 10
58.9142
 20
11.3115
 10
58.9837
 20
11.2784
 10
59.0515
 20
11.2447
 10
59.1178
 20
11.2103
 10
59.1824
 20
11.1753
 10
59.2455
 20
11.1396
 10
59.3069
 20
11.1033
 10
59.3666
 20
11.0664
 10
59.4248
 20
11.0288
 10
59.4814
 20
10.9905
 10
59.5363
 20
10.9516
 10
59.5896
 20
10.9121
 10
59.6413
 20
10.8719
 10
59.6914
 20
10.8311
 10
59.7399
 20
10.7896
 10
59.7867
 20
10.7474
 10
59.8329
 20
10.7037
 10
59.885
 20
10.6512
 10
59.9349
 20
10.5973
 10
59.9827
 20
10.5419
 10
60.0284
 20
10.4849
 10
60.0719
 20
10.4265
 10
60.1132
 20
10.3666
 10
60.1524
 20
10.3052
 10
60.1895
 20
10.2422
 10
60.2245
 20
10.1778
 10
60.2573
 20
10.1119
 10
60.2879
 20
10.0445
 10
60.3165
 20
9.9756
 10
60.3429
 20
9.9052
 10
60.3671
 20
9.8334
 10
60.3892
 20
9.76
 10
60.4092
 20
9.6851
 10
60.427
 20
9.6087
 10
60.4427
 20
9.5309
 10
60.4563
 20
9.4515
 10
60.4677
 20
9.3706
 10
60.477
 20
9.2883
 10
60.4841
 20
9.2044
 10
60.4891
 20
9.1191
 10
60.492
 20
9.0322
 10
60.4927
 20
8.944
 10
60.4914
 20
8.8562
 10
60.4882
 20
8.7698
 10
60.4832
 20
8.6847
 10
60.4762
 20
8.6009
 10
60.4673
 20
8.5183
 10
60.4565
 20
8.4371
 10
60.4439
 20
8.3572
 10
60.4293
 20
8.2786
 10
60.4128
 20
8.2013
 10
60.3944
 20
8.1253
 10
60.3741
 20
8.0506
 10
60.3519
 20
7.9773
 10
60.3278
 20
7.9052
 10
60.3018
 20
7.8344
 10
60.2739
 20
7.7649
 10
60.2441
 20
7.6968
 10
60.2123
 20
7.6299
 10
60.1787
 20
7.5644
 10
60.1432
 20
7.5001
 10
60.1058
 20
7.4372
 10
60.0665
 20
7.3755
 10
60.0252
 20
7.3152
 10
59.9821
 20
7.2562
 10
59.9371
 20
7.1985
 10
59.8901
 20
7.142
 10
59.8413
 20
7.0869
 10
59.7905
 20
7.0331
 10
59.7379
 20
6.9806
 10
59.6833
 20
6.9294
 10
59.6269
 20
6.8795
 10
59.5685
 20
6.8309
 10
59.5082
 20
6.7836
 10
59.4461
 20
6.7377
 10
59.382
 20
6.693
 10
59.316
 20
6.6496
 10
59.2567
 20
6.6127
 10
59.2075
 20
6.5835
 10
59.1572
 20
6.5549
 10
59.1059
 20
6.5269
 10
59.0536
 20
6.4995
 10
59.0001
 20
6.4726
 10
58.9457
 20
6.4464
 10
58.8901
 20
6.4208
 10
58.8335
 20
6.3957
 10
58.7759
 20
6.3712
 10
58.7171
 20
6.3473
 10
58.6574
 20
6.324
 10
58.5965
 20
6.3013
 10
58.5346
 20
6.2792
 10
58.4717
 20
6.2577
 10
58.4077
 20
6.2368
 10
58.3426
 20
6.2164
 10
58.2765
 20
6.1967
 10
58.2093
 20
6.1775
 10
58.1411
 20
6.1589
 10
58.0718
 20
6.141
 10
58.0014
 20
6.1236
 10
57.93
 20
6.1067
 10
57.8575
 20
6.0905
 10
57.784
 20
6.0749
 10
57.7094
 20
6.0599
 10
57.6337
 20
6.0454
 10
57.557
 20
6.0316
 10
57.4792
 20
6.0183
 10
57.4004
 20
6.0056
 10
57.3205
 20
5.9935
 10
57.2395
 20
5.982
 10
57.1575
 20
5.9711
 10
57.0745
 20
5.9608
 10
56.9904
 20
5.9511
 10
56.9052
 20
5.9419
 10
56.8189
 20
5.9334
 10
56.7316
 20
5.9254
 10
56.6433
 20
5.918
 10
56.5538
 20
5.9113
 10
56.4634
 20
5.9051
 10
56.3718
 20
5.8995
 10
56.2792
 20
5.8945
 10
56.1856
 20
5.89
 10
56.0909
 20
5.8862
 10
55.9951
 20
5.883
 10
55.8983
 20
5.8803
 10
55.8004
 20
5.8782
 10
55.7014
 20
5.8768
  0
LWPOLYLINE
  5
4E
330
17
100
AcDbEntity
  8
OUTLINE
100
AcDbPolyline
 90
192
 70
1
 10
78.8008
 20
5.8782
 10
78.6177
 20
5.8756
 10
78.4351
 20
5.8782
 10
78.2562
 20
5.886
 10
78.0808
 20
5.8989
 10
77.9091
 20
5.9171
 10
77.7411
 20
5.9405
 10
77.5766
 20
5.969
 10
77.4158
 20
6.0028
 10
77.2586
 20
6.0417
 10
77.105
 20
6.0858
 10
76.9551
 20
6.1351
 10
76.8087
 20
6.1896
 10
76.666
 20
6.2493
 10
76.5269
 20
6.3142
 10
76.3914
 20
6.3842
 10
76.2596
 20
6.4595
 10
76.1314
 20
6.5399
 10
76.0068
 20
6.6256
 10
75.8858
 20
6.7164
 10
75.7684
 20
6.8124
 10
75.6547
 20
6.9136
 10
75.5446
 20
7.02
 10
75.4381
 20
7.1316
 10
75.3379
 20
7.2452
 10
75.2489
 20
7.3541
 10
75.1635
 20
7.4664
 10
75.0817
 20
7.5822
 10
75.0035
 20
7.7014
 10
74.929
 20
7.8241
 10
74.8582
 20
7.9502
 10
74.791
 20
8.0798
 10
74.7274
 20
8.2128
 10
74.6674
 20
8.3493
 10
74.6111
 20
8.4892
 10
74.5584
 20
8.6326
 10
74.5094
 20
8.7794
 10
74.464
 20
8.9296
 10
74.4222
 20
9.0833
 10
74.3841
 20
9.2405
 10
74.3496
 20
9.4011
 10
74.3187
 20
9.5651
 10
74.2915
 20
9.7326
 10
74.2679
 20
9.9036
 10
74.248
 20
10.0779
 10
74.2317
 20
10.2558
 10
74.219
 20
10.4371
 10
74.21
 20
10.6218
 10
74.2046
 20
10.81
 10
74.2029
 20
11.0016
 10
74.2047
 20
11.1936
 10
74.2102
 20
11.3821
 10
74.2194
 20
11.5671
 10
74.2321
 20
11.7487
 10
74.2485
 20
11.9267
 10
74.2686
 20
12.1013
 10
74.2922
 20
12.2724
 10
74.3195
 20
12.44
 10
74.3504
 20
12.6042
 10
74.3849
 20
12.7648
 10
74.4231
 20
12.922
 10
74.4649
 20
13.0756
 10
74.5103
 20
13.2258
 10
74.5593
 20
13.3725
 10
74.612
 20
13.5158
 10
74.6683
 20
13.6555
 10
74.7283
 20
13.7918
 10
74.7918
 20
13.9246
 10
74.859
 20
14.0538
 10
74.9298
 20
14.1797
 10
75.0043
 20
14.302
 10
75.0824
 20
14.4208
 10
75.1641
 20
14.5362
 10
75.2494
 20
14.648
 10
75.3384
 20
14.7564
 10
75.4386
 20
14.8697
 10
75.5452
 20
14.981
 10
75.6554
 20
15.087
 10
75.7692
 20
15.1879
 10
75.8867
 20
15.2837
 10
76.0078
 20
15.3742
 10
76.1325
 20
15.4596
 10
76.2608
 20
15.5398
 10
76.3928
 20
15.6148
 10
76.5284
 20
15.6846
 10
76.6676
 20
15.7492
 10
76.8104
 20
15.8087
 10
76.9569
 20
15.863
 10
77.107
 20
15.9121
 10
77.2607
 20
15.956
 10
77.4181
 20
15.9948
 10
77.5791
 20
16.0284
 10
77.7437
 20
16.0568
 10
77.9119
 20
16.08
 10
78.0838
 20
16.098
 10
78.2593
 20
16.1108
 10
78.4384
 20
16.1185
 10
78.6211
 20
16.121
 10
78.8043
 20
16.1183
 10
78.9837
 20
16.1105
 10
79.1595
 20
16.0975
 10
79.3317
 20
16.0793
 10
79.5001
 20
16.056
 10
79.6649
 20
16.0275
 10
79.8261
 20
15.9938
 10
79.9835
 20
15.9549
 10
80.1373
 20
15.9109
 10
80.2874
 20
15.8618
 10
80.4338
 20
15.8074
 10
80.5766
 20
15.7479
 10
80.7157
 20
15.6833
 10
80.8511
 20
15.6134
 10
80.9829
 20
15.5384
 10
81.111
 20
15.4583
 10
81.2354
 20
15.3729
 10
81.3561
 20
15.2824
 10
81.4732
 20
15.1868
 10
81.5866
 20
15.086
 10
81.6964
 20
14.98
 10
81.8024
 20
14.8688
 10
81.9021
 20
14.7557
 10
81.9907
 20
14.6472
 10
82.0757
 20
14.5353
 10
82.1571
 20
14.4199
 10
82.2349
 20
14.3009
 10
82.309
 20
14.1785
 10
82.3796
 20
14.0526
 10
82.4465
 20
13.9232
 10
82.5098
 20
13.7903
 10
82.5695
 20
13.654
 10
82.6255
 20
13.5141
 10
82.678
 20
13.3708
 10
82.7268
 20
13.224
 10
82.772
 20
13.0737
 10
82.8136
 20
12.9199
 10
82.8516
 20
12.7626
 10
82.886
 20
12.6018
 10
82.9167
 20
12.4376
 10
82.9438
 20
12.2698
 10
82.9674
 20
12.0986
 10
82.9873
 20
11.9239
 10
83.0035
 20
11.7456
 10
83.0162
 20
11.564
 10
83.0252
 20
11.3788
 10
83.0306
 20
11.1901
 10
83.0324
 20
10.998
 10
83.0306
 20
10.8063
 10
83.0252
 20
10.6181
 10
83.0161
 20
10.4334
 10
83.0034
 20
10.2521
 10
82.9871
 20
10.0742
 10
82.9671
 20
9.8998
 10
82.9436
 20
9.7289
 10
82.9164
 20
9.5614
 10
82.8855
 20
9.3974
 10
82.8511
 20
9.2368
 10
82.813
 20
9.0796
 10
82.7713
 20
8.9259
 10
82.726
 20
8.7757
 10
82.677
 20
8.6289
 10
82.6244
 20
8.4856
 10
82.5682
 20
8.3457
 10
82.5084
 20
8.2092
 10
82.4449
 20
8.0762
 10
82.3778
 20
7.9467
 10
82.3071
 20
7.8206
 10
82.2328
 20
7.698
 10
82.1548
 20
7.5788
 10
82.0732
 20
7.463
 10
81.988
 20
7.3508
 10
81.8991
 20
7.2419
 10
81.799
 20
7.1282
 10
81.6929
 20
7.0169
 10
81.5831
 20
6.9108
 10
81.4697
 20
6.8099
 10
81.3526
 20
6.7141
 10
81.2318
 20
6.6236
 10
81.1074
 20
6.5381
 10
80.9793
 20
6.4579
 10
80.8475
 20
6.3829
 10
80.712
 20
6.313
 10
80.5729
 20
6.2483
 10
80.4301
 20
6.1888
 10
80.2837
 20
6.1344
 10
80.1336
 20
6.0852
 10
79.9798
 20
6.0412
 10
79.8224
 20
6.0024
 10
79.6613
 20
5.9688
 10
79.4965
 20
5.9403
 10
79.3281
 20
5.917
 10
79.156
 20
5.8989
 10
78.9802
 20
5.8859
  0
LWPOLYLINE
  5
4F
330
17
100
AcDbEntity
  8
OUTLINE
100
AcDbPolyline
 90
192
 70
1
 10
78.5251
 20
8.0195
 10
78.6177
 20
8.0177
 10
78.7108
 20
8.0195
 10
78.8019
 20
8.0248
 10
78.8909
 20
8.0337
 10
78.9778
 20
8.046
 10
79.0626
 20
8.062
 10
79.1454
 20
8.0814
 10
79.226
 20
8.1044
 10
79.3046
 20
8.131
 10
79.3812
 20
8.161
 10
79.4556
 20
8.1947
 10
79.528
 20
8.2318
 10
79.5983
 20
8.2725
 10
79.6665
 20
8.3167
 10
79.7327
 20
8.3645
 10
79.7967
 20
8.4158
 10
79.8587
 20
8.4707
 10
79.9186
 20
8.529
 10
79.9765
 20
8.591
 10
80.0322
 20
8.6564
 10
80.0859
 20
8.7254
 10
80.1371
 20
8.7974
 10
80.1756
 20
8.8559
 10
80.2126
 20
8.9161
 10
80.2482
 20
8.9781
 10
80.2823
 20
9.0418
 10
80.315
 20
9.1074
 10
80.3462
 20
9.1747
 10
80.376
 20
9.2437
 10
80.4043
 20
9.3146
 10
80.4312
 20
9.3872
 10
80.4566
 20
9.4615
 10
80.4806
 20
9.5377
 10
80.5031
 20
9.6156
 10
80.5242
 20
9.6952
 10
80.5438
 20
9.7767
 10
80.562
 20
9.8599
 10
80.5787
 20
9.9449
 10
80.594
 20
10.0316
 10
80.6078
 20
10.1201
 10
80.6201
 20
10.2104
 10
80.631
 20
10.3025
 10
80.6405
 20
10.3963
 10
80.6485
 20
10.4919
 10
80.6551
 20
10.5892
 10
80.6602
 20
10.6884
 10
80.6638
 20
10.7893
 10
80.666
 20
10.8919
 10
80.6668
 20
10.9963
 10
80.6661
 20
11.1012
 10
80.6639
 20
11.2043
 10
80.6603
 20
11.3056
 10
80.6552
 20
11.4051
 10
80.6487
 20
11.5028
 10
80.6407
 20
11.5987
 10
80.6313
 20
11.6928
 10
80.6204
 20
11.7851
 10
80.608
 20
11.8756
 10
80.5942
 20
11.9643
 10
80.579
 20
12.0512
 10
80.5623
 20
12.1363
 10
80.5441
 20
12.2196
 10
80.5245
 20
12.3011
 10
80.5034
 20
12.3809
 10
80.4808
 20
12.4588
 10
80.4568
 20
12.5349
 10
80.4314
 20
12.6092
 10
80.4045
 20
12.6818
 10
80.3761
 20
12.7525
 10
80.3463
 20
12.8214
 10
80.315
 20
12.8886
 10
80.2823
 20
12.9539
 10
80.2481
 20
13.0175
 10
80.2125
 20
13.0792
 10
80.1754
 20
13.1392
 10
80.1368
 20
13.1973
 10
80.0865
 20
13.2676
 10
80.0325
 20
13.3369
 10
79.9764
 20
13.4026
 10
79.9183
 20
13.4648
 10
79.8581
 20
13.5234
 10
79.7959
 20
13.5784
 10
79.7317
 20
13.63
 10
79.6655
 20
13.6779
 10
79.5972
 20
13.7223
 10
79.5269
 20
13.7632
 10
79.4546
 20
13.8005
 10
79.3802
 20
13.8343
 10
79.3038
 20
13.8645
 10
79.2254
 20
13.8912
 10
79.1449
 20
13.9144
 10
79.0624
 20
13.9339
 10
78.9779
 20
13.95
 10
78.8914
 20
13.9625
 10
78.8028
 20
13.9714
 10
78.7122
 20
13.9768
 10
78.6195
 20
13.9786
 10
78.5268
 20
13.9769
 10
78.4361
 20
13.9717
 10
78.3474
 20
13.9629
 10
78.2608
 20
13.9505
 10
78.1762
 20
13.9346
 10
78.0936
 20
13.9152
 10
78.0131
 20
13.8922
 10
77.9346
 20
13.8657
 10
77.8581
 20
13.8356
 10
77.7836
 20
13.8019
 10
77.7112
 20
13.7648
 10
77.6408
 20
13.724
 10
77.5725
 20
13.6798
 10
77.5062
 20
13.6319
 10
77.4419
 20
13.5806
 10
77.3796
 20
13.5256
 10
77.3194
 20
13.4672
 10
77.2612
 20
13.4051
 10
77.205
 20
13.3396
 10
77.1509
 20
13.2705
 10
77.1
 20
13.1996
 10
77.0614
 20
13.1415
 10
77.0243
 20
13.0816
 10
76.9886
 20
13.02
 10
76.9543
 20
12.9565
 10
76.9215
 20
12.8912
 10
76.8902
 20
12.8242
 10
76.8603
 20
12.7553
 10
76.8319
 20
12.6846
 10
76.8049
 20
12.6122
 10
76.7794
 20
12.5379
 10
76.7554
 20
12.4619
 10
76.7328
 20
12.384
 10
76.7116
 20
12.3044
 10
76.692
 20
12.2229
 10
76.6737
 20
12.1397
 10
76.657
 20
12.0546
 10
76.6416
 20
11.9678
 10
76.6278
 20
11.8791
 10
76.6154
 20
11.7887
 10
76.6044
 20
11.6965
 10
76.5949
 20
11.6025
 10
76.5869
 20
11.5066
 10
76.5803
 20
11.409
 10
76.5752
 20
11.3096
 10
76.5715
 20
11.2084
 10
76.5693
 20
11.1054
 10
76.5685
 20
11.0005
 10
76.5692
 20
10.8961
 10
76.5714
 20
10.7934
 10
76.575
 20
10.6926
 10
76.5801
 20
10.5934
 10
76.5866
 20
10.4961
 10
76.5946
 20
10.4005
 10
76.6041
 20
10.3066
 10
76.615
 20
10.2146
 10
76.6274
 20
10.1243
 10
76.6413
 20
10.0357
 10
76.6566
 20
9.949
 10
76.6734
 20
9.864
 10
76.6916
 20
9.7807
 10
76.7113
 20
9.6992
 10
76.7325
 20
9.6195
 10
76.7551
 20
9.5416
 10
76.7792
 20
9.4654
 10
76.8048
 20
9.391
 10
76.8318
 20
9.3184
 10
76.8602
 20
9.2475
 10
76.8902
 20
9.1784
 10
76.9216
 20
9.111
 10
76.9544
 20
9.0454
 10
76.9888
 20
8.9816
 10
77.0245
 20
8.9196
 10
77.0618
 20
8.8593
 10
77.1005
 20
8.8008
 10
77.1515
 20
8.7294
 10
77.2055
 20
8.66
 10
77.2616
 20
8.5942
 10
77.3197
 20
8.5319
 10
77.3799
 20
8.4732
 10
77.4421
 20
8.4181
 10
77.5063
 20
8.3665
 10
77.5725
 20
8.3184
 10
77.6407
 20
8.2739
 10
77.711
 20
8.233
 10
77.7833
 20
8.1957
 10
77.8576
 20
8.1619
 10
77.934
 20
8.1316
 10
78.0123
 20
8.1049
 10
78.0927
 20
8.0818
 10
78.1752
 20
8.0622
 10
78.2596
 20
8.0462
 10
78.3461
 20
8.0338
 10
78.4346
 20
8.0249
  0
LWPOLYLINE
  5
50
330
17
100
AcDbEntity
  8
OUTLINE
100
AcDbPolyline
 90
303
 70
1
 10
69.2385
 20
15.6216
 10
69.2385
 20
15.465
 10
69.2385
 20
15.376
 10
69.2385
 20
15.3084
 10
69.2385
 20
15.1518
 10
69.2385
 20
15.1342
 10
69.2385
 20
14.9952
 10
69.2385
 20
14.8924
 10
69.2385
 20
14.8386
 10
69.2385
 20
14.682
 10
69.2385
 20
14.6506
 10
69.2385
 20
14.5254
 10
69.2385
 20
14.4088
 10
69.2385
 20
14.3688
 10
69.2385
 20
14.2122
 10
69.2385
 20
14.1671
 10
69.2385
 20
14.0556
 10
69.2385
 20
13.9253
 10
69.2385
 20
13.899
 10
69.2385
 20
13.6835
 10
69.2385
 20
13.4417
 10
69.2385
 20
13.1999
 10
69.2385
 20
12.9581
 10
69.2385
 20
12.7164
 10
69.2385
 20
12.4746
 10
69.2385
 20
12.2328
 10
69.2385
 20
11.991
 10
69.2385
 20
11.7492
 10
69.2385
 20
11.5075
 10
69.2385
 20
11.2657
 10
69.2385
 20
11.0239
 10
69.2385
 20
10.7821
 10
69.2385
 20
10.5403
 10
69.2385
 20
10.2986
 10
69.2385
 20
10.0568
 10
69.2385
 20
9.815
 10
69.2385
 20
9.5732
 10
69.2385
 20
9.3314
 10
69.2385
 20
9.0897
 10
69.2385
 20
8.8479
 10
69.2385
 20
8.6061
 10
69.2385
 20
8.3643
 10
69.2385
 20
8.1482
 10
69.2601
 20
8.1482
 10
69.3693
 20
8.1482
 10
69.4786
 20
8.1482
 10
69.5878
 20
8.1482
 10
69.697
 20
8.1482
 10
69.8063
 20
8.1482
 10
69.9155
 20
8.1482
 10
70.0248
 20
8.1482
 10
70.134
 20
8.1482
 10
70.2433
 20
8.1482
 10
70.3525
 20
8.1482
 10
70.4618
 20
8.1482
 10
70.571
 20
8.1482
 10
70.6803
 20
8.1482
 10
70.7895
 20
8.1482
 10
70.8988
 20
8.1482
 10
71.008
 20
8.1482
 10
71.1173
 20
8.1482
 10
71.2265
 20
8.1482
 10
71.3357
 20
8.1482
 10
71.445
 20
8.1482
 10
71.5542
 20
8.1482
 10
71.6635
 20
8.1482
 10
71.7727
 20
8.1482
 10
71.882
 20
8.1482
 10
71.9912
 20
8.1482
 10
72.1005
 20
8.1482
 10
72.2097
 20
8.1482
 10
72.2097
 20
8.039
 10
72.2097
 20
7.9297
 10
72.2097
 20
7.8205
 10
72.2097
 20
7.7113
 10
72.2097
 20
7.602
 10
72.2097
 20
7.4928
 10
72.2097
 20
7.3835
 10
72.2097
 20
7.2743
 10
72.2097
 20
7.165
 10
72.2097
 20
7.0558
 10
72.2097
 20
6.9465
 10
72.2097
 20
6.8373
 10
72.2097
 20
6.728
 10
72.2097
 20
6.6188
 10
72.2097
 20
6.5095
 10
72.2097
 20
6.4003
 10
72.2097
 20
6.291
 10
72.2097
 20
6.1818
 10
72.2097
 20
6.0726
 10
72.1112
 20
6.0619
 10
72.0019
 20
6.0619
 10
71.8927
 20
6.0619
 10
71.7834
 20
6.0619
 10
71.6742
 20
6.0619
 10
71.5649
 20
6.0619
 10
71.4557
 20
6.0619
 10
71.3464
 20
6.0619
 10
71.2372
 20
6.0619
 10
71.1279
 20
6.0619
 10
71.0187
 20
6.0619
 10
70.9095
 20
6.0619
 10
70.8002
 20
6.0619
 10
70.691
 20
6.0619
 10
70.5817
 20
6.0619
 10
70.4725
 20
6.0619
 10
70.3632
 20
6.0619
 10
70.254
 20
6.0619
 10
70.1447
 20
6.0619
 10
70.0355
 20
6.0619
 10
69.9262
 20
6.0619
 10
69.817
 20
6.0619
 10
69.7077
 20
6.0619
 10
69.5985
 20
6.0619
 10
69.4892
 20
6.0619
 10
69.38
 20
6.0619
 10
69.2708
 20
6.0619
 10
69.1615
 20
6.0619
 10
69.1232
 20
6.0619
 10
69.0523
 20
6.0619
 10
68.8814
 20
6.0619
 10
68.6396
 20
6.0619
 10
68.3978
 20
6.0619
 10
68.156
 20
6.0619
 10
67.9143
 20
6.0619
 10
67.6725
 20
6.0619
 10
67.4307
 20
6.0619
 10
67.1889
 20
6.0619
 10
67.1055
 20
6.0619
 10
66.9811
 20
6.0619
 10
66.9471
 20
6.0619
 10
66.8567
 20
6.0619
 10
66.7324
 20
6.0619
 10
66.608
 20
6.0619
 10
66.4836
 20
6.0619
 10
66.3592
 20
6.0619
 10
66.2348
 20
6.0619
 10
66.1104
 20
6.0619
 10
65.9861
 20
6.0619
 10
65.8617
 20
6.0619
 10
65.7373
 20
6.0619
 10
65.6129
 20
6.0619
 10
65.4885
 20
6.0619
 10
65.3641
 20
6.0619
 10
65.2398
 20
6.0619
 10
65.1154
 20
6.0619
 10
64.991
 20
6.0619
 10
64.8666
 20
6.0619
 10
64.7422
 20
6.0619
 10
64.6178
 20
6.0619
 10
64.4935
 20
6.0619
 10
64.3691
 20
6.0619
 10
64.2447
 20
6.0619
 10
64.1203
 20
6.0619
 10
63.9959
 20
6.0619
 10
63.8715
 20
6.0619
 10
63.7472
 20
6.0619
 10
63.6228
 20
6.0619
 10
63.4984
 20
6.0619
 10
63.374
 20
6.0619
 10
63.2496
 20
6.0619
 10
63.2496
 20
6.1862
 10
63.2496
 20
6.3106
 10
63.2496
 20
6.435
 10
63.2496
 20
6.5594
 10
63.2496
 20
6.6838
 10
63.2496
 20
6.8082
 10
63.2496
 20
6.9325
 10
63.2496
 20
7.0569
 10
63.2496
 20
7.1813
 10
63.2496
 20
7.3057
 10
63.2496
 20
7.4301
 10
63.2496
 20
7.5545
 10
63.2496
 20
7.6788
 10
63.2496
 20
7.8032
 10
63.2496
 20
7.9276
 10
63.2496
 20
8.052
 10
63.2778
 20
8.1482
 10
63.4021
 20
8.1482
 10
63.5265
 20
8.1482
 10
63.6509
 20
8.1482
 10
63.7753
 20
8.1482
 10
63.8997
 20
8.1482
 10
64.0241
 20
8.1482
 10
64.1484
 20
8.1482
 10
64.2728
 20
8.1482
 10
64.3972
 20
8.1482
 10
64.5216
 20
8.1482
 10
64.646
 20
8.1482
 10
64.7704
 20
8.1482
 10
64.8947
 20
8.1482
 10
65.0191
 20
8.1482
 10
65.1435
 20
8.1482
 10
65.2679
 20
8.1482
 10
65.3923
 20
8.1482
 10
65.5167
 20
8.1482
 10
65.641
 20
8.1482
 10
65.7654
 20
8.1482
 10
65.8898
 20
8.1482
 10
66.0142
 20
8.1482
 10
66.1386
 20
8.1482
 10
66.2629
 20
8.1482
 10
66.3873
 20
8.1482
 10
66.5117
 20
8.1482
 10
66.6361
 20
8.1482
 10
66.7605
 20
8.1482
 10
66.8849
 20
8.1482
 10
66.9471
 20
8.1482
 10
66.9471
 20
8.2379
 10
66.9471
 20
8.4797
 10
66.9471
 20
8.7214
 10
66.9471
 20
8.9632
 10
66.9471
 20
9.205
 10
66.9471
 20
9.4468
 10
66.9471
 20
9.6886
 10
66.9471
 20
9.9303
 10
66.9471
 20
10.1721
 10
66.9471
 20
10.4139
 10
66.9471
 20
10.6557
 10
66.9471
 20
10.8975
 10
66.9471
 20
11.1393
 10
66.9471
 20
11.381
 10
66.9471
 20
11.6228
 10
66.9471
 20
11.8646
 10
66.9471
 20
12.1064
 10
66.9471
 20
12.3482
 10
66.9471
 20
12.5899
 10
66.9471
 20
12.8317
 10
66.9471
 20
13.0735
 10
66.9471
 20
13.3153
 10
66.9471
 20
13.5571
 10
66.9471
 20
13.7988
 10
66.9471
 20
13.8484
 10
66.9403
 20
13.8484
 10
66.7837
 20
13.8484
 10
66.6271
 20
13.8484
 10
66.4705
 20
13.8484
 10
66.3139
 20
13.8484
 10
66.1573
 20
13.8484
 10
66.0007
 20
13.8484
 10
65.8441
 20
13.8484
 10
65.6875
 20
13.8484
 10
65.531
 20
13.8484
 10
65.3744
 20
13.8484
 10
65.2178
 20
13.8484
 10
65.0612
 20
13.8484
 10
64.9046
 20
13.8484
 10
64.748
 20
13.8484
 10
64.5914
 20
13.8484
 10
64.4348
 20
13.8484
 10
64.2782
 20
13.8484
 10
64.1216
 20
13.8484
 10
63.965
 20
13.8484
 10
63.8084
 20
13.8484
 10
63.8084
 20
14.005
 10
63.8084
 20
14.1616
 10
63.8084
 20
14.3181
 10
63.8084
 20
14.4747
 10
63.8084
 20
14.6313
 10
63.8084
 20
14.7879
 10
63.8084
 20
14.9445
 10
63.8084
 20
15.1011
 10
63.8084
 20
15.2577
 10
63.8084
 20
15.4143
 10
63.8084
 20
15.5709
 10
63.8084
 20
15.7275
 10
63.8084
 20
15.8841
 10
63.9144
 20
15.9347
 10
64.0709
 20
15.9347
 10
64.2275
 20
15.9347
 10
64.3841
 20
15.9347
 10
64.5407
 20
15.9347
 10
64.6973
 20
15.9347
 10
64.8539
 20
15.9347
 10
65.0105
 20
15.9347
 10
65.1671
 20
15.9347
 10
65.3237
 20
15.9347
 10
65.4803
 20
15.9347
 10
65.6369
 20
15.9347
 10
65.7935
 20
15.9347
 10
65.9501
 20
15.9347
 10
66.1067
 20
15.9347
 10
66.2633
 20
15.9347
 10
66.4198
 20
15.9347
 10
66.5764
 20
15.9347
 10
66.733
 20
15.9347
 10
66.8896
 20
15.9347
 10
67.0462
 20
15.9347
 10
67.2028
 20
15.9347
 10
67.3594
 20
15.9347
 10
67.516
 20
15.9347
 10
67.6726
 20
15.9347
 10
67.8292
 20
15.9347
 10
67.9858
 20
15.9347
 10
68.1424
 20
15.9347
 10
68.299
 20
15.9347
 10
68.4556
 20
15.9347
 10
68.6122
 20
15.9347
 10
68.7687
 20
15.9347
 10
68.9253
 20
15.9347
 10
69.0819
 20
15.9347
 10
69.2385
 20
15.9347
 10
69.2385
 20
15.7782
  0
LWPOLYLINE
  5
51
330
17
100
AcDbEntity
  8
OUTLINE
100
AcDbPolyline
 90
246
 70
1
 10
30.1314
 20
19.2877
 10
30.2163
 20
19.2877
 10
30.3608
 20
19.2877
 10
30.5386
 20
19.2877
 10
30.5901
 20
19.2877
 10
30.8195
 20
19.2877
 10
30.8609
 20
19.2877
 10
31.0488
 20
19.2877
 10
31.1832
 20
19.2877
 10
31.2782
 20
19.2877
 10
31.5055
 20
19.2877
 10
31.5075
 20
19.2877
 10
31.7369
 20
19.2877
 10
31.8278
 20
19.2877
 10
31.9663
 20
19.2877
 10
32.1501
 20
19.2877
 10
32.1956
 20
19.2877
 10
32.425
 20
19.2877
 10
32.6543
 20
19.2877
 10
32.8837
 20
19.2877
 10
33.1131
 20
19.2877
 10
33.3424
 20
19.2877
 10
33.5718
 20
19.2877
 10
33.8011
 20
19.2877
 10
34.0305
 20
19.2877
 10
34.2599
 20
19.2877
 10
34.4892
 20
19.2877
 10
34.7186
 20
19.2877
 10
34.9479
 20
19.2877
 10
35.1773
 20
19.2877
 10
35.4066
 20
19.2877
 10
35.636
 20
19.2877
 10
35.8654
 20
19.2877
 10
36.0947
 20
19.2877
 10
36.3241
 20
19.2877
 10
36.5534
 20
19.2877
 10
36.7828
 20
19.2877
 10
37.0122
 20
19.2877
 10
37.2415
 20
19.2877
 10
37.4709
 20
19.2877
 10
37.7002
 20
19.2877
 10
37.9296
 20
19.2877
 10
38.1589
 20
19.2877
 10
38.3883
 20
19.2877
 10
38.6177
 20
19.2877
 10
38.847
 20
19.2877
 10
38.847
 20
19.0584
 10
38.847
 20
18.829
 10
38.847
 20
18.5996
 10
38.847
 20
18.3703
 10
38.847
 20
18.1409
 10
38.847
 20
17.9116
 10
38.847
 20
17.6822
 10
38.847
 20
17.4529
 10
38.847
 20
17.2235
 10
38.6211
 20
17.2201
 10
38.3917
 20
17.2201
 10
38.1624
 20
17.2201
 10
37.933
 20
17.2201
 10
37.7036
 20
17.2201
 10
37.4743
 20
17.2201
 10
37.2449
 20
17.2201
 10
37.0156
 20
17.2201
 10
36.7862
 20
17.2201
 10
36.5569
 20
17.2201
 10
36.3275
 20
17.2201
 10
36.0981
 20
17.2201
 10
35.8688
 20
17.2201
 10
35.6394
 20
17.2201
 10
35.4101
 20
17.2201
 10
35.1807
 20
17.2201
 10
34.9513
 20
17.2201
 10
34.722
 20
17.2201
 10
34.4926
 20
17.2201
 10
34.2633
 20
17.2201
 10
34.0339
 20
17.2201
 10
33.8045
 20
17.2201
 10
33.5752
 20
17.2201
 10
33.3458
 20
17.2201
 10
33.1165
 20
17.2201
 10
32.8871
 20
17.2201
 10
32.6578
 20
17.2201
 10
32.4284
 20
17.2201
 10
32.199
 20
17.2201
 10
32.1501
 20
17.2201
 10
32.1501
 20
17.0316
 10
32.1501
 20
16.7093
 10
32.1501
 20
16.387
 10
32.1501
 20
16.0647
 10
32.1501
 20
15.7424
 10
32.1501
 20
15.4201
 10
32.1501
 20
15.0978
 10
32.1501
 20
14.7755
 10
32.1501
 20
14.4532
 10
32.1501
 20
14.1309
 10
32.1501
 20
13.8086
 10
32.1501
 20
13.4863
 10
32.1501
 20
13.1683
 10
32.2602
 20
13.1683
 10
32.4529
 20
13.1683
 10
32.6455
 20
13.1683
 10
32.8382
 20
13.1683
 10
33.0309
 20
13.1683
 10
33.2236
 20
13.1683
 10
33.4163
 20
13.1683
 10
33.6089
 20
13.1683
 10
33.8016
 20
13.1683
 10
33.9943
 20
13.1683
 10
34.187
 20
13.1683
 10
34.3797
 20
13.1683
 10
34.5723
 20
13.1683
 10
34.765
 20
13.1683
 10
34.9577
 20
13.1683
 10
35.1504
 20
13.1683
 10
35.3431
 20
13.1683
 10
35.5357
 20
13.1683
 10
35.7284
 20
13.1683
 10
35.9211
 20
13.1683
 10
36.1138
 20
13.1683
 10
36.3065
 20
13.1683
 10
36.4991
 20
13.1683
 10
36.6918
 20
13.1683
 10
36.8845
 20
13.1683
 10
37.0772
 20
13.1683
 10
37.0772
 20
12.9757
 10
37.0772
 20
12.783
 10
37.0772
 20
12.5903
 10
37.0772
 20
12.3976
 10
37.0772
 20
12.2049
 10
37.0772
 20
12.0123
 10
37.0772
 20
11.8196
 10
37.0772
 20
11.6269
 10
37.0772
 20
11.4342
 10
37.0772
 20
11.2415
 10
37.0346
 20
11.0914
 10
36.8419
 20
11.0914
 10
36.6492
 20
11.0914
 10
36.4566
 20
11.0914
 10
36.2639
 20
11.0914
 10
36.0712
 20
11.0914
 10
35.8785
 20
11.0914
 10
35.6858
 20
11.0914
 10
35.4932
 20
11.0914
 10
35.3005
 20
11.0914
 10
35.1078
 20
11.0914
 10
34.9151
 20
11.0914
 10
34.7224
 20
11.0914
 10
34.5298
 20
11.0914
 10
34.3371
 20
11.0914
 10
34.1444
 20
11.0914
 10
33.9517
 20
11.0914
 10
33.759
 20
11.0914
 10
33.5664
 20
11.0914
 10
33.3737
 20
11.0914
 10
33.181
 20
11.0914
 10
32.9883
 20
11.0914
 10
32.7957
 20
11.0914
 10
32.603
 20
11.0914
 10
32.4103
 20
11.0914
 10
32.2176
 20
11.0914
 10
32.1501
 20
11.0914
 10
32.1501
 20
10.9079
 10
32.1501
 20
10.5856
 10
32.1501
 20
10.2633
 10
32.1501
 20
9.941
 10
32.1501
 20
9.6187
 10
32.1501
 20
9.2963
 10
32.1501
 20
8.974
 10
32.1501
 20
8.6517
 10
32.1501
 20
8.3294
 10
32.1501
 20
8.0071
 10
32.1501
 20
7.6848
 10
32.1501
 20
7.3625
 10
32.1501
 20
7.0402
 10
32.1501
 20
6.7179
 10
32.1501
 20
6.3956
 10
32.1501
 20
6.0733
 10
31.8393
 20
6.0619
 10
31.517
 20
6.0619
 10
31.1947
 20
6.0619
 10
30.8724
 20
6.0619
 10
30.5501
 20
6.0619
 10
30.2278
 20
6.0619
 10
29.9055
 20
6.0619
 10
29.9055
 20
6.3842
 10
29.9055
 20
6.7065
 10
29.9055
 20
7.0288
 10
29.9055
 20
7.3511
 10
29.9055
 20
7.6734
 10
29.9055
 20
7.9957
 10
29.9055
 20
8.318
 10
29.9055
 20
8.6403
 10
29.9055
 20
8.9626
 10
29.9055
 20
9.2849
 10
29.9055
 20
9.6072
 10
29.9055
 20
9.9295
 10
29.9055
 20
10.2518
 10
29.9055
 20
10.5741
 10
29.9055
 20
10.8964
 10
29.9055
 20
11.0914
 10
29.9055
 20
11.2187
 10
29.9055
 20
11.2841
 10
29.9055
 20
11.4768
 10
29.9055
 20
11.541
 10
29.9055
 20
11.6695
 10
29.9055
 20
11.8622
 10
29.9055
 20
11.8633
 10
29.9055
 20
12.0548
 10
29.9055
 20
12.1856
 10
29.9055
 20
12.2475
 10
29.9055
 20
12.4402
 10
29.9055
 20
12.5079
 10
29.9055
 20
12.6329
 10
29.9055
 20
12.8256
 10
29.9055
 20
12.8302
 10
29.9055
 20
13.0182
 10
29.9055
 20
13.1525
 10
29.9055
 20
13.4748
 10
29.9055
 20
13.7971
 10
29.9055
 20
14.1194
 10
29.9055
 20
14.4417
 10
29.9055
 20
14.764
 10
29.9055
 20
15.0863
 10
29.9055
 20
15.4086
 10
29.9055
 20
15.7309
 10
29.9055
 20
16.0532
 10
29.9055
 20
16.3755
 10
29.9055
 20
16.6978
 10
29.9055
 20
17.0201
 10
29.9055
 20
17.2201
 10
29.9055
 20
17.3424
 10
29.9055
 20
17.4494
 10
29.9055
 20
17.6647
 10
29.9055
 20
17.6788
 10
29.9055
 20
17.9082
 10
29.9055
 20
17.987
 10
29.9055
 20
18.1375
 10
29.9055
 20
18.3094
 10
29.9055
 20
18.3669
 10
29.9055
 20
18.5962
 10
29.9055
 20
18.6317
 10
29.9055
 20
18.8256
 10
29.9055
 20
18.954
 10
29.9055
 20
19.055
 10
29.9055
 20
19.2763
 10
29.9055
 20
19.2843
  0
LWPOLYLINE
  5
52
330
17
100
AcDbEntity
  8
OUTLINE
100
AcDbPolyline
 90
192
 70
1
 10
68.1083
 20
17.3628
 10
68.0544
 20
17.3606
 10
67.9997
 20
17.3598
 10
67.945
 20
17.3606
 10
67.8911
 20
17.3628
 10
67.838
 20
17.3665
 10
67.7857
 20
17.3717
 10
67.7343
 20
17.3784
 10
67.6836
 20
17.3866
 10
67.6338
 20
17.3963
 10
67.5847
 20
17.4074
 10
67.5365
 20
17.4201
 10
67.489
 20
17.4342
 10
67.4424
 20
17.4498
 10
67.3966
 20
17.4669
 10
67.3516
 20
17.4855
 10
67.3074
 20
17.5056
 10
67.264
 20
17.5271
 10
67.2214
 20
17.5502
 10
67.1797
 20
17.5747
 10
67.1387
 20
17.6008
 10
67.0985
 20
17.6283
 10
67.0592
 20
17.6573
 10
67.0207
 20
17.6878
 10
66.9829
 20
17.7197
 10
66.946
 20
17.7532
 10
66.9099
 20
17.7881
 10
66.8749
 20
17.8242
 10
66.8415
 20
17.8612
 10
66.8095
 20
17.8989
 10
66.779
 20
17.9374
 10
66.75
 20
17.9768
 10
66.7225
 20
18.0169
 10
66.6965
 20
18.0579
 10
66.6719
 20
18.0997
 10
66.6489
 20
18.1423
 10
66.6273
 20
18.1856
 10
66.6073
 20
18.2298
 10
66.5887
 20
18.2748
 10
66.5716
 20
18.3207
 10
66.556
 20
18.3673
 10
66.5418
 20
18.4147
 10
66.5292
 20
18.4629
 10
66.518
 20
18.512
 10
66.5084
 20
18.5618
 10
66.5002
 20
18.6125
 10
66.4935
 20
18.664
 10
66.4883
 20
18.7163
 10
66.4846
 20
18.7693
 10
66.4823
 20
18.8232
 10
66.4816
 20
18.8779
 10
66.4823
 20
18.9326
 10
66.4846
 20
18.9865
 10
66.4883
 20
19.0396
 10
66.4935
 20
19.0919
 10
66.5002
 20
19.1434
 10
66.5084
 20
19.194
 10
66.518
 20
19.2439
 10
66.5292
 20
19.2929
 10
66.5418
 20
19.3412
 10
66.556
 20
19.3886
 10
66.5716
 20
19.4352
 10
66.5887
 20
19.481
 10
66.6073
 20
19.526
 10
66.6273
 20
19.5702
 10
66.6489
 20
19.6136
 10
66.6719
 20
19.6562
 10
66.6965
 20
19.698
 10
66.7225
 20
19.7389
 10
66.75
 20
19.7791
 10
66.779
 20
19.8185
 10
66.8095
 20
19.857
 10
66.8415
 20
19.8947
 10
66.8749
 20
19.9316
 10
66.9099
 20
19.9678
 10
66.946
 20
20.0027
 10
66.9829
 20
20.0362
 10
67.0207
 20
20.0681
 10
67.0592
 20
20.0986
 10
67.0985
 20
20.1276
 10
67.1387
 20
20.1551
 10
67.1797
 20
20.1812
 10
67.2214
 20
20.2057
 10
67.264
 20
20.2287
 10
67.3074
 20
20.2503
 10
67.3516
 20
20.2704
 10
67.3966
 20
20.289
 10
67.4424
 20
20.3061
 10
67.489
 20
20.3217
 10
67.5365
 20
20.3358
 10
67.5847
 20
20.3485
 10
67.6338
 20
20.3596
 10
67.6836
 20
20.3693
 10
67.7343
 20
20.3775
 10
67.7857
 20
20.3842
 10
67.838
 20
20.3894
 10
67.8911
 20
20.3931
 10
67.945
 20
20.3953
 10
67.9997
 20
20.3961
 10
68.0544
 20
20.3953
 10
68.1083
 20
20.3931
 10
68.1614
 20
20.3894
 10
68.2137
 20
20.3842
 10
68.2651
 20
20.3775
 10
68.3158
 20
20.3693
 10
68.3657
 20
20.3596
 10
68.4147
 20
20.3485
 10
68.4629
 20
20.3358
 10
68.5104
 20
20.3217
 10
68.557
 20
20.3061
 10
68.6028
 20
20.289
 10
68.6478
 20
20.2704
 10
68.692
 20
20.2503
 10
68.7354
 20
20.2287
 10
68.778
 20
20.2057
 10
68.8197
 20
20.1812
 10
68.8607
 20
20.1551
 10
68.9009
 20
20.1276
 10
68.9402
 20
20.0986
 10
68.9787
 20
20.0681
 10
69.0165
 20
20.0362
 10
69.0534
 20
20.0027
 10
69.0895
 20
19.9678
 10
69.1245
 20
19.9316
 10
69.1579
 20
19.8947
 10
69.1899
 20
19.857
 10
69.2204
 20
19.8185
 10
69.2494
 20
19.7791
 10
69.2769
 20
19.7389
 10
69.3029
 20
19.698
 10
69.3275
 20
19.6562
 10
69.3505
 20
19.6136
 10
69.3721
 20
19.5702
 10
69.3921
 20
19.526
 10
69.4107
 20
19.481
 10
69.4278
 20
19.4352
 10
69.4435
 20
19.3886
 10
69.4576
 20
19.3412
 10
69.4702
 20
19.2929
 10
69.4814
 20
19.2439
 10
69.491
 20
19.194
 10
69.4992
 20
19.1434
 10
69.5059
 20
19.0919
 10
69.5111
 20
19.0396
 10
69.5148
 20
18.9865
 10
69.5171
 20
18.9326
 10
69.5178
 20
18.8779
 10
69.5171
 20
18.8232
 10
69.5148
 20
18.7693
 10
69.5111
 20
18.7163
 10
69.5059
 20
18.664
 10
69.4992
 20
18.6125
 10
69.491
 20
18.5618
 10
69.4814
 20
18.512
 10
69.4702
 20
18.4629
 10
69.4576
 20
18.4147
 10
69.4435
 20
18.3673
 10
69.4278
 20
18.3207
 10
69.4107
 20
18.2748
 10
69.3921
 20
18.2298
 10
69.3721
 20
18.1856
 10
69.3505
 20
18.1423
 10
69.3275
 20
18.0997
 10
69.3029
 20
18.0579
 10
69.2769
 20
18.0169
 10
69.2494
 20
17.9768
 10
69.2204
 20
17.9374
 10
69.1899
 20
17.8989
 10
69.1579
 20
17.8612
 10
69.1245
 20
17.8242
 10
69.0895
 20
17.7881
 10
69.0534
 20
17.7532
 10
69.0165
 20
17.7197
 10
68.9787
 20
17.6878
 10
68.9402
 20
17.6573
 10
68.9009
 20
17.6283
 10
68.8607
 20
17.6008
 10
68.8197
 20
17.5747
 10
68.778
 20
17.5502
 10
68.7354
 20
17.5271
 10
68.692
 20
17.5056
 10
68.6478
 20
17.4855
 10
68.6028
 20
17.4669
 10
68.557
 20
17.4498
 10
68.5104
 20
17.4342
 10
68.4629
 20
17.4201
 10
68.4147
 20
17.4074
 10
68.3657
 20
17.3963
 10
68.3158
 20
17.3866
 10
68.2651
 20
17.3784
 10
68.2137
 20
17.3717
 10
68.1614
 20
17.3665
  0
LWPOLYLINE
  5
53
330
17
100
AcDbEntity
  8
OUTLINE
100
AcDbPolyline
 90
329
 70
1
 10
110.3051
 20
14.1464
 10
110.3082
 20
14.1464
 10
110.4044
 20
14.1464
 10
110.4696
 20
14.1895
 10
110.49
 20
14.2957
 10
110.5135
 20
14.399
 10
110.54
 20
14.4994
 10
110.5695
 20
14.5967
 10
110.602
 20
14.6912
 10
110.6375
 20
14.7827
 10
110.6759
 20
14.8713
 10
110.7174
 20
14.9569
 10
110.7619
 20
15.0396
 10
110.8094
 20
15.1194
 10
110.8599
 20
15.1962
 10
110.9134
 20
15.2701
 10
110.9699
 20
15.341
 10
111.0293
 20
15.409
 10
111.0918
 20
15.474
 10
111.1573
 20
15.5362
 10
111.2258
 20
15.5953
 10
111.2935
 20
15.6486
 10
111.3614
 20
15.6973
 10
111.4319
 20
15.7433
 10
111.5051
 20
15.7867
 10
111.5809
 20
15.8275
 10
111.6594
 20
15.8655
 10
111.7405
 20
15.901
 10
111.8243
 20
15.9338
 10
111.9107
 20
15.9639
 10
111.9998
 20
15.9914
 10
112.0915
 20
16.0163
 10
112.1858
 20
16.0385
 10
112.2828
 20
16.0581
 10
112.3824
 20
16.075
 10
112.4847
 20
16.0893
 10
112.5896
 20
16.1009
 10
112.6972
 20
16.1099
 10
112.8074
 20
16.1163
 10
112.9203
 20
16.1199
 10
113.035
 20
16.121
 10
113.1437
 20
16.1196
 10
113.2509
 20
16.1161
 10
113.3566
 20
16.1102
 10
113.4609
 20
16.1022
 10
113.5636
 20
16.0919
 10
113.6649
 20
16.0793
 10
113.7647
 20
16.0646
 10
113.8631
 20
16.0476
 10
113.9599
 20
16.0283
 10
114.0553
 20
16.0068
 10
114.1492
 20
15.9831
 10
114.2416
 20
15.9572
 10
114.3326
 20
15.929
 10
114.4221
 20
15.8986
 10
114.51
 20
15.8659
 10
114.5966
 20
15.831
 10
114.6816
 20
15.7938
 10
114.7651
 20
15.7545
 10
114.8472
 20
15.7129
 10
114.9278
 20
15.669
 10
115.007
 20
15.6229
 10
115.0846
 20
15.5746
 10
115.1608
 20
15.5241
 10
115.2355
 20
15.4713
 10
115.3087
 20
15.4162
 10
115.3804
 20
15.359
 10
115.4507
 20
15.2995
 10
115.5194
 20
15.2377
 10
115.5867
 20
15.1737
 10
115.6526
 20
15.1075
 10
115.7169
 20
15.0391
 10
115.7798
 20
14.9684
 10
115.8412
 20
14.8955
 10
115.9011
 20
14.8203
 10
115.9534
 20
14.7512
 10
116.0002
 20
14.6863
 10
116.046
 20
14.6201
 10
116.0906
 20
14.5525
 10
116.134
 20
14.4836
 10
116.1763
 20
14.4134
 10
116.2174
 20
14.3418
 10
116.2574
 20
14.2689
 10
116.2963
 20
14.1947
 10
116.334
 20
14.1192
 10
116.3705
 20
14.0423
 10
116.406
 20
13.9641
 10
116.4402
 20
13.8845
 10
116.4733
 20
13.8036
 10
116.5053
 20
13.7214
 10
116.5361
 20
13.6379
 10
116.5658
 20
13.553
 10
116.5944
 20
13.4668
 10
116.6217
 20
13.3793
 10
116.648
 20
13.2904
 10
116.6731
 20
13.2002
 10
116.697
 20
13.1087
 10
116.7198
 20
13.0158
 10
116.7415
 20
12.9216
 10
116.762
 20
12.8261
 10
116.7814
 20
12.7293
 10
116.7996
 20
12.6311
 10
116.8167
 20
12.5316
 10
116.8326
 20
12.4307
 10
116.8474
 20
12.3286
 10
116.861
 20
12.2251
 10
116.8735
 20
12.1202
 10
116.8848
 20
12.0141
 10
116.895
 20
11.9066
 10
116.9041
 20
11.7977
 10
116.912
 20
11.6876
 10
116.9187
 20
11.5761
 10
116.9244
 20
11.4633
 10
116.9288
 20
11.3491
 10
116.9321
 20
11.2336
 10
116.9343
 20
11.1168
 10
116.9353
 20
10.9987
 10
116.9352
 20
10.8796
 10
116.9339
 20
10.7618
 10
116.9314
 20
10.6452
 10
116.9277
 20
10.5301
 10
116.9229
 20
10.4163
 10
116.9168
 20
10.3038
 10
116.9096
 20
10.1928
 10
116.9012
 20
10.083
 10
116.8916
 20
9.9747
 10
116.8809
 20
9.8677
 10
116.8689
 20
9.7621
 10
116.8558
 20
9.6578
 10
116.8415
 20
9.5549
 10
116.826
 20
9.4534
 10
116.8093
 20
9.3532
 10
116.7915
 20
9.2544
 10
116.7724
 20
9.1569
 10
116.7522
 20
9.0608
 10
116.7308
 20
8.9661
 10
116.7082
 20
8.8727
 10
116.6844
 20
8.7807
 10
116.6595
 20
8.69
 10
116.6334
 20
8.6008
 10
116.6061
 20
8.5128
 10
116.5776
 20
8.4263
 10
116.5479
 20
8.3411
 10
116.517
 20
8.2572
 10
116.485
 20
8.1748
 10
116.4517
 20
8.0936
 10
116.4173
 20
8.0139
 10
116.3817
 20
7.9355
 10
116.345
 20
7.8585
 10
116.307
 20
7.7828
 10
116.2679
 20
7.7085
 10
116.2276
 20
7.6356
 10
116.1861
 20
7.564
 10
116.1434
 20
7.4938
 10
116.0995
 20
7.4249
 10
116.0545
 20
7.3574
 10
116.0082
 20
7.2913
 10
115.9608
 20
7.2265
 10
115.9096
 20
7.1597
 10
115.8495
 20
7.0853
 10
115.7878
 20
7.0131
 10
115.7248
 20
6.9431
 10
115.6602
 20
6.8754
 10
115.5941
 20
6.8098
 10
115.5266
 20
6.7465
 10
115.4575
 20
6.6854
 10
115.387
 20
6.6265
 10
115.315
 20
6.5699
 10
115.2415
 20
6.5154
 10
115.1666
 20
6.4632
 10
115.0901
 20
6.4132
 10
115.0122
 20
6.3655
 10
114.9328
 20
6.3199
 10
114.8519
 20
6.2766
 10
114.7695
 20
6.2355
 10
114.6856
 20
6.1966
 10
114.6003
 20
6.16
 10
114.5135
 20
6.1255
 10
114.4251
 20
6.0933
 10
114.3353
 20
6.0633
 10
114.244
 20
6.0356
 10
114.1513
 20
6.01
 10
114.057
 20
5.9867
 10
113.9613
 20
5.9656
 10
113.8641
 20
5.9467
 10
113.7654
 20
5.93
 10
113.6652
 20
5.9156
 10
113.5635
 20
5.9034
 10
113.4604
 20
5.8934
 10
113.3557
 20
5.8856
 10
113.2496
 20
5.88
 10
113.142
 20
5.8767
 10
113.0329
 20
5.8756
 10
112.9214
 20
5.877
 10
112.8122
 20
5.8812
 10
112.7054
 20
5.8881
 10
112.6008
 20
5.8979
 10
112.4986
 20
5.9104
 10
112.3987
 20
5.9257
 10
112.3011
 20
5.9438
 10
112.2058
 20
5.9646
 10
112.1128
 20
5.9883
 10
112.0222
 20
6.0147
 10
111.9339
 20
6.0439
 10
111.8479
 20
6.0759
 10
111.7642
 20
6.1107
 10
111.6828
 20
6.1483
 10
111.6038
 20
6.1886
 10
111.5271
 20
6.2318
 10
111.4526
 20
6.2777
 10
111.3805
 20
6.3264
 10
111.3108
 20
6.3779
 10
111.2392
 20
6.4357
 10
111.1708
 20
6.4966
 10
111.1058
 20
6.5604
 10
111.044
 20
6.6271
 10
110.9855
 20
6.6968
 10
110.9303
 20
6.7694
 10
110.8784
 20
6.8449
 10
110.8298
 20
6.9234
 10
110.7845
 20
7.0049
 10
110.7425
 20
7.0892
 10
110.7038
 20
7.1766
 10
110.6683
 20
7.2668
 10
110.6362
 20
7.36
 10
110.6074
 20
7.4561
 10
110.5818
 20
7.5552
 10
110.5595
 20
7.6572
 10
110.5406
 20
7.7622
 10
110.51
 20
7.8502
 10
110.4138
 20
7.8502
 10
110.3317
 20
7.8502
 10
110.3317
 20
7.6613
 10
110.3317
 20
7.3885
 10
110.3317
 20
7.1157
 10
110.3317
 20
6.8429
 10
110.3317
 20
6.5701
 10
110.3317
 20
6.2973
 10
110.3317
 20
6.0245
 10
110.3317
 20
5.7516
 10
110.3317
 20
5.4788
 10
110.3317
 20
5.206
 10
110.3317
 20
4.9332
 10
110.3317
 20
4.6604
 10
110.3317
 20
4.3876
 10
110.3317
 20
4.1148
 10
110.3317
 20
3.8419
 10
110.3317
 20
3.5691
 10
110.3317
 20
3.2963
 10
110.3317
 20
3.0235
 10
110.3317
 20
2.7507
 10
110.3317
 20
2.4779
 10
110.3317
 20
2.2051
 10
110.3317
 20
1.9322
 10
110.2138
 20
1.7773
 10
109.941
 20
1.7773
 10
109.6682
 20
1.7773
 10
109.3954
 20
1.7773
 10
109.1226
 20
1.7773
 10
108.8498
 20
1.7773
 10
108.577
 20
1.7773
 10
108.3041
 20
1.7773
 10
108.0313
 20
1.7773
 10
108.0313
 20
2.0502
 10
108.0313
 20
2.323
 10
108.0313
 20
2.5958
 10
108.0313
 20
2.8686
 10
108.0313
 20
3.1414
 10
108.0313
 20
3.4142
 10
108.0313
 20
3.687
 10
108.0313
 20
3.9598
 10
108.0313
 20
4.2327
 10
108.0313
 20
4.5055
 10
108.0313
 20
4.7783
 10
108.0313
 20
5.0511
 10
108.0313
 20
5.3239
 10
108.0313
 20
5.5967
 10
108.0313
 20
5.8695
 10
108.0313
 20
6.1424
 10
108.0313
 20
6.4152
 10
108.0313
 20
6.688
 10
108.0313
 20
6.9608
 10
108.0313
 20
7.2336
 10
108.0313
 20
7.5064
 10
108.0313
 20
7.7792
 10
108.0313
 20
8.0521
 10
108.0313
 20
8.3249
 10
108.0313
 20
8.5977
 10
108.0313
 20
8.8705
 10
108.0313
 20
9.1433
 10
108.0313
 20
9.4161
 10
108.0313
 20
9.6889
 10
108.0313
 20
9.9618
 10
108.0313
 20
10.2346
 10
108.0313
 20
10.5074
 10
108.0313
 20
10.7802
 10
108.0313
 20
11.053
 10
108.0313
 20
11.3258
 10
108.0313
 20
11.5986
 10
108.0313
 20
11.8715
 10
108.0313
 20
12.1443
 10
108.0313
 20
12.4171
 10
108.0313
 20
12.6899
 10
108.0313
 20
12.9627
 10
108.0313
 20
13.2355
 10
108.0313
 20
13.5083
 10
108.0313
 20
13.7812
 10
108.0313
 20
14.054
 10
108.0313
 20
14.3268
 10
108.0313
 20
14.5996
 10
108.0313
 20
14.8724
 10
108.0313
 20
15.1452
 10
108.0313
 20
15.418
 10
108.0313
 20
15.6909
 10
108.0602
 20
15.9347
 10
108.3331
 20
15.9347
 10
108.6059
 20
15.9347
 10
108.8787
 20
15.9347
 10
109.1515
 20
15.9347
 10
109.4243
 20
15.9347
 10
109.6971
 20
15.9347
 10
109.9699
 20
15.9347
 10
110.1541
 20
15.8379
 10
110.1784
 20
15.5661
 10
110.2026
 20
15.2944
 10
110.2269
 20
15.0227
 10
110.2512
 20
14.7509
 10
110.2754
 20
14.4792
 10
110.2997
 20
14.2075
  0
LWPOLYLINE
  5
54
330
17
100
AcDbEntity
  8
OUTLINE
100
AcDbPolyline
 90
177
 70
1
 10
110.3317
 20
11.2164
 10
110.3317
 20
11.2079
 10
110.3317
 20
10.9351
 10
110.3317
 20
10.8439
 10
110.3318
 20
10.8439
 10
110.3329
 20
10.7209
 10
110.3358
 20
10.6006
 10
110.3404
 20
10.4831
 10
110.3469
 20
10.3683
 10
110.3552
 20
10.2562
 10
110.3652
 20
10.1469
 10
110.3771
 20
10.0403
 10
110.3907
 20
9.9365
 10
110.4062
 20
9.8354
 10
110.4234
 20
9.737
 10
110.4424
 20
9.6414
 10
110.4632
 20
9.5486
 10
110.4858
 20
9.4585
 10
110.5101
 20
9.3711
 10
110.5363
 20
9.2865
 10
110.5643
 20
9.2046
 10
110.594
 20
9.1254
 10
110.6256
 20
9.049
 10
110.6589
 20
8.9753
 10
110.694
 20
8.9044
 10
110.7309
 20
8.8362
 10
110.7696
 20
8.7708
 10
110.8101
 20
8.7081
 10
110.8579
 20
8.6408
 10
110.9137
 20
8.5704
 10
110.9728
 20
8.5039
 10
111.0354
 20
8.4413
 10
111.1013
 20
8.3827
 10
111.1706
 20
8.3279
 10
111.2432
 20
8.277
 10
111.3193
 20
8.2301
 10
111.3987
 20
8.1871
 10
111.4815
 20
8.1479
 10
111.5676
 20
8.1127
 10
111.6571
 20
8.0814
 10
111.75
 20
8.054
 10
111.8463
 20
8.0305
 10
111.9459
 20
8.011
 10
112.0489
 20
7.9953
 10
112.1553
 20
7.9835
 10
112.265
 20
7.9757
 10
112.3781
 20
7.9717
 10
112.491
 20
7.9717
 10
112.5989
 20
7.9757
 10
112.704
 20
7.9837
 10
112.8063
 20
7.9958
 10
112.9059
 20
8.0119
 10
113.0026
 20
8.032
 10
113.0966
 20
8.0561
 10
113.1878
 20
8.0843
 10
113.2762
 20
8.1164
 10
113.3618
 20
8.1526
 10
113.4447
 20
8.1929
 10
113.5247
 20
8.2371
 10
113.602
 20
8.2854
 10
113.6765
 20
8.3378
 10
113.7482
 20
8.3941
 10
113.8172
 20
8.4545
 10
113.8833
 20
8.5189
 10
113.9467
 20
8.5873
 10
114.0072
 20
8.6597
 10
114.0635
 20
8.7341
 10
114.1077
 20
8.7979
 10
114.15
 20
8.8642
 10
114.1904
 20
8.9329
 10
114.229
 20
9.004
 10
114.2657
 20
9.0776
 10
114.3005
 20
9.1537
 10
114.3334
 20
9.2322
 10
114.3645
 20
9.3131
 10
114.3937
 20
9.3964
 10
114.421
 20
9.4823
 10
114.4465
 20
9.5705
 10
114.4701
 20
9.6612
 10
114.4918
 20
9.7544
 10
114.5116
 20
9.8499
 10
114.5296
 20
9.948
 10
114.5457
 20
10.0485
 10
114.5599
 20
10.1514
 10
114.5722
 20
10.2567
 10
114.5827
 20
10.3645
 10
114.5913
 20
10.4748
 10
114.598
 20
10.5875
 10
114.6029
 20
10.7026
 10
114.6059
 20
10.8202
 10
114.607
 20
10.9402
 10
114.6063
 20
11.0596
 10
114.6037
 20
11.1765
 10
114.5993
 20
11.2912
 10
114.5932
 20
11.4036
 10
114.5851
 20
11.5137
 10
114.5753
 20
11.6216
 10
114.5637
 20
11.7272
 10
114.5502
 20
11.8305
 10
114.535
 20
11.9316
 10
114.5179
 20
12.0304
 10
114.499
 20
12.1269
 10
114.4783
 20
12.2211
 10
114.4557
 20
12.3131
 10
114.4314
 20
12.4028
 10
114.4052
 20
12.4902
 10
114.3773
 20
12.5754
 10
114.3475
 20
12.6583
 10
114.3158
 20
12.7389
 10
114.2824
 20
12.8172
 10
114.2472
 20
12.8933
 10
114.2101
 20
12.9671
 10
114.1712
 20
13.0387
 10
114.1305
 20
13.1079
 10
114.088
 20
13.1749
 10
114.0425
 20
13.2413
 10
113.9836
 20
13.3202
 10
113.922
 20
13.3948
 10
113.8579
 20
13.4653
 10
113.7911
 20
13.5316
 10
113.7217
 20
13.5938
 10
113.6498
 20
13.6517
 10
113.5752
 20
13.7055
 10
113.4981
 20
13.7551
 10
113.4183
 20
13.8005
 10
113.3359
 20
13.8418
 10
113.2509
 20
13.8788
 10
113.1633
 20
13.9117
 10
113.0732
 20
13.9405
 10
112.9804
 20
13.965
 10
112.885
 20
13.9854
 10
112.787
 20
14.0016
 10
112.6864
 20
14.0136
 10
112.5832
 20
14.0214
 10
112.4774
 20
14.0251
 10
112.3678
 20
14.0246
 10
112.2595
 20
14.02
 10
112.1541
 20
14.0113
 10
112.0516
 20
13.9986
 10
111.9521
 20
13.9818
 10
111.8555
 20
13.9609
 10
111.7618
 20
13.9359
 10
111.6711
 20
13.9068
 10
111.5832
 20
13.8737
 10
111.4984
 20
13.8364
 10
111.4164
 20
13.7951
 10
111.3374
 20
13.7498
 10
111.2614
 20
13.7003
 10
111.1882
 20
13.6468
 10
111.118
 20
13.5891
 10
111.0508
 20
13.5274
 10
110.9864
 20
13.4616
 10
110.9251
 20
13.3918
 10
110.8666
 20
13.3178
 10
110.8219
 20
13.2556
 10
110.7799
 20
13.1918
 10
110.7398
 20
13.1253
 10
110.7015
 20
13.0561
 10
110.6652
 20
12.9842
 10
110.6307
 20
12.9096
 10
110.5981
 20
12.8323
 10
110.5674
 20
12.7523
 10
110.5385
 20
12.6697
 10
110.5116
 20
12.5843
 10
110.4865
 20
12.4963
 10
110.4633
 20
12.4056
 10
110.442
 20
12.3122
 10
110.4226
 20
12.2161
 10
110.405
 20
12.1173
 10
110.3894
 20
12.0158
 10
110.3756
 20
11.9116
 10
110.3637
 20
11.8047
 10
110.3537
 20
11.6952
 10
110.3455
 20
11.5829
 10
110.3393
 20
11.468
 10
110.3349
 20
11.3504
 10
110.3324
 20
11.2301
  0
LWPOLYLINE
  5
55
330
17
100
AcDbEntity
  8
OUTLINE
100
AcDbPolyline
 90
562
 70
1
 10
125.101
 20
8.0165
 10
125.0948
 20
8.1189
 10
125.093
 20
8.1482
 10
125.0316
 20
8.1482
 10
124.9636
 20
8.1482
 10
124.8956
 20
8.1482
 10
124.8806
 20
8.1482
 10
124.8742
 20
8.0902
 10
124.8648
 20
8.0188
 10
124.8539
 20
7.9485
 10
124.8416
 20
7.8794
 10
124.8277
 20
7.8115
 10
124.8125
 20
7.7447
 10
124.7957
 20
7.6791
 10
124.7775
 20
7.6147
 10
124.7578
 20
7.5514
 10
124.7366
 20
7.4893
 10
124.714
 20
7.4284
 10
124.6899
 20
7.3686
 10
124.6644
 20
7.3099
 10
124.6373
 20
7.2525
 10
124.6088
 20
7.1962
 10
124.5789
 20
7.141
 10
124.5475
 20
7.087
 10
124.5146
 20
7.0342
 10
124.4782
 20
6.9796
 10
124.4394
 20
6.9248
 10
124.3991
 20
6.8714
 10
124.3573
 20
6.8195
 10
124.314
 20
6.7689
 10
124.2693
 20
6.7197
 10
124.2232
 20
6.6719
 10
124.1755
 20
6.6256
 10
124.1264
 20
6.5806
 10
124.0758
 20
6.537
 10
124.0238
 20
6.4948
 10
123.9702
 20
6.454
 10
123.9153
 20
6.4147
 10
123.8588
 20
6.3767
 10
123.8009
 20
6.3401
 10
123.7415
 20
6.305
 10
123.6806
 20
6.2712
 10
123.6183
 20
6.2388
 10
123.5545
 20
6.2078
 10
123.4892
 20
6.1783
 10
123.4264
 20
6.1517
 10
123.3698
 20
6.1292
 10
123.3123
 20
6.1076
 10
123.254
 20
6.087
 10
123.1948
 20
6.0673
 10
123.1347
 20
6.0486
 10
123.0737
 20
6.0309
 10
123.0118
 20
6.0141
 10
122.949
 20
5.9983
 10
122.8854
 20
5.9834
 10
122.8209
 20
5.9695
 10
122.7555
 20
5.9566
 10
122.6892
 20
5.9446
 10
122.6221
 20
5.9336
 10
122.554
 20
5.9235
 10
122.4851
 20
5.9144
 10
122.4153
 20
5.9063
 10
122.3446
 20
5.8991
 10
122.2731
 20
5.8928
 10
122.2006
 20
5.8876
 10
122.1273
 20
5.8833
 10
122.0531
 20
5.8799
 10
121.978
 20
5.8775
 10
121.9021
 20
5.8761
 10
121.8252
 20
5.8756
 10
121.7439
 20
5.8761
 10
121.6635
 20
5.8777
 10
121.5841
 20
5.8803
 10
121.5056
 20
5.8839
 10
121.4281
 20
5.8886
 10
121.3516
 20
5.8944
 10
121.276
 20
5.9012
 10
121.2014
 20
5.909
 10
121.1278
 20
5.9179
 10
121.0551
 20
5.9278
 10
120.9833
 20
5.9388
 10
120.9126
 20
5.9508
 10
120.8428
 20
5.9638
 10
120.7739
 20
5.9779
 10
120.706
 20
5.9931
 10
120.6391
 20
6.0093
 10
120.5732
 20
6.0265
 10
120.5082
 20
6.0448
 10
120.4441
 20
6.0641
 10
120.381
 20
6.0845
 10
120.3189
 20
6.1059
 10
120.2578
 20
6.1283
 10
120.1976
 20
6.1518
 10
120.1383
 20
6.1764
 10
120.0801
 20
6.202
 10
120.0228
 20
6.2286
 10
119.9664
 20
6.2563
 10
119.911
 20
6.285
 10
119.8566
 20
6.3148
 10
119.8031
 20
6.3456
 10
119.7506
 20
6.3774
 10
119.6991
 20
6.4103
 10
119.6485
 20
6.4443
 10
119.5989
 20
6.4793
 10
119.5502
 20
6.5153
 10
119.5025
 20
6.5524
 10
119.4558
 20
6.5905
 10
119.41
 20
6.6297
 10
119.3625
 20
6.6724
 10
119.3154
 20
6.7169
 10
119.2697
 20
6.7625
 10
119.2254
 20
6.8091
 10
119.1825
 20
6.8567
 10
119.141
 20
6.9053
 10
119.1008
 20
6.9549
 10
119.062
 20
7.0055
 10
119.0247
 20
7.0572
 10
118.9886
 20
7.1099
 10
118.954
 20
7.1636
 10
118.9208
 20
7.2183
 10
118.8889
 20
7.274
 10
118.8584
 20
7.3307
 10
118.8293
 20
7.3885
 10
118.8016
 20
7.4473
 10
118.7753
 20
7.507
 10
118.7504
 20
7.5678
 10
118.7268
 20
7.6297
 10
118.7046
 20
7.6925
 10
118.6838
 20
7.7564
 10
118.6644
 20
7.8212
 10
118.6463
 20
7.8871
 10
118.6297
 20
7.954
 10
118.6144
 20
8.0219
 10
118.6005
 20
8.0909
 10
118.588
 20
8.1608
 10
118.5769
 20
8.2318
 10
118.5672
 20
8.3038
 10
118.5588
 20
8.3768
 10
118.5518
 20
8.4508
 10
118.5462
 20
8.5258
 10
118.542
 20
8.6019
 10
118.5392
 20
8.6789
 10
118.5377
 20
8.757
 10
118.5376
 20
8.8351
 10
118.5389
 20
8.9116
 10
118.5415
 20
8.9872
 10
118.5453
 20
9.062
 10
118.5505
 20
9.1359
 10
118.557
 20
9.209
 10
118.5649
 20
9.2812
 10
118.574
 20
9.3525
 10
118.5844
 20
9.423
 10
118.5962
 20
9.4927
 10
118.6093
 20
9.5614
 10
118.6237
 20
9.6293
 10
118.6394
 20
9.6964
 10
118.6564
 20
9.7626
 10
118.6747
 20
9.8279
 10
118.6944
 20
9.8924
 10
118.7154
 20
9.956
 10
118.7376
 20
10.0188
 10
118.7612
 20
10.0807
 10
118.7861
 20
10.1417
 10
118.8124
 20
10.2019
 10
118.8399
 20
10.2612
 10
118.8687
 20
10.3197
 10
118.8989
 20
10.3773
 10
118.9304
 20
10.4341
 10
118.9632
 20
10.4899
 10
118.9973
 20
10.545
 10
119.0327
 20
10.5992
 10
119.0694
 20
10.6525
 10
119.1075
 20
10.7049
 10
119.1468
 20
10.7565
 10
119.1875
 20
10.8073
 10
119.2295
 20
10.8571
 10
119.2728
 20
10.9062
 10
119.3174
 20
10.9543
 10
119.3634
 20
11.0016
 10
119.4106
 20
11.0481
 10
119.4592
 20
11.0937
 10
119.5091
 20
11.1384
 10
119.5602
 20
11.1823
 10
119.6128
 20
11.2253
 10
119.6666
 20
11.2674
 10
119.7166
 20
11.305
 10
119.7631
 20
11.3386
 10
119.8103
 20
11.3714
 10
119.8582
 20
11.4036
 10
119.9069
 20
11.4352
 10
119.9564
 20
11.466
 10
120.0065
 20
11.4962
 10
120.0575
 20
11.5257
 10
120.1092
 20
11.5545
 10
120.1616
 20
11.5826
 10
120.2148
 20
11.6101
 10
120.2688
 20
11.6369
 10
120.3235
 20
11.663
 10
120.3789
 20
11.6884
 10
120.4351
 20
11.7132
 10
120.492
 20
11.7372
 10
120.5497
 20
11.7606
 10
120.6082
 20
11.7834
 10
120.6673
 20
11.8054
 10
120.7273
 20
11.8268
 10
120.788
 20
11.8475
 10
120.8494
 20
11.8675
 10
120.9116
 20
11.8868
 10
120.9745
 20
11.9055
 10
121.0382
 20
11.9235
 10
121.1027
 20
11.9408
 10
121.1679
 20
11.9574
 10
121.2338
 20
11.9733
 10
121.3005
 20
11.9886
 10
121.3679
 20
12.0032
 10
121.4361
 20
12.0171
 10
121.5051
 20
12.0304
 10
121.5747
 20
12.0429
 10
121.6452
 20
12.0548
 10
121.7164
 20
12.066
 10
121.7883
 20
12.0765
 10
121.861
 20
12.0864
 10
121.9344
 20
12.0956
 10
122.0086
 20
12.1041
 10
122.0835
 20
12.1119
 10
122.1592
 20
12.119
 10
122.2357
 20
12.1255
 10
122.3128
 20
12.1313
 10
122.3908
 20
12.1364
 10
122.4695
 20
12.1409
 10
122.5489
 20
12.1446
 10
122.6291
 20
12.1477
 10
122.71
 20
12.1501
 10
122.7917
 20
12.1518
 10
122.8741
 20
12.1529
 10
122.9573
 20
12.1533
 10
123.0345
 20
12.1531
 10
123.1105
 20
12.1525
 10
123.1857
 20
12.1515
 10
123.2599
 20
12.1502
 10
123.3333
 20
12.1484
 10
123.4059
 20
12.1462
 10
123.4775
 20
12.1437
 10
123.5483
 20
12.1407
 10
123.6182
 20
12.1374
 10
123.6873
 20
12.1336
 10
123.7554
 20
12.1295
 10
123.8227
 20
12.125
 10
123.8892
 20
12.12
 10
123.9547
 20
12.1147
 10
124.0194
 20
12.109
 10
124.0832
 20
12.1029
 10
124.1462
 20
12.0964
 10
124.2082
 20
12.0894
 10
124.2694
 20
12.0821
 10
124.3298
 20
12.0744
 10
124.3892
 20
12.0663
 10
124.4505
 20
12.0574
 10
124.5194
 20
12.0468
 10
124.5879
 20
12.0356
 10
124.6561
 20
12.0238
 10
124.724
 20
12.0113
 10
124.7916
 20
11.9983
 10
124.8588
 20
11.9846
 10
124.9175
 20
11.9721
 10
124.9175
 20
12.0078
 10
124.9175
 20
12.1104
 10
124.9169
 20
12.2185
 10
124.9113
 20
12.332
 10
124.8995
 20
12.4412
 10
124.8814
 20
12.5462
 10
124.8571
 20
12.647
 10
124.8266
 20
12.7435
 10
124.7898
 20
12.8359
 10
124.7469
 20
12.924
 10
124.6976
 20
13.0079
 10
124.6422
 20
13.0875
 10
124.5805
 20
13.1629
 10
124.5127
 20
13.2341
 10
124.4385
 20
13.3011
 10
124.3582
 20
13.3639
 10
124.2716
 20
13.4224
 10
124.1954
 20
13.4677
 10
124.1253
 20
13.5053
 10
124.052
 20
13.5412
 10
123.9756
 20
13.5753
 10
123.8959
 20
13.6076
 10
123.813
 20
13.6382
 10
123.7269
 20
13.667
 10
123.6376
 20
13.6941
 10
123.5451
 20
13.7194
 10
123.4495
 20
13.743
 10
123.3506
 20
13.7648
 10
123.2485
 20
13.7848
 10
123.1432
 20
13.8031
 10
123.0347
 20
13.8197
 10
122.923
 20
13.8344
 10
122.8081
 20
13.8475
 10
122.69
 20
13.8587
 10
122.5687
 20
13.8682
 10
122.4442
 20
13.876
 10
122.3164
 20
13.882
 10
122.1904
 20
13.8861
 10
122.0879
 20
13.8888
 10
121.9853
 20
13.8915
 10
121.8828
 20
13.8942
 10
121.7802
 20
13.897
 10
121.6777
 20
13.8997
 10
121.5751
 20
13.9024
 10
121.4726
 20
13.9051
 10
121.3701
 20
13.9078
 10
121.2675
 20
13.9106
 10
121.165
 20
13.9133
 10
121.0624
 20
13.916
 10
120.9599
 20
13.9187
 10
120.8573
 20
13.9214
 10
120.7548
 20
13.9242
 10
120.6522
 20
13.9269
 10
120.5497
 20
13.9296
 10
120.4472
 20
13.9323
 10
120.3446
 20
13.935
 10
120.2421
 20
13.9378
 10
120.1395
 20
13.9405
 10
120.037
 20
13.9432
 10
119.9344
 20
13.9459
 10
119.8319
 20
13.9487
 10
119.75
 20
13.9698
 10
119.7592
 20
14.072
 10
119.7684
 20
14.1741
 10
119.7775
 20
14.2763
 10
119.7867
 20
14.3785
 10
119.7959
 20
14.4807
 10
119.805
 20
14.5828
 10
119.8142
 20
14.685
 10
119.8233
 20
14.7872
 10
119.8325
 20
14.8893
 10
119.8417
 20
14.9915
 10
119.8508
 20
15.0937
 10
119.86
 20
15.1959
 10
119.8692
 20
15.298
 10
119.8783
 20
15.4002
 10
119.8875
 20
15.5024
 10
119.8966
 20
15.6045
 10
119.9058
 20
15.7067
 10
119.915
 20
15.8089
 10
119.9241
 20
15.911
 10
119.9333
 20
16.0132
 10
120.0226
 20
16.0266
 10
120.1251
 20
16.0252
 10
120.2277
 20
16.0239
 10
120.3303
 20
16.0225
 10
120.4329
 20
16.0211
 10
120.5354
 20
16.0198
 10
120.638
 20
16.0184
 10
120.7406
 20
16.017
 10
120.8431
 20
16.0157
 10
120.9457
 20
16.0143
 10
121.0483
 20
16.0129
 10
121.1509
 20
16.0116
 10
121.2534
 20
16.0102
 10
121.356
 20
16.0088
 10
121.4586
 20
16.0075
 10
121.5611
 20
16.0061
 10
121.6637
 20
16.0048
 10
121.7663
 20
16.0034
 10
121.8689
 20
16.002
 10
121.9714
 20
16.0007
 10
122.0884
 20
15.9988
 10
122.2174
 20
15.9957
 10
122.3448
 20
15.9913
 10
122.4705
 20
15.9856
 10
122.5944
 20
15.9787
 10
122.7167
 20
15.9705
 10
122.8373
 20
15.961
 10
122.9562
 20
15.9504
 10
123.0733
 20
15.9384
 10
123.1888
 20
15.9252
 10
123.3026
 20
15.9108
 10
123.4147
 20
15.8951
 10
123.525
 20
15.8781
 10
123.6337
 20
15.8599
 10
123.7407
 20
15.8405
 10
123.846
 20
15.8197
 10
123.9495
 20
15.7978
 10
124.0514
 20
15.7746
 10
124.1516
 20
15.7501
 10
124.2501
 20
15.7244
 10
124.3469
 20
15.6974
 10
124.4419
 20
15.6691
 10
124.5353
 20
15.6397
 10
124.627
 20
15.6089
 10
124.717
 20
15.5769
 10
124.8053
 20
15.5437
 10
124.8918
 20
15.5092
 10
124.9767
 20
15.4734
 10
125.0599
 20
15.4364
 10
125.1414
 20
15.3982
 10
125.2212
 20
15.3586
 10
125.2993
 20
15.3179
 10
125.3757
 20
15.2759
 10
125.4504
 20
15.2326
 10
125.5233
 20
15.1881
 10
125.5946
 20
15.1423
 10
125.6642
 20
15.0952
 10
125.7321
 20
15.047
 10
125.7983
 20
14.9974
 10
125.8628
 20
14.9466
 10
125.9378
 20
14.8842
 10
126.0115
 20
14.8192
 10
126.0829
 20
14.7524
 10
126.1519
 20
14.6838
 10
126.2185
 20
14.6135
 10
126.2827
 20
14.5415
 10
126.3446
 20
14.4677
 10
126.4041
 20
14.3921
 10
126.4613
 20
14.3148
 10
126.5161
 20
14.2357
 10
126.5686
 20
14.1548
 10
126.6186
 20
14.0722
 10
126.6664
 20
13.9879
 10
126.7117
 20
13.9018
 10
126.7547
 20
13.8139
 10
126.7953
 20
13.7242
 10
126.8336
 20
13.6328
 10
126.8695
 20
13.5397
 10
126.9031
 20
13.4448
 10
126.9343
 20
13.3481
 10
126.9631
 20
13.2497
 10
126.9895
 20
13.1495
 10
127.0136
 20
13.0476
 10
127.0354
 20
12.9439
 10
127.0548
 20
12.8384
 10
127.0718
 20
12.7312
 10
127.0864
 20
12.6222
 10
127.0987
 20
12.5115
 10
127.1086
 20
12.399
 10
127.1162
 20
12.2847
 10
127.1214
 20
12.1687
 10
127.1243
 20
12.051
 10
127.1248
 20
11.9366
 10
127.1248
 20
11.834
 10
127.1248
 20
11.7315
 10
127.1248
 20
11.6289
 10
127.1248
 20
11.5263
 10
127.1248
 20
11.4237
 10
127.1248
 20
11.3211
 10
127.1248
 20
11.2186
 10
127.1248
 20
11.116
 10
127.1248
 20
11.0134
 10
127.1248
 20
10.9108
 10
127.1248
 20
10.8082
 10
127.1248
 20
10.7057
 10
127.1248
 20
10.6031
 10
127.1248
 20
10.5005
 10
127.1248
 20
10.3979
 10
127.1248
 20
10.2953
 10
127.1248
 20
10.1928
 10
127.1248
 20
10.0902
 10
127.1248
 20
9.9876
 10
127.1248
 20
9.885
 10
127.1248
 20
9.7824
 10
127.1248
 20
9.6798
 10
127.1248
 20
9.5773
 10
127.1248
 20
9.4747
 10
127.1248
 20
9.3721
 10
127.1248
 20
9.2695
 10
127.1248
 20
9.1669
 10
127.1248
 20
9.0644
 10
127.1248
 20
8.9618
 10
127.1248
 20
8.8592
 10
127.1248
 20
8.7566
 10
127.1248
 20
8.654
 10
127.1248
 20
8.5515
 10
127.1248
 20
8.4489
 10
127.1248
 20
8.3463
 10
127.1248
 20
8.2437
 10
127.1248
 20
8.1411
 10
127.215
 20
8.1171
 10
127.3166
 20
8.1032
 10
127.4182
 20
8.0892
 10
127.5198
 20
8.0752
 10
127.6215
 20
8.0613
 10
127.7231
 20
8.0473
 10
127.8247
 20
8.0333
 10
127.9263
 20
8.0194
 10
128.028
 20
8.0054
 10
128.1296
 20
7.9914
 10
128.2312
 20
7.9775
 10
128.3328
 20
7.9635
 10
128.4345
 20
7.9496
 10
128.5361
 20
7.9356
 10
128.6152
 20
7.902
 10
128.6152
 20
7.7994
 10
128.6152
 20
7.6968
 10
128.6152
 20
7.5942
 10
128.6152
 20
7.4916
 10
128.6152
 20
7.3891
 10
128.6152
 20
7.2865
 10
128.6152
 20
7.1839
 10
128.6152
 20
7.0813
 10
128.6152
 20
6.9787
 10
128.6152
 20
6.8762
 10
128.6152
 20
6.7736
 10
128.6152
 20
6.671
 10
128.6152
 20
6.5684
 10
128.6152
 20
6.4658
 10
128.6152
 20
6.3633
 10
128.6152
 20
6.2607
 10
128.6152
 20
6.1581
 10
128.6088
 20
6.0617
 10
128.5063
 20
6.0589
 10
128.4038
 20
6.056
 10
128.3012
 20
6.0532
 10
128.1987
 20
6.0504
 10
128.0961
 20
6.0476
 10
127.9936
 20
6.0448
 10
127.8911
 20
6.0419
 10
127.7885
 20
6.0391
 10
127.686
 20
6.0363
 10
127.5834
 20
6.0335
 10
127.4809
 20
6.0307
 10
127.3783
 20
6.0278
 10
127.2758
 20
6.025
 10
127.1733
 20
6.0222
 10
127.0707
 20
6.0194
 10
126.9682
 20
6.0166
 10
126.8656
 20
6.0137
 10
126.7631
 20
6.0109
 10
126.6605
 20
6.0081
 10
126.558
 20
6.0053
 10
126.4555
 20
6.0025
 10
126.3529
 20
5.9996
 10
126.2504
 20
5.9968
 10
126.1478
 20
5.994
 10
126.0453
 20
5.9912
 10
125.9427
 20
5.9884
 10
125.8402
 20
5.9855
 10
125.7377
 20
5.9827
 10
125.6351
 20
5.9799
 10
125.5326
 20
5.9771
 10
125.43
 20
5.9743
 10
125.3275
 20
5.9714
 10
125.225
 20
5.9686
 10
125.2188
 20
6.071
 10
125.2126
 20
6.1734
 10
125.2064
 20
6.2758
 10
125.2002
 20
6.3782
 10
125.194
 20
6.4806
 10
125.1878
 20
6.583
 10
125.1816
 20
6.6854
 10
125.1754
 20
6.7878
 10
125.1692
 20
6.8902
 10
125.163
 20
6.9926
 10
125.1568
 20
7.0949
 10
125.1506
 20
7.1973
 10
125.1444
 20
7.2997
 10
125.1382
 20
7.4021
 10
125.132
 20
7.5045
 10
125.1258
 20
7.6069
 10
125.1196
 20
7.7093
 10
125.1134
 20
7.8117
 10
125.1072
 20
7.9141
  0
LWPOLYLINE
  5
56
330
17
100
AcDbEntity
  8
OUTLINE
100
AcDbPolyline
 90
163
 70
1
 10
124.9175
 20
10.1237
 10
124.879
 20
10.1309
 10
124.81
 20
10.143
 10
124.7417
 20
10.1542
 10
124.674
 20
10.1647
 10
124.6068
 20
10.1743
 10
124.5403
 20
10.183
 10
124.4743
 20
10.191
 10
124.409
 20
10.1981
 10
124.3442
 20
10.2044
 10
124.2801
 20
10.2098
 10
124.2165
 20
10.2144
 10
124.1536
 20
10.2182
 10
124.0904
 20
10.2213
 10
124.0251
 20
10.224
 10
123.9593
 20
10.2266
 10
123.8932
 20
10.229
 10
123.8268
 20
10.2313
 10
123.76
 20
10.2333
 10
123.6928
 20
10.2352
 10
123.6252
 20
10.2369
 10
123.5573
 20
10.2384
 10
123.4891
 20
10.2397
 10
123.4204
 20
10.2408
 10
123.3514
 20
10.2418
 10
123.2821
 20
10.2426
 10
123.2124
 20
10.2432
 10
123.1423
 20
10.2436
 10
123.0719
 20
10.2438
 10
122.9934
 20
10.2438
 10
122.8911
 20
10.2428
 10
122.7913
 20
10.2403
 10
122.6939
 20
10.2363
 10
122.599
 20
10.2309
 10
122.5065
 20
10.224
 10
122.4166
 20
10.2157
 10
122.3291
 20
10.2059
 10
122.244
 20
10.1947
 10
122.1614
 20
10.182
 10
122.0813
 20
10.1679
 10
122.0037
 20
10.1523
 10
121.9285
 20
10.1352
 10
121.8558
 20
10.1168
 10
121.7855
 20
10.0968
 10
121.7177
 20
10.0754
 10
121.6524
 20
10.0526
 10
121.5896
 20
10.0283
 10
121.5292
 20
10.0025
 10
121.4712
 20
9.9753
 10
121.4158
 20
9.9467
 10
121.3628
 20
9.9166
 10
121.3123
 20
9.885
 10
121.2642
 20
9.852
 10
121.2186
 20
9.8176
 10
121.1755
 20
9.7816
 10
121.1348
 20
9.7443
 10
121.0966
 20
9.7055
 10
121.0609
 20
9.6652
 10
121.0276
 20
9.6235
 10
120.9968
 20
9.5803
 10
120.9684
 20
9.5357
 10
120.9426
 20
9.4896
 10
120.9192
 20
9.4421
 10
120.8982
 20
9.3931
 10
120.8797
 20
9.3427
 10
120.8637
 20
9.2908
 10
120.8502
 20
9.2375
 10
120.8391
 20
9.1827
 10
120.8305
 20
9.1264
 10
120.8243
 20
9.0687
 10
120.8206
 20
9.0096
 10
120.8194
 20
8.9489
 10
120.8213
 20
8.8718
 10
120.8268
 20
8.7972
 10
120.836
 20
8.7251
 10
120.849
 20
8.6557
 10
120.8656
 20
8.5888
 10
120.8858
 20
8.5245
 10
120.9098
 20
8.4628
 10
120.9374
 20
8.4037
 10
120.9688
 20
8.3471
 10
121.0038
 20
8.2932
 10
121.0425
 20
8.2418
 10
121.0849
 20
8.1929
 10
121.1309
 20
8.1467
 10
121.1807
 20
8.103
 10
121.2293
 20
8.0654
 10
121.2762
 20
8.0331
 10
121.3254
 20
8.0028
 10
121.3768
 20
7.9745
 10
121.4306
 20
7.9481
 10
121.4867
 20
7.9237
 10
121.5452
 20
7.9013
 10
121.6059
 20
7.8809
 10
121.6689
 20
7.8624
 10
121.7343
 20
7.8459
 10
121.8019
 20
7.8314
 10
121.8719
 20
7.8188
 10
121.9442
 20
7.8083
 10
122.0188
 20
7.7997
 10
122.0957
 20
7.793
 10
122.175
 20
7.7884
 10
122.2565
 20
7.7857
 10
122.3395
 20
7.785
 10
122.4173
 20
7.7858
 10
122.494
 20
7.788
 10
122.5695
 20
7.7914
 10
122.6438
 20
7.7962
 10
122.7169
 20
7.8023
 10
122.7889
 20
7.8097
 10
122.8597
 20
7.8184
 10
122.9293
 20
7.8285
 10
122.9977
 20
7.8398
 10
123.065
 20
7.8525
 10
123.1311
 20
7.8664
 10
123.196
 20
7.8817
 10
123.2598
 20
7.8983
 10
123.3223
 20
7.9162
 10
123.3837
 20
7.9354
 10
123.4439
 20
7.956
 10
123.503
 20
7.9778
 10
123.5609
 20
8.001
 10
123.6175
 20
8.0254
 10
123.6731
 20
8.0512
 10
123.7274
 20
8.0783
 10
123.785
 20
8.1091
 10
123.8496
 20
8.1458
 10
123.9122
 20
8.1835
 10
123.973
 20
8.2224
 10
124.0318
 20
8.2624
 10
124.0888
 20
8.3034
 10
124.1439
 20
8.3456
 10
124.1971
 20
8.3889
 10
124.2484
 20
8.4332
 10
124.2977
 20
8.4787
 10
124.3452
 20
8.5253
 10
124.3908
 20
8.5729
 10
124.4345
 20
8.6217
 10
124.4763
 20
8.6715
 10
124.5163
 20
8.7225
 10
124.5543
 20
8.7745
 10
124.5904
 20
8.8277
 10
124.6246
 20
8.8819
 10
124.6607
 20
8.9435
 10
124.6949
 20
9.0063
 10
124.7266
 20
9.0693
 10
124.7559
 20
9.1326
 10
124.7828
 20
9.1962
 10
124.8072
 20
9.26
 10
124.8292
 20
9.3241
 10
124.8487
 20
9.3885
 10
124.8658
 20
9.4532
 10
124.8805
 20
9.5182
 10
124.8927
 20
9.5834
 10
124.9025
 20
9.6489
 10
124.9098
 20
9.7147
 10
124.9147
 20
9.7807
 10
124.9171
 20
9.8471
 10
124.9175
 20
9.9144
 10
124.9175
 20
9.9824
 10
124.9175
 20
10.0504
 10
124.9175
 20
10.0588
 10
124.9175
 20
10.1184
  0
LWPOLYLINE
  5
57
330
17
100
AcDbEntity
  8
OUTLINE
100
AcDbPolyline
 90
368
 70
1
 10
143.5613
 20
10.0484
 10
143.5159
 20
10.0484
 10
143.539
 20
9.9654
 10
143.5743
 20
9.8545
 10
143.6134
 20
9.7468
 10
143.6562
 20
9.6421
 10
143.7026
 20
9.5405
 10
143.7528
 20
9.442
 10
143.8067
 20
9.3466
 10
143.8642
 20
9.2542
 10
143.9255
 20
9.165
 10
143.9904
 20
9.0788
 10
144.0591
 20
8.9957
 10
144.1315
 20
8.9157
 10
144.2075
 20
8.8387
 10
144.2859
 20
8.7661
 10
144.3656
 20
8.6982
 10
144.4481
 20
8.6334
 10
144.5335
 20
8.5718
 10
144.6218
 20
8.5133
 10
144.713
 20
8.458
 10
144.807
 20
8.4058
 10
144.9039
 20
8.3568
 10
145.0037
 20
8.3109
 10
145.1063
 20
8.2682
 10
145.2119
 20
8.2286
 10
145.3203
 20
8.1922
 10
145.4315
 20
8.1589
 10
145.5457
 20
8.1288
 10
145.6627
 20
8.1018
 10
145.7826
 20
8.0779
 10
145.9054
 20
8.0572
 10
146.031
 20
8.0397
 10
146.1595
 20
8.0253
 10
146.2909
 20
8.0141
 10
146.4252
 20
8.006
 10
146.5623
 20
8.001
 10
146.7024
 20
7.9992
 10
146.8233
 20
7.9997
 10
146.9423
 20
8.0014
 10
147.0609
 20
8.0043
 10
147.1792
 20
8.0083
 10
147.297
 20
8.0135
 10
147.4144
 20
8.0199
 10
147.5315
 20
8.0274
 10
147.6482
 20
8.0362
 10
147.7644
 20
8.0461
 10
147.8803
 20
8.0572
 10
147.9958
 20
8.0694
 10
148.1103
 20
8.0826
 10
148.2252
 20
8.0966
 10
148.3404
 20
8.1114
 10
148.456
 20
8.1271
 10
148.572
 20
8.1436
 10
148.6884
 20
8.1609
 10
148.8051
 20
8.1792
 10
148.9222
 20
8.1982
 10
149.0398
 20
8.2181
 10
149.1576
 20
8.2388
 10
149.2738
 20
8.2577
 10
149.2872
 20
8.1408
 10
149.3005
 20
8.0238
 10
149.3138
 20
7.9069
 10
149.3272
 20
7.79
 10
149.3405
 20
7.6731
 10
149.3538
 20
7.5562
 10
149.3672
 20
7.4393
 10
149.3805
 20
7.3223
 10
149.3939
 20
7.2054
 10
149.4072
 20
7.0885
 10
149.4205
 20
6.9716
 10
149.4339
 20
6.8547
 10
149.4472
 20
6.7378
 10
149.4605
 20
6.6208
 10
149.4739
 20
6.5039
 10
149.4872
 20
6.387
 10
149.5005
 20
6.2701
 10
149.5139
 20
6.1532
 10
149.4076
 20
6.1168
 10
149.2825
 20
6.0951
 10
149.1589
 20
6.0745
 10
149.0367
 20
6.0551
 10
148.916
 20
6.0368
 10
148.7967
 20
6.0198
 10
148.6788
 20
6.0039
 10
148.5624
 20
5.9892
 10
148.4474
 20
5.9757
 10
148.3339
 20
5.9633
 10
148.2218
 20
5.9521
 10
148.1112
 20
5.9421
 10
148.002
 20
5.9333
 10
147.8943
 20
5.9256
 10
147.7752
 20
5.9183
 10
147.6448
 20
5.9109
 10
147.5171
 20
5.9042
 10
147.3921
 20
5.8982
 10
147.2698
 20
5.8929
 10
147.1502
 20
5.8883
 10
147.0332
 20
5.8844
 10
146.919
 20
5.8812
 10
146.8074
 20
5.8788
 10
146.6985
 20
5.877
 10
146.5923
 20
5.8759
 10
146.4888
 20
5.8756
 10
146.349
 20
5.8766
 10
146.211
 20
5.8797
 10
146.0748
 20
5.8847
 10
145.9403
 20
5.8918
 10
145.8075
 20
5.901
 10
145.6766
 20
5.9122
 10
145.5474
 20
5.9254
 10
145.42
 20
5.9406
 10
145.2943
 20
5.9579
 10
145.1704
 20
5.9771
 10
145.0483
 20
5.9985
 10
144.9279
 20
6.0218
 10
144.8094
 20
6.0472
 10
144.6925
 20
6.0746
 10
144.5775
 20
6.1041
 10
144.4642
 20
6.1356
 10
144.3527
 20
6.1691
 10
144.243
 20
6.2046
 10
144.135
 20
6.2422
 10
144.0288
 20
6.2818
 10
143.9243
 20
6.3235
 10
143.8217
 20
6.3671
 10
143.7208
 20
6.4128
 10
143.6216
 20
6.4606
 10
143.5243
 20
6.5103
 10
143.4287
 20
6.5621
 10
143.3348
 20
6.6159
 10
143.2428
 20
6.6718
 10
143.1525
 20
6.7297
 10
143.064
 20
6.7896
 10
142.9772
 20
6.8516
 10
142.8922
 20
6.9155
 10
142.809
 20
6.9815
 10
142.7275
 20
7.0496
 10
142.6478
 20
7.1197
 10
142.5699
 20
7.1918
 10
142.4927
 20
7.267
 10
142.4175
 20
7.3443
 10
142.3444
 20
7.4234
 10
142.2736
 20
7.5044
 10
142.205
 20
7.5872
 10
142.1385
 20
7.6718
 10
142.0743
 20
7.7583
 10
142.0123
 20
7.8467
 10
141.9525
 20
7.9368
 10
141.8949
 20
8.0289
 10
141.8395
 20
8.1227
 10
141.7863
 20
8.2184
 10
141.7353
 20
8.316
 10
141.6865
 20
8.4154
 10
141.6399
 20
8.5166
 10
141.5955
 20
8.6196
 10
141.5533
 20
8.7246
 10
141.5133
 20
8.8313
 10
141.4756
 20
8.9399
 10
141.44
 20
9.0503
 10
141.4066
 20
9.1626
 10
141.3755
 20
9.2767
 10
141.3465
 20
9.3927
 10
141.3198
 20
9.5105
 10
141.2952
 20
9.6301
 10
141.2729
 20
9.7516
 10
141.2527
 20
9.8749
 10
141.2348
 20
10.0001
 10
141.2191
 20
10.1271
 10
141.2055
 20
10.256
 10
141.1942
 20
10.3867
 10
141.1851
 20
10.5192
 10
141.1782
 20
10.6536
 10
141.1735
 20
10.7898
 10
141.171
 20
10.9279
 10
141.1706
 20
11.068
 10
141.1724
 20
11.2078
 10
141.1761
 20
11.3457
 10
141.1818
 20
11.4818
 10
141.1896
 20
11.6161
 10
141.1994
 20
11.7485
 10
141.2111
 20
11.8791
 10
141.2249
 20
12.0079
 10
141.2407
 20
12.1348
 10
141.2585
 20
12.2598
 10
141.2783
 20
12.3831
 10
141.3001
 20
12.5044
 10
141.3239
 20
12.624
 10
141.3498
 20
12.7417
 10
141.3776
 20
12.8575
 10
141.4074
 20
12.9715
 10
141.4393
 20
13.0837
 10
141.4731
 20
13.194
 10
141.509
 20
13.3025
 10
141.5469
 20
13.4092
 10
141.5868
 20
13.514
 10
141.6287
 20
13.617
 10
141.6726
 20
13.7181
 10
141.7185
 20
13.8174
 10
141.7664
 20
13.9148
 10
141.8163
 20
14.0104
 10
141.8682
 20
14.1042
 10
141.9222
 20
14.1961
 10
141.9781
 20
14.2861
 10
142.0361
 20
14.3744
 10
142.096
 20
14.4608
 10
142.158
 20
14.5453
 10
142.222
 20
14.628
 10
142.288
 20
14.7089
 10
142.3566
 20
14.7887
 10
142.4328
 20
14.8724
 10
142.5109
 20
14.9534
 10
142.5909
 20
15.0317
 10
142.673
 20
15.1072
 10
142.7569
 20
15.1801
 10
142.8428
 20
15.2502
 10
142.9307
 20
15.3176
 10
143.0205
 20
15.3823
 10
143.1123
 20
15.4443
 10
143.206
 20
15.5036
 10
143.3017
 20
15.5601
 10
143.3994
 20
15.614
 10
143.4989
 20
15.6651
 10
143.6005
 20
15.7135
 10
143.704
 20
15.7592
 10
143.8094
 20
15.8022
 10
143.9168
 20
15.8424
 10
144.0261
 20
15.88
 10
144.1374
 20
15.9148
 10
144.2507
 20
15.9469
 10
144.3659
 20
15.9763
 10
144.483
 20
16.003
 10
144.6021
 20
16.027
 10
144.7232
 20
16.0482
 10
144.8462
 20
16.0667
 10
144.9711
 20
16.0825
 10
145.0981
 20
16.0956
 10
145.2269
 20
16.106
 10
145.3577
 20
16.1137
 10
145.4905
 20
16.1186
 10
145.6252
 20
16.1209
 10
145.7619
 20
16.1204
 10
145.8972
 20
16.1172
 10
146.0305
 20
16.1112
 10
146.1616
 20
16.1026
 10
146.2907
 20
16.0912
 10
146.4177
 20
16.077
 10
146.5426
 20
16.0602
 10
146.6655
 20
16.0406
 10
146.7862
 20
16.0183
 10
146.9049
 20
15.9932
 10
147.0215
 20
15.9655
 10
147.1361
 20
15.935
 10
147.2485
 20
15.9017
 10
147.3589
 20
15.8658
 10
147.4672
 20
15.8271
 10
147.5734
 20
15.7857
 10
147.6776
 20
15.7415
 10
147.7797
 20
15.6946
 10
147.8797
 20
15.645
 10
147.9776
 20
15.5927
 10
148.0734
 20
15.5376
 10
148.1672
 20
15.4798
 10
148.2589
 20
15.4193
 10
148.3485
 20
15.3561
 10
148.436
 20
15.2901
 10
148.5215
 20
15.2214
 10
148.6048
 20
15.15
 10
148.6861
 20
15.0758
 10
148.7654
 20
14.9989
 10
148.8425
 20
14.9193
 10
148.9137
 20
14.8413
 10
148.9807
 20
14.7634
 10
149.0456
 20
14.6833
 10
149.1084
 20
14.6012
 10
149.1691
 20
14.517
 10
149.2276
 20
14.4307
 10
149.2839
 20
14.3423
 10
149.3382
 20
14.2518
 10
149.3903
 20
14.1592
 10
149.4402
 20
14.0646
 10
149.488
 20
13.9678
 10
149.5337
 20
13.869
 10
149.5773
 20
13.768
 10
149.6187
 20
13.665
 10
149.658
 20
13.5599
 10
149.6952
 20
13.4526
 10
149.7302
 20
13.3433
 10
149.7631
 20
13.2319
 10
149.7938
 20
13.1184
 10
149.8224
 20
13.0029
 10
149.8489
 20
12.8852
 10
149.8732
 20
12.7654
 10
149.8954
 20
12.6436
 10
149.9155
 20
12.5196
 10
149.9335
 20
12.3936
 10
149.9493
 20
12.2654
 10
149.9629
 20
12.1352
 10
149.9745
 20
12.0029
 10
149.9838
 20
11.8685
 10
149.9911
 20
11.732
 10
149.9962
 20
11.5934
 10
149.9992
 20
11.4527
 10
150.0001
 20
11.3118
 10
149.9995
 20
11.1874
 10
149.998
 20
11.0645
 10
149.9955
 20
10.9429
 10
149.9921
 20
10.8228
 10
149.9878
 20
10.7041
 10
149.9825
 20
10.5868
 10
149.9762
 20
10.471
 10
149.9691
 20
10.3565
 10
149.9609
 20
10.2435
 10
149.9518
 20
10.1319
 10
149.9158
 20
10.0484
 10
149.7981
 20
10.0484
 10
149.6804
 20
10.0484
 10
149.5628
 20
10.0484
 10
149.4451
 20
10.0484
 10
149.3274
 20
10.0484
 10
149.2097
 20
10.0484
 10
149.0921
 20
10.0484
 10
148.9744
 20
10.0484
 10
148.8567
 20
10.0484
 10
148.739
 20
10.0484
 10
148.6214
 20
10.0484
 10
148.5037
 20
10.0484
 10
148.386
 20
10.0484
 10
148.2683
 20
10.0484
 10
148.1507
 20
10.0484
 10
148.033
 20
10.0484
 10
147.9153
 20
10.0484
 10
147.7976
 20
10.0484
 10
147.68
 20
10.0484
 10
147.5623
 20
10.0484
 10
147.4446
 20
10.0484
 10
147.3269
 20
10.0484
 10
147.2093
 20
10.0484
 10
147.0916
 20
10.0484
 10
146.9739
 20
10.0484
 10
146.8562
 20
10.0484
 10
146.7386
 20
10.0484
 10
146.6209
 20
10.0484
 10
146.5032
 20
10.0484
 10
146.3855
 20
10.0484
 10
146.2679
 20
10.0484
 10
146.1502
 20
10.0484
 10
146.0325
 20
10.0484
 10
145.9148
 20
10.0484
 10
145.7972
 20
10.0484
 10
145.6795
 20
10.0484
 10
145.5618
 20
10.0484
 10
145.4441
 20
10.0484
 10
145.3265
 20
10.0484
 10
145.2088
 20
10.0484
 10
145.0911
 20
10.0484
 10
144.9734
 20
10.0484
 10
144.8558
 20
10.0484
 10
144.7381
 20
10.0484
 10
144.6204
 20
10.0484
 10
144.5027
 20
10.0484
 10
144.3851
 20
10.0484
 10
144.2674
 20
10.0484
 10
144.1497
 20
10.0484
 10
144.032
 20
10.0484
 10
143.9144
 20
10.0484
 10
143.7967
 20
10.0484
 10
143.679
 20
10.0484
  0
LWPOLYLINE
  5
58
330
17
100
AcDbEntity
  8
OUTLINE
100
AcDbPolyline
 90
100
 70
1
 10
143.426
 20
11.7812
 10
143.4178
 20
11.7062
 10
143.4971
 20
11.7062
 10
143.6147
 20
11.7062
 10
143.7324
 20
11.7062
 10
143.8501
 20
11.7062
 10
143.9678
 20
11.7062
 10
144.0854
 20
11.7062
 10
144.2031
 20
11.7062
 10
144.3208
 20
11.7062
 10
144.4385
 20
11.7062
 10
144.5561
 20
11.7062
 10
144.6738
 20
11.7062
 10
144.7915
 20
11.7062
 10
144.9092
 20
11.7062
 10
145.0268
 20
11.7062
 10
145.1445
 20
11.7062
 10
145.2622
 20
11.7062
 10
145.3799
 20
11.7062
 10
145.4975
 20
11.7062
 10
145.6152
 20
11.7062
 10
145.7329
 20
11.7062
 10
145.8506
 20
11.7062
 10
145.9682
 20
11.7062
 10
146.0859
 20
11.7062
 10
146.2036
 20
11.7062
 10
146.3213
 20
11.7062
 10
146.4389
 20
11.7062
 10
146.5566
 20
11.7062
 10
146.6743
 20
11.7062
 10
146.792
 20
11.7062
 10
146.9096
 20
11.7062
 10
147.0273
 20
11.7062
 10
147.145
 20
11.7062
 10
147.2627
 20
11.7062
 10
147.3803
 20
11.7062
 10
147.498
 20
11.7062
 10
147.6157
 20
11.7062
 10
147.7334
 20
11.7062
 10
147.8016
 20
11.7652
 10
147.7975
 20
11.9037
 10
147.7889
 20
12.038
 10
147.7759
 20
12.1681
 10
147.7585
 20
12.2941
 10
147.7366
 20
12.416
 10
147.7102
 20
12.5337
 10
147.6794
 20
12.6472
 10
147.6442
 20
12.7566
 10
147.6044
 20
12.8618
 10
147.5603
 20
12.9629
 10
147.5116
 20
13.0598
 10
147.4586
 20
13.1526
 10
147.401
 20
13.2412
 10
147.339
 20
13.3256
 10
147.2726
 20
13.4059
 10
147.1983
 20
13.4855
 10
147.1175
 20
13.5622
 10
147.0325
 20
13.6332
 10
146.9434
 20
13.6986
 10
146.8503
 20
13.7583
 10
146.753
 20
13.8124
 10
146.6516
 20
13.8608
 10
146.5462
 20
13.9035
 10
146.4366
 20
13.9405
 10
146.323
 20
13.9719
 10
146.2052
 20
13.9976
 10
146.0834
 20
14.0177
 10
145.9575
 20
14.0321
 10
145.8274
 20
14.0408
 10
145.6933
 20
14.0439
 10
145.5618
 20
14.0413
 10
145.4341
 20
14.033
 10
145.31
 20
14.019
 10
145.1896
 20
13.9993
 10
145.0727
 20
13.974
 10
144.9594
 20
13.9429
 10
144.8497
 20
13.9062
 10
144.7437
 20
13.8638
 10
144.6412
 20
13.8157
 10
144.5423
 20
13.7619
 10
144.4471
 20
13.7025
 10
144.3555
 20
13.6373
 10
144.2674
 20
13.5665
 10
144.183
 20
13.49
 10
144.1022
 20
13.4078
 10
144.025
 20
13.3199
 10
143.958
 20
13.2351
 10
143.8993
 20
13.1532
 10
143.8438
 20
13.068
 10
143.7915
 20
12.9793
 10
143.7423
 20
12.8873
 10
143.6964
 20
12.7919
 10
143.6536
 20
12.6931
 10
143.614
 20
12.5909
 10
143.5776
 20
12.4854
 10
143.5444
 20
12.3765
 10
143.5143
 20
12.2642
 10
143.4875
 20
12.1485
 10
143.4638
 20
12.0294
 10
143.4433
 20
11.907
  0
LWPOLYLINE
  5
59
330
17
100
AcDbEntity
  8
OUTLINE
100
AcDbPolyline
 90
432
 70
1
 10
135.773
 20
5.8765
 10
135.6726
 20
5.8758
 10
135.5727
 20
5.8756
 10
135.4497
 20
5.8763
 10
135.328
 20
5.8785
 10
135.2077
 20
5.8822
 10
135.0887
 20
5.8874
 10
134.9711
 20
5.894
 10
134.8547
 20
5.9021
 10
134.7397
 20
5.9116
 10
134.626
 20
5.9226
 10
134.5136
 20
5.9351
 10
134.4026
 20
5.9491
 10
134.2929
 20
5.9646
 10
134.1845
 20
5.9815
 10
134.0774
 20
5.9998
 10
133.9717
 20
6.0197
 10
133.8673
 20
6.041
 10
133.7642
 20
6.0638
 10
133.6625
 20
6.0881
 10
133.562
 20
6.1138
 10
133.4629
 20
6.141
 10
133.3651
 20
6.1697
 10
133.2687
 20
6.1998
 10
133.1736
 20
6.2314
 10
133.0798
 20
6.2645
 10
132.9873
 20
6.2991
 10
132.8961
 20
6.3351
 10
132.8063
 20
6.3726
 10
132.7178
 20
6.4116
 10
132.6306
 20
6.452
 10
132.5448
 20
6.4939
 10
132.4603
 20
6.5373
 10
132.3771
 20
6.5821
 10
132.2952
 20
6.6285
 10
132.2147
 20
6.6763
 10
132.1355
 20
6.7255
 10
132.0576
 20
6.7763
 10
131.981
 20
6.8285
 10
131.9058
 20
6.8821
 10
131.8318
 20
6.9373
 10
131.7593
 20
6.9939
 10
131.688
 20
7.052
 10
131.6181
 20
7.1115
 10
131.5495
 20
7.1725
 10
131.4808
 20
7.2364
 10
131.4124
 20
7.3029
 10
131.3458
 20
7.3708
 10
131.2808
 20
7.44
 10
131.2176
 20
7.5107
 10
131.1561
 20
7.5828
 10
131.0963
 20
7.6563
 10
131.0383
 20
7.7311
 10
130.9819
 20
7.8074
 10
130.9273
 20
7.8851
 10
130.8744
 20
7.9641
 10
130.8232
 20
8.0445
 10
130.7738
 20
8.1264
 10
130.726
 20
8.2096
 10
130.68
 20
8.2942
 10
130.6357
 20
8.3803
 10
130.5931
 20
8.4677
 10
130.5523
 20
8.5565
 10
130.5131
 20
8.6467
 10
130.4757
 20
8.7383
 10
130.44
 20
8.8313
 10
130.406
 20
8.9257
 10
130.3737
 20
9.0215
 10
130.3432
 20
9.1186
 10
130.3143
 20
9.2172
 10
130.2872
 20
9.3172
 10
130.2618
 20
9.4185
 10
130.2382
 20
9.5213
 10
130.2162
 20
9.6254
 10
130.196
 20
9.731
 10
130.1775
 20
9.8379
 10
130.1607
 20
9.9463
 10
130.1456
 20
10.056
 10
130.1322
 20
10.1671
 10
130.1206
 20
10.2796
 10
130.1107
 20
10.3935
 10
130.1025
 20
10.5088
 10
130.096
 20
10.6255
 10
130.0912
 20
10.7436
 10
130.0882
 20
10.8631
 10
130.0868
 20
10.984
 10
130.0872
 20
11.1053
 10
130.0893
 20
11.2254
 10
130.093
 20
11.344
 10
130.0984
 20
11.4613
 10
130.1055
 20
11.5772
 10
130.1142
 20
11.6918
 10
130.1246
 20
11.805
 10
130.1367
 20
11.9168
 10
130.1504
 20
12.0273
 10
130.1658
 20
12.1364
 10
130.1829
 20
12.2441
 10
130.2017
 20
12.3505
 10
130.2221
 20
12.4555
 10
130.2442
 20
12.5591
 10
130.2679
 20
12.6614
 10
130.2934
 20
12.7623
 10
130.3205
 20
12.8618
 10
130.3492
 20
12.96
 10
130.3797
 20
13.0569
 10
130.4118
 20
13.1523
 10
130.4456
 20
13.2464
 10
130.481
 20
13.3391
 10
130.5181
 20
13.4305
 10
130.5569
 20
13.5205
 10
130.5974
 20
13.6091
 10
130.6395
 20
13.6964
 10
130.6833
 20
13.7823
 10
130.7288
 20
13.8668
 10
130.7759
 20
13.95
 10
130.8247
 20
14.0318
 10
130.8752
 20
14.1123
 10
130.9274
 20
14.1914
 10
130.9812
 20
14.2691
 10
131.0367
 20
14.3454
 10
131.0938
 20
14.4204
 10
131.1527
 20
14.4941
 10
131.2132
 20
14.5663
 10
131.2753
 20
14.6372
 10
131.3392
 20
14.7068
 10
131.4047
 20
14.7749
 10
131.4713
 20
14.8412
 10
131.5393
 20
14.9057
 10
131.6088
 20
14.9686
 10
131.6796
 20
15.0298
 10
131.7519
 20
15.0894
 10
131.8256
 20
15.1472
 10
131.9007
 20
15.2034
 10
131.9772
 20
15.258
 10
132.0552
 20
15.3108
 10
132.1345
 20
15.362
 10
132.2153
 20
15.4115
 10
132.2974
 20
15.4594
 10
132.381
 20
15.5056
 10
132.466
 20
15.5501
 10
132.5525
 20
15.5929
 10
132.6403
 20
15.6341
 10
132.7295
 20
15.6736
 10
132.8202
 20
15.7114
 10
132.9123
 20
15.7475
 10
133.0058
 20
15.782
 10
133.1007
 20
15.8148
 10
133.197
 20
15.846
 10
133.2948
 20
15.8755
 10
133.3939
 20
15.9033
 10
133.4945
 20
15.9294
 10
133.5965
 20
15.9539
 10
133.6999
 20
15.9767
 10
133.8047
 20
15.9978
 10
133.9109
 20
16.0172
 10
134.0186
 20
16.035
 10
134.1276
 20
16.0511
 10
134.2381
 20
16.0656
 10
134.35
 20
16.0784
 10
134.4633
 20
16.0895
 10
134.578
 20
16.0989
 10
134.6942
 20
16.1067
 10
134.8117
 20
16.1127
 10
134.9307
 20
16.1172
 10
135.0511
 20
16.1199
 10
135.1729
 20
16.121
 10
135.2895
 20
16.1204
 10
135.4039
 20
16.1181
 10
135.517
 20
16.114
 10
135.6288
 20
16.1083
 10
135.7393
 20
16.1008
 10
135.8486
 20
16.0916
 10
135.9565
 20
16.0806
 10
136.0631
 20
16.068
 10
136.1684
 20
16.0536
 10
136.2724
 20
16.0376
 10
136.3751
 20
16.0198
 10
136.4765
 20
16.0003
 10
136.5767
 20
15.979
 10
136.6755
 20
15.9561
 10
136.773
 20
15.9314
 10
136.8692
 20
15.905
 10
136.9641
 20
15.8769
 10
137.0577
 20
15.847
 10
137.1501
 20
15.8155
 10
137.2411
 20
15.7822
 10
137.3308
 20
15.7472
 10
137.4192
 20
15.7105
 10
137.5063
 20
15.6721
 10
137.5921
 20
15.632
 10
137.6767
 20
15.5901
 10
137.7604
 20
15.5462
 10
137.8562
 20
15.493
 10
137.9494
 20
15.4378
 10
138.0401
 20
15.3807
 10
138.1281
 20
15.3216
 10
138.2137
 20
15.2606
 10
138.2966
 20
15.1976
 10
138.377
 20
15.1326
 10
138.4547
 20
15.0657
 10
138.53
 20
14.9969
 10
138.6026
 20
14.926
 10
138.6727
 20
14.8533
 10
138.7402
 20
14.7786
 10
138.8051
 20
14.7019
 10
138.8675
 20
14.6233
 10
138.9273
 20
14.5427
 10
138.9845
 20
14.4602
 10
139.0392
 20
14.3757
 10
139.0913
 20
14.2892
 10
139.1408
 20
14.2008
 10
139.1877
 20
14.1105
 10
139.2321
 20
14.0182
 10
139.2634
 20
13.9267
 10
139.1823
 20
13.8633
 10
139.1013
 20
13.8
 10
139.0202
 20
13.7366
 10
138.9391
 20
13.6733
 10
138.8581
 20
13.6099
 10
138.777
 20
13.5466
 10
138.6959
 20
13.4832
 10
138.6148
 20
13.4199
 10
138.5338
 20
13.3565
 10
138.4527
 20
13.2932
 10
138.3716
 20
13.2298
 10
138.2906
 20
13.1665
 10
138.2095
 20
13.1031
 10
138.1284
 20
13.0398
 10
138.0473
 20
12.9764
 10
137.9663
 20
12.9131
 10
137.8852
 20
12.8497
 10
137.8041
 20
12.7864
 10
137.7231
 20
12.723
 10
137.642
 20
12.6597
 10
137.5624
 20
12.6061
 10
137.5041
 20
12.6965
 10
137.4436
 20
12.7839
 10
137.3809
 20
12.8685
 10
137.3159
 20
12.9501
 10
137.2488
 20
13.0287
 10
137.1794
 20
13.1045
 10
137.1079
 20
13.1773
 10
137.0341
 20
13.2472
 10
136.9581
 20
13.3141
 10
136.8799
 20
13.3781
 10
136.7995
 20
13.4392
 10
136.7169
 20
13.4973
 10
136.6321
 20
13.5526
 10
136.5451
 20
13.6048
 10
136.4555
 20
13.6544
 10
136.3643
 20
13.7006
 10
136.2718
 20
13.7432
 10
136.1781
 20
13.7823
 10
136.0832
 20
13.8178
 10
135.987
 20
13.8498
 10
135.8896
 20
13.8782
 10
135.7909
 20
13.9032
 10
135.691
 20
13.9245
 10
135.5898
 20
13.9423
 10
135.4874
 20
13.9566
 10
135.3838
 20
13.9673
 10
135.2789
 20
13.9745
 10
135.1727
 20
13.9782
 10
135.0598
 20
13.9783
 10
134.9423
 20
13.975
 10
134.8272
 20
13.9684
 10
134.7147
 20
13.9585
 10
134.6047
 20
13.9452
 10
134.4972
 20
13.9286
 10
134.3922
 20
13.9086
 10
134.2897
 20
13.8853
 10
134.1897
 20
13.8587
 10
134.0922
 20
13.8287
 10
133.9972
 20
13.7953
 10
133.9047
 20
13.7587
 10
133.8148
 20
13.7187
 10
133.7273
 20
13.6753
 10
133.6424
 20
13.6286
 10
133.5599
 20
13.5786
 10
133.48
 20
13.5252
 10
133.4026
 20
13.4685
 10
133.3276
 20
13.4084
 10
133.2552
 20
13.345
 10
133.1853
 20
13.2782
 10
133.1192
 20
13.2095
 10
133.0582
 20
13.1405
 10
133.0
 20
13.069
 10
132.9447
 20
12.9949
 10
132.8922
 20
12.9183
 10
132.8425
 20
12.8391
 10
132.7957
 20
12.7573
 10
132.7518
 20
12.6731
 10
132.7107
 20
12.5862
 10
132.6724
 20
12.4969
 10
132.637
 20
12.4049
 10
132.6044
 20
12.3105
 10
132.5747
 20
12.2135
 10
132.5478
 20
12.1139
 10
132.5238
 20
12.0118
 10
132.5026
 20
11.9071
 10
132.4842
 20
11.7999
 10
132.4687
 20
11.6902
 10
132.4561
 20
11.5779
 10
132.4463
 20
11.463
 10
132.4393
 20
11.3456
 10
132.4352
 20
11.2257
 10
132.4339
 20
11.1033
 10
132.4355
 20
10.9822
 10
132.44
 20
10.8634
 10
132.4473
 20
10.747
 10
132.4575
 20
10.6329
 10
132.4706
 20
10.5213
 10
132.4865
 20
10.412
 10
132.5053
 20
10.305
 10
132.5269
 20
10.2004
 10
132.5515
 20
10.0982
 10
132.5789
 20
9.9983
 10
132.6091
 20
9.9008
 10
132.6423
 20
9.8056
 10
132.6783
 20
9.7128
 10
132.7171
 20
9.6224
 10
132.7588
 20
9.5344
 10
132.8034
 20
9.4487
 10
132.8509
 20
9.3653
 10
132.9012
 20
9.2843
 10
132.9544
 20
9.2057
 10
133.0105
 20
9.1295
 10
133.0694
 20
9.0556
 10
133.1312
 20
8.984
 10
133.1959
 20
8.9148
 10
133.2635
 20
8.848
 10
133.3323
 20
8.7849
 10
133.4013
 20
8.7262
 10
133.4725
 20
8.6697
 10
133.5459
 20
8.6156
 10
133.6215
 20
8.5639
 10
133.6994
 20
8.5145
 10
133.7795
 20
8.4674
 10
133.8617
 20
8.4227
 10
133.9462
 20
8.3803
 10
134.033
 20
8.3403
 10
134.1219
 20
8.3026
 10
134.2131
 20
8.2672
 10
134.3065
 20
8.2342
 10
134.4021
 20
8.2035
 10
134.4999
 20
8.1752
 10
134.5999
 20
8.1492
 10
134.7022
 20
8.1256
 10
134.8066
 20
8.1043
 10
134.9133
 20
8.0853
 10
135.0222
 20
8.0687
 10
135.1334
 20
8.0544
 10
135.2467
 20
8.0425
 10
135.3623
 20
8.0329
 10
135.48
 20
8.0256
 10
135.6
 20
8.0207
 10
135.7222
 20
8.0182
 10
135.8378
 20
8.0178
 10
135.9408
 20
8.0185
 10
136.0438
 20
8.0199
 10
136.1468
 20
8.0221
 10
136.2496
 20
8.025
 10
136.3525
 20
8.0287
 10
136.4552
 20
8.0331
 10
136.5579
 20
8.0383
 10
136.6606
 20
8.0442
 10
136.7632
 20
8.0509
 10
136.8657
 20
8.0583
 10
136.9682
 20
8.0665
 10
137.0707
 20
8.0754
 10
137.1735
 20
8.0851
 10
137.2777
 20
8.0956
 10
137.3815
 20
8.1067
 10
137.4849
 20
8.1183
 10
137.588
 20
8.1304
 10
137.6906
 20
8.1432
 10
137.7928
 20
8.1564
 10
137.8947
 20
8.1703
 10
137.9961
 20
8.1846
 10
138.0972
 20
8.1996
 10
138.1979
 20
8.2151
 10
138.2981
 20
8.2311
 10
138.398
 20
8.2478
 10
138.4727
 20
8.231
 10
138.4844
 20
8.1288
 10
138.4962
 20
8.0266
 10
138.508
 20
7.9244
 10
138.5197
 20
7.8222
 10
138.5315
 20
7.7199
 10
138.5433
 20
7.6177
 10
138.555
 20
7.5155
 10
138.5668
 20
7.4133
 10
138.5785
 20
7.3111
 10
138.5903
 20
7.2089
 10
138.6021
 20
7.1067
 10
138.6138
 20
7.0045
 10
138.6256
 20
6.9022
 10
138.6374
 20
6.8
 10
138.6491
 20
6.6978
 10
138.6609
 20
6.5956
 10
138.6727
 20
6.4934
 10
138.6844
 20
6.3912
 10
138.6962
 20
6.289
 10
138.7079
 20
6.1868
 10
138.6437
 20
6.1403
 10
138.5451
 20
6.1196
 10
138.4459
 20
6.0998
 10
138.3463
 20
6.081
 10
138.2461
 20
6.0632
 10
138.1456
 20
6.0463
 10
138.0445
 20
6.0303
 10
137.943
 20
6.0153
 10
137.841
 20
6.0012
 10
137.7385
 20
5.9881
 10
137.6356
 20
5.9759
 10
137.5322
 20
5.9646
 10
137.4283
 20
5.9543
 10
137.324
 20
5.945
 10
137.2192
 20
5.9366
 10
137.1138
 20
5.9291
 10
137.0082
 20
5.9222
 10
136.9031
 20
5.9158
 10
136.7984
 20
5.9098
 10
136.6941
 20
5.9044
 10
136.5901
 20
5.8994
 10
136.4866
 20
5.8949
 10
136.3835
 20
5.8908
 10
136.2807
 20
5.8872
 10
136.1784
 20
5.8842
 10
136.0764
 20
5.8815
 10
135.9749
 20
5.8794
 10
135.8737
 20
5.8777
  0
LWPOLYLINE
  5
5A
330
17
100
AcDbEntity
  8
OUTLINE
100
AcDbPolyline
 90
366
 70
1
 10
87.9783
 20
10.7983
 10
87.9783
 20
10.5973
 10
87.9783
 20
10.3962
 10
87.9783
 20
10.1951
 10
87.9783
 20
9.9941
 10
87.9783
 20
9.793
 10
87.9783
 20
9.592
 10
87.9783
 20
9.3909
 10
87.9783
 20
9.1898
 10
87.9783
 20
8.9888
 10
87.9783
 20
8.7877
 10
87.9783
 20
8.5867
 10
87.9783
 20
8.3856
 10
87.9783
 20
8.1845
 10
87.9783
 20
7.9835
 10
87.9783
 20
7.7824
 10
87.9783
 20
7.5814
 10
87.9783
 20
7.3803
 10
87.9783
 20
7.1792
 10
87.9783
 20
6.9782
 10
87.9783
 20
6.7771
 10
87.9783
 20
6.5761
 10
87.9783
 20
6.375
 10
87.9783
 20
6.1739
 10
87.8893
 20
6.0619
 10
87.6882
 20
6.0619
 10
87.4872
 20
6.0619
 10
87.2861
 20
6.0619
 10
87.085
 20
6.0619
 10
86.884
 20
6.0619
 10
86.6829
 20
6.0619
 10
86.4819
 20
6.0619
 10
86.2808
 20
6.0619
 10
86.0797
 20
6.0619
 10
85.8787
 20
6.0619
 10
85.6776
 20
6.0619
 10
85.6776
 20
6.2629
 10
85.6776
 20
6.464
 10
85.6776
 20
6.665
 10
85.6776
 20
6.8661
 10
85.6776
 20
7.0672
 10
85.6776
 20
7.2682
 10
85.6776
 20
7.4693
 10
85.6776
 20
7.6703
 10
85.6776
 20
7.8714
 10
85.6776
 20
8.0725
 10
85.6776
 20
8.2735
 10
85.6776
 20
8.4746
 10
85.6776
 20
8.6756
 10
85.6776
 20
8.8767
 10
85.6776
 20
9.0778
 10
85.6776
 20
9.2788
 10
85.6776
 20
9.4799
 10
85.6776
 20
9.6809
 10
85.6776
 20
9.882
 10
85.6776
 20
10.0831
 10
85.6776
 20
10.2841
 10
85.6776
 20
10.4852
 10
85.6776
 20
10.6862
 10
85.6776
 20
10.8873
 10
85.6776
 20
11.0884
 10
85.6776
 20
11.2894
 10
85.6776
 20
11.4905
 10
85.6776
 20
11.6915
 10
85.6776
 20
11.8926
 10
85.6776
 20
12.0937
 10
85.6776
 20
12.2947
 10
85.6776
 20
12.4958
 10
85.6776
 20
12.6968
 10
85.6776
 20
12.8979
 10
85.6776
 20
13.099
 10
85.6776
 20
13.3
 10
85.6776
 20
13.5011
 10
85.6776
 20
13.7021
 10
85.6776
 20
13.9032
 10
85.6776
 20
14.1043
 10
85.6776
 20
14.3053
 10
85.6776
 20
14.5064
 10
85.6776
 20
14.7074
 10
85.6776
 20
14.9085
 10
85.6776
 20
15.1096
 10
85.6776
 20
15.3106
 10
85.6776
 20
15.5117
 10
85.6776
 20
15.7127
 10
85.6776
 20
15.9138
 10
85.8577
 20
15.9347
 10
86.0588
 20
15.9347
 10
86.2599
 20
15.9347
 10
86.4609
 20
15.9347
 10
86.662
 20
15.9347
 10
86.863
 20
15.9347
 10
87.0641
 20
15.9347
 10
87.2652
 20
15.9347
 10
87.4662
 20
15.9347
 10
87.6673
 20
15.9347
 10
87.7591
 20
15.8126
 10
87.7814
 20
15.6128
 10
87.8037
 20
15.413
 10
87.826
 20
15.2132
 10
87.8483
 20
15.0134
 10
87.8706
 20
14.8135
 10
87.8929
 20
14.6137
 10
87.9152
 20
14.4139
 10
87.9375
 20
14.2141
 10
87.945
 20
14.1464
 10
88.0263
 20
14.1464
 10
88.1455
 20
14.1464
 10
88.2108
 20
14.2202
 10
88.2315
 20
14.3562
 10
88.2569
 20
14.4871
 10
88.2871
 20
14.6129
 10
88.3219
 20
14.7337
 10
88.3615
 20
14.8493
 10
88.4059
 20
14.9598
 10
88.4549
 20
15.0652
 10
88.5087
 20
15.1655
 10
88.5672
 20
15.2608
 10
88.6304
 20
15.3509
 10
88.6984
 20
15.4359
 10
88.771
 20
15.5158
 10
88.8484
 20
15.5906
 10
88.9276
 20
15.658
 10
89.0073
 20
15.7175
 10
89.0918
 20
15.7729
 10
89.1812
 20
15.8243
 10
89.2753
 20
15.8715
 10
89.3742
 20
15.9147
 10
89.4779
 20
15.9538
 10
89.5864
 20
15.9887
 10
89.6998
 20
16.0196
 10
89.8179
 20
16.0464
 10
89.9408
 20
16.0691
 10
90.0684
 20
16.0876
 10
90.2009
 20
16.1021
 10
90.3382
 20
16.1125
 10
90.4803
 20
16.1188
 10
90.6272
 20
16.121
 10
90.7652
 20
16.1193
 10
90.9001
 20
16.1138
 10
91.0322
 20
16.1046
 10
91.1614
 20
16.0916
 10
91.2879
 20
16.0749
 10
91.4116
 20
16.0544
 10
91.5325
 20
16.0302
 10
91.6507
 20
16.0023
 10
91.766
 20
15.9706
 10
91.8785
 20
15.9351
 10
91.9883
 20
15.8959
 10
92.0952
 20
15.853
 10
92.1994
 20
15.8063
 10
92.3008
 20
15.7559
 10
92.3993
 20
15.7017
 10
92.4951
 20
15.6438
 10
92.5881
 20
15.5822
 10
92.6783
 20
15.5167
 10
92.7658
 20
15.4476
 10
92.8504
 20
15.3747
 10
92.9322
 20
15.2981
 10
93.0113
 20
15.2177
 10
93.0852
 20
15.1362
 10
93.1533
 20
15.0551
 10
93.2185
 20
14.9714
 10
93.2807
 20
14.8849
 10
93.34
 20
14.7958
 10
93.3964
 20
14.7041
 10
93.4499
 20
14.6096
 10
93.5004
 20
14.5125
 10
93.548
 20
14.4127
 10
93.5926
 20
14.3102
 10
93.6344
 20
14.2051
 10
93.6732
 20
14.0973
 10
93.7091
 20
13.9868
 10
93.742
 20
13.8736
 10
93.772
 20
13.7577
 10
93.7991
 20
13.6392
 10
93.8233
 20
13.518
 10
93.8445
 20
13.3942
 10
93.8628
 20
13.2676
 10
93.8782
 20
13.1384
 10
93.8906
 20
13.0065
 10
93.9001
 20
12.8719
 10
93.9067
 20
12.7347
 10
93.9103
 20
12.5948
 10
93.9112
 20
12.4584
 10
93.9112
 20
12.3392
 10
93.9112
 20
12.2201
 10
93.9112
 20
12.101
 10
93.9112
 20
11.9818
 10
93.9112
 20
11.8627
 10
93.9112
 20
11.7435
 10
93.9112
 20
11.6244
 10
93.9112
 20
11.5053
 10
93.9112
 20
11.3861
 10
93.9112
 20
11.267
 10
93.9112
 20
11.1479
 10
93.9112
 20
11.0287
 10
93.9112
 20
10.9096
 10
93.9112
 20
10.7905
 10
93.9112
 20
10.6713
 10
93.9112
 20
10.5522
 10
93.9112
 20
10.4331
 10
93.9112
 20
10.3139
 10
93.9112
 20
10.1948
 10
93.9112
 20
10.0756
 10
93.9112
 20
9.9565
 10
93.9112
 20
9.8374
 10
93.9112
 20
9.7182
 10
93.9112
 20
9.5991
 10
93.9112
 20
9.48
 10
93.9112
 20
9.3608
 10
93.9112
 20
9.2417
 10
93.9112
 20
9.1226
 10
93.9112
 20
9.0034
 10
93.9112
 20
8.8843
 10
93.9112
 20
8.7651
 10
93.9112
 20
8.646
 10
93.9112
 20
8.5269
 10
93.9112
 20
8.4077
 10
93.9112
 20
8.2886
 10
93.9112
 20
8.1695
 10
93.9112
 20
8.0503
 10
93.9112
 20
7.9312
 10
93.9112
 20
7.8121
 10
93.9112
 20
7.6929
 10
93.9112
 20
7.5738
 10
93.9112
 20
7.4547
 10
93.9112
 20
7.3355
 10
93.9112
 20
7.2164
 10
93.9112
 20
7.0972
 10
93.9112
 20
6.9781
 10
93.9112
 20
6.859
 10
93.9112
 20
6.7398
 10
93.9112
 20
6.6207
 10
93.9112
 20
6.5016
 10
93.9112
 20
6.3824
 10
93.9112
 20
6.2633
 10
93.9112
 20
6.1442
 10
93.8743
 20
6.0619
 10
93.7552
 20
6.0619
 10
93.6361
 20
6.0619
 10
93.5169
 20
6.0619
 10
93.3978
 20
6.0619
 10
93.2786
 20
6.0619
 10
93.1595
 20
6.0619
 10
93.0404
 20
6.0619
 10
92.9212
 20
6.0619
 10
92.8021
 20
6.0619
 10
92.683
 20
6.0619
 10
92.5638
 20
6.0619
 10
92.4447
 20
6.0619
 10
92.3256
 20
6.0619
 10
92.2064
 20
6.0619
 10
92.0873
 20
6.0619
 10
91.9682
 20
6.0619
 10
91.849
 20
6.0619
 10
91.7299
 20
6.0619
 10
91.6107
 20
6.0619
 10
91.6107
 20
6.181
 10
91.6107
 20
6.3001
 10
91.6107
 20
6.4193
 10
91.6107
 20
6.5384
 10
91.6107
 20
6.6575
 10
91.6107
 20
6.7767
 10
91.6107
 20
6.8958
 10
91.6107
 20
7.0149
 10
91.6107
 20
7.1341
 10
91.6107
 20
7.2532
 10
91.6107
 20
7.3724
 10
91.6107
 20
7.4915
 10
91.6107
 20
7.6106
 10
91.6107
 20
7.7298
 10
91.6107
 20
7.8489
 10
91.6107
 20
7.968
 10
91.6107
 20
8.0872
 10
91.6107
 20
8.2063
 10
91.6107
 20
8.3254
 10
91.6107
 20
8.4446
 10
91.6107
 20
8.5637
 10
91.6107
 20
8.6828
 10
91.6107
 20
8.802
 10
91.6107
 20
8.9211
 10
91.6107
 20
9.0403
 10
91.6107
 20
9.1594
 10
91.6107
 20
9.2785
 10
91.6107
 20
9.3977
 10
91.6107
 20
9.5168
 10
91.6107
 20
9.6359
 10
91.6107
 20
9.7551
 10
91.6107
 20
9.8742
 10
91.6107
 20
9.9933
 10
91.6107
 20
10.1125
 10
91.6107
 20
10.2316
 10
91.6107
 20
10.3508
 10
91.6107
 20
10.4699
 10
91.6107
 20
10.589
 10
91.6107
 20
10.7082
 10
91.6107
 20
10.8273
 10
91.6107
 20
10.9464
 10
91.6107
 20
11.0656
 10
91.6107
 20
11.1847
 10
91.6107
 20
11.3038
 10
91.6107
 20
11.423
 10
91.6107
 20
11.5421
 10
91.6107
 20
11.6612
 10
91.6107
 20
11.7804
 10
91.6107
 20
11.8995
 10
91.6107
 20
12.0187
 10
91.6107
 20
12.1425
 10
91.607
 20
12.2839
 10
91.5979
 20
12.4199
 10
91.5834
 20
12.5505
 10
91.5635
 20
12.6757
 10
91.5383
 20
12.7956
 10
91.5076
 20
12.91
 10
91.4715
 20
13.019
 10
91.4301
 20
13.1227
 10
91.3832
 20
13.2209
 10
91.3309
 20
13.3138
 10
91.2733
 20
13.4012
 10
91.2102
 20
13.4833
 10
91.134
 20
13.5679
 10
91.0509
 20
13.6458
 10
90.9621
 20
13.7156
 10
90.8677
 20
13.7771
 10
90.7676
 20
13.8305
 10
90.6618
 20
13.8757
 10
90.5504
 20
13.9126
 10
90.4333
 20
13.9414
 10
90.3105
 20
13.962
 10
90.182
 20
13.9744
 10
90.0479
 20
13.9786
 10
89.9238
 20
13.9762
 10
89.8037
 20
13.9687
 10
89.6873
 20
13.956
 10
89.5749
 20
13.9384
 10
89.4662
 20
13.9156
 10
89.3614
 20
13.8878
 10
89.2604
 20
13.8549
 10
89.1632
 20
13.817
 10
89.0699
 20
13.774
 10
88.9804
 20
13.7259
 10
88.8947
 20
13.6727
 10
88.8128
 20
13.6145
 10
88.7348
 20
13.5512
 10
88.6606
 20
13.4828
 10
88.5902
 20
13.4094
 10
88.5237
 20
13.3309
 10
88.461
 20
13.2473
 10
88.4021
 20
13.1586
 10
88.3471
 20
13.0649
 10
88.2958
 20
12.9661
 10
88.2484
 20
12.8622
 10
88.2049
 20
12.7533
 10
88.1651
 20
12.6393
 10
88.1292
 20
12.5202
 10
88.0971
 20
12.3961
 10
88.0689
 20
12.2669
 10
88.0444
 20
12.1326
 10
88.0238
 20
11.9932
 10
88.0071
 20
11.8488
 10
87.9941
 20
11.6993
 10
87.985
 20
11.5447
 10
87.9797
 20
11.3851
 10
87.9783
 20
11.3398
 10
87.9783
 20
11.2004
 10
87.9783
 20
10.9994
  0
LWPOLYLINE
  5
5B
330
17
100
AcDbEntity
  8
OUTLINE
100
AcDbPolyline
 90
648
 70
1
 10
100.7373
 20
5.8777
 10
100.6267
 20
5.8761
 10
100.5148
 20
5.8756
 10
100.4215
 20
5.8759
 10
100.3286
 20
5.8769
 10
100.2359
 20
5.8785
 10
100.1436
 20
5.8807
 10
100.0517
 20
5.8836
 10
99.96
 20
5.8871
 10
99.8687
 20
5.8913
 10
99.7778
 20
5.8961
 10
99.6872
 20
5.9015
 10
99.5969
 20
5.9076
 10
99.5069
 20
5.9144
 10
99.4173
 20
5.9217
 10
99.3281
 20
5.9297
 10
99.2391
 20
5.9384
 10
99.1505
 20
5.9477
 10
99.0623
 20
5.9576
 10
98.9744
 20
5.9682
 10
98.8868
 20
5.9794
 10
98.7995
 20
5.9912
 10
98.7126
 20
6.0037
 10
98.626
 20
6.0169
 10
98.5398
 20
6.0306
 10
98.4539
 20
6.045
 10
98.3683
 20
6.0601
 10
98.2748
 20
6.0774
 10
98.1809
 20
6.0955
 10
98.0879
 20
6.1144
 10
97.9957
 20
6.134
 10
97.9042
 20
6.1544
 10
97.8137
 20
6.1754
 10
97.7239
 20
6.1972
 10
97.6349
 20
6.2196
 10
97.5468
 20
6.2428
 10
97.4594
 20
6.2667
 10
97.3729
 20
6.2913
 10
97.2872
 20
6.3166
 10
97.2023
 20
6.3427
 10
97.1182
 20
6.3694
 10
97.0349
 20
6.3969
 10
96.9525
 20
6.425
 10
96.8708
 20
6.4539
 10
96.79
 20
6.4835
 10
96.71
 20
6.5139
 10
96.6308
 20
6.5449
 10
96.5524
 20
6.5766
 10
96.4938
 20
6.6211
 10
96.5055
 20
6.7102
 10
96.5173
 20
6.7993
 10
96.529
 20
6.8884
 10
96.5407
 20
6.9775
 10
96.5525
 20
7.0666
 10
96.5642
 20
7.1557
 10
96.5759
 20
7.2448
 10
96.5877
 20
7.3339
 10
96.5994
 20
7.4231
 10
96.6111
 20
7.5122
 10
96.6229
 20
7.6013
 10
96.6346
 20
7.6904
 10
96.6463
 20
7.7795
 10
96.6581
 20
7.8686
 10
96.6698
 20
7.9577
 10
96.6815
 20
8.0468
 10
96.6933
 20
8.1359
 10
96.705
 20
8.225
 10
96.7167
 20
8.3141
 10
96.7285
 20
8.4032
 10
96.7402
 20
8.4923
 10
96.7519
 20
8.5814
 10
96.7637
 20
8.6705
 10
96.7754
 20
8.7596
 10
96.7871
 20
8.8487
 10
96.8599
 20
8.8354
 10
96.9465
 20
8.7993
 10
97.033
 20
8.7639
 10
97.1194
 20
8.7293
 10
97.2056
 20
8.6955
 10
97.2917
 20
8.6624
 10
97.3776
 20
8.6301
 10
97.4634
 20
8.5985
 10
97.5491
 20
8.5676
 10
97.6347
 20
8.5376
 10
97.7201
 20
8.5082
 10
97.8053
 20
8.4797
 10
97.8905
 20
8.4518
 10
97.9755
 20
8.4248
 10
98.0604
 20
8.3985
 10
98.1451
 20
8.3729
 10
98.2297
 20
8.3481
 10
98.3142
 20
8.324
 10
98.3985
 20
8.3007
 10
98.4827
 20
8.2781
 10
98.5668
 20
8.2563
 10
98.6507
 20
8.2353
 10
98.7345
 20
8.215
 10
98.8203
 20
8.1949
 10
98.9143
 20
8.1739
 10
99.0078
 20
8.1538
 10
99.1008
 20
8.1348
 10
99.1933
 20
8.1169
 10
99.2852
 20
8.1
 10
99.3767
 20
8.0841
 10
99.4676
 20
8.0693
 10
99.558
 20
8.0555
 10
99.6479
 20
8.0428
 10
99.7373
 20
8.0311
 10
99.8262
 20
8.0205
 10
99.9146
 20
8.0109
 10
100.0025
 20
8.0023
 10
100.0898
 20
7.9948
 10
100.1767
 20
7.9883
 10
100.263
 20
7.9828
 10
100.3488
 20
7.9784
 10
100.4342
 20
7.9751
 10
100.519
 20
7.9728
 10
100.6033
 20
7.9715
 10
100.6954
 20
7.9713
 10
100.8072
 20
7.9729
 10
100.9162
 20
7.9766
 10
101.0224
 20
7.9823
 10
101.1257
 20
7.9901
 10
101.2262
 20
7.9999
 10
101.3239
 20
8.0118
 10
101.4187
 20
8.0258
 10
101.5107
 20
8.0418
 10
101.5998
 20
8.0599
 10
101.6861
 20
8.0801
 10
101.7696
 20
8.1023
 10
101.8502
 20
8.1265
 10
101.928
 20
8.1529
 10
102.003
 20
8.1812
 10
102.0751
 20
8.2117
 10
102.1444
 20
8.2442
 10
102.2108
 20
8.2788
 10
102.2744
 20
8.3154
 10
102.3352
 20
8.3541
 10
102.4046
 20
8.4034
 10
102.4749
 20
8.46
 10
102.5402
 20
8.5197
 10
102.6003
 20
8.5828
 10
102.6554
 20
8.6491
 10
102.7054
 20
8.7187
 10
102.7503
 20
8.7915
 10
102.7902
 20
8.8676
 10
102.8249
 20
8.9469
 10
102.8546
 20
9.0295
 10
102.8792
 20
9.1154
 10
102.8988
 20
9.2045
 10
102.9132
 20
9.2969
 10
102.9226
 20
9.3925
 10
102.9269
 20
9.4914
 10
102.9263
 20
9.5841
 10
102.9211
 20
9.6707
 10
102.9114
 20
9.7555
 10
102.8971
 20
9.8384
 10
102.8784
 20
9.9194
 10
102.8551
 20
9.9985
 10
102.8274
 20
10.0757
 10
102.7951
 20
10.1511
 10
102.7583
 20
10.2245
 10
102.717
 20
10.2961
 10
102.6712
 20
10.3658
 10
102.6208
 20
10.4336
 10
102.566
 20
10.4995
 10
102.5066
 20
10.5635
 10
102.4427
 20
10.6256
 10
102.3743
 20
10.6859
 10
102.3014
 20
10.7442
 10
102.224
 20
10.8007
 10
102.1421
 20
10.8553
 10
102.0556
 20
10.908
 10
101.9646
 20
10.9588
 10
101.8692
 20
11.0078
 10
101.7736
 20
11.0532
 10
101.6924
 20
11.0917
 10
101.6112
 20
11.1303
 10
101.53
 20
11.1689
 10
101.4489
 20
11.2074
 10
101.3677
 20
11.246
 10
101.2865
 20
11.2845
 10
101.2053
 20
11.3231
 10
101.1241
 20
11.3617
 10
101.043
 20
11.4002
 10
100.9618
 20
11.4388
 10
100.8806
 20
11.4774
 10
100.7994
 20
11.5159
 10
100.7182
 20
11.5545
 10
100.6371
 20
11.5931
 10
100.5559
 20
11.6316
 10
100.4747
 20
11.6702
 10
100.3935
 20
11.7087
 10
100.3124
 20
11.7473
 10
100.2312
 20
11.7859
 10
100.15
 20
11.8244
 10
100.0688
 20
11.863
 10
99.9876
 20
11.9016
 10
99.9065
 20
11.9401
 10
99.8253
 20
11.9787
 10
99.7441
 20
12.0173
 10
99.6539
 20
12.0602
 10
99.5635
 20
12.1045
 10
99.4744
 20
12.1495
 10
99.3868
 20
12.1952
 10
99.3007
 20
12.2415
 10
99.2159
 20
12.2885
 10
99.1325
 20
12.3362
 10
99.0506
 20
12.3846
 10
98.97
 20
12.4337
 10
98.8909
 20
12.4834
 10
98.8132
 20
12.5339
 10
98.7369
 20
12.585
 10
98.662
 20
12.6368
 10
98.5886
 20
12.6892
 10
98.5165
 20
12.7424
 10
98.4459
 20
12.7962
 10
98.3766
 20
12.8507
 10
98.3088
 20
12.9059
 10
98.2424
 20
12.9618
 10
98.1774
 20
13.0183
 10
98.1138
 20
13.0756
 10
98.0516
 20
13.1335
 10
97.9909
 20
13.1921
 10
97.9315
 20
13.2513
 10
97.8736
 20
13.3113
 10
97.8171
 20
13.3719
 10
97.762
 20
13.4332
 10
97.7083
 20
13.4952
 10
97.656
 20
13.5579
 10
97.6051
 20
13.6212
 10
97.5504
 20
13.6923
 10
97.4965
 20
13.7659
 10
97.4447
 20
13.8403
 10
97.3951
 20
13.9156
 10
97.3476
 20
13.9917
 10
97.3022
 20
14.0687
 10
97.259
 20
14.1464
 10
97.2179
 20
14.225
 10
97.179
 20
14.3044
 10
97.1423
 20
14.3846
 10
97.1076
 20
14.4657
 10
97.0751
 20
14.5476
 10
97.0448
 20
14.6303
 10
97.0166
 20
14.7138
 10
96.9906
 20
14.7982
 10
96.9666
 20
14.8834
 10
96.9449
 20
14.9694
 10
96.9253
 20
15.0562
 10
96.9078
 20
15.1439
 10
96.8925
 20
15.2324
 10
96.8793
 20
15.3217
 10
96.8683
 20
15.4119
 10
96.8594
 20
15.5028
 10
96.8526
 20
15.5946
 10
96.848
 20
15.6872
 10
96.8456
 20
15.7807
 10
96.8452
 20
15.8782
 10
96.8469
 20
15.9808
 10
96.8506
 20
16.0821
 10
96.8563
 20
16.1819
 10
96.8639
 20
16.2804
 10
96.8735
 20
16.3774
 10
96.8851
 20
16.473
 10
96.8987
 20
16.5673
 10
96.9143
 20
16.6601
 10
96.9319
 20
16.7515
 10
96.9514
 20
16.8415
 10
96.973
 20
16.9301
 10
96.9965
 20
17.0173
 10
97.022
 20
17.1031
 10
97.0494
 20
17.1875
 10
97.0789
 20
17.2704
 10
97.1103
 20
17.352
 10
97.1438
 20
17.4322
 10
97.1792
 20
17.5109
 10
97.2166
 20
17.5883
 10
97.256
 20
17.6642
 10
97.2973
 20
17.7388
 10
97.3407
 20
17.8119
 10
97.386
 20
17.8836
 10
97.4333
 20
17.954
 10
97.4826
 20
18.0229
 10
97.5339
 20
18.0904
 10
97.5872
 20
18.1565
 10
97.6424
 20
18.2212
 10
97.6996
 20
18.2845
 10
97.7589
 20
18.3464
 10
97.8201
 20
18.4068
 10
97.8832
 20
18.4659
 10
97.9484
 20
18.5236
 10
98.0086
 20
18.5741
 10
98.07
 20
18.6232
 10
98.1328
 20
18.671
 10
98.1969
 20
18.7174
 10
98.2623
 20
18.7623
 10
98.3291
 20
18.8059
 10
98.3972
 20
18.8482
 10
98.4666
 20
18.889
 10
98.5374
 20
18.9285
 10
98.6095
 20
18.9666
 10
98.6829
 20
19.0033
 10
98.7577
 20
19.0386
 10
98.8338
 20
19.0726
 10
98.9112
 20
19.1052
 10
98.99
 20
19.1364
 10
99.07
 20
19.1662
 10
99.1514
 20
19.1946
 10
99.2342
 20
19.2217
 10
99.3183
 20
19.2474
 10
99.4037
 20
19.2717
 10
99.4904
 20
19.2946
 10
99.5785
 20
19.3162
 10
99.6679
 20
19.3363
 10
99.7586
 20
19.3551
 10
99.8507
 20
19.3725
 10
99.9441
 20
19.3886
 10
100.0388
 20
19.4032
 10
100.1349
 20
19.4165
 10
100.2323
 20
19.4284
 10
100.331
 20
19.4389
 10
100.431
 20
19.4481
 10
100.5324
 20
19.4558
 10
100.6351
 20
19.4622
 10
100.7392
 20
19.4672
 10
100.8446
 20
19.4709
 10
100.9513
 20
19.4731
 10
101.0593
 20
19.474
 10
101.1564
 20
19.4735
 10
101.2511
 20
19.4719
 10
101.3453
 20
19.4691
 10
101.4389
 20
19.4652
 10
101.532
 20
19.46
 10
101.6244
 20
19.4537
 10
101.7163
 20
19.4462
 10
101.8077
 20
19.4375
 10
101.8984
 20
19.4277
 10
101.9886
 20
19.4166
 10
102.0783
 20
19.4044
 10
102.1673
 20
19.391
 10
102.2558
 20
19.3764
 10
102.3437
 20
19.3607
 10
102.4311
 20
19.3437
 10
102.5178
 20
19.3256
 10
102.604
 20
19.3063
 10
102.6897
 20
19.2859
 10
102.7747
 20
19.2642
 10
102.8592
 20
19.2414
 10
102.9432
 20
19.2174
 10
103.0265
 20
19.1922
 10
103.1093
 20
19.1659
 10
103.1915
 20
19.1383
 10
103.2732
 20
19.1096
 10
103.3543
 20
19.0797
 10
103.4354
 20
19.0484
 10
103.5171
 20
19.0154
 10
103.5982
 20
18.9812
 10
103.6788
 20
18.9457
 10
103.7589
 20
18.9089
 10
103.8384
 20
18.8709
 10
103.9174
 20
18.8317
 10
103.9959
 20
18.7911
 10
104.0738
 20
18.7493
 10
104.1512
 20
18.7063
 10
104.228
 20
18.662
 10
104.3043
 20
18.6164
 10
104.3801
 20
18.5696
 10
104.4553
 20
18.5215
 10
104.53
 20
18.4722
 10
104.6041
 20
18.4216
 10
104.6777
 20
18.3698
 10
104.7508
 20
18.3167
 10
104.8233
 20
18.2623
 10
104.8953
 20
18.2067
 10
104.9667
 20
18.1498
 10
105.0377
 20
18.0917
 10
105.108
 20
18.0323
 10
105.1779
 20
17.9716
 10
105.2472
 20
17.9097
 10
105.3159
 20
17.8466
 10
105.3351
 20
17.7815
 10
105.2747
 20
17.7149
 10
105.2144
 20
17.6483
 10
105.154
 20
17.5817
 10
105.0936
 20
17.5151
 10
105.0333
 20
17.4485
 10
104.9729
 20
17.382
 10
104.9126
 20
17.3154
 10
104.8522
 20
17.2488
 10
104.7918
 20
17.1822
 10
104.7315
 20
17.1156
 10
104.6711
 20
17.0491
 10
104.6107
 20
16.9825
 10
104.5504
 20
16.9159
 10
104.49
 20
16.8493
 10
104.4296
 20
16.7827
 10
104.3693
 20
16.7161
 10
104.3089
 20
16.6496
 10
104.2485
 20
16.583
 10
104.1882
 20
16.5164
 10
104.1278
 20
16.4498
 10
104.0674
 20
16.3832
 10
104.0071
 20
16.3167
 10
103.9467
 20
16.2501
 10
103.8863
 20
16.1835
 10
103.826
 20
16.1169
 10
103.7512
 20
16.173
 10
103.6754
 20
16.2377
 10
103.5999
 20
16.3007
 10
103.5246
 20
16.3619
 10
103.4496
 20
16.4213
 10
103.3747
 20
16.479
 10
103.3001
 20
16.5349
 10
103.2258
 20
16.5891
 10
103.1517
 20
16.6415
 10
103.0778
 20
16.6922
 10
103.0041
 20
16.7411
 10
102.9307
 20
16.7882
 10
102.8575
 20
16.8336
 10
102.7846
 20
16.8772
 10
102.7119
 20
16.9191
 10
102.6394
 20
16.9592
 10
102.5671
 20
16.9976
 10
102.4951
 20
17.0342
 10
102.4222
 20
17.0696
 10
102.3352
 20
17.1094
 10
102.2483
 20
17.1466
 10
102.1614
 20
17.1811
 10
102.0745
 20
17.213
 10
101.9877
 20
17.2422
 10
101.901
 20
17.2687
 10
101.8142
 20
17.2925
 10
101.7275
 20
17.3137
 10
101.6409
 20
17.3322
 10
101.5542
 20
17.3481
 10
101.4677
 20
17.3613
 10
101.3811
 20
17.3718
 10
101.2946
 20
17.3796
 10
101.2081
 20
17.3848
 10
101.1217
 20
17.3873
 10
101.0233
 20
17.3871
 10
100.9175
 20
17.3839
 10
100.8148
 20
17.3776
 10
100.7151
 20
17.3683
 10
100.6184
 20
17.3559
 10
100.5248
 20
17.3404
 10
100.4342
 20
17.3218
 10
100.3466
 20
17.3002
 10
100.262
 20
17.2756
 10
100.1805
 20
17.2478
 10
100.102
 20
17.217
 10
100.0265
 20
17.1832
 10
99.9541
 20
17.1462
 10
99.8847
 20
17.1062
 10
99.8183
 20
17.0632
 10
99.755
 20
17.0171
 10
99.6914
 20
16.9651
 10
99.6287
 20
16.9066
 10
99.5706
 20
16.8447
 10
99.5172
 20
16.7794
 10
99.4685
 20
16.7105
 10
99.4244
 20
16.6382
 10
99.3851
 20
16.5625
 10
99.3504
 20
16.4832
 10
99.3204
 20
16.4006
 10
99.2951
 20
16.3144
 10
99.2745
 20
16.2248
 10
99.2585
 20
16.1317
 10
99.2473
 20
16.0351
 10
99.2407
 20
15.9351
 10
99.2388
 20
15.8327
 10
99.242
 20
15.7398
 10
99.2506
 20
15.6489
 10
99.2645
 20
15.5601
 10
99.2839
 20
15.4734
 10
99.3086
 20
15.3887
 10
99.3387
 20
15.306
 10
99.3742
 20
15.2254
 10
99.4151
 20
15.1468
 10
99.4613
 20
15.0703
 10
99.513
 20
14.9958
 10
99.5699
 20
14.9235
 10
99.6211
 20
14.8646
 10
99.6757
 20
14.8066
 10
99.7335
 20
14.7495
 10
99.7946
 20
14.6933
 10
99.859
 20
14.638
 10
99.9267
 20
14.5836
 10
99.9978
 20
14.53
 10
100.0721
 20
14.4774
 10
100.1497
 20
14.4256
 10
100.2306
 20
14.3748
 10
100.3147
 20
14.3248
 10
100.4022
 20
14.2757
 10
100.493
 20
14.2276
 10
100.5777
 20
14.185
 10
100.6581
 20
14.145
 10
100.7386
 20
14.1049
 10
100.8191
 20
14.0649
 10
100.8995
 20
14.0249
 10
100.98
 20
13.9849
 10
101.0605
 20
13.9448
 10
101.1409
 20
13.9048
 10
101.2214
 20
13.8648
 10
101.3019
 20
13.8247
 10
101.3823
 20
13.7847
 10
101.4628
 20
13.7447
 10
101.5433
 20
13.7047
 10
101.6237
 20
13.6646
 10
101.7042
 20
13.6246
 10
101.7847
 20
13.5846
 10
101.8651
 20
13.5446
 10
101.9456
 20
13.5045
 10
102.0261
 20
13.4645
 10
102.1065
 20
13.4245
 10
102.187
 20
13.3844
 10
102.2675
 20
13.3444
 10
102.3479
 20
13.3044
 10
102.4361
 20
13.2603
 10
102.5277
 20
13.2135
 10
102.6179
 20
13.1662
 10
102.7066
 20
13.1184
 10
102.794
 20
13.0702
 10
102.8799
 20
13.0215
 10
102.9643
 20
12.9723
 10
103.0474
 20
12.9227
 10
103.129
 20
12.8725
 10
103.2092
 20
12.822
 10
103.288
 20
12.7709
 10
103.3653
 20
12.7194
 10
103.4412
 20
12.6674
 10
103.5157
 20
12.615
 10
103.5888
 20
12.5621
 10
103.6604
 20
12.5087
 10
103.7307
 20
12.4548
 10
103.7995
 20
12.4005
 10
103.8668
 20
12.3457
 10
103.9328
 20
12.2905
 10
103.9973
 20
12.2348
 10
104.0604
 20
12.1786
 10
104.1221
 20
12.1219
 10
104.1823
 20
12.0648
 10
104.2412
 20
12.0072
 10
104.2986
 20
11.9492
 10
104.3545
 20
11.8906
 10
104.4091
 20
11.8316
 10
104.4622
 20
11.7722
 10
104.5139
 20
11.7122
 10
104.5647
 20
11.6513
 10
104.6223
 20
11.5789
 10
104.6777
 20
11.5056
 10
104.7308
 20
11.4315
 10
104.7816
 20
11.3565
 10
104.8301
 20
11.2807
 10
104.8764
 20
11.204
 10
104.9203
 20
11.1265
 10
104.962
 20
11.0481
 10
105.0014
 20
10.9689
 10
105.0384
 20
10.8888
 10
105.0732
 20
10.8078
 10
105.1058
 20
10.726
 10
105.136
 20
10.6433
 10
105.1639
 20
10.5598
 10
105.1896
 20
10.4754
 10
105.2129
 20
10.3902
 10
105.234
 20
10.3041
 10
105.2528
 20
10.2171
 10
105.2693
 20
10.1293
 10
105.2835
 20
10.0407
 10
105.2955
 20
9.9511
 10
105.3051
 20
9.8608
 10
105.3125
 20
9.7695
 10
105.3175
 20
9.6774
 10
105.3203
 20
9.5845
 10
105.3208
 20
9.4881
 10
105.3192
 20
9.3858
 10
105.3155
 20
9.2849
 10
105.3097
 20
9.1854
 10
105.3019
 20
9.0874
 10
105.292
 20
8.9908
 10
105.28
 20
8.8957
 10
105.266
 20
8.8019
 10
105.2499
 20
8.7096
 10
105.2317
 20
8.6188
 10
105.2114
 20
8.5294
 10
105.1891
 20
8.4414
 10
105.1647
 20
8.3548
 10
105.1382
 20
8.2697
 10
105.1097
 20
8.186
 10
105.0791
 20
8.1037
 10
105.0464
 20
8.0229
 10
105.0116
 20
7.9435
 10
104.9748
 20
7.8655
 10
104.9359
 20
7.789
 10
104.8949
 20
7.7139
 10
104.8519
 20
7.6402
 10
104.8068
 20
7.568
 10
104.7596
 20
7.4971
 10
104.7104
 20
7.4278
 10
104.659
 20
7.3598
 10
104.6057
 20
7.2933
 10
104.5502
 20
7.2283
 10
104.4927
 20
7.1646
 10
104.4331
 20
7.1024
 10
104.3714
 20
7.0416
 10
104.3076
 20
6.9823
 10
104.2418
 20
6.9244
 10
104.1739
 20
6.8679
 10
104.104
 20
6.8129
 10
104.0436
 20
6.7677
 10
103.9833
 20
6.7248
 10
103.9218
 20
6.6828
 10
103.8589
 20
6.642
 10
103.7948
 20
6.6022
 10
103.7293
 20
6.5634
 10
103.6626
 20
6.5257
 10
103.5946
 20
6.4891
 10
103.5253
 20
6.4536
 10
103.4547
 20
6.4191
 10
103.3828
 20
6.3856
 10
103.3096
 20
6.3532
 10
103.2352
 20
6.3219
 10
103.1594
 20
6.2917
 10
103.0824
 20
6.2625
 10
103.0041
 20
6.2344
 10
102.9244
 20
6.2073
 10
102.8435
 20
6.1813
 10
102.7613
 20
6.1563
 10
102.6778
 20
6.1325
 10
102.5931
 20
6.1096
 10
102.507
 20
6.0879
 10
102.4196
 20
6.0672
 10
102.331
 20
6.0475
 10
102.2411
 20
6.029
 10
102.1498
 20
6.0115
 10
102.0573
 20
5.995
 10
101.9635
 20
5.9796
 10
101.8684
 20
5.9653
 10
101.772
 20
5.952
 10
101.6744
 20
5.9398
 10
101.5754
 20
5.9287
 10
101.4751
 20
5.9186
 10
101.3736
 20
5.9096
 10
101.2708
 20
5.9016
 10
101.1667
 20
5.8947
 10
101.0612
 20
5.8889
 10
100.9545
 20
5.8841
 10
100.8465
 20
5.8804
  0
ENDSEC
  0
SECTION
  2
OBJECTS
  0
DICTIONARY
  5
A
330
0
100
AcDbDictionary
281
1
  3
ACAD_COLOR
350
B
  3
ACAD_GROUP
350
C
  3
ACAD_LAYOUT
350
D
  3
ACAD_MATERIAL
350
E
  3
ACAD_MLEADERSTYLE
350
F
  3
ACAD_MLINESTYLE
350
10
  3
ACAD_PLOTSETTINGS
350
11
  3
ACAD_PLOTSTYLENAME
350
12
  3
ACAD_SCALELIST
350
14
  3
ACAD_TABLESTYLE
350
15
  3
ACAD_VISUALSTYLE
350
16
  3
EZDXF_META
350
2D
  0
DICTIONARY
  5
B
330
A
100
AcDbDictionary
281
1
  0
DICTIONARY
  5
C
330
A
100
AcDbDictionary
281
1
  0
DICTIONARY
  5
D
330
A
100
AcDbDictionary
281
1
  3
Model
350
1A
  3
Layout1
350
1E
  0
DICTIONARY
  5
E
330
A
100
AcDbDictionary
281
1
  3
ByBlock
350
1F
  3
ByLayer
350
20
  3
Global
350
21
  0
DICTIONARY
  5
F
330
A
100
AcDbDictionary
281
1
  3
Standard
350
2C
  0
DICTIONARY
  5
10
330
A
100
AcDbDictionary
281
1
  3
Standard
350
22
  0
DICTIONARY
  5
11
330
A
100
AcDbDictionary
281
1
  0
ACDBDICTIONARYWDFLT
  5
12
330
A
100
AcDbDictionary
281
1
  3
Normal
350
13
100
AcDbDictionaryWithDefault
340
13
  0
ACDBPLACEHOLDER
  5
13
330
12
  0
DICTIONARY
  5
14
330
A
100
AcDbDictionary
281
1
  0
DICTIONARY
  5
15
330
A
100
AcDbDictionary
281
1
  0
DICTIONARY
  5
16
330
A
100
AcDbDictionary
281
1
  0
LAYOUT
  5
1A
330
D
100
AcDbPlotSettings
  1

  4
A3
  6

 40
7.5
 41
20.0
 42
7.5
 43
20.0
 44
420.0
 45
297.0
 46
0.0
 47
0.0
 48
0.0
 49
0.0
140
0.0
141
0.0
142
1.0
143
1.0
 70
1024
 72
1
 73
0
 74
5
  7

 75
16
 76
0
 77
2
 78
300
147
1.0
148
0.0
149
0.0
100
AcDbLayout
  1
Model
 70
1
 71
0
 10
0.0
 20
0.0
 11
420.0
 21
297.0
 12
0.0
 22
0.0
 32
0.0
 14
1e+20
 24
1e+20
 34
1e+20
 15
-1e+20
 25
-1e+20
 35
-1e+20
146
0.0
 13
0.0
 23
0.0
 33
0.0
 16
1.0
 26
0.0
 36
0.0
 17
0.0
 27
1.0
 37
0.0
 76
1
330
17
  0
LAYOUT
  5
1E
330
D
100
AcDbPlotSettings
  1

  4
A3
  6

 40
7.5
 41
20.0
 42
7.5
 43
20.0
 44
420.0
 45
297.0
 46
0.0
 47
0.0
 48
0.0
 49
0.0
140
0.0
141
0.0
142
1.0
143
1.0
 70
0
 72
1
 73
0
 74
5
  7

 75
16
 76
0
 77
2
 78
300
147
1.0
148
0.0
149
0.0
100
AcDbLayout
  1
Layout1
 70
1
 71
1
 10
0.0
 20
0.0
 11
420.0
 21
297.0
 12
0.0
 22
0.0
 32
0.0
 14
1e+20
 24
1e+20
 34
1e+20
 15
-1e+20
 25
-1e+20
 35
-1e+20
146
0.0
 13
0.0
 23
0.0
 33
0.0
 16
1.0
 26
0.0
 36
0.0
 17
0.0
 27
1.0
 37
0.0
 76
1
330
1B
  0
MATERIAL
  5
1F
102
{ACAD_REACTORS
330
E
102
}
330
E
100
AcDbMaterial
  1
ByBlock
  2

 70
0
 40
1.0
 71
1
 41
1.0
 91
-1023410177
 42
1.0
 72
1
  3

 73
1
 74
1
 75
1
 44
0.5
 73
0
 45
1.0
 46
1.0
 77
1
  4

 78
1
 79
1
170
1
 48
1.0
171
1
  6

172
1
173
1
174
1
140
1.0
141
1.0
175
1
  7

176
1
177
1
178
1
143
1.0
179
1
  8

270
1
271
1
272
1
145
1.0
146
1.0
273
1
  9

274
1
275
1
276
1
 42
1.0
 72
1
  3

 73
1
 74
1
 75
1
 94
63
  0
MATERIAL
  5
20
102
{ACAD_REACTORS
330
E
102
}
330
E
100
AcDbMaterial
  1
ByLayer
  2

 70
0
 40
1.0
 71
1
 41
1.0
 91
-1023410177
 42
1.0
 72
1
  3

 73
1
 74
1
 75
1
 44
0.5
 73
0
 45
1.0
 46
1.0
 77
1
  4

 78
1
 79
1
170
1
 48
1.0
171
1
  6

172
1
173
1
174
1
140
1.0
141
1.0
175
1
  7

176
1
177
1
178
1
143
1.0
179
1
  8

270
1
271
1
272
1
145
1.0
146
1.0
273
1
  9

274
1
275
1
276
1
 42
1.0
 72
1
  3

 73
1
 74
1
 75
1
 94
63
  0
MATERIAL
  5
21
102
{ACAD_REACTORS
330
E
102
}
330
E
100
AcDbMaterial
  1
Global
  2

 70
0
 40
1.0
 71
1
 41
1.0
 91
-1023410177
 42
1.0
 72
1
  3

 73
1
 74
1
 75
1
 44
0.5
 73
0
 45
1.0
 46
1.0
 77
1
  4

 78
1
 79
1
170
1
 48
1.0
171
1
  6

172
1
173
1
174
1
140
1.0
141
1.0
175
1
  7

176
1
177
1
178
1
143
1.0
179
1
  8

270
1
271
1
272
1
145
1.0
146
1.0
273
1
  9

274
1
275
1
276
1
 42
1.0
 72
1
  3

 73
1
 74
1
 75
1
 94
63
  0
MLINESTYLE
  5
22
102
{ACAD_REACTORS
330
10
102
}
330
10
100
AcDbMlineStyle
  2
Standard
 70
0
  3

 62
256
 51
90.0
 52
90.0
 71
2
 49
0.5
 62
256
  6
BYLAYER
 49
-0.5
 62
256
  6
BYLAYER
  0
MLEADERSTYLE
  5
2C
102
{ACAD_REACTORS
330
F
102
}
330
F
100
AcDbMLeaderStyle
179
2
170
2
171
1
172
0
 90
2
 40
0.0
 41
0.0
173
1
 91
-1056964608
 92
-2
290
1
 42
2.0
291
1
 43
8.0
  3
Standard
 44
4.0
300

342
29
174
1
175
1
176
0
178
1
 93
-1056964608
 45
4.0
292
0
297
0
 46
4.0
 94
-1056964608
 47
1.0
 49
1.0
140
1.0
294
1
141
0.0
177
0
142
1.0
295
0
296
0
143
3.75
271
0
272
9
273
9
  0
DICTIONARY
  5
2D
330
A
100
AcDbDictionary
280
1
281
1
  3
CREATED_BY_EZDXF
350
2E
  3
WRITTEN_BY_EZDXF
350
5E
  0
DICTIONARYVAR
  5
2E
330
2D
100
DictionaryVariables
280
0
  1
0.0 @ 2000-01-01T00:00:00.000000+00:00
  0
DICTIONARYVAR
  5
5E
330
2D
100
DictionaryVariables
280
0
  1
0.0 @ 2000-01-01T00:00:00.000000+00:00
  0
ENDSEC
  0
EOF
