  0
SECTION
  2
HEADER
  9
$ACADVER
  1
AC1024
  9
$ACADMAINTVER
 70
6
  9
$DWGCODEPAGE
  3
ANSI_1252
  9
$LASTSAVEDBY
  1
ezdxf
  9
$INSBASE
 10
0.0
 20
0.0
 30
0.0
  9
$EXTMIN
 10
1e+20
 20
1e+20
 30
1e+20
  9
$EXTMAX
 10
-1e+20
 20
-1e+20
 30
-1e+20
  9
$LIMMIN
 10
0.0
 20
0.0
  9
$LIMMAX
 10
420.0
 20
297.0
  9
$ORTHOMODE
 70
0
  9
$REGENMODE
 70
1
  9
$FILLMODE
 70
1
  9
$QTEXTMODE
 70
0
  9
$MIRRTEXT
 70
1
  9
$LTSCALE
 40
1.0
  9
$ATTMODE
 70
1
  9
$TEXTSIZE
 40
2.5
  9
$TRACEWID
 40
1.0
  9
$TEXTSTYLE
  7
Standard
  9
$CLAYER
  8
0
  9
$CELTYPE
  6
ByLayer
  9
$CECOLOR
 62
256
  9
$CELTSCALE
 40
1.0
  9
$DISPSILH
 70
0
  9
$DIMSCALE
 40
1.0
  9
$DIMASZ
 40
2.5
  9
$DIMEXO
 40
0.625
  9
$DIMDLI
 40
3.75
  9
$DIMRND
 40
0.0
  9
$DIMDLE
 40
0.0
  9
$DIMEXE
 40
1.25
  9
$DIMTP
 40
0.0
  9
$DIMTM
 40
0.0
  9
$DIMTXT
 40
2.5
  9
$DIMCEN
 40
2.5
  9
$DIMTSZ
 40
0.0
  9
$DIMTOL
 70
0
  9
$DIMLIM
 70
0
  9
$DIMTIH
 70
0
  9
$DIMTOH
 70
0
  9
$DIMSE1
 70
0
  9
$DIMSE2
 70
0
  9
$DIMTAD
 70
1
  9
$DIMZIN
 70
8
  9
$DIMBLK
  1

  9
$DIMASO
 70
1
  9
$DIMSHO
 70
1
  9
$DIMPOST
  1

  9
$DIMAPOST
  1

  9
$DIMALT
 70
0
  9
$DIMALTD
 70
3
  9
$DIMALTF
 40
0.03937007874
  9
$DIMLFAC
 40
1.0
  9
$DIMTOFL
 70
1
  9
$DIMTVP
 40
0.0
  9
$DIMTIX
 70
0
  9
$DIMSOXD
 70
0
  9
$DIMSAH
 70
0
  9
$DIMBLK1
  1

  9
$DIMBLK2
  1

  9
$DIMSTYLE
  2
ISO-25
  9
$DIMCLRD
 70
0
  9
$DIMCLRE
 70
0
  9
$DIMCLRT
 70
0
  9
$DIMTFAC
 40
1.0
  9
$DIMGAP
 40
0.625
  9
$DIMJUST
 70
0
  9
$DIMSD1
 70
0
  9
$DIMSD2
 70
0
  9
$DIMTOLJ
 70
0
  9
$DIMTZIN
 70
8
  9
$DIMALTZ
 70
0
  9
$DIMALTTZ
 70
0
  9
$DIMUPT
 70
0
  9
$DIMDEC
 70
2
  9
$DIMTDEC
 70
2
  9
$DIMALTU
 70
2
  9
$DIMALTTD
 70
3
  9
$DIMTXSTY
  7
Standard
  9
$DIMAUNIT
 70
0
  9
$DIMADEC
 70
0
  9
$DIMALTRND
 40
0.0
  9
$DIMAZIN
 70
0
  9
$DIMDSEP
 70
44
  9
$DIMATFIT
 70
3
  9
$DIMFRAC
 70
0
  9
$DIMLDRBLK
  1

  9
$DIMLUNIT
 70
2
  9
$DIMLWD
 70
-2
  9
$DIMLWE
 70
-2
  9
$DIMTMOVE
 70
0
  9
$DIMFXL
 40
1.0
  9
$DIMFXLON
 70
0
  9
$DIMJOGANG
 40
0.785398163397
  9
$DIMTFILL
 70
0
  9
$DIMTFILLCLR
 70
0
  9
$DIMARCSYM
 70
0
  9
$DIMLTYPE
  6

  9
$DIMLTEX1
  6

  9
$DIMLTEX2
  6

  9
$DIMTXTDIRECTION
 70
0
  9
$LUNITS
 70
2
  9
$LUPREC
 70
4
  9
$SKETCHINC
 40
1.0
  9
$FILLETRAD
 40
10.0
  9
$AUNITS
 70
0
  9
$AUPREC
 70
2
  9
$MENU
  1
.
  9
$ELEVATION
 40
0.0
  9
$PELEVATION
 40
0.0
  9
$THICKNESS
 40
0.0
  9
$LIMCHECK
 70
0
  9
$CHAMFERA
 40
0.0
  9
$CHAMFERB
 40
0.0
  9
$CHAMFERC
 40
0.0
  9
$CHAMFERD
 40
0.0
  9
$SKPOLY
 70
0
  9
$TDCREATE
 40
2451545.0
  9
$TDUCREATE
 40
2451545.0
  9
$TDUPDATE
 40
2451545.0
  9
$TDUUPDATE
 40
2451545.0
  9
$TDINDWG
 40
0.0
  9
$TDUSRTIMER
 40
0.0
  9
$USRTIMER
 70
1
  9
$ANGBASE
 50
0.0
  9
$ANGDIR
 70
0
  9
$PDMODE
 70
0
  9
$PDSIZE
 40
0.0
  9
$PLINEWID
 40
0.0
  9
$SPLFRAME
 70
0
  9
$SPLINETYPE
 70
6
  9
$SPLINESEGS
 70
8
  9
$HANDSEED
  5
5F
  9
$SURFTAB1
 70
6
  9
$SURFTAB2
 70
6
  9
$SURFTYPE
 70
6
  9
$SURFU
 70
6
  9
$SURFV
 70
6
  9
$UCSBASE
  2

  9
$UCSNAME
  2

  9
$UCSORG
 10
0.0
 20
0.0
 30
0.0
  9
$UCSXDIR
 10
1.0
 20
0.0
 30
0.0
  9
$UCSYDIR
 10
0.0
 20
1.0
 30
0.0
  9
$UCSORTHOREF
  2

  9
$UCSORTHOVIEW
 70
0
  9
$UCSORGTOP
 10
0.0
 20
0.0
 30
0.0
  9
$UCSORGBOTTOM
 10
0.0
 20
0.0
 30
0.0
  9
$UCSORGLEFT
 10
0.0
 20
0.0
 30
0.0
  9
$UCSORGRIGHT
 10
0.0
 20
0.0
 30
0.0
  9
$UCSORGFRONT
 10
0.0
 20
0.0
 30
0.0
  9
$UCSORGBACK
 10
0.0
 20
0.0
 30
0.0
  9
$PUCSBASE
  2

  9
$PUCSNAME
  2

  9
$PUCSORG
 10
0.0
 20
0.0
 30
0.0
  9
$PUCSXDIR
 10
1.0
 20
0.0
 30
0.0
  9
$PUCSYDIR
 10
0.0
 20
1.0
 30
0.0
  9
$PUCSORTHOREF
  2

  9
$PUCSORTHOVIEW
 70
0
  9
$PUCSORGTOP
 10
0.0
 20
0.0
 30
0.0
  9
$PUCSORGBOTTOM
 10
0.0
 20
0.0
 30
0.0
  9
$PUCSORGLEFT
 10
0.0
 20
0.0
 30
0.0
  9
$PUCSORGRIGHT
 10
0.0
 20
0.0
 30
0.0
  9
$PUCSORGFRONT
 10
0.0
 20
0.0
 30
0.0
  9
$PUCSORGBACK
 10
0.0
 20
0.0
 30
0.0
  9
$USERI1
 70
0
  9
$USERI2
 70
0
  9
$USERI3
 70
0
  9
$USERI4
 70
0
  9
$USERI5
 70
0
  9
$USERR1
 40
0.0
  9
$USERR2
 40
0.0
  9
$USERR3
 40
0.0
  9
$USERR4
 40
0.0
  9
$USERR5
 40
0.0
  9
$WORLDVIEW
 70
1
  9
$SHADEDGE
 70
3
  9
$SHADEDIF
 70
70
  9
$TILEMODE
 70
1
  9
$MAXACTVP
 70
64
  9
$PINSBASE
 10
0.0
 20
0.0
 30
0.0
  9
$PLIMCHECK
 70
0
  9
$PEXTMIN
 10
1e+20
 20
1e+20
 30
1e+20
  9
$PEXTMAX
 10
-1e+20
 20
-1e+20
 30
-1e+20
  9
$PLIMMIN
 10
0.0
 20
0.0
  9
$PLIMMAX
 10
420.0
 20
297.0
  9
$UNITMODE
 70
0
  9
$VISRETAIN
 70
1
  9
$PLINEGEN
 70
0
  9
$PSLTSCALE
 70
1
  9
$TREEDEPTH
 70
3020
  9
$CMLSTYLE
  2
Standard
  9
$CMLJUST
 70
0
  9
$CMLSCALE
 40
20.0
  9
$PROXYGRAPHICS
 70
1
  9
$MEASUREMENT
 70
1
  9
$CELWEIGHT
370
-1
  9
$ENDCAPS
280
0
  9
$JOINSTYLE
280
0
  9
$LWDISPLAY
290
0
  9
$INSUNITS
 70
4
  9
$HYPERLINKBASE
  1

  9
$STYLESHEET
  1

  9
$XEDIT
290
1
  9
$CEPSNTYPE
380
0
  9
$PSTYLEMODE
290
1
  9
$FINGERPRINTGUID
  2
{00000000-0000-0000-0000-000000000000}
  9
$VERSIONGUID
  2
{00000000-0000-0000-0000-000000000000}
  9
$EXTNAMES
290
1
  9
$PSVPSCALE
 40
0.0
  9
$OLESTARTUP
290
0
  9
$SORTENTS
280
127
  9
$INDEXCTL
280
0
  9
$HIDETEXT
280
1
  9
$XCLIPFRAME
280
1
  9
$HALOGAP
280
0
  9
$OBSCOLOR
 70
257
  9
$OBSLTYPE
280
0
  9
$INTERSECTIONDISPLAY
280
0
  9
$INTERSECTIONCOLOR
 70
257
  9
$DIMASSOC
280
2
  9
$PROJECTNAME
  1

  9
$CAMERADISPLAY
290
0
  9
$LENSLENGTH
 40
50.0
  9
$CAMERAHEIGHT
 40
0.0
  9
$STEPSPERSEC
 40
24.0
  9
$STEPSIZE
 40
100.0
  9
$3DDWFPREC
 40
2.0
  9
$PSOLWIDTH
 40
0.005
  9
$PSOLHEIGHT
 40
0.08
  9
$LOFTANG1
 40
1.570796326795
  9
$LOFTANG2
 40
1.570796326795
  9
$LOFTMAG1
 40
0.0
  9
$LOFTMAG2
 40
0.0
  9
$LOFTPARAM
 70
7
  9
$LOFTNORMALS
280
1
  9
$LATITUDE
 40
37.795
  9
$LONGITUDE
 40
-122.394
  9
$NORTHDIRECTION
 40
0.0
  9
$TIMEZONE
 70
-8000
  9
$LIGHTGLYPHDISPLAY
280
1
  9
$TILEMODELIGHTSYNCH
280
1
  9
$CMATERIAL
347
20
  9
$SOLIDHIST
280
0
  9
$SHOWHIST
280
1
  9
$DWFFRAME
280
2
  9
$DGNFRAME
280
2
  9
$REALWORLDSCALE
290
1
  9
$INTERFERECOLOR
 62
256
  9
$CSHADOW
280
0
  9
$SHADOWPLANELOCATION
 40
0.0
  0
ENDSEC
  0
SECTION
  2
CLASSES
  0
CLASS
  1
ACDBDICTIONARYWDFLT
  2
AcDbDictionaryWithDefault
  3
ObjectDBX Classes
 90
0
 91
0
280
0
281
0
  0
CLASS
  1
SUN
  2
AcDbSun
  3
SCENEOE
 90
1153
 91
0
280
0
281
0
  0
CLASS
  1
VISUALSTYLE
  2
AcDbVisualStyle
  3
ObjectDBX Classes
 90
4095
 91
0
280
0
281
0
  0
CLASS
  1
MATERIAL
  2
AcDbMaterial
  3
ObjectDBX Classes
 90
1153
 91
0
280
0
281
0
  0
CLASS
  1
SCALE
  2
AcDbScale
  3
ObjectDBX Classes
 90
1153
 91
0
280
0
281
0
  0
CLASS
  1
TABLESTYLE
  2
AcDbTableStyle
  3
ObjectDBX Classes
 90
4095
 91
0
280
0
281
0
  0
CLASS
  1
MLEADERSTYLE
  2
AcDbMLeaderStyle
  3
ACDB_MLEADERSTYLE_CLASS
 90
4095
 91
0
280
0
281
0
  0
CLASS
  1
DICTIONARYVAR
  2
AcDbDictionaryVar
  3
ObjectDBX Classes
 90
0
 91
0
280
0
281
0
  0
CLASS
  1
CELLSTYLEMAP
  2
AcDbCellStyleMap
  3
ObjectDBX Classes
 90
1152
 91
0
280
0
281
0
  0
CLASS
  1
MENTALRAYRENDERSETTINGS
  2
AcDbMentalRayRenderSettings
  3
SCENEOE
 90
1024
 91
0
280
0
281
0
  0
CLASS
  1
ACDBDETAILVIEWSTYLE
  2
AcDbDetailViewStyle
  3
ObjectDBX Classes
 90
1025
 91
0
280
0
281
0
  0
CLASS
  1
ACDBSECTIONVIEWSTYLE
  2
AcDbSectionViewStyle
  3
ObjectDBX Classes
 90
1025
 91
0
280
0
281
0
  0
CLASS
  1
RASTERVARIABLES
  2
AcDbRasterVariables
  3
ISM
 90
0
 91
0
280
0
281
0
  0
CLASS
  1
ACDBPLACEHOLDER
  2
AcDbPlaceHolder
  3
ObjectDBX Classes
 90
0
 91
0
280
0
281
0
  0
CLASS
  1
LAYOUT
  2
AcDbLayout
  3
ObjectDBX Classes
 90
0
 91
0
280
0
281
0
  0
ENDSEC
  0
SECTION
  2
TABLES
  0
TABLE
  2
VPORT
  5
8
330
0
100
AcDbSymbolTable
 70
1
  0
VPORT
  5
23
330
8
100
AcDbSymbolTableRecord
100
AcDbViewportTableRecord
  2
*Active
 70
0
 10
0.0
 20
0.0
 11
1.0
 21
1.0
 12
0.0
 22
0.0
 13
0.0
 23
0.0
 14
0.5
 24
0.5
 15
0.5
 25
0.5
 16
0.0
 26
0.0
 36
1.0
 17
0.0
 27
0.0
 37
0.0
 40
1000.0
 41
1.34
 42
50.0
 43
0.0
 44
0.0
 50
0.0
 51
0.0
 71
0
 72
1000
 73
1
 74
3
 75
0
 76
0
 77
0
 78
0
281
0
 65
0
146
0.0
  0
ENDTAB
  0
TABLE
  2
LTYPE
  5
2
330
0
100
AcDbSymbolTable
 70
3
  0
LTYPE
  5
24
330
2
100
AcDbSymbolTableRecord
100
AcDbLinetypeTableRecord
  2
ByBlock
 70
0
  3

 72
65
 73
0
 40
0.0
  0
LTYPE
  5
25
330
2
100
AcDbSymbolTableRecord
100
AcDbLinetypeTableRecord
  2
ByLayer
 70
0
  3

 72
65
 73
0
 40
0.0
  0
LTYPE
  5
26
330
2
100
AcDbSymbolTableRecord
100
AcDbLinetypeTableRecord
  2
Continuous
 70
0
  3

 72
65
 73
0
 40
0.0
  0
ENDTAB
  0
TABLE
  2
LAYER
  5
1
330
0
100
AcDbSymbolTable
 70
3
  0
LAYER
  5
27
330
1
100
AcDbSymbolTableRecord
100
AcDbLayerTableRecord
  2
0
 70
0
 62
7
  6
Continuous
370
-3
390
13
347
21
  0
LAYER
  5
28
330
1
100
AcDbSymbolTableRecord
100
AcDbLayerTableRecord
  2
Defpoints
 70
0
 62
7
  6
Continuous
290
0
370
-3
390
13
347
21
  0
LAYER
  5
2F
330
1
100
AcDbSymbolTableRecord
100
AcDbLayerTableRecord
  2
OUTLINE
 70
0
 62
7
  6
Continuous
370
-3
390
13
347
21
  0
ENDTAB
  0
TABLE
  2
STYLE
  5
5
330
0
100
AcDbSymbolTable
 70
1
  0
STYLE
  5
29
330
5
100
AcDbSymbolTableRecord
100
AcDbTextStyleTableRecord
  2
Standard
 70
0
 40
0.0
 41
1.0
 50
0.0
 71
0
 42
2.5
  3
txt
  4

  0
ENDTAB
  0
TABLE
  2
VIEW
  5
7
330
0
100
AcDbSymbolTable
 70
0
  0
ENDTAB
  0
TABLE
  2
UCS
  5
6
330
0
100
AcDbSymbolTable
 70
0
  0
ENDTAB
  0
TABLE
  2
APPID
  5
3
330
0
100
AcDbSymbolTable
 70
3
  0
APPID
  5
2A
330
3
100
AcDbSymbolTableRecord
100
AcDbRegAppTableRecord
  2
ACAD
 70
0
  0
APPID
  5
5C
330
3
100
AcDbSymbolTableRecord
100
AcDbRegAppTableRecord
  2
HATCHBACKGROUNDCOLOR
 70
0
  0
APPID
  5
5D
330
3
100
AcDbSymbolTableRecord
100
AcDbRegAppTableRecord
  2
EZDXF
 70
0
  0
ENDTAB
  0
TABLE
  2
DIMSTYLE
  5
4
330
0
100
AcDbSymbolTable
 70
1
100
AcDbDimStyleTable
  0
DIMSTYLE
105
2B
330
4
100
AcDbSymbolTableRecord
100
AcDbDimStyleTableRecord
  2
Standard
 70
0
 40
1.0
 41
2.5
 42
0.625
 43
3.75
 44
1.25
 45
0.0
 46
0.0
 47
0.0
 48
0.0
 49
2.5
140
2.5
141
2.5
142
0.0
143
0.03937007874
144
1.0
145
0.0
146
1.0
147
0.625
148
0.0
 69
0
 70
0
 71
0
 72
0
 73
0
 74
0
 75
0
 76
0
 77
1
 78
8
 79
3
170
0
171
3
172
1
173
0
174
0
175
0
176
0
177
0
178
0
179
2
271
2
272
2
273
2
274
3
275
0
276
0
277
2
278
44
279
0
280
0
281
0
282
0
283
0
284
8
285
0
286
0
288
0
289
3
290
0
371
-2
372
-2
  0
ENDTAB
  0
TABLE
  2
BLOCK_RECORD
  5
9
330
0
100
AcDbSymbolTable
 70
2
  0
BLOCK_RECORD
  5
17
330
9
100
AcDbSymbolTableRecord
100
AcDbBlockTableRecord
  2
*Model_Space
340
1A
 70
0
280
1
281
0
  0
BLOCK_RECORD
  5
1B
330
9
100
AcDbSymbolTableRecord
100
AcDbBlockTableRecord
  2
*Paper_Space
340
1E
 70
0
280
1
281
0
  0
ENDTAB
  0
ENDSEC
  0
SECTION
  2
BLOCKS
  0
BLOCK
  5
18
330
17
100
AcDbEntity
  8
0
100
AcDbBlockBegin
  2
*Model_Space
 70
0
 10
0.0
 20
0.0
 30
0.0
  3
*Model_Space
  1

  0
ENDBLK
  5
19
330
17
100
AcDbEntity
  8
0
100
AcDbBlockEnd
  0
BLOCK
  5
1C
330
1B
100
AcDbEntity
  8
0
100
AcDbBlockBegin
  2
*Paper_Space
 70
0
 10
0.0
 20
0.0
 30
0.0
  3
*Paper_Space
  1

  0
ENDBLK
  5
1D
330
1B
100
AcDbEntity
  8
0
100
AcDbBlockEnd
  0
ENDSEC
  0
SECTION
  2
ENTITIES
  0
SPLINE
  5
30
330
17
100
AcDbEntity
  8
OUTLINE
100
AcDbSpline
 70
0
 71
3
 72
8
 73
4
 74
0
 40
0.0
 40
0.0
 40
0.0
 40
0.0
 40
1.0
 40
1.0
 40
1.0
 40
1.0
 10
33.79220723035691
 20
33.757887737602786
 30
0.0
 10
33.81244517117627
 20
33.73764979678342
 30
0.0
 10
33.827495990241594
 20
33.63432610314933
 30
0.0
 10
33.83163704811373
 20
33.55395537357387
 30
0.0
  0
SPLINE
  5
31
330
17
100
AcDbEntity
  8
OUTLINE
100
AcDbSpline
 70
0
 71
3
 72
8
 73
4
 74
0
 40
0.0
 40
0.0
 40
0.0
 40
0.0
 40
1.0
 40
1.0
 40
1.0
 40
1.0
 10
33.83163704811373
 20
33.55395537357387
 30
0.0
 10
33.84584505824817
 20
33.278202612906945
 30
0.0
 10
33.786451912046786
 20
32.89764530357979
 30
0.0
 10
33.72461825506018
 20
32.59170761585877
 30
0.0
  0
SPLINE
  5
32
330
17
100
AcDbEntity
  8
OUTLINE
100
AcDbSpline
 70
0
 71
3
 72
8
 73
4
 74
0
 40
0.0
 40
0.0
 40
0.0
 40
0.0
 40
1.0
 40
1.0
 40
1.0
 40
1.0
 10
33.72461825506018
 20
32.59170761585877
 30
0.0
 10
33.54705882825353
 20
31.71318735492605
 30
0.0
 10
33.22473684692646
 20
30.738106681379776
 30
0.0
 10
32.85639467280935
 20
29.75862390698738
 30
0.0
  0
SPLINE
  5
33
330
17
100
AcDbEntity
  8
OUTLINE
100
AcDbSpline
 70
0
 71
3
 72
8
 73
4
 74
0
 40
0.0
 40
0.0
 40
0.0
 40
0.0
 40
1.0
 40
1.0
 40
1.0
 40
1.0
 10
32.85639467280935
 20
29.75862390698738
 30
0.0
 10
32.10254305441774
 20
27.754007746939276
 30
0.0
 10
31.084845702933972
 20
25.577348837025006
 30
0.0
 10
29.87644114431892
 20
23.279681024832144
 30
0.0
  0
SPLINE
  5
34
330
17
100
AcDbEntity
  8
OUTLINE
100
AcDbSpline
 70
0
 71
3
 72
8
 73
4
 74
0
 40
0.0
 40
0.0
 40
0.0
 40
0.0
 40
1.0
 40
1.0
 40
1.0
 40
1.0
 10
29.87644114431892
 20
23.279681024832144
 30
0.0
 10
27.234301002517082
 20
18.25589961334983
 30
0.0
 10
24.00533976685859
 20
13.396752531591918
 30
0.0
 10
21.560213182661208
 20
10.217436358986795
 30
0.0
  0
LINE
  5
35
330
17
100
AcDbEntity
  8
OUTLINE
100
AcDbLine
 10
21.560213182661208
 20
10.217436358986795
 30
0.0
 11
21.135949113949277
 21
10.641700427698716
 31
0.0
  0
ARC
  5
36
330
17
100
AcDbEntity
  8
OUTLINE
100
AcDbCircle
 10
13.229388946344573
 20
13.195069453590456
 30
0.0
 40
8.308633285103914
100
AcDbArc
 50
-17.897504255134262
 51
107.89750425513427
  0
LINE
  5
37
330
17
100
AcDbEntity
  8
OUTLINE
100
AcDbLine
 10
10.676019920452834
 20
21.10162962119516
 30
0.0
 11
10.251755851740905
 21
21.52589368990709
 31
0.0
  0
SPLINE
  5
38
330
17
100
AcDbEntity
  8
OUTLINE
100
AcDbSpline
 70
0
 71
3
 72
8
 73
4
 74
0
 40
0.0
 40
0.0
 40
0.0
 40
0.0
 40
1.0
 40
1.0
 40
1.0
 40
1.0
 10
10.251755851740905
 20
21.52589368990709
 30
0.0
 10
13.431072024346035
 20
23.971020274104475
 30
0.0
 10
18.290219106103944
 20
27.199981509762964
 30
0.0
 10
23.31400051758626
 20
29.842121651564803
 30
0.0
  0
SPLINE
  5
39
330
17
100
AcDbEntity
  8
OUTLINE
100
AcDbSpline
 70
0
 71
3
 72
8
 73
4
 74
0
 40
0.0
 40
0.0
 40
0.0
 40
0.0
 40
1.0
 40
1.0
 40
1.0
 40
1.0
 10
23.31400051758626
 20
29.842121651564803
 30
0.0
 10
25.61166832977912
 20
31.050526210179854
 30
0.0
 10
27.78832723969339
 20
32.068223561663615
 30
0.0
 10
29.792943399741496
 20
32.822075180055236
 30
0.0
  0
SPLINE
  5
3A
330
17
100
AcDbEntity
  8
OUTLINE
100
AcDbSpline
 70
0
 71
3
 72
8
 73
4
 74
0
 40
0.0
 40
0.0
 40
0.0
 40
0.0
 40
1.0
 40
1.0
 40
1.0
 40
1.0
 10
29.792943399741496
 20
32.822075180055236
 30
0.0
 10
30.77242617413389
 20
33.19041735417235
 30
0.0
 10
31.747506847680164
 20
33.51273933549942
 30
0.0
 10
32.62602710861289
 20
33.690298762306064
 30
0.0
  0
SPLINE
  5
3B
330
17
100
AcDbEntity
  8
OUTLINE
100
AcDbSpline
 70
0
 71
3
 72
8
 73
4
 74
0
 40
0.0
 40
0.0
 40
0.0
 40
0.0
 40
1.0
 40
1.0
 40
1.0
 40
1.0
 10
32.62602710861289
 20
33.690298762306064
 30
0.0
 10
32.931964796333915
 20
33.752132419292664
 30
0.0
 10
33.31252210566106
 20
33.811525565494065
 30
0.0
 10
33.58827486632798
 20
33.79731755535961
 30
0.0
  0
SPLINE
  5
3C
330
17
100
AcDbEntity
  8
OUTLINE
100
AcDbSpline
 70
0
 71
3
 72
8
 73
4
 74
0
 40
0.0
 40
0.0
 40
0.0
 40
0.0
 40
1.0
 40
1.0
 40
1.0
 40
1.0
 10
33.58827486632798
 20
33.79731755535961
 30
0.0
 10
33.66864559590344
 20
33.79317649748748
 30
0.0
 10
33.77196928953754
 20
33.77812567842216
 30
0.0
 10
33.79220723035691
 20
33.757887737602786
 30
0.0
  0
LINE
  5
3D
330
17
100
AcDbEntity
  8
OUTLINE
100
AcDbLine
 10
8.132214050431852
 20
25.5726088322439
 30
0.0
 11
3.6143173757064275
 21
17.44039481773813
 31
0.0
  0
LINE
  5
3E
330
17
100
AcDbEntity
  8
OUTLINE
100
AcDbLine
 10
3.6143173757064275
 20
17.44039481773813
 30
0.0
 11
3.1900533069945
 21
17.86465888645006
 31
0.0
  0
ARC
  5
3F
330
17
100
AcDbEntity
  8
OUTLINE
100
AcDbCircle
 10
-0.09291326317307713
 20
17.34748151863897
 30
0.0
 40
3.323453314041566
100
AcDbArc
 50
8.952434210673987
 51
81.04756578932607
  0
LINE
  5
40
330
17
100
AcDbEntity
  8
OUTLINE
100
AcDbLine
 10
0.42426410463800934
 20
20.630448088806546
 30
0.0
 11
3.5926081665138554e-08
 21
21.054712157518473
 31
0.0
  0
LINE
  5
41
330
17
100
AcDbEntity
  8
OUTLINE
100
AcDbLine
 10
3.5926081665138554e-08
 20
21.054712157518473
 30
0.0
 11
8.132214050431852
 21
25.5726088322439
 31
0.0
  0
ELLIPSE
  5
42
330
17
100
AcDbEntity
  8
OUTLINE
100
AcDbEllipse
 10
18.19683599380079
 20
0.5456018368114783
 30
0.0
 11
-6.168845485203699
 21
-6.1688454852037
 31
0.0
 40
0.28571428571428575
 41
1.7639514255629691
 42
3.1415926535897927
  0
LINE
  5
43
330
17
100
AcDbEntity
  8
OUTLINE
100
AcDbLine
 10
21.110734971892587
 20
7.105427357601002e-15
 30
0.0
 11
20.68647090318066
 21
0.4242640687119277
 31
0.0
  0
ARC
  5
44
330
17
100
AcDbEntity
  8
OUTLINE
100
AcDbCircle
 10
18.196835993800786
 20
0.5456018368114783
 30
0.0
 40
2.4925899855311737
100
AcDbArc
 50
-2.790226515088584
 51
92.79022651508835
  0
LINE
  5
45
330
17
100
AcDbEntity
  8
OUTLINE
100
AcDbLine
 10
18.075498225701246
 20
3.0352367461913445
 30
0.0
 11
17.651234156989318
 21
3.459500814903272
 31
0.0
  0
ELLIPSE
  5
46
330
17
100
AcDbEntity
  8
OUTLINE
100
AcDbEllipse
 10
18.19683599380079
 20
0.5456018368114783
 30
0.0
 11
-6.168845485203699
 21
-6.1688454852037
 31
0.0
 40
0.28571428571428575
 41
3.1415926535897927
 42
4.519233881616617
  0
ARC
  5
47
330
17
100
AcDbEntity
  8
OUTLINE
100
AcDbCircle
 10
-12.515021204129647
 20
20.498045830993192
 30
0.0
 40
27.522347756906708
100
AcDbArc
 50
-40.200953140607744
 51
-13.109208198154292
  0
LINE
  5
48
330
17
100
AcDbEntity
  8
OUTLINE
100
AcDbLine
 10
8.506143187899928
 20
2.7331851882699993
 30
0.0
 11
8.081879119187999
 21
3.157449256981927
 31
0.0
  0
ARC
  5
49
330
17
100
AcDbEntity
  8
OUTLINE
100
AcDbCircle
 10
4.008672059808831
 20
3.974352567054712
 30
0.0
 40
4.154316642551957
100
AcDbArc
 50
-11.340522471580147
 51
101.3405224715801
  0
LINE
  5
4A
330
17
100
AcDbEntity
  8
OUTLINE
100
AcDbLine
 10
3.191768749736049
 20
8.04755962643388
 30
0.0
 11
2.7675046810241213
 21
8.471823695145808
 31
0.0
  0
ARC
  5
4B
330
17
100
AcDbEntity
  8
OUTLINE
100
AcDbCircle
 10
20.532365323747317
 20
-12.549340696883768
 30
0.0
 40
27.522347756906708
100
AcDbArc
 50
103.1092081981543
 51
130.20095314060777
  0
LWPOLYLINE
  5
4C
330
17
100
AcDbEntity
  8
OUTLINE
100
AcDbPolyline
 90
472
 70
1
 10
65.2329
 20
13.3484
 10
65.2329
 20
13.2288
 10
65.2329
 20
13.202
 10
65.2329
 20
13.1092
 10
65.2329
 20
12.9895
 10
65.2329
 20
12.9483
 10
65.2329
 20
12.8699
 10
65.2329
 20
12.7503
 10
65.2329
 20
12.6946
 10
65.2329
 20
12.6306
 10
65.2329
 20
12.511
 10
65.2329
 20
12.3913
 10
65.2329
 20
12.2717
 10
65.2329
 20
12.1521
 10
65.2329
 20
12.0324
 10
65.2329
 20
11.9128
 10
65.2329
 20
11.7932
 10
65.2329
 20
11.6735
 10
65.2329
 20
11.5539
 10
65.2329
 20
11.4342
 10
65.2329
 20
11.3146
 10
65.2329
 20
11.195
 10
65.2329
 20
11.0753
 10
65.2329
 20
10.9557
 10
65.2362
 20
10.8388
 10
65.3545
 20
10.821
 10
65.4728
 20
10.8032
 10
65.5911
 20
10.7854
 10
65.7094
 20
10.7676
 10
65.8277
 20
10.7498
 10
65.946
 20
10.732
 10
66.0643
 20
10.7141
 10
66.1826
 20
10.6963
 10
66.3009
 20
10.6785
 10
66.4192
 20
10.6607
 10
66.5375
 20
10.6429
 10
66.6558
 20
10.6251
 10
66.7741
 20
10.6072
 10
66.8924
 20
10.5894
 10
67.0107
 20
10.5716
 10
67.046
 20
10.4824
 10
67.046
 20
10.3628
 10
67.046
 20
10.2431
 10
67.046
 20
10.1235
 10
67.046
 20
10.0039
 10
67.046
 20
9.8842
 10
67.046
 20
9.7646
 10
67.046
 20
9.6449
 10
67.046
 20
9.5253
 10
67.046
 20
9.4057
 10
67.046
 20
9.286
 10
67.046
 20
9.1664
 10
67.046
 20
9.0468
 10
67.046
 20
8.9271
 10
67.046
 20
8.8075
 10
67.046
 20
8.6879
 10
67.046
 20
8.5682
 10
67.046
 20
8.4486
 10
67.046
 20
8.3289
 10
67.046
 20
8.2093
 10
67.046
 20
8.0897
 10
66.9336
 20
8.0795
 10
66.814
 20
8.0763
 10
66.6945
 20
8.0731
 10
66.5749
 20
8.0699
 10
66.4553
 20
8.0667
 10
66.3357
 20
8.0635
 10
66.2161
 20
8.0603
 10
66.0965
 20
8.0571
 10
65.9769
 20
8.0539
 10
65.8573
 20
8.0507
 10
65.7377
 20
8.0475
 10
65.6181
 20
8.0444
 10
65.4985
 20
8.0412
 10
65.3789
 20
8.038
 10
65.2593
 20
8.0348
 10
65.1397
 20
8.0316
 10
65.0201
 20
8.0284
 10
64.9005
 20
8.0252
 10
64.781
 20
8.022
 10
64.6614
 20
8.0188
 10
64.5418
 20
8.0156
 10
64.4222
 20
8.0124
 10
64.3026
 20
8.0092
 10
64.183
 20
8.006
 10
64.0634
 20
8.0029
 10
63.9438
 20
7.9997
 10
63.8242
 20
7.9965
 10
63.7046
 20
7.9933
 10
63.585
 20
7.9901
 10
63.4654
 20
7.9869
 10
63.3458
 20
7.9837
 10
63.2262
 20
7.9805
 10
63.1066
 20
7.9773
 10
62.987
 20
7.9741
 10
62.8674
 20
7.9709
 10
62.7479
 20
7.9677
 10
62.6283
 20
7.9645
 10
62.5087
 20
7.9613
 10
62.3891
 20
7.9582
 10
62.3806
 20
8.0775
 10
62.3721
 20
8.1968
 10
62.3637
 20
8.3162
 10
62.3552
 20
8.4355
 10
62.3468
 20
8.5548
 10
62.3383
 20
8.6742
 10
62.3298
 20
8.7935
 10
62.3214
 20
8.9128
 10
62.3129
 20
9.0322
 10
62.3045
 20
9.1515
 10
62.296
 20
9.2709
 10
62.2875
 20
9.3902
 10
62.2791
 20
9.5095
 10
62.2706
 20
9.6289
 10
62.2621
 20
9.7482
 10
62.2537
 20
9.8675
 10
62.2452
 20
9.9869
 10
62.2368
 20
10.1062
 10
62.2283
 20
10.2256
 10
62.2198
 20
10.3449
 10
62.2114
 20
10.4642
 10
62.2029
 20
10.5836
 10
62.2006
 20
10.616
 10
62.0746
 20
10.616
 10
61.9273
 20
10.616
 10
61.8533
 20
10.5071
 10
61.8107
 20
10.3503
 10
61.7638
 20
10.198
 10
61.7126
 20
10.0502
 10
61.657
 20
9.907
 10
61.5972
 20
9.7684
 10
61.533
 20
9.6342
 10
61.4645
 20
9.5046
 10
61.3918
 20
9.3796
 10
61.3147
 20
9.2591
 10
61.2333
 20
9.1431
 10
61.1475
 20
9.0317
 10
61.0575
 20
8.9248
 10
60.9632
 20
8.8224
 10
60.8645
 20
8.7246
 10
60.7615
 20
8.6314
 10
60.6539
 20
8.5424
 10
60.5402
 20
8.4566
 10
60.4234
 20
8.3764
 10
60.3034
 20
8.3017
 10
60.1801
 20
8.2325
 10
60.0537
 20
8.1689
 10
59.9241
 20
8.1108
 10
59.7913
 20
8.0582
 10
59.6552
 20
8.0112
 10
59.516
 20
7.9697
 10
59.3736
 20
7.9337
 10
59.2281
 20
7.9033
 10
59.0793
 20
7.8784
 10
58.9273
 20
7.859
 10
58.7721
 20
7.8452
 10
58.6137
 20
7.8369
 10
58.4522
 20
7.8341
 10
58.2829
 20
7.8365
 10
58.117
 20
7.8435
 10
57.9544
 20
7.8552
 10
57.7953
 20
7.8717
 10
57.6396
 20
7.8928
 10
57.4873
 20
7.9186
 10
57.3384
 20
7.9491
 10
57.1928
 20
7.9843
 10
57.0507
 20
8.0242
 10
56.912
 20
8.0687
 10
56.7766
 20
8.118
 10
56.6447
 20
8.172
 10
56.5161
 20
8.2306
 10
56.391
 20
8.294
 10
56.2692
 20
8.362
 10
56.1509
 20
8.4348
 10
56.0359
 20
8.5122
 10
55.9243
 20
8.5943
 10
55.8162
 20
8.6811
 10
55.7114
 20
8.7726
 10
55.61
 20
8.8688
 10
55.512
 20
8.9697
 10
55.4179
 20
9.0748
 10
55.3352
 20
9.1743
 10
55.2558
 20
9.2771
 10
55.1798
 20
9.383
 10
55.1072
 20
9.492
 10
55.0379
 20
9.6043
 10
54.9719
 20
9.7197
 10
54.9093
 20
9.8383
 10
54.85
 20
9.9601
 10
54.794
 20
10.085
 10
54.7415
 20
10.2131
 10
54.6922
 20
10.3444
 10
54.6463
 20
10.4788
 10
54.6038
 20
10.6164
 10
54.5646
 20
10.7572
 10
54.5287
 20
10.9012
 10
54.4962
 20
11.0483
 10
54.4671
 20
11.1986
 10
54.4413
 20
11.3521
 10
54.4188
 20
11.5088
 10
54.3997
 20
11.6686
 10
54.3839
 20
11.8316
 10
54.3715
 20
11.9977
 10
54.3624
 20
12.1671
 10
54.3567
 20
12.3396
 10
54.3543
 20
12.5153
 10
54.3542
 20
12.6691
 10
54.3542
 20
12.8164
 10
54.3542
 20
12.9638
 10
54.3542
 20
13.1111
 10
54.3542
 20
13.2585
 10
54.3542
 20
13.4058
 10
54.3542
 20
13.5532
 10
54.3542
 20
13.7005
 10
54.3542
 20
13.8479
 10
54.3542
 20
13.9952
 10
54.3542
 20
14.1426
 10
54.3542
 20
14.2899
 10
54.3542
 20
14.4373
 10
54.3542
 20
14.5846
 10
54.3542
 20
14.732
 10
54.3542
 20
14.8793
 10
54.3542
 20
15.0267
 10
54.3542
 20
15.174
 10
54.3542
 20
15.3214
 10
54.3542
 20
15.4687
 10
54.3542
 20
15.6161
 10
54.3542
 20
15.7634
 10
54.3542
 20
15.9108
 10
54.3542
 20
16.0581
 10
54.3542
 20
16.2055
 10
54.3542
 20
16.3528
 10
54.3542
 20
16.5002
 10
54.3542
 20
16.6475
 10
54.3542
 20
16.7949
 10
54.3542
 20
16.9422
 10
54.3542
 20
17.0896
 10
54.3542
 20
17.2369
 10
54.3542
 20
17.3843
 10
54.3542
 20
17.5316
 10
54.3542
 20
17.679
 10
54.3542
 20
17.8263
 10
54.3542
 20
17.9737
 10
54.3542
 20
18.1211
 10
54.3542
 20
18.2684
 10
54.3542
 20
18.4158
 10
54.3542
 20
18.5631
 10
54.3542
 20
18.7105
 10
54.3542
 20
18.8578
 10
54.3542
 20
19.0052
 10
54.3542
 20
19.1525
 10
54.3542
 20
19.2999
 10
54.3542
 20
19.4472
 10
54.3542
 20
19.5946
 10
54.3542
 20
19.7419
 10
54.3542
 20
19.8893
 10
54.3542
 20
20.0366
 10
54.3542
 20
20.184
 10
54.3542
 20
20.3313
 10
54.3542
 20
20.4787
 10
54.3542
 20
20.626
 10
54.3542
 20
20.7734
 10
54.3542
 20
20.9207
 10
54.3542
 20
21.0681
 10
54.3542
 20
21.2154
 10
54.4707
 20
21.2463
 10
54.618
 20
21.2463
 10
54.7654
 20
21.2463
 10
54.9127
 20
21.2463
 10
55.0601
 20
21.2463
 10
55.2074
 20
21.2463
 10
55.3548
 20
21.2463
 10
55.5021
 20
21.2463
 10
55.6495
 20
21.2463
 10
55.7968
 20
21.2463
 10
55.9442
 20
21.2463
 10
56.0915
 20
21.2463
 10
56.2389
 20
21.2463
 10
56.3862
 20
21.2463
 10
56.5336
 20
21.2463
 10
56.6809
 20
21.2463
 10
56.8283
 20
21.2463
 10
56.9756
 20
21.2463
 10
57.123
 20
21.2463
 10
57.2703
 20
21.2463
 10
57.4177
 20
21.2463
 10
57.4214
 20
21.1027
 10
57.4214
 20
20.9554
 10
57.4214
 20
20.808
 10
57.4214
 20
20.6607
 10
57.4214
 20
20.5133
 10
57.4214
 20
20.366
 10
57.4214
 20
20.2186
 10
57.4214
 20
20.0713
 10
57.4214
 20
19.9239
 10
57.4214
 20
19.7766
 10
57.4214
 20
19.6292
 10
57.4214
 20
19.4819
 10
57.4214
 20
19.3345
 10
57.4214
 20
19.1872
 10
57.4214
 20
19.0398
 10
57.4214
 20
18.8925
 10
57.4214
 20
18.7451
 10
57.4214
 20
18.5978
 10
57.4214
 20
18.4504
 10
57.4214
 20
18.3031
 10
57.4214
 20
18.1557
 10
57.4214
 20
18.0084
 10
57.4214
 20
17.861
 10
57.4214
 20
17.7137
 10
57.4214
 20
17.5663
 10
57.4214
 20
17.419
 10
57.4214
 20
17.2716
 10
57.4214
 20
17.1243
 10
57.4214
 20
16.9769
 10
57.4214
 20
16.8296
 10
57.4214
 20
16.6822
 10
57.4214
 20
16.5349
 10
57.4214
 20
16.3875
 10
57.4214
 20
16.2402
 10
57.4214
 20
16.0928
 10
57.4214
 20
15.9455
 10
57.4214
 20
15.7981
 10
57.4214
 20
15.6507
 10
57.4214
 20
15.5034
 10
57.4214
 20
15.356
 10
57.4214
 20
15.2087
 10
57.4214
 20
15.0613
 10
57.4214
 20
14.914
 10
57.4214
 20
14.7666
 10
57.4214
 20
14.6193
 10
57.4214
 20
14.4719
 10
57.4214
 20
14.3246
 10
57.4214
 20
14.1772
 10
57.4214
 20
14.0299
 10
57.4214
 20
13.8825
 10
57.4214
 20
13.7352
 10
57.4214
 20
13.5878
 10
57.4214
 20
13.4405
 10
57.4214
 20
13.2931
 10
57.4214
 20
13.1458
 10
57.4219
 20
12.9884
 10
57.4278
 20
12.8167
 10
57.4408
 20
12.6513
 10
57.4608
 20
12.4922
 10
57.4878
 20
12.3395
 10
57.5218
 20
12.1931
 10
57.5628
 20
12.053
 10
57.6109
 20
11.9193
 10
57.666
 20
11.7919
 10
57.728
 20
11.6708
 10
57.7971
 20
11.556
 10
57.8733
 20
11.4476
 10
57.9564
 20
11.3455
 10
58.0505
 20
11.2457
 10
58.1538
 20
11.1514
 10
58.2633
 20
11.0658
 10
58.3789
 20
10.989
 10
58.5008
 20
10.921
 10
58.6289
 20
10.8618
 10
58.7632
 20
10.8113
 10
58.9036
 20
10.7696
 10
59.0503
 20
10.7367
 10
59.2032
 20
10.7125
 10
59.3623
 20
10.6972
 10
59.5276
 20
10.6906
 10
59.6959
 20
10.6925
 10
59.859
 20
10.7024
 10
60.0167
 20
10.7202
 10
60.1687
 20
10.746
 10
60.3153
 20
10.7796
 10
60.4562
 20
10.8212
 10
60.5917
 20
10.8706
 10
60.7215
 20
10.928
 10
60.8459
 20
10.9933
 10
60.9647
 20
11.0665
 10
61.0779
 20
11.1476
 10
61.1856
 20
11.2367
 10
61.2877
 20
11.3336
 10
61.3843
 20
11.4385
 10
61.4754
 20
11.5513
 10
61.5471
 20
11.6517
 10
61.6046
 20
11.7421
 10
61.6593
 20
11.8378
 10
61.7112
 20
11.9388
 10
61.7603
 20
12.0452
 10
61.8066
 20
12.1568
 10
61.8501
 20
12.2738
 10
61.8908
 20
12.3962
 10
61.9287
 20
12.5238
 10
61.9637
 20
12.6568
 10
61.996
 20
12.7951
 10
62.0254
 20
12.9387
 10
62.0521
 20
13.0876
 10
62.0759
 20
13.2418
 10
62.0969
 20
13.4014
 10
62.1151
 20
13.5663
 10
62.1305
 20
13.7365
 10
62.1431
 20
13.9121
 10
62.1529
 20
14.0929
 10
62.1599
 20
14.2791
 10
62.164
 20
14.4706
 10
62.1654
 20
14.6195
 10
62.1654
 20
14.8525
 10
62.1654
 20
15.1062
 10
62.1654
 20
15.3599
 10
62.1654
 20
15.6136
 10
62.1654
 20
15.8673
 10
62.1654
 20
16.121
 10
62.1654
 20
16.3748
 10
62.1654
 20
16.6285
 10
62.1654
 20
16.8822
 10
62.1654
 20
17.1359
 10
62.1654
 20
17.3896
 10
62.1654
 20
17.6433
 10
62.1654
 20
17.897
 10
62.1654
 20
18.1507
 10
62.1654
 20
18.4044
 10
62.1654
 20
18.6581
 10
62.1654
 20
18.9118
 10
62.1654
 20
19.1655
 10
62.1654
 20
19.4192
 10
62.1654
 20
19.6729
 10
62.1654
 20
19.9266
 10
62.1654
 20
20.1803
 10
62.1654
 20
20.434
 10
62.1654
 20
20.6877
 10
62.1654
 20
20.9414
 10
62.1654
 20
21.1952
 10
62.3679
 20
21.2463
 10
62.6216
 20
21.2463
 10
62.8753
 20
21.2463
 10
63.1291
 20
21.2463
 10
63.3828
 20
21.2463
 10
63.6365
 20
21.2463
 10
63.8902
 20
21.2463
 10
64.1439
 20
21.2463
 10
64.3976
 20
21.2463
 10
64.6513
 20
21.2463
 10
64.905
 20
21.2463
 10
65.1587
 20
21.2463
 10
65.2329
 20
21.0669
 10
65.2329
 20
20.8131
 10
65.2329
 20
20.5594
 10
65.2329
 20
20.3057
 10
65.2329
 20
20.052
 10
65.2329
 20
19.7983
 10
65.2329
 20
19.5446
 10
65.2329
 20
19.2909
 10
65.2329
 20
19.0372
 10
65.2329
 20
18.7835
 10
65.2329
 20
18.5298
 10
65.2329
 20
18.2761
 10
65.2329
 20
18.0224
 10
65.2329
 20
17.7687
 10
65.2329
 20
17.515
 10
65.2329
 20
17.2613
 10
65.2329
 20
17.0076
 10
65.2329
 20
16.7539
 10
65.2329
 20
16.5002
 10
65.2329
 20
16.2465
 10
65.2329
 20
15.9927
 10
65.2329
 20
15.739
 10
65.2329
 20
15.4853
 10
65.2329
 20
15.2316
 10
65.2329
 20
14.9779
 10
65.2329
 20
14.7242
 10
65.2329
 20
14.4705
 10
65.2329
 20
14.2168
 10
65.2329
 20
13.9631
 10
65.2329
 20
13.7094
 10
65.2329
 20
13.4557
  0
LWPOLYLINE
  5
4D
330
17
100
AcDbEntity
  8
OUTLINE
100
AcDbPolyline
 90
672
 70
1
 10
74.1353
 20
7.8345
 10
74.0005
 20
7.8341
 10
73.8831
 20
7.8343
 10
73.7668
 20
7.8347
 10
73.6517
 20
7.8354
 10
73.5379
 20
7.8364
 10
73.4252
 20
7.8377
 10
73.3137
 20
7.8393
 10
73.2034
 20
7.8412
 10
73.0942
 20
7.8433
 10
72.9863
 20
7.8458
 10
72.8796
 20
7.8485
 10
72.774
 20
7.8515
 10
72.6696
 20
7.8548
 10
72.5664
 20
7.8584
 10
72.4644
 20
7.8623
 10
72.3636
 20
7.8665
 10
72.264
 20
7.8709
 10
72.1656
 20
7.8757
 10
72.0683
 20
7.8807
 10
71.9722
 20
7.886
 10
71.8774
 20
7.8916
 10
71.7837
 20
7.8975
 10
71.6912
 20
7.9037
 10
71.5999
 20
7.9101
 10
71.5097
 20
7.9169
 10
71.4208
 20
7.9239
 10
71.319
 20
7.9325
 10
71.2063
 20
7.9425
 10
71.0948
 20
7.953
 10
70.9846
 20
7.9639
 10
70.8756
 20
7.9754
 10
70.7678
 20
7.9873
 10
70.6612
 20
7.9998
 10
70.5559
 20
8.0127
 10
70.4518
 20
8.0261
 10
70.3489
 20
8.04
 10
70.2472
 20
8.0543
 10
70.1468
 20
8.0692
 10
70.0476
 20
8.0845
 10
69.9496
 20
8.1003
 10
69.8528
 20
8.1166
 10
69.7573
 20
8.1334
 10
69.663
 20
8.1507
 10
69.5699
 20
8.1684
 10
69.478
 20
8.1867
 10
69.3874
 20
8.2054
 10
69.3927
 20
8.3016
 10
69.4055
 20
8.4038
 10
69.4182
 20
8.506
 10
69.431
 20
8.6082
 10
69.4438
 20
8.7104
 10
69.4566
 20
8.8126
 10
69.4693
 20
8.9148
 10
69.4821
 20
9.0171
 10
69.4949
 20
9.1193
 10
69.5077
 20
9.2215
 10
69.5204
 20
9.3237
 10
69.5332
 20
9.4259
 10
69.546
 20
9.5281
 10
69.5588
 20
9.6303
 10
69.5715
 20
9.7325
 10
69.5843
 20
9.8347
 10
69.5971
 20
9.937
 10
69.6099
 20
10.0392
 10
69.6226
 20
10.1414
 10
69.6354
 20
10.2436
 10
69.6482
 20
10.3458
 10
69.6609
 20
10.448
 10
69.6737
 20
10.5502
 10
69.6865
 20
10.6524
 10
69.6993
 20
10.7547
 10
69.712
 20
10.8569
 10
69.7248
 20
10.9591
 10
69.7376
 20
11.0613
 10
69.8288
 20
11.0757
 10
69.9462
 20
11.0598
 10
70.0622
 20
11.0443
 10
70.1768
 20
11.0291
 10
70.29
 20
11.0142
 10
70.4019
 20
10.9997
 10
70.5124
 20
10.9855
 10
70.6215
 20
10.9716
 10
70.7292
 20
10.9581
 10
70.8355
 20
10.9449
 10
70.9405
 20
10.932
 10
71.0441
 20
10.9195
 10
71.1463
 20
10.9073
 10
71.2472
 20
10.8955
 10
71.3466
 20
10.8839
 10
71.4447
 20
10.8727
 10
71.5414
 20
10.8619
 10
71.6368
 20
10.8513
 10
71.7307
 20
10.8411
 10
71.8233
 20
10.8313
 10
71.9145
 20
10.8217
 10
72.0044
 20
10.8125
 10
72.0928
 20
10.8037
 10
72.1799
 20
10.7952
 10
72.2777
 20
10.7858
 10
72.3974
 20
10.7748
 10
72.515
 20
10.7645
 10
72.6304
 20
10.7548
 10
72.7437
 20
10.7458
 10
72.8547
 20
10.7375
 10
72.9635
 20
10.7298
 10
73.0701
 20
10.7229
 10
73.1745
 20
10.7166
 10
73.2768
 20
10.711
 10
73.3768
 20
10.706
 10
73.4747
 20
10.7018
 10
73.5703
 20
10.6982
 10
73.6638
 20
10.6952
 10
73.7551
 20
10.693
 10
73.8442
 20
10.6914
 10
73.931
 20
10.6905
 10
74.026
 20
10.6903
 10
74.1647
 20
10.6909
 10
74.3003
 20
10.6925
 10
74.433
 20
10.6949
 10
74.5626
 20
10.6982
 10
74.6892
 20
10.7024
 10
74.8128
 20
10.7075
 10
74.9334
 20
10.7135
 10
75.051
 20
10.7204
 10
75.1655
 20
10.7282
 10
75.2771
 20
10.7368
 10
75.3856
 20
10.7464
 10
75.4912
 20
10.7569
 10
75.5937
 20
10.7683
 10
75.6932
 20
10.7806
 10
75.7897
 20
10.7937
 10
75.8832
 20
10.8078
 10
75.9737
 20
10.8228
 10
76.0612
 20
10.8387
 10
76.1456
 20
10.8554
 10
76.2271
 20
10.8731
 10
76.3055
 20
10.8916
 10
76.3809
 20
10.9111
 10
76.4533
 20
10.9315
 10
76.5227
 20
10.9527
 10
76.5891
 20
10.9749
 10
76.6775
 20
11.0075
 10
76.794
 20
11.0572
 10
76.9009
 20
11.111
 10
76.9981
 20
11.1689
 10
77.0857
 20
11.231
 10
77.1636
 20
11.2971
 10
77.2319
 20
11.3674
 10
77.2905
 20
11.4419
 10
77.3395
 20
11.5204
 10
77.3788
 20
11.6031
 10
77.4084
 20
11.6899
 10
77.4285
 20
11.7809
 10
77.4388
 20
11.876
 10
77.4395
 20
11.9833
 10
77.4299
 20
12.0971
 10
77.41
 20
12.2027
 10
77.3797
 20
12.3001
 10
77.3391
 20
12.3894
 10
77.2881
 20
12.4706
 10
77.2268
 20
12.5436
 10
77.1634
 20
12.6021
 10
77.0955
 20
12.6541
 10
77.0193
 20
12.7035
 10
76.9348
 20
12.7502
 10
76.842
 20
12.7943
 10
76.7409
 20
12.8357
 10
76.6315
 20
12.8745
 10
76.5137
 20
12.9107
 10
76.4038
 20
12.9413
 10
76.3045
 20
12.9689
 10
76.2053
 20
12.9966
 10
76.1061
 20
13.0242
 10
76.0068
 20
13.0519
 10
75.9076
 20
13.0795
 10
75.8084
 20
13.1072
 10
75.7092
 20
13.1348
 10
75.6099
 20
13.1625
 10
75.5107
 20
13.1901
 10
75.4115
 20
13.2178
 10
75.3123
 20
13.2454
 10
75.213
 20
13.2731
 10
75.1138
 20
13.3007
 10
75.0146
 20
13.3284
 10
74.9154
 20
13.356
 10
74.8161
 20
13.3837
 10
74.7169
 20
13.4113
 10
74.6177
 20
13.439
 10
74.5185
 20
13.4666
 10
74.4192
 20
13.4943
 10
74.32
 20
13.5219
 10
74.2208
 20
13.5496
 10
74.1216
 20
13.5772
 10
74.0223
 20
13.6049
 10
73.9231
 20
13.6325
 10
73.8239
 20
13.6602
 10
73.7246
 20
13.6878
 10
73.6254
 20
13.7155
 10
73.5262
 20
13.7431
 10
73.427
 20
13.7708
 10
73.3277
 20
13.7984
 10
73.2285
 20
13.8261
 10
73.1293
 20
13.8537
 10
73.0301
 20
13.8814
 10
72.9308
 20
13.909
 10
72.8316
 20
13.9367
 10
72.7324
 20
13.9643
 10
72.6246
 20
13.9944
 10
72.505
 20
14.0292
 10
72.3878
 20
14.0649
 10
72.273
 20
14.1016
 10
72.1606
 20
14.1393
 10
72.0507
 20
14.178
 10
71.9432
 20
14.2177
 10
71.8381
 20
14.2584
 10
71.7355
 20
14.3001
 10
71.6353
 20
14.3428
 10
71.5375
 20
14.3865
 10
71.4421
 20
14.4311
 10
71.3492
 20
14.4768
 10
71.2587
 20
14.5235
 10
71.1706
 20
14.5712
 10
71.0849
 20
14.6199
 10
71.0017
 20
14.6695
 10
70.9208
 20
14.7202
 10
70.8425
 20
14.7719
 10
70.7665
 20
14.8245
 10
70.693
 20
14.8782
 10
70.6218
 20
14.9328
 10
70.5531
 20
14.9885
 10
70.4869
 20
15.0451
 10
70.423
 20
15.1028
 10
70.3616
 20
15.1614
 10
70.2976
 20
15.2266
 10
70.2341
 20
15.2965
 10
70.1735
 20
15.3687
 10
70.1159
 20
15.4434
 10
70.0612
 20
15.5205
 10
70.0095
 20
15.6001
 10
69.9607
 20
15.682
 10
69.9148
 20
15.7664
 10
69.8719
 20
15.8531
 10
69.8319
 20
15.9423
 10
69.7949
 20
16.0339
 10
69.7608
 20
16.1279
 10
69.7296
 20
16.2244
 10
69.7014
 20
16.3232
 10
69.6761
 20
16.4245
 10
69.6537
 20
16.5282
 10
69.6343
 20
16.6343
 10
69.6178
 20
16.7428
 10
69.6043
 20
16.8537
 10
69.5937
 20
16.967
 10
69.586
 20
17.0828
 10
69.5813
 20
17.2009
 10
69.5796
 20
17.3215
 10
69.5806
 20
17.4378
 10
69.5841
 20
17.5518
 10
69.5903
 20
17.6642
 10
69.599
 20
17.7749
 10
69.6103
 20
17.884
 10
69.6242
 20
17.9913
 10
69.6406
 20
18.097
 10
69.6596
 20
18.2011
 10
69.6812
 20
18.3034
 10
69.7054
 20
18.4041
 10
69.7321
 20
18.5031
 10
69.7614
 20
18.6005
 10
69.7933
 20
18.6962
 10
69.8277
 20
18.7902
 10
69.8647
 20
18.8826
 10
69.9043
 20
18.9733
 10
69.9464
 20
19.0623
 10
69.9911
 20
19.1497
 10
70.0384
 20
19.2353
 10
70.0883
 20
19.3194
 10
70.1407
 20
19.4017
 10
70.1957
 20
19.4824
 10
70.2533
 20
19.5614
 10
70.3134
 20
19.6388
 10
70.3762
 20
19.7145
 10
70.4414
 20
19.7885
 10
70.5093
 20
19.8608
 10
70.5797
 20
19.9315
 10
70.6527
 20
20.0005
 10
70.7283
 20
20.0679
 10
70.8064
 20
20.1336
 10
70.8872
 20
20.1976
 10
70.9704
 20
20.2599
 10
71.0563
 20
20.3206
 10
71.1447
 20
20.3796
 10
71.2357
 20
20.4369
 10
71.3237
 20
20.4894
 10
71.3889
 20
20.5265
 10
71.4555
 20
20.5629
 10
71.5234
 20
20.5986
 10
71.5926
 20
20.6336
 10
71.6632
 20
20.6679
 10
71.7351
 20
20.7016
 10
71.8083
 20
20.7345
 10
71.8829
 20
20.7667
 10
71.9588
 20
20.7982
 10
72.036
 20
20.8291
 10
72.1145
 20
20.8592
 10
72.1944
 20
20.8886
 10
72.2756
 20
20.9174
 10
72.3582
 20
20.9454
 10
72.442
 20
20.9727
 10
72.5272
 20
20.9994
 10
72.6138
 20
21.0253
 10
72.7016
 20
21.0506
 10
72.7908
 20
21.0751
 10
72.8814
 20
21.099
 10
72.9732
 20
21.1221
 10
73.0664
 20
21.1446
 10
73.161
 20
21.1663
 10
73.2568
 20
21.1874
 10
73.354
 20
21.2077
 10
73.4525
 20
21.2274
 10
73.5524
 20
21.2464
 10
73.6536
 20
21.2646
 10
73.7561
 20
21.2822
 10
73.8599
 20
21.2991
 10
73.9651
 20
21.3152
 10
74.0716
 20
21.3307
 10
74.1794
 20
21.3455
 10
74.2886
 20
21.3596
 10
74.3991
 20
21.373
 10
74.5109
 20
21.3857
 10
74.6241
 20
21.3976
 10
74.7386
 20
21.4089
 10
74.8544
 20
21.4195
 10
74.9716
 20
21.4294
 10
75.0901
 20
21.4386
 10
75.2099
 20
21.4471
 10
75.3311
 20
21.4549
 10
75.4535
 20
21.462
 10
75.5774
 20
21.4684
 10
75.7025
 20
21.4741
 10
75.829
 20
21.4791
 10
75.9568
 20
21.4834
 10
76.0859
 20
21.487
 10
76.2164
 20
21.49
 10
76.3482
 20
21.4922
 10
76.4814
 20
21.4937
 10
76.6158
 20
21.4945
 10
76.7412
 20
21.4947
 10
76.8451
 20
21.4943
 10
76.9489
 20
21.4936
 10
77.0525
 20
21.4924
 10
77.156
 20
21.4908
 10
77.2594
 20
21.4887
 10
77.3627
 20
21.4863
 10
77.4659
 20
21.4834
 10
77.5689
 20
21.4802
 10
77.6718
 20
21.4765
 10
77.7745
 20
21.4723
 10
77.8772
 20
21.4678
 10
77.9797
 20
21.4628
 10
78.0821
 20
21.4575
 10
78.1844
 20
21.4517
 10
78.2865
 20
21.4454
 10
78.3885
 20
21.4388
 10
78.4899
 20
21.4318
 10
78.5882
 20
21.4246
 10
78.6869
 20
21.417
 10
78.7862
 20
21.409
 10
78.886
 20
21.4006
 10
78.9863
 20
21.3918
 10
79.0871
 20
21.3827
 10
79.1884
 20
21.3732
 10
79.2902
 20
21.3633
 10
79.3925
 20
21.353
 10
79.4953
 20
21.3423
 10
79.5986
 20
21.3312
 10
79.7024
 20
21.3197
 10
79.8067
 20
21.3079
 10
79.9116
 20
21.2956
 10
80.0169
 20
21.283
 10
80.1228
 20
21.27
 10
80.2291
 20
21.2566
 10
80.3063
 20
21.2208
 10
80.2944
 20
21.1185
 10
80.2825
 20
21.0161
 10
80.2706
 20
20.9138
 10
80.2588
 20
20.8115
 10
80.2469
 20
20.7092
 10
80.235
 20
20.6069
 10
80.2231
 20
20.5045
 10
80.2112
 20
20.4022
 10
80.1993
 20
20.2999
 10
80.1875
 20
20.1976
 10
80.1756
 20
20.0953
 10
80.1637
 20
19.9929
 10
80.1518
 20
19.8906
 10
80.1399
 20
19.7883
 10
80.1281
 20
19.686
 10
80.1162
 20
19.5837
 10
80.1043
 20
19.4814
 10
80.0924
 20
19.379
 10
80.0805
 20
19.2767
 10
80.0687
 20
19.1744
 10
80.0568
 20
19.0721
 10
80.0449
 20
18.9698
 10
80.033
 20
18.8674
 10
80.0211
 20
18.7651
 10
80.0093
 20
18.6628
 10
79.9974
 20
18.5605
 10
79.979
 20
18.4652
 10
79.8627
 20
18.4757
 10
79.7479
 20
18.4859
 10
79.6347
 20
18.4958
 10
79.5231
 20
18.5053
 10
79.4131
 20
18.5144
 10
79.3046
 20
18.5231
 10
79.1977
 20
18.5315
 10
79.0924
 20
18.5395
 10
78.9886
 20
18.5472
 10
78.8864
 20
18.5545
 10
78.7858
 20
18.5614
 10
78.6867
 20
18.5679
 10
78.5893
 20
18.5741
 10
78.4934
 20
18.58
 10
78.399
 20
18.5854
 10
78.3063
 20
18.5905
 10
78.2151
 20
18.5952
 10
78.1254
 20
18.5996
 10
78.0208
 20
18.6044
 10
77.9079
 20
18.6092
 10
77.7966
 20
18.6136
 10
77.6871
 20
18.6177
 10
77.5792
 20
18.6214
 10
77.4729
 20
18.6247
 10
77.3684
 20
18.6277
 10
77.2655
 20
18.6303
 10
77.1642
 20
18.6325
 10
77.0647
 20
18.6344
 10
76.9668
 20
18.6359
 10
76.8706
 20
18.637
 10
76.776
 20
18.6377
 10
76.6831
 20
18.6381
 10
76.5693
 20
18.6381
 10
76.431
 20
18.6375
 10
76.2954
 20
18.6362
 10
76.1624
 20
18.6342
 10
76.0321
 20
18.6315
 10
75.9044
 20
18.6282
 10
75.7793
 20
18.6241
 10
75.657
 20
18.6194
 10
75.5372
 20
18.6141
 10
75.4202
 20
18.608
 10
75.3058
 20
18.6013
 10
75.194
 20
18.594
 10
75.0849
 20
18.5859
 10
74.9785
 20
18.5772
 10
74.8747
 20
18.5677
 10
74.7735
 20
18.5577
 10
74.675
 20
18.5469
 10
74.5792
 20
18.5355
 10
74.486
 20
18.5234
 10
74.3955
 20
18.5106
 10
74.3077
 20
18.4971
 10
74.2225
 20
18.483
 10
74.1399
 20
18.4682
 10
74.06
 20
18.4527
 10
73.9828
 20
18.4366
 10
73.9082
 20
18.4198
 10
73.8362
 20
18.4023
 10
73.767
 20
18.3841
 10
73.7003
 20
18.3653
 10
73.611
 20
18.3376
 10
73.4839
 20
18.2925
 10
73.3667
 20
18.2436
 10
73.2595
 20
18.1911
 10
73.1622
 20
18.1348
 10
73.0749
 20
18.0747
 10
72.9975
 20
18.011
 10
72.93
 20
17.9434
 10
72.8725
 20
17.8722
 10
72.825
 20
17.7972
 10
72.7873
 20
17.7185
 10
72.7597
 20
17.636
 10
72.7419
 20
17.5498
 10
72.7342
 20
17.4599
 10
72.7367
 20
17.3479
 10
72.7509
 20
17.2363
 10
72.7767
 20
17.1342
 10
72.8141
 20
17.0416
 10
72.8631
 20
16.9585
 10
72.9238
 20
16.8849
 10
72.9961
 20
16.8209
 10
73.0626
 20
16.7748
 10
73.1341
 20
16.7319
 10
73.2131
 20
16.6903
 10
73.2996
 20
16.6499
 10
73.3936
 20
16.6108
 10
73.4952
 20
16.5729
 10
73.6042
 20
16.5363
 10
73.7208
 20
16.5009
 10
73.8449
 20
16.4668
 10
73.9458
 20
16.4396
 10
74.0453
 20
16.4128
 10
74.1447
 20
16.386
 10
74.2442
 20
16.3592
 10
74.3436
 20
16.3324
 10
74.4431
 20
16.3056
 10
74.5426
 20
16.2788
 10
74.642
 20
16.252
 10
74.7415
 20
16.2252
 10
74.8409
 20
16.1984
 10
74.9404
 20
16.1716
 10
75.0398
 20
16.1448
 10
75.1393
 20
16.118
 10
75.2388
 20
16.0912
 10
75.3382
 20
16.0644
 10
75.4377
 20
16.0376
 10
75.5371
 20
16.0108
 10
75.6366
 20
15.984
 10
75.7361
 20
15.9572
 10
75.8355
 20
15.9304
 10
75.935
 20
15.9036
 10
76.0344
 20
15.8768
 10
76.1339
 20
15.85
 10
76.2333
 20
15.8232
 10
76.3328
 20
15.7964
 10
76.4323
 20
15.7696
 10
76.5317
 20
15.7428
 10
76.6312
 20
15.716
 10
76.7306
 20
15.6891
 10
76.8301
 20
15.6623
 10
76.9296
 20
15.6355
 10
77.029
 20
15.6087
 10
77.1515
 20
15.5768
 10
77.2721
 20
15.5439
 10
77.3907
 20
15.5102
 10
77.5071
 20
15.4756
 10
77.6213
 20
15.4401
 10
77.7333
 20
15.4037
 10
77.8433
 20
15.3665
 10
77.951
 20
15.3285
 10
78.0566
 20
15.2896
 10
78.16
 20
15.2498
 10
78.2613
 20
15.2091
 10
78.3605
 20
15.1676
 10
78.4574
 20
15.1252
 10
78.5522
 20
15.082
 10
78.6449
 20
15.0379
 10
78.7354
 20
14.9929
 10
78.8237
 20
14.9471
 10
78.9099
 20
14.9004
 10
78.9939
 20
14.8529
 10
79.0758
 20
14.8044
 10
79.1555
 20
14.7552
 10
79.2331
 20
14.705
 10
79.3085
 20
14.654
 10
79.3817
 20
14.6022
 10
79.4528
 20
14.5494
 10
79.5218
 20
14.4959
 10
79.5885
 20
14.4414
 10
79.6531
 20
14.3861
 10
79.7156
 20
14.3299
 10
79.7773
 20
14.2716
 10
79.8467
 20
14.2016
 10
79.9132
 20
14.1297
 10
79.9769
 20
14.0558
 10
80.0378
 20
13.9799
 10
80.0958
 20
13.902
 10
80.151
 20
13.8221
 10
80.2033
 20
13.7402
 10
80.2527
 20
13.6563
 10
80.2993
 20
13.5704
 10
80.343
 20
13.4826
 10
80.3839
 20
13.3927
 10
80.422
 20
13.3009
 10
80.4572
 20
13.207
 10
80.4895
 20
13.1112
 10
80.519
 20
13.0133
 10
80.5456
 20
12.9135
 10
80.5694
 20
12.8116
 10
80.5903
 20
12.7078
 10
80.6084
 20
12.602
 10
80.6236
 20
12.4942
 10
80.636
 20
12.3844
 10
80.6455
 20
12.2726
 10
80.6521
 20
12.1588
 10
80.6559
 20
12.043
 10
80.6569
 20
11.9253
 10
80.6552
 20
11.8083
 10
80.651
 20
11.6931
 10
80.6442
 20
11.5796
 10
80.6349
 20
11.4678
 10
80.6231
 20
11.3578
 10
80.6087
 20
11.2495
 10
80.5918
 20
11.143
 10
80.5724
 20
11.0382
 10
80.5504
 20
10.9351
 10
80.5258
 20
10.8338
 10
80.4988
 20
10.7342
 10
80.4692
 20
10.6363
 10
80.4371
 20
10.5402
 10
80.4024
 20
10.4459
 10
80.3652
 20
10.3533
 10
80.3254
 20
10.2624
 10
80.2831
 20
10.1732
 10
80.2383
 20
10.0858
 10
80.1909
 20
10.0002
 10
80.141
 20
9.9162
 10
80.0886
 20
9.834
 10
80.0336
 20
9.7536
 10
79.9761
 20
9.6749
 10
79.9161
 20
9.5979
 10
79.8535
 20
9.5227
 10
79.7884
 20
9.4492
 10
79.7207
 20
9.3775
 10
79.6505
 20
9.3075
 10
79.5778
 20
9.2392
 10
79.5025
 20
9.1727
 10
79.4247
 20
9.1079
 10
79.3443
 20
9.0449
 10
79.2614
 20
8.9836
 10
79.176
 20
8.924
 10
79.0881
 20
8.8662
 10
79.0089
 20
8.8169
 10
78.9433
 20
8.778
 10
78.8763
 20
8.7399
 10
78.8079
 20
8.7025
 10
78.7381
 20
8.666
 10
78.6668
 20
8.6302
 10
78.5942
 20
8.5952
 10
78.5202
 20
8.561
 10
78.4447
 20
8.5276
 10
78.3678
 20
8.495
 10
78.2895
 20
8.4631
 10
78.2098
 20
8.4321
 10
78.1287
 20
8.4018
 10
78.0462
 20
8.3723
 10
77.9623
 20
8.3436
 10
77.8769
 20
8.3157
 10
77.7902
 20
8.2886
 10
77.702
 20
8.2622
 10
77.6124
 20
8.2367
 10
77.5214
 20
8.2119
 10
77.429
 20
8.1879
 10
77.3352
 20
8.1647
 10
77.24
 20
8.1423
 10
77.1433
 20
8.1207
 10
77.0453
 20
8.0999
 10
76.9458
 20
8.0798
 10
76.8449
 20
8.0606
 10
76.7427
 20
8.0421
 10
76.639
 20
8.0244
 10
76.5339
 20
8.0075
 10
76.4273
 20
7.9914
 10
76.3194
 20
7.976
 10
76.2101
 20
7.9615
 10
76.0993
 20
7.9477
 10
75.9871
 20
7.9348
 10
75.8736
 20
7.9226
 10
75.7586
 20
7.9112
 10
75.6422
 20
7.9006
 10
75.5244
 20
7.8907
 10
75.4051
 20
7.8817
 10
75.2845
 20
7.8734
 10
75.1624
 20
7.866
 10
75.039
 20
7.8593
 10
74.9141
 20
7.8534
 10
74.7878
 20
7.8483
 10
74.6601
 20
7.844
 10
74.531
 20
7.8404
 10
74.4005
 20
7.8377
 10
74.2686
 20
7.8357
  0
LWPOLYLINE
  5
4E
330
17
100
AcDbEntity
  8
OUTLINE
100
AcDbPolyline
 90
192
 70
1
 10
105.0677
 20
7.8376
 10
104.8235
 20
7.8341
 10
104.5801
 20
7.8376
 10
104.3415
 20
7.848
 10
104.1078
 20
7.8653
 10
103.8789
 20
7.8895
 10
103.6548
 20
7.9206
 10
103.4355
 20
7.9587
 10
103.2211
 20
8.0037
 10
103.0115
 20
8.0556
 10
102.8067
 20
8.1144
 10
102.6067
 20
8.1801
 10
102.4116
 20
8.2528
 10
102.2213
 20
8.3324
 10
102.0359
 20
8.4189
 10
101.8552
 20
8.5123
 10
101.6794
 20
8.6127
 10
101.5085
 20
8.7199
 10
101.3423
 20
8.8341
 10
101.181
 20
8.9552
 10
101.0246
 20
9.0832
 10
100.8729
 20
9.2182
 10
100.7261
 20
9.36
 10
100.5841
 20
9.5088
 10
100.4506
 20
9.6603
 10
100.3318
 20
9.8055
 10
100.2179
 20
9.9552
 10
100.1089
 20
10.1096
 10
100.0047
 20
10.2686
 10
99.9054
 20
10.4322
 10
99.8109
 20
10.6003
 10
99.7213
 20
10.7731
 10
99.6365
 20
10.9504
 10
99.5565
 20
11.1324
 10
99.4815
 20
11.319
 10
99.4112
 20
11.5101
 10
99.3458
 20
11.7058
 10
99.2853
 20
11.9062
 10
99.2296
 20
12.1111
 10
99.1788
 20
12.3207
 10
99.1328
 20
12.5348
 10
99.0917
 20
12.7535
 10
99.0554
 20
12.9768
 10
99.0239
 20
13.2047
 10
98.9973
 20
13.4373
 10
98.9756
 20
13.6744
 10
98.9587
 20
13.9161
 10
98.9467
 20
14.1624
 10
98.9395
 20
14.4133
 10
98.9371
 20
14.6688
 10
98.9396
 20
14.9248
 10
98.947
 20
15.1761
 10
98.9592
 20
15.4228
 10
98.9762
 20
15.6649
 10
98.998
 20
15.9023
 10
99.0247
 20
16.1351
 10
99.0563
 20
16.3632
 10
99.0926
 20
16.5867
 10
99.1338
 20
16.8055
 10
99.1799
 20
17.0197
 10
99.2308
 20
17.2293
 10
99.2865
 20
17.4342
 10
99.3471
 20
17.6344
 10
99.4125
 20
17.8301
 10
99.4827
 20
18.021
 10
99.5578
 20
18.2074
 10
99.6377
 20
18.389
 10
99.7224
 20
18.5661
 10
99.812
 20
18.7385
 10
99.9064
 20
18.9062
 10
100.0057
 20
19.0693
 10
100.1098
 20
19.2278
 10
100.2188
 20
19.3816
 10
100.3325
 20
19.5307
 10
100.4512
 20
19.6753
 10
100.5848
 20
19.8263
 10
100.7269
 20
19.9746
 10
100.8738
 20
20.116
 10
101.0256
 20
20.2506
 10
101.1822
 20
20.3782
 10
101.3437
 20
20.4989
 10
101.51
 20
20.6128
 10
101.6811
 20
20.7197
 10
101.857
 20
20.8197
 10
102.0378
 20
20.9128
 10
102.2235
 20
20.999
 10
102.4139
 20
21.0783
 10
102.6092
 20
21.1507
 10
102.8093
 20
21.2161
 10
103.0143
 20
21.2747
 10
103.2241
 20
21.3264
 10
103.4388
 20
21.3711
 10
103.6582
 20
21.409
 10
103.8825
 20
21.4399
 10
104.1117
 20
21.464
 10
104.3457
 20
21.4811
 10
104.5845
 20
21.4914
 10
104.8282
 20
21.4947
 10
105.0723
 20
21.4911
 10
105.3116
 20
21.4806
 10
105.5461
 20
21.4633
 10
105.7756
 20
21.4391
 10
106.0002
 20
21.4079
 10
106.2199
 20
21.3699
 10
106.4347
 20
21.325
 10
106.6447
 20
21.2733
 10
106.8497
 20
21.2146
 10
107.0499
 20
21.149
 10
107.2451
 20
21.0766
 10
107.4355
 20
20.9972
 10
107.6209
 20
20.911
 10
107.8015
 20
20.8179
 10
107.9772
 20
20.7179
 10
108.148
 20
20.611
 10
108.3139
 20
20.4973
 10
108.4749
 20
20.3766
 10
108.631
 20
20.2491
 10
108.7822
 20
20.1146
 10
108.9285
 20
19.9733
 10
109.0699
 20
19.8251
 10
109.2028
 20
19.6743
 10
109.3209
 20
19.5297
 10
109.4343
 20
19.3804
 10
109.5428
 20
19.2265
 10
109.6465
 20
19.0679
 10
109.7454
 20
18.9047
 10
109.8394
 20
18.7368
 10
109.9287
 20
18.5643
 10
110.0131
 20
18.3871
 10
110.0926
 20
18.2053
 10
110.1674
 20
18.0188
 10
110.2373
 20
17.8277
 10
110.3024
 20
17.632
 10
110.3627
 20
17.4316
 10
110.4182
 20
17.2265
 10
110.4688
 20
17.0168
 10
110.5146
 20
16.8024
 10
110.5556
 20
16.5834
 10
110.5918
 20
16.3597
 10
110.6231
 20
16.1314
 10
110.6497
 20
15.8985
 10
110.6714
 20
15.6609
 10
110.6882
 20
15.4186
 10
110.7003
 20
15.1717
 10
110.7075
 20
14.9201
 10
110.7099
 20
14.6639
 10
110.7075
 20
14.4084
 10
110.7002
 20
14.1575
 10
110.6882
 20
13.9112
 10
110.6712
 20
13.6694
 10
110.6495
 20
13.4323
 10
110.6229
 20
13.1998
 10
110.5914
 20
12.9719
 10
110.5552
 20
12.7485
 10
110.5141
 20
12.5298
 10
110.4681
 20
12.3157
 10
110.4173
 20
12.1062
 10
110.3617
 20
11.9012
 10
110.3013
 20
11.7009
 10
110.236
 20
11.5052
 10
110.1659
 20
11.3141
 10
110.091
 20
11.1275
 10
110.0112
 20
10.9456
 10
109.9266
 20
10.7683
 10
109.8371
 20
10.5956
 10
109.7428
 20
10.4275
 10
109.6437
 20
10.264
 10
109.5397
 20
10.105
 10
109.4309
 20
9.9507
 10
109.3173
 20
9.801
 10
109.1989
 20
9.6559
 10
109.0654
 20
9.5043
 10
108.9239
 20
9.3559
 10
108.7775
 20
9.2144
 10
108.6263
 20
9.0799
 10
108.4701
 20
8.9522
 10
108.3091
 20
8.8314
 10
108.1432
 20
8.7175
 10
107.9723
 20
8.6106
 10
107.7966
 20
8.5105
 10
107.616
 20
8.4173
 10
107.4306
 20
8.331
 10
107.2402
 20
8.2517
 10
107.0449
 20
8.1792
 10
106.8448
 20
8.1136
 10
106.6398
 20
8.055
 10
106.4298
 20
8.0032
 10
106.215
 20
7.9584
 10
105.9953
 20
7.9204
 10
105.7708
 20
7.8893
 10
105.5413
 20
7.8652
 10
105.3069
 20
7.8479
  0
LWPOLYLINE
  5
4F
330
17
100
AcDbEntity
  8
OUTLINE
100
AcDbPolyline
 90
192
 70
1
 10
104.7001
 20
10.6927
 10
104.8235
 20
10.6903
 10
104.9477
 20
10.6927
 10
105.0692
 20
10.6998
 10
105.1878
 20
10.7116
 10
105.3037
 20
10.7281
 10
105.4168
 20
10.7493
 10
105.5272
 20
10.7752
 10
105.6347
 20
10.8059
 10
105.7395
 20
10.8413
 10
105.8416
 20
10.8814
 10
105.9408
 20
10.9262
 10
106.0373
 20
10.9758
 10
106.1311
 20
11.03
 10
106.222
 20
11.089
 10
106.3102
 20
11.1527
 10
106.3956
 20
11.2211
 10
106.4783
 20
11.2942
 10
106.5582
 20
11.3721
 10
106.6353
 20
11.4546
 10
106.7096
 20
11.5419
 10
106.7812
 20
11.6339
 10
106.8495
 20
11.7299
 10
106.9008
 20
11.8078
 10
106.9502
 20
11.8881
 10
106.9976
 20
11.9708
 10
107.0431
 20
12.0558
 10
107.0867
 20
12.1431
 10
107.1283
 20
12.2329
 10
107.168
 20
12.325
 10
107.2058
 20
12.4194
 10
107.2416
 20
12.5162
 10
107.2755
 20
12.6154
 10
107.3075
 20
12.7169
 10
107.3375
 20
12.8208
 10
107.3656
 20
12.927
 10
107.3918
 20
13.0356
 10
107.416
 20
13.1465
 10
107.4383
 20
13.2598
 10
107.4586
 20
13.3755
 10
107.477
 20
13.4935
 10
107.4935
 20
13.6139
 10
107.5081
 20
13.7366
 10
107.5207
 20
13.8617
 10
107.5313
 20
13.9892
 10
107.5401
 20
14.119
 10
107.5469
 20
14.2512
 10
107.5518
 20
14.3857
 10
107.5547
 20
14.5226
 10
107.5557
 20
14.6618
 10
107.5548
 20
14.8016
 10
107.5519
 20
14.9391
 10
107.5471
 20
15.0741
 10
107.5403
 20
15.2068
 10
107.5316
 20
15.337
 10
107.521
 20
15.4649
 10
107.5084
 20
15.5904
 10
107.4939
 20
15.7134
 10
107.4774
 20
15.8341
 10
107.459
 20
15.9524
 10
107.4386
 20
16.0683
 10
107.4164
 20
16.1817
 10
107.3921
 20
16.2928
 10
107.366
 20
16.4015
 10
107.3378
 20
16.5078
 10
107.3078
 20
16.6117
 10
107.2758
 20
16.7132
 10
107.2419
 20
16.8123
 10
107.206
 20
16.909
 10
107.1682
 20
17.0033
 10
107.1284
 20
17.0953
 10
107.0867
 20
17.1848
 10
107.0431
 20
17.2719
 10
106.9975
 20
17.3566
 10
106.95
 20
17.439
 10
106.9005
 20
17.5189
 10
106.8491
 20
17.5964
 10
106.782
 20
17.6902
 10
106.7099
 20
17.7825
 10
106.6352
 20
17.8701
 10
106.5577
 20
17.953
 10
106.4775
 20
18.0312
 10
106.3946
 20
18.1046
 10
106.309
 20
18.1733
 10
106.2207
 20
18.2372
 10
106.1296
 20
18.2965
 10
106.0359
 20
18.351
 10
105.9394
 20
18.4007
 10
105.8403
 20
18.4458
 10
105.7384
 20
18.4861
 10
105.6339
 20
18.5216
 10
105.5266
 20
18.5525
 10
105.4166
 20
18.5786
 10
105.3039
 20
18.6
 10
105.1885
 20
18.6166
 10
105.0704
 20
18.6285
 10
104.9496
 20
18.6357
 10
104.826
 20
18.6382
 10
104.7024
 20
18.6359
 10
104.5815
 20
18.6289
 10
104.4632
 20
18.6172
 10
104.3477
 20
18.6007
 10
104.2349
 20
18.5795
 10
104.1248
 20
18.5536
 10
104.0174
 20
18.5229
 10
103.9127
 20
18.4876
 10
103.8108
 20
18.4474
 10
103.7115
 20
18.4026
 10
103.615
 20
18.353
 10
103.5211
 20
18.2987
 10
103.43
 20
18.2397
 10
103.3416
 20
18.1759
 10
103.2558
 20
18.1074
 10
103.1728
 20
18.0342
 10
103.0925
 20
17.9562
 10
103.0149
 20
17.8735
 10
102.94
 20
17.7861
 10
102.8679
 20
17.694
 10
102.8001
 20
17.5995
 10
102.7486
 20
17.522
 10
102.699
 20
17.4422
 10
102.6514
 20
17.36
 10
102.6058
 20
17.2753
 10
102.5621
 20
17.1883
 10
102.5203
 20
17.0989
 10
102.4804
 20
17.007
 10
102.4425
 20
16.9128
 10
102.4066
 20
16.8162
 10
102.3726
 20
16.7172
 10
102.3405
 20
16.6158
 10
102.3104
 20
16.512
 10
102.2822
 20
16.4058
 10
102.2559
 20
16.2972
 10
102.2316
 20
16.1862
 10
102.2093
 20
16.0728
 10
102.1889
 20
15.957
 10
102.1704
 20
15.8389
 10
102.1538
 20
15.7183
 10
102.1392
 20
15.5953
 10
102.1266
 20
15.4699
 10
102.1158
 20
15.3422
 10
102.1071
 20
15.212
 10
102.1002
 20
15.0794
 10
102.0953
 20
14.9445
 10
102.0924
 20
14.8071
 10
102.0914
 20
14.6674
 10
102.0923
 20
14.5281
 10
102.0952
 20
14.3913
 10
102.1
 20
14.2567
 10
102.1068
 20
14.1246
 10
102.1155
 20
13.9947
 10
102.1262
 20
13.8673
 10
102.1388
 20
13.7422
 10
102.1534
 20
13.6194
 10
102.1699
 20
13.499
 10
102.1884
 20
13.381
 10
102.2088
 20
13.2653
 10
102.2312
 20
13.1519
 10
102.2555
 20
13.0409
 10
102.2818
 20
12.9323
 10
102.31
 20
12.826
 10
102.3402
 20
12.7221
 10
102.3723
 20
12.6206
 10
102.4064
 20
12.5213
 10
102.4424
 20
12.4245
 10
102.4803
 20
12.33
 10
102.5202
 20
12.2378
 10
102.5621
 20
12.148
 10
102.6059
 20
12.0606
 10
102.6517
 20
11.9755
 10
102.6994
 20
11.8928
 10
102.7491
 20
11.8124
 10
102.8007
 20
11.7344
 10
102.8686
 20
11.6392
 10
102.9407
 20
11.5467
 10
103.0155
 20
11.4589
 10
103.093
 20
11.3759
 10
103.1732
 20
11.2976
 10
103.2561
 20
11.2241
 10
103.3417
 20
11.1553
 10
103.43
 20
11.0912
 10
103.521
 20
11.0319
 10
103.6147
 20
10.9774
 10
103.7111
 20
10.9275
 10
103.8102
 20
10.8825
 10
103.912
 20
10.8421
 10
104.0164
 20
10.8066
 10
104.1236
 20
10.7757
 10
104.2335
 20
10.7496
 10
104.3461
 20
10.7283
 10
104.4614
 20
10.7117
 10
104.5794
 20
10.6998
  0
LWPOLYLINE
  5
50
330
17
100
AcDbEntity
  8
OUTLINE
100
AcDbPolyline
 90
303
 70
1
 10
92.318
 20
20.8287
 10
92.318
 20
20.62
 10
92.318
 20
20.5013
 10
92.318
 20
20.4112
 10
92.318
 20
20.2024
 10
92.318
 20
20.1789
 10
92.318
 20
19.9936
 10
92.318
 20
19.8565
 10
92.318
 20
19.7848
 10
92.318
 20
19.576
 10
92.318
 20
19.5341
 10
92.318
 20
19.3672
 10
92.318
 20
19.2118
 10
92.318
 20
19.1584
 10
92.318
 20
18.9496
 10
92.318
 20
18.8894
 10
92.318
 20
18.7408
 10
92.318
 20
18.567
 10
92.318
 20
18.532
 10
92.318
 20
18.2447
 10
92.318
 20
17.9223
 10
92.318
 20
17.5999
 10
92.318
 20
17.2775
 10
92.318
 20
16.9552
 10
92.318
 20
16.6328
 10
92.318
 20
16.3104
 10
92.318
 20
15.988
 10
92.318
 20
15.6657
 10
92.318
 20
15.3433
 10
92.318
 20
15.0209
 10
92.318
 20
14.6985
 10
92.318
 20
14.3762
 10
92.318
 20
14.0538
 10
92.318
 20
13.7314
 10
92.318
 20
13.409
 10
92.318
 20
13.0867
 10
92.318
 20
12.7643
 10
92.318
 20
12.4419
 10
92.318
 20
12.1195
 10
92.318
 20
11.7972
 10
92.318
 20
11.4748
 10
92.318
 20
11.1524
 10
92.318
 20
10.8643
 10
92.3467
 20
10.8643
 10
92.4924
 20
10.8643
 10
92.6381
 20
10.8643
 10
92.7837
 20
10.8643
 10
92.9294
 20
10.8643
 10
93.0751
 20
10.8643
 10
93.2207
 20
10.8643
 10
93.3664
 20
10.8643
 10
93.512
 20
10.8643
 10
93.6577
 20
10.8643
 10
93.8034
 20
10.8643
 10
93.949
 20
10.8643
 10
94.0947
 20
10.8643
 10
94.2404
 20
10.8643
 10
94.386
 20
10.8643
 10
94.5317
 20
10.8643
 10
94.6773
 20
10.8643
 10
94.823
 20
10.8643
 10
94.9687
 20
10.8643
 10
95.1143
 20
10.8643
 10
95.26
 20
10.8643
 10
95.4057
 20
10.8643
 10
95.5513
 20
10.8643
 10
95.697
 20
10.8643
 10
95.8426
 20
10.8643
 10
95.9883
 20
10.8643
 10
96.134
 20
10.8643
 10
96.2796
 20
10.8643
 10
96.2796
 20
10.7187
 10
96.2796
 20
10.573
 10
96.2796
 20
10.4273
 10
96.2796
 20
10.2817
 10
96.2796
 20
10.136
 10
96.2796
 20
9.9903
 10
96.2796
 20
9.8447
 10
96.2796
 20
9.699
 10
96.2796
 20
9.5534
 10
96.2796
 20
9.4077
 10
96.2796
 20
9.262
 10
96.2796
 20
9.1164
 10
96.2796
 20
8.9707
 10
96.2796
 20
8.825
 10
96.2796
 20
8.6794
 10
96.2796
 20
8.5337
 10
96.2796
 20
8.3881
 10
96.2796
 20
8.2424
 10
96.2796
 20
8.0967
 10
96.1482
 20
8.0825
 10
96.0026
 20
8.0825
 10
95.8569
 20
8.0825
 10
95.7112
 20
8.0825
 10
95.5656
 20
8.0825
 10
95.4199
 20
8.0825
 10
95.2742
 20
8.0825
 10
95.1286
 20
8.0825
 10
94.9829
 20
8.0825
 10
94.8373
 20
8.0825
 10
94.6916
 20
8.0825
 10
94.5459
 20
8.0825
 10
94.4003
 20
8.0825
 10
94.2546
 20
8.0825
 10
94.109
 20
8.0825
 10
93.9633
 20
8.0825
 10
93.8176
 20
8.0825
 10
93.672
 20
8.0825
 10
93.5263
 20
8.0825
 10
93.3806
 20
8.0825
 10
93.235
 20
8.0825
 10
93.0893
 20
8.0825
 10
92.9437
 20
8.0825
 10
92.798
 20
8.0825
 10
92.6523
 20
8.0825
 10
92.5067
 20
8.0825
 10
92.361
 20
8.0825
 10
92.2153
 20
8.0825
 10
92.1642
 20
8.0825
 10
92.0697
 20
8.0825
 10
91.8419
 20
8.0825
 10
91.5195
 20
8.0825
 10
91.1971
 20
8.0825
 10
90.8747
 20
8.0825
 10
90.5524
 20
8.0825
 10
90.23
 20
8.0825
 10
89.9076
 20
8.0825
 10
89.5852
 20
8.0825
 10
89.474
 20
8.0825
 10
89.3082
 20
8.0825
 10
89.2629
 20
8.0825
 10
89.1423
 20
8.0825
 10
88.9765
 20
8.0825
 10
88.8106
 20
8.0825
 10
88.6448
 20
8.0825
 10
88.4789
 20
8.0825
 10
88.3131
 20
8.0825
 10
88.1473
 20
8.0825
 10
87.9814
 20
8.0825
 10
87.8156
 20
8.0825
 10
87.6497
 20
8.0825
 10
87.4839
 20
8.0825
 10
87.318
 20
8.0825
 10
87.1522
 20
8.0825
 10
86.9863
 20
8.0825
 10
86.8205
 20
8.0825
 10
86.6547
 20
8.0825
 10
86.4888
 20
8.0825
 10
86.323
 20
8.0825
 10
86.1571
 20
8.0825
 10
85.9913
 20
8.0825
 10
85.8254
 20
8.0825
 10
85.6596
 20
8.0825
 10
85.4938
 20
8.0825
 10
85.3279
 20
8.0825
 10
85.1621
 20
8.0825
 10
84.9962
 20
8.0825
 10
84.8304
 20
8.0825
 10
84.6645
 20
8.0825
 10
84.4987
 20
8.0825
 10
84.3328
 20
8.0825
 10
84.3328
 20
8.2483
 10
84.3328
 20
8.4142
 10
84.3328
 20
8.58
 10
84.3328
 20
8.7459
 10
84.3328
 20
8.9117
 10
84.3328
 20
9.0775
 10
84.3328
 20
9.2434
 10
84.3328
 20
9.4092
 10
84.3328
 20
9.5751
 10
84.3328
 20
9.7409
 10
84.3328
 20
9.9068
 10
84.3328
 20
10.0726
 10
84.3328
 20
10.2384
 10
84.3328
 20
10.4043
 10
84.3328
 20
10.5701
 10
84.3328
 20
10.736
 10
84.3703
 20
10.8643
 10
84.5362
 20
10.8643
 10
84.702
 20
10.8643
 10
84.8679
 20
10.8643
 10
85.0337
 20
10.8643
 10
85.1996
 20
10.8643
 10
85.3654
 20
10.8643
 10
85.5313
 20
10.8643
 10
85.6971
 20
10.8643
 10
85.8629
 20
10.8643
 10
86.0288
 20
10.8643
 10
86.1946
 20
10.8643
 10
86.3605
 20
10.8643
 10
86.5263
 20
10.8643
 10
86.6922
 20
10.8643
 10
86.858
 20
10.8643
 10
87.0238
 20
10.8643
 10
87.1897
 20
10.8643
 10
87.3555
 20
10.8643
 10
87.5214
 20
10.8643
 10
87.6872
 20
10.8643
 10
87.8531
 20
10.8643
 10
88.0189
 20
10.8643
 10
88.1848
 20
10.8643
 10
88.3506
 20
10.8643
 10
88.5164
 20
10.8643
 10
88.6823
 20
10.8643
 10
88.8481
 20
10.8643
 10
89.014
 20
10.8643
 10
89.1798
 20
10.8643
 10
89.2629
 20
10.8643
 10
89.2629
 20
10.9838
 10
89.2629
 20
11.3062
 10
89.2629
 20
11.6286
 10
89.2629
 20
11.951
 10
89.2629
 20
12.2733
 10
89.2629
 20
12.5957
 10
89.2629
 20
12.9181
 10
89.2629
 20
13.2405
 10
89.2629
 20
13.5628
 10
89.2629
 20
13.8852
 10
89.2629
 20
14.2076
 10
89.2629
 20
14.53
 10
89.2629
 20
14.8523
 10
89.2629
 20
15.1747
 10
89.2629
 20
15.4971
 10
89.2629
 20
15.8195
 10
89.2629
 20
16.1418
 10
89.2629
 20
16.4642
 10
89.2629
 20
16.7866
 10
89.2629
 20
17.109
 10
89.2629
 20
17.4313
 10
89.2629
 20
17.7537
 10
89.2629
 20
18.0761
 10
89.2629
 20
18.3985
 10
89.2629
 20
18.4645
 10
89.2537
 20
18.4645
 10
89.0449
 20
18.4645
 10
88.8361
 20
18.4645
 10
88.6274
 20
18.4645
 10
88.4186
 20
18.4645
 10
88.2098
 20
18.4645
 10
88.001
 20
18.4645
 10
87.7922
 20
18.4645
 10
87.5834
 20
18.4645
 10
87.3746
 20
18.4645
 10
87.1658
 20
18.4645
 10
86.957
 20
18.4645
 10
86.7482
 20
18.4645
 10
86.5394
 20
18.4645
 10
86.3306
 20
18.4645
 10
86.1219
 20
18.4645
 10
85.9131
 20
18.4645
 10
85.7043
 20
18.4645
 10
85.4955
 20
18.4645
 10
85.2867
 20
18.4645
 10
85.0779
 20
18.4645
 10
85.0779
 20
18.6733
 10
85.0779
 20
18.8821
 10
85.0779
 20
19.0909
 10
85.0779
 20
19.2997
 10
85.0779
 20
19.5084
 10
85.0779
 20
19.7172
 10
85.0779
 20
19.926
 10
85.0779
 20
20.1348
 10
85.0779
 20
20.3436
 10
85.0779
 20
20.5524
 10
85.0779
 20
20.7612
 10
85.0779
 20
20.97
 10
85.0779
 20
21.1788
 10
85.2191
 20
21.2463
 10
85.4279
 20
21.2463
 10
85.6367
 20
21.2463
 10
85.8455
 20
21.2463
 10
86.0543
 20
21.2463
 10
86.2631
 20
21.2463
 10
86.4719
 20
21.2463
 10
86.6807
 20
21.2463
 10
86.8895
 20
21.2463
 10
87.0983
 20
21.2463
 10
87.307
 20
21.2463
 10
87.5158
 20
21.2463
 10
87.7246
 20
21.2463
 10
87.9334
 20
21.2463
 10
88.1422
 20
21.2463
 10
88.351
 20
21.2463
 10
88.5598
 20
21.2463
 10
88.7686
 20
21.2463
 10
88.9774
 20
21.2463
 10
89.1862
 20
21.2463
 10
89.395
 20
21.2463
 10
89.6038
 20
21.2463
 10
89.8125
 20
21.2463
 10
90.0213
 20
21.2463
 10
90.2301
 20
21.2463
 10
90.4389
 20
21.2463
 10
90.6477
 20
21.2463
 10
90.8565
 20
21.2463
 10
91.0653
 20
21.2463
 10
91.2741
 20
21.2463
 10
91.4829
 20
21.2463
 10
91.6917
 20
21.2463
 10
91.9005
 20
21.2463
 10
92.1092
 20
21.2463
 10
92.318
 20
21.2463
 10
92.318
 20
21.0375
  0
LWPOLYLINE
  5
51
330
17
100
AcDbEntity
  8
OUTLINE
100
AcDbPolyline
 90
246
 70
1
 10
40.1752
 20
25.717
 10
40.2884
 20
25.717
 10
40.481
 20
25.717
 10
40.7181
 20
25.717
 10
40.7868
 20
25.717
 10
41.0926
 20
25.717
 10
41.1479
 20
25.717
 10
41.3984
 20
25.717
 10
41.5776
 20
25.717
 10
41.7043
 20
25.717
 10
42.0073
 20
25.717
 10
42.0101
 20
25.717
 10
42.3159
 20
25.717
 10
42.4371
 20
25.717
 10
42.6217
 20
25.717
 10
42.8668
 20
25.717
 10
42.9275
 20
25.717
 10
43.2333
 20
25.717
 10
43.5391
 20
25.717
 10
43.8449
 20
25.717
 10
44.1507
 20
25.717
 10
44.4566
 20
25.717
 10
44.7624
 20
25.717
 10
45.0682
 20
25.717
 10
45.374
 20
25.717
 10
45.6798
 20
25.717
 10
45.9856
 20
25.717
 10
46.2914
 20
25.717
 10
46.5972
 20
25.717
 10
46.903
 20
25.717
 10
47.2089
 20
25.717
 10
47.5147
 20
25.717
 10
47.8205
 20
25.717
 10
48.1263
 20
25.717
 10
48.4321
 20
25.717
 10
48.7379
 20
25.717
 10
49.0437
 20
25.717
 10
49.3495
 20
25.717
 10
49.6553
 20
25.717
 10
49.9612
 20
25.717
 10
50.267
 20
25.717
 10
50.5728
 20
25.717
 10
50.8786
 20
25.717
 10
51.1844
 20
25.717
 10
51.4902
 20
25.717
 10
51.796
 20
25.717
 10
51.796
 20
25.4112
 10
51.796
 20
25.1053
 10
51.796
 20
24.7995
 10
51.796
 20
24.4937
 10
51.796
 20
24.1879
 10
51.796
 20
23.8821
 10
51.796
 20
23.5763
 10
51.796
 20
23.2705
 10
51.796
 20
22.9647
 10
51.4948
 20
22.9601
 10
51.189
 20
22.9601
 10
50.8832
 20
22.9601
 10
50.5773
 20
22.9601
 10
50.2715
 20
22.9601
 10
49.9657
 20
22.9601
 10
49.6599
 20
22.9601
 10
49.3541
 20
22.9601
 10
49.0483
 20
22.9601
 10
48.7425
 20
22.9601
 10
48.4367
 20
22.9601
 10
48.1308
 20
22.9601
 10
47.825
 20
22.9601
 10
47.5192
 20
22.9601
 10
47.2134
 20
22.9601
 10
46.9076
 20
22.9601
 10
46.6018
 20
22.9601
 10
46.296
 20
22.9601
 10
45.9902
 20
22.9601
 10
45.6844
 20
22.9601
 10
45.3785
 20
22.9601
 10
45.0727
 20
22.9601
 10
44.7669
 20
22.9601
 10
44.4611
 20
22.9601
 10
44.1553
 20
22.9601
 10
43.8495
 20
22.9601
 10
43.5437
 20
22.9601
 10
43.2379
 20
22.9601
 10
42.9321
 20
22.9601
 10
42.8668
 20
22.9601
 10
42.8668
 20
22.7088
 10
42.8668
 20
22.2791
 10
42.8668
 20
21.8493
 10
42.8668
 20
21.4196
 10
42.8668
 20
20.9899
 10
42.8668
 20
20.5601
 10
42.8668
 20
20.1304
 10
42.8668
 20
19.7007
 10
42.8668
 20
19.2709
 10
42.8668
 20
18.8412
 10
42.8668
 20
18.4114
 10
42.8668
 20
17.9817
 10
42.8668
 20
17.5578
 10
43.0136
 20
17.5578
 10
43.2705
 20
17.5578
 10
43.5274
 20
17.5578
 10
43.7843
 20
17.5578
 10
44.0412
 20
17.5578
 10
44.2981
 20
17.5578
 10
44.555
 20
17.5578
 10
44.8119
 20
17.5578
 10
45.0688
 20
17.5578
 10
45.3257
 20
17.5578
 10
45.5826
 20
17.5578
 10
45.8396
 20
17.5578
 10
46.0965
 20
17.5578
 10
46.3534
 20
17.5578
 10
46.6103
 20
17.5578
 10
46.8672
 20
17.5578
 10
47.1241
 20
17.5578
 10
47.381
 20
17.5578
 10
47.6379
 20
17.5578
 10
47.8948
 20
17.5578
 10
48.1517
 20
17.5578
 10
48.4086
 20
17.5578
 10
48.6655
 20
17.5578
 10
48.9224
 20
17.5578
 10
49.1793
 20
17.5578
 10
49.4362
 20
17.5578
 10
49.4362
 20
17.3009
 10
49.4362
 20
17.044
 10
49.4362
 20
16.7871
 10
49.4362
 20
16.5302
 10
49.4362
 20
16.2733
 10
49.4362
 20
16.0163
 10
49.4362
 20
15.7594
 10
49.4362
 20
15.5025
 10
49.4362
 20
15.2456
 10
49.4362
 20
14.9887
 10
49.3795
 20
14.7886
 10
49.1226
 20
14.7886
 10
48.8657
 20
14.7886
 10
48.6088
 20
14.7886
 10
48.3518
 20
14.7886
 10
48.0949
 20
14.7886
 10
47.838
 20
14.7886
 10
47.5811
 20
14.7886
 10
47.3242
 20
14.7886
 10
47.0673
 20
14.7886
 10
46.8104
 20
14.7886
 10
46.5535
 20
14.7886
 10
46.2966
 20
14.7886
 10
46.0397
 20
14.7886
 10
45.7828
 20
14.7886
 10
45.5259
 20
14.7886
 10
45.269
 20
14.7886
 10
45.0121
 20
14.7886
 10
44.7552
 20
14.7886
 10
44.4983
 20
14.7886
 10
44.2413
 20
14.7886
 10
43.9844
 20
14.7886
 10
43.7275
 20
14.7886
 10
43.4706
 20
14.7886
 10
43.2137
 20
14.7886
 10
42.9568
 20
14.7886
 10
42.8668
 20
14.7886
 10
42.8668
 20
14.5438
 10
42.8668
 20
14.1141
 10
42.8668
 20
13.6843
 10
42.8668
 20
13.2546
 10
42.8668
 20
12.8249
 10
42.8668
 20
12.3951
 10
42.8668
 20
11.9654
 10
42.8668
 20
11.5357
 10
42.8668
 20
11.1059
 10
42.8668
 20
10.6762
 10
42.8668
 20
10.2464
 10
42.8668
 20
9.8167
 10
42.8668
 20
9.387
 10
42.8668
 20
8.9572
 10
42.8668
 20
8.5275
 10
42.8668
 20
8.0978
 10
42.4524
 20
8.0825
 10
42.0226
 20
8.0825
 10
41.5929
 20
8.0825
 10
41.1631
 20
8.0825
 10
40.7334
 20
8.0825
 10
40.3037
 20
8.0825
 10
39.8739
 20
8.0825
 10
39.8739
 20
8.5122
 10
39.8739
 20
8.9419
 10
39.8739
 20
9.3717
 10
39.8739
 20
9.8014
 10
39.8739
 20
10.2312
 10
39.8739
 20
10.6609
 10
39.8739
 20
11.0906
 10
39.8739
 20
11.5204
 10
39.8739
 20
11.9501
 10
39.8739
 20
12.3798
 10
39.8739
 20
12.8096
 10
39.8739
 20
13.2393
 10
39.8739
 20
13.6691
 10
39.8739
 20
14.0988
 10
39.8739
 20
14.5285
 10
39.8739
 20
14.7886
 10
39.8739
 20
14.9583
 10
39.8739
 20
15.0455
 10
39.8739
 20
15.3024
 10
39.8739
 20
15.388
 10
39.8739
 20
15.5593
 10
39.8739
 20
15.8162
 10
39.8739
 20
15.8177
 10
39.8739
 20
16.0731
 10
39.8739
 20
16.2475
 10
39.8739
 20
16.33
 10
39.8739
 20
16.5869
 10
39.8739
 20
16.6772
 10
39.8739
 20
16.8438
 10
39.8739
 20
17.1007
 10
39.8739
 20
17.1069
 10
39.8739
 20
17.3576
 10
39.8739
 20
17.5367
 10
39.8739
 20
17.9664
 10
39.8739
 20
18.3962
 10
39.8739
 20
18.8259
 10
39.8739
 20
19.2556
 10
39.8739
 20
19.6854
 10
39.8739
 20
20.1151
 10
39.8739
 20
20.5448
 10
39.8739
 20
20.9746
 10
39.8739
 20
21.4043
 10
39.8739
 20
21.834
 10
39.8739
 20
22.2638
 10
39.8739
 20
22.6935
 10
39.8739
 20
22.9601
 10
39.8739
 20
23.1233
 10
39.8739
 20
23.2659
 10
39.8739
 20
23.553
 10
39.8739
 20
23.5717
 10
39.8739
 20
23.8775
 10
39.8739
 20
23.9827
 10
39.8739
 20
24.1834
 10
39.8739
 20
24.4125
 10
39.8739
 20
24.4892
 10
39.8739
 20
24.795
 10
39.8739
 20
24.8422
 10
39.8739
 20
25.1008
 10
39.8739
 20
25.2719
 10
39.8739
 20
25.4066
 10
39.8739
 20
25.7017
 10
39.8739
 20
25.7124
  0
LWPOLYLINE
  5
52
330
17
100
AcDbEntity
  8
OUTLINE
100
AcDbPolyline
 90
192
 70
1
 10
90.8111
 20
23.1504
 10
90.7392
 20
23.1474
 10
90.6663
 20
23.1464
 10
90.5933
 20
23.1474
 10
90.5215
 20
23.1504
 10
90.4507
 20
23.1554
 10
90.381
 20
23.1623
 10
90.3124
 20
23.1712
 10
90.2448
 20
23.1821
 10
90.1783
 20
23.195
 10
90.1129
 20
23.2099
 10
90.0486
 20
23.2268
 10
89.9854
 20
23.2456
 10
89.9232
 20
23.2664
 10
89.8621
 20
23.2892
 10
89.8021
 20
23.314
 10
89.7432
 20
23.3408
 10
89.6854
 20
23.3695
 10
89.6286
 20
23.4003
 10
89.5729
 20
23.433
 10
89.5183
 20
23.4677
 10
89.4647
 20
23.5044
 10
89.4123
 20
23.543
 10
89.3609
 20
23.5837
 10
89.3106
 20
23.6263
 10
89.2613
 20
23.6709
 10
89.2132
 20
23.7175
 10
89.1666
 20
23.7657
 10
89.122
 20
23.8149
 10
89.0793
 20
23.8652
 10
89.0387
 20
23.9166
 10
89.0
 20
23.969
 10
88.9633
 20
24.0226
 10
88.9286
 20
24.0772
 10
88.8959
 20
24.1329
 10
88.8652
 20
24.1897
 10
88.8364
 20
24.2475
 10
88.8097
 20
24.3065
 10
88.7849
 20
24.3665
 10
88.7621
 20
24.4275
 10
88.7413
 20
24.4897
 10
88.7224
 20
24.5529
 10
88.7056
 20
24.6173
 10
88.6907
 20
24.6827
 10
88.6778
 20
24.7491
 10
88.6669
 20
24.8167
 10
88.658
 20
24.8853
 10
88.651
 20
24.955
 10
88.6461
 20
25.0258
 10
88.6431
 20
25.0977
 10
88.6421
 20
25.1706
 10
88.6431
 20
25.2435
 10
88.6461
 20
25.3154
 10
88.651
 20
25.3862
 10
88.658
 20
25.4559
 10
88.6669
 20
25.5245
 10
88.6778
 20
25.5921
 10
88.6907
 20
25.6585
 10
88.7056
 20
25.7239
 10
88.7224
 20
25.7882
 10
88.7413
 20
25.8515
 10
88.7621
 20
25.9136
 10
88.7849
 20
25.9747
 10
88.8097
 20
26.0347
 10
88.8364
 20
26.0937
 10
88.8652
 20
26.1515
 10
88.8959
 20
26.2083
 10
88.9286
 20
26.264
 10
88.9633
 20
26.3186
 10
89.0
 20
26.3721
 10
89.0387
 20
26.4246
 10
89.0793
 20
26.476
 10
89.122
 20
26.5263
 10
89.1666
 20
26.5755
 10
89.2132
 20
26.6237
 10
89.2613
 20
26.6703
 10
89.3106
 20
26.7149
 10
89.3609
 20
26.7575
 10
89.4123
 20
26.7982
 10
89.4647
 20
26.8368
 10
89.5183
 20
26.8735
 10
89.5729
 20
26.9082
 10
89.6286
 20
26.9409
 10
89.6854
 20
26.9717
 10
89.7432
 20
27.0004
 10
89.8021
 20
27.0272
 10
89.8621
 20
27.052
 10
89.9232
 20
27.0748
 10
89.9854
 20
27.0956
 10
90.0486
 20
27.1144
 10
90.1129
 20
27.1313
 10
90.1783
 20
27.1462
 10
90.2448
 20
27.159
 10
90.3124
 20
27.17
 10
90.381
 20
27.1789
 10
90.4507
 20
27.1858
 10
90.5215
 20
27.1908
 10
90.5933
 20
27.1937
 10
90.6663
 20
27.1947
 10
90.7392
 20
27.1937
 10
90.8111
 20
27.1908
 10
90.8819
 20
27.1858
 10
90.9516
 20
27.1789
 10
91.0202
 20
27.17
 10
91.0877
 20
27.159
 10
91.1542
 20
27.1462
 10
91.2196
 20
27.1313
 10
91.2839
 20
27.1144
 10
91.3472
 20
27.0956
 10
91.4093
 20
27.0748
 10
91.4704
 20
27.052
 10
91.5304
 20
27.0272
 10
91.5893
 20
27.0004
 10
91.6472
 20
26.9717
 10
91.704
 20
26.9409
 10
91.7597
 20
26.9082
 10
91.8143
 20
26.8735
 10
91.8678
 20
26.8368
 10
91.9203
 20
26.7982
 10
91.9717
 20
26.7575
 10
92.022
 20
26.7149
 10
92.0712
 20
26.6703
 10
92.1194
 20
26.6237
 10
92.166
 20
26.5755
 10
92.2106
 20
26.5263
 10
92.2532
 20
26.476
 10
92.2938
 20
26.4246
 10
92.3325
 20
26.3721
 10
92.3692
 20
26.3186
 10
92.4039
 20
26.264
 10
92.4366
 20
26.2083
 10
92.4673
 20
26.1515
 10
92.4961
 20
26.0937
 10
92.5229
 20
26.0347
 10
92.5477
 20
25.9747
 10
92.5705
 20
25.9136
 10
92.5913
 20
25.8515
 10
92.6101
 20
25.7882
 10
92.627
 20
25.7239
 10
92.6418
 20
25.6585
 10
92.6547
 20
25.5921
 10
92.6656
 20
25.5245
 10
92.6746
 20
25.4559
 10
92.6815
 20
25.3862
 10
92.6865
 20
25.3154
 10
92.6894
 20
25.2435
 10
92.6904
 20
25.1706
 10
92.6894
 20
25.0977
 10
92.6865
 20
25.0258
 10
92.6815
 20
24.955
 10
92.6746
 20
24.8853
 10
92.6656
 20
24.8167
 10
92.6547
 20
24.7491
 10
92.6418
 20
24.6827
 10
92.627
 20
24.6173
 10
92.6101
 20
24.5529
 10
92.5913
 20
24.4897
 10
92.5705
 20
24.4275
 10
92.5477
 20
24.3665
 10
92.5229
 20
24.3065
 10
92.4961
 20
24.2475
 10
92.4673
 20
24.1897
 10
92.4366
 20
24.1329
 10
92.4039
 20
24.0772
 10
92.3692
 20
24.0226
 10
92.3325
 20
23.969
 10
92.2938
 20
23.9166
 10
92.2532
 20
23.8652
 10
92.2106
 20
23.8149
 10
92.166
 20
23.7657
 10
92.1194
 20
23.7175
 10
92.0712
 20
23.6709
 10
92.022
 20
23.6263
 10
91.9717
 20
23.5837
 10
91.9203
 20
23.543
 10
91.8678
 20
23.5044
 10
91.8143
 20
23.4677
 10
91.7597
 20
23.433
 10
91.704
 20
23.4003
 10
91.6472
 20
23.3695
 10
91.5893
 20
23.3408
 10
91.5304
 20
23.314
 10
91.4704
 20
23.2892
 10
91.4093
 20
23.2664
 10
91.3472
 20
23.2456
 10
91.2839
 20
23.2268
 10
91.2196
 20
23.2099
 10
91.1542
 20
23.195
 10
91.0877
 20
23.1821
 10
91.0202
 20
23.1712
 10
90.9516
 20
23.1623
 10
90.8819
 20
23.1554
  0
LWPOLYLINE
  5
53
330
17
100
AcDbEntity
  8
OUTLINE
100
AcDbPolyline
 90
329
 70
1
 10
147.0735
 20
18.8619
 10
147.0776
 20
18.8619
 10
147.2058
 20
18.8619
 10
147.2927
 20
18.9194
 10
147.3201
 20
19.061
 10
147.3514
 20
19.1987
 10
147.3867
 20
19.3325
 10
147.426
 20
19.4623
 10
147.4693
 20
19.5883
 10
147.5166
 20
19.7103
 10
147.5679
 20
19.8284
 10
147.6232
 20
19.9426
 10
147.6826
 20
20.0528
 10
147.7459
 20
20.1592
 10
147.8132
 20
20.2616
 10
147.8845
 20
20.3601
 10
147.9598
 20
20.4547
 10
148.0391
 20
20.5453
 10
148.1224
 20
20.6321
 10
148.2098
 20
20.7149
 10
148.3011
 20
20.7938
 10
148.3913
 20
20.8648
 10
148.4818
 20
20.9297
 10
148.5759
 20
20.9911
 10
148.6735
 20
21.049
 10
148.7746
 20
21.1033
 10
148.8792
 20
21.1541
 10
148.9874
 20
21.2013
 10
149.0991
 20
21.2451
 10
149.2143
 20
21.2853
 10
149.333
 20
21.3219
 10
149.4553
 20
21.3551
 10
149.5811
 20
21.3847
 10
149.7104
 20
21.4108
 10
149.8432
 20
21.4334
 10
149.9796
 20
21.4524
 10
150.1195
 20
21.4679
 10
150.2629
 20
21.4799
 10
150.4099
 20
21.4883
 10
150.5603
 20
21.4933
 10
150.7133
 20
21.4947
 10
150.8583
 20
21.4929
 10
151.0012
 20
21.4881
 10
151.1422
 20
21.4803
 10
151.2812
 20
21.4696
 10
151.4182
 20
21.4558
 10
151.5532
 20
21.4391
 10
151.6863
 20
21.4194
 10
151.8174
 20
21.3968
 10
151.9466
 20
21.3711
 10
152.0737
 20
21.3425
 10
152.1989
 20
21.3108
 10
152.3222
 20
21.2762
 10
152.4434
 20
21.2386
 10
152.5627
 20
21.1981
 10
152.6801
 20
21.1545
 10
152.7954
 20
21.108
 10
152.9088
 20
21.0585
 10
153.0202
 20
21.006
 10
153.1296
 20
20.9505
 10
153.2371
 20
20.892
 10
153.3426
 20
20.8306
 10
153.4461
 20
20.7661
 10
153.5477
 20
20.6987
 10
153.6473
 20
20.6283
 10
153.7449
 20
20.555
 10
153.8405
 20
20.4786
 10
153.9342
 20
20.3993
 10
154.0259
 20
20.3169
 10
154.1157
 20
20.2316
 10
154.2034
 20
20.1434
 10
154.2892
 20
20.0521
 10
154.373
 20
19.9578
 10
154.4549
 20
19.8606
 10
154.5348
 20
19.7604
 10
154.6045
 20
19.6683
 10
154.667
 20
19.5818
 10
154.728
 20
19.4934
 10
154.7874
 20
19.4033
 10
154.8453
 20
19.3115
 10
154.9017
 20
19.2178
 10
154.9566
 20
19.1224
 10
155.0099
 20
19.0252
 10
155.0617
 20
18.9263
 10
155.112
 20
18.8255
 10
155.1607
 20
18.723
 10
155.2079
 20
18.6187
 10
155.2536
 20
18.5127
 10
155.2978
 20
18.4048
 10
155.3404
 20
18.2952
 10
155.3815
 20
18.1838
 10
155.4211
 20
18.0707
 10
155.4591
 20
17.9557
 10
155.4957
 20
17.839
 10
155.5307
 20
17.7206
 10
155.5641
 20
17.6003
 10
155.596
 20
17.4783
 10
155.6265
 20
17.3544
 10
155.6553
 20
17.2289
 10
155.6827
 20
17.1015
 10
155.7085
 20
16.9724
 10
155.7328
 20
16.8415
 10
155.7556
 20
16.7088
 10
155.7768
 20
16.5743
 10
155.7965
 20
16.4381
 10
155.8147
 20
16.3001
 10
155.8313
 20
16.1603
 10
155.8464
 20
16.0187
 10
155.86
 20
15.8754
 10
155.8721
 20
15.7303
 10
155.8826
 20
15.5834
 10
155.8917
 20
15.4348
 10
155.8991
 20
15.2843
 10
155.9051
 20
15.1321
 10
155.9095
 20
14.9782
 10
155.9124
 20
14.8224
 10
155.9138
 20
14.6649
 10
155.9136
 20
14.5062
 10
155.9119
 20
14.349
 10
155.9085
 20
14.1936
 10
155.9036
 20
14.0401
 10
155.8972
 20
13.8884
 10
155.8891
 20
13.7384
 10
155.8795
 20
13.5903
 10
155.8683
 20
13.4441
 10
155.8555
 20
13.2996
 10
155.8412
 20
13.1569
 10
155.8252
 20
13.0161
 10
155.8077
 20
12.8771
 10
155.7887
 20
12.7399
 10
155.768
 20
12.6045
 10
155.7458
 20
12.4709
 10
155.722
 20
12.3391
 10
155.6966
 20
12.2092
 10
155.6696
 20
12.0811
 10
155.6411
 20
11.9548
 10
155.611
 20
11.8303
 10
155.5793
 20
11.7076
 10
155.546
 20
11.5867
 10
155.5112
 20
11.4677
 10
155.4747
 20
11.3504
 10
155.4367
 20
11.235
 10
155.3972
 20
11.1214
 10
155.356
 20
11.0096
 10
155.3133
 20
10.8997
 10
155.269
 20
10.7915
 10
155.2231
 20
10.6852
 10
155.1757
 20
10.5807
 10
155.1266
 20
10.478
 10
155.076
 20
10.3771
 10
155.0238
 20
10.278
 10
154.9701
 20
10.1808
 10
154.9147
 20
10.0853
 10
154.8578
 20
9.9917
 10
154.7993
 20
9.8999
 10
154.7393
 20
9.8099
 10
154.6776
 20
9.7217
 10
154.6144
 20
9.6353
 10
154.5461
 20
9.5463
 10
154.4659
 20
9.4471
 10
154.3838
 20
9.3508
 10
154.2997
 20
9.2575
 10
154.2136
 20
9.1672
 10
154.1255
 20
9.0798
 10
154.0354
 20
8.9953
 10
153.9434
 20
8.9139
 10
153.8494
 20
8.8354
 10
153.7534
 20
8.7598
 10
153.6554
 20
8.6873
 10
153.5554
 20
8.6177
 10
153.4535
 20
8.551
 10
153.3496
 20
8.4873
 10
153.2437
 20
8.4266
 10
153.1358
 20
8.3688
 10
153.026
 20
8.314
 10
152.9142
 20
8.2622
 10
152.8004
 20
8.2133
 10
152.6846
 20
8.1674
 10
152.5668
 20
8.1244
 10
152.4471
 20
8.0844
 10
152.3254
 20
8.0474
 10
152.2017
 20
8.0133
 10
152.076
 20
7.9822
 10
151.9484
 20
7.9541
 10
151.8188
 20
7.9289
 10
151.6872
 20
7.9067
 10
151.5536
 20
7.8874
 10
151.418
 20
7.8712
 10
151.2805
 20
7.8578
 10
151.141
 20
7.8475
 10
150.9995
 20
7.84
 10
150.856
 20
7.8356
 10
150.7105
 20
7.8341
 10
150.5619
 20
7.836
 10
150.4163
 20
7.8415
 10
150.2738
 20
7.8508
 10
150.1344
 20
7.8638
 10
149.9981
 20
7.8805
 10
149.8649
 20
7.9009
 10
149.7348
 20
7.925
 10
149.6077
 20
7.9529
 10
149.4838
 20
7.9844
 10
149.3629
 20
8.0196
 10
149.2452
 20
8.0586
 10
149.1305
 20
8.1013
 10
149.0189
 20
8.1476
 10
148.9104
 20
8.1977
 10
148.805
 20
8.2515
 10
148.7027
 20
8.309
 10
148.6035
 20
8.3703
 10
148.5074
 20
8.4352
 10
148.4144
 20
8.5038
 10
148.3189
 20
8.581
 10
148.2278
 20
8.6621
 10
148.141
 20
8.7472
 10
148.0587
 20
8.8361
 10
147.9807
 20
8.929
 10
147.9071
 20
9.0259
 10
147.8379
 20
9.1266
 10
147.7731
 20
9.2312
 10
147.7127
 20
9.3398
 10
147.6567
 20
9.4523
 10
147.605
 20
9.5687
 10
147.5578
 20
9.6891
 10
147.5149
 20
9.8133
 10
147.4765
 20
9.9415
 10
147.4424
 20
10.0736
 10
147.4127
 20
10.2097
 10
147.3874
 20
10.3496
 10
147.3466
 20
10.467
 10
147.2184
 20
10.467
 10
147.109
 20
10.467
 10
147.109
 20
10.2151
 10
147.109
 20
9.8514
 10
147.109
 20
9.4876
 10
147.109
 20
9.1239
 10
147.109
 20
8.7601
 10
147.109
 20
8.3964
 10
147.109
 20
8.0326
 10
147.109
 20
7.6689
 10
147.109
 20
7.3051
 10
147.109
 20
6.9414
 10
147.109
 20
6.5776
 10
147.109
 20
6.2138
 10
147.109
 20
5.8501
 10
147.109
 20
5.4863
 10
147.109
 20
5.1226
 10
147.109
 20
4.7588
 10
147.109
 20
4.3951
 10
147.109
 20
4.0313
 10
147.109
 20
3.6676
 10
147.109
 20
3.3038
 10
147.109
 20
2.9401
 10
147.109
 20
2.5763
 10
146.9518
 20
2.3698
 10
146.588
 20
2.3698
 10
146.2243
 20
2.3698
 10
145.8605
 20
2.3698
 10
145.4968
 20
2.3698
 10
145.133
 20
2.3698
 10
144.7693
 20
2.3698
 10
144.4055
 20
2.3698
 10
144.0418
 20
2.3698
 10
144.0418
 20
2.7335
 10
144.0418
 20
3.0973
 10
144.0418
 20
3.461
 10
144.0418
 20
3.8248
 10
144.0418
 20
4.1885
 10
144.0418
 20
4.5523
 10
144.0418
 20
4.916
 10
144.0418
 20
5.2798
 10
144.0418
 20
5.6436
 10
144.0418
 20
6.0073
 10
144.0418
 20
6.3711
 10
144.0418
 20
6.7348
 10
144.0418
 20
7.0986
 10
144.0418
 20
7.4623
 10
144.0418
 20
7.8261
 10
144.0418
 20
8.1898
 10
144.0418
 20
8.5536
 10
144.0418
 20
8.9173
 10
144.0418
 20
9.2811
 10
144.0418
 20
9.6448
 10
144.0418
 20
10.0086
 10
144.0418
 20
10.3723
 10
144.0418
 20
10.7361
 10
144.0418
 20
11.0998
 10
144.0418
 20
11.4636
 10
144.0418
 20
11.8273
 10
144.0418
 20
12.1911
 10
144.0418
 20
12.5548
 10
144.0418
 20
12.9186
 10
144.0418
 20
13.2823
 10
144.0418
 20
13.6461
 10
144.0418
 20
14.0099
 10
144.0418
 20
14.3736
 10
144.0418
 20
14.7374
 10
144.0418
 20
15.1011
 10
144.0418
 20
15.4649
 10
144.0418
 20
15.8286
 10
144.0418
 20
16.1924
 10
144.0418
 20
16.5561
 10
144.0418
 20
16.9199
 10
144.0418
 20
17.2836
 10
144.0418
 20
17.6474
 10
144.0418
 20
18.0111
 10
144.0418
 20
18.3749
 10
144.0418
 20
18.7386
 10
144.0418
 20
19.1024
 10
144.0418
 20
19.4661
 10
144.0418
 20
19.8299
 10
144.0418
 20
20.1936
 10
144.0418
 20
20.5574
 10
144.0418
 20
20.9211
 10
144.0803
 20
21.2463
 10
144.4441
 20
21.2463
 10
144.8078
 20
21.2463
 10
145.1716
 20
21.2463
 10
145.5353
 20
21.2463
 10
145.8991
 20
21.2463
 10
146.2628
 20
21.2463
 10
146.6266
 20
21.2463
 10
146.8722
 20
21.1171
 10
146.9045
 20
20.7548
 10
146.9369
 20
20.3925
 10
146.9692
 20
20.0302
 10
147.0016
 20
19.6679
 10
147.0339
 20
19.3056
 10
147.0662
 20
18.9433
  0
LWPOLYLINE
  5
54
330
17
100
AcDbEntity
  8
OUTLINE
100
AcDbPolyline
 90
177
 70
1
 10
147.109
 20
14.9552
 10
147.109
 20
14.9439
 10
147.109
 20
14.5801
 10
147.109
 20
14.4585
 10
147.109
 20
14.4586
 10
147.1105
 20
14.2945
 10
147.1143
 20
14.1342
 10
147.1206
 20
13.9774
 10
147.1292
 20
13.8244
 10
147.1403
 20
13.6749
 10
147.1537
 20
13.5292
 10
147.1695
 20
13.3871
 10
147.1876
 20
13.2486
 10
147.2082
 20
13.1139
 10
147.2312
 20
12.9827
 10
147.2565
 20
12.8553
 10
147.2842
 20
12.7314
 10
147.3144
 20
12.6113
 10
147.3469
 20
12.4948
 10
147.3818
 20
12.3819
 10
147.419
 20
12.2727
 10
147.4587
 20
12.1672
 10
147.5007
 20
12.0653
 10
147.5452
 20
11.9671
 10
147.592
 20
11.8726
 10
147.6412
 20
11.7817
 10
147.6928
 20
11.6944
 10
147.7468
 20
11.6108
 10
147.8105
 20
11.5211
 10
147.8849
 20
11.4272
 10
147.9638
 20
11.3386
 10
148.0472
 20
11.2551
 10
148.1351
 20
11.1769
 10
148.2274
 20
11.1039
 10
148.3243
 20
11.0361
 10
148.4257
 20
10.9735
 10
148.5316
 20
10.9161
 10
148.6419
 20
10.8639
 10
148.7568
 20
10.817
 10
148.8762
 20
10.7752
 10
149.0
 20
10.7387
 10
149.1283
 20
10.7074
 10
149.2612
 20
10.6813
 10
149.3985
 20
10.6604
 10
149.5404
 20
10.6447
 10
149.6867
 20
10.6342
 10
149.8375
 20
10.629
 10
149.988
 20
10.629
 10
150.1318
 20
10.6343
 10
150.272
 20
10.645
 10
150.4084
 20
10.661
 10
150.5412
 20
10.6825
 10
150.6702
 20
10.7093
 10
150.7955
 20
10.7415
 10
150.9171
 20
10.779
 10
151.0349
 20
10.8219
 10
151.1491
 20
10.8702
 10
151.2596
 20
10.9238
 10
151.3663
 20
10.9829
 10
151.4694
 20
11.0472
 10
151.5687
 20
11.117
 10
151.6643
 20
11.1921
 10
151.7562
 20
11.2726
 10
151.8444
 20
11.3585
 10
151.9289
 20
11.4497
 10
152.0096
 20
11.5463
 10
152.0847
 20
11.6455
 10
152.1436
 20
11.7306
 10
152.2
 20
11.8189
 10
152.2539
 20
11.9105
 10
152.3053
 20
12.0054
 10
152.3542
 20
12.1035
 10
152.4007
 20
12.2049
 10
152.4446
 20
12.3095
 10
152.486
 20
12.4174
 10
152.5249
 20
12.5286
 10
152.5614
 20
12.643
 10
152.5953
 20
12.7607
 10
152.6268
 20
12.8816
 10
152.6557
 20
13.0058
 10
152.6822
 20
13.1333
 10
152.7061
 20
13.264
 10
152.7276
 20
13.3979
 10
152.7465
 20
13.5352
 10
152.763
 20
13.6756
 10
152.7769
 20
13.8194
 10
152.7884
 20
13.9664
 10
152.7974
 20
14.1167
 10
152.8039
 20
14.2702
 10
152.8078
 20
14.427
 10
152.8093
 20
14.587
 10
152.8083
 20
14.7461
 10
152.8049
 20
14.902
 10
152.7991
 20
15.0549
 10
152.7909
 20
15.2048
 10
152.7802
 20
15.3516
 10
152.7671
 20
15.4955
 10
152.7516
 20
15.6363
 10
152.7337
 20
15.774
 10
152.7133
 20
15.9088
 10
152.6905
 20
16.0405
 10
152.6653
 20
16.1692
 10
152.6377
 20
16.2948
 10
152.6077
 20
16.4174
 10
152.5752
 20
16.537
 10
152.5403
 20
16.6536
 10
152.503
 20
16.7672
 10
152.4633
 20
16.8777
 10
152.4211
 20
16.9852
 10
152.3765
 20
17.0896
 10
152.3295
 20
17.1911
 10
152.2801
 20
17.2895
 10
152.2283
 20
17.3849
 10
152.174
 20
17.4772
 10
152.1174
 20
17.5666
 10
152.0567
 20
17.6551
 10
151.9781
 20
17.7602
 10
151.896
 20
17.8598
 10
151.8105
 20
17.9537
 10
151.7215
 20
18.0422
 10
151.629
 20
18.125
 10
151.533
 20
18.2023
 10
151.4336
 20
18.274
 10
151.3307
 20
18.3401
 10
151.2244
 20
18.4007
 10
151.1145
 20
18.4557
 10
151.0012
 20
18.5051
 10
150.8845
 20
18.549
 10
150.7642
 20
18.5873
 10
150.6405
 20
18.62
 10
150.5133
 20
18.6472
 10
150.3826
 20
18.6688
 10
150.2485
 20
18.6848
 10
150.1109
 20
18.6952
 10
149.9698
 20
18.7001
 10
149.8238
 20
18.6994
 10
149.6793
 20
18.6933
 10
149.5388
 20
18.6818
 10
149.4021
 20
18.6648
 10
149.2694
 20
18.6424
 10
149.1406
 20
18.6145
 10
149.0157
 20
18.5812
 10
148.8947
 20
18.5424
 10
148.7777
 20
18.4982
 10
148.6645
 20
18.4486
 10
148.5553
 20
18.3935
 10
148.4499
 20
18.333
 10
148.3485
 20
18.2671
 10
148.251
 20
18.1957
 10
148.1574
 20
18.1188
 10
148.0677
 20
18.0366
 10
147.9819
 20
17.9489
 10
147.9001
 20
17.8557
 10
147.8221
 20
17.7571
 10
147.7625
 20
17.6742
 10
147.7065
 20
17.589
 10
147.653
 20
17.5004
 10
147.602
 20
17.4081
 10
147.5535
 20
17.3122
 10
147.5076
 20
17.2128
 10
147.4641
 20
17.1097
 10
147.4231
 20
17.0031
 10
147.3847
 20
16.8929
 10
147.3488
 20
16.7791
 10
147.3153
 20
16.6617
 10
147.2844
 20
16.5408
 10
147.256
 20
16.4162
 10
147.2301
 20
16.2881
 10
147.2067
 20
16.1563
 10
147.1858
 20
16.021
 10
147.1674
 20
15.8821
 10
147.1516
 20
15.7396
 10
147.1382
 20
15.5936
 10
147.1273
 20
15.4439
 10
147.119
 20
15.2907
 10
147.1132
 20
15.1338
 10
147.1098
 20
14.9734
  0
LWPOLYLINE
  5
55
330
17
100
AcDbEntity
  8
OUTLINE
100
AcDbPolyline
 90
562
 70
1
 10
166.8013
 20
10.6886
 10
166.7931
 20
10.8252
 10
166.7907
 20
10.8643
 10
166.7088
 20
10.8643
 10
166.6181
 20
10.8643
 10
166.5274
 20
10.8643
 10
166.5074
 20
10.8643
 10
166.499
 20
10.7869
 10
166.4864
 20
10.6917
 10
166.4719
 20
10.598
 10
166.4554
 20
10.5059
 10
166.437
 20
10.4153
 10
166.4166
 20
10.3263
 10
166.3943
 20
10.2389
 10
166.37
 20
10.1529
 10
166.3437
 20
10.0686
 10
166.3155
 20
9.9857
 10
166.2853
 20
9.9045
 10
166.2532
 20
9.8248
 10
166.2191
 20
9.7466
 10
166.1831
 20
9.67
 10
166.1451
 20
9.5949
 10
166.1052
 20
9.5214
 10
166.0633
 20
9.4494
 10
166.0194
 20
9.379
 10
165.9709
 20
9.3062
 10
165.9192
 20
9.2331
 10
165.8654
 20
9.1619
 10
165.8097
 20
9.0926
 10
165.7521
 20
9.0252
 10
165.6924
 20
8.9596
 10
165.6309
 20
8.8959
 10
165.5673
 20
8.8341
 10
165.5019
 20
8.7741
 10
165.4344
 20
8.716
 10
165.365
 20
8.6598
 10
165.2937
 20
8.6054
 10
165.2203
 20
8.5529
 10
165.1451
 20
8.5023
 10
165.0678
 20
8.4535
 10
164.9887
 20
8.4066
 10
164.9075
 20
8.3616
 10
164.8244
 20
8.3184
 10
164.7393
 20
8.2771
 10
164.6523
 20
8.2377
 10
164.5685
 20
8.2022
 10
164.4931
 20
8.1722
 10
164.4165
 20
8.1434
 10
164.3387
 20
8.116
 10
164.2597
 20
8.0898
 10
164.1795
 20
8.0648
 10
164.0982
 20
8.0412
 10
164.0157
 20
8.0188
 10
163.9321
 20
7.9977
 10
163.8472
 20
7.9779
 10
163.7612
 20
7.9594
 10
163.674
 20
7.9421
 10
163.5856
 20
7.9262
 10
163.4961
 20
7.9115
 10
163.4054
 20
7.898
 10
163.3135
 20
7.8859
 10
163.2204
 20
7.875
 10
163.1262
 20
7.8654
 10
163.0308
 20
7.8571
 10
162.9342
 20
7.8501
 10
162.8364
 20
7.8443
 10
162.7375
 20
7.8399
 10
162.6374
 20
7.8367
 10
162.5361
 20
7.8348
 10
162.4337
 20
7.8341
 10
162.3252
 20
7.8348
 10
162.218
 20
7.8369
 10
162.1121
 20
7.8404
 10
162.0075
 20
7.8453
 10
161.9042
 20
7.8515
 10
161.8021
 20
7.8592
 10
161.7014
 20
7.8682
 10
161.6019
 20
7.8787
 10
161.5037
 20
7.8905
 10
161.4068
 20
7.9038
 10
161.3111
 20
7.9184
 10
161.2168
 20
7.9344
 10
161.1237
 20
7.9518
 10
161.0319
 20
7.9706
 10
160.9414
 20
7.9908
 10
160.8522
 20
8.0124
 10
160.7642
 20
8.0353
 10
160.6775
 20
8.0597
 10
160.5922
 20
8.0855
 10
160.508
 20
8.1126
 10
160.4252
 20
8.1412
 10
160.3437
 20
8.1711
 10
160.2634
 20
8.2025
 10
160.1844
 20
8.2352
 10
160.1068
 20
8.2693
 10
160.0303
 20
8.3048
 10
159.9552
 20
8.3417
 10
159.8813
 20
8.38
 10
159.8088
 20
8.4197
 10
159.7375
 20
8.4608
 10
159.6675
 20
8.5032
 10
159.5988
 20
8.5471
 10
159.5313
 20
8.5924
 10
159.4652
 20
8.639
 10
159.4003
 20
8.6871
 10
159.3367
 20
8.7365
 10
159.2744
 20
8.7873
 10
159.2133
 20
8.8395
 10
159.15
 20
8.8965
 10
159.0872
 20
8.9559
 10
159.0263
 20
9.0166
 10
158.9672
 20
9.0787
 10
158.91
 20
9.1422
 10
158.8546
 20
9.207
 10
158.8011
 20
9.2732
 10
158.7494
 20
9.3407
 10
158.6995
 20
9.4096
 10
158.6515
 20
9.4798
 10
158.6054
 20
9.5514
 10
158.561
 20
9.6244
 10
158.5186
 20
9.6987
 10
158.4779
 20
9.7743
 10
158.4391
 20
9.8513
 10
158.4022
 20
9.9297
 10
158.3671
 20
10.0094
 10
158.3338
 20
10.0905
 10
158.3024
 20
10.1729
 10
158.2728
 20
10.2567
 10
158.2451
 20
10.3418
 10
158.2192
 20
10.4283
 10
158.1951
 20
10.5161
 10
158.1729
 20
10.6053
 10
158.1526
 20
10.6959
 10
158.134
 20
10.7878
 10
158.1174
 20
10.8811
 10
158.1025
 20
10.9757
 10
158.0895
 20
11.0717
 10
158.0784
 20
11.169
 10
158.0691
 20
11.2677
 10
158.0616
 20
11.3677
 10
158.056
 20
11.4691
 10
158.0522
 20
11.5719
 10
158.0503
 20
11.676
 10
158.0502
 20
11.7801
 10
158.0519
 20
11.8821
 10
158.0553
 20
11.983
 10
158.0605
 20
12.0827
 10
158.0674
 20
12.1812
 10
158.0761
 20
12.2786
 10
158.0865
 20
12.3749
 10
158.0987
 20
12.47
 10
158.1126
 20
12.564
 10
158.1283
 20
12.6569
 10
158.1457
 20
12.7486
 10
158.1649
 20
12.8391
 10
158.1859
 20
12.9285
 10
158.2085
 20
13.0168
 10
158.233
 20
13.1039
 10
158.2592
 20
13.1899
 10
158.2871
 20
13.2747
 10
158.3168
 20
13.3584
 10
158.3483
 20
13.4409
 10
158.3815
 20
13.5223
 10
158.4165
 20
13.6025
 10
158.4532
 20
13.6816
 10
158.4916
 20
13.7596
 10
158.5319
 20
13.8364
 10
158.5738
 20
13.9121
 10
158.6176
 20
13.9866
 10
158.663
 20
14.06
 10
158.7103
 20
14.1322
 10
158.7592
 20
14.2033
 10
158.81
 20
14.2732
 10
158.8625
 20
14.342
 10
158.9167
 20
14.4097
 10
158.9727
 20
14.4762
 10
159.0304
 20
14.5415
 10
159.0899
 20
14.6058
 10
159.1512
 20
14.6688
 10
159.2142
 20
14.7308
 10
159.2789
 20
14.7915
 10
159.3454
 20
14.8512
 10
159.4137
 20
14.9097
 10
159.4837
 20
14.967
 10
159.5554
 20
15.0232
 10
159.6222
 20
15.0733
 10
159.6841
 20
15.1181
 10
159.747
 20
15.1619
 10
159.811
 20
15.2048
 10
159.8759
 20
15.2469
 10
159.9418
 20
15.288
 10
160.0087
 20
15.3282
 10
160.0767
 20
15.3676
 10
160.1456
 20
15.406
 10
160.2155
 20
15.4435
 10
160.2864
 20
15.4801
 10
160.3583
 20
15.5158
 10
160.4313
 20
15.5506
 10
160.5052
 20
15.5846
 10
160.5801
 20
15.6176
 10
160.656
 20
15.6497
 10
160.733
 20
15.6809
 10
160.8109
 20
15.7112
 10
160.8898
 20
15.7405
 10
160.9697
 20
15.769
 10
161.0506
 20
15.7966
 10
161.1326
 20
15.8233
 10
161.2155
 20
15.8491
 10
161.2994
 20
15.874
 10
161.3843
 20
15.8979
 10
161.4702
 20
15.921
 10
161.5572
 20
15.9432
 10
161.6451
 20
15.9644
 10
161.734
 20
15.9848
 10
161.8239
 20
16.0043
 10
161.9148
 20
16.0228
 10
162.0067
 20
16.0405
 10
162.0997
 20
16.0572
 10
162.1936
 20
16.0731
 10
162.2885
 20
16.088
 10
162.3844
 20
16.1021
 10
162.4813
 20
16.1152
 10
162.5792
 20
16.1274
 10
162.6781
 20
16.1388
 10
162.7781
 20
16.1492
 10
162.879
 20
16.1587
 10
162.9809
 20
16.1674
 10
163.0838
 20
16.1751
 10
163.1877
 20
16.1819
 10
163.2926
 20
16.1878
 10
163.3985
 20
16.1928
 10
163.5054
 20
16.1969
 10
163.6134
 20
16.2001
 10
163.7223
 20
16.2024
 10
163.8322
 20
16.2038
 10
163.9431
 20
16.2043
 10
164.046
 20
16.2041
 10
164.1474
 20
16.2033
 10
164.2476
 20
16.202
 10
164.3466
 20
16.2002
 10
164.4444
 20
16.1979
 10
164.5411
 20
16.195
 10
164.6367
 20
16.1916
 10
164.7311
 20
16.1876
 10
164.8243
 20
16.1832
 10
164.9163
 20
16.1782
 10
165.0072
 20
16.1727
 10
165.097
 20
16.1666
 10
165.1855
 20
16.1601
 10
165.2729
 20
16.153
 10
165.3592
 20
16.1453
 10
165.4443
 20
16.1372
 10
165.5282
 20
16.1285
 10
165.611
 20
16.1193
 10
165.6926
 20
16.1095
 10
165.773
 20
16.0992
 10
165.8523
 20
16.0884
 10
165.9341
 20
16.0766
 10
166.0259
 20
16.0624
 10
166.1173
 20
16.0475
 10
166.2082
 20
16.0317
 10
166.2987
 20
16.0151
 10
166.3887
 20
15.9977
 10
166.4783
 20
15.9794
 10
166.5566
 20
15.9627
 10
166.5566
 20
16.0104
 10
166.5566
 20
16.1472
 10
166.5559
 20
16.2914
 10
166.5484
 20
16.4427
 10
166.5327
 20
16.5883
 10
166.5086
 20
16.7283
 10
166.4762
 20
16.8627
 10
166.4355
 20
16.9914
 10
166.3865
 20
17.1145
 10
166.3291
 20
17.232
 10
166.2635
 20
17.3438
 10
166.1896
 20
17.45
 10
166.1074
 20
17.5506
 10
166.0169
 20
17.6455
 10
165.918
 20
17.7348
 10
165.8109
 20
17.8185
 10
165.6955
 20
17.8966
 10
165.5939
 20
17.9569
 10
165.5004
 20
18.007
 10
165.4027
 20
18.0549
 10
165.3008
 20
18.1003
 10
165.1945
 20
18.1435
 10
165.084
 20
18.1843
 10
164.9692
 20
18.2227
 10
164.8502
 20
18.2588
 10
164.7269
 20
18.2926
 10
164.5993
 20
18.324
 10
164.4674
 20
18.3531
 10
164.3313
 20
18.3798
 10
164.1909
 20
18.4042
 10
164.0462
 20
18.4262
 10
163.8973
 20
18.4459
 10
163.7441
 20
18.4633
 10
163.5866
 20
18.4783
 10
163.4249
 20
18.491
 10
163.2589
 20
18.5013
 10
163.0886
 20
18.5093
 10
162.9206
 20
18.5148
 10
162.7838
 20
18.5184
 10
162.6471
 20
18.522
 10
162.5104
 20
18.5256
 10
162.3736
 20
18.5293
 10
162.2369
 20
18.5329
 10
162.1002
 20
18.5365
 10
161.9635
 20
18.5402
 10
161.8267
 20
18.5438
 10
161.69
 20
18.5474
 10
161.5533
 20
18.551
 10
161.4166
 20
18.5547
 10
161.2798
 20
18.5583
 10
161.1431
 20
18.5619
 10
161.0064
 20
18.5655
 10
160.8697
 20
18.5692
 10
160.7329
 20
18.5728
 10
160.5962
 20
18.5764
 10
160.4595
 20
18.5801
 10
160.3227
 20
18.5837
 10
160.186
 20
18.5873
 10
160.0493
 20
18.5909
 10
159.9126
 20
18.5946
 10
159.7758
 20
18.5982
 10
159.6667
 20
18.6264
 10
159.6789
 20
18.7626
 10
159.6912
 20
18.8989
 10
159.7034
 20
19.0351
 10
159.7156
 20
19.1713
 10
159.7278
 20
19.3075
 10
159.74
 20
19.4438
 10
159.7522
 20
19.58
 10
159.7645
 20
19.7162
 10
159.7767
 20
19.8525
 10
159.7889
 20
19.9887
 10
159.8011
 20
20.1249
 10
159.8133
 20
20.2611
 10
159.8255
 20
20.3974
 10
159.8378
 20
20.5336
 10
159.85
 20
20.6698
 10
159.8622
 20
20.806
 10
159.8744
 20
20.9423
 10
159.8866
 20
21.0785
 10
159.8988
 20
21.2147
 10
159.9111
 20
21.351
 10
160.0301
 20
21.3688
 10
160.1669
 20
21.367
 10
160.3036
 20
21.3652
 10
160.4404
 20
21.3633
 10
160.5771
 20
21.3615
 10
160.7139
 20
21.3597
 10
160.8507
 20
21.3579
 10
160.9874
 20
21.3561
 10
161.1242
 20
21.3542
 10
161.261
 20
21.3524
 10
161.3977
 20
21.3506
 10
161.5345
 20
21.3488
 10
161.6712
 20
21.347
 10
161.808
 20
21.3451
 10
161.9448
 20
21.3433
 10
162.0815
 20
21.3415
 10
162.2183
 20
21.3397
 10
162.3551
 20
21.3378
 10
162.4918
 20
21.336
 10
162.6286
 20
21.3342
 10
162.7845
 20
21.3318
 10
162.9566
 20
21.3276
 10
163.1264
 20
21.3217
 10
163.294
 20
21.3141
 10
163.4593
 20
21.3049
 10
163.6223
 20
21.294
 10
163.7831
 20
21.2814
 10
163.9415
 20
21.2671
 10
164.0978
 20
21.2512
 10
164.2517
 20
21.2336
 10
164.4034
 20
21.2144
 10
164.5529
 20
21.1934
 10
164.7
 20
21.1708
 10
164.8449
 20
21.1466
 10
164.9876
 20
21.1206
 10
165.1279
 20
21.093
 10
165.266
 20
21.0637
 10
165.4019
 20
21.0327
 10
165.5355
 20
21.0001
 10
165.6668
 20
20.9658
 10
165.7958
 20
20.9298
 10
165.9226
 20
20.8922
 10
166.0471
 20
20.8529
 10
166.1693
 20
20.8119
 10
166.2893
 20
20.7692
 10
166.407
 20
20.7249
 10
166.5225
 20
20.6789
 10
166.6356
 20
20.6312
 10
166.7466
 20
20.5819
 10
166.8552
 20
20.5309
 10
166.9616
 20
20.4782
 10
167.0657
 20
20.4238
 10
167.1675
 20
20.3678
 10
167.2671
 20
20.3101
 10
167.3645
 20
20.2507
 10
167.4595
 20
20.1897
 10
167.5523
 20
20.127
 10
167.6428
 20
20.0626
 10
167.7311
 20
19.9966
 10
167.8171
 20
19.9288
 10
167.9171
 20
19.8456
 10
168.0154
 20
19.7589
 10
168.1105
 20
19.6698
 10
168.2025
 20
19.5784
 10
168.2913
 20
19.4847
 10
168.377
 20
19.3886
 10
168.4595
 20
19.2902
 10
168.5389
 20
19.1895
 10
168.6151
 20
19.0864
 10
168.6882
 20
18.9809
 10
168.7581
 20
18.8731
 10
168.8248
 20
18.763
 10
168.8885
 20
18.6505
 10
168.949
 20
18.5357
 10
169.0063
 20
18.4185
 10
169.0605
 20
18.299
 10
169.1115
 20
18.1771
 10
169.1594
 20
18.0529
 10
169.2041
 20
17.9264
 10
169.2457
 20
17.7975
 10
169.2841
 20
17.6662
 10
169.3194
 20
17.5327
 10
169.3515
 20
17.3967
 10
169.3805
 20
17.2585
 10
169.4063
 20
17.1179
 10
169.429
 20
16.9749
 10
169.4486
 20
16.8296
 10
169.465
 20
16.682
 10
169.4782
 20
16.532
 10
169.4883
 20
16.3796
 10
169.4952
 20
16.225
 10
169.499
 20
16.0679
 10
169.4998
 20
15.9155
 10
169.4998
 20
15.7787
 10
169.4998
 20
15.642
 10
169.4998
 20
15.5052
 10
169.4998
 20
15.3684
 10
169.4998
 20
15.2316
 10
169.4998
 20
15.0949
 10
169.4998
 20
14.9581
 10
169.4998
 20
14.8213
 10
169.4998
 20
14.6845
 10
169.4998
 20
14.5478
 10
169.4998
 20
14.411
 10
169.4998
 20
14.2742
 10
169.4998
 20
14.1374
 10
169.4998
 20
14.0007
 10
169.4998
 20
13.8639
 10
169.4998
 20
13.7271
 10
169.4998
 20
13.5903
 10
169.4998
 20
13.4536
 10
169.4998
 20
13.3168
 10
169.4998
 20
13.18
 10
169.4998
 20
13.0432
 10
169.4998
 20
12.9065
 10
169.4998
 20
12.7697
 10
169.4998
 20
12.6329
 10
169.4998
 20
12.4961
 10
169.4998
 20
12.3594
 10
169.4998
 20
12.2226
 10
169.4998
 20
12.0858
 10
169.4998
 20
11.949
 10
169.4998
 20
11.8123
 10
169.4998
 20
11.6755
 10
169.4998
 20
11.5387
 10
169.4998
 20
11.4019
 10
169.4998
 20
11.2652
 10
169.4998
 20
11.1284
 10
169.4998
 20
10.9916
 10
169.4998
 20
10.8548
 10
169.6199
 20
10.8228
 10
169.7554
 20
10.8042
 10
169.8909
 20
10.7856
 10
170.0264
 20
10.767
 10
170.1619
 20
10.7484
 10
170.2974
 20
10.7297
 10
170.4329
 20
10.7111
 10
170.5684
 20
10.6925
 10
170.7039
 20
10.6739
 10
170.8395
 20
10.6553
 10
170.975
 20
10.6366
 10
171.1105
 20
10.618
 10
171.246
 20
10.5994
 10
171.3815
 20
10.5808
 10
171.4869
 20
10.536
 10
171.4869
 20
10.3992
 10
171.4869
 20
10.2624
 10
171.4869
 20
10.1256
 10
171.4869
 20
9.9889
 10
171.4869
 20
9.8521
 10
171.4869
 20
9.7153
 10
171.4869
 20
9.5785
 10
171.4869
 20
9.4418
 10
171.4869
 20
9.305
 10
171.4869
 20
9.1682
 10
171.4869
 20
9.0314
 10
171.4869
 20
8.8947
 10
171.4869
 20
8.7579
 10
171.4869
 20
8.6211
 10
171.4869
 20
8.4843
 10
171.4869
 20
8.3476
 10
171.4869
 20
8.2108
 10
171.4785
 20
8.0822
 10
171.3417
 20
8.0785
 10
171.205
 20
8.0747
 10
171.0683
 20
8.071
 10
170.9316
 20
8.0672
 10
170.7948
 20
8.0634
 10
170.6581
 20
8.0597
 10
170.5214
 20
8.0559
 10
170.3847
 20
8.0522
 10
170.248
 20
8.0484
 10
170.1112
 20
8.0446
 10
169.9745
 20
8.0409
 10
169.8378
 20
8.0371
 10
169.7011
 20
8.0334
 10
169.5643
 20
8.0296
 10
169.4276
 20
8.0258
 10
169.2909
 20
8.0221
 10
169.1542
 20
8.0183
 10
169.0174
 20
8.0146
 10
168.8807
 20
8.0108
 10
168.744
 20
8.007
 10
168.6073
 20
8.0033
 10
168.4706
 20
7.9995
 10
168.3338
 20
7.9958
 10
168.1971
 20
7.992
 10
168.0604
 20
7.9882
 10
167.9237
 20
7.9845
 10
167.7869
 20
7.9807
 10
167.6502
 20
7.977
 10
167.5135
 20
7.9732
 10
167.3768
 20
7.9694
 10
167.24
 20
7.9657
 10
167.1033
 20
7.9619
 10
166.9666
 20
7.9582
 10
166.9583
 20
8.0947
 10
166.9501
 20
8.2312
 10
166.9418
 20
8.3677
 10
166.9336
 20
8.5043
 10
166.9253
 20
8.6408
 10
166.917
 20
8.7773
 10
166.9088
 20
8.9138
 10
166.9005
 20
9.0504
 10
166.8922
 20
9.1869
 10
166.884
 20
9.3234
 10
166.8757
 20
9.4599
 10
166.8675
 20
9.5965
 10
166.8592
 20
9.733
 10
166.8509
 20
9.8695
 10
166.8427
 20
10.006
 10
166.8344
 20
10.1425
 10
166.8261
 20
10.2791
 10
166.8179
 20
10.4156
 10
166.8096
 20
10.5521
  0
LWPOLYLINE
  5
56
330
17
100
AcDbEntity
  8
OUTLINE
100
AcDbPolyline
 90
163
 70
1
 10
166.5566
 20
13.4983
 10
166.5053
 20
13.5078
 10
166.4134
 20
13.524
 10
166.3223
 20
13.539
 10
166.232
 20
13.5529
 10
166.1424
 20
13.5657
 10
166.0537
 20
13.5774
 10
165.9658
 20
13.588
 10
165.8786
 20
13.5974
 10
165.7923
 20
13.6058
 10
165.7068
 20
13.6131
 10
165.622
 20
13.6192
 10
165.5381
 20
13.6243
 10
165.4539
 20
13.6283
 10
165.3667
 20
13.632
 10
165.2791
 20
13.6355
 10
165.191
 20
13.6387
 10
165.1024
 20
13.6417
 10
165.0133
 20
13.6444
 10
164.9237
 20
13.6469
 10
164.8336
 20
13.6492
 10
164.7431
 20
13.6512
 10
164.6521
 20
13.6529
 10
164.5606
 20
13.6545
 10
164.4686
 20
13.6557
 10
164.3761
 20
13.6568
 10
164.2832
 20
13.6576
 10
164.1897
 20
13.6581
 10
164.0958
 20
13.6584
 10
163.9912
 20
13.6584
 10
163.8548
 20
13.657
 10
163.7217
 20
13.6537
 10
163.5919
 20
13.6484
 10
163.4653
 20
13.6412
 10
163.3421
 20
13.632
 10
163.2221
 20
13.6209
 10
163.1054
 20
13.6079
 10
162.992
 20
13.5929
 10
162.8819
 20
13.576
 10
162.7751
 20
13.5571
 10
162.6716
 20
13.5364
 10
162.5713
 20
13.5137
 10
162.4744
 20
13.489
 10
162.3807
 20
13.4624
 10
162.2903
 20
13.4339
 10
162.2032
 20
13.4034
 10
162.1194
 20
13.371
 10
162.0389
 20
13.3367
 10
161.9617
 20
13.3004
 10
161.8877
 20
13.2622
 10
161.8171
 20
13.2221
 10
161.7497
 20
13.18
 10
161.6856
 20
13.136
 10
161.6248
 20
13.0901
 10
161.5673
 20
13.0422
 10
161.5131
 20
12.9924
 10
161.4621
 20
12.9406
 10
161.4145
 20
12.8869
 10
161.3701
 20
12.8313
 10
161.3291
 20
12.7738
 10
161.2913
 20
12.7143
 10
161.2568
 20
12.6528
 10
161.2255
 20
12.5895
 10
161.1976
 20
12.5241
 10
161.173
 20
12.4569
 10
161.1516
 20
12.3877
 10
161.1336
 20
12.3166
 10
161.1188
 20
12.2436
 10
161.1073
 20
12.1686
 10
161.0991
 20
12.0917
 10
161.0942
 20
12.0128
 10
161.0926
 20
11.9319
 10
161.095
 20
11.829
 10
161.1024
 20
11.7295
 10
161.1147
 20
11.6335
 10
161.1319
 20
11.5409
 10
161.1541
 20
11.4518
 10
161.1811
 20
11.3661
 10
161.2131
 20
11.2838
 10
161.2499
 20
11.2049
 10
161.2917
 20
11.1295
 10
161.3384
 20
11.0575
 10
161.39
 20
10.989
 10
161.4465
 20
10.9239
 10
161.5079
 20
10.8622
 10
161.5743
 20
10.804
 10
161.6391
 20
10.7539
 10
161.7016
 20
10.7108
 10
161.7671
 20
10.6704
 10
161.8358
 20
10.6326
 10
161.9075
 20
10.5975
 10
161.9823
 20
10.5649
 10
162.0602
 20
10.5351
 10
162.1412
 20
10.5078
 10
162.2252
 20
10.4832
 10
162.3124
 20
10.4612
 10
162.4026
 20
10.4418
 10
162.4959
 20
10.4251
 10
162.5923
 20
10.411
 10
162.6918
 20
10.3995
 10
162.7943
 20
10.3907
 10
162.9
 20
10.3845
 10
163.0087
 20
10.3809
 10
163.1193
 20
10.38
 10
163.2231
 20
10.3811
 10
163.3253
 20
10.384
 10
163.426
 20
10.3886
 10
163.525
 20
10.395
 10
163.6226
 20
10.4031
 10
163.7185
 20
10.413
 10
163.8129
 20
10.4246
 10
163.9057
 20
10.438
 10
163.997
 20
10.4531
 10
164.0867
 20
10.47
 10
164.1748
 20
10.4886
 10
164.2614
 20
10.509
 10
164.3464
 20
10.5311
 10
164.4298
 20
10.5549
 10
164.5116
 20
10.5806
 10
164.5919
 20
10.6079
 10
164.6707
 20
10.6371
 10
164.7478
 20
10.6679
 10
164.8234
 20
10.7006
 10
164.8974
 20
10.7349
 10
164.9699
 20
10.771
 10
165.0467
 20
10.8121
 10
165.1327
 20
10.861
 10
165.2163
 20
10.9114
 10
165.2973
 20
10.9632
 10
165.3758
 20
11.0165
 10
165.4518
 20
11.0713
 10
165.5252
 20
11.1275
 10
165.5961
 20
11.1852
 10
165.6645
 20
11.2443
 10
165.7303
 20
11.3049
 10
165.7937
 20
11.367
 10
165.8544
 20
11.4306
 10
165.9127
 20
11.4956
 10
165.9685
 20
11.562
 10
166.0217
 20
11.63
 10
166.0724
 20
11.6994
 10
166.1205
 20
11.7703
 10
166.1662
 20
11.8426
 10
166.2143
 20
11.9247
 10
166.2598
 20
12.0083
 10
166.3022
 20
12.0924
 10
166.3412
 20
12.1768
 10
166.3771
 20
12.2615
 10
166.4096
 20
12.3467
 10
166.4389
 20
12.4322
 10
166.465
 20
12.518
 10
166.4878
 20
12.6043
 10
166.5073
 20
12.6909
 10
166.5236
 20
12.7779
 10
166.5366
 20
12.8652
 10
166.5464
 20
12.9529
 10
166.5529
 20
13.041
 10
166.5562
 20
13.1294
 10
166.5566
 20
13.2191
 10
166.5566
 20
13.3098
 10
166.5566
 20
13.4005
 10
166.5566
 20
13.4117
 10
166.5566
 20
13.4912
  0
LWPOLYLINE
  5
57
330
17
100
AcDbEntity
  8
OUTLINE
100
AcDbPolyline
 90
368
 70
1
 10
191.4151
 20
13.3978
 10
191.3545
 20
13.3978
 10
191.3853
 20
13.2872
 10
191.4325
 20
13.1394
 10
191.4845
 20
12.9957
 10
191.5416
 20
12.8562
 10
191.6035
 20
12.7207
 10
191.6704
 20
12.5894
 10
191.7422
 20
12.4621
 10
191.819
 20
12.339
 10
191.9006
 20
12.22
 10
191.9873
 20
12.1051
 10
192.0788
 20
11.9943
 10
192.1753
 20
11.8876
 10
192.2767
 20
11.785
 10
192.3812
 20
11.6881
 10
192.4875
 20
11.5975
 10
192.5975
 20
11.5112
 10
192.7114
 20
11.429
 10
192.8291
 20
11.3511
 10
192.9506
 20
11.2773
 10
193.076
 20
11.2077
 10
193.2052
 20
11.1424
 10
193.3383
 20
11.0812
 10
193.4751
 20
11.0242
 10
193.6158
 20
10.9715
 10
193.7604
 20
10.9229
 10
193.9087
 20
10.8785
 10
194.0609
 20
10.8383
 10
194.217
 20
10.8024
 10
194.3768
 20
10.7706
 10
194.5405
 20
10.743
 10
194.708
 20
10.7196
 10
194.8794
 20
10.7004
 10
195.0546
 20
10.6854
 10
195.2336
 20
10.6746
 10
195.4165
 20
10.668
 10
195.6031
 20
10.6656
 10
195.7644
 20
10.6663
 10
195.9231
 20
10.6686
 10
196.0812
 20
10.6724
 10
196.2389
 20
10.6777
 10
196.396
 20
10.6847
 10
196.5526
 20
10.6932
 10
196.7087
 20
10.7033
 10
196.8642
 20
10.7149
 10
197.0193
 20
10.7281
 10
197.1738
 20
10.7429
 10
197.3278
 20
10.7592
 10
197.4804
 20
10.7768
 10
197.6335
 20
10.7954
 10
197.7872
 20
10.8152
 10
197.9413
 20
10.8361
 10
198.096
 20
10.8581
 10
198.2512
 20
10.8813
 10
198.4068
 20
10.9055
 10
198.563
 20
10.9309
 10
198.7197
 20
10.9575
 10
198.8769
 20
10.9851
 10
199.0318
 20
11.0102
 10
199.0495
 20
10.8543
 10
199.0673
 20
10.6985
 10
199.0851
 20
10.5426
 10
199.1029
 20
10.3867
 10
199.1207
 20
10.2308
 10
199.1385
 20
10.0749
 10
199.1562
 20
9.919
 10
199.174
 20
9.7631
 10
199.1918
 20
9.6072
 10
199.2096
 20
9.4513
 10
199.2274
 20
9.2955
 10
199.2452
 20
9.1396
 10
199.2629
 20
8.9837
 10
199.2807
 20
8.8278
 10
199.2985
 20
8.6719
 10
199.3163
 20
8.516
 10
199.3341
 20
8.3601
 10
199.3518
 20
8.2042
 10
199.2101
 20
8.1557
 10
199.0433
 20
8.1267
 10
198.8785
 20
8.0993
 10
198.7156
 20
8.0734
 10
198.5546
 20
8.0491
 10
198.3956
 20
8.0264
 10
198.2384
 20
8.0052
 10
198.0832
 20
7.9856
 10
197.9299
 20
7.9676
 10
197.7786
 20
7.9511
 10
197.6291
 20
7.9362
 10
197.4816
 20
7.9228
 10
197.336
 20
7.911
 10
197.1923
 20
7.9008
 10
197.0335
 20
7.891
 10
196.8597
 20
7.8811
 10
196.6894
 20
7.8722
 10
196.5228
 20
7.8642
 10
196.3597
 20
7.8572
 10
196.2002
 20
7.8511
 10
196.0443
 20
7.8459
 10
195.892
 20
7.8416
 10
195.7432
 20
7.8384
 10
195.598
 20
7.836
 10
195.4565
 20
7.8346
 10
195.3185
 20
7.8341
 10
195.1321
 20
7.8355
 10
194.948
 20
7.8395
 10
194.7663
 20
7.8463
 10
194.587
 20
7.8558
 10
194.41
 20
7.868
 10
194.2354
 20
7.8829
 10
194.0632
 20
7.9005
 10
193.8933
 20
7.9208
 10
193.7257
 20
7.9438
 10
193.5605
 20
7.9695
 10
193.3977
 20
7.998
 10
193.2373
 20
8.0291
 10
193.0791
 20
8.063
 10
192.9234
 20
8.0995
 10
192.77
 20
8.1388
 10
192.619
 20
8.1808
 10
192.4703
 20
8.2255
 10
192.324
 20
8.2728
 10
192.18
 20
8.323
 10
192.0384
 20
8.3758
 10
191.8991
 20
8.4313
 10
191.7622
 20
8.4895
 10
191.6277
 20
8.5504
 10
191.4955
 20
8.6141
 10
191.3657
 20
8.6804
 10
191.2382
 20
8.7495
 10
191.1131
 20
8.8213
 10
190.9904
 20
8.8957
 10
190.87
 20
8.9729
 10
190.7519
 20
9.0528
 10
190.6363
 20
9.1354
 10
190.5229
 20
9.2207
 10
190.412
 20
9.3087
 10
190.3034
 20
9.3995
 10
190.1971
 20
9.4929
 10
190.0932
 20
9.589
 10
189.9903
 20
9.6893
 10
189.8899
 20
9.7924
 10
189.7926
 20
9.8979
 10
189.6981
 20
10.0058
 10
189.6066
 20
10.1163
 10
189.518
 20
10.2291
 10
189.4324
 20
10.3444
 10
189.3497
 20
10.4622
 10
189.27
 20
10.5825
 10
189.1932
 20
10.7052
 10
189.1193
 20
10.8303
 10
189.0484
 20
10.9579
 10
188.9804
 20
11.088
 10
188.9153
 20
11.2205
 10
188.8532
 20
11.3554
 10
188.794
 20
11.4929
 10
188.7378
 20
11.6327
 10
188.6845
 20
11.7751
 10
188.6341
 20
11.9199
 10
188.5867
 20
12.0671
 10
188.5422
 20
12.2168
 10
188.5006
 20
12.369
 10
188.462
 20
12.5236
 10
188.4264
 20
12.6807
 10
188.3936
 20
12.8402
 10
188.3638
 20
13.0022
 10
188.337
 20
13.1666
 10
188.3131
 20
13.3335
 10
188.2921
 20
13.5028
 10
188.274
 20
13.6746
 10
188.2589
 20
13.8489
 10
188.2468
 20
14.0256
 10
188.2376
 20
14.2048
 10
188.2313
 20
14.3864
 10
188.2279
 20
14.5705
 10
188.2275
 20
14.7573
 10
188.2298
 20
14.9437
 10
188.2348
 20
15.1276
 10
188.2425
 20
15.3091
 10
188.2528
 20
15.4881
 10
188.2658
 20
15.6647
 10
188.2815
 20
15.8388
 10
188.2999
 20
16.0105
 10
188.3209
 20
16.1797
 10
188.3447
 20
16.3464
 10
188.3711
 20
16.5107
 10
188.4001
 20
16.6726
 10
188.4319
 20
16.832
 10
188.4663
 20
16.9889
 10
188.5035
 20
17.1434
 10
188.5432
 20
17.2954
 10
188.5857
 20
17.445
 10
188.6309
 20
17.5921
 10
188.6787
 20
17.7367
 10
188.7292
 20
17.8789
 10
188.7823
 20
18.0187
 10
188.8382
 20
18.1559
 10
188.8967
 20
18.2908
 10
188.9579
 20
18.4231
 10
189.0218
 20
18.5531
 10
189.0884
 20
18.6805
 10
189.1576
 20
18.8055
 10
189.2296
 20
18.9281
 10
189.3041
 20
19.0482
 10
189.3814
 20
19.1658
 10
189.4614
 20
19.281
 10
189.544
 20
19.3938
 10
189.6293
 20
19.504
 10
189.7173
 20
19.6119
 10
189.8088
 20
19.7182
 10
189.9104
 20
19.8298
 10
190.0145
 20
19.9378
 10
190.1213
 20
20.0422
 10
190.2306
 20
20.143
 10
190.3426
 20
20.2401
 10
190.4571
 20
20.3336
 10
190.5743
 20
20.4235
 10
190.6941
 20
20.5098
 10
190.8164
 20
20.5924
 10
190.9414
 20
20.6715
 10
191.069
 20
20.7469
 10
191.1991
 20
20.8186
 10
191.3319
 20
20.8868
 10
191.4673
 20
20.9514
 10
191.6053
 20
21.0123
 10
191.7459
 20
21.0696
 10
191.8891
 20
21.1232
 10
192.0348
 20
21.1733
 10
192.1832
 20
21.2197
 10
192.3342
 20
21.2626
 10
192.4878
 20
21.3017
 10
192.644
 20
21.3373
 10
192.8028
 20
21.3693
 10
192.9642
 20
21.3976
 10
193.1282
 20
21.4223
 10
193.2949
 20
21.4434
 10
193.4641
 20
21.4609
 10
193.6359
 20
21.4747
 10
193.8103
 20
21.4849
 10
193.9873
 20
21.4915
 10
194.167
 20
21.4945
 10
194.3492
 20
21.4938
 10
194.5296
 20
21.4896
 10
194.7073
 20
21.4816
 10
194.8822
 20
21.4701
 10
195.0543
 20
21.4549
 10
195.2236
 20
21.436
 10
195.3902
 20
21.4136
 10
195.5539
 20
21.3874
 10
195.715
 20
21.3577
 10
195.8732
 20
21.3243
 10
196.0287
 20
21.2873
 10
196.1814
 20
21.2466
 10
196.3314
 20
21.2023
 10
196.4785
 20
21.1543
 10
196.6229
 20
21.1028
 10
196.7646
 20
21.0475
 10
196.9034
 20
20.9887
 10
197.0395
 20
20.9262
 10
197.1729
 20
20.86
 10
197.3034
 20
20.7903
 10
197.4312
 20
20.7168
 10
197.5562
 20
20.6398
 10
197.6785
 20
20.5591
 10
197.798
 20
20.4748
 10
197.9147
 20
20.3868
 10
198.0286
 20
20.2952
 10
198.1398
 20
20.1999
 10
198.2482
 20
20.1011
 10
198.3538
 20
19.9985
 10
198.4567
 20
19.8924
 10
198.5516
 20
19.7884
 10
198.641
 20
19.6845
 10
198.7275
 20
19.5778
 10
198.8112
 20
19.4683
 10
198.8921
 20
19.356
 10
198.9701
 20
19.2409
 10
199.0452
 20
19.1231
 10
199.1175
 20
19.0024
 10
199.187
 20
18.879
 10
199.2536
 20
18.7528
 10
199.3174
 20
18.6237
 10
199.3783
 20
18.4919
 10
199.4364
 20
18.3574
 10
199.4916
 20
18.22
 10
199.544
 20
18.0798
 10
199.5935
 20
17.9368
 10
199.6402
 20
17.7911
 10
199.6841
 20
17.6426
 10
199.7251
 20
17.4913
 10
199.7632
 20
17.3371
 10
199.7985
 20
17.1802
 10
199.831
 20
17.0206
 10
199.8606
 20
16.8581
 10
199.8874
 20
16.6928
 10
199.9113
 20
16.5248
 10
199.9323
 20
16.3539
 10
199.9506
 20
16.1803
 10
199.9659
 20
16.0039
 10
199.9785
 20
15.8247
 10
199.9881
 20
15.6427
 10
199.995
 20
15.4579
 10
199.999
 20
15.2703
 10
200.0001
 20
15.0824
 10
199.9994
 20
14.9166
 10
199.9973
 20
14.7526
 10
199.9941
 20
14.5906
 10
199.9895
 20
14.4304
 10
199.9837
 20
14.2721
 10
199.9767
 20
14.1158
 10
199.9683
 20
13.9613
 10
199.9587
 20
13.8087
 10
199.9479
 20
13.658
 10
199.9358
 20
13.5092
 10
199.8877
 20
13.3978
 10
199.7308
 20
13.3978
 10
199.5739
 20
13.3978
 10
199.417
 20
13.3978
 10
199.2601
 20
13.3978
 10
199.1032
 20
13.3978
 10
198.9463
 20
13.3978
 10
198.7894
 20
13.3978
 10
198.6325
 20
13.3978
 10
198.4756
 20
13.3978
 10
198.3187
 20
13.3978
 10
198.1618
 20
13.3978
 10
198.0049
 20
13.3978
 10
197.848
 20
13.3978
 10
197.6911
 20
13.3978
 10
197.5342
 20
13.3978
 10
197.3773
 20
13.3978
 10
197.2204
 20
13.3978
 10
197.0635
 20
13.3978
 10
196.9066
 20
13.3978
 10
196.7497
 20
13.3978
 10
196.5928
 20
13.3978
 10
196.4359
 20
13.3978
 10
196.279
 20
13.3978
 10
196.1221
 20
13.3978
 10
195.9652
 20
13.3978
 10
195.8083
 20
13.3978
 10
195.6514
 20
13.3978
 10
195.4945
 20
13.3978
 10
195.3376
 20
13.3978
 10
195.1807
 20
13.3978
 10
195.0238
 20
13.3978
 10
194.8669
 20
13.3978
 10
194.71
 20
13.3978
 10
194.5531
 20
13.3978
 10
194.3962
 20
13.3978
 10
194.2393
 20
13.3978
 10
194.0824
 20
13.3978
 10
193.9255
 20
13.3978
 10
193.7686
 20
13.3978
 10
193.6117
 20
13.3978
 10
193.4548
 20
13.3978
 10
193.2979
 20
13.3978
 10
193.141
 20
13.3978
 10
192.9841
 20
13.3978
 10
192.8272
 20
13.3978
 10
192.6703
 20
13.3978
 10
192.5134
 20
13.3978
 10
192.3565
 20
13.3978
 10
192.1996
 20
13.3978
 10
192.0427
 20
13.3978
 10
191.8858
 20
13.3978
 10
191.7289
 20
13.3978
 10
191.572
 20
13.3978
  0
LWPOLYLINE
  5
58
330
17
100
AcDbEntity
  8
OUTLINE
100
AcDbPolyline
 90
100
 70
1
 10
191.2347
 20
15.7082
 10
191.2237
 20
15.6083
 10
191.3294
 20
15.6083
 10
191.4863
 20
15.6083
 10
191.6432
 20
15.6083
 10
191.8001
 20
15.6083
 10
191.957
 20
15.6083
 10
192.1139
 20
15.6083
 10
192.2708
 20
15.6083
 10
192.4277
 20
15.6083
 10
192.5846
 20
15.6083
 10
192.7415
 20
15.6083
 10
192.8984
 20
15.6083
 10
193.0553
 20
15.6083
 10
193.2122
 20
15.6083
 10
193.3691
 20
15.6083
 10
193.526
 20
15.6083
 10
193.6829
 20
15.6083
 10
193.8398
 20
15.6083
 10
193.9967
 20
15.6083
 10
194.1536
 20
15.6083
 10
194.3105
 20
15.6083
 10
194.4674
 20
15.6083
 10
194.6243
 20
15.6083
 10
194.7812
 20
15.6083
 10
194.9381
 20
15.6083
 10
195.095
 20
15.6083
 10
195.2519
 20
15.6083
 10
195.4088
 20
15.6083
 10
195.5657
 20
15.6083
 10
195.7226
 20
15.6083
 10
195.8795
 20
15.6083
 10
196.0364
 20
15.6083
 10
196.1933
 20
15.6083
 10
196.3502
 20
15.6083
 10
196.5071
 20
15.6083
 10
196.664
 20
15.6083
 10
196.8209
 20
15.6083
 10
196.9778
 20
15.6083
 10
197.0688
 20
15.6869
 10
197.0633
 20
15.8716
 10
197.0519
 20
16.0506
 10
197.0346
 20
16.2242
 10
197.0113
 20
16.3922
 10
196.9821
 20
16.5547
 10
196.947
 20
16.7116
 10
196.9059
 20
16.863
 10
196.8589
 20
17.0088
 10
196.8059
 20
17.1491
 10
196.747
 20
17.2839
 10
196.6822
 20
17.4131
 10
196.6114
 20
17.5368
 10
196.5347
 20
17.6549
 10
196.452
 20
17.7675
 10
196.3634
 20
17.8745
 10
196.2644
 20
17.9806
 10
196.1566
 20
18.0829
 10
196.0433
 20
18.1776
 10
195.9246
 20
18.2648
 10
195.8003
 20
18.3444
 10
195.6707
 20
18.4165
 10
195.5355
 20
18.481
 10
195.3949
 20
18.538
 10
195.2489
 20
18.5874
 10
195.0973
 20
18.6292
 10
194.9403
 20
18.6635
 10
194.7779
 20
18.6903
 10
194.6099
 20
18.7095
 10
194.4365
 20
18.7211
 10
194.2577
 20
18.7252
 10
194.0824
 20
18.7217
 10
193.9122
 20
18.7106
 10
193.7467
 20
18.692
 10
193.5861
 20
18.6658
 10
193.4302
 20
18.632
 10
193.2792
 20
18.5906
 10
193.133
 20
18.5416
 10
192.9915
 20
18.4851
 10
192.8549
 20
18.4209
 10
192.7231
 20
18.3492
 10
192.5961
 20
18.2699
 10
192.4739
 20
18.1831
 10
192.3566
 20
18.0886
 10
192.244
 20
17.9866
 10
192.1362
 20
17.877
 10
192.0333
 20
17.7598
 10
191.944
 20
17.6468
 10
191.8657
 20
17.5377
 10
191.7917
 20
17.424
 10
191.722
 20
17.3058
 10
191.6564
 20
17.1831
 10
191.5952
 20
17.0558
 10
191.5381
 20
16.9241
 10
191.4854
 20
16.7879
 10
191.4368
 20
16.6472
 10
191.3925
 20
16.502
 10
191.3525
 20
16.3522
 10
191.3166
 20
16.198
 10
191.2851
 20
16.0392
 10
191.2577
 20
15.876
  0
LWPOLYLINE
  5
59
330
17
100
AcDbEntity
  8
OUTLINE
100
AcDbPolyline
 90
432
 70
1
 10
181.0306
 20
7.8354
 10
180.8968
 20
7.8344
 10
180.7635
 20
7.8341
 10
180.5996
 20
7.8351
 10
180.4374
 20
7.838
 10
180.277
 20
7.8429
 10
180.1183
 20
7.8498
 10
179.9614
 20
7.8586
 10
179.8063
 20
7.8694
 10
179.6529
 20
7.8822
 10
179.5013
 20
7.8969
 10
179.3515
 20
7.9135
 10
179.2035
 20
7.9322
 10
179.0572
 20
7.9527
 10
178.9127
 20
7.9753
 10
178.7699
 20
7.9998
 10
178.6289
 20
8.0263
 10
178.4897
 20
8.0547
 10
178.3523
 20
8.0851
 10
178.2166
 20
8.1174
 10
178.0827
 20
8.1517
 10
177.9506
 20
8.188
 10
177.8202
 20
8.2262
 10
177.6916
 20
8.2664
 10
177.5648
 20
8.3086
 10
177.4397
 20
8.3527
 10
177.3164
 20
8.3988
 10
177.1949
 20
8.4468
 10
177.0751
 20
8.4968
 10
176.9571
 20
8.5488
 10
176.8409
 20
8.6027
 10
176.7264
 20
8.6586
 10
176.6137
 20
8.7164
 10
176.5028
 20
8.7762
 10
176.3936
 20
8.838
 10
176.2862
 20
8.9017
 10
176.1806
 20
8.9674
 10
176.0768
 20
9.035
 10
175.9747
 20
9.1046
 10
175.8743
 20
9.1762
 10
175.7758
 20
9.2497
 10
175.679
 20
9.3252
 10
175.584
 20
9.4026
 10
175.4907
 20
9.482
 10
175.3993
 20
9.5634
 10
175.3077
 20
9.6485
 10
175.2165
 20
9.7371
 10
175.1277
 20
9.8277
 10
175.0411
 20
9.9201
 10
174.9568
 20
10.0143
 10
174.8748
 20
10.1104
 10
174.7951
 20
10.2084
 10
174.7177
 20
10.3082
 10
174.6426
 20
10.4099
 10
174.5698
 20
10.5134
 10
174.4992
 20
10.6188
 10
174.431
 20
10.7261
 10
174.365
 20
10.8352
 10
174.3014
 20
10.9462
 10
174.24
 20
11.059
 10
174.1809
 20
11.1737
 10
174.1242
 20
11.2902
 10
174.0697
 20
11.4087
 10
174.0175
 20
11.5289
 10
173.9676
 20
11.6511
 10
173.92
 20
11.775
 10
173.8747
 20
11.9009
 10
173.8316
 20
12.0286
 10
173.7909
 20
12.1582
 10
173.7524
 20
12.2896
 10
173.7163
 20
12.4229
 10
173.6824
 20
12.558
 10
173.6509
 20
12.695
 10
173.6216
 20
12.8339
 10
173.5946
 20
12.9746
 10
173.5699
 20
13.1172
 10
173.5475
 20
13.2617
 10
173.5274
 20
13.408
 10
173.5096
 20
13.5561
 10
173.4941
 20
13.7062
 10
173.4809
 20
13.858
 10
173.4699
 20
14.0118
 10
173.4613
 20
14.1674
 10
173.455
 20
14.3248
 10
173.4509
 20
14.4842
 10
173.4491
 20
14.6453
 10
173.4496
 20
14.8071
 10
173.4524
 20
14.9671
 10
173.4573
 20
15.1253
 10
173.4645
 20
15.2817
 10
173.4739
 20
15.4363
 10
173.4856
 20
15.589
 10
173.4995
 20
15.74
 10
173.5156
 20
15.8891
 10
173.5339
 20
16.0363
 10
173.5544
 20
16.1818
 10
173.5772
 20
16.3254
 10
173.6022
 20
16.4673
 10
173.6294
 20
16.6073
 10
173.6589
 20
16.7455
 10
173.6906
 20
16.8818
 10
173.7245
 20
17.0164
 10
173.7606
 20
17.1491
 10
173.799
 20
17.28
 10
173.8396
 20
17.4091
 10
173.8824
 20
17.5364
 10
173.9274
 20
17.6619
 10
173.9747
 20
17.7855
 10
174.0242
 20
17.9073
 10
174.0759
 20
18.0273
 10
174.1299
 20
18.1455
 10
174.186
 20
18.2619
 10
174.2444
 20
18.3764
 10
174.3051
 20
18.4891
 10
174.3679
 20
18.6
 10
174.433
 20
18.7091
 10
174.5003
 20
18.8164
 10
174.5698
 20
18.9218
 10
174.6416
 20
19.0254
 10
174.7156
 20
19.1273
 10
174.7918
 20
19.2272
 10
174.8702
 20
19.3254
 10
174.9509
 20
19.4218
 10
175.0338
 20
19.5163
 10
175.1189
 20
19.609
 10
175.2062
 20
19.6999
 10
175.2951
 20
19.7882
 10
175.3858
 20
19.8743
 10
175.4784
 20
19.9581
 10
175.5729
 20
20.0398
 10
175.6692
 20
20.1191
 10
175.7675
 20
20.1963
 10
175.8676
 20
20.2712
 10
175.9696
 20
20.3439
 10
176.0735
 20
20.4144
 10
176.1793
 20
20.4827
 10
176.287
 20
20.5487
 10
176.3966
 20
20.6125
 10
176.508
 20
20.6741
 10
176.6214
 20
20.7334
 10
176.7366
 20
20.7905
 10
176.8537
 20
20.8454
 10
176.9727
 20
20.8981
 10
177.0936
 20
20.9485
 10
177.2164
 20
20.9967
 10
177.341
 20
21.0427
 10
177.4676
 20
21.0865
 10
177.596
 20
21.128
 10
177.7263
 20
21.1673
 10
177.8586
 20
21.2044
 10
177.9927
 20
21.2392
 10
178.1286
 20
21.2718
 10
178.2665
 20
21.3022
 10
178.4063
 20
21.3304
 10
178.5479
 20
21.3563
 10
178.6914
 20
21.38
 10
178.8368
 20
21.4015
 10
178.9841
 20
21.4208
 10
179.1333
 20
21.4378
 10
179.2844
 20
21.4526
 10
179.4374
 20
21.4652
 10
179.5922
 20
21.4755
 10
179.7489
 20
21.4837
 10
179.9076
 20
21.4895
 10
180.0681
 20
21.4932
 10
180.2305
 20
21.4947
 10
180.386
 20
21.4938
 10
180.5385
 20
21.4907
 10
180.6894
 20
21.4854
 10
180.8384
 20
21.4777
 10
180.9858
 20
21.4677
 10
181.1314
 20
21.4554
 10
181.2753
 20
21.4409
 10
181.4174
 20
21.424
 10
181.5579
 20
21.4049
 10
181.6966
 20
21.3834
 10
181.8335
 20
21.3597
 10
181.9687
 20
21.3337
 10
182.1022
 20
21.3054
 10
182.234
 20
21.2747
 10
182.364
 20
21.2418
 10
182.4923
 20
21.2067
 10
182.6188
 20
21.1692
 10
182.7437
 20
21.1294
 10
182.8667
 20
21.0873
 10
182.9881
 20
21.043
 10
183.1077
 20
20.9963
 10
183.2256
 20
20.9474
 10
183.3418
 20
20.8961
 10
183.4562
 20
20.8426
 10
183.5689
 20
20.7868
 10
183.6805
 20
20.7283
 10
183.8083
 20
20.6573
 10
183.9326
 20
20.5838
 10
184.0534
 20
20.5076
 10
184.1709
 20
20.4288
 10
184.2849
 20
20.3474
 10
184.3955
 20
20.2634
 10
184.5026
 20
20.1768
 10
184.6063
 20
20.0876
 10
184.7066
 20
19.9958
 10
184.8035
 20
19.9014
 10
184.8969
 20
19.8044
 10
184.9869
 20
19.7047
 10
185.0735
 20
19.6025
 10
185.1567
 20
19.4977
 10
185.2364
 20
19.3902
 10
185.3127
 20
19.2802
 10
185.3856
 20
19.1676
 10
185.455
 20
19.0523
 10
185.521
 20
18.9345
 10
185.5836
 20
18.814
 10
185.6428
 20
18.6909
 10
185.6845
 20
18.5689
 10
185.5764
 20
18.4844
 10
185.4684
 20
18.4
 10
185.3603
 20
18.3155
 10
185.2522
 20
18.231
 10
185.1441
 20
18.1466
 10
185.036
 20
18.0621
 10
184.9279
 20
17.9776
 10
184.8198
 20
17.8932
 10
184.7117
 20
17.8087
 10
184.6036
 20
17.7242
 10
184.4955
 20
17.6398
 10
184.3874
 20
17.5553
 10
184.2793
 20
17.4708
 10
184.1712
 20
17.3864
 10
184.0631
 20
17.3019
 10
183.955
 20
17.2174
 10
183.8469
 20
17.133
 10
183.7388
 20
17.0485
 10
183.6308
 20
16.964
 10
183.5227
 20
16.8795
 10
183.4166
 20
16.8081
 10
183.3388
 20
16.9286
 10
183.2581
 20
17.0452
 10
183.1745
 20
17.1579
 10
183.0879
 20
17.2667
 10
182.9984
 20
17.3716
 10
182.9059
 20
17.4726
 10
182.8105
 20
17.5697
 10
182.7121
 20
17.6629
 10
182.6108
 20
17.7521
 10
182.5066
 20
17.8375
 10
182.3994
 20
17.9189
 10
182.2892
 20
17.9965
 10
182.1762
 20
18.0701
 10
182.0601
 20
18.1398
 10
181.9406
 20
18.2058
 10
181.819
 20
18.2674
 10
181.6957
 20
18.3242
 10
181.5708
 20
18.3764
 10
181.4442
 20
18.4237
 10
181.316
 20
18.4664
 10
181.1861
 20
18.5043
 10
181.0545
 20
18.5375
 10
180.9213
 20
18.566
 10
180.7864
 20
18.5898
 10
180.6499
 20
18.6088
 10
180.5117
 20
18.6231
 10
180.3718
 20
18.6327
 10
180.2303
 20
18.6375
 10
180.0798
 20
18.6377
 10
179.923
 20
18.6334
 10
179.7696
 20
18.6246
 10
179.6196
 20
18.6113
 10
179.4729
 20
18.5936
 10
179.3296
 20
18.5714
 10
179.1895
 20
18.5448
 10
179.0529
 20
18.5137
 10
178.9195
 20
18.4782
 10
178.7896
 20
18.4382
 10
178.6629
 20
18.3938
 10
178.5396
 20
18.3449
 10
178.4197
 20
18.2915
 10
178.3031
 20
18.2337
 10
178.1898
 20
18.1715
 10
178.0799
 20
18.1047
 10
177.9733
 20
18.0336
 10
177.8701
 20
17.9579
 10
177.7702
 20
17.8779
 10
177.6736
 20
17.7933
 10
177.5804
 20
17.7043
 10
177.4923
 20
17.6127
 10
177.4109
 20
17.5207
 10
177.3333
 20
17.4253
 10
177.2596
 20
17.3265
 10
177.1896
 20
17.2244
 10
177.1234
 20
17.1188
 10
177.061
 20
17.0098
 10
177.0024
 20
16.8974
 10
176.9475
 20
16.7817
 10
176.8965
 20
16.6625
 10
176.8493
 20
16.5399
 10
176.8059
 20
16.414
 10
176.7662
 20
16.2846
 10
176.7304
 20
16.1519
 10
176.6984
 20
16.0157
 10
176.6701
 20
15.8762
 10
176.6456
 20
15.7332
 10
176.625
 20
15.5869
 10
176.6081
 20
15.4372
 10
176.595
 20
15.284
 10
176.5858
 20
15.1275
 10
176.5803
 20
14.9676
 10
176.5786
 20
14.8044
 10
176.5807
 20
14.6429
 10
176.5866
 20
14.4845
 10
176.5964
 20
14.3293
 10
176.61
 20
14.1773
 10
176.6274
 20
14.0284
 10
176.6486
 20
13.8826
 10
176.6737
 20
13.74
 10
176.7026
 20
13.6005
 10
176.7353
 20
13.4642
 10
176.7718
 20
13.3311
 10
176.8122
 20
13.201
 10
176.8563
 20
13.0742
 10
176.9043
 20
12.9505
 10
176.9562
 20
12.8299
 10
177.0118
 20
12.7125
 10
177.0713
 20
12.5982
 10
177.1345
 20
12.4871
 10
177.2017
 20
12.3791
 10
177.2726
 20
12.2743
 10
177.3473
 20
12.1726
 10
177.4259
 20
12.0741
 10
177.5083
 20
11.9787
 10
177.5946
 20
11.8865
 10
177.6846
 20
11.7974
 10
177.7764
 20
11.7133
 10
177.8684
 20
11.6349
 10
177.9633
 20
11.5596
 10
178.0612
 20
11.4875
 10
178.162
 20
11.4185
 10
178.2658
 20
11.3526
 10
178.3726
 20
11.2899
 10
178.4823
 20
11.2303
 10
178.595
 20
11.1738
 10
178.7106
 20
11.1204
 10
178.8292
 20
11.0701
 10
178.9508
 20
11.023
 10
179.0753
 20
10.9789
 10
179.2027
 20
10.9381
 10
179.3332
 20
10.9003
 10
179.4665
 20
10.8656
 10
179.6029
 20
10.8341
 10
179.7422
 20
10.8057
 10
179.8844
 20
10.7804
 10
180.0296
 20
10.7583
 10
180.1778
 20
10.7392
 10
180.3289
 20
10.7233
 10
180.483
 20
10.7105
 10
180.64
 20
10.7008
 10
180.8
 20
10.6943
 10
180.963
 20
10.6909
 10
181.1171
 20
10.6904
 10
181.2544
 20
10.6913
 10
181.3918
 20
10.6932
 10
181.529
 20
10.6961
 10
181.6662
 20
10.7
 10
181.8033
 20
10.7049
 10
181.9403
 20
10.7108
 10
182.0773
 20
10.7177
 10
182.2141
 20
10.7256
 10
182.3509
 20
10.7345
 10
182.4877
 20
10.7444
 10
182.6243
 20
10.7553
 10
182.7609
 20
10.7672
 10
182.898
 20
10.7802
 10
183.0369
 20
10.7942
 10
183.1753
 20
10.8089
 10
183.3132
 20
10.8244
 10
183.4506
 20
10.8406
 10
183.5874
 20
10.8575
 10
183.7238
 20
10.8752
 10
183.8596
 20
10.8937
 10
183.9948
 20
10.9129
 10
184.1296
 20
10.9328
 10
184.2638
 20
10.9534
 10
184.3975
 20
10.9749
 10
184.5307
 20
10.997
 10
184.6302
 20
10.9747
 10
184.6459
 20
10.8384
 10
184.6616
 20
10.7021
 10
184.6773
 20
10.5658
 10
184.693
 20
10.4295
 10
184.7087
 20
10.2933
 10
184.7243
 20
10.157
 10
184.74
 20
10.0207
 10
184.7557
 20
9.8844
 10
184.7714
 20
9.7481
 10
184.7871
 20
9.6118
 10
184.8028
 20
9.4756
 10
184.8185
 20
9.3393
 10
184.8341
 20
9.203
 10
184.8498
 20
9.0667
 10
184.8655
 20
8.9304
 10
184.8812
 20
8.7941
 10
184.8969
 20
8.6579
 10
184.9126
 20
8.5216
 10
184.9282
 20
8.3853
 10
184.9439
 20
8.249
 10
184.8583
 20
8.187
 10
184.7267
 20
8.1594
 10
184.5945
 20
8.1331
 10
184.4617
 20
8.108
 10
184.3282
 20
8.0842
 10
184.1941
 20
8.0617
 10
184.0594
 20
8.0404
 10
183.924
 20
8.0204
 10
183.788
 20
8.0016
 10
183.6514
 20
7.9841
 10
183.5141
 20
7.9678
 10
183.3763
 20
7.9529
 10
183.2378
 20
7.9391
 10
183.0986
 20
7.9267
 10
182.9589
 20
7.9155
 10
182.8183
 20
7.9055
 10
182.6777
 20
7.8963
 10
182.5375
 20
7.8877
 10
182.3979
 20
7.8798
 10
182.2588
 20
7.8725
 10
182.1202
 20
7.8658
 10
181.9821
 20
7.8598
 10
181.8446
 20
7.8544
 10
181.7076
 20
7.8497
 10
181.5712
 20
7.8455
 10
181.4352
 20
7.8421
 10
181.2998
 20
7.8392
 10
181.165
 20
7.837
  0
LWPOLYLINE
  5
5A
330
17
100
AcDbEntity
  8
OUTLINE
100
AcDbPolyline
 90
366
 70
1
 10
117.3043
 20
14.3978
 10
117.3043
 20
14.1297
 10
117.3043
 20
13.8616
 10
117.3043
 20
13.5935
 10
117.3043
 20
13.3254
 10
117.3043
 20
13.0574
 10
117.3043
 20
12.7893
 10
117.3043
 20
12.5212
 10
117.3043
 20
12.2531
 10
117.3043
 20
11.985
 10
117.3043
 20
11.717
 10
117.3043
 20
11.4489
 10
117.3043
 20
11.1808
 10
117.3043
 20
10.9127
 10
117.3043
 20
10.6446
 10
117.3043
 20
10.3766
 10
117.3043
 20
10.1085
 10
117.3043
 20
9.8404
 10
117.3043
 20
9.5723
 10
117.3043
 20
9.3042
 10
117.3043
 20
9.0362
 10
117.3043
 20
8.7681
 10
117.3043
 20
8.5
 10
117.3043
 20
8.2319
 10
117.1857
 20
8.0825
 10
116.9176
 20
8.0825
 10
116.6496
 20
8.0825
 10
116.3815
 20
8.0825
 10
116.1134
 20
8.0825
 10
115.8453
 20
8.0825
 10
115.5772
 20
8.0825
 10
115.3091
 20
8.0825
 10
115.0411
 20
8.0825
 10
114.773
 20
8.0825
 10
114.5049
 20
8.0825
 10
114.2368
 20
8.0825
 10
114.2368
 20
8.3506
 10
114.2368
 20
8.6186
 10
114.2368
 20
8.8867
 10
114.2368
 20
9.1548
 10
114.2368
 20
9.4229
 10
114.2368
 20
9.691
 10
114.2368
 20
9.959
 10
114.2368
 20
10.2271
 10
114.2368
 20
10.4952
 10
114.2368
 20
10.7633
 10
114.2368
 20
11.0314
 10
114.2368
 20
11.2994
 10
114.2368
 20
11.5675
 10
114.2368
 20
11.8356
 10
114.2368
 20
12.1037
 10
114.2368
 20
12.3718
 10
114.2368
 20
12.6398
 10
114.2368
 20
12.9079
 10
114.2368
 20
13.176
 10
114.2368
 20
13.4441
 10
114.2368
 20
13.7122
 10
114.2368
 20
13.9802
 10
114.2368
 20
14.2483
 10
114.2368
 20
14.5164
 10
114.2368
 20
14.7845
 10
114.2368
 20
15.0526
 10
114.2368
 20
15.3206
 10
114.2368
 20
15.5887
 10
114.2368
 20
15.8568
 10
114.2368
 20
16.1249
 10
114.2368
 20
16.393
 10
114.2368
 20
16.661
 10
114.2368
 20
16.9291
 10
114.2368
 20
17.1972
 10
114.2368
 20
17.4653
 10
114.2368
 20
17.7334
 10
114.2368
 20
18.0014
 10
114.2368
 20
18.2695
 10
114.2368
 20
18.5376
 10
114.2368
 20
18.8057
 10
114.2368
 20
19.0738
 10
114.2368
 20
19.3419
 10
114.2368
 20
19.6099
 10
114.2368
 20
19.878
 10
114.2368
 20
20.1461
 10
114.2368
 20
20.4142
 10
114.2368
 20
20.6823
 10
114.2368
 20
20.9503
 10
114.2368
 20
21.2184
 10
114.477
 20
21.2463
 10
114.7451
 20
21.2463
 10
115.0132
 20
21.2463
 10
115.2812
 20
21.2463
 10
115.5493
 20
21.2463
 10
115.8174
 20
21.2463
 10
116.0855
 20
21.2463
 10
116.3536
 20
21.2463
 10
116.6216
 20
21.2463
 10
116.8897
 20
21.2463
 10
117.0121
 20
21.0835
 10
117.0419
 20
20.8171
 10
117.0716
 20
20.5507
 10
117.1013
 20
20.2842
 10
117.131
 20
20.0178
 10
117.1608
 20
19.7514
 10
117.1905
 20
19.485
 10
117.2202
 20
19.2185
 10
117.2499
 20
18.9521
 10
117.26
 20
18.8619
 10
117.3685
 20
18.8619
 10
117.5273
 20
18.8619
 10
117.6144
 20
18.9602
 10
117.642
 20
19.1416
 10
117.6759
 20
19.3162
 10
117.7161
 20
19.4839
 10
117.7626
 20
19.6449
 10
117.8154
 20
19.799
 10
117.8745
 20
19.9464
 10
117.9399
 20
20.087
 10
118.0116
 20
20.2207
 10
118.0896
 20
20.3477
 10
118.1739
 20
20.4678
 10
118.2645
 20
20.5812
 10
118.3614
 20
20.6878
 10
118.4646
 20
20.7875
 10
118.5701
 20
20.8773
 10
118.6764
 20
20.9567
 10
118.7891
 20
21.0306
 10
118.9082
 20
21.0991
 10
119.0337
 20
21.1621
 10
119.1656
 20
21.2196
 10
119.3039
 20
21.2717
 10
119.4486
 20
21.3183
 10
119.5997
 20
21.3595
 10
119.7571
 20
21.3952
 10
119.921
 20
21.4254
 10
120.0913
 20
21.4502
 10
120.2679
 20
21.4695
 10
120.451
 20
21.4834
 10
120.6404
 20
21.4917
 10
120.8362
 20
21.4947
 10
121.0203
 20
21.4924
 10
121.2001
 20
21.4851
 10
121.3762
 20
21.4728
 10
121.5486
 20
21.4555
 10
121.7172
 20
21.4332
 10
121.8822
 20
21.4059
 10
122.0434
 20
21.3736
 10
122.2009
 20
21.3364
 10
122.3547
 20
21.2941
 10
122.5047
 20
21.2468
 10
122.651
 20
21.1946
 10
122.7936
 20
21.1373
 10
122.9325
 20
21.0751
 10
123.0677
 20
21.0079
 10
123.1991
 20
20.9356
 10
123.3268
 20
20.8584
 10
123.4508
 20
20.7762
 10
123.5711
 20
20.689
 10
123.6877
 20
20.5968
 10
123.8005
 20
20.4996
 10
123.9096
 20
20.3974
 10
124.015
 20
20.2902
 10
124.1136
 20
20.1816
 10
124.2044
 20
20.0735
 10
124.2913
 20
19.9618
 10
124.3743
 20
19.8466
 10
124.4534
 20
19.7278
 10
124.5285
 20
19.6054
 10
124.5998
 20
19.4795
 10
124.6672
 20
19.35
 10
124.7306
 20
19.2169
 10
124.7902
 20
19.0803
 10
124.8458
 20
18.9401
 10
124.8976
 20
18.7963
 10
124.9454
 20
18.649
 10
124.9893
 20
18.4981
 10
125.0294
 20
18.3437
 10
125.0655
 20
18.1856
 10
125.0977
 20
18.024
 10
125.126
 20
17.8589
 10
125.1504
 20
17.6901
 10
125.1709
 20
17.5179
 10
125.1875
 20
17.342
 10
125.2002
 20
17.1626
 10
125.2089
 20
16.9796
 10
125.2138
 20
16.793
 10
125.2149
 20
16.6112
 10
125.2149
 20
16.4523
 10
125.2149
 20
16.2935
 10
125.2149
 20
16.1346
 10
125.2149
 20
15.9758
 10
125.2149
 20
15.8169
 10
125.2149
 20
15.6581
 10
125.2149
 20
15.4992
 10
125.2149
 20
15.3404
 10
125.2149
 20
15.1815
 10
125.2149
 20
15.0227
 10
125.2149
 20
14.8638
 10
125.2149
 20
14.705
 10
125.2149
 20
14.5461
 10
125.2149
 20
14.3873
 10
125.2149
 20
14.2284
 10
125.2149
 20
14.0696
 10
125.2149
 20
13.9107
 10
125.2149
 20
13.7519
 10
125.2149
 20
13.593
 10
125.2149
 20
13.4342
 10
125.2149
 20
13.2753
 10
125.2149
 20
13.1165
 10
125.2149
 20
12.9576
 10
125.2149
 20
12.7988
 10
125.2149
 20
12.64
 10
125.2149
 20
12.4811
 10
125.2149
 20
12.3223
 10
125.2149
 20
12.1634
 10
125.2149
 20
12.0046
 10
125.2149
 20
11.8457
 10
125.2149
 20
11.6869
 10
125.2149
 20
11.528
 10
125.2149
 20
11.3692
 10
125.2149
 20
11.2103
 10
125.2149
 20
11.0515
 10
125.2149
 20
10.8926
 10
125.2149
 20
10.7338
 10
125.2149
 20
10.5749
 10
125.2149
 20
10.4161
 10
125.2149
 20
10.2572
 10
125.2149
 20
10.0984
 10
125.2149
 20
9.9395
 10
125.2149
 20
9.7807
 10
125.2149
 20
9.6218
 10
125.2149
 20
9.463
 10
125.2149
 20
9.3041
 10
125.2149
 20
9.1453
 10
125.2149
 20
8.9864
 10
125.2149
 20
8.8276
 10
125.2149
 20
8.6688
 10
125.2149
 20
8.5099
 10
125.2149
 20
8.3511
 10
125.2149
 20
8.1922
 10
125.1658
 20
8.0825
 10
125.0069
 20
8.0825
 10
124.8481
 20
8.0825
 10
124.6892
 20
8.0825
 10
124.5304
 20
8.0825
 10
124.3715
 20
8.0825
 10
124.2127
 20
8.0825
 10
124.0538
 20
8.0825
 10
123.895
 20
8.0825
 10
123.7361
 20
8.0825
 10
123.5773
 20
8.0825
 10
123.4184
 20
8.0825
 10
123.2596
 20
8.0825
 10
123.1007
 20
8.0825
 10
122.9419
 20
8.0825
 10
122.7831
 20
8.0825
 10
122.6242
 20
8.0825
 10
122.4654
 20
8.0825
 10
122.3065
 20
8.0825
 10
122.1477
 20
8.0825
 10
122.1477
 20
8.2413
 10
122.1477
 20
8.4002
 10
122.1477
 20
8.559
 10
122.1477
 20
8.7179
 10
122.1477
 20
8.8767
 10
122.1477
 20
9.0356
 10
122.1477
 20
9.1944
 10
122.1477
 20
9.3533
 10
122.1477
 20
9.5121
 10
122.1477
 20
9.671
 10
122.1477
 20
9.8298
 10
122.1477
 20
9.9887
 10
122.1477
 20
10.1475
 10
122.1477
 20
10.3063
 10
122.1477
 20
10.4652
 10
122.1477
 20
10.624
 10
122.1477
 20
10.7829
 10
122.1477
 20
10.9417
 10
122.1477
 20
11.1006
 10
122.1477
 20
11.2594
 10
122.1477
 20
11.4183
 10
122.1477
 20
11.5771
 10
122.1477
 20
11.736
 10
122.1477
 20
11.8948
 10
122.1477
 20
12.0537
 10
122.1477
 20
12.2125
 10
122.1477
 20
12.3714
 10
122.1477
 20
12.5302
 10
122.1477
 20
12.6891
 10
122.1477
 20
12.8479
 10
122.1477
 20
13.0068
 10
122.1477
 20
13.1656
 10
122.1477
 20
13.3245
 10
122.1477
 20
13.4833
 10
122.1477
 20
13.6422
 10
122.1477
 20
13.801
 10
122.1477
 20
13.9599
 10
122.1477
 20
14.1187
 10
122.1477
 20
14.2775
 10
122.1477
 20
14.4364
 10
122.1477
 20
14.5952
 10
122.1477
 20
14.7541
 10
122.1477
 20
14.9129
 10
122.1477
 20
15.0718
 10
122.1477
 20
15.2306
 10
122.1477
 20
15.3895
 10
122.1477
 20
15.5483
 10
122.1477
 20
15.7072
 10
122.1477
 20
15.866
 10
122.1477
 20
16.0249
 10
122.1475
 20
16.1899
 10
122.1426
 20
16.3785
 10
122.1305
 20
16.5599
 10
122.1112
 20
16.734
 10
122.0847
 20
16.901
 10
122.051
 20
17.0608
 10
122.0101
 20
17.2133
 10
121.962
 20
17.3587
 10
121.9067
 20
17.4969
 10
121.8443
 20
17.6279
 10
121.7746
 20
17.7517
 10
121.6977
 20
17.8683
 10
121.6136
 20
17.9777
 10
121.512
 20
18.0905
 10
121.4012
 20
18.1944
 10
121.2829
 20
18.2874
 10
121.1569
 20
18.3695
 10
121.0235
 20
18.4406
 10
120.8824
 20
18.5009
 10
120.7338
 20
18.5502
 10
120.5777
 20
18.5886
 10
120.414
 20
18.616
 10
120.2427
 20
18.6326
 10
120.0639
 20
18.6382
 10
119.8984
 20
18.6349
 10
119.7382
 20
18.6249
 10
119.5831
 20
18.6081
 10
119.4331
 20
18.5845
 10
119.2883
 20
18.5542
 10
119.1485
 20
18.5171
 10
119.0138
 20
18.4733
 10
118.8843
 20
18.4227
 10
118.7598
 20
18.3653
 10
118.6405
 20
18.3012
 10
118.5262
 20
18.2303
 10
118.4171
 20
18.1526
 10
118.3131
 20
18.0682
 10
118.2141
 20
17.9771
 10
118.1203
 20
17.8792
 10
118.0316
 20
17.7745
 10
117.948
 20
17.663
 10
117.8695
 20
17.5448
 10
117.7961
 20
17.4199
 10
117.7278
 20
17.2881
 10
117.6646
 20
17.1497
 10
117.6065
 20
17.0044
 10
117.5535
 20
16.8524
 10
117.5056
 20
16.6936
 10
117.4628
 20
16.5281
 10
117.4252
 20
16.3558
 10
117.3926
 20
16.1768
 10
117.3651
 20
15.991
 10
117.3428
 20
15.7984
 10
117.3255
 20
15.5991
 10
117.3134
 20
15.393
 10
117.3063
 20
15.1801
 10
117.3043
 20
15.1197
 10
117.3043
 20
14.9339
 10
117.3043
 20
14.6658
  0
LWPOLYLINE
  5
5B
330
17
100
AcDbEntity
  8
OUTLINE
100
AcDbPolyline
 90
648
 70
1
 10
134.3164
 20
7.837
 10
134.1689
 20
7.8348
 10
134.0198
 20
7.8341
 10
133.8954
 20
7.8346
 10
133.7714
 20
7.8358
 10
133.6479
 20
7.838
 10
133.5248
 20
7.841
 10
133.4022
 20
7.8448
 10
133.28
 20
7.8495
 10
133.1583
 20
7.8551
 10
133.0371
 20
7.8615
 10
132.9162
 20
7.8687
 10
132.7959
 20
7.8768
 10
132.6759
 20
7.8858
 10
132.5565
 20
7.8956
 10
132.4374
 20
7.9063
 10
132.3188
 20
7.9178
 10
132.2007
 20
7.9302
 10
132.083
 20
7.9435
 10
131.9658
 20
7.9576
 10
131.849
 20
7.9725
 10
131.7327
 20
7.9883
 10
131.6168
 20
8.005
 10
131.5014
 20
8.0225
 10
131.3864
 20
8.0408
 10
131.2718
 20
8.0601
 10
131.1578
 20
8.0801
 10
131.033
 20
8.1032
 10
130.9079
 20
8.1274
 10
130.7838
 20
8.1526
 10
130.6609
 20
8.1787
 10
130.539
 20
8.2058
 10
130.4182
 20
8.2339
 10
130.2985
 20
8.2629
 10
130.1799
 20
8.2928
 10
130.0623
 20
8.3237
 10
129.9459
 20
8.3556
 10
129.8305
 20
8.3884
 10
129.7163
 20
8.4222
 10
129.6031
 20
8.4569
 10
129.4909
 20
8.4925
 10
129.3799
 20
8.5292
 10
129.27
 20
8.5667
 10
129.1611
 20
8.6052
 10
129.0534
 20
8.6447
 10
128.9467
 20
8.6852
 10
128.8411
 20
8.7265
 10
128.7366
 20
8.7689
 10
128.6584
 20
8.8282
 10
128.6741
 20
8.947
 10
128.6897
 20
9.0658
 10
128.7053
 20
9.1846
 10
128.721
 20
9.3034
 10
128.7366
 20
9.4222
 10
128.7523
 20
9.541
 10
128.7679
 20
9.6598
 10
128.7836
 20
9.7786
 10
128.7992
 20
9.8974
 10
128.8149
 20
10.0162
 10
128.8305
 20
10.135
 10
128.8462
 20
10.2538
 10
128.8618
 20
10.3726
 10
128.8774
 20
10.4914
 10
128.8931
 20
10.6102
 10
128.9087
 20
10.729
 10
128.9244
 20
10.8478
 10
128.94
 20
10.9666
 10
128.9557
 20
11.0854
 10
128.9713
 20
11.2043
 10
128.987
 20
11.3231
 10
129.0026
 20
11.4419
 10
129.0182
 20
11.5607
 10
129.0339
 20
11.6795
 10
129.0495
 20
11.7983
 10
129.1466
 20
11.7805
 10
129.2621
 20
11.7324
 10
129.3774
 20
11.6852
 10
129.4925
 20
11.6391
 10
129.6075
 20
11.594
 10
129.7222
 20
11.5499
 10
129.8368
 20
11.5068
 10
129.9512
 20
11.4646
 10
130.0655
 20
11.4235
 10
130.1795
 20
11.3834
 10
130.2934
 20
11.3443
 10
130.4071
 20
11.3062
 10
130.5206
 20
11.2691
 10
130.634
 20
11.233
 10
130.7471
 20
11.1979
 10
130.8601
 20
11.1638
 10
130.9729
 20
11.1308
 10
131.0855
 20
11.0987
 10
131.198
 20
11.0676
 10
131.3103
 20
11.0375
 10
131.4223
 20
11.0084
 10
131.5342
 20
10.9804
 10
131.646
 20
10.9533
 10
131.7604
 20
10.9266
 10
131.8858
 20
10.8985
 10
132.0104
 20
10.8718
 10
132.1344
 20
10.8465
 10
132.2577
 20
10.8225
 10
132.3803
 20
10.8
 10
132.5022
 20
10.7789
 10
132.6234
 20
10.7591
 10
132.744
 20
10.7407
 10
132.8639
 20
10.7238
 10
132.9831
 20
10.7082
 10
133.1016
 20
10.694
 10
133.2195
 20
10.6812
 10
133.3366
 20
10.6697
 10
133.4531
 20
10.6597
 10
133.5689
 20
10.6511
 10
133.684
 20
10.6438
 10
133.7985
 20
10.6379
 10
133.9122
 20
10.6335
 10
134.0253
 20
10.6304
 10
134.1377
 20
10.6287
 10
134.2605
 20
10.6284
 10
134.4097
 20
10.6306
 10
134.555
 20
10.6354
 10
134.6965
 20
10.6431
 10
134.8343
 20
10.6534
 10
134.9683
 20
10.6666
 10
135.0985
 20
10.6824
 10
135.2249
 20
10.7011
 10
135.3476
 20
10.7224
 10
135.4664
 20
10.7465
 10
135.5815
 20
10.7734
 10
135.6928
 20
10.803
 10
135.8003
 20
10.8354
 10
135.904
 20
10.8705
 10
136.0039
 20
10.9083
 10
136.1001
 20
10.9489
 10
136.1925
 20
10.9923
 10
136.2811
 20
11.0384
 10
136.3659
 20
11.0872
 10
136.4469
 20
11.1388
 10
136.5395
 20
11.2046
 10
136.6333
 20
11.2799
 10
136.7202
 20
11.3597
 10
136.8004
 20
11.4437
 10
136.8739
 20
11.5321
 10
136.9405
 20
11.6249
 10
137.0004
 20
11.722
 10
137.0536
 20
11.8234
 10
137.0999
 20
11.9292
 10
137.1395
 20
12.0394
 10
137.1723
 20
12.1538
 10
137.1984
 20
12.2727
 10
137.2177
 20
12.3958
 10
137.2302
 20
12.5233
 10
137.2359
 20
12.6552
 10
137.235
 20
12.7788
 10
137.2281
 20
12.8943
 10
137.2152
 20
13.0073
 10
137.1962
 20
13.1179
 10
137.1712
 20
13.2259
 10
137.1402
 20
13.3313
 10
137.1032
 20
13.4343
 10
137.0601
 20
13.5348
 10
137.0111
 20
13.6327
 10
136.956
 20
13.7281
 10
136.8949
 20
13.821
 10
136.8278
 20
13.9114
 10
136.7546
 20
13.9993
 10
136.6755
 20
14.0847
 10
136.5903
 20
14.1675
 10
136.4991
 20
14.2478
 10
136.4019
 20
14.3257
 10
136.2987
 20
14.401
 10
136.1894
 20
14.4738
 10
136.0741
 20
14.544
 10
135.9528
 20
14.6118
 10
135.8255
 20
14.677
 10
135.6981
 20
14.7376
 10
135.5898
 20
14.789
 10
135.4816
 20
14.8404
 10
135.3734
 20
14.8918
 10
135.2651
 20
14.9432
 10
135.1569
 20
14.9946
 10
135.0487
 20
15.0461
 10
134.9404
 20
15.0975
 10
134.8322
 20
15.1489
 10
134.7239
 20
15.2003
 10
134.6157
 20
15.2517
 10
134.5075
 20
15.3032
 10
134.3992
 20
15.3546
 10
134.291
 20
15.406
 10
134.1828
 20
15.4574
 10
134.0745
 20
15.5088
 10
133.9663
 20
15.5602
 10
133.858
 20
15.6117
 10
133.7498
 20
15.6631
 10
133.6416
 20
15.7145
 10
133.5333
 20
15.7659
 10
133.4251
 20
15.8173
 10
133.3169
 20
15.8688
 10
133.2086
 20
15.9202
 10
133.1004
 20
15.9716
 10
132.9921
 20
16.023
 10
132.8718
 20
16.0803
 10
132.7513
 20
16.1393
 10
132.6326
 20
16.1993
 10
132.5158
 20
16.2602
 10
132.4009
 20
16.322
 10
132.2879
 20
16.3847
 10
132.1767
 20
16.4483
 10
132.0674
 20
16.5128
 10
131.9601
 20
16.5783
 10
131.8546
 20
16.6446
 10
131.751
 20
16.7118
 10
131.6492
 20
16.78
 10
131.5494
 20
16.849
 10
131.4514
 20
16.919
 10
131.3553
 20
16.9898
 10
131.2611
 20
17.0616
 10
131.1688
 20
17.1343
 10
131.0784
 20
17.2079
 10
130.9899
 20
17.2824
 10
130.9032
 20
17.3578
 10
130.8184
 20
17.4341
 10
130.7355
 20
17.5113
 10
130.6545
 20
17.5894
 10
130.5754
 20
17.6684
 10
130.4981
 20
17.7484
 10
130.4228
 20
17.8292
 10
130.3493
 20
17.911
 10
130.2777
 20
17.9936
 10
130.208
 20
18.0772
 10
130.1402
 20
18.1616
 10
130.0672
 20
18.2564
 10
129.9953
 20
18.3545
 10
129.9263
 20
18.4538
 10
129.8601
 20
18.5542
 10
129.7968
 20
18.6556
 10
129.7363
 20
18.7582
 10
129.6787
 20
18.8619
 10
129.6239
 20
18.9667
 10
129.572
 20
19.0725
 10
129.523
 20
19.1795
 10
129.4768
 20
19.2876
 10
129.4335
 20
19.3968
 10
129.3931
 20
19.5071
 10
129.3555
 20
19.6184
 10
129.3207
 20
19.7309
 10
129.2889
 20
19.8445
 10
129.2598
 20
19.9592
 10
129.2337
 20
20.075
 10
129.2104
 20
20.1919
 10
129.19
 20
20.3099
 10
129.1724
 20
20.4289
 10
129.1577
 20
20.5491
 10
129.1458
 20
20.6704
 10
129.1368
 20
20.7928
 10
129.1307
 20
20.9163
 10
129.1274
 20
21.0409
 10
129.127
 20
21.1709
 10
129.1292
 20
21.3078
 10
129.1341
 20
21.4428
 10
129.1417
 20
21.5759
 10
129.1519
 20
21.7072
 10
129.1647
 20
21.8365
 10
129.1802
 20
21.964
 10
129.1983
 20
22.0897
 10
129.2191
 20
22.2134
 10
129.2425
 20
22.3353
 10
129.2686
 20
22.4553
 10
129.2973
 20
22.5735
 10
129.3286
 20
22.6897
 10
129.3626
 20
22.8041
 10
129.3992
 20
22.9166
 10
129.4385
 20
23.0272
 10
129.4805
 20
23.136
 10
129.525
 20
23.2429
 10
129.5723
 20
23.3479
 10
129.6221
 20
23.451
 10
129.6746
 20
23.5523
 10
129.7298
 20
23.6517
 10
129.7876
 20
23.7492
 10
129.848
 20
23.8448
 10
129.9111
 20
23.9386
 10
129.9768
 20
24.0305
 10
130.0452
 20
24.1205
 10
130.1162
 20
24.2086
 10
130.1899
 20
24.2949
 10
130.2662
 20
24.3793
 10
130.3451
 20
24.4618
 10
130.4267
 20
24.5425
 10
130.511
 20
24.6212
 10
130.5979
 20
24.6981
 10
130.6781
 20
24.7655
 10
130.76
 20
24.831
 10
130.8437
 20
24.8947
 10
130.9292
 20
24.9565
 10
131.0164
 20
25.0165
 10
131.1055
 20
25.0746
 10
131.1963
 20
25.1309
 10
131.2889
 20
25.1854
 10
131.3832
 20
25.238
 10
131.4793
 20
25.2888
 10
131.5772
 20
25.3377
 10
131.6769
 20
25.3848
 10
131.7784
 20
25.4301
 10
131.8816
 20
25.4736
 10
131.9866
 20
25.5152
 10
132.0934
 20
25.5549
 10
132.2019
 20
25.5928
 10
132.3123
 20
25.6289
 10
132.4244
 20
25.6632
 10
132.5382
 20
25.6956
 10
132.6539
 20
25.7262
 10
132.7713
 20
25.7549
 10
132.8905
 20
25.7818
 10
133.0115
 20
25.8068
 10
133.1343
 20
25.8301
 10
133.2588
 20
25.8514
 10
133.3851
 20
25.871
 10
133.5132
 20
25.8887
 10
133.643
 20
25.9045
 10
133.7746
 20
25.9186
 10
133.908
 20
25.9308
 10
134.0432
 20
25.9411
 10
134.1802
 20
25.9496
 10
134.3189
 20
25.9563
 10
134.4594
 20
25.9611
 10
134.6017
 20
25.9641
 10
134.7457
 20
25.9653
 10
134.8752
 20
25.9647
 10
135.0015
 20
25.9626
 10
135.1271
 20
25.9589
 10
135.2519
 20
25.9536
 10
135.3759
 20
25.9467
 10
135.4992
 20
25.9383
 10
135.6218
 20
25.9283
 10
135.7436
 20
25.9167
 10
135.8646
 20
25.9035
 10
135.9848
 20
25.8888
 10
136.1043
 20
25.8725
 10
136.2231
 20
25.8547
 10
136.3411
 20
25.8352
 10
136.4583
 20
25.8142
 10
136.5747
 20
25.7917
 10
136.6904
 20
25.7675
 10
136.8054
 20
25.7418
 10
136.9196
 20
25.7145
 10
137.033
 20
25.6857
 10
137.1457
 20
25.6552
 10
137.2576
 20
25.6232
 10
137.3687
 20
25.5896
 10
137.4791
 20
25.5545
 10
137.5887
 20
25.5178
 10
137.6976
 20
25.4795
 10
137.8057
 20
25.4396
 10
137.9138
 20
25.3979
 10
138.0227
 20
25.3539
 10
138.1309
 20
25.3083
 10
138.2384
 20
25.2609
 10
138.3452
 20
25.2119
 10
138.4512
 20
25.1612
 10
138.5565
 20
25.1089
 10
138.6612
 20
25.0548
 10
138.765
 20
24.9991
 10
138.8682
 20
24.9417
 10
138.9707
 20
24.8827
 10
139.0724
 20
24.8219
 10
139.1734
 20
24.7595
 10
139.2737
 20
24.6954
 10
139.3733
 20
24.6296
 10
139.4721
 20
24.5621
 10
139.5703
 20
24.493
 10
139.6677
 20
24.4222
 10
139.7644
 20
24.3497
 10
139.8604
 20
24.2756
 10
139.9557
 20
24.1997
 10
140.0502
 20
24.1222
 10
140.144
 20
24.043
 10
140.2372
 20
23.9622
 10
140.3295
 20
23.8796
 10
140.4212
 20
23.7954
 10
140.4468
 20
23.7086
 10
140.3663
 20
23.6198
 10
140.2858
 20
23.5311
 10
140.2054
 20
23.4423
 10
140.1249
 20
23.3535
 10
140.0444
 20
23.2647
 10
139.9639
 20
23.1759
 10
139.8834
 20
23.0872
 10
139.8029
 20
22.9984
 10
139.7224
 20
22.9096
 10
139.6419
 20
22.8208
 10
139.5615
 20
22.7321
 10
139.481
 20
22.6433
 10
139.4005
 20
22.5545
 10
139.32
 20
22.4657
 10
139.2395
 20
22.377
 10
139.159
 20
22.2882
 10
139.0785
 20
22.1994
 10
138.998
 20
22.1106
 10
138.9176
 20
22.0219
 10
138.8371
 20
21.9331
 10
138.7566
 20
21.8443
 10
138.6761
 20
21.7555
 10
138.5956
 20
21.6668
 10
138.5151
 20
21.578
 10
138.4346
 20
21.4892
 10
138.3349
 20
21.564
 10
138.2339
 20
21.6503
 10
138.1332
 20
21.7342
 10
138.0328
 20
21.8158
 10
137.9327
 20
21.8951
 10
137.833
 20
21.972
 10
137.7335
 20
22.0466
 10
137.6344
 20
22.1188
 10
137.5355
 20
22.1887
 10
137.437
 20
22.2562
 10
137.3388
 20
22.3214
 10
137.2409
 20
22.3843
 10
137.1434
 20
22.4448
 10
137.0461
 20
22.503
 10
136.9491
 20
22.5588
 10
136.8525
 20
22.6123
 10
136.7562
 20
22.6635
 10
136.6602
 20
22.7123
 10
136.5629
 20
22.7595
 10
136.4469
 20
22.8126
 10
136.331
 20
22.8622
 10
136.2152
 20
22.9082
 10
136.0994
 20
22.9506
 10
135.9836
 20
22.9895
 10
135.8679
 20
23.0249
 10
135.7523
 20
23.0567
 10
135.6367
 20
23.0849
 10
135.5212
 20
23.1096
 10
135.4057
 20
23.1308
 10
135.2902
 20
23.1483
 10
135.1748
 20
23.1624
 10
135.0595
 20
23.1728
 10
134.9442
 20
23.1798
 10
134.829
 20
23.1831
 10
134.6977
 20
23.1829
 10
134.5567
 20
23.1786
 10
134.4198
 20
23.1702
 10
134.2868
 20
23.1577
 10
134.1579
 20
23.1411
 10
134.0331
 20
23.1205
 10
133.9122
 20
23.0958
 10
133.7955
 20
23.067
 10
133.6827
 20
23.0341
 10
133.574
 20
22.9971
 10
133.4693
 20
22.956
 10
133.3687
 20
22.9109
 10
133.2721
 20
22.8616
 10
133.1796
 20
22.8083
 10
133.0911
 20
22.7509
 10
133.0066
 20
22.6894
 10
132.9219
 20
22.6201
 10
132.8382
 20
22.5422
 10
132.7608
 20
22.4596
 10
132.6896
 20
22.3725
 10
132.6246
 20
22.2807
 10
132.5659
 20
22.1843
 10
132.5134
 20
22.0833
 10
132.4672
 20
21.9777
 10
132.4272
 20
21.8674
 10
132.3935
 20
21.7525
 10
132.366
 20
21.633
 10
132.3447
 20
21.5089
 10
132.3297
 20
21.3802
 10
132.3209
 20
21.2468
 10
132.3184
 20
21.1102
 10
132.3226
 20
20.9864
 10
132.3341
 20
20.8652
 10
132.3527
 20
20.7468
 10
132.3785
 20
20.6312
 10
132.4115
 20
20.5182
 10
132.4516
 20
20.408
 10
132.4989
 20
20.3005
 10
132.5534
 20
20.1958
 10
132.6151
 20
20.0937
 10
132.684
 20
19.9944
 10
132.7599
 20
19.898
 10
132.8282
 20
19.8195
 10
132.9009
 20
19.7422
 10
132.978
 20
19.666
 10
133.0595
 20
19.5911
 10
133.1454
 20
19.5173
 10
133.2357
 20
19.4448
 10
133.3303
 20
19.3734
 10
133.4294
 20
19.3032
 10
133.5329
 20
19.2342
 10
133.6407
 20
19.1664
 10
133.753
 20
19.0998
 10
133.8696
 20
19.0343
 10
133.9907
 20
18.9701
 10
134.1035
 20
18.9133
 10
134.2108
 20
18.86
 10
134.3181
 20
18.8066
 10
134.4254
 20
18.7532
 10
134.5327
 20
18.6998
 10
134.64
 20
18.6465
 10
134.7473
 20
18.5931
 10
134.8546
 20
18.5397
 10
134.9619
 20
18.4864
 10
135.0691
 20
18.433
 10
135.1764
 20
18.3796
 10
135.2837
 20
18.3263
 10
135.391
 20
18.2729
 10
135.4983
 20
18.2195
 10
135.6056
 20
18.1661
 10
135.7129
 20
18.1128
 10
135.8202
 20
18.0594
 10
135.9275
 20
18.006
 10
136.0347
 20
17.9527
 10
136.142
 20
17.8993
 10
136.2493
 20
17.8459
 10
136.3566
 20
17.7926
 10
136.4639
 20
17.7392
 10
136.5815
 20
17.6804
 10
136.7036
 20
17.618
 10
136.8239
 20
17.5549
 10
136.9422
 20
17.4912
 10
137.0586
 20
17.4269
 10
137.1731
 20
17.362
 10
137.2858
 20
17.2964
 10
137.3965
 20
17.2302
 10
137.5053
 20
17.1634
 10
137.6122
 20
17.096
 10
137.7173
 20
17.0279
 10
137.8204
 20
16.9592
 10
137.9216
 20
16.8899
 10
138.021
 20
16.82
 10
138.1184
 20
16.7494
 10
138.2139
 20
16.6783
 10
138.3076
 20
16.6065
 10
138.3993
 20
16.534
 10
138.4891
 20
16.461
 10
138.577
 20
16.3873
 10
138.6631
 20
16.313
 10
138.7472
 20
16.2381
 10
138.8294
 20
16.1626
 10
138.9098
 20
16.0864
 10
138.9882
 20
16.0096
 10
139.0648
 20
15.9322
 10
139.1394
 20
15.8542
 10
139.2121
 20
15.7755
 10
139.283
 20
15.6962
 10
139.3519
 20
15.6163
 10
139.4195
 20
15.535
 10
139.4964
 20
15.4385
 10
139.5703
 20
15.3408
 10
139.6411
 20
15.242
 10
139.7088
 20
15.1421
 10
139.7735
 20
15.041
 10
139.8352
 20
14.9387
 10
139.8938
 20
14.8353
 10
139.9493
 20
14.7308
 10
140.0018
 20
14.6252
 10
140.0513
 20
14.5184
 10
140.0977
 20
14.4104
 10
140.141
 20
14.3013
 10
140.1813
 20
14.1911
 10
140.2186
 20
14.0797
 10
140.2528
 20
13.9672
 10
140.2839
 20
13.8536
 10
140.312
 20
13.7388
 10
140.3371
 20
13.6228
 10
140.3591
 20
13.5058
 10
140.378
 20
13.3875
 10
140.3939
 20
13.2682
 10
140.4068
 20
13.1477
 10
140.4166
 20
13.026
 10
140.4234
 20
12.9033
 10
140.4271
 20
12.7793
 10
140.4278
 20
12.6508
 10
140.4256
 20
12.5144
 10
140.4207
 20
12.3799
 10
140.413
 20
12.2473
 10
140.4025
 20
12.1166
 10
140.3893
 20
11.9878
 10
140.3734
 20
11.8609
 10
140.3546
 20
11.7359
 10
140.3332
 20
11.6129
 10
140.3089
 20
11.4917
 10
140.2819
 20
11.3725
 10
140.2521
 20
11.2551
 10
140.2196
 20
11.1397
 10
140.1843
 20
11.0262
 10
140.1462
 20
10.9146
 10
140.1054
 20
10.8049
 10
140.0618
 20
10.6972
 10
140.0155
 20
10.5913
 10
139.9664
 20
10.4873
 10
139.9145
 20
10.3853
 10
139.8599
 20
10.2851
 10
139.8025
 20
10.1869
 10
139.7424
 20
10.0906
 10
139.6795
 20
9.9962
 10
139.6138
 20
9.9037
 10
139.5454
 20
9.8131
 10
139.4742
 20
9.7244
 10
139.4003
 20
9.6377
 10
139.3236
 20
9.5528
 10
139.2441
 20
9.4699
 10
139.1619
 20
9.3889
 10
139.0769
 20
9.3097
 10
138.9891
 20
9.2325
 10
138.8986
 20
9.1572
 10
138.8053
 20
9.0838
 10
138.7248
 20
9.0237
 10
138.6444
 20
8.9663
 10
138.5624
 20
8.9104
 10
138.4785
 20
8.856
 10
138.393
 20
8.8029
 10
138.3058
 20
8.7512
 10
138.2168
 20
8.701
 10
138.1261
 20
8.6522
 10
138.0337
 20
8.6047
 10
137.9396
 20
8.5587
 10
137.8438
 20
8.5142
 10
137.7462
 20
8.471
 10
137.6469
 20
8.4292
 10
137.5459
 20
8.3889
 10
137.4432
 20
8.35
 10
137.3387
 20
8.3125
 10
137.2326
 20
8.2764
 10
137.1247
 20
8.2417
 10
137.0151
 20
8.2085
 10
136.9038
 20
8.1766
 10
136.7908
 20
8.1462
 10
136.676
 20
8.1172
 10
136.5595
 20
8.0896
 10
136.4413
 20
8.0634
 10
136.3214
 20
8.0386
 10
136.1998
 20
8.0153
 10
136.0764
 20
7.9933
 10
135.9514
 20
7.9728
 10
135.8246
 20
7.9537
 10
135.696
 20
7.936
 10
135.5658
 20
7.9197
 10
135.4339
 20
7.9049
 10
135.3002
 20
7.8914
 10
135.1648
 20
7.8794
 10
135.0277
 20
7.8688
 10
134.8889
 20
7.8596
 10
134.7483
 20
7.8518
 10
134.6061
 20
7.8454
 10
134.4621
 20
7.8405
  0
ENDSEC
  0
SECTION
  2
OBJECTS
  0
DICTIONARY
  5
A
330
0
100
AcDbDictionary
281
1
  3
ACAD_COLOR
350
B
  3
ACAD_GROUP
350
C
  3
ACAD_LAYOUT
350
D
  3
ACAD_MATERIAL
350
E
  3
ACAD_MLEADERSTYLE
350
F
  3
ACAD_MLINESTYLE
350
10
  3
ACAD_PLOTSETTINGS
350
11
  3
ACAD_PLOTSTYLENAME
350
12
  3
ACAD_SCALELIST
350
14
  3
ACAD_TABLESTYLE
350
15
  3
ACAD_VISUALSTYLE
350
16
  3
EZDXF_META
350
2D
  0
DICTIONARY
  5
B
330
A
100
AcDbDictionary
281
1
  0
DICTIONARY
  5
C
330
A
100
AcDbDictionary
281
1
  0
DICTIONARY
  5
D
330
A
100
AcDbDictionary
281
1
  3
Model
350
1A
  3
Layout1
350
1E
  0
DICTIONARY
  5
E
330
A
100
AcDbDictionary
281
1
  3
ByBlock
350
1F
  3
ByLayer
350
20
  3
Global
350
21
  0
DICTIONARY
  5
F
330
A
100
AcDbDictionary
281
1
  3
Standard
350
2C
  0
DICTIONARY
  5
10
330
A
100
AcDbDictionary
281
1
  3
Standard
350
22
  0
DICTIONARY
  5
11
330
A
100
AcDbDictionary
281
1
  0
ACDBDICTIONARYWDFLT
  5
12
330
A
100
AcDbDictionary
281
1
  3
Normal
350
13
100
AcDbDictionaryWithDefault
340
13
  0
ACDBPLACEHOLDER
  5
13
330
12
  0
DICTIONARY
  5
14
330
A
100
AcDbDictionary
281
1
  0
DICTIONARY
  5
15
330
A
100
AcDbDictionary
281
1
  0
DICTIONARY
  5
16
330
A
100
AcDbDictionary
281
1
  0
LAYOUT
  5
1A
330
D
100
AcDbPlotSettings
  1

  4
A3
  6

 40
7.5
 41
20.0
 42
7.5
 43
20.0
 44
420.0
 45
297.0
 46
0.0
 47
0.0
 48
0.0
 49
0.0
140
0.0
141
0.0
142
1.0
143
1.0
 70
1024
 72
1
 73
0
 74
5
  7

 75
16
 76
0
 77
2
 78
300
147
1.0
148
0.0
149
0.0
100
AcDbLayout
  1
Model
 70
1
 71
0
 10
0.0
 20
0.0
 11
420.0
 21
297.0
 12
0.0
 22
0.0
 32
0.0
 14
1e+20
 24
1e+20
 34
1e+20
 15
-1e+20
 25
-1e+20
 35
-1e+20
146
0.0
 13
0.0
 23
0.0
 33
0.0
 16
1.0
 26
0.0
 36
0.0
 17
0.0
 27
1.0
 37
0.0
 76
1
330
17
  0
LAYOUT
  5
1E
330
D
100
AcDbPlotSettings
  1

  4
A3
  6

 40
7.5
 41
20.0
 42
7.5
 43
20.0
 44
420.0
 45
297.0
 46
0.0
 47
0.0
 48
0.0
 49
0.0
140
0.0
141
0.0
142
1.0
143
1.0
 70
0
 72
1
 73
0
 74
5
  7

 75
16
 76
0
 77
2
 78
300
147
1.0
148
0.0
149
0.0
100
AcDbLayout
  1
Layout1
 70
1
 71
1
 10
0.0
 20
0.0
 11
420.0
 21
297.0
 12
0.0
 22
0.0
 32
0.0
 14
1e+20
 24
1e+20
 34
1e+20
 15
-1e+20
 25
-1e+20
 35
-1e+20
146
0.0
 13
0.0
 23
0.0
 33
0.0
 16
1.0
 26
0.0
 36
0.0
 17
0.0
 27
1.0
 37
0.0
 76
1
330
1B
  0
MATERIAL
  5
1F
102
{ACAD_REACTORS
330
E
102
}
330
E
100
AcDbMaterial
  1
ByBlock
  2

 70
0
 40
1.0
 71
1
 41
1.0
 91
-1023410177
 42
1.0
 72
1
  3

 73
1
 74
1
 75
1
 44
0.5
 73
0
 45
1.0
 46
1.0
 77
1
  4

 78
1
 79
1
170
1
 48
1.0
171
1
  6

172
1
173
1
174
1
140
1.0
141
1.0
175
1
  7

176
1
177
1
178
1
143
1.0
179
1
  8

270
1
271
1
272
1
145
1.0
146
1.0
273
1
  9

274
1
275
1
276
1
 42
1.0
 72
1
  3

 73
1
 74
1
 75
1
 94
63
  0
MATERIAL
  5
20
102
{ACAD_REACTORS
330
E
102
}
330
E
100
AcDbMaterial
  1
ByLayer
  2

 70
0
 40
1.0
 71
1
 41
1.0
 91
-1023410177
 42
1.0
 72
1
  3

 73
1
 74
1
 75
1
 44
0.5
 73
0
 45
1.0
 46
1.0
 77
1
  4

 78
1
 79
1
170
1
 48
1.0
171
1
  6

172
1
173
1
174
1
140
1.0
141
1.0
175
1
  7

176
1
177
1
178
1
143
1.0
179
1
  8

270
1
271
1
272
1
145
1.0
146
1.0
273
1
  9

274
1
275
1
276
1
 42
1.0
 72
1
  3

 73
1
 74
1
 75
1
 94
63
  0
MATERIAL
  5
21
102
{ACAD_REACTORS
330
E
102
}
330
E
100
AcDbMaterial
  1
Global
  2

 70
0
 40
1.0
 71
1
 41
1.0
 91
-1023410177
 42
1.0
 72
1
  3

 73
1
 74
1
 75
1
 44
0.5
 73
0
 45
1.0
 46
1.0
 77
1
  4

 78
1
 79
1
170
1
 48
1.0
171
1
  6

172
1
173
1
174
1
140
1.0
141
1.0
175
1
  7

176
1
177
1
178
1
143
1.0
179
1
  8

270
1
271
1
272
1
145
1.0
146
1.0
273
1
  9

274
1
275
1
276
1
 42
1.0
 72
1
  3

 73
1
 74
1
 75
1
 94
63
  0
MLINESTYLE
  5
22
102
{ACAD_REACTORS
330
10
102
}
330
10
100
AcDbMlineStyle
  2
Standard
 70
0
  3

 62
256
 51
90.0
 52
90.0
 71
2
 49
0.5
 62
256
  6
BYLAYER
 49
-0.5
 62
256
  6
BYLAYER
  0
MLEADERSTYLE
  5
2C
102
{ACAD_REACTORS
330
F
102
}
330
F
100
AcDbMLeaderStyle
179
2
170
2
171
1
172
0
 90
2
 40
0.0
 41
0.0
173
1
 91
-1056964608
 92
-2
290
1
 42
2.0
291
1
 43
8.0
  3
Standard
 44
4.0
300

342
29
174
1
175
1
176
0
178
1
 93
-1056964608
 45
4.0
292
0
297
0
 46
4.0
 94
-1056964608
 47
1.0
 49
1.0
140
1.0
294
1
141
0.0
177
0
142
1.0
295
0
296
0
143
3.75
271
0
272
9
273
9
  0
DICTIONARY
  5
2D
330
A
100
AcDbDictionary
280
1
281
1
  3
CREATED_BY_EZDXF
350
2E
  3
WRITTEN_BY_EZDXF
350
5E
  0
DICTIONARYVAR
  5
2E
330
2D
100
DictionaryVariables
280
0
  1
0.0 @ 2000-01-01T00:00:00.000000+00:00
  0
DICTIONARYVAR
  5
5E
330
2D
100
DictionaryVariables
280
0
  1
0.0 @ 2000-01-01T00:00:00.000000+00:00
  0
ENDSEC
  0
EOF
