  0
SECTION
  2
HEADER
  9
$ACADVER
  1
AC1024
  9
$ACADMAINTVER
 70
6
  9
$DWGCODEPAGE
  3
ANSI_1252
  9
$LASTSAVEDBY
  1
ezdxf
  9
$INSBASE
 10
0.0
 20
0.0
 30
0.0
  9
$EXTMIN
 10
1e+20
 20
1e+20
 30
1e+20
  9
$EXTMAX
 10
-1e+20
 20
-1e+20
 30
-1e+20
  9
$LIMMIN
 10
0.0
 20
0.0
  9
$LIMMAX
 10
420.0
 20
297.0
  9
$ORTHOMODE
 70
0
  9
$REGENMODE
 70
1
  9
$FILLMODE
 70
1
  9
$QTEXTMODE
 70
0
  9
$MIRRTEXT
 70
1
  9
$LTSCALE
 40
1.0
  9
$ATTMODE
 70
1
  9
$TEXTSIZE
 40
2.5
  9
$TRACEWID
 40
1.0
  9
$TEXTSTYLE
  7
Standard
  9
$CLAYER
  8
0
  9
$CELTYPE
  6
ByLayer
  9
$CECOLOR
 62
256
  9
$CELTSCALE
 40
1.0
  9
$DISPSILH
 70
0
  9
$DIMSCALE
 40
1.0
  9
$DIMASZ
 40
2.5
  9
$DIMEXO
 40
0.625
  9
$DIMDLI
 40
3.75
  9
$DIMRND
 40
0.0
  9
$DIMDLE
 40
0.0
  9
$DIMEXE
 40
1.25
  9
$DIMTP
 40
0.0
  9
$DIMTM
 40
0.0
  9
$DIMTXT
 40
2.5
  9
$DIMCEN
 40
2.5
  9
$DIMTSZ
 40
0.0
  9
$DIMTOL
 70
0
  9
$DIMLIM
 70
0
  9
$DIMTIH
 70
0
  9
$DIMTOH
 70
0
  9
$DIMSE1
 70
0
  9
$DIMSE2
 70
0
  9
$DIMTAD
 70
1
  9
$DIMZIN
 70
8
  9
$DIMBLK
  1

  9
$DIMASO
 70
1
  9
$DIMSHO
 70
1
  9
$DIMPOST
  1

  9
$DIMAPOST
  1

  9
$DIMALT
 70
0
  9
$DIMALTD
 70
3
  9
$DIMALTF
 40
0.03937007874
  9
$DIMLFAC
 40
1.0
  9
$DIMTOFL
 70
1
  9
$DIMTVP
 40
0.0
  9
$DIMTIX
 70
0
  9
$DIMSOXD
 70
0
  9
$DIMSAH
 70
0
  9
$DIMBLK1
  1

  9
$DIMBLK2
  1

  9
$DIMSTYLE
  2
ISO-25
  9
$DIMCLRD
 70
0
  9
$DIMCLRE
 70
0
  9
$DIMCLRT
 70
0
  9
$DIMTFAC
 40
1.0
  9
$DIMGAP
 40
0.625
  9
$DIMJUST
 70
0
  9
$DIMSD1
 70
0
  9
$DIMSD2
 70
0
  9
$DIMTOLJ
 70
0
  9
$DIMTZIN
 70
8
  9
$DIMALTZ
 70
0
  9
$DIMALTTZ
 70
0
  9
$DIMUPT
 70
0
  9
$DIMDEC
 70
2
  9
$DIMTDEC
 70
2
  9
$DIMALTU
 70
2
  9
$DIMALTTD
 70
3
  9
$DIMTXSTY
  7
Standard
  9
$DIMAUNIT
 70
0
  9
$DIMADEC
 70
0
  9
$DIMALTRND
 40
0.0
  9
$DIMAZIN
 70
0
  9
$DIMDSEP
 70
44
  9
$DIMATFIT
 70
3
  9
$DIMFRAC
 70
0
  9
$DIMLDRBLK
  1

  9
$DIMLUNIT
 70
2
  9
$DIMLWD
 70
-2
  9
$DIMLWE
 70
-2
  9
$DIMTMOVE
 70
0
  9
$DIMFXL
 40
1.0
  9
$DIMFXLON
 70
0
  9
$DIMJOGANG
 40
0.785398163397
  9
$DIMTFILL
 70
0
  9
$DIMTFILLCLR
 70
0
  9
$DIMARCSYM
 70
0
  9
$DIMLTYPE
  6

  9
$DIMLTEX1
  6

  9
$DIMLTEX2
  6

  9
$DIMTXTDIRECTION
 70
0
  9
$LUNITS
 70
2
  9
$LUPREC
 70
4
  9
$SKETCHINC
 40
1.0
  9
$FILLETRAD
 40
10.0
  9
$AUNITS
 70
0
  9
$AUPREC
 70
2
  9
$MENU
  1
.
  9
$ELEVATION
 40
0.0
  9
$PELEVATION
 40
0.0
  9
$THICKNESS
 40
0.0
  9
$LIMCHECK
 70
0
  9
$CHAMFERA
 40
0.0
  9
$CHAMFERB
 40
0.0
  9
$CHAMFERC
 40
0.0
  9
$CHAMFERD
 40
0.0
  9
$SKPOLY
 70
0
  9
$TDCREATE
 40
2451545.0
  9
$TDUCREATE
 40
2451545.0
  9
$TDUPDATE
 40
2451545.0
  9
$TDUUPDATE
 40
2451545.0
  9
$TDINDWG
 40
0.0
  9
$TDUSRTIMER
 40
0.0
  9
$USRTIMER
 70
1
  9
$ANGBASE
 50
0.0
  9
$ANGDIR
 70
0
  9
$PDMODE
 70
0
  9
$PDSIZE
 40
0.0
  9
$PLINEWID
 40
0.0
  9
$SPLFRAME
 70
0
  9
$SPLINETYPE
 70
6
  9
$SPLINESEGS
 70
8
  9
$HANDSEED
  5
43
  9
$SURFTAB1
 70
6
  9
$SURFTAB2
 70
6
  9
$SURFTYPE
 70
6
  9
$SURFU
 70
6
  9
$SURFV
 70
6
  9
$UCSBASE
  2

  9
$UCSNAME
  2

  9
$UCSORG
 10
0.0
 20
0.0
 30
0.0
  9
$UCSXDIR
 10
1.0
 20
0.0
 30
0.0
  9
$UCSYDIR
 10
0.0
 20
1.0
 30
0.0
  9
$UCSORTHOREF
  2

  9
$UCSORTHOVIEW
 70
0
  9
$UCSORGTOP
 10
0.0
 20
0.0
 30
0.0
  9
$UCSORGBOTTOM
 10
0.0
 20
0.0
 30
0.0
  9
$UCSORGLEFT
 10
0.0
 20
0.0
 30
0.0
  9
$UCSORGRIGHT
 10
0.0
 20
0.0
 30
0.0
  9
$UCSORGFRONT
 10
0.0
 20
0.0
 30
0.0
  9
$UCSORGBACK
 10
0.0
 20
0.0
 30
0.0
  9
$PUCSBASE
  2

  9
$PUCSNAME
  2

  9
$PUCSORG
 10
0.0
 20
0.0
 30
0.0
  9
$PUCSXDIR
 10
1.0
 20
0.0
 30
0.0
  9
$PUCSYDIR
 10
0.0
 20
1.0
 30
0.0
  9
$PUCSORTHOREF
  2

  9
$PUCSORTHOVIEW
 70
0
  9
$PUCSORGTOP
 10
0.0
 20
0.0
 30
0.0
  9
$PUCSORGBOTTOM
 10
0.0
 20
0.0
 30
0.0
  9
$PUCSORGLEFT
 10
0.0
 20
0.0
 30
0.0
  9
$PUCSORGRIGHT
 10
0.0
 20
0.0
 30
0.0
  9
$PUCSORGFRONT
 10
0.0
 20
0.0
 30
0.0
  9
$PUCSORGBACK
 10
0.0
 20
0.0
 30
0.0
  9
$USERI1
 70
0
  9
$USERI2
 70
0
  9
$USERI3
 70
0
  9
$USERI4
 70
0
  9
$USERI5
 70
0
  9
$USERR1
 40
0.0
  9
$USERR2
 40
0.0
  9
$USERR3
 40
0.0
  9
$USERR4
 40
0.0
  9
$USERR5
 40
0.0
  9
$WORLDVIEW
 70
1
  9
$SHADEDGE
 70
3
  9
$SHADEDIF
 70
70
  9
$TILEMODE
 70
1
  9
$MAXACTVP
 70
64
  9
$PINSBASE
 10
0.0
 20
0.0
 30
0.0
  9
$PLIMCHECK
 70
0
  9
$PEXTMIN
 10
1e+20
 20
1e+20
 30
1e+20
  9
$PEXTMAX
 10
-1e+20
 20
-1e+20
 30
-1e+20
  9
$PLIMMIN
 10
0.0
 20
0.0
  9
$PLIMMAX
 10
420.0
 20
297.0
  9
$UNITMODE
 70
0
  9
$VISRETAIN
 70
1
  9
$PLINEGEN
 70
0
  9
$PSLTSCALE
 70
1
  9
$TREEDEPTH
 70
3020
  9
$CMLSTYLE
  2
Standard
  9
$CMLJUST
 70
0
  9
$CMLSCALE
 40
20.0
  9
$PROXYGRAPHICS
 70
1
  9
$MEASUREMENT
 70
1
  9
$CELWEIGHT
370
-1
  9
$ENDCAPS
280
0
  9
$JOINSTYLE
280
0
  9
$LWDISPLAY
290
0
  9
$INSUNITS
 70
4
  9
$HYPERLINKBASE
  1

  9
$STYLESHEET
  1

  9
$XEDIT
290
1
  9
$CEPSNTYPE
380
0
  9
$PSTYLEMODE
290
1
  9
$FINGERPRINTGUID
  2
{00000000-0000-0000-0000-000000000000}
  9
$VERSIONGUID
  2
{00000000-0000-0000-0000-000000000000}
  9
$EXTNAMES
290
1
  9
$PSVPSCALE
 40
0.0
  9
$OLESTARTUP
290
0
  9
$SORTENTS
280
127
  9
$INDEXCTL
280
0
  9
$HIDETEXT
280
1
  9
$XCLIPFRAME
280
1
  9
$HALOGAP
280
0
  9
$OBSCOLOR
 70
257
  9
$OBSLTYPE
280
0
  9
$INTERSECTIONDISPLAY
280
0
  9
$INTERSECTIONCOLOR
 70
257
  9
$DIMASSOC
280
2
  9
$PROJECTNAME
  1

  9
$CAMERADISPLAY
290
0
  9
$LENSLENGTH
 40
50.0
  9
$CAMERAHEIGHT
 40
0.0
  9
$STEPSPERSEC
 40
24.0
  9
$STEPSIZE
 40
100.0
  9
$3DDWFPREC
 40
2.0
  9
$PSOLWIDTH
 40
0.005
  9
$PSOLHEIGHT
 40
0.08
  9
$LOFTANG1
 40
1.570796326795
  9
$LOFTANG2
 40
1.570796326795
  9
$LOFTMAG1
 40
0.0
  9
$LOFTMAG2
 40
0.0
  9
$LOFTPARAM
 70
7
  9
$LOFTNORMALS
280
1
  9
$LATITUDE
 40
37.795
  9
$LONGITUDE
 40
-122.394
  9
$NORTHDIRECTION
 40
0.0
  9
$TIMEZONE
 70
-8000
  9
$LIGHTGLYPHDISPLAY
280
1
  9
$TILEMODELIGHTSYNCH
280
1
  9
$CMATERIAL
347
20
  9
$SOLIDHIST
280
0
  9
$SHOWHIST
280
1
  9
$DWFFRAME
280
2
  9
$DGNFRAME
280
2
  9
$REALWORLDSCALE
290
1
  9
$INTERFERECOLOR
 62
256
  9
$CSHADOW
280
0
  9
$SHADOWPLANELOCATION
 40
0.0
  0
ENDSEC
  0
SECTION
  2
CLASSES
  0
CLASS
  1
ACDBDICTIONARYWDFLT
  2
AcDbDictionaryWithDefault
  3
ObjectDBX Classes
 90
0
 91
0
280
0
281
0
  0
CLASS
  1
SUN
  2
AcDbSun
  3
SCENEOE
 90
1153
 91
0
280
0
281
0
  0
CLASS
  1
VISUALSTYLE
  2
AcDbVisualStyle
  3
ObjectDBX Classes
 90
4095
 91
0
280
0
281
0
  0
CLASS
  1
MATERIAL
  2
AcDbMaterial
  3
ObjectDBX Classes
 90
1153
 91
0
280
0
281
0
  0
CLASS
  1
SCALE
  2
AcDbScale
  3
ObjectDBX Classes
 90
1153
 91
0
280
0
281
0
  0
CLASS
  1
TABLESTYLE
  2
AcDbTableStyle
  3
ObjectDBX Classes
 90
4095
 91
0
280
0
281
0
  0
CLASS
  1
MLEADERSTYLE
  2
AcDbMLeaderStyle
  3
ACDB_MLEADERSTYLE_CLASS
 90
4095
 91
0
280
0
281
0
  0
CLASS
  1
DICTIONARYVAR
  2
AcDbDictionaryVar
  3
ObjectDBX Classes
 90
0
 91
0
280
0
281
0
  0
CLASS
  1
CELLSTYLEMAP
  2
AcDbCellStyleMap
  3
ObjectDBX Classes
 90
1152
 91
0
280
0
281
0
  0
CLASS
  1
MENTALRAYRENDERSETTINGS
  2
AcDbMentalRayRenderSettings
  3
SCENEOE
 90
1024
 91
0
280
0
281
0
  0
CLASS
  1
ACDBDETAILVIEWSTYLE
  2
AcDbDetailViewStyle
  3
ObjectDBX Classes
 90
1025
 91
0
280
0
281
0
  0
CLASS
  1
ACDBSECTIONVIEWSTYLE
  2
AcDbSectionViewStyle
  3
ObjectDBX Classes
 90
1025
 91
0
280
0
281
0
  0
CLASS
  1
RASTERVARIABLES
  2
AcDbRasterVariables
  3
ISM
 90
0
 91
0
280
0
281
0
  0
CLASS
  1
ACDBPLACEHOLDER
  2
AcDbPlaceHolder
  3
ObjectDBX Classes
 90
0
 91
0
280
0
281
0
  0
CLASS
  1
LAYOUT
  2
AcDbLayout
  3
ObjectDBX Classes
 90
0
 91
0
280
0
281
0
  0
ENDSEC
  0
SECTION
  2
TABLES
  0
TABLE
  2
VPORT
  5
8
330
0
100
AcDbSymbolTable
 70
1
  0
VPORT
  5
23
330
8
100
AcDbSymbolTableRecord
100
AcDbViewportTableRecord
  2
*Active
 70
0
 10
0.0
 20
0.0
 11
1.0
 21
1.0
 12
0.0
 22
0.0
 13
0.0
 23
0.0
 14
0.5
 24
0.5
 15
0.5
 25
0.5
 16
0.0
 26
0.0
 36
1.0
 17
0.0
 27
0.0
 37
0.0
 40
1000.0
 41
1.34
 42
50.0
 43
0.0
 44
0.0
 50
0.0
 51
0.0
 71
0
 72
1000
 73
1
 74
3
 75
0
 76
0
 77
0
 78
0
281
0
 65
0
146
0.0
  0
ENDTAB
  0
TABLE
  2
LTYPE
  5
2
330
0
100
AcDbSymbolTable
 70
3
  0
LTYPE
  5
24
330
2
100
AcDbSymbolTableRecord
100
AcDbLinetypeTableRecord
  2
ByBlock
 70
0
  3

 72
65
 73
0
 40
0.0
  0
LTYPE
  5
25
330
2
100
AcDbSymbolTableRecord
100
AcDbLinetypeTableRecord
  2
ByLayer
 70
0
  3

 72
65
 73
0
 40
0.0
  0
LTYPE
  5
26
330
2
100
AcDbSymbolTableRecord
100
AcDbLinetypeTableRecord
  2
Continuous
 70
0
  3

 72
65
 73
0
 40
0.0
  0
ENDTAB
  0
TABLE
  2
LAYER
  5
1
330
0
100
AcDbSymbolTable
 70
3
  0
LAYER
  5
27
330
1
100
AcDbSymbolTableRecord
100
AcDbLayerTableRecord
  2
0
 70
0
 62
7
  6
Continuous
370
-3
390
13
347
21
  0
LAYER
  5
28
330
1
100
AcDbSymbolTableRecord
100
AcDbLayerTableRecord
  2
Defpoints
 70
0
 62
7
  6
Continuous
290
0
370
-3
390
13
347
21
  0
LAYER
  5
2F
330
1
100
AcDbSymbolTableRecord
100
AcDbLayerTableRecord
  2
OUTLINE
 70
0
 62
7
  6
Continuous
370
-3
390
13
347
21
  0
ENDTAB
  0
TABLE
  2
STYLE
  5
5
330
0
100
AcDbSymbolTable
 70
1
  0
STYLE
  5
29
330
5
100
AcDbSymbolTableRecord
100
AcDbTextStyleTableRecord
  2
Standard
 70
0
 40
0.0
 41
1.0
 50
0.0
 71
0
 42
2.5
  3
txt
  4

  0
ENDTAB
  0
TABLE
  2
VIEW
  5
7
330
0
100
AcDbSymbolTable
 70
0
  0
ENDTAB
  0
TABLE
  2
UCS
  5
6
330
0
100
AcDbSymbolTable
 70
0
  0
ENDTAB
  0
TABLE
  2
APPID
  5
3
330
0
100
AcDbSymbolTable
 70
3
  0
APPID
  5
2A
330
3
100
AcDbSymbolTableRecord
100
AcDbRegAppTableRecord
  2
ACAD
 70
0
  0
APPID
  5
40
330
3
100
AcDbSymbolTableRecord
100
AcDbRegAppTableRecord
  2
HATCHBACKGROUNDCOLOR
 70
0
  0
APPID
  5
41
330
3
100
AcDbSymbolTableRecord
100
AcDbRegAppTableRecord
  2
EZDXF
 70
0
  0
ENDTAB
  0
TABLE
  2
DIMSTYLE
  5
4
330
0
100
AcDbSymbolTable
 70
1
100
AcDbDimStyleTable
  0
DIMSTYLE
105
2B
330
4
100
AcDbSymbolTableRecord
100
AcDbDimStyleTableRecord
  2
Standard
 70
0
 40
1.0
 41
2.5
 42
0.625
 43
3.75
 44
1.25
 45
0.0
 46
0.0
 47
0.0
 48
0.0
 49
2.5
140
2.5
141
2.5
142
0.0
143
0.03937007874
144
1.0
145
0.0
146
1.0
147
0.625
148
0.0
 69
0
 70
0
 71
0
 72
0
 73
0
 74
0
 75
0
 76
0
 77
1
 78
8
 79
3
170
0
171
3
172
1
173
0
174
0
175
0
176
0
177
0
178
0
179
2
271
2
272
2
273
2
274
3
275
0
276
0
277
2
278
44
279
0
280
0
281
0
282
0
283
0
284
8
285
0
286
0
288
0
289
3
290
0
371
-2
372
-2
  0
ENDTAB
  0
TABLE
  2
BLOCK_RECORD
  5
9
330
0
100
AcDbSymbolTable
 70
2
  0
BLOCK_RECORD
  5
17
330
9
100
AcDbSymbolTableRecord
100
AcDbBlockTableRecord
  2
*Model_Space
340
1A
 70
0
280
1
281
0
  0
BLOCK_RECORD
  5
1B
330
9
100
AcDbSymbolTableRecord
100
AcDbBlockTableRecord
  2
*Paper_Space
340
1E
 70
0
280
1
281
0
  0
ENDTAB
  0
ENDSEC
  0
SECTION
  2
BLOCKS
  0
BLOCK
  5
18
330
17
100
AcDbEntity
  8
0
100
AcDbBlockBegin
  2
*Model_Space
 70
0
 10
0.0
 20
0.0
 30
0.0
  3
*Model_Space
  1

  0
ENDBLK
  5
19
330
17
100
AcDbEntity
  8
0
100
AcDbBlockEnd
  0
BLOCK
  5
1C
330
1B
100
AcDbEntity
  8
0
100
AcDbBlockBegin
  2
*Paper_Space
 70
0
 10
0.0
 20
0.0
 30
0.0
  3
*Paper_Space
  1

  0
ENDBLK
  5
1D
330
1B
100
AcDbEntity
  8
0
100
AcDbBlockEnd
  0
ENDSEC
  0
SECTION
  2
ENTITIES
  0
LWPOLYLINE
  5
30
330
17
100
AcDbEntity
  8
OUTLINE
100
AcDbPolyline
 90
472
 70
1
 10
19.0043
 20
8.2274
 10
19.0043
 20
8.1377
 10
19.0043
 20
8.1178
 10
19.0043
 20
8.0481
 10
19.0043
 20
7.9584
 10
19.0043
 20
7.9277
 10
19.0043
 20
7.8687
 10
19.0043
 20
7.7791
 10
19.0043
 20
7.7375
 10
19.0043
 20
7.6894
 10
19.0043
 20
7.5998
 10
19.0043
 20
7.5101
 10
19.0043
 20
7.4205
 10
19.0043
 20
7.3308
 10
19.0043
 20
7.2412
 10
19.0043
 20
7.1515
 10
19.0043
 20
7.0619
 10
19.0043
 20
6.9722
 10
19.0043
 20
6.8825
 10
19.0043
 20
6.7929
 10
19.0043
 20
6.7032
 10
19.0043
 20
6.6136
 10
19.0043
 20
6.5239
 10
19.0043
 20
6.4343
 10
19.0068
 20
6.3468
 10
19.0955
 20
6.3335
 10
19.1841
 20
6.3201
 10
19.2728
 20
6.3068
 10
19.3614
 20
6.2934
 10
19.4501
 20
6.28
 10
19.5387
 20
6.2667
 10
19.6274
 20
6.2533
 10
19.716
 20
6.24
 10
19.8047
 20
6.2266
 10
19.8934
 20
6.2133
 10
19.982
 20
6.1999
 10
20.0707
 20
6.1865
 10
20.1593
 20
6.1732
 10
20.248
 20
6.1598
 10
20.3366
 20
6.1465
 10
20.363
 20
6.0795
 10
20.363
 20
5.9898
 10
20.363
 20
5.9002
 10
20.363
 20
5.8105
 10
20.363
 20
5.7209
 10
20.363
 20
5.6312
 10
20.363
 20
5.5416
 10
20.363
 20
5.4519
 10
20.363
 20
5.3623
 10
20.363
 20
5.2726
 10
20.363
 20
5.183
 10
20.363
 20
5.0933
 10
20.363
 20
5.0036
 10
20.363
 20
4.914
 10
20.363
 20
4.8243
 10
20.363
 20
4.7347
 10
20.363
 20
4.645
 10
20.363
 20
4.5554
 10
20.363
 20
4.4657
 10
20.363
 20
4.3761
 10
20.363
 20
4.2864
 10
20.2786
 20
4.2789
 10
20.189
 20
4.2765
 10
20.0994
 20
4.2741
 10
20.0098
 20
4.2717
 10
19.9201
 20
4.2693
 10
19.8305
 20
4.2669
 10
19.7409
 20
4.2646
 10
19.6513
 20
4.2622
 10
19.5617
 20
4.2598
 10
19.472
 20
4.2574
 10
19.3824
 20
4.255
 10
19.2928
 20
4.2526
 10
19.2032
 20
4.2502
 10
19.1135
 20
4.2479
 10
19.0239
 20
4.2455
 10
18.9343
 20
4.2431
 10
18.8447
 20
4.2407
 10
18.7551
 20
4.2383
 10
18.6654
 20
4.2359
 10
18.5758
 20
4.2335
 10
18.4862
 20
4.2311
 10
18.3966
 20
4.2288
 10
18.3069
 20
4.2264
 10
18.2173
 20
4.224
 10
18.1277
 20
4.2216
 10
18.0381
 20
4.2192
 10
17.9484
 20
4.2168
 10
17.8588
 20
4.2144
 10
17.7692
 20
4.212
 10
17.6796
 20
4.2097
 10
17.59
 20
4.2073
 10
17.5003
 20
4.2049
 10
17.4107
 20
4.2025
 10
17.3211
 20
4.2001
 10
17.2315
 20
4.1977
 10
17.1418
 20
4.1953
 10
17.0522
 20
4.1929
 10
16.9626
 20
4.1906
 10
16.873
 20
4.1882
 10
16.8666
 20
4.2776
 10
16.8603
 20
4.367
 10
16.854
 20
4.4565
 10
16.8476
 20
4.5459
 10
16.8413
 20
4.6353
 10
16.8349
 20
4.7248
 10
16.8286
 20
4.8142
 10
16.8223
 20
4.9036
 10
16.8159
 20
4.993
 10
16.8096
 20
5.0825
 10
16.8033
 20
5.1719
 10
16.7969
 20
5.2613
 10
16.7906
 20
5.3508
 10
16.7842
 20
5.4402
 10
16.7779
 20
5.5296
 10
16.7716
 20
5.6191
 10
16.7652
 20
5.7085
 10
16.7589
 20
5.7979
 10
16.7525
 20
5.8873
 10
16.7462
 20
5.9768
 10
16.7399
 20
6.0662
 10
16.7335
 20
6.1556
 10
16.7318
 20
6.1797
 10
16.6376
 20
6.1797
 10
16.5272
 20
6.1797
 10
16.4716
 20
6.0984
 10
16.4397
 20
5.9809
 10
16.4045
 20
5.8668
 10
16.3662
 20
5.756
 10
16.3245
 20
5.6487
 10
16.2797
 20
5.5448
 10
16.2316
 20
5.4443
 10
16.1803
 20
5.3472
 10
16.1258
 20
5.2535
 10
16.068
 20
5.1631
 10
16.007
 20
5.0762
 10
15.9427
 20
4.9927
 10
15.8752
 20
4.9126
 10
15.8045
 20
4.8359
 10
15.7306
 20
4.7626
 10
15.6534
 20
4.6926
 10
15.5727
 20
4.6259
 10
15.4876
 20
4.5616
 10
15.4
 20
4.5015
 10
15.3101
 20
4.4455
 10
15.2177
 20
4.3936
 10
15.123
 20
4.3459
 10
15.0259
 20
4.3024
 10
14.9263
 20
4.263
 10
14.8244
 20
4.2277
 10
14.7201
 20
4.1966
 10
14.6134
 20
4.1697
 10
14.5043
 20
4.1468
 10
14.3928
 20
4.1282
 10
14.2789
 20
4.1137
 10
14.1626
 20
4.1033
 10
14.0439
 20
4.0971
 10
13.9228
 20
4.095
 10
13.7959
 20
4.0968
 10
13.6716
 20
4.102
 10
13.5498
 20
4.1108
 10
13.4306
 20
4.1231
 10
13.3139
 20
4.1389
 10
13.1997
 20
4.1583
 10
13.0881
 20
4.1811
 10
12.979
 20
4.2075
 10
12.8725
 20
4.2374
 10
12.7685
 20
4.2708
 10
12.6671
 20
4.3077
 10
12.5682
 20
4.3482
 10
12.4719
 20
4.3921
 10
12.3781
 20
4.4396
 10
12.2869
 20
4.4906
 10
12.1981
 20
4.5451
 10
12.112
 20
4.6031
 10
12.0284
 20
4.6646
 10
11.9473
 20
4.7297
 10
11.8688
 20
4.7982
 10
11.7928
 20
4.8703
 10
11.7194
 20
4.9459
 10
11.6488
 20
5.0247
 10
11.5868
 20
5.0993
 10
11.5273
 20
5.1763
 10
11.4704
 20
5.2556
 10
11.4159
 20
5.3374
 10
11.3639
 20
5.4215
 10
11.3145
 20
5.508
 10
11.2675
 20
5.5968
 10
11.2231
 20
5.6881
 10
11.1812
 20
5.7817
 10
11.1418
 20
5.8777
 10
11.1049
 20
5.9761
 10
11.0705
 20
6.0768
 10
11.0386
 20
6.1799
 10
11.0092
 20
6.2854
 10
10.9823
 20
6.3933
 10
10.9579
 20
6.5036
 10
10.9361
 20
6.6162
 10
10.9167
 20
6.7312
 10
10.8999
 20
6.8486
 10
10.8856
 20
6.9684
 10
10.8737
 20
7.0905
 10
10.8644
 20
7.2151
 10
10.8576
 20
7.3419
 10
10.8533
 20
7.4712
 10
10.8515
 20
7.6029
 10
10.8514
 20
7.7182
 10
10.8514
 20
7.8286
 10
10.8514
 20
7.939
 10
10.8514
 20
8.0495
 10
10.8514
 20
8.1599
 10
10.8514
 20
8.2703
 10
10.8514
 20
8.3808
 10
10.8514
 20
8.4912
 10
10.8514
 20
8.6016
 10
10.8514
 20
8.712
 10
10.8514
 20
8.8225
 10
10.8514
 20
8.9329
 10
10.8514
 20
9.0433
 10
10.8514
 20
9.1537
 10
10.8514
 20
9.2642
 10
10.8514
 20
9.3746
 10
10.8514
 20
9.485
 10
10.8514
 20
9.5955
 10
10.8514
 20
9.7059
 10
10.8514
 20
9.8163
 10
10.8514
 20
9.9267
 10
10.8514
 20
10.0372
 10
10.8514
 20
10.1476
 10
10.8514
 20
10.258
 10
10.8514
 20
10.3684
 10
10.8514
 20
10.4789
 10
10.8514
 20
10.5893
 10
10.8514
 20
10.6997
 10
10.8514
 20
10.8101
 10
10.8514
 20
10.9206
 10
10.8514
 20
11.031
 10
10.8514
 20
11.1414
 10
10.8514
 20
11.2519
 10
10.8514
 20
11.3623
 10
10.8514
 20
11.4727
 10
10.8514
 20
11.5831
 10
10.8514
 20
11.6936
 10
10.8514
 20
11.804
 10
10.8514
 20
11.9144
 10
10.8514
 20
12.0248
 10
10.8514
 20
12.1353
 10
10.8514
 20
12.2457
 10
10.8514
 20
12.3561
 10
10.8514
 20
12.4666
 10
10.8514
 20
12.577
 10
10.8514
 20
12.6874
 10
10.8514
 20
12.7978
 10
10.8514
 20
12.9083
 10
10.8514
 20
13.0187
 10
10.8514
 20
13.1291
 10
10.8514
 20
13.2395
 10
10.8514
 20
13.35
 10
10.8514
 20
13.4604
 10
10.8514
 20
13.5708
 10
10.8514
 20
13.6813
 10
10.8514
 20
13.7917
 10
10.8514
 20
13.9021
 10
10.8514
 20
14.0125
 10
10.8514
 20
14.123
 10
10.9387
 20
14.1461
 10
11.0491
 20
14.1461
 10
11.1596
 20
14.1461
 10
11.27
 20
14.1461
 10
11.3804
 20
14.1461
 10
11.4909
 20
14.1461
 10
11.6013
 20
14.1461
 10
11.7117
 20
14.1461
 10
11.8221
 20
14.1461
 10
11.9326
 20
14.1461
 10
12.043
 20
14.1461
 10
12.1534
 20
14.1461
 10
12.2638
 20
14.1461
 10
12.3743
 20
14.1461
 10
12.4847
 20
14.1461
 10
12.5951
 20
14.1461
 10
12.7055
 20
14.1461
 10
12.816
 20
14.1461
 10
12.9264
 20
14.1461
 10
13.0368
 20
14.1461
 10
13.1473
 20
14.1461
 10
13.1503
 20
14.0387
 10
13.1503
 20
13.9283
 10
13.1503
 20
13.8178
 10
13.1503
 20
13.7074
 10
13.1503
 20
13.597
 10
13.1503
 20
13.4866
 10
13.1503
 20
13.3761
 10
13.1503
 20
13.2657
 10
13.1503
 20
13.1553
 10
13.1503
 20
13.0448
 10
13.1503
 20
12.9344
 10
13.1503
 20
12.824
 10
13.1503
 20
12.7136
 10
13.1503
 20
12.6031
 10
13.1503
 20
12.4927
 10
13.1503
 20
12.3823
 10
13.1503
 20
12.2719
 10
13.1503
 20
12.1614
 10
13.1503
 20
12.051
 10
13.1503
 20
11.9406
 10
13.1503
 20
11.8301
 10
13.1503
 20
11.7197
 10
13.1503
 20
11.6093
 10
13.1503
 20
11.4989
 10
13.1503
 20
11.3884
 10
13.1503
 20
11.278
 10
13.1503
 20
11.1676
 10
13.1503
 20
11.0572
 10
13.1503
 20
10.9467
 10
13.1503
 20
10.8363
 10
13.1503
 20
10.7259
 10
13.1503
 20
10.6155
 10
13.1503
 20
10.505
 10
13.1503
 20
10.3946
 10
13.1503
 20
10.2842
 10
13.1503
 20
10.1737
 10
13.1503
 20
10.0633
 10
13.1503
 20
9.9529
 10
13.1503
 20
9.8425
 10
13.1503
 20
9.732
 10
13.1503
 20
9.6216
 10
13.1503
 20
9.5112
 10
13.1503
 20
9.4008
 10
13.1503
 20
9.2903
 10
13.1503
 20
9.1799
 10
13.1503
 20
9.0695
 10
13.1503
 20
8.959
 10
13.1503
 20
8.8486
 10
13.1503
 20
8.7382
 10
13.1503
 20
8.6278
 10
13.1503
 20
8.5173
 10
13.1503
 20
8.4069
 10
13.1503
 20
8.2965
 10
13.1503
 20
8.1861
 10
13.1503
 20
8.0756
 10
13.1506
 20
7.9577
 10
13.155
 20
7.829
 10
13.1648
 20
7.7051
 10
13.1797
 20
7.5859
 10
13.2
 20
7.4714
 10
13.2255
 20
7.3617
 10
13.2562
 20
7.2567
 10
13.2922
 20
7.1565
 10
13.3335
 20
7.061
 10
13.38
 20
6.9702
 10
13.4318
 20
6.8842
 10
13.4888
 20
6.8029
 10
13.5511
 20
6.7264
 10
13.6216
 20
6.6516
 10
13.699
 20
6.5809
 10
13.781
 20
6.5168
 10
13.8677
 20
6.4593
 10
13.9591
 20
6.4083
 10
14.0551
 20
6.3639
 10
14.1557
 20
6.3261
 10
14.261
 20
6.2949
 10
14.3709
 20
6.2702
 10
14.4855
 20
6.2521
 10
14.6047
 20
6.2406
 10
14.7285
 20
6.2357
 10
14.8547
 20
6.2371
 10
14.9769
 20
6.2445
 10
15.095
 20
6.2579
 10
15.209
 20
6.2771
 10
15.3188
 20
6.3023
 10
15.4244
 20
6.3335
 10
15.5259
 20
6.3706
 10
15.6233
 20
6.4136
 10
15.7165
 20
6.4625
 10
15.8055
 20
6.5173
 10
15.8904
 20
6.5781
 10
15.9711
 20
6.6449
 10
16.0477
 20
6.7175
 10
16.1201
 20
6.7961
 10
16.1883
 20
6.8806
 10
16.2421
 20
6.9558
 10
16.2852
 20
7.0236
 10
16.3262
 20
7.0953
 10
16.3651
 20
7.171
 10
16.4019
 20
7.2507
 10
16.4366
 20
7.3344
 10
16.4692
 20
7.4221
 10
16.4996
 20
7.5137
 10
16.528
 20
7.6094
 10
16.5543
 20
7.709
 10
16.5785
 20
7.8127
 10
16.6005
 20
7.9203
 10
16.6205
 20
8.0319
 10
16.6383
 20
8.1475
 10
16.6541
 20
8.2671
 10
16.6677
 20
8.3907
 10
16.6793
 20
8.5182
 10
16.6887
 20
8.6498
 10
16.6961
 20
8.7853
 10
16.7013
 20
8.9249
 10
16.7044
 20
9.0684
 10
16.7054
 20
9.1816
 10
16.7054
 20
9.3547
 10
16.7054
 20
9.5448
 10
16.7054
 20
9.7349
 10
16.7054
 20
9.925
 10
16.7054
 20
10.1152
 10
16.7054
 20
10.3053
 10
16.7054
 20
10.4954
 10
16.7054
 20
10.6855
 10
16.7054
 20
10.8757
 10
16.7054
 20
11.0658
 10
16.7054
 20
11.2559
 10
16.7054
 20
11.446
 10
16.7054
 20
11.6362
 10
16.7054
 20
11.8263
 10
16.7054
 20
12.0164
 10
16.7054
 20
12.2065
 10
16.7054
 20
12.3967
 10
16.7054
 20
12.5868
 10
16.7054
 20
12.7769
 10
16.7054
 20
12.967
 10
16.7054
 20
13.1572
 10
16.7054
 20
13.3473
 10
16.7054
 20
13.5374
 10
16.7054
 20
13.7275
 10
16.7054
 20
13.9177
 10
16.7054
 20
14.1078
 10
16.8572
 20
14.1461
 10
17.0473
 20
14.1461
 10
17.2375
 20
14.1461
 10
17.4276
 20
14.1461
 10
17.6177
 20
14.1461
 10
17.8078
 20
14.1461
 10
17.998
 20
14.1461
 10
18.1881
 20
14.1461
 10
18.3782
 20
14.1461
 10
18.5683
 20
14.1461
 10
18.7585
 20
14.1461
 10
18.9486
 20
14.1461
 10
19.0043
 20
14.0117
 10
19.0043
 20
13.8215
 10
19.0043
 20
13.6314
 10
19.0043
 20
13.4413
 10
19.0043
 20
13.2512
 10
19.0043
 20
13.061
 10
19.0043
 20
12.8709
 10
19.0043
 20
12.6808
 10
19.0043
 20
12.4907
 10
19.0043
 20
12.3005
 10
19.0043
 20
12.1104
 10
19.0043
 20
11.9203
 10
19.0043
 20
11.7302
 10
19.0043
 20
11.54
 10
19.0043
 20
11.3499
 10
19.0043
 20
11.1598
 10
19.0043
 20
10.9697
 10
19.0043
 20
10.7795
 10
19.0043
 20
10.5894
 10
19.0043
 20
10.3993
 10
19.0043
 20
10.2092
 10
19.0043
 20
10.019
 10
19.0043
 20
9.8289
 10
19.0043
 20
9.6388
 10
19.0043
 20
9.4487
 10
19.0043
 20
9.2585
 10
19.0043
 20
9.0684
 10
19.0043
 20
8.8783
 10
19.0043
 20
8.6882
 10
19.0043
 20
8.498
 10
19.0043
 20
8.3079
  0
LWPOLYLINE
  5
31
330
17
100
AcDbEntity
  8
OUTLINE
100
AcDbPolyline
 90
672
 70
1
 10
25.6755
 20
4.0953
 10
25.5746
 20
4.095
 10
25.4866
 20
4.0951
 10
25.3994
 20
4.0954
 10
25.3132
 20
4.096
 10
25.2279
 20
4.0967
 10
25.1434
 20
4.0977
 10
25.0599
 20
4.0989
 10
24.9772
 20
4.1003
 10
24.8954
 20
4.1019
 10
24.8145
 20
4.1037
 10
24.7345
 20
4.1058
 10
24.6554
 20
4.108
 10
24.5772
 20
4.1105
 10
24.4999
 20
4.1132
 10
24.4234
 20
4.1161
 10
24.3479
 20
4.1193
 10
24.2732
 20
4.1226
 10
24.1994
 20
4.1262
 10
24.1266
 20
4.1299
 10
24.0546
 20
4.1339
 10
23.9835
 20
4.1381
 10
23.9133
 20
4.1425
 10
23.844
 20
4.1472
 10
23.7755
 20
4.152
 10
23.708
 20
4.1571
 10
23.6414
 20
4.1624
 10
23.565
 20
4.1688
 10
23.4805
 20
4.1763
 10
23.397
 20
4.1841
 10
23.3143
 20
4.1923
 10
23.2326
 20
4.2009
 10
23.1518
 20
4.2098
 10
23.072
 20
4.2191
 10
22.993
 20
4.2288
 10
22.915
 20
4.2388
 10
22.8379
 20
4.2492
 10
22.7617
 20
4.2599
 10
22.6864
 20
4.2711
 10
22.6121
 20
4.2825
 10
22.5387
 20
4.2944
 10
22.4661
 20
4.3066
 10
22.3946
 20
4.3192
 10
22.3239
 20
4.3321
 10
22.2541
 20
4.3454
 10
22.1853
 20
4.359
 10
22.1174
 20
4.3731
 10
22.1215
 20
4.4452
 10
22.131
 20
4.5218
 10
22.1406
 20
4.5984
 10
22.1502
 20
4.675
 10
22.1598
 20
4.7516
 10
22.1693
 20
4.8282
 10
22.1789
 20
4.9048
 10
22.1885
 20
4.9814
 10
22.1981
 20
5.058
 10
22.2076
 20
5.1346
 10
22.2172
 20
5.2112
 10
22.2268
 20
5.2878
 10
22.2364
 20
5.3644
 10
22.2459
 20
5.441
 10
22.2555
 20
5.5176
 10
22.2651
 20
5.5942
 10
22.2747
 20
5.6708
 10
22.2842
 20
5.7474
 10
22.2938
 20
5.824
 10
22.3034
 20
5.9006
 10
22.3129
 20
5.9772
 10
22.3225
 20
6.0538
 10
22.3321
 20
6.1304
 10
22.3417
 20
6.207
 10
22.3512
 20
6.2835
 10
22.3608
 20
6.3601
 10
22.3704
 20
6.4367
 10
22.38
 20
6.5133
 10
22.4481
 20
6.5244
 10
22.5361
 20
6.5125
 10
22.623
 20
6.5009
 10
22.7089
 20
6.4895
 10
22.7937
 20
6.4783
 10
22.8776
 20
6.4674
 10
22.9603
 20
6.4568
 10
23.0421
 20
6.4464
 10
23.1228
 20
6.4362
 10
23.2025
 20
6.4264
 10
23.2812
 20
6.4167
 10
23.3589
 20
6.4073
 10
23.4355
 20
6.3982
 10
23.511
 20
6.3893
 10
23.5856
 20
6.3806
 10
23.6591
 20
6.3723
 10
23.7316
 20
6.3641
 10
23.803
 20
6.3562
 10
23.8735
 20
6.3486
 10
23.9428
 20
6.3412
 10
24.0112
 20
6.3341
 10
24.0785
 20
6.3272
 10
24.1448
 20
6.3205
 10
24.2101
 20
6.3142
 10
24.2833
 20
6.3072
 10
24.3731
 20
6.2989
 10
24.4613
 20
6.2911
 10
24.5478
 20
6.2839
 10
24.6326
 20
6.2771
 10
24.7159
 20
6.2709
 10
24.7974
 20
6.2651
 10
24.8773
 20
6.2599
 10
24.9556
 20
6.2552
 10
25.0322
 20
6.2509
 10
25.1072
 20
6.2472
 10
25.1805
 20
6.244
 10
25.2522
 20
6.2413
 10
25.3222
 20
6.2391
 10
25.3906
 20
6.2375
 10
25.4574
 20
6.2363
 10
25.5224
 20
6.2356
 10
25.5936
 20
6.2355
 10
25.6975
 20
6.2359
 10
25.7991
 20
6.237
 10
25.8985
 20
6.2389
 10
25.9957
 20
6.2413
 10
26.0906
 20
6.2445
 10
26.1832
 20
6.2483
 10
26.2736
 20
6.2528
 10
26.3617
 20
6.258
 10
26.4476
 20
6.2638
 10
26.5312
 20
6.2703
 10
26.6125
 20
6.2775
 10
26.6916
 20
6.2854
 10
26.7684
 20
6.2939
 10
26.843
 20
6.3031
 10
26.9154
 20
6.313
 10
26.9854
 20
6.3235
 10
27.0532
 20
6.3348
 10
27.1188
 20
6.3467
 10
27.1821
 20
6.3592
 10
27.2431
 20
6.3725
 10
27.3019
 20
6.3864
 10
27.3585
 20
6.401
 10
27.4127
 20
6.4163
 10
27.4647
 20
6.4322
 10
27.5145
 20
6.4488
 10
27.5805
 20
6.4732
 10
27.6679
 20
6.5104
 10
27.7481
 20
6.5507
 10
27.821
 20
6.5941
 10
27.8866
 20
6.6406
 10
27.9451
 20
6.6902
 10
27.9963
 20
6.7429
 10
28.0402
 20
6.7986
 10
28.077
 20
6.8575
 10
28.1065
 20
6.9194
 10
28.1287
 20
6.9844
 10
28.1437
 20
7.0526
 10
28.1515
 20
7.1238
 10
28.152
 20
7.2042
 10
28.1448
 20
7.2895
 10
28.1299
 20
7.3686
 10
28.1072
 20
7.4417
 10
28.0768
 20
7.5086
 10
28.0386
 20
7.5694
 10
27.9926
 20
7.6241
 10
27.9451
 20
7.668
 10
27.8943
 20
7.707
 10
27.8372
 20
7.744
 10
27.7739
 20
7.779
 10
27.7044
 20
7.8121
 10
27.6286
 20
7.8431
 10
27.5466
 20
7.8722
 10
27.4584
 20
7.8993
 10
27.3759
 20
7.9222
 10
27.3015
 20
7.943
 10
27.2272
 20
7.9637
 10
27.1528
 20
7.9844
 10
27.0784
 20
8.0051
 10
27.0041
 20
8.0259
 10
26.9297
 20
8.0466
 10
26.8554
 20
8.0673
 10
26.781
 20
8.088
 10
26.7066
 20
8.1088
 10
26.6323
 20
8.1295
 10
26.5579
 20
8.1502
 10
26.4836
 20
8.1709
 10
26.4092
 20
8.1917
 10
26.3348
 20
8.2124
 10
26.2605
 20
8.2331
 10
26.1861
 20
8.2538
 10
26.1118
 20
8.2746
 10
26.0374
 20
8.2953
 10
25.963
 20
8.316
 10
25.8887
 20
8.3367
 10
25.8143
 20
8.3575
 10
25.74
 20
8.3782
 10
25.6656
 20
8.3989
 10
25.5912
 20
8.4196
 10
25.5169
 20
8.4404
 10
25.4425
 20
8.4611
 10
25.3682
 20
8.4818
 10
25.2938
 20
8.5026
 10
25.2194
 20
8.5233
 10
25.1451
 20
8.544
 10
25.0707
 20
8.5647
 10
24.9964
 20
8.5855
 10
24.922
 20
8.6062
 10
24.8476
 20
8.6269
 10
24.7733
 20
8.6476
 10
24.6989
 20
8.6684
 10
24.6246
 20
8.6891
 10
24.5438
 20
8.7117
 10
24.4541
 20
8.7377
 10
24.3663
 20
8.7644
 10
24.2803
 20
8.7919
 10
24.196
 20
8.8202
 10
24.1137
 20
8.8492
 10
24.0331
 20
8.8789
 10
23.9543
 20
8.9094
 10
23.8774
 20
8.9406
 10
23.8023
 20
8.9726
 10
23.729
 20
9.0054
 10
23.6575
 20
9.0388
 10
23.5878
 20
9.0731
 10
23.52
 20
9.108
 10
23.454
 20
9.1438
 10
23.3898
 20
9.1802
 10
23.3274
 20
9.2174
 10
23.2668
 20
9.2554
 10
23.2081
 20
9.2941
 10
23.1511
 20
9.3336
 10
23.096
 20
9.3738
 10
23.0427
 20
9.4147
 10
22.9913
 20
9.4564
 10
22.9416
 20
9.4988
 10
22.8938
 20
9.542
 10
22.8478
 20
9.586
 10
22.7997
 20
9.6348
 10
22.7521
 20
9.6872
 10
22.7068
 20
9.7414
 10
22.6636
 20
9.7974
 10
22.6226
 20
9.8552
 10
22.5838
 20
9.9148
 10
22.5472
 20
9.9762
 10
22.5129
 20
10.0394
 10
22.4807
 20
10.1045
 10
22.4507
 20
10.1713
 10
22.4229
 20
10.24
 10
22.3974
 20
10.3104
 10
22.374
 20
10.3827
 10
22.3529
 20
10.4568
 10
22.3339
 20
10.5326
 10
22.3171
 20
10.6103
 10
22.3026
 20
10.6898
 10
22.2902
 20
10.7711
 10
22.2801
 20
10.8542
 10
22.2722
 20
10.9391
 10
22.2664
 20
11.0259
 10
22.2629
 20
11.1144
 10
22.2615
 20
11.2047
 10
22.2623
 20
11.2919
 10
22.265
 20
11.3774
 10
22.2696
 20
11.4616
 10
22.2761
 20
11.5446
 10
22.2846
 20
11.6263
 10
22.295
 20
11.7068
 10
22.3073
 20
11.786
 10
22.3215
 20
11.8639
 10
22.3377
 20
11.9407
 10
22.3558
 20
12.0161
 10
22.3758
 20
12.0904
 10
22.3978
 20
12.1633
 10
22.4216
 20
12.235
 10
22.4474
 20
12.3055
 10
22.4752
 20
12.3747
 10
22.5048
 20
12.4427
 10
22.5364
 20
12.5094
 10
22.5699
 20
12.5749
 10
22.6053
 20
12.6391
 10
22.6427
 20
12.7021
 10
22.682
 20
12.7638
 10
22.7232
 20
12.8243
 10
22.7664
 20
12.8835
 10
22.8114
 20
12.9415
 10
22.8584
 20
12.9982
 10
22.9073
 20
13.0536
 10
22.9582
 20
13.1079
 10
23.011
 20
13.1608
 10
23.0657
 20
13.2125
 10
23.1223
 20
13.263
 10
23.1808
 20
13.3122
 10
23.2413
 20
13.3602
 10
23.3037
 20
13.4069
 10
23.3681
 20
13.4524
 10
23.4343
 20
13.4966
 10
23.5025
 20
13.5396
 10
23.5685
 20
13.5789
 10
23.6174
 20
13.6067
 10
23.6673
 20
13.634
 10
23.7182
 20
13.6608
 10
23.7701
 20
13.687
 10
23.8229
 20
13.7127
 10
23.8768
 20
13.7379
 10
23.9317
 20
13.7626
 10
23.9875
 20
13.7867
 10
24.0444
 20
13.8104
 10
24.1023
 20
13.8335
 10
24.1611
 20
13.856
 10
24.221
 20
13.8781
 10
24.2819
 20
13.8996
 10
24.3437
 20
13.9206
 10
24.4066
 20
13.9411
 10
24.4704
 20
13.9611
 10
24.5353
 20
13.9805
 10
24.6011
 20
13.9994
 10
24.668
 20
14.0178
 10
24.7358
 20
14.0357
 10
24.8047
 20
14.053
 10
24.8745
 20
14.0699
 10
24.9453
 20
14.0862
 10
25.0172
 20
14.102
 10
25.09
 20
14.1172
 10
25.1638
 20
14.1319
 10
25.2387
 20
14.1462
 10
25.3145
 20
14.1599
 10
25.3913
 20
14.173
 10
25.4691
 20
14.1857
 10
25.548
 20
14.1978
 10
25.6278
 20
14.2094
 10
25.7086
 20
14.2205
 10
25.7904
 20
14.231
 10
25.8732
 20
14.241
 10
25.957
 20
14.2505
 10
26.0418
 20
14.2595
 10
26.1276
 20
14.268
 10
26.2144
 20
14.2759
 10
26.3022
 20
14.2833
 10
26.391
 20
14.2902
 10
26.4808
 20
14.2966
 10
26.5716
 20
14.3024
 10
26.6634
 20
14.3078
 10
26.7562
 20
14.3126
 10
26.85
 20
14.3168
 10
26.9447
 20
14.3206
 10
27.0405
 20
14.3238
 10
27.1373
 20
14.3265
 10
27.2351
 20
14.3287
 10
27.3339
 20
14.3304
 10
27.4336
 20
14.3315
 10
27.5344
 20
14.3321
 10
27.6284
 20
14.3322
 10
27.7063
 20
14.332
 10
27.7841
 20
14.3314
 10
27.8618
 20
14.3305
 10
27.9393
 20
14.3293
 10
28.0168
 20
14.3278
 10
28.0942
 20
14.326
 10
28.1715
 20
14.3238
 10
28.2487
 20
14.3213
 10
28.3258
 20
14.3186
 10
28.4029
 20
14.3155
 10
28.4798
 20
14.3121
 10
28.5566
 20
14.3083
 10
28.6333
 20
14.3043
 10
28.71
 20
14.2999
 10
28.7865
 20
14.2953
 10
28.8629
 20
14.2903
 10
28.9389
 20
14.285
 10
29.0126
 20
14.2796
 10
29.0866
 20
14.274
 10
29.161
 20
14.268
 10
29.2357
 20
14.2618
 10
29.3109
 20
14.2552
 10
29.3864
 20
14.2484
 10
29.4623
 20
14.2413
 10
29.5386
 20
14.2339
 10
29.6153
 20
14.2261
 10
29.6923
 20
14.2181
 10
29.7697
 20
14.2098
 10
29.8476
 20
14.2012
 10
29.9257
 20
14.1924
 10
30.0043
 20
14.1832
 10
30.0833
 20
14.1737
 10
30.1626
 20
14.1639
 10
30.2423
 20
14.1539
 10
30.3004
 20
14.1272
 10
30.2914
 20
14.0505
 10
30.2825
 20
13.9738
 10
30.2736
 20
13.8971
 10
30.2647
 20
13.8205
 10
30.2558
 20
13.7438
 10
30.2469
 20
13.6671
 10
30.238
 20
13.5904
 10
30.2291
 20
13.5137
 10
30.2202
 20
13.4371
 10
30.2113
 20
13.3604
 10
30.2024
 20
13.2837
 10
30.1935
 20
13.207
 10
30.1846
 20
13.1303
 10
30.1757
 20
13.0537
 10
30.1668
 20
12.977
 10
30.1579
 20
12.9003
 10
30.1489
 20
12.8236
 10
30.14
 20
12.747
 10
30.1311
 20
12.6703
 10
30.1222
 20
12.5936
 10
30.1133
 20
12.5169
 10
30.1044
 20
12.4402
 10
30.0955
 20
12.3636
 10
30.0866
 20
12.2869
 10
30.0777
 20
12.2102
 10
30.0688
 20
12.1335
 10
30.0552
 20
12.0619
 10
29.968
 20
12.0699
 10
29.8819
 20
12.0775
 10
29.7971
 20
12.0849
 10
29.7135
 20
12.092
 10
29.631
 20
12.0989
 10
29.5497
 20
12.1054
 10
29.4696
 20
12.1117
 10
29.3906
 20
12.1177
 10
29.3129
 20
12.1235
 10
29.2363
 20
12.1289
 10
29.1609
 20
12.1341
 10
29.0866
 20
12.139
 10
29.0136
 20
12.1436
 10
28.9417
 20
12.148
 10
28.871
 20
12.1521
 10
28.8015
 20
12.1559
 10
28.7332
 20
12.1594
 10
28.666
 20
12.1627
 10
28.5876
 20
12.1662
 10
28.503
 20
12.1699
 10
28.4196
 20
12.1732
 10
28.3375
 20
12.1763
 10
28.2566
 20
12.1791
 10
28.177
 20
12.1816
 10
28.0986
 20
12.1839
 10
28.0215
 20
12.1858
 10
27.9456
 20
12.1875
 10
27.871
 20
12.1889
 10
27.7977
 20
12.1901
 10
27.7256
 20
12.1909
 10
27.6547
 20
12.1915
 10
27.5851
 20
12.1918
 10
27.5
 20
12.1918
 10
27.3963
 20
12.1913
 10
27.2946
 20
12.1903
 10
27.195
 20
12.1888
 10
27.0973
 20
12.1868
 10
27.0016
 20
12.1843
 10
26.9079
 20
12.1813
 10
26.8162
 20
12.1777
 10
26.7264
 20
12.1737
 10
26.6387
 20
12.1692
 10
26.5529
 20
12.1642
 10
26.4692
 20
12.1586
 10
26.3874
 20
12.1526
 10
26.3077
 20
12.146
 10
26.2299
 20
12.139
 10
26.1541
 20
12.1314
 10
26.0803
 20
12.1233
 10
26.0084
 20
12.1148
 10
25.9386
 20
12.1057
 10
25.8708
 20
12.0961
 10
25.8049
 20
12.086
 10
25.7411
 20
12.0754
 10
25.6792
 20
12.0643
 10
25.6193
 20
12.0527
 10
25.5615
 20
12.0406
 10
25.5056
 20
12.0279
 10
25.4517
 20
12.0148
 10
25.3997
 20
12.0012
 10
25.3498
 20
11.987
 10
25.2829
 20
11.9663
 10
25.1877
 20
11.9325
 10
25.0998
 20
11.896
 10
25.0194
 20
11.8566
 10
24.9465
 20
11.8144
 10
24.881
 20
11.7694
 10
24.823
 20
11.7217
 10
24.7725
 20
11.6711
 10
24.7293
 20
11.6177
 10
24.6937
 20
11.5615
 10
24.6655
 20
11.5025
 10
24.6447
 20
11.4408
 10
24.6314
 20
11.3762
 10
24.6256
 20
11.3088
 10
24.6275
 20
11.2249
 10
24.6381
 20
11.1412
 10
24.6574
 20
11.0647
 10
24.6855
 20
10.9953
 10
24.7222
 20
10.933
 10
24.7677
 20
10.8779
 10
24.8219
 20
10.8299
 10
24.8718
 20
10.7953
 10
24.9253
 20
10.7632
 10
24.9846
 20
10.732
 10
25.0494
 20
10.7017
 10
25.1199
 20
10.6724
 10
25.1959
 20
10.644
 10
25.2776
 20
10.6166
 10
25.365
 20
10.5901
 10
25.4579
 20
10.5645
 10
25.5336
 20
10.5441
 10
25.6081
 20
10.5241
 10
25.6827
 20
10.504
 10
25.7572
 20
10.4839
 10
25.8317
 20
10.4638
 10
25.9063
 20
10.4437
 10
25.9808
 20
10.4236
 10
26.0553
 20
10.4035
 10
26.1299
 20
10.3834
 10
26.2044
 20
10.3633
 10
26.2789
 20
10.3432
 10
26.3535
 20
10.3231
 10
26.428
 20
10.3031
 10
26.5025
 20
10.283
 10
26.5771
 20
10.2629
 10
26.6516
 20
10.2428
 10
26.7261
 20
10.2227
 10
26.8007
 20
10.2026
 10
26.8752
 20
10.1825
 10
26.9497
 20
10.1624
 10
27.0243
 20
10.1423
 10
27.0988
 20
10.1222
 10
27.1733
 20
10.1021
 10
27.2479
 20
10.082
 10
27.3224
 20
10.062
 10
27.3969
 20
10.0419
 10
27.4715
 20
10.0218
 10
27.546
 20
10.0017
 10
27.6205
 20
9.9816
 10
27.6951
 20
9.9615
 10
27.7696
 20
9.9414
 10
27.8442
 20
9.9213
 10
27.9359
 20
9.8974
 10
28.0264
 20
9.8727
 10
28.1152
 20
9.8475
 10
28.2024
 20
9.8215
 10
28.288
 20
9.7949
 10
28.372
 20
9.7677
 10
28.4544
 20
9.7398
 10
28.5352
 20
9.7113
 10
28.6143
 20
9.6821
 10
28.6918
 20
9.6523
 10
28.7677
 20
9.6219
 10
28.842
 20
9.5907
 10
28.9147
 20
9.559
 10
28.9857
 20
9.5266
 10
29.0552
 20
9.4935
 10
29.123
 20
9.4598
 10
29.1892
 20
9.4255
 10
29.2538
 20
9.3905
 10
29.3168
 20
9.3549
 10
29.3781
 20
9.3186
 10
29.4378
 20
9.2817
 10
29.496
 20
9.2441
 10
29.5525
 20
9.2059
 10
29.6073
 20
9.167
 10
29.6606
 20
9.1275
 10
29.7123
 20
9.0873
 10
29.7623
 20
9.0465
 10
29.8107
 20
9.005
 10
29.8575
 20
8.9629
 10
29.9037
 20
8.9192
 10
29.9557
 20
8.8668
 10
30.0056
 20
8.8129
 10
30.0534
 20
8.7575
 10
30.099
 20
8.7006
 10
30.1425
 20
8.6423
 10
30.1838
 20
8.5824
 10
30.223
 20
8.521
 10
30.2601
 20
8.4582
 10
30.295
 20
8.3938
 10
30.3278
 20
8.328
 10
30.3584
 20
8.2606
 10
30.3869
 20
8.1918
 10
30.4133
 20
8.1215
 10
30.4376
 20
8.0496
 10
30.4596
 20
7.9763
 10
30.4796
 20
7.9015
 10
30.4974
 20
7.8252
 10
30.5131
 20
7.7474
 10
30.5267
 20
7.6681
 10
30.5381
 20
7.5873
 10
30.5473
 20
7.505
 10
30.5545
 20
7.4212
 10
30.5595
 20
7.3359
 10
30.5623
 20
7.2491
 10
30.563
 20
7.161
 10
30.5618
 20
7.0733
 10
30.5586
 20
6.9869
 10
30.5535
 20
6.9018
 10
30.5466
 20
6.8181
 10
30.5377
 20
6.7356
 10
30.5269
 20
6.6544
 10
30.5142
 20
6.5746
 10
30.4997
 20
6.496
 10
30.4832
 20
6.4188
 10
30.4648
 20
6.3429
 10
30.4445
 20
6.2682
 10
30.4223
 20
6.1949
 10
30.3983
 20
6.1229
 10
30.3723
 20
6.0522
 10
30.3444
 20
5.9828
 10
30.3146
 20
5.9146
 10
30.2829
 20
5.8478
 10
30.2493
 20
5.7823
 10
30.2138
 20
5.7181
 10
30.1764
 20
5.6553
 10
30.1371
 20
5.5937
 10
30.0959
 20
5.5334
 10
30.0528
 20
5.4744
 10
30.0078
 20
5.4167
 10
29.9609
 20
5.3604
 10
29.9121
 20
5.3053
 10
29.8614
 20
5.2516
 10
29.8088
 20
5.1991
 10
29.7542
 20
5.148
 10
29.6978
 20
5.0981
 10
29.6395
 20
5.0496
 10
29.5793
 20
5.0024
 10
29.5172
 20
4.9564
 10
29.4532
 20
4.9118
 10
29.3872
 20
4.8685
 10
29.3279
 20
4.8316
 10
29.2788
 20
4.8024
 10
29.2286
 20
4.7739
 10
29.1773
 20
4.7459
 10
29.125
 20
4.7185
 10
29.0716
 20
4.6917
 10
29.0172
 20
4.6654
 10
28.9617
 20
4.6398
 10
28.9051
 20
4.6148
 10
28.8475
 20
4.5903
 10
28.7888
 20
4.5664
 10
28.7291
 20
4.5432
 10
28.6683
 20
4.5205
 10
28.6065
 20
4.4984
 10
28.5436
 20
4.4769
 10
28.4796
 20
4.4559
 10
28.4146
 20
4.4356
 10
28.3485
 20
4.4159
 10
28.2814
 20
4.3967
 10
28.2132
 20
4.3782
 10
28.144
 20
4.3602
 10
28.0737
 20
4.3428
 10
28.0023
 20
4.326
 10
27.9299
 20
4.3098
 10
27.8564
 20
4.2942
 10
27.7818
 20
4.2791
 10
27.7062
 20
4.2647
 10
27.6296
 20
4.2509
 10
27.5519
 20
4.2376
 10
27.4731
 20
4.2249
 10
27.3933
 20
4.2129
 10
27.3124
 20
4.2014
 10
27.2305
 20
4.1905
 10
27.1475
 20
4.1801
 10
27.0634
 20
4.1704
 10
26.9783
 20
4.1613
 10
26.8921
 20
4.1527
 10
26.8049
 20
4.1448
 10
26.7166
 20
4.1374
 10
26.6272
 20
4.1306
 10
26.5368
 20
4.1245
 10
26.4454
 20
4.1189
 10
26.3528
 20
4.1139
 10
26.2593
 20
4.1094
 10
26.1646
 20
4.1056
 10
26.0689
 20
4.1024
 10
25.9722
 20
4.0997
 10
25.8743
 20
4.0976
 10
25.7755
 20
4.0962
  0
LWPOLYLINE
  5
32
330
17
100
AcDbEntity
  8
OUTLINE
100
AcDbPolyline
 90
192
 70
1
 10
48.8568
 20
4.0976
 10
48.6738
 20
4.095
 10
48.4914
 20
4.0976
 10
48.3126
 20
4.1054
 10
48.1374
 20
4.1183
 10
47.9658
 20
4.1365
 10
47.7979
 20
4.1598
 10
47.6336
 20
4.1883
 10
47.4729
 20
4.2221
 10
47.3158
 20
4.261
 10
47.1623
 20
4.305
 10
47.0125
 20
4.3543
 10
46.8663
 20
4.4088
 10
46.7237
 20
4.4684
 10
46.5847
 20
4.5332
 10
46.4493
 20
4.6032
 10
46.3176
 20
4.6784
 10
46.1895
 20
4.7588
 10
46.065
 20
4.8444
 10
45.9441
 20
4.9352
 10
45.8268
 20
5.0311
 10
45.7132
 20
5.1322
 10
45.6031
 20
5.2386
 10
45.4967
 20
5.3501
 10
45.3967
 20
5.4636
 10
45.3077
 20
5.5724
 10
45.2223
 20
5.6846
 10
45.1406
 20
5.8003
 10
45.0625
 20
5.9194
 10
44.9881
 20
6.042
 10
44.9172
 20
6.168
 10
44.8501
 20
6.2974
 10
44.7865
 20
6.4303
 10
44.7266
 20
6.5667
 10
44.6703
 20
6.7065
 10
44.6177
 20
6.8497
 10
44.5687
 20
6.9964
 10
44.5233
 20
7.1466
 10
44.4816
 20
7.3001
 10
44.4434
 20
7.4572
 10
44.409
 20
7.6176
 10
44.3781
 20
7.7815
 10
44.3509
 20
7.9489
 10
44.3274
 20
8.1197
 10
44.3074
 20
8.2939
 10
44.2912
 20
8.4716
 10
44.2785
 20
8.6528
 10
44.2695
 20
8.8374
 10
44.2641
 20
9.0254
 10
44.2623
 20
9.2169
 10
44.2642
 20
9.4087
 10
44.2697
 20
9.5971
 10
44.2788
 20
9.782
 10
44.2916
 20
9.9634
 10
44.3079
 20
10.1413
 10
44.3279
 20
10.3157
 10
44.3516
 20
10.4867
 10
44.3788
 20
10.6542
 10
44.4097
 20
10.8182
 10
44.4442
 20
10.9787
 10
44.4824
 20
11.1357
 10
44.5241
 20
11.2893
 10
44.5695
 20
11.4394
 10
44.6185
 20
11.586
 10
44.6711
 20
11.7291
 10
44.7274
 20
11.8687
 10
44.7873
 20
12.0049
 10
44.8508
 20
12.1376
 10
44.918
 20
12.2668
 10
44.9887
 20
12.3925
 10
45.0631
 20
12.5147
 10
45.1411
 20
12.6334
 10
45.2228
 20
12.7487
 10
45.308
 20
12.8605
 10
45.3969
 20
12.9688
 10
45.4971
 20
13.0819
 10
45.6036
 20
13.1931
 10
45.7137
 20
13.2991
 10
45.8274
 20
13.3999
 10
45.9448
 20
13.4956
 10
46.0658
 20
13.586
 10
46.1904
 20
13.6713
 10
46.3186
 20
13.7515
 10
46.4505
 20
13.8264
 10
46.5859
 20
13.8962
 10
46.725
 20
13.9608
 10
46.8678
 20
14.0202
 10
47.0141
 20
14.0744
 10
47.1641
 20
14.1235
 10
47.3177
 20
14.1674
 10
47.475
 20
14.2061
 10
47.6358
 20
14.2397
 10
47.8003
 20
14.268
 10
47.9684
 20
14.2912
 10
48.1401
 20
14.3092
 10
48.3155
 20
14.3221
 10
48.4945
 20
14.3298
 10
48.6771
 20
14.3323
 10
48.8601
 20
14.3296
 10
49.0394
 20
14.3218
 10
49.2151
 20
14.3088
 10
49.3871
 20
14.2906
 10
49.5555
 20
14.2673
 10
49.7202
 20
14.2388
 10
49.8812
 20
14.2052
 10
50.0385
 20
14.1664
 10
50.1922
 20
14.1224
 10
50.3422
 20
14.0733
 10
50.4885
 20
14.019
 10
50.6312
 20
13.9595
 10
50.7701
 20
13.8949
 10
50.9055
 20
13.8252
 10
51.0371
 20
13.7502
 10
51.1651
 20
13.6702
 10
51.2894
 20
13.5849
 10
51.4101
 20
13.4945
 10
51.5271
 20
13.3989
 10
51.6404
 20
13.2982
 10
51.75
 20
13.1923
 10
51.856
 20
13.0812
 10
51.9556
 20
12.9682
 10
52.0441
 20
12.8598
 10
52.1291
 20
12.748
 10
52.2104
 20
12.6326
 10
52.2881
 20
12.5138
 10
52.3622
 20
12.3915
 10
52.4327
 20
12.2657
 10
52.4996
 20
12.1364
 10
52.5628
 20
12.0036
 10
52.6224
 20
11.8674
 10
52.6785
 20
11.7276
 10
52.7309
 20
11.5844
 10
52.7797
 20
11.4377
 10
52.8249
 20
11.2875
 10
52.8664
 20
11.1338
 10
52.9044
 20
10.9767
 10
52.9387
 20
10.816
 10
52.9694
 20
10.6519
 10
52.9965
 20
10.4843
 10
53.02
 20
10.3132
 10
53.0399
 20
10.1386
 10
53.0562
 20
9.9605
 10
53.0688
 20
9.779
 10
53.0779
 20
9.594
 10
53.0833
 20
9.4054
 10
53.0851
 20
9.2134
 10
53.0833
 20
9.0219
 10
53.0778
 20
8.8339
 10
53.0688
 20
8.6493
 10
53.0561
 20
8.4681
 10
53.0398
 20
8.2904
 10
53.0198
 20
8.1161
 10
52.9963
 20
7.9453
 10
52.9691
 20
7.778
 10
52.9383
 20
7.614
 10
52.9039
 20
7.4536
 10
52.8658
 20
7.2966
 10
52.8241
 20
7.143
 10
52.7788
 20
6.9929
 10
52.7299
 20
6.8462
 10
52.6774
 20
6.703
 10
52.6212
 20
6.5632
 10
52.5614
 20
6.4269
 10
52.498
 20
6.294
 10
52.431
 20
6.1645
 10
52.3603
 20
6.0386
 10
52.286
 20
5.916
 10
52.2081
 20
5.7969
 10
52.1266
 20
5.6813
 10
52.0414
 20
5.5691
 10
51.9526
 20
5.4604
 10
51.8526
 20
5.3468
 10
51.7466
 20
5.2356
 10
51.6369
 20
5.1295
 10
51.5236
 20
5.0286
 10
51.4066
 20
4.933
 10
51.2859
 20
4.8424
 10
51.1615
 20
4.7571
 10
51.0335
 20
4.6769
 10
50.9019
 20
4.6019
 10
50.7665
 20
4.5321
 10
50.6275
 20
4.4674
 10
50.4849
 20
4.4079
 10
50.3386
 20
4.3536
 10
50.1886
 20
4.3045
 10
50.0349
 20
4.2605
 10
49.8776
 20
4.2217
 10
49.7166
 20
4.1881
 10
49.552
 20
4.1597
 10
49.3837
 20
4.1364
 10
49.2117
 20
4.1183
 10
49.0361
 20
4.1053
  0
LWPOLYLINE
  5
33
330
17
100
AcDbEntity
  8
OUTLINE
100
AcDbPolyline
 90
192
 70
1
 10
48.5813
 20
6.2372
 10
48.6738
 20
6.2354
 10
48.7669
 20
6.2372
 10
48.8579
 20
6.2425
 10
48.9468
 20
6.2514
 10
49.0336
 20
6.2637
 10
49.1184
 20
6.2797
 10
49.2011
 20
6.2991
 10
49.2817
 20
6.3221
 10
49.3602
 20
6.3486
 10
49.4367
 20
6.3787
 10
49.5111
 20
6.4123
 10
49.5834
 20
6.4494
 10
49.6536
 20
6.4901
 10
49.7218
 20
6.5343
 10
49.7879
 20
6.582
 10
49.8519
 20
6.6333
 10
49.9138
 20
6.6881
 10
49.9737
 20
6.7464
 10
50.0315
 20
6.8083
 10
50.0872
 20
6.8738
 10
50.1408
 20
6.9427
 10
50.192
 20
7.0146
 10
50.2305
 20
7.073
 10
50.2675
 20
7.1332
 10
50.303
 20
7.1951
 10
50.3371
 20
7.2588
 10
50.3698
 20
7.3243
 10
50.401
 20
7.3915
 10
50.4307
 20
7.4605
 10
50.4591
 20
7.5313
 10
50.4859
 20
7.6038
 10
50.5113
 20
7.6781
 10
50.5353
 20
7.7542
 10
50.5578
 20
7.8321
 10
50.5788
 20
7.9117
 10
50.5984
 20
7.993
 10
50.6166
 20
8.0762
 10
50.6333
 20
8.1611
 10
50.6485
 20
8.2478
 10
50.6623
 20
8.3362
 10
50.6747
 20
8.4265
 10
50.6856
 20
8.5184
 10
50.6951
 20
8.6122
 10
50.7031
 20
8.7077
 10
50.7096
 20
8.805
 10
50.7147
 20
8.9041
 10
50.7184
 20
9.0049
 10
50.7206
 20
9.1075
 10
50.7213
 20
9.2119
 10
50.7206
 20
9.3167
 10
50.7184
 20
9.4197
 10
50.7148
 20
9.5209
 10
50.7098
 20
9.6203
 10
50.7032
 20
9.7179
 10
50.6953
 20
9.8138
 10
50.6858
 20
9.9078
 10
50.675
 20
10.0
 10
50.6626
 20
10.0905
 10
50.6488
 20
10.1791
 10
50.6336
 20
10.2659
 10
50.6169
 20
10.351
 10
50.5987
 20
10.4342
 10
50.5791
 20
10.5157
 10
50.558
 20
10.5953
 10
50.5355
 20
10.6732
 10
50.5116
 20
10.7493
 10
50.4861
 20
10.8235
 10
50.4592
 20
10.896
 10
50.4309
 20
10.9667
 10
50.4011
 20
11.0356
 10
50.3699
 20
11.1026
 10
50.3372
 20
11.1679
 10
50.303
 20
11.2314
 10
50.2674
 20
11.2931
 10
50.2303
 20
11.353
 10
50.1918
 20
11.4111
 10
50.1415
 20
11.4814
 10
50.0875
 20
11.5506
 10
50.0314
 20
11.6162
 10
49.9733
 20
11.6784
 10
49.9132
 20
11.7369
 10
49.851
 20
11.7919
 10
49.7869
 20
11.8434
 10
49.7207
 20
11.8913
 10
49.6524
 20
11.9357
 10
49.5822
 20
11.9766
 10
49.5099
 20
12.0139
 10
49.4356
 20
12.0476
 10
49.3593
 20
12.0778
 10
49.2809
 20
12.1045
 10
49.2005
 20
12.1276
 10
49.1181
 20
12.1471
 10
49.0337
 20
12.1632
 10
48.9472
 20
12.1756
 10
48.8587
 20
12.1846
 10
48.7682
 20
12.19
 10
48.6756
 20
12.1918
 10
48.583
 20
12.1901
 10
48.4923
 20
12.1848
 10
48.4038
 20
12.1761
 10
48.3172
 20
12.1637
 10
48.2327
 20
12.1478
 10
48.1502
 20
12.1284
 10
48.0697
 20
12.1054
 10
47.9912
 20
12.0789
 10
47.9148
 20
12.0488
 10
47.8404
 20
12.0152
 10
47.7681
 20
11.9781
 10
47.6978
 20
11.9374
 10
47.6295
 20
11.8931
 10
47.5632
 20
11.8453
 10
47.4989
 20
11.794
 10
47.4367
 20
11.7391
 10
47.3765
 20
11.6807
 10
47.3184
 20
11.6187
 10
47.2623
 20
11.5532
 10
47.2082
 20
11.4841
 10
47.1573
 20
11.4133
 10
47.1187
 20
11.3553
 10
47.0816
 20
11.2955
 10
47.046
 20
11.2338
 10
47.0118
 20
11.1704
 10
46.979
 20
11.1052
 10
46.9477
 20
11.0382
 10
46.9178
 20
10.9694
 10
46.8894
 20
10.8988
 10
46.8625
 20
10.8264
 10
46.837
 20
10.7522
 10
46.813
 20
10.6762
 10
46.7904
 20
10.5984
 10
46.7693
 20
10.5188
 10
46.7496
 20
10.4374
 10
46.7314
 20
10.3543
 10
46.7147
 20
10.2693
 10
46.6994
 20
10.1825
 10
46.6855
 20
10.0939
 10
46.6731
 20
10.0036
 10
46.6622
 20
9.9114
 10
46.6527
 20
9.8174
 10
46.6447
 20
9.7217
 10
46.6381
 20
9.6241
 10
46.633
 20
9.5248
 10
46.6293
 20
9.4236
 10
46.6271
 20
9.3207
 10
46.6263
 20
9.216
 10
46.627
 20
9.1116
 10
46.6292
 20
9.009
 10
46.6328
 20
8.9082
 10
46.6379
 20
8.8091
 10
46.6444
 20
8.7118
 10
46.6524
 20
8.6163
 10
46.6619
 20
8.5225
 10
46.6728
 20
8.4305
 10
46.6852
 20
8.3403
 10
46.699
 20
8.2518
 10
46.7143
 20
8.1651
 10
46.7311
 20
8.0801
 10
46.7493
 20
7.997
 10
46.769
 20
7.9156
 10
46.7901
 20
7.8359
 10
46.8128
 20
7.758
 10
46.8368
 20
7.6819
 10
46.8623
 20
7.6076
 10
46.8893
 20
7.535
 10
46.9178
 20
7.4642
 10
46.9477
 20
7.3951
 10
46.9791
 20
7.3279
 10
47.0119
 20
7.2623
 10
47.0462
 20
7.1986
 10
47.0819
 20
7.1366
 10
47.1192
 20
7.0764
 10
47.1578
 20
7.0179
 10
47.2088
 20
6.9466
 10
47.2628
 20
6.8772
 10
47.3189
 20
6.8115
 10
47.377
 20
6.7492
 10
47.4371
 20
6.6906
 10
47.4992
 20
6.6355
 10
47.5633
 20
6.5839
 10
47.6295
 20
6.5359
 10
47.6977
 20
6.4915
 10
47.7679
 20
6.4506
 10
47.8402
 20
6.4132
 10
47.9144
 20
6.3795
 10
47.9907
 20
6.3492
 10
48.069
 20
6.3226
 10
48.1493
 20
6.2994
 10
48.2317
 20
6.2799
 10
48.3161
 20
6.2639
 10
48.4025
 20
6.2514
 10
48.4909
 20
6.2426
  0
LWPOLYLINE
  5
34
330
17
100
AcDbEntity
  8
OUTLINE
100
AcDbPolyline
 90
303
 70
1
 10
39.302
 20
13.8332
 10
39.302
 20
13.6767
 10
39.302
 20
13.5877
 10
39.302
 20
13.5202
 10
39.302
 20
13.3638
 10
39.302
 20
13.3461
 10
39.302
 20
13.2073
 10
39.302
 20
13.1045
 10
39.302
 20
13.0508
 10
39.302
 20
12.8943
 10
39.302
 20
12.863
 10
39.302
 20
12.7379
 10
39.302
 20
12.6214
 10
39.302
 20
12.5814
 10
39.302
 20
12.4249
 10
39.302
 20
12.3798
 10
39.302
 20
12.2685
 10
39.302
 20
12.1382
 10
39.302
 20
12.112
 10
39.302
 20
11.8966
 10
39.302
 20
11.655
 10
39.302
 20
11.4135
 10
39.302
 20
11.1719
 10
39.302
 20
10.9303
 10
39.302
 20
10.6887
 10
39.302
 20
10.4471
 10
39.302
 20
10.2055
 10
39.302
 20
9.964
 10
39.302
 20
9.7224
 10
39.302
 20
9.4808
 10
39.302
 20
9.2392
 10
39.302
 20
8.9976
 10
39.302
 20
8.7561
 10
39.302
 20
8.5145
 10
39.302
 20
8.2729
 10
39.302
 20
8.0313
 10
39.302
 20
7.7897
 10
39.302
 20
7.5481
 10
39.302
 20
7.3066
 10
39.302
 20
7.065
 10
39.302
 20
6.8234
 10
39.302
 20
6.5818
 10
39.302
 20
6.3658
 10
39.3235
 20
6.3658
 10
39.4327
 20
6.3658
 10
39.5419
 20
6.3658
 10
39.651
 20
6.3658
 10
39.7602
 20
6.3658
 10
39.8693
 20
6.3658
 10
39.9785
 20
6.3658
 10
40.0877
 20
6.3658
 10
40.1968
 20
6.3658
 10
40.306
 20
6.3658
 10
40.4151
 20
6.3658
 10
40.5243
 20
6.3658
 10
40.6334
 20
6.3658
 10
40.7426
 20
6.3658
 10
40.8518
 20
6.3658
 10
40.9609
 20
6.3658
 10
41.0701
 20
6.3658
 10
41.1792
 20
6.3658
 10
41.2884
 20
6.3658
 10
41.3976
 20
6.3658
 10
41.5067
 20
6.3658
 10
41.6159
 20
6.3658
 10
41.725
 20
6.3658
 10
41.8342
 20
6.3658
 10
41.9433
 20
6.3658
 10
42.0525
 20
6.3658
 10
42.1617
 20
6.3658
 10
42.2708
 20
6.3658
 10
42.2708
 20
6.2567
 10
42.2708
 20
6.1475
 10
42.2708
 20
6.0383
 10
42.2708
 20
5.9292
 10
42.2708
 20
5.82
 10
42.2708
 20
5.7109
 10
42.2708
 20
5.6017
 10
42.2708
 20
5.4925
 10
42.2708
 20
5.3834
 10
42.2708
 20
5.2742
 10
42.2708
 20
5.1651
 10
42.2708
 20
5.0559
 10
42.2708
 20
4.9468
 10
42.2708
 20
4.8376
 10
42.2708
 20
4.7284
 10
42.2708
 20
4.6193
 10
42.2708
 20
4.5101
 10
42.2708
 20
4.401
 10
42.2708
 20
4.2918
 10
42.1723
 20
4.2811
 10
42.0632
 20
4.2811
 10
41.954
 20
4.2811
 10
41.8449
 20
4.2811
 10
41.7357
 20
4.2811
 10
41.6265
 20
4.2811
 10
41.5174
 20
4.2811
 10
41.4082
 20
4.2811
 10
41.2991
 20
4.2811
 10
41.1899
 20
4.2811
 10
41.0808
 20
4.2811
 10
40.9716
 20
4.2811
 10
40.8624
 20
4.2811
 10
40.7533
 20
4.2811
 10
40.6441
 20
4.2811
 10
40.535
 20
4.2811
 10
40.4258
 20
4.2811
 10
40.3166
 20
4.2811
 10
40.2075
 20
4.2811
 10
40.0983
 20
4.2811
 10
39.9892
 20
4.2811
 10
39.88
 20
4.2811
 10
39.7709
 20
4.2811
 10
39.6617
 20
4.2811
 10
39.5525
 20
4.2811
 10
39.4434
 20
4.2811
 10
39.3342
 20
4.2811
 10
39.2251
 20
4.2811
 10
39.1869
 20
4.2811
 10
39.1159
 20
4.2811
 10
38.9453
 20
4.2811
 10
38.7037
 20
4.2811
 10
38.4621
 20
4.2811
 10
38.2206
 20
4.2811
 10
37.979
 20
4.2811
 10
37.7374
 20
4.2811
 10
37.4958
 20
4.2811
 10
37.2542
 20
4.2811
 10
37.1706
 20
4.2811
 10
37.0463
 20
4.2811
 10
37.0126
 20
4.2811
 10
36.922
 20
4.2811
 10
36.7977
 20
4.2811
 10
36.6734
 20
4.2811
 10
36.5491
 20
4.2811
 10
36.4249
 20
4.2811
 10
36.3006
 20
4.2811
 10
36.1763
 20
4.2811
 10
36.052
 20
4.2811
 10
35.9277
 20
4.2811
 10
35.8034
 20
4.2811
 10
35.6791
 20
4.2811
 10
35.5549
 20
4.2811
 10
35.4306
 20
4.2811
 10
35.3063
 20
4.2811
 10
35.182
 20
4.2811
 10
35.0577
 20
4.2811
 10
34.9334
 20
4.2811
 10
34.8091
 20
4.2811
 10
34.6848
 20
4.2811
 10
34.5606
 20
4.2811
 10
34.4363
 20
4.2811
 10
34.312
 20
4.2811
 10
34.1877
 20
4.2811
 10
34.0634
 20
4.2811
 10
33.9391
 20
4.2811
 10
33.8148
 20
4.2811
 10
33.6906
 20
4.2811
 10
33.5663
 20
4.2811
 10
33.442
 20
4.2811
 10
33.3177
 20
4.2811
 10
33.3177
 20
4.4054
 10
33.3177
 20
4.5297
 10
33.3177
 20
4.654
 10
33.3177
 20
4.7783
 10
33.3177
 20
4.9026
 10
33.3177
 20
5.0269
 10
33.3177
 20
5.1511
 10
33.3177
 20
5.2754
 10
33.3177
 20
5.3997
 10
33.3177
 20
5.524
 10
33.3177
 20
5.6483
 10
33.3177
 20
5.7726
 10
33.3177
 20
5.8969
 10
33.3177
 20
6.0211
 10
33.3177
 20
6.1454
 10
33.3177
 20
6.2697
 10
33.3459
 20
6.3658
 10
33.4702
 20
6.3658
 10
33.5945
 20
6.3658
 10
33.7187
 20
6.3658
 10
33.843
 20
6.3658
 10
33.9673
 20
6.3658
 10
34.0916
 20
6.3658
 10
34.2159
 20
6.3658
 10
34.3402
 20
6.3658
 10
34.4645
 20
6.3658
 10
34.5888
 20
6.3658
 10
34.713
 20
6.3658
 10
34.8373
 20
6.3658
 10
34.9616
 20
6.3658
 10
35.0859
 20
6.3658
 10
35.2102
 20
6.3658
 10
35.3345
 20
6.3658
 10
35.4588
 20
6.3658
 10
35.583
 20
6.3658
 10
35.7073
 20
6.3658
 10
35.8316
 20
6.3658
 10
35.9559
 20
6.3658
 10
36.0802
 20
6.3658
 10
36.2045
 20
6.3658
 10
36.3288
 20
6.3658
 10
36.4531
 20
6.3658
 10
36.5773
 20
6.3658
 10
36.7016
 20
6.3658
 10
36.8259
 20
6.3658
 10
36.9502
 20
6.3658
 10
37.0126
 20
6.3658
 10
37.0126
 20
6.4554
 10
37.0126
 20
6.697
 10
37.0126
 20
6.9385
 10
37.0126
 20
7.1801
 10
37.0126
 20
7.4217
 10
37.0126
 20
7.6633
 10
37.0126
 20
7.9049
 10
37.0126
 20
8.1465
 10
37.0126
 20
8.388
 10
37.0126
 20
8.6296
 10
37.0126
 20
8.8712
 10
37.0126
 20
9.1128
 10
37.0126
 20
9.3544
 10
37.0126
 20
9.596
 10
37.0126
 20
9.8375
 10
37.0126
 20
10.0791
 10
37.0126
 20
10.3207
 10
37.0126
 20
10.5623
 10
37.0126
 20
10.8039
 10
37.0126
 20
11.0455
 10
37.0126
 20
11.287
 10
37.0126
 20
11.5286
 10
37.0126
 20
11.7702
 10
37.0126
 20
12.0118
 10
37.0126
 20
12.0614
 10
37.0055
 20
12.0614
 10
36.8491
 20
12.0614
 10
36.6926
 20
12.0614
 10
36.5361
 20
12.0614
 10
36.3796
 20
12.0614
 10
36.2232
 20
12.0614
 10
36.0667
 20
12.0614
 10
35.9102
 20
12.0614
 10
35.7538
 20
12.0614
 10
35.5973
 20
12.0614
 10
35.4408
 20
12.0614
 10
35.2843
 20
12.0614
 10
35.1279
 20
12.0614
 10
34.9714
 20
12.0614
 10
34.8149
 20
12.0614
 10
34.6585
 20
12.0614
 10
34.502
 20
12.0614
 10
34.3455
 20
12.0614
 10
34.189
 20
12.0614
 10
34.0326
 20
12.0614
 10
33.8761
 20
12.0614
 10
33.8761
 20
12.2179
 10
33.8761
 20
12.3744
 10
33.8761
 20
12.5309
 10
33.8761
 20
12.6873
 10
33.8761
 20
12.8438
 10
33.8761
 20
13.0003
 10
33.8761
 20
13.1567
 10
33.8761
 20
13.3132
 10
33.8761
 20
13.4697
 10
33.8761
 20
13.6262
 10
33.8761
 20
13.7826
 10
33.8761
 20
13.9391
 10
33.8761
 20
14.0956
 10
33.982
 20
14.1461
 10
34.1385
 20
14.1461
 10
34.295
 20
14.1461
 10
34.4514
 20
14.1461
 10
34.6079
 20
14.1461
 10
34.7644
 20
14.1461
 10
34.9208
 20
14.1461
 10
35.0773
 20
14.1461
 10
35.2338
 20
14.1461
 10
35.3903
 20
14.1461
 10
35.5467
 20
14.1461
 10
35.7032
 20
14.1461
 10
35.8597
 20
14.1461
 10
36.0161
 20
14.1461
 10
36.1726
 20
14.1461
 10
36.3291
 20
14.1461
 10
36.4856
 20
14.1461
 10
36.642
 20
14.1461
 10
36.7985
 20
14.1461
 10
36.955
 20
14.1461
 10
37.1114
 20
14.1461
 10
37.2679
 20
14.1461
 10
37.4244
 20
14.1461
 10
37.5809
 20
14.1461
 10
37.7373
 20
14.1461
 10
37.8938
 20
14.1461
 10
38.0503
 20
14.1461
 10
38.2067
 20
14.1461
 10
38.3632
 20
14.1461
 10
38.5197
 20
14.1461
 10
38.6762
 20
14.1461
 10
38.8326
 20
14.1461
 10
38.9891
 20
14.1461
 10
39.1456
 20
14.1461
 10
39.302
 20
14.1461
 10
39.302
 20
13.9896
  0
LWPOLYLINE
  5
35
330
17
100
AcDbEntity
  8
OUTLINE
100
AcDbPolyline
 90
245
 70
1
 10
0.2257
 20
17.4966
 10
0.3105
 20
17.4966
 10
0.4548
 20
17.4966
 10
0.6326
 20
17.4966
 10
0.684
 20
17.4966
 10
0.9132
 20
17.4966
 10
0.9546
 20
17.4966
 10
1.1424
 20
17.4966
 10
1.2767
 20
17.4966
 10
1.3715
 20
17.4966
 10
1.5987
 20
17.4966
 10
1.6007
 20
17.4966
 10
1.8299
 20
17.4966
 10
1.9208
 20
17.4966
 10
2.0591
 20
17.4966
 10
2.2882
 20
17.4966
 10
2.5174
 20
17.4966
 10
2.7466
 20
17.4966
 10
2.9758
 20
17.4966
 10
3.2049
 20
17.4966
 10
3.4341
 20
17.4966
 10
3.6633
 20
17.4966
 10
3.8925
 20
17.4966
 10
4.1216
 20
17.4966
 10
4.3508
 20
17.4966
 10
4.58
 20
17.4966
 10
4.8092
 20
17.4966
 10
5.0383
 20
17.4966
 10
5.2675
 20
17.4966
 10
5.4967
 20
17.4966
 10
5.7259
 20
17.4966
 10
5.955
 20
17.4966
 10
6.1842
 20
17.4966
 10
6.4134
 20
17.4966
 10
6.6426
 20
17.4966
 10
6.8717
 20
17.4966
 10
7.1009
 20
17.4966
 10
7.3301
 20
17.4966
 10
7.5593
 20
17.4966
 10
7.7884
 20
17.4966
 10
8.0176
 20
17.4966
 10
8.2468
 20
17.4966
 10
8.476
 20
17.4966
 10
8.7051
 20
17.4966
 10
8.9343
 20
17.4966
 10
8.9343
 20
17.2674
 10
8.9343
 20
17.0382
 10
8.9343
 20
16.809
 10
8.9343
 20
16.5799
 10
8.9343
 20
16.3507
 10
8.9343
 20
16.1215
 10
8.9343
 20
15.8923
 10
8.9343
 20
15.6632
 10
8.9343
 20
15.434
 10
8.7086
 20
15.4305
 10
8.4795
 20
15.4305
 10
8.2503
 20
15.4305
 10
8.0211
 20
15.4305
 10
7.7919
 20
15.4305
 10
7.5628
 20
15.4305
 10
7.3336
 20
15.4305
 10
7.1044
 20
15.4305
 10
6.8752
 20
15.4305
 10
6.6461
 20
15.4305
 10
6.4169
 20
15.4305
 10
6.1877
 20
15.4305
 10
5.9585
 20
15.4305
 10
5.7294
 20
15.4305
 10
5.5002
 20
15.4305
 10
5.271
 20
15.4305
 10
5.0418
 20
15.4305
 10
4.8127
 20
15.4305
 10
4.5835
 20
15.4305
 10
4.3543
 20
15.4305
 10
4.1251
 20
15.4305
 10
3.896
 20
15.4305
 10
3.6668
 20
15.4305
 10
3.4376
 20
15.4305
 10
3.2084
 20
15.4305
 10
2.9793
 20
15.4305
 10
2.7501
 20
15.4305
 10
2.5209
 20
15.4305
 10
2.2917
 20
15.4305
 10
2.2428
 20
15.4305
 10
2.2428
 20
15.2422
 10
2.2428
 20
14.9202
 10
2.2428
 20
14.5981
 10
2.2428
 20
14.2761
 10
2.2428
 20
13.9541
 10
2.2428
 20
13.632
 10
2.2428
 20
13.31
 10
2.2428
 20
12.9879
 10
2.2428
 20
12.6659
 10
2.2428
 20
12.3438
 10
2.2428
 20
12.0218
 10
2.2428
 20
11.6997
 10
2.2428
 20
11.3821
 10
2.3529
 20
11.3821
 10
2.5454
 20
11.3821
 10
2.738
 20
11.3821
 10
2.9305
 20
11.3821
 10
3.123
 20
11.3821
 10
3.3155
 20
11.3821
 10
3.5081
 20
11.3821
 10
3.7006
 20
11.3821
 10
3.8931
 20
11.3821
 10
4.0857
 20
11.3821
 10
4.2782
 20
11.3821
 10
4.4707
 20
11.3821
 10
4.6632
 20
11.3821
 10
4.8558
 20
11.3821
 10
5.0483
 20
11.3821
 10
5.2408
 20
11.3821
 10
5.4334
 20
11.3821
 10
5.6259
 20
11.3821
 10
5.8184
 20
11.3821
 10
6.011
 20
11.3821
 10
6.2035
 20
11.3821
 10
6.396
 20
11.3821
 10
6.5885
 20
11.3821
 10
6.7811
 20
11.3821
 10
6.9736
 20
11.3821
 10
7.1661
 20
11.3821
 10
7.1661
 20
11.1895
 10
7.1661
 20
10.997
 10
7.1661
 20
10.8045
 10
7.1661
 20
10.612
 10
7.1661
 20
10.4194
 10
7.1661
 20
10.2269
 10
7.1661
 20
10.0344
 10
7.1661
 20
9.8418
 10
7.1661
 20
9.6493
 10
7.1661
 20
9.4568
 10
7.1236
 20
9.3068
 10
6.9311
 20
9.3068
 10
6.7385
 20
9.3068
 10
6.546
 20
9.3068
 10
6.3535
 20
9.3068
 10
6.1609
 20
9.3068
 10
5.9684
 20
9.3068
 10
5.7759
 20
9.3068
 10
5.5833
 20
9.3068
 10
5.3908
 20
9.3068
 10
5.1983
 20
9.3068
 10
5.0058
 20
9.3068
 10
4.8132
 20
9.3068
 10
4.6207
 20
9.3068
 10
4.4282
 20
9.3068
 10
4.2356
 20
9.3068
 10
4.0431
 20
9.3068
 10
3.8506
 20
9.3068
 10
3.6581
 20
9.3068
 10
3.4655
 20
9.3068
 10
3.273
 20
9.3068
 10
3.0805
 20
9.3068
 10
2.8879
 20
9.3068
 10
2.6954
 20
9.3068
 10
2.5029
 20
9.3068
 10
2.3104
 20
9.3068
 10
2.2428
 20
9.3068
 10
2.2428
 20
9.1233
 10
2.2428
 20
8.8013
 10
2.2428
 20
8.4793
 10
2.2428
 20
8.1572
 10
2.2428
 20
7.8352
 10
2.2428
 20
7.5131
 10
2.2428
 20
7.1911
 10
2.2428
 20
6.869
 10
2.2428
 20
6.547
 10
2.2428
 20
6.2249
 10
2.2428
 20
5.9029
 10
2.2428
 20
5.5808
 10
2.2428
 20
5.2588
 10
2.2428
 20
4.9367
 10
2.2428
 20
4.6147
 10
2.2428
 20
4.2926
 10
1.9323
 20
4.2811
 10
1.6102
 20
4.2811
 10
1.2882
 20
4.2811
 10
0.9661
 20
4.2811
 10
0.6441
 20
4.2811
 10
0.322
 20
4.2811
 10
0.0
 20
4.2811
 10
0.0
 20
4.6032
 10
0.0
 20
4.9252
 10
0.0
 20
5.2473
 10
0.0
 20
5.5693
 10
0.0
 20
5.8914
 10
0.0
 20
6.2134
 10
0.0
 20
6.5355
 10
0.0
 20
6.8575
 10
0.0
 20
7.1796
 10
0.0
 20
7.5016
 10
0.0
 20
7.8236
 10
0.0
 20
8.1457
 10
0.0
 20
8.4677
 10
0.0
 20
8.7898
 10
0.0
 20
9.1118
 10
0.0
 20
9.3068
 10
0.0
 20
9.4339
 10
0.0
 20
9.4993
 10
0.0
 20
9.6919
 10
0.0
 20
9.7559
 10
0.0
 20
9.8844
 10
0.0
 20
10.0769
 10
0.0
 20
10.078
 10
0.0
 20
10.2695
 10
0.0
 20
10.4
 10
0.0
 20
10.462
 10
0.0
 20
10.6545
 10
0.0
 20
10.7221
 10
0.0
 20
10.847
 10
0.0
 20
11.0396
 10
0.0
 20
11.0441
 10
0.0
 20
11.2321
 10
0.0
 20
11.3662
 10
0.0
 20
11.6882
 10
0.0
 20
12.0103
 10
0.0
 20
12.3323
 10
0.0
 20
12.6544
 10
0.0
 20
12.9764
 10
0.0
 20
13.2984
 10
0.0
 20
13.6205
 10
0.0
 20
13.9425
 10
0.0
 20
14.2646
 10
0.0
 20
14.5866
 10
0.0
 20
14.9087
 10
0.0
 20
15.2307
 10
0.0
 20
15.4305
 10
0.0
 20
15.5528
 10
0.0
 20
15.6597
 10
0.0
 20
15.8748
 10
0.0
 20
15.8888
 10
0.0
 20
16.118
 10
0.0
 20
16.1969
 10
0.0
 20
16.3472
 10
0.0
 20
16.5189
 10
0.0
 20
16.5764
 10
0.0
 20
16.8055
 10
0.0
 20
16.841
 10
0.0
 20
17.0347
 10
0.0
 20
17.163
 10
0.0
 20
17.2639
 10
0.0
 20
17.4851
 10
0.0
 20
17.4931
  0
LWPOLYLINE
  5
36
330
17
100
AcDbEntity
  8
OUTLINE
100
AcDbPolyline
 90
192
 70
1
 10
38.1728
 20
15.573
 10
38.1189
 20
15.5708
 10
38.0643
 20
15.57
 10
38.0096
 20
15.5708
 10
37.9558
 20
15.573
 10
37.9027
 20
15.5767
 10
37.8505
 20
15.5819
 10
37.7991
 20
15.5886
 10
37.7485
 20
15.5968
 10
37.6987
 20
15.6064
 10
37.6497
 20
15.6176
 10
37.6015
 20
15.6302
 10
37.5541
 20
15.6444
 10
37.5075
 20
15.66
 10
37.4617
 20
15.6771
 10
37.4168
 20
15.6956
 10
37.3726
 20
15.7157
 10
37.3293
 20
15.7373
 10
37.2867
 20
15.7603
 10
37.245
 20
15.7848
 10
37.204
 20
15.8108
 10
37.1639
 20
15.8383
 10
37.1246
 20
15.8673
 10
37.0861
 20
15.8978
 10
37.0484
 20
15.9298
 10
37.0115
 20
15.9632
 10
36.9754
 20
15.9981
 10
36.9405
 20
16.0342
 10
36.907
 20
16.0711
 10
36.875
 20
16.1088
 10
36.8446
 20
16.1473
 10
36.8156
 20
16.1866
 10
36.7881
 20
16.2267
 10
36.7621
 20
16.2676
 10
36.7375
 20
16.3094
 10
36.7145
 20
16.3519
 10
36.6929
 20
16.3952
 10
36.6728
 20
16.4394
 10
36.6543
 20
16.4844
 10
36.6372
 20
16.5301
 10
36.6216
 20
16.5767
 10
36.6074
 20
16.6241
 10
36.5948
 20
16.6723
 10
36.5836
 20
16.7213
 10
36.574
 20
16.7711
 10
36.5658
 20
16.8217
 10
36.5591
 20
16.8732
 10
36.5539
 20
16.9254
 10
36.5502
 20
16.9784
 10
36.5479
 20
17.0323
 10
36.5472
 20
17.087
 10
36.5479
 20
17.1416
 10
36.5502
 20
17.1955
 10
36.5539
 20
17.2485
 10
36.5591
 20
17.3008
 10
36.5657
 20
17.3522
 10
36.5739
 20
17.4028
 10
36.5836
 20
17.4526
 10
36.5947
 20
17.5017
 10
36.6073
 20
17.5499
 10
36.6215
 20
17.5972
 10
36.6371
 20
17.6438
 10
36.6542
 20
17.6896
 10
36.6727
 20
17.7346
 10
36.6928
 20
17.7787
 10
36.7143
 20
17.8221
 10
36.7374
 20
17.8646
 10
36.7619
 20
17.9064
 10
36.7879
 20
17.9473
 10
36.8154
 20
17.9874
 10
36.8444
 20
18.0267
 10
36.8749
 20
18.0652
 10
36.9068
 20
18.1029
 10
36.9403
 20
18.1398
 10
36.9752
 20
18.1759
 10
37.0113
 20
18.2108
 10
37.0482
 20
18.2442
 10
37.0859
 20
18.2762
 10
37.1244
 20
18.3067
 10
37.1637
 20
18.3357
 10
37.2038
 20
18.3631
 10
37.2447
 20
18.3892
 10
37.2865
 20
18.4137
 10
37.329
 20
18.4367
 10
37.3724
 20
18.4583
 10
37.4165
 20
18.4783
 10
37.4615
 20
18.4969
 10
37.5073
 20
18.514
 10
37.5539
 20
18.5296
 10
37.6012
 20
18.5437
 10
37.6494
 20
18.5564
 10
37.6984
 20
18.5675
 10
37.7483
 20
18.5772
 10
37.7989
 20
18.5854
 10
37.8503
 20
18.5921
 10
37.9025
 20
18.5973
 10
37.9556
 20
18.601
 10
38.0094
 20
18.6032
 10
38.0641
 20
18.604
 10
38.1187
 20
18.6032
 10
38.1726
 20
18.601
 10
38.2256
 20
18.5973
 10
38.2779
 20
18.5921
 10
38.3293
 20
18.5854
 10
38.3799
 20
18.5773
 10
38.4298
 20
18.5676
 10
38.4788
 20
18.5565
 10
38.527
 20
18.5438
 10
38.5744
 20
18.5297
 10
38.6209
 20
18.5141
 10
38.6667
 20
18.497
 10
38.7117
 20
18.4784
 10
38.7559
 20
18.4584
 10
38.7992
 20
18.4368
 10
38.8418
 20
18.4138
 10
38.8835
 20
18.3893
 10
38.9244
 20
18.3633
 10
38.9645
 20
18.3358
 10
39.0038
 20
18.3068
 10
39.0423
 20
18.2763
 10
39.08
 20
18.2444
 10
39.1169
 20
18.2109
 10
39.153
 20
18.176
 10
39.1879
 20
18.1399
 10
39.2214
 20
18.1031
 10
39.2533
 20
18.0654
 10
39.2838
 20
18.0269
 10
39.3128
 20
17.9876
 10
39.3403
 20
17.9474
 10
39.3663
 20
17.9065
 10
39.3909
 20
17.8648
 10
39.4139
 20
17.8222
 10
39.4354
 20
17.7789
 10
39.4555
 20
17.7347
 10
39.4741
 20
17.6898
 10
39.4912
 20
17.644
 10
39.5068
 20
17.5974
 10
39.5209
 20
17.55
 10
39.5336
 20
17.5018
 10
39.5447
 20
17.4528
 10
39.5544
 20
17.403
 10
39.5626
 20
17.3524
 10
39.5692
 20
17.301
 10
39.5744
 20
17.2487
 10
39.5782
 20
17.1957
 10
39.5804
 20
17.1418
 10
39.5811
 20
17.0872
 10
39.5804
 20
17.0325
 10
39.5782
 20
16.9786
 10
39.5745
 20
16.9256
 10
39.5693
 20
16.8734
 10
39.5626
 20
16.8219
 10
39.5544
 20
16.7713
 10
39.5447
 20
16.7215
 10
39.5336
 20
16.6725
 10
39.5209
 20
16.6243
 10
39.5068
 20
16.5769
 10
39.4912
 20
16.5303
 10
39.4741
 20
16.4845
 10
39.4555
 20
16.4396
 10
39.4355
 20
16.3954
 10
39.4139
 20
16.3521
 10
39.3909
 20
16.3095
 10
39.3664
 20
16.2678
 10
39.3404
 20
16.2269
 10
39.3129
 20
16.1867
 10
39.2839
 20
16.1474
 10
39.2534
 20
16.1089
 10
39.2214
 20
16.0712
 10
39.188
 20
16.0344
 10
39.1531
 20
15.9983
 10
39.117
 20
15.9633
 10
39.0801
 20
15.9299
 10
39.0424
 20
15.8979
 10
39.0039
 20
15.8674
 10
38.9646
 20
15.8384
 10
38.9245
 20
15.8109
 10
38.8836
 20
15.7849
 10
38.8419
 20
15.7604
 10
38.7993
 20
15.7373
 10
38.756
 20
15.7158
 10
38.7118
 20
15.6957
 10
38.6668
 20
15.6771
 10
38.6211
 20
15.66
 10
38.5745
 20
15.6444
 10
38.5271
 20
15.6302
 10
38.4789
 20
15.6176
 10
38.4299
 20
15.6065
 10
38.3801
 20
15.5968
 10
38.3295
 20
15.5886
 10
38.2781
 20
15.5819
 10
38.2258
 20
15.5767
  0
LWPOLYLINE
  5
37
330
17
100
AcDbEntity
  8
OUTLINE
100
AcDbPolyline
 90
329
 70
1
 10
80.3363
 20
12.3593
 10
80.3395
 20
12.3593
 10
80.4355
 20
12.3593
 10
80.5006
 20
12.4026
 10
80.521
 20
12.5087
 10
80.5445
 20
12.6119
 10
80.571
 20
12.7121
 10
80.6004
 20
12.8095
 10
80.6329
 20
12.9038
 10
80.6684
 20
12.9953
 10
80.7068
 20
13.0838
 10
80.7483
 20
13.1693
 10
80.7927
 20
13.2519
 10
80.8402
 20
13.3316
 10
80.8906
 20
13.4084
 10
80.9441
 20
13.4822
 10
81.0006
 20
13.5531
 10
81.06
 20
13.621
 10
81.1224
 20
13.686
 10
81.1879
 20
13.7481
 10
81.2563
 20
13.8072
 10
81.324
 20
13.8604
 10
81.3918
 20
13.9091
 10
81.4623
 20
13.955
 10
81.5354
 20
13.9984
 10
81.6112
 20
14.0391
 10
81.6896
 20
14.0771
 10
81.7706
 20
14.1125
 10
81.8543
 20
14.1453
 10
81.9407
 20
14.1754
 10
82.0296
 20
14.2029
 10
82.1213
 20
14.2277
 10
82.2155
 20
14.2499
 10
82.3125
 20
14.2694
 10
82.412
 20
14.2863
 10
82.5142
 20
14.3006
 10
82.6191
 20
14.3122
 10
82.7266
 20
14.3212
 10
82.8367
 20
14.3275
 10
82.9495
 20
14.3312
 10
83.0642
 20
14.3322
 10
83.1728
 20
14.3309
 10
83.2799
 20
14.3273
 10
83.3855
 20
14.3215
 10
83.4897
 20
14.3134
 10
83.5924
 20
14.3031
 10
83.6936
 20
14.2906
 10
83.7933
 20
14.2758
 10
83.8916
 20
14.2588
 10
83.9883
 20
14.2396
 10
84.0836
 20
14.2181
 10
84.1775
 20
14.1944
 10
84.2698
 20
14.1685
 10
84.3607
 20
14.1403
 10
84.4501
 20
14.1099
 10
84.538
 20
14.0773
 10
84.6244
 20
14.0424
 10
84.7094
 20
14.0053
 10
84.7929
 20
13.9659
 10
84.8749
 20
13.9243
 10
84.9554
 20
13.8805
 10
85.0345
 20
13.8345
 10
85.1121
 20
13.7862
 10
85.1882
 20
13.7357
 10
85.2628
 20
13.6829
 10
85.336
 20
13.6279
 10
85.4076
 20
13.5707
 10
85.4779
 20
13.5112
 10
85.5466
 20
13.4496
 10
85.6138
 20
13.3856
 10
85.6796
 20
13.3195
 10
85.7439
 20
13.2511
 10
85.8067
 20
13.1804
 10
85.8681
 20
13.1076
 10
85.9279
 20
13.0325
 10
85.9801
 20
12.9635
 10
86.027
 20
12.8986
 10
86.0727
 20
12.8324
 10
86.1172
 20
12.7649
 10
86.1606
 20
12.6961
 10
86.2029
 20
12.6259
 10
86.244
 20
12.5544
 10
86.284
 20
12.4816
 10
86.3228
 20
12.4074
 10
86.3605
 20
12.3319
 10
86.397
 20
12.2551
 10
86.4324
 20
12.1769
 10
86.4666
 20
12.0975
 10
86.4997
 20
12.0166
 10
86.5317
 20
11.9345
 10
86.5625
 20
11.851
 10
86.5921
 20
11.7662
 10
86.6206
 20
11.6801
 10
86.648
 20
11.5926
 10
86.6742
 20
11.5038
 10
86.6993
 20
11.4137
 10
86.7232
 20
11.3222
 10
86.746
 20
11.2295
 10
86.7676
 20
11.1353
 10
86.7881
 20
11.0399
 10
86.8075
 20
10.9431
 10
86.8257
 20
10.845
 10
86.8428
 20
10.7456
 10
86.8587
 20
10.6448
 10
86.8734
 20
10.5427
 10
86.8871
 20
10.4393
 10
86.8995
 20
10.3345
 10
86.9109
 20
10.2285
 10
86.9211
 20
10.121
 10
86.9301
 20
10.0123
 10
86.938
 20
9.9022
 10
86.9447
 20
9.7908
 10
86.9503
 20
9.6781
 10
86.9548
 20
9.564
 10
86.9581
 20
9.4486
 10
86.9603
 20
9.3319
 10
86.9613
 20
9.2138
 10
86.9612
 20
9.0949
 10
86.9599
 20
8.9771
 10
86.9574
 20
8.8607
 10
86.9537
 20
8.7456
 10
86.9489
 20
8.6319
 10
86.9428
 20
8.5196
 10
86.9356
 20
8.4086
 10
86.9272
 20
8.299
 10
86.9176
 20
8.1907
 10
86.9069
 20
8.0838
 10
86.8949
 20
7.9782
 10
86.8818
 20
7.8741
 10
86.8675
 20
7.7712
 10
86.852
 20
7.6698
 10
86.8354
 20
7.5697
 10
86.8175
 20
7.471
 10
86.7985
 20
7.3736
 10
86.7783
 20
7.2776
 10
86.7569
 20
7.1829
 10
86.7343
 20
7.0896
 10
86.7106
 20
6.9977
 10
86.6856
 20
6.9071
 10
86.6595
 20
6.8179
 10
86.6322
 20
6.7301
 10
86.6037
 20
6.6436
 10
86.5741
 20
6.5584
 10
86.5432
 20
6.4747
 10
86.5112
 20
6.3923
 10
86.478
 20
6.3112
 10
86.4436
 20
6.2315
 10
86.408
 20
6.1532
 10
86.3713
 20
6.0762
 10
86.3334
 20
6.0006
 10
86.2942
 20
5.9264
 10
86.254
 20
5.8535
 10
86.2125
 20
5.782
 10
86.1698
 20
5.7119
 10
86.126
 20
5.6431
 10
86.081
 20
5.5756
 10
86.0348
 20
5.5095
 10
85.9874
 20
5.4448
 10
85.9362
 20
5.3781
 10
85.8761
 20
5.3037
 10
85.8145
 20
5.2316
 10
85.7514
 20
5.1617
 10
85.6869
 20
5.0939
 10
85.6209
 20
5.0285
 10
85.5534
 20
4.9652
 10
85.4844
 20
4.9041
 10
85.414
 20
4.8453
 10
85.342
 20
4.7887
 10
85.2686
 20
4.7343
 10
85.1937
 20
4.6822
 10
85.1173
 20
4.6322
 10
85.0394
 20
4.5845
 10
84.9601
 20
4.539
 10
84.8792
 20
4.4957
 10
84.7969
 20
4.4546
 10
84.7131
 20
4.4158
 10
84.6278
 20
4.3791
 10
84.5411
 20
4.3447
 10
84.4528
 20
4.3125
 10
84.3631
 20
4.2826
 10
84.2719
 20
4.2548
 10
84.1792
 20
4.2293
 10
84.085
 20
4.206
 10
83.9894
 20
4.1849
 10
83.8922
 20
4.166
 10
83.7936
 20
4.1494
 10
83.6935
 20
4.135
 10
83.5919
 20
4.1227
 10
83.4888
 20
4.1128
 10
83.3843
 20
4.105
 10
83.2782
 20
4.0994
 10
83.1707
 20
4.0961
 10
83.0617
 20
4.095
 10
82.9503
 20
4.0964
 10
82.8412
 20
4.1006
 10
82.7344
 20
4.1075
 10
82.6299
 20
4.1172
 10
82.5278
 20
4.1298
 10
82.428
 20
4.1451
 10
82.3304
 20
4.1631
 10
82.2352
 20
4.184
 10
82.1424
 20
4.2076
 10
82.0518
 20
4.234
 10
81.9636
 20
4.2632
 10
81.8776
 20
4.2952
 10
81.794
 20
4.33
 10
81.7127
 20
4.3675
 10
81.6337
 20
4.4078
 10
81.5571
 20
4.451
 10
81.4827
 20
4.4968
 10
81.4107
 20
4.5455
 10
81.341
 20
4.597
 10
81.2695
 20
4.6548
 10
81.2012
 20
4.7156
 10
81.1361
 20
4.7793
 10
81.0744
 20
4.846
 10
81.016
 20
4.9156
 10
80.9608
 20
4.9882
 10
80.909
 20
5.0637
 10
80.8604
 20
5.1421
 10
80.8151
 20
5.2235
 10
80.7732
 20
5.3078
 10
80.7345
 20
5.3951
 10
80.6991
 20
5.4853
 10
80.667
 20
5.5784
 10
80.6381
 20
5.6744
 10
80.6126
 20
5.7734
 10
80.5904
 20
5.8754
 10
80.5714
 20
5.9802
 10
80.5407
 20
6.0679
 10
80.4446
 20
6.0679
 10
80.3629
 20
6.0679
 10
80.3629
 20
5.8792
 10
80.3629
 20
5.6066
 10
80.3629
 20
5.334
 10
80.3629
 20
5.0614
 10
80.3629
 20
4.7888
 10
80.3629
 20
4.5162
 10
80.3629
 20
4.2436
 10
80.3629
 20
3.971
 10
80.3629
 20
3.6984
 10
80.3629
 20
3.4258
 10
80.3629
 20
3.1532
 10
80.3629
 20
2.8806
 10
80.3629
 20
2.608
 10
80.3629
 20
2.3354
 10
80.3629
 20
2.0628
 10
80.3629
 20
1.7902
 10
80.3629
 20
1.5176
 10
80.3629
 20
1.245
 10
80.3629
 20
0.9724
 10
80.3629
 20
0.6998
 10
80.3629
 20
0.4272
 10
80.3629
 20
0.1546
 10
80.2449
 20
-0.0
 10
79.9723
 20
-0.0
 10
79.6997
 20
-0.0
 10
79.4271
 20
-0.0
 10
79.1545
 20
-0.0
 10
78.8819
 20
-0.0
 10
78.6093
 20
-0.0
 10
78.3367
 20
-0.0
 10
78.0641
 20
-0.0
 10
78.0641
 20
0.2726
 10
78.0641
 20
0.5452
 10
78.0641
 20
0.8178
 10
78.0641
 20
1.0904
 10
78.0641
 20
1.363
 10
78.0641
 20
1.6356
 10
78.0641
 20
1.9082
 10
78.0641
 20
2.1808
 10
78.0641
 20
2.4534
 10
78.0641
 20
2.726
 10
78.0641
 20
2.9986
 10
78.0641
 20
3.2712
 10
78.0641
 20
3.5438
 10
78.0641
 20
3.8164
 10
78.0641
 20
4.089
 10
78.0641
 20
4.3616
 10
78.0641
 20
4.6342
 10
78.0641
 20
4.9068
 10
78.0641
 20
5.1794
 10
78.0641
 20
5.452
 10
78.0641
 20
5.7246
 10
78.0641
 20
5.9972
 10
78.0641
 20
6.2698
 10
78.0641
 20
6.5424
 10
78.0641
 20
6.815
 10
78.0641
 20
7.0876
 10
78.0641
 20
7.3602
 10
78.0641
 20
7.6328
 10
78.0641
 20
7.9054
 10
78.0641
 20
8.178
 10
78.0641
 20
8.4506
 10
78.0641
 20
8.7232
 10
78.0641
 20
8.9958
 10
78.0641
 20
9.2684
 10
78.0641
 20
9.541
 10
78.0641
 20
9.8136
 10
78.0641
 20
10.0862
 10
78.0641
 20
10.3588
 10
78.0641
 20
10.6314
 10
78.0641
 20
10.904
 10
78.0641
 20
11.1766
 10
78.0641
 20
11.4492
 10
78.0641
 20
11.7218
 10
78.0641
 20
11.9944
 10
78.0641
 20
12.267
 10
78.0641
 20
12.5396
 10
78.0641
 20
12.8122
 10
78.0641
 20
13.0848
 10
78.0641
 20
13.3574
 10
78.0641
 20
13.63
 10
78.0641
 20
13.9026
 10
78.0931
 20
14.1461
 10
78.3657
 20
14.1461
 10
78.6383
 20
14.1461
 10
78.9109
 20
14.1461
 10
79.1835
 20
14.1461
 10
79.4561
 20
14.1461
 10
79.7287
 20
14.1461
 10
80.0013
 20
14.1461
 10
80.1854
 20
14.0493
 10
80.2096
 20
13.7778
 10
80.2339
 20
13.5063
 10
80.2581
 20
13.2347
 10
80.2823
 20
12.9632
 10
80.3066
 20
12.6917
 10
80.3308
 20
12.4202
  0
LWPOLYLINE
  5
38
330
17
100
AcDbEntity
  8
OUTLINE
100
AcDbPolyline
 90
177
 70
1
 10
80.3629
 20
9.4316
 10
80.3629
 20
9.423
 10
80.3629
 20
9.1504
 10
80.3629
 20
9.059
 10
80.3629
 20
9.059
 10
80.364
 20
8.9361
 10
80.3669
 20
8.8159
 10
80.3716
 20
8.6985
 10
80.378
 20
8.5838
 10
80.3863
 20
8.4718
 10
80.3964
 20
8.3626
 10
80.4082
 20
8.2561
 10
80.4218
 20
8.1523
 10
80.4373
 20
8.0513
 10
80.4545
 20
7.9531
 10
80.4735
 20
7.8575
 10
80.4942
 20
7.7648
 10
80.5168
 20
7.6747
 10
80.5412
 20
7.5874
 10
80.5673
 20
7.5029
 10
80.5953
 20
7.4211
 10
80.625
 20
7.342
 10
80.6565
 20
7.2656
 10
80.6898
 20
7.192
 10
80.7249
 20
7.1212
 10
80.7618
 20
7.0531
 10
80.8004
 20
6.9877
 10
80.8409
 20
6.9251
 10
80.8887
 20
6.8578
 10
80.9445
 20
6.7875
 10
81.0036
 20
6.7211
 10
81.0661
 20
6.6585
 10
81.132
 20
6.5999
 10
81.2013
 20
6.5452
 10
81.2739
 20
6.4944
 10
81.3499
 20
6.4475
 10
81.4293
 20
6.4046
 10
81.512
 20
6.3655
 10
81.5981
 20
6.3303
 10
81.6875
 20
6.299
 10
81.7804
 20
6.2717
 10
81.8765
 20
6.2482
 10
81.9761
 20
6.2287
 10
82.079
 20
6.2131
 10
82.1853
 20
6.2013
 10
82.295
 20
6.1935
 10
82.408
 20
6.1896
 10
82.5208
 20
6.1896
 10
82.6285
 20
6.1936
 10
82.7336
 20
6.2016
 10
82.8358
 20
6.2137
 10
82.9353
 20
6.2298
 10
83.0319
 20
6.2499
 10
83.1258
 20
6.274
 10
83.2169
 20
6.3021
 10
83.3053
 20
6.3343
 10
83.3908
 20
6.3705
 10
83.4736
 20
6.4107
 10
83.5536
 20
6.4549
 10
83.6308
 20
6.5032
 10
83.7052
 20
6.5555
 10
83.7769
 20
6.6118
 10
83.8458
 20
6.6721
 10
83.9118
 20
6.7365
 10
83.9751
 20
6.8048
 10
84.0357
 20
6.8772
 10
84.0919
 20
6.9515
 10
84.136
 20
7.0153
 10
84.1782
 20
7.0815
 10
84.2186
 20
7.1502
 10
84.2571
 20
7.2213
 10
84.2938
 20
7.2948
 10
84.3285
 20
7.3708
 10
84.3614
 20
7.4493
 10
84.3925
 20
7.5302
 10
84.4216
 20
7.6135
 10
84.4489
 20
7.6992
 10
84.4743
 20
7.7875
 10
84.4979
 20
7.8781
 10
84.5196
 20
7.9712
 10
84.5394
 20
8.0667
 10
84.5573
 20
8.1647
 10
84.5734
 20
8.2651
 10
84.5876
 20
8.3679
 10
84.5999
 20
8.4732
 10
84.6104
 20
8.5809
 10
84.6189
 20
8.6911
 10
84.6257
 20
8.8037
 10
84.6305
 20
8.9188
 10
84.6335
 20
9.0362
 10
84.6346
 20
9.1562
 10
84.6338
 20
9.2754
 10
84.6313
 20
9.3922
 10
84.6269
 20
9.5068
 10
84.6207
 20
9.6191
 10
84.6127
 20
9.7291
 10
84.6029
 20
9.8369
 10
84.5913
 20
9.9424
 10
84.5778
 20
10.0456
 10
84.5626
 20
10.1466
 10
84.5455
 20
10.2453
 10
84.5266
 20
10.3417
 10
84.5059
 20
10.4359
 10
84.4834
 20
10.5277
 10
84.4591
 20
10.6174
 10
84.4329
 20
10.7047
 10
84.405
 20
10.7898
 10
84.3752
 20
10.8726
 10
84.3436
 20
10.9532
 10
84.3102
 20
11.0315
 10
84.275
 20
11.1075
 10
84.238
 20
11.1813
 10
84.1991
 20
11.2527
 10
84.1585
 20
11.322
 10
84.116
 20
11.3889
 10
84.0705
 20
11.4553
 10
84.0116
 20
11.5341
 10
83.95
 20
11.6086
 10
83.8859
 20
11.679
 10
83.8192
 20
11.7453
 10
83.7499
 20
11.8073
 10
83.678
 20
11.8652
 10
83.6035
 20
11.919
 10
83.5264
 20
11.9685
 10
83.4466
 20
12.0139
 10
83.3643
 20
12.0551
 10
83.2794
 20
12.0921
 10
83.1919
 20
12.1249
 10
83.1017
 20
12.1536
 10
83.009
 20
12.1781
 10
82.9137
 20
12.1985
 10
82.8158
 20
12.2146
 10
82.7152
 20
12.2266
 10
82.6121
 20
12.2345
 10
82.5064
 20
12.2381
 10
82.3969
 20
12.2376
 10
82.2887
 20
12.233
 10
82.1834
 20
12.2243
 10
82.081
 20
12.2116
 10
81.9816
 20
12.1948
 10
81.8851
 20
12.1739
 10
81.7915
 20
12.1489
 10
81.7008
 20
12.1199
 10
81.6131
 20
12.0867
 10
81.5283
 20
12.0495
 10
81.4464
 20
12.0082
 10
81.3675
 20
11.9629
 10
81.2915
 20
11.9135
 10
81.2184
 20
11.8599
 10
81.1483
 20
11.8024
 10
81.081
 20
11.7407
 10
81.0167
 20
11.675
 10
80.9554
 20
11.6051
 10
80.8969
 20
11.5312
 10
80.8523
 20
11.4691
 10
80.8104
 20
11.4053
 10
80.7703
 20
11.3388
 10
80.7321
 20
11.2697
 10
80.6958
 20
11.1978
 10
80.6614
 20
11.1233
 10
80.6288
 20
11.0461
 10
80.5981
 20
10.9662
 10
80.5693
 20
10.8836
 10
80.5424
 20
10.7983
 10
80.5174
 20
10.7103
 10
80.4942
 20
10.6196
 10
80.4729
 20
10.5263
 10
80.4535
 20
10.4303
 10
80.436
 20
10.3315
 10
80.4204
 20
10.2301
 10
80.4066
 20
10.126
 10
80.3947
 20
10.0192
 10
80.3847
 20
9.9097
 10
80.3766
 20
9.7976
 10
80.3704
 20
9.6827
 10
80.366
 20
9.5652
 10
80.3635
 20
9.4449
  0
LWPOLYLINE
  5
39
330
17
100
AcDbEntity
  8
OUTLINE
100
AcDbPolyline
 90
562
 70
1
 10
95.1204
 20
6.2344
 10
95.1142
 20
6.3367
 10
95.1124
 20
6.3658
 10
95.051
 20
6.3658
 10
94.983
 20
6.3658
 10
94.9151
 20
6.3658
 10
94.9001
 20
6.3658
 10
94.8938
 20
6.3078
 10
94.8844
 20
6.2365
 10
94.8735
 20
6.1663
 10
94.8612
 20
6.0972
 10
94.8474
 20
6.0294
 10
94.8321
 20
5.9627
 10
94.8154
 20
5.8971
 10
94.7971
 20
5.8327
 10
94.7775
 20
5.7695
 10
94.7563
 20
5.7074
 10
94.7337
 20
5.6465
 10
94.7096
 20
5.5868
 10
94.6841
 20
5.5282
 10
94.6571
 20
5.4708
 10
94.6286
 20
5.4146
 10
94.5987
 20
5.3595
 10
94.5673
 20
5.3055
 10
94.5344
 20
5.2528
 10
94.4981
 20
5.1982
 10
94.4593
 20
5.1435
 10
94.419
 20
5.0902
 10
94.3773
 20
5.0382
 10
94.3341
 20
4.9877
 10
94.2894
 20
4.9385
 10
94.2433
 20
4.8908
 10
94.1957
 20
4.8445
 10
94.1466
 20
4.7995
 10
94.0961
 20
4.756
 10
94.0441
 20
4.7138
 10
93.9906
 20
4.673
 10
93.9357
 20
4.6337
 10
93.8793
 20
4.5957
 10
93.8214
 20
4.5592
 10
93.762
 20
4.524
 10
93.7012
 20
4.4902
 10
93.639
 20
4.4579
 10
93.5752
 20
4.4269
 10
93.51
 20
4.3973
 10
93.4472
 20
4.3707
 10
93.3907
 20
4.3482
 10
93.3332
 20
4.3267
 10
93.2749
 20
4.3061
 10
93.2157
 20
4.2865
 10
93.1556
 20
4.2678
 10
93.0947
 20
4.2501
 10
93.0328
 20
4.2333
 10
92.9701
 20
4.2175
 10
92.9065
 20
4.2027
 10
92.8421
 20
4.1888
 10
92.7767
 20
4.1759
 10
92.7105
 20
4.1639
 10
92.6434
 20
4.1529
 10
92.5754
 20
4.1429
 10
92.5066
 20
4.1338
 10
92.4368
 20
4.1256
 10
92.3662
 20
4.1185
 10
92.2947
 20
4.1122
 10
92.2223
 20
4.107
 10
92.1491
 20
4.1027
 10
92.075
 20
4.0993
 10
92.0
 20
4.0969
 10
91.9241
 20
4.0955
 10
91.8473
 20
4.095
 10
91.766
 20
4.0955
 10
91.6857
 20
4.0971
 10
91.6064
 20
4.0997
 10
91.528
 20
4.1033
 10
91.4505
 20
4.108
 10
91.374
 20
4.1138
 10
91.2985
 20
4.1206
 10
91.224
 20
4.1284
 10
91.1504
 20
4.1373
 10
91.0777
 20
4.1472
 10
91.0061
 20
4.1581
 10
90.9354
 20
4.1701
 10
90.8656
 20
4.1832
 10
90.7968
 20
4.1973
 10
90.729
 20
4.2124
 10
90.6621
 20
4.2286
 10
90.5962
 20
4.2458
 10
90.5312
 20
4.264
 10
90.4672
 20
4.2833
 10
90.4042
 20
4.3037
 10
90.3421
 20
4.3251
 10
90.281
 20
4.3475
 10
90.2209
 20
4.371
 10
90.1617
 20
4.3955
 10
90.1035
 20
4.4211
 10
90.0462
 20
4.4477
 10
89.9899
 20
4.4753
 10
89.9346
 20
4.504
 10
89.8802
 20
4.5338
 10
89.8267
 20
4.5645
 10
89.7743
 20
4.5964
 10
89.7228
 20
4.6292
 10
89.6722
 20
4.6632
 10
89.6226
 20
4.6981
 10
89.574
 20
4.7341
 10
89.5264
 20
4.7712
 10
89.4797
 20
4.8092
 10
89.4339
 20
4.8484
 10
89.3864
 20
4.891
 10
89.3394
 20
4.9355
 10
89.2937
 20
4.9811
 10
89.2495
 20
5.0276
 10
89.2066
 20
5.0752
 10
89.1651
 20
5.1237
 10
89.125
 20
5.1733
 10
89.0862
 20
5.2239
 10
89.0488
 20
5.2755
 10
89.0129
 20
5.3282
 10
88.9783
 20
5.3818
 10
88.945
 20
5.4365
 10
88.9132
 20
5.4921
 10
88.8827
 20
5.5488
 10
88.8537
 20
5.6065
 10
88.826
 20
5.6653
 10
88.7997
 20
5.725
 10
88.7747
 20
5.7858
 10
88.7512
 20
5.8475
 10
88.729
 20
5.9103
 10
88.7082
 20
5.9741
 10
88.6888
 20
6.0389
 10
88.6708
 20
6.1048
 10
88.6542
 20
6.1716
 10
88.6389
 20
6.2395
 10
88.625
 20
6.3084
 10
88.6125
 20
6.3783
 10
88.6014
 20
6.4492
 10
88.5917
 20
6.5211
 10
88.5833
 20
6.594
 10
88.5763
 20
6.668
 10
88.5707
 20
6.7429
 10
88.5665
 20
6.8189
 10
88.5637
 20
6.8959
 10
88.5622
 20
6.974
 10
88.5622
 20
7.052
 10
88.5634
 20
7.1284
 10
88.566
 20
7.204
 10
88.5699
 20
7.2787
 10
88.575
 20
7.3526
 10
88.5815
 20
7.4256
 10
88.5894
 20
7.4977
 10
88.5985
 20
7.569
 10
88.6089
 20
7.6394
 10
88.6207
 20
7.709
 10
88.6338
 20
7.7777
 10
88.6481
 20
7.8456
 10
88.6638
 20
7.9126
 10
88.6808
 20
7.9787
 10
88.6991
 20
8.044
 10
88.7188
 20
8.1085
 10
88.7397
 20
8.172
 10
88.762
 20
8.2347
 10
88.7856
 20
8.2966
 10
88.8104
 20
8.3576
 10
88.8366
 20
8.4177
 10
88.8641
 20
8.477
 10
88.893
 20
8.5354
 10
88.9231
 20
8.593
 10
88.9546
 20
8.6497
 10
88.9873
 20
8.7055
 10
89.0214
 20
8.7605
 10
89.0568
 20
8.8147
 10
89.0935
 20
8.8679
 10
89.1315
 20
8.9204
 10
89.1708
 20
8.9719
 10
89.2115
 20
9.0226
 10
89.2534
 20
9.0725
 10
89.2967
 20
9.1215
 10
89.3413
 20
9.1696
 10
89.3872
 20
9.2169
 10
89.4344
 20
9.2633
 10
89.4829
 20
9.3088
 10
89.5327
 20
9.3535
 10
89.5839
 20
9.3974
 10
89.6363
 20
9.4403
 10
89.6901
 20
9.4825
 10
89.7401
 20
9.52
 10
89.7865
 20
9.5536
 10
89.8337
 20
9.5864
 10
89.8816
 20
9.6186
 10
89.9302
 20
9.6501
 10
89.9796
 20
9.6809
 10
90.0298
 20
9.7111
 10
90.0807
 20
9.7405
 10
90.1323
 20
9.7693
 10
90.1847
 20
9.7974
 10
90.2379
 20
9.8249
 10
90.2918
 20
9.8516
 10
90.3464
 20
9.8777
 10
90.4018
 20
9.9031
 10
90.4579
 20
9.9279
 10
90.5148
 20
9.9519
 10
90.5725
 20
9.9753
 10
90.6308
 20
9.998
 10
90.69
 20
10.02
 10
90.7499
 20
10.0414
 10
90.8105
 20
10.062
 10
90.8719
 20
10.082
 10
90.934
 20
10.1014
 10
90.9969
 20
10.12
 10
91.0606
 20
10.138
 10
91.125
 20
10.1553
 10
91.1901
 20
10.1719
 10
91.256
 20
10.1878
 10
91.3226
 20
10.2031
 10
91.39
 20
10.2177
 10
91.4581
 20
10.2316
 10
91.527
 20
10.2448
 10
91.5966
 20
10.2574
 10
91.667
 20
10.2692
 10
91.7381
 20
10.2804
 10
91.81
 20
10.291
 10
91.8827
 20
10.3008
 10
91.956
 20
10.31
 10
92.0302
 20
10.3185
 10
92.105
 20
10.3263
 10
92.1807
 20
10.3334
 10
92.257
 20
10.3399
 10
92.3342
 20
10.3457
 10
92.412
 20
10.3508
 10
92.4907
 20
10.3552
 10
92.57
 20
10.359
 10
92.6502
 20
10.3621
 10
92.731
 20
10.3645
 10
92.8127
 20
10.3662
 10
92.895
 20
10.3672
 10
92.9782
 20
10.3676
 10
93.0553
 20
10.3674
 10
93.1312
 20
10.3669
 10
93.2063
 20
10.3659
 10
93.2805
 20
10.3646
 10
93.3539
 20
10.3628
 10
93.4263
 20
10.3606
 10
93.4979
 20
10.3581
 10
93.5686
 20
10.3552
 10
93.6385
 20
10.3518
 10
93.7075
 20
10.3481
 10
93.7756
 20
10.344
 10
93.8429
 20
10.3395
 10
93.9092
 20
10.3345
 10
93.9748
 20
10.3292
 10
94.0394
 20
10.3235
 10
94.1032
 20
10.3174
 10
94.1661
 20
10.3109
 10
94.2281
 20
10.304
 10
94.2893
 20
10.2968
 10
94.3496
 20
10.2891
 10
94.409
 20
10.281
 10
94.4703
 20
10.2721
 10
94.5391
 20
10.2615
 10
94.6076
 20
10.2503
 10
94.6757
 20
10.2384
 10
94.7435
 20
10.226
 10
94.811
 20
10.2129
 10
94.8782
 20
10.1993
 10
94.937
 20
10.1867
 10
94.937
 20
10.2226
 10
94.937
 20
10.3251
 10
94.9365
 20
10.4332
 10
94.9309
 20
10.5465
 10
94.9191
 20
10.6556
 10
94.901
 20
10.7605
 10
94.8767
 20
10.8612
 10
94.8462
 20
10.9577
 10
94.8094
 20
11.0499
 10
94.7665
 20
11.1379
 10
94.7173
 20
11.2217
 10
94.6619
 20
11.3013
 10
94.6003
 20
11.3767
 10
94.5324
 20
11.4478
 10
94.4583
 20
11.5148
 10
94.378
 20
11.5775
 10
94.2915
 20
11.636
 10
94.2154
 20
11.6812
 10
94.1454
 20
11.7187
 10
94.0721
 20
11.7546
 10
93.9957
 20
11.7886
 10
93.9161
 20
11.821
 10
93.8333
 20
11.8515
 10
93.7473
 20
11.8803
 10
93.6581
 20
11.9074
 10
93.5656
 20
11.9327
 10
93.47
 20
11.9562
 10
93.3712
 20
11.978
 10
93.2692
 20
11.998
 10
93.164
 20
12.0163
 10
93.0555
 20
12.0328
 10
92.9439
 20
12.0475
 10
92.8291
 20
12.0605
 10
92.7111
 20
12.0718
 10
92.5898
 20
12.0813
 10
92.4654
 20
12.089
 10
92.3378
 20
12.095
 10
92.2119
 20
12.0991
 10
92.1095
 20
12.1018
 10
92.007
 20
12.1045
 10
91.9045
 20
12.1072
 10
91.8021
 20
12.1099
 10
91.6996
 20
12.1127
 10
91.5971
 20
12.1154
 10
91.4947
 20
12.1181
 10
91.3922
 20
12.1208
 10
91.2897
 20
12.1235
 10
91.1873
 20
12.1263
 10
91.0848
 20
12.129
 10
90.9824
 20
12.1317
 10
90.8799
 20
12.1344
 10
90.7774
 20
12.1371
 10
90.675
 20
12.1399
 10
90.5725
 20
12.1426
 10
90.47
 20
12.1453
 10
90.3676
 20
12.148
 10
90.2651
 20
12.1507
 10
90.1626
 20
12.1534
 10
90.0602
 20
12.1562
 10
89.9577
 20
12.1589
 10
89.8553
 20
12.1616
 10
89.7738
 20
12.183
 10
89.7829
 20
12.2851
 10
89.792
 20
12.3872
 10
89.8012
 20
12.4892
 10
89.8103
 20
12.5913
 10
89.8195
 20
12.6934
 10
89.8286
 20
12.7955
 10
89.8378
 20
12.8976
 10
89.8469
 20
12.9997
 10
89.8561
 20
13.1018
 10
89.8652
 20
13.2039
 10
89.8743
 20
13.306
 10
89.8835
 20
13.4081
 10
89.8926
 20
13.5102
 10
89.9018
 20
13.6122
 10
89.9109
 20
13.7143
 10
89.9201
 20
13.8164
 10
89.9292
 20
13.9185
 10
89.9384
 20
14.0206
 10
89.9475
 20
14.1227
 10
89.9566
 20
14.2248
 10
90.0459
 20
14.2381
 10
90.1484
 20
14.2367
 10
90.2508
 20
14.2354
 10
90.3533
 20
14.234
 10
90.4558
 20
14.2326
 10
90.5583
 20
14.2312
 10
90.6608
 20
14.2299
 10
90.7633
 20
14.2285
 10
90.8658
 20
14.2271
 10
90.9683
 20
14.2257
 10
91.0708
 20
14.2244
 10
91.1733
 20
14.223
 10
91.2757
 20
14.2216
 10
91.3782
 20
14.2202
 10
91.4807
 20
14.2189
 10
91.5832
 20
14.2175
 10
91.6857
 20
14.2161
 10
91.7882
 20
14.2147
 10
91.8907
 20
14.2133
 10
91.9932
 20
14.212
 10
92.11
 20
14.2102
 10
92.2389
 20
14.207
 10
92.3662
 20
14.2026
 10
92.4918
 20
14.197
 10
92.6157
 20
14.19
 10
92.7378
 20
14.1819
 10
92.8583
 20
14.1725
 10
92.9771
 20
14.1618
 10
93.0942
 20
14.1499
 10
93.2095
 20
14.1367
 10
93.3232
 20
14.1223
 10
93.4352
 20
14.1066
 10
93.5455
 20
14.0897
 10
93.6541
 20
14.0715
 10
93.761
 20
14.052
 10
93.8662
 20
14.0314
 10
93.9697
 20
14.0094
 10
94.0715
 20
13.9862
 10
94.1716
 20
13.9618
 10
94.27
 20
13.9361
 10
94.3667
 20
13.9091
 10
94.4617
 20
13.8809
 10
94.555
 20
13.8514
 10
94.6466
 20
13.8207
 10
94.7365
 20
13.7887
 10
94.8247
 20
13.7555
 10
94.9113
 20
13.7211
 10
94.9961
 20
13.6853
 10
95.0792
 20
13.6483
 10
95.1606
 20
13.6101
 10
95.2403
 20
13.5706
 10
95.3184
 20
13.5299
 10
95.3947
 20
13.4879
 10
95.4693
 20
13.4447
 10
95.5423
 20
13.4002
 10
95.6135
 20
13.3544
 10
95.683
 20
13.3074
 10
95.7509
 20
13.2591
 10
95.817
 20
13.2096
 10
95.8815
 20
13.1589
 10
95.9565
 20
13.0965
 10
96.0301
 20
13.0316
 10
96.1014
 20
12.9649
 10
96.1703
 20
12.8964
 10
96.2369
 20
12.8262
 10
96.3011
 20
12.7542
 10
96.363
 20
12.6804
 10
96.4225
 20
12.6049
 10
96.4796
 20
12.5277
 10
96.5344
 20
12.4487
 10
96.5868
 20
12.3679
 10
96.6369
 20
12.2854
 10
96.6846
 20
12.2011
 10
96.7299
 20
12.1151
 10
96.7729
 20
12.0273
 10
96.8135
 20
11.9377
 10
96.8517
 20
11.8464
 10
96.8876
 20
11.7533
 10
96.9212
 20
11.6585
 10
96.9523
 20
11.5619
 10
96.9811
 20
11.4636
 10
97.0076
 20
11.3635
 10
97.0317
 20
11.2616
 10
97.0534
 20
11.158
 10
97.0728
 20
11.0526
 10
97.0898
 20
10.9455
 10
97.1044
 20
10.8366
 10
97.1167
 20
10.726
 10
97.1267
 20
10.6136
 10
97.1342
 20
10.4994
 10
97.1394
 20
10.3835
 10
97.1423
 20
10.2658
 10
97.1429
 20
10.1515
 10
97.1429
 20
10.049
 10
97.1429
 20
9.9465
 10
97.1429
 20
9.844
 10
97.1429
 20
9.7415
 10
97.1429
 20
9.639
 10
97.1429
 20
9.5365
 10
97.1429
 20
9.434
 10
97.1429
 20
9.3315
 10
97.1429
 20
9.229
 10
97.1429
 20
9.1265
 10
97.1429
 20
9.024
 10
97.1429
 20
8.9215
 10
97.1429
 20
8.819
 10
97.1429
 20
8.7165
 10
97.1429
 20
8.614
 10
97.1429
 20
8.5115
 10
97.1429
 20
8.409
 10
97.1429
 20
8.3065
 10
97.1429
 20
8.204
 10
97.1429
 20
8.1015
 10
97.1429
 20
7.999
 10
97.1429
 20
7.8965
 10
97.1429
 20
7.794
 10
97.1429
 20
7.6915
 10
97.1429
 20
7.589
 10
97.1429
 20
7.4865
 10
97.1429
 20
7.384
 10
97.1429
 20
7.2815
 10
97.1429
 20
7.179
 10
97.1429
 20
7.0765
 10
97.1429
 20
6.974
 10
97.1429
 20
6.8715
 10
97.1429
 20
6.769
 10
97.1429
 20
6.6665
 10
97.1429
 20
6.564
 10
97.1429
 20
6.4615
 10
97.1429
 20
6.359
 10
97.2327
 20
6.3349
 10
97.3343
 20
6.3209
 10
97.4358
 20
6.3069
 10
97.5374
 20
6.293
 10
97.6389
 20
6.279
 10
97.7404
 20
6.2651
 10
97.842
 20
6.2511
 10
97.9435
 20
6.2371
 10
98.0451
 20
6.2232
 10
98.1466
 20
6.2092
 10
98.2482
 20
6.1952
 10
98.3497
 20
6.1813
 10
98.4512
 20
6.1673
 10
98.5528
 20
6.1533
 10
98.6318
 20
6.1197
 10
98.6318
 20
6.0172
 10
98.6318
 20
5.9147
 10
98.6318
 20
5.8122
 10
98.6318
 20
5.7097
 10
98.6318
 20
5.6072
 10
98.6318
 20
5.5047
 10
98.6318
 20
5.4022
 10
98.6318
 20
5.2997
 10
98.6318
 20
5.1972
 10
98.6318
 20
5.0947
 10
98.6318
 20
4.9922
 10
98.6318
 20
4.8897
 10
98.6318
 20
4.7872
 10
98.6318
 20
4.6847
 10
98.6318
 20
4.5822
 10
98.6318
 20
4.4797
 10
98.6318
 20
4.3772
 10
98.6253
 20
4.281
 10
98.5229
 20
4.2781
 10
98.4204
 20
4.2753
 10
98.3179
 20
4.2725
 10
98.2155
 20
4.2697
 10
98.113
 20
4.2669
 10
98.0106
 20
4.2641
 10
97.9081
 20
4.2613
 10
97.8056
 20
4.2585
 10
97.7032
 20
4.2557
 10
97.6007
 20
4.2528
 10
97.4983
 20
4.25
 10
97.3958
 20
4.2472
 10
97.2933
 20
4.2444
 10
97.1909
 20
4.2416
 10
97.0884
 20
4.2388
 10
96.986
 20
4.236
 10
96.8835
 20
4.2332
 10
96.781
 20
4.2303
 10
96.6786
 20
4.2275
 10
96.5761
 20
4.2247
 10
96.4737
 20
4.2219
 10
96.3712
 20
4.2191
 10
96.2687
 20
4.2163
 10
96.1663
 20
4.2135
 10
96.0638
 20
4.2107
 10
95.9613
 20
4.2079
 10
95.8589
 20
4.205
 10
95.7564
 20
4.2022
 10
95.654
 20
4.1994
 10
95.5515
 20
4.1966
 10
95.449
 20
4.1938
 10
95.3466
 20
4.191
 10
95.2441
 20
4.1882
 10
95.2379
 20
4.2905
 10
95.2317
 20
4.3928
 10
95.2256
 20
4.4951
 10
95.2194
 20
4.5974
 10
95.2132
 20
4.6997
 10
95.207
 20
4.802
 10
95.2008
 20
4.9044
 10
95.1946
 20
5.0067
 10
95.1884
 20
5.109
 10
95.1822
 20
5.2113
 10
95.1761
 20
5.3136
 10
95.1699
 20
5.4159
 10
95.1637
 20
5.5182
 10
95.1575
 20
5.6205
 10
95.1513
 20
5.7229
 10
95.1451
 20
5.8252
 10
95.1389
 20
5.9275
 10
95.1327
 20
6.0298
 10
95.1266
 20
6.1321
  0
LWPOLYLINE
  5
3A
330
17
100
AcDbEntity
  8
OUTLINE
100
AcDbPolyline
 90
163
 70
1
 10
94.937
 20
8.3398
 10
94.8989
 20
8.3469
 10
94.83
 20
8.359
 10
94.7617
 20
8.3702
 10
94.694
 20
8.3807
 10
94.6269
 20
8.3903
 10
94.5604
 20
8.399
 10
94.4945
 20
8.407
 10
94.4292
 20
8.4141
 10
94.3645
 20
8.4204
 10
94.3004
 20
8.4259
 10
94.2369
 20
8.4305
 10
94.174
 20
8.4343
 10
94.111
 20
8.4373
 10
94.0457
 20
8.4401
 10
93.98
 20
8.4427
 10
93.9139
 20
8.4451
 10
93.8475
 20
8.4473
 10
93.7808
 20
8.4494
 10
93.7137
 20
8.4512
 10
93.6462
 20
8.4529
 10
93.5783
 20
8.4544
 10
93.5101
 20
8.4557
 10
93.4415
 20
8.4569
 10
93.3726
 20
8.4578
 10
93.3033
 20
8.4586
 10
93.2336
 20
8.4592
 10
93.1636
 20
8.4596
 10
93.0932
 20
8.4598
 10
93.0151
 20
8.4599
 10
92.9128
 20
8.4588
 10
92.8131
 20
8.4563
 10
92.7158
 20
8.4523
 10
92.6209
 20
8.4469
 10
92.5285
 20
8.4401
 10
92.4386
 20
8.4318
 10
92.3512
 20
8.422
 10
92.2662
 20
8.4108
 10
92.1837
 20
8.3981
 10
92.1036
 20
8.384
 10
92.026
 20
8.3685
 10
91.9509
 20
8.3515
 10
91.8782
 20
8.333
 10
91.808
 20
8.3131
 10
91.7403
 20
8.2917
 10
91.675
 20
8.2689
 10
91.6122
 20
8.2446
 10
91.5518
 20
8.2189
 10
91.4939
 20
8.1917
 10
91.4385
 20
8.1631
 10
91.3855
 20
8.133
 10
91.335
 20
8.1015
 10
91.287
 20
8.0685
 10
91.2414
 20
8.0341
 10
91.1983
 20
7.9982
 10
91.1576
 20
7.9609
 10
91.1195
 20
7.9221
 10
91.0837
 20
7.8819
 10
91.0505
 20
7.8402
 10
91.0197
 20
7.7971
 10
90.9913
 20
7.7525
 10
90.9655
 20
7.7064
 10
90.9421
 20
7.6589
 10
90.9211
 20
7.61
 10
90.9026
 20
7.5596
 10
90.8866
 20
7.5078
 10
90.8731
 20
7.4545
 10
90.862
 20
7.3997
 10
90.8534
 20
7.3435
 10
90.8472
 20
7.2859
 10
90.8435
 20
7.2268
 10
90.8423
 20
7.1663
 10
90.8441
 20
7.0892
 10
90.8496
 20
7.0147
 10
90.8588
 20
6.9427
 10
90.8717
 20
6.8733
 10
90.8882
 20
6.8065
 10
90.9085
 20
6.7422
 10
90.9324
 20
6.6806
 10
90.96
 20
6.6215
 10
90.9913
 20
6.5649
 10
91.0263
 20
6.511
 10
91.065
 20
6.4596
 10
91.1073
 20
6.4108
 10
91.1533
 20
6.3645
 10
91.203
 20
6.3209
 10
91.2516
 20
6.2832
 10
91.2984
 20
6.251
 10
91.3475
 20
6.2207
 10
91.399
 20
6.1924
 10
91.4527
 20
6.166
 10
91.5087
 20
6.1417
 10
91.5671
 20
6.1193
 10
91.6278
 20
6.0988
 10
91.6907
 20
6.0804
 10
91.756
 20
6.0639
 10
91.8236
 20
6.0494
 10
91.8936
 20
6.0368
 10
91.9658
 20
6.0262
 10
92.0403
 20
6.0176
 10
92.1172
 20
6.011
 10
92.1964
 20
6.0064
 10
92.2778
 20
6.0037
 10
92.3608
 20
6.003
 10
92.4385
 20
6.0038
 10
92.5152
 20
6.0059
 10
92.5906
 20
6.0094
 10
92.6649
 20
6.0142
 10
92.738
 20
6.0203
 10
92.8099
 20
6.0277
 10
92.8806
 20
6.0364
 10
92.9502
 20
6.0464
 10
93.0186
 20
6.0577
 10
93.0858
 20
6.0704
 10
93.1518
 20
6.0843
 10
93.2167
 20
6.0996
 10
93.2804
 20
6.1162
 10
93.3429
 20
6.1341
 10
93.4043
 20
6.1533
 10
93.4644
 20
6.1738
 10
93.5234
 20
6.1956
 10
93.5812
 20
6.2188
 10
93.6379
 20
6.2432
 10
93.6934
 20
6.269
 10
93.7477
 20
6.2961
 10
93.8052
 20
6.3268
 10
93.8697
 20
6.3634
 10
93.9323
 20
6.4011
 10
93.993
 20
6.4399
 10
94.0518
 20
6.4799
 10
94.1088
 20
6.5209
 10
94.1638
 20
6.563
 10
94.217
 20
6.6062
 10
94.2682
 20
6.6505
 10
94.3176
 20
6.6959
 10
94.3651
 20
6.7424
 10
94.4106
 20
6.79
 10
94.4543
 20
6.8387
 10
94.4961
 20
6.8885
 10
94.536
 20
6.9395
 10
94.574
 20
6.9915
 10
94.6102
 20
7.0446
 10
94.6444
 20
7.0988
 10
94.6804
 20
7.1603
 10
94.7146
 20
7.223
 10
94.7463
 20
7.286
 10
94.7756
 20
7.3492
 10
94.8024
 20
7.4128
 10
94.8268
 20
7.4766
 10
94.8488
 20
7.5407
 10
94.8683
 20
7.605
 10
94.8854
 20
7.6696
 10
94.9001
 20
7.7345
 10
94.9123
 20
7.7997
 10
94.922
 20
7.8652
 10
94.9294
 20
7.9309
 10
94.9343
 20
7.9969
 10
94.9367
 20
8.0632
 10
94.937
 20
8.1304
 10
94.937
 20
8.1983
 10
94.937
 20
8.2663
 10
94.937
 20
8.2751
 10
94.937
 20
8.3343
  0
LWPOLYLINE
  5
3B
330
17
100
AcDbEntity
  8
OUTLINE
100
AcDbPolyline
 90
368
 70
1
 10
113.566
 20
8.2644
 10
113.521
 20
8.2644
 10
113.544
 20
8.1815
 10
113.5794
 20
8.0707
 10
113.6184
 20
7.963
 10
113.6611
 20
7.8584
 10
113.7076
 20
7.7569
 10
113.7577
 20
7.6585
 10
113.8115
 20
7.5632
 10
113.869
 20
7.4709
 10
113.9302
 20
7.3817
 10
113.9951
 20
7.2956
 10
114.0637
 20
7.2126
 10
114.136
 20
7.1327
 10
114.212
 20
7.0558
 10
114.2904
 20
6.9832
 10
114.37
 20
6.9153
 10
114.4525
 20
6.8506
 10
114.5378
 20
6.789
 10
114.6261
 20
6.7306
 10
114.7172
 20
6.6753
 10
114.8111
 20
6.6232
 10
114.908
 20
6.5742
 10
115.0077
 20
6.5283
 10
115.1102
 20
6.4856
 10
115.2157
 20
6.4461
 10
115.324
 20
6.4097
 10
115.4352
 20
6.3764
 10
115.5492
 20
6.3463
 10
115.6662
 20
6.3193
 10
115.786
 20
6.2955
 10
115.9086
 20
6.2748
 10
116.0342
 20
6.2573
 10
116.1626
 20
6.2429
 10
116.2939
 20
6.2317
 10
116.428
 20
6.2236
 10
116.565
 20
6.2187
 10
116.7049
 20
6.2169
 10
116.8258
 20
6.2174
 10
116.9447
 20
6.219
 10
117.0632
 20
6.2219
 10
117.1813
 20
6.2259
 10
117.2991
 20
6.2311
 10
117.4164
 20
6.2375
 10
117.5334
 20
6.2451
 10
117.65
 20
6.2538
 10
117.7662
 20
6.2637
 10
117.882
 20
6.2748
 10
117.9973
 20
6.2871
 10
118.1117
 20
6.3002
 10
118.2264
 20
6.3141
 10
118.3415
 20
6.3289
 10
118.457
 20
6.3446
 10
118.5729
 20
6.3611
 10
118.6892
 20
6.3785
 10
118.8059
 20
6.3967
 10
118.9229
 20
6.4157
 10
119.0404
 20
6.4356
 10
119.1582
 20
6.4564
 10
119.2743
 20
6.4752
 10
119.2876
 20
6.3584
 10
119.3009
 20
6.2416
 10
119.3143
 20
6.1248
 10
119.3276
 20
6.0079
 10
119.3409
 20
5.8911
 10
119.3542
 20
5.7743
 10
119.3675
 20
5.6575
 10
119.3809
 20
5.5406
 10
119.3942
 20
5.4238
 10
119.4075
 20
5.307
 10
119.4208
 20
5.1902
 10
119.4341
 20
5.0733
 10
119.4474
 20
4.9565
 10
119.4608
 20
4.8397
 10
119.4741
 20
4.7229
 10
119.4874
 20
4.606
 10
119.5007
 20
4.4892
 10
119.514
 20
4.3724
 10
119.4079
 20
4.336
 10
119.2829
 20
4.3143
 10
119.1594
 20
4.2938
 10
119.0373
 20
4.2744
 10
118.9166
 20
4.2562
 10
118.7974
 20
4.2392
 10
118.6797
 20
4.2233
 10
118.5634
 20
4.2086
 10
118.4485
 20
4.1951
 10
118.335
 20
4.1828
 10
118.223
 20
4.1716
 10
118.1125
 20
4.1616
 10
118.0034
 20
4.1528
 10
117.8957
 20
4.1451
 10
117.7767
 20
4.1377
 10
117.6464
 20
4.1303
 10
117.5189
 20
4.1236
 10
117.394
 20
4.1176
 10
117.2718
 20
4.1123
 10
117.1522
 20
4.1077
 10
117.0354
 20
4.1038
 10
116.9212
 20
4.1006
 10
116.8097
 20
4.0982
 10
116.701
 20
4.0964
 10
116.5948
 20
4.0953
 10
116.4914
 20
4.095
 10
116.3517
 20
4.096
 10
116.2138
 20
4.0991
 10
116.0777
 20
4.1041
 10
115.9433
 20
4.1112
 10
115.8107
 20
4.1204
 10
115.6798
 20
4.1315
 10
115.5507
 20
4.1447
 10
115.4234
 20
4.1599
 10
115.2979
 20
4.1772
 10
115.1741
 20
4.1965
 10
115.0521
 20
4.2178
 10
114.9318
 20
4.2411
 10
114.8133
 20
4.2665
 10
114.6966
 20
4.2939
 10
114.5817
 20
4.3233
 10
114.4685
 20
4.3548
 10
114.357
 20
4.3883
 10
114.2474
 20
4.4238
 10
114.1395
 20
4.4613
 10
114.0334
 20
4.5009
 10
113.929
 20
4.5425
 10
113.8264
 20
4.5862
 10
113.7256
 20
4.6318
 10
113.6265
 20
4.6795
 10
113.5292
 20
4.7293
 10
113.4337
 20
4.781
 10
113.3399
 20
4.8348
 10
113.248
 20
4.8906
 10
113.1577
 20
4.9485
 10
113.0693
 20
5.0083
 10
112.9826
 20
5.0702
 10
112.8976
 20
5.1342
 10
112.8145
 20
5.2001
 10
112.7331
 20
5.2681
 10
112.6534
 20
5.3381
 10
112.5756
 20
5.4102
 10
112.4984
 20
5.4854
 10
112.4232
 20
5.5626
 10
112.3502
 20
5.6417
 10
112.2794
 20
5.7226
 10
112.2109
 20
5.8053
 10
112.1445
 20
5.8899
 10
112.0803
 20
5.9764
 10
112.0184
 20
6.0646
 10
111.9586
 20
6.1547
 10
111.901
 20
6.2467
 10
111.8457
 20
6.3405
 10
111.7925
 20
6.4361
 10
111.7415
 20
6.5336
 10
111.6928
 20
6.6329
 10
111.6462
 20
6.734
 10
111.6019
 20
6.837
 10
111.5597
 20
6.9418
 10
111.5198
 20
7.0485
 10
111.482
 20
7.157
 10
111.4465
 20
7.2674
 10
111.4132
 20
7.3796
 10
111.382
 20
7.4936
 10
111.3531
 20
7.6095
 10
111.3264
 20
7.7272
 10
111.3018
 20
7.8467
 10
111.2795
 20
7.9681
 10
111.2594
 20
8.0913
 10
111.2415
 20
8.2164
 10
111.2257
 20
8.3433
 10
111.2122
 20
8.4721
 10
111.2009
 20
8.6026
 10
111.1918
 20
8.7351
 10
111.1849
 20
8.8693
 10
111.1802
 20
9.0055
 10
111.1777
 20
9.1434
 10
111.1774
 20
9.2834
 10
111.1791
 20
9.4231
 10
111.1828
 20
9.5609
 10
111.1886
 20
9.6969
 10
111.1963
 20
9.8311
 10
111.2061
 20
9.9634
 10
111.2179
 20
10.0939
 10
111.2316
 20
10.2225
 10
111.2474
 20
10.3493
 10
111.2652
 20
10.4743
 10
111.285
 20
10.5974
 10
111.3068
 20
10.7187
 10
111.3306
 20
10.8381
 10
111.3564
 20
10.9557
 10
111.3842
 20
11.0715
 10
111.414
 20
11.1854
 10
111.4458
 20
11.2975
 10
111.4797
 20
11.4078
 10
111.5155
 20
11.5162
 10
111.5534
 20
11.6227
 10
111.5932
 20
11.7275
 10
111.6351
 20
11.8303
 10
111.6789
 20
11.9314
 10
111.7248
 20
12.0306
 10
111.7727
 20
12.1279
 10
111.8226
 20
12.2235
 10
111.8745
 20
12.3172
 10
111.9284
 20
12.409
 10
111.9843
 20
12.499
 10
112.0422
 20
12.5872
 10
112.1021
 20
12.6735
 10
112.164
 20
12.758
 10
112.2279
 20
12.8406
 10
112.2939
 20
12.9214
 10
112.3625
 20
13.0011
 10
112.4386
 20
13.0848
 10
112.5166
 20
13.1657
 10
112.5966
 20
13.2439
 10
112.6786
 20
13.3194
 10
112.7625
 20
13.3922
 10
112.8484
 20
13.4623
 10
112.9362
 20
13.5296
 10
113.0259
 20
13.5943
 10
113.1176
 20
13.6562
 10
113.2113
 20
13.7154
 10
113.3069
 20
13.7719
 10
113.4044
 20
13.8257
 10
113.504
 20
13.8768
 10
113.6054
 20
13.9252
 10
113.7088
 20
13.9708
 10
113.8142
 20
14.0137
 10
113.9215
 20
14.054
 10
114.0308
 20
14.0915
 10
114.142
 20
14.1263
 10
114.2551
 20
14.1583
 10
114.3702
 20
14.1877
 10
114.4873
 20
14.2144
 10
114.6063
 20
14.2383
 10
114.7273
 20
14.2595
 10
114.8502
 20
14.278
 10
114.9751
 20
14.2938
 10
115.1019
 20
14.3069
 10
115.2306
 20
14.3173
 10
115.3614
 20
14.3249
 10
115.494
 20
14.3299
 10
115.6286
 20
14.3321
 10
115.7653
 20
14.3316
 10
115.9005
 20
14.3284
 10
116.0336
 20
14.3225
 10
116.1647
 20
14.3138
 10
116.2936
 20
14.3024
 10
116.4205
 20
14.2883
 10
116.5454
 20
14.2714
 10
116.6681
 20
14.2519
 10
116.7888
 20
14.2296
 10
116.9074
 20
14.2045
 10
117.0239
 20
14.1768
 10
117.1384
 20
14.1463
 10
117.2507
 20
14.1131
 10
117.361
 20
14.0772
 10
117.4692
 20
14.0385
 10
117.5754
 20
13.9971
 10
117.6795
 20
13.953
 10
117.7814
 20
13.9062
 10
117.8814
 20
13.8566
 10
117.9792
 20
13.8043
 10
118.075
 20
13.7493
 10
118.1686
 20
13.6916
 10
118.2603
 20
13.6311
 10
118.3498
 20
13.5679
 10
118.4373
 20
13.502
 10
118.5226
 20
13.4334
 10
118.6059
 20
13.362
 10
118.6872
 20
13.2879
 10
118.7663
 20
13.2111
 10
118.8434
 20
13.1315
 10
118.9145
 20
13.0536
 10
118.9815
 20
12.9757
 10
119.0464
 20
12.8957
 10
119.1091
 20
12.8136
 10
119.1697
 20
12.7295
 10
119.2281
 20
12.6432
 10
119.2844
 20
12.5549
 10
119.3386
 20
12.4645
 10
119.3907
 20
12.372
 10
119.4406
 20
12.2774
 10
119.4884
 20
12.1807
 10
119.5341
 20
12.0819
 10
119.5776
 20
11.981
 10
119.619
 20
11.8781
 10
119.6582
 20
11.773
 10
119.6953
 20
11.6659
 10
119.7303
 20
11.5566
 10
119.7632
 20
11.4453
 10
119.7939
 20
11.3319
 10
119.8225
 20
11.2164
 10
119.8489
 20
11.0988
 10
119.8733
 20
10.9792
 10
119.8955
 20
10.8574
 10
119.9155
 20
10.7336
 10
119.9334
 20
10.6076
 10
119.9492
 20
10.4796
 10
119.9629
 20
10.3495
 10
119.9744
 20
10.2173
 10
119.9838
 20
10.083
 10
119.991
 20
9.9466
 10
119.9962
 20
9.8081
 10
119.9991
 20
9.6676
 10
120.0
 20
9.5268
 10
119.9994
 20
9.4025
 10
119.9979
 20
9.2796
 10
119.9954
 20
9.1582
 10
119.992
 20
9.0381
 10
119.9876
 20
8.9195
 10
119.9823
 20
8.8024
 10
119.9761
 20
8.6866
 10
119.9688
 20
8.5723
 10
119.9607
 20
8.4593
 10
119.9515
 20
8.3478
 10
119.9155
 20
8.2644
 10
119.7979
 20
8.2644
 10
119.6803
 20
8.2644
 10
119.5627
 20
8.2644
 10
119.4451
 20
8.2644
 10
119.3275
 20
8.2644
 10
119.21
 20
8.2644
 10
119.0924
 20
8.2644
 10
118.9748
 20
8.2644
 10
118.8572
 20
8.2644
 10
118.7396
 20
8.2644
 10
118.622
 20
8.2644
 10
118.5045
 20
8.2644
 10
118.3869
 20
8.2644
 10
118.2693
 20
8.2644
 10
118.1517
 20
8.2644
 10
118.0341
 20
8.2644
 10
117.9165
 20
8.2644
 10
117.799
 20
8.2644
 10
117.6814
 20
8.2644
 10
117.5638
 20
8.2644
 10
117.4462
 20
8.2644
 10
117.3286
 20
8.2644
 10
117.211
 20
8.2644
 10
117.0935
 20
8.2644
 10
116.9759
 20
8.2644
 10
116.8583
 20
8.2644
 10
116.7407
 20
8.2644
 10
116.6231
 20
8.2644
 10
116.5056
 20
8.2644
 10
116.388
 20
8.2644
 10
116.2704
 20
8.2644
 10
116.1528
 20
8.2644
 10
116.0352
 20
8.2644
 10
115.9176
 20
8.2644
 10
115.8001
 20
8.2644
 10
115.6825
 20
8.2644
 10
115.5649
 20
8.2644
 10
115.4473
 20
8.2644
 10
115.3297
 20
8.2644
 10
115.2121
 20
8.2644
 10
115.0946
 20
8.2644
 10
114.977
 20
8.2644
 10
114.8594
 20
8.2644
 10
114.7418
 20
8.2644
 10
114.6242
 20
8.2644
 10
114.5066
 20
8.2644
 10
114.3891
 20
8.2644
 10
114.2715
 20
8.2644
 10
114.1539
 20
8.2644
 10
114.0363
 20
8.2644
 10
113.9187
 20
8.2644
 10
113.8012
 20
8.2644
 10
113.6836
 20
8.2644
  0
LWPOLYLINE
  5
3C
330
17
100
AcDbEntity
  8
OUTLINE
100
AcDbPolyline
 90
100
 70
1
 10
113.431
 20
9.9958
 10
113.4229
 20
9.921
 10
113.5023
 20
9.921
 10
113.6199
 20
9.921
 10
113.7374
 20
9.921
 10
113.855
 20
9.921
 10
113.9726
 20
9.921
 10
114.0902
 20
9.921
 10
114.2078
 20
9.921
 10
114.3254
 20
9.921
 10
114.4429
 20
9.921
 10
114.5605
 20
9.921
 10
114.6781
 20
9.921
 10
114.7957
 20
9.921
 10
114.9133
 20
9.921
 10
115.0309
 20
9.921
 10
115.1484
 20
9.921
 10
115.266
 20
9.921
 10
115.3836
 20
9.921
 10
115.5012
 20
9.921
 10
115.6188
 20
9.921
 10
115.7363
 20
9.921
 10
115.8539
 20
9.921
 10
115.9715
 20
9.921
 10
116.0891
 20
9.921
 10
116.2067
 20
9.921
 10
116.3243
 20
9.921
 10
116.4418
 20
9.921
 10
116.5594
 20
9.921
 10
116.677
 20
9.921
 10
116.7946
 20
9.921
 10
116.9122
 20
9.921
 10
117.0298
 20
9.921
 10
117.1473
 20
9.921
 10
117.2649
 20
9.921
 10
117.3825
 20
9.921
 10
117.5001
 20
9.921
 10
117.6177
 20
9.921
 10
117.7353
 20
9.921
 10
117.8032
 20
9.9802
 10
117.7991
 20
10.1186
 10
117.7905
 20
10.2528
 10
117.7775
 20
10.3828
 10
117.7601
 20
10.5087
 10
117.7382
 20
10.6305
 10
117.7118
 20
10.7481
 10
117.681
 20
10.8615
 10
117.6458
 20
10.9708
 10
117.6061
 20
11.0759
 10
117.5619
 20
11.1769
 10
117.5133
 20
11.2737
 10
117.4603
 20
11.3664
 10
117.4028
 20
11.4549
 10
117.3408
 20
11.5393
 10
117.2744
 20
11.6195
 10
117.2002
 20
11.699
 10
117.1194
 20
11.7757
 10
117.0345
 20
11.8466
 10
116.9455
 20
11.912
 10
116.8524
 20
11.9717
 10
116.7552
 20
12.0257
 10
116.6539
 20
12.074
 10
116.5485
 20
12.1167
 10
116.4391
 20
12.1537
 10
116.3255
 20
12.1851
 10
116.2079
 20
12.2108
 10
116.0861
 20
12.2308
 10
115.9603
 20
12.2452
 10
115.8303
 20
12.2539
 10
115.6963
 20
12.257
 10
115.565
 20
12.2544
 10
115.4374
 20
12.2461
 10
115.3134
 20
12.2321
 10
115.193
 20
12.2124
 10
115.0762
 20
12.1871
 10
114.963
 20
12.1561
 10
114.8535
 20
12.1194
 10
114.7475
 20
12.077
 10
114.6451
 20
12.029
 10
114.5463
 20
11.9752
 10
114.4511
 20
11.9158
 10
114.3596
 20
11.8507
 10
114.2716
 20
11.7799
 10
114.1872
 20
11.7035
 10
114.1064
 20
11.6214
 10
114.0293
 20
11.5335
 10
113.9623
 20
11.4489
 10
113.9037
 20
11.367
 10
113.8483
 20
11.2818
 10
113.796
 20
11.1932
 10
113.747
 20
11.1012
 10
113.7011
 20
11.0059
 10
113.6584
 20
10.9071
 10
113.6188
 20
10.805
 10
113.5825
 20
10.6996
 10
113.5493
 20
10.5907
 10
113.5193
 20
10.4785
 10
113.4924
 20
10.3629
 10
113.4688
 20
10.2439
 10
113.4483
 20
10.1216
  0
LWPOLYLINE
  5
3D
330
17
100
AcDbEntity
  8
OUTLINE
100
AcDbPolyline
 90
432
 70
1
 10
105.7841
 20
4.0959
 10
105.6838
 20
4.0952
 10
105.584
 20
4.095
 10
105.4611
 20
4.0957
 10
105.3395
 20
4.0979
 10
105.2193
 20
4.1016
 10
105.1004
 20
4.1067
 10
104.9828
 20
4.1134
 10
104.8666
 20
4.1214
 10
104.7517
 20
4.131
 10
104.6381
 20
4.142
 10
104.5258
 20
4.1545
 10
104.4148
 20
4.1685
 10
104.3052
 20
4.1839
 10
104.1969
 20
4.2008
 10
104.0899
 20
4.2191
 10
103.9843
 20
4.239
 10
103.8799
 20
4.2603
 10
103.7769
 20
4.2831
 10
103.6753
 20
4.3073
 10
103.5749
 20
4.333
 10
103.4759
 20
4.3602
 10
103.3782
 20
4.3889
 10
103.2818
 20
4.419
 10
103.1867
 20
4.4506
 10
103.093
 20
4.4836
 10
103.0006
 20
4.5181
 10
102.9095
 20
4.5541
 10
102.8198
 20
4.5916
 10
102.7313
 20
4.6305
 10
102.6442
 20
4.671
 10
102.5585
 20
4.7128
 10
102.474
 20
4.7562
 10
102.3909
 20
4.801
 10
102.3091
 20
4.8473
 10
102.2286
 20
4.895
 10
102.1494
 20
4.9442
 10
102.0716
 20
4.9949
 10
101.9951
 20
5.0471
 10
101.9199
 20
5.1007
 10
101.8461
 20
5.1558
 10
101.7735
 20
5.2124
 10
101.7023
 20
5.2704
 10
101.6324
 20
5.3299
 10
101.5639
 20
5.3909
 10
101.4953
 20
5.4547
 10
101.4269
 20
5.5211
 10
101.3603
 20
5.589
 10
101.2954
 20
5.6582
 10
101.2323
 20
5.7288
 10
101.1708
 20
5.8009
 10
101.1111
 20
5.8743
 10
101.0531
 20
5.9491
 10
100.9968
 20
6.0253
 10
100.9422
 20
6.1029
 10
100.8893
 20
6.1819
 10
100.8382
 20
6.2623
 10
100.7888
 20
6.344
 10
100.7411
 20
6.4272
 10
100.6951
 20
6.5118
 10
100.6508
 20
6.5977
 10
100.6082
 20
6.6851
 10
100.5674
 20
6.7738
 10
100.5283
 20
6.8639
 10
100.4909
 20
6.9555
 10
100.4552
 20
7.0484
 10
100.4212
 20
7.1427
 10
100.389
 20
7.2384
 10
100.3585
 20
7.3355
 10
100.3296
 20
7.434
 10
100.3026
 20
7.5339
 10
100.2772
 20
7.6352
 10
100.2535
 20
7.7378
 10
100.2316
 20
7.8419
 10
100.2114
 20
7.9473
 10
100.1929
 20
8.0542
 10
100.1761
 20
8.1624
 10
100.161
 20
8.2721
 10
100.1477
 20
8.3831
 10
100.136
 20
8.4955
 10
100.1261
 20
8.6093
 10
100.1179
 20
8.7246
 10
100.1114
 20
8.8412
 10
100.1067
 20
8.9592
 10
100.1036
 20
9.0785
 10
100.1023
 20
9.1993
 10
100.1027
 20
9.3206
 10
100.1047
 20
9.4405
 10
100.1085
 20
9.559
 10
100.1139
 20
9.6762
 10
100.1209
 20
9.7921
 10
100.1296
 20
9.9065
 10
100.14
 20
10.0196
 10
100.1521
 20
10.1314
 10
100.1658
 20
10.2418
 10
100.1812
 20
10.3508
 10
100.1983
 20
10.4584
 10
100.217
 20
10.5647
 10
100.2374
 20
10.6696
 10
100.2595
 20
10.7732
 10
100.2833
 20
10.8754
 10
100.3087
 20
10.9762
 10
100.3357
 20
11.0757
 10
100.3645
 20
11.1738
 10
100.3949
 20
11.2705
 10
100.427
 20
11.3659
 10
100.4607
 20
11.4599
 10
100.4962
 20
11.5526
 10
100.5333
 20
11.6439
 10
100.572
 20
11.7338
 10
100.6124
 20
11.8224
 10
100.6545
 20
11.9096
 10
100.6983
 20
11.9954
 10
100.7437
 20
12.0799
 10
100.7908
 20
12.163
 10
100.8396
 20
12.2448
 10
100.89
 20
12.3252
 10
100.9422
 20
12.4042
 10
100.9959
 20
12.4819
 10
101.0514
 20
12.5582
 10
101.1085
 20
12.6331
 10
101.1673
 20
12.7067
 10
101.2277
 20
12.7789
 10
101.2898
 20
12.8497
 10
101.3536
 20
12.9192
 10
101.4191
 20
12.9873
 10
101.4857
 20
13.0535
 10
101.5536
 20
13.118
 10
101.623
 20
13.1808
 10
101.6938
 20
13.242
 10
101.766
 20
13.3015
 10
101.8397
 20
13.3593
 10
101.9147
 20
13.4155
 10
101.9912
 20
13.4699
 10
102.069
 20
13.5228
 10
102.1483
 20
13.5739
 10
102.229
 20
13.6234
 10
102.3111
 20
13.6712
 10
102.3947
 20
13.7173
 10
102.4796
 20
13.7618
 10
102.566
 20
13.8046
 10
102.6537
 20
13.8457
 10
102.7429
 20
13.8852
 10
102.8335
 20
13.923
 10
102.9255
 20
13.9591
 10
103.0189
 20
13.9936
 10
103.1138
 20
14.0264
 10
103.21
 20
14.0575
 10
103.3077
 20
14.0869
 10
103.4068
 20
14.1147
 10
103.5073
 20
14.1408
 10
103.6092
 20
14.1653
 10
103.7125
 20
14.188
 10
103.8172
 20
14.2091
 10
103.9234
 20
14.2286
 10
104.0309
 20
14.2464
 10
104.1399
 20
14.2624
 10
104.2503
 20
14.2769
 10
104.3621
 20
14.2896
 10
104.4753
 20
14.3007
 10
104.59
 20
14.3102
 10
104.706
 20
14.3179
 10
104.8235
 20
14.324
 10
104.9424
 20
14.3284
 10
105.0626
 20
14.3312
 10
105.1843
 20
14.3322
 10
105.3009
 20
14.3316
 10
105.4152
 20
14.3293
 10
105.5283
 20
14.3253
 10
105.64
 20
14.3195
 10
105.7504
 20
14.312
 10
105.8596
 20
14.3028
 10
105.9674
 20
14.2919
 10
106.0739
 20
14.2793
 10
106.1792
 20
14.2649
 10
106.2831
 20
14.2489
 10
106.3857
 20
14.2311
 10
106.4871
 20
14.2116
 10
106.5871
 20
14.1904
 10
106.6858
 20
14.1675
 10
106.7833
 20
14.1428
 10
106.8794
 20
14.1164
 10
106.9743
 20
14.0884
 10
107.0678
 20
14.0586
 10
107.1601
 20
14.027
 10
107.251
 20
13.9938
 10
107.3406
 20
13.9588
 10
107.429
 20
13.9222
 10
107.516
 20
13.8838
 10
107.6018
 20
13.8437
 10
107.6862
 20
13.8019
 10
107.7699
 20
13.758
 10
107.8656
 20
13.7048
 10
107.9587
 20
13.6497
 10
108.0493
 20
13.5926
 10
108.1373
 20
13.5335
 10
108.2228
 20
13.4725
 10
108.3056
 20
13.4096
 10
108.3859
 20
13.3447
 10
108.4636
 20
13.2778
 10
108.5388
 20
13.209
 10
108.6114
 20
13.1383
 10
108.6814
 20
13.0656
 10
108.7489
 20
12.9909
 10
108.8138
 20
12.9143
 10
108.8761
 20
12.8357
 10
108.9358
 20
12.7552
 10
108.993
 20
12.6728
 10
109.0476
 20
12.5883
 10
109.0997
 20
12.502
 10
109.1492
 20
12.4136
 10
109.1961
 20
12.3234
 10
109.2404
 20
12.2312
 10
109.2717
 20
12.1397
 10
109.1907
 20
12.0764
 10
109.1097
 20
12.0131
 10
109.0286
 20
11.9498
 10
108.9476
 20
11.8866
 10
108.8666
 20
11.8233
 10
108.7856
 20
11.76
 10
108.7046
 20
11.6967
 10
108.6236
 20
11.6334
 10
108.5426
 20
11.5701
 10
108.4616
 20
11.5068
 10
108.3805
 20
11.4435
 10
108.2995
 20
11.3802
 10
108.2185
 20
11.3169
 10
108.1375
 20
11.2536
 10
108.0565
 20
11.1903
 10
107.9755
 20
11.127
 10
107.8945
 20
11.0637
 10
107.8135
 20
11.0004
 10
107.7324
 20
10.9371
 10
107.6514
 20
10.8738
 10
107.5719
 20
10.8202
 10
107.5137
 20
10.9106
 10
107.4532
 20
10.998
 10
107.3905
 20
11.0824
 10
107.3257
 20
11.164
 10
107.2586
 20
11.2426
 10
107.1893
 20
11.3183
 10
107.1178
 20
11.391
 10
107.0441
 20
11.4608
 10
106.9681
 20
11.5277
 10
106.89
 20
11.5917
 10
106.8097
 20
11.6527
 10
106.7271
 20
11.7108
 10
106.6423
 20
11.7659
 10
106.5554
 20
11.8182
 10
106.4658
 20
11.8677
 10
106.3747
 20
11.9138
 10
106.2823
 20
11.9564
 10
106.1887
 20
11.9955
 10
106.0938
 20
12.031
 10
105.9977
 20
12.063
 10
105.9003
 20
12.0915
 10
105.8017
 20
12.1164
 10
105.7019
 20
12.1377
 10
105.6008
 20
12.1555
 10
105.4985
 20
12.1698
 10
105.395
 20
12.1805
 10
105.2902
 20
12.1877
 10
105.1841
 20
12.1913
 10
105.0713
 20
12.1914
 10
104.9538
 20
12.1882
 10
104.8389
 20
12.1816
 10
104.7265
 20
12.1716
 10
104.6165
 20
12.1584
 10
104.5091
 20
12.1418
 10
104.4042
 20
12.1218
 10
104.3018
 20
12.0985
 10
104.2019
 20
12.0719
 10
104.1045
 20
12.0419
 10
104.0096
 20
12.0086
 10
103.9172
 20
11.9719
 10
103.8273
 20
11.932
 10
103.7399
 20
11.8886
 10
103.655
 20
11.842
 10
103.5726
 20
11.792
 10
103.4928
 20
11.7386
 10
103.4154
 20
11.6819
 10
103.3405
 20
11.6219
 10
103.2682
 20
11.5585
 10
103.1983
 20
11.4918
 10
103.1323
 20
11.4232
 10
103.0713
 20
11.3542
 10
103.0132
 20
11.2827
 10
102.9579
 20
11.2087
 10
102.9054
 20
11.1321
 10
102.8558
 20
11.053
 10
102.8091
 20
10.9713
 10
102.7651
 20
10.8871
 10
102.7241
 20
10.8003
 10
102.6858
 20
10.711
 10
102.6505
 20
10.6191
 10
102.6179
 20
10.5247
 10
102.5882
 20
10.4278
 10
102.5614
 20
10.3283
 10
102.5374
 20
10.2263
 10
102.5162
 20
10.1217
 10
102.4979
 20
10.0146
 10
102.4824
 20
9.9049
 10
102.4698
 20
9.7927
 10
102.46
 20
9.6779
 10
102.453
 20
9.5606
 10
102.4489
 20
9.4408
 10
102.4477
 20
9.3185
 10
102.4493
 20
9.1974
 10
102.4537
 20
9.0788
 10
102.461
 20
8.9625
 10
102.4712
 20
8.8485
 10
102.4843
 20
8.737
 10
102.5002
 20
8.6277
 10
102.519
 20
8.5209
 10
102.5406
 20
8.4164
 10
102.5651
 20
8.3142
 10
102.5925
 20
8.2144
 10
102.6228
 20
8.117
 10
102.6559
 20
8.0219
 10
102.6918
 20
7.9292
 10
102.7307
 20
7.8388
 10
102.7724
 20
7.7508
 10
102.8169
 20
7.6652
 10
102.8643
 20
7.5819
 10
102.9146
 20
7.501
 10
102.9678
 20
7.4224
 10
103.0238
 20
7.3462
 10
103.0827
 20
7.2724
 10
103.1445
 20
7.2009
 10
103.2091
 20
7.1318
 10
103.2765
 20
7.065
 10
103.3453
 20
7.002
 10
103.4143
 20
6.9432
 10
103.4854
 20
6.8869
 10
103.5588
 20
6.8328
 10
103.6343
 20
6.7811
 10
103.7121
 20
6.7317
 10
103.7921
 20
6.6847
 10
103.8744
 20
6.64
 10
103.9588
 20
6.5977
 10
104.0455
 20
6.5577
 10
104.1343
 20
6.52
 10
104.2254
 20
6.4847
 10
104.3187
 20
6.4517
 10
104.4143
 20
6.4211
 10
104.512
 20
6.3928
 10
104.612
 20
6.3668
 10
104.7141
 20
6.3432
 10
104.8185
 20
6.3219
 10
104.9251
 20
6.303
 10
105.034
 20
6.2863
 10
105.145
 20
6.2721
 10
105.2583
 20
6.2602
 10
105.3737
 20
6.2506
 10
105.4914
 20
6.2433
 10
105.6113
 20
6.2384
 10
105.7335
 20
6.2359
 10
105.8489
 20
6.2355
 10
105.9519
 20
6.2362
 10
106.0548
 20
6.2376
 10
106.1576
 20
6.2398
 10
106.2604
 20
6.2427
 10
106.3631
 20
6.2464
 10
106.4658
 20
6.2508
 10
106.5685
 20
6.256
 10
106.671
 20
6.2619
 10
106.7736
 20
6.2686
 10
106.876
 20
6.276
 10
106.9784
 20
6.2842
 10
107.0808
 20
6.2931
 10
107.1836
 20
6.3028
 10
107.2877
 20
6.3133
 10
107.3914
 20
6.3243
 10
107.4947
 20
6.3359
 10
107.5977
 20
6.3481
 10
107.7002
 20
6.3608
 10
107.8024
 20
6.374
 10
107.9042
 20
6.3879
 10
108.0055
 20
6.4022
 10
108.1065
 20
6.4172
 10
108.2071
 20
6.4327
 10
108.3073
 20
6.4487
 10
108.4071
 20
6.4653
 10
108.4817
 20
6.4486
 10
108.4935
 20
6.3465
 10
108.5052
 20
6.2443
 10
108.5169
 20
6.1422
 10
108.5287
 20
6.0401
 10
108.5404
 20
5.9379
 10
108.5522
 20
5.8358
 10
108.5639
 20
5.7337
 10
108.5757
 20
5.6315
 10
108.5874
 20
5.5294
 10
108.5992
 20
5.4273
 10
108.6109
 20
5.3251
 10
108.6227
 20
5.223
 10
108.6344
 20
5.1209
 10
108.6462
 20
5.0187
 10
108.6579
 20
4.9166
 10
108.6696
 20
4.8145
 10
108.6814
 20
4.7123
 10
108.6931
 20
4.6102
 10
108.7049
 20
4.5081
 10
108.7166
 20
4.4059
 10
108.6527
 20
4.3593
 10
108.5541
 20
4.3387
 10
108.455
 20
4.319
 10
108.3554
 20
4.3002
 10
108.2554
 20
4.2824
 10
108.1549
 20
4.2655
 10
108.0539
 20
4.2496
 10
107.9524
 20
4.2346
 10
107.8505
 20
4.2205
 10
107.7481
 20
4.2074
 10
107.6453
 20
4.1953
 10
107.542
 20
4.184
 10
107.4382
 20
4.1737
 10
107.3339
 20
4.1644
 10
107.2292
 20
4.156
 10
107.1239
 20
4.1485
 10
107.0184
 20
4.1416
 10
106.9134
 20
4.1352
 10
106.8087
 20
4.1293
 10
106.7045
 20
4.1238
 10
106.6006
 20
4.1188
 10
106.4972
 20
4.1143
 10
106.3941
 20
4.1102
 10
106.2915
 20
4.1067
 10
106.1892
 20
4.1036
 10
106.0873
 20
4.1009
 10
105.9859
 20
4.0988
 10
105.8848
 20
4.0971
  0
LWPOLYLINE
  5
3E
330
17
100
AcDbEntity
  8
OUTLINE
100
AcDbPolyline
 90
366
 70
1
 10
58.027
 20
9.0138
 10
58.027
 20
8.8129
 10
58.027
 20
8.612
 10
58.027
 20
8.4111
 10
58.027
 20
8.2102
 10
58.027
 20
8.0093
 10
58.027
 20
7.8084
 10
58.027
 20
7.6075
 10
58.027
 20
7.4066
 10
58.027
 20
7.2057
 10
58.027
 20
7.0048
 10
58.027
 20
6.8039
 10
58.027
 20
6.603
 10
58.027
 20
6.4021
 10
58.027
 20
6.2012
 10
58.027
 20
6.0003
 10
58.027
 20
5.7994
 10
58.027
 20
5.5985
 10
58.027
 20
5.3976
 10
58.027
 20
5.1967
 10
58.027
 20
4.9958
 10
58.027
 20
4.7949
 10
58.027
 20
4.594
 10
58.027
 20
4.3931
 10
57.938
 20
4.2811
 10
57.7372
 20
4.2811
 10
57.5363
 20
4.2811
 10
57.3354
 20
4.2811
 10
57.1345
 20
4.2811
 10
56.9336
 20
4.2811
 10
56.7327
 20
4.2811
 10
56.5318
 20
4.2811
 10
56.3309
 20
4.2811
 10
56.13
 20
4.2811
 10
55.9291
 20
4.2811
 10
55.7282
 20
4.2811
 10
55.7282
 20
4.482
 10
55.7282
 20
4.6829
 10
55.7282
 20
4.8838
 10
55.7282
 20
5.0847
 10
55.7282
 20
5.2856
 10
55.7282
 20
5.4865
 10
55.7282
 20
5.6874
 10
55.7282
 20
5.8883
 10
55.7282
 20
6.0892
 10
55.7282
 20
6.2901
 10
55.7282
 20
6.491
 10
55.7282
 20
6.6919
 10
55.7282
 20
6.8928
 10
55.7282
 20
7.0937
 10
55.7282
 20
7.2946
 10
55.7282
 20
7.4955
 10
55.7282
 20
7.6964
 10
55.7282
 20
7.8973
 10
55.7282
 20
8.0982
 10
55.7282
 20
8.2991
 10
55.7282
 20
8.5
 10
55.7282
 20
8.7009
 10
55.7282
 20
8.9018
 10
55.7282
 20
9.1027
 10
55.7282
 20
9.3036
 10
55.7282
 20
9.5045
 10
55.7282
 20
9.7054
 10
55.7282
 20
9.9063
 10
55.7282
 20
10.1072
 10
55.7282
 20
10.3081
 10
55.7282
 20
10.509
 10
55.7282
 20
10.7099
 10
55.7282
 20
10.9108
 10
55.7282
 20
11.1117
 10
55.7282
 20
11.3126
 10
55.7282
 20
11.5135
 10
55.7282
 20
11.7144
 10
55.7282
 20
11.9153
 10
55.7282
 20
12.1162
 10
55.7282
 20
12.3171
 10
55.7282
 20
12.518
 10
55.7282
 20
12.7189
 10
55.7282
 20
12.9198
 10
55.7282
 20
13.1207
 10
55.7282
 20
13.3216
 10
55.7282
 20
13.5225
 10
55.7282
 20
13.7234
 10
55.7282
 20
13.9243
 10
55.7282
 20
14.1252
 10
55.9081
 20
14.1461
 10
56.109
 20
14.1461
 10
56.3099
 20
14.1461
 10
56.5108
 20
14.1461
 10
56.7117
 20
14.1461
 10
56.9126
 20
14.1461
 10
57.1135
 20
14.1461
 10
57.3144
 20
14.1461
 10
57.5153
 20
14.1461
 10
57.7162
 20
14.1461
 10
57.8079
 20
14.024
 10
57.8302
 20
13.8244
 10
57.8525
 20
13.6247
 10
57.8747
 20
13.4251
 10
57.897
 20
13.2254
 10
57.9193
 20
13.0257
 10
57.9416
 20
12.8261
 10
57.9639
 20
12.6264
 10
57.9862
 20
12.4268
 10
57.9937
 20
12.3593
 10
58.075
 20
12.3593
 10
58.194
 20
12.3593
 10
58.2593
 20
12.433
 10
58.28
 20
12.569
 10
58.3054
 20
12.6998
 10
58.3355
 20
12.8255
 10
58.3704
 20
12.9462
 10
58.4099
 20
13.0617
 10
58.4542
 20
13.1722
 10
58.5032
 20
13.2775
 10
58.557
 20
13.3778
 10
58.6154
 20
13.4729
 10
58.6786
 20
13.563
 10
58.7464
 20
13.6479
 10
58.819
 20
13.7278
 10
58.8963
 20
13.8025
 10
58.9754
 20
13.8698
 10
59.0551
 20
13.9292
 10
59.1396
 20
13.9846
 10
59.2288
 20
14.0359
 10
59.3229
 20
14.0831
 10
59.4217
 20
14.1262
 10
59.5254
 20
14.1652
 10
59.6338
 20
14.2001
 10
59.747
 20
14.231
 10
59.865
 20
14.2577
 10
59.9879
 20
14.2804
 10
60.1155
 20
14.2989
 10
60.2479
 20
14.3134
 10
60.385
 20
14.3238
 10
60.527
 20
14.3301
 10
60.6738
 20
14.3323
 10
60.8117
 20
14.3305
 10
60.9465
 20
14.325
 10
61.0785
 20
14.3158
 10
61.2077
 20
14.3029
 10
61.3341
 20
14.2862
 10
61.4577
 20
14.2657
 10
61.5785
 20
14.2415
 10
61.6965
 20
14.2136
 10
61.8118
 20
14.1819
 10
61.9242
 20
14.1465
 10
62.0339
 20
14.1073
 10
62.1407
 20
14.0644
 10
62.2448
 20
14.0178
 10
62.3461
 20
13.9674
 10
62.4446
 20
13.9133
 10
62.5403
 20
13.8554
 10
62.6332
 20
13.7938
 10
62.7234
 20
13.7284
 10
62.8107
 20
13.6594
 10
62.8953
 20
13.5865
 10
62.977
 20
13.5099
 10
63.056
 20
13.4296
 10
63.1299
 20
13.3482
 10
63.1979
 20
13.2672
 10
63.2631
 20
13.1835
 10
63.3253
 20
13.0971
 10
63.3846
 20
13.0081
 10
63.4409
 20
12.9164
 10
63.4943
 20
12.822
 10
63.5448
 20
12.725
 10
63.5924
 20
12.6253
 10
63.637
 20
12.5229
 10
63.6787
 20
12.4178
 10
63.7175
 20
12.3101
 10
63.7534
 20
12.1997
 10
63.7863
 20
12.0866
 10
63.8163
 20
11.9708
 10
63.8434
 20
11.8524
 10
63.8675
 20
11.7313
 10
63.8887
 20
11.6075
 10
63.907
 20
11.4811
 10
63.9224
 20
11.352
 10
63.9348
 20
11.2202
 10
63.9443
 20
11.0857
 10
63.9509
 20
10.9486
 10
63.9545
 20
10.8088
 10
63.9553
 20
10.6725
 10
63.9553
 20
10.5535
 10
63.9553
 20
10.4344
 10
63.9553
 20
10.3154
 10
63.9553
 20
10.1963
 10
63.9553
 20
10.0773
 10
63.9553
 20
9.9582
 10
63.9553
 20
9.8392
 10
63.9553
 20
9.7202
 10
63.9553
 20
9.6011
 10
63.9553
 20
9.4821
 10
63.9553
 20
9.363
 10
63.9553
 20
9.244
 10
63.9553
 20
9.1249
 10
63.9553
 20
9.0059
 10
63.9553
 20
8.8868
 10
63.9553
 20
8.7678
 10
63.9553
 20
8.6488
 10
63.9553
 20
8.5297
 10
63.9553
 20
8.4107
 10
63.9553
 20
8.2916
 10
63.9553
 20
8.1726
 10
63.9553
 20
8.0535
 10
63.9553
 20
7.9345
 10
63.9553
 20
7.8155
 10
63.9553
 20
7.6964
 10
63.9553
 20
7.5774
 10
63.9553
 20
7.4583
 10
63.9553
 20
7.3393
 10
63.9553
 20
7.2202
 10
63.9553
 20
7.1012
 10
63.9553
 20
6.9821
 10
63.9553
 20
6.8631
 10
63.9553
 20
6.7441
 10
63.9553
 20
6.625
 10
63.9553
 20
6.506
 10
63.9553
 20
6.3869
 10
63.9553
 20
6.2679
 10
63.9553
 20
6.1488
 10
63.9553
 20
6.0298
 10
63.9553
 20
5.9108
 10
63.9553
 20
5.7917
 10
63.9553
 20
5.6727
 10
63.9553
 20
5.5536
 10
63.9553
 20
5.4346
 10
63.9553
 20
5.3155
 10
63.9553
 20
5.1965
 10
63.9553
 20
5.0774
 10
63.9553
 20
4.9584
 10
63.9553
 20
4.8394
 10
63.9553
 20
4.7203
 10
63.9553
 20
4.6013
 10
63.9553
 20
4.4822
 10
63.9553
 20
4.3632
 10
63.9184
 20
4.2811
 10
63.7993
 20
4.2811
 10
63.6803
 20
4.2811
 10
63.5612
 20
4.2811
 10
63.4422
 20
4.2811
 10
63.3231
 20
4.2811
 10
63.2041
 20
4.2811
 10
63.085
 20
4.2811
 10
62.966
 20
4.2811
 10
62.847
 20
4.2811
 10
62.7279
 20
4.2811
 10
62.6089
 20
4.2811
 10
62.4898
 20
4.2811
 10
62.3708
 20
4.2811
 10
62.2517
 20
4.2811
 10
62.1327
 20
4.2811
 10
62.0137
 20
4.2811
 10
61.8946
 20
4.2811
 10
61.7756
 20
4.2811
 10
61.6565
 20
4.2811
 10
61.6565
 20
4.4002
 10
61.6565
 20
4.5192
 10
61.6565
 20
4.6383
 10
61.6565
 20
4.7573
 10
61.6565
 20
4.8763
 10
61.6565
 20
4.9954
 10
61.6565
 20
5.1144
 10
61.6565
 20
5.2335
 10
61.6565
 20
5.3525
 10
61.6565
 20
5.4716
 10
61.6565
 20
5.5906
 10
61.6565
 20
5.7097
 10
61.6565
 20
5.8287
 10
61.6565
 20
5.9477
 10
61.6565
 20
6.0668
 10
61.6565
 20
6.1858
 10
61.6565
 20
6.3049
 10
61.6565
 20
6.4239
 10
61.6565
 20
6.543
 10
61.6565
 20
6.662
 10
61.6565
 20
6.781
 10
61.6565
 20
6.9001
 10
61.6565
 20
7.0191
 10
61.6565
 20
7.1382
 10
61.6565
 20
7.2572
 10
61.6565
 20
7.3763
 10
61.6565
 20
7.4953
 10
61.6565
 20
7.6144
 10
61.6565
 20
7.7334
 10
61.6565
 20
7.8524
 10
61.6565
 20
7.9715
 10
61.6565
 20
8.0905
 10
61.6565
 20
8.2096
 10
61.6565
 20
8.3286
 10
61.6565
 20
8.4477
 10
61.6565
 20
8.5667
 10
61.6565
 20
8.6857
 10
61.6565
 20
8.8048
 10
61.6565
 20
8.9238
 10
61.6565
 20
9.0429
 10
61.6565
 20
9.1619
 10
61.6565
 20
9.281
 10
61.6565
 20
9.4
 10
61.6565
 20
9.519
 10
61.6565
 20
9.6381
 10
61.6565
 20
9.7571
 10
61.6565
 20
9.8762
 10
61.6565
 20
9.9952
 10
61.6565
 20
10.1143
 10
61.6565
 20
10.2333
 10
61.6564
 20
10.357
 10
61.6527
 20
10.4984
 10
61.6437
 20
10.6343
 10
61.6292
 20
10.7648
 10
61.6093
 20
10.8899
 10
61.5841
 20
11.0097
 10
61.5534
 20
11.124
 10
61.5174
 20
11.233
 10
61.4759
 20
11.3365
 10
61.4291
 20
11.4347
 10
61.3769
 20
11.5274
 10
61.3193
 20
11.6148
 10
61.2563
 20
11.6968
 10
61.1802
 20
11.7813
 10
61.0971
 20
11.8592
 10
61.0084
 20
11.9289
 10
60.9141
 20
11.9904
 10
60.8141
 20
12.0438
 10
60.7084
 20
12.0889
 10
60.597
 20
12.1259
 10
60.48
 20
12.1546
 10
60.3573
 20
12.1752
 10
60.2289
 20
12.1876
 10
60.0949
 20
12.1918
 10
59.9709
 20
12.1893
 10
59.8509
 20
12.1818
 10
59.7346
 20
12.1692
 10
59.6223
 20
12.1515
 10
59.5137
 20
12.1288
 10
59.409
 20
12.101
 10
59.308
 20
12.0682
 10
59.211
 20
12.0302
 10
59.1177
 20
11.9872
 10
59.0283
 20
11.9392
 10
58.9426
 20
11.8861
 10
58.8609
 20
11.8279
 10
58.7829
 20
11.7646
 10
58.7088
 20
11.6963
 10
58.6385
 20
11.6229
 10
58.572
 20
11.5444
 10
58.5093
 20
11.4609
 10
58.4505
 20
11.3723
 10
58.3955
 20
11.2787
 10
58.3443
 20
11.1799
 10
58.2969
 20
11.0762
 10
58.2534
 20
10.9673
 10
58.2137
 20
10.8534
 10
58.1778
 20
10.7344
 10
58.1458
 20
10.6103
 10
58.1175
 20
10.4812
 10
58.0931
 20
10.347
 10
58.0725
 20
10.2078
 10
58.0558
 20
10.0635
 10
58.0428
 20
9.9141
 10
58.0337
 20
9.7597
 10
58.0285
 20
9.6001
 10
58.027
 20
9.5547
 10
58.027
 20
9.4156
 10
58.027
 20
9.2147
  0
LWPOLYLINE
  5
3F
330
17
100
AcDbEntity
  8
OUTLINE
100
AcDbPolyline
 90
648
 70
1
 10
70.7759
 20
4.0971
 10
70.6654
 20
4.0955
 10
70.5536
 20
4.095
 10
70.4604
 20
4.0953
 10
70.3675
 20
4.0963
 10
70.275
 20
4.0979
 10
70.1827
 20
4.1001
 10
70.0909
 20
4.103
 10
69.9993
 20
4.1065
 10
69.9081
 20
4.1107
 10
69.8172
 20
4.1155
 10
69.7267
 20
4.1209
 10
69.6365
 20
4.127
 10
69.5466
 20
4.1337
 10
69.4571
 20
4.1411
 10
69.3679
 20
4.1491
 10
69.279
 20
4.1577
 10
69.1905
 20
4.167
 10
69.1023
 20
4.177
 10
69.0144
 20
4.1875
 10
68.9269
 20
4.1987
 10
68.8397
 20
4.2106
 10
68.7529
 20
4.2231
 10
68.6664
 20
4.2362
 10
68.5802
 20
4.25
 10
68.4943
 20
4.2644
 10
68.4088
 20
4.2794
 10
68.3153
 20
4.2967
 10
68.2215
 20
4.3148
 10
68.1286
 20
4.3337
 10
68.0364
 20
4.3533
 10
67.9451
 20
4.3736
 10
67.8546
 20
4.3946
 10
67.7649
 20
4.4164
 10
67.676
 20
4.4388
 10
67.5879
 20
4.462
 10
67.5006
 20
4.4858
 10
67.4142
 20
4.5104
 10
67.3285
 20
4.5357
 10
67.2437
 20
4.5617
 10
67.1597
 20
4.5884
 10
67.0765
 20
4.6159
 10
66.9941
 20
4.644
 10
66.9125
 20
4.6729
 10
66.8318
 20
4.7025
 10
66.7518
 20
4.7328
 10
66.6727
 20
4.7638
 10
66.5943
 20
4.7955
 10
66.5357
 20
4.8399
 10
66.5475
 20
4.9289
 10
66.5592
 20
5.0179
 10
66.5709
 20
5.107
 10
66.5826
 20
5.196
 10
66.5943
 20
5.285
 10
66.6061
 20
5.3741
 10
66.6178
 20
5.4631
 10
66.6295
 20
5.5521
 10
66.6412
 20
5.6412
 10
66.6529
 20
5.7302
 10
66.6647
 20
5.8192
 10
66.6764
 20
5.9083
 10
66.6881
 20
5.9973
 10
66.6998
 20
6.0863
 10
66.7115
 20
6.1754
 10
66.7233
 20
6.2644
 10
66.735
 20
6.3534
 10
66.7467
 20
6.4425
 10
66.7584
 20
6.5315
 10
66.7701
 20
6.6205
 10
66.7819
 20
6.7096
 10
66.7936
 20
6.7986
 10
66.8053
 20
6.8876
 10
66.817
 20
6.9767
 10
66.8287
 20
7.0657
 10
66.9014
 20
7.0525
 10
66.9879
 20
7.0164
 10
67.0744
 20
6.9811
 10
67.1606
 20
6.9466
 10
67.2468
 20
6.9128
 10
67.3328
 20
6.8797
 10
67.4187
 20
6.8474
 10
67.5044
 20
6.8159
 10
67.5901
 20
6.7851
 10
67.6755
 20
6.7551
 10
67.7609
 20
6.7258
 10
67.8461
 20
6.6972
 10
67.9312
 20
6.6694
 10
68.0161
 20
6.6424
 10
68.1009
 20
6.6161
 10
68.1856
 20
6.5905
 10
68.2701
 20
6.5657
 10
68.3545
 20
6.5417
 10
68.4388
 20
6.5184
 10
68.5229
 20
6.4959
 10
68.6069
 20
6.4741
 10
68.6908
 20
6.453
 10
68.7745
 20
6.4328
 10
68.8603
 20
6.4127
 10
68.9542
 20
6.3917
 10
69.0476
 20
6.3716
 10
69.1405
 20
6.3527
 10
69.2329
 20
6.3347
 10
69.3248
 20
6.3178
 10
69.4162
 20
6.302
 10
69.507
 20
6.2872
 10
69.5974
 20
6.2734
 10
69.6872
 20
6.2607
 10
69.7765
 20
6.249
 10
69.8654
 20
6.2383
 10
69.9537
 20
6.2287
 10
70.0415
 20
6.2202
 10
70.1288
 20
6.2126
 10
70.2156
 20
6.2061
 10
70.3018
 20
6.2007
 10
70.3876
 20
6.1963
 10
70.4729
 20
6.1929
 10
70.5576
 20
6.1906
 10
70.6418
 20
6.1894
 10
70.7338
 20
6.1892
 10
70.8456
 20
6.1908
 10
70.9545
 20
6.1944
 10
71.0606
 20
6.2001
 10
71.1638
 20
6.2079
 10
71.2643
 20
6.2177
 10
71.3618
 20
6.2296
 10
71.4566
 20
6.2435
 10
71.5485
 20
6.2595
 10
71.6376
 20
6.2776
 10
71.7238
 20
6.2977
 10
71.8072
 20
6.3199
 10
71.8878
 20
6.3441
 10
71.9656
 20
6.3704
 10
72.0405
 20
6.3988
 10
72.1125
 20
6.4292
 10
72.1818
 20
6.4616
 10
72.2482
 20
6.4961
 10
72.3117
 20
6.5327
 10
72.3725
 20
6.5714
 10
72.4419
 20
6.6206
 10
72.5121
 20
6.6771
 10
72.5773
 20
6.7368
 10
72.6374
 20
6.7998
 10
72.6924
 20
6.8661
 10
72.7423
 20
6.9356
 10
72.7872
 20
7.0084
 10
72.827
 20
7.0844
 10
72.8618
 20
7.1637
 10
72.8914
 20
7.2462
 10
72.916
 20
7.332
 10
72.9355
 20
7.421
 10
72.95
 20
7.5134
 10
72.9594
 20
7.6089
 10
72.9637
 20
7.7077
 10
72.9631
 20
7.8004
 10
72.9579
 20
7.887
 10
72.9482
 20
7.9717
 10
72.934
 20
8.0545
 10
72.9153
 20
8.1355
 10
72.892
 20
8.2145
 10
72.8643
 20
8.2917
 10
72.832
 20
8.367
 10
72.7953
 20
8.4404
 10
72.754
 20
8.5119
 10
72.7082
 20
8.5815
 10
72.6579
 20
8.6493
 10
72.6031
 20
8.7151
 10
72.5438
 20
8.7791
 10
72.48
 20
8.8412
 10
72.4117
 20
8.9014
 10
72.3388
 20
8.9597
 10
72.2615
 20
9.0162
 10
72.1796
 20
9.0707
 10
72.0932
 20
9.1234
 10
72.0024
 20
9.1741
 10
71.907
 20
9.223
 10
71.8114
 20
9.2684
 10
71.7303
 20
9.3069
 10
71.6492
 20
9.3455
 10
71.5681
 20
9.384
 10
71.487
 20
9.4225
 10
71.4059
 20
9.4611
 10
71.3248
 20
9.4996
 10
71.2436
 20
9.5382
 10
71.1625
 20
9.5767
 10
71.0814
 20
9.6153
 10
71.0003
 20
9.6538
 10
70.9192
 20
9.6923
 10
70.8381
 20
9.7309
 10
70.757
 20
9.7694
 10
70.6759
 20
9.808
 10
70.5948
 20
9.8465
 10
70.5136
 20
9.885
 10
70.4325
 20
9.9236
 10
70.3514
 20
9.9621
 10
70.2703
 20
10.0007
 10
70.1892
 20
10.0392
 10
70.1081
 20
10.0777
 10
70.027
 20
10.1163
 10
69.9459
 20
10.1548
 10
69.8648
 20
10.1934
 10
69.7837
 20
10.2319
 10
69.6935
 20
10.2748
 10
69.6032
 20
10.3191
 10
69.5142
 20
10.364
 10
69.4267
 20
10.4096
 10
69.3406
 20
10.4559
 10
69.2559
 20
10.5029
 10
69.1726
 20
10.5506
 10
69.0907
 20
10.5989
 10
69.0102
 20
10.6479
 10
68.9311
 20
10.6976
 10
68.8535
 20
10.748
 10
68.7773
 20
10.7991
 10
68.7024
 20
10.8508
 10
68.629
 20
10.9033
 10
68.557
 20
10.9564
 10
68.4864
 20
11.0102
 10
68.4172
 20
11.0646
 10
68.3495
 20
11.1198
 10
68.2831
 20
11.1756
 10
68.2182
 20
11.2321
 10
68.1546
 20
11.2893
 10
68.0925
 20
11.3471
 10
68.0318
 20
11.4057
 10
67.9725
 20
11.4649
 10
67.9146
 20
11.5248
 10
67.8581
 20
11.5854
 10
67.8031
 20
11.6467
 10
67.7494
 20
11.7086
 10
67.6972
 20
11.7713
 10
67.6463
 20
11.8346
 10
67.5917
 20
11.9055
 10
67.5378
 20
11.9791
 10
67.4861
 20
12.0535
 10
67.4365
 20
12.1287
 10
67.389
 20
12.2047
 10
67.3437
 20
12.2816
 10
67.3005
 20
12.3593
 10
67.2595
 20
12.4378
 10
67.2206
 20
12.5171
 10
67.1839
 20
12.5973
 10
67.1493
 20
12.6783
 10
67.1168
 20
12.7601
 10
67.0865
 20
12.8428
 10
67.0583
 20
12.9262
 10
67.0323
 20
13.0105
 10
67.0084
 20
13.0957
 10
66.9866
 20
13.1816
 10
66.967
 20
13.2684
 10
66.9496
 20
13.356
 10
66.9343
 20
13.4444
 10
66.9211
 20
13.5336
 10
66.9101
 20
13.6237
 10
66.9012
 20
13.7146
 10
66.8944
 20
13.8064
 10
66.8898
 20
13.8989
 10
66.8874
 20
13.9923
 10
66.887
 20
14.0897
 10
66.8887
 20
14.1923
 10
66.8924
 20
14.2934
 10
66.8981
 20
14.3932
 10
66.9057
 20
14.4916
 10
66.9153
 20
14.5885
 10
66.9269
 20
14.6841
 10
66.9405
 20
14.7783
 10
66.9561
 20
14.871
 10
66.9736
 20
14.9623
 10
66.9931
 20
15.0523
 10
67.0146
 20
15.1408
 10
67.0381
 20
15.2279
 10
67.0636
 20
15.3137
 10
67.0911
 20
15.398
 10
67.1205
 20
15.4809
 10
67.1519
 20
15.5624
 10
67.1853
 20
15.6425
 10
67.2207
 20
15.7212
 10
67.2581
 20
15.7985
 10
67.2974
 20
15.8744
 10
67.3387
 20
15.9489
 10
67.382
 20
16.022
 10
67.4273
 20
16.0936
 10
67.4746
 20
16.1639
 10
67.5238
 20
16.2328
 10
67.5751
 20
16.3002
 10
67.6283
 20
16.3663
 10
67.6835
 20
16.4309
 10
67.7407
 20
16.4942
 10
67.7998
 20
16.556
 10
67.861
 20
16.6164
 10
67.9241
 20
16.6755
 10
67.9892
 20
16.7331
 10
68.0493
 20
16.7836
 10
68.1107
 20
16.8327
 10
68.1735
 20
16.8804
 10
68.2375
 20
16.9267
 10
68.3029
 20
16.9716
 10
68.3696
 20
17.0152
 10
68.4377
 20
17.0574
 10
68.5071
 20
17.0982
 10
68.5778
 20
17.1377
 10
68.6498
 20
17.1757
 10
68.7232
 20
17.2124
 10
68.7979
 20
17.2477
 10
68.8739
 20
17.2816
 10
68.9513
 20
17.3142
 10
69.03
 20
17.3454
 10
69.11
 20
17.3751
 10
69.1914
 20
17.4036
 10
69.274
 20
17.4306
 10
69.3581
 20
17.4563
 10
69.4434
 20
17.4806
 10
69.5301
 20
17.5035
 10
69.6181
 20
17.525
 10
69.7074
 20
17.5452
 10
69.7981
 20
17.5639
 10
69.89
 20
17.5813
 10
69.9834
 20
17.5974
 10
70.078
 20
17.612
 10
70.174
 20
17.6253
 10
70.2713
 20
17.6372
 10
70.3699
 20
17.6477
 10
70.4699
 20
17.6568
 10
70.5712
 20
17.6646
 10
70.6738
 20
17.6709
 10
70.7778
 20
17.6759
 10
70.8831
 20
17.6796
 10
70.9897
 20
17.6818
 10
71.0977
 20
17.6827
 10
71.1947
 20
17.6823
 10
71.2893
 20
17.6807
 10
71.3834
 20
17.6779
 10
71.477
 20
17.6739
 10
71.57
 20
17.6688
 10
71.6624
 20
17.6624
 10
71.7542
 20
17.6549
 10
71.8455
 20
17.6463
 10
71.9361
 20
17.6364
 10
72.0263
 20
17.6254
 10
72.1158
 20
17.6132
 10
72.2048
 20
17.5998
 10
72.2932
 20
17.5852
 10
72.3811
 20
17.5695
 10
72.4683
 20
17.5525
 10
72.555
 20
17.5344
 10
72.6412
 20
17.5152
 10
72.7268
 20
17.4947
 10
72.8117
 20
17.4731
 10
72.8962
 20
17.4503
 10
72.98
 20
17.4263
 10
73.0633
 20
17.4011
 10
73.146
 20
17.3748
 10
73.2282
 20
17.3473
 10
73.3098
 20
17.3186
 10
73.3908
 20
17.2887
 10
73.4718
 20
17.2574
 10
73.5535
 20
17.2244
 10
73.6346
 20
17.1902
 10
73.7151
 20
17.1547
 10
73.7951
 20
17.118
 10
73.8746
 20
17.08
 10
73.9535
 20
17.0408
 10
74.0319
 20
17.0003
 10
74.1098
 20
16.9585
 10
74.1871
 20
16.9155
 10
74.2639
 20
16.8712
 10
74.3401
 20
16.8257
 10
74.4158
 20
16.7789
 10
74.491
 20
16.7309
 10
74.5656
 20
16.6816
 10
74.6397
 20
16.6311
 10
74.7133
 20
16.5793
 10
74.7863
 20
16.5262
 10
74.8588
 20
16.4719
 10
74.9307
 20
16.4163
 10
75.0021
 20
16.3595
 10
75.0729
 20
16.3014
 10
75.1432
 20
16.2421
 10
75.213
 20
16.1815
 10
75.2823
 20
16.1197
 10
75.351
 20
16.0566
 10
75.3702
 20
15.9915
 10
75.3099
 20
15.925
 10
75.2495
 20
15.8585
 10
75.1892
 20
15.7919
 10
75.1289
 20
15.7254
 10
75.0686
 20
15.6589
 10
75.0083
 20
15.5923
 10
74.948
 20
15.5258
 10
74.8876
 20
15.4593
 10
74.8273
 20
15.3928
 10
74.767
 20
15.3262
 10
74.7067
 20
15.2597
 10
74.6464
 20
15.1932
 10
74.5861
 20
15.1266
 10
74.5257
 20
15.0601
 10
74.4654
 20
14.9936
 10
74.4051
 20
14.9271
 10
74.3448
 20
14.8605
 10
74.2845
 20
14.794
 10
74.2241
 20
14.7275
 10
74.1638
 20
14.6609
 10
74.1035
 20
14.5944
 10
74.0432
 20
14.5279
 10
73.9829
 20
14.4614
 10
73.9226
 20
14.3948
 10
73.8622
 20
14.3283
 10
73.7875
 20
14.3842
 10
73.7118
 20
14.4489
 10
73.6363
 20
14.5118
 10
73.5611
 20
14.5729
 10
73.4861
 20
14.6323
 10
73.4113
 20
14.69
 10
73.3368
 20
14.7459
 10
73.2625
 20
14.8
 10
73.1884
 20
14.8524
 10
73.1146
 20
14.903
 10
73.041
 20
14.9518
 10
72.9676
 20
14.9989
 10
72.8945
 20
15.0443
 10
72.8216
 20
15.0879
 10
72.749
 20
15.1297
 10
72.6765
 20
15.1698
 10
72.6044
 20
15.2081
 10
72.5324
 20
15.2447
 10
72.4595
 20
15.28
 10
72.3726
 20
15.3199
 10
72.2857
 20
15.3571
 10
72.1989
 20
15.3916
 10
72.1121
 20
15.4234
 10
72.0254
 20
15.4526
 10
71.9387
 20
15.4791
 10
71.852
 20
15.5029
 10
71.7654
 20
15.5241
 10
71.6788
 20
15.5426
 10
71.5922
 20
15.5585
 10
71.5057
 20
15.5717
 10
71.4193
 20
15.5822
 10
71.3329
 20
15.59
 10
71.2465
 20
15.5952
 10
71.1601
 20
15.5978
 10
71.0618
 20
15.5976
 10
70.9562
 20
15.5943
 10
70.8535
 20
15.5881
 10
70.7539
 20
15.5787
 10
70.6573
 20
15.5663
 10
70.5637
 20
15.5508
 10
70.4732
 20
15.5323
 10
70.3856
 20
15.5107
 10
70.3012
 20
15.486
 10
70.2197
 20
15.4583
 10
70.1413
 20
15.4275
 10
70.0659
 20
15.3937
 10
69.9935
 20
15.3568
 10
69.9241
 20
15.3168
 10
69.8578
 20
15.2738
 10
69.7945
 20
15.2277
 10
69.731
 20
15.1757
 10
69.6683
 20
15.1173
 10
69.6103
 20
15.0555
 10
69.5569
 20
14.9902
 10
69.5082
 20
14.9214
 10
69.4642
 20
14.8491
 10
69.4249
 20
14.7734
 10
69.3902
 20
14.6943
 10
69.3603
 20
14.6117
 10
69.335
 20
14.5256
 10
69.3144
 20
14.436
 10
69.2984
 20
14.343
 10
69.2872
 20
14.2465
 10
69.2806
 20
14.1466
 10
69.2787
 20
14.0442
 10
69.2819
 20
13.9514
 10
69.2905
 20
13.8606
 10
69.3044
 20
13.7719
 10
69.3238
 20
13.6852
 10
69.3485
 20
13.6006
 10
69.3786
 20
13.518
 10
69.414
 20
13.4374
 10
69.4549
 20
13.3589
 10
69.5011
 20
13.2825
 10
69.5527
 20
13.208
 10
69.6096
 20
13.1358
 10
69.6608
 20
13.077
 10
69.7152
 20
13.019
 10
69.773
 20
12.962
 10
69.8341
 20
12.9058
 10
69.8985
 20
12.8505
 10
69.9661
 20
12.7962
 10
70.0371
 20
12.7427
 10
70.1113
 20
12.6901
 10
70.1889
 20
12.6384
 10
70.2697
 20
12.5875
 10
70.3538
 20
12.5376
 10
70.4413
 20
12.4886
 10
70.532
 20
12.4404
 10
70.6165
 20
12.3979
 10
70.6969
 20
12.3579
 10
70.7773
 20
12.3179
 10
70.8577
 20
12.2779
 10
70.9381
 20
12.2379
 10
71.0185
 20
12.1979
 10
71.0989
 20
12.1579
 10
71.1793
 20
12.1179
 10
71.2597
 20
12.0779
 10
71.3401
 20
12.0379
 10
71.4205
 20
11.9979
 10
71.5009
 20
11.9579
 10
71.5813
 20
11.9179
 10
71.6617
 20
11.8779
 10
71.7421
 20
11.8378
 10
71.8225
 20
11.7978
 10
71.9029
 20
11.7578
 10
71.9833
 20
11.7178
 10
72.0637
 20
11.6778
 10
72.1441
 20
11.6378
 10
72.2245
 20
11.5978
 10
72.3049
 20
11.5578
 10
72.3853
 20
11.5178
 10
72.4735
 20
11.4738
 10
72.565
 20
11.427
 10
72.6551
 20
11.3797
 10
72.7437
 20
11.332
 10
72.831
 20
11.2839
 10
72.9168
 20
11.2352
 10
73.0012
 20
11.1861
 10
73.0842
 20
11.1365
 10
73.1657
 20
11.0864
 10
73.2459
 20
11.0359
 10
73.3246
 20
10.9849
 10
73.4019
 20
10.9335
 10
73.4777
 20
10.8815
 10
73.5522
 20
10.8291
 10
73.6252
 20
10.7763
 10
73.6968
 20
10.7229
 10
73.7669
 20
10.6691
 10
73.8357
 20
10.6148
 10
73.903
 20
10.5601
 10
73.9689
 20
10.5049
 10
74.0334
 20
10.4492
 10
74.0964
 20
10.3931
 10
74.1581
 20
10.3364
 10
74.2183
 20
10.2794
 10
74.277
 20
10.2218
 10
74.3344
 20
10.1638
 10
74.3903
 20
10.1053
 10
74.4448
 20
10.0463
 10
74.4979
 20
9.9869
 10
74.5496
 20
9.927
 10
74.6003
 20
9.8661
 10
74.6579
 20
9.7937
 10
74.7133
 20
9.7205
 10
74.7663
 20
9.6465
 10
74.8171
 20
9.5716
 10
74.8656
 20
9.4958
 10
74.9118
 20
9.4192
 10
74.9557
 20
9.3417
 10
74.9974
 20
9.2634
 10
75.0367
 20
9.1842
 10
75.0738
 20
9.1041
 10
75.1085
 20
9.0232
 10
75.141
 20
8.9415
 10
75.1712
 20
8.8589
 10
75.1992
 20
8.7754
 10
75.2248
 20
8.6911
 10
75.2481
 20
8.6059
 10
75.2692
 20
8.5199
 10
75.288
 20
8.433
 10
75.3045
 20
8.3453
 10
75.3187
 20
8.2567
 10
75.3306
 20
8.1673
 10
75.3402
 20
8.077
 10
75.3476
 20
7.9858
 10
75.3526
 20
7.8938
 10
75.3554
 20
7.8009
 10
75.3559
 20
7.7046
 10
75.3543
 20
7.6024
 10
75.3506
 20
7.5016
 10
75.3448
 20
7.4022
 10
75.337
 20
7.3042
 10
75.3271
 20
7.2077
 10
75.3151
 20
7.1126
 10
75.3011
 20
7.019
 10
75.285
 20
6.9268
 10
75.2668
 20
6.836
 10
75.2466
 20
6.7466
 10
75.2243
 20
6.6587
 10
75.1999
 20
6.5722
 10
75.1734
 20
6.4871
 10
75.1449
 20
6.4035
 10
75.1143
 20
6.3213
 10
75.0817
 20
6.2406
 10
75.0469
 20
6.1612
 10
75.0101
 20
6.0833
 10
74.9713
 20
6.0068
 10
74.9303
 20
5.9318
 10
74.8873
 20
5.8582
 10
74.8422
 20
5.786
 10
74.7951
 20
5.7153
 10
74.7459
 20
5.646
 10
74.6946
 20
5.5781
 10
74.6412
 20
5.5116
 10
74.5858
 20
5.4466
 10
74.5283
 20
5.383
 10
74.4688
 20
5.3209
 10
74.4071
 20
5.2602
 10
74.3434
 20
5.2009
 10
74.2777
 20
5.143
 10
74.2098
 20
5.0866
 10
74.1399
 20
5.0316
 10
74.0796
 20
4.9865
 10
74.0194
 20
4.9436
 10
73.9578
 20
4.9017
 10
73.895
 20
4.8608
 10
73.831
 20
4.8211
 10
73.7656
 20
4.7823
 10
73.6989
 20
4.7447
 10
73.6309
 20
4.7081
 10
73.5617
 20
4.6726
 10
73.4912
 20
4.6381
 10
73.4193
 20
4.6047
 10
73.3462
 20
4.5723
 10
73.2718
 20
4.541
 10
73.1961
 20
4.5108
 10
73.1192
 20
4.4816
 10
73.0409
 20
4.4535
 10
72.9613
 20
4.4265
 10
72.8805
 20
4.4005
 10
72.7984
 20
4.3756
 10
72.7149
 20
4.3517
 10
72.6302
 20
4.3289
 10
72.5442
 20
4.3071
 10
72.457
 20
4.2865
 10
72.3684
 20
4.2668
 10
72.2785
 20
4.2483
 10
72.1874
 20
4.2308
 10
72.0949
 20
4.2143
 10
72.0012
 20
4.1989
 10
71.9062
 20
4.1846
 10
71.8099
 20
4.1714
 10
71.7123
 20
4.1592
 10
71.6134
 20
4.148
 10
71.5132
 20
4.138
 10
71.4117
 20
4.1289
 10
71.309
 20
4.121
 10
71.205
 20
4.1141
 10
71.0996
 20
4.1083
 10
70.993
 20
4.1035
 10
70.8851
 20
4.0998
  0
ENDSEC
  0
SECTION
  2
OBJECTS
  0
DICTIONARY
  5
A
330
0
100
AcDbDictionary
281
1
  3
ACAD_COLOR
350
B
  3
ACAD_GROUP
350
C
  3
ACAD_LAYOUT
350
D
  3
ACAD_MATERIAL
350
E
  3
ACAD_MLEADERSTYLE
350
F
  3
ACAD_MLINESTYLE
350
10
  3
ACAD_PLOTSETTINGS
350
11
  3
ACAD_PLOTSTYLENAME
350
12
  3
ACAD_SCALELIST
350
14
  3
ACAD_TABLESTYLE
350
15
  3
ACAD_VISUALSTYLE
350
16
  3
EZDXF_META
350
2D
  0
DICTIONARY
  5
B
330
A
100
AcDbDictionary
281
1
  0
DICTIONARY
  5
C
330
A
100
AcDbDictionary
281
1
  0
DICTIONARY
  5
D
330
A
100
AcDbDictionary
281
1
  3
Model
350
1A
  3
Layout1
350
1E
  0
DICTIONARY
  5
E
330
A
100
AcDbDictionary
281
1
  3
ByBlock
350
1F
  3
ByLayer
350
20
  3
Global
350
21
  0
DICTIONARY
  5
F
330
A
100
AcDbDictionary
281
1
  3
Standard
350
2C
  0
DICTIONARY
  5
10
330
A
100
AcDbDictionary
281
1
  3
Standard
350
22
  0
DICTIONARY
  5
11
330
A
100
AcDbDictionary
281
1
  0
ACDBDICTIONARYWDFLT
  5
12
330
A
100
AcDbDictionary
281
1
  3
Normal
350
13
100
AcDbDictionaryWithDefault
340
13
  0
ACDBPLACEHOLDER
  5
13
330
12
  0
DICTIONARY
  5
14
330
A
100
AcDbDictionary
281
1
  0
DICTIONARY
  5
15
330
A
100
AcDbDictionary
281
1
  0
DICTIONARY
  5
16
330
A
100
AcDbDictionary
281
1
  0
LAYOUT
  5
1A
330
D
100
AcDbPlotSettings
  1

  4
A3
  6

 40
7.5
 41
20.0
 42
7.5
 43
20.0
 44
420.0
 45
297.0
 46
0.0
 47
0.0
 48
0.0
 49
0.0
140
0.0
141
0.0
142
1.0
143
1.0
 70
1024
 72
1
 73
0
 74
5
  7

 75
16
 76
0
 77
2
 78
300
147
1.0
148
0.0
149
0.0
100
AcDbLayout
  1
Model
 70
1
 71
0
 10
0.0
 20
0.0
 11
420.0
 21
297.0
 12
0.0
 22
0.0
 32
0.0
 14
1e+20
 24
1e+20
 34
1e+20
 15
-1e+20
 25
-1e+20
 35
-1e+20
146
0.0
 13
0.0
 23
0.0
 33
0.0
 16
1.0
 26
0.0
 36
0.0
 17
0.0
 27
1.0
 37
0.0
 76
1
330
17
  0
LAYOUT
  5
1E
330
D
100
AcDbPlotSettings
  1

  4
A3
  6

 40
7.5
 41
20.0
 42
7.5
 43
20.0
 44
420.0
 45
297.0
 46
0.0
 47
0.0
 48
0.0
 49
0.0
140
0.0
141
0.0
142
1.0
143
1.0
 70
0
 72
1
 73
0
 74
5
  7

 75
16
 76
0
 77
2
 78
300
147
1.0
148
0.0
149
0.0
100
AcDbLayout
  1
Layout1
 70
1
 71
1
 10
0.0
 20
0.0
 11
420.0
 21
297.0
 12
0.0
 22
0.0
 32
0.0
 14
1e+20
 24
1e+20
 34
1e+20
 15
-1e+20
 25
-1e+20
 35
-1e+20
146
0.0
 13
0.0
 23
0.0
 33
0.0
 16
1.0
 26
0.0
 36
0.0
 17
0.0
 27
1.0
 37
0.0
 76
1
330
1B
  0
MATERIAL
  5
1F
102
{ACAD_REACTORS
330
E
102
}
330
E
100
AcDbMaterial
  1
ByBlock
  2

 70
0
 40
1.0
 71
1
 41
1.0
 91
-1023410177
 42
1.0
 72
1
  3

 73
1
 74
1
 75
1
 44
0.5
 73
0
 45
1.0
 46
1.0
 77
1
  4

 78
1
 79
1
170
1
 48
1.0
171
1
  6

172
1
173
1
174
1
140
1.0
141
1.0
175
1
  7

176
1
177
1
178
1
143
1.0
179
1
  8

270
1
271
1
272
1
145
1.0
146
1.0
273
1
  9

274
1
275
1
276
1
 42
1.0
 72
1
  3

 73
1
 74
1
 75
1
 94
63
  0
MATERIAL
  5
20
102
{ACAD_REACTORS
330
E
102
}
330
E
100
AcDbMaterial
  1
ByLayer
  2

 70
0
 40
1.0
 71
1
 41
1.0
 91
-1023410177
 42
1.0
 72
1
  3

 73
1
 74
1
 75
1
 44
0.5
 73
0
 45
1.0
 46
1.0
 77
1
  4

 78
1
 79
1
170
1
 48
1.0
171
1
  6

172
1
173
1
174
1
140
1.0
141
1.0
175
1
  7

176
1
177
1
178
1
143
1.0
179
1
  8

270
1
271
1
272
1
145
1.0
146
1.0
273
1
  9

274
1
275
1
276
1
 42
1.0
 72
1
  3

 73
1
 74
1
 75
1
 94
63
  0
MATERIAL
  5
21
102
{ACAD_REACTORS
330
E
102
}
330
E
100
AcDbMaterial
  1
Global
  2

 70
0
 40
1.0
 71
1
 41
1.0
 91
-1023410177
 42
1.0
 72
1
  3

 73
1
 74
1
 75
1
 44
0.5
 73
0
 45
1.0
 46
1.0
 77
1
  4

 78
1
 79
1
170
1
 48
1.0
171
1
  6

172
1
173
1
174
1
140
1.0
141
1.0
175
1
  7

176
1
177
1
178
1
143
1.0
179
1
  8

270
1
271
1
272
1
145
1.0
146
1.0
273
1
  9

274
1
275
1
276
1
 42
1.0
 72
1
  3

 73
1
 74
1
 75
1
 94
63
  0
MLINESTYLE
  5
22
102
{ACAD_REACTORS
330
10
102
}
330
10
100
AcDbMlineStyle
  2
Standard
 70
0
  3

 62
256
 51
90.0
 52
90.0
 71
2
 49
0.5
 62
256
  6
BYLAYER
 49
-0.5
 62
256
  6
BYLAYER
  0
MLEADERSTYLE
  5
2C
102
{ACAD_REACTORS
330
F
102
}
330
F
100
AcDbMLeaderStyle
179
2
170
2
171
1
172
0
 90
2
 40
0.0
 41
0.0
173
1
 91
-1056964608
 92
-2
290
1
 42
2.0
291
1
 43
8.0
  3
Standard
 44
4.0
300

342
29
174
1
175
1
176
0
178
1
 93
-1056964608
 45
4.0
292
0
297
0
 46
4.0
 94
-1056964608
 47
1.0
 49
1.0
140
1.0
294
1
141
0.0
177
0
142
1.0
295
0
296
0
143
3.75
271
0
272
9
273
9
  0
DICTIONARY
  5
2D
330
A
100
AcDbDictionary
280
1
281
1
  3
CREATED_BY_EZDXF
350
2E
  3
WRITTEN_BY_EZDXF
350
42
  0
DICTIONARYVAR
  5
2E
330
2D
100
DictionaryVariables
280
0
  1
0.0 @ 2000-01-01T00:00:00.000000+00:00
  0
DICTIONARYVAR
  5
42
330
2D
100
DictionaryVariables
280
0
  1
0.0 @ 2000-01-01T00:00:00.000000+00:00
  0
ENDSEC
  0
EOF
