  0
SECTION
  2
HEADER
  9
$ACADVER
  1
AC1024
  9
$ACADMAINTVER
 70
6
  9
$DWGCODEPAGE
  3
ANSI_1252
  9
$LASTSAVEDBY
  1
ezdxf
  9
$INSBASE
 10
0.0
 20
0.0
 30
0.0
  9
$EXTMIN
 10
1e+20
 20
1e+20
 30
1e+20
  9
$EXTMAX
 10
-1e+20
 20
-1e+20
 30
-1e+20
  9
$LIMMIN
 10
0.0
 20
0.0
  9
$LIMMAX
 10
420.0
 20
297.0
  9
$ORTHOMODE
 70
0
  9
$REGENMODE
 70
1
  9
$FILLMODE
 70
1
  9
$QTEXTMODE
 70
0
  9
$MIRRTEXT
 70
1
  9
$LTSCALE
 40
1.0
  9
$ATTMODE
 70
1
  9
$TEXTSIZE
 40
2.5
  9
$TRACEWID
 40
1.0
  9
$TEXTSTYLE
  7
Standard
  9
$CLAYER
  8
0
  9
$CELTYPE
  6
ByLayer
  9
$CECOLOR
 62
256
  9
$CELTSCALE
 40
1.0
  9
$DISPSILH
 70
0
  9
$DIMSCALE
 40
1.0
  9
$DIMASZ
 40
2.5
  9
$DIMEXO
 40
0.625
  9
$DIMDLI
 40
3.75
  9
$DIMRND
 40
0.0
  9
$DIMDLE
 40
0.0
  9
$DIMEXE
 40
1.25
  9
$DIMTP
 40
0.0
  9
$DIMTM
 40
0.0
  9
$DIMTXT
 40
2.5
  9
$DIMCEN
 40
2.5
  9
$DIMTSZ
 40
0.0
  9
$DIMTOL
 70
0
  9
$DIMLIM
 70
0
  9
$DIMTIH
 70
0
  9
$DIMTOH
 70
0
  9
$DIMSE1
 70
0
  9
$DIMSE2
 70
0
  9
$DIMTAD
 70
1
  9
$DIMZIN
 70
8
  9
$DIMBLK
  1

  9
$DIMASO
 70
1
  9
$DIMSHO
 70
1
  9
$DIMPOST
  1

  9
$DIMAPOST
  1

  9
$DIMALT
 70
0
  9
$DIMALTD
 70
3
  9
$DIMALTF
 40
0.03937007874
  9
$DIMLFAC
 40
1.0
  9
$DIMTOFL
 70
1
  9
$DIMTVP
 40
0.0
  9
$DIMTIX
 70
0
  9
$DIMSOXD
 70
0
  9
$DIMSAH
 70
0
  9
$DIMBLK1
  1

  9
$DIMBLK2
  1

  9
$DIMSTYLE
  2
ISO-25
  9
$DIMCLRD
 70
0
  9
$DIMCLRE
 70
0
  9
$DIMCLRT
 70
0
  9
$DIMTFAC
 40
1.0
  9
$DIMGAP
 40
0.625
  9
$DIMJUST
 70
0
  9
$DIMSD1
 70
0
  9
$DIMSD2
 70
0
  9
$DIMTOLJ
 70
0
  9
$DIMTZIN
 70
8
  9
$DIMALTZ
 70
0
  9
$DIMALTTZ
 70
0
  9
$DIMUPT
 70
0
  9
$DIMDEC
 70
2
  9
$DIMTDEC
 70
2
  9
$DIMALTU
 70
2
  9
$DIMALTTD
 70
3
  9
$DIMTXSTY
  7
Standard
  9
$DIMAUNIT
 70
0
  9
$DIMADEC
 70
0
  9
$DIMALTRND
 40
0.0
  9
$DIMAZIN
 70
0
  9
$DIMDSEP
 70
44
  9
$DIMATFIT
 70
3
  9
$DIMFRAC
 70
0
  9
$DIMLDRBLK
  1

  9
$DIMLUNIT
 70
2
  9
$DIMLWD
 70
-2
  9
$DIMLWE
 70
-2
  9
$DIMTMOVE
 70
0
  9
$DIMFXL
 40
1.0
  9
$DIMFXLON
 70
0
  9
$DIMJOGANG
 40
0.785398163397
  9
$DIMTFILL
 70
0
  9
$DIMTFILLCLR
 70
0
  9
$DIMARCSYM
 70
0
  9
$DIMLTYPE
  6

  9
$DIMLTEX1
  6

  9
$DIMLTEX2
  6

  9
$DIMTXTDIRECTION
 70
0
  9
$LUNITS
 70
2
  9
$LUPREC
 70
4
  9
$SKETCHINC
 40
1.0
  9
$FILLETRAD
 40
10.0
  9
$AUNITS
 70
0
  9
$AUPREC
 70
2
  9
$MENU
  1
.
  9
$ELEVATION
 40
0.0
  9
$PELEVATION
 40
0.0
  9
$THICKNESS
 40
0.0
  9
$LIMCHECK
 70
0
  9
$CHAMFERA
 40
0.0
  9
$CHAMFERB
 40
0.0
  9
$CHAMFERC
 40
0.0
  9
$CHAMFERD
 40
0.0
  9
$SKPOLY
 70
0
  9
$TDCREATE
 40
2451545.0
  9
$TDUCREATE
 40
2451545.0
  9
$TDUPDATE
 40
2451545.0
  9
$TDUUPDATE
 40
2451545.0
  9
$TDINDWG
 40
0.0
  9
$TDUSRTIMER
 40
0.0
  9
$USRTIMER
 70
1
  9
$ANGBASE
 50
0.0
  9
$ANGDIR
 70
0
  9
$PDMODE
 70
0
  9
$PDSIZE
 40
0.0
  9
$PLINEWID
 40
0.0
  9
$SPLFRAME
 70
0
  9
$SPLINETYPE
 70
6
  9
$SPLINESEGS
 70
8
  9
$HANDSEED
  5
5F
  9
$SURFTAB1
 70
6
  9
$SURFTAB2
 70
6
  9
$SURFTYPE
 70
6
  9
$SURFU
 70
6
  9
$SURFV
 70
6
  9
$UCSBASE
  2

  9
$UCSNAME
  2

  9
$UCSORG
 10
0.0
 20
0.0
 30
0.0
  9
$UCSXDIR
 10
1.0
 20
0.0
 30
0.0
  9
$UCSYDIR
 10
0.0
 20
1.0
 30
0.0
  9
$UCSORTHOREF
  2

  9
$UCSORTHOVIEW
 70
0
  9
$UCSORGTOP
 10
0.0
 20
0.0
 30
0.0
  9
$UCSORGBOTTOM
 10
0.0
 20
0.0
 30
0.0
  9
$UCSORGLEFT
 10
0.0
 20
0.0
 30
0.0
  9
$UCSORGRIGHT
 10
0.0
 20
0.0
 30
0.0
  9
$UCSORGFRONT
 10
0.0
 20
0.0
 30
0.0
  9
$UCSORGBACK
 10
0.0
 20
0.0
 30
0.0
  9
$PUCSBASE
  2

  9
$PUCSNAME
  2

  9
$PUCSORG
 10
0.0
 20
0.0
 30
0.0
  9
$PUCSXDIR
 10
1.0
 20
0.0
 30
0.0
  9
$PUCSYDIR
 10
0.0
 20
1.0
 30
0.0
  9
$PUCSORTHOREF
  2

  9
$PUCSORTHOVIEW
 70
0
  9
$PUCSORGTOP
 10
0.0
 20
0.0
 30
0.0
  9
$PUCSORGBOTTOM
 10
0.0
 20
0.0
 30
0.0
  9
$PUCSORGLEFT
 10
0.0
 20
0.0
 30
0.0
  9
$PUCSORGRIGHT
 10
0.0
 20
0.0
 30
0.0
  9
$PUCSORGFRONT
 10
0.0
 20
0.0
 30
0.0
  9
$PUCSORGBACK
 10
0.0
 20
0.0
 30
0.0
  9
$USERI1
 70
0
  9
$USERI2
 70
0
  9
$USERI3
 70
0
  9
$USERI4
 70
0
  9
$USERI5
 70
0
  9
$USERR1
 40
0.0
  9
$USERR2
 40
0.0
  9
$USERR3
 40
0.0
  9
$USERR4
 40
0.0
  9
$USERR5
 40
0.0
  9
$WORLDVIEW
 70
1
  9
$SHADEDGE
 70
3
  9
$SHADEDIF
 70
70
  9
$TILEMODE
 70
1
  9
$MAXACTVP
 70
64
  9
$PINSBASE
 10
0.0
 20
0.0
 30
0.0
  9
$PLIMCHECK
 70
0
  9
$PEXTMIN
 10
1e+20
 20
1e+20
 30
1e+20
  9
$PEXTMAX
 10
-1e+20
 20
-1e+20
 30
-1e+20
  9
$PLIMMIN
 10
0.0
 20
0.0
  9
$PLIMMAX
 10
420.0
 20
297.0
  9
$UNITMODE
 70
0
  9
$VISRETAIN
 70
1
  9
$PLINEGEN
 70
0
  9
$PSLTSCALE
 70
1
  9
$TREEDEPTH
 70
3020
  9
$CMLSTYLE
  2
Standard
  9
$CMLJUST
 70
0
  9
$CMLSCALE
 40
20.0
  9
$PROXYGRAPHICS
 70
1
  9
$MEASUREMENT
 70
1
  9
$CELWEIGHT
370
-1
  9
$ENDCAPS
280
0
  9
$JOINSTYLE
280
0
  9
$LWDISPLAY
290
0
  9
$INSUNITS
 70
4
  9
$HYPERLINKBASE
  1

  9
$STYLESHEET
  1

  9
$XEDIT
290
1
  9
$CEPSNTYPE
380
0
  9
$PSTYLEMODE
290
1
  9
$FINGERPRINTGUID
  2
{00000000-0000-0000-0000-000000000000}
  9
$VERSIONGUID
  2
{00000000-0000-0000-0000-000000000000}
  9
$EXTNAMES
290
1
  9
$PSVPSCALE
 40
0.0
  9
$OLESTARTUP
290
0
  9
$SORTENTS
280
127
  9
$INDEXCTL
280
0
  9
$HIDETEXT
280
1
  9
$XCLIPFRAME
280
1
  9
$HALOGAP
280
0
  9
$OBSCOLOR
 70
257
  9
$OBSLTYPE
280
0
  9
$INTERSECTIONDISPLAY
280
0
  9
$INTERSECTIONCOLOR
 70
257
  9
$DIMASSOC
280
2
  9
$PROJECTNAME
  1

  9
$CAMERADISPLAY
290
0
  9
$LENSLENGTH
 40
50.0
  9
$CAMERAHEIGHT
 40
0.0
  9
$STEPSPERSEC
 40
24.0
  9
$STEPSIZE
 40
100.0
  9
$3DDWFPREC
 40
2.0
  9
$PSOLWIDTH
 40
0.005
  9
$PSOLHEIGHT
 40
0.08
  9
$LOFTANG1
 40
1.570796326795
  9
$LOFTANG2
 40
1.570796326795
  9
$LOFTMAG1
 40
0.0
  9
$LOFTMAG2
 40
0.0
  9
$LOFTPARAM
 70
7
  9
$LOFTNORMALS
280
1
  9
$LATITUDE
 40
37.795
  9
$LONGITUDE
 40
-122.394
  9
$NORTHDIRECTION
 40
0.0
  9
$TIMEZONE
 70
-8000
  9
$LIGHTGLYPHDISPLAY
280
1
  9
$TILEMODELIGHTSYNCH
280
1
  9
$CMATERIAL
347
20
  9
$SOLIDHIST
280
0
  9
$SHOWHIST
280
1
  9
$DWFFRAME
280
2
  9
$DGNFRAME
280
2
  9
$REALWORLDSCALE
290
1
  9
$INTERFERECOLOR
 62
256
  9
$CSHADOW
280
0
  9
$SHADOWPLANELOCATION
 40
0.0
  0
ENDSEC
  0
SECTION
  2
CLASSES
  0
CLASS
  1
ACDBDICTIONARYWDFLT
  2
AcDbDictionaryWithDefault
  3
ObjectDBX Classes
 90
0
 91
0
280
0
281
0
  0
CLASS
  1
SUN
  2
AcDbSun
  3
SCENEOE
 90
1153
 91
0
280
0
281
0
  0
CLASS
  1
VISUALSTYLE
  2
AcDbVisualStyle
  3
ObjectDBX Classes
 90
4095
 91
0
280
0
281
0
  0
CLASS
  1
MATERIAL
  2
AcDbMaterial
  3
ObjectDBX Classes
 90
1153
 91
0
280
0
281
0
  0
CLASS
  1
SCALE
  2
AcDbScale
  3
ObjectDBX Classes
 90
1153
 91
0
280
0
281
0
  0
CLASS
  1
TABLESTYLE
  2
AcDbTableStyle
  3
ObjectDBX Classes
 90
4095
 91
0
280
0
281
0
  0
CLASS
  1
MLEADERSTYLE
  2
AcDbMLeaderStyle
  3
ACDB_MLEADERSTYLE_CLASS
 90
4095
 91
0
280
0
281
0
  0
CLASS
  1
DICTIONARYVAR
  2
AcDbDictionaryVar
  3
ObjectDBX Classes
 90
0
 91
0
280
0
281
0
  0
CLASS
  1
CELLSTYLEMAP
  2
AcDbCellStyleMap
  3
ObjectDBX Classes
 90
1152
 91
0
280
0
281
0
  0
CLASS
  1
MENTALRAYRENDERSETTINGS
  2
AcDbMentalRayRenderSettings
  3
SCENEOE
 90
1024
 91
0
280
0
281
0
  0
CLASS
  1
ACDBDETAILVIEWSTYLE
  2
AcDbDetailViewStyle
  3
ObjectDBX Classes
 90
1025
 91
0
280
0
281
0
  0
CLASS
  1
ACDBSECTIONVIEWSTYLE
  2
AcDbSectionViewStyle
  3
ObjectDBX Classes
 90
1025
 91
0
280
0
281
0
  0
CLASS
  1
RASTERVARIABLES
  2
AcDbRasterVariables
  3
ISM
 90
0
 91
0
280
0
281
0
  0
CLASS
  1
ACDBPLACEHOLDER
  2
AcDbPlaceHolder
  3
ObjectDBX Classes
 90
0
 91
0
280
0
281
0
  0
CLASS
  1
LAYOUT
  2
AcDbLayout
  3
ObjectDBX Classes
 90
0
 91
0
280
0
281
0
  0
ENDSEC
  0
SECTION
  2
TABLES
  0
TABLE
  2
VPORT
  5
8
330
0
100
AcDbSymbolTable
 70
1
  0
VPORT
  5
23
330
8
100
AcDbSymbolTableRecord
100
AcDbViewportTableRecord
  2
*Active
 70
0
 10
0.0
 20
0.0
 11
1.0
 21
1.0
 12
0.0
 22
0.0
 13
0.0
 23
0.0
 14
0.5
 24
0.5
 15
0.5
 25
0.5
 16
0.0
 26
0.0
 36
1.0
 17
0.0
 27
0.0
 37
0.0
 40
1000.0
 41
1.34
 42
50.0
 43
0.0
 44
0.0
 50
0.0
 51
0.0
 71
0
 72
1000
 73
1
 74
3
 75
0
 76
0
 77
0
 78
0
281
0
 65
0
146
0.0
  0
ENDTAB
  0
TABLE
  2
LTYPE
  5
2
330
0
100
AcDbSymbolTable
 70
3
  0
LTYPE
  5
24
330
2
100
AcDbSymbolTableRecord
100
AcDbLinetypeTableRecord
  2
ByBlock
 70
0
  3

 72
65
 73
0
 40
0.0
  0
LTYPE
  5
25
330
2
100
AcDbSymbolTableRecord
100
AcDbLinetypeTableRecord
  2
ByLayer
 70
0
  3

 72
65
 73
0
 40
0.0
  0
LTYPE
  5
26
330
2
100
AcDbSymbolTableRecord
100
AcDbLinetypeTableRecord
  2
Continuous
 70
0
  3

 72
65
 73
0
 40
0.0
  0
ENDTAB
  0
TABLE
  2
LAYER
  5
1
330
0
100
AcDbSymbolTable
 70
3
  0
LAYER
  5
27
330
1
100
AcDbSymbolTableRecord
100
AcDbLayerTableRecord
  2
0
 70
0
 62
7
  6
Continuous
370
-3
390
13
347
21
  0
LAYER
  5
28
330
1
100
AcDbSymbolTableRecord
100
AcDbLayerTableRecord
  2
Defpoints
 70
0
 62
7
  6
Continuous
290
0
370
-3
390
13
347
21
  0
LAYER
  5
2F
330
1
100
AcDbSymbolTableRecord
100
AcDbLayerTableRecord
  2
OUTLINE
 70
0
 62
7
  6
Continuous
370
-3
390
13
347
21
  0
ENDTAB
  0
TABLE
  2
STYLE
  5
5
330
0
100
AcDbSymbolTable
 70
1
  0
STYLE
  5
29
330
5
100
AcDbSymbolTableRecord
100
AcDbTextStyleTableRecord
  2
Standard
 70
0
 40
0.0
 41
1.0
 50
0.0
 71
0
 42
2.5
  3
txt
  4

  0
ENDTAB
  0
TABLE
  2
VIEW
  5
7
330
0
100
AcDbSymbolTable
 70
0
  0
ENDTAB
  0
TABLE
  2
UCS
  5
6
330
0
100
AcDbSymbolTable
 70
0
  0
ENDTAB
  0
TABLE
  2
APPID
  5
3
330
0
100
AcDbSymbolTable
 70
3
  0
APPID
  5
2A
330
3
100
AcDbSymbolTableRecord
100
AcDbRegAppTableRecord
  2
ACAD
 70
0
  0
APPID
  5
5C
330
3
100
AcDbSymbolTableRecord
100
AcDbRegAppTableRecord
  2
HATCHBACKGROUNDCOLOR
 70
0
  0
APPID
  5
5D
330
3
100
AcDbSymbolTableRecord
100
AcDbRegAppTableRecord
  2
EZDXF
 70
0
  0
ENDTAB
  0
TABLE
  2
DIMSTYLE
  5
4
330
0
100
AcDbSymbolTable
 70
1
100
AcDbDimStyleTable
  0
DIMSTYLE
105
2B
330
4
100
AcDbSymbolTableRecord
100
AcDbDimStyleTableRecord
  2
Standard
 70
0
 40
1.0
 41
2.5
 42
0.625
 43
3.75
 44
1.25
 45
0.0
 46
0.0
 47
0.0
 48
0.0
 49
2.5
140
2.5
141
2.5
142
0.0
143
0.03937007874
144
1.0
145
0.0
146
1.0
147
0.625
148
0.0
 69
0
 70
0
 71
0
 72
0
 73
0
 74
0
 75
0
 76
0
 77
1
 78
8
 79
3
170
0
171
3
172
1
173
0
174
0
175
0
176
0
177
0
178
0
179
2
271
2
272
2
273
2
274
3
275
0
276
0
277
2
278
44
279
0
280
0
281
0
282
0
283
0
284
8
285
0
286
0
288
0
289
3
290
0
371
-2
372
-2
  0
ENDTAB
  0
TABLE
  2
BLOCK_RECORD
  5
9
330
0
100
AcDbSymbolTable
 70
2
  0
BLOCK_RECORD
  5
17
330
9
100
AcDbSymbolTableRecord
100
AcDbBlockTableRecord
  2
*Model_Space
340
1A
 70
0
280
1
281
0
  0
BLOCK_RECORD
  5
1B
330
9
100
AcDbSymbolTableRecord
100
AcDbBlockTableRecord
  2
*Paper_Space
340
1E
 70
0
280
1
281
0
  0
ENDTAB
  0
ENDSEC
  0
SECTION
  2
BLOCKS
  0
BLOCK
  5
18
330
17
100
AcDbEntity
  8
0
100
AcDbBlockBegin
  2
*Model_Space
 70
0
 10
0.0
 20
0.0
 30
0.0
  3
*Model_Space
  1

  0
ENDBLK
  5
19
330
17
100
AcDbEntity
  8
0
100
AcDbBlockEnd
  0
BLOCK
  5
1C
330
1B
100
AcDbEntity
  8
0
100
AcDbBlockBegin
  2
*Paper_Space
 70
0
 10
0.0
 20
0.0
 30
0.0
  3
*Paper_Space
  1

  0
ENDBLK
  5
1D
330
1B
100
AcDbEntity
  8
0
100
AcDbBlockEnd
  0
ENDSEC
  0
SECTION
  2
ENTITIES
  0
SPLINE
  5
30
330
17
100
AcDbEntity
  8
OUTLINE
100
AcDbSpline
 70
0
 71
3
 72
8
 73
4
 74
0
 40
0.0
 40
0.0
 40
0.0
 40
0.0
 40
1.0
 40
1.0
 40
1.0
 40
1.0
 10
61.701323343107184
 20
40.2171978369578
 30
0.0
 10
61.715376400857195
 20
40.20314477920778
 30
0.0
 10
61.72582756441173
 20
40.13139766587521
 30
0.0
 10
61.72870308054959
 20
40.07558889984432
 30
0.0
  0
SPLINE
  5
31
330
17
100
AcDbEntity
  8
OUTLINE
100
AcDbSpline
 70
0
 71
3
 72
8
 73
4
 74
0
 40
0.0
 40
0.0
 40
0.0
 40
0.0
 40
1.0
 40
1.0
 40
1.0
 40
1.0
 10
61.72870308054959
 20
40.07558889984432
 30
0.0
 10
61.73856900459366
 20
39.8841084767634
 30
0.0
 10
61.69732689794985
 20
39.61985264693867
 30
0.0
 10
61.65439012091886
 20
39.4074120616131
 30
0.0
  0
SPLINE
  5
32
330
17
100
AcDbEntity
  8
OUTLINE
100
AcDbSpline
 70
0
 71
3
 72
8
 73
4
 74
0
 40
0.0
 40
0.0
 40
0.0
 40
0.0
 40
1.0
 40
1.0
 40
1.0
 40
1.0
 10
61.65439012091886
 20
39.4074120616131
 30
0.0
 10
61.53109433202191
 20
38.79737490063705
 30
0.0
 10
61.307276629513616
 20
38.12028699240684
 30
0.0
 10
61.05150288796372
 20
37.4401423019692
 30
0.0
  0
SPLINE
  5
33
330
17
100
AcDbEntity
  8
OUTLINE
100
AcDbSpline
 70
0
 71
3
 72
8
 73
4
 74
0
 40
0.0
 40
0.0
 40
0.0
 40
0.0
 40
1.0
 40
1.0
 40
1.0
 40
1.0
 10
61.05150288796372
 20
37.4401423019692
 30
0.0
 10
60.52803459527736
 20
36.048153516389995
 30
0.0
 10
59.82135402040608
 20
34.53669967648929
 30
0.0
 10
58.98224794735388
 20
32.9412182614926
 30
0.0
  0
SPLINE
  5
34
330
17
100
AcDbEntity
  8
OUTLINE
100
AcDbSpline
 70
0
 71
3
 72
8
 73
4
 74
0
 40
0.0
 40
0.0
 40
0.0
 40
0.0
 40
1.0
 40
1.0
 40
1.0
 40
1.0
 10
58.98224794735388
 20
32.9412182614926
 30
0.0
 10
57.23980921709158
 20
29.628134611899
 30
0.0
 10
55.129830546660045
 20
26.418165339634662
 30
0.0
 10
53.46762494468113
 20
24.212601294752446
 30
0.0
  0
LINE
  5
35
330
17
100
AcDbEntity
  8
OUTLINE
100
AcDbLine
 10
53.46762494468113
 20
24.212601294752446
 30
0.0
 11
53.0433608759692
 21
24.636865363464374
 31
0.0
  0
ARC
  5
36
330
17
100
AcDbEntity
  8
OUTLINE
100
AcDbCircle
 10
47.42267338422362
 20
25.938547878074235
 30
0.0
 40
5.76944583549462
100
AcDbArc
 50
-13.039136666868435
 51
103.03913666686849
  0
LINE
  5
37
330
17
100
AcDbEntity
  8
OUTLINE
100
AcDbLine
 10
46.120990869613756
 20
31.55923536981981
 30
0.0
 11
45.69672680090183
 21
31.98349943853174
 31
0.0
  0
SPLINE
  5
38
330
17
100
AcDbEntity
  8
OUTLINE
100
AcDbSpline
 70
0
 71
3
 72
8
 73
4
 74
0
 40
0.0
 40
0.0
 40
0.0
 40
0.0
 40
1.0
 40
1.0
 40
1.0
 40
1.0
 10
45.69672680090183
 20
31.98349943853174
 30
0.0
 10
47.90229084578404
 20
33.64570504051066
 30
0.0
 10
51.11226011804838
 20
35.7556837109422
 30
0.0
 10
54.425343767641984
 20
37.49812244120451
 30
0.0
  0
SPLINE
  5
39
330
17
100
AcDbEntity
  8
OUTLINE
100
AcDbSpline
 70
0
 71
3
 72
8
 73
4
 74
0
 40
0.0
 40
0.0
 40
0.0
 40
0.0
 40
1.0
 40
1.0
 40
1.0
 40
1.0
 10
54.425343767641984
 20
37.49812244120451
 30
0.0
 10
56.020825182638674
 20
38.3372285142567
 30
0.0
 10
57.53227902253938
 20
39.043909089127986
 30
0.0
 10
58.924267808118586
 20
39.56737738181434
 30
0.0
  0
SPLINE
  5
3A
330
17
100
AcDbEntity
  8
OUTLINE
100
AcDbSpline
 70
0
 71
3
 72
8
 73
4
 74
0
 40
0.0
 40
0.0
 40
0.0
 40
0.0
 40
1.0
 40
1.0
 40
1.0
 40
1.0
 10
58.924267808118586
 20
39.56737738181434
 30
0.0
 10
59.60441249855622
 20
39.823151123364234
 30
0.0
 10
60.28150040678643
 20
40.046968825872526
 30
0.0
 10
60.891537567762484
 20
40.17026461476948
 30
0.0
  0
SPLINE
  5
3B
330
17
100
AcDbEntity
  8
OUTLINE
100
AcDbSpline
 70
0
 71
3
 72
8
 73
4
 74
0
 40
0.0
 40
0.0
 40
0.0
 40
0.0
 40
1.0
 40
1.0
 40
1.0
 40
1.0
 10
60.891537567762484
 20
40.17026461476948
 30
0.0
 10
61.10397815308805
 20
40.21320139180047
 30
0.0
 10
61.368233982912784
 20
40.25444349844428
 30
0.0
 10
61.5597144059937
 20
40.24457757440021
 30
0.0
  0
SPLINE
  5
3C
330
17
100
AcDbEntity
  8
OUTLINE
100
AcDbSpline
 70
0
 71
3
 72
8
 73
4
 74
0
 40
0.0
 40
0.0
 40
0.0
 40
0.0
 40
1.0
 40
1.0
 40
1.0
 40
1.0
 10
61.5597144059937
 20
40.24457757440021
 30
0.0
 10
61.61552317202459
 20
40.24170205826235
 30
0.0
 10
61.687270285357165
 20
40.23125089470781
 30
0.0
 10
61.701323343107184
 20
40.2171978369578
 30
0.0
  0
LINE
  5
3D
330
17
100
AcDbEntity
  8
OUTLINE
100
AcDbLine
 10
43.883237538771745
 20
34.53340825660034
 30
0.0
 11
40.818966644888654
 21
29.017720647610773
 31
0.0
  0
LINE
  5
3E
330
17
100
AcDbEntity
  8
OUTLINE
100
AcDbLine
 10
40.818966644888654
 20
29.017720647610773
 30
0.0
 11
40.394702576176726
 21
29.4419847163227
 31
0.0
  0
ARC
  5
3F
330
17
100
AcDbEntity
  8
OUTLINE
100
AcDbCircle
 10
38.17177755521832
 20
28.821948273046917
 30
0.0
 40
2.307778334197848
100
AcDbArc
 50
15.58528475075134
 51
74.41471524924854
  0
LINE
  5
40
330
17
100
AcDbEntity
  8
OUTLINE
100
AcDbLine
 10
38.791813998494106
 20
31.04487329400532
 30
0.0
 11
38.36754992978218
 21
31.469137362717248
 31
0.0
  0
LINE
  5
41
330
17
100
AcDbEntity
  8
OUTLINE
100
AcDbLine
 10
38.36754992978218
 20
31.469137362717248
 30
0.0
 11
43.883237538771745
 21
34.53340825660034
 31
0.0
  0
ELLIPSE
  5
42
330
17
100
AcDbEntity
  8
OUTLINE
100
AcDbEllipse
 10
50.87202729088456
 20
17.154862793104602
 30
0.0
 11
-4.283594987665067
 21
-4.283594987665068
 31
0.0
 40
0.28571428571428575
 41
1.7949386646519492
 42
3.1415926535897913
  0
LINE
  5
43
330
17
100
AcDbEntity
  8
OUTLINE
100
AcDbLine
 10
53.017411897776284
 20
16.913709525382785
 30
0.0
 11
52.593147829064364
 21
17.337973594094713
 31
0.0
  0
ARC
  5
44
330
17
100
AcDbEntity
  8
OUTLINE
100
AcDbCircle
 10
50.87202729088456
 20
17.1548627931046
 30
0.0
 40
1.7308337506483857
100
AcDbArc
 50
6.072880098189511
 51
83.92711990181049
  0
LINE
  5
45
330
17
100
AcDbEntity
  8
OUTLINE
100
AcDbLine
 10
51.055138091874674
 20
18.8759833312844
 30
0.0
 11
50.63087402316275
 21
19.300247399996326
 31
0.0
  0
ELLIPSE
  5
46
330
17
100
AcDbEntity
  8
OUTLINE
100
AcDbEllipse
 10
50.87202729088456
 20
17.1548627931046
 30
0.0
 11
-4.283594987665067
 21
-4.283594987665068
 31
0.0
 40
0.28571428571428575
 41
3.141592653589793
 42
4.488246642527637
  0
ARC
  5
47
330
17
100
AcDbEntity
  8
OUTLINE
100
AcDbCircle
 10
29.545969137784944
 20
31.00967392269842
 30
0.0
 40
19.111289330075923
100
AcDbArc
 50
-39.37072848763666
 51
-13.109208198154288
  0
LINE
  5
48
330
17
100
AcDbEntity
  8
OUTLINE
100
AcDbLine
 10
44.320099399504755
 20
18.88670172659038
 30
0.0
 11
43.89583533079283
 21
19.31096579530231
 31
0.0
  0
ARC
  5
49
330
17
100
AcDbEntity
  8
OUTLINE
100
AcDbCircle
 10
41.01988428331637
 20
19.535758777166986
 30
0.0
 40
2.88472291774731
100
AcDbArc
 50
-4.46932348524023
 51
94.46932348524031
  0
LINE
  5
4A
330
17
100
AcDbEntity
  8
OUTLINE
100
AcDbLine
 10
40.79509130145169
 20
22.411709824643445
 30
0.0
 11
40.370827232739764
 21
22.835973893355373
 31
0.0
  0
ARC
  5
4B
330
17
100
AcDbEntity
  8
OUTLINE
100
AcDbCircle
 10
52.4937994288478
 20
8.061843631635561
 30
0.0
 40
19.111289330075923
100
AcDbArc
 50
103.10920819815428
 51
129.37072848763665
  0
LWPOLYLINE
  5
4C
330
17
100
AcDbEntity
  8
OUTLINE
100
AcDbPolyline
 90
472
 70
1
 10
15.8369
 20
6.8561
 10
15.8369
 20
6.7814
 10
15.8369
 20
6.7648
 10
15.8369
 20
6.7067
 10
15.8369
 20
6.632
 10
15.8369
 20
6.6064
 10
15.8369
 20
6.5573
 10
15.8369
 20
6.4826
 10
15.8369
 20
6.4479
 10
15.8369
 20
6.4079
 10
15.8369
 20
6.3332
 10
15.8369
 20
6.2584
 10
15.8369
 20
6.1837
 10
15.8369
 20
6.109
 10
15.8369
 20
6.0343
 10
15.8369
 20
5.9596
 10
15.8369
 20
5.8849
 10
15.8369
 20
5.8102
 10
15.8369
 20
5.7355
 10
15.8369
 20
5.6607
 10
15.8369
 20
5.586
 10
15.8369
 20
5.5113
 10
15.8369
 20
5.4366
 10
15.8369
 20
5.3619
 10
15.839
 20
5.289
 10
15.9129
 20
5.2779
 10
15.9868
 20
5.2668
 10
16.0606
 20
5.2556
 10
16.1345
 20
5.2445
 10
16.2084
 20
5.2334
 10
16.2823
 20
5.2222
 10
16.3562
 20
5.2111
 10
16.43
 20
5.2
 10
16.5039
 20
5.1888
 10
16.5778
 20
5.1777
 10
16.6517
 20
5.1666
 10
16.7255
 20
5.1554
 10
16.7994
 20
5.1443
 10
16.8733
 20
5.1332
 10
16.9472
 20
5.1221
 10
16.9691
 20
5.0662
 10
16.9691
 20
4.9915
 10
16.9691
 20
4.9168
 10
16.9691
 20
4.8421
 10
16.9691
 20
4.7674
 10
16.9691
 20
4.6927
 10
16.9691
 20
4.618
 10
16.9691
 20
4.5433
 10
16.9691
 20
4.4685
 10
16.9691
 20
4.3938
 10
16.9691
 20
4.3191
 10
16.9691
 20
4.2444
 10
16.9691
 20
4.1697
 10
16.9691
 20
4.095
 10
16.9691
 20
4.0203
 10
16.9691
 20
3.9456
 10
16.9691
 20
3.8709
 10
16.9691
 20
3.7961
 10
16.9691
 20
3.7214
 10
16.9691
 20
3.6467
 10
16.9691
 20
3.572
 10
16.8989
 20
3.5657
 10
16.8242
 20
3.5637
 10
16.7495
 20
3.5618
 10
16.6748
 20
3.5598
 10
16.6001
 20
3.5578
 10
16.5254
 20
3.5558
 10
16.4507
 20
3.5538
 10
16.3761
 20
3.5518
 10
16.3014
 20
3.5498
 10
16.2267
 20
3.5478
 10
16.152
 20
3.5458
 10
16.0773
 20
3.5439
 10
16.0026
 20
3.5419
 10
15.928
 20
3.5399
 10
15.8533
 20
3.5379
 10
15.7786
 20
3.5359
 10
15.7039
 20
3.5339
 10
15.6292
 20
3.5319
 10
15.5545
 20
3.5299
 10
15.4798
 20
3.5279
 10
15.4052
 20
3.526
 10
15.3305
 20
3.524
 10
15.2558
 20
3.522
 10
15.1811
 20
3.52
 10
15.1064
 20
3.518
 10
15.0317
 20
3.516
 10
14.957
 20
3.514
 10
14.8824
 20
3.512
 10
14.8077
 20
3.51
 10
14.733
 20
3.508
 10
14.6583
 20
3.5061
 10
14.5836
 20
3.5041
 10
14.5089
 20
3.5021
 10
14.4342
 20
3.5001
 10
14.3596
 20
3.4981
 10
14.2849
 20
3.4961
 10
14.2102
 20
3.4941
 10
14.1355
 20
3.4921
 10
14.0608
 20
3.4901
 10
14.0555
 20
3.5647
 10
14.0503
 20
3.6392
 10
14.045
 20
3.7137
 10
14.0397
 20
3.7882
 10
14.0344
 20
3.8628
 10
14.0291
 20
3.9373
 10
14.0238
 20
4.0118
 10
14.0186
 20
4.0863
 10
14.0133
 20
4.1609
 10
14.008
 20
4.2354
 10
14.0027
 20
4.3099
 10
13.9974
 20
4.3844
 10
13.9921
 20
4.459
 10
13.9869
 20
4.5335
 10
13.9816
 20
4.608
 10
13.9763
 20
4.6825
 10
13.971
 20
4.7571
 10
13.9657
 20
4.8316
 10
13.9605
 20
4.9061
 10
13.9552
 20
4.9806
 10
13.9499
 20
5.0552
 10
13.9446
 20
5.1297
 10
13.9432
 20
5.1497
 10
13.8647
 20
5.1497
 10
13.7726
 20
5.1497
 10
13.7263
 20
5.082
 10
13.6997
 20
4.9841
 10
13.6704
 20
4.889
 10
13.6385
 20
4.7967
 10
13.6038
 20
4.7073
 10
13.5664
 20
4.6207
 10
13.5263
 20
4.5369
 10
13.4836
 20
4.456
 10
13.4381
 20
4.3779
 10
13.39
 20
4.3026
 10
13.3391
 20
4.2302
 10
13.2856
 20
4.1606
 10
13.2294
 20
4.0938
 10
13.1704
 20
4.0299
 10
13.1088
 20
3.9688
 10
13.0445
 20
3.9105
 10
12.9773
 20
3.8549
 10
12.9063
 20
3.8013
 10
12.8334
 20
3.7512
 10
12.7584
 20
3.7046
 10
12.6814
 20
3.6614
 10
12.6025
 20
3.6216
 10
12.5216
 20
3.5853
 10
12.4386
 20
3.5525
 10
12.3537
 20
3.5231
 10
12.2668
 20
3.4972
 10
12.1778
 20
3.4747
 10
12.0869
 20
3.4557
 10
11.994
 20
3.4401
 10
11.8991
 20
3.428
 10
11.8022
 20
3.4194
 10
11.7032
 20
3.4142
 10
11.6023
 20
3.4125
 10
11.4966
 20
3.414
 10
11.393
 20
3.4184
 10
11.2915
 20
3.4257
 10
11.1921
 20
3.4359
 10
11.0949
 20
3.4491
 10
10.9998
 20
3.4652
 10
10.9068
 20
3.4843
 10
10.8159
 20
3.5063
 10
10.7271
 20
3.5312
 10
10.6405
 20
3.559
 10
10.5559
 20
3.5898
 10
10.4735
 20
3.6235
 10
10.3932
 20
3.6601
 10
10.3151
 20
3.6997
 10
10.239
 20
3.7421
 10
10.1651
 20
3.7876
 10
10.0933
 20
3.8359
 10
10.0236
 20
3.8872
 10
9.9561
 20
3.9414
 10
9.8906
 20
3.9985
 10
9.8273
 20
4.0586
 10
9.7661
 20
4.1216
 10
9.7073
 20
4.1872
 10
9.6557
 20
4.2494
 10
9.6061
 20
4.3135
 10
9.5586
 20
4.3797
 10
9.5132
 20
4.4478
 10
9.4699
 20
4.5179
 10
9.4287
 20
4.59
 10
9.3896
 20
4.664
 10
9.3526
 20
4.7401
 10
9.3177
 20
4.8181
 10
9.2848
 20
4.8981
 10
9.2541
 20
4.9801
 10
9.2254
 20
5.064
 10
9.1988
 20
5.15
 10
9.1743
 20
5.2379
 10
9.1519
 20
5.3278
 10
9.1316
 20
5.4197
 10
9.1134
 20
5.5135
 10
9.0973
 20
5.6094
 10
9.0832
 20
5.7072
 10
9.0713
 20
5.807
 10
9.0614
 20
5.9088
 10
9.0537
 20
6.0125
 10
9.048
 20
6.1183
 10
9.0444
 20
6.226
 10
9.0429
 20
6.3357
 10
9.0429
 20
6.4318
 10
9.0429
 20
6.5238
 10
9.0429
 20
6.6159
 10
9.0429
 20
6.7079
 10
9.0429
 20
6.7999
 10
9.0429
 20
6.8919
 10
9.0429
 20
6.984
 10
9.0429
 20
7.076
 10
9.0429
 20
7.168
 10
9.0429
 20
7.26
 10
9.0429
 20
7.3521
 10
9.0429
 20
7.4441
 10
9.0429
 20
7.5361
 10
9.0429
 20
7.6281
 10
9.0429
 20
7.7201
 10
9.0429
 20
7.8122
 10
9.0429
 20
7.9042
 10
9.0429
 20
7.9962
 10
9.0429
 20
8.0882
 10
9.0429
 20
8.1803
 10
9.0429
 20
8.2723
 10
9.0429
 20
8.3643
 10
9.0429
 20
8.4563
 10
9.0429
 20
8.5483
 10
9.0429
 20
8.6404
 10
9.0429
 20
8.7324
 10
9.0429
 20
8.8244
 10
9.0429
 20
8.9164
 10
9.0429
 20
9.0085
 10
9.0429
 20
9.1005
 10
9.0429
 20
9.1925
 10
9.0429
 20
9.2845
 10
9.0429
 20
9.3765
 10
9.0429
 20
9.4686
 10
9.0429
 20
9.5606
 10
9.0429
 20
9.6526
 10
9.0429
 20
9.7446
 10
9.0429
 20
9.8367
 10
9.0429
 20
9.9287
 10
9.0429
 20
10.0207
 10
9.0429
 20
10.1127
 10
9.0429
 20
10.2048
 10
9.0429
 20
10.2968
 10
9.0429
 20
10.3888
 10
9.0429
 20
10.4808
 10
9.0429
 20
10.5728
 10
9.0429
 20
10.6649
 10
9.0429
 20
10.7569
 10
9.0429
 20
10.8489
 10
9.0429
 20
10.9409
 10
9.0429
 20
11.033
 10
9.0429
 20
11.125
 10
9.0429
 20
11.217
 10
9.0429
 20
11.309
 10
9.0429
 20
11.401
 10
9.0429
 20
11.4931
 10
9.0429
 20
11.5851
 10
9.0429
 20
11.6771
 10
9.0429
 20
11.7691
 10
9.1156
 20
11.7884
 10
9.2076
 20
11.7884
 10
9.2996
 20
11.7884
 10
9.3917
 20
11.7884
 10
9.4837
 20
11.7884
 10
9.5757
 20
11.7884
 10
9.6677
 20
11.7884
 10
9.7598
 20
11.7884
 10
9.8518
 20
11.7884
 10
9.9438
 20
11.7884
 10
10.0358
 20
11.7884
 10
10.1278
 20
11.7884
 10
10.2199
 20
11.7884
 10
10.3119
 20
11.7884
 10
10.4039
 20
11.7884
 10
10.4959
 20
11.7884
 10
10.588
 20
11.7884
 10
10.68
 20
11.7884
 10
10.772
 20
11.7884
 10
10.864
 20
11.7884
 10
10.956
 20
11.7884
 10
10.9585
 20
11.6989
 10
10.9585
 20
11.6069
 10
10.9585
 20
11.5149
 10
10.9585
 20
11.4228
 10
10.9585
 20
11.3308
 10
10.9585
 20
11.2388
 10
10.9585
 20
11.1468
 10
10.9585
 20
11.0548
 10
10.9585
 20
10.9627
 10
10.9585
 20
10.8707
 10
10.9585
 20
10.7787
 10
10.9585
 20
10.6867
 10
10.9585
 20
10.5946
 10
10.9585
 20
10.5026
 10
10.9585
 20
10.4106
 10
10.9585
 20
10.3186
 10
10.9585
 20
10.2265
 10
10.9585
 20
10.1345
 10
10.9585
 20
10.0425
 10
10.9585
 20
9.9505
 10
10.9585
 20
9.8585
 10
10.9585
 20
9.7664
 10
10.9585
 20
9.6744
 10
10.9585
 20
9.5824
 10
10.9585
 20
9.4904
 10
10.9585
 20
9.3983
 10
10.9585
 20
9.3063
 10
10.9585
 20
9.2143
 10
10.9585
 20
9.1223
 10
10.9585
 20
9.0303
 10
10.9585
 20
8.9382
 10
10.9585
 20
8.8462
 10
10.9585
 20
8.7542
 10
10.9585
 20
8.6622
 10
10.9585
 20
8.5701
 10
10.9585
 20
8.4781
 10
10.9585
 20
8.3861
 10
10.9585
 20
8.2941
 10
10.9585
 20
8.2021
 10
10.9585
 20
8.11
 10
10.9585
 20
8.018
 10
10.9585
 20
7.926
 10
10.9585
 20
7.834
 10
10.9585
 20
7.7419
 10
10.9585
 20
7.6499
 10
10.9585
 20
7.5579
 10
10.9585
 20
7.4659
 10
10.9585
 20
7.3738
 10
10.9585
 20
7.2818
 10
10.9585
 20
7.1898
 10
10.9585
 20
7.0978
 10
10.9585
 20
7.0058
 10
10.9585
 20
6.9137
 10
10.9585
 20
6.8217
 10
10.9585
 20
6.7297
 10
10.9588
 20
6.6314
 10
10.9625
 20
6.5242
 10
10.9706
 20
6.4209
 10
10.9831
 20
6.3216
 10
11.0
 20
6.2262
 10
11.0212
 20
6.1347
 10
11.0468
 20
6.0473
 10
11.0768
 20
5.9637
 10
11.1112
 20
5.8841
 10
11.15
 20
5.8085
 10
11.1931
 20
5.7368
 10
11.2406
 20
5.6691
 10
11.2925
 20
5.6053
 10
11.3513
 20
5.543
 10
11.4158
 20
5.4841
 10
11.4842
 20
5.4307
 10
11.5565
 20
5.3827
 10
11.6326
 20
5.3402
 10
11.7126
 20
5.3033
 10
11.7964
 20
5.2717
 10
11.8842
 20
5.2457
 10
11.9758
 20
5.2252
 10
12.0712
 20
5.2101
 10
12.1706
 20
5.2005
 10
12.2738
 20
5.1964
 10
12.3789
 20
5.1976
 10
12.4808
 20
5.2038
 10
12.5792
 20
5.2149
 10
12.6742
 20
5.231
 10
12.7657
 20
5.252
 10
12.8537
 20
5.2779
 10
12.9383
 20
5.3088
 10
13.0194
 20
5.3446
 10
13.097
 20
5.3854
 10
13.1712
 20
5.4311
 10
13.242
 20
5.4818
 10
13.3092
 20
5.5374
 10
13.373
 20
5.5979
 10
13.4334
 20
5.6634
 10
13.4903
 20
5.7339
 10
13.5351
 20
5.7965
 10
13.571
 20
5.853
 10
13.6052
 20
5.9127
 10
13.6376
 20
5.9758
 10
13.6682
 20
6.0422
 10
13.6971
 20
6.112
 10
13.7243
 20
6.1851
 10
13.7497
 20
6.2614
 10
13.7734
 20
6.3412
 10
13.7952
 20
6.4242
 10
13.8154
 20
6.5105
 10
13.8338
 20
6.6002
 10
13.8504
 20
6.6932
 10
13.8653
 20
6.7896
 10
13.8784
 20
6.8892
 10
13.8898
 20
6.9922
 10
13.8994
 20
7.0985
 10
13.9073
 20
7.2082
 10
13.9134
 20
7.3211
 10
13.9177
 20
7.4374
 10
13.9203
 20
7.557
 10
13.9212
 20
7.6513
 10
13.9212
 20
7.7956
 10
13.9212
 20
7.954
 10
13.9212
 20
8.1124
 10
13.9212
 20
8.2709
 10
13.9212
 20
8.4293
 10
13.9212
 20
8.5877
 10
13.9212
 20
8.7462
 10
13.9212
 20
8.9046
 10
13.9212
 20
9.0631
 10
13.9212
 20
9.2215
 10
13.9212
 20
9.3799
 10
13.9212
 20
9.5384
 10
13.9212
 20
9.6968
 10
13.9212
 20
9.8552
 10
13.9212
 20
10.0137
 10
13.9212
 20
10.1721
 10
13.9212
 20
10.3306
 10
13.9212
 20
10.489
 10
13.9212
 20
10.6474
 10
13.9212
 20
10.8059
 10
13.9212
 20
10.9643
 10
13.9212
 20
11.1227
 10
13.9212
 20
11.2812
 10
13.9212
 20
11.4396
 10
13.9212
 20
11.598
 10
13.9212
 20
11.7565
 10
14.0477
 20
11.7884
 10
14.2061
 20
11.7884
 10
14.3646
 20
11.7884
 10
14.523
 20
11.7884
 10
14.6814
 20
11.7884
 10
14.8399
 20
11.7884
 10
14.9983
 20
11.7884
 10
15.1567
 20
11.7884
 10
15.3152
 20
11.7884
 10
15.4736
 20
11.7884
 10
15.6321
 20
11.7884
 10
15.7905
 20
11.7884
 10
15.8369
 20
11.6764
 10
15.8369
 20
11.5179
 10
15.8369
 20
11.3595
 10
15.8369
 20
11.2011
 10
15.8369
 20
11.0426
 10
15.8369
 20
10.8842
 10
15.8369
 20
10.7258
 10
15.8369
 20
10.5673
 10
15.8369
 20
10.4089
 10
15.8369
 20
10.2504
 10
15.8369
 20
10.092
 10
15.8369
 20
9.9336
 10
15.8369
 20
9.7751
 10
15.8369
 20
9.6167
 10
15.8369
 20
9.4583
 10
15.8369
 20
9.2998
 10
15.8369
 20
9.1414
 10
15.8369
 20
8.9829
 10
15.8369
 20
8.8245
 10
15.8369
 20
8.6661
 10
15.8369
 20
8.5076
 10
15.8369
 20
8.3492
 10
15.8369
 20
8.1908
 10
15.8369
 20
8.0323
 10
15.8369
 20
7.8739
 10
15.8369
 20
7.7154
 10
15.8369
 20
7.557
 10
15.8369
 20
7.3986
 10
15.8369
 20
7.2401
 10
15.8369
 20
7.0817
 10
15.8369
 20
6.9233
  0
LWPOLYLINE
  5
4D
330
17
100
AcDbEntity
  8
OUTLINE
100
AcDbPolyline
 90
672
 70
1
 10
21.3963
 20
3.4127
 10
21.3121
 20
3.4125
 10
21.2388
 20
3.4126
 10
21.1662
 20
3.4129
 10
21.0943
 20
3.4133
 10
21.0232
 20
3.4139
 10
20.9528
 20
3.4147
 10
20.8832
 20
3.4157
 10
20.8143
 20
3.4169
 10
20.7462
 20
3.4182
 10
20.6788
 20
3.4198
 10
20.6121
 20
3.4215
 10
20.5462
 20
3.4234
 10
20.481
 20
3.4254
 10
20.4165
 20
3.4277
 10
20.3528
 20
3.4301
 10
20.2899
 20
3.4327
 10
20.2277
 20
3.4355
 10
20.1662
 20
3.4385
 10
20.1055
 20
3.4416
 10
20.0455
 20
3.4449
 10
19.9862
 20
3.4484
 10
19.9277
 20
3.4521
 10
19.87
 20
3.456
 10
19.8129
 20
3.46
 10
19.7567
 20
3.4642
 10
19.7011
 20
3.4687
 10
19.6375
 20
3.474
 10
19.5671
 20
3.4802
 10
19.4975
 20
3.4868
 10
19.4286
 20
3.4936
 10
19.3605
 20
3.5007
 10
19.2932
 20
3.5082
 10
19.2266
 20
3.5159
 10
19.1609
 20
3.524
 10
19.0958
 20
3.5323
 10
19.0316
 20
3.541
 10
18.9681
 20
3.55
 10
18.9054
 20
3.5592
 10
18.8434
 20
3.5688
 10
18.7822
 20
3.5787
 10
18.7218
 20
3.5888
 10
18.6621
 20
3.5993
 10
18.6032
 20
3.6101
 10
18.5451
 20
3.6212
 10
18.4878
 20
3.6325
 10
18.4312
 20
3.6442
 10
18.4345
 20
3.7043
 10
18.4425
 20
3.7682
 10
18.4505
 20
3.832
 10
18.4585
 20
3.8958
 10
18.4665
 20
3.9596
 10
18.4744
 20
4.0235
 10
18.4824
 20
4.0873
 10
18.4904
 20
4.1511
 10
18.4984
 20
4.215
 10
18.5064
 20
4.2788
 10
18.5143
 20
4.3426
 10
18.5223
 20
4.4065
 10
18.5303
 20
4.4703
 10
18.5383
 20
4.5341
 10
18.5463
 20
4.598
 10
18.5542
 20
4.6618
 10
18.5622
 20
4.7256
 10
18.5702
 20
4.7895
 10
18.5782
 20
4.8533
 10
18.5861
 20
4.9171
 10
18.5941
 20
4.981
 10
18.6021
 20
5.0448
 10
18.6101
 20
5.1086
 10
18.6181
 20
5.1725
 10
18.626
 20
5.2363
 10
18.634
 20
5.3001
 10
18.642
 20
5.364
 10
18.65
 20
5.4278
 10
18.7068
 20
5.437
 10
18.7801
 20
5.4271
 10
18.8525
 20
5.4174
 10
18.9241
 20
5.4079
 10
18.9948
 20
5.3986
 10
19.0646
 20
5.3895
 10
19.1336
 20
5.3807
 10
19.2018
 20
5.372
 10
19.269
 20
5.3635
 10
19.3355
 20
5.3553
 10
19.401
 20
5.3473
 10
19.4657
 20
5.3394
 10
19.5296
 20
5.3318
 10
19.5925
 20
5.3244
 10
19.6547
 20
5.3172
 10
19.7159
 20
5.3102
 10
19.7763
 20
5.3034
 10
19.8359
 20
5.2969
 10
19.8945
 20
5.2905
 10
19.9524
 20
5.2843
 10
20.0093
 20
5.2784
 10
20.0654
 20
5.2726
 10
20.1207
 20
5.2671
 10
20.1751
 20
5.2618
 10
20.2361
 20
5.256
 10
20.3109
 20
5.2491
 10
20.3844
 20
5.2426
 10
20.4565
 20
5.2366
 10
20.5272
 20
5.2309
 10
20.5965
 20
5.2257
 10
20.6645
 20
5.2209
 10
20.7311
 20
5.2166
 10
20.7963
 20
5.2126
 10
20.8602
 20
5.2091
 10
20.9227
 20
5.206
 10
20.9838
 20
5.2034
 10
21.0435
 20
5.2011
 10
21.1019
 20
5.1993
 10
21.1589
 20
5.1979
 10
21.2145
 20
5.1969
 10
21.2687
 20
5.1963
 10
21.328
 20
5.1962
 10
21.4146
 20
5.1966
 10
21.4993
 20
5.1975
 10
21.5821
 20
5.199
 10
21.6631
 20
5.2011
 10
21.7421
 20
5.2037
 10
21.8193
 20
5.2069
 10
21.8946
 20
5.2107
 10
21.9681
 20
5.215
 10
22.0396
 20
5.2198
 10
22.1093
 20
5.2253
 10
22.1771
 20
5.2313
 10
22.243
 20
5.2378
 10
22.307
 20
5.2449
 10
22.3692
 20
5.2526
 10
22.4295
 20
5.2608
 10
22.4879
 20
5.2696
 10
22.5444
 20
5.279
 10
22.599
 20
5.2889
 10
22.6517
 20
5.2994
 10
22.7026
 20
5.3104
 10
22.7516
 20
5.322
 10
22.7987
 20
5.3342
 10
22.8439
 20
5.3469
 10
22.8873
 20
5.3602
 10
22.9288
 20
5.374
 10
22.9838
 20
5.3943
 10
23.0566
 20
5.4254
 10
23.1234
 20
5.4589
 10
23.1841
 20
5.4951
 10
23.2389
 20
5.5338
 10
23.2876
 20
5.5752
 10
23.3302
 20
5.619
 10
23.3669
 20
5.6655
 10
23.3975
 20
5.7146
 10
23.422
 20
5.7662
 10
23.4406
 20
5.8204
 10
23.4531
 20
5.8771
 10
23.4596
 20
5.9365
 10
23.46
 20
6.0035
 10
23.454
 20
6.0746
 10
23.4416
 20
6.1405
 10
23.4227
 20
6.2014
 10
23.3973
 20
6.2572
 10
23.3655
 20
6.3078
 10
23.3272
 20
6.3534
 10
23.2876
 20
6.39
 10
23.2452
 20
6.4225
 10
23.1977
 20
6.4533
 10
23.1449
 20
6.4825
 10
23.087
 20
6.5101
 10
23.0238
 20
6.5359
 10
22.9555
 20
6.5602
 10
22.882
 20
6.5828
 10
22.8132
 20
6.6019
 10
22.7513
 20
6.6191
 10
22.6893
 20
6.6364
 10
22.6273
 20
6.6537
 10
22.5654
 20
6.6709
 10
22.5034
 20
6.6882
 10
22.4414
 20
6.7055
 10
22.3795
 20
6.7228
 10
22.3175
 20
6.74
 10
22.2555
 20
6.7573
 10
22.1936
 20
6.7746
 10
22.1316
 20
6.7918
 10
22.0696
 20
6.8091
 10
22.0077
 20
6.8264
 10
21.9457
 20
6.8437
 10
21.8837
 20
6.8609
 10
21.8218
 20
6.8782
 10
21.7598
 20
6.8955
 10
21.6978
 20
6.9127
 10
21.6359
 20
6.93
 10
21.5739
 20
6.9473
 10
21.5119
 20
6.9646
 10
21.45
 20
6.9818
 10
21.388
 20
6.9991
 10
21.326
 20
7.0164
 10
21.2641
 20
7.0336
 10
21.2021
 20
7.0509
 10
21.1401
 20
7.0682
 10
21.0782
 20
7.0855
 10
21.0162
 20
7.1027
 10
20.9542
 20
7.12
 10
20.8923
 20
7.1373
 10
20.8303
 20
7.1545
 10
20.7683
 20
7.1718
 10
20.7064
 20
7.1891
 10
20.6444
 20
7.2064
 10
20.5824
 20
7.2236
 10
20.5205
 20
7.2409
 10
20.4532
 20
7.2597
 10
20.3784
 20
7.2814
 10
20.3052
 20
7.3037
 10
20.2335
 20
7.3266
 10
20.1634
 20
7.3501
 10
20.0947
 20
7.3743
 10
20.0276
 20
7.3991
 10
19.9619
 20
7.4245
 10
19.8978
 20
7.4505
 10
19.8352
 20
7.4772
 10
19.7741
 20
7.5045
 10
19.7146
 20
7.5324
 10
19.6565
 20
7.5609
 10
19.6
 20
7.59
 10
19.545
 20
7.6198
 10
19.4915
 20
7.6502
 10
19.4395
 20
7.6812
 10
19.389
 20
7.7128
 10
19.3401
 20
7.7451
 10
19.2926
 20
7.778
 10
19.2467
 20
7.8115
 10
19.2023
 20
7.8456
 10
19.1594
 20
7.8803
 10
19.118
 20
7.9157
 10
19.0781
 20
7.9517
 10
19.0398
 20
7.9883
 10
18.9998
 20
8.029
 10
18.9601
 20
8.0727
 10
18.9223
 20
8.1178
 10
18.8863
 20
8.1645
 10
18.8522
 20
8.2127
 10
18.8198
 20
8.2623
 10
18.7894
 20
8.3135
 10
18.7607
 20
8.3662
 10
18.7339
 20
8.4204
 10
18.7089
 20
8.4761
 10
18.6858
 20
8.5333
 10
18.6645
 20
8.592
 10
18.645
 20
8.6522
 10
18.6274
 20
8.714
 10
18.6116
 20
8.7772
 10
18.5976
 20
8.8419
 10
18.5855
 20
8.9082
 10
18.5752
 20
8.9759
 10
18.5667
 20
9.0452
 10
18.5601
 20
9.116
 10
18.5553
 20
9.1882
 10
18.5524
 20
9.262
 10
18.5513
 20
9.3373
 10
18.5519
 20
9.4099
 10
18.5541
 20
9.4811
 10
18.558
 20
9.5513
 10
18.5634
 20
9.6205
 10
18.5705
 20
9.6886
 10
18.5791
 20
9.7556
 10
18.5894
 20
9.8216
 10
18.6013
 20
9.8866
 10
18.6147
 20
9.9506
 10
18.6298
 20
10.0134
 10
18.6465
 20
10.0753
 10
18.6648
 20
10.1361
 10
18.6847
 20
10.1959
 10
18.7062
 20
10.2546
 10
18.7293
 20
10.3123
 10
18.754
 20
10.3689
 10
18.7803
 20
10.4245
 10
18.8083
 20
10.4791
 10
18.8378
 20
10.5326
 10
18.8689
 20
10.5851
 10
18.9017
 20
10.6365
 10
18.936
 20
10.6869
 10
18.972
 20
10.7362
 10
19.0095
 20
10.7845
 10
19.0487
 20
10.8318
 10
19.0894
 20
10.878
 10
19.1318
 20
10.9232
 10
19.1758
 20
10.9674
 10
19.2214
 20
11.0105
 10
19.2686
 20
11.0525
 10
19.3174
 20
11.0935
 10
19.3678
 20
11.1335
 10
19.4198
 20
11.1724
 10
19.4734
 20
11.2103
 10
19.5286
 20
11.2472
 10
19.5854
 20
11.283
 10
19.6404
 20
11.3158
 10
19.6812
 20
11.3389
 10
19.7227
 20
11.3617
 10
19.7651
 20
11.384
 10
19.8084
 20
11.4058
 10
19.8524
 20
11.4273
 10
19.8973
 20
11.4483
 10
19.9431
 20
11.4688
 10
19.9896
 20
11.4889
 10
20.037
 20
11.5086
 10
20.0852
 20
11.5279
 10
20.1343
 20
11.5467
 10
20.1842
 20
11.5651
 10
20.2349
 20
11.583
 10
20.2864
 20
11.6005
 10
20.3388
 20
11.6176
 10
20.392
 20
11.6342
 10
20.4461
 20
11.6504
 10
20.5009
 20
11.6662
 10
20.5567
 20
11.6815
 10
20.6132
 20
11.6964
 10
20.6706
 20
11.7109
 10
20.7288
 20
11.7249
 10
20.7878
 20
11.7385
 10
20.8476
 20
11.7516
 10
20.9083
 20
11.7643
 10
20.9699
 20
11.7766
 10
21.0322
 20
11.7885
 10
21.0954
 20
11.7999
 10
21.1594
 20
11.8108
 10
21.2243
 20
11.8214
 10
21.29
 20
11.8315
 10
21.3565
 20
11.8411
 10
21.4238
 20
11.8504
 10
21.492
 20
11.8592
 10
21.561
 20
11.8675
 10
21.6308
 20
11.8754
 10
21.7015
 20
11.8829
 10
21.773
 20
11.89
 10
21.8454
 20
11.8966
 10
21.9185
 20
11.9028
 10
21.9925
 20
11.9085
 10
22.0673
 20
11.9138
 10
22.143
 20
11.9187
 10
22.2195
 20
11.9231
 10
22.2968
 20
11.9271
 10
22.375
 20
11.9307
 10
22.454
 20
11.9338
 10
22.5338
 20
11.9365
 10
22.6144
 20
11.9388
 10
22.6959
 20
11.9406
 10
22.7782
 20
11.942
 10
22.8614
 20
11.9429
 10
22.9453
 20
11.9434
 10
23.0237
 20
11.9435
 10
23.0886
 20
11.9433
 10
23.1534
 20
11.9428
 10
23.2181
 20
11.9421
 10
23.2828
 20
11.9411
 10
23.3474
 20
11.9398
 10
23.4119
 20
11.9383
 10
23.4763
 20
11.9365
 10
23.5406
 20
11.9345
 10
23.6049
 20
11.9321
 10
23.6691
 20
11.9296
 10
23.7331
 20
11.9267
 10
23.7972
 20
11.9236
 10
23.8611
 20
11.9202
 10
23.925
 20
11.9166
 10
23.9887
 20
11.9127
 10
24.0525
 20
11.9086
 10
24.1158
 20
11.9042
 10
24.1771
 20
11.8997
 10
24.2388
 20
11.895
 10
24.3008
 20
11.89
 10
24.3631
 20
11.8848
 10
24.4257
 20
11.8794
 10
24.4887
 20
11.8737
 10
24.5519
 20
11.8677
 10
24.6155
 20
11.8615
 10
24.6794
 20
11.8551
 10
24.7436
 20
11.8484
 10
24.8081
 20
11.8415
 10
24.873
 20
11.8344
 10
24.9381
 20
11.827
 10
25.0036
 20
11.8193
 10
25.0694
 20
11.8114
 10
25.1355
 20
11.8033
 10
25.2019
 20
11.7949
 10
25.2503
 20
11.7726
 10
25.2429
 20
11.7087
 10
25.2355
 20
11.6448
 10
25.228
 20
11.5809
 10
25.2206
 20
11.517
 10
25.2132
 20
11.4531
 10
25.2058
 20
11.3892
 10
25.1983
 20
11.3254
 10
25.1909
 20
11.2615
 10
25.1835
 20
11.1976
 10
25.1761
 20
11.1337
 10
25.1687
 20
11.0698
 10
25.1612
 20
11.0059
 10
25.1538
 20
10.942
 10
25.1464
 20
10.8781
 10
25.139
 20
10.8142
 10
25.1315
 20
10.7503
 10
25.1241
 20
10.6864
 10
25.1167
 20
10.6225
 10
25.1093
 20
10.5586
 10
25.1019
 20
10.4947
 10
25.0944
 20
10.4308
 10
25.087
 20
10.3669
 10
25.0796
 20
10.303
 10
25.0722
 20
10.2391
 10
25.0647
 20
10.1752
 10
25.0573
 20
10.1113
 10
25.046
 20
10.0516
 10
24.9733
 20
10.0582
 10
24.9016
 20
10.0646
 10
24.8309
 20
10.0708
 10
24.7612
 20
10.0767
 10
24.6925
 20
10.0824
 10
24.6247
 20
10.0879
 10
24.558
 20
10.0931
 10
24.4922
 20
10.0981
 10
24.4274
 20
10.1029
 10
24.3636
 20
10.1074
 10
24.3007
 20
10.1117
 10
24.2389
 20
10.1158
 10
24.178
 20
10.1197
 10
24.1181
 20
10.1233
 10
24.0592
 20
10.1267
 10
24.0013
 20
10.1299
 10
23.9443
 20
10.1328
 10
23.8884
 20
10.1355
 10
23.823
 20
10.1385
 10
23.7525
 20
10.1416
 10
23.683
 20
10.1443
 10
23.6146
 20
10.1469
 10
23.5472
 20
10.1492
 10
23.4808
 20
10.1514
 10
23.4155
 20
10.1532
 10
23.3512
 20
10.1549
 10
23.288
 20
10.1563
 10
23.2259
 20
10.1574
 10
23.1647
 20
10.1584
 10
23.1047
 20
10.1591
 10
23.0456
 20
10.1596
 10
22.9876
 20
10.1598
 10
22.9166
 20
10.1598
 10
22.8302
 20
10.1594
 10
22.7455
 20
10.1586
 10
22.6625
 20
10.1573
 10
22.5811
 20
10.1557
 10
22.5013
 20
10.1536
 10
22.4232
 20
10.1511
 10
22.3468
 20
10.1481
 10
22.272
 20
10.1448
 10
22.1989
 20
10.141
 10
22.1275
 20
10.1368
 10
22.0577
 20
10.1322
 10
21.9895
 20
10.1271
 10
21.923
 20
10.1217
 10
21.8582
 20
10.1158
 10
21.7951
 20
10.1095
 10
21.7336
 20
10.1028
 10
21.6737
 20
10.0956
 10
21.6155
 20
10.0881
 10
21.559
 20
10.0801
 10
21.5041
 20
10.0717
 10
21.4509
 20
10.0628
 10
21.3994
 20
10.0536
 10
21.3495
 20
10.0439
 10
21.3012
 20
10.0338
 10
21.2546
 20
10.0233
 10
21.2097
 20
10.0123
 10
21.1665
 20
10.001
 10
21.1248
 20
9.9892
 10
21.0691
 20
9.9719
 10
20.9897
 20
9.9438
 10
20.9165
 20
9.9133
 10
20.8495
 20
9.8805
 10
20.7888
 20
9.8454
 10
20.7342
 20
9.8079
 10
20.6859
 20
9.7681
 10
20.6437
 20
9.7259
 10
20.6078
 20
9.6814
 10
20.5781
 20
9.6346
 10
20.5546
 20
9.5855
 10
20.5373
 20
9.534
 10
20.5262
 20
9.4801
 10
20.5213
 20
9.424
 10
20.5229
 20
9.354
 10
20.5318
 20
9.2843
 10
20.5479
 20
9.2206
 10
20.5712
 20
9.1628
 10
20.6019
 20
9.1109
 10
20.6397
 20
9.0649
 10
20.6849
 20
9.0249
 10
20.7265
 20
8.9961
 10
20.7711
 20
8.9693
 10
20.8205
 20
8.9433
 10
20.8745
 20
8.9181
 10
20.9332
 20
8.8936
 10
20.9966
 20
8.87
 10
21.0647
 20
8.8471
 10
21.1375
 20
8.825
 10
21.2149
 20
8.8037
 10
21.278
 20
8.7868
 10
21.3401
 20
8.77
 10
21.4022
 20
8.7533
 10
21.4643
 20
8.7366
 10
21.5264
 20
8.7198
 10
21.5886
 20
8.7031
 10
21.6507
 20
8.6863
 10
21.7128
 20
8.6696
 10
21.7749
 20
8.6528
 10
21.837
 20
8.6361
 10
21.8991
 20
8.6194
 10
21.9612
 20
8.6026
 10
22.0233
 20
8.5859
 10
22.0854
 20
8.5691
 10
22.1476
 20
8.5524
 10
22.2097
 20
8.5356
 10
22.2718
 20
8.5189
 10
22.3339
 20
8.5022
 10
22.396
 20
8.4854
 10
22.4581
 20
8.4687
 10
22.5202
 20
8.4519
 10
22.5823
 20
8.4352
 10
22.6445
 20
8.4184
 10
22.7066
 20
8.4017
 10
22.7687
 20
8.385
 10
22.8308
 20
8.3682
 10
22.8929
 20
8.3515
 10
22.955
 20
8.3347
 10
23.0171
 20
8.318
 10
23.0792
 20
8.3013
 10
23.1413
 20
8.2845
 10
23.2035
 20
8.2678
 10
23.2799
 20
8.2478
 10
23.3553
 20
8.2273
 10
23.4293
 20
8.2062
 10
23.502
 20
8.1846
 10
23.5734
 20
8.1624
 10
23.6434
 20
8.1398
 10
23.712
 20
8.1165
 10
23.7793
 20
8.0928
 10
23.8453
 20
8.0684
 10
23.9099
 20
8.0436
 10
23.9731
 20
8.0182
 10
24.035
 20
7.9923
 10
24.0956
 20
7.9658
 10
24.1548
 20
7.9388
 10
24.2126
 20
7.9113
 10
24.2692
 20
7.8832
 10
24.3243
 20
7.8546
 10
24.3782
 20
7.8254
 10
24.4306
 20
7.7957
 10
24.4818
 20
7.7655
 10
24.5315
 20
7.7347
 10
24.58
 20
7.7034
 10
24.627
 20
7.6715
 10
24.6728
 20
7.6392
 10
24.7172
 20
7.6062
 10
24.7602
 20
7.5728
 10
24.8019
 20
7.5387
 10
24.8423
 20
7.5042
 10
24.8813
 20
7.4691
 10
24.9198
 20
7.4327
 10
24.9631
 20
7.389
 10
25.0047
 20
7.3441
 10
25.0445
 20
7.2979
 10
25.0825
 20
7.2505
 10
25.1187
 20
7.2019
 10
25.1532
 20
7.152
 10
25.1858
 20
7.1009
 10
25.2167
 20
7.0485
 10
25.2458
 20
6.9948
 10
25.2732
 20
6.94
 10
25.2987
 20
6.8839
 10
25.3225
 20
6.8265
 10
25.3444
 20
6.7679
 10
25.3646
 20
6.708
 10
25.383
 20
6.6469
 10
25.3997
 20
6.5846
 10
25.4145
 20
6.521
 10
25.4276
 20
6.4561
 10
25.4389
 20
6.3901
 10
25.4484
 20
6.3227
 10
25.4561
 20
6.2542
 10
25.4621
 20
6.1843
 10
25.4662
 20
6.1133
 10
25.4686
 20
6.041
 10
25.4692
 20
5.9675
 10
25.4681
 20
5.8944
 10
25.4655
 20
5.8224
 10
25.4613
 20
5.7515
 10
25.4555
 20
5.6817
 10
25.4481
 20
5.613
 10
25.4391
 20
5.5454
 10
25.4285
 20
5.4788
 10
25.4164
 20
5.4134
 10
25.4027
 20
5.349
 10
25.3873
 20
5.2857
 10
25.3704
 20
5.2235
 10
25.352
 20
5.1624
 10
25.3319
 20
5.1024
 10
25.3102
 20
5.0435
 10
25.287
 20
4.9856
 10
25.2622
 20
4.9289
 10
25.2357
 20
4.8732
 10
25.2078
 20
4.8186
 10
25.1782
 20
4.7651
 10
25.147
 20
4.7127
 10
25.1143
 20
4.6614
 10
25.0799
 20
4.6112
 10
25.044
 20
4.562
 10
25.0065
 20
4.514
 10
24.9674
 20
4.467
 10
24.9267
 20
4.4211
 10
24.8845
 20
4.3763
 10
24.8406
 20
4.3326
 10
24.7952
 20
4.29
 10
24.7482
 20
4.2484
 10
24.6996
 20
4.208
 10
24.6494
 20
4.1686
 10
24.5976
 20
4.1304
 10
24.5443
 20
4.0932
 10
24.4894
 20
4.0571
 10
24.4399
 20
4.0263
 10
24.399
 20
4.002
 10
24.3571
 20
3.9782
 10
24.3144
 20
3.9549
 10
24.2708
 20
3.9321
 10
24.2263
 20
3.9097
 10
24.181
 20
3.8879
 10
24.1347
 20
3.8665
 10
24.0876
 20
3.8456
 10
24.0396
 20
3.8252
 10
23.9907
 20
3.8054
 10
23.9409
 20
3.786
 10
23.8903
 20
3.7671
 10
23.8387
 20
3.7486
 10
23.7863
 20
3.7307
 10
23.733
 20
3.7133
 10
23.6788
 20
3.6963
 10
23.6238
 20
3.6799
 10
23.5678
 20
3.6639
 10
23.511
 20
3.6485
 10
23.4533
 20
3.6335
 10
23.3947
 20
3.619
 10
23.3352
 20
3.605
 10
23.2749
 20
3.5915
 10
23.2137
 20
3.5785
 10
23.1515
 20
3.566
 10
23.0885
 20
3.5539
 10
23.0247
 20
3.5424
 10
22.9599
 20
3.5313
 10
22.8943
 20
3.5208
 10
22.8277
 20
3.5107
 10
22.7603
 20
3.5011
 10
22.692
 20
3.4921
 10
22.6229
 20
3.4835
 10
22.5528
 20
3.4754
 10
22.4819
 20
3.4677
 10
22.4101
 20
3.4606
 10
22.3374
 20
3.454
 10
22.2638
 20
3.4479
 10
22.1894
 20
3.4422
 10
22.114
 20
3.437
 10
22.0378
 20
3.4324
 10
21.9607
 20
3.4282
 10
21.8827
 20
3.4245
 10
21.8038
 20
3.4213
 10
21.7241
 20
3.4186
 10
21.6435
 20
3.4164
 10
21.562
 20
3.4147
 10
21.4796
 20
3.4135
  0
LWPOLYLINE
  5
4E
330
17
100
AcDbEntity
  8
OUTLINE
100
AcDbPolyline
 90
192
 70
1
 10
40.714
 20
3.4147
 10
40.5615
 20
3.4125
 10
40.4095
 20
3.4147
 10
40.2605
 20
3.4211
 10
40.1145
 20
3.4319
 10
39.9715
 20
3.4471
 10
39.8316
 20
3.4665
 10
39.6947
 20
3.4903
 10
39.5607
 20
3.5184
 10
39.4298
 20
3.5508
 10
39.3019
 20
3.5875
 10
39.1771
 20
3.6286
 10
39.0552
 20
3.674
 10
38.9364
 20
3.7237
 10
38.8206
 20
3.7777
 10
38.7078
 20
3.836
 10
38.598
 20
3.8987
 10
38.4912
 20
3.9657
 10
38.3875
 20
4.037
 10
38.2867
 20
4.1126
 10
38.189
 20
4.1926
 10
38.0943
 20
4.2769
 10
38.0026
 20
4.3655
 10
37.914
 20
4.4584
 10
37.8306
 20
4.553
 10
37.7564
 20
4.6436
 10
37.6853
 20
4.7372
 10
37.6172
 20
4.8336
 10
37.5521
 20
4.9328
 10
37.4901
 20
5.035
 10
37.431
 20
5.14
 10
37.375
 20
5.2479
 10
37.3221
 20
5.3586
 10
37.2722
 20
5.4722
 10
37.2253
 20
5.5887
 10
37.1814
 20
5.7081
 10
37.1406
 20
5.8304
 10
37.1027
 20
5.9555
 10
37.068
 20
6.0834
 10
37.0362
 20
6.2143
 10
37.0075
 20
6.348
 10
36.9818
 20
6.4846
 10
36.9591
 20
6.6241
 10
36.9395
 20
6.7664
 10
36.9229
 20
6.9116
 10
36.9093
 20
7.0597
 10
36.8987
 20
7.2106
 10
36.8912
 20
7.3645
 10
36.8867
 20
7.5212
 10
36.8853
 20
7.6807
 10
36.8868
 20
7.8406
 10
36.8914
 20
7.9976
 10
36.899
 20
8.1516
 10
36.9096
 20
8.3028
 10
36.9233
 20
8.4511
 10
36.94
 20
8.5964
 10
36.9596
 20
8.7389
 10
36.9824
 20
8.8785
 10
37.0081
 20
9.0152
 10
37.0368
 20
9.1489
 10
37.0686
 20
9.2798
 10
37.1034
 20
9.4078
 10
37.1412
 20
9.5328
 10
37.1821
 20
9.655
 10
37.226
 20
9.7742
 10
37.2728
 20
9.8906
 10
37.3227
 20
10.0041
 10
37.3757
 20
10.1146
 10
37.4316
 20
10.2223
 10
37.4906
 20
10.3271
 10
37.5526
 20
10.4289
 10
37.6176
 20
10.5279
 10
37.6856
 20
10.6239
 10
37.7567
 20
10.7171
 10
37.8308
 20
10.8073
 10
37.9142
 20
10.9016
 10
38.003
 20
10.9943
 10
38.0947
 20
11.0826
 10
38.1895
 20
11.1666
 10
38.2873
 20
11.2463
 10
38.3881
 20
11.3217
 10
38.492
 20
11.3928
 10
38.5988
 20
11.4595
 10
38.7087
 20
11.522
 10
38.8216
 20
11.5801
 10
38.9375
 20
11.634
 10
39.0565
 20
11.6835
 10
39.1784
 20
11.7287
 10
39.3034
 20
11.7696
 10
39.4314
 20
11.8062
 10
39.5625
 20
11.8384
 10
39.6965
 20
11.8664
 10
39.8336
 20
11.89
 10
39.9737
 20
11.9094
 10
40.1168
 20
11.9244
 10
40.2629
 20
11.9351
 10
40.4121
 20
11.9415
 10
40.5642
 20
11.9435
 10
40.7167
 20
11.9413
 10
40.8662
 20
11.9348
 10
41.0126
 20
11.924
 10
41.1559
 20
11.9088
 10
41.2962
 20
11.8894
 10
41.4335
 20
11.8657
 10
41.5676
 20
11.8376
 10
41.6987
 20
11.8053
 10
41.8268
 20
11.7687
 10
41.9518
 20
11.7277
 10
42.0737
 20
11.6825
 10
42.1926
 20
11.633
 10
42.3085
 20
11.5791
 10
42.4212
 20
11.521
 10
42.5309
 20
11.4585
 10
42.6376
 20
11.3918
 10
42.7412
 20
11.3207
 10
42.8417
 20
11.2454
 10
42.9392
 20
11.1658
 10
43.0336
 20
11.0818
 10
43.125
 20
10.9936
 10
43.2133
 20
10.901
 10
43.2963
 20
10.8068
 10
43.3701
 20
10.7165
 10
43.4409
 20
10.6233
 10
43.5087
 20
10.5272
 10
43.5734
 20
10.4282
 10
43.6352
 20
10.3262
 10
43.6939
 20
10.2214
 10
43.7496
 20
10.1137
 10
43.8023
 20
10.003
 10
43.852
 20
9.8895
 10
43.8987
 20
9.773
 10
43.9424
 20
9.6537
 10
43.9831
 20
9.5314
 10
44.0207
 20
9.4062
 10
44.0554
 20
9.2782
 10
44.087
 20
9.1472
 10
44.1156
 20
9.0133
 10
44.1412
 20
8.8766
 10
44.1638
 20
8.7369
 10
44.1834
 20
8.5943
 10
44.1999
 20
8.4488
 10
44.2135
 20
8.3004
 10
44.224
 20
8.1492
 10
44.2315
 20
7.995
 10
44.2361
 20
7.8379
 10
44.2376
 20
7.6779
 10
44.2361
 20
7.5183
 10
44.2315
 20
7.3616
 10
44.224
 20
7.2077
 10
44.2134
 20
7.0568
 10
44.1998
 20
6.9087
 10
44.1832
 20
6.7634
 10
44.1636
 20
6.6211
 10
44.1409
 20
6.4816
 10
44.1152
 20
6.345
 10
44.0866
 20
6.2113
 10
44.0548
 20
6.0805
 10
44.0201
 20
5.9525
 10
43.9824
 20
5.8274
 10
43.9416
 20
5.7052
 10
43.8978
 20
5.5858
 10
43.851
 20
5.4693
 10
43.8012
 20
5.3557
 10
43.7483
 20
5.245
 10
43.6925
 20
5.1371
 10
43.6336
 20
5.0321
 10
43.5717
 20
4.93
 10
43.5067
 20
4.8308
 10
43.4388
 20
4.7344
 10
43.3678
 20
4.6409
 10
43.2939
 20
4.5503
 10
43.2105
 20
4.4556
 10
43.1222
 20
4.363
 10
43.0308
 20
4.2746
 10
42.9363
 20
4.1905
 10
42.8388
 20
4.1108
 10
42.7382
 20
4.0354
 10
42.6346
 20
3.9642
 10
42.5279
 20
3.8974
 10
42.4182
 20
3.8349
 10
42.3054
 20
3.7767
 10
42.1896
 20
3.7229
 10
42.0707
 20
3.6733
 10
41.9488
 20
3.628
 10
41.8238
 20
3.5871
 10
41.6958
 20
3.5504
 10
41.5647
 20
3.5181
 10
41.4305
 20
3.4901
 10
41.2933
 20
3.4664
 10
41.1531
 20
3.447
 10
41.0098
 20
3.4319
 10
40.8634
 20
3.4211
  0
LWPOLYLINE
  5
4F
330
17
100
AcDbEntity
  8
OUTLINE
100
AcDbPolyline
 90
192
 70
1
 10
40.4845
 20
5.1977
 10
40.5615
 20
5.1962
 10
40.6391
 20
5.1977
 10
40.7149
 20
5.2021
 10
40.789
 20
5.2095
 10
40.8613
 20
5.2198
 10
40.932
 20
5.233
 10
41.0009
 20
5.2493
 10
41.0681
 20
5.2684
 10
41.1335
 20
5.2905
 10
41.1972
 20
5.3156
 10
41.2592
 20
5.3436
 10
41.3195
 20
5.3745
 10
41.378
 20
5.4084
 10
41.4348
 20
5.4452
 10
41.4899
 20
5.485
 10
41.5432
 20
5.5277
 10
41.5948
 20
5.5734
 10
41.6447
 20
5.622
 10
41.6929
 20
5.6736
 10
41.7393
 20
5.7281
 10
41.784
 20
5.7856
 10
41.8267
 20
5.8455
 10
41.8587
 20
5.8942
 10
41.8896
 20
5.9443
 10
41.9192
 20
5.9959
 10
41.9476
 20
6.049
 10
41.9748
 20
6.1036
 10
42.0008
 20
6.1596
 10
42.0256
 20
6.2171
 10
42.0492
 20
6.2761
 10
42.0716
 20
6.3365
 10
42.0928
 20
6.3984
 10
42.1127
 20
6.4618
 10
42.1315
 20
6.5267
 10
42.149
 20
6.5931
 10
42.1654
 20
6.6609
 10
42.1805
 20
6.7302
 10
42.1944
 20
6.8009
 10
42.2071
 20
6.8732
 10
42.2186
 20
6.9469
 10
42.2289
 20
7.022
 10
42.238
 20
7.0987
 10
42.2459
 20
7.1768
 10
42.2525
 20
7.2564
 10
42.258
 20
7.3375
 10
42.2623
 20
7.4201
 10
42.2653
 20
7.5041
 10
42.2671
 20
7.5896
 10
42.2678
 20
7.6765
 10
42.2672
 20
7.7639
 10
42.2654
 20
7.8497
 10
42.2624
 20
7.9341
 10
42.2581
 20
8.0169
 10
42.2527
 20
8.0983
 10
42.2461
 20
8.1781
 10
42.2382
 20
8.2565
 10
42.2291
 20
8.3333
 10
42.2189
 20
8.4087
 10
42.2074
 20
8.4826
 10
42.1947
 20
8.5549
 10
42.1807
 20
8.6258
 10
42.1656
 20
8.6952
 10
42.1493
 20
8.7631
 10
42.1317
 20
8.8295
 10
42.1129
 20
8.8943
 10
42.093
 20
8.9577
 10
42.0718
 20
9.0196
 10
42.0494
 20
9.08
 10
42.0258
 20
9.1389
 10
42.0009
 20
9.1963
 10
41.9749
 20
9.2522
 10
41.9476
 20
9.3066
 10
41.9192
 20
9.3595
 10
41.8895
 20
9.4109
 10
41.8586
 20
9.4608
 10
41.8265
 20
9.5092
 10
41.7846
 20
9.5678
 10
41.7395
 20
9.6255
 10
41.6928
 20
9.6802
 10
41.6444
 20
9.732
 10
41.5943
 20
9.7808
 10
41.5425
 20
9.8266
 10
41.4891
 20
9.8695
 10
41.4339
 20
9.9094
 10
41.377
 20
9.9464
 10
41.3185
 20
9.9805
 10
41.2583
 20
10.0115
 10
41.1963
 20
10.0397
 10
41.1327
 20
10.0648
 10
41.0674
 20
10.0871
 10
41.0004
 20
10.1063
 10
40.9317
 20
10.1226
 10
40.8614
 20
10.136
 10
40.7893
 20
10.1464
 10
40.7156
 20
10.1538
 10
40.6401
 20
10.1583
 10
40.563
 20
10.1598
 10
40.4858
 20
10.1584
 10
40.4103
 20
10.154
 10
40.3365
 20
10.1467
 10
40.2643
 20
10.1364
 10
40.1939
 20
10.1232
 10
40.1251
 20
10.107
 10
40.0581
 20
10.0879
 10
39.9927
 20
10.0658
 10
39.929
 20
10.0407
 10
39.867
 20
10.0127
 10
39.8067
 20
9.9817
 10
39.7481
 20
9.9478
 10
39.6912
 20
9.9109
 10
39.636
 20
9.8711
 10
39.5824
 20
9.8283
 10
39.5306
 20
9.7826
 10
39.4805
 20
9.7339
 10
39.432
 20
9.6823
 10
39.3852
 20
9.6277
 10
39.3401
 20
9.5701
 10
39.2978
 20
9.5111
 10
39.2656
 20
9.4627
 10
39.2347
 20
9.4129
 10
39.205
 20
9.3615
 10
39.1765
 20
9.3087
 10
39.1492
 20
9.2543
 10
39.1231
 20
9.1985
 10
39.0982
 20
9.1412
 10
39.0745
 20
9.0823
 10
39.0521
 20
9.022
 10
39.0309
 20
8.9602
 10
39.0108
 20
8.8968
 10
38.992
 20
8.832
 10
38.9744
 20
8.7657
 10
38.958
 20
8.6979
 10
38.9428
 20
8.6285
 10
38.9289
 20
8.5577
 10
38.9161
 20
8.4854
 10
38.9046
 20
8.4116
 10
38.8943
 20
8.3363
 10
38.8851
 20
8.2595
 10
38.8772
 20
8.1812
 10
38.8705
 20
8.1014
 10
38.8651
 20
8.0201
 10
38.8608
 20
7.9373
 10
38.8577
 20
7.853
 10
38.8559
 20
7.7672
 10
38.8553
 20
7.68
 10
38.8558
 20
7.593
 10
38.8576
 20
7.5075
 10
38.8607
 20
7.4235
 10
38.8649
 20
7.3409
 10
38.8703
 20
7.2598
 10
38.877
 20
7.1802
 10
38.8849
 20
7.1021
 10
38.894
 20
7.0254
 10
38.9043
 20
6.9502
 10
38.9158
 20
6.8765
 10
38.9286
 20
6.8042
 10
38.9426
 20
6.7334
 10
38.9578
 20
6.6641
 10
38.9742
 20
6.5963
 10
38.9918
 20
6.5299
 10
39.0106
 20
6.465
 10
39.0307
 20
6.4016
 10
39.052
 20
6.3397
 10
39.0744
 20
6.2792
 10
39.0982
 20
6.2202
 10
39.1231
 20
6.1626
 10
39.1492
 20
6.1065
 10
39.1766
 20
6.0519
 10
39.2052
 20
5.9988
 10
39.235
 20
5.9472
 10
39.266
 20
5.897
 10
39.2982
 20
5.8483
 10
39.3407
 20
5.7888
 10
39.3857
 20
5.731
 10
39.4324
 20
5.6762
 10
39.4808
 20
5.6244
 10
39.5309
 20
5.5755
 10
39.5827
 20
5.5296
 10
39.6361
 20
5.4866
 10
39.6913
 20
5.4466
 10
39.7481
 20
5.4095
 10
39.8066
 20
5.3755
 10
39.8668
 20
5.3444
 10
39.9287
 20
5.3162
 10
39.9923
 20
5.291
 10
40.0575
 20
5.2688
 10
40.1245
 20
5.2495
 10
40.1931
 20
5.2332
 10
40.2634
 20
5.2199
 10
40.3354
 20
5.2095
 10
40.4091
 20
5.2021
  0
LWPOLYLINE
  5
50
330
17
100
AcDbEntity
  8
OUTLINE
100
AcDbPolyline
 90
303
 70
1
 10
32.7517
 20
11.5276
 10
32.7517
 20
11.3973
 10
32.7517
 20
11.3231
 10
32.7517
 20
11.2669
 10
32.7517
 20
11.1365
 10
32.7517
 20
11.1218
 10
32.7517
 20
11.0061
 10
32.7517
 20
10.9205
 10
32.7517
 20
10.8757
 10
32.7517
 20
10.7453
 10
32.7517
 20
10.7191
 10
32.7517
 20
10.6149
 10
32.7517
 20
10.5178
 10
32.7517
 20
10.4845
 10
32.7517
 20
10.3541
 10
32.7517
 20
10.3165
 10
32.7517
 20
10.2237
 10
32.7517
 20
10.1152
 10
32.7517
 20
10.0933
 10
32.7517
 20
9.9139
 10
32.7517
 20
9.7125
 10
32.7517
 20
9.5112
 10
32.7517
 20
9.3099
 10
32.7517
 20
9.1086
 10
32.7517
 20
8.9073
 10
32.7517
 20
8.7059
 10
32.7517
 20
8.5046
 10
32.7517
 20
8.3033
 10
32.7517
 20
8.102
 10
32.7517
 20
7.9007
 10
32.7517
 20
7.6993
 10
32.7517
 20
7.498
 10
32.7517
 20
7.2967
 10
32.7517
 20
7.0954
 10
32.7517
 20
6.8941
 10
32.7517
 20
6.6928
 10
32.7517
 20
6.4914
 10
32.7517
 20
6.2901
 10
32.7517
 20
6.0888
 10
32.7517
 20
5.8875
 10
32.7517
 20
5.6862
 10
32.7517
 20
5.4848
 10
32.7517
 20
5.3048
 10
32.7696
 20
5.3048
 10
32.8606
 20
5.3048
 10
32.9516
 20
5.3048
 10
33.0425
 20
5.3048
 10
33.1335
 20
5.3048
 10
33.2244
 20
5.3048
 10
33.3154
 20
5.3048
 10
33.4064
 20
5.3048
 10
33.4973
 20
5.3048
 10
33.5883
 20
5.3048
 10
33.6793
 20
5.3048
 10
33.7702
 20
5.3048
 10
33.8612
 20
5.3048
 10
33.9522
 20
5.3048
 10
34.0431
 20
5.3048
 10
34.1341
 20
5.3048
 10
34.2251
 20
5.3048
 10
34.316
 20
5.3048
 10
34.407
 20
5.3048
 10
34.498
 20
5.3048
 10
34.5889
 20
5.3048
 10
34.6799
 20
5.3048
 10
34.7709
 20
5.3048
 10
34.8618
 20
5.3048
 10
34.9528
 20
5.3048
 10
35.0437
 20
5.3048
 10
35.1347
 20
5.3048
 10
35.2257
 20
5.3048
 10
35.2257
 20
5.2139
 10
35.2257
 20
5.1229
 10
35.2257
 20
5.0319
 10
35.2257
 20
4.941
 10
35.2257
 20
4.85
 10
35.2257
 20
4.7591
 10
35.2257
 20
4.6681
 10
35.2257
 20
4.5771
 10
35.2257
 20
4.4862
 10
35.2257
 20
4.3952
 10
35.2257
 20
4.3042
 10
35.2257
 20
4.2133
 10
35.2257
 20
4.1223
 10
35.2257
 20
4.0313
 10
35.2257
 20
3.9404
 10
35.2257
 20
3.8494
 10
35.2257
 20
3.7584
 10
35.2257
 20
3.6675
 10
35.2257
 20
3.5765
 10
35.1436
 20
3.5676
 10
35.0526
 20
3.5676
 10
34.9617
 20
3.5676
 10
34.8707
 20
3.5676
 10
34.7798
 20
3.5676
 10
34.6888
 20
3.5676
 10
34.5978
 20
3.5676
 10
34.5069
 20
3.5676
 10
34.4159
 20
3.5676
 10
34.3249
 20
3.5676
 10
34.234
 20
3.5676
 10
34.143
 20
3.5676
 10
34.052
 20
3.5676
 10
33.9611
 20
3.5676
 10
33.8701
 20
3.5676
 10
33.7791
 20
3.5676
 10
33.6882
 20
3.5676
 10
33.5972
 20
3.5676
 10
33.5062
 20
3.5676
 10
33.4153
 20
3.5676
 10
33.3243
 20
3.5676
 10
33.2333
 20
3.5676
 10
33.1424
 20
3.5676
 10
33.0514
 20
3.5676
 10
32.9605
 20
3.5676
 10
32.8695
 20
3.5676
 10
32.7785
 20
3.5676
 10
32.6876
 20
3.5676
 10
32.6557
 20
3.5676
 10
32.5966
 20
3.5676
 10
32.4544
 20
3.5676
 10
32.2531
 20
3.5676
 10
32.0518
 20
3.5676
 10
31.8505
 20
3.5676
 10
31.6491
 20
3.5676
 10
31.4478
 20
3.5676
 10
31.2465
 20
3.5676
 10
31.0452
 20
3.5676
 10
30.9755
 20
3.5676
 10
30.8719
 20
3.5676
 10
30.8439
 20
3.5676
 10
30.7683
 20
3.5676
 10
30.6648
 20
3.5676
 10
30.5612
 20
3.5676
 10
30.4576
 20
3.5676
 10
30.354
 20
3.5676
 10
30.2505
 20
3.5676
 10
30.1469
 20
3.5676
 10
30.0433
 20
3.5676
 10
29.9398
 20
3.5676
 10
29.8362
 20
3.5676
 10
29.7326
 20
3.5676
 10
29.629
 20
3.5676
 10
29.5255
 20
3.5676
 10
29.4219
 20
3.5676
 10
29.3183
 20
3.5676
 10
29.2148
 20
3.5676
 10
29.1112
 20
3.5676
 10
29.0076
 20
3.5676
 10
28.904
 20
3.5676
 10
28.8005
 20
3.5676
 10
28.6969
 20
3.5676
 10
28.5933
 20
3.5676
 10
28.4897
 20
3.5676
 10
28.3862
 20
3.5676
 10
28.2826
 20
3.5676
 10
28.179
 20
3.5676
 10
28.0755
 20
3.5676
 10
27.9719
 20
3.5676
 10
27.8683
 20
3.5676
 10
27.7647
 20
3.5676
 10
27.7647
 20
3.6712
 10
27.7647
 20
3.7748
 10
27.7647
 20
3.8783
 10
27.7647
 20
3.9819
 10
27.7647
 20
4.0855
 10
27.7647
 20
4.189
 10
27.7647
 20
4.2926
 10
27.7647
 20
4.3962
 10
27.7647
 20
4.4998
 10
27.7647
 20
4.6033
 10
27.7647
 20
4.7069
 10
27.7647
 20
4.8105
 10
27.7647
 20
4.914
 10
27.7647
 20
5.0176
 10
27.7647
 20
5.1212
 10
27.7647
 20
5.2248
 10
27.7882
 20
5.3048
 10
27.8918
 20
5.3048
 10
27.9954
 20
5.3048
 10
28.099
 20
5.3048
 10
28.2025
 20
5.3048
 10
28.3061
 20
5.3048
 10
28.4097
 20
5.3048
 10
28.5132
 20
5.3048
 10
28.6168
 20
5.3048
 10
28.7204
 20
5.3048
 10
28.824
 20
5.3048
 10
28.9275
 20
5.3048
 10
29.0311
 20
5.3048
 10
29.1347
 20
5.3048
 10
29.2383
 20
5.3048
 10
29.3418
 20
5.3048
 10
29.4454
 20
5.3048
 10
29.549
 20
5.3048
 10
29.6525
 20
5.3048
 10
29.7561
 20
5.3048
 10
29.8597
 20
5.3048
 10
29.9633
 20
5.3048
 10
30.0668
 20
5.3048
 10
30.1704
 20
5.3048
 10
30.274
 20
5.3048
 10
30.3775
 20
5.3048
 10
30.4811
 20
5.3048
 10
30.5847
 20
5.3048
 10
30.6883
 20
5.3048
 10
30.7918
 20
5.3048
 10
30.8439
 20
5.3048
 10
30.8439
 20
5.3795
 10
30.8439
 20
5.5808
 10
30.8439
 20
5.7821
 10
30.8439
 20
5.9834
 10
30.8439
 20
6.1848
 10
30.8439
 20
6.3861
 10
30.8439
 20
6.5874
 10
30.8439
 20
6.7887
 10
30.8439
 20
6.99
 10
30.8439
 20
7.1914
 10
30.8439
 20
7.3927
 10
30.8439
 20
7.594
 10
30.8439
 20
7.7953
 10
30.8439
 20
7.9966
 10
30.8439
 20
8.198
 10
30.8439
 20
8.3993
 10
30.8439
 20
8.6006
 10
30.8439
 20
8.8019
 10
30.8439
 20
9.0032
 10
30.8439
 20
9.2045
 10
30.8439
 20
9.4059
 10
30.8439
 20
9.6072
 10
30.8439
 20
9.8085
 10
30.8439
 20
10.0098
 10
30.8439
 20
10.0512
 10
30.8379
 20
10.0512
 10
30.7075
 20
10.0512
 10
30.5772
 20
10.0512
 10
30.4468
 20
10.0512
 10
30.3164
 20
10.0512
 10
30.186
 20
10.0512
 10
30.0556
 20
10.0512
 10
29.9252
 20
10.0512
 10
29.7948
 20
10.0512
 10
29.6644
 20
10.0512
 10
29.534
 20
10.0512
 10
29.4036
 20
10.0512
 10
29.2732
 20
10.0512
 10
29.1428
 20
10.0512
 10
29.0124
 20
10.0512
 10
28.882
 20
10.0512
 10
28.7517
 20
10.0512
 10
28.6213
 20
10.0512
 10
28.4909
 20
10.0512
 10
28.3605
 20
10.0512
 10
28.2301
 20
10.0512
 10
28.2301
 20
10.1816
 10
28.2301
 20
10.312
 10
28.2301
 20
10.4424
 10
28.2301
 20
10.5728
 10
28.2301
 20
10.7032
 10
28.2301
 20
10.8336
 10
28.2301
 20
10.964
 10
28.2301
 20
11.0943
 10
28.2301
 20
11.2247
 10
28.2301
 20
11.3551
 10
28.2301
 20
11.4855
 10
28.2301
 20
11.6159
 10
28.2301
 20
11.7463
 10
28.3183
 20
11.7884
 10
28.4487
 20
11.7884
 10
28.5791
 20
11.7884
 10
28.7095
 20
11.7884
 10
28.8399
 20
11.7884
 10
28.9703
 20
11.7884
 10
29.1007
 20
11.7884
 10
29.2311
 20
11.7884
 10
29.3615
 20
11.7884
 10
29.4919
 20
11.7884
 10
29.6223
 20
11.7884
 10
29.7527
 20
11.7884
 10
29.8831
 20
11.7884
 10
30.0135
 20
11.7884
 10
30.1438
 20
11.7884
 10
30.2742
 20
11.7884
 10
30.4046
 20
11.7884
 10
30.535
 20
11.7884
 10
30.6654
 20
11.7884
 10
30.7958
 20
11.7884
 10
30.9262
 20
11.7884
 10
31.0566
 20
11.7884
 10
31.187
 20
11.7884
 10
31.3174
 20
11.7884
 10
31.4478
 20
11.7884
 10
31.5782
 20
11.7884
 10
31.7086
 20
11.7884
 10
31.839
 20
11.7884
 10
31.9693
 20
11.7884
 10
32.0997
 20
11.7884
 10
32.2301
 20
11.7884
 10
32.3605
 20
11.7884
 10
32.4909
 20
11.7884
 10
32.6213
 20
11.7884
 10
32.7517
 20
11.7884
 10
32.7517
 20
11.658
  0
LWPOLYLINE
  5
51
330
17
100
AcDbEntity
  8
OUTLINE
100
AcDbPolyline
 90
246
 70
1
 10
0.1881
 20
14.5805
 10
0.2588
 20
14.5805
 10
0.379
 20
14.5805
 10
0.5272
 20
14.5805
 10
0.57
 20
14.5805
 10
0.761
 20
14.5805
 10
0.7955
 20
14.5805
 10
0.952
 20
14.5805
 10
1.0639
 20
14.5805
 10
1.1429
 20
14.5805
 10
1.3323
 20
14.5805
 10
1.3339
 20
14.5805
 10
1.5249
 20
14.5805
 10
1.6006
 20
14.5805
 10
1.7159
 20
14.5805
 10
1.869
 20
14.5805
 10
1.9069
 20
14.5805
 10
2.0978
 20
14.5805
 10
2.2888
 20
14.5805
 10
2.4798
 20
14.5805
 10
2.6708
 20
14.5805
 10
2.8618
 20
14.5805
 10
3.0527
 20
14.5805
 10
3.2437
 20
14.5805
 10
3.4347
 20
14.5805
 10
3.6257
 20
14.5805
 10
3.8167
 20
14.5805
 10
4.0076
 20
14.5805
 10
4.1986
 20
14.5805
 10
4.3896
 20
14.5805
 10
4.5806
 20
14.5805
 10
4.7715
 20
14.5805
 10
4.9625
 20
14.5805
 10
5.1535
 20
14.5805
 10
5.3445
 20
14.5805
 10
5.5355
 20
14.5805
 10
5.7264
 20
14.5805
 10
5.9174
 20
14.5805
 10
6.1084
 20
14.5805
 10
6.2994
 20
14.5805
 10
6.4904
 20
14.5805
 10
6.6813
 20
14.5805
 10
6.8723
 20
14.5805
 10
7.0633
 20
14.5805
 10
7.2543
 20
14.5805
 10
7.4453
 20
14.5805
 10
7.4453
 20
14.3895
 10
7.4453
 20
14.1985
 10
7.4453
 20
14.0075
 10
7.4453
 20
13.8166
 10
7.4453
 20
13.6256
 10
7.4453
 20
13.4346
 10
7.4453
 20
13.2436
 10
7.4453
 20
13.0526
 10
7.4453
 20
12.8617
 10
7.2572
 20
12.8587
 10
7.0662
 20
12.8587
 10
6.8752
 20
12.8587
 10
6.6843
 20
12.8587
 10
6.4933
 20
12.8587
 10
6.3023
 20
12.8587
 10
6.1113
 20
12.8587
 10
5.9204
 20
12.8587
 10
5.7294
 20
12.8587
 10
5.5384
 20
12.8587
 10
5.3474
 20
12.8587
 10
5.1564
 20
12.8587
 10
4.9655
 20
12.8587
 10
4.7745
 20
12.8587
 10
4.5835
 20
12.8587
 10
4.3925
 20
12.8587
 10
4.2015
 20
12.8587
 10
4.0106
 20
12.8587
 10
3.8196
 20
12.8587
 10
3.6286
 20
12.8587
 10
3.4376
 20
12.8587
 10
3.2466
 20
12.8587
 10
3.0557
 20
12.8587
 10
2.8647
 20
12.8587
 10
2.6737
 20
12.8587
 10
2.4827
 20
12.8587
 10
2.2917
 20
12.8587
 10
2.1008
 20
12.8587
 10
1.9098
 20
12.8587
 10
1.869
 20
12.8587
 10
1.869
 20
12.7019
 10
1.869
 20
12.4335
 10
1.869
 20
12.1651
 10
1.869
 20
11.8968
 10
1.869
 20
11.6284
 10
1.869
 20
11.36
 10
1.869
 20
11.0916
 10
1.869
 20
10.8233
 10
1.869
 20
10.5549
 10
1.869
 20
10.2865
 10
1.869
 20
10.0181
 10
1.869
 20
9.7498
 10
1.869
 20
9.4851
 10
1.9607
 20
9.4851
 10
2.1212
 20
9.4851
 10
2.2816
 20
9.4851
 10
2.4421
 20
9.4851
 10
2.6025
 20
9.4851
 10
2.763
 20
9.4851
 10
2.9234
 20
9.4851
 10
3.0838
 20
9.4851
 10
3.2443
 20
9.4851
 10
3.4047
 20
9.4851
 10
3.5652
 20
9.4851
 10
3.7256
 20
9.4851
 10
3.886
 20
9.4851
 10
4.0465
 20
9.4851
 10
4.2069
 20
9.4851
 10
4.3674
 20
9.4851
 10
4.5278
 20
9.4851
 10
4.6882
 20
9.4851
 10
4.8487
 20
9.4851
 10
5.0091
 20
9.4851
 10
5.1696
 20
9.4851
 10
5.33
 20
9.4851
 10
5.4905
 20
9.4851
 10
5.6509
 20
9.4851
 10
5.8113
 20
9.4851
 10
5.9718
 20
9.4851
 10
5.9718
 20
9.3246
 10
5.9718
 20
9.1642
 10
5.9718
 20
9.0037
 10
5.9718
 20
8.8433
 10
5.9718
 20
8.6829
 10
5.9718
 20
8.5224
 10
5.9718
 20
8.362
 10
5.9718
 20
8.2015
 10
5.9718
 20
8.0411
 10
5.9718
 20
7.8807
 10
5.9363
 20
7.7557
 10
5.7759
 20
7.7557
 10
5.6154
 20
7.7557
 10
5.455
 20
7.7557
 10
5.2946
 20
7.7557
 10
5.1341
 20
7.7557
 10
4.9737
 20
7.7557
 10
4.8132
 20
7.7557
 10
4.6528
 20
7.7557
 10
4.4923
 20
7.7557
 10
4.3319
 20
7.7557
 10
4.1715
 20
7.7557
 10
4.011
 20
7.7557
 10
3.8506
 20
7.7557
 10
3.6901
 20
7.7557
 10
3.5297
 20
7.7557
 10
3.3693
 20
7.7557
 10
3.2088
 20
7.7557
 10
3.0484
 20
7.7557
 10
2.8879
 20
7.7557
 10
2.7275
 20
7.7557
 10
2.5671
 20
7.7557
 10
2.4066
 20
7.7557
 10
2.2462
 20
7.7557
 10
2.0857
 20
7.7557
 10
1.9253
 20
7.7557
 10
1.869
 20
7.7557
 10
1.869
 20
7.6028
 10
1.869
 20
7.3344
 10
1.869
 20
7.066
 10
1.869
 20
6.7977
 10
1.869
 20
6.5293
 10
1.869
 20
6.2609
 10
1.869
 20
5.9926
 10
1.869
 20
5.7242
 10
1.869
 20
5.4558
 10
1.869
 20
5.1874
 10
1.869
 20
4.9191
 10
1.869
 20
4.6507
 10
1.869
 20
4.3823
 10
1.869
 20
4.1139
 10
1.869
 20
3.8456
 10
1.869
 20
3.5772
 10
1.6102
 20
3.5676
 10
1.3419
 20
3.5676
 10
1.0735
 20
3.5676
 10
0.8051
 20
3.5676
 10
0.5367
 20
3.5676
 10
0.2684
 20
3.5676
 10
0.0
 20
3.5676
 10
0.0
 20
3.836
 10
0.0
 20
4.1044
 10
0.0
 20
4.3727
 10
0.0
 20
4.6411
 10
0.0
 20
4.9095
 10
0.0
 20
5.1778
 10
0.0
 20
5.4462
 10
0.0
 20
5.7146
 10
0.0
 20
5.983
 10
0.0
 20
6.2513
 10
0.0
 20
6.5197
 10
0.0
 20
6.7881
 10
0.0
 20
7.0565
 10
0.0
 20
7.3248
 10
0.0
 20
7.5932
 10
0.0
 20
7.7557
 10
0.0
 20
7.8616
 10
0.0
 20
7.9161
 10
0.0
 20
8.0766
 10
0.0
 20
8.1299
 10
0.0
 20
8.237
 10
0.0
 20
8.3974
 10
0.0
 20
8.3983
 10
0.0
 20
8.5579
 10
0.0
 20
8.6667
 10
0.0
 20
8.7183
 10
0.0
 20
8.8788
 10
0.0
 20
8.9351
 10
0.0
 20
9.0392
 10
0.0
 20
9.1996
 10
0.0
 20
9.2034
 10
0.0
 20
9.3601
 10
0.0
 20
9.4718
 10
0.0
 20
9.7402
 10
0.0
 20
10.0085
 10
0.0
 20
10.2769
 10
0.0
 20
10.5453
 10
0.0
 20
10.8137
 10
0.0
 20
11.082
 10
0.0
 20
11.3504
 10
0.0
 20
11.6188
 10
0.0
 20
11.8872
 10
0.0
 20
12.1555
 10
0.0
 20
12.4239
 10
0.0
 20
12.6923
 10
0.0
 20
12.8587
 10
0.0
 20
12.9606
 10
0.0
 20
13.0497
 10
0.0
 20
13.229
 10
0.0
 20
13.2407
 10
0.0
 20
13.4317
 10
0.0
 20
13.4974
 10
0.0
 20
13.6227
 10
0.0
 20
13.7658
 10
0.0
 20
13.8136
 10
0.0
 20
14.0046
 10
0.0
 20
14.0341
 10
0.0
 20
14.1956
 10
0.0
 20
14.3025
 10
0.0
 20
14.3866
 10
0.0
 20
14.5709
 10
0.0
 20
14.5775
  0
LWPOLYLINE
  5
52
330
17
100
AcDbEntity
  8
OUTLINE
100
AcDbPolyline
 90
192
 70
1
 10
31.8107
 20
12.9775
 10
31.7658
 20
12.9756
 10
31.7202
 20
12.975
 10
31.6747
 20
12.9756
 10
31.6298
 20
12.9775
 10
31.5856
 20
12.9806
 10
31.5421
 20
12.9849
 10
31.4992
 20
12.9905
 10
31.4571
 20
12.9973
 10
31.4156
 20
13.0054
 10
31.3747
 20
13.0147
 10
31.3346
 20
13.0252
 10
31.2951
 20
13.037
 10
31.2563
 20
13.05
 10
31.2181
 20
13.0642
 10
31.1806
 20
13.0797
 10
31.1438
 20
13.0964
 10
31.1077
 20
13.1144
 10
31.0723
 20
13.1336
 10
31.0375
 20
13.154
 10
31.0034
 20
13.1757
 10
30.9699
 20
13.1986
 10
30.9372
 20
13.2228
 10
30.9051
 20
13.2482
 10
30.8736
 20
13.2748
 10
30.8429
 20
13.3027
 10
30.8128
 20
13.3318
 10
30.7837
 20
13.3618
 10
30.7558
 20
13.3926
 10
30.7292
 20
13.424
 10
30.7038
 20
13.4561
 10
30.6796
 20
13.4888
 10
30.6567
 20
13.5222
 10
30.635
 20
13.5564
 10
30.6146
 20
13.5911
 10
30.5954
 20
13.6266
 10
30.5774
 20
13.6627
 10
30.5607
 20
13.6995
 10
30.5452
 20
13.737
 10
30.531
 20
13.7751
 10
30.518
 20
13.8139
 10
30.5062
 20
13.8534
 10
30.4957
 20
13.8936
 10
30.4864
 20
13.9344
 10
30.4783
 20
13.9759
 10
30.4715
 20
14.0181
 10
30.4659
 20
14.061
 10
30.4616
 20
14.1045
 10
30.4585
 20
14.1487
 10
30.4566
 20
14.1936
 10
30.456
 20
14.2391
 10
30.4566
 20
14.2847
 10
30.4585
 20
14.3296
 10
30.4616
 20
14.3738
 10
30.4659
 20
14.4173
 10
30.4715
 20
14.4602
 10
30.4783
 20
14.5024
 10
30.4863
 20
14.5439
 10
30.4956
 20
14.5847
 10
30.5061
 20
14.6249
 10
30.5179
 20
14.6644
 10
30.5309
 20
14.7032
 10
30.5451
 20
14.7413
 10
30.5606
 20
14.7788
 10
30.5773
 20
14.8156
 10
30.5953
 20
14.8517
 10
30.6145
 20
14.8872
 10
30.6349
 20
14.922
 10
30.6566
 20
14.9561
 10
30.6795
 20
14.9895
 10
30.7037
 20
15.0223
 10
30.729
 20
15.0544
 10
30.7557
 20
15.0858
 10
30.7835
 20
15.1165
 10
30.8126
 20
15.1466
 10
30.8427
 20
15.1757
 10
30.8735
 20
15.2035
 10
30.9049
 20
15.2302
 10
30.937
 20
15.2556
 10
30.9697
 20
15.2797
 10
31.0032
 20
15.3026
 10
31.0373
 20
15.3243
 10
31.0721
 20
15.3447
 10
31.1075
 20
15.3639
 10
31.1437
 20
15.3819
 10
31.1805
 20
15.3986
 10
31.2179
 20
15.4141
 10
31.2561
 20
15.4283
 10
31.2949
 20
15.4414
 10
31.3344
 20
15.4531
 10
31.3745
 20
15.4637
 10
31.4154
 20
15.4729
 10
31.4569
 20
15.481
 10
31.4991
 20
15.4878
 10
31.5419
 20
15.4934
 10
31.5854
 20
15.4977
 10
31.6296
 20
15.5008
 10
31.6745
 20
15.5027
 10
31.7201
 20
15.5033
 10
31.7656
 20
15.5027
 10
31.8105
 20
15.5008
 10
31.8547
 20
15.4978
 10
31.8982
 20
15.4934
 10
31.9411
 20
15.4879
 10
31.9833
 20
15.481
 10
32.0248
 20
15.473
 10
32.0656
 20
15.4637
 10
32.1058
 20
15.4532
 10
32.1453
 20
15.4414
 10
32.1841
 20
15.4284
 10
32.2223
 20
15.4142
 10
32.2597
 20
15.3987
 10
32.2965
 20
15.382
 10
32.3327
 20
15.364
 10
32.3681
 20
15.3448
 10
32.4029
 20
15.3244
 10
32.437
 20
15.3027
 10
32.4704
 20
15.2798
 10
32.5032
 20
15.2557
 10
32.5353
 20
15.2303
 10
32.5667
 20
15.2037
 10
32.5974
 20
15.1758
 10
32.6275
 20
15.1467
 10
32.6566
 20
15.1166
 10
32.6845
 20
15.0859
 10
32.7111
 20
15.0545
 10
32.7365
 20
15.0224
 10
32.7607
 20
14.9896
 10
32.7836
 20
14.9562
 10
32.8053
 20
14.9221
 10
32.8257
 20
14.8873
 10
32.8449
 20
14.8519
 10
32.8629
 20
14.8157
 10
32.8796
 20
14.779
 10
32.8951
 20
14.7415
 10
32.9093
 20
14.7033
 10
32.9223
 20
14.6645
 10
32.9341
 20
14.625
 10
32.9446
 20
14.5849
 10
32.9539
 20
14.544
 10
32.962
 20
14.5025
 10
32.9688
 20
14.4603
 10
32.9744
 20
14.4175
 10
32.9787
 20
14.3739
 10
32.9818
 20
14.3297
 10
32.9837
 20
14.2849
 10
32.9843
 20
14.2393
 10
32.9837
 20
14.1937
 10
32.9818
 20
14.1489
 10
32.9787
 20
14.1047
 10
32.9744
 20
14.0611
 10
32.9688
 20
14.0183
 10
32.962
 20
13.9761
 10
32.9539
 20
13.9346
 10
32.9447
 20
13.8937
 10
32.9341
 20
13.8536
 10
32.9224
 20
13.8141
 10
32.9094
 20
13.7753
 10
32.8951
 20
13.7371
 10
32.8796
 20
13.6996
 10
32.8629
 20
13.6628
 10
32.8449
 20
13.6267
 10
32.8257
 20
13.5913
 10
32.8053
 20
13.5565
 10
32.7836
 20
13.5224
 10
32.7607
 20
13.4889
 10
32.7366
 20
13.4562
 10
32.7112
 20
13.4241
 10
32.6845
 20
13.3927
 10
32.6567
 20
13.362
 10
32.6276
 20
13.3319
 10
32.5975
 20
13.3028
 10
32.5668
 20
13.2749
 10
32.5354
 20
13.2483
 10
32.5033
 20
13.2229
 10
32.4705
 20
13.1987
 10
32.4371
 20
13.1758
 10
32.403
 20
13.1541
 10
32.3682
 20
13.1336
 10
32.3328
 20
13.1144
 10
32.2966
 20
13.0965
 10
32.2598
 20
13.0797
 10
32.2224
 20
13.0642
 10
32.1842
 20
13.05
 10
32.1454
 20
13.037
 10
32.1059
 20
13.0252
 10
32.0658
 20
13.0147
 10
32.0249
 20
13.0054
 10
31.9834
 20
12.9973
 10
31.9412
 20
12.9905
 10
31.8984
 20
12.9849
 10
31.8549
 20
12.9806
  0
LWPOLYLINE
  5
53
330
17
100
AcDbEntity
  8
OUTLINE
100
AcDbPolyline
 90
329
 70
1
 10
66.9469
 20
10.2995
 10
66.9496
 20
10.2995
 10
67.0296
 20
10.2995
 10
67.0838
 20
10.3355
 10
67.1009
 20
10.4239
 10
67.1204
 20
10.5099
 10
67.1425
 20
10.5935
 10
67.167
 20
10.6745
 10
67.1941
 20
10.7532
 10
67.2236
 20
10.8294
 10
67.2557
 20
10.9031
 10
67.2902
 20
10.9744
 10
67.3273
 20
11.0433
 10
67.3668
 20
11.1097
 10
67.4089
 20
11.1737
 10
67.4534
 20
11.2352
 10
67.5005
 20
11.2942
 10
67.55
 20
11.3508
 10
67.602
 20
11.405
 10
67.6566
 20
11.4567
 10
67.7136
 20
11.506
 10
67.77
 20
11.5504
 10
67.8265
 20
11.5909
 10
67.8852
 20
11.6292
 10
67.9462
 20
11.6653
 10
68.0093
 20
11.6992
 10
68.0746
 20
11.7309
 10
68.1422
 20
11.7604
 10
68.2119
 20
11.7877
 10
68.2839
 20
11.8128
 10
68.358
 20
11.8357
 10
68.4344
 20
11.8564
 10
68.513
 20
11.8749
 10
68.5937
 20
11.8912
 10
68.6767
 20
11.9053
 10
68.7619
 20
11.9172
 10
68.8492
 20
11.9268
 10
68.9388
 20
11.9343
 10
69.0306
 20
11.9396
 10
69.1246
 20
11.9427
 10
69.2202
 20
11.9435
 10
69.3107
 20
11.9424
 10
69.3999
 20
11.9394
 10
69.4879
 20
11.9346
 10
69.5747
 20
11.9278
 10
69.6603
 20
11.9193
 10
69.7446
 20
11.9088
 10
69.8278
 20
11.8965
 10
69.9096
 20
11.8824
 10
69.9903
 20
11.8663
 10
70.0697
 20
11.8484
 10
70.1479
 20
11.8287
 10
70.2248
 20
11.8071
 10
70.3006
 20
11.7836
 10
70.3751
 20
11.7583
 10
70.4483
 20
11.7311
 10
70.5204
 20
11.702
 10
70.5912
 20
11.6711
 10
70.6607
 20
11.6383
 10
70.7291
 20
11.6036
 10
70.7962
 20
11.5671
 10
70.8621
 20
11.5287
 10
70.9267
 20
11.4885
 10
70.9902
 20
11.4464
 10
71.0523
 20
11.4024
 10
71.1133
 20
11.3566
 10
71.173
 20
11.3089
 10
71.2315
 20
11.2594
 10
71.2888
 20
11.208
 10
71.3449
 20
11.1547
 10
71.3997
 20
11.0996
 10
71.4532
 20
11.0426
 10
71.5056
 20
10.9837
 10
71.5567
 20
10.923
 10
71.6066
 20
10.8604
 10
71.6501
 20
10.8029
 10
71.6891
 20
10.7488
 10
71.7272
 20
10.6937
 10
71.7644
 20
10.6374
 10
71.8005
 20
10.5801
 10
71.8357
 20
10.5216
 10
71.87
 20
10.462
 10
71.9033
 20
10.4013
 10
71.9357
 20
10.3395
 10
71.967
 20
10.2766
 10
71.9975
 20
10.2126
 10
72.027
 20
10.1474
 10
72.0555
 20
10.0812
 10
72.0831
 20
10.0139
 10
72.1097
 20
9.9454
 10
72.1354
 20
9.8759
 10
72.1601
 20
9.8052
 10
72.1839
 20
9.7334
 10
72.2067
 20
9.6605
 10
72.2285
 20
9.5865
 10
72.2494
 20
9.5114
 10
72.2694
 20
9.4352
 10
72.2883
 20
9.3579
 10
72.3064
 20
9.2795
 10
72.3235
 20
9.1999
 10
72.3396
 20
9.1193
 10
72.3547
 20
9.0375
 10
72.369
 20
8.9547
 10
72.3822
 20
8.8707
 10
72.3945
 20
8.7856
 10
72.4059
 20
8.6994
 10
72.4163
 20
8.6121
 10
72.4257
 20
8.5237
 10
72.4342
 20
8.4342
 10
72.4417
 20
8.3436
 10
72.4483
 20
8.2519
 10
72.454
 20
8.159
 10
72.4586
 20
8.0651
 10
72.4623
 20
7.97
 10
72.4651
 20
7.8738
 10
72.4669
 20
7.7766
 10
72.4678
 20
7.6782
 10
72.4677
 20
7.5791
 10
72.4666
 20
7.4809
 10
72.4645
 20
7.3839
 10
72.4614
 20
7.288
 10
72.4574
 20
7.1933
 10
72.4524
 20
7.0996
 10
72.4463
 20
7.0072
 10
72.4394
 20
6.9158
 10
72.4314
 20
6.8256
 10
72.4224
 20
6.7365
 10
72.4125
 20
6.6485
 10
72.4015
 20
6.5617
 10
72.3896
 20
6.476
 10
72.3767
 20
6.3915
 10
72.3628
 20
6.3081
 10
72.3479
 20
6.2258
 10
72.3321
 20
6.1446
 10
72.3152
 20
6.0646
 10
72.2974
 20
5.9858
 10
72.2786
 20
5.908
 10
72.2588
 20
5.8314
 10
72.238
 20
5.7559
 10
72.2163
 20
5.6816
 10
72.1935
 20
5.6084
 10
72.1698
 20
5.5363
 10
72.1451
 20
5.4654
 10
72.1194
 20
5.3956
 10
72.0927
 20
5.3269
 10
72.065
 20
5.2593
 10
72.0363
 20
5.1929
 10
72.0067
 20
5.1277
 10
71.9761
 20
5.0635
 10
71.9445
 20
5.0005
 10
71.9119
 20
4.9387
 10
71.8783
 20
4.8779
 10
71.8437
 20
4.8183
 10
71.8082
 20
4.7599
 10
71.7717
 20
4.7025
 10
71.7341
 20
4.6463
 10
71.6956
 20
4.5913
 10
71.6561
 20
4.5374
 10
71.6135
 20
4.4817
 10
71.5634
 20
4.4198
 10
71.5121
 20
4.3597
 10
71.4595
 20
4.3014
 10
71.4058
 20
4.245
 10
71.3508
 20
4.1904
 10
71.2945
 20
4.1377
 10
71.237
 20
4.0868
 10
71.1783
 20
4.0378
 10
71.1184
 20
3.9906
 10
71.0572
 20
3.9453
 10
70.9947
 20
3.9018
 10
70.9311
 20
3.8602
 10
70.8662
 20
3.8204
 10
70.8001
 20
3.7825
 10
70.7327
 20
3.7464
 10
70.6641
 20
3.7122
 10
70.5943
 20
3.6798
 10
70.5232
 20
3.6493
 10
70.4509
 20
3.6206
 10
70.3774
 20
3.5938
 10
70.3026
 20
3.5688
 10
70.2266
 20
3.5457
 10
70.1493
 20
3.5244
 10
70.0708
 20
3.505
 10
69.9911
 20
3.4874
 10
69.9102
 20
3.4717
 10
69.828
 20
3.4578
 10
69.7446
 20
3.4458
 10
69.6599
 20
3.4356
 10
69.574
 20
3.4273
 10
69.4869
 20
3.4208
 10
69.3985
 20
3.4162
 10
69.3089
 20
3.4134
 10
69.2181
 20
3.4125
 10
69.1253
 20
3.4137
 10
69.0343
 20
3.4171
 10
68.9453
 20
3.4229
 10
68.8583
 20
3.431
 10
68.7732
 20
3.4415
 10
68.69
 20
3.4542
 10
68.6087
 20
3.4693
 10
68.5294
 20
3.4867
 10
68.452
 20
3.5064
 10
68.3765
 20
3.5284
 10
68.303
 20
3.5527
 10
68.2314
 20
3.5794
 10
68.1617
 20
3.6083
 10
68.0939
 20
3.6396
 10
68.0281
 20
3.6732
 10
67.9642
 20
3.7091
 10
67.9023
 20
3.7474
 10
67.8423
 20
3.7879
 10
67.7842
 20
3.8308
 10
67.7246
 20
3.879
 10
67.6676
 20
3.9297
 10
67.6135
 20
3.9828
 10
67.562
 20
4.0384
 10
67.5133
 20
4.0964
 10
67.4674
 20
4.1568
 10
67.4242
 20
4.2198
 10
67.3837
 20
4.2851
 10
67.346
 20
4.3529
 10
67.311
 20
4.4232
 10
67.2787
 20
4.4959
 10
67.2492
 20
4.571
 10
67.2225
 20
4.6486
 10
67.1984
 20
4.7287
 10
67.1772
 20
4.8112
 10
67.1586
 20
4.8961
 10
67.1429
 20
4.9835
 10
67.1172
 20
5.0566
 10
67.0371
 20
5.0566
 10
66.9691
 20
5.0566
 10
66.9691
 20
4.8993
 10
66.9691
 20
4.6722
 10
66.9691
 20
4.445
 10
66.9691
 20
4.2178
 10
66.9691
 20
3.9907
 10
66.9691
 20
3.7635
 10
66.9691
 20
3.5363
 10
66.9691
 20
3.3092
 10
66.9691
 20
3.082
 10
66.9691
 20
2.8548
 10
66.9691
 20
2.6277
 10
66.9691
 20
2.4005
 10
66.9691
 20
2.1733
 10
66.9691
 20
1.9462
 10
66.9691
 20
1.719
 10
66.9691
 20
1.4918
 10
66.9691
 20
1.2647
 10
66.9691
 20
1.0375
 10
66.9691
 20
0.8103
 10
66.9691
 20
0.5832
 10
66.9691
 20
0.356
 10
66.9691
 20
0.1288
 10
66.8707
 20
0.0
 10
66.6435
 20
0.0
 10
66.4164
 20
0.0
 10
66.1892
 20
0.0
 10
65.962
 20
0.0
 10
65.7349
 20
0.0
 10
65.5077
 20
0.0
 10
65.2805
 20
0.0
 10
65.0534
 20
0.0
 10
65.0534
 20
0.2272
 10
65.0534
 20
0.4543
 10
65.0534
 20
0.6815
 10
65.0534
 20
0.9087
 10
65.0534
 20
1.1358
 10
65.0534
 20
1.363
 10
65.0534
 20
1.5902
 10
65.0534
 20
1.8173
 10
65.0534
 20
2.0445
 10
65.0534
 20
2.2717
 10
65.0534
 20
2.4988
 10
65.0534
 20
2.726
 10
65.0534
 20
2.9532
 10
65.0534
 20
3.1803
 10
65.0534
 20
3.4075
 10
65.0534
 20
3.6347
 10
65.0534
 20
3.8618
 10
65.0534
 20
4.089
 10
65.0534
 20
4.3162
 10
65.0534
 20
4.5433
 10
65.0534
 20
4.7705
 10
65.0534
 20
4.9977
 10
65.0534
 20
5.2248
 10
65.0534
 20
5.452
 10
65.0534
 20
5.6792
 10
65.0534
 20
5.9063
 10
65.0534
 20
6.1335
 10
65.0534
 20
6.3607
 10
65.0534
 20
6.5878
 10
65.0534
 20
6.815
 10
65.0534
 20
7.0422
 10
65.0534
 20
7.2693
 10
65.0534
 20
7.4965
 10
65.0534
 20
7.7237
 10
65.0534
 20
7.9508
 10
65.0534
 20
8.178
 10
65.0534
 20
8.4052
 10
65.0534
 20
8.6323
 10
65.0534
 20
8.8595
 10
65.0534
 20
9.0867
 10
65.0534
 20
9.3138
 10
65.0534
 20
9.541
 10
65.0534
 20
9.7682
 10
65.0534
 20
9.9953
 10
65.0534
 20
10.2225
 10
65.0534
 20
10.4497
 10
65.0534
 20
10.6768
 10
65.0534
 20
10.904
 10
65.0534
 20
11.1312
 10
65.0534
 20
11.3583
 10
65.0534
 20
11.5855
 10
65.0776
 20
11.7884
 10
65.3048
 20
11.7884
 10
65.532
 20
11.7884
 10
65.7591
 20
11.7884
 10
65.9863
 20
11.7884
 10
66.2135
 20
11.7884
 10
66.4406
 20
11.7884
 10
66.6678
 20
11.7884
 10
66.8211
 20
11.7077
 10
66.8413
 20
11.4815
 10
66.8616
 20
11.2552
 10
66.8818
 20
11.0289
 10
66.902
 20
10.8027
 10
66.9222
 20
10.5764
 10
66.9424
 20
10.3501
  0
LWPOLYLINE
  5
54
330
17
100
AcDbEntity
  8
OUTLINE
100
AcDbPolyline
 90
177
 70
1
 10
66.9691
 20
7.8597
 10
66.9691
 20
7.8525
 10
66.9691
 20
7.6253
 10
66.9691
 20
7.5492
 10
66.9691
 20
7.5492
 10
66.97
 20
7.4468
 10
66.9724
 20
7.3466
 10
66.9763
 20
7.2487
 10
66.9817
 20
7.1531
 10
66.9886
 20
7.0598
 10
66.997
 20
6.9688
 10
67.0068
 20
6.8801
 10
67.0182
 20
6.7936
 10
67.031
 20
6.7094
 10
67.0454
 20
6.6276
 10
67.0612
 20
6.548
 10
67.0785
 20
6.4706
 10
67.0973
 20
6.3956
 10
67.1176
 20
6.3229
 10
67.1394
 20
6.2524
 10
67.1627
 20
6.1842
 10
67.1875
 20
6.1183
 10
67.2138
 20
6.0547
 10
67.2415
 20
5.9934
 10
67.2707
 20
5.9343
 10
67.3015
 20
5.8776
 10
67.3337
 20
5.8231
 10
67.3674
 20
5.7709
 10
67.4072
 20
5.7149
 10
67.4537
 20
5.6562
 10
67.503
 20
5.6009
 10
67.5551
 20
5.5488
 10
67.61
 20
5.4999
 10
67.6677
 20
5.4544
 10
67.7283
 20
5.412
 10
67.7916
 20
5.373
 10
67.8577
 20
5.3371
 10
67.9266
 20
5.3046
 10
67.9984
 20
5.2753
 10
68.0729
 20
5.2492
 10
68.1503
 20
5.2264
 10
68.2305
 20
5.2069
 10
68.3134
 20
5.1906
 10
68.3992
 20
5.1775
 10
68.4878
 20
5.1678
 10
68.5792
 20
5.1612
 10
68.6733
 20
5.158
 10
68.7673
 20
5.158
 10
68.8571
 20
5.1613
 10
68.9446
 20
5.168
 10
69.0298
 20
5.1781
 10
69.1127
 20
5.1915
 10
69.1933
 20
5.2082
 10
69.2715
 20
5.2283
 10
69.3474
 20
5.2518
 10
69.4211
 20
5.2786
 10
69.4924
 20
5.3087
 10
69.5613
 20
5.3423
 10
69.628
 20
5.3791
 10
69.6923
 20
5.4193
 10
69.7544
 20
5.4629
 10
69.8141
 20
5.5098
 10
69.8715
 20
5.5601
 10
69.9265
 20
5.6137
 10
69.9793
 20
5.6707
 10
70.0297
 20
5.731
 10
70.0765
 20
5.7929
 10
70.1133
 20
5.846
 10
70.1485
 20
5.9012
 10
70.1822
 20
5.9585
 10
70.2143
 20
6.0177
 10
70.2448
 20
6.079
 10
70.2738
 20
6.1424
 10
70.3012
 20
6.2077
 10
70.3271
 20
6.2751
 10
70.3514
 20
6.3446
 10
70.3741
 20
6.416
 10
70.3953
 20
6.4895
 10
70.4149
 20
6.5651
 10
70.433
 20
6.6426
 10
70.4495
 20
6.7223
 10
70.4644
 20
6.8039
 10
70.4778
 20
6.8876
 10
70.4896
 20
6.9733
 10
70.4999
 20
7.061
 10
70.5086
 20
7.1508
 10
70.5158
 20
7.2426
 10
70.5214
 20
7.3364
 10
70.5254
 20
7.4323
 10
70.5279
 20
7.5302
 10
70.5288
 20
7.6301
 10
70.5282
 20
7.7295
 10
70.5261
 20
7.8268
 10
70.5224
 20
7.9223
 10
70.5173
 20
8.0159
 10
70.5106
 20
8.1076
 10
70.5024
 20
8.1974
 10
70.4927
 20
8.2853
 10
70.4815
 20
8.3713
 10
70.4688
 20
8.4555
 10
70.4546
 20
8.5377
 10
70.4388
 20
8.6181
 10
70.4216
 20
8.6965
 10
70.4028
 20
8.7731
 10
70.3826
 20
8.8478
 10
70.3608
 20
8.9206
 10
70.3375
 20
8.9915
 10
70.3127
 20
9.0605
 10
70.2863
 20
9.1277
 10
70.2585
 20
9.1929
 10
70.2292
 20
9.2563
 10
70.1983
 20
9.3177
 10
70.1659
 20
9.3773
 10
70.132
 20
9.435
 10
70.0967
 20
9.4908
 10
70.0587
 20
9.5461
 10
70.0096
 20
9.6117
 10
69.9584
 20
9.6739
 10
69.9049
 20
9.7325
 10
69.8494
 20
9.7877
 10
69.7916
 20
9.8395
 10
69.7317
 20
9.8877
 10
69.6696
 20
9.9325
 10
69.6053
 20
9.9737
 10
69.5389
 20
10.0116
 10
69.4703
 20
10.0459
 10
69.3995
 20
10.0767
 10
69.3266
 20
10.1041
 10
69.2515
 20
10.128
 10
69.1742
 20
10.1484
 10
69.0947
 20
10.1654
 10
69.0131
 20
10.1789
 10
68.9294
 20
10.1889
 10
68.8434
 20
10.1954
 10
68.7553
 20
10.1984
 10
68.6641
 20
10.198
 10
68.5739
 20
10.1942
 10
68.4862
 20
10.1869
 10
68.4008
 20
10.1763
 10
68.318
 20
10.1623
 10
68.2376
 20
10.1449
 10
68.1596
 20
10.1241
 10
68.084
 20
10.0999
 10
68.0109
 20
10.0723
 10
67.9403
 20
10.0413
 10
67.872
 20
10.0069
 10
67.8063
 20
9.9691
 10
67.7429
 20
9.9279
 10
67.682
 20
9.8833
 10
67.6236
 20
9.8353
 10
67.5675
 20
9.7839
 10
67.514
 20
9.7291
 10
67.4628
 20
9.6709
 10
67.4141
 20
9.6094
 10
67.3769
 20
9.5576
 10
67.342
 20
9.5044
 10
67.3086
 20
9.449
 10
67.2768
 20
9.3914
 10
67.2465
 20
9.3315
 10
67.2178
 20
9.2694
 10
67.1907
 20
9.2051
 10
67.1651
 20
9.1385
 10
67.1411
 20
9.0696
 10
67.1187
 20
8.9986
 10
67.0978
 20
8.9253
 10
67.0785
 20
8.8497
 10
67.0608
 20
8.7719
 10
67.0446
 20
8.6919
 10
67.03
 20
8.6096
 10
67.017
 20
8.5251
 10
67.0055
 20
8.4383
 10
66.9956
 20
8.3493
 10
66.9873
 20
8.2581
 10
66.9805
 20
8.1646
 10
66.9753
 20
8.0689
 10
66.9717
 20
7.971
 10
66.9696
 20
7.8708
  0
LWPOLYLINE
  5
55
330
17
100
AcDbEntity
  8
OUTLINE
100
AcDbPolyline
 90
562
 70
1
 10
79.267
 20
5.1954
 10
79.2618
 20
5.2806
 10
79.2604
 20
5.3048
 10
79.2092
 20
5.3048
 10
79.1525
 20
5.3048
 10
79.0959
 20
5.3048
 10
79.0834
 20
5.3048
 10
79.0782
 20
5.2565
 10
79.0703
 20
5.1971
 10
79.0613
 20
5.1386
 10
79.051
 20
5.081
 10
79.0395
 20
5.0245
 10
79.0267
 20
4.9689
 10
79.0128
 20
4.9143
 10
78.9976
 20
4.8606
 10
78.9812
 20
4.8079
 10
78.9636
 20
4.7562
 10
78.9448
 20
4.7054
 10
78.9247
 20
4.6557
 10
78.9034
 20
4.6068
 10
78.8809
 20
4.559
 10
78.8572
 20
4.5121
 10
78.8322
 20
4.4662
 10
78.8061
 20
4.4213
 10
78.7787
 20
4.3773
 10
78.7484
 20
4.3319
 10
78.7161
 20
4.2862
 10
78.6825
 20
4.2418
 10
78.6477
 20
4.1985
 10
78.6117
 20
4.1564
 10
78.5745
 20
4.1155
 10
78.5361
 20
4.0757
 10
78.4964
 20
4.037
 10
78.4555
 20
3.9996
 10
78.4134
 20
3.9633
 10
78.3701
 20
3.9282
 10
78.3255
 20
3.8942
 10
78.2797
 20
3.8614
 10
78.2327
 20
3.8298
 10
78.1845
 20
3.7993
 10
78.135
 20
3.77
 10
78.0844
 20
3.7419
 10
78.0325
 20
3.7149
 10
77.9794
 20
3.6891
 10
77.925
 20
3.6644
 10
77.8727
 20
3.6423
 10
77.8256
 20
3.6235
 10
77.7777
 20
3.6056
 10
77.7291
 20
3.5884
 10
77.6798
 20
3.5721
 10
77.6297
 20
3.5565
 10
77.5789
 20
3.5417
 10
77.5274
 20
3.5278
 10
77.4751
 20
3.5146
 10
77.4221
 20
3.5023
 10
77.3684
 20
3.4907
 10
77.3139
 20
3.4799
 10
77.2587
 20
3.4699
 10
77.2028
 20
3.4608
 10
77.1462
 20
3.4524
 10
77.0888
 20
3.4448
 10
77.0307
 20
3.438
 10
76.9718
 20
3.432
 10
76.9123
 20
3.4269
 10
76.8519
 20
3.4225
 10
76.7909
 20
3.4189
 10
76.7291
 20
3.4161
 10
76.6666
 20
3.4141
 10
76.6034
 20
3.4129
 10
76.5394
 20
3.4125
 10
76.4717
 20
3.4129
 10
76.4048
 20
3.4142
 10
76.3386
 20
3.4164
 10
76.2733
 20
3.4195
 10
76.2088
 20
3.4234
 10
76.145
 20
3.4281
 10
76.0821
 20
3.4338
 10
76.02
 20
3.4403
 10
75.9586
 20
3.4477
 10
75.8981
 20
3.456
 10
75.8384
 20
3.4651
 10
75.7795
 20
3.4751
 10
75.7213
 20
3.486
 10
75.664
 20
3.4977
 10
75.6075
 20
3.5103
 10
75.5518
 20
3.5238
 10
75.4968
 20
3.5381
 10
75.4427
 20
3.5534
 10
75.3894
 20
3.5694
 10
75.3368
 20
3.5864
 10
75.2851
 20
3.6042
 10
75.2342
 20
3.6229
 10
75.1841
 20
3.6425
 10
75.1348
 20
3.6629
 10
75.0862
 20
3.6842
 10
75.0385
 20
3.7064
 10
74.9916
 20
3.7294
 10
74.9455
 20
3.7534
 10
74.9001
 20
3.7781
 10
74.8556
 20
3.8038
 10
74.8119
 20
3.8303
 10
74.769
 20
3.8577
 10
74.7269
 20
3.886
 10
74.6855
 20
3.9151
 10
74.645
 20
3.9451
 10
74.6053
 20
3.976
 10
74.5664
 20
4.0077
 10
74.5283
 20
4.0403
 10
74.4887
 20
4.0759
 10
74.4495
 20
4.113
 10
74.4115
 20
4.1509
 10
74.3746
 20
4.1897
 10
74.3388
 20
4.2293
 10
74.3042
 20
4.2698
 10
74.2708
 20
4.3111
 10
74.2385
 20
4.3533
 10
74.2074
 20
4.3963
 10
74.1774
 20
4.4401
 10
74.1485
 20
4.4848
 10
74.1209
 20
4.5304
 10
74.0943
 20
4.5768
 10
74.069
 20
4.624
 10
74.0447
 20
4.6721
 10
74.0216
 20
4.7211
 10
73.9997
 20
4.7708
 10
73.9789
 20
4.8215
 10
73.9593
 20
4.8729
 10
73.9408
 20
4.9253
 10
73.9235
 20
4.9784
 10
73.9073
 20
5.0324
 10
73.8923
 20
5.0873
 10
73.8785
 20
5.143
 10
73.8657
 20
5.1996
 10
73.8542
 20
5.257
 10
73.8438
 20
5.3152
 10
73.8345
 20
5.3743
 10
73.8264
 20
5.4342
 10
73.8194
 20
5.495
 10
73.8136
 20
5.5566
 10
73.8089
 20
5.6191
 10
73.8054
 20
5.6824
 10
73.8031
 20
5.7466
 10
73.8019
 20
5.8116
 10
73.8018
 20
5.8766
 10
73.8029
 20
5.9403
 10
73.805
 20
6.0033
 10
73.8082
 20
6.0656
 10
73.8125
 20
6.1271
 10
73.818
 20
6.188
 10
73.8245
 20
6.2481
 10
73.8321
 20
6.3075
 10
73.8408
 20
6.3662
 10
73.8506
 20
6.4242
 10
73.8615
 20
6.4815
 10
73.8734
 20
6.538
 10
73.8865
 20
6.5938
 10
73.9007
 20
6.649
 10
73.916
 20
6.7034
 10
73.9323
 20
6.757
 10
73.9498
 20
6.81
 10
73.9683
 20
6.8623
 10
73.988
 20
6.9138
 10
74.0087
 20
6.9647
 10
74.0305
 20
7.0148
 10
74.0535
 20
7.0642
 10
74.0775
 20
7.1129
 10
74.1026
 20
7.1608
 10
74.1288
 20
7.2081
 10
74.1561
 20
7.2546
 10
74.1845
 20
7.3004
 10
74.214
 20
7.3456
 10
74.2446
 20
7.39
 10
74.2762
 20
7.4336
 10
74.309
 20
7.4766
 10
74.3429
 20
7.5189
 10
74.3779
 20
7.5604
 10
74.4139
 20
7.6012
 10
74.4511
 20
7.6413
 10
74.4893
 20
7.6807
 10
74.5286
 20
7.7194
 10
74.5691
 20
7.7573
 10
74.6106
 20
7.7946
 10
74.6532
 20
7.8311
 10
74.6969
 20
7.8669
 10
74.7417
 20
7.902
 10
74.7835
 20
7.9334
 10
74.8221
 20
7.9613
 10
74.8614
 20
7.9887
 10
74.9013
 20
8.0155
 10
74.9419
 20
8.0417
 10
74.983
 20
8.0674
 10
75.0248
 20
8.0925
 10
75.0672
 20
8.1171
 10
75.1103
 20
8.1411
 10
75.1539
 20
8.1645
 10
75.1982
 20
8.1874
 10
75.2431
 20
8.2097
 10
75.2887
 20
8.2314
 10
75.3348
 20
8.2526
 10
75.3816
 20
8.2732
 10
75.429
 20
8.2933
 10
75.477
 20
8.3127
 10
75.5257
 20
8.3317
 10
75.575
 20
8.35
 10
75.6249
 20
8.3678
 10
75.6754
 20
8.385
 10
75.7266
 20
8.4017
 10
75.7784
 20
8.4178
 10
75.8308
 20
8.4333
 10
75.8838
 20
8.4483
 10
75.9375
 20
8.4627
 10
75.9917
 20
8.4766
 10
76.0466
 20
8.4898
 10
76.1022
 20
8.5026
 10
76.1583
 20
8.5147
 10
76.2151
 20
8.5263
 10
76.2725
 20
8.5373
 10
76.3305
 20
8.5478
 10
76.3892
 20
8.5577
 10
76.4485
 20
8.567
 10
76.5084
 20
8.5758
 10
76.5689
 20
8.584
 10
76.63
 20
8.5916
 10
76.6918
 20
8.5987
 10
76.7542
 20
8.6052
 10
76.8172
 20
8.6112
 10
76.8809
 20
8.6166
 10
76.9451
 20
8.6214
 10
77.01
 20
8.6257
 10
77.0756
 20
8.6294
 10
77.1417
 20
8.6325
 10
77.2085
 20
8.6351
 10
77.2759
 20
8.6371
 10
77.3439
 20
8.6385
 10
77.4125
 20
8.6394
 10
77.4818
 20
8.6397
 10
77.5461
 20
8.6395
 10
77.6094
 20
8.6391
 10
77.6719
 20
8.6383
 10
77.7338
 20
8.6371
 10
77.7949
 20
8.6357
 10
77.8553
 20
8.6339
 10
77.9149
 20
8.6318
 10
77.9739
 20
8.6293
 10
78.0321
 20
8.6265
 10
78.0896
 20
8.6234
 10
78.1463
 20
8.62
 10
78.2024
 20
8.6162
 10
78.2577
 20
8.6121
 10
78.3123
 20
8.6077
 10
78.3662
 20
8.6029
 10
78.4193
 20
8.5979
 10
78.4717
 20
8.5924
 10
78.5234
 20
8.5867
 10
78.5744
 20
8.5806
 10
78.6247
 20
8.5742
 10
78.6742
 20
8.5675
 10
78.7252
 20
8.5601
 10
78.7826
 20
8.5513
 10
78.8396
 20
8.5419
 10
78.8964
 20
8.532
 10
78.953
 20
8.5217
 10
79.0092
 20
8.5108
 10
79.0652
 20
8.4994
 10
79.1142
 20
8.4889
 10
79.1142
 20
8.5188
 10
79.1142
 20
8.6042
 10
79.1138
 20
8.6943
 10
79.1091
 20
8.7887
 10
79.0992
 20
8.8797
 10
79.0842
 20
8.9671
 10
79.0639
 20
9.051
 10
79.0385
 20
9.1314
 10
79.0079
 20
9.2082
 10
78.9721
 20
9.2816
 10
78.9311
 20
9.3514
 10
78.8849
 20
9.4178
 10
78.8335
 20
9.4806
 10
78.777
 20
9.5399
 10
78.7153
 20
9.5956
 10
78.6484
 20
9.6479
 10
78.5762
 20
9.6966
 10
78.5128
 20
9.7343
 10
78.4545
 20
9.7656
 10
78.3935
 20
9.7955
 10
78.3298
 20
9.8239
 10
78.2634
 20
9.8508
 10
78.1944
 20
9.8763
 10
78.1227
 20
9.9003
 10
78.0484
 20
9.9228
 10
77.9714
 20
9.9439
 10
77.8917
 20
9.9635
 10
77.8093
 20
9.9817
 10
77.7243
 20
9.9983
 10
77.6366
 20
10.0136
 10
77.5463
 20
10.0273
 10
77.4533
 20
10.0396
 10
77.3576
 20
10.0505
 10
77.2592
 20
10.0598
 10
77.1582
 20
10.0677
 10
77.0545
 20
10.0742
 10
76.9482
 20
10.0792
 10
76.8433
 20
10.0826
 10
76.7579
 20
10.0848
 10
76.6725
 20
10.0871
 10
76.5871
 20
10.0894
 10
76.5017
 20
10.0916
 10
76.4163
 20
10.0939
 10
76.3309
 20
10.0962
 10
76.2456
 20
10.0984
 10
76.1602
 20
10.1007
 10
76.0748
 20
10.103
 10
75.9894
 20
10.1052
 10
75.904
 20
10.1075
 10
75.8186
 20
10.1097
 10
75.7332
 20
10.112
 10
75.6479
 20
10.1143
 10
75.5625
 20
10.1165
 10
75.4771
 20
10.1188
 10
75.3917
 20
10.1211
 10
75.3063
 20
10.1233
 10
75.2209
 20
10.1256
 10
75.1355
 20
10.1279
 10
75.0502
 20
10.1301
 10
74.9648
 20
10.1324
 10
74.8794
 20
10.1347
 10
74.8115
 20
10.1525
 10
74.8191
 20
10.2376
 10
74.8267
 20
10.3226
 10
74.8343
 20
10.4077
 10
74.8419
 20
10.4928
 10
74.8496
 20
10.5779
 10
74.8572
 20
10.6629
 10
74.8648
 20
10.748
 10
74.8724
 20
10.8331
 10
74.88
 20
10.9182
 10
74.8877
 20
11.0032
 10
74.8953
 20
11.0883
 10
74.9029
 20
11.1734
 10
74.9105
 20
11.2585
 10
74.9181
 20
11.3435
 10
74.9258
 20
11.4286
 10
74.9334
 20
11.5137
 10
74.941
 20
11.5988
 10
74.9486
 20
11.6838
 10
74.9563
 20
11.7689
 10
74.9639
 20
11.854
 10
75.0382
 20
11.8651
 10
75.1236
 20
11.864
 10
75.209
 20
11.8628
 10
75.2944
 20
11.8617
 10
75.3799
 20
11.8605
 10
75.4653
 20
11.8594
 10
75.5507
 20
11.8582
 10
75.6361
 20
11.8571
 10
75.7215
 20
11.8559
 10
75.8069
 20
11.8548
 10
75.8923
 20
11.8536
 10
75.9777
 20
11.8525
 10
76.0631
 20
11.8513
 10
76.1485
 20
11.8502
 10
76.2339
 20
11.849
 10
76.3193
 20
11.8479
 10
76.4048
 20
11.8467
 10
76.4902
 20
11.8456
 10
76.5756
 20
11.8445
 10
76.661
 20
11.8433
 10
76.7583
 20
11.8418
 10
76.8658
 20
11.8392
 10
76.9718
 20
11.8355
 10
77.0765
 20
11.8308
 10
77.1797
 20
11.825
 10
77.2815
 20
11.8182
 10
77.3819
 20
11.8104
 10
77.4809
 20
11.8015
 10
77.5785
 20
11.7916
 10
77.6746
 20
11.7806
 10
77.7694
 20
11.7686
 10
77.8627
 20
11.7555
 10
77.9546
 20
11.7414
 10
78.0451
 20
11.7262
 10
78.1342
 20
11.71
 10
78.2218
 20
11.6928
 10
78.3081
 20
11.6745
 10
78.3929
 20
11.6552
 10
78.4763
 20
11.6348
 10
78.5583
 20
11.6134
 10
78.6389
 20
11.5909
 10
78.7181
 20
11.5674
 10
78.7958
 20
11.5429
 10
78.8722
 20
11.5173
 10
78.9471
 20
11.4906
 10
79.0206
 20
11.4629
 10
79.0927
 20
11.4342
 10
79.1634
 20
11.4044
 10
79.2327
 20
11.3736
 10
79.3005
 20
11.3418
 10
79.367
 20
11.3089
 10
79.432
 20
11.2749
 10
79.4956
 20
11.2399
 10
79.5578
 20
11.2039
 10
79.6186
 20
11.1668
 10
79.6779
 20
11.1287
 10
79.7359
 20
11.0895
 10
79.7924
 20
11.0493
 10
79.8475
 20
11.008
 10
79.9012
 20
10.9657
 10
79.9637
 20
10.9138
 10
80.0251
 20
10.8596
 10
80.0845
 20
10.804
 10
80.1419
 20
10.747
 10
80.1974
 20
10.6885
 10
80.2509
 20
10.6285
 10
80.3025
 20
10.567
 10
80.3521
 20
10.5041
 10
80.3997
 20
10.4397
 10
80.4453
 20
10.3739
 10
80.489
 20
10.3066
 10
80.5307
 20
10.2378
 10
80.5705
 20
10.1676
 10
80.6082
 20
10.0959
 10
80.644
 20
10.0227
 10
80.6779
 20
9.9481
 10
80.7098
 20
9.872
 10
80.7397
 20
9.7944
 10
80.7676
 20
9.7154
 10
80.7936
 20
9.6349
 10
80.8176
 20
9.553
 10
80.8397
 20
9.4696
 10
80.8597
 20
9.3847
 10
80.8778
 20
9.2983
 10
80.894
 20
9.2105
 10
80.9082
 20
9.1212
 10
80.9204
 20
9.0305
 10
80.9306
 20
8.9383
 10
80.9389
 20
8.8446
 10
80.9452
 20
8.7495
 10
80.9495
 20
8.6529
 10
80.9519
 20
8.5548
 10
80.9524
 20
8.4596
 10
80.9524
 20
8.3742
 10
80.9524
 20
8.2888
 10
80.9524
 20
8.2034
 10
80.9524
 20
8.1179
 10
80.9524
 20
8.0325
 10
80.9524
 20
7.9471
 10
80.9524
 20
7.8617
 10
80.9524
 20
7.7763
 10
80.9524
 20
7.6909
 10
80.9524
 20
7.6054
 10
80.9524
 20
7.52
 10
80.9524
 20
7.4346
 10
80.9524
 20
7.3492
 10
80.9524
 20
7.2638
 10
80.9524
 20
7.1784
 10
80.9524
 20
7.0929
 10
80.9524
 20
7.0075
 10
80.9524
 20
6.9221
 10
80.9524
 20
6.8367
 10
80.9524
 20
6.7513
 10
80.9524
 20
6.6659
 10
80.9524
 20
6.5804
 10
80.9524
 20
6.495
 10
80.9524
 20
6.4096
 10
80.9524
 20
6.3242
 10
80.9524
 20
6.2388
 10
80.9524
 20
6.1534
 10
80.9524
 20
6.0679
 10
80.9524
 20
5.9825
 10
80.9524
 20
5.8971
 10
80.9524
 20
5.8117
 10
80.9524
 20
5.7263
 10
80.9524
 20
5.6409
 10
80.9524
 20
5.5554
 10
80.9524
 20
5.47
 10
80.9524
 20
5.3846
 10
80.9524
 20
5.2992
 10
81.0273
 20
5.2791
 10
81.1119
 20
5.2674
 10
81.1965
 20
5.2558
 10
81.2811
 20
5.2441
 10
81.3657
 20
5.2325
 10
81.4504
 20
5.2209
 10
81.535
 20
5.2092
 10
81.6196
 20
5.1976
 10
81.7042
 20
5.186
 10
81.7888
 20
5.1743
 10
81.8735
 20
5.1627
 10
81.9581
 20
5.1511
 10
82.0427
 20
5.1394
 10
82.1273
 20
5.1278
 10
82.1931
 20
5.0997
 10
82.1931
 20
5.0143
 10
82.1931
 20
4.9289
 10
82.1931
 20
4.8435
 10
82.1931
 20
4.7581
 10
82.1931
 20
4.6727
 10
82.1931
 20
4.5872
 10
82.1931
 20
4.5018
 10
82.1931
 20
4.4164
 10
82.1931
 20
4.331
 10
82.1931
 20
4.2456
 10
82.1931
 20
4.1602
 10
82.1931
 20
4.0748
 10
82.1931
 20
3.9893
 10
82.1931
 20
3.9039
 10
82.1931
 20
3.8185
 10
82.1931
 20
3.7331
 10
82.1931
 20
3.6477
 10
82.1878
 20
3.5675
 10
82.1024
 20
3.5651
 10
82.017
 20
3.5628
 10
81.9316
 20
3.5604
 10
81.8462
 20
3.5581
 10
81.7609
 20
3.5557
 10
81.6755
 20
3.5534
 10
81.5901
 20
3.5511
 10
81.5047
 20
3.5487
 10
81.4193
 20
3.5464
 10
81.3339
 20
3.544
 10
81.2486
 20
3.5417
 10
81.1632
 20
3.5393
 10
81.0778
 20
3.537
 10
80.9924
 20
3.5347
 10
80.907
 20
3.5323
 10
80.8216
 20
3.53
 10
80.7362
 20
3.5276
 10
80.6509
 20
3.5253
 10
80.5655
 20
3.5229
 10
80.4801
 20
3.5206
 10
80.3947
 20
3.5183
 10
80.3093
 20
3.5159
 10
80.2239
 20
3.5136
 10
80.1386
 20
3.5112
 10
80.0532
 20
3.5089
 10
79.9678
 20
3.5065
 10
79.8824
 20
3.5042
 10
79.797
 20
3.5019
 10
79.7116
 20
3.4995
 10
79.6263
 20
3.4972
 10
79.5409
 20
3.4948
 10
79.4555
 20
3.4925
 10
79.3701
 20
3.4901
 10
79.3649
 20
3.5754
 10
79.3598
 20
3.6607
 10
79.3546
 20
3.7459
 10
79.3495
 20
3.8312
 10
79.3443
 20
3.9164
 10
79.3392
 20
4.0017
 10
79.334
 20
4.087
 10
79.3289
 20
4.1722
 10
79.3237
 20
4.2575
 10
79.3185
 20
4.3427
 10
79.3134
 20
4.428
 10
79.3082
 20
4.5133
 10
79.3031
 20
4.5985
 10
79.2979
 20
4.6838
 10
79.2928
 20
4.7691
 10
79.2876
 20
4.8543
 10
79.2824
 20
4.9396
 10
79.2773
 20
5.0248
 10
79.2721
 20
5.1101
  0
LWPOLYLINE
  5
56
330
17
100
AcDbEntity
  8
OUTLINE
100
AcDbPolyline
 90
163
 70
1
 10
79.1142
 20
6.9498
 10
79.0824
 20
6.9557
 10
79.025
 20
6.9658
 10
78.9681
 20
6.9752
 10
78.9117
 20
6.9839
 10
78.8558
 20
6.9919
 10
78.8004
 20
6.9992
 10
78.7455
 20
7.0058
 10
78.691
 20
7.0117
 10
78.6371
 20
7.017
 10
78.5837
 20
7.0215
 10
78.5308
 20
7.0254
 10
78.4784
 20
7.0286
 10
78.4258
 20
7.0311
 10
78.3714
 20
7.0334
 10
78.3167
 20
7.0356
 10
78.2616
 20
7.0376
 10
78.2063
 20
7.0394
 10
78.1507
 20
7.0411
 10
78.0947
 20
7.0427
 10
78.0385
 20
7.0441
 10
77.9819
 20
7.0453
 10
77.9251
 20
7.0464
 10
77.868
 20
7.0474
 10
77.8105
 20
7.0482
 10
77.7528
 20
7.0488
 10
77.6947
 20
7.0493
 10
77.6363
 20
7.0497
 10
77.5777
 20
7.0499
 10
77.5126
 20
7.0499
 10
77.4274
 20
7.049
 10
77.3442
 20
7.0469
 10
77.2631
 20
7.0436
 10
77.1841
 20
7.0391
 10
77.1071
 20
7.0334
 10
77.0322
 20
7.0265
 10
76.9593
 20
7.0183
 10
76.8885
 20
7.009
 10
76.8197
 20
6.9985
 10
76.753
 20
6.9867
 10
76.6883
 20
6.9737
 10
76.6257
 20
6.9595
 10
76.5652
 20
6.9442
 10
76.5067
 20
6.9276
 10
76.4502
 20
6.9098
 10
76.3958
 20
6.8907
 10
76.3435
 20
6.8705
 10
76.2932
 20
6.8491
 10
76.2449
 20
6.8264
 10
76.1987
 20
6.8026
 10
76.1546
 20
6.7775
 10
76.1125
 20
6.7512
 10
76.0725
 20
6.7238
 10
76.0345
 20
6.6951
 10
75.9986
 20
6.6652
 10
75.9647
 20
6.6341
 10
75.9329
 20
6.6018
 10
75.9031
 20
6.5682
 10
75.8754
 20
6.5335
 10
75.8497
 20
6.4975
 10
75.8261
 20
6.4604
 10
75.8046
 20
6.422
 10
75.7851
 20
6.3825
 10
75.7676
 20
6.3417
 10
75.7522
 20
6.2997
 10
75.7389
 20
6.2565
 10
75.7276
 20
6.2121
 10
75.7183
 20
6.1665
 10
75.7111
 20
6.1196
 10
75.706
 20
6.0716
 10
75.7029
 20
6.0223
 10
75.7019
 20
5.9719
 10
75.7034
 20
5.9077
 10
75.708
 20
5.8456
 10
75.7157
 20
5.7856
 10
75.7264
 20
5.7278
 10
75.7402
 20
5.6721
 10
75.7571
 20
5.6185
 10
75.777
 20
5.5671
 10
75.8
 20
5.5179
 10
75.8261
 20
5.4708
 10
75.8552
 20
5.4258
 10
75.8875
 20
5.383
 10
75.9227
 20
5.3423
 10
75.9611
 20
5.3038
 10
76.0025
 20
5.2674
 10
76.043
 20
5.236
 10
76.082
 20
5.2091
 10
76.1229
 20
5.1839
 10
76.1658
 20
5.1603
 10
76.2106
 20
5.1384
 10
76.2573
 20
5.118
 10
76.3059
 20
5.0994
 10
76.3565
 20
5.0824
 10
76.4089
 20
5.067
 10
76.4634
 20
5.0532
 10
76.5197
 20
5.0411
 10
76.578
 20
5.0307
 10
76.6382
 20
5.0219
 10
76.7003
 20
5.0147
 10
76.7643
 20
5.0092
 10
76.8303
 20
5.0053
 10
76.8982
 20
5.0031
 10
76.9673
 20
5.0025
 10
77.0321
 20
5.0032
 10
77.096
 20
5.005
 10
77.1588
 20
5.0078
 10
77.2207
 20
5.0118
 10
77.2816
 20
5.0169
 10
77.3416
 20
5.023
 10
77.4005
 20
5.0303
 10
77.4585
 20
5.0387
 10
77.5155
 20
5.0481
 10
77.5715
 20
5.0586
 10
77.6265
 20
5.0703
 10
77.6806
 20
5.083
 10
77.7337
 20
5.0968
 10
77.7858
 20
5.1117
 10
77.8369
 20
5.1277
 10
77.887
 20
5.1448
 10
77.9362
 20
5.163
 10
77.9844
 20
5.1823
 10
78.0316
 20
5.2027
 10
78.0778
 20
5.2241
 10
78.1231
 20
5.2467
 10
78.171
 20
5.2723
 10
78.2247
 20
5.3029
 10
78.2769
 20
5.3343
 10
78.3275
 20
5.3666
 10
78.3765
 20
5.3999
 10
78.424
 20
5.434
 10
78.4698
 20
5.4691
 10
78.5141
 20
5.5051
 10
78.5569
 20
5.5421
 10
78.598
 20
5.5799
 10
78.6376
 20
5.6187
 10
78.6755
 20
5.6584
 10
78.7119
 20
5.6989
 10
78.7468
 20
5.7405
 10
78.78
 20
5.7829
 10
78.8117
 20
5.8262
 10
78.8418
 20
5.8705
 10
78.8703
 20
5.9157
 10
78.9004
 20
5.9669
 10
78.9288
 20
6.0192
 10
78.9553
 20
6.0717
 10
78.9797
 20
6.1244
 10
79.002
 20
6.1773
 10
79.0224
 20
6.2305
 10
79.0407
 20
6.2839
 10
79.0569
 20
6.3375
 10
79.0712
 20
6.3914
 10
79.0834
 20
6.4454
 10
79.0936
 20
6.4998
 10
79.1017
 20
6.5543
 10
79.1078
 20
6.6091
 10
79.1119
 20
6.6641
 10
79.1139
 20
6.7193
 10
79.1142
 20
6.7753
 10
79.1142
 20
6.832
 10
79.1142
 20
6.8886
 10
79.1142
 20
6.8959
 10
79.1142
 20
6.9452
  0
LWPOLYLINE
  5
57
330
17
100
AcDbEntity
  8
OUTLINE
100
AcDbPolyline
 90
368
 70
1
 10
94.6383
 20
6.887
 10
94.6008
 20
6.887
 10
94.62
 20
6.8179
 10
94.6495
 20
6.7256
 10
94.682
 20
6.6359
 10
94.7176
 20
6.5487
 10
94.7563
 20
6.4641
 10
94.7981
 20
6.3821
 10
94.8429
 20
6.3026
 10
94.8908
 20
6.2258
 10
94.9419
 20
6.1514
 10
94.9959
 20
6.0797
 10
95.0531
 20
6.0105
 10
95.1134
 20
5.9439
 10
95.1767
 20
5.8799
 10
95.242
 20
5.8193
 10
95.3083
 20
5.7628
 10
95.3771
 20
5.7088
 10
95.4482
 20
5.6575
 10
95.5217
 20
5.6088
 10
95.5976
 20
5.5628
 10
95.6759
 20
5.5193
 10
95.7566
 20
5.4785
 10
95.8397
 20
5.4403
 10
95.9252
 20
5.4047
 10
96.0131
 20
5.3717
 10
96.1033
 20
5.3414
 10
96.196
 20
5.3137
 10
96.291
 20
5.2886
 10
96.3885
 20
5.2661
 10
96.4883
 20
5.2462
 10
96.5905
 20
5.229
 10
96.6951
 20
5.2144
 10
96.8022
 20
5.2024
 10
96.9116
 20
5.1931
 10
97.0233
 20
5.1863
 10
97.1375
 20
5.1822
 10
97.2541
 20
5.1807
 10
97.3548
 20
5.1811
 10
97.4539
 20
5.1825
 10
97.5526
 20
5.1849
 10
97.6511
 20
5.1883
 10
97.7492
 20
5.1926
 10
97.847
 20
5.1979
 10
97.9445
 20
5.2042
 10
98.0416
 20
5.2115
 10
98.1385
 20
5.2198
 10
98.235
 20
5.229
 10
98.3311
 20
5.2392
 10
98.4264
 20
5.2501
 10
98.522
 20
5.2618
 10
98.6179
 20
5.2741
 10
98.7142
 20
5.2872
 10
98.8108
 20
5.3009
 10
98.9077
 20
5.3154
 10
99.0049
 20
5.3306
 10
99.1024
 20
5.3464
 10
99.2003
 20
5.363
 10
99.2985
 20
5.3803
 10
99.3953
 20
5.396
 10
99.4064
 20
5.2987
 10
99.4175
 20
5.2013
 10
99.4286
 20
5.104
 10
99.4397
 20
5.0066
 10
99.4508
 20
4.9093
 10
99.4618
 20
4.8119
 10
99.4729
 20
4.7146
 10
99.484
 20
4.6172
 10
99.4951
 20
4.5198
 10
99.5062
 20
4.4225
 10
99.5173
 20
4.3251
 10
99.5284
 20
4.2278
 10
99.5395
 20
4.1304
 10
99.5506
 20
4.0331
 10
99.5617
 20
3.9357
 10
99.5728
 20
3.8384
 10
99.5839
 20
3.741
 10
99.595
 20
3.6436
 10
99.5066
 20
3.6133
 10
99.4024
 20
3.5953
 10
99.2995
 20
3.5781
 10
99.1977
 20
3.562
 10
99.0972
 20
3.5468
 10
98.9979
 20
3.5327
 10
98.8997
 20
3.5194
 10
98.8028
 20
3.5072
 10
98.7071
 20
3.4959
 10
98.6125
 20
3.4857
 10
98.5192
 20
3.4763
 10
98.4271
 20
3.468
 10
98.3362
 20
3.4606
 10
98.2464
 20
3.4542
 10
98.1473
 20
3.4481
 10
98.0387
 20
3.4419
 10
97.9324
 20
3.4363
 10
97.8283
 20
3.4313
 10
97.7265
 20
3.4269
 10
97.6269
 20
3.4231
 10
97.5295
 20
3.4199
 10
97.4344
 20
3.4172
 10
97.3415
 20
3.4151
 10
97.2508
 20
3.4137
 10
97.1624
 20
3.4128
 10
97.0762
 20
3.4125
 10
96.9598
 20
3.4133
 10
96.8449
 20
3.4159
 10
96.7314
 20
3.4201
 10
96.6194
 20
3.426
 10
96.5089
 20
3.4336
 10
96.3999
 20
3.4429
 10
96.2923
 20
3.4539
 10
96.1862
 20
3.4666
 10
96.0816
 20
3.481
 10
95.9784
 20
3.4971
 10
95.8767
 20
3.5148
 10
95.7765
 20
3.5343
 10
95.6778
 20
3.5554
 10
95.5805
 20
3.5782
 10
95.4847
 20
3.6028
 10
95.3904
 20
3.629
 10
95.2975
 20
3.6569
 10
95.2062
 20
3.6865
 10
95.1162
 20
3.7178
 10
95.0278
 20
3.7508
 10
94.9408
 20
3.7854
 10
94.8554
 20
3.8218
 10
94.7713
 20
3.8599
 10
94.6888
 20
3.8996
 10
94.6077
 20
3.941
 10
94.5281
 20
3.9842
 10
94.45
 20
4.029
 10
94.3733
 20
4.0755
 10
94.2981
 20
4.1237
 10
94.2244
 20
4.1736
 10
94.1521
 20
4.2252
 10
94.0814
 20
4.2785
 10
94.0121
 20
4.3334
 10
93.9442
 20
4.3901
 10
93.8779
 20
4.4485
 10
93.813
 20
4.5085
 10
93.7487
 20
4.5711
 10
93.686
 20
4.6355
 10
93.6252
 20
4.7014
 10
93.5662
 20
4.7688
 10
93.5091
 20
4.8378
 10
93.4537
 20
4.9083
 10
93.4003
 20
4.9803
 10
93.3486
 20
5.0539
 10
93.2988
 20
5.1289
 10
93.2508
 20
5.2056
 10
93.2047
 20
5.2837
 10
93.1604
 20
5.3634
 10
93.1179
 20
5.4446
 10
93.0773
 20
5.5274
 10
93.0385
 20
5.6117
 10
93.0016
 20
5.6975
 10
92.9664
 20
5.7849
 10
92.9332
 20
5.8738
 10
92.9017
 20
5.9642
 10
92.8721
 20
6.0561
 10
92.8443
 20
6.1496
 10
92.8184
 20
6.2447
 10
92.7942
 20
6.3412
 10
92.772
 20
6.4393
 10
92.7515
 20
6.5389
 10
92.7329
 20
6.6401
 10
92.7162
 20
6.7428
 10
92.7012
 20
6.847
 10
92.6881
 20
6.9528
 10
92.6769
 20
7.06
 10
92.6674
 20
7.1689
 10
92.6598
 20
7.2792
 10
92.6541
 20
7.3911
 10
92.6502
 20
7.5045
 10
92.6481
 20
7.6195
 10
92.6478
 20
7.7362
 10
92.6493
 20
7.8526
 10
92.6524
 20
7.9674
 10
92.6572
 20
8.0808
 10
92.6636
 20
8.1926
 10
92.6717
 20
8.3028
 10
92.6815
 20
8.4116
 10
92.693
 20
8.5188
 10
92.7062
 20
8.6244
 10
92.721
 20
8.7286
 10
92.7375
 20
8.8312
 10
92.7556
 20
8.9322
 10
92.7755
 20
9.0318
 10
92.797
 20
9.1298
 10
92.8202
 20
9.2263
 10
92.845
 20
9.3212
 10
92.8715
 20
9.4146
 10
92.8997
 20
9.5065
 10
92.9296
 20
9.5968
 10
92.9611
 20
9.6856
 10
92.9943
 20
9.7729
 10
93.0292
 20
9.8586
 10
93.0658
 20
9.9428
 10
93.104
 20
10.0255
 10
93.1439
 20
10.1066
 10
93.1855
 20
10.1862
 10
93.2287
 20
10.2643
 10
93.2736
 20
10.3408
 10
93.3202
 20
10.4158
 10
93.3685
 20
10.4893
 10
93.4184
 20
10.5612
 10
93.47
 20
10.6316
 10
93.5233
 20
10.7005
 10
93.5782
 20
10.7679
 10
93.6354
 20
10.8343
 10
93.6988
 20
10.904
 10
93.7639
 20
10.9714
 10
93.8305
 20
11.0366
 10
93.8988
 20
11.0995
 10
93.9687
 20
11.1602
 10
94.0403
 20
11.2186
 10
94.1135
 20
11.2747
 10
94.1883
 20
11.3286
 10
94.2647
 20
11.3802
 10
94.3427
 20
11.4295
 10
94.4224
 20
11.4766
 10
94.5037
 20
11.5214
 10
94.5866
 20
11.564
 10
94.6712
 20
11.6043
 10
94.7574
 20
11.6423
 10
94.8452
 20
11.6781
 10
94.9346
 20
11.7116
 10
95.0256
 20
11.7429
 10
95.1183
 20
11.7719
 10
95.2126
 20
11.7986
 10
95.3085
 20
11.8231
 10
95.4061
 20
11.8453
 10
95.5053
 20
11.8653
 10
95.6061
 20
11.8829
 10
95.7085
 20
11.8984
 10
95.8126
 20
11.9115
 10
95.9182
 20
11.9224
 10
96.0255
 20
11.9311
 10
96.1345
 20
11.9375
 10
96.245
 20
11.9416
 10
96.3572
 20
11.9434
 10
96.471
 20
11.943
 10
96.5837
 20
11.9403
 10
96.6947
 20
11.9354
 10
96.8039
 20
11.9282
 10
96.9114
 20
11.9187
 10
97.0171
 20
11.9069
 10
97.1211
 20
11.8929
 10
97.2234
 20
11.8766
 10
97.324
 20
11.858
 10
97.4228
 20
11.8371
 10
97.5199
 20
11.814
 10
97.6153
 20
11.7886
 10
97.7089
 20
11.7609
 10
97.8009
 20
11.731
 10
97.891
 20
11.6988
 10
97.9795
 20
11.6643
 10
98.0662
 20
11.6275
 10
98.1512
 20
11.5885
 10
98.2345
 20
11.5472
 10
98.316
 20
11.5036
 10
98.3958
 20
11.4578
 10
98.4739
 20
11.4097
 10
98.5502
 20
11.3593
 10
98.6248
 20
11.3066
 10
98.6977
 20
11.2517
 10
98.7689
 20
11.1945
 10
98.8383
 20
11.135
 10
98.906
 20
11.0732
 10
98.9719
 20
11.0092
 10
99.0362
 20
10.9429
 10
99.0954
 20
10.878
 10
99.1512
 20
10.8131
 10
99.2053
 20
10.7464
 10
99.2576
 20
10.678
 10
99.3081
 20
10.6079
 10
99.3568
 20
10.536
 10
99.4037
 20
10.4624
 10
99.4489
 20
10.3871
 10
99.4922
 20
10.31
 10
99.5338
 20
10.2311
 10
99.5737
 20
10.1506
 10
99.6117
 20
10.0682
 10
99.648
 20
9.9842
 10
99.6825
 20
9.8984
 10
99.7152
 20
9.8108
 10
99.7461
 20
9.7216
 10
99.7753
 20
9.6305
 10
99.8027
 20
9.5378
 10
99.8283
 20
9.4433
 10
99.8521
 20
9.347
 10
99.8741
 20
9.249
 10
99.8944
 20
9.1493
 10
99.9129
 20
9.0478
 10
99.9296
 20
8.9446
 10
99.9445
 20
8.8397
 10
99.9577
 20
8.733
 10
99.9691
 20
8.6246
 10
99.9787
 20
8.5144
 10
99.9865
 20
8.4025
 10
99.9925
 20
8.2888
 10
99.9968
 20
8.1734
 10
99.9993
 20
8.0563
 10
100.0
 20
7.939
 10
99.9995
 20
7.8354
 10
99.9983
 20
7.733
 10
99.9962
 20
7.6318
 10
99.9933
 20
7.5318
 10
99.9897
 20
7.4329
 10
99.9853
 20
7.3353
 10
99.98
 20
7.2388
 10
99.974
 20
7.1435
 10
99.9672
 20
7.0494
 10
99.9596
 20
6.9565
 10
99.9295
 20
6.887
 10
99.8316
 20
6.887
 10
99.7336
 20
6.887
 10
99.6356
 20
6.887
 10
99.5376
 20
6.887
 10
99.4396
 20
6.887
 10
99.3416
 20
6.887
 10
99.2436
 20
6.887
 10
99.1457
 20
6.887
 10
99.0477
 20
6.887
 10
98.9497
 20
6.887
 10
98.8517
 20
6.887
 10
98.7537
 20
6.887
 10
98.6557
 20
6.887
 10
98.5577
 20
6.887
 10
98.4598
 20
6.887
 10
98.3618
 20
6.887
 10
98.2638
 20
6.887
 10
98.1658
 20
6.887
 10
98.0678
 20
6.887
 10
97.9698
 20
6.887
 10
97.8718
 20
6.887
 10
97.7739
 20
6.887
 10
97.6759
 20
6.887
 10
97.5779
 20
6.887
 10
97.4799
 20
6.887
 10
97.3819
 20
6.887
 10
97.2839
 20
6.887
 10
97.1859
 20
6.887
 10
97.088
 20
6.887
 10
96.99
 20
6.887
 10
96.892
 20
6.887
 10
96.794
 20
6.887
 10
96.696
 20
6.887
 10
96.598
 20
6.887
 10
96.5
 20
6.887
 10
96.4021
 20
6.887
 10
96.3041
 20
6.887
 10
96.2061
 20
6.887
 10
96.1081
 20
6.887
 10
96.0101
 20
6.887
 10
95.9121
 20
6.887
 10
95.8141
 20
6.887
 10
95.7162
 20
6.887
 10
95.6182
 20
6.887
 10
95.5202
 20
6.887
 10
95.4222
 20
6.887
 10
95.3242
 20
6.887
 10
95.2262
 20
6.887
 10
95.1282
 20
6.887
 10
95.0303
 20
6.887
 10
94.9323
 20
6.887
 10
94.8343
 20
6.887
 10
94.7363
 20
6.887
  0
LWPOLYLINE
  5
58
330
17
100
AcDbEntity
  8
OUTLINE
100
AcDbPolyline
 90
100
 70
1
 10
94.5259
 20
8.3299
 10
94.5191
 20
8.2675
 10
94.5852
 20
8.2675
 10
94.6832
 20
8.2675
 10
94.7812
 20
8.2675
 10
94.8792
 20
8.2675
 10
94.9772
 20
8.2675
 10
95.0752
 20
8.2675
 10
95.1731
 20
8.2675
 10
95.2711
 20
8.2675
 10
95.3691
 20
8.2675
 10
95.4671
 20
8.2675
 10
95.5651
 20
8.2675
 10
95.6631
 20
8.2675
 10
95.7611
 20
8.2675
 10
95.859
 20
8.2675
 10
95.957
 20
8.2675
 10
96.055
 20
8.2675
 10
96.153
 20
8.2675
 10
96.251
 20
8.2675
 10
96.349
 20
8.2675
 10
96.447
 20
8.2675
 10
96.5449
 20
8.2675
 10
96.6429
 20
8.2675
 10
96.7409
 20
8.2675
 10
96.8389
 20
8.2675
 10
96.9369
 20
8.2675
 10
97.0349
 20
8.2675
 10
97.1329
 20
8.2675
 10
97.2308
 20
8.2675
 10
97.3288
 20
8.2675
 10
97.4268
 20
8.2675
 10
97.5248
 20
8.2675
 10
97.6228
 20
8.2675
 10
97.7208
 20
8.2675
 10
97.8188
 20
8.2675
 10
97.9167
 20
8.2675
 10
98.0147
 20
8.2675
 10
98.1127
 20
8.2675
 10
98.1693
 20
8.3168
 10
98.1659
 20
8.4321
 10
98.1588
 20
8.544
 10
98.1479
 20
8.6524
 10
98.1334
 20
8.7573
 10
98.1152
 20
8.8587
 10
98.0932
 20
8.9567
 10
98.0675
 20
9.0513
 10
98.0382
 20
9.1423
 10
98.0051
 20
9.2299
 10
97.9683
 20
9.3141
 10
97.9278
 20
9.3948
 10
97.8836
 20
9.472
 10
97.8356
 20
9.5458
 10
97.784
 20
9.6161
 10
97.7287
 20
9.6829
 10
97.6668
 20
9.7492
 10
97.5995
 20
9.813
 10
97.5287
 20
9.8722
 10
97.4546
 20
9.9266
 10
97.377
 20
9.9764
 10
97.296
 20
10.0214
 10
97.2116
 20
10.0617
 10
97.1238
 20
10.0972
 10
97.0326
 20
10.1281
 10
96.9379
 20
10.1542
 10
96.8399
 20
10.1757
 10
96.7384
 20
10.1924
 10
96.6336
 20
10.2043
 10
96.5253
 20
10.2116
 10
96.4136
 20
10.2141
 10
96.3041
 20
10.212
 10
96.1978
 20
10.2051
 10
96.0945
 20
10.1934
 10
95.9942
 20
10.177
 10
95.8969
 20
10.1559
 10
95.8025
 20
10.1301
 10
95.7112
 20
10.0995
 10
95.6229
 20
10.0642
 10
95.5376
 20
10.0241
 10
95.4553
 20
9.9794
 10
95.376
 20
9.9298
 10
95.2996
 20
9.8756
 10
95.2263
 20
9.8166
 10
95.156
 20
9.7529
 10
95.0887
 20
9.6845
 10
95.0244
 20
9.6113
 10
94.9686
 20
9.5407
 10
94.9198
 20
9.4725
 10
94.8736
 20
9.4015
 10
94.83
 20
9.3277
 10
94.7891
 20
9.251
 10
94.7509
 20
9.1716
 10
94.7153
 20
9.0893
 10
94.6823
 20
9.0042
 10
94.652
 20
8.9163
 10
94.6244
 20
8.8256
 10
94.5994
 20
8.7321
 10
94.577
 20
8.6357
 10
94.5573
 20
8.5366
 10
94.5403
 20
8.4346
  0
LWPOLYLINE
  5
59
330
17
100
AcDbEntity
  8
OUTLINE
100
AcDbPolyline
 90
432
 70
1
 10
88.1534
 20
3.4133
 10
88.0699
 20
3.4127
 10
87.9866
 20
3.4125
 10
87.8842
 20
3.4131
 10
87.783
 20
3.4149
 10
87.6828
 20
3.418
 10
87.5837
 20
3.4223
 10
87.4857
 20
3.4278
 10
87.3888
 20
3.4345
 10
87.2931
 20
3.4425
 10
87.1984
 20
3.4517
 10
87.1048
 20
3.4621
 10
87.0124
 20
3.4737
 10
86.921
 20
3.4866
 10
86.8307
 20
3.5007
 10
86.7416
 20
3.516
 10
86.6536
 20
3.5325
 10
86.5666
 20
3.5502
 10
86.4808
 20
3.5692
 10
86.3961
 20
3.5894
 10
86.3124
 20
3.6108
 10
86.2299
 20
3.6335
 10
86.1485
 20
3.6574
 10
86.0682
 20
3.6825
 10
85.989
 20
3.7088
 10
85.9108
 20
3.7364
 10
85.8338
 20
3.7651
 10
85.7579
 20
3.7951
 10
85.6831
 20
3.8263
 10
85.6095
 20
3.8588
 10
85.5369
 20
3.8925
 10
85.4654
 20
3.9274
 10
85.395
 20
3.9635
 10
85.3257
 20
4.0008
 10
85.2576
 20
4.0394
 10
85.1905
 20
4.0792
 10
85.1245
 20
4.1202
 10
85.0597
 20
4.1624
 10
84.9959
 20
4.2059
 10
84.9333
 20
4.2506
 10
84.8717
 20
4.2965
 10
84.8113
 20
4.3437
 10
84.7519
 20
4.392
 10
84.6937
 20
4.4416
 10
84.6366
 20
4.4924
 10
84.5794
 20
4.5456
 10
84.5225
 20
4.6009
 10
84.4669
 20
4.6575
 10
84.4129
 20
4.7152
 10
84.3602
 20
4.774
 10
84.309
 20
4.8341
 10
84.2592
 20
4.8952
 10
84.2109
 20
4.9576
 10
84.164
 20
5.0211
 10
84.1185
 20
5.0857
 10
84.0744
 20
5.1516
 10
84.0318
 20
5.2185
 10
83.9906
 20
5.2867
 10
83.9509
 20
5.356
 10
83.9126
 20
5.4265
 10
83.8757
 20
5.4981
 10
83.8402
 20
5.5709
 10
83.8062
 20
5.6448
 10
83.7736
 20
5.7199
 10
83.7424
 20
5.7962
 10
83.7127
 20
5.8736
 10
83.6844
 20
5.9522
 10
83.6575
 20
6.032
 10
83.632
 20
6.1129
 10
83.608
 20
6.195
 10
83.5855
 20
6.2782
 10
83.5643
 20
6.3626
 10
83.5446
 20
6.4482
 10
83.5263
 20
6.5349
 10
83.5095
 20
6.6228
 10
83.494
 20
6.7118
 10
83.4801
 20
6.802
 10
83.4675
 20
6.8934
 10
83.4564
 20
6.9859
 10
83.4467
 20
7.0796
 10
83.4384
 20
7.1745
 10
83.4316
 20
7.2705
 10
83.4262
 20
7.3676
 10
83.4222
 20
7.466
 10
83.4197
 20
7.5655
 10
83.4186
 20
7.6661
 10
83.4189
 20
7.7671
 10
83.4206
 20
7.8671
 10
83.4237
 20
7.9659
 10
83.4282
 20
8.0635
 10
83.4341
 20
8.1601
 10
83.4414
 20
8.2554
 10
83.45
 20
8.3497
 10
83.4601
 20
8.4428
 10
83.4715
 20
8.5348
 10
83.4844
 20
8.6256
 10
83.4986
 20
8.7153
 10
83.5142
 20
8.8039
 10
83.5312
 20
8.8914
 10
83.5496
 20
8.9777
 10
83.5694
 20
9.0628
 10
83.5906
 20
9.1468
 10
83.6131
 20
9.2297
 10
83.6371
 20
9.3115
 10
83.6624
 20
9.3921
 10
83.6892
 20
9.4716
 10
83.7173
 20
9.55
 10
83.7468
 20
9.6272
 10
83.7777
 20
9.7032
 10
83.81
 20
9.7782
 10
83.8437
 20
9.852
 10
83.8788
 20
9.9247
 10
83.9153
 20
9.9962
 10
83.9531
 20
10.0666
 10
83.9924
 20
10.1359
 10
84.033
 20
10.204
 10
84.075
 20
10.271
 10
84.1185
 20
10.3368
 10
84.1633
 20
10.4015
 10
84.2095
 20
10.4651
 10
84.2571
 20
10.5276
 10
84.3061
 20
10.5889
 10
84.3564
 20
10.6491
 10
84.4082
 20
10.7081
 10
84.4613
 20
10.766
 10
84.5159
 20
10.8228
 10
84.5714
 20
10.8779
 10
84.628
 20
10.9317
 10
84.6859
 20
10.984
 10
84.7449
 20
11.035
 10
84.805
 20
11.0846
 10
84.8664
 20
11.1328
 10
84.9289
 20
11.1796
 10
84.9926
 20
11.225
 10
85.0575
 20
11.269
 10
85.1236
 20
11.3116
 10
85.1909
 20
11.3528
 10
85.2593
 20
11.3927
 10
85.3289
 20
11.4311
 10
85.3997
 20
11.4682
 10
85.4716
 20
11.5038
 10
85.5448
 20
11.5381
 10
85.6191
 20
11.571
 10
85.6946
 20
11.6025
 10
85.7713
 20
11.6326
 10
85.8491
 20
11.6613
 10
85.9281
 20
11.6886
 10
86.0084
 20
11.7146
 10
86.0897
 20
11.7391
 10
86.1723
 20
11.7623
 10
86.2561
 20
11.784
 10
86.341
 20
11.8044
 10
86.4271
 20
11.8234
 10
86.5144
 20
11.841
 10
86.6028
 20
11.8572
 10
86.6925
 20
11.872
 10
86.7833
 20
11.8854
 10
86.8753
 20
11.8974
 10
86.9684
 20
11.908
 10
87.0628
 20
11.9173
 10
87.1583
 20
11.9251
 10
87.255
 20
11.9316
 10
87.3529
 20
11.9367
 10
87.452
 20
11.9403
 10
87.5522
 20
11.9426
 10
87.6536
 20
11.9435
 10
87.7508
 20
11.943
 10
87.846
 20
11.9411
 10
87.9402
 20
11.9377
 10
88.0333
 20
11.9329
 10
88.1254
 20
11.9267
 10
88.2163
 20
11.919
 10
88.3062
 20
11.9099
 10
88.3949
 20
11.8994
 10
88.4826
 20
11.8875
 10
88.5692
 20
11.8741
 10
88.6548
 20
11.8593
 10
88.7392
 20
11.843
 10
88.8226
 20
11.8253
 10
88.9049
 20
11.8062
 10
88.9861
 20
11.7857
 10
89.0662
 20
11.7637
 10
89.1452
 20
11.7403
 10
89.2232
 20
11.7155
 10
89.3
 20
11.6892
 10
89.3758
 20
11.6615
 10
89.4505
 20
11.6324
 10
89.5242
 20
11.6018
 10
89.5967
 20
11.5698
 10
89.6681
 20
11.5364
 10
89.7385
 20
11.5015
 10
89.8083
 20
11.465
 10
89.888
 20
11.4207
 10
89.9656
 20
11.3747
 10
90.0411
 20
11.3272
 10
90.1144
 20
11.278
 10
90.1856
 20
11.2271
 10
90.2547
 20
11.1747
 10
90.3216
 20
11.1206
 10
90.3864
 20
11.0649
 10
90.449
 20
11.0075
 10
90.5095
 20
10.9486
 10
90.5679
 20
10.888
 10
90.6241
 20
10.8258
 10
90.6781
 20
10.7619
 10
90.7301
 20
10.6964
 10
90.7799
 20
10.6294
 10
90.8275
 20
10.5606
 10
90.873
 20
10.4903
 10
90.9164
 20
10.4183
 10
90.9576
 20
10.3447
 10
90.9967
 20
10.2695
 10
91.0337
 20
10.1926
 10
91.0597
 20
10.1164
 10
90.9922
 20
10.0637
 10
90.9247
 20
10.011
 10
90.8572
 20
9.9582
 10
90.7897
 20
9.9055
 10
90.7222
 20
9.8527
 10
90.6547
 20
9.8
 10
90.5872
 20
9.7472
 10
90.5196
 20
9.6945
 10
90.4521
 20
9.6417
 10
90.3846
 20
9.589
 10
90.3171
 20
9.5362
 10
90.2496
 20
9.4835
 10
90.1821
 20
9.4307
 10
90.1146
 20
9.378
 10
90.0471
 20
9.3253
 10
89.9796
 20
9.2725
 10
89.9121
 20
9.2198
 10
89.8445
 20
9.167
 10
89.777
 20
9.1143
 10
89.7095
 20
9.0615
 10
89.6433
 20
9.0168
 10
89.5947
 20
9.0921
 10
89.5443
 20
9.165
 10
89.4921
 20
9.2354
 10
89.4381
 20
9.3033
 10
89.3822
 20
9.3688
 10
89.3244
 20
9.4319
 10
89.2648
 20
9.4925
 10
89.2034
 20
9.5507
 10
89.1401
 20
9.6064
 10
89.075
 20
9.6597
 10
89.008
 20
9.7106
 10
88.9393
 20
9.759
 10
88.8686
 20
9.8049
 10
88.7961
 20
9.8485
 10
88.7215
 20
9.8897
 10
88.6455
 20
9.9282
 10
88.5686
 20
9.9637
 10
88.4905
 20
9.9963
 10
88.4115
 20
10.0259
 10
88.3314
 20
10.0525
 10
88.2503
 20
10.0762
 10
88.1681
 20
10.097
 10
88.0849
 20
10.1148
 10
88.0007
 20
10.1296
 10
87.9154
 20
10.1415
 10
87.8291
 20
10.1504
 10
87.7418
 20
10.1564
 10
87.6534
 20
10.1594
 10
87.5594
 20
10.1595
 10
87.4615
 20
10.1568
 10
87.3657
 20
10.1513
 10
87.2721
 20
10.143
 10
87.1804
 20
10.132
 10
87.0909
 20
10.1181
 10
87.0035
 20
10.1015
 10
86.9182
 20
10.0821
 10
86.8349
 20
10.0599
 10
86.7537
 20
10.0349
 10
86.6746
 20
10.0072
 10
86.5976
 20
9.9766
 10
86.5227
 20
9.9433
 10
86.4499
 20
9.9072
 10
86.3792
 20
9.8683
 10
86.3105
 20
9.8266
 10
86.244
 20
9.7822
 10
86.1795
 20
9.7349
 10
86.1171
 20
9.6849
 10
86.0568
 20
9.6321
 10
85.9986
 20
9.5765
 10
85.9436
 20
9.5193
 10
85.8927
 20
9.4619
 10
85.8443
 20
9.4023
 10
85.7982
 20
9.3406
 10
85.7545
 20
9.2767
 10
85.7132
 20
9.2108
 10
85.6742
 20
9.1427
 10
85.6376
 20
9.0726
 10
85.6034
 20
9.0002
 10
85.5715
 20
8.9258
 10
85.5421
 20
8.8493
 10
85.5149
 20
8.7706
 10
85.4902
 20
8.6898
 10
85.4678
 20
8.6069
 10
85.4478
 20
8.5219
 10
85.4302
 20
8.4347
 10
85.4149
 20
8.3455
 10
85.402
 20
8.2541
 10
85.3915
 20
8.1606
 10
85.3833
 20
8.0649
 10
85.3775
 20
7.9672
 10
85.3741
 20
7.8673
 10
85.3731
 20
7.7654
 10
85.3744
 20
7.6645
 10
85.3781
 20
7.5657
 10
85.3842
 20
7.4687
 10
85.3927
 20
7.3738
 10
85.4036
 20
7.2808
 10
85.4168
 20
7.1898
 10
85.4325
 20
7.1007
 10
85.4505
 20
7.0136
 10
85.4709
 20
6.9285
 10
85.4938
 20
6.8453
 10
85.519
 20
6.7642
 10
85.5465
 20
6.6849
 10
85.5765
 20
6.6077
 10
85.6089
 20
6.5324
 10
85.6436
 20
6.459
 10
85.6808
 20
6.3877
 10
85.7203
 20
6.3183
 10
85.7622
 20
6.2508
 10
85.8065
 20
6.1854
 10
85.8532
 20
6.1219
 10
85.9023
 20
6.0603
 10
85.9537
 20
6.0008
 10
86.0076
 20
5.9431
 10
86.0638
 20
5.8875
 10
86.1211
 20
5.835
 10
86.1785
 20
5.786
 10
86.2378
 20
5.739
 10
86.299
 20
5.694
 10
86.3619
 20
5.6509
 10
86.4268
 20
5.6098
 10
86.4934
 20
5.5706
 10
86.562
 20
5.5334
 10
86.6323
 20
5.4981
 10
86.7045
 20
5.4647
 10
86.7786
 20
5.4334
 10
86.8545
 20
5.4039
 10
86.9323
 20
5.3764
 10
87.0119
 20
5.3509
 10
87.0933
 20
5.3273
 10
87.1766
 20
5.3057
 10
87.2618
 20
5.286
 10
87.3488
 20
5.2682
 10
87.4376
 20
5.2525
 10
87.5283
 20
5.2386
 10
87.6208
 20
5.2267
 10
87.7152
 20
5.2168
 10
87.8114
 20
5.2088
 10
87.9095
 20
5.2028
 10
88.0094
 20
5.1987
 10
88.1112
 20
5.1966
 10
88.2074
 20
5.1963
 10
88.2932
 20
5.1968
 10
88.379
 20
5.198
 10
88.4647
 20
5.1998
 10
88.5503
 20
5.2023
 10
88.636
 20
5.2053
 10
88.7215
 20
5.209
 10
88.807
 20
5.2133
 10
88.8925
 20
5.2183
 10
88.978
 20
5.2238
 10
89.0634
 20
5.23
 10
89.1487
 20
5.2368
 10
89.234
 20
5.2442
 10
89.3196
 20
5.2523
 10
89.4064
 20
5.2611
 10
89.4928
 20
5.2703
 10
89.5789
 20
5.2799
 10
89.6647
 20
5.29
 10
89.7502
 20
5.3006
 10
89.8353
 20
5.3117
 10
89.9201
 20
5.3232
 10
90.0046
 20
5.3352
 10
90.0888
 20
5.3476
 10
90.1726
 20
5.3606
 10
90.2561
 20
5.3739
 10
90.3393
 20
5.3878
 10
90.4014
 20
5.3738
 10
90.4112
 20
5.2887
 10
90.421
 20
5.2036
 10
90.4308
 20
5.1185
 10
90.4406
 20
5.0334
 10
90.4504
 20
4.9483
 10
90.4602
 20
4.8632
 10
90.4699
 20
4.7781
 10
90.4797
 20
4.6929
 10
90.4895
 20
4.6078
 10
90.4993
 20
4.5227
 10
90.5091
 20
4.4376
 10
90.5189
 20
4.3525
 10
90.5287
 20
4.2674
 10
90.5385
 20
4.1823
 10
90.5482
 20
4.0972
 10
90.558
 20
4.0121
 10
90.5678
 20
3.9269
 10
90.5776
 20
3.8418
 10
90.5874
 20
3.7567
 10
90.5972
 20
3.6716
 10
90.5439
 20
3.6328
 10
90.4617
 20
3.6156
 10
90.3791
 20
3.5992
 10
90.2962
 20
3.5835
 10
90.2128
 20
3.5687
 10
90.129
 20
3.5546
 10
90.0449
 20
3.5413
 10
89.9604
 20
3.5288
 10
89.8754
 20
3.5171
 10
89.7901
 20
3.5062
 10
89.7044
 20
3.4961
 10
89.6183
 20
3.4867
 10
89.5318
 20
3.4781
 10
89.4449
 20
3.4703
 10
89.3576
 20
3.4633
 10
89.2699
 20
3.4571
 10
89.182
 20
3.4514
 10
89.0945
 20
3.446
 10
89.0073
 20
3.441
 10
88.9204
 20
3.4365
 10
88.8339
 20
3.4323
 10
88.7476
 20
3.4286
 10
88.6618
 20
3.4252
 10
88.5762
 20
3.4222
 10
88.491
 20
3.4196
 10
88.4061
 20
3.4175
 10
88.3216
 20
3.4157
 10
88.2373
 20
3.4143
  0
LWPOLYLINE
  5
5A
330
17
100
AcDbEntity
  8
OUTLINE
100
AcDbPolyline
 90
366
 70
1
 10
48.3558
 20
7.5115
 10
48.3558
 20
7.3441
 10
48.3558
 20
7.1766
 10
48.3558
 20
7.0092
 10
48.3558
 20
6.8418
 10
48.3558
 20
6.6744
 10
48.3558
 20
6.507
 10
48.3558
 20
6.3396
 10
48.3558
 20
6.1721
 10
48.3558
 20
6.0047
 10
48.3558
 20
5.8373
 10
48.3558
 20
5.6699
 10
48.3558
 20
5.5025
 10
48.3558
 20
5.3351
 10
48.3558
 20
5.1677
 10
48.3558
 20
5.0002
 10
48.3558
 20
4.8328
 10
48.3558
 20
4.6654
 10
48.3558
 20
4.498
 10
48.3558
 20
4.3306
 10
48.3558
 20
4.1632
 10
48.3558
 20
3.9957
 10
48.3558
 20
3.8283
 10
48.3558
 20
3.6609
 10
48.2817
 20
3.5676
 10
48.1143
 20
3.5676
 10
47.9469
 20
3.5676
 10
47.7795
 20
3.5676
 10
47.612
 20
3.5676
 10
47.4446
 20
3.5676
 10
47.2772
 20
3.5676
 10
47.1098
 20
3.5676
 10
46.9424
 20
3.5676
 10
46.775
 20
3.5676
 10
46.6076
 20
3.5676
 10
46.4401
 20
3.5676
 10
46.4401
 20
3.735
 10
46.4401
 20
3.9024
 10
46.4401
 20
4.0699
 10
46.4401
 20
4.2373
 10
46.4401
 20
4.4047
 10
46.4401
 20
4.5721
 10
46.4401
 20
4.7395
 10
46.4401
 20
4.9069
 10
46.4401
 20
5.0743
 10
46.4401
 20
5.2418
 10
46.4401
 20
5.4092
 10
46.4401
 20
5.5766
 10
46.4401
 20
5.744
 10
46.4401
 20
5.9114
 10
46.4401
 20
6.0788
 10
46.4401
 20
6.2463
 10
46.4401
 20
6.4137
 10
46.4401
 20
6.5811
 10
46.4401
 20
6.7485
 10
46.4401
 20
6.9159
 10
46.4401
 20
7.0833
 10
46.4401
 20
7.2507
 10
46.4401
 20
7.4182
 10
46.4401
 20
7.5856
 10
46.4401
 20
7.753
 10
46.4401
 20
7.9204
 10
46.4401
 20
8.0878
 10
46.4401
 20
8.2552
 10
46.4401
 20
8.4227
 10
46.4401
 20
8.5901
 10
46.4401
 20
8.7575
 10
46.4401
 20
8.9249
 10
46.4401
 20
9.0923
 10
46.4401
 20
9.2597
 10
46.4401
 20
9.4272
 10
46.4401
 20
9.5946
 10
46.4401
 20
9.762
 10
46.4401
 20
9.9294
 10
46.4401
 20
10.0968
 10
46.4401
 20
10.2642
 10
46.4401
 20
10.4316
 10
46.4401
 20
10.5991
 10
46.4401
 20
10.7665
 10
46.4401
 20
10.9339
 10
46.4401
 20
11.1013
 10
46.4401
 20
11.2687
 10
46.4401
 20
11.4361
 10
46.4401
 20
11.6036
 10
46.4401
 20
11.771
 10
46.5901
 20
11.7884
 10
46.7575
 20
11.7884
 10
46.9249
 20
11.7884
 10
47.0923
 20
11.7884
 10
47.2598
 20
11.7884
 10
47.4272
 20
11.7884
 10
47.5946
 20
11.7884
 10
47.762
 20
11.7884
 10
47.9294
 20
11.7884
 10
48.0968
 20
11.7884
 10
48.1732
 20
11.6867
 10
48.1918
 20
11.5203
 10
48.2104
 20
11.3539
 10
48.229
 20
11.1876
 10
48.2475
 20
11.0212
 10
48.2661
 20
10.8548
 10
48.2847
 20
10.6884
 10
48.3033
 20
10.522
 10
48.3218
 20
10.3556
 10
48.3281
 20
10.2995
 10
48.3958
 20
10.2995
 10
48.495
 20
10.2995
 10
48.5494
 20
10.3609
 10
48.5667
 20
10.4741
 10
48.5878
 20
10.5832
 10
48.6129
 20
10.6879
 10
48.642
 20
10.7885
 10
48.675
 20
10.8848
 10
48.7119
 20
10.9768
 10
48.7527
 20
11.0646
 10
48.7975
 20
11.1481
 10
48.8462
 20
11.2274
 10
48.8988
 20
11.3025
 10
48.9554
 20
11.3733
 10
49.0159
 20
11.4398
 10
49.0803
 20
11.5021
 10
49.1462
 20
11.5582
 10
49.2126
 20
11.6077
 10
49.283
 20
11.6539
 10
49.3574
 20
11.6966
 10
49.4357
 20
11.7359
 10
49.5181
 20
11.7718
 10
49.6045
 20
11.8044
 10
49.6948
 20
11.8335
 10
49.7892
 20
11.8591
 10
49.8875
 20
11.8814
 10
49.9899
 20
11.9003
 10
50.0962
 20
11.9158
 10
50.2065
 20
11.9278
 10
50.3209
 20
11.9365
 10
50.4392
 20
11.9417
 10
50.5615
 20
11.9435
 10
50.6764
 20
11.9421
 10
50.7887
 20
11.9375
 10
50.8987
 20
11.9299
 10
51.0064
 20
11.9191
 10
51.1117
 20
11.9051
 10
51.2147
 20
11.8881
 10
51.3154
 20
11.8679
 10
51.4138
 20
11.8447
 10
51.5098
 20
11.8183
 10
51.6035
 20
11.7888
 10
51.6949
 20
11.7561
 10
51.7839
 20
11.7204
 10
51.8707
 20
11.6815
 10
51.9551
 20
11.6395
 10
52.0372
 20
11.5944
 10
52.1169
 20
11.5462
 10
52.1944
 20
11.4948
 10
52.2695
 20
11.4404
 10
52.3423
 20
11.3828
 10
52.4127
 20
11.3221
 10
52.4809
 20
11.2583
 10
52.5467
 20
11.1913
 10
52.6082
 20
11.1235
 10
52.665
 20
11.056
 10
52.7192
 20
10.9862
 10
52.7711
 20
10.9143
 10
52.8205
 20
10.8401
 10
52.8674
 20
10.7637
 10
52.9119
 20
10.685
 10
52.954
 20
10.6042
 10
52.9937
 20
10.5211
 10
53.0308
 20
10.4357
 10
53.0656
 20
10.3482
 10
53.0979
 20
10.2584
 10
53.1278
 20
10.1664
 10
53.1552
 20
10.0722
 10
53.1802
 20
9.9757
 10
53.2028
 20
9.877
 10
53.2229
 20
9.7761
 10
53.2406
 20
9.673
 10
53.2558
 20
9.5676
 10
53.2686
 20
9.46
 10
53.279
 20
9.3502
 10
53.2869
 20
9.2381
 10
53.2924
 20
9.1238
 10
53.2954
 20
9.0073
 10
53.2961
 20
8.8937
 10
53.2961
 20
8.7945
 10
53.2961
 20
8.6953
 10
53.2961
 20
8.5961
 10
53.2961
 20
8.4969
 10
53.2961
 20
8.3977
 10
53.2961
 20
8.2985
 10
53.2961
 20
8.1993
 10
53.2961
 20
8.1001
 10
53.2961
 20
8.0009
 10
53.2961
 20
7.9017
 10
53.2961
 20
7.8025
 10
53.2961
 20
7.7033
 10
53.2961
 20
7.6041
 10
53.2961
 20
7.5049
 10
53.2961
 20
7.4057
 10
53.2961
 20
7.3065
 10
53.2961
 20
7.2073
 10
53.2961
 20
7.1081
 10
53.2961
 20
7.0089
 10
53.2961
 20
6.9097
 10
53.2961
 20
6.8105
 10
53.2961
 20
6.7113
 10
53.2961
 20
6.6121
 10
53.2961
 20
6.5129
 10
53.2961
 20
6.4137
 10
53.2961
 20
6.3145
 10
53.2961
 20
6.2153
 10
53.2961
 20
6.1161
 10
53.2961
 20
6.0169
 10
53.2961
 20
5.9177
 10
53.2961
 20
5.8185
 10
53.2961
 20
5.7193
 10
53.2961
 20
5.6201
 10
53.2961
 20
5.5208
 10
53.2961
 20
5.4216
 10
53.2961
 20
5.3224
 10
53.2961
 20
5.2232
 10
53.2961
 20
5.124
 10
53.2961
 20
5.0248
 10
53.2961
 20
4.9256
 10
53.2961
 20
4.8264
 10
53.2961
 20
4.7272
 10
53.2961
 20
4.628
 10
53.2961
 20
4.5288
 10
53.2961
 20
4.4296
 10
53.2961
 20
4.3304
 10
53.2961
 20
4.2312
 10
53.2961
 20
4.132
 10
53.2961
 20
4.0328
 10
53.2961
 20
3.9336
 10
53.2961
 20
3.8344
 10
53.2961
 20
3.7352
 10
53.2961
 20
3.636
 10
53.2653
 20
3.5676
 10
53.1661
 20
3.5676
 10
53.0669
 20
3.5676
 10
52.9677
 20
3.5676
 10
52.8685
 20
3.5676
 10
52.7693
 20
3.5676
 10
52.6701
 20
3.5676
 10
52.5709
 20
3.5676
 10
52.4717
 20
3.5676
 10
52.3725
 20
3.5676
 10
52.2733
 20
3.5676
 10
52.1741
 20
3.5676
 10
52.0749
 20
3.5676
 10
51.9757
 20
3.5676
 10
51.8764
 20
3.5676
 10
51.7772
 20
3.5676
 10
51.678
 20
3.5676
 10
51.5788
 20
3.5676
 10
51.4796
 20
3.5676
 10
51.3804
 20
3.5676
 10
51.3804
 20
3.6668
 10
51.3804
 20
3.766
 10
51.3804
 20
3.8652
 10
51.3804
 20
3.9644
 10
51.3804
 20
4.0636
 10
51.3804
 20
4.1628
 10
51.3804
 20
4.262
 10
51.3804
 20
4.3612
 10
51.3804
 20
4.4604
 10
51.3804
 20
4.5596
 10
51.3804
 20
4.6588
 10
51.3804
 20
4.758
 10
51.3804
 20
4.8572
 10
51.3804
 20
4.9565
 10
51.3804
 20
5.0557
 10
51.3804
 20
5.1549
 10
51.3804
 20
5.2541
 10
51.3804
 20
5.3533
 10
51.3804
 20
5.4525
 10
51.3804
 20
5.5517
 10
51.3804
 20
5.6509
 10
51.3804
 20
5.7501
 10
51.3804
 20
5.8493
 10
51.3804
 20
5.9485
 10
51.3804
 20
6.0477
 10
51.3804
 20
6.1469
 10
51.3804
 20
6.2461
 10
51.3804
 20
6.3453
 10
51.3804
 20
6.4445
 10
51.3804
 20
6.5437
 10
51.3804
 20
6.6429
 10
51.3804
 20
6.7421
 10
51.3804
 20
6.8413
 10
51.3804
 20
6.9405
 10
51.3804
 20
7.0397
 10
51.3804
 20
7.1389
 10
51.3804
 20
7.2381
 10
51.3804
 20
7.3373
 10
51.3804
 20
7.4365
 10
51.3804
 20
7.5357
 10
51.3804
 20
7.6349
 10
51.3804
 20
7.7341
 10
51.3804
 20
7.8333
 10
51.3804
 20
7.9325
 10
51.3804
 20
8.0317
 10
51.3804
 20
8.1309
 10
51.3804
 20
8.2302
 10
51.3804
 20
8.3294
 10
51.3804
 20
8.4286
 10
51.3804
 20
8.5278
 10
51.3804
 20
8.6309
 10
51.3773
 20
8.7486
 10
51.3697
 20
8.8619
 10
51.3577
 20
8.9707
 10
51.3411
 20
9.075
 10
51.3201
 20
9.1747
 10
51.2945
 20
9.27
 10
51.2645
 20
9.3608
 10
51.2299
 20
9.4471
 10
51.1909
 20
9.5289
 10
51.1474
 20
9.6062
 10
51.0994
 20
9.679
 10
51.0469
 20
9.7473
 10
50.9835
 20
9.8178
 10
50.9143
 20
9.8827
 10
50.8404
 20
9.9408
 10
50.7617
 20
9.992
 10
50.6784
 20
10.0365
 10
50.5903
 20
10.0741
 10
50.4975
 20
10.1049
 10
50.4
 20
10.1289
 10
50.2977
 20
10.146
 10
50.1908
 20
10.1563
 10
50.0791
 20
10.1598
 10
49.9757
 20
10.1578
 10
49.8757
 20
10.1515
 10
49.7789
 20
10.141
 10
49.6852
 20
10.1263
 10
49.5947
 20
10.1073
 10
49.5075
 20
10.0842
 10
49.4234
 20
10.0568
 10
49.3425
 20
10.0252
 10
49.2647
 20
9.9894
 10
49.1902
 20
9.9493
 10
49.1189
 20
9.905
 10
49.0507
 20
9.8565
 10
48.9858
 20
9.8038
 10
48.924
 20
9.7469
 10
48.8654
 20
9.6857
 10
48.81
 20
9.6204
 10
48.7578
 20
9.5508
 10
48.7087
 20
9.4769
 10
48.6629
 20
9.3989
 10
48.6202
 20
9.3166
 10
48.5808
 20
9.2301
 10
48.5445
 20
9.1394
 10
48.5114
 20
9.0445
 10
48.4815
 20
8.9453
 10
48.4548
 20
8.842
 10
48.4313
 20
8.7344
 10
48.4109
 20
8.6225
 10
48.3938
 20
8.5065
 10
48.3798
 20
8.3862
 10
48.369
 20
8.2618
 10
48.3615
 20
8.133
 10
48.3571
 20
8.0001
 10
48.3558
 20
7.9622
 10
48.3558
 20
7.8463
 10
48.3558
 20
7.6789
  0
LWPOLYLINE
  5
5B
330
17
100
AcDbEntity
  8
OUTLINE
100
AcDbPolyline
 90
648
 70
1
 10
58.9799
 20
3.4143
 10
58.8879
 20
3.4129
 10
58.7947
 20
3.4125
 10
58.717
 20
3.4128
 10
58.6396
 20
3.4136
 10
58.5625
 20
3.4149
 10
58.4856
 20
3.4168
 10
58.409
 20
3.4192
 10
58.3328
 20
3.4221
 10
58.2567
 20
3.4256
 10
58.181
 20
3.4296
 10
58.1056
 20
3.4341
 10
58.0304
 20
3.4392
 10
57.9555
 20
3.4448
 10
57.8809
 20
3.4509
 10
57.8065
 20
3.4576
 10
57.7325
 20
3.4648
 10
57.6587
 20
3.4725
 10
57.5852
 20
3.4808
 10
57.512
 20
3.4896
 10
57.4391
 20
3.4989
 10
57.3664
 20
3.5088
 10
57.2941
 20
3.5192
 10
57.222
 20
3.5302
 10
57.1501
 20
3.5416
 10
57.0786
 20
3.5536
 10
57.0074
 20
3.5662
 10
56.9294
 20
3.5806
 10
56.8513
 20
3.5957
 10
56.7738
 20
3.6114
 10
56.697
 20
3.6278
 10
56.6209
 20
3.6447
 10
56.5455
 20
3.6622
 10
56.4707
 20
3.6803
 10
56.3966
 20
3.699
 10
56.3232
 20
3.7183
 10
56.2505
 20
3.7382
 10
56.1785
 20
3.7587
 10
56.1071
 20
3.7798
 10
56.0364
 20
3.8014
 10
55.9664
 20
3.8237
 10
55.8971
 20
3.8466
 10
55.8284
 20
3.87
 10
55.7604
 20
3.8941
 10
55.6931
 20
3.9187
 10
55.6265
 20
3.944
 10
55.5606
 20
3.9698
 10
55.4953
 20
3.9962
 10
55.4464
 20
4.0332
 10
55.4562
 20
4.1074
 10
55.466
 20
4.1816
 10
55.4757
 20
4.2558
 10
55.4855
 20
4.33
 10
55.4953
 20
4.4042
 10
55.505
 20
4.4784
 10
55.5148
 20
4.5526
 10
55.5246
 20
4.6268
 10
55.5343
 20
4.701
 10
55.5441
 20
4.7752
 10
55.5539
 20
4.8494
 10
55.5636
 20
4.9236
 10
55.5734
 20
4.9978
 10
55.5832
 20
5.072
 10
55.5929
 20
5.1461
 10
55.6027
 20
5.2203
 10
55.6125
 20
5.2945
 10
55.6222
 20
5.3687
 10
55.632
 20
5.4429
 10
55.6418
 20
5.5171
 10
55.6515
 20
5.5913
 10
55.6613
 20
5.6655
 10
55.6711
 20
5.7397
 10
55.6808
 20
5.8139
 10
55.6906
 20
5.8881
 10
55.7512
 20
5.8771
 10
55.8233
 20
5.847
 10
55.8953
 20
5.8176
 10
55.9672
 20
5.7888
 10
56.039
 20
5.7607
 10
56.1107
 20
5.7331
 10
56.1822
 20
5.7062
 10
56.2537
 20
5.6799
 10
56.325
 20
5.6543
 10
56.3963
 20
5.6292
 10
56.4674
 20
5.6048
 10
56.5384
 20
5.581
 10
56.6093
 20
5.5578
 10
56.6801
 20
5.5353
 10
56.7508
 20
5.5134
 10
56.8213
 20
5.4921
 10
56.8918
 20
5.4715
 10
56.9621
 20
5.4514
 10
57.0323
 20
5.432
 10
57.1024
 20
5.4132
 10
57.1724
 20
5.3951
 10
57.2423
 20
5.3775
 10
57.3121
 20
5.3606
 10
57.3836
 20
5.3439
 10
57.4618
 20
5.3264
 10
57.5397
 20
5.3097
 10
57.6171
 20
5.2939
 10
57.6941
 20
5.2789
 10
57.7707
 20
5.2649
 10
57.8468
 20
5.2516
 10
57.9225
 20
5.2393
 10
57.9978
 20
5.2278
 10
58.0727
 20
5.2172
 10
58.1471
 20
5.2075
 10
58.2211
 20
5.1986
 10
58.2947
 20
5.1906
 10
58.3679
 20
5.1835
 10
58.4406
 20
5.1772
 10
58.513
 20
5.1718
 10
58.5849
 20
5.1673
 10
58.6563
 20
5.1636
 10
58.7274
 20
5.1608
 10
58.798
 20
5.1589
 10
58.8682
 20
5.1578
 10
58.9449
 20
5.1576
 10
59.038
 20
5.159
 10
59.1287
 20
5.162
 10
59.2172
 20
5.1668
 10
59.3032
 20
5.1732
 10
59.3869
 20
5.1814
 10
59.4682
 20
5.1913
 10
59.5472
 20
5.2029
 10
59.6237
 20
5.2163
 10
59.698
 20
5.2313
 10
59.7699
 20
5.2481
 10
59.8394
 20
5.2666
 10
59.9065
 20
5.2868
 10
59.9713
 20
5.3087
 10
60.0337
 20
5.3323
 10
60.0938
 20
5.3576
 10
60.1515
 20
5.3847
 10
60.2068
 20
5.4134
 10
60.2598
 20
5.4439
 10
60.3104
 20
5.4761
 10
60.3682
 20
5.5172
 10
60.4267
 20
5.5642
 10
60.481
 20
5.614
 10
60.5311
 20
5.6665
 10
60.577
 20
5.7217
 10
60.6186
 20
5.7797
 10
60.656
 20
5.8403
 10
60.6892
 20
5.9036
 10
60.7181
 20
5.9697
 10
60.7429
 20
6.0385
 10
60.7634
 20
6.11
 10
60.7796
 20
6.1842
 10
60.7917
 20
6.2611
 10
60.7995
 20
6.3408
 10
60.8031
 20
6.4231
 10
60.8025
 20
6.5003
 10
60.7982
 20
6.5725
 10
60.7901
 20
6.6431
 10
60.7783
 20
6.7121
 10
60.7627
 20
6.7796
 10
60.7434
 20
6.8455
 10
60.7202
 20
6.9098
 10
60.6934
 20
6.9725
 10
60.6627
 20
7.0337
 10
60.6283
 20
7.0933
 10
60.5902
 20
7.1513
 10
60.5483
 20
7.2077
 10
60.5026
 20
7.2626
 10
60.4532
 20
7.3159
 10
60.4
 20
7.3677
 10
60.3431
 20
7.4178
 10
60.2824
 20
7.4664
 10
60.2179
 20
7.5135
 10
60.1497
 20
7.5589
 10
60.0777
 20
7.6028
 10
60.002
 20
7.6451
 10
59.9225
 20
7.6858
 10
59.8428
 20
7.7237
 10
59.7753
 20
7.7558
 10
59.7077
 20
7.7879
 10
59.6401
 20
7.82
 10
59.5725
 20
7.8521
 10
59.5049
 20
7.8842
 10
59.4373
 20
7.9164
 10
59.3697
 20
7.9485
 10
59.3021
 20
7.9806
 10
59.2345
 20
8.0127
 10
59.1669
 20
8.0448
 10
59.0993
 20
8.0769
 10
59.0317
 20
8.1091
 10
58.9641
 20
8.1412
 10
58.8966
 20
8.1733
 10
58.829
 20
8.2054
 10
58.7614
 20
8.2375
 10
58.6938
 20
8.2697
 10
58.6262
 20
8.3018
 10
58.5586
 20
8.3339
 10
58.491
 20
8.366
 10
58.4234
 20
8.3981
 10
58.3558
 20
8.4302
 10
58.2882
 20
8.4624
 10
58.2206
 20
8.4945
 10
58.153
 20
8.5266
 10
58.0779
 20
8.5623
 10
58.0026
 20
8.5992
 10
57.9285
 20
8.6367
 10
57.8556
 20
8.6747
 10
57.7838
 20
8.7133
 10
57.7132
 20
8.7524
 10
57.6438
 20
8.7921
 10
57.5756
 20
8.8324
 10
57.5085
 20
8.8733
 10
57.4426
 20
8.9147
 10
57.3779
 20
8.9567
 10
57.3144
 20
8.9992
 10
57.252
 20
9.0424
 10
57.1908
 20
9.0861
 10
57.1308
 20
9.1303
 10
57.072
 20
9.1751
 10
57.0144
 20
9.2205
 10
56.9579
 20
9.2665
 10
56.9026
 20
9.313
 10
56.8485
 20
9.3601
 10
56.7955
 20
9.4077
 10
56.7438
 20
9.456
 10
56.6932
 20
9.5047
 10
56.6437
 20
9.5541
 10
56.5955
 20
9.604
 10
56.5484
 20
9.6545
 10
56.5026
 20
9.7056
 10
56.4578
 20
9.7572
 10
56.4143
 20
9.8094
 10
56.3719
 20
9.8621
 10
56.3264
 20
9.9213
 10
56.2815
 20
9.9826
 10
56.2384
 20
10.0446
 10
56.1971
 20
10.1072
 10
56.1575
 20
10.1706
 10
56.1197
 20
10.2347
 10
56.0838
 20
10.2994
 10
56.0496
 20
10.3648
 10
56.0172
 20
10.431
 10
55.9865
 20
10.4978
 10
55.9577
 20
10.5653
 10
55.9307
 20
10.6334
 10
55.9054
 20
10.7023
 10
55.8819
 20
10.7719
 10
55.8602
 20
10.8421
 10
55.8403
 20
10.913
 10
55.8222
 20
10.9847
 10
55.8059
 20
11.057
 10
55.7913
 20
11.13
 10
55.7786
 20
11.2037
 10
55.7676
 20
11.278
 10
55.7584
 20
11.3531
 10
55.751
 20
11.4289
 10
55.7454
 20
11.5053
 10
55.7415
 20
11.5824
 10
55.7395
 20
11.6602
 10
55.7392
 20
11.7414
 10
55.7406
 20
11.8269
 10
55.7437
 20
11.9112
 10
55.7484
 20
11.9943
 10
55.7547
 20
12.0763
 10
55.7628
 20
12.1571
 10
55.7724
 20
12.2368
 10
55.7837
 20
12.3152
 10
55.7967
 20
12.3925
 10
55.8113
 20
12.4686
 10
55.8276
 20
12.5436
 10
55.8455
 20
12.6174
 10
55.8651
 20
12.69
 10
55.8863
 20
12.7614
 10
55.9092
 20
12.8317
 10
55.9337
 20
12.9008
 10
55.9599
 20
12.9687
 10
55.9878
 20
13.0354
 10
56.0172
 20
13.101
 10
56.0484
 20
13.1654
 10
56.0812
 20
13.2287
 10
56.1156
 20
13.2907
 10
56.1517
 20
13.3516
 10
56.1894
 20
13.4114
 10
56.2288
 20
13.4699
 10
56.2699
 20
13.5273
 10
56.3126
 20
13.5835
 10
56.3569
 20
13.6386
 10
56.4029
 20
13.6924
 10
56.4506
 20
13.7451
 10
56.4999
 20
13.7967
 10
56.5508
 20
13.847
 10
56.6034
 20
13.8962
 10
56.6577
 20
13.9442
 10
56.7078
 20
13.9863
 10
56.759
 20
14.0272
 10
56.8112
 20
14.067
 10
56.8646
 20
14.1056
 10
56.9191
 20
14.143
 10
56.9747
 20
14.1793
 10
57.0314
 20
14.2145
 10
57.0892
 20
14.2485
 10
57.1482
 20
14.2814
 10
57.2082
 20
14.3131
 10
57.2693
 20
14.3437
 10
57.3316
 20
14.3731
 10
57.3949
 20
14.4014
 10
57.4594
 20
14.4285
 10
57.525
 20
14.4545
 10
57.5917
 20
14.4793
 10
57.6595
 20
14.503
 10
57.7284
 20
14.5255
 10
57.7984
 20
14.5469
 10
57.8695
 20
14.5671
 10
57.9417
 20
14.5862
 10
58.0151
 20
14.6042
 10
58.0895
 20
14.621
 10
58.165
 20
14.6366
 10
58.2417
 20
14.6511
 10
58.3195
 20
14.6645
 10
58.3983
 20
14.6767
 10
58.4783
 20
14.6877
 10
58.5594
 20
14.6976
 10
58.6416
 20
14.7064
 10
58.7249
 20
14.714
 10
58.8093
 20
14.7205
 10
58.8949
 20
14.7258
 10
58.9815
 20
14.73
 10
59.0692
 20
14.733
 10
59.1581
 20
14.7349
 10
59.2481
 20
14.7356
 10
59.3289
 20
14.7352
 10
59.4078
 20
14.7339
 10
59.4862
 20
14.7316
 10
59.5642
 20
14.7282
 10
59.6416
 20
14.724
 10
59.7186
 20
14.7187
 10
59.7952
 20
14.7124
 10
59.8712
 20
14.7052
 10
59.9468
 20
14.697
 10
60.0219
 20
14.6878
 10
60.0965
 20
14.6776
 10
60.1707
 20
14.6665
 10
60.2443
 20
14.6543
 10
60.3176
 20
14.6412
 10
60.3903
 20
14.6271
 10
60.4625
 20
14.612
 10
60.5343
 20
14.596
 10
60.6056
 20
14.5789
 10
60.6765
 20
14.5609
 10
60.7468
 20
14.5419
 10
60.8167
 20
14.5219
 10
60.8861
 20
14.5009
 10
60.955
 20
14.479
 10
61.0235
 20
14.456
 10
61.0915
 20
14.4321
 10
61.159
 20
14.4072
 10
61.2265
 20
14.3812
 10
61.2946
 20
14.3537
 10
61.3621
 20
14.3252
 10
61.4293
 20
14.2956
 10
61.4959
 20
14.265
 10
61.5622
 20
14.2333
 10
61.628
 20
14.2006
 10
61.6933
 20
14.1669
 10
61.7582
 20
14.1321
 10
61.8226
 20
14.0963
 10
61.8866
 20
14.0594
 10
61.9501
 20
14.0214
 10
62.0132
 20
13.9824
 10
62.0758
 20
13.9424
 10
62.138
 20
13.9013
 10
62.1998
 20
13.8592
 10
62.2611
 20
13.8161
 10
62.3219
 20
13.7718
 10
62.3823
 20
13.7266
 10
62.4422
 20
13.6803
 10
62.5017
 20
13.6329
 10
62.5608
 20
13.5845
 10
62.6194
 20
13.5351
 10
62.6775
 20
13.4846
 10
62.7352
 20
13.433
 10
62.7925
 20
13.3805
 10
62.8085
 20
13.3263
 10
62.7582
 20
13.2708
 10
62.708
 20
13.2154
 10
62.6577
 20
13.1599
 10
62.6074
 20
13.1045
 10
62.5572
 20
13.0491
 10
62.5069
 20
12.9936
 10
62.4566
 20
12.9382
 10
62.4064
 20
12.8827
 10
62.3561
 20
12.8273
 10
62.3058
 20
12.7719
 10
62.2556
 20
12.7164
 10
62.2053
 20
12.661
 10
62.155
 20
12.6055
 10
62.1048
 20
12.5501
 10
62.0545
 20
12.4947
 10
62.0042
 20
12.4392
 10
61.954
 20
12.3838
 10
61.9037
 20
12.3283
 10
61.8535
 20
12.2729
 10
61.8032
 20
12.2174
 10
61.7529
 20
12.162
 10
61.7027
 20
12.1066
 10
61.6524
 20
12.0511
 10
61.6021
 20
11.9957
 10
61.5519
 20
11.9402
 10
61.4896
 20
11.9868
 10
61.4265
 20
12.0407
 10
61.3636
 20
12.0932
 10
61.3009
 20
12.1441
 10
61.2384
 20
12.1936
 10
61.1761
 20
12.2416
 10
61.114
 20
12.2882
 10
61.052
 20
12.3333
 10
60.9903
 20
12.377
 10
60.9288
 20
12.4191
 10
60.8675
 20
12.4599
 10
60.8063
 20
12.4991
 10
60.7454
 20
12.5369
 10
60.6847
 20
12.5732
 10
60.6241
 20
12.6081
 10
60.5638
 20
12.6415
 10
60.5036
 20
12.6734
 10
60.4437
 20
12.7039
 10
60.3829
 20
12.7334
 10
60.3105
 20
12.7666
 10
60.2381
 20
12.7975
 10
60.1657
 20
12.8263
 10
60.0934
 20
12.8528
 10
60.0211
 20
12.8771
 10
59.9489
 20
12.8992
 10
59.8767
 20
12.9191
 10
59.8045
 20
12.9368
 10
59.7323
 20
12.9522
 10
59.6602
 20
12.9654
 10
59.5881
 20
12.9764
 10
59.5161
 20
12.9852
 10
59.444
 20
12.9917
 10
59.3721
 20
12.996
 10
59.3001
 20
12.9981
 10
59.2182
 20
12.998
 10
59.1301
 20
12.9953
 10
59.0446
 20
12.99
 10
58.9616
 20
12.9823
 10
58.8811
 20
12.9719
 10
58.8031
 20
12.959
 10
58.7276
 20
12.9436
 10
58.6547
 20
12.9256
 10
58.5843
 20
12.905
 10
58.5164
 20
12.8819
 10
58.4511
 20
12.8563
 10
58.3882
 20
12.8281
 10
58.3279
 20
12.7973
 10
58.2701
 20
12.764
 10
58.2148
 20
12.7282
 10
58.1621
 20
12.6897
 10
58.1092
 20
12.6464
 10
58.0569
 20
12.5978
 10
58.0086
 20
12.5462
 10
57.9641
 20
12.4918
 10
57.9235
 20
12.4345
 10
57.8868
 20
12.3743
 10
57.8541
 20
12.3112
 10
57.8252
 20
12.2452
 10
57.8002
 20
12.1764
 10
57.7792
 20
12.1046
 10
57.762
 20
12.03
 10
57.7487
 20
11.9525
 10
57.7393
 20
11.8721
 10
57.7338
 20
11.7888
 10
57.7323
 20
11.7035
 10
57.7349
 20
11.6262
 10
57.7421
 20
11.5505
 10
57.7537
 20
11.4766
 10
57.7698
 20
11.4043
 10
57.7904
 20
11.3338
 10
57.8155
 20
11.265
 10
57.845
 20
11.1979
 10
57.8791
 20
11.1324
 10
57.9176
 20
11.0687
 10
57.9606
 20
11.0067
 10
58.008
 20
10.9465
 10
58.0506
 20
10.8975
 10
58.096
 20
10.8492
 10
58.1442
 20
10.8016
 10
58.1951
 20
10.7548
 10
58.2487
 20
10.7088
 10
58.3051
 20
10.6635
 10
58.3642
 20
10.6189
 10
58.4261
 20
10.5751
 10
58.4907
 20
10.532
 10
58.5581
 20
10.4896
 10
58.6282
 20
10.448
 10
58.701
 20
10.4072
 10
58.7766
 20
10.367
 10
58.8471
 20
10.3316
 10
58.9141
 20
10.2983
 10
58.9811
 20
10.2649
 10
59.0481
 20
10.2316
 10
59.1151
 20
10.1982
 10
59.1821
 20
10.1649
 10
59.2491
 20
10.1316
 10
59.3161
 20
10.0982
 10
59.3831
 20
10.0649
 10
59.4501
 20
10.0316
 10
59.5171
 20
9.9982
 10
59.5841
 20
9.9649
 10
59.6511
 20
9.9315
 10
59.7181
 20
9.8982
 10
59.7851
 20
9.8649
 10
59.8521
 20
9.8315
 10
59.9191
 20
9.7982
 10
59.9861
 20
9.7649
 10
60.0531
 20
9.7315
 10
60.1201
 20
9.6982
 10
60.1871
 20
9.6648
 10
60.2541
 20
9.6315
 10
60.3211
 20
9.5982
 10
60.3945
 20
9.5615
 10
60.4708
 20
9.5225
 10
60.5459
 20
9.4831
 10
60.6198
 20
9.4434
 10
60.6925
 20
9.4032
 10
60.764
 20
9.3627
 10
60.8343
 20
9.3217
 10
60.9035
 20
9.2804
 10
60.9714
 20
9.2387
 10
61.0382
 20
9.1966
 10
61.1038
 20
9.1541
 10
61.1682
 20
9.1112
 10
61.2314
 20
9.0679
 10
61.2935
 20
9.0243
 10
61.3543
 20
8.9802
 10
61.414
 20
8.9358
 10
61.4724
 20
8.8909
 10
61.5297
 20
8.8457
 10
61.5858
 20
8.8001
 10
61.6407
 20
8.7541
 10
61.6945
 20
8.7077
 10
61.747
 20
8.6609
 10
61.7984
 20
8.6137
 10
61.8485
 20
8.5661
 10
61.8975
 20
8.5182
 10
61.9453
 20
8.4698
 10
61.9919
 20
8.4211
 10
62.0374
 20
8.3719
 10
62.0816
 20
8.3224
 10
62.1247
 20
8.2725
 10
62.1669
 20
8.2217
 10
62.215
 20
8.1614
 10
62.2611
 20
8.1004
 10
62.3053
 20
8.0387
 10
62.3476
 20
7.9763
 10
62.388
 20
7.9132
 10
62.4265
 20
7.8493
 10
62.4631
 20
7.7847
 10
62.4978
 20
7.7195
 10
62.5306
 20
7.6535
 10
62.5615
 20
7.5868
 10
62.5904
 20
7.5194
 10
62.6175
 20
7.4512
 10
62.6427
 20
7.3824
 10
62.666
 20
7.3129
 10
62.6873
 20
7.2426
 10
62.7068
 20
7.1716
 10
62.7243
 20
7.0999
 10
62.74
 20
7.0275
 10
62.7537
 20
6.9544
 10
62.7656
 20
6.8806
 10
62.7755
 20
6.8061
 10
62.7835
 20
6.7308
 10
62.7896
 20
6.6549
 10
62.7939
 20
6.5782
 10
62.7962
 20
6.5008
 10
62.7966
 20
6.4205
 10
62.7952
 20
6.3353
 10
62.7922
 20
6.2513
 10
62.7874
 20
6.1685
 10
62.7808
 20
6.0869
 10
62.7726
 20
6.0064
 10
62.7626
 20
5.9272
 10
62.7509
 20
5.8492
 10
62.7375
 20
5.7723
 10
62.7224
 20
5.6967
 10
62.7055
 20
5.6222
 10
62.6869
 20
5.5489
 10
62.6666
 20
5.4768
 10
62.6445
 20
5.406
 10
62.6208
 20
5.3363
 10
62.5953
 20
5.2678
 10
62.568
 20
5.2005
 10
62.5391
 20
5.1343
 10
62.5084
 20
5.0694
 10
62.476
 20
5.0057
 10
62.4419
 20
4.9432
 10
62.4061
 20
4.8818
 10
62.3685
 20
4.8217
 10
62.3292
 20
4.7627
 10
62.2882
 20
4.705
 10
62.2455
 20
4.6484
 10
62.201
 20
4.593
 10
62.1548
 20
4.5389
 10
62.1069
 20
4.4859
 10
62.0573
 20
4.4341
 10
62.0059
 20
4.3835
 10
61.9529
 20
4.3341
 10
61.898
 20
4.2859
 10
61.8415
 20
4.2388
 10
61.7833
 20
4.193
 10
61.733
 20
4.1554
 10
61.6828
 20
4.1196
 10
61.6315
 20
4.0847
 10
61.5792
 20
4.0507
 10
61.5258
 20
4.0175
 10
61.4713
 20
3.9853
 10
61.4158
 20
3.9539
 10
61.3591
 20
3.9234
 10
61.3014
 20
3.8938
 10
61.2426
 20
3.8651
 10
61.1828
 20
3.8372
 10
61.1219
 20
3.8103
 10
61.0599
 20
3.7842
 10
60.9968
 20
3.759
 10
60.9326
 20
3.7347
 10
60.8674
 20
3.7113
 10
60.8011
 20
3.6887
 10
60.7338
 20
3.6671
 10
60.6653
 20
3.6463
 10
60.5958
 20
3.6264
 10
60.5252
 20
3.6074
 10
60.4535
 20
3.5893
 10
60.3808
 20
3.572
 10
60.307
 20
3.5557
 10
60.2321
 20
3.5402
 10
60.1561
 20
3.5256
 10
60.0791
 20
3.5119
 10
60.001
 20
3.4991
 10
59.9218
 20
3.4872
 10
59.8416
 20
3.4761
 10
59.7602
 20
3.466
 10
59.6778
 20
3.4567
 10
59.5943
 20
3.4483
 10
59.5098
 20
3.4408
 10
59.4242
 20
3.4342
 10
59.3375
 20
3.4284
 10
59.2497
 20
3.4235
 10
59.1608
 20
3.4196
 10
59.0709
 20
3.4165
  0
ENDSEC
  0
SECTION
  2
OBJECTS
  0
DICTIONARY
  5
A
330
0
100
AcDbDictionary
281
1
  3
ACAD_COLOR
350
B
  3
ACAD_GROUP
350
C
  3
ACAD_LAYOUT
350
D
  3
ACAD_MATERIAL
350
E
  3
ACAD_MLEADERSTYLE
350
F
  3
ACAD_MLINESTYLE
350
10
  3
ACAD_PLOTSETTINGS
350
11
  3
ACAD_PLOTSTYLENAME
350
12
  3
ACAD_SCALELIST
350
14
  3
ACAD_TABLESTYLE
350
15
  3
ACAD_VISUALSTYLE
350
16
  3
EZDXF_META
350
2D
  0
DICTIONARY
  5
B
330
A
100
AcDbDictionary
281
1
  0
DICTIONARY
  5
C
330
A
100
AcDbDictionary
281
1
  0
DICTIONARY
  5
D
330
A
100
AcDbDictionary
281
1
  3
Model
350
1A
  3
Layout1
350
1E
  0
DICTIONARY
  5
E
330
A
100
AcDbDictionary
281
1
  3
ByBlock
350
1F
  3
ByLayer
350
20
  3
Global
350
21
  0
DICTIONARY
  5
F
330
A
100
AcDbDictionary
281
1
  3
Standard
350
2C
  0
DICTIONARY
  5
10
330
A
100
AcDbDictionary
281
1
  3
Standard
350
22
  0
DICTIONARY
  5
11
330
A
100
AcDbDictionary
281
1
  0
ACDBDICTIONARYWDFLT
  5
12
330
A
100
AcDbDictionary
281
1
  3
Normal
350
13
100
AcDbDictionaryWithDefault
340
13
  0
ACDBPLACEHOLDER
  5
13
330
12
  0
DICTIONARY
  5
14
330
A
100
AcDbDictionary
281
1
  0
DICTIONARY
  5
15
330
A
100
AcDbDictionary
281
1
  0
DICTIONARY
  5
16
330
A
100
AcDbDictionary
281
1
  0
LAYOUT
  5
1A
330
D
100
AcDbPlotSettings
  1

  4
A3
  6

 40
7.5
 41
20.0
 42
7.5
 43
20.0
 44
420.0
 45
297.0
 46
0.0
 47
0.0
 48
0.0
 49
0.0
140
0.0
141
0.0
142
1.0
143
1.0
 70
1024
 72
1
 73
0
 74
5
  7

 75
16
 76
0
 77
2
 78
300
147
1.0
148
0.0
149
0.0
100
AcDbLayout
  1
Model
 70
1
 71
0
 10
0.0
 20
0.0
 11
420.0
 21
297.0
 12
0.0
 22
0.0
 32
0.0
 14
1e+20
 24
1e+20
 34
1e+20
 15
-1e+20
 25
-1e+20
 35
-1e+20
146
0.0
 13
0.0
 23
0.0
 33
0.0
 16
1.0
 26
0.0
 36
0.0
 17
0.0
 27
1.0
 37
0.0
 76
1
330
17
  0
LAYOUT
  5
1E
330
D
100
AcDbPlotSettings
  1

  4
A3
  6

 40
7.5
 41
20.0
 42
7.5
 43
20.0
 44
420.0
 45
297.0
 46
0.0
 47
0.0
 48
0.0
 49
0.0
140
0.0
141
0.0
142
1.0
143
1.0
 70
0
 72
1
 73
0
 74
5
  7

 75
16
 76
0
 77
2
 78
300
147
1.0
148
0.0
149
0.0
100
AcDbLayout
  1
Layout1
 70
1
 71
1
 10
0.0
 20
0.0
 11
420.0
 21
297.0
 12
0.0
 22
0.0
 32
0.0
 14
1e+20
 24
1e+20
 34
1e+20
 15
-1e+20
 25
-1e+20
 35
-1e+20
146
0.0
 13
0.0
 23
0.0
 33
0.0
 16
1.0
 26
0.0
 36
0.0
 17
0.0
 27
1.0
 37
0.0
 76
1
330
1B
  0
MATERIAL
  5
1F
102
{ACAD_REACTORS
330
E
102
}
330
E
100
AcDbMaterial
  1
ByBlock
  2

 70
0
 40
1.0
 71
1
 41
1.0
 91
-1023410177
 42
1.0
 72
1
  3

 73
1
 74
1
 75
1
 44
0.5
 73
0
 45
1.0
 46
1.0
 77
1
  4

 78
1
 79
1
170
1
 48
1.0
171
1
  6

172
1
173
1
174
1
140
1.0
141
1.0
175
1
  7

176
1
177
1
178
1
143
1.0
179
1
  8

270
1
271
1
272
1
145
1.0
146
1.0
273
1
  9

274
1
275
1
276
1
 42
1.0
 72
1
  3

 73
1
 74
1
 75
1
 94
63
  0
MATERIAL
  5
20
102
{ACAD_REACTORS
330
E
102
}
330
E
100
AcDbMaterial
  1
ByLayer
  2

 70
0
 40
1.0
 71
1
 41
1.0
 91
-1023410177
 42
1.0
 72
1
  3

 73
1
 74
1
 75
1
 44
0.5
 73
0
 45
1.0
 46
1.0
 77
1
  4

 78
1
 79
1
170
1
 48
1.0
171
1
  6

172
1
173
1
174
1
140
1.0
141
1.0
175
1
  7

176
1
177
1
178
1
143
1.0
179
1
  8

270
1
271
1
272
1
145
1.0
146
1.0
273
1
  9

274
1
275
1
276
1
 42
1.0
 72
1
  3

 73
1
 74
1
 75
1
 94
63
  0
MATERIAL
  5
21
102
{ACAD_REACTORS
330
E
102
}
330
E
100
AcDbMaterial
  1
Global
  2

 70
0
 40
1.0
 71
1
 41
1.0
 91
-1023410177
 42
1.0
 72
1
  3

 73
1
 74
1
 75
1
 44
0.5
 73
0
 45
1.0
 46
1.0
 77
1
  4

 78
1
 79
1
170
1
 48
1.0
171
1
  6

172
1
173
1
174
1
140
1.0
141
1.0
175
1
  7

176
1
177
1
178
1
143
1.0
179
1
  8

270
1
271
1
272
1
145
1.0
146
1.0
273
1
  9

274
1
275
1
276
1
 42
1.0
 72
1
  3

 73
1
 74
1
 75
1
 94
63
  0
MLINESTYLE
  5
22
102
{ACAD_REACTORS
330
10
102
}
330
10
100
AcDbMlineStyle
  2
Standard
 70
0
  3

 62
256
 51
90.0
 52
90.0
 71
2
 49
0.5
 62
256
  6
BYLAYER
 49
-0.5
 62
256
  6
BYLAYER
  0
MLEADERSTYLE
  5
2C
102
{ACAD_REACTORS
330
F
102
}
330
F
100
AcDbMLeaderStyle
179
2
170
2
171
1
172
0
 90
2
 40
0.0
 41
0.0
173
1
 91
-1056964608
 92
-2
290
1
 42
2.0
291
1
 43
8.0
  3
Standard
 44
4.0
300

342
29
174
1
175
1
176
0
178
1
 93
-1056964608
 45
4.0
292
0
297
0
 46
4.0
 94
-1056964608
 47
1.0
 49
1.0
140
1.0
294
1
141
0.0
177
0
142
1.0
295
0
296
0
143
3.75
271
0
272
9
273
9
  0
DICTIONARY
  5
2D
330
A
100
AcDbDictionary
280
1
281
1
  3
CREATED_BY_EZDXF
350
2E
  3
WRITTEN_BY_EZDXF
350
5E
  0
DICTIONARYVAR
  5
2E
330
2D
100
DictionaryVariables
280
0
  1
0.0 @ 2000-01-01T00:00:00.000000+00:00
  0
DICTIONARYVAR
  5
5E
330
2D
100
DictionaryVariables
280
0
  1
0.0 @ 2000-01-01T00:00:00.000000+00:00
  0
ENDSEC
  0
EOF
