  0
SECTION
  2
HEADER
  9
$ACADVER
  1
AC1024
  9
$ACADMAINTVER
 70
6
  9
$DWGCODEPAGE
  3
ANSI_1252
  9
$LASTSAVEDBY
  1
ezdxf
  9
$INSBASE
 10
0.0
 20
0.0
 30
0.0
  9
$EXTMIN
 10
1e+20
 20
1e+20
 30
1e+20
  9
$EXTMAX
 10
-1e+20
 20
-1e+20
 30
-1e+20
  9
$LIMMIN
 10
0.0
 20
0.0
  9
$LIMMAX
 10
420.0
 20
297.0
  9
$ORTHOMODE
 70
0
  9
$REGENMODE
 70
1
  9
$FILLMODE
 70
1
  9
$QTEXTMODE
 70
0
  9
$MIRRTEXT
 70
1
  9
$LTSCALE
 40
1.0
  9
$ATTMODE
 70
1
  9
$TEXTSIZE
 40
2.5
  9
$TRACEWID
 40
1.0
  9
$TEXTSTYLE
  7
Standard
  9
$CLAYER
  8
0
  9
$CELTYPE
  6
ByLayer
  9
$CECOLOR
 62
256
  9
$CELTSCALE
 40
1.0
  9
$DISPSILH
 70
0
  9
$DIMSCALE
 40
1.0
  9
$DIMASZ
 40
2.5
  9
$DIMEXO
 40
0.625
  9
$DIMDLI
 40
3.75
  9
$DIMRND
 40
0.0
  9
$DIMDLE
 40
0.0
  9
$DIMEXE
 40
1.25
  9
$DIMTP
 40
0.0
  9
$DIMTM
 40
0.0
  9
$DIMTXT
 40
2.5
  9
$DIMCEN
 40
2.5
  9
$DIMTSZ
 40
0.0
  9
$DIMTOL
 70
0
  9
$DIMLIM
 70
0
  9
$DIMTIH
 70
0
  9
$DIMTOH
 70
0
  9
$DIMSE1
 70
0
  9
$DIMSE2
 70
0
  9
$DIMTAD
 70
1
  9
$DIMZIN
 70
8
  9
$DIMBLK
  1

  9
$DIMASO
 70
1
  9
$DIMSHO
 70
1
  9
$DIMPOST
  1

  9
$DIMAPOST
  1

  9
$DIMALT
 70
0
  9
$DIMALTD
 70
3
  9
$DIMALTF
 40
0.03937007874
  9
$DIMLFAC
 40
1.0
  9
$DIMTOFL
 70
1
  9
$DIMTVP
 40
0.0
  9
$DIMTIX
 70
0
  9
$DIMSOXD
 70
0
  9
$DIMSAH
 70
0
  9
$DIMBLK1
  1

  9
$DIMBLK2
  1

  9
$DIMSTYLE
  2
ISO-25
  9
$DIMCLRD
 70
0
  9
$DIMCLRE
 70
0
  9
$DIMCLRT
 70
0
  9
$DIMTFAC
 40
1.0
  9
$DIMGAP
 40
0.625
  9
$DIMJUST
 70
0
  9
$DIMSD1
 70
0
  9
$DIMSD2
 70
0
  9
$DIMTOLJ
 70
0
  9
$DIMTZIN
 70
8
  9
$DIMALTZ
 70
0
  9
$DIMALTTZ
 70
0
  9
$DIMUPT
 70
0
  9
$DIMDEC
 70
2
  9
$DIMTDEC
 70
2
  9
$DIMALTU
 70
2
  9
$DIMALTTD
 70
3
  9
$DIMTXSTY
  7
Standard
  9
$DIMAUNIT
 70
0
  9
$DIMADEC
 70
0
  9
$DIMALTRND
 40
0.0
  9
$DIMAZIN
 70
0
  9
$DIMDSEP
 70
44
  9
$DIMATFIT
 70
3
  9
$DIMFRAC
 70
0
  9
$DIMLDRBLK
  1

  9
$DIMLUNIT
 70
2
  9
$DIMLWD
 70
-2
  9
$DIMLWE
 70
-2
  9
$DIMTMOVE
 70
0
  9
$DIMFXL
 40
1.0
  9
$DIMFXLON
 70
0
  9
$DIMJOGANG
 40
0.785398163397
  9
$DIMTFILL
 70
0
  9
$DIMTFILLCLR
 70
0
  9
$DIMARCSYM
 70
0
  9
$DIMLTYPE
  6

  9
$DIMLTEX1
  6

  9
$DIMLTEX2
  6

  9
$DIMTXTDIRECTION
 70
0
  9
$LUNITS
 70
2
  9
$LUPREC
 70
4
  9
$SKETCHINC
 40
1.0
  9
$FILLETRAD
 40
10.0
  9
$AUNITS
 70
0
  9
$AUPREC
 70
2
  9
$MENU
  1
.
  9
$ELEVATION
 40
0.0
  9
$PELEVATION
 40
0.0
  9
$THICKNESS
 40
0.0
  9
$LIMCHECK
 70
0
  9
$CHAMFERA
 40
0.0
  9
$CHAMFERB
 40
0.0
  9
$CHAMFERC
 40
0.0
  9
$CHAMFERD
 40
0.0
  9
$SKPOLY
 70
0
  9
$TDCREATE
 40
2451545.0
  9
$TDUCREATE
 40
2451545.0
  9
$TDUPDATE
 40
2451545.0
  9
$TDUUPDATE
 40
2451545.0
  9
$TDINDWG
 40
0.0
  9
$TDUSRTIMER
 40
0.0
  9
$USRTIMER
 70
1
  9
$ANGBASE
 50
0.0
  9
$ANGDIR
 70
0
  9
$PDMODE
 70
0
  9
$PDSIZE
 40
0.0
  9
$PLINEWID
 40
0.0
  9
$SPLFRAME
 70
0
  9
$SPLINETYPE
 70
6
  9
$SPLINESEGS
 70
8
  9
$HANDSEED
  5
5F
  9
$SURFTAB1
 70
6
  9
$SURFTAB2
 70
6
  9
$SURFTYPE
 70
6
  9
$SURFU
 70
6
  9
$SURFV
 70
6
  9
$UCSBASE
  2

  9
$UCSNAME
  2

  9
$UCSORG
 10
0.0
 20
0.0
 30
0.0
  9
$UCSXDIR
 10
1.0
 20
0.0
 30
0.0
  9
$UCSYDIR
 10
0.0
 20
1.0
 30
0.0
  9
$UCSORTHOREF
  2

  9
$UCSORTHOVIEW
 70
0
  9
$UCSORGTOP
 10
0.0
 20
0.0
 30
0.0
  9
$UCSORGBOTTOM
 10
0.0
 20
0.0
 30
0.0
  9
$UCSORGLEFT
 10
0.0
 20
0.0
 30
0.0
  9
$UCSORGRIGHT
 10
0.0
 20
0.0
 30
0.0
  9
$UCSORGFRONT
 10
0.0
 20
0.0
 30
0.0
  9
$UCSORGBACK
 10
0.0
 20
0.0
 30
0.0
  9
$PUCSBASE
  2

  9
$PUCSNAME
  2

  9
$PUCSORG
 10
0.0
 20
0.0
 30
0.0
  9
$PUCSXDIR
 10
1.0
 20
0.0
 30
0.0
  9
$PUCSYDIR
 10
0.0
 20
1.0
 30
0.0
  9
$PUCSORTHOREF
  2

  9
$PUCSORTHOVIEW
 70
0
  9
$PUCSORGTOP
 10
0.0
 20
0.0
 30
0.0
  9
$PUCSORGBOTTOM
 10
0.0
 20
0.0
 30
0.0
  9
$PUCSORGLEFT
 10
0.0
 20
0.0
 30
0.0
  9
$PUCSORGRIGHT
 10
0.0
 20
0.0
 30
0.0
  9
$PUCSORGFRONT
 10
0.0
 20
0.0
 30
0.0
  9
$PUCSORGBACK
 10
0.0
 20
0.0
 30
0.0
  9
$USERI1
 70
0
  9
$USERI2
 70
0
  9
$USERI3
 70
0
  9
$USERI4
 70
0
  9
$USERI5
 70
0
  9
$USERR1
 40
0.0
  9
$USERR2
 40
0.0
  9
$USERR3
 40
0.0
  9
$USERR4
 40
0.0
  9
$USERR5
 40
0.0
  9
$WORLDVIEW
 70
1
  9
$SHADEDGE
 70
3
  9
$SHADEDIF
 70
70
  9
$TILEMODE
 70
1
  9
$MAXACTVP
 70
64
  9
$PINSBASE
 10
0.0
 20
0.0
 30
0.0
  9
$PLIMCHECK
 70
0
  9
$PEXTMIN
 10
1e+20
 20
1e+20
 30
1e+20
  9
$PEXTMAX
 10
-1e+20
 20
-1e+20
 30
-1e+20
  9
$PLIMMIN
 10
0.0
 20
0.0
  9
$PLIMMAX
 10
420.0
 20
297.0
  9
$UNITMODE
 70
0
  9
$VISRETAIN
 70
1
  9
$PLINEGEN
 70
0
  9
$PSLTSCALE
 70
1
  9
$TREEDEPTH
 70
3020
  9
$CMLSTYLE
  2
Standard
  9
$CMLJUST
 70
0
  9
$CMLSCALE
 40
20.0
  9
$PROXYGRAPHICS
 70
1
  9
$MEASUREMENT
 70
1
  9
$CELWEIGHT
370
-1
  9
$ENDCAPS
280
0
  9
$JOINSTYLE
280
0
  9
$LWDISPLAY
290
0
  9
$INSUNITS
 70
4
  9
$HYPERLINKBASE
  1

  9
$STYLESHEET
  1

  9
$XEDIT
290
1
  9
$CEPSNTYPE
380
0
  9
$PSTYLEMODE
290
1
  9
$FINGERPRINTGUID
  2
{00000000-0000-0000-0000-000000000000}
  9
$VERSIONGUID
  2
{00000000-0000-0000-0000-000000000000}
  9
$EXTNAMES
290
1
  9
$PSVPSCALE
 40
0.0
  9
$OLESTARTUP
290
0
  9
$SORTENTS
280
127
  9
$INDEXCTL
280
0
  9
$HIDETEXT
280
1
  9
$XCLIPFRAME
280
1
  9
$HALOGAP
280
0
  9
$OBSCOLOR
 70
257
  9
$OBSLTYPE
280
0
  9
$INTERSECTIONDISPLAY
280
0
  9
$INTERSECTIONCOLOR
 70
257
  9
$DIMASSOC
280
2
  9
$PROJECTNAME
  1

  9
$CAMERADISPLAY
290
0
  9
$LENSLENGTH
 40
50.0
  9
$CAMERAHEIGHT
 40
0.0
  9
$STEPSPERSEC
 40
24.0
  9
$STEPSIZE
 40
100.0
  9
$3DDWFPREC
 40
2.0
  9
$PSOLWIDTH
 40
0.005
  9
$PSOLHEIGHT
 40
0.08
  9
$LOFTANG1
 40
1.570796326795
  9
$LOFTANG2
 40
1.570796326795
  9
$LOFTMAG1
 40
0.0
  9
$LOFTMAG2
 40
0.0
  9
$LOFTPARAM
 70
7
  9
$LOFTNORMALS
280
1
  9
$LATITUDE
 40
37.795
  9
$LONGITUDE
 40
-122.394
  9
$NORTHDIRECTION
 40
0.0
  9
$TIMEZONE
 70
-8000
  9
$LIGHTGLYPHDISPLAY
280
1
  9
$TILEMODELIGHTSYNCH
280
1
  9
$CMATERIAL
347
20
  9
$SOLIDHIST
280
0
  9
$SHOWHIST
280
1
  9
$DWFFRAME
280
2
  9
$DGNFRAME
280
2
  9
$REALWORLDSCALE
290
1
  9
$INTERFERECOLOR
 62
256
  9
$CSHADOW
280
0
  9
$SHADOWPLANELOCATION
 40
0.0
  0
ENDSEC
  0
SECTION
  2
CLASSES
  0
CLASS
  1
ACDBDICTIONARYWDFLT
  2
AcDbDictionaryWithDefault
  3
ObjectDBX Classes
 90
0
 91
0
280
0
281
0
  0
CLASS
  1
SUN
  2
AcDbSun
  3
SCENEOE
 90
1153
 91
0
280
0
281
0
  0
CLASS
  1
VISUALSTYLE
  2
AcDbVisualStyle
  3
ObjectDBX Classes
 90
4095
 91
0
280
0
281
0
  0
CLASS
  1
MATERIAL
  2
AcDbMaterial
  3
ObjectDBX Classes
 90
1153
 91
0
280
0
281
0
  0
CLASS
  1
SCALE
  2
AcDbScale
  3
ObjectDBX Classes
 90
1153
 91
0
280
0
281
0
  0
CLASS
  1
TABLESTYLE
  2
AcDbTableStyle
  3
ObjectDBX Classes
 90
4095
 91
0
280
0
281
0
  0
CLASS
  1
MLEADERSTYLE
  2
AcDbMLeaderStyle
  3
ACDB_MLEADERSTYLE_CLASS
 90
4095
 91
0
280
0
281
0
  0
CLASS
  1
DICTIONARYVAR
  2
AcDbDictionaryVar
  3
ObjectDBX Classes
 90
0
 91
0
280
0
281
0
  0
CLASS
  1
CELLSTYLEMAP
  2
AcDbCellStyleMap
  3
ObjectDBX Classes
 90
1152
 91
0
280
0
281
0
  0
CLASS
  1
MENTALRAYRENDERSETTINGS
  2
AcDbMentalRayRenderSettings
  3
SCENEOE
 90
1024
 91
0
280
0
281
0
  0
CLASS
  1
ACDBDETAILVIEWSTYLE
  2
AcDbDetailViewStyle
  3
ObjectDBX Classes
 90
1025
 91
0
280
0
281
0
  0
CLASS
  1
ACDBSECTIONVIEWSTYLE
  2
AcDbSectionViewStyle
  3
ObjectDBX Classes
 90
1025
 91
0
280
0
281
0
  0
CLASS
  1
RASTERVARIABLES
  2
AcDbRasterVariables
  3
ISM
 90
0
 91
0
280
0
281
0
  0
CLASS
  1
ACDBPLACEHOLDER
  2
AcDbPlaceHolder
  3
ObjectDBX Classes
 90
0
 91
0
280
0
281
0
  0
CLASS
  1
LAYOUT
  2
AcDbLayout
  3
ObjectDBX Classes
 90
0
 91
0
280
0
281
0
  0
ENDSEC
  0
SECTION
  2
TABLES
  0
TABLE
  2
VPORT
  5
8
330
0
100
AcDbSymbolTable
 70
1
  0
VPORT
  5
23
330
8
100
AcDbSymbolTableRecord
100
AcDbViewportTableRecord
  2
*Active
 70
0
 10
0.0
 20
0.0
 11
1.0
 21
1.0
 12
0.0
 22
0.0
 13
0.0
 23
0.0
 14
0.5
 24
0.5
 15
0.5
 25
0.5
 16
0.0
 26
0.0
 36
1.0
 17
0.0
 27
0.0
 37
0.0
 40
1000.0
 41
1.34
 42
50.0
 43
0.0
 44
0.0
 50
0.0
 51
0.0
 71
0
 72
1000
 73
1
 74
3
 75
0
 76
0
 77
0
 78
0
281
0
 65
0
146
0.0
  0
ENDTAB
  0
TABLE
  2
LTYPE
  5
2
330
0
100
AcDbSymbolTable
 70
3
  0
LTYPE
  5
24
330
2
100
AcDbSymbolTableRecord
100
AcDbLinetypeTableRecord
  2
ByBlock
 70
0
  3

 72
65
 73
0
 40
0.0
  0
LTYPE
  5
25
330
2
100
AcDbSymbolTableRecord
100
AcDbLinetypeTableRecord
  2
ByLayer
 70
0
  3

 72
65
 73
0
 40
0.0
  0
LTYPE
  5
26
330
2
100
AcDbSymbolTableRecord
100
AcDbLinetypeTableRecord
  2
Continuous
 70
0
  3

 72
65
 73
0
 40
0.0
  0
ENDTAB
  0
TABLE
  2
LAYER
  5
1
330
0
100
AcDbSymbolTable
 70
3
  0
LAYER
  5
27
330
1
100
AcDbSymbolTableRecord
100
AcDbLayerTableRecord
  2
0
 70
0
 62
7
  6
Continuous
370
-3
390
13
347
21
  0
LAYER
  5
28
330
1
100
AcDbSymbolTableRecord
100
AcDbLayerTableRecord
  2
Defpoints
 70
0
 62
7
  6
Continuous
290
0
370
-3
390
13
347
21
  0
LAYER
  5
2F
330
1
100
AcDbSymbolTableRecord
100
AcDbLayerTableRecord
  2
OUTLINE
 70
0
 62
7
  6
Continuous
370
-3
390
13
347
21
  0
ENDTAB
  0
TABLE
  2
STYLE
  5
5
330
0
100
AcDbSymbolTable
 70
1
  0
STYLE
  5
29
330
5
100
AcDbSymbolTableRecord
100
AcDbTextStyleTableRecord
  2
Standard
 70
0
 40
0.0
 41
1.0
 50
0.0
 71
0
 42
2.5
  3
txt
  4

  0
ENDTAB
  0
TABLE
  2
VIEW
  5
7
330
0
100
AcDbSymbolTable
 70
0
  0
ENDTAB
  0
TABLE
  2
UCS
  5
6
330
0
100
AcDbSymbolTable
 70
0
  0
ENDTAB
  0
TABLE
  2
APPID
  5
3
330
0
100
AcDbSymbolTable
 70
3
  0
APPID
  5
2A
330
3
100
AcDbSymbolTableRecord
100
AcDbRegAppTableRecord
  2
ACAD
 70
0
  0
APPID
  5
5C
330
3
100
AcDbSymbolTableRecord
100
AcDbRegAppTableRecord
  2
HATCHBACKGROUNDCOLOR
 70
0
  0
APPID
  5
5D
330
3
100
AcDbSymbolTableRecord
100
AcDbRegAppTableRecord
  2
EZDXF
 70
0
  0
ENDTAB
  0
TABLE
  2
DIMSTYLE
  5
4
330
0
100
AcDbSymbolTable
 70
1
100
AcDbDimStyleTable
  0
DIMSTYLE
105
2B
330
4
100
AcDbSymbolTableRecord
100
AcDbDimStyleTableRecord
  2
Standard
 70
0
 40
1.0
 41
2.5
 42
0.625
 43
3.75
 44
1.25
 45
0.0
 46
0.0
 47
0.0
 48
0.0
 49
2.5
140
2.5
141
2.5
142
0.0
143
0.03937007874
144
1.0
145
0.0
146
1.0
147
0.625
148
0.0
 69
0
 70
0
 71
0
 72
0
 73
0
 74
0
 75
0
 76
0
 77
1
 78
8
 79
3
170
0
171
3
172
1
173
0
174
0
175
0
176
0
177
0
178
0
179
2
271
2
272
2
273
2
274
3
275
0
276
0
277
2
278
44
279
0
280
0
281
0
282
0
283
0
284
8
285
0
286
0
288
0
289
3
290
0
371
-2
372
-2
  0
ENDTAB
  0
TABLE
  2
BLOCK_RECORD
  5
9
330
0
100
AcDbSymbolTable
 70
2
  0
BLOCK_RECORD
  5
17
330
9
100
AcDbSymbolTableRecord
100
AcDbBlockTableRecord
  2
*Model_Space
340
1A
 70
0
280
1
281
0
  0
BLOCK_RECORD
  5
1B
330
9
100
AcDbSymbolTableRecord
100
AcDbBlockTableRecord
  2
*Paper_Space
340
1E
 70
0
280
1
281
0
  0
ENDTAB
  0
ENDSEC
  0
SECTION
  2
BLOCKS
  0
BLOCK
  5
18
330
17
100
AcDbEntity
  8
0
100
AcDbBlockBegin
  2
*Model_Space
 70
0
 10
0.0
 20
0.0
 30
0.0
  3
*Model_Space
  1

  0
ENDBLK
  5
19
330
17
100
AcDbEntity
  8
0
100
AcDbBlockEnd
  0
BLOCK
  5
1C
330
1B
100
AcDbEntity
  8
0
100
AcDbBlockBegin
  2
*Paper_Space
 70
0
 10
0.0
 20
0.0
 30
0.0
  3
*Paper_Space
  1

  0
ENDBLK
  5
1D
330
1B
100
AcDbEntity
  8
0
100
AcDbBlockEnd
  0
ENDSEC
  0
SECTION
  2
ENTITIES
  0
SPLINE
  5
30
330
17
100
AcDbEntity
  8
OUTLINE
100
AcDbSpline
 70
0
 71
3
 72
8
 73
4
 74
0
 40
0.0
 40
0.0
 40
0.0
 40
0.0
 40
1.0
 40
1.0
 40
1.0
 40
1.0
 10
37.02735957734903
 20
24.13017927128324
 30
0.0
 10
37.035859319618005
 20
24.121679529014266
 30
0.0
 10
37.0421805201855
 20
24.078284562401464
 30
0.0
 10
37.04391972502596
 20
24.044529621942942
 30
0.0
  0
SPLINE
  5
31
330
17
100
AcDbEntity
  8
OUTLINE
100
AcDbSpline
 70
0
 71
3
 72
8
 73
4
 74
0
 40
0.0
 40
0.0
 40
0.0
 40
0.0
 40
1.0
 40
1.0
 40
1.0
 40
1.0
 10
37.04391972502596
 20
24.044529621942942
 30
0.0
 10
37.04988695387476
 20
23.928716090489978
 30
0.0
 10
37.02494239850912
 20
23.768885647426345
 30
0.0
 10
36.998972851872665
 20
23.640394734284328
 30
0.0
  0
SPLINE
  5
32
330
17
100
AcDbEntity
  8
OUTLINE
100
AcDbSpline
 70
0
 71
3
 72
8
 73
4
 74
0
 40
0.0
 40
0.0
 40
0.0
 40
0.0
 40
1.0
 40
1.0
 40
1.0
 40
1.0
 10
36.998972851872665
 20
23.640394734284328
 30
0.0
 10
36.92439958482176
 20
23.271424597319886
 30
0.0
 10
36.78902742451365
 20
22.86190000731467
 30
0.0
 10
36.63432722182342
 20
22.450526576907755
 30
0.0
  0
SPLINE
  5
33
330
17
100
AcDbEntity
  8
OUTLINE
100
AcDbSpline
 70
0
 71
3
 72
8
 73
4
 74
0
 40
0.0
 40
0.0
 40
0.0
 40
0.0
 40
1.0
 40
1.0
 40
1.0
 40
1.0
 10
36.63432722182342
 20
22.450526576907755
 30
0.0
 10
36.31771672658736
 20
21.608606894430768
 30
0.0
 10
35.89029353800131
 20
20.69443089664187
 30
0.0
 10
35.38277513993127
 20
19.72943231315614
 30
0.0
  0
SPLINE
  5
34
330
17
100
AcDbEntity
  8
OUTLINE
100
AcDbSpline
 70
0
 71
3
 72
8
 73
4
 74
0
 40
0.0
 40
0.0
 40
0.0
 40
0.0
 40
1.0
 40
1.0
 40
1.0
 40
1.0
 10
35.38277513993127
 20
19.72943231315614
 30
0.0
 10
34.41300690850457
 20
17.885509071762485
 30
0.0
 10
33.25500796360582
 20
16.09439449329939
 30
0.0
 10
32.29300349235071
 20
14.78083176454927
 30
0.0
  0
LINE
  5
35
330
17
100
AcDbEntity
  8
OUTLINE
100
AcDbLine
 10
32.29300349235071
 20
14.78083176454927
 30
0.0
 11
31.86873942363878
 21
15.205095833261199
 31
0.0
  0
ARC
  5
36
330
17
100
AcDbEntity
  8
OUTLINE
100
AcDbCircle
 10
28.3911718694278
 20
15.493991563362009
 30
0.0
 40
3.4895467953548627
100
AcDbArc
 50
-4.748889775063431
 51
94.74888977506346
  0
LINE
  5
37
330
17
100
AcDbEntity
  8
OUTLINE
100
AcDbLine
 10
28.10227613932699
 20
18.971559117572987
 30
0.0
 11
27.67801207061506
 21
19.395823186284915
 31
0.0
  0
SPLINE
  5
38
330
17
100
AcDbEntity
  8
OUTLINE
100
AcDbSpline
 70
0
 71
3
 72
8
 73
4
 74
0
 40
0.0
 40
0.0
 40
0.0
 40
0.0
 40
1.0
 40
1.0
 40
1.0
 40
1.0
 10
27.67801207061506
 20
19.395823186284915
 30
0.0
 10
28.99157479936518
 20
20.35782765754003
 30
0.0
 10
30.782689377828277
 20
21.51582660243878
 30
0.0
 10
32.62661261922193
 20
22.48559483386548
 30
0.0
  0
SPLINE
  5
39
330
17
100
AcDbEntity
  8
OUTLINE
100
AcDbSpline
 70
0
 71
3
 72
8
 73
4
 74
0
 40
0.0
 40
0.0
 40
0.0
 40
0.0
 40
1.0
 40
1.0
 40
1.0
 40
1.0
 10
32.62661261922193
 20
22.48559483386548
 30
0.0
 10
33.591611202707654
 20
22.99311323193552
 30
0.0
 10
34.505787200496556
 20
23.420536420521568
 30
0.0
 10
35.34770688297355
 20
23.737146915757627
 30
0.0
  0
SPLINE
  5
3A
330
17
100
AcDbEntity
  8
OUTLINE
100
AcDbSpline
 70
0
 71
3
 72
8
 73
4
 74
0
 40
0.0
 40
0.0
 40
0.0
 40
0.0
 40
1.0
 40
1.0
 40
1.0
 40
1.0
 10
35.34770688297355
 20
23.737146915757627
 30
0.0
 10
35.759080313380466
 20
23.891847118447863
 30
0.0
 10
36.16860490338568
 20
24.027219278755965
 30
0.0
 10
36.53757504035012
 20
24.101792545806877
 30
0.0
  0
SPLINE
  5
3B
330
17
100
AcDbEntity
  8
OUTLINE
100
AcDbSpline
 70
0
 71
3
 72
8
 73
4
 74
0
 40
0.0
 40
0.0
 40
0.0
 40
0.0
 40
1.0
 40
1.0
 40
1.0
 40
1.0
 10
36.53757504035012
 20
24.101792545806877
 30
0.0
 10
36.66606595349214
 20
24.12776209244333
 30
0.0
 10
36.82589639655577
 20
24.152706647808976
 30
0.0
 10
36.941709928008734
 20
24.146739418960166
 30
0.0
  0
SPLINE
  5
3C
330
17
100
AcDbEntity
  8
OUTLINE
100
AcDbSpline
 70
0
 71
3
 72
8
 73
4
 74
0
 40
0.0
 40
0.0
 40
0.0
 40
0.0
 40
1.0
 40
1.0
 40
1.0
 40
1.0
 10
36.941709928008734
 20
24.146739418960166
 30
0.0
 10
36.975464868467256
 20
24.145000214119705
 30
0.0
 10
37.01885983508006
 20
24.138679013552213
 30
0.0
 10
37.02735957734903
 20
24.13017927128324
 30
0.0
  0
LINE
  5
3D
330
17
100
AcDbEntity
  8
OUTLINE
100
AcDbLine
 10
26.25040699113133
 20
20.692440139807825
 30
0.0
 11
24.456030857856373
 21
17.4625630999129
 31
0.0
  0
LINE
  5
3E
330
17
100
AcDbEntity
  8
OUTLINE
100
AcDbLine
 10
24.456030857856373
 20
17.4625630999129
 30
0.0
 11
24.03176678914444
 21
17.886827168624826
 31
0.0
  0
ARC
  5
3F
330
17
100
AcDbEntity
  8
OUTLINE
100
AcDbCircle
 10
22.79593190796284
 20
17.237965056639332
 30
0.0
 40
1.395818718141945
100
AcDbArc
 50
27.70124636964876
 51
62.29875363035124
  0
LINE
  5
40
330
17
100
AcDbEntity
  8
OUTLINE
100
AcDbLine
 10
23.444794019948333
 20
18.473799937820935
 30
0.0
 11
23.020529951236405
 21
18.898064006532863
 31
0.0
  0
LINE
  5
41
330
17
100
AcDbEntity
  8
OUTLINE
100
AcDbLine
 10
23.020529951236405
 20
18.898064006532863
 30
0.0
 11
26.25040699113133
 21
20.692440139807825
 31
0.0
  0
ELLIPSE
  5
42
330
17
100
AcDbEntity
  8
OUTLINE
100
AcDbEllipse
 10
30.47745228772755
 20
10.181335718481483
 30
0.0
 11
-2.590856312376368
 21
-2.5908563123763684
 31
0.0
 40
0.28571428571428575
 41
1.836807823736773
 42
3.141592653589794
  0
LINE
  5
43
330
17
100
AcDbEntity
  8
OUTLINE
100
AcDbLine
 10
31.872758483435753
 20
10.148225715229675
 30
0.0
 11
31.448494414723825
 21
10.572489783941602
 31
0.0
  0
ARC
  5
44
330
17
100
AcDbEntity
  8
OUTLINE
100
AcDbCircle
 10
30.47745228772755
 20
10.181335718481483
 30
0.0
 40
1.0468640386064585
100
AcDbArc
 50
21.940504845626773
 51
68.05949515437332
  0
LINE
  5
45
330
17
100
AcDbEntity
  8
OUTLINE
100
AcDbLine
 10
30.86860635318767
 20
11.152377845477757
 30
0.0
 11
30.44434228447574
 21
11.576641914189684
 31
0.0
  0
ELLIPSE
  5
46
330
17
100
AcDbEntity
  8
OUTLINE
100
AcDbEllipse
 10
30.47745228772755
 20
10.181335718481485
 30
0.0
 11
-2.590856312376368
 21
-2.5908563123763684
 31
0.0
 40
0.28571428571428575
 41
3.1415926535897927
 42
4.446377483442814
  0
ARC
  5
47
330
17
100
AcDbEntity
  8
OUTLINE
100
AcDbCircle
 10
17.57876496010482
 20
18.56117204176957
 30
0.0
 40
11.559123759612977
100
AcDbArc
 50
-38.11988760492966
 51
-13.1092081981543
  0
LINE
  5
48
330
17
100
AcDbEntity
  8
OUTLINE
100
AcDbLine
 10
26.672568037981804
 20
11.42562106999141
 30
0.0
 11
26.248303969269877
 21
11.849885138703339
 31
0.0
  0
ARC
  5
49
330
17
100
AcDbEntity
  8
OUTLINE
100
AcDbCircle
 10
24.518558653970086
 20
11.621378347904296
 30
0.0
 40
1.7447733976774313
100
AcDbArc
 50
7.5254437477147365
 51
82.4745562522852
  0
LINE
  5
4A
330
17
100
AcDbEntity
  8
OUTLINE
100
AcDbLine
 10
24.74706544476913
 20
13.351123663204085
 30
0.0
 11
24.3228013760572
 21
13.775387731916013
 31
0.0
  0
ARC
  5
4B
330
17
100
AcDbEntity
  8
OUTLINE
100
AcDbCircle
 10
31.458352347835365
 20
4.681584654039028
 30
0.0
 40
11.559123759612977
100
AcDbArc
 50
103.10920819815433
 51
128.1198876049297
  0
LWPOLYLINE
  5
4C
330
17
100
AcDbEntity
  8
OUTLINE
100
AcDbPolyline
 90
472
 70
1
 10
9.5021
 20
4.1137
 10
9.5021
 20
4.0689
 10
9.5021
 20
4.0589
 10
9.5021
 20
4.024
 10
9.5021
 20
3.9792
 10
9.5021
 20
3.9638
 10
9.5021
 20
3.9344
 10
9.5021
 20
3.8895
 10
9.5021
 20
3.8688
 10
9.5021
 20
3.8447
 10
9.5021
 20
3.7999
 10
9.5021
 20
3.7551
 10
9.5021
 20
3.7102
 10
9.5021
 20
3.6654
 10
9.5021
 20
3.6206
 10
9.5021
 20
3.5758
 10
9.5021
 20
3.5309
 10
9.5021
 20
3.4861
 10
9.5021
 20
3.4413
 10
9.5021
 20
3.3964
 10
9.5021
 20
3.3516
 10
9.5021
 20
3.3068
 10
9.5021
 20
3.262
 10
9.5021
 20
3.2171
 10
9.5034
 20
3.1734
 10
9.5477
 20
3.1667
 10
9.5921
 20
3.1601
 10
9.6364
 20
3.1534
 10
9.6807
 20
3.1467
 10
9.725
 20
3.14
 10
9.7694
 20
3.1333
 10
9.8137
 20
3.1267
 10
9.858
 20
3.12
 10
9.9023
 20
3.1133
 10
9.9467
 20
3.1066
 10
9.991
 20
3.0999
 10
10.0353
 20
3.0933
 10
10.0797
 20
3.0866
 10
10.124
 20
3.0799
 10
10.1683
 20
3.0732
 10
10.1815
 20
3.0397
 10
10.1815
 20
2.9949
 10
10.1815
 20
2.9501
 10
10.1815
 20
2.9053
 10
10.1815
 20
2.8604
 10
10.1815
 20
2.8156
 10
10.1815
 20
2.7708
 10
10.1815
 20
2.726
 10
10.1815
 20
2.6811
 10
10.1815
 20
2.6363
 10
10.1815
 20
2.5915
 10
10.1815
 20
2.5466
 10
10.1815
 20
2.5018
 10
10.1815
 20
2.457
 10
10.1815
 20
2.4122
 10
10.1815
 20
2.3673
 10
10.1815
 20
2.3225
 10
10.1815
 20
2.2777
 10
10.1815
 20
2.2329
 10
10.1815
 20
2.188
 10
10.1815
 20
2.1432
 10
10.1393
 20
2.1394
 10
10.0945
 20
2.1382
 10
10.0497
 20
2.1371
 10
10.0049
 20
2.1359
 10
9.9601
 20
2.1347
 10
9.9153
 20
2.1335
 10
9.8704
 20
2.1323
 10
9.8256
 20
2.1311
 10
9.7808
 20
2.1299
 10
9.736
 20
2.1287
 10
9.6912
 20
2.1275
 10
9.6464
 20
2.1263
 10
9.6016
 20
2.1251
 10
9.5568
 20
2.1239
 10
9.512
 20
2.1227
 10
9.4671
 20
2.1215
 10
9.4223
 20
2.1203
 10
9.3775
 20
2.1192
 10
9.3327
 20
2.118
 10
9.2879
 20
2.1168
 10
9.2431
 20
2.1156
 10
9.1983
 20
2.1144
 10
9.1535
 20
2.1132
 10
9.1087
 20
2.112
 10
9.0638
 20
2.1108
 10
9.019
 20
2.1096
 10
8.9742
 20
2.1084
 10
8.9294
 20
2.1072
 10
8.8846
 20
2.106
 10
8.8398
 20
2.1048
 10
8.795
 20
2.1036
 10
8.7502
 20
2.1024
 10
8.7054
 20
2.1012
 10
8.6605
 20
2.1001
 10
8.6157
 20
2.0989
 10
8.5709
 20
2.0977
 10
8.5261
 20
2.0965
 10
8.4813
 20
2.0953
 10
8.4365
 20
2.0941
 10
8.4333
 20
2.1388
 10
8.4302
 20
2.1835
 10
8.427
 20
2.2282
 10
8.4238
 20
2.2729
 10
8.4206
 20
2.3177
 10
8.4175
 20
2.3624
 10
8.4143
 20
2.4071
 10
8.4111
 20
2.4518
 10
8.408
 20
2.4965
 10
8.4048
 20
2.5412
 10
8.4016
 20
2.586
 10
8.3985
 20
2.6307
 10
8.3953
 20
2.6754
 10
8.3921
 20
2.7201
 10
8.3889
 20
2.7648
 10
8.3858
 20
2.8095
 10
8.3826
 20
2.8542
 10
8.3794
 20
2.899
 10
8.3763
 20
2.9437
 10
8.3731
 20
2.9884
 10
8.3699
 20
3.0331
 10
8.3668
 20
3.0778
 10
8.3659
 20
3.0898
 10
8.3188
 20
3.0898
 10
8.2636
 20
3.0898
 10
8.2358
 20
3.0492
 10
8.2198
 20
2.9904
 10
8.2023
 20
2.9334
 10
8.1831
 20
2.878
 10
8.1623
 20
2.8244
 10
8.1398
 20
2.7724
 10
8.1158
 20
2.7221
 10
8.0902
 20
2.6736
 10
8.0629
 20
2.6267
 10
8.034
 20
2.5816
 10
8.0035
 20
2.5381
 10
7.9714
 20
2.4963
 10
7.9376
 20
2.4563
 10
7.9023
 20
2.4179
 10
7.8653
 20
2.3813
 10
7.8267
 20
2.3463
 10
7.7864
 20
2.313
 10
7.7438
 20
2.2808
 10
7.7
 20
2.2507
 10
7.655
 20
2.2227
 10
7.6089
 20
2.1968
 10
7.5615
 20
2.173
 10
7.5129
 20
2.1512
 10
7.4632
 20
2.1315
 10
7.4122
 20
2.1139
 10
7.3601
 20
2.0983
 10
7.3067
 20
2.0848
 10
7.2521
 20
2.0734
 10
7.1964
 20
2.0641
 10
7.1394
 20
2.0568
 10
7.0813
 20
2.0516
 10
7.0219
 20
2.0485
 10
6.9614
 20
2.0475
 10
6.898
 20
2.0484
 10
6.8358
 20
2.051
 10
6.7749
 20
2.0554
 10
6.7153
 20
2.0616
 10
6.6569
 20
2.0695
 10
6.5999
 20
2.0791
 10
6.5441
 20
2.0906
 10
6.4895
 20
2.1038
 10
6.4363
 20
2.1187
 10
6.3843
 20
2.1354
 10
6.3336
 20
2.1539
 10
6.2841
 20
2.1741
 10
6.2359
 20
2.1961
 10
6.1891
 20
2.2198
 10
6.1434
 20
2.2453
 10
6.0991
 20
2.2725
 10
6.056
 20
2.3015
 10
6.0142
 20
2.3323
 10
5.9737
 20
2.3648
 10
5.9344
 20
2.3991
 10
5.8964
 20
2.4352
 10
5.8597
 20
2.473
 10
5.8244
 20
2.5123
 10
5.7934
 20
2.5496
 10
5.7637
 20
2.5881
 10
5.7352
 20
2.6278
 10
5.7079
 20
2.6687
 10
5.682
 20
2.7107
 10
5.6572
 20
2.754
 10
5.6338
 20
2.7984
 10
5.6116
 20
2.844
 10
5.5906
 20
2.8908
 10
5.5709
 20
2.9388
 10
5.5524
 20
2.988
 10
5.5352
 20
3.0384
 10
5.5193
 20
3.09
 10
5.5046
 20
3.1427
 10
5.4912
 20
3.1967
 10
5.479
 20
3.2518
 10
5.468
 20
3.3081
 10
5.4584
 20
3.3656
 10
5.4499
 20
3.4243
 10
5.4428
 20
3.4842
 10
5.4369
 20
3.5453
 10
5.4322
 20
3.6075
 10
5.4288
 20
3.671
 10
5.4266
 20
3.7356
 10
5.4258
 20
3.8014
 10
5.4257
 20
3.8591
 10
5.4257
 20
3.9143
 10
5.4257
 20
3.9695
 10
5.4257
 20
4.0247
 10
5.4257
 20
4.0799
 10
5.4257
 20
4.1352
 10
5.4257
 20
4.1904
 10
5.4257
 20
4.2456
 10
5.4257
 20
4.3008
 10
5.4257
 20
4.356
 10
5.4257
 20
4.4112
 10
5.4257
 20
4.4664
 10
5.4257
 20
4.5217
 10
5.4257
 20
4.5769
 10
5.4257
 20
4.6321
 10
5.4257
 20
4.6873
 10
5.4257
 20
4.7425
 10
5.4257
 20
4.7977
 10
5.4257
 20
4.8529
 10
5.4257
 20
4.9082
 10
5.4257
 20
4.9634
 10
5.4257
 20
5.0186
 10
5.4257
 20
5.0738
 10
5.4257
 20
5.129
 10
5.4257
 20
5.1842
 10
5.4257
 20
5.2394
 10
5.4257
 20
5.2946
 10
5.4257
 20
5.3499
 10
5.4257
 20
5.4051
 10
5.4257
 20
5.4603
 10
5.4257
 20
5.5155
 10
5.4257
 20
5.5707
 10
5.4257
 20
5.6259
 10
5.4257
 20
5.6811
 10
5.4257
 20
5.7364
 10
5.4257
 20
5.7916
 10
5.4257
 20
5.8468
 10
5.4257
 20
5.902
 10
5.4257
 20
5.9572
 10
5.4257
 20
6.0124
 10
5.4257
 20
6.0676
 10
5.4257
 20
6.1229
 10
5.4257
 20
6.1781
 10
5.4257
 20
6.2333
 10
5.4257
 20
6.2885
 10
5.4257
 20
6.3437
 10
5.4257
 20
6.3989
 10
5.4257
 20
6.4541
 10
5.4257
 20
6.5093
 10
5.4257
 20
6.5646
 10
5.4257
 20
6.6198
 10
5.4257
 20
6.675
 10
5.4257
 20
6.7302
 10
5.4257
 20
6.7854
 10
5.4257
 20
6.8406
 10
5.4257
 20
6.8958
 10
5.4257
 20
6.9511
 10
5.4257
 20
7.0063
 10
5.4257
 20
7.0615
 10
5.4694
 20
7.0731
 10
5.5246
 20
7.0731
 10
5.5798
 20
7.0731
 10
5.635
 20
7.0731
 10
5.6902
 20
7.0731
 10
5.7454
 20
7.0731
 10
5.8006
 20
7.0731
 10
5.8559
 20
7.0731
 10
5.9111
 20
7.0731
 10
5.9663
 20
7.0731
 10
6.0215
 20
7.0731
 10
6.0767
 20
7.0731
 10
6.1319
 20
7.0731
 10
6.1871
 20
7.0731
 10
6.2423
 20
7.0731
 10
6.2976
 20
7.0731
 10
6.3528
 20
7.0731
 10
6.408
 20
7.0731
 10
6.4632
 20
7.0731
 10
6.5184
 20
7.0731
 10
6.5736
 20
7.0731
 10
6.5751
 20
7.0193
 10
6.5751
 20
6.9641
 10
6.5751
 20
6.9089
 10
6.5751
 20
6.8537
 10
6.5751
 20
6.7985
 10
6.5751
 20
6.7433
 10
6.5751
 20
6.6881
 10
6.5751
 20
6.6329
 10
6.5751
 20
6.5776
 10
6.5751
 20
6.5224
 10
6.5751
 20
6.4672
 10
6.5751
 20
6.412
 10
6.5751
 20
6.3568
 10
6.5751
 20
6.3016
 10
6.5751
 20
6.2464
 10
6.5751
 20
6.1911
 10
6.5751
 20
6.1359
 10
6.5751
 20
6.0807
 10
6.5751
 20
6.0255
 10
6.5751
 20
5.9703
 10
6.5751
 20
5.9151
 10
6.5751
 20
5.8599
 10
6.5751
 20
5.8046
 10
6.5751
 20
5.7494
 10
6.5751
 20
5.6942
 10
6.5751
 20
5.639
 10
6.5751
 20
5.5838
 10
6.5751
 20
5.5286
 10
6.5751
 20
5.4734
 10
6.5751
 20
5.4182
 10
6.5751
 20
5.3629
 10
6.5751
 20
5.3077
 10
6.5751
 20
5.2525
 10
6.5751
 20
5.1973
 10
6.5751
 20
5.1421
 10
6.5751
 20
5.0869
 10
6.5751
 20
5.0317
 10
6.5751
 20
4.9764
 10
6.5751
 20
4.9212
 10
6.5751
 20
4.866
 10
6.5751
 20
4.8108
 10
6.5751
 20
4.7556
 10
6.5751
 20
4.7004
 10
6.5751
 20
4.6452
 10
6.5751
 20
4.5899
 10
6.5751
 20
4.5347
 10
6.5751
 20
4.4795
 10
6.5751
 20
4.4243
 10
6.5751
 20
4.3691
 10
6.5751
 20
4.3139
 10
6.5751
 20
4.2587
 10
6.5751
 20
4.2035
 10
6.5751
 20
4.1482
 10
6.5751
 20
4.093
 10
6.5751
 20
4.0378
 10
6.5753
 20
3.9788
 10
6.5775
 20
3.9145
 10
6.5824
 20
3.8525
 10
6.5899
 20
3.7929
 10
6.6
 20
3.7357
 10
6.6127
 20
3.6808
 10
6.6281
 20
3.6284
 10
6.6461
 20
3.5782
 10
6.6667
 20
3.5305
 10
6.69
 20
3.4851
 10
6.7159
 20
3.4421
 10
6.7444
 20
3.4015
 10
6.7755
 20
3.3632
 10
6.8108
 20
3.3258
 10
6.8495
 20
3.2905
 10
6.8905
 20
3.2584
 10
6.9339
 20
3.2296
 10
6.9795
 20
3.2041
 10
7.0275
 20
3.182
 10
7.0779
 20
3.163
 10
7.1305
 20
3.1474
 10
7.1855
 20
3.1351
 10
7.2427
 20
3.1261
 10
7.3023
 20
3.1203
 10
7.3643
 20
3.1178
 10
7.4273
 20
3.1186
 10
7.4885
 20
3.1223
 10
7.5475
 20
3.1289
 10
7.6045
 20
3.1386
 10
7.6594
 20
3.1512
 10
7.7122
 20
3.1667
 10
7.763
 20
3.1853
 10
7.8116
 20
3.2068
 10
7.8582
 20
3.2312
 10
7.9027
 20
3.2587
 10
7.9452
 20
3.2891
 10
7.9855
 20
3.3224
 10
8.0238
 20
3.3588
 10
8.06
 20
3.3981
 10
8.0942
 20
3.4403
 10
8.121
 20
3.4779
 10
8.1426
 20
3.5118
 10
8.1631
 20
3.5476
 10
8.1825
 20
3.5855
 10
8.2009
 20
3.6253
 10
8.2183
 20
3.6672
 10
8.2346
 20
3.711
 10
8.2498
 20
3.7569
 10
8.264
 20
3.8047
 10
8.2771
 20
3.8545
 10
8.2892
 20
3.9063
 10
8.3003
 20
3.9601
 10
8.3102
 20
4.0159
 10
8.3192
 20
4.0737
 10
8.327
 20
4.1335
 10
8.3339
 20
4.1953
 10
8.3396
 20
4.2591
 10
8.3444
 20
4.3249
 10
8.348
 20
4.3927
 10
8.3506
 20
4.4624
 10
8.3522
 20
4.5342
 10
8.3527
 20
4.5908
 10
8.3527
 20
4.6773
 10
8.3527
 20
4.7724
 10
8.3527
 20
4.8675
 10
8.3527
 20
4.9625
 10
8.3527
 20
5.0576
 10
8.3527
 20
5.1526
 10
8.3527
 20
5.2477
 10
8.3527
 20
5.3428
 10
8.3527
 20
5.4378
 10
8.3527
 20
5.5329
 10
8.3527
 20
5.628
 10
8.3527
 20
5.723
 10
8.3527
 20
5.8181
 10
8.3527
 20
5.9131
 10
8.3527
 20
6.0082
 10
8.3527
 20
6.1033
 10
8.3527
 20
6.1983
 10
8.3527
 20
6.2934
 10
8.3527
 20
6.3885
 10
8.3527
 20
6.4835
 10
8.3527
 20
6.5786
 10
8.3527
 20
6.6736
 10
8.3527
 20
6.7687
 10
8.3527
 20
6.8638
 10
8.3527
 20
6.9588
 10
8.3527
 20
7.0539
 10
8.4286
 20
7.0731
 10
8.5237
 20
7.0731
 10
8.6187
 20
7.0731
 10
8.7138
 20
7.0731
 10
8.8089
 20
7.0731
 10
8.9039
 20
7.0731
 10
8.999
 20
7.0731
 10
9.094
 20
7.0731
 10
9.1891
 20
7.0731
 10
9.2842
 20
7.0731
 10
9.3792
 20
7.0731
 10
9.4743
 20
7.0731
 10
9.5021
 20
7.0058
 10
9.5021
 20
6.9108
 10
9.5021
 20
6.8157
 10
9.5021
 20
6.7206
 10
9.5021
 20
6.6256
 10
9.5021
 20
6.5305
 10
9.5021
 20
6.4355
 10
9.5021
 20
6.3404
 10
9.5021
 20
6.2453
 10
9.5021
 20
6.1503
 10
9.5021
 20
6.0552
 10
9.5021
 20
5.9601
 10
9.5021
 20
5.8651
 10
9.5021
 20
5.77
 10
9.5021
 20
5.675
 10
9.5021
 20
5.5799
 10
9.5021
 20
5.4848
 10
9.5021
 20
5.3898
 10
9.5021
 20
5.2947
 10
9.5021
 20
5.1996
 10
9.5021
 20
5.1046
 10
9.5021
 20
5.0095
 10
9.5021
 20
4.9145
 10
9.5021
 20
4.8194
 10
9.5021
 20
4.7243
 10
9.5021
 20
4.6293
 10
9.5021
 20
4.5342
 10
9.5021
 20
4.4391
 10
9.5021
 20
4.3441
 10
9.5021
 20
4.249
 10
9.5021
 20
4.154
  0
LWPOLYLINE
  5
4D
330
17
100
AcDbEntity
  8
OUTLINE
100
AcDbPolyline
 90
672
 70
1
 10
12.8378
 20
2.0476
 10
12.7873
 20
2.0475
 10
12.7433
 20
2.0476
 10
12.6997
 20
2.0477
 10
12.6566
 20
2.048
 10
12.6139
 20
2.0484
 10
12.5717
 20
2.0488
 10
12.5299
 20
2.0494
 10
12.4886
 20
2.0501
 10
12.4477
 20
2.0509
 10
12.4073
 20
2.0519
 10
12.3673
 20
2.0529
 10
12.3277
 20
2.054
 10
12.2886
 20
2.0553
 10
12.2499
 20
2.0566
 10
12.2117
 20
2.0581
 10
12.1739
 20
2.0596
 10
12.1366
 20
2.0613
 10
12.0997
 20
2.0631
 10
12.0633
 20
2.065
 10
12.0273
 20
2.067
 10
11.9917
 20
2.0691
 10
11.9566
 20
2.0713
 10
11.922
 20
2.0736
 10
11.8878
 20
2.076
 10
11.854
 20
2.0785
 10
11.8207
 20
2.0812
 10
11.7825
 20
2.0844
 10
11.7403
 20
2.0881
 10
11.6985
 20
2.0921
 10
11.6572
 20
2.0962
 10
11.6163
 20
2.1004
 10
11.5759
 20
2.1049
 10
11.536
 20
2.1096
 10
11.4965
 20
2.1144
 10
11.4575
 20
2.1194
 10
11.4189
 20
2.1246
 10
11.3808
 20
2.13
 10
11.3432
 20
2.1355
 10
11.306
 20
2.1413
 10
11.2693
 20
2.1472
 10
11.2331
 20
2.1533
 10
11.1973
 20
2.1596
 10
11.1619
 20
2.166
 10
11.1271
 20
2.1727
 10
11.0927
 20
2.1795
 10
11.0587
 20
2.1865
 10
11.0607
 20
2.2226
 10
11.0655
 20
2.2609
 10
11.0703
 20
2.2992
 10
11.0751
 20
2.3375
 10
11.0799
 20
2.3758
 10
11.0847
 20
2.4141
 10
11.0895
 20
2.4524
 10
11.0942
 20
2.4907
 10
11.099
 20
2.529
 10
11.1038
 20
2.5673
 10
11.1086
 20
2.6056
 10
11.1134
 20
2.6439
 10
11.1182
 20
2.6822
 10
11.123
 20
2.7205
 10
11.1278
 20
2.7588
 10
11.1325
 20
2.7971
 10
11.1373
 20
2.8354
 10
11.1421
 20
2.8737
 10
11.1469
 20
2.912
 10
11.1517
 20
2.9503
 10
11.1565
 20
2.9886
 10
11.1613
 20
3.0269
 10
11.166
 20
3.0652
 10
11.1708
 20
3.1035
 10
11.1756
 20
3.1418
 10
11.1804
 20
3.1801
 10
11.1852
 20
3.2184
 10
11.19
 20
3.2567
 10
11.2241
 20
3.2622
 10
11.268
 20
3.2563
 10
11.3115
 20
3.2504
 10
11.3544
 20
3.2447
 10
11.3969
 20
3.2392
 10
11.4388
 20
3.2337
 10
11.4802
 20
3.2284
 10
11.5211
 20
3.2232
 10
11.5614
 20
3.2181
 10
11.6013
 20
3.2132
 10
11.6406
 20
3.2084
 10
11.6794
 20
3.2037
 10
11.7177
 20
3.1991
 10
11.7555
 20
3.1946
 10
11.7928
 20
3.1903
 10
11.8295
 20
3.1861
 10
11.8658
 20
3.1821
 10
11.9015
 20
3.1781
 10
11.9367
 20
3.1743
 10
11.9714
 20
3.1706
 10
12.0056
 20
3.167
 10
12.0393
 20
3.1636
 10
12.0724
 20
3.1603
 10
12.105
 20
3.1571
 10
12.1417
 20
3.1536
 10
12.1866
 20
3.1494
 10
12.2306
 20
3.1456
 10
12.2739
 20
3.1419
 10
12.3163
 20
3.1386
 10
12.3579
 20
3.1354
 10
12.3987
 20
3.1326
 10
12.4387
 20
3.1299
 10
12.4778
 20
3.1276
 10
12.5161
 20
3.1255
 10
12.5536
 20
3.1236
 10
12.5903
 20
3.122
 10
12.6261
 20
3.1207
 10
12.6611
 20
3.1196
 10
12.6953
 20
3.1187
 10
12.7287
 20
3.1181
 10
12.7612
 20
3.1178
 10
12.7968
 20
3.1177
 10
12.8487
 20
3.118
 10
12.8996
 20
3.1185
 10
12.9493
 20
3.1194
 10
12.9978
 20
3.1207
 10
13.0453
 20
3.1222
 10
13.0916
 20
3.1242
 10
13.1368
 20
3.1264
 10
13.1808
 20
3.129
 10
13.2238
 20
3.1319
 10
13.2656
 20
3.1352
 10
13.3063
 20
3.1388
 10
13.3458
 20
3.1427
 10
13.3842
 20
3.147
 10
13.4215
 20
3.1516
 10
13.4577
 20
3.1565
 10
13.4927
 20
3.1618
 10
13.5266
 20
3.1674
 10
13.5594
 20
3.1733
 10
13.591
 20
3.1796
 10
13.6216
 20
3.1862
 10
13.651
 20
3.1932
 10
13.6792
 20
3.2005
 10
13.7064
 20
3.2081
 10
13.7324
 20
3.2161
 10
13.7573
 20
3.2244
 10
13.7903
 20
3.2366
 10
13.834
 20
3.2552
 10
13.874
 20
3.2754
 10
13.9105
 20
3.2971
 10
13.9433
 20
3.3203
 10
13.9725
 20
3.3451
 10
13.9981
 20
3.3714
 10
14.0201
 20
3.3993
 10
14.0385
 20
3.4287
 10
14.0532
 20
3.4597
 10
14.0644
 20
3.4922
 10
14.0719
 20
3.5263
 10
14.0757
 20
3.5619
 10
14.076
 20
3.6021
 10
14.0724
 20
3.6447
 10
14.0649
 20
3.6843
 10
14.0536
 20
3.7208
 10
14.0384
 20
3.7543
 10
14.0193
 20
3.7847
 10
13.9963
 20
3.812
 10
13.9726
 20
3.834
 10
13.9471
 20
3.8535
 10
13.9186
 20
3.872
 10
13.8869
 20
3.8895
 10
13.8522
 20
3.906
 10
13.8143
 20
3.9216
 10
13.7733
 20
3.9361
 10
13.7292
 20
3.9497
 10
13.6879
 20
3.9611
 10
13.6508
 20
3.9715
 10
13.6136
 20
3.9818
 10
13.5764
 20
3.9922
 10
13.5392
 20
4.0026
 10
13.502
 20
4.0129
 10
13.4649
 20
4.0233
 10
13.4277
 20
4.0337
 10
13.3905
 20
4.044
 10
13.3533
 20
4.0544
 10
13.3161
 20
4.0647
 10
13.279
 20
4.0751
 10
13.2418
 20
4.0855
 10
13.2046
 20
4.0958
 10
13.1674
 20
4.1062
 10
13.1302
 20
4.1166
 10
13.0931
 20
4.1269
 10
13.0559
 20
4.1373
 10
13.0187
 20
4.1476
 10
12.9815
 20
4.158
 10
12.9443
 20
4.1684
 10
12.9072
 20
4.1787
 10
12.87
 20
4.1891
 10
12.8328
 20
4.1995
 10
12.7956
 20
4.2098
 10
12.7584
 20
4.2202
 10
12.7213
 20
4.2306
 10
12.6841
 20
4.2409
 10
12.6469
 20
4.2513
 10
12.6097
 20
4.2616
 10
12.5725
 20
4.272
 10
12.5354
 20
4.2824
 10
12.4982
 20
4.2927
 10
12.461
 20
4.3031
 10
12.4238
 20
4.3135
 10
12.3866
 20
4.3238
 10
12.3495
 20
4.3342
 10
12.3123
 20
4.3445
 10
12.2719
 20
4.3558
 10
12.2271
 20
4.3688
 10
12.1831
 20
4.3822
 10
12.1401
 20
4.396
 10
12.098
 20
4.4101
 10
12.0568
 20
4.4246
 10
12.0165
 20
4.4395
 10
11.9772
 20
4.4547
 10
11.9387
 20
4.4703
 10
11.9011
 20
4.4863
 10
11.8645
 20
4.5027
 10
11.8287
 20
4.5194
 10
11.7939
 20
4.5365
 10
11.76
 20
4.554
 10
11.727
 20
4.5719
 10
11.6949
 20
4.5901
 10
11.6637
 20
4.6087
 10
11.6334
 20
4.6277
 10
11.604
 20
4.6471
 10
11.5756
 20
4.6668
 10
11.548
 20
4.6869
 10
11.5214
 20
4.7074
 10
11.4956
 20
4.7282
 10
11.4708
 20
4.7494
 10
11.4469
 20
4.771
 10
11.4239
 20
4.793
 10
11.3999
 20
4.8174
 10
11.3761
 20
4.8436
 10
11.3534
 20
4.8707
 10
11.3318
 20
4.8987
 10
11.3113
 20
4.9276
 10
11.2919
 20
4.9574
 10
11.2736
 20
4.9881
 10
11.2564
 20
5.0197
 10
11.2403
 20
5.0522
 10
11.2254
 20
5.0857
 10
11.2115
 20
5.12
 10
11.1987
 20
5.1552
 10
11.187
 20
5.1913
 10
11.1764
 20
5.2284
 10
11.167
 20
5.2663
 10
11.1586
 20
5.3052
 10
11.1513
 20
5.3449
 10
11.1451
 20
5.3856
 10
11.14
 20
5.4271
 10
11.1361
 20
5.4696
 10
11.1332
 20
5.5129
 10
11.1314
 20
5.5572
 10
11.1308
 20
5.6024
 10
11.1311
 20
5.6459
 10
11.1325
 20
5.6887
 10
11.1348
 20
5.7308
 10
11.1381
 20
5.7723
 10
11.1423
 20
5.8131
 10
11.1475
 20
5.8534
 10
11.1536
 20
5.893
 10
11.1608
 20
5.932
 10
11.1688
 20
5.9703
 10
11.1779
 20
6.0081
 10
11.1879
 20
6.0452
 10
11.1989
 20
6.0817
 10
11.2108
 20
6.1175
 10
11.2237
 20
6.1528
 10
11.2376
 20
6.1874
 10
11.2524
 20
6.2214
 10
11.2682
 20
6.2547
 10
11.285
 20
6.2874
 10
11.3027
 20
6.3196
 10
11.3214
 20
6.351
 10
11.341
 20
6.3819
 10
11.3616
 20
6.4121
 10
11.3832
 20
6.4417
 10
11.4057
 20
6.4707
 10
11.4292
 20
6.4991
 10
11.4537
 20
6.5268
 10
11.4791
 20
6.5539
 10
11.5055
 20
6.5804
 10
11.5328
 20
6.6063
 10
11.5611
 20
6.6315
 10
11.5904
 20
6.6561
 10
11.6207
 20
6.6801
 10
11.6519
 20
6.7035
 10
11.684
 20
6.7262
 10
11.7172
 20
6.7483
 10
11.7512
 20
6.7698
 10
11.7843
 20
6.7895
 10
11.8087
 20
6.8034
 10
11.8336
 20
6.817
 10
11.8591
 20
6.8304
 10
11.885
 20
6.8435
 10
11.9115
 20
6.8564
 10
11.9384
 20
6.869
 10
11.9658
 20
6.8813
 10
11.9938
 20
6.8934
 10
12.0222
 20
6.9052
 10
12.0511
 20
6.9167
 10
12.0806
 20
6.928
 10
12.1105
 20
6.939
 10
12.1409
 20
6.9498
 10
12.1719
 20
6.9603
 10
12.2033
 20
6.9706
 10
12.2352
 20
6.9805
 10
12.2676
 20
6.9903
 10
12.3006
 20
6.9997
 10
12.334
 20
7.0089
 10
12.3679
 20
7.0178
 10
12.4023
 20
7.0265
 10
12.4373
 20
7.0349
 10
12.4727
 20
7.0431
 10
12.5086
 20
7.051
 10
12.545
 20
7.0586
 10
12.5819
 20
7.066
 10
12.6193
 20
7.0731
 10
12.6572
 20
7.0799
 10
12.6957
 20
7.0865
 10
12.7346
 20
7.0928
 10
12.774
 20
7.0989
 10
12.8139
 20
7.1047
 10
12.8543
 20
7.1102
 10
12.8952
 20
7.1155
 10
12.9366
 20
7.1205
 10
12.9785
 20
7.1253
 10
13.0209
 20
7.1298
 10
13.0638
 20
7.134
 10
13.1072
 20
7.138
 10
13.1511
 20
7.1417
 10
13.1955
 20
7.1451
 10
13.2404
 20
7.1483
 10
13.2858
 20
7.1512
 10
13.3317
 20
7.1539
 10
13.3781
 20
7.1563
 10
13.425
 20
7.1584
 10
13.4724
 20
7.1603
 10
13.5203
 20
7.1619
 10
13.5687
 20
7.1633
 10
13.6175
 20
7.1644
 10
13.6669
 20
7.1652
 10
13.7168
 20
7.1658
 10
13.7672
 20
7.1661
 10
13.8142
 20
7.1661
 10
13.8531
 20
7.166
 10
13.892
 20
7.1657
 10
13.9309
 20
7.1653
 10
13.9697
 20
7.1647
 10
14.0084
 20
7.1639
 10
14.0471
 20
7.163
 10
14.0858
 20
7.1619
 10
14.1244
 20
7.1607
 10
14.1629
 20
7.1593
 10
14.2014
 20
7.1577
 10
14.2399
 20
7.156
 10
14.2783
 20
7.1542
 10
14.3167
 20
7.1521
 10
14.355
 20
7.15
 10
14.3932
 20
7.1476
 10
14.4315
 20
7.1451
 10
14.4695
 20
7.1425
 10
14.5063
 20
7.1398
 10
14.5433
 20
7.137
 10
14.5805
 20
7.134
 10
14.6179
 20
7.1309
 10
14.6554
 20
7.1276
 10
14.6932
 20
7.1242
 10
14.7312
 20
7.1206
 10
14.7693
 20
7.1169
 10
14.8076
 20
7.1131
 10
14.8462
 20
7.1091
 10
14.8849
 20
7.1049
 10
14.9238
 20
7.1006
 10
14.9629
 20
7.0962
 10
15.0022
 20
7.0916
 10
15.0416
 20
7.0869
 10
15.0813
 20
7.082
 10
15.1211
 20
7.0769
 10
15.1502
 20
7.0636
 10
15.1457
 20
7.0252
 10
15.1413
 20
6.9869
 10
15.1368
 20
6.9486
 10
15.1324
 20
6.9102
 10
15.1279
 20
6.8719
 10
15.1235
 20
6.8335
 10
15.119
 20
6.7952
 10
15.1146
 20
6.7569
 10
15.1101
 20
6.7185
 10
15.1056
 20
6.6802
 10
15.1012
 20
6.6419
 10
15.0967
 20
6.6035
 10
15.0923
 20
6.5652
 10
15.0878
 20
6.5268
 10
15.0834
 20
6.4885
 10
15.0789
 20
6.4502
 10
15.0745
 20
6.4118
 10
15.07
 20
6.3735
 10
15.0656
 20
6.3351
 10
15.0611
 20
6.2968
 10
15.0567
 20
6.2585
 10
15.0522
 20
6.2201
 10
15.0478
 20
6.1818
 10
15.0433
 20
6.1434
 10
15.0388
 20
6.1051
 10
15.0344
 20
6.0668
 10
15.0276
 20
6.031
 10
14.984
 20
6.0349
 10
14.941
 20
6.0388
 10
14.8986
 20
6.0425
 10
14.8567
 20
6.046
 10
14.8155
 20
6.0494
 10
14.7748
 20
6.0527
 10
14.7348
 20
6.0559
 10
14.6953
 20
6.0589
 10
14.6564
 20
6.0617
 10
14.6181
 20
6.0645
 10
14.5804
 20
6.067
 10
14.5433
 20
6.0695
 10
14.5068
 20
6.0718
 10
14.4709
 20
6.074
 10
14.4355
 20
6.076
 10
14.4008
 20
6.0779
 10
14.3666
 20
6.0797
 10
14.333
 20
6.0813
 10
14.2938
 20
6.0831
 10
14.2515
 20
6.0849
 10
14.2098
 20
6.0866
 10
14.1687
 20
6.0881
 10
14.1283
 20
6.0895
 10
14.0885
 20
6.0908
 10
14.0493
 20
6.0919
 10
14.0107
 20
6.0929
 10
13.9728
 20
6.0938
 10
13.9355
 20
6.0945
 10
13.8988
 20
6.095
 10
13.8628
 20
6.0954
 10
13.8274
 20
6.0957
 10
13.7926
 20
6.0959
 10
13.75
 20
6.0959
 10
13.6981
 20
6.0956
 10
13.6473
 20
6.0951
 10
13.5975
 20
6.0944
 10
13.5486
 20
6.0934
 10
13.5008
 20
6.0921
 10
13.4539
 20
6.0906
 10
13.4081
 20
6.0889
 10
13.3632
 20
6.0869
 10
13.3193
 20
6.0846
 10
13.2765
 20
6.0821
 10
13.2346
 20
6.0793
 10
13.1937
 20
6.0763
 10
13.1538
 20
6.073
 10
13.1149
 20
6.0695
 10
13.077
 20
6.0657
 10
13.0401
 20
6.0617
 10
13.0042
 20
6.0574
 10
12.9693
 20
6.0528
 10
12.9354
 20
6.048
 10
12.9025
 20
6.043
 10
12.8705
 20
6.0377
 10
12.8396
 20
6.0321
 10
12.8097
 20
6.0263
 10
12.7807
 20
6.0203
 10
12.7528
 20
6.014
 10
12.7258
 20
6.0074
 10
12.6999
 20
6.0006
 10
12.6749
 20
5.9935
 10
12.6415
 20
5.9831
 10
12.5938
 20
5.9663
 10
12.5499
 20
5.948
 10
12.5097
 20
5.9283
 10
12.4733
 20
5.9072
 10
12.4405
 20
5.8847
 10
12.4115
 20
5.8608
 10
12.3862
 20
5.8355
 10
12.3647
 20
5.8089
 10
12.3468
 20
5.7808
 10
12.3327
 20
5.7513
 10
12.3224
 20
5.7204
 10
12.3157
 20
5.6881
 10
12.3128
 20
5.6544
 10
12.3138
 20
5.6124
 10
12.3191
 20
5.5706
 10
12.3287
 20
5.5323
 10
12.3427
 20
5.4977
 10
12.3611
 20
5.4665
 10
12.3838
 20
5.4389
 10
12.4109
 20
5.4149
 10
12.4359
 20
5.3977
 10
12.4627
 20
5.3816
 10
12.4923
 20
5.366
 10
12.5247
 20
5.3508
 10
12.5599
 20
5.3362
 10
12.598
 20
5.322
 10
12.6388
 20
5.3083
 10
12.6825
 20
5.295
 10
12.729
 20
5.2822
 10
12.7668
 20
5.2721
 10
12.8041
 20
5.262
 10
12.8413
 20
5.252
 10
12.8786
 20
5.2419
 10
12.9159
 20
5.2319
 10
12.9531
 20
5.2218
 10
12.9904
 20
5.2118
 10
13.0277
 20
5.2018
 10
13.0649
 20
5.1917
 10
13.1022
 20
5.1817
 10
13.1395
 20
5.1716
 10
13.1767
 20
5.1616
 10
13.214
 20
5.1515
 10
13.2513
 20
5.1415
 10
13.2885
 20
5.1314
 10
13.3258
 20
5.1214
 10
13.3631
 20
5.1113
 10
13.4003
 20
5.1013
 10
13.4376
 20
5.0913
 10
13.4749
 20
5.0812
 10
13.5121
 20
5.0712
 10
13.5494
 20
5.0611
 10
13.5867
 20
5.0511
 10
13.6239
 20
5.041
 10
13.6612
 20
5.031
 10
13.6985
 20
5.0209
 10
13.7357
 20
5.0109
 10
13.773
 20
5.0008
 10
13.8103
 20
4.9908
 10
13.8475
 20
4.9808
 10
13.8848
 20
4.9707
 10
13.9221
 20
4.9607
 10
13.968
 20
4.9487
 10
14.0132
 20
4.9364
 10
14.0576
 20
4.9237
 10
14.1012
 20
4.9108
 10
14.144
 20
4.8975
 10
14.186
 20
4.8839
 10
14.2272
 20
4.8699
 10
14.2676
 20
4.8557
 10
14.3072
 20
4.8411
 10
14.3459
 20
4.8262
 10
14.3839
 20
4.8109
 10
14.421
 20
4.7954
 10
14.4573
 20
4.7795
 10
14.4929
 20
4.7633
 10
14.5276
 20
4.7468
 10
14.5615
 20
4.7299
 10
14.5946
 20
4.7127
 10
14.6269
 20
4.6953
 10
14.6584
 20
4.6774
 10
14.6891
 20
4.6593
 10
14.7189
 20
4.6408
 10
14.748
 20
4.622
 10
14.7762
 20
4.6029
 10
14.8037
 20
4.5835
 10
14.8303
 20
4.5637
 10
14.8561
 20
4.5437
 10
14.8811
 20
4.5232
 10
14.9054
 20
4.5025
 10
14.9288
 20
4.4815
 10
14.9519
 20
4.4596
 10
14.9779
 20
4.4334
 10
15.0028
 20
4.4065
 10
15.0267
 20
4.3788
 10
15.0495
 20
4.3503
 10
15.0712
 20
4.3211
 10
15.0919
 20
4.2912
 10
15.1115
 20
4.2605
 10
15.13
 20
4.2291
 10
15.1475
 20
4.1969
 10
15.1639
 20
4.164
 10
15.1792
 20
4.1303
 10
15.1935
 20
4.0959
 10
15.2067
 20
4.0607
 10
15.2188
 20
4.0248
 10
15.2298
 20
3.9882
 10
15.2398
 20
3.9507
 10
15.2487
 20
3.9126
 10
15.2566
 20
3.8737
 10
15.2633
 20
3.834
 10
15.269
 20
3.7936
 10
15.2737
 20
3.7525
 10
15.2772
 20
3.7106
 10
15.2797
 20
3.668
 10
15.2812
 20
3.6246
 10
15.2815
 20
3.5805
 10
15.2809
 20
3.5366
 10
15.2793
 20
3.4934
 10
15.2768
 20
3.4509
 10
15.2733
 20
3.409
 10
15.2688
 20
3.3678
 10
15.2635
 20
3.3272
 10
15.2571
 20
3.2873
 10
15.2498
 20
3.248
 10
15.2416
 20
3.2094
 10
15.2324
 20
3.1714
 10
15.2223
 20
3.1341
 10
15.2112
 20
3.0975
 10
15.1991
 20
3.0614
 10
15.1861
 20
3.0261
 10
15.1722
 20
2.9914
 10
15.1573
 20
2.9573
 10
15.1414
 20
2.9239
 10
15.1247
 20
2.8912
 10
15.1069
 20
2.8591
 10
15.0882
 20
2.8276
 10
15.0686
 20
2.7968
 10
15.048
 20
2.7667
 10
15.0264
 20
2.7372
 10
15.0039
 20
2.7084
 10
14.9804
 20
2.6802
 10
14.956
 20
2.6527
 10
14.9307
 20
2.6258
 10
14.9044
 20
2.5996
 10
14.8771
 20
2.574
 10
14.8489
 20
2.5491
 10
14.8198
 20
2.5248
 10
14.7896
 20
2.5012
 10
14.7586
 20
2.4782
 10
14.7266
 20
2.4559
 10
14.6936
 20
2.4342
 10
14.664
 20
2.4158
 10
14.6394
 20
2.4012
 10
14.6143
 20
2.3869
 10
14.5887
 20
2.3729
 10
14.5625
 20
2.3592
 10
14.5358
 20
2.3458
 10
14.5086
 20
2.3327
 10
14.4808
 20
2.3199
 10
14.4526
 20
2.3074
 10
14.4238
 20
2.2951
 10
14.3944
 20
2.2832
 10
14.3646
 20
2.2716
 10
14.3342
 20
2.2602
 10
14.3032
 20
2.2492
 10
14.2718
 20
2.2384
 10
14.2398
 20
2.228
 10
14.2073
 20
2.2178
 10
14.1743
 20
2.2079
 10
14.1407
 20
2.1984
 10
14.1066
 20
2.1891
 10
14.072
 20
2.1801
 10
14.0368
 20
2.1714
 10
14.0011
 20
2.163
 10
13.9649
 20
2.1549
 10
13.9282
 20
2.1471
 10
13.8909
 20
2.1396
 10
13.8531
 20
2.1324
 10
13.8148
 20
2.1254
 10
13.7759
 20
2.1188
 10
13.7366
 20
2.1125
 10
13.6966
 20
2.1064
 10
13.6562
 20
2.1007
 10
13.6152
 20
2.0952
 10
13.5737
 20
2.0901
 10
13.5317
 20
2.0852
 10
13.4891
 20
2.0806
 10
13.4461
 20
2.0764
 10
13.4024
 20
2.0724
 10
13.3583
 20
2.0687
 10
13.3136
 20
2.0653
 10
13.2684
 20
2.0622
 10
13.2227
 20
2.0594
 10
13.1764
 20
2.0569
 10
13.1296
 20
2.0547
 10
13.0823
 20
2.0528
 10
13.0345
 20
2.0512
 10
12.9861
 20
2.0499
 10
12.9372
 20
2.0488
 10
12.8877
 20
2.0481
  0
LWPOLYLINE
  5
4E
330
17
100
AcDbEntity
  8
OUTLINE
100
AcDbPolyline
 90
192
 70
1
 10
24.4284
 20
2.0488
 10
24.3369
 20
2.0475
 10
24.2457
 20
2.0488
 10
24.1563
 20
2.0527
 10
24.0687
 20
2.0592
 10
23.9829
 20
2.0682
 10
23.899
 20
2.0799
 10
23.8168
 20
2.0942
 10
23.7364
 20
2.111
 10
23.6579
 20
2.1305
 10
23.5812
 20
2.1525
 10
23.5062
 20
2.1772
 10
23.4331
 20
2.2044
 10
23.3618
 20
2.2342
 10
23.2923
 20
2.2666
 10
23.2247
 20
2.3016
 10
23.1588
 20
2.3392
 10
23.0947
 20
2.3794
 10
23.0325
 20
2.4222
 10
22.972
 20
2.4676
 10
22.9134
 20
2.5156
 10
22.8566
 20
2.5661
 10
22.8016
 20
2.6193
 10
22.7484
 20
2.675
 10
22.6983
 20
2.7318
 10
22.6538
 20
2.7862
 10
22.6112
 20
2.8423
 10
22.5703
 20
2.9001
 10
22.5313
 20
2.9597
 10
22.494
 20
3.021
 10
22.4586
 20
3.084
 10
22.425
 20
3.1487
 10
22.3933
 20
3.2152
 10
22.3633
 20
3.2833
 10
22.3352
 20
3.3532
 10
22.3088
 20
3.4249
 10
22.2843
 20
3.4982
 10
22.2616
 20
3.5733
 10
22.2408
 20
3.6501
 10
22.2217
 20
3.7286
 10
22.2045
 20
3.8088
 10
22.1891
 20
3.8908
 10
22.1755
 20
3.9744
 10
22.1637
 20
4.0598
 10
22.1537
 20
4.147
 10
22.1456
 20
4.2358
 10
22.1392
 20
4.3264
 10
22.1347
 20
4.4187
 10
22.132
 20
4.5127
 10
22.1312
 20
4.6084
 10
22.1321
 20
4.7044
 10
22.1348
 20
4.7985
 10
22.1394
 20
4.891
 10
22.1458
 20
4.9817
 10
22.154
 20
5.0706
 10
22.164
 20
5.1579
 10
22.1758
 20
5.2434
 10
22.1894
 20
5.3271
 10
22.2049
 20
5.4091
 10
22.2221
 20
5.4894
 10
22.2412
 20
5.5679
 10
22.2621
 20
5.6447
 10
22.2847
 20
5.7197
 10
22.3093
 20
5.793
 10
22.3356
 20
5.8645
 10
22.3637
 20
5.9344
 10
22.3936
 20
6.0024
 10
22.4254
 20
6.0688
 10
22.459
 20
6.1334
 10
22.4944
 20
6.1962
 10
22.5316
 20
6.2573
 10
22.5706
 20
6.3167
 10
22.6114
 20
6.3744
 10
22.654
 20
6.4303
 10
22.6985
 20
6.4844
 10
22.7485
 20
6.541
 10
22.8018
 20
6.5966
 10
22.8568
 20
6.6496
 10
22.9137
 20
6.7
 10
22.9724
 20
6.7478
 10
23.0329
 20
6.793
 10
23.0952
 20
6.8357
 10
23.1593
 20
6.8757
 10
23.2252
 20
6.9132
 10
23.293
 20
6.9481
 10
23.3625
 20
6.9804
 10
23.4339
 20
7.0101
 10
23.5071
 20
7.0372
 10
23.5821
 20
7.0617
 10
23.6589
 20
7.0837
 10
23.7375
 20
7.1031
 10
23.8179
 20
7.1198
 10
23.9001
 20
7.134
 10
23.9842
 20
7.1456
 10
24.0701
 20
7.1546
 10
24.1577
 20
7.161
 10
24.2472
 20
7.1649
 10
24.3385
 20
7.1661
 10
24.43
 20
7.1648
 10
24.5197
 20
7.1609
 10
24.6076
 20
7.1544
 10
24.6936
 20
7.1453
 10
24.7777
 20
7.1336
 10
24.8601
 20
7.1194
 10
24.9406
 20
7.1026
 10
25.0192
 20
7.0832
 10
25.0961
 20
7.0612
 10
25.1711
 20
7.0366
 10
25.2442
 20
7.0095
 10
25.3156
 20
6.9798
 10
25.3851
 20
6.9475
 10
25.4527
 20
6.9126
 10
25.5186
 20
6.8751
 10
25.5826
 20
6.8351
 10
25.6447
 20
6.7924
 10
25.705
 20
6.7472
 10
25.7635
 20
6.6995
 10
25.8202
 20
6.6491
 10
25.875
 20
6.5961
 10
25.928
 20
6.5406
 10
25.9778
 20
6.4841
 10
26.0221
 20
6.4299
 10
26.0645
 20
6.374
 10
26.1052
 20
6.3163
 10
26.1441
 20
6.2569
 10
26.1811
 20
6.1957
 10
26.2163
 20
6.1328
 10
26.2498
 20
6.0682
 10
26.2814
 20
6.0018
 10
26.3112
 20
5.9337
 10
26.3392
 20
5.8638
 10
26.3654
 20
5.7922
 10
26.3898
 20
5.7188
 10
26.4124
 20
5.6437
 10
26.4332
 20
5.5669
 10
26.4522
 20
5.4883
 10
26.4694
 20
5.408
 10
26.4847
 20
5.3259
 10
26.4983
 20
5.2421
 10
26.51
 20
5.1566
 10
26.52
 20
5.0693
 10
26.5281
 20
4.9803
 10
26.5344
 20
4.8895
 10
26.5389
 20
4.797
 10
26.5416
 20
4.7027
 10
26.5425
 20
4.6067
 10
26.5416
 20
4.511
 10
26.5389
 20
4.4169
 10
26.5344
 20
4.3246
 10
26.528
 20
4.2341
 10
26.5199
 20
4.1452
 10
26.5099
 20
4.0581
 10
26.4981
 20
3.9727
 10
26.4845
 20
3.889
 10
26.4691
 20
3.807
 10
26.4519
 20
3.7268
 10
26.4329
 20
3.6483
 10
26.4121
 20
3.5715
 10
26.3894
 20
3.4964
 10
26.365
 20
3.4231
 10
26.3387
 20
3.3515
 10
26.3106
 20
3.2816
 10
26.2807
 20
3.2134
 10
26.249
 20
3.147
 10
26.2155
 20
3.0823
 10
26.1801
 20
3.0193
 10
26.143
 20
2.958
 10
26.104
 20
2.8985
 10
26.0633
 20
2.8406
 10
26.0207
 20
2.7846
 10
25.9763
 20
2.7302
 10
25.9263
 20
2.6734
 10
25.8733
 20
2.6178
 10
25.8185
 20
2.5648
 10
25.7618
 20
2.5143
 10
25.7033
 20
2.4665
 10
25.6429
 20
2.4212
 10
25.5808
 20
2.3785
 10
25.5168
 20
2.3385
 10
25.4509
 20
2.301
 10
25.3833
 20
2.266
 10
25.3138
 20
2.2337
 10
25.2424
 20
2.204
 10
25.1693
 20
2.1768
 10
25.0943
 20
2.1522
 10
25.0175
 20
2.1303
 10
24.9388
 20
2.1109
 10
24.8583
 20
2.0941
 10
24.776
 20
2.0798
 10
24.6918
 20
2.0682
 10
24.6059
 20
2.0591
 10
24.518
 20
2.0527
  0
LWPOLYLINE
  5
4F
330
17
100
AcDbEntity
  8
OUTLINE
100
AcDbPolyline
 90
192
 70
1
 10
24.2907
 20
3.1186
 10
24.3369
 20
3.1177
 10
24.3834
 20
3.1186
 10
24.4289
 20
3.1213
 10
24.4734
 20
3.1257
 10
24.5168
 20
3.1319
 10
24.5592
 20
3.1398
 10
24.6005
 20
3.1496
 10
24.6408
 20
3.161
 10
24.6801
 20
3.1743
 10
24.7183
 20
3.1893
 10
24.7555
 20
3.2061
 10
24.7917
 20
3.2247
 10
24.8268
 20
3.245
 10
24.8609
 20
3.2671
 10
24.8939
 20
3.291
 10
24.9259
 20
3.3166
 10
24.9569
 20
3.344
 10
24.9868
 20
3.3732
 10
25.0157
 20
3.4042
 10
25.0436
 20
3.4369
 10
25.0704
 20
3.4714
 10
25.096
 20
3.5073
 10
25.1152
 20
3.5365
 10
25.1337
 20
3.5666
 10
25.1515
 20
3.5976
 10
25.1686
 20
3.6294
 10
25.1849
 20
3.6621
 10
25.2005
 20
3.6958
 10
25.2154
 20
3.7303
 10
25.2295
 20
3.7656
 10
25.243
 20
3.8019
 10
25.2557
 20
3.8391
 10
25.2676
 20
3.8771
 10
25.2789
 20
3.916
 10
25.2894
 20
3.9558
 10
25.2992
 20
3.9965
 10
25.3083
 20
4.0381
 10
25.3166
 20
4.0805
 10
25.3243
 20
4.1239
 10
25.3312
 20
4.1681
 10
25.3373
 20
4.2132
 10
25.3428
 20
4.2592
 10
25.3475
 20
4.3061
 10
25.3515
 20
4.3539
 10
25.3548
 20
4.4025
 10
25.3574
 20
4.452
 10
25.3592
 20
4.5024
 10
25.3603
 20
4.5537
 10
25.3607
 20
4.6059
 10
25.3603
 20
4.6583
 10
25.3592
 20
4.7098
 10
25.3574
 20
4.7604
 10
25.3549
 20
4.8102
 10
25.3516
 20
4.859
 10
25.3476
 20
4.9069
 10
25.3429
 20
4.9539
 10
25.3375
 20
5.0
 10
25.3313
 20
5.0452
 10
25.3244
 20
5.0895
 10
25.3168
 20
5.133
 10
25.3084
 20
5.1755
 10
25.2994
 20
5.2171
 10
25.2896
 20
5.2578
 10
25.279
 20
5.2977
 10
25.2678
 20
5.3366
 10
25.2558
 20
5.3746
 10
25.2431
 20
5.4118
 10
25.2296
 20
5.448
 10
25.2155
 20
5.4833
 10
25.2006
 20
5.5178
 10
25.1849
 20
5.5513
 10
25.1686
 20
5.584
 10
25.1515
 20
5.6157
 10
25.1337
 20
5.6466
 10
25.1152
 20
5.6765
 10
25.0959
 20
5.7055
 10
25.0707
 20
5.7407
 10
25.0437
 20
5.7753
 10
25.0157
 20
5.8081
 10
24.9867
 20
5.8392
 10
24.9566
 20
5.8685
 10
24.9255
 20
5.896
 10
24.8934
 20
5.9217
 10
24.8603
 20
5.9457
 10
24.8262
 20
5.9679
 10
24.7911
 20
5.9883
 10
24.755
 20
6.0069
 10
24.7178
 20
6.0238
 10
24.6796
 20
6.0389
 10
24.6405
 20
6.0522
 10
24.6003
 20
6.0638
 10
24.559
 20
6.0736
 10
24.5168
 20
6.0816
 10
24.4736
 20
6.0878
 10
24.4293
 20
6.0923
 10
24.3841
 20
6.095
 10
24.3378
 20
6.0959
 10
24.2915
 20
6.095
 10
24.2462
 20
6.0924
 10
24.2019
 20
6.088
 10
24.1586
 20
6.0819
 10
24.1163
 20
6.0739
 10
24.0751
 20
6.0642
 10
24.0348
 20
6.0527
 10
23.9956
 20
6.0395
 10
23.9574
 20
6.0244
 10
23.9202
 20
6.0076
 10
23.884
 20
5.989
 10
23.8489
 20
5.9687
 10
23.8147
 20
5.9466
 10
23.7816
 20
5.9227
 10
23.7495
 20
5.897
 10
23.7184
 20
5.8696
 10
23.6883
 20
5.8403
 10
23.6592
 20
5.8094
 10
23.6311
 20
5.7766
 10
23.6041
 20
5.7421
 10
23.5787
 20
5.7067
 10
23.5594
 20
5.6776
 10
23.5408
 20
5.6477
 10
23.523
 20
5.6169
 10
23.5059
 20
5.5852
 10
23.4895
 20
5.5526
 10
23.4738
 20
5.5191
 10
23.4589
 20
5.4847
 10
23.4447
 20
5.4494
 10
23.4313
 20
5.4132
 10
23.4185
 20
5.3761
 10
23.4065
 20
5.3381
 10
23.3952
 20
5.2992
 10
23.3846
 20
5.2594
 10
23.3748
 20
5.2187
 10
23.3657
 20
5.1771
 10
23.3573
 20
5.1346
 10
23.3497
 20
5.0913
 10
23.3428
 20
5.047
 10
23.3366
 20
5.0018
 10
23.3311
 20
4.9557
 10
23.3263
 20
4.9087
 10
23.3223
 20
4.8608
 10
23.319
 20
4.8121
 10
23.3165
 20
4.7624
 10
23.3146
 20
4.7118
 10
23.3135
 20
4.6603
 10
23.3132
 20
4.608
 10
23.3135
 20
4.5558
 10
23.3146
 20
4.5045
 10
23.3164
 20
4.4541
 10
23.3189
 20
4.4045
 10
23.3222
 20
4.3559
 10
23.3262
 20
4.3081
 10
23.3309
 20
4.2612
 10
23.3364
 20
4.2152
 10
23.3426
 20
4.1701
 10
23.3495
 20
4.1259
 10
23.3572
 20
4.0825
 10
23.3655
 20
4.0401
 10
23.3747
 20
3.9985
 10
23.3845
 20
3.9578
 10
23.3951
 20
3.918
 10
23.4064
 20
3.879
 10
23.4184
 20
3.841
 10
23.4312
 20
3.8038
 10
23.4447
 20
3.7675
 10
23.4589
 20
3.7321
 10
23.4738
 20
3.6976
 10
23.4895
 20
3.6639
 10
23.506
 20
3.6312
 10
23.5231
 20
3.5993
 10
23.541
 20
3.5683
 10
23.5596
 20
3.5382
 10
23.5789
 20
3.509
 10
23.6044
 20
3.4733
 10
23.6314
 20
3.4386
 10
23.6594
 20
3.4057
 10
23.6885
 20
3.3746
 10
23.7185
 20
3.3453
 10
23.7496
 20
3.3177
 10
23.7817
 20
3.292
 10
23.8148
 20
3.268
 10
23.8489
 20
3.2457
 10
23.884
 20
3.2253
 10
23.9201
 20
3.2066
 10
23.9572
 20
3.1897
 10
23.9954
 20
3.1746
 10
24.0345
 20
3.1613
 10
24.0747
 20
3.1497
 10
24.1158
 20
3.1399
 10
24.158
 20
3.1319
 10
24.2012
 20
3.1257
 10
24.2454
 20
3.1213
  0
LWPOLYLINE
  5
50
330
17
100
AcDbEntity
  8
OUTLINE
100
AcDbPolyline
 90
303
 70
1
 10
19.651
 20
6.9166
 10
19.651
 20
6.8384
 10
19.651
 20
6.7939
 10
19.651
 20
6.7601
 10
19.651
 20
6.6819
 10
19.651
 20
6.6731
 10
19.651
 20
6.6036
 10
19.651
 20
6.5523
 10
19.651
 20
6.5254
 10
19.651
 20
6.4472
 10
19.651
 20
6.4315
 10
19.651
 20
6.3689
 10
19.651
 20
6.3107
 10
19.651
 20
6.2907
 10
19.651
 20
6.2125
 10
19.651
 20
6.1899
 10
19.651
 20
6.1342
 10
19.651
 20
6.0691
 10
19.651
 20
6.056
 10
19.651
 20
5.9483
 10
19.651
 20
5.8275
 10
19.651
 20
5.7067
 10
19.651
 20
5.5859
 10
19.651
 20
5.4651
 10
19.651
 20
5.3444
 10
19.651
 20
5.2236
 10
19.651
 20
5.1028
 10
19.651
 20
4.982
 10
19.651
 20
4.8612
 10
19.651
 20
4.7404
 10
19.651
 20
4.6196
 10
19.651
 20
4.4988
 10
19.651
 20
4.378
 10
19.651
 20
4.2572
 10
19.651
 20
4.1364
 10
19.651
 20
4.0157
 10
19.651
 20
3.8949
 10
19.651
 20
3.7741
 10
19.651
 20
3.6533
 10
19.651
 20
3.5325
 10
19.651
 20
3.4117
 10
19.651
 20
3.2909
 10
19.651
 20
3.1829
 10
19.6618
 20
3.1829
 10
19.7164
 20
3.1829
 10
19.7709
 20
3.1829
 10
19.8255
 20
3.1829
 10
19.8801
 20
3.1829
 10
19.9347
 20
3.1829
 10
19.9892
 20
3.1829
 10
20.0438
 20
3.1829
 10
20.0984
 20
3.1829
 10
20.153
 20
3.1829
 10
20.2076
 20
3.1829
 10
20.2621
 20
3.1829
 10
20.3167
 20
3.1829
 10
20.3713
 20
3.1829
 10
20.4259
 20
3.1829
 10
20.4805
 20
3.1829
 10
20.535
 20
3.1829
 10
20.5896
 20
3.1829
 10
20.6442
 20
3.1829
 10
20.6988
 20
3.1829
 10
20.7534
 20
3.1829
 10
20.8079
 20
3.1829
 10
20.8625
 20
3.1829
 10
20.9171
 20
3.1829
 10
20.9717
 20
3.1829
 10
21.0262
 20
3.1829
 10
21.0808
 20
3.1829
 10
21.1354
 20
3.1829
 10
21.1354
 20
3.1283
 10
21.1354
 20
3.0737
 10
21.1354
 20
3.0192
 10
21.1354
 20
2.9646
 10
21.1354
 20
2.91
 10
21.1354
 20
2.8554
 10
21.1354
 20
2.8009
 10
21.1354
 20
2.7463
 10
21.1354
 20
2.6917
 10
21.1354
 20
2.6371
 10
21.1354
 20
2.5825
 10
21.1354
 20
2.528
 10
21.1354
 20
2.4734
 10
21.1354
 20
2.4188
 10
21.1354
 20
2.3642
 10
21.1354
 20
2.3096
 10
21.1354
 20
2.2551
 10
21.1354
 20
2.2005
 10
21.1354
 20
2.1459
 10
21.0862
 20
2.1406
 10
21.0316
 20
2.1406
 10
20.977
 20
2.1406
 10
20.9224
 20
2.1406
 10
20.8679
 20
2.1406
 10
20.8133
 20
2.1406
 10
20.7587
 20
2.1406
 10
20.7041
 20
2.1406
 10
20.6495
 20
2.1406
 10
20.595
 20
2.1406
 10
20.5404
 20
2.1406
 10
20.4858
 20
2.1406
 10
20.4312
 20
2.1406
 10
20.3766
 20
2.1406
 10
20.3221
 20
2.1406
 10
20.2675
 20
2.1406
 10
20.2129
 20
2.1406
 10
20.1583
 20
2.1406
 10
20.1037
 20
2.1406
 10
20.0492
 20
2.1406
 10
19.9946
 20
2.1406
 10
19.94
 20
2.1406
 10
19.8854
 20
2.1406
 10
19.8308
 20
2.1406
 10
19.7763
 20
2.1406
 10
19.7217
 20
2.1406
 10
19.6671
 20
2.1406
 10
19.6125
 20
2.1406
 10
19.5934
 20
2.1406
 10
19.558
 20
2.1406
 10
19.4727
 20
2.1406
 10
19.3519
 20
2.1406
 10
19.2311
 20
2.1406
 10
19.1103
 20
2.1406
 10
18.9895
 20
2.1406
 10
18.8687
 20
2.1406
 10
18.7479
 20
2.1406
 10
18.6271
 20
2.1406
 10
18.5853
 20
2.1406
 10
18.5231
 20
2.1406
 10
18.5063
 20
2.1406
 10
18.461
 20
2.1406
 10
18.3989
 20
2.1406
 10
18.3367
 20
2.1406
 10
18.2746
 20
2.1406
 10
18.2124
 20
2.1406
 10
18.1503
 20
2.1406
 10
18.0881
 20
2.1406
 10
18.026
 20
2.1406
 10
17.9639
 20
2.1406
 10
17.9017
 20
2.1406
 10
17.8396
 20
2.1406
 10
17.7774
 20
2.1406
 10
17.7153
 20
2.1406
 10
17.6531
 20
2.1406
 10
17.591
 20
2.1406
 10
17.5289
 20
2.1406
 10
17.4667
 20
2.1406
 10
17.4046
 20
2.1406
 10
17.3424
 20
2.1406
 10
17.2803
 20
2.1406
 10
17.2181
 20
2.1406
 10
17.156
 20
2.1406
 10
17.0938
 20
2.1406
 10
17.0317
 20
2.1406
 10
16.9696
 20
2.1406
 10
16.9074
 20
2.1406
 10
16.8453
 20
2.1406
 10
16.7831
 20
2.1406
 10
16.721
 20
2.1406
 10
16.6588
 20
2.1406
 10
16.6588
 20
2.2027
 10
16.6588
 20
2.2649
 10
16.6588
 20
2.327
 10
16.6588
 20
2.3891
 10
16.6588
 20
2.4513
 10
16.6588
 20
2.5134
 10
16.6588
 20
2.5756
 10
16.6588
 20
2.6377
 10
16.6588
 20
2.6999
 10
16.6588
 20
2.762
 10
16.6588
 20
2.8241
 10
16.6588
 20
2.8863
 10
16.6588
 20
2.9484
 10
16.6588
 20
3.0106
 10
16.6588
 20
3.0727
 10
16.6588
 20
3.1349
 10
16.6729
 20
3.1829
 10
16.7351
 20
3.1829
 10
16.7972
 20
3.1829
 10
16.8594
 20
3.1829
 10
16.9215
 20
3.1829
 10
16.9837
 20
3.1829
 10
17.0458
 20
3.1829
 10
17.1079
 20
3.1829
 10
17.1701
 20
3.1829
 10
17.2322
 20
3.1829
 10
17.2944
 20
3.1829
 10
17.3565
 20
3.1829
 10
17.4187
 20
3.1829
 10
17.4808
 20
3.1829
 10
17.543
 20
3.1829
 10
17.6051
 20
3.1829
 10
17.6672
 20
3.1829
 10
17.7294
 20
3.1829
 10
17.7915
 20
3.1829
 10
17.8537
 20
3.1829
 10
17.9158
 20
3.1829
 10
17.978
 20
3.1829
 10
18.0401
 20
3.1829
 10
18.1022
 20
3.1829
 10
18.1644
 20
3.1829
 10
18.2265
 20
3.1829
 10
18.2887
 20
3.1829
 10
18.3508
 20
3.1829
 10
18.413
 20
3.1829
 10
18.4751
 20
3.1829
 10
18.5063
 20
3.1829
 10
18.5063
 20
3.2277
 10
18.5063
 20
3.3485
 10
18.5063
 20
3.4693
 10
18.5063
 20
3.5901
 10
18.5063
 20
3.7109
 10
18.5063
 20
3.8316
 10
18.5063
 20
3.9524
 10
18.5063
 20
4.0732
 10
18.5063
 20
4.194
 10
18.5063
 20
4.3148
 10
18.5063
 20
4.4356
 10
18.5063
 20
4.5564
 10
18.5063
 20
4.6772
 10
18.5063
 20
4.798
 10
18.5063
 20
4.9188
 10
18.5063
 20
5.0396
 10
18.5063
 20
5.1604
 10
18.5063
 20
5.2811
 10
18.5063
 20
5.4019
 10
18.5063
 20
5.5227
 10
18.5063
 20
5.6435
 10
18.5063
 20
5.7643
 10
18.5063
 20
5.8851
 10
18.5063
 20
6.0059
 10
18.5063
 20
6.0307
 10
18.5028
 20
6.0307
 10
18.4245
 20
6.0307
 10
18.3463
 20
6.0307
 10
18.2681
 20
6.0307
 10
18.1898
 20
6.0307
 10
18.1116
 20
6.0307
 10
18.0333
 20
6.0307
 10
17.9551
 20
6.0307
 10
17.8769
 20
6.0307
 10
17.7986
 20
6.0307
 10
17.7204
 20
6.0307
 10
17.6422
 20
6.0307
 10
17.5639
 20
6.0307
 10
17.4857
 20
6.0307
 10
17.4075
 20
6.0307
 10
17.3292
 20
6.0307
 10
17.251
 20
6.0307
 10
17.1728
 20
6.0307
 10
17.0945
 20
6.0307
 10
17.0163
 20
6.0307
 10
16.938
 20
6.0307
 10
16.938
 20
6.109
 10
16.938
 20
6.1872
 10
16.938
 20
6.2654
 10
16.938
 20
6.3437
 10
16.938
 20
6.4219
 10
16.938
 20
6.5001
 10
16.938
 20
6.5784
 10
16.938
 20
6.6566
 10
16.938
 20
6.7348
 10
16.938
 20
6.8131
 10
16.938
 20
6.8913
 10
16.938
 20
6.9695
 10
16.938
 20
7.0478
 10
16.991
 20
7.0731
 10
17.0692
 20
7.0731
 10
17.1475
 20
7.0731
 10
17.2257
 20
7.0731
 10
17.304
 20
7.0731
 10
17.3822
 20
7.0731
 10
17.4604
 20
7.0731
 10
17.5387
 20
7.0731
 10
17.6169
 20
7.0731
 10
17.6951
 20
7.0731
 10
17.7734
 20
7.0731
 10
17.8516
 20
7.0731
 10
17.9298
 20
7.0731
 10
18.0081
 20
7.0731
 10
18.0863
 20
7.0731
 10
18.1645
 20
7.0731
 10
18.2428
 20
7.0731
 10
18.321
 20
7.0731
 10
18.3993
 20
7.0731
 10
18.4775
 20
7.0731
 10
18.5557
 20
7.0731
 10
18.634
 20
7.0731
 10
18.7122
 20
7.0731
 10
18.7904
 20
7.0731
 10
18.8687
 20
7.0731
 10
18.9469
 20
7.0731
 10
19.0251
 20
7.0731
 10
19.1034
 20
7.0731
 10
19.1816
 20
7.0731
 10
19.2598
 20
7.0731
 10
19.3381
 20
7.0731
 10
19.4163
 20
7.0731
 10
19.4946
 20
7.0731
 10
19.5728
 20
7.0731
 10
19.651
 20
7.0731
 10
19.651
 20
6.9948
  0
LWPOLYLINE
  5
51
330
17
100
AcDbEntity
  8
OUTLINE
100
AcDbPolyline
 90
246
 70
1
 10
0.1128
 20
8.7483
 10
0.1553
 20
8.7483
 10
0.2274
 20
8.7483
 10
0.3163
 20
8.7483
 10
0.342
 20
8.7483
 10
0.4566
 20
8.7483
 10
0.4773
 20
8.7483
 10
0.5712
 20
8.7483
 10
0.6383
 20
8.7483
 10
0.6858
 20
8.7483
 10
0.7994
 20
8.7483
 10
0.8004
 20
8.7483
 10
0.9149
 20
8.7483
 10
0.9604
 20
8.7483
 10
1.0295
 20
8.7483
 10
1.1214
 20
8.7483
 10
1.1441
 20
8.7483
 10
1.2587
 20
8.7483
 10
1.3733
 20
8.7483
 10
1.4879
 20
8.7483
 10
1.6025
 20
8.7483
 10
1.7171
 20
8.7483
 10
1.8316
 20
8.7483
 10
1.9462
 20
8.7483
 10
2.0608
 20
8.7483
 10
2.1754
 20
8.7483
 10
2.29
 20
8.7483
 10
2.4046
 20
8.7483
 10
2.5192
 20
8.7483
 10
2.6338
 20
8.7483
 10
2.7483
 20
8.7483
 10
2.8629
 20
8.7483
 10
2.9775
 20
8.7483
 10
3.0921
 20
8.7483
 10
3.2067
 20
8.7483
 10
3.3213
 20
8.7483
 10
3.4359
 20
8.7483
 10
3.5505
 20
8.7483
 10
3.665
 20
8.7483
 10
3.7796
 20
8.7483
 10
3.8942
 20
8.7483
 10
4.0088
 20
8.7483
 10
4.1234
 20
8.7483
 10
4.238
 20
8.7483
 10
4.3526
 20
8.7483
 10
4.4672
 20
8.7483
 10
4.4672
 20
8.6337
 10
4.4672
 20
8.5191
 10
4.4672
 20
8.4045
 10
4.4672
 20
8.2899
 10
4.4672
 20
8.1753
 10
4.4672
 20
8.0608
 10
4.4672
 20
7.9462
 10
4.4672
 20
7.8316
 10
4.4672
 20
7.717
 10
4.3543
 20
7.7152
 10
4.2397
 20
7.7152
 10
4.1251
 20
7.7152
 10
4.0106
 20
7.7152
 10
3.896
 20
7.7152
 10
3.7814
 20
7.7152
 10
3.6668
 20
7.7152
 10
3.5522
 20
7.7152
 10
3.4376
 20
7.7152
 10
3.323
 20
7.7152
 10
3.2084
 20
7.7152
 10
3.0939
 20
7.7152
 10
2.9793
 20
7.7152
 10
2.8647
 20
7.7152
 10
2.7501
 20
7.7152
 10
2.6355
 20
7.7152
 10
2.5209
 20
7.7152
 10
2.4063
 20
7.7152
 10
2.2917
 20
7.7152
 10
2.1772
 20
7.7152
 10
2.0626
 20
7.7152
 10
1.948
 20
7.7152
 10
1.8334
 20
7.7152
 10
1.7188
 20
7.7152
 10
1.6042
 20
7.7152
 10
1.4896
 20
7.7152
 10
1.375
 20
7.7152
 10
1.2605
 20
7.7152
 10
1.1459
 20
7.7152
 10
1.1214
 20
7.7152
 10
1.1214
 20
7.6211
 10
1.1214
 20
7.4601
 10
1.1214
 20
7.2991
 10
1.1214
 20
7.1381
 10
1.1214
 20
6.977
 10
1.1214
 20
6.816
 10
1.1214
 20
6.655
 10
1.1214
 20
6.494
 10
1.1214
 20
6.3329
 10
1.1214
 20
6.1719
 10
1.1214
 20
6.0109
 10
1.1214
 20
5.8499
 10
1.1214
 20
5.691
 10
1.1764
 20
5.691
 10
1.2727
 20
5.691
 10
1.369
 20
5.691
 10
1.4652
 20
5.691
 10
1.5615
 20
5.691
 10
1.6578
 20
5.691
 10
1.754
 20
5.691
 10
1.8503
 20
5.691
 10
1.9466
 20
5.691
 10
2.0428
 20
5.691
 10
2.1391
 20
5.691
 10
2.2354
 20
5.691
 10
2.3316
 20
5.691
 10
2.4279
 20
5.691
 10
2.5242
 20
5.691
 10
2.6204
 20
5.691
 10
2.7167
 20
5.691
 10
2.8129
 20
5.691
 10
2.9092
 20
5.691
 10
3.0055
 20
5.691
 10
3.1017
 20
5.691
 10
3.198
 20
5.691
 10
3.2943
 20
5.691
 10
3.3905
 20
5.691
 10
3.4868
 20
5.691
 10
3.5831
 20
5.691
 10
3.5831
 20
5.5948
 10
3.5831
 20
5.4985
 10
3.5831
 20
5.4022
 10
3.5831
 20
5.306
 10
3.5831
 20
5.2097
 10
3.5831
 20
5.1135
 10
3.5831
 20
5.0172
 10
3.5831
 20
4.9209
 10
3.5831
 20
4.8247
 10
3.5831
 20
4.7284
 10
3.5618
 20
4.6534
 10
3.4655
 20
4.6534
 10
3.3693
 20
4.6534
 10
3.273
 20
4.6534
 10
3.1767
 20
4.6534
 10
3.0805
 20
4.6534
 10
2.9842
 20
4.6534
 10
2.8879
 20
4.6534
 10
2.7917
 20
4.6534
 10
2.6954
 20
4.6534
 10
2.5991
 20
4.6534
 10
2.5029
 20
4.6534
 10
2.4066
 20
4.6534
 10
2.3104
 20
4.6534
 10
2.2141
 20
4.6534
 10
2.1178
 20
4.6534
 10
2.0216
 20
4.6534
 10
1.9253
 20
4.6534
 10
1.829
 20
4.6534
 10
1.7328
 20
4.6534
 10
1.6365
 20
4.6534
 10
1.5402
 20
4.6534
 10
1.444
 20
4.6534
 10
1.3477
 20
4.6534
 10
1.2514
 20
4.6534
 10
1.1552
 20
4.6534
 10
1.1214
 20
4.6534
 10
1.1214
 20
4.5617
 10
1.1214
 20
4.4007
 10
1.1214
 20
4.2396
 10
1.1214
 20
4.0786
 10
1.1214
 20
3.9176
 10
1.1214
 20
3.7566
 10
1.1214
 20
3.5955
 10
1.1214
 20
3.4345
 10
1.1214
 20
3.2735
 10
1.1214
 20
3.1125
 10
1.1214
 20
2.9514
 10
1.1214
 20
2.7904
 10
1.1214
 20
2.6294
 10
1.1214
 20
2.4684
 10
1.1214
 20
2.3073
 10
1.1214
 20
2.1463
 10
0.9661
 20
2.1406
 10
0.8051
 20
2.1406
 10
0.6441
 20
2.1406
 10
0.4831
 20
2.1406
 10
0.322
 20
2.1406
 10
0.161
 20
2.1406
 10
0.0
 20
2.1406
 10
0.0
 20
2.3016
 10
0.0
 20
2.4626
 10
0.0
 20
2.6236
 10
0.0
 20
2.7847
 10
0.0
 20
2.9457
 10
0.0
 20
3.1067
 10
0.0
 20
3.2677
 10
0.0
 20
3.4288
 10
0.0
 20
3.5898
 10
0.0
 20
3.7508
 10
0.0
 20
3.9118
 10
0.0
 20
4.0728
 10
0.0
 20
4.2339
 10
0.0
 20
4.3949
 10
0.0
 20
4.5559
 10
0.0
 20
4.6534
 10
0.0
 20
4.7169
 10
0.0
 20
4.7497
 10
0.0
 20
4.8459
 10
0.0
 20
4.878
 10
0.0
 20
4.9422
 10
0.0
 20
5.0385
 10
0.0
 20
5.039
 10
0.0
 20
5.1347
 10
0.0
 20
5.2
 10
0.0
 20
5.231
 10
0.0
 20
5.3273
 10
0.0
 20
5.361
 10
0.0
 20
5.4235
 10
0.0
 20
5.5198
 10
0.0
 20
5.5221
 10
0.0
 20
5.616
 10
0.0
 20
5.6831
 10
0.0
 20
5.8441
 10
0.0
 20
6.0051
 10
0.0
 20
6.1662
 10
0.0
 20
6.3272
 10
0.0
 20
6.4882
 10
0.0
 20
6.6492
 10
0.0
 20
6.8102
 10
0.0
 20
6.9713
 10
0.0
 20
7.1323
 10
0.0
 20
7.2933
 10
0.0
 20
7.4543
 10
0.0
 20
7.6154
 10
0.0
 20
7.7152
 10
0.0
 20
7.7764
 10
0.0
 20
7.8298
 10
0.0
 20
7.9374
 10
0.0
 20
7.9444
 10
0.0
 20
8.059
 10
0.0
 20
8.0984
 10
0.0
 20
8.1736
 10
0.0
 20
8.2595
 10
0.0
 20
8.2882
 10
0.0
 20
8.4028
 10
0.0
 20
8.4205
 10
0.0
 20
8.5174
 10
0.0
 20
8.5815
 10
0.0
 20
8.6319
 10
0.0
 20
8.7425
 10
0.0
 20
8.7465
  0
LWPOLYLINE
  5
52
330
17
100
AcDbEntity
  8
OUTLINE
100
AcDbPolyline
 90
192
 70
1
 10
19.0864
 20
7.7865
 10
19.0595
 20
7.7854
 10
19.0321
 20
7.785
 10
19.0048
 20
7.7854
 10
18.9779
 20
7.7865
 10
18.9514
 20
7.7884
 10
18.9253
 20
7.791
 10
18.8995
 20
7.7943
 10
18.8742
 20
7.7984
 10
18.8493
 20
7.8032
 10
18.8248
 20
7.8088
 10
18.8007
 20
7.8151
 10
18.777
 20
7.8222
 10
18.7538
 20
7.83
 10
18.7309
 20
7.8385
 10
18.7084
 20
7.8478
 10
18.6863
 20
7.8579
 10
18.6646
 20
7.8686
 10
18.6434
 20
7.8801
 10
18.6225
 20
7.8924
 10
18.602
 20
7.9054
 10
18.582
 20
7.9192
 10
18.5623
 20
7.9337
 10
18.543
 20
7.9489
 10
18.5242
 20
7.9649
 10
18.5057
 20
7.9816
 10
18.4877
 20
7.9991
 10
18.4702
 20
8.0171
 10
18.4535
 20
8.0355
 10
18.4375
 20
8.0544
 10
18.4223
 20
8.0736
 10
18.4078
 20
8.0933
 10
18.394
 20
8.1133
 10
18.381
 20
8.1338
 10
18.3688
 20
8.1547
 10
18.3572
 20
8.1759
 10
18.3465
 20
8.1976
 10
18.3364
 20
8.2197
 10
18.3271
 20
8.2422
 10
18.3186
 20
8.2651
 10
18.3108
 20
8.2884
 10
18.3037
 20
8.312
 10
18.2974
 20
8.3361
 10
18.2918
 20
8.3606
 10
18.287
 20
8.3856
 10
18.2829
 20
8.4109
 10
18.2795
 20
8.4366
 10
18.2769
 20
8.4627
 10
18.2751
 20
8.4892
 10
18.274
 20
8.5161
 10
18.2736
 20
8.5435
 10
18.274
 20
8.5708
 10
18.2751
 20
8.5977
 10
18.2769
 20
8.6243
 10
18.2795
 20
8.6504
 10
18.2829
 20
8.6761
 10
18.287
 20
8.7014
 10
18.2918
 20
8.7263
 10
18.2974
 20
8.7508
 10
18.3037
 20
8.7749
 10
18.3107
 20
8.7986
 10
18.3185
 20
8.8219
 10
18.3271
 20
8.8448
 10
18.3364
 20
8.8673
 10
18.3464
 20
8.8894
 10
18.3572
 20
8.911
 10
18.3687
 20
8.9323
 10
18.381
 20
8.9532
 10
18.394
 20
8.9736
 10
18.4077
 20
8.9937
 10
18.4222
 20
9.0134
 10
18.4374
 20
9.0326
 10
18.4534
 20
9.0515
 10
18.4701
 20
9.0699
 10
18.4876
 20
9.0879
 10
18.5056
 20
9.1054
 10
18.5241
 20
9.1221
 10
18.5429
 20
9.1381
 10
18.5622
 20
9.1533
 10
18.5818
 20
9.1678
 10
18.6019
 20
9.1816
 10
18.6224
 20
9.1946
 10
18.6432
 20
9.2068
 10
18.6645
 20
9.2184
 10
18.6862
 20
9.2291
 10
18.7083
 20
9.2392
 10
18.7308
 20
9.2485
 10
18.7536
 20
9.257
 10
18.7769
 20
9.2648
 10
18.8006
 20
9.2719
 10
18.8247
 20
9.2782
 10
18.8492
 20
9.2838
 10
18.8741
 20
9.2886
 10
18.8994
 20
9.2927
 10
18.9251
 20
9.296
 10
18.9513
 20
9.2986
 10
18.9778
 20
9.3005
 10
19.0047
 20
9.3016
 10
19.032
 20
9.302
 10
19.0594
 20
9.3016
 10
19.0863
 20
9.3005
 10
19.1128
 20
9.2987
 10
19.1389
 20
9.2961
 10
19.1647
 20
9.2927
 10
19.19
 20
9.2886
 10
19.2149
 20
9.2838
 10
19.2394
 20
9.2782
 10
19.2635
 20
9.2719
 10
19.2872
 20
9.2649
 10
19.3105
 20
9.2571
 10
19.3334
 20
9.2485
 10
19.3558
 20
9.2392
 10
19.3779
 20
9.2292
 10
19.3996
 20
9.2184
 10
19.4209
 20
9.2069
 10
19.4417
 20
9.1946
 10
19.4622
 20
9.1816
 10
19.4823
 20
9.1679
 10
19.5019
 20
9.1534
 10
19.5212
 20
9.1382
 10
19.54
 20
9.1222
 10
19.5585
 20
9.1055
 10
19.5765
 20
9.088
 10
19.594
 20
9.07
 10
19.6107
 20
9.0515
 10
19.6267
 20
9.0327
 10
19.6419
 20
9.0134
 10
19.6564
 20
8.9938
 10
19.6702
 20
8.9737
 10
19.6832
 20
8.9533
 10
19.6954
 20
8.9324
 10
19.7069
 20
8.9111
 10
19.7177
 20
8.8894
 10
19.7278
 20
8.8674
 10
19.737
 20
8.8449
 10
19.7456
 20
8.822
 10
19.7534
 20
8.7987
 10
19.7605
 20
8.775
 10
19.7668
 20
8.7509
 10
19.7724
 20
8.7264
 10
19.7772
 20
8.7015
 10
19.7813
 20
8.6762
 10
19.7846
 20
8.6505
 10
19.7872
 20
8.6244
 10
19.7891
 20
8.5978
 10
19.7902
 20
8.5709
 10
19.7906
 20
8.5436
 10
19.7902
 20
8.5162
 10
19.7891
 20
8.4893
 10
19.7872
 20
8.4628
 10
19.7846
 20
8.4367
 10
19.7813
 20
8.411
 10
19.7772
 20
8.3856
 10
19.7724
 20
8.3607
 10
19.7668
 20
8.3362
 10
19.7605
 20
8.3121
 10
19.7534
 20
8.2884
 10
19.7456
 20
8.2652
 10
19.7371
 20
8.2423
 10
19.7278
 20
8.2198
 10
19.7177
 20
8.1977
 10
19.707
 20
8.176
 10
19.6954
 20
8.1548
 10
19.6832
 20
8.1339
 10
19.6702
 20
8.1134
 10
19.6564
 20
8.0934
 10
19.6419
 20
8.0737
 10
19.6267
 20
8.0545
 10
19.6107
 20
8.0356
 10
19.594
 20
8.0172
 10
19.5765
 20
7.9991
 10
19.5585
 20
7.9817
 10
19.5401
 20
7.9649
 10
19.5212
 20
7.949
 10
19.502
 20
7.9337
 10
19.4823
 20
7.9192
 10
19.4623
 20
7.9055
 10
19.4418
 20
7.8924
 10
19.4209
 20
7.8802
 10
19.3997
 20
7.8687
 10
19.378
 20
7.8579
 10
19.3559
 20
7.8478
 10
19.3334
 20
7.8385
 10
19.3105
 20
7.83
 10
19.2873
 20
7.8222
 10
19.2636
 20
7.8151
 10
19.2395
 20
7.8088
 10
19.215
 20
7.8032
 10
19.1901
 20
7.7984
 10
19.1647
 20
7.7943
 10
19.139
 20
7.791
 10
19.1129
 20
7.7884
  0
LWPOLYLINE
  5
53
330
17
100
AcDbEntity
  8
OUTLINE
100
AcDbPolyline
 90
329
 70
1
 10
40.1681
 20
6.1797
 10
40.1697
 20
6.1797
 10
40.2178
 20
6.1797
 10
40.2503
 20
6.2013
 10
40.2605
 20
6.2544
 10
40.2723
 20
6.3059
 10
40.2855
 20
6.3561
 10
40.3002
 20
6.4047
 10
40.3164
 20
6.4519
 10
40.3342
 20
6.4976
 10
40.3534
 20
6.5419
 10
40.3741
 20
6.5847
 10
40.3964
 20
6.626
 10
40.4201
 20
6.6658
 10
40.4453
 20
6.7042
 10
40.472
 20
6.7411
 10
40.5003
 20
6.7765
 10
40.53
 20
6.8105
 10
40.5612
 20
6.843
 10
40.5939
 20
6.874
 10
40.6282
 20
6.9036
 10
40.662
 20
6.9302
 10
40.6959
 20
6.9545
 10
40.7311
 20
6.9775
 10
40.7677
 20
6.9992
 10
40.8056
 20
7.0195
 10
40.8448
 20
7.0386
 10
40.8853
 20
7.0563
 10
40.9272
 20
7.0726
 10
40.9703
 20
7.0877
 10
41.0148
 20
7.1014
 10
41.0606
 20
7.1139
 10
41.1078
 20
7.125
 10
41.1562
 20
7.1347
 10
41.206
 20
7.1432
 10
41.2571
 20
7.1503
 10
41.3095
 20
7.1561
 10
41.3633
 20
7.1606
 10
41.4184
 20
7.1638
 10
41.4748
 20
7.1656
 10
41.5321
 20
7.1661
 10
41.5864
 20
7.1654
 10
41.6399
 20
7.1636
 10
41.6928
 20
7.1607
 10
41.7448
 20
7.1567
 10
41.7962
 20
7.1516
 10
41.8468
 20
7.1453
 10
41.8967
 20
7.1379
 10
41.9458
 20
7.1294
 10
41.9942
 20
7.1198
 10
42.0418
 20
7.1091
 10
42.0887
 20
7.0972
 10
42.1349
 20
7.0842
 10
42.1803
 20
7.0702
 10
42.225
 20
7.055
 10
42.269
 20
7.0386
 10
42.3122
 20
7.0212
 10
42.3547
 20
7.0026
 10
42.3964
 20
6.983
 10
42.4375
 20
6.9622
 10
42.4777
 20
6.9403
 10
42.5172
 20
6.9172
 10
42.556
 20
6.8931
 10
42.5941
 20
6.8678
 10
42.6314
 20
6.8415
 10
42.668
 20
6.814
 10
42.7038
 20
6.7854
 10
42.7389
 20
6.7556
 10
42.7733
 20
6.7248
 10
42.8069
 20
6.6928
 10
42.8398
 20
6.6597
 10
42.8719
 20
6.6255
 10
42.9034
 20
6.5902
 10
42.934
 20
6.5538
 10
42.964
 20
6.5162
 10
42.9901
 20
6.4817
 10
43.0135
 20
6.4493
 10
43.0363
 20
6.4162
 10
43.0586
 20
6.3825
 10
43.0803
 20
6.348
 10
43.1014
 20
6.313
 10
43.122
 20
6.2772
 10
43.142
 20
6.2408
 10
43.1614
 20
6.2037
 10
43.1802
 20
6.166
 10
43.1985
 20
6.1275
 10
43.2162
 20
6.0885
 10
43.2333
 20
6.0487
 10
43.2499
 20
6.0083
 10
43.2658
 20
5.9672
 10
43.2812
 20
5.9255
 10
43.2961
 20
5.8831
 10
43.3103
 20
5.84
 10
43.324
 20
5.7963
 10
43.3371
 20
5.7519
 10
43.3496
 20
5.7069
 10
43.3616
 20
5.6611
 10
43.373
 20
5.6147
 10
43.3838
 20
5.5677
 10
43.3941
 20
5.52
 10
43.4037
 20
5.4716
 10
43.4128
 20
5.4225
 10
43.4214
 20
5.3728
 10
43.4293
 20
5.3224
 10
43.4367
 20
5.2714
 10
43.4435
 20
5.2197
 10
43.4498
 20
5.1673
 10
43.4554
 20
5.1142
 10
43.4605
 20
5.0605
 10
43.465
 20
5.0061
 10
43.469
 20
4.9511
 10
43.4724
 20
4.8954
 10
43.4752
 20
4.839
 10
43.4774
 20
4.782
 10
43.4791
 20
4.7243
 10
43.4801
 20
4.6659
 10
43.4807
 20
4.6069
 10
43.4806
 20
4.5475
 10
43.4799
 20
4.4886
 10
43.4787
 20
4.4303
 10
43.4769
 20
4.3728
 10
43.4744
 20
4.316
 10
43.4714
 20
4.2598
 10
43.4678
 20
4.2043
 10
43.4636
 20
4.1495
 10
43.4588
 20
4.0953
 10
43.4534
 20
4.0419
 10
43.4475
 20
3.9891
 10
43.4409
 20
3.937
 10
43.4338
 20
3.8856
 10
43.426
 20
3.8349
 10
43.4177
 20
3.7848
 10
43.4088
 20
3.7355
 10
43.3992
 20
3.6868
 10
43.3891
 20
3.6388
 10
43.3784
 20
3.5915
 10
43.3672
 20
3.5448
 10
43.3553
 20
3.4988
 10
43.3428
 20
3.4536
 10
43.3298
 20
3.409
 10
43.3161
 20
3.365
 10
43.3019
 20
3.3218
 10
43.287
 20
3.2792
 10
43.2716
 20
3.2373
 10
43.2556
 20
3.1961
 10
43.239
 20
3.1556
 10
43.2218
 20
3.1158
 10
43.204
 20
3.0766
 10
43.1856
 20
3.0381
 10
43.1667
 20
3.0003
 10
43.1471
 20
2.9632
 10
43.127
 20
2.9268
 10
43.1062
 20
2.891
 10
43.0849
 20
2.8559
 10
43.063
 20
2.8215
 10
43.0405
 20
2.7878
 10
43.0174
 20
2.7548
 10
42.9937
 20
2.7224
 10
42.9681
 20
2.689
 10
42.938
 20
2.6519
 10
42.9072
 20
2.6158
 10
42.8757
 20
2.5808
 10
42.8435
 20
2.547
 10
42.8105
 20
2.5142
 10
42.7767
 20
2.4826
 10
42.7422
 20
2.4521
 10
42.707
 20
2.4227
 10
42.671
 20
2.3944
 10
42.6343
 20
2.3672
 10
42.5968
 20
2.3411
 10
42.5587
 20
2.3161
 10
42.5197
 20
2.2922
 10
42.48
 20
2.2695
 10
42.4396
 20
2.2478
 10
42.3985
 20
2.2273
 10
42.3566
 20
2.2079
 10
42.3139
 20
2.1896
 10
42.2705
 20
2.1724
 10
42.2264
 20
2.1563
 10
42.1815
 20
2.1413
 10
42.1359
 20
2.1274
 10
42.0896
 20
2.1146
 10
42.0425
 20
2.103
 10
41.9947
 20
2.0925
 10
41.9461
 20
2.083
 10
41.8968
 20
2.0747
 10
41.8467
 20
2.0675
 10
41.7959
 20
2.0614
 10
41.7444
 20
2.0564
 10
41.6921
 20
2.0525
 10
41.6391
 20
2.0497
 10
41.5854
 20
2.0481
 10
41.5309
 20
2.0475
 10
41.4752
 20
2.0482
 10
41.4206
 20
2.0503
 10
41.3672
 20
2.0538
 10
41.315
 20
2.0586
 10
41.2639
 20
2.0649
 10
41.214
 20
2.0725
 10
41.1652
 20
2.0816
 10
41.1176
 20
2.092
 10
41.0712
 20
2.1038
 10
41.0259
 20
2.117
 10
40.9818
 20
2.1316
 10
40.9388
 20
2.1476
 10
40.897
 20
2.165
 10
40.8564
 20
2.1838
 10
40.8169
 20
2.2039
 10
40.7785
 20
2.2255
 10
40.7414
 20
2.2484
 10
40.7054
 20
2.2728
 10
40.6705
 20
2.2985
 10
40.6347
 20
2.3274
 10
40.6006
 20
2.3578
 10
40.5681
 20
2.3897
 10
40.5372
 20
2.423
 10
40.508
 20
2.4578
 10
40.4804
 20
2.4941
 10
40.4545
 20
2.5319
 10
40.4302
 20
2.5711
 10
40.4076
 20
2.6118
 10
40.3866
 20
2.6539
 10
40.3672
 20
2.6975
 10
40.3495
 20
2.7426
 10
40.3335
 20
2.7892
 10
40.3191
 20
2.8372
 10
40.3063
 20
2.8867
 10
40.2952
 20
2.9377
 10
40.2857
 20
2.9901
 10
40.2703
 20
3.034
 10
40.2223
 20
3.034
 10
40.1814
 20
3.034
 10
40.1814
 20
2.9396
 10
40.1814
 20
2.8033
 10
40.1814
 20
2.667
 10
40.1814
 20
2.5307
 10
40.1814
 20
2.3944
 10
40.1814
 20
2.2581
 10
40.1814
 20
2.1218
 10
40.1814
 20
1.9855
 10
40.1814
 20
1.8492
 10
40.1814
 20
1.7129
 10
40.1814
 20
1.5766
 10
40.1814
 20
1.4403
 10
40.1814
 20
1.304
 10
40.1814
 20
1.1677
 10
40.1814
 20
1.0314
 10
40.1814
 20
0.8951
 10
40.1814
 20
0.7588
 10
40.1814
 20
0.6225
 10
40.1814
 20
0.4862
 10
40.1814
 20
0.3499
 10
40.1814
 20
0.2136
 10
40.1814
 20
0.0773
 10
40.1224
 20
0.0
 10
39.9861
 20
0.0
 10
39.8498
 20
0.0
 10
39.7135
 20
0.0
 10
39.5772
 20
0.0
 10
39.4409
 20
0.0
 10
39.3046
 20
0.0
 10
39.1683
 20
0.0
 10
39.032
 20
0.0
 10
39.032
 20
0.1363
 10
39.032
 20
0.2726
 10
39.032
 20
0.4089
 10
39.032
 20
0.5452
 10
39.032
 20
0.6815
 10
39.032
 20
0.8178
 10
39.032
 20
0.9541
 10
39.032
 20
1.0904
 10
39.032
 20
1.2267
 10
39.032
 20
1.363
 10
39.032
 20
1.4993
 10
39.032
 20
1.6356
 10
39.032
 20
1.7719
 10
39.032
 20
1.9082
 10
39.032
 20
2.0445
 10
39.032
 20
2.1808
 10
39.032
 20
2.3171
 10
39.032
 20
2.4534
 10
39.032
 20
2.5897
 10
39.032
 20
2.726
 10
39.032
 20
2.8623
 10
39.032
 20
2.9986
 10
39.032
 20
3.1349
 10
39.032
 20
3.2712
 10
39.032
 20
3.4075
 10
39.032
 20
3.5438
 10
39.032
 20
3.6801
 10
39.032
 20
3.8164
 10
39.032
 20
3.9527
 10
39.032
 20
4.089
 10
39.032
 20
4.2253
 10
39.032
 20
4.3616
 10
39.032
 20
4.4979
 10
39.032
 20
4.6342
 10
39.032
 20
4.7705
 10
39.032
 20
4.9068
 10
39.032
 20
5.0431
 10
39.032
 20
5.1794
 10
39.032
 20
5.3157
 10
39.032
 20
5.452
 10
39.032
 20
5.5883
 10
39.032
 20
5.7246
 10
39.032
 20
5.8609
 10
39.032
 20
5.9972
 10
39.032
 20
6.1335
 10
39.032
 20
6.2698
 10
39.032
 20
6.4061
 10
39.032
 20
6.5424
 10
39.032
 20
6.6787
 10
39.032
 20
6.815
 10
39.032
 20
6.9513
 10
39.0466
 20
7.0731
 10
39.1829
 20
7.0731
 10
39.3192
 20
7.0731
 10
39.4555
 20
7.0731
 10
39.5918
 20
7.0731
 10
39.7281
 20
7.0731
 10
39.8644
 20
7.0731
 10
40.0007
 20
7.0731
 10
40.0927
 20
7.0246
 10
40.1048
 20
6.8889
 10
40.1169
 20
6.7531
 10
40.1291
 20
6.6174
 10
40.1412
 20
6.4816
 10
40.1533
 20
6.3458
 10
40.1654
 20
6.2101
  0
LWPOLYLINE
  5
54
330
17
100
AcDbEntity
  8
OUTLINE
100
AcDbPolyline
 90
177
 70
1
 10
40.1814
 20
4.7158
 10
40.1814
 20
4.7115
 10
40.1814
 20
4.5752
 10
40.1814
 20
4.5295
 10
40.1814
 20
4.5295
 10
40.182
 20
4.4681
 10
40.1834
 20
4.408
 10
40.1858
 20
4.3492
 10
40.189
 20
4.2919
 10
40.1932
 20
4.2359
 10
40.1982
 20
4.1813
 10
40.2041
 20
4.128
 10
40.2109
 20
4.0762
 10
40.2186
 20
4.0257
 10
40.2272
 20
3.9765
 10
40.2367
 20
3.9288
 10
40.2471
 20
3.8824
 10
40.2584
 20
3.8374
 10
40.2706
 20
3.7937
 10
40.2837
 20
3.7514
 10
40.2976
 20
3.7105
 10
40.3125
 20
3.671
 10
40.3283
 20
3.6328
 10
40.3449
 20
3.596
 10
40.3624
 20
3.5606
 10
40.3809
 20
3.5265
 10
40.4002
 20
3.4939
 10
40.4205
 20
3.4625
 10
40.4443
 20
3.4289
 10
40.4722
 20
3.3937
 10
40.5018
 20
3.3605
 10
40.5331
 20
3.3293
 10
40.566
 20
3.3
 10
40.6006
 20
3.2726
 10
40.637
 20
3.2472
 10
40.6749
 20
3.2238
 10
40.7146
 20
3.2023
 10
40.756
 20
3.1827
 10
40.799
 20
3.1652
 10
40.8438
 20
3.1495
 10
40.8902
 20
3.1358
 10
40.9383
 20
3.1241
 10
40.9881
 20
3.1143
 10
41.0395
 20
3.1065
 10
41.0927
 20
3.1007
 10
41.1475
 20
3.0967
 10
41.204
 20
3.0948
 10
41.2604
 20
3.0948
 10
41.3143
 20
3.0968
 10
41.3668
 20
3.1008
 10
41.4179
 20
3.1068
 10
41.4676
 20
3.1149
 10
41.516
 20
3.1249
 10
41.5629
 20
3.137
 10
41.6085
 20
3.1511
 10
41.6526
 20
3.1671
 10
41.6954
 20
3.1852
 10
41.7368
 20
3.2054
 10
41.7768
 20
3.2275
 10
41.8154
 20
3.2516
 10
41.8526
 20
3.2777
 10
41.8884
 20
3.3059
 10
41.9229
 20
3.3361
 10
41.9559
 20
3.3682
 10
41.9876
 20
3.4024
 10
42.0178
 20
3.4386
 10
42.0459
 20
3.4757
 10
42.068
 20
3.5076
 10
42.0891
 20
3.5407
 10
42.1093
 20
3.5751
 10
42.1286
 20
3.6106
 10
42.1469
 20
3.6474
 10
42.1643
 20
3.6854
 10
42.1807
 20
3.7246
 10
42.1962
 20
3.7651
 10
42.2108
 20
3.8067
 10
42.2245
 20
3.8496
 10
42.2372
 20
3.8937
 10
42.2489
 20
3.939
 10
42.2598
 20
3.9856
 10
42.2697
 20
4.0334
 10
42.2787
 20
4.0823
 10
42.2867
 20
4.1325
 10
42.2938
 20
4.184
 10
42.3
 20
4.2366
 10
42.3052
 20
4.2905
 10
42.3095
 20
4.3455
 10
42.3128
 20
4.4019
 10
42.3153
 20
4.4594
 10
42.3167
 20
4.5181
 10
42.3173
 20
4.5781
 10
42.3169
 20
4.6377
 10
42.3156
 20
4.6961
 10
42.3135
 20
4.7534
 10
42.3104
 20
4.8095
 10
42.3064
 20
4.8646
 10
42.3014
 20
4.9184
 10
42.2956
 20
4.9712
 10
42.2889
 20
5.0228
 10
42.2813
 20
5.0733
 10
42.2727
 20
5.1226
 10
42.2633
 20
5.1708
 10
42.253
 20
5.2179
 10
42.2417
 20
5.2639
 10
42.2295
 20
5.3087
 10
42.2165
 20
5.3524
 10
42.2025
 20
5.3949
 10
42.1876
 20
5.4363
 10
42.1718
 20
5.4766
 10
42.1551
 20
5.5157
 10
42.1375
 20
5.5538
 10
42.119
 20
5.5906
 10
42.0996
 20
5.6264
 10
42.0792
 20
5.661
 10
42.058
 20
5.6945
 10
42.0352
 20
5.7277
 10
42.0058
 20
5.767
 10
41.975
 20
5.8043
 10
41.943
 20
5.8395
 10
41.9096
 20
5.8726
 10
41.875
 20
5.9037
 10
41.839
 20
5.9326
 10
41.8017
 20
5.9595
 10
41.7632
 20
5.9842
 10
41.7233
 20
6.0069
 10
41.6822
 20
6.0275
 10
41.6397
 20
6.046
 10
41.5959
 20
6.0625
 10
41.5509
 20
6.0768
 10
41.5045
 20
6.0891
 10
41.4568
 20
6.0992
 10
41.4079
 20
6.1073
 10
41.3576
 20
6.1133
 10
41.3061
 20
6.1172
 10
41.2532
 20
6.1191
 10
41.1985
 20
6.1188
 10
41.1443
 20
6.1165
 10
41.0917
 20
6.1122
 10
41.0405
 20
6.1058
 10
40.9908
 20
6.0974
 10
40.9425
 20
6.0869
 10
40.8957
 20
6.0745
 10
40.8504
 20
6.0599
 10
40.8066
 20
6.0434
 10
40.7642
 20
6.0248
 10
40.7232
 20
6.0041
 10
40.6838
 20
5.9814
 10
40.6457
 20
5.9567
 10
40.6092
 20
5.93
 10
40.5741
 20
5.9012
 10
40.5405
 20
5.8703
 10
40.5084
 20
5.8375
 10
40.4777
 20
5.8026
 10
40.4485
 20
5.7656
 10
40.4262
 20
5.7345
 10
40.4052
 20
5.7027
 10
40.3852
 20
5.6694
 10
40.3661
 20
5.6348
 10
40.3479
 20
5.5989
 10
40.3307
 20
5.5617
 10
40.3144
 20
5.523
 10
40.2991
 20
5.4831
 10
40.2847
 20
5.4418
 10
40.2712
 20
5.3991
 10
40.2587
 20
5.3552
 10
40.2471
 20
5.3098
 10
40.2365
 20
5.2631
 10
40.2268
 20
5.2151
 10
40.218
 20
5.1658
 10
40.2102
 20
5.1151
 10
40.2033
 20
5.063
 10
40.1974
 20
5.0096
 10
40.1924
 20
4.9549
 10
40.1883
 20
4.8988
 10
40.1852
 20
4.8414
 10
40.183
 20
4.7826
 10
40.1818
 20
4.7225
  0
LWPOLYLINE
  5
55
330
17
100
AcDbEntity
  8
OUTLINE
100
AcDbPolyline
 90
562
 70
1
 10
47.5602
 20
3.1172
 10
47.5571
 20
3.1684
 10
47.5562
 20
3.1829
 10
47.5255
 20
3.1829
 10
47.4915
 20
3.1829
 10
47.4575
 20
3.1829
 10
47.4501
 20
3.1829
 10
47.4469
 20
3.1539
 10
47.4422
 20
3.1182
 10
47.4368
 20
3.0831
 10
47.4306
 20
3.0486
 10
47.4237
 20
3.0147
 10
47.416
 20
2.9813
 10
47.4077
 20
2.9486
 10
47.3986
 20
2.9164
 10
47.3887
 20
2.8847
 10
47.3782
 20
2.8537
 10
47.3669
 20
2.8233
 10
47.3548
 20
2.7934
 10
47.3421
 20
2.7641
 10
47.3285
 20
2.7354
 10
47.3143
 20
2.7073
 10
47.2993
 20
2.6797
 10
47.2836
 20
2.6528
 10
47.2672
 20
2.6264
 10
47.249
 20
2.5991
 10
47.2296
 20
2.5717
 10
47.2095
 20
2.5451
 10
47.1886
 20
2.5191
 10
47.167
 20
2.4938
 10
47.1447
 20
2.4693
 10
47.1216
 20
2.4454
 10
47.0978
 20
2.4222
 10
47.0733
 20
2.3998
 10
47.048
 20
2.378
 10
47.022
 20
2.3569
 10
46.9953
 20
2.3365
 10
46.9678
 20
2.3168
 10
46.9396
 20
2.2979
 10
46.9107
 20
2.2796
 10
46.881
 20
2.262
 10
46.8506
 20
2.2451
 10
46.8195
 20
2.2289
 10
46.7876
 20
2.2134
 10
46.755
 20
2.1987
 10
46.7236
 20
2.1854
 10
46.6953
 20
2.1741
 10
46.6666
 20
2.1633
 10
46.6375
 20
2.153
 10
46.6079
 20
2.1432
 10
46.5778
 20
2.1339
 10
46.5473
 20
2.125
 10
46.5164
 20
2.1167
 10
46.4851
 20
2.1088
 10
46.4533
 20
2.1014
 10
46.421
 20
2.0944
 10
46.3884
 20
2.0879
 10
46.3552
 20
2.082
 10
46.3217
 20
2.0765
 10
46.2877
 20
2.0714
 10
46.2533
 20
2.0669
 10
46.2184
 20
2.0628
 10
46.1831
 20
2.0592
 10
46.1474
 20
2.0561
 10
46.1112
 20
2.0535
 10
46.0745
 20
2.0513
 10
46.0375
 20
2.0497
 10
46.0
 20
2.0485
 10
45.962
 20
2.0477
 10
45.9237
 20
2.0475
 10
45.883
 20
2.0478
 10
45.8429
 20
2.0485
 10
45.8032
 20
2.0498
 10
45.764
 20
2.0517
 10
45.7253
 20
2.054
 10
45.687
 20
2.0569
 10
45.6493
 20
2.0603
 10
45.612
 20
2.0642
 10
45.5752
 20
2.0686
 10
45.5389
 20
2.0736
 10
45.503
 20
2.0791
 10
45.4677
 20
2.0851
 10
45.4328
 20
2.0916
 10
45.3984
 20
2.0986
 10
45.3645
 20
2.1062
 10
45.3311
 20
2.1143
 10
45.2981
 20
2.1229
 10
45.2656
 20
2.132
 10
45.2336
 20
2.1417
 10
45.2021
 20
2.1518
 10
45.1711
 20
2.1625
 10
45.1405
 20
2.1738
 10
45.1104
 20
2.1855
 10
45.0809
 20
2.1978
 10
45.0517
 20
2.2105
 10
45.0231
 20
2.2238
 10
44.9949
 20
2.2377
 10
44.9673
 20
2.252
 10
44.9401
 20
2.2669
 10
44.9134
 20
2.2823
 10
44.8871
 20
2.2982
 10
44.8614
 20
2.3146
 10
44.8361
 20
2.3316
 10
44.8113
 20
2.3491
 10
44.787
 20
2.3671
 10
44.7632
 20
2.3856
 10
44.7398
 20
2.4046
 10
44.717
 20
2.4242
 10
44.6932
 20
2.4455
 10
44.6697
 20
2.4678
 10
44.6469
 20
2.4905
 10
44.6247
 20
2.5138
 10
44.6033
 20
2.5376
 10
44.5825
 20
2.5619
 10
44.5625
 20
2.5867
 10
44.5431
 20
2.612
 10
44.5244
 20
2.6378
 10
44.5064
 20
2.6641
 10
44.4891
 20
2.6909
 10
44.4725
 20
2.7182
 10
44.4566
 20
2.7461
 10
44.4414
 20
2.7744
 10
44.4268
 20
2.8033
 10
44.413
 20
2.8326
 10
44.3998
 20
2.8625
 10
44.3874
 20
2.8929
 10
44.3756
 20
2.9238
 10
44.3645
 20
2.9552
 10
44.3541
 20
2.9871
 10
44.3444
 20
3.0195
 10
44.3354
 20
3.0524
 10
44.3271
 20
3.0858
 10
44.3194
 20
3.1197
 10
44.3125
 20
3.1542
 10
44.3063
 20
3.1891
 10
44.3007
 20
3.2246
 10
44.2958
 20
3.2605
 10
44.2916
 20
3.297
 10
44.2882
 20
3.334
 10
44.2854
 20
3.3715
 10
44.2833
 20
3.4095
 10
44.2818
 20
3.448
 10
44.2811
 20
3.487
 10
44.2811
 20
3.526
 10
44.2817
 20
3.5642
 10
44.283
 20
3.602
 10
44.2849
 20
3.6394
 10
44.2875
 20
3.6763
 10
44.2908
 20
3.7128
 10
44.2947
 20
3.7489
 10
44.2992
 20
3.7845
 10
44.3045
 20
3.8197
 10
44.3103
 20
3.8545
 10
44.3169
 20
3.8889
 10
44.3241
 20
3.9228
 10
44.3319
 20
3.9563
 10
44.3404
 20
3.9894
 10
44.3496
 20
4.022
 10
44.3594
 20
4.0542
 10
44.3699
 20
4.086
 10
44.381
 20
4.1174
 10
44.3928
 20
4.1483
 10
44.4052
 20
4.1788
 10
44.4183
 20
4.2089
 10
44.4321
 20
4.2385
 10
44.4465
 20
4.2677
 10
44.4616
 20
4.2965
 10
44.4773
 20
4.3248
 10
44.4937
 20
4.3528
 10
44.5107
 20
4.3803
 10
44.5284
 20
4.4073
 10
44.5467
 20
4.434
 10
44.5657
 20
4.4602
 10
44.5854
 20
4.486
 10
44.6057
 20
4.5113
 10
44.6267
 20
4.5362
 10
44.6483
 20
4.5607
 10
44.6706
 20
4.5848
 10
44.6936
 20
4.6084
 10
44.7172
 20
4.6316
 10
44.7414
 20
4.6544
 10
44.7664
 20
4.6768
 10
44.7919
 20
4.6987
 10
44.8182
 20
4.7202
 10
44.845
 20
4.7412
 10
44.8701
 20
4.76
 10
44.8933
 20
4.7768
 10
44.9168
 20
4.7932
 10
44.9408
 20
4.8093
 10
44.9651
 20
4.825
 10
44.9898
 20
4.8405
 10
45.0149
 20
4.8555
 10
45.0403
 20
4.8703
 10
45.0662
 20
4.8847
 10
45.0924
 20
4.8987
 10
45.1189
 20
4.9124
 10
45.1459
 20
4.9258
 10
45.1732
 20
4.9389
 10
45.2009
 20
4.9516
 10
45.229
 20
4.9639
 10
45.2574
 20
4.976
 10
45.2862
 20
4.9876
 10
45.3154
 20
4.999
 10
45.345
 20
5.01
 10
45.3749
 20
5.0207
 10
45.4053
 20
5.031
 10
45.436
 20
5.041
 10
45.467
 20
5.0507
 10
45.4985
 20
5.06
 10
45.5303
 20
5.069
 10
45.5625
 20
5.0776
 10
45.595
 20
5.0859
 10
45.628
 20
5.0939
 10
45.6613
 20
5.1015
 10
45.695
 20
5.1088
 10
45.7291
 20
5.1158
 10
45.7635
 20
5.1224
 10
45.7983
 20
5.1287
 10
45.8335
 20
5.1346
 10
45.8691
 20
5.1402
 10
45.905
 20
5.1455
 10
45.9413
 20
5.1504
 10
45.978
 20
5.155
 10
46.0151
 20
5.1592
 10
46.0525
 20
5.1631
 10
46.0903
 20
5.1667
 10
46.1285
 20
5.1699
 10
46.1671
 20
5.1728
 10
46.206
 20
5.1754
 10
46.2453
 20
5.1776
 10
46.285
 20
5.1795
 10
46.3251
 20
5.181
 10
46.3655
 20
5.1822
 10
46.4063
 20
5.1831
 10
46.4475
 20
5.1836
 10
46.4891
 20
5.1838
 10
46.5277
 20
5.1837
 10
46.5656
 20
5.1834
 10
46.6032
 20
5.183
 10
46.6403
 20
5.1823
 10
46.6769
 20
5.1814
 10
46.7132
 20
5.1803
 10
46.749
 20
5.1791
 10
46.7843
 20
5.1776
 10
46.8193
 20
5.1759
 10
46.8537
 20
5.174
 10
46.8878
 20
5.172
 10
46.9214
 20
5.1697
 10
46.9546
 20
5.1673
 10
46.9874
 20
5.1646
 10
47.0197
 20
5.1618
 10
47.0516
 20
5.1587
 10
47.083
 20
5.1555
 10
47.1141
 20
5.152
 10
47.1447
 20
5.1484
 10
47.1748
 20
5.1445
 10
47.2045
 20
5.1405
 10
47.2351
 20
5.1361
 10
47.2695
 20
5.1308
 10
47.3038
 20
5.1251
 10
47.3379
 20
5.1192
 10
47.3718
 20
5.113
 10
47.4055
 20
5.1065
 10
47.4391
 20
5.0996
 10
47.4685
 20
5.0933
 10
47.4685
 20
5.1113
 10
47.4685
 20
5.1625
 10
47.4683
 20
5.2166
 10
47.4655
 20
5.2732
 10
47.4595
 20
5.3278
 10
47.4505
 20
5.3803
 10
47.4383
 20
5.4306
 10
47.4231
 20
5.4788
 10
47.4047
 20
5.5249
 10
47.3832
 20
5.569
 10
47.3586
 20
5.6109
 10
47.3309
 20
5.6507
 10
47.3001
 20
5.6883
 10
47.2662
 20
5.7239
 10
47.2292
 20
5.7574
 10
47.189
 20
5.7887
 10
47.1457
 20
5.818
 10
47.1077
 20
5.8406
 10
47.0727
 20
5.8594
 10
47.0361
 20
5.8773
 10
46.9979
 20
5.8943
 10
46.9581
 20
5.9105
 10
46.9166
 20
5.9258
 10
46.8736
 20
5.9402
 10
46.829
 20
5.9537
 10
46.7828
 20
5.9663
 10
46.735
 20
5.9781
 10
46.6856
 20
5.989
 10
46.6346
 20
5.999
 10
46.582
 20
6.0081
 10
46.5278
 20
6.0164
 10
46.472
 20
6.0238
 10
46.4145
 20
6.0303
 10
46.3555
 20
6.0359
 10
46.2949
 20
6.0406
 10
46.2327
 20
6.0445
 10
46.1689
 20
6.0475
 10
46.106
 20
6.0495
 10
46.0547
 20
6.0509
 10
46.0035
 20
6.0523
 10
45.9523
 20
6.0536
 10
45.901
 20
6.055
 10
45.8498
 20
6.0563
 10
45.7986
 20
6.0577
 10
45.7473
 20
6.0591
 10
45.6961
 20
6.0604
 10
45.6449
 20
6.0618
 10
45.5936
 20
6.0631
 10
45.5424
 20
6.0645
 10
45.4912
 20
6.0658
 10
45.4399
 20
6.0672
 10
45.3887
 20
6.0686
 10
45.3375
 20
6.0699
 10
45.2863
 20
6.0713
 10
45.235
 20
6.0726
 10
45.1838
 20
6.074
 10
45.1326
 20
6.0754
 10
45.0813
 20
6.0767
 10
45.0301
 20
6.0781
 10
44.9789
 20
6.0794
 10
44.9276
 20
6.0808
 10
44.8869
 20
6.0915
 10
44.8914
 20
6.1425
 10
44.896
 20
6.1936
 10
44.9006
 20
6.2446
 10
44.9052
 20
6.2957
 10
44.9097
 20
6.3467
 10
44.9143
 20
6.3978
 10
44.9189
 20
6.4488
 10
44.9235
 20
6.4998
 10
44.928
 20
6.5509
 10
44.9326
 20
6.6019
 10
44.9372
 20
6.653
 10
44.9417
 20
6.704
 10
44.9463
 20
6.7551
 10
44.9509
 20
6.8061
 10
44.9555
 20
6.8572
 10
44.96
 20
6.9082
 10
44.9646
 20
6.9593
 10
44.9692
 20
7.0103
 10
44.9738
 20
7.0613
 10
44.9783
 20
7.1124
 10
45.0229
 20
7.1191
 10
45.0742
 20
7.1184
 10
45.1254
 20
7.1177
 10
45.1767
 20
7.117
 10
45.2279
 20
7.1163
 10
45.2792
 20
7.1156
 10
45.3304
 20
7.1149
 10
45.3816
 20
7.1142
 10
45.4329
 20
7.1136
 10
45.4841
 20
7.1129
 10
45.5354
 20
7.1122
 10
45.5866
 20
7.1115
 10
45.6379
 20
7.1108
 10
45.6891
 20
7.1101
 10
45.7404
 20
7.1094
 10
45.7916
 20
7.1087
 10
45.8429
 20
7.108
 10
45.8941
 20
7.1074
 10
45.9453
 20
7.1067
 10
45.9966
 20
7.106
 10
46.055
 20
7.1051
 10
46.1195
 20
7.1035
 10
46.1831
 20
7.1013
 10
46.2459
 20
7.0985
 10
46.3078
 20
7.095
 10
46.3689
 20
7.0909
 10
46.4292
 20
7.0862
 10
46.4885
 20
7.0809
 10
46.5471
 20
7.0749
 10
46.6048
 20
7.0684
 10
46.6616
 20
7.0611
 10
46.7176
 20
7.0533
 10
46.7727
 20
7.0448
 10
46.827
 20
7.0357
 10
46.8805
 20
7.026
 10
46.9331
 20
7.0157
 10
46.9848
 20
7.0047
 10
47.0357
 20
6.9931
 10
47.0858
 20
6.9809
 10
47.135
 20
6.968
 10
47.1833
 20
6.9546
 10
47.2308
 20
6.9404
 10
47.2775
 20
6.9257
 10
47.3233
 20
6.9104
 10
47.3683
 20
6.8944
 10
47.4124
 20
6.8778
 10
47.4556
 20
6.8605
 10
47.498
 20
6.8427
 10
47.5396
 20
6.8242
 10
47.5803
 20
6.8051
 10
47.6202
 20
6.7853
 10
47.6592
 20
6.7649
 10
47.6973
 20
6.7439
 10
47.7347
 20
6.7223
 10
47.7711
 20
6.7001
 10
47.8068
 20
6.6772
 10
47.8415
 20
6.6537
 10
47.8754
 20
6.6296
 10
47.9085
 20
6.6048
 10
47.9407
 20
6.5794
 10
47.9782
 20
6.5483
 10
48.0151
 20
6.5158
 10
48.0507
 20
6.4824
 10
48.0852
 20
6.4482
 10
48.1185
 20
6.4131
 10
48.1506
 20
6.3771
 10
48.1815
 20
6.3402
 10
48.2112
 20
6.3025
 10
48.2398
 20
6.2638
 10
48.2672
 20
6.2243
 10
48.2934
 20
6.184
 10
48.3184
 20
6.1427
 10
48.3423
 20
6.1005
 10
48.3649
 20
6.0575
 10
48.3864
 20
6.0136
 10
48.4067
 20
5.9689
 10
48.4259
 20
5.9232
 10
48.4438
 20
5.8767
 10
48.4606
 20
5.8292
 10
48.4762
 20
5.781
 10
48.4906
 20
5.7318
 10
48.5038
 20
5.6817
 10
48.5158
 20
5.6308
 10
48.5267
 20
5.579
 10
48.5364
 20
5.5263
 10
48.5449
 20
5.4727
 10
48.5522
 20
5.4183
 10
48.5584
 20
5.363
 10
48.5633
 20
5.3068
 10
48.5671
 20
5.2497
 10
48.5697
 20
5.1917
 10
48.5711
 20
5.1329
 10
48.5714
 20
5.0758
 10
48.5714
 20
5.0245
 10
48.5714
 20
4.9733
 10
48.5714
 20
4.922
 10
48.5714
 20
4.8708
 10
48.5714
 20
4.8195
 10
48.5714
 20
4.7683
 10
48.5714
 20
4.717
 10
48.5714
 20
4.6658
 10
48.5714
 20
4.6145
 10
48.5714
 20
4.5633
 10
48.5714
 20
4.512
 10
48.5714
 20
4.4608
 10
48.5714
 20
4.4095
 10
48.5714
 20
4.3583
 10
48.5714
 20
4.307
 10
48.5714
 20
4.2558
 10
48.5714
 20
4.2045
 10
48.5714
 20
4.1533
 10
48.5714
 20
4.102
 10
48.5714
 20
4.0508
 10
48.5714
 20
3.9995
 10
48.5714
 20
3.9483
 10
48.5714
 20
3.897
 10
48.5714
 20
3.8458
 10
48.5714
 20
3.7945
 10
48.5714
 20
3.7433
 10
48.5714
 20
3.692
 10
48.5714
 20
3.6408
 10
48.5714
 20
3.5895
 10
48.5714
 20
3.5383
 10
48.5714
 20
3.487
 10
48.5714
 20
3.4358
 10
48.5714
 20
3.3845
 10
48.5714
 20
3.3333
 10
48.5714
 20
3.282
 10
48.5714
 20
3.2308
 10
48.5714
 20
3.1795
 10
48.6164
 20
3.1674
 10
48.6671
 20
3.1605
 10
48.7179
 20
3.1535
 10
48.7687
 20
3.1465
 10
48.8194
 20
3.1395
 10
48.8702
 20
3.1325
 10
48.921
 20
3.1255
 10
48.9718
 20
3.1186
 10
49.0225
 20
3.1116
 10
49.0733
 20
3.1046
 10
49.1241
 20
3.0976
 10
49.1749
 20
3.0906
 10
49.2256
 20
3.0837
 10
49.2764
 20
3.0767
 10
49.3159
 20
3.0598
 10
49.3159
 20
3.0086
 10
49.3159
 20
2.9573
 10
49.3159
 20
2.9061
 10
49.3159
 20
2.8548
 10
49.3159
 20
2.8036
 10
49.3159
 20
2.7523
 10
49.3159
 20
2.7011
 10
49.3159
 20
2.6498
 10
49.3159
 20
2.5986
 10
49.3159
 20
2.5474
 10
49.3159
 20
2.4961
 10
49.3159
 20
2.4449
 10
49.3159
 20
2.3936
 10
49.3159
 20
2.3424
 10
49.3159
 20
2.2911
 10
49.3159
 20
2.2399
 10
49.3159
 20
2.1886
 10
49.3127
 20
2.1405
 10
49.2614
 20
2.1391
 10
49.2102
 20
2.1377
 10
49.159
 20
2.1363
 10
49.1077
 20
2.1349
 10
49.0565
 20
2.1334
 10
49.0053
 20
2.132
 10
48.9541
 20
2.1306
 10
48.9028
 20
2.1292
 10
48.8516
 20
2.1278
 10
48.8004
 20
2.1264
 10
48.7491
 20
2.125
 10
48.6979
 20
2.1236
 10
48.6467
 20
2.1222
 10
48.5954
 20
2.1208
 10
48.5442
 20
2.1194
 10
48.493
 20
2.118
 10
48.4417
 20
2.1166
 10
48.3905
 20
2.1152
 10
48.3393
 20
2.1138
 10
48.2881
 20
2.1124
 10
48.2368
 20
2.111
 10
48.1856
 20
2.1096
 10
48.1344
 20
2.1081
 10
48.0831
 20
2.1067
 10
48.0319
 20
2.1053
 10
47.9807
 20
2.1039
 10
47.9294
 20
2.1025
 10
47.8782
 20
2.1011
 10
47.827
 20
2.0997
 10
47.7758
 20
2.0983
 10
47.7245
 20
2.0969
 10
47.6733
 20
2.0955
 10
47.6221
 20
2.0941
 10
47.619
 20
2.1452
 10
47.6159
 20
2.1964
 10
47.6128
 20
2.2476
 10
47.6097
 20
2.2987
 10
47.6066
 20
2.3499
 10
47.6035
 20
2.401
 10
47.6004
 20
2.4522
 10
47.5973
 20
2.5033
 10
47.5942
 20
2.5545
 10
47.5911
 20
2.6056
 10
47.588
 20
2.6568
 10
47.5849
 20
2.708
 10
47.5818
 20
2.7591
 10
47.5787
 20
2.8103
 10
47.5757
 20
2.8614
 10
47.5726
 20
2.9126
 10
47.5695
 20
2.9637
 10
47.5664
 20
3.0149
 10
47.5633
 20
3.0661
  0
LWPOLYLINE
  5
56
330
17
100
AcDbEntity
  8
OUTLINE
100
AcDbPolyline
 90
163
 70
1
 10
47.4685
 20
4.1699
 10
47.4494
 20
4.1734
 10
47.415
 20
4.1795
 10
47.3809
 20
4.1851
 10
47.347
 20
4.1903
 10
47.3135
 20
4.1951
 10
47.2802
 20
4.1995
 10
47.2473
 20
4.2035
 10
47.2146
 20
4.207
 10
47.1823
 20
4.2102
 10
47.1502
 20
4.2129
 10
47.1185
 20
4.2152
 10
47.087
 20
4.2172
 10
47.0555
 20
4.2187
 10
47.0228
 20
4.2201
 10
46.99
 20
4.2213
 10
46.957
 20
4.2226
 10
46.9238
 20
4.2237
 10
46.8904
 20
4.2247
 10
46.8568
 20
4.2256
 10
46.8231
 20
4.2265
 10
46.7892
 20
4.2272
 10
46.7551
 20
4.2279
 10
46.7208
 20
4.2284
 10
46.6863
 20
4.2289
 10
46.6517
 20
4.2293
 10
46.6168
 20
4.2296
 10
46.5818
 20
4.2298
 10
46.5466
 20
4.2299
 10
46.5075
 20
4.2299
 10
46.4564
 20
4.2294
 10
46.4065
 20
4.2282
 10
46.3579
 20
4.2262
 10
46.3105
 20
4.2235
 10
46.2643
 20
4.22
 10
46.2193
 20
4.2159
 10
46.1756
 20
4.211
 10
46.1331
 20
4.2054
 10
46.0918
 20
4.1991
 10
46.0518
 20
4.192
 10
46.013
 20
4.1842
 10
45.9754
 20
4.1757
 10
45.9391
 20
4.1665
 10
45.904
 20
4.1565
 10
45.8701
 20
4.1459
 10
45.8375
 20
4.1344
 10
45.8061
 20
4.1223
 10
45.7759
 20
4.1094
 10
45.747
 20
4.0959
 10
45.7192
 20
4.0815
 10
45.6928
 20
4.0665
 10
45.6675
 20
4.0507
 10
45.6435
 20
4.0343
 10
45.6207
 20
4.017
 10
45.5991
 20
3.9991
 10
45.5788
 20
3.9804
 10
45.5597
 20
3.9611
 10
45.5419
 20
3.9409
 10
45.5252
 20
3.9201
 10
45.5098
 20
3.8985
 10
45.4957
 20
3.8762
 10
45.4827
 20
3.8532
 10
45.471
 20
3.8295
 10
45.4606
 20
3.805
 10
45.4513
 20
3.7798
 10
45.4433
 20
3.7539
 10
45.4365
 20
3.7272
 10
45.431
 20
3.6999
 10
45.4267
 20
3.6718
 10
45.4236
 20
3.643
 10
45.4217
 20
3.6134
 10
45.4211
 20
3.5831
 10
45.422
 20
3.5446
 10
45.4248
 20
3.5073
 10
45.4294
 20
3.4714
 10
45.4358
 20
3.4367
 10
45.4441
 20
3.4032
 10
45.4542
 20
3.3711
 10
45.4662
 20
3.3403
 10
45.48
 20
3.3107
 10
45.4957
 20
3.2825
 10
45.5131
 20
3.2555
 10
45.5325
 20
3.2298
 10
45.5536
 20
3.2054
 10
45.5767
 20
3.1823
 10
45.6015
 20
3.1604
 10
45.6258
 20
3.1416
 10
45.6492
 20
3.1255
 10
45.6738
 20
3.1103
 10
45.6995
 20
3.0962
 10
45.7263
 20
3.083
 10
45.7544
 20
3.0708
 10
45.7835
 20
3.0596
 10
45.8139
 20
3.0494
 10
45.8454
 20
3.0402
 10
45.878
 20
3.0319
 10
45.9118
 20
3.0247
 10
45.9468
 20
3.0184
 10
45.9829
 20
3.0131
 10
46.0202
 20
3.0088
 10
46.0586
 20
3.0055
 10
46.0982
 20
3.0032
 10
46.1389
 20
3.0018
 10
46.1804
 20
3.0015
 10
46.2193
 20
3.0019
 10
46.2576
 20
3.003
 10
46.2953
 20
3.0047
 10
46.3324
 20
3.0071
 10
46.369
 20
3.0101
 10
46.4049
 20
3.0138
 10
46.4403
 20
3.0182
 10
46.4751
 20
3.0232
 10
46.5093
 20
3.0289
 10
46.5429
 20
3.0352
 10
46.5759
 20
3.0422
 10
46.6083
 20
3.0498
 10
46.6402
 20
3.0581
 10
46.6715
 20
3.067
 10
46.7021
 20
3.0766
 10
46.7322
 20
3.0869
 10
46.7617
 20
3.0978
 10
46.7906
 20
3.1094
 10
46.8189
 20
3.1216
 10
46.8467
 20
3.1345
 10
46.8738
 20
3.148
 10
46.9026
 20
3.1634
 10
46.9348
 20
3.1817
 10
46.9661
 20
3.2006
 10
46.9965
 20
3.22
 10
47.0259
 20
3.2399
 10
47.0544
 20
3.2604
 10
47.0819
 20
3.2815
 10
47.1085
 20
3.3031
 10
47.1341
 20
3.3252
 10
47.1588
 20
3.348
 10
47.1825
 20
3.3712
 10
47.2053
 20
3.395
 10
47.2272
 20
3.4194
 10
47.2481
 20
3.4443
 10
47.268
 20
3.4697
 10
47.287
 20
3.4957
 10
47.3051
 20
3.5223
 10
47.3222
 20
3.5494
 10
47.3402
 20
3.5802
 10
47.3573
 20
3.6115
 10
47.3732
 20
3.643
 10
47.3878
 20
3.6746
 10
47.4012
 20
3.7064
 10
47.4134
 20
3.7383
 10
47.4244
 20
3.7703
 10
47.4342
 20
3.8025
 10
47.4427
 20
3.8348
 10
47.45
 20
3.8673
 10
47.4561
 20
3.8999
 10
47.461
 20
3.9326
 10
47.4647
 20
3.9654
 10
47.4671
 20
3.9984
 10
47.4684
 20
4.0316
 10
47.4685
 20
4.0652
 10
47.4685
 20
4.0992
 10
47.4685
 20
4.1332
 10
47.4685
 20
4.1376
 10
47.4685
 20
4.1671
  0
LWPOLYLINE
  5
57
330
17
100
AcDbEntity
  8
OUTLINE
100
AcDbPolyline
 90
368
 70
1
 10
56.783
 20
4.1322
 10
56.7605
 20
4.1322
 10
56.772
 20
4.0907
 10
56.7897
 20
4.0354
 10
56.8092
 20
3.9815
 10
56.8306
 20
3.9292
 10
56.8538
 20
3.8785
 10
56.8788
 20
3.8293
 10
56.9057
 20
3.7816
 10
56.9345
 20
3.7355
 10
56.9651
 20
3.6909
 10
56.9976
 20
3.6478
 10
57.0319
 20
3.6063
 10
57.068
 20
3.5663
 10
57.106
 20
3.5279
 10
57.1452
 20
3.4916
 10
57.185
 20
3.4577
 10
57.2262
 20
3.4253
 10
57.2689
 20
3.3945
 10
57.313
 20
3.3653
 10
57.3586
 20
3.3377
 10
57.4056
 20
3.3116
 10
57.454
 20
3.2871
 10
57.5038
 20
3.2642
 10
57.5551
 20
3.2428
 10
57.6078
 20
3.223
 10
57.662
 20
3.2048
 10
57.7176
 20
3.1882
 10
57.7746
 20
3.1731
 10
57.8331
 20
3.1597
 10
57.893
 20
3.1477
 10
57.9543
 20
3.1374
 10
58.0171
 20
3.1286
 10
58.0813
 20
3.1215
 10
58.1469
 20
3.1158
 10
58.214
 20
3.1118
 10
58.2825
 20
3.1093
 10
58.3525
 20
3.1084
 10
58.4129
 20
3.1087
 10
58.4723
 20
3.1095
 10
58.5316
 20
3.111
 10
58.5907
 20
3.113
 10
58.6495
 20
3.1156
 10
58.7082
 20
3.1188
 10
58.7667
 20
3.1225
 10
58.825
 20
3.1269
 10
58.8831
 20
3.1319
 10
58.941
 20
3.1374
 10
58.9987
 20
3.1435
 10
59.0558
 20
3.1501
 10
59.1132
 20
3.1571
 10
59.1708
 20
3.1645
 10
59.2285
 20
3.1723
 10
59.2865
 20
3.1806
 10
59.3446
 20
3.1892
 10
59.4029
 20
3.1983
 10
59.4615
 20
3.2079
 10
59.5202
 20
3.2178
 10
59.5791
 20
3.2282
 10
59.6372
 20
3.2376
 10
59.6438
 20
3.1792
 10
59.6505
 20
3.1208
 10
59.6571
 20
3.0624
 10
59.6638
 20
3.004
 10
59.6705
 20
2.9456
 10
59.6771
 20
2.8871
 10
59.6838
 20
2.8287
 10
59.6904
 20
2.7703
 10
59.6971
 20
2.7119
 10
59.7037
 20
2.6535
 10
59.7104
 20
2.5951
 10
59.7171
 20
2.5367
 10
59.7237
 20
2.4783
 10
59.7304
 20
2.4198
 10
59.737
 20
2.3614
 10
59.7437
 20
2.303
 10
59.7504
 20
2.2446
 10
59.757
 20
2.1862
 10
59.7039
 20
2.168
 10
59.6415
 20
2.1572
 10
59.5797
 20
2.1469
 10
59.5186
 20
2.1372
 10
59.4583
 20
2.1281
 10
59.3987
 20
2.1196
 10
59.3398
 20
2.1117
 10
59.2817
 20
2.1043
 10
59.2242
 20
2.0976
 10
59.1675
 20
2.0914
 10
59.1115
 20
2.0858
 10
59.0562
 20
2.0808
 10
59.0017
 20
2.0764
 10
58.9479
 20
2.0725
 10
58.8884
 20
2.0689
 10
58.8232
 20
2.0652
 10
58.7594
 20
2.0618
 10
58.697
 20
2.0588
 10
58.6359
 20
2.0562
 10
58.5761
 20
2.0539
 10
58.5177
 20
2.0519
 10
58.4606
 20
2.0503
 10
58.4049
 20
2.0491
 10
58.3505
 20
2.0482
 10
58.2974
 20
2.0477
 10
58.2457
 20
2.0475
 10
58.1759
 20
2.048
 10
58.1069
 20
2.0495
 10
58.0388
 20
2.0521
 10
57.9716
 20
2.0556
 10
57.9053
 20
2.0602
 10
57.8399
 20
2.0658
 10
57.7754
 20
2.0724
 10
57.7117
 20
2.08
 10
57.6489
 20
2.0886
 10
57.587
 20
2.0982
 10
57.526
 20
2.1089
 10
57.4659
 20
2.1206
 10
57.4067
 20
2.1332
 10
57.3483
 20
2.1469
 10
57.2908
 20
2.1617
 10
57.2342
 20
2.1774
 10
57.1785
 20
2.1941
 10
57.1237
 20
2.2119
 10
57.0697
 20
2.2307
 10
57.0167
 20
2.2505
 10
56.9645
 20
2.2713
 10
56.9132
 20
2.2931
 10
56.8628
 20
2.3159
 10
56.8133
 20
2.3398
 10
56.7646
 20
2.3646
 10
56.7169
 20
2.3905
 10
56.67
 20
2.4174
 10
56.624
 20
2.4453
 10
56.5789
 20
2.4742
 10
56.5346
 20
2.5042
 10
56.4913
 20
2.5351
 10
56.4488
 20
2.5671
 10
56.4072
 20
2.6001
 10
56.3665
 20
2.6341
 10
56.3267
 20
2.6691
 10
56.2878
 20
2.7051
 10
56.2492
 20
2.7427
 10
56.2116
 20
2.7813
 10
56.1751
 20
2.8208
 10
56.1397
 20
2.8613
 10
56.1054
 20
2.9027
 10
56.0722
 20
2.945
 10
56.0402
 20
2.9882
 10
56.0092
 20
3.0323
 10
55.9793
 20
3.0774
 10
55.9505
 20
3.1233
 10
55.9228
 20
3.1702
 10
55.8962
 20
3.2181
 10
55.8708
 20
3.2668
 10
55.8464
 20
3.3164
 10
55.8231
 20
3.367
 10
55.8009
 20
3.4185
 10
55.7799
 20
3.4709
 10
55.7599
 20
3.5243
 10
55.741
 20
3.5785
 10
55.7233
 20
3.6337
 10
55.7066
 20
3.6898
 10
55.691
 20
3.7468
 10
55.6765
 20
3.8047
 10
55.6632
 20
3.8636
 10
55.6509
 20
3.9234
 10
55.6398
 20
3.9841
 10
55.6297
 20
4.0457
 10
55.6207
 20
4.1082
 10
55.6129
 20
4.1717
 10
55.6061
 20
4.236
 10
55.6005
 20
4.3013
 10
55.5959
 20
4.3675
 10
55.5924
 20
4.4347
 10
55.5901
 20
4.5027
 10
55.5888
 20
4.5717
 10
55.5887
 20
4.6417
 10
55.5896
 20
4.7115
 10
55.5914
 20
4.7805
 10
55.5943
 20
4.8485
 10
55.5982
 20
4.9155
 10
55.603
 20
4.9817
 10
55.6089
 20
5.0469
 10
55.6158
 20
5.1113
 10
55.6237
 20
5.1747
 10
55.6326
 20
5.2371
 10
55.6425
 20
5.2987
 10
55.6534
 20
5.3593
 10
55.6653
 20
5.4191
 10
55.6782
 20
5.4779
 10
55.6921
 20
5.5358
 10
55.707
 20
5.5927
 10
55.7229
 20
5.6488
 10
55.7398
 20
5.7039
 10
55.7578
 20
5.7581
 10
55.7767
 20
5.8114
 10
55.7966
 20
5.8637
 10
55.8175
 20
5.9152
 10
55.8395
 20
5.9657
 10
55.8624
 20
6.0153
 10
55.8863
 20
6.064
 10
55.9113
 20
6.1117
 10
55.9372
 20
6.1586
 10
55.9642
 20
6.2045
 10
55.9921
 20
6.2495
 10
56.0211
 20
6.2936
 10
56.051
 20
6.3367
 10
56.082
 20
6.379
 10
56.114
 20
6.4203
 10
56.1469
 20
6.4607
 10
56.1812
 20
6.5006
 10
56.2193
 20
6.5424
 10
56.2583
 20
6.5828
 10
56.2983
 20
6.622
 10
56.3393
 20
6.6597
 10
56.3812
 20
6.6961
 10
56.4242
 20
6.7311
 10
56.4681
 20
6.7648
 10
56.513
 20
6.7971
 10
56.5588
 20
6.8281
 10
56.6056
 20
6.8577
 10
56.6534
 20
6.886
 10
56.7022
 20
6.9129
 10
56.752
 20
6.9384
 10
56.8027
 20
6.9626
 10
56.8544
 20
6.9854
 10
56.9071
 20
7.0069
 10
56.9607
 20
7.027
 10
57.0154
 20
7.0457
 10
57.071
 20
7.0631
 10
57.1276
 20
7.0792
 10
57.1851
 20
7.0939
 10
57.2437
 20
7.1072
 10
57.3032
 20
7.1192
 10
57.3636
 20
7.1298
 10
57.4251
 20
7.139
 10
57.4875
 20
7.1469
 10
57.5509
 20
7.1535
 10
57.6153
 20
7.1586
 10
57.6807
 20
7.1625
 10
57.747
 20
7.1649
 10
57.8143
 20
7.1661
 10
57.8826
 20
7.1658
 10
57.9502
 20
7.1642
 10
58.0168
 20
7.1612
 10
58.0823
 20
7.1569
 10
58.1468
 20
7.1512
 10
58.2103
 20
7.1441
 10
58.2727
 20
7.1357
 10
58.3341
 20
7.1259
 10
58.3944
 20
7.1148
 10
58.4537
 20
7.1023
 10
58.512
 20
7.0884
 10
58.5692
 20
7.0732
 10
58.6254
 20
7.0566
 10
58.6805
 20
7.0386
 10
58.7346
 20
7.0193
 10
58.7877
 20
6.9986
 10
58.8397
 20
6.9765
 10
58.8907
 20
6.9531
 10
58.9407
 20
6.9283
 10
58.9896
 20
6.9022
 10
59.0375
 20
6.8747
 10
59.0843
 20
6.8458
 10
59.1301
 20
6.8156
 10
59.1749
 20
6.784
 10
59.2186
 20
6.751
 10
59.2613
 20
6.7167
 10
59.303
 20
6.681
 10
59.3436
 20
6.6439
 10
59.3832
 20
6.6055
 10
59.4217
 20
6.5657
 10
59.4573
 20
6.5268
 10
59.4907
 20
6.4878
 10
59.5232
 20
6.4479
 10
59.5545
 20
6.4068
 10
59.5848
 20
6.3647
 10
59.6141
 20
6.3216
 10
59.6422
 20
6.2774
 10
59.6693
 20
6.2322
 10
59.6953
 20
6.186
 10
59.7203
 20
6.1387
 10
59.7442
 20
6.0903
 10
59.767
 20
6.0409
 10
59.7888
 20
5.9905
 10
59.8095
 20
5.939
 10
59.8291
 20
5.8865
 10
59.8477
 20
5.8329
 10
59.8652
 20
5.7783
 10
59.8816
 20
5.7227
 10
59.897
 20
5.666
 10
59.9112
 20
5.6082
 10
59.9245
 20
5.5494
 10
59.9366
 20
5.4896
 10
59.9477
 20
5.4287
 10
59.9578
 20
5.3668
 10
59.9667
 20
5.3038
 10
59.9746
 20
5.2398
 10
59.9814
 20
5.1747
 10
59.9872
 20
5.1086
 10
59.9919
 20
5.0415
 10
59.9955
 20
4.9733
 10
59.9981
 20
4.9041
 10
59.9996
 20
4.8338
 10
60.0
 20
4.7634
 10
59.9997
 20
4.7012
 10
59.999
 20
4.6398
 10
59.9977
 20
4.5791
 10
59.996
 20
4.5191
 10
59.9938
 20
4.4598
 10
59.9912
 20
4.4012
 10
59.988
 20
4.3433
 10
59.9844
 20
4.2861
 10
59.9803
 20
4.2297
 10
59.9758
 20
4.1739
 10
59.9577
 20
4.1322
 10
59.8989
 20
4.1322
 10
59.8401
 20
4.1322
 10
59.7814
 20
4.1322
 10
59.7226
 20
4.1322
 10
59.6638
 20
4.1322
 10
59.605
 20
4.1322
 10
59.5462
 20
4.1322
 10
59.4874
 20
4.1322
 10
59.4286
 20
4.1322
 10
59.3698
 20
4.1322
 10
59.311
 20
4.1322
 10
59.2522
 20
4.1322
 10
59.1934
 20
4.1322
 10
59.1346
 20
4.1322
 10
59.0759
 20
4.1322
 10
59.0171
 20
4.1322
 10
58.9583
 20
4.1322
 10
58.8995
 20
4.1322
 10
58.8407
 20
4.1322
 10
58.7819
 20
4.1322
 10
58.7231
 20
4.1322
 10
58.6643
 20
4.1322
 10
58.6055
 20
4.1322
 10
58.5467
 20
4.1322
 10
58.4879
 20
4.1322
 10
58.4292
 20
4.1322
 10
58.3704
 20
4.1322
 10
58.3116
 20
4.1322
 10
58.2528
 20
4.1322
 10
58.194
 20
4.1322
 10
58.1352
 20
4.1322
 10
58.0764
 20
4.1322
 10
58.0176
 20
4.1322
 10
57.9588
 20
4.1322
 10
57.9
 20
4.1322
 10
57.8412
 20
4.1322
 10
57.7824
 20
4.1322
 10
57.7237
 20
4.1322
 10
57.6649
 20
4.1322
 10
57.6061
 20
4.1322
 10
57.5473
 20
4.1322
 10
57.4885
 20
4.1322
 10
57.4297
 20
4.1322
 10
57.3709
 20
4.1322
 10
57.3121
 20
4.1322
 10
57.2533
 20
4.1322
 10
57.1945
 20
4.1322
 10
57.1357
 20
4.1322
 10
57.0769
 20
4.1322
 10
57.0182
 20
4.1322
 10
56.9594
 20
4.1322
 10
56.9006
 20
4.1322
 10
56.8418
 20
4.1322
  0
LWPOLYLINE
  5
58
330
17
100
AcDbEntity
  8
OUTLINE
100
AcDbPolyline
 90
100
 70
1
 10
56.7155
 20
4.9979
 10
56.7114
 20
4.9605
 10
56.7511
 20
4.9605
 10
56.8099
 20
4.9605
 10
56.8687
 20
4.9605
 10
56.9275
 20
4.9605
 10
56.9863
 20
4.9605
 10
57.0451
 20
4.9605
 10
57.1039
 20
4.9605
 10
57.1627
 20
4.9605
 10
57.2215
 20
4.9605
 10
57.2803
 20
4.9605
 10
57.3391
 20
4.9605
 10
57.3978
 20
4.9605
 10
57.4566
 20
4.9605
 10
57.5154
 20
4.9605
 10
57.5742
 20
4.9605
 10
57.633
 20
4.9605
 10
57.6918
 20
4.9605
 10
57.7506
 20
4.9605
 10
57.8094
 20
4.9605
 10
57.8682
 20
4.9605
 10
57.927
 20
4.9605
 10
57.9858
 20
4.9605
 10
58.0445
 20
4.9605
 10
58.1033
 20
4.9605
 10
58.1621
 20
4.9605
 10
58.2209
 20
4.9605
 10
58.2797
 20
4.9605
 10
58.3385
 20
4.9605
 10
58.3973
 20
4.9605
 10
58.4561
 20
4.9605
 10
58.5149
 20
4.9605
 10
58.5737
 20
4.9605
 10
58.6325
 20
4.9605
 10
58.6913
 20
4.9605
 10
58.75
 20
4.9605
 10
58.8088
 20
4.9605
 10
58.8676
 20
4.9605
 10
58.9016
 20
4.9901
 10
58.8995
 20
5.0593
 10
58.8953
 20
5.1264
 10
58.8888
 20
5.1914
 10
58.88
 20
5.2544
 10
58.8691
 20
5.3152
 10
58.8559
 20
5.374
 10
58.8405
 20
5.4308
 10
58.8229
 20
5.4854
 10
58.803
 20
5.538
 10
58.781
 20
5.5884
 10
58.7567
 20
5.6369
 10
58.7301
 20
5.6832
 10
58.7014
 20
5.7275
 10
58.6704
 20
5.7696
 10
58.6372
 20
5.8097
 10
58.6001
 20
5.8495
 10
58.5597
 20
5.8878
 10
58.5172
 20
5.9233
 10
58.4727
 20
5.956
 10
58.4262
 20
5.9858
 10
58.3776
 20
6.0128
 10
58.327
 20
6.037
 10
58.2743
 20
6.0583
 10
58.2195
 20
6.0769
 10
58.1628
 20
6.0925
 10
58.1039
 20
6.1054
 10
58.0431
 20
6.1154
 10
57.9801
 20
6.1226
 10
57.9152
 20
6.127
 10
57.8481
 20
6.1285
 10
57.7825
 20
6.1272
 10
57.7187
 20
6.123
 10
57.6567
 20
6.116
 10
57.5965
 20
6.1062
 10
57.5381
 20
6.0936
 10
57.4815
 20
6.078
 10
57.4267
 20
6.0597
 10
57.3737
 20
6.0385
 10
57.3226
 20
6.0145
 10
57.2732
 20
5.9876
 10
57.2256
 20
5.9579
 10
57.1798
 20
5.9254
 10
57.1358
 20
5.89
 10
57.0936
 20
5.8517
 10
57.0532
 20
5.8107
 10
57.0146
 20
5.7668
 10
56.9812
 20
5.7244
 10
56.9519
 20
5.6835
 10
56.9242
 20
5.6409
 10
56.898
 20
5.5966
 10
56.8735
 20
5.5506
 10
56.8505
 20
5.5029
 10
56.8292
 20
5.4536
 10
56.8094
 20
5.4025
 10
56.7912
 20
5.3498
 10
56.7746
 20
5.2954
 10
56.7596
 20
5.2392
 10
56.7462
 20
5.1814
 10
56.7344
 20
5.122
 10
56.7242
 20
5.0608
  0
LWPOLYLINE
  5
59
330
17
100
AcDbEntity
  8
OUTLINE
100
AcDbPolyline
 90
432
 70
1
 10
52.8921
 20
2.048
 10
52.8419
 20
2.0476
 10
52.792
 20
2.0475
 10
52.7305
 20
2.0479
 10
52.6698
 20
2.049
 10
52.6097
 20
2.0508
 10
52.5502
 20
2.0534
 10
52.4914
 20
2.0567
 10
52.4333
 20
2.0607
 10
52.3758
 20
2.0655
 10
52.319
 20
2.071
 10
52.2629
 20
2.0773
 10
52.2074
 20
2.0842
 10
52.1526
 20
2.0919
 10
52.0984
 20
2.1004
 10
52.045
 20
2.1096
 10
51.9921
 20
2.1195
 10
51.94
 20
2.1301
 10
51.8885
 20
2.1415
 10
51.8376
 20
2.1537
 10
51.7875
 20
2.1665
 10
51.7379
 20
2.1801
 10
51.6891
 20
2.1944
 10
51.6409
 20
2.2095
 10
51.5934
 20
2.2253
 10
51.5465
 20
2.2418
 10
51.5003
 20
2.2591
 10
51.4548
 20
2.2771
 10
51.4099
 20
2.2958
 10
51.3657
 20
2.3153
 10
51.3221
 20
2.3355
 10
51.2792
 20
2.3564
 10
51.237
 20
2.3781
 10
51.1954
 20
2.4005
 10
51.1545
 20
2.4236
 10
51.1143
 20
2.4475
 10
51.0747
 20
2.4721
 10
51.0358
 20
2.4975
 10
50.9975
 20
2.5235
 10
50.96
 20
2.5504
 10
50.923
 20
2.5779
 10
50.8868
 20
2.6062
 10
50.8512
 20
2.6352
 10
50.8162
 20
2.665
 10
50.7819
 20
2.6955
 10
50.7476
 20
2.7273
 10
50.7135
 20
2.7606
 10
50.6802
 20
2.7945
 10
50.6477
 20
2.8291
 10
50.6161
 20
2.8644
 10
50.5854
 20
2.9004
 10
50.5555
 20
2.9371
 10
50.5265
 20
2.9745
 10
50.4984
 20
3.0126
 10
50.4711
 20
3.0514
 10
50.4447
 20
3.0909
 10
50.4191
 20
3.1311
 10
50.3944
 20
3.172
 10
50.3705
 20
3.2136
 10
50.3475
 20
3.2559
 10
50.3254
 20
3.2989
 10
50.3041
 20
3.3425
 10
50.2837
 20
3.3869
 10
50.2641
 20
3.432
 10
50.2454
 20
3.4777
 10
50.2276
 20
3.5242
 10
50.2106
 20
3.5713
 10
50.1945
 20
3.6192
 10
50.1792
 20
3.6677
 10
50.1648
 20
3.717
 10
50.1513
 20
3.7669
 10
50.1386
 20
3.8176
 10
50.1268
 20
3.8689
 10
50.1158
 20
3.9209
 10
50.1057
 20
3.9737
 10
50.0964
 20
4.0271
 10
50.088
 20
4.0812
 10
50.0805
 20
4.136
 10
50.0738
 20
4.1916
 10
50.068
 20
4.2478
 10
50.0631
 20
4.3047
 10
50.059
 20
4.3623
 10
50.0557
 20
4.4206
 10
50.0533
 20
4.4796
 10
50.0518
 20
4.5393
 10
50.0512
 20
4.5997
 10
50.0513
 20
4.6603
 10
50.0524
 20
4.7202
 10
50.0542
 20
4.7795
 10
50.0569
 20
4.8381
 10
50.0605
 20
4.896
 10
50.0648
 20
4.9533
 10
50.07
 20
5.0098
 10
50.076
 20
5.0657
 10
50.0829
 20
5.1209
 10
50.0906
 20
5.1754
 10
50.0991
 20
5.2292
 10
50.1085
 20
5.2824
 10
50.1187
 20
5.3348
 10
50.1298
 20
5.3866
 10
50.1416
 20
5.4377
 10
50.1543
 20
5.4881
 10
50.1679
 20
5.5378
 10
50.1822
 20
5.5869
 10
50.1975
 20
5.6353
 10
50.2135
 20
5.683
 10
50.2304
 20
5.73
 10
50.2481
 20
5.7763
 10
50.2666
 20
5.8219
 10
50.286
 20
5.8669
 10
50.3062
 20
5.9112
 10
50.3273
 20
5.9548
 10
50.3492
 20
5.9977
 10
50.3719
 20
6.04
 10
50.3954
 20
6.0815
 10
50.4198
 20
6.1224
 10
50.445
 20
6.1626
 10
50.4711
 20
6.2021
 10
50.498
 20
6.2409
 10
50.5257
 20
6.2791
 10
50.5542
 20
6.3165
 10
50.5836
 20
6.3533
 10
50.6139
 20
6.3894
 10
50.6449
 20
6.4249
 10
50.6768
 20
6.4596
 10
50.7095
 20
6.4937
 10
50.7428
 20
6.5268
 10
50.7768
 20
6.559
 10
50.8115
 20
6.5904
 10
50.8469
 20
6.621
 10
50.883
 20
6.6507
 10
50.9198
 20
6.6797
 10
50.9574
 20
6.7077
 10
50.9956
 20
6.735
 10
51.0345
 20
6.7614
 10
51.0742
 20
6.787
 10
51.1145
 20
6.8117
 10
51.1556
 20
6.8356
 10
51.1973
 20
6.8587
 10
51.2398
 20
6.8809
 10
51.283
 20
6.9023
 10
51.3269
 20
6.9229
 10
51.3715
 20
6.9426
 10
51.4168
 20
6.9615
 10
51.4628
 20
6.9796
 10
51.5095
 20
6.9968
 10
51.5569
 20
7.0132
 10
51.605
 20
7.0287
 10
51.6538
 20
7.0435
 10
51.7034
 20
7.0574
 10
51.7536
 20
7.0704
 10
51.8046
 20
7.0826
 10
51.8562
 20
7.094
 10
51.9086
 20
7.1046
 10
51.9617
 20
7.1143
 10
52.0155
 20
7.1232
 10
52.07
 20
7.1312
 10
52.1252
 20
7.1384
 10
52.1811
 20
7.1448
 10
52.2377
 20
7.1504
 10
52.295
 20
7.1551
 10
52.353
 20
7.159
 10
52.4117
 20
7.162
 10
52.4712
 20
7.1642
 10
52.5313
 20
7.1656
 10
52.5922
 20
7.1661
 10
52.6505
 20
7.1658
 10
52.7076
 20
7.1647
 10
52.7641
 20
7.1626
 10
52.82
 20
7.1598
 10
52.8752
 20
7.156
 10
52.9298
 20
7.1514
 10
52.9837
 20
7.146
 10
53.037
 20
7.1396
 10
53.0896
 20
7.1325
 10
53.1415
 20
7.1244
 10
53.1929
 20
7.1156
 10
53.2435
 20
7.1058
 10
53.2936
 20
7.0952
 10
53.3429
 20
7.0837
 10
53.3916
 20
7.0714
 10
53.4397
 20
7.0582
 10
53.4871
 20
7.0442
 10
53.5339
 20
7.0293
 10
53.58
 20
7.0135
 10
53.6255
 20
6.9969
 10
53.6703
 20
6.9794
 10
53.7145
 20
6.9611
 10
53.758
 20
6.9419
 10
53.8009
 20
6.9218
 10
53.8431
 20
6.9009
 10
53.885
 20
6.879
 10
53.9328
 20
6.8524
 10
53.9794
 20
6.8248
 10
54.0247
 20
6.7963
 10
54.0687
 20
6.7668
 10
54.1114
 20
6.7363
 10
54.1528
 20
6.7048
 10
54.193
 20
6.6723
 10
54.2318
 20
6.6389
 10
54.2694
 20
6.6045
 10
54.3057
 20
6.5691
 10
54.3407
 20
6.5328
 10
54.3744
 20
6.4955
 10
54.4069
 20
6.4572
 10
54.438
 20
6.4179
 10
54.4679
 20
6.3776
 10
54.4965
 20
6.3364
 10
54.5238
 20
6.2942
 10
54.5498
 20
6.251
 10
54.5746
 20
6.2068
 10
54.598
 20
6.1617
 10
54.6202
 20
6.1156
 10
54.6358
 20
6.0699
 10
54.5953
 20
6.0382
 10
54.5548
 20
6.0066
 10
54.5143
 20
5.9749
 10
54.4738
 20
5.9433
 10
54.4333
 20
5.9116
 10
54.3928
 20
5.88
 10
54.3523
 20
5.8483
 10
54.3118
 20
5.8167
 10
54.2713
 20
5.785
 10
54.2308
 20
5.7534
 10
54.1903
 20
5.7217
 10
54.1498
 20
5.6901
 10
54.1093
 20
5.6584
 10
54.0688
 20
5.6268
 10
54.0282
 20
5.5952
 10
53.9877
 20
5.5635
 10
53.9472
 20
5.5319
 10
53.9067
 20
5.5002
 10
53.8662
 20
5.4686
 10
53.8257
 20
5.4369
 10
53.786
 20
5.4101
 10
53.7568
 20
5.4553
 10
53.7266
 20
5.499
 10
53.6953
 20
5.5412
 10
53.6628
 20
5.582
 10
53.6293
 20
5.6213
 10
53.5946
 20
5.6591
 10
53.5589
 20
5.6955
 10
53.522
 20
5.7304
 10
53.4841
 20
5.7639
 10
53.445
 20
5.7958
 10
53.4048
 20
5.8263
 10
53.3636
 20
5.8554
 10
53.3212
 20
5.883
 10
53.2777
 20
5.9091
 10
53.2329
 20
5.9338
 10
53.1873
 20
5.9569
 10
53.1411
 20
5.9782
 10
53.0943
 20
5.9978
 10
53.0469
 20
6.0155
 10
52.9988
 20
6.0315
 10
52.9502
 20
6.0457
 10
52.9009
 20
6.0582
 10
52.851
 20
6.0689
 10
52.8004
 20
6.0778
 10
52.7493
 20
6.0849
 10
52.6975
 20
6.0903
 10
52.6451
 20
6.0938
 10
52.5921
 20
6.0957
 10
52.5356
 20
6.0957
 10
52.4769
 20
6.0941
 10
52.4194
 20
6.0908
 10
52.3632
 20
6.0858
 10
52.3083
 20
6.0792
 10
52.2546
 20
6.0709
 10
52.2021
 20
6.0609
 10
52.1509
 20
6.0493
 10
52.1009
 20
6.0359
 10
52.0522
 20
6.021
 10
52.0048
 20
6.0043
 10
51.9586
 20
5.986
 10
51.9136
 20
5.966
 10
51.8699
 20
5.9443
 10
51.8275
 20
5.921
 10
51.7863
 20
5.896
 10
51.7464
 20
5.8693
 10
51.7077
 20
5.841
 10
51.6703
 20
5.811
 10
51.6341
 20
5.7793
 10
51.5992
 20
5.7459
 10
51.5661
 20
5.7116
 10
51.5356
 20
5.6771
 10
51.5066
 20
5.6414
 10
51.4789
 20
5.6043
 10
51.4527
 20
5.566
 10
51.4279
 20
5.5265
 10
51.4045
 20
5.4856
 10
51.3826
 20
5.4435
 10
51.362
 20
5.4001
 10
51.3429
 20
5.3555
 10
51.3252
 20
5.3096
 10
51.309
 20
5.2624
 10
51.2941
 20
5.2139
 10
51.2807
 20
5.1641
 10
51.2687
 20
5.1131
 10
51.2581
 20
5.0608
 10
51.2489
 20
5.0073
 10
51.2412
 20
4.9524
 10
51.2349
 20
4.8963
 10
51.23
 20
4.839
 10
51.2265
 20
4.7803
 10
51.2245
 20
4.7204
 10
51.2238
 20
4.6592
 10
51.2246
 20
4.5987
 10
51.2269
 20
4.5394
 10
51.2305
 20
4.4812
 10
51.2356
 20
4.4243
 10
51.2421
 20
4.3685
 10
51.2501
 20
4.3139
 10
51.2595
 20
4.2604
 10
51.2703
 20
4.2082
 10
51.2826
 20
4.1571
 10
51.2963
 20
4.1072
 10
51.3114
 20
4.0585
 10
51.3279
 20
4.011
 10
51.3459
 20
3.9646
 10
51.3653
 20
3.9194
 10
51.3862
 20
3.8754
 10
51.4085
 20
3.8326
 10
51.4322
 20
3.791
 10
51.4573
 20
3.7505
 10
51.4839
 20
3.7112
 10
51.5119
 20
3.6731
 10
51.5414
 20
3.6362
 10
51.5722
 20
3.6005
 10
51.6045
 20
3.5659
 10
51.6383
 20
3.5325
 10
51.6727
 20
3.501
 10
51.7071
 20
3.4716
 10
51.7427
 20
3.4434
 10
51.7794
 20
3.4164
 10
51.8172
 20
3.3906
 10
51.8561
 20
3.3659
 10
51.8961
 20
3.3424
 10
51.9372
 20
3.32
 10
51.9794
 20
3.2988
 10
52.0227
 20
3.2788
 10
52.0672
 20
3.26
 10
52.1127
 20
3.2424
 10
52.1594
 20
3.2259
 10
52.2071
 20
3.2105
 10
52.256
 20
3.1964
 10
52.306
 20
3.1834
 10
52.3571
 20
3.1716
 10
52.4093
 20
3.1609
 10
52.4626
 20
3.1515
 10
52.517
 20
3.1432
 10
52.5725
 20
3.136
 10
52.6291
 20
3.1301
 10
52.6869
 20
3.1253
 10
52.7457
 20
3.1217
 10
52.8057
 20
3.1192
 10
52.8667
 20
3.1179
 10
52.9245
 20
3.1178
 10
52.9759
 20
3.1181
 10
53.0274
 20
3.1188
 10
53.0788
 20
3.1199
 10
53.1302
 20
3.1214
 10
53.1816
 20
3.1232
 10
53.2329
 20
3.1254
 10
53.2842
 20
3.128
 10
53.3355
 20
3.131
 10
53.3868
 20
3.1343
 10
53.438
 20
3.138
 10
53.4892
 20
3.1421
 10
53.5404
 20
3.1465
 10
53.5918
 20
3.1514
 10
53.6438
 20
3.1566
 10
53.6957
 20
3.1622
 10
53.7474
 20
3.168
 10
53.7988
 20
3.174
 10
53.8501
 20
3.1804
 10
53.9012
 20
3.187
 10
53.9521
 20
3.1939
 10
54.0028
 20
3.2011
 10
54.0533
 20
3.2086
 10
54.1036
 20
3.2163
 10
54.1537
 20
3.2244
 10
54.2036
 20
3.2327
 10
54.2409
 20
3.2243
 10
54.2467
 20
3.1732
 10
54.2526
 20
3.1222
 10
54.2585
 20
3.0711
 10
54.2643
 20
3.02
 10
54.2702
 20
2.969
 10
54.2761
 20
2.9179
 10
54.282
 20
2.8668
 10
54.2878
 20
2.8158
 10
54.2937
 20
2.7647
 10
54.2996
 20
2.7136
 10
54.3055
 20
2.6626
 10
54.3113
 20
2.6115
 10
54.3172
 20
2.5604
 10
54.3231
 20
2.5094
 10
54.3289
 20
2.4583
 10
54.3348
 20
2.4072
 10
54.3407
 20
2.3562
 10
54.3466
 20
2.3051
 10
54.3524
 20
2.254
 10
54.3583
 20
2.203
 10
54.3263
 20
2.1797
 10
54.277
 20
2.1693
 10
54.2275
 20
2.1595
 10
54.1777
 20
2.1501
 10
54.1277
 20
2.1412
 10
54.0774
 20
2.1328
 10
54.0269
 20
2.1248
 10
53.9762
 20
2.1173
 10
53.9253
 20
2.1103
 10
53.8741
 20
2.1037
 10
53.8226
 20
2.0976
 10
53.771
 20
2.092
 10
53.7191
 20
2.0869
 10
53.667
 20
2.0822
 10
53.6146
 20
2.078
 10
53.5619
 20
2.0743
 10
53.5092
 20
2.0708
 10
53.4567
 20
2.0676
 10
53.4044
 20
2.0646
 10
53.3522
 20
2.0619
 10
53.3003
 20
2.0594
 10
53.2486
 20
2.0571
 10
53.1971
 20
2.0551
 10
53.1457
 20
2.0533
 10
53.0946
 20
2.0518
 10
53.0437
 20
2.0505
 10
52.9929
 20
2.0494
 10
52.9424
 20
2.0486
  0
LWPOLYLINE
  5
5A
330
17
100
AcDbEntity
  8
OUTLINE
100
AcDbPolyline
 90
366
 70
1
 10
29.0135
 20
4.5069
 10
29.0135
 20
4.4064
 10
29.0135
 20
4.306
 10
29.0135
 20
4.2055
 10
29.0135
 20
4.1051
 10
29.0135
 20
4.0046
 10
29.0135
 20
3.9042
 10
29.0135
 20
3.8037
 10
29.0135
 20
3.7033
 10
29.0135
 20
3.6028
 10
29.0135
 20
3.5024
 10
29.0135
 20
3.4019
 10
29.0135
 20
3.3015
 10
29.0135
 20
3.201
 10
29.0135
 20
3.1006
 10
29.0135
 20
3.0001
 10
29.0135
 20
2.8997
 10
29.0135
 20
2.7992
 10
29.0135
 20
2.6988
 10
29.0135
 20
2.5983
 10
29.0135
 20
2.4979
 10
29.0135
 20
2.3974
 10
29.0135
 20
2.297
 10
29.0135
 20
2.1965
 10
28.969
 20
2.1406
 10
28.8686
 20
2.1406
 10
28.7681
 20
2.1406
 10
28.6677
 20
2.1406
 10
28.5672
 20
2.1406
 10
28.4668
 20
2.1406
 10
28.3663
 20
2.1406
 10
28.2659
 20
2.1406
 10
28.1654
 20
2.1406
 10
28.065
 20
2.1406
 10
27.9645
 20
2.1406
 10
27.8641
 20
2.1406
 10
27.8641
 20
2.241
 10
27.8641
 20
2.3415
 10
27.8641
 20
2.4419
 10
27.8641
 20
2.5424
 10
27.8641
 20
2.6428
 10
27.8641
 20
2.7433
 10
27.8641
 20
2.8437
 10
27.8641
 20
2.9442
 10
27.8641
 20
3.0446
 10
27.8641
 20
3.1451
 10
27.8641
 20
3.2455
 10
27.8641
 20
3.346
 10
27.8641
 20
3.4464
 10
27.8641
 20
3.5469
 10
27.8641
 20
3.6473
 10
27.8641
 20
3.7478
 10
27.8641
 20
3.8482
 10
27.8641
 20
3.9487
 10
27.8641
 20
4.0491
 10
27.8641
 20
4.1496
 10
27.8641
 20
4.25
 10
27.8641
 20
4.3504
 10
27.8641
 20
4.4509
 10
27.8641
 20
4.5513
 10
27.8641
 20
4.6518
 10
27.8641
 20
4.7522
 10
27.8641
 20
4.8527
 10
27.8641
 20
4.9531
 10
27.8641
 20
5.0536
 10
27.8641
 20
5.154
 10
27.8641
 20
5.2545
 10
27.8641
 20
5.3549
 10
27.8641
 20
5.4554
 10
27.8641
 20
5.5558
 10
27.8641
 20
5.6563
 10
27.8641
 20
5.7567
 10
27.8641
 20
5.8572
 10
27.8641
 20
5.9576
 10
27.8641
 20
6.0581
 10
27.8641
 20
6.1585
 10
27.8641
 20
6.259
 10
27.8641
 20
6.3594
 10
27.8641
 20
6.4599
 10
27.8641
 20
6.5603
 10
27.8641
 20
6.6608
 10
27.8641
 20
6.7612
 10
27.8641
 20
6.8617
 10
27.8641
 20
6.9621
 10
27.8641
 20
7.0626
 10
27.9541
 20
7.0731
 10
28.0545
 20
7.0731
 10
28.155
 20
7.0731
 10
28.2554
 20
7.0731
 10
28.3559
 20
7.0731
 10
28.4563
 20
7.0731
 10
28.5567
 20
7.0731
 10
28.6572
 20
7.0731
 10
28.7576
 20
7.0731
 10
28.8581
 20
7.0731
 10
28.9039
 20
7.012
 10
28.9151
 20
6.9122
 10
28.9262
 20
6.8124
 10
28.9374
 20
6.7125
 10
28.9485
 20
6.6127
 10
28.9597
 20
6.5129
 10
28.9708
 20
6.413
 10
28.982
 20
6.3132
 10
28.9931
 20
6.2134
 10
28.9969
 20
6.1797
 10
29.0375
 20
6.1797
 10
29.097
 20
6.1797
 10
29.1297
 20
6.2165
 10
29.14
 20
6.2845
 10
29.1527
 20
6.3499
 10
29.1678
 20
6.4128
 10
29.1852
 20
6.4731
 10
29.205
 20
6.5309
 10
29.2271
 20
6.5861
 10
29.2516
 20
6.6388
 10
29.2785
 20
6.6889
 10
29.3077
 20
6.7365
 10
29.3393
 20
6.7815
 10
29.3732
 20
6.824
 10
29.4095
 20
6.8639
 10
29.4482
 20
6.9013
 10
29.4877
 20
6.9349
 10
29.5275
 20
6.9646
 10
29.5698
 20
6.9923
 10
29.6144
 20
7.018
 10
29.6614
 20
7.0416
 10
29.7109
 20
7.0631
 10
29.7627
 20
7.0826
 10
29.8169
 20
7.1001
 10
29.8735
 20
7.1155
 10
29.9325
 20
7.1289
 10
29.9939
 20
7.1402
 10
30.0577
 20
7.1495
 10
30.1239
 20
7.1567
 10
30.1925
 20
7.1619
 10
30.2635
 20
7.165
 10
30.3369
 20
7.1661
 10
30.4059
 20
7.1653
 10
30.4732
 20
7.1625
 10
30.5392
 20
7.1579
 10
30.6038
 20
7.1514
 10
30.667
 20
7.1431
 10
30.7288
 20
7.1329
 10
30.7892
 20
7.1208
 10
30.8483
 20
7.1068
 10
30.9059
 20
7.091
 10
30.9621
 20
7.0733
 10
31.0169
 20
7.0537
 10
31.0704
 20
7.0322
 10
31.1224
 20
7.0089
 10
31.1731
 20
6.9837
 10
31.2223
 20
6.9566
 10
31.2702
 20
6.9277
 10
31.3166
 20
6.8969
 10
31.3617
 20
6.8642
 10
31.4054
 20
6.8297
 10
31.4476
 20
6.7933
 10
31.4885
 20
6.755
 10
31.528
 20
6.7148
 10
31.5649
 20
6.6741
 10
31.599
 20
6.6336
 10
31.6315
 20
6.5917
 10
31.6626
 20
6.5486
 10
31.6923
 20
6.5041
 10
31.7205
 20
6.4582
 10
31.7472
 20
6.411
 10
31.7724
 20
6.3625
 10
31.7962
 20
6.3126
 10
31.8185
 20
6.2614
 10
31.8394
 20
6.2089
 10
31.8588
 20
6.155
 10
31.8767
 20
6.0998
 10
31.8931
 20
6.0433
 10
31.9081
 20
5.9854
 10
31.9217
 20
5.9262
 10
31.9337
 20
5.8657
 10
31.9444
 20
5.8038
 10
31.9535
 20
5.7405
 10
31.9612
 20
5.676
 10
31.9674
 20
5.6101
 10
31.9721
 20
5.5429
 10
31.9754
 20
5.4743
 10
31.9773
 20
5.4044
 10
31.9777
 20
5.3362
 10
31.9777
 20
5.2767
 10
31.9777
 20
5.2172
 10
31.9777
 20
5.1577
 10
31.9777
 20
5.0982
 10
31.9777
 20
5.0386
 10
31.9777
 20
4.9791
 10
31.9777
 20
4.9196
 10
31.9777
 20
4.8601
 10
31.9777
 20
4.8006
 10
31.9777
 20
4.741
 10
31.9777
 20
4.6815
 10
31.9777
 20
4.622
 10
31.9777
 20
4.5625
 10
31.9777
 20
4.5029
 10
31.9777
 20
4.4434
 10
31.9777
 20
4.3839
 10
31.9777
 20
4.3244
 10
31.9777
 20
4.2649
 10
31.9777
 20
4.2053
 10
31.9777
 20
4.1458
 10
31.9777
 20
4.0863
 10
31.9777
 20
4.0268
 10
31.9777
 20
3.9672
 10
31.9777
 20
3.9077
 10
31.9777
 20
3.8482
 10
31.9777
 20
3.7887
 10
31.9777
 20
3.7292
 10
31.9777
 20
3.6696
 10
31.9777
 20
3.6101
 10
31.9777
 20
3.5506
 10
31.9777
 20
3.4911
 10
31.9777
 20
3.4316
 10
31.9777
 20
3.372
 10
31.9777
 20
3.3125
 10
31.9777
 20
3.253
 10
31.9777
 20
3.1935
 10
31.9777
 20
3.1339
 10
31.9777
 20
3.0744
 10
31.9777
 20
3.0149
 10
31.9777
 20
2.9554
 10
31.9777
 20
2.8959
 10
31.9777
 20
2.8363
 10
31.9777
 20
2.7768
 10
31.9777
 20
2.7173
 10
31.9777
 20
2.6578
 10
31.9777
 20
2.5982
 10
31.9777
 20
2.5387
 10
31.9777
 20
2.4792
 10
31.9777
 20
2.4197
 10
31.9777
 20
2.3602
 10
31.9777
 20
2.3006
 10
31.9777
 20
2.2411
 10
31.9777
 20
2.1816
 10
31.9592
 20
2.1406
 10
31.8997
 20
2.1406
 10
31.8401
 20
2.1406
 10
31.7806
 20
2.1406
 10
31.7211
 20
2.1406
 10
31.6616
 20
2.1406
 10
31.602
 20
2.1406
 10
31.5425
 20
2.1406
 10
31.483
 20
2.1406
 10
31.4235
 20
2.1406
 10
31.364
 20
2.1406
 10
31.3044
 20
2.1406
 10
31.2449
 20
2.1406
 10
31.1854
 20
2.1406
 10
31.1259
 20
2.1406
 10
31.0663
 20
2.1406
 10
31.0068
 20
2.1406
 10
30.9473
 20
2.1406
 10
30.8878
 20
2.1406
 10
30.8283
 20
2.1406
 10
30.8283
 20
2.2001
 10
30.8283
 20
2.2596
 10
30.8283
 20
2.3191
 10
30.8283
 20
2.3787
 10
30.8283
 20
2.4382
 10
30.8283
 20
2.4977
 10
30.8283
 20
2.5572
 10
30.8283
 20
2.6167
 10
30.8283
 20
2.6763
 10
30.8283
 20
2.7358
 10
30.8283
 20
2.7953
 10
30.8283
 20
2.8548
 10
30.8283
 20
2.9143
 10
30.8283
 20
2.9739
 10
30.8283
 20
3.0334
 10
30.8283
 20
3.0929
 10
30.8283
 20
3.1524
 10
30.8283
 20
3.212
 10
30.8283
 20
3.2715
 10
30.8283
 20
3.331
 10
30.8283
 20
3.3905
 10
30.8283
 20
3.45
 10
30.8283
 20
3.5096
 10
30.8283
 20
3.5691
 10
30.8283
 20
3.6286
 10
30.8283
 20
3.6881
 10
30.8283
 20
3.7477
 10
30.8283
 20
3.8072
 10
30.8283
 20
3.8667
 10
30.8283
 20
3.9262
 10
30.8283
 20
3.9857
 10
30.8283
 20
4.0453
 10
30.8283
 20
4.1048
 10
30.8283
 20
4.1643
 10
30.8283
 20
4.2238
 10
30.8283
 20
4.2834
 10
30.8283
 20
4.3429
 10
30.8283
 20
4.4024
 10
30.8283
 20
4.4619
 10
30.8283
 20
4.5214
 10
30.8283
 20
4.581
 10
30.8283
 20
4.6405
 10
30.8283
 20
4.7
 10
30.8283
 20
4.7595
 10
30.8283
 20
4.819
 10
30.8283
 20
4.8786
 10
30.8283
 20
4.9381
 10
30.8283
 20
4.9976
 10
30.8283
 20
5.0571
 10
30.8283
 20
5.1167
 10
30.8282
 20
5.1785
 10
30.8264
 20
5.2492
 10
30.8218
 20
5.3171
 10
30.8146
 20
5.3824
 10
30.8047
 20
5.445
 10
30.792
 20
5.5048
 10
30.7767
 20
5.562
 10
30.7587
 20
5.6165
 10
30.738
 20
5.6683
 10
30.7146
 20
5.7173
 10
30.6884
 20
5.7637
 10
30.6596
 20
5.8074
 10
30.6281
 20
5.8484
 10
30.5901
 20
5.8907
 10
30.5486
 20
5.9296
 10
30.5042
 20
5.9645
 10
30.457
 20
5.9952
 10
30.407
 20
6.0219
 10
30.3542
 20
6.0445
 10
30.2985
 20
6.0629
 10
30.24
 20
6.0773
 10
30.1786
 20
6.0876
 10
30.1145
 20
6.0938
 10
30.0475
 20
6.0959
 10
29.9854
 20
6.0947
 10
29.9254
 20
6.0909
 10
29.8673
 20
6.0846
 10
29.8111
 20
6.0758
 10
29.7568
 20
6.0644
 10
29.7045
 20
6.0505
 10
29.654
 20
6.0341
 10
29.6055
 20
6.0151
 10
29.5588
 20
5.9936
 10
29.5141
 20
5.9696
 10
29.4713
 20
5.943
 10
29.4304
 20
5.9139
 10
29.3915
 20
5.8823
 10
29.3544
 20
5.8481
 10
29.3192
 20
5.8114
 10
29.286
 20
5.7722
 10
29.2547
 20
5.7305
 10
29.2252
 20
5.6862
 10
29.1977
 20
5.6393
 10
29.1721
 20
5.59
 10
29.1485
 20
5.5381
 10
29.1267
 20
5.4837
 10
29.1068
 20
5.4267
 10
29.0889
 20
5.3672
 10
29.0729
 20
5.3052
 10
29.0588
 20
5.2406
 10
29.0466
 20
5.1735
 10
29.0363
 20
5.1039
 10
29.0279
 20
5.0317
 10
29.0214
 20
4.9571
 10
29.0169
 20
4.8798
 10
29.0142
 20
4.8001
 10
29.0135
 20
4.7773
 10
29.0135
 20
4.7078
 10
29.0135
 20
4.6073
  0
LWPOLYLINE
  5
5B
330
17
100
AcDbEntity
  8
OUTLINE
100
AcDbPolyline
 90
648
 70
1
 10
35.388
 20
2.0486
 10
35.3327
 20
2.0478
 10
35.2768
 20
2.0475
 10
35.2302
 20
2.0477
 10
35.1838
 20
2.0481
 10
35.1375
 20
2.0489
 10
35.0914
 20
2.0501
 10
35.0454
 20
2.0515
 10
34.9997
 20
2.0533
 10
34.954
 20
2.0553
 10
34.9086
 20
2.0577
 10
34.8633
 20
2.0605
 10
34.8182
 20
2.0635
 10
34.7733
 20
2.0669
 10
34.7285
 20
2.0705
 10
34.6839
 20
2.0746
 10
34.6395
 20
2.0789
 10
34.5952
 20
2.0835
 10
34.5511
 20
2.0885
 10
34.5072
 20
2.0938
 10
34.4634
 20
2.0994
 10
34.4199
 20
2.1053
 10
34.3764
 20
2.1115
 10
34.3332
 20
2.1181
 10
34.2901
 20
2.125
 10
34.2472
 20
2.1322
 10
34.2044
 20
2.1397
 10
34.1577
 20
2.1483
 10
34.1108
 20
2.1574
 10
34.0643
 20
2.1669
 10
34.0182
 20
2.1767
 10
33.9726
 20
2.1868
 10
33.9273
 20
2.1973
 10
33.8824
 20
2.2082
 10
33.838
 20
2.2194
 10
33.7939
 20
2.231
 10
33.7503
 20
2.2429
 10
33.7071
 20
2.2552
 10
33.6643
 20
2.2679
 10
33.6218
 20
2.2809
 10
33.5798
 20
2.2942
 10
33.5382
 20
2.3079
 10
33.497
 20
2.322
 10
33.4563
 20
2.3364
 10
33.4159
 20
2.3512
 10
33.3759
 20
2.3664
 10
33.3363
 20
2.3819
 10
33.2972
 20
2.3977
 10
33.2679
 20
2.4199
 10
33.2737
 20
2.4645
 10
33.2796
 20
2.509
 10
33.2854
 20
2.5535
 10
33.2913
 20
2.598
 10
33.2972
 20
2.6425
 10
33.303
 20
2.687
 10
33.3089
 20
2.7316
 10
33.3147
 20
2.7761
 10
33.3206
 20
2.8206
 10
33.3265
 20
2.8651
 10
33.3323
 20
2.9096
 10
33.3382
 20
2.9541
 10
33.344
 20
2.9987
 10
33.3499
 20
3.0432
 10
33.3558
 20
3.0877
 10
33.3616
 20
3.1322
 10
33.3675
 20
3.1767
 10
33.3733
 20
3.2212
 10
33.3792
 20
3.2658
 10
33.3851
 20
3.3103
 10
33.3909
 20
3.3548
 10
33.3968
 20
3.3993
 10
33.4026
 20
3.4438
 10
33.4085
 20
3.4883
 10
33.4144
 20
3.5329
 10
33.4507
 20
3.5262
 10
33.494
 20
3.5082
 10
33.5372
 20
3.4906
 10
33.5803
 20
3.4733
 10
33.6234
 20
3.4564
 10
33.6664
 20
3.4399
 10
33.7093
 20
3.4237
 10
33.7522
 20
3.4079
 10
33.795
 20
3.3926
 10
33.8378
 20
3.3775
 10
33.8804
 20
3.3629
 10
33.923
 20
3.3486
 10
33.9656
 20
3.3347
 10
34.0081
 20
3.3212
 10
34.0505
 20
3.308
 10
34.0928
 20
3.2953
 10
34.1351
 20
3.2829
 10
34.1773
 20
3.2709
 10
34.2194
 20
3.2592
 10
34.2615
 20
3.2479
 10
34.3035
 20
3.237
 10
34.3454
 20
3.2265
 10
34.3873
 20
3.2164
 10
34.4301
 20
3.2064
 10
34.4771
 20
3.1958
 10
34.5238
 20
3.1858
 10
34.5703
 20
3.1763
 10
34.6165
 20
3.1674
 10
34.6624
 20
3.1589
 10
34.7081
 20
3.151
 10
34.7535
 20
3.1436
 10
34.7987
 20
3.1367
 10
34.8436
 20
3.1303
 10
34.8883
 20
3.1245
 10
34.9327
 20
3.1192
 10
34.9768
 20
3.1144
 10
35.0207
 20
3.1101
 10
35.0644
 20
3.1063
 10
35.1078
 20
3.1031
 10
35.1509
 20
3.1004
 10
35.1938
 20
3.0982
 10
35.2364
 20
3.0965
 10
35.2788
 20
3.0953
 10
35.3209
 20
3.0947
 10
35.3669
 20
3.0946
 10
35.4228
 20
3.0954
 10
35.4772
 20
3.0972
 10
35.5303
 20
3.1001
 10
35.5819
 20
3.1039
 10
35.6321
 20
3.1089
 10
35.6809
 20
3.1148
 10
35.7283
 20
3.1218
 10
35.7742
 20
3.1298
 10
35.8188
 20
3.1388
 10
35.8619
 20
3.1489
 10
35.9036
 20
3.1599
 10
35.9439
 20
3.1721
 10
35.9828
 20
3.1852
 10
36.0202
 20
3.1994
 10
36.0563
 20
3.2146
 10
36.0909
 20
3.2308
 10
36.1241
 20
3.2481
 10
36.1559
 20
3.2664
 10
36.1862
 20
3.2857
 10
36.2209
 20
3.3103
 10
36.256
 20
3.3385
 10
36.2886
 20
3.3684
 10
36.3187
 20
3.3999
 10
36.3462
 20
3.433
 10
36.3712
 20
3.4678
 10
36.3936
 20
3.5042
 10
36.4135
 20
3.5422
 10
36.4309
 20
3.5818
 10
36.4457
 20
3.6231
 10
36.458
 20
3.666
 10
36.4678
 20
3.7105
 10
36.475
 20
3.7567
 10
36.4797
 20
3.8045
 10
36.4818
 20
3.8539
 10
36.4815
 20
3.9002
 10
36.4789
 20
3.9435
 10
36.4741
 20
3.9859
 10
36.467
 20
4.0273
 10
36.4576
 20
4.0677
 10
36.446
 20
4.1073
 10
36.4321
 20
4.1459
 10
36.416
 20
4.1835
 10
36.3976
 20
4.2202
 10
36.377
 20
4.256
 10
36.3541
 20
4.2908
 10
36.329
 20
4.3246
 10
36.3016
 20
4.3576
 10
36.2719
 20
4.3896
 10
36.24
 20
4.4206
 10
36.2058
 20
4.4507
 10
36.1694
 20
4.4799
 10
36.1307
 20
4.5081
 10
36.0898
 20
4.5353
 10
36.0466
 20
4.5617
 10
36.0012
 20
4.5871
 10
35.9535
 20
4.6115
 10
35.9057
 20
4.6342
 10
35.8652
 20
4.6535
 10
35.8246
 20
4.6727
 10
35.784
 20
4.692
 10
35.7435
 20
4.7113
 10
35.7029
 20
4.7305
 10
35.6624
 20
4.7498
 10
35.6218
 20
4.7691
 10
35.5813
 20
4.7884
 10
35.5407
 20
4.8076
 10
35.5002
 20
4.8269
 10
35.4596
 20
4.8462
 10
35.419
 20
4.8654
 10
35.3785
 20
4.8847
 10
35.3379
 20
4.904
 10
35.2974
 20
4.9232
 10
35.2568
 20
4.9425
 10
35.2163
 20
4.9618
 10
35.1757
 20
4.9811
 10
35.1352
 20
5.0003
 10
35.0946
 20
5.0196
 10
35.054
 20
5.0389
 10
35.0135
 20
5.0581
 10
34.9729
 20
5.0774
 10
34.9324
 20
5.0967
 10
34.8918
 20
5.116
 10
34.8468
 20
5.1374
 10
34.8016
 20
5.1595
 10
34.7571
 20
5.182
 10
34.7133
 20
5.2048
 10
34.6703
 20
5.228
 10
34.6279
 20
5.2515
 10
34.5863
 20
5.2753
 10
34.5453
 20
5.2995
 10
34.5051
 20
5.324
 10
34.4656
 20
5.3488
 10
34.4267
 20
5.374
 10
34.3886
 20
5.3995
 10
34.3512
 20
5.4254
 10
34.3145
 20
5.4516
 10
34.2785
 20
5.4782
 10
34.2432
 20
5.5051
 10
34.2086
 20
5.5323
 10
34.1747
 20
5.5599
 10
34.1416
 20
5.5878
 10
34.1091
 20
5.616
 10
34.0773
 20
5.6446
 10
34.0463
 20
5.6736
 10
34.0159
 20
5.7028
 10
33.9862
 20
5.7325
 10
33.9573
 20
5.7624
 10
33.9291
 20
5.7927
 10
33.9015
 20
5.8233
 10
33.8747
 20
5.8543
 10
33.8486
 20
5.8856
 10
33.8232
 20
5.9173
 10
33.7959
 20
5.9528
 10
33.7689
 20
5.9895
 10
33.743
 20
6.0267
 10
33.7182
 20
6.0643
 10
33.6945
 20
6.1024
 10
33.6718
 20
6.1408
 10
33.6503
 20
6.1796
 10
33.6297
 20
6.2189
 10
33.6103
 20
6.2586
 10
33.5919
 20
6.2987
 10
33.5746
 20
6.3392
 10
33.5584
 20
6.3801
 10
33.5432
 20
6.4214
 10
33.5292
 20
6.4631
 10
33.5161
 20
6.5053
 10
33.5042
 20
6.5478
 10
33.4933
 20
6.5908
 10
33.4835
 20
6.6342
 10
33.4748
 20
6.678
 10
33.4671
 20
6.7222
 10
33.4605
 20
6.7668
 10
33.455
 20
6.8119
 10
33.4506
 20
6.8573
 10
33.4472
 20
6.9032
 10
33.4449
 20
6.9495
 10
33.4437
 20
6.9961
 10
33.4435
 20
7.0448
 10
33.4444
 20
7.0961
 10
33.4462
 20
7.1467
 10
33.449
 20
7.1966
 10
33.4528
 20
7.2458
 10
33.4577
 20
7.2943
 10
33.4635
 20
7.3421
 10
33.4702
 20
7.3891
 10
33.478
 20
7.4355
 10
33.4868
 20
7.4812
 10
33.4966
 20
7.5261
 10
33.5073
 20
7.5704
 10
33.5191
 20
7.614
 10
33.5318
 20
7.6568
 10
33.5455
 20
7.699
 10
33.5602
 20
7.7405
 10
33.576
 20
7.7812
 10
33.5927
 20
7.8213
 10
33.6103
 20
7.8606
 10
33.629
 20
7.8993
 10
33.6487
 20
7.9372
 10
33.6694
 20
7.9744
 10
33.691
 20
8.011
 10
33.7137
 20
8.0468
 10
33.7373
 20
8.0819
 10
33.7619
 20
8.1164
 10
33.7875
 20
8.1501
 10
33.8142
 20
8.1831
 10
33.8418
 20
8.2155
 10
33.8703
 20
8.2471
 10
33.8999
 20
8.278
 10
33.9305
 20
8.3082
 10
33.9621
 20
8.3377
 10
33.9946
 20
8.3665
 10
34.0247
 20
8.3918
 10
34.0554
 20
8.4163
 10
34.0867
 20
8.4402
 10
34.1188
 20
8.4633
 10
34.1515
 20
8.4858
 10
34.1848
 20
8.5076
 10
34.2188
 20
8.5287
 10
34.2535
 20
8.5491
 10
34.2889
 20
8.5688
 10
34.3249
 20
8.5879
 10
34.3616
 20
8.6062
 10
34.399
 20
8.6239
 10
34.437
 20
8.6408
 10
34.4756
 20
8.6571
 10
34.515
 20
8.6727
 10
34.555
 20
8.6876
 10
34.5957
 20
8.7018
 10
34.637
 20
8.7153
 10
34.679
 20
8.7281
 10
34.7217
 20
8.7403
 10
34.765
 20
8.7517
 10
34.809
 20
8.7625
 10
34.8537
 20
8.7726
 10
34.899
 20
8.782
 10
34.945
 20
8.7907
 10
34.9917
 20
8.7987
 10
35.039
 20
8.806
 10
35.087
 20
8.8126
 10
35.1357
 20
8.8186
 10
35.185
 20
8.8238
 10
35.235
 20
8.8284
 10
35.2856
 20
8.8323
 10
35.3369
 20
8.8355
 10
35.3889
 20
8.838
 10
35.4415
 20
8.8398
 10
35.4949
 20
8.8409
 10
35.5488
 20
8.8413
 10
35.5973
 20
8.8411
 10
35.6447
 20
8.8403
 10
35.6917
 20
8.8389
 10
35.7385
 20
8.8369
 10
35.785
 20
8.8344
 10
35.8312
 20
8.8312
 10
35.8771
 20
8.8275
 10
35.9227
 20
8.8231
 10
35.9681
 20
8.8182
 10
36.0131
 20
8.8127
 10
36.0579
 20
8.8066
 10
36.1024
 20
8.7999
 10
36.1466
 20
8.7926
 10
36.1905
 20
8.7847
 10
36.2342
 20
8.7763
 10
36.2775
 20
8.7672
 10
36.3206
 20
8.7576
 10
36.3634
 20
8.7474
 10
36.4059
 20
8.7365
 10
36.4481
 20
8.7251
 10
36.49
 20
8.7131
 10
36.5317
 20
8.7006
 10
36.573
 20
8.6874
 10
36.6141
 20
8.6736
 10
36.6549
 20
8.6593
 10
36.6954
 20
8.6443
 10
36.7359
 20
8.6287
 10
36.7767
 20
8.6122
 10
36.8173
 20
8.5951
 10
36.8576
 20
8.5774
 10
36.8976
 20
8.559
 10
36.9373
 20
8.54
 10
36.9768
 20
8.5204
 10
37.016
 20
8.5001
 10
37.0549
 20
8.4793
 10
37.0936
 20
8.4578
 10
37.132
 20
8.4356
 10
37.1701
 20
8.4129
 10
37.2079
 20
8.3895
 10
37.2455
 20
8.3655
 10
37.2828
 20
8.3408
 10
37.3199
 20
8.3155
 10
37.3566
 20
8.2896
 10
37.3931
 20
8.2631
 10
37.4294
 20
8.2359
 10
37.4653
 20
8.2082
 10
37.501
 20
8.1798
 10
37.5365
 20
8.1507
 10
37.5716
 20
8.121
 10
37.6065
 20
8.0908
 10
37.6411
 20
8.0598
 10
37.6755
 20
8.0283
 10
37.6851
 20
7.9958
 10
37.6549
 20
7.9625
 10
37.6248
 20
7.9292
 10
37.5946
 20
7.896
 10
37.5645
 20
7.8627
 10
37.5343
 20
7.8294
 10
37.5041
 20
7.7962
 10
37.474
 20
7.7629
 10
37.4438
 20
7.7296
 10
37.4137
 20
7.6964
 10
37.3835
 20
7.6631
 10
37.3533
 20
7.6298
 10
37.3232
 20
7.5966
 10
37.293
 20
7.5633
 10
37.2629
 20
7.5301
 10
37.2327
 20
7.4968
 10
37.2025
 20
7.4635
 10
37.1724
 20
7.4303
 10
37.1422
 20
7.397
 10
37.1121
 20
7.3637
 10
37.0819
 20
7.3305
 10
37.0518
 20
7.2972
 10
37.0216
 20
7.2639
 10
36.9914
 20
7.2307
 10
36.9613
 20
7.1974
 10
36.9311
 20
7.1641
 10
36.8938
 20
7.1921
 10
36.8559
 20
7.2244
 10
36.8182
 20
7.2559
 10
36.7805
 20
7.2865
 10
36.743
 20
7.3162
 10
36.7056
 20
7.345
 10
36.6684
 20
7.3729
 10
36.6312
 20
7.4
 10
36.5942
 20
7.4262
 10
36.5573
 20
7.4515
 10
36.5205
 20
7.4759
 10
36.4838
 20
7.4995
 10
36.4472
 20
7.5221
 10
36.4108
 20
7.5439
 10
36.3745
 20
7.5649
 10
36.3383
 20
7.5849
 10
36.3022
 20
7.6041
 10
36.2662
 20
7.6223
 10
36.2298
 20
7.64
 10
36.1863
 20
7.6599
 10
36.1429
 20
7.6785
 10
36.0994
 20
7.6958
 10
36.0561
 20
7.7117
 10
36.0127
 20
7.7263
 10
35.9693
 20
7.7395
 10
35.926
 20
7.7515
 10
35.8827
 20
7.7621
 10
35.8394
 20
7.7713
 10
35.7961
 20
7.7792
 10
35.7529
 20
7.7858
 10
35.7096
 20
7.7911
 10
35.6664
 20
7.795
 10
35.6232
 20
7.7976
 10
35.5801
 20
7.7989
 10
35.5309
 20
7.7988
 10
35.4781
 20
7.7972
 10
35.4268
 20
7.794
 10
35.3769
 20
7.7894
 10
35.3286
 20
7.7832
 10
35.2819
 20
7.7754
 10
35.2366
 20
7.7661
 10
35.1928
 20
7.7554
 10
35.1506
 20
7.743
 10
35.1098
 20
7.7292
 10
35.0706
 20
7.7138
 10
35.0329
 20
7.6968
 10
34.9967
 20
7.6784
 10
34.9621
 20
7.6584
 10
34.9289
 20
7.6369
 10
34.8973
 20
7.6138
 10
34.8655
 20
7.5879
 10
34.8342
 20
7.5587
 10
34.8051
 20
7.5277
 10
34.7785
 20
7.4951
 10
34.7541
 20
7.4607
 10
34.7321
 20
7.4246
 10
34.7124
 20
7.3867
 10
34.6951
 20
7.3471
 10
34.6801
 20
7.3058
 10
34.6675
 20
7.2628
 10
34.6572
 20
7.218
 10
34.6492
 20
7.1715
 10
34.6436
 20
7.1233
 10
34.6403
 20
7.0733
 10
34.6394
 20
7.0221
 10
34.641
 20
6.9757
 10
34.6452
 20
6.9303
 10
34.6522
 20
6.886
 10
34.6619
 20
6.8426
 10
34.6742
 20
6.8003
 10
34.6893
 20
6.759
 10
34.707
 20
6.7187
 10
34.7274
 20
6.6795
 10
34.7505
 20
6.6412
 10
34.7763
 20
6.604
 10
34.8048
 20
6.5679
 10
34.8304
 20
6.5385
 10
34.8576
 20
6.5095
 10
34.8865
 20
6.481
 10
34.9171
 20
6.4529
 10
34.9492
 20
6.4253
 10
34.9831
 20
6.3981
 10
35.0185
 20
6.3713
 10
35.0557
 20
6.345
 10
35.0944
 20
6.3192
 10
35.1349
 20
6.2938
 10
35.1769
 20
6.2688
 10
35.2206
 20
6.2443
 10
35.266
 20
6.2202
 10
35.3083
 20
6.199
 10
35.3485
 20
6.179
 10
35.3887
 20
6.159
 10
35.4289
 20
6.1389
 10
35.4691
 20
6.1189
 10
35.5093
 20
6.0989
 10
35.5495
 20
6.0789
 10
35.5897
 20
6.0589
 10
35.6299
 20
6.0389
 10
35.6701
 20
6.0189
 10
35.7103
 20
5.9989
 10
35.7505
 20
5.9789
 10
35.7907
 20
5.9589
 10
35.8309
 20
5.9389
 10
35.8711
 20
5.9189
 10
35.9113
 20
5.8989
 10
35.9515
 20
5.8789
 10
35.9917
 20
5.8589
 10
36.0319
 20
5.8389
 10
36.0721
 20
5.8189
 10
36.1123
 20
5.7989
 10
36.1525
 20
5.7789
 10
36.1927
 20
5.7589
 10
36.2367
 20
5.7369
 10
36.2825
 20
5.7135
 10
36.3275
 20
5.6899
 10
36.3719
 20
5.666
 10
36.4155
 20
5.6419
 10
36.4584
 20
5.6176
 10
36.5006
 20
5.593
 10
36.5421
 20
5.5682
 10
36.5829
 20
5.5432
 10
36.6229
 20
5.518
 10
36.6623
 20
5.4925
 10
36.7009
 20
5.4667
 10
36.7389
 20
5.4408
 10
36.7761
 20
5.4146
 10
36.8126
 20
5.3881
 10
36.8484
 20
5.3615
 10
36.8835
 20
5.3346
 10
36.9178
 20
5.3074
 10
36.9515
 20
5.28
 10
36.9844
 20
5.2524
 10
37.0167
 20
5.2246
 10
37.0482
 20
5.1965
 10
37.079
 20
5.1682
 10
37.1091
 20
5.1397
 10
37.1385
 20
5.1109
 10
37.1672
 20
5.0819
 10
37.1952
 20
5.0526
 10
37.2224
 20
5.0232
 10
37.249
 20
4.9935
 10
37.2748
 20
4.9635
 10
37.3002
 20
4.933
 10
37.329
 20
4.8969
 10
37.3566
 20
4.8603
 10
37.3832
 20
4.8232
 10
37.4086
 20
4.7858
 10
37.4328
 20
4.7479
 10
37.4559
 20
4.7096
 10
37.4779
 20
4.6708
 10
37.4987
 20
4.6317
 10
37.5184
 20
4.5921
 10
37.5369
 20
4.5521
 10
37.5543
 20
4.5116
 10
37.5705
 20
4.4707
 10
37.5856
 20
4.4294
 10
37.5996
 20
4.3877
 10
37.6124
 20
4.3456
 10
37.6241
 20
4.303
 10
37.6346
 20
4.26
 10
37.644
 20
4.2165
 10
37.6522
 20
4.1727
 10
37.6593
 20
4.1284
 10
37.6653
 20
4.0836
 10
37.6701
 20
4.0385
 10
37.6738
 20
3.9929
 10
37.6763
 20
3.9469
 10
37.6777
 20
3.9005
 10
37.678
 20
3.8523
 10
37.6771
 20
3.8012
 10
37.6753
 20
3.7508
 10
37.6724
 20
3.7011
 10
37.6685
 20
3.6521
 10
37.6636
 20
3.6039
 10
37.6576
 20
3.5563
 10
37.6506
 20
3.5095
 10
37.6425
 20
3.4634
 10
37.6334
 20
3.418
 10
37.6233
 20
3.3733
 10
37.6121
 20
3.3293
 10
37.5999
 20
3.2861
 10
37.5867
 20
3.2436
 10
37.5725
 20
3.2018
 10
37.5572
 20
3.1607
 10
37.5408
 20
3.1203
 10
37.5235
 20
3.0806
 10
37.5051
 20
3.0417
 10
37.4856
 20
3.0034
 10
37.4652
 20
2.9659
 10
37.4437
 20
2.9291
 10
37.4211
 20
2.893
 10
37.3975
 20
2.8576
 10
37.3729
 20
2.823
 10
37.3473
 20
2.789
 10
37.3206
 20
2.7558
 10
37.2929
 20
2.7233
 10
37.2642
 20
2.6915
 10
37.2344
 20
2.6604
 10
37.2036
 20
2.6301
 10
37.1717
 20
2.6004
 10
37.1388
 20
2.5715
 10
37.1049
 20
2.5433
 10
37.07
 20
2.5158
 10
37.0398
 20
2.4933
 10
37.0097
 20
2.4718
 10
36.9789
 20
2.4508
 10
36.9475
 20
2.4304
 10
36.9155
 20
2.4105
 10
36.8828
 20
2.3912
 10
36.8495
 20
2.3723
 10
36.8155
 20
2.354
 10
36.7809
 20
2.3363
 10
36.7456
 20
2.319
 10
36.7097
 20
2.3023
 10
36.6731
 20
2.2862
 10
36.6359
 20
2.2705
 10
36.5981
 20
2.2554
 10
36.5596
 20
2.2408
 10
36.5205
 20
2.2268
 10
36.4807
 20
2.2132
 10
36.4403
 20
2.2002
 10
36.3992
 20
2.1878
 10
36.3575
 20
2.1758
 10
36.3151
 20
2.1644
 10
36.2721
 20
2.1536
 10
36.2285
 20
2.1432
 10
36.1842
 20
2.1334
 10
36.1393
 20
2.1241
 10
36.0937
 20
2.1154
 10
36.0475
 20
2.1072
 10
36.0006
 20
2.0995
 10
35.9531
 20
2.0923
 10
35.9049
 20
2.0857
 10
35.8561
 20
2.0796
 10
35.8067
 20
2.074
 10
35.7566
 20
2.069
 10
35.7059
 20
2.0645
 10
35.6545
 20
2.0605
 10
35.6025
 20
2.057
 10
35.5498
 20
2.0541
 10
35.4965
 20
2.0517
 10
35.4425
 20
2.0499
  0
ENDSEC
  0
SECTION
  2
OBJECTS
  0
DICTIONARY
  5
A
330
0
100
AcDbDictionary
281
1
  3
ACAD_COLOR
350
B
  3
ACAD_GROUP
350
C
  3
ACAD_LAYOUT
350
D
  3
ACAD_MATERIAL
350
E
  3
ACAD_MLEADERSTYLE
350
F
  3
ACAD_MLINESTYLE
350
10
  3
ACAD_PLOTSETTINGS
350
11
  3
ACAD_PLOTSTYLENAME
350
12
  3
ACAD_SCALELIST
350
14
  3
ACAD_TABLESTYLE
350
15
  3
ACAD_VISUALSTYLE
350
16
  3
EZDXF_META
350
2D
  0
DICTIONARY
  5
B
330
A
100
AcDbDictionary
281
1
  0
DICTIONARY
  5
C
330
A
100
AcDbDictionary
281
1
  0
DICTIONARY
  5
D
330
A
100
AcDbDictionary
281
1
  3
Model
350
1A
  3
Layout1
350
1E
  0
DICTIONARY
  5
E
330
A
100
AcDbDictionary
281
1
  3
ByBlock
350
1F
  3
ByLayer
350
20
  3
Global
350
21
  0
DICTIONARY
  5
F
330
A
100
AcDbDictionary
281
1
  3
Standard
350
2C
  0
DICTIONARY
  5
10
330
A
100
AcDbDictionary
281
1
  3
Standard
350
22
  0
DICTIONARY
  5
11
330
A
100
AcDbDictionary
281
1
  0
ACDBDICTIONARYWDFLT
  5
12
330
A
100
AcDbDictionary
281
1
  3
Normal
350
13
100
AcDbDictionaryWithDefault
340
13
  0
ACDBPLACEHOLDER
  5
13
330
12
  0
DICTIONARY
  5
14
330
A
100
AcDbDictionary
281
1
  0
DICTIONARY
  5
15
330
A
100
AcDbDictionary
281
1
  0
DICTIONARY
  5
16
330
A
100
AcDbDictionary
281
1
  0
LAYOUT
  5
1A
330
D
100
AcDbPlotSettings
  1

  4
A3
  6

 40
7.5
 41
20.0
 42
7.5
 43
20.0
 44
420.0
 45
297.0
 46
0.0
 47
0.0
 48
0.0
 49
0.0
140
0.0
141
0.0
142
1.0
143
1.0
 70
1024
 72
1
 73
0
 74
5
  7

 75
16
 76
0
 77
2
 78
300
147
1.0
148
0.0
149
0.0
100
AcDbLayout
  1
Model
 70
1
 71
0
 10
0.0
 20
0.0
 11
420.0
 21
297.0
 12
0.0
 22
0.0
 32
0.0
 14
1e+20
 24
1e+20
 34
1e+20
 15
-1e+20
 25
-1e+20
 35
-1e+20
146
0.0
 13
0.0
 23
0.0
 33
0.0
 16
1.0
 26
0.0
 36
0.0
 17
0.0
 27
1.0
 37
0.0
 76
1
330
17
  0
LAYOUT
  5
1E
330
D
100
AcDbPlotSettings
  1

  4
A3
  6

 40
7.5
 41
20.0
 42
7.5
 43
20.0
 44
420.0
 45
297.0
 46
0.0
 47
0.0
 48
0.0
 49
0.0
140
0.0
141
0.0
142
1.0
143
1.0
 70
0
 72
1
 73
0
 74
5
  7

 75
16
 76
0
 77
2
 78
300
147
1.0
148
0.0
149
0.0
100
AcDbLayout
  1
Layout1
 70
1
 71
1
 10
0.0
 20
0.0
 11
420.0
 21
297.0
 12
0.0
 22
0.0
 32
0.0
 14
1e+20
 24
1e+20
 34
1e+20
 15
-1e+20
 25
-1e+20
 35
-1e+20
146
0.0
 13
0.0
 23
0.0
 33
0.0
 16
1.0
 26
0.0
 36
0.0
 17
0.0
 27
1.0
 37
0.0
 76
1
330
1B
  0
MATERIAL
  5
1F
102
{ACAD_REACTORS
330
E
102
}
330
E
100
AcDbMaterial
  1
ByBlock
  2

 70
0
 40
1.0
 71
1
 41
1.0
 91
-1023410177
 42
1.0
 72
1
  3

 73
1
 74
1
 75
1
 44
0.5
 73
0
 45
1.0
 46
1.0
 77
1
  4

 78
1
 79
1
170
1
 48
1.0
171
1
  6

172
1
173
1
174
1
140
1.0
141
1.0
175
1
  7

176
1
177
1
178
1
143
1.0
179
1
  8

270
1
271
1
272
1
145
1.0
146
1.0
273
1
  9

274
1
275
1
276
1
 42
1.0
 72
1
  3

 73
1
 74
1
 75
1
 94
63
  0
MATERIAL
  5
20
102
{ACAD_REACTORS
330
E
102
}
330
E
100
AcDbMaterial
  1
ByLayer
  2

 70
0
 40
1.0
 71
1
 41
1.0
 91
-1023410177
 42
1.0
 72
1
  3

 73
1
 74
1
 75
1
 44
0.5
 73
0
 45
1.0
 46
1.0
 77
1
  4

 78
1
 79
1
170
1
 48
1.0
171
1
  6

172
1
173
1
174
1
140
1.0
141
1.0
175
1
  7

176
1
177
1
178
1
143
1.0
179
1
  8

270
1
271
1
272
1
145
1.0
146
1.0
273
1
  9

274
1
275
1
276
1
 42
1.0
 72
1
  3

 73
1
 74
1
 75
1
 94
63
  0
MATERIAL
  5
21
102
{ACAD_REACTORS
330
E
102
}
330
E
100
AcDbMaterial
  1
Global
  2

 70
0
 40
1.0
 71
1
 41
1.0
 91
-1023410177
 42
1.0
 72
1
  3

 73
1
 74
1
 75
1
 44
0.5
 73
0
 45
1.0
 46
1.0
 77
1
  4

 78
1
 79
1
170
1
 48
1.0
171
1
  6

172
1
173
1
174
1
140
1.0
141
1.0
175
1
  7

176
1
177
1
178
1
143
1.0
179
1
  8

270
1
271
1
272
1
145
1.0
146
1.0
273
1
  9

274
1
275
1
276
1
 42
1.0
 72
1
  3

 73
1
 74
1
 75
1
 94
63
  0
MLINESTYLE
  5
22
102
{ACAD_REACTORS
330
10
102
}
330
10
100
AcDbMlineStyle
  2
Standard
 70
0
  3

 62
256
 51
90.0
 52
90.0
 71
2
 49
0.5
 62
256
  6
BYLAYER
 49
-0.5
 62
256
  6
BYLAYER
  0
MLEADERSTYLE
  5
2C
102
{ACAD_REACTORS
330
F
102
}
330
F
100
AcDbMLeaderStyle
179
2
170
2
171
1
172
0
 90
2
 40
0.0
 41
0.0
173
1
 91
-1056964608
 92
-2
290
1
 42
2.0
291
1
 43
8.0
  3
Standard
 44
4.0
300

342
29
174
1
175
1
176
0
178
1
 93
-1056964608
 45
4.0
292
0
297
0
 46
4.0
 94
-1056964608
 47
1.0
 49
1.0
140
1.0
294
1
141
0.0
177
0
142
1.0
295
0
296
0
143
3.75
271
0
272
9
273
9
  0
DICTIONARY
  5
2D
330
A
100
AcDbDictionary
280
1
281
1
  3
CREATED_BY_EZDXF
350
2E
  3
WRITTEN_BY_EZDXF
350
5E
  0
DICTIONARYVAR
  5
2E
330
2D
100
DictionaryVariables
280
0
  1
0.0 @ 2000-01-01T00:00:00.000000+00:00
  0
DICTIONARYVAR
  5
5E
330
2D
100
DictionaryVariables
280
0
  1
0.0 @ 2000-01-01T00:00:00.000000+00:00
  0
ENDSEC
  0
EOF
