  0
SECTION
  2
HEADER
  9
$ACADVER
  1
AC1024
  9
$ACADMAINTVER
 70
6
  9
$DWGCODEPAGE
  3
ANSI_1252
  9
$LASTSAVEDBY
  1
ezdxf
  9
$INSBASE
 10
0.0
 20
0.0
 30
0.0
  9
$EXTMIN
 10
1e+20
 20
1e+20
 30
1e+20
  9
$EXTMAX
 10
-1e+20
 20
-1e+20
 30
-1e+20
  9
$LIMMIN
 10
0.0
 20
0.0
  9
$LIMMAX
 10
420.0
 20
297.0
  9
$ORTHOMODE
 70
0
  9
$REGENMODE
 70
1
  9
$FILLMODE
 70
1
  9
$QTEXTMODE
 70
0
  9
$MIRRTEXT
 70
1
  9
$LTSCALE
 40
1.0
  9
$ATTMODE
 70
1
  9
$TEXTSIZE
 40
2.5
  9
$TRACEWID
 40
1.0
  9
$TEXTSTYLE
  7
Standard
  9
$CLAYER
  8
0
  9
$CELTYPE
  6
ByLayer
  9
$CECOLOR
 62
256
  9
$CELTSCALE
 40
1.0
  9
$DISPSILH
 70
0
  9
$DIMSCALE
 40
1.0
  9
$DIMASZ
 40
2.5
  9
$DIMEXO
 40
0.625
  9
$DIMDLI
 40
3.75
  9
$DIMRND
 40
0.0
  9
$DIMDLE
 40
0.0
  9
$DIMEXE
 40
1.25
  9
$DIMTP
 40
0.0
  9
$DIMTM
 40
0.0
  9
$DIMTXT
 40
2.5
  9
$DIMCEN
 40
2.5
  9
$DIMTSZ
 40
0.0
  9
$DIMTOL
 70
0
  9
$DIMLIM
 70
0
  9
$DIMTIH
 70
0
  9
$DIMTOH
 70
0
  9
$DIMSE1
 70
0
  9
$DIMSE2
 70
0
  9
$DIMTAD
 70
1
  9
$DIMZIN
 70
8
  9
$DIMBLK
  1

  9
$DIMASO
 70
1
  9
$DIMSHO
 70
1
  9
$DIMPOST
  1

  9
$DIMAPOST
  1

  9
$DIMALT
 70
0
  9
$DIMALTD
 70
3
  9
$DIMALTF
 40
0.03937007874
  9
$DIMLFAC
 40
1.0
  9
$DIMTOFL
 70
1
  9
$DIMTVP
 40
0.0
  9
$DIMTIX
 70
0
  9
$DIMSOXD
 70
0
  9
$DIMSAH
 70
0
  9
$DIMBLK1
  1

  9
$DIMBLK2
  1

  9
$DIMSTYLE
  2
ISO-25
  9
$DIMCLRD
 70
0
  9
$DIMCLRE
 70
0
  9
$DIMCLRT
 70
0
  9
$DIMTFAC
 40
1.0
  9
$DIMGAP
 40
0.625
  9
$DIMJUST
 70
0
  9
$DIMSD1
 70
0
  9
$DIMSD2
 70
0
  9
$DIMTOLJ
 70
0
  9
$DIMTZIN
 70
8
  9
$DIMALTZ
 70
0
  9
$DIMALTTZ
 70
0
  9
$DIMUPT
 70
0
  9
$DIMDEC
 70
2
  9
$DIMTDEC
 70
2
  9
$DIMALTU
 70
2
  9
$DIMALTTD
 70
3
  9
$DIMTXSTY
  7
Standard
  9
$DIMAUNIT
 70
0
  9
$DIMADEC
 70
0
  9
$DIMALTRND
 40
0.0
  9
$DIMAZIN
 70
0
  9
$DIMDSEP
 70
44
  9
$DIMATFIT
 70
3
  9
$DIMFRAC
 70
0
  9
$DIMLDRBLK
  1

  9
$DIMLUNIT
 70
2
  9
$DIMLWD
 70
-2
  9
$DIMLWE
 70
-2
  9
$DIMTMOVE
 70
0
  9
$DIMFXL
 40
1.0
  9
$DIMFXLON
 70
0
  9
$DIMJOGANG
 40
0.785398163397
  9
$DIMTFILL
 70
0
  9
$DIMTFILLCLR
 70
0
  9
$DIMARCSYM
 70
0
  9
$DIMLTYPE
  6

  9
$DIMLTEX1
  6

  9
$DIMLTEX2
  6

  9
$DIMTXTDIRECTION
 70
0
  9
$LUNITS
 70
2
  9
$LUPREC
 70
4
  9
$SKETCHINC
 40
1.0
  9
$FILLETRAD
 40
10.0
  9
$AUNITS
 70
0
  9
$AUPREC
 70
2
  9
$MENU
  1
.
  9
$ELEVATION
 40
0.0
  9
$PELEVATION
 40
0.0
  9
$THICKNESS
 40
0.0
  9
$LIMCHECK
 70
0
  9
$CHAMFERA
 40
0.0
  9
$CHAMFERB
 40
0.0
  9
$CHAMFERC
 40
0.0
  9
$CHAMFERD
 40
0.0
  9
$SKPOLY
 70
0
  9
$TDCREATE
 40
2451545.0
  9
$TDUCREATE
 40
2451545.0
  9
$TDUPDATE
 40
2451545.0
  9
$TDUUPDATE
 40
2451545.0
  9
$TDINDWG
 40
0.0
  9
$TDUSRTIMER
 40
0.0
  9
$USRTIMER
 70
1
  9
$ANGBASE
 50
0.0
  9
$ANGDIR
 70
0
  9
$PDMODE
 70
0
  9
$PDSIZE
 40
0.0
  9
$PLINEWID
 40
0.0
  9
$SPLFRAME
 70
0
  9
$SPLINETYPE
 70
6
  9
$SPLINESEGS
 70
8
  9
$HANDSEED
  5
5F
  9
$SURFTAB1
 70
6
  9
$SURFTAB2
 70
6
  9
$SURFTYPE
 70
6
  9
$SURFU
 70
6
  9
$SURFV
 70
6
  9
$UCSBASE
  2

  9
$UCSNAME
  2

  9
$UCSORG
 10
0.0
 20
0.0
 30
0.0
  9
$UCSXDIR
 10
1.0
 20
0.0
 30
0.0
  9
$UCSYDIR
 10
0.0
 20
1.0
 30
0.0
  9
$UCSORTHOREF
  2

  9
$UCSORTHOVIEW
 70
0
  9
$UCSORGTOP
 10
0.0
 20
0.0
 30
0.0
  9
$UCSORGBOTTOM
 10
0.0
 20
0.0
 30
0.0
  9
$UCSORGLEFT
 10
0.0
 20
0.0
 30
0.0
  9
$UCSORGRIGHT
 10
0.0
 20
0.0
 30
0.0
  9
$UCSORGFRONT
 10
0.0
 20
0.0
 30
0.0
  9
$UCSORGBACK
 10
0.0
 20
0.0
 30
0.0
  9
$PUCSBASE
  2

  9
$PUCSNAME
  2

  9
$PUCSORG
 10
0.0
 20
0.0
 30
0.0
  9
$PUCSXDIR
 10
1.0
 20
0.0
 30
0.0
  9
$PUCSYDIR
 10
0.0
 20
1.0
 30
0.0
  9
$PUCSORTHOREF
  2

  9
$PUCSORTHOVIEW
 70
0
  9
$PUCSORGTOP
 10
0.0
 20
0.0
 30
0.0
  9
$PUCSORGBOTTOM
 10
0.0
 20
0.0
 30
0.0
  9
$PUCSORGLEFT
 10
0.0
 20
0.0
 30
0.0
  9
$PUCSORGRIGHT
 10
0.0
 20
0.0
 30
0.0
  9
$PUCSORGFRONT
 10
0.0
 20
0.0
 30
0.0
  9
$PUCSORGBACK
 10
0.0
 20
0.0
 30
0.0
  9
$USERI1
 70
0
  9
$USERI2
 70
0
  9
$USERI3
 70
0
  9
$USERI4
 70
0
  9
$USERI5
 70
0
  9
$USERR1
 40
0.0
  9
$USERR2
 40
0.0
  9
$USERR3
 40
0.0
  9
$USERR4
 40
0.0
  9
$USERR5
 40
0.0
  9
$WORLDVIEW
 70
1
  9
$SHADEDGE
 70
3
  9
$SHADEDIF
 70
70
  9
$TILEMODE
 70
1
  9
$MAXACTVP
 70
64
  9
$PINSBASE
 10
0.0
 20
0.0
 30
0.0
  9
$PLIMCHECK
 70
0
  9
$PEXTMIN
 10
1e+20
 20
1e+20
 30
1e+20
  9
$PEXTMAX
 10
-1e+20
 20
-1e+20
 30
-1e+20
  9
$PLIMMIN
 10
0.0
 20
0.0
  9
$PLIMMAX
 10
420.0
 20
297.0
  9
$UNITMODE
 70
0
  9
$VISRETAIN
 70
1
  9
$PLINEGEN
 70
0
  9
$PSLTSCALE
 70
1
  9
$TREEDEPTH
 70
3020
  9
$CMLSTYLE
  2
Standard
  9
$CMLJUST
 70
0
  9
$CMLSCALE
 40
20.0
  9
$PROXYGRAPHICS
 70
1
  9
$MEASUREMENT
 70
1
  9
$CELWEIGHT
370
-1
  9
$ENDCAPS
280
0
  9
$JOINSTYLE
280
0
  9
$LWDISPLAY
290
0
  9
$INSUNITS
 70
4
  9
$HYPERLINKBASE
  1

  9
$STYLESHEET
  1

  9
$XEDIT
290
1
  9
$CEPSNTYPE
380
0
  9
$PSTYLEMODE
290
1
  9
$FINGERPRINTGUID
  2
{00000000-0000-0000-0000-000000000000}
  9
$VERSIONGUID
  2
{00000000-0000-0000-0000-000000000000}
  9
$EXTNAMES
290
1
  9
$PSVPSCALE
 40
0.0
  9
$OLESTARTUP
290
0
  9
$SORTENTS
280
127
  9
$INDEXCTL
280
0
  9
$HIDETEXT
280
1
  9
$XCLIPFRAME
280
1
  9
$HALOGAP
280
0
  9
$OBSCOLOR
 70
257
  9
$OBSLTYPE
280
0
  9
$INTERSECTIONDISPLAY
280
0
  9
$INTERSECTIONCOLOR
 70
257
  9
$DIMASSOC
280
2
  9
$PROJECTNAME
  1

  9
$CAMERADISPLAY
290
0
  9
$LENSLENGTH
 40
50.0
  9
$CAMERAHEIGHT
 40
0.0
  9
$STEPSPERSEC
 40
24.0
  9
$STEPSIZE
 40
100.0
  9
$3DDWFPREC
 40
2.0
  9
$PSOLWIDTH
 40
0.005
  9
$PSOLHEIGHT
 40
0.08
  9
$LOFTANG1
 40
1.570796326795
  9
$LOFTANG2
 40
1.570796326795
  9
$LOFTMAG1
 40
0.0
  9
$LOFTMAG2
 40
0.0
  9
$LOFTPARAM
 70
7
  9
$LOFTNORMALS
280
1
  9
$LATITUDE
 40
37.795
  9
$LONGITUDE
 40
-122.394
  9
$NORTHDIRECTION
 40
0.0
  9
$TIMEZONE
 70
-8000
  9
$LIGHTGLYPHDISPLAY
280
1
  9
$TILEMODELIGHTSYNCH
280
1
  9
$CMATERIAL
347
20
  9
$SOLIDHIST
280
0
  9
$SHOWHIST
280
1
  9
$DWFFRAME
280
2
  9
$DGNFRAME
280
2
  9
$REALWORLDSCALE
290
1
  9
$INTERFERECOLOR
 62
256
  9
$CSHADOW
280
0
  9
$SHADOWPLANELOCATION
 40
0.0
  0
ENDSEC
  0
SECTION
  2
CLASSES
  0
CLASS
  1
ACDBDICTIONARYWDFLT
  2
AcDbDictionaryWithDefault
  3
ObjectDBX Classes
 90
0
 91
0
280
0
281
0
  0
CLASS
  1
SUN
  2
AcDbSun
  3
SCENEOE
 90
1153
 91
0
280
0
281
0
  0
CLASS
  1
VISUALSTYLE
  2
AcDbVisualStyle
  3
ObjectDBX Classes
 90
4095
 91
0
280
0
281
0
  0
CLASS
  1
MATERIAL
  2
AcDbMaterial
  3
ObjectDBX Classes
 90
1153
 91
0
280
0
281
0
  0
CLASS
  1
SCALE
  2
AcDbScale
  3
ObjectDBX Classes
 90
1153
 91
0
280
0
281
0
  0
CLASS
  1
TABLESTYLE
  2
AcDbTableStyle
  3
ObjectDBX Classes
 90
4095
 91
0
280
0
281
0
  0
CLASS
  1
MLEADERSTYLE
  2
AcDbMLeaderStyle
  3
ACDB_MLEADERSTYLE_CLASS
 90
4095
 91
0
280
0
281
0
  0
CLASS
  1
DICTIONARYVAR
  2
AcDbDictionaryVar
  3
ObjectDBX Classes
 90
0
 91
0
280
0
281
0
  0
CLASS
  1
CELLSTYLEMAP
  2
AcDbCellStyleMap
  3
ObjectDBX Classes
 90
1152
 91
0
280
0
281
0
  0
CLASS
  1
MENTALRAYRENDERSETTINGS
  2
AcDbMentalRayRenderSettings
  3
SCENEOE
 90
1024
 91
0
280
0
281
0
  0
CLASS
  1
ACDBDETAILVIEWSTYLE
  2
AcDbDetailViewStyle
  3
ObjectDBX Classes
 90
1025
 91
0
280
0
281
0
  0
CLASS
  1
ACDBSECTIONVIEWSTYLE
  2
AcDbSectionViewStyle
  3
ObjectDBX Classes
 90
1025
 91
0
280
0
281
0
  0
CLASS
  1
RASTERVARIABLES
  2
AcDbRasterVariables
  3
ISM
 90
0
 91
0
280
0
281
0
  0
CLASS
  1
ACDBPLACEHOLDER
  2
AcDbPlaceHolder
  3
ObjectDBX Classes
 90
0
 91
0
280
0
281
0
  0
CLASS
  1
LAYOUT
  2
AcDbLayout
  3
ObjectDBX Classes
 90
0
 91
0
280
0
281
0
  0
ENDSEC
  0
SECTION
  2
TABLES
  0
TABLE
  2
VPORT
  5
8
330
0
100
AcDbSymbolTable
 70
1
  0
VPORT
  5
23
330
8
100
AcDbSymbolTableRecord
100
AcDbViewportTableRecord
  2
*Active
 70
0
 10
0.0
 20
0.0
 11
1.0
 21
1.0
 12
0.0
 22
0.0
 13
0.0
 23
0.0
 14
0.5
 24
0.5
 15
0.5
 25
0.5
 16
0.0
 26
0.0
 36
1.0
 17
0.0
 27
0.0
 37
0.0
 40
1000.0
 41
1.34
 42
50.0
 43
0.0
 44
0.0
 50
0.0
 51
0.0
 71
0
 72
1000
 73
1
 74
3
 75
0
 76
0
 77
0
 78
0
281
0
 65
0
146
0.0
  0
ENDTAB
  0
TABLE
  2
LTYPE
  5
2
330
0
100
AcDbSymbolTable
 70
3
  0
LTYPE
  5
24
330
2
100
AcDbSymbolTableRecord
100
AcDbLinetypeTableRecord
  2
ByBlock
 70
0
  3

 72
65
 73
0
 40
0.0
  0
LTYPE
  5
25
330
2
100
AcDbSymbolTableRecord
100
AcDbLinetypeTableRecord
  2
ByLayer
 70
0
  3

 72
65
 73
0
 40
0.0
  0
LTYPE
  5
26
330
2
100
AcDbSymbolTableRecord
100
AcDbLinetypeTableRecord
  2
Continuous
 70
0
  3

 72
65
 73
0
 40
0.0
  0
ENDTAB
  0
TABLE
  2
LAYER
  5
1
330
0
100
AcDbSymbolTable
 70
3
  0
LAYER
  5
27
330
1
100
AcDbSymbolTableRecord
100
AcDbLayerTableRecord
  2
0
 70
0
 62
7
  6
Continuous
370
-3
390
13
347
21
  0
LAYER
  5
28
330
1
100
AcDbSymbolTableRecord
100
AcDbLayerTableRecord
  2
Defpoints
 70
0
 62
7
  6
Continuous
290
0
370
-3
390
13
347
21
  0
LAYER
  5
2F
330
1
100
AcDbSymbolTableRecord
100
AcDbLayerTableRecord
  2
OUTLINE
 70
0
 62
7
  6
Continuous
370
-3
390
13
347
21
  0
ENDTAB
  0
TABLE
  2
STYLE
  5
5
330
0
100
AcDbSymbolTable
 70
1
  0
STYLE
  5
29
330
5
100
AcDbSymbolTableRecord
100
AcDbTextStyleTableRecord
  2
Standard
 70
0
 40
0.0
 41
1.0
 50
0.0
 71
0
 42
2.5
  3
txt
  4

  0
ENDTAB
  0
TABLE
  2
VIEW
  5
7
330
0
100
AcDbSymbolTable
 70
0
  0
ENDTAB
  0
TABLE
  2
UCS
  5
6
330
0
100
AcDbSymbolTable
 70
0
  0
ENDTAB
  0
TABLE
  2
APPID
  5
3
330
0
100
AcDbSymbolTable
 70
3
  0
APPID
  5
2A
330
3
100
AcDbSymbolTableRecord
100
AcDbRegAppTableRecord
  2
ACAD
 70
0
  0
APPID
  5
5C
330
3
100
AcDbSymbolTableRecord
100
AcDbRegAppTableRecord
  2
HATCHBACKGROUNDCOLOR
 70
0
  0
APPID
  5
5D
330
3
100
AcDbSymbolTableRecord
100
AcDbRegAppTableRecord
  2
EZDXF
 70
0
  0
ENDTAB
  0
TABLE
  2
DIMSTYLE
  5
4
330
0
100
AcDbSymbolTable
 70
1
100
AcDbDimStyleTable
  0
DIMSTYLE
105
2B
330
4
100
AcDbSymbolTableRecord
100
AcDbDimStyleTableRecord
  2
Standard
 70
0
 40
1.0
 41
2.5
 42
0.625
 43
3.75
 44
1.25
 45
0.0
 46
0.0
 47
0.0
 48
0.0
 49
2.5
140
2.5
141
2.5
142
0.0
143
0.03937007874
144
1.0
145
0.0
146
1.0
147
0.625
148
0.0
 69
0
 70
0
 71
0
 72
0
 73
0
 74
0
 75
0
 76
0
 77
1
 78
8
 79
3
170
0
171
3
172
1
173
0
174
0
175
0
176
0
177
0
178
0
179
2
271
2
272
2
273
2
274
3
275
0
276
0
277
2
278
44
279
0
280
0
281
0
282
0
283
0
284
8
285
0
286
0
288
0
289
3
290
0
371
-2
372
-2
  0
ENDTAB
  0
TABLE
  2
BLOCK_RECORD
  5
9
330
0
100
AcDbSymbolTable
 70
2
  0
BLOCK_RECORD
  5
17
330
9
100
AcDbSymbolTableRecord
100
AcDbBlockTableRecord
  2
*Model_Space
340
1A
 70
0
280
1
281
0
  0
BLOCK_RECORD
  5
1B
330
9
100
AcDbSymbolTableRecord
100
AcDbBlockTableRecord
  2
*Paper_Space
340
1E
 70
0
280
1
281
0
  0
ENDTAB
  0
ENDSEC
  0
SECTION
  2
BLOCKS
  0
BLOCK
  5
18
330
17
100
AcDbEntity
  8
0
100
AcDbBlockBegin
  2
*Model_Space
 70
0
 10
0.0
 20
0.0
 30
0.0
  3
*Model_Space
  1

  0
ENDBLK
  5
19
330
17
100
AcDbEntity
  8
0
100
AcDbBlockEnd
  0
BLOCK
  5
1C
330
1B
100
AcDbEntity
  8
0
100
AcDbBlockBegin
  2
*Paper_Space
 70
0
 10
0.0
 20
0.0
 30
0.0
  3
*Paper_Space
  1

  0
ENDBLK
  5
1D
330
1B
100
AcDbEntity
  8
0
100
AcDbBlockEnd
  0
ENDSEC
  0
SECTION
  2
ENTITIES
  0
SPLINE
  5
30
330
17
100
AcDbEntity
  8
OUTLINE
100
AcDbSpline
 70
0
 71
3
 72
8
 73
4
 74
0
 40
0.0
 40
0.0
 40
0.0
 40
0.0
 40
1.0
 40
1.0
 40
1.0
 40
1.0
 10
92.54145970747496
 20
60.32607364067338
 30
0.0
 10
92.56240446151892
 20
60.305128886629404
 30
0.0
 10
92.57798093277643
 20
60.19819659695639
 30
0.0
 10
92.58226661773753
 20
60.115018907174715
 30
0.0
  0
SPLINE
  5
31
330
17
100
AcDbEntity
  8
OUTLINE
100
AcDbSpline
 70
0
 71
3
 72
8
 73
4
 74
0
 40
0.0
 40
0.0
 40
0.0
 40
0.0
 40
1.0
 40
1.0
 40
1.0
 40
1.0
 10
92.58226661773753
 20
60.115018907174715
 30
0.0
 10
92.59697084483142
 20
59.82963543853692
 30
0.0
 10
92.53550338377946
 20
59.435787106108336
 30
0.0
 10
92.47151017672428
 20
59.11916449715353
 30
0.0
  0
SPLINE
  5
32
330
17
100
AcDbEntity
  8
OUTLINE
100
AcDbSpline
 70
0
 71
3
 72
8
 73
4
 74
0
 40
0.0
 40
0.0
 40
0.0
 40
0.0
 40
1.0
 40
1.0
 40
1.0
 40
1.0
 10
92.47151017672428
 20
59.11916449715353
 30
0.0
 10
92.2877494593742
 20
58.20996177973669
 30
0.0
 10
91.95417033281583
 20
57.200826262306876
 30
0.0
 10
91.57296375109064
 20
56.187134899975575
 30
0.0
  0
SPLINE
  5
33
330
17
100
AcDbEntity
  8
OUTLINE
100
AcDbSpline
 70
0
 71
3
 72
8
 73
4
 74
0
 40
0.0
 40
0.0
 40
0.0
 40
0.0
 40
1.0
 40
1.0
 40
1.0
 40
1.0
 10
91.57296375109064
 20
56.187134899975575
 30
0.0
 10
90.79278374790772
 20
54.11250720936502
 30
0.0
 10
89.73954315844816
 20
51.859828149143354
 30
0.0
 10
88.48893488304513
 20
49.48191393194702
 30
0.0
  0
SPLINE
  5
34
330
17
100
AcDbEntity
  8
OUTLINE
100
AcDbSpline
 70
0
 71
3
 72
8
 73
4
 74
0
 40
0.0
 40
0.0
 40
0.0
 40
0.0
 40
1.0
 40
1.0
 40
1.0
 40
1.0
 10
88.48893488304513
 20
49.48191393194702
 30
0.0
 10
85.74218899799283
 20
44.259234521012814
 30
0.0
 10
82.382638480114
 20
39.20847919568765
 30
0.0
 10
79.84808308098982
 20
35.91906913115784
 30
0.0
  0
LINE
  5
35
330
17
100
AcDbEntity
  8
OUTLINE
100
AcDbLine
 10
79.84808308098982
 20
35.91906913115784
 30
0.0
 11
79.42381901227789
 21
36.343333199869775
 31
0.0
  0
ARC
  5
36
330
17
100
AcDbEntity
  8
OUTLINE
100
AcDbCircle
 10
71.26048180296613
 20
39.045095736164555
 30
0.0
 40
8.598813592319587
100
AcDbArc
 50
-18.312632712390478
 51
108.31263271239047
  0
LINE
  5
37
330
17
100
AcDbEntity
  8
OUTLINE
100
AcDbLine
 10
68.55871926667135
 20
47.208432945476325
 30
0.0
 11
68.13445519795941
 21
47.63269701418825
 31
0.0
  0
SPLINE
  5
38
330
17
100
AcDbEntity
  8
OUTLINE
100
AcDbSpline
 70
0
 71
3
 72
8
 73
4
 74
0
 40
0.0
 40
0.0
 40
0.0
 40
0.0
 40
1.0
 40
1.0
 40
1.0
 40
1.0
 10
68.13445519795941
 20
47.63269701418825
 30
0.0
 10
71.42386526248922
 20
50.167252413312426
 30
0.0
 10
76.47462058781439
 20
53.52680293119127
 30
0.0
 10
81.69729999874859
 20
56.27354881624356
 30
0.0
  0
SPLINE
  5
39
330
17
100
AcDbEntity
  8
OUTLINE
100
AcDbSpline
 70
0
 71
3
 72
8
 73
4
 74
0
 40
0.0
 40
0.0
 40
0.0
 40
0.0
 40
1.0
 40
1.0
 40
1.0
 40
1.0
 10
81.69729999874859
 20
56.27354881624356
 30
0.0
 10
84.07521421594492
 20
57.52415709164659
 30
0.0
 10
86.32789327616658
 20
58.57739768110616
 30
0.0
 10
88.40252096677715
 20
59.35757768428907
 30
0.0
  0
SPLINE
  5
3A
330
17
100
AcDbEntity
  8
OUTLINE
100
AcDbSpline
 70
0
 71
3
 72
8
 73
4
 74
0
 40
0.0
 40
0.0
 40
0.0
 40
0.0
 40
1.0
 40
1.0
 40
1.0
 40
1.0
 10
88.40252096677715
 20
59.35757768428907
 30
0.0
 10
89.41621232910845
 20
59.73878426601428
 30
0.0
 10
90.42534784653824
 20
60.07236339257263
 30
0.0
 10
91.33455056395509
 20
60.25612410992271
 30
0.0
  0
SPLINE
  5
3B
330
17
100
AcDbEntity
  8
OUTLINE
100
AcDbSpline
 70
0
 71
3
 72
8
 73
4
 74
0
 40
0.0
 40
0.0
 40
0.0
 40
0.0
 40
1.0
 40
1.0
 40
1.0
 40
1.0
 10
91.33455056395509
 20
60.25612410992271
 30
0.0
 10
91.65117317290989
 20
60.32011731697789
 30
0.0
 10
92.04502150533848
 20
60.381584778029854
 30
0.0
 10
92.33040497397627
 20
60.366880550935974
 30
0.0
  0
SPLINE
  5
3C
330
17
100
AcDbEntity
  8
OUTLINE
100
AcDbSpline
 70
0
 71
3
 72
8
 73
4
 74
0
 40
0.0
 40
0.0
 40
0.0
 40
0.0
 40
1.0
 40
1.0
 40
1.0
 40
1.0
 10
92.33040497397627
 20
60.366880550935974
 30
0.0
 10
92.41358266375795
 20
60.362594865974856
 30
0.0
 10
92.52051495343096
 20
60.34701839471736
 30
0.0
 10
92.54145970747496
 20
60.32607364067338
 30
0.0
  0
LINE
  5
3D
330
17
100
AcDbEntity
  8
OUTLINE
100
AcDbLine
 10
65.98528728258884
 20
51.85492259895948
 30
0.0
 11
61.29975260768731
 21
43.42096018413673
 31
0.0
  0
LINE
  5
3E
330
17
100
AcDbEntity
  8
OUTLINE
100
AcDbLine
 10
61.29975260768731
 20
43.42096018413673
 30
0.0
 11
60.87548853897538
 21
43.84522425284866
 31
0.0
  0
ARC
  5
3F
330
17
100
AcDbEntity
  8
OUTLINE
100
AcDbCircle
 10
57.472896120785315
 20
43.342531437155955
 30
0.0
 40
3.439525436927835
100
AcDbArc
 50
8.403982758207794
 51
81.59601724179221
  0
LINE
  5
40
330
17
100
AcDbEntity
  8
OUTLINE
100
AcDbLine
 10
57.97558893647802
 20
46.74512385534602
 30
0.0
 11
57.551324867766084
 21
47.16938792405796
 31
0.0
  0
LINE
  5
41
330
17
100
AcDbEntity
  8
OUTLINE
100
AcDbLine
 10
57.551324867766084
 20
47.16938792405796
 30
0.0
 11
65.98528728258884
 21
51.85492259895948
 31
0.0
  0
ELLIPSE
  5
42
330
17
100
AcDbEntity
  8
OUTLINE
100
AcDbEllipse
 10
76.40141770964215
 20
25.953843499316655
 30
0.0
 11
-6.384293371352646
 21
-6.384293371352647
 31
0.0
 40
0.28571428571428575
 41
1.761136247462503
 42
3.1415926535897944
  0
LINE
  5
43
330
17
100
AcDbEntity
  8
OUTLINE
100
AcDbLine
 10
79.40042016351816
 20
25.370564288074192
 30
0.0
 11
78.97615609480624
 21
25.794828356786127
 31
0.0
  0
ARC
  5
44
330
17
100
AcDbEntity
  8
OUTLINE
100
AcDbCircle
 10
76.40141770964215
 20
25.953843499316648
 30
0.0
 40
2.5796440776958756
100
AcDbArc
 50
-3.534083015188985
 51
93.53408301518931
  0
LINE
  5
45
330
17
100
AcDbEntity
  8
OUTLINE
100
AcDbLine
 10
76.24240256711161
 20
28.528581884480744
 30
0.0
 11
75.81813849839969
 21
28.952845953192675
 31
0.0
  0
ELLIPSE
  5
46
330
17
100
AcDbEntity
  8
OUTLINE
100
AcDbEllipse
 10
76.40141770964215
 20
25.953843499316655
 30
0.0
 11
-6.384293371352646
 21
-6.384293371352647
 31
0.0
 40
0.28571428571428575
 41
3.1415926535897944
 42
4.522049059717082
  0
ARC
  5
47
330
17
100
AcDbEntity
  8
OUTLINE
100
AcDbCircle
 10
44.616944131730534
 20
46.603129697175284
 30
0.0
 40
28.48357002455862
100
AcDbArc
 50
-40.274477853053696
 51
-13.109208198154292
  0
LINE
  5
48
330
17
100
AcDbEntity
  8
OUTLINE
100
AcDbLine
 10
66.34866514045771
 20
28.189926191462853
 30
0.0
 11
65.92440107174578
 21
28.61419026017478
 31
0.0
  0
ARC
  5
49
330
17
100
AcDbEntity
  8
OUTLINE
100
AcDbCircle
 10
61.71772994785369
 20
29.502343881052123
 30
0.0
 40
4.2994067961597935
100
AcDbArc
 50
-11.921763484854946
 51
101.9217634848549
  0
LINE
  5
4A
330
17
100
AcDbEntity
  8
OUTLINE
100
AcDbLine
 10
60.82957632697635
 20
33.709015004944206
 30
0.0
 11
60.405312258264416
 21
34.133279073656134
 31
0.0
  0
ARC
  5
4B
330
17
100
AcDbEntity
  8
OUTLINE
100
AcDbCircle
 10
78.81851576397685
 20
12.401558064928963
 30
0.0
 40
28.48357002455862
100
AcDbArc
 50
103.10920819815429
 51
130.2744778530537
  0
LWPOLYLINE
  5
4C
330
17
100
AcDbEntity
  8
OUTLINE
100
AcDbPolyline
 90
472
 70
1
 10
23.7553
 20
10.2842
 10
23.7553
 20
10.1721
 10
23.7553
 20
10.1472
 10
23.7553
 20
10.0601
 10
23.7553
 20
9.948
 10
23.7553
 20
9.9096
 10
23.7553
 20
9.8359
 10
23.7553
 20
9.7239
 10
23.7553
 20
9.6719
 10
23.7553
 20
9.6118
 10
23.7553
 20
9.4997
 10
23.7553
 20
9.3877
 10
23.7553
 20
9.2756
 10
23.7553
 20
9.1635
 10
23.7553
 20
9.0515
 10
23.7553
 20
8.9394
 10
23.7553
 20
8.8273
 10
23.7553
 20
8.7153
 10
23.7553
 20
8.6032
 10
23.7553
 20
8.4911
 10
23.7553
 20
8.379
 10
23.7553
 20
8.267
 10
23.7553
 20
8.1549
 10
23.7553
 20
8.0428
 10
23.7585
 20
7.9335
 10
23.8693
 20
7.9168
 10
23.9802
 20
7.9001
 10
24.091
 20
7.8834
 10
24.2018
 20
7.8668
 10
24.3126
 20
7.8501
 10
24.4234
 20
7.8334
 10
24.5342
 20
7.8167
 10
24.6451
 20
7.8
 10
24.7559
 20
7.7833
 10
24.8667
 20
7.7666
 10
24.9775
 20
7.7499
 10
25.0883
 20
7.7332
 10
25.1991
 20
7.7165
 10
25.31
 20
7.6998
 10
25.4208
 20
7.6831
 10
25.4537
 20
7.5994
 10
25.4537
 20
7.4873
 10
25.4537
 20
7.3752
 10
25.4537
 20
7.2632
 10
25.4537
 20
7.1511
 10
25.4537
 20
7.039
 10
25.4537
 20
6.927
 10
25.4537
 20
6.8149
 10
25.4537
 20
6.7028
 10
25.4537
 20
6.5908
 10
25.4537
 20
6.4787
 10
25.4537
 20
6.3666
 10
25.4537
 20
6.2546
 10
25.4537
 20
6.1425
 10
25.4537
 20
6.0304
 10
25.4537
 20
5.9183
 10
25.4537
 20
5.8063
 10
25.4537
 20
5.6942
 10
25.4537
 20
5.5821
 10
25.4537
 20
5.4701
 10
25.4537
 20
5.358
 10
25.3483
 20
5.3486
 10
25.2363
 20
5.3456
 10
25.1242
 20
5.3426
 10
25.0122
 20
5.3397
 10
24.9002
 20
5.3367
 10
24.7881
 20
5.3337
 10
24.6761
 20
5.3307
 10
24.5641
 20
5.3277
 10
24.4521
 20
5.3247
 10
24.34
 20
5.3218
 10
24.228
 20
5.3188
 10
24.116
 20
5.3158
 10
24.004
 20
5.3128
 10
23.8919
 20
5.3098
 10
23.7799
 20
5.3068
 10
23.6679
 20
5.3038
 10
23.5558
 20
5.3009
 10
23.4438
 20
5.2979
 10
23.3318
 20
5.2949
 10
23.2198
 20
5.2919
 10
23.1077
 20
5.2889
 10
22.9957
 20
5.2859
 10
22.8837
 20
5.283
 10
22.7716
 20
5.28
 10
22.6596
 20
5.277
 10
22.5476
 20
5.274
 10
22.4356
 20
5.271
 10
22.3235
 20
5.268
 10
22.2115
 20
5.2651
 10
22.0995
 20
5.2621
 10
21.9874
 20
5.2591
 10
21.8754
 20
5.2561
 10
21.7634
 20
5.2531
 10
21.6514
 20
5.2501
 10
21.5393
 20
5.2472
 10
21.4273
 20
5.2442
 10
21.3153
 20
5.2412
 10
21.2033
 20
5.2382
 10
21.0912
 20
5.2352
 10
21.0833
 20
5.347
 10
21.0754
 20
5.4588
 10
21.0675
 20
5.5706
 10
21.0595
 20
5.6824
 10
21.0516
 20
5.7942
 10
21.0437
 20
5.9059
 10
21.0358
 20
6.0177
 10
21.0278
 20
6.1295
 10
21.0199
 20
6.2413
 10
21.012
 20
6.3531
 10
21.0041
 20
6.4649
 10
20.9961
 20
6.5767
 10
20.9882
 20
6.6885
 10
20.9803
 20
6.8002
 10
20.9724
 20
6.912
 10
20.9644
 20
7.0238
 10
20.9565
 20
7.1356
 10
20.9486
 20
7.2474
 10
20.9407
 20
7.3592
 10
20.9328
 20
7.471
 10
20.9248
 20
7.5828
 10
20.9169
 20
7.6945
 10
20.9148
 20
7.7246
 10
20.797
 20
7.7246
 10
20.659
 20
7.7246
 10
20.5895
 20
7.623
 10
20.5496
 20
7.4761
 10
20.5057
 20
7.3335
 10
20.4577
 20
7.1951
 10
20.4057
 20
7.0609
 10
20.3496
 20
6.931
 10
20.2895
 20
6.8054
 10
20.2254
 20
6.684
 10
20.1572
 20
6.5668
 10
20.085
 20
6.4539
 10
20.0087
 20
6.3453
 10
19.9284
 20
6.2409
 10
19.8441
 20
6.1407
 10
19.7557
 20
6.0448
 10
19.6632
 20
5.9532
 10
19.5668
 20
5.8658
 10
19.4659
 20
5.7824
 10
19.3595
 20
5.702
 10
19.25
 20
5.6268
 10
19.1376
 20
5.5569
 10
19.0222
 20
5.492
 10
18.9038
 20
5.4324
 10
18.7823
 20
5.378
 10
18.6579
 20
5.3287
 10
18.5305
 20
5.2847
 10
18.4001
 20
5.2458
 10
18.2667
 20
5.2121
 10
18.1304
 20
5.1836
 10
17.991
 20
5.1602
 10
17.8486
 20
5.1421
 10
17.7032
 20
5.1291
 10
17.5549
 20
5.1213
 10
17.4035
 20
5.1187
 10
17.2449
 20
5.1209
 10
17.0895
 20
5.1275
 10
16.9373
 20
5.1385
 10
16.7882
 20
5.1539
 10
16.6423
 20
5.1737
 10
16.4996
 20
5.1979
 10
16.3601
 20
5.2264
 10
16.2238
 20
5.2594
 10
16.0906
 20
5.2968
 10
15.9607
 20
5.3385
 10
15.8339
 20
5.3847
 10
15.7103
 20
5.4352
 10
15.5899
 20
5.4901
 10
15.4726
 20
5.5495
 10
15.3586
 20
5.6132
 10
15.2477
 20
5.6813
 10
15.14
 20
5.7539
 10
15.0355
 20
5.8308
 10
14.9341
 20
5.9121
 10
14.836
 20
5.9978
 10
14.741
 20
6.0879
 10
14.6492
 20
6.1824
 10
14.561
 20
6.2808
 10
14.4835
 20
6.3741
 10
14.4092
 20
6.4703
 10
14.3379
 20
6.5695
 10
14.2699
 20
6.6717
 10
14.2049
 20
6.7768
 10
14.1431
 20
6.8849
 10
14.0844
 20
6.996
 10
14.0289
 20
7.1101
 10
13.9765
 20
7.2271
 10
13.9272
 20
7.3471
 10
13.8811
 20
7.4701
 10
13.8381
 20
7.596
 10
13.7982
 20
7.7249
 10
13.7615
 20
7.8568
 10
13.7279
 20
7.9917
 10
13.6974
 20
8.1295
 10
13.6701
 20
8.2703
 10
13.6459
 20
8.414
 10
13.6249
 20
8.5608
 10
13.6069
 20
8.7105
 10
13.5922
 20
8.8632
 10
13.5805
 20
9.0188
 10
13.572
 20
9.1774
 10
13.5666
 20
9.339
 10
13.5644
 20
9.5036
 10
13.5643
 20
9.6477
 10
13.5643
 20
9.7858
 10
13.5643
 20
9.9238
 10
13.5643
 20
10.0618
 10
13.5643
 20
10.1999
 10
13.5643
 20
10.3379
 10
13.5643
 20
10.4759
 10
13.5643
 20
10.614
 10
13.5643
 20
10.752
 10
13.5643
 20
10.89
 10
13.5643
 20
11.0281
 10
13.5643
 20
11.1661
 10
13.5643
 20
11.3041
 10
13.5643
 20
11.4422
 10
13.5643
 20
11.5802
 10
13.5643
 20
11.7182
 10
13.5643
 20
11.8563
 10
13.5643
 20
11.9943
 10
13.5643
 20
12.1323
 10
13.5643
 20
12.2704
 10
13.5643
 20
12.4084
 10
13.5643
 20
12.5464
 10
13.5643
 20
12.6845
 10
13.5643
 20
12.8225
 10
13.5643
 20
12.9606
 10
13.5643
 20
13.0986
 10
13.5643
 20
13.2366
 10
13.5643
 20
13.3747
 10
13.5643
 20
13.5127
 10
13.5643
 20
13.6507
 10
13.5643
 20
13.7888
 10
13.5643
 20
13.9268
 10
13.5643
 20
14.0648
 10
13.5643
 20
14.2029
 10
13.5643
 20
14.3409
 10
13.5643
 20
14.4789
 10
13.5643
 20
14.617
 10
13.5643
 20
14.755
 10
13.5643
 20
14.893
 10
13.5643
 20
15.0311
 10
13.5643
 20
15.1691
 10
13.5643
 20
15.3071
 10
13.5643
 20
15.4452
 10
13.5643
 20
15.5832
 10
13.5643
 20
15.7212
 10
13.5643
 20
15.8593
 10
13.5643
 20
15.9973
 10
13.5643
 20
16.1353
 10
13.5643
 20
16.2734
 10
13.5643
 20
16.4114
 10
13.5643
 20
16.5494
 10
13.5643
 20
16.6875
 10
13.5643
 20
16.8255
 10
13.5643
 20
16.9635
 10
13.5643
 20
17.1016
 10
13.5643
 20
17.2396
 10
13.5643
 20
17.3776
 10
13.5643
 20
17.5157
 10
13.5643
 20
17.6537
 10
13.6734
 20
17.6827
 10
13.8114
 20
17.6827
 10
13.9495
 20
17.6827
 10
14.0875
 20
17.6827
 10
14.2255
 20
17.6827
 10
14.3636
 20
17.6827
 10
14.5016
 20
17.6827
 10
14.6396
 20
17.6827
 10
14.7777
 20
17.6827
 10
14.9157
 20
17.6827
 10
15.0537
 20
17.6827
 10
15.1918
 20
17.6827
 10
15.3298
 20
17.6827
 10
15.4678
 20
17.6827
 10
15.6059
 20
17.6827
 10
15.7439
 20
17.6827
 10
15.8819
 20
17.6827
 10
16.02
 20
17.6827
 10
16.158
 20
17.6827
 10
16.296
 20
17.6827
 10
16.4341
 20
17.6827
 10
16.4378
 20
17.5484
 10
16.4378
 20
17.4103
 10
16.4378
 20
17.2723
 10
16.4378
 20
17.1343
 10
16.4378
 20
16.9962
 10
16.4378
 20
16.8582
 10
16.4378
 20
16.7202
 10
16.4378
 20
16.5821
 10
16.4378
 20
16.4441
 10
16.4378
 20
16.3061
 10
16.4378
 20
16.168
 10
16.4378
 20
16.03
 10
16.4378
 20
15.892
 10
16.4378
 20
15.7539
 10
16.4378
 20
15.6159
 10
16.4378
 20
15.4779
 10
16.4378
 20
15.3398
 10
16.4378
 20
15.2018
 10
16.4378
 20
15.0638
 10
16.4378
 20
14.9257
 10
16.4378
 20
14.7877
 10
16.4378
 20
14.6497
 10
16.4378
 20
14.5116
 10
16.4378
 20
14.3736
 10
16.4378
 20
14.2356
 10
16.4378
 20
14.0975
 10
16.4378
 20
13.9595
 10
16.4378
 20
13.8214
 10
16.4378
 20
13.6834
 10
16.4378
 20
13.5454
 10
16.4378
 20
13.4073
 10
16.4378
 20
13.2693
 10
16.4378
 20
13.1313
 10
16.4378
 20
12.9932
 10
16.4378
 20
12.8552
 10
16.4378
 20
12.7172
 10
16.4378
 20
12.5791
 10
16.4378
 20
12.4411
 10
16.4378
 20
12.3031
 10
16.4378
 20
12.165
 10
16.4378
 20
12.027
 10
16.4378
 20
11.889
 10
16.4378
 20
11.7509
 10
16.4378
 20
11.6129
 10
16.4378
 20
11.4749
 10
16.4378
 20
11.3368
 10
16.4378
 20
11.1988
 10
16.4378
 20
11.0608
 10
16.4378
 20
10.9227
 10
16.4378
 20
10.7847
 10
16.4378
 20
10.6467
 10
16.4378
 20
10.5086
 10
16.4378
 20
10.3706
 10
16.4378
 20
10.2326
 10
16.4378
 20
10.0945
 10
16.4382
 20
9.9471
 10
16.4438
 20
9.7863
 10
16.456
 20
9.6313
 10
16.4747
 20
9.4823
 10
16.5
 20
9.3393
 10
16.5318
 20
9.2021
 10
16.5703
 20
9.0709
 10
16.6153
 20
8.9456
 10
16.6668
 20
8.8262
 10
16.725
 20
8.7128
 10
16.7897
 20
8.6053
 10
16.861
 20
8.5037
 10
16.9388
 20
8.408
 10
17.027
 20
8.3145
 10
17.1237
 20
8.2262
 10
17.2263
 20
8.146
 10
17.3347
 20
8.0741
 10
17.4489
 20
8.0104
 10
17.5688
 20
7.9549
 10
17.6946
 20
7.9076
 10
17.8262
 20
7.8686
 10
17.9636
 20
7.8377
 10
18.1068
 20
7.8151
 10
18.2559
 20
7.8007
 10
18.4107
 20
7.7946
 10
18.5683
 20
7.7964
 10
18.7212
 20
7.8057
 10
18.8688
 20
7.8223
 10
19.0112
 20
7.8464
 10
19.1485
 20
7.8779
 10
19.2806
 20
7.9169
 10
19.4074
 20
7.9632
 10
19.5291
 20
8.0169
 10
19.6456
 20
8.0781
 10
19.7569
 20
8.1467
 10
19.863
 20
8.2227
 10
19.9639
 20
8.3061
 10
20.0596
 20
8.3969
 10
20.1501
 20
8.4951
 10
20.2354
 20
8.6008
 10
20.3026
 20
8.6948
 10
20.3565
 20
8.7795
 10
20.4077
 20
8.8691
 10
20.4564
 20
8.9637
 10
20.5023
 20
9.0634
 10
20.5457
 20
9.168
 10
20.5864
 20
9.2776
 10
20.6246
 20
9.3922
 10
20.66
 20
9.5117
 10
20.6929
 20
9.6363
 10
20.7231
 20
9.7658
 10
20.7507
 20
9.9004
 10
20.7756
 20
10.0399
 10
20.7979
 20
10.1844
 10
20.8176
 20
10.3338
 10
20.8347
 20
10.4883
 10
20.8491
 20
10.6478
 10
20.8609
 20
10.8122
 10
20.8701
 20
10.9817
 10
20.8766
 20
11.1561
 10
20.8805
 20
11.3355
 10
20.8818
 20
11.477
 10
20.8818
 20
11.6933
 10
20.8818
 20
11.931
 10
20.8818
 20
12.1686
 10
20.8818
 20
12.4063
 10
20.8818
 20
12.644
 10
20.8818
 20
12.8816
 10
20.8818
 20
13.1193
 10
20.8818
 20
13.3569
 10
20.8818
 20
13.5946
 10
20.8818
 20
13.8322
 10
20.8818
 20
14.0699
 10
20.8818
 20
14.3075
 10
20.8818
 20
14.5452
 10
20.8818
 20
14.7829
 10
20.8818
 20
15.0205
 10
20.8818
 20
15.2582
 10
20.8818
 20
15.4958
 10
20.8818
 20
15.7335
 10
20.8818
 20
15.9711
 10
20.8818
 20
16.2088
 10
20.8818
 20
16.4465
 10
20.8818
 20
16.6841
 10
20.8818
 20
16.9218
 10
20.8818
 20
17.1594
 10
20.8818
 20
17.3971
 10
20.8818
 20
17.6347
 10
21.0715
 20
17.6827
 10
21.3092
 20
17.6827
 10
21.5468
 20
17.6827
 10
21.7845
 20
17.6827
 10
22.0222
 20
17.6827
 10
22.2598
 20
17.6827
 10
22.4975
 20
17.6827
 10
22.7351
 20
17.6827
 10
22.9728
 20
17.6827
 10
23.2104
 20
17.6827
 10
23.4481
 20
17.6827
 10
23.6857
 20
17.6827
 10
23.7553
 20
17.5146
 10
23.7553
 20
17.2769
 10
23.7553
 20
17.0393
 10
23.7553
 20
16.8016
 10
23.7553
 20
16.5639
 10
23.7553
 20
16.3263
 10
23.7553
 20
16.0886
 10
23.7553
 20
15.851
 10
23.7553
 20
15.6133
 10
23.7553
 20
15.3757
 10
23.7553
 20
15.138
 10
23.7553
 20
14.9003
 10
23.7553
 20
14.6627
 10
23.7553
 20
14.425
 10
23.7553
 20
14.1874
 10
23.7553
 20
13.9497
 10
23.7553
 20
13.7121
 10
23.7553
 20
13.4744
 10
23.7553
 20
13.2368
 10
23.7553
 20
12.9991
 10
23.7553
 20
12.7614
 10
23.7553
 20
12.5238
 10
23.7553
 20
12.2861
 10
23.7553
 20
12.0485
 10
23.7553
 20
11.8108
 10
23.7553
 20
11.5732
 10
23.7553
 20
11.3355
 10
23.7553
 20
11.0979
 10
23.7553
 20
10.8602
 10
23.7553
 20
10.6225
 10
23.7553
 20
10.3849
  0
LWPOLYLINE
  5
4D
330
17
100
AcDbEntity
  8
OUTLINE
100
AcDbPolyline
 90
672
 70
1
 10
32.0944
 20
5.1191
 10
31.9682
 20
5.1187
 10
31.8582
 20
5.1189
 10
31.7493
 20
5.1193
 10
31.6415
 20
5.12
 10
31.5348
 20
5.1209
 10
31.4293
 20
5.1221
 10
31.3248
 20
5.1236
 10
31.2215
 20
5.1253
 10
31.1193
 20
5.1274
 10
31.0181
 20
5.1297
 10
30.9181
 20
5.1322
 10
30.8193
 20
5.1351
 10
30.7215
 20
5.1382
 10
30.6248
 20
5.1415
 10
30.5293
 20
5.1452
 10
30.4348
 20
5.1491
 10
30.3415
 20
5.1532
 10
30.2493
 20
5.1577
 10
30.1582
 20
5.1624
 10
30.0682
 20
5.1674
 10
29.9794
 20
5.1727
 10
29.8916
 20
5.1782
 10
29.805
 20
5.184
 10
29.7194
 20
5.19
 10
29.635
 20
5.1964
 10
29.5517
 20
5.203
 10
29.4562
 20
5.211
 10
29.3506
 20
5.2203
 10
29.2462
 20
5.2301
 10
29.1429
 20
5.2404
 10
29.0408
 20
5.2511
 10
28.9398
 20
5.2623
 10
28.84
 20
5.2739
 10
28.7413
 20
5.286
 10
28.6437
 20
5.2985
 10
28.5474
 20
5.3115
 10
28.4521
 20
5.3249
 10
28.358
 20
5.3388
 10
28.2651
 20
5.3532
 10
28.1733
 20
5.368
 10
28.0827
 20
5.3832
 10
27.9932
 20
5.3989
 10
27.9049
 20
5.4151
 10
27.8177
 20
5.4317
 10
27.7316
 20
5.4488
 10
27.6468
 20
5.4663
 10
27.6518
 20
5.5565
 10
27.6638
 20
5.6522
 10
27.6758
 20
5.748
 10
27.6877
 20
5.8437
 10
27.6997
 20
5.9395
 10
27.7117
 20
6.0352
 10
27.7236
 20
6.131
 10
27.7356
 20
6.2267
 10
27.7476
 20
6.3225
 10
27.7595
 20
6.4182
 10
27.7715
 20
6.514
 10
27.7835
 20
6.6097
 10
27.7954
 20
6.7055
 10
27.8074
 20
6.8012
 10
27.8194
 20
6.897
 10
27.8313
 20
6.9927
 10
27.8433
 20
7.0885
 10
27.8553
 20
7.1842
 10
27.8673
 20
7.2799
 10
27.8792
 20
7.3757
 10
27.8912
 20
7.4714
 10
27.9032
 20
7.5672
 10
27.9151
 20
7.6629
 10
27.9271
 20
7.7587
 10
27.9391
 20
7.8544
 10
27.951
 20
7.9502
 10
27.963
 20
8.0459
 10
27.975
 20
8.1417
 10
28.0601
 20
8.1555
 10
28.1701
 20
8.1406
 10
28.2787
 20
8.1261
 10
28.3861
 20
8.1118
 10
28.4922
 20
8.0979
 10
28.5969
 20
8.0843
 10
28.7004
 20
8.071
 10
28.8026
 20
8.058
 10
28.9036
 20
8.0453
 10
29.0032
 20
8.0329
 10
29.1015
 20
8.0209
 10
29.1986
 20
8.0092
 10
29.2943
 20
7.9977
 10
29.3888
 20
7.9866
 10
29.482
 20
7.9758
 10
29.5739
 20
7.9653
 10
29.6645
 20
7.9551
 10
29.7538
 20
7.9453
 10
29.8418
 20
7.9357
 10
29.9286
 20
7.9265
 10
30.014
 20
7.9176
 10
30.0982
 20
7.909
 10
30.181
 20
7.9007
 10
30.2626
 20
7.8927
 10
30.3542
 20
7.884
 10
30.4664
 20
7.8736
 10
30.5766
 20
7.8639
 10
30.6847
 20
7.8548
 10
30.7908
 20
7.8464
 10
30.8948
 20
7.8386
 10
30.9968
 20
7.8314
 10
31.0967
 20
7.8249
 10
31.1945
 20
7.819
 10
31.2903
 20
7.8137
 10
31.384
 20
7.809
 10
31.4757
 20
7.805
 10
31.5653
 20
7.8017
 10
31.6528
 20
7.7989
 10
31.7383
 20
7.7968
 10
31.8217
 20
7.7954
 10
31.9031
 20
7.7945
 10
31.9919
 20
7.7943
 10
32.1218
 20
7.7949
 10
32.2489
 20
7.7963
 10
32.3732
 20
7.7986
 10
32.4946
 20
7.8017
 10
32.6132
 20
7.8056
 10
32.729
 20
7.8104
 10
32.842
 20
7.816
 10
32.9521
 20
7.8225
 10
33.0594
 20
7.8298
 10
33.164
 20
7.8379
 10
33.2656
 20
7.8469
 10
33.3645
 20
7.8567
 10
33.4606
 20
7.8674
 10
33.5538
 20
7.8789
 10
33.6442
 20
7.8912
 10
33.7318
 20
7.9044
 10
33.8165
 20
7.9185
 10
33.8985
 20
7.9333
 10
33.9776
 20
7.9491
 10
34.0539
 20
7.9656
 10
34.1274
 20
7.983
 10
34.1981
 20
8.0012
 10
34.2659
 20
8.0203
 10
34.3309
 20
8.0402
 10
34.3931
 20
8.061
 10
34.4757
 20
8.0915
 10
34.5849
 20
8.138
 10
34.6851
 20
8.1884
 10
34.7762
 20
8.2427
 10
34.8583
 20
8.3008
 10
34.9314
 20
8.3627
 10
34.9954
 20
8.4286
 10
35.0503
 20
8.4983
 10
35.0962
 20
8.5718
 10
35.1331
 20
8.6493
 10
35.1609
 20
8.7306
 10
35.1797
 20
8.8157
 10
35.1894
 20
8.9047
 10
35.19
 20
9.0053
 10
35.181
 20
9.1119
 10
35.1624
 20
9.2108
 10
35.134
 20
9.3021
 10
35.0959
 20
9.3857
 10
35.0482
 20
9.4617
 10
34.9908
 20
9.5301
 10
34.9314
 20
9.585
 10
34.8679
 20
9.6337
 10
34.7965
 20
9.68
 10
34.7174
 20
9.7238
 10
34.6304
 20
9.7651
 10
34.5357
 20
9.8039
 10
34.4332
 20
9.8403
 10
34.323
 20
9.8741
 10
34.2199
 20
9.9028
 10
34.1269
 20
9.9287
 10
34.034
 20
9.9546
 10
33.941
 20
9.9805
 10
33.8481
 20
10.0064
 10
33.7551
 20
10.0323
 10
33.6622
 20
10.0582
 10
33.5692
 20
10.0841
 10
33.4763
 20
10.11
 10
33.3833
 20
10.1359
 10
33.2904
 20
10.1619
 10
33.1974
 20
10.1878
 10
33.1045
 20
10.2137
 10
33.0115
 20
10.2396
 10
32.9186
 20
10.2655
 10
32.8256
 20
10.2914
 10
32.7327
 20
10.3173
 10
32.6397
 20
10.3432
 10
32.5468
 20
10.3691
 10
32.4538
 20
10.395
 10
32.3609
 20
10.4209
 10
32.2679
 20
10.4468
 10
32.175
 20
10.4727
 10
32.082
 20
10.4987
 10
31.9891
 20
10.5246
 10
31.8961
 20
10.5505
 10
31.8032
 20
10.5764
 10
31.7102
 20
10.6023
 10
31.6173
 20
10.6282
 10
31.5243
 20
10.6541
 10
31.4314
 20
10.68
 10
31.3384
 20
10.7059
 10
31.2455
 20
10.7318
 10
31.1525
 20
10.7577
 10
31.0596
 20
10.7836
 10
30.9666
 20
10.8095
 10
30.8737
 20
10.8355
 10
30.7807
 20
10.8614
 10
30.6798
 20
10.8896
 10
30.5677
 20
10.9221
 10
30.4579
 20
10.9555
 10
30.3503
 20
10.9899
 10
30.2451
 20
11.0252
 10
30.1421
 20
11.0615
 10
30.0413
 20
11.0986
 10
29.9429
 20
11.1368
 10
29.8467
 20
11.1758
 10
29.7528
 20
11.2158
 10
29.6612
 20
11.2567
 10
29.5719
 20
11.2986
 10
29.4848
 20
11.3413
 10
29.4
 20
11.3851
 10
29.3175
 20
11.4297
 10
29.2372
 20
11.4753
 10
29.1592
 20
11.5218
 10
29.0835
 20
11.5693
 10
29.0101
 20
11.6176
 10
28.9389
 20
11.667
 10
28.87
 20
11.7172
 10
28.8034
 20
11.7684
 10
28.7391
 20
11.8205
 10
28.677
 20
11.8736
 10
28.6172
 20
11.9275
 10
28.5597
 20
11.9825
 10
28.4997
 20
12.0435
 10
28.4402
 20
12.109
 10
28.3834
 20
12.1767
 10
28.3295
 20
12.2467
 10
28.2782
 20
12.319
 10
28.2298
 20
12.3935
 10
28.184
 20
12.4703
 10
28.1411
 20
12.5493
 10
28.1009
 20
12.6306
 10
28.0634
 20
12.7141
 10
28.0287
 20
12.8
 10
27.9967
 20
12.888
 10
27.9675
 20
12.9784
 10
27.9411
 20
13.0709
 10
27.9174
 20
13.1658
 10
27.8964
 20
13.2629
 10
27.8782
 20
13.3623
 10
27.8628
 20
13.4639
 10
27.8501
 20
13.5678
 10
27.8402
 20
13.6739
 10
27.833
 20
13.7823
 10
27.8286
 20
13.893
 10
27.8269
 20
14.0059
 10
27.8279
 20
14.1149
 10
27.8312
 20
14.2217
 10
27.837
 20
14.327
 10
27.8451
 20
14.4307
 10
27.8557
 20
14.5329
 10
27.8687
 20
14.6334
 10
27.8841
 20
14.7325
 10
27.9019
 20
14.8299
 10
27.9221
 20
14.9258
 10
27.9447
 20
15.0202
 10
27.9698
 20
15.1129
 10
27.9972
 20
15.2042
 10
28.027
 20
15.2938
 10
28.0593
 20
15.3819
 10
28.094
 20
15.4684
 10
28.131
 20
15.5534
 10
28.1705
 20
15.6368
 10
28.2124
 20
15.7186
 10
28.2567
 20
15.7989
 10
28.3034
 20
15.8776
 10
28.3525
 20
15.9548
 10
28.404
 20
16.0303
 10
28.4579
 20
16.1044
 10
28.5143
 20
16.1768
 10
28.573
 20
16.2477
 10
28.6342
 20
16.3171
 10
28.6977
 20
16.3848
 10
28.7637
 20
16.451
 10
28.8321
 20
16.5157
 10
28.9029
 20
16.5788
 10
28.976
 20
16.6403
 10
29.0516
 20
16.7003
 10
29.1296
 20
16.7586
 10
29.2101
 20
16.8155
 10
29.2929
 20
16.8708
 10
29.3781
 20
16.9245
 10
29.4606
 20
16.9736
 10
29.5218
 20
17.0084
 10
29.5841
 20
17.0425
 10
29.6477
 20
17.076
 10
29.7126
 20
17.1088
 10
29.7787
 20
17.1409
 10
29.846
 20
17.1724
 10
29.9146
 20
17.2032
 10
29.9844
 20
17.2334
 10
30.0555
 20
17.2629
 10
30.1279
 20
17.2918
 10
30.2014
 20
17.32
 10
30.2763
 20
17.3476
 10
30.3523
 20
17.3745
 10
30.4297
 20
17.4008
 10
30.5082
 20
17.4264
 10
30.588
 20
17.4513
 10
30.6691
 20
17.4756
 10
30.7514
 20
17.4993
 10
30.835
 20
17.5223
 10
30.9198
 20
17.5446
 10
31.0058
 20
17.5663
 10
31.0931
 20
17.5873
 10
31.1817
 20
17.6077
 10
31.2715
 20
17.6274
 10
31.3625
 20
17.6465
 10
31.4548
 20
17.6649
 10
31.5483
 20
17.6827
 10
31.6431
 20
17.6998
 10
31.7391
 20
17.7163
 10
31.8364
 20
17.7321
 10
31.9349
 20
17.7472
 10
32.0347
 20
17.7617
 10
32.1357
 20
17.7756
 10
32.238
 20
17.7888
 10
32.3415
 20
17.8013
 10
32.4463
 20
17.8132
 10
32.5523
 20
17.8244
 10
32.6595
 20
17.835
 10
32.768
 20
17.8449
 10
32.8778
 20
17.8542
 10
32.9888
 20
17.8628
 10
33.101
 20
17.8707
 10
33.2145
 20
17.878
 10
33.3292
 20
17.8847
 10
33.4452
 20
17.8907
 10
33.5625
 20
17.896
 10
33.6809
 20
17.9007
 10
33.8007
 20
17.9048
 10
33.9216
 20
17.9082
 10
34.0439
 20
17.9109
 10
34.1673
 20
17.913
 10
34.292
 20
17.9144
 10
34.418
 20
17.9152
 10
34.5355
 20
17.9153
 10
34.6329
 20
17.915
 10
34.7301
 20
17.9143
 10
34.8272
 20
17.9131
 10
34.9242
 20
17.9116
 10
35.021
 20
17.9097
 10
35.1178
 20
17.9075
 10
35.2144
 20
17.9048
 10
35.3109
 20
17.9017
 10
35.4073
 20
17.8982
 10
35.5036
 20
17.8943
 10
35.5997
 20
17.8901
 10
35.6958
 20
17.8854
 10
35.7917
 20
17.8804
 10
35.8875
 20
17.8749
 10
35.9831
 20
17.8691
 10
36.0787
 20
17.8629
 10
36.1737
 20
17.8563
 10
36.2657
 20
17.8496
 10
36.3582
 20
17.8425
 10
36.4512
 20
17.835
 10
36.5447
 20
17.8272
 10
36.6386
 20
17.819
 10
36.733
 20
17.8105
 10
36.8279
 20
17.8016
 10
36.9233
 20
17.7923
 10
37.0191
 20
17.7827
 10
37.1154
 20
17.7727
 10
37.2122
 20
17.7623
 10
37.3094
 20
17.7516
 10
37.4072
 20
17.7404
 10
37.5054
 20
17.729
 10
37.6041
 20
17.7171
 10
37.7032
 20
17.7049
 10
37.8029
 20
17.6924
 10
37.8754
 20
17.659
 10
37.8643
 20
17.5631
 10
37.8532
 20
17.4673
 10
37.842
 20
17.3714
 10
37.8309
 20
17.2756
 10
37.8198
 20
17.1797
 10
37.8086
 20
17.0839
 10
37.7975
 20
16.988
 10
37.7864
 20
16.8922
 10
37.7752
 20
16.7963
 10
37.7641
 20
16.7005
 10
37.753
 20
16.6046
 10
37.7419
 20
16.5088
 10
37.7307
 20
16.4129
 10
37.7196
 20
16.3171
 10
37.7085
 20
16.2212
 10
37.6973
 20
16.1254
 10
37.6862
 20
16.0295
 10
37.6751
 20
15.9337
 10
37.6639
 20
15.8378
 10
37.6528
 20
15.742
 10
37.6417
 20
15.6461
 10
37.6305
 20
15.5503
 10
37.6194
 20
15.4544
 10
37.6083
 20
15.3586
 10
37.5971
 20
15.2627
 10
37.586
 20
15.1669
 10
37.5689
 20
15.0774
 10
37.46
 20
15.0873
 10
37.3524
 20
15.0969
 10
37.2464
 20
15.1061
 10
37.1418
 20
15.115
 10
37.0387
 20
15.1236
 10
36.9371
 20
15.1318
 10
36.837
 20
15.1396
 10
36.7383
 20
15.1471
 10
36.6411
 20
15.1543
 10
36.5453
 20
15.1611
 10
36.4511
 20
15.1676
 10
36.3583
 20
15.1737
 10
36.267
 20
15.1795
 10
36.1772
 20
15.185
 10
36.0888
 20
15.1901
 10
36.0019
 20
15.1948
 10
35.9165
 20
15.1993
 10
35.8325
 20
15.2033
 10
35.7345
 20
15.2078
 10
35.6287
 20
15.2123
 10
35.5245
 20
15.2165
 10
35.4218
 20
15.2204
 10
35.3207
 20
15.2239
 10
35.2212
 20
15.227
 10
35.1233
 20
15.2298
 10
35.0269
 20
15.2323
 10
34.932
 20
15.2344
 10
34.8388
 20
15.2362
 10
34.7471
 20
15.2376
 10
34.657
 20
15.2386
 10
34.5684
 20
15.2393
 10
34.4814
 20
15.2397
 10
34.3749
 20
15.2397
 10
34.2454
 20
15.2391
 10
34.1183
 20
15.2378
 10
33.9937
 20
15.236
 10
33.8716
 20
15.2335
 10
33.752
 20
15.2303
 10
33.6348
 20
15.2266
 10
33.5202
 20
15.2222
 10
33.408
 20
15.2172
 10
33.2984
 20
15.2115
 10
33.1912
 20
15.2052
 10
33.0865
 20
15.1983
 10
32.9843
 20
15.1907
 10
32.8846
 20
15.1825
 10
32.7873
 20
15.1737
 10
32.6926
 20
15.1642
 10
32.6003
 20
15.1542
 10
32.5106
 20
15.1434
 10
32.4233
 20
15.1321
 10
32.3385
 20
15.1201
 10
32.2562
 20
15.1075
 10
32.1764
 20
15.0942
 10
32.099
 20
15.0804
 10
32.0242
 20
15.0658
 10
31.9518
 20
15.0507
 10
31.882
 20
15.0349
 10
31.8146
 20
15.0185
 10
31.7497
 20
15.0015
 10
31.6873
 20
14.9838
 10
31.6037
 20
14.9579
 10
31.4846
 20
14.9157
 10
31.3748
 20
14.87
 10
31.2743
 20
14.8207
 10
31.1831
 20
14.768
 10
31.1013
 20
14.7118
 10
31.0288
 20
14.6521
 10
30.9656
 20
14.5889
 10
30.9117
 20
14.5221
 10
30.8671
 20
14.4519
 10
30.8319
 20
14.3782
 10
30.8059
 20
14.3009
 10
30.7893
 20
14.2202
 10
30.782
 20
14.136
 10
30.7844
 20
14.0311
 10
30.7977
 20
13.9265
 10
30.8218
 20
13.8309
 10
30.8568
 20
13.7441
 10
30.9028
 20
13.6663
 10
30.9596
 20
13.5974
 10
31.0273
 20
13.5374
 10
31.0897
 20
13.4941
 10
31.1567
 20
13.454
 10
31.2307
 20
13.4149
 10
31.3117
 20
13.3771
 10
31.3998
 20
13.3405
 10
31.4949
 20
13.305
 10
31.597
 20
13.2707
 10
31.7062
 20
13.2376
 10
31.8224
 20
13.2056
 10
31.917
 20
13.1802
 10
32.0102
 20
13.1551
 10
32.1033
 20
13.13
 10
32.1965
 20
13.1048
 10
32.2897
 20
13.0797
 10
32.3828
 20
13.0546
 10
32.476
 20
13.0295
 10
32.5692
 20
13.0044
 10
32.6623
 20
12.9793
 10
32.7555
 20
12.9542
 10
32.8487
 20
12.929
 10
32.9418
 20
12.9039
 10
33.035
 20
12.8788
 10
33.1282
 20
12.8537
 10
33.2213
 20
12.8286
 10
33.3145
 20
12.8035
 10
33.4077
 20
12.7784
 10
33.5008
 20
12.7532
 10
33.594
 20
12.7281
 10
33.6872
 20
12.703
 10
33.7803
 20
12.6779
 10
33.8735
 20
12.6528
 10
33.9667
 20
12.6277
 10
34.0598
 20
12.6026
 10
34.153
 20
12.5774
 10
34.2462
 20
12.5523
 10
34.3394
 20
12.5272
 10
34.4325
 20
12.5021
 10
34.5257
 20
12.477
 10
34.6189
 20
12.4519
 10
34.712
 20
12.4268
 10
34.8052
 20
12.4016
 10
34.9199
 20
12.3717
 10
35.033
 20
12.3409
 10
35.144
 20
12.3093
 10
35.2531
 20
12.2769
 10
35.3601
 20
12.2437
 10
35.465
 20
12.2096
 10
35.568
 20
12.1748
 10
35.669
 20
12.1391
 10
35.7679
 20
12.1027
 10
35.8648
 20
12.0654
 10
35.9597
 20
12.0273
 10
36.0525
 20
11.9884
 10
36.1434
 20
11.9487
 10
36.2322
 20
11.9082
 10
36.319
 20
11.8669
 10
36.4037
 20
11.8248
 10
36.4865
 20
11.7819
 10
36.5672
 20
11.7381
 10
36.6459
 20
11.6936
 10
36.7226
 20
11.6482
 10
36.7973
 20
11.6021
 10
36.8699
 20
11.5551
 10
36.9406
 20
11.5073
 10
37.0092
 20
11.4587
 10
37.0758
 20
11.4093
 10
37.1403
 20
11.3591
 10
37.2029
 20
11.3081
 10
37.2634
 20
11.2563
 10
37.3219
 20
11.2037
 10
37.3796
 20
11.149
 10
37.4447
 20
11.0835
 10
37.507
 20
11.0161
 10
37.5667
 20
10.9469
 10
37.6237
 20
10.8758
 10
37.6781
 20
10.8028
 10
37.7298
 20
10.728
 10
37.7788
 20
10.6513
 10
37.8251
 20
10.5727
 10
37.8687
 20
10.4923
 10
37.9097
 20
10.41
 10
37.948
 20
10.3258
 10
37.9837
 20
10.2397
 10
38.0166
 20
10.1518
 10
38.0469
 20
10.062
 10
38.0746
 20
9.9704
 10
38.0995
 20
9.8769
 10
38.1218
 20
9.7815
 10
38.1414
 20
9.6842
 10
38.1583
 20
9.5851
 10
38.1726
 20
9.4841
 10
38.1842
 20
9.3812
 10
38.1931
 20
9.2765
 10
38.1993
 20
9.1699
 10
38.2029
 20
9.0614
 10
38.2038
 20
8.9512
 10
38.2022
 20
8.8416
 10
38.1982
 20
8.7336
 10
38.1919
 20
8.6273
 10
38.1832
 20
8.5226
 10
38.1721
 20
8.4195
 10
38.1586
 20
8.3181
 10
38.1428
 20
8.2182
 10
38.1246
 20
8.1201
 10
38.104
 20
8.0235
 10
38.081
 20
7.9286
 10
38.0557
 20
7.8353
 10
38.0279
 20
7.7436
 10
37.9978
 20
7.6536
 10
37.9653
 20
7.5652
 10
37.9305
 20
7.4784
 10
37.8932
 20
7.3933
 10
37.8536
 20
7.3098
 10
37.8116
 20
7.2279
 10
37.7673
 20
7.1477
 10
37.7205
 20
7.0691
 10
37.6714
 20
6.9921
 10
37.6199
 20
6.9167
 10
37.566
 20
6.843
 10
37.5097
 20
6.7709
 10
37.4511
 20
6.7005
 10
37.3901
 20
6.6316
 10
37.3267
 20
6.5645
 10
37.261
 20
6.4989
 10
37.1928
 20
6.435
 10
37.1223
 20
6.3727
 10
37.0494
 20
6.312
 10
36.9741
 20
6.2529
 10
36.8965
 20
6.1955
 10
36.8164
 20
6.1398
 10
36.734
 20
6.0856
 10
36.6599
 20
6.0395
 10
36.5985
 20
6.0031
 10
36.5357
 20
5.9673
 10
36.4716
 20
5.9323
 10
36.4062
 20
5.8981
 10
36.3395
 20
5.8646
 10
36.2715
 20
5.8318
 10
36.2021
 20
5.7997
 10
36.1314
 20
5.7684
 10
36.0594
 20
5.7379
 10
35.986
 20
5.708
 10
35.9114
 20
5.6789
 10
35.8354
 20
5.6506
 10
35.7581
 20
5.623
 10
35.6795
 20
5.5961
 10
35.5995
 20
5.5699
 10
35.5183
 20
5.5445
 10
35.4357
 20
5.5198
 10
35.3517
 20
5.4959
 10
35.2665
 20
5.4727
 10
35.1799
 20
5.4502
 10
35.0921
 20
5.4285
 10
35.0029
 20
5.4075
 10
34.9123
 20
5.3872
 10
34.8205
 20
5.3677
 10
34.7273
 20
5.3489
 10
34.6328
 20
5.3309
 10
34.537
 20
5.3136
 10
34.4399
 20
5.297
 10
34.3414
 20
5.2812
 10
34.2416
 20
5.2661
 10
34.1405
 20
5.2517
 10
34.0381
 20
5.2381
 10
33.9343
 20
5.2252
 10
33.8292
 20
5.213
 10
33.7228
 20
5.2016
 10
33.6151
 20
5.1909
 10
33.5061
 20
5.181
 10
33.3957
 20
5.1718
 10
33.284
 20
5.1633
 10
33.171
 20
5.1556
 10
33.0567
 20
5.1486
 10
32.941
 20
5.1423
 10
32.8241
 20
5.1368
 10
32.7058
 20
5.132
 10
32.5861
 20
5.128
 10
32.4652
 20
5.1246
 10
32.3429
 20
5.1221
 10
32.2193
 20
5.1202
  0
LWPOLYLINE
  5
4E
330
17
100
AcDbEntity
  8
OUTLINE
100
AcDbPolyline
 90
192
 70
1
 10
61.071
 20
5.122
 10
60.8423
 20
5.1187
 10
60.6142
 20
5.122
 10
60.3907
 20
5.1317
 10
60.1718
 20
5.1479
 10
59.9573
 20
5.1706
 10
59.7474
 20
5.1998
 10
59.542
 20
5.2354
 10
59.3411
 20
5.2776
 10
59.1447
 20
5.3262
 10
58.9529
 20
5.3813
 10
58.7656
 20
5.4429
 10
58.5828
 20
5.511
 10
58.4046
 20
5.5855
 10
58.2309
 20
5.6665
 10
58.0617
 20
5.7541
 10
57.897
 20
5.8481
 10
57.7368
 20
5.9485
 10
57.5812
 20
6.0555
 10
57.4301
 20
6.169
 10
57.2835
 20
6.2889
 10
57.1415
 20
6.4153
 10
57.0039
 20
6.5482
 10
56.8709
 20
6.6876
 10
56.7458
 20
6.8294
 10
56.6346
 20
6.9654
 10
56.5279
 20
7.1057
 10
56.4258
 20
7.2503
 10
56.3281
 20
7.3992
 10
56.2351
 20
7.5525
 10
56.1466
 20
7.71
 10
56.0626
 20
7.8718
 10
55.9831
 20
8.0379
 10
55.9082
 20
8.2084
 10
55.8379
 20
8.3831
 10
55.7721
 20
8.5622
 10
55.7108
 20
8.7455
 10
55.6541
 20
8.9332
 10
55.6019
 20
9.1252
 10
55.5543
 20
9.3214
 10
55.5112
 20
9.522
 10
55.4727
 20
9.7269
 10
55.4387
 20
9.9361
 10
55.4092
 20
10.1496
 10
55.3843
 20
10.3674
 10
55.3639
 20
10.5895
 10
55.3481
 20
10.816
 10
55.3368
 20
11.0467
 10
55.3301
 20
11.2817
 10
55.3279
 20
11.5211
 10
55.3302
 20
11.7609
 10
55.3371
 20
11.9963
 10
55.3485
 20
12.2275
 10
55.3645
 20
12.4542
 10
55.3849
 20
12.6766
 10
55.4099
 20
12.8947
 10
55.4395
 20
13.1084
 10
55.4735
 20
13.3177
 10
55.5121
 20
13.5227
 10
55.5553
 20
13.7234
 10
55.6029
 20
13.9197
 10
55.6551
 20
14.1116
 10
55.7119
 20
14.2992
 10
55.7731
 20
14.4825
 10
55.8389
 20
14.6614
 10
55.9093
 20
14.8359
 10
55.9841
 20
15.0061
 10
56.0635
 20
15.1719
 10
56.1474
 20
15.3334
 10
56.2359
 20
15.4906
 10
56.3289
 20
15.6434
 10
56.4264
 20
15.7918
 10
56.5285
 20
15.9359
 10
56.6351
 20
16.0756
 10
56.7462
 20
16.211
 10
56.8713
 20
16.3524
 10
57.0045
 20
16.4914
 10
57.1421
 20
16.6239
 10
57.2843
 20
16.7499
 10
57.431
 20
16.8695
 10
57.5822
 20
16.9826
 10
57.738
 20
17.0892
 10
57.8982
 20
17.1893
 10
58.0631
 20
17.283
 10
58.2324
 20
17.3702
 10
58.4063
 20
17.451
 10
58.5847
 20
17.5252
 10
58.7677
 20
17.593
 10
58.9552
 20
17.6544
 10
59.1472
 20
17.7092
 10
59.3437
 20
17.7576
 10
59.5448
 20
17.7996
 10
59.7504
 20
17.835
 10
59.9605
 20
17.864
 10
60.1752
 20
17.8866
 10
60.3944
 20
17.9026
 10
60.6181
 20
17.9122
 10
60.8464
 20
17.9153
 10
61.0751
 20
17.912
 10
61.2993
 20
17.9022
 10
61.5189
 20
17.8859
 10
61.7339
 20
17.8632
 10
61.9444
 20
17.8341
 10
62.1502
 20
17.7985
 10
62.3515
 20
17.7565
 10
62.5481
 20
17.708
 10
62.7402
 20
17.653
 10
62.9277
 20
17.5916
 10
63.1106
 20
17.5237
 10
63.2889
 20
17.4494
 10
63.4627
 20
17.3687
 10
63.6318
 20
17.2815
 10
63.7964
 20
17.1878
 10
63.9564
 20
17.0877
 10
64.1118
 20
16.9811
 10
64.2626
 20
16.8681
 10
64.4088
 20
16.7486
 10
64.5505
 20
16.6227
 10
64.6875
 20
16.4903
 10
64.82
 20
16.3515
 10
64.9444
 20
16.2103
 10
65.0551
 20
16.0748
 10
65.1613
 20
15.935
 10
65.263
 20
15.7908
 10
65.3601
 20
15.6422
 10
65.4528
 20
15.4893
 10
65.5409
 20
15.3321
 10
65.6244
 20
15.1705
 10
65.7035
 20
15.0045
 10
65.7781
 20
14.8342
 10
65.8481
 20
14.6595
 10
65.9136
 20
14.4805
 10
65.9746
 20
14.2971
 10
66.0311
 20
14.1094
 10
66.083
 20
13.9173
 10
66.1305
 20
13.7208
 10
66.1734
 20
13.52
 10
66.2118
 20
13.3149
 10
66.2457
 20
13.1053
 10
66.275
 20
12.8915
 10
66.2999
 20
12.6733
 10
66.3202
 20
12.4507
 10
66.336
 20
12.2237
 10
66.3473
 20
11.9924
 10
66.3541
 20
11.7568
 10
66.3563
 20
11.5168
 10
66.3541
 20
11.2774
 10
66.3473
 20
11.0423
 10
66.336
 20
10.8116
 10
66.3201
 20
10.5851
 10
66.2997
 20
10.363
 10
66.2748
 20
10.1452
 10
66.2453
 20
9.9317
 10
66.2114
 20
9.7224
 10
66.1729
 20
9.5176
 10
66.1298
 20
9.317
 10
66.0823
 20
9.1207
 10
66.0302
 20
8.9287
 10
65.9735
 20
8.7411
 10
65.9124
 20
8.5577
 10
65.8467
 20
8.3787
 10
65.7765
 20
8.204
 10
65.7018
 20
8.0336
 10
65.6225
 20
7.8675
 10
65.5387
 20
7.7057
 10
65.4504
 20
7.5482
 10
65.3575
 20
7.395
 10
65.2601
 20
7.2462
 10
65.1582
 20
7.1016
 10
65.0518
 20
6.9614
 10
64.9408
 20
6.8255
 10
64.8158
 20
6.6835
 10
64.6833
 20
6.5444
 10
64.5461
 20
6.4119
 10
64.4045
 20
6.2858
 10
64.2582
 20
6.1662
 10
64.1074
 20
6.053
 10
63.9519
 20
5.9464
 10
63.7919
 20
5.8461
 10
63.6273
 20
5.7524
 10
63.4582
 20
5.6651
 10
63.2844
 20
5.5843
 10
63.1061
 20
5.5099
 10
62.9232
 20
5.442
 10
62.7357
 20
5.3806
 10
62.5437
 20
5.3256
 10
62.347
 20
5.2772
 10
62.1458
 20
5.2351
 10
61.94
 20
5.1996
 10
61.7296
 20
5.1705
 10
61.5146
 20
5.1478
 10
61.2951
 20
5.1317
  0
LWPOLYLINE
  5
4F
330
17
100
AcDbEntity
  8
OUTLINE
100
AcDbPolyline
 90
192
 70
1
 10
60.7267
 20
7.7965
 10
60.8423
 20
7.7943
 10
60.9586
 20
7.7965
 10
61.0723
 20
7.8032
 10
61.1835
 20
7.8142
 10
61.292
 20
7.8297
 10
61.398
 20
7.8496
 10
61.5013
 20
7.8739
 10
61.6021
 20
7.9026
 10
61.7003
 20
7.9358
 10
61.7958
 20
7.9733
 10
61.8888
 20
8.0153
 10
61.9792
 20
8.0617
 10
62.067
 20
8.1126
 10
62.1522
 20
8.1678
 10
62.2348
 20
8.2275
 10
62.3148
 20
8.2916
 10
62.3923
 20
8.3601
 10
62.4671
 20
8.4331
 10
62.5393
 20
8.5104
 10
62.609
 20
8.5922
 10
62.676
 20
8.6784
 10
62.74
 20
8.7683
 10
62.7881
 20
8.8413
 10
62.8343
 20
8.9165
 10
62.8788
 20
8.9939
 10
62.9214
 20
9.0735
 10
62.9622
 20
9.1554
 10
63.0012
 20
9.2394
 10
63.0384
 20
9.3257
 10
63.0738
 20
9.4141
 10
63.1074
 20
9.5048
 10
63.1391
 20
9.5977
 10
63.1691
 20
9.6928
 10
63.1972
 20
9.7901
 10
63.2235
 20
9.8896
 10
63.248
 20
9.9913
 10
63.2707
 20
10.0952
 10
63.2916
 20
10.2014
 10
63.3107
 20
10.3097
 10
63.3279
 20
10.4203
 10
63.3434
 20
10.5331
 10
63.357
 20
10.648
 10
63.3688
 20
10.7652
 10
63.3788
 20
10.8846
 10
63.387
 20
11.0063
 10
63.3934
 20
11.1301
 10
63.3979
 20
11.2561
 10
63.4007
 20
11.3844
 10
63.4016
 20
11.5148
 10
63.4008
 20
11.6458
 10
63.3981
 20
11.7746
 10
63.3935
 20
11.9011
 10
63.3872
 20
12.0254
 10
63.3791
 20
12.1474
 10
63.3691
 20
12.2672
 10
63.3573
 20
12.3847
 10
63.3437
 20
12.5
 10
63.3283
 20
12.6131
 10
63.311
 20
12.7239
 10
63.292
 20
12.8324
 10
63.2711
 20
12.9387
 10
63.2484
 20
13.0428
 10
63.2239
 20
13.1446
 10
63.1976
 20
13.2442
 10
63.1694
 20
13.3415
 10
63.1394
 20
13.4366
 10
63.1077
 20
13.5294
 10
63.0741
 20
13.62
 10
63.0386
 20
13.7084
 10
63.0014
 20
13.7944
 10
62.9623
 20
13.8783
 10
62.9215
 20
13.9599
 10
62.8788
 20
14.0393
 10
62.8343
 20
14.1164
 10
62.7879
 20
14.1912
 10
62.7398
 20
14.2639
 10
62.6769
 20
14.3517
 10
62.6093
 20
14.4382
 10
62.5392
 20
14.5203
 10
62.4666
 20
14.5979
 10
62.3915
 20
14.6711
 10
62.3138
 20
14.7399
 10
62.2336
 20
14.8043
 10
62.1508
 20
14.8642
 10
62.0656
 20
14.9197
 10
61.9777
 20
14.9707
 10
61.8874
 20
15.0173
 10
61.7945
 20
15.0595
 10
61.6991
 20
15.0973
 10
61.6011
 20
15.1306
 10
61.5006
 20
15.1595
 10
61.3976
 20
15.1839
 10
61.2921
 20
15.204
 10
61.184
 20
15.2196
 10
61.0734
 20
15.2307
 10
60.9602
 20
15.2375
 10
60.8445
 20
15.2398
 10
60.7287
 20
15.2376
 10
60.6154
 20
15.2311
 10
60.5047
 20
15.2201
 10
60.3965
 20
15.2046
 10
60.2908
 20
15.1848
 10
60.1877
 20
15.1605
 10
60.0871
 20
15.1318
 10
59.9891
 20
15.0986
 10
59.8935
 20
15.061
 10
59.8005
 20
15.019
 10
59.7101
 20
14.9726
 10
59.6222
 20
14.9217
 10
59.5368
 20
14.8664
 10
59.454
 20
14.8067
 10
59.3737
 20
14.7425
 10
59.2959
 20
14.6739
 10
59.2207
 20
14.6009
 10
59.148
 20
14.5234
 10
59.0778
 20
14.4415
 10
59.0102
 20
14.3552
 10
58.9467
 20
14.2667
 10
58.8984
 20
14.1941
 10
58.852
 20
14.1193
 10
58.8075
 20
14.0423
 10
58.7647
 20
13.963
 10
58.7237
 20
13.8815
 10
58.6846
 20
13.7978
 10
58.6473
 20
13.7117
 10
58.6118
 20
13.6235
 10
58.5781
 20
13.533
 10
58.5463
 20
13.4402
 10
58.5162
 20
13.3452
 10
58.488
 20
13.248
 10
58.4616
 20
13.1485
 10
58.437
 20
13.0468
 10
58.4143
 20
12.9428
 10
58.3933
 20
12.8366
 10
58.3742
 20
12.7281
 10
58.3569
 20
12.6174
 10
58.3414
 20
12.5045
 10
58.3277
 20
12.3893
 10
58.3159
 20
12.2718
 10
58.3058
 20
12.1521
 10
58.2976
 20
12.0302
 10
58.2912
 20
11.906
 10
58.2866
 20
11.7795
 10
58.2838
 20
11.6509
 10
58.2829
 20
11.5199
 10
58.2838
 20
11.3895
 10
58.2865
 20
11.2612
 10
58.291
 20
11.1352
 10
58.2973
 20
11.0114
 10
58.3055
 20
10.8897
 10
58.3155
 20
10.7703
 10
58.3273
 20
10.6531
 10
58.341
 20
10.5381
 10
58.3565
 20
10.4253
 10
58.3738
 20
10.3147
 10
58.3929
 20
10.2063
 10
58.4139
 20
10.1002
 10
58.4366
 20
9.9962
 10
58.4612
 20
9.8944
 10
58.4877
 20
9.7949
 10
58.5159
 20
9.6975
 10
58.546
 20
9.6024
 10
58.5779
 20
9.5095
 10
58.6117
 20
9.4188
 10
58.6472
 20
9.3302
 10
58.6846
 20
9.2439
 10
58.7238
 20
9.1598
 10
58.7649
 20
9.0779
 10
58.8077
 20
8.9982
 10
58.8524
 20
8.9208
 10
58.8989
 20
8.8455
 10
58.9473
 20
8.7724
 10
59.011
 20
8.6832
 10
59.0785
 20
8.5966
 10
59.1486
 20
8.5143
 10
59.2212
 20
8.4366
 10
59.2963
 20
8.3632
 10
59.374
 20
8.2943
 10
59.4542
 20
8.2299
 10
59.5369
 20
8.1699
 10
59.6221
 20
8.1143
 10
59.7099
 20
8.0632
 10
59.8002
 20
8.0165
 10
59.893
 20
7.9743
 10
59.9884
 20
7.9365
 10
60.0863
 20
7.9032
 10
60.1867
 20
7.8743
 10
60.2896
 20
7.8499
 10
60.3951
 20
7.8299
 10
60.5031
 20
7.8143
 10
60.6136
 20
7.8032
  0
LWPOLYLINE
  5
50
330
17
100
AcDbEntity
  8
OUTLINE
100
AcDbPolyline
 90
303
 70
1
 10
49.1276
 20
17.2915
 10
49.1276
 20
17.0959
 10
49.1276
 20
16.9846
 10
49.1276
 20
16.9003
 10
49.1276
 20
16.7047
 10
49.1276
 20
16.6827
 10
49.1276
 20
16.5091
 10
49.1276
 20
16.3807
 10
49.1276
 20
16.3135
 10
49.1276
 20
16.1179
 10
49.1276
 20
16.0787
 10
49.1276
 20
15.9223
 10
49.1276
 20
15.7767
 10
49.1276
 20
15.7268
 10
49.1276
 20
15.5312
 10
49.1276
 20
15.4747
 10
49.1276
 20
15.3356
 10
49.1276
 20
15.1728
 10
49.1276
 20
15.14
 10
49.1276
 20
14.8708
 10
49.1276
 20
14.5688
 10
49.1276
 20
14.2668
 10
49.1276
 20
13.9649
 10
49.1276
 20
13.6629
 10
49.1276
 20
13.3609
 10
49.1276
 20
13.0589
 10
49.1276
 20
12.7569
 10
49.1276
 20
12.455
 10
49.1276
 20
12.153
 10
49.1276
 20
11.851
 10
49.1276
 20
11.549
 10
49.1276
 20
11.247
 10
49.1276
 20
10.9451
 10
49.1276
 20
10.6431
 10
49.1276
 20
10.3411
 10
49.1276
 20
10.0391
 10
49.1276
 20
9.7371
 10
49.1276
 20
9.4352
 10
49.1276
 20
9.1332
 10
49.1276
 20
8.8312
 10
49.1276
 20
8.5292
 10
49.1276
 20
8.2273
 10
49.1276
 20
7.9573
 10
49.1544
 20
7.9573
 10
49.2909
 20
7.9573
 10
49.4273
 20
7.9573
 10
49.5638
 20
7.9573
 10
49.7002
 20
7.9573
 10
49.8367
 20
7.9573
 10
49.9731
 20
7.9573
 10
50.1096
 20
7.9573
 10
50.246
 20
7.9573
 10
50.3825
 20
7.9573
 10
50.5189
 20
7.9573
 10
50.6554
 20
7.9573
 10
50.7918
 20
7.9573
 10
50.9283
 20
7.9573
 10
51.0647
 20
7.9573
 10
51.2011
 20
7.9573
 10
51.3376
 20
7.9573
 10
51.474
 20
7.9573
 10
51.6105
 20
7.9573
 10
51.7469
 20
7.9573
 10
51.8834
 20
7.9573
 10
52.0198
 20
7.9573
 10
52.1563
 20
7.9573
 10
52.2927
 20
7.9573
 10
52.4292
 20
7.9573
 10
52.5656
 20
7.9573
 10
52.7021
 20
7.9573
 10
52.8385
 20
7.9573
 10
52.8385
 20
7.8208
 10
52.8385
 20
7.6844
 10
52.8385
 20
7.5479
 10
52.8385
 20
7.4115
 10
52.8385
 20
7.275
 10
52.8385
 20
7.1386
 10
52.8385
 20
7.0021
 10
52.8385
 20
6.8657
 10
52.8385
 20
6.7292
 10
52.8385
 20
6.5928
 10
52.8385
 20
6.4563
 10
52.8385
 20
6.3199
 10
52.8385
 20
6.1834
 10
52.8385
 20
6.047
 10
52.8385
 20
5.9105
 10
52.8385
 20
5.7741
 10
52.8385
 20
5.6377
 10
52.8385
 20
5.5012
 10
52.8385
 20
5.3648
 10
52.7154
 20
5.3514
 10
52.579
 20
5.3514
 10
52.4425
 20
5.3514
 10
52.3061
 20
5.3514
 10
52.1696
 20
5.3514
 10
52.0332
 20
5.3514
 10
51.8967
 20
5.3514
 10
51.7603
 20
5.3514
 10
51.6238
 20
5.3514
 10
51.4874
 20
5.3514
 10
51.3509
 20
5.3514
 10
51.2145
 20
5.3514
 10
51.078
 20
5.3514
 10
50.9416
 20
5.3514
 10
50.8052
 20
5.3514
 10
50.6687
 20
5.3514
 10
50.5323
 20
5.3514
 10
50.3958
 20
5.3514
 10
50.2594
 20
5.3514
 10
50.1229
 20
5.3514
 10
49.9865
 20
5.3514
 10
49.85
 20
5.3514
 10
49.7136
 20
5.3514
 10
49.5771
 20
5.3514
 10
49.4407
 20
5.3514
 10
49.3042
 20
5.3514
 10
49.1678
 20
5.3514
 10
49.0313
 20
5.3514
 10
48.9836
 20
5.3514
 10
48.8949
 20
5.3514
 10
48.6816
 20
5.3514
 10
48.3797
 20
5.3514
 10
48.0777
 20
5.3514
 10
47.7757
 20
5.3514
 10
47.4737
 20
5.3514
 10
47.1717
 20
5.3514
 10
46.8698
 20
5.3514
 10
46.5678
 20
5.3514
 10
46.4632
 20
5.3514
 10
46.3079
 20
5.3514
 10
46.2658
 20
5.3514
 10
46.1525
 20
5.3514
 10
45.9971
 20
5.3514
 10
45.8418
 20
5.3514
 10
45.6864
 20
5.3514
 10
45.5311
 20
5.3514
 10
45.3757
 20
5.3514
 10
45.2204
 20
5.3514
 10
45.065
 20
5.3514
 10
44.9096
 20
5.3514
 10
44.7543
 20
5.3514
 10
44.5989
 20
5.3514
 10
44.4436
 20
5.3514
 10
44.2882
 20
5.3514
 10
44.1328
 20
5.3514
 10
43.9775
 20
5.3514
 10
43.8221
 20
5.3514
 10
43.6668
 20
5.3514
 10
43.5114
 20
5.3514
 10
43.3561
 20
5.3514
 10
43.2007
 20
5.3514
 10
43.0453
 20
5.3514
 10
42.89
 20
5.3514
 10
42.7346
 20
5.3514
 10
42.5793
 20
5.3514
 10
42.4239
 20
5.3514
 10
42.2685
 20
5.3514
 10
42.1132
 20
5.3514
 10
41.9578
 20
5.3514
 10
41.8025
 20
5.3514
 10
41.6471
 20
5.3514
 10
41.6471
 20
5.5068
 10
41.6471
 20
5.6621
 10
41.6471
 20
5.8175
 10
41.6471
 20
5.9728
 10
41.6471
 20
6.1282
 10
41.6471
 20
6.2836
 10
41.6471
 20
6.4389
 10
41.6471
 20
6.5943
 10
41.6471
 20
6.7496
 10
41.6471
 20
6.905
 10
41.6471
 20
7.0604
 10
41.6471
 20
7.2157
 10
41.6471
 20
7.3711
 10
41.6471
 20
7.5264
 10
41.6471
 20
7.6818
 10
41.6471
 20
7.8371
 10
41.6824
 20
7.9573
 10
41.8377
 20
7.9573
 10
41.9931
 20
7.9573
 10
42.1484
 20
7.9573
 10
42.3038
 20
7.9573
 10
42.4591
 20
7.9573
 10
42.6145
 20
7.9573
 10
42.7699
 20
7.9573
 10
42.9252
 20
7.9573
 10
43.0806
 20
7.9573
 10
43.2359
 20
7.9573
 10
43.3913
 20
7.9573
 10
43.5467
 20
7.9573
 10
43.702
 20
7.9573
 10
43.8574
 20
7.9573
 10
44.0127
 20
7.9573
 10
44.1681
 20
7.9573
 10
44.3235
 20
7.9573
 10
44.4788
 20
7.9573
 10
44.6342
 20
7.9573
 10
44.7895
 20
7.9573
 10
44.9449
 20
7.9573
 10
45.1002
 20
7.9573
 10
45.2556
 20
7.9573
 10
45.411
 20
7.9573
 10
45.5663
 20
7.9573
 10
45.7217
 20
7.9573
 10
45.877
 20
7.9573
 10
46.0324
 20
7.9573
 10
46.1878
 20
7.9573
 10
46.2658
 20
7.9573
 10
46.2658
 20
8.0692
 10
46.2658
 20
8.3712
 10
46.2658
 20
8.6732
 10
46.2658
 20
8.9752
 10
46.2658
 20
9.2771
 10
46.2658
 20
9.5791
 10
46.2658
 20
9.8811
 10
46.2658
 20
10.1831
 10
46.2658
 20
10.4851
 10
46.2658
 20
10.787
 10
46.2658
 20
11.089
 10
46.2658
 20
11.391
 10
46.2658
 20
11.693
 10
46.2658
 20
11.9949
 10
46.2658
 20
12.2969
 10
46.2658
 20
12.5989
 10
46.2658
 20
12.9009
 10
46.2658
 20
13.2029
 10
46.2658
 20
13.5048
 10
46.2658
 20
13.8068
 10
46.2658
 20
14.1088
 10
46.2658
 20
14.4108
 10
46.2658
 20
14.7128
 10
46.2658
 20
15.0147
 10
46.2658
 20
15.0768
 10
46.2569
 20
15.0768
 10
46.0613
 20
15.0768
 10
45.8657
 20
15.0768
 10
45.6701
 20
15.0768
 10
45.4746
 20
15.0768
 10
45.279
 20
15.0768
 10
45.0834
 20
15.0768
 10
44.8878
 20
15.0768
 10
44.6922
 20
15.0768
 10
44.4966
 20
15.0768
 10
44.301
 20
15.0768
 10
44.1054
 20
15.0768
 10
43.9098
 20
15.0768
 10
43.7142
 20
15.0768
 10
43.5187
 20
15.0768
 10
43.3231
 20
15.0768
 10
43.1275
 20
15.0768
 10
42.9319
 20
15.0768
 10
42.7363
 20
15.0768
 10
42.5407
 20
15.0768
 10
42.3451
 20
15.0768
 10
42.3451
 20
15.2724
 10
42.3451
 20
15.468
 10
42.3451
 20
15.6636
 10
42.3451
 20
15.8592
 10
42.3451
 20
16.0547
 10
42.3451
 20
16.2503
 10
42.3451
 20
16.4459
 10
42.3451
 20
16.6415
 10
42.3451
 20
16.8371
 10
42.3451
 20
17.0327
 10
42.3451
 20
17.2283
 10
42.3451
 20
17.4239
 10
42.3451
 20
17.6195
 10
42.4775
 20
17.6827
 10
42.6731
 20
17.6827
 10
42.8687
 20
17.6827
 10
43.0643
 20
17.6827
 10
43.2599
 20
17.6827
 10
43.4555
 20
17.6827
 10
43.6511
 20
17.6827
 10
43.8466
 20
17.6827
 10
44.0422
 20
17.6827
 10
44.2378
 20
17.6827
 10
44.4334
 20
17.6827
 10
44.629
 20
17.6827
 10
44.8246
 20
17.6827
 10
45.0202
 20
17.6827
 10
45.2158
 20
17.6827
 10
45.4114
 20
17.6827
 10
45.607
 20
17.6827
 10
45.8025
 20
17.6827
 10
45.9981
 20
17.6827
 10
46.1937
 20
17.6827
 10
46.3893
 20
17.6827
 10
46.5849
 20
17.6827
 10
46.7805
 20
17.6827
 10
46.9761
 20
17.6827
 10
47.1717
 20
17.6827
 10
47.3673
 20
17.6827
 10
47.5628
 20
17.6827
 10
47.7584
 20
17.6827
 10
47.954
 20
17.6827
 10
48.1496
 20
17.6827
 10
48.3452
 20
17.6827
 10
48.5408
 20
17.6827
 10
48.7364
 20
17.6827
 10
48.932
 20
17.6827
 10
49.1276
 20
17.6827
 10
49.1276
 20
17.4871
  0
LWPOLYLINE
  5
51
330
17
100
AcDbEntity
  8
OUTLINE
100
AcDbPolyline
 90
246
 70
1
 10
0.2821
 20
21.8707
 10
0.3882
 20
21.8707
 10
0.5685
 20
21.8707
 10
0.7907
 20
21.8707
 10
0.855
 20
21.8707
 10
1.1415
 20
21.8707
 10
1.1933
 20
21.8707
 10
1.428
 20
21.8707
 10
1.5958
 20
21.8707
 10
1.7144
 20
21.8707
 10
1.9984
 20
21.8707
 10
2.0009
 20
21.8707
 10
2.2874
 20
21.8707
 10
2.401
 20
21.8707
 10
2.5738
 20
21.8707
 10
2.8035
 20
21.8707
 10
2.8603
 20
21.8707
 10
3.1468
 20
21.8707
 10
3.4332
 20
21.8707
 10
3.7197
 20
21.8707
 10
4.0062
 20
21.8707
 10
4.2926
 20
21.8707
 10
4.5791
 20
21.8707
 10
4.8656
 20
21.8707
 10
5.152
 20
21.8707
 10
5.4385
 20
21.8707
 10
5.725
 20
21.8707
 10
6.0115
 20
21.8707
 10
6.2979
 20
21.8707
 10
6.5844
 20
21.8707
 10
6.8709
 20
21.8707
 10
7.1573
 20
21.8707
 10
7.4438
 20
21.8707
 10
7.7303
 20
21.8707
 10
8.0167
 20
21.8707
 10
8.3032
 20
21.8707
 10
8.5897
 20
21.8707
 10
8.8761
 20
21.8707
 10
9.1626
 20
21.8707
 10
9.4491
 20
21.8707
 10
9.7355
 20
21.8707
 10
10.022
 20
21.8707
 10
10.3085
 20
21.8707
 10
10.5949
 20
21.8707
 10
10.8814
 20
21.8707
 10
11.1679
 20
21.8707
 10
11.1679
 20
21.5842
 10
11.1679
 20
21.2978
 10
11.1679
 20
21.0113
 10
11.1679
 20
20.7248
 10
11.1679
 20
20.4384
 10
11.1679
 20
20.1519
 10
11.1679
 20
19.8654
 10
11.1679
 20
19.579
 10
11.1679
 20
19.2925
 10
10.8858
 20
19.2881
 10
10.5993
 20
19.2881
 10
10.3129
 20
19.2881
 10
10.0264
 20
19.2881
 10
9.7399
 20
19.2881
 10
9.4535
 20
19.2881
 10
9.167
 20
19.2881
 10
8.8805
 20
19.2881
 10
8.5941
 20
19.2881
 10
8.3076
 20
19.2881
 10
8.0211
 20
19.2881
 10
7.7347
 20
19.2881
 10
7.4482
 20
19.2881
 10
7.1617
 20
19.2881
 10
6.8752
 20
19.2881
 10
6.5888
 20
19.2881
 10
6.3023
 20
19.2881
 10
6.0158
 20
19.2881
 10
5.7294
 20
19.2881
 10
5.4429
 20
19.2881
 10
5.1564
 20
19.2881
 10
4.87
 20
19.2881
 10
4.5835
 20
19.2881
 10
4.297
 20
19.2881
 10
4.0106
 20
19.2881
 10
3.7241
 20
19.2881
 10
3.4376
 20
19.2881
 10
3.1512
 20
19.2881
 10
2.8647
 20
19.2881
 10
2.8035
 20
19.2881
 10
2.8035
 20
19.0528
 10
2.8035
 20
18.6502
 10
2.8035
 20
18.2477
 10
2.8035
 20
17.8451
 10
2.8035
 20
17.4426
 10
2.8035
 20
17.04
 10
2.8035
 20
16.6374
 10
2.8035
 20
16.2349
 10
2.8035
 20
15.8323
 10
2.8035
 20
15.4298
 10
2.8035
 20
15.0272
 10
2.8035
 20
14.6247
 10
2.8035
 20
14.2276
 10
2.9411
 20
14.2276
 10
3.1818
 20
14.2276
 10
3.4224
 20
14.2276
 10
3.6631
 20
14.2276
 10
3.9038
 20
14.2276
 10
4.1444
 20
14.2276
 10
4.3851
 20
14.2276
 10
4.6258
 20
14.2276
 10
4.8664
 20
14.2276
 10
5.1071
 20
14.2276
 10
5.3477
 20
14.2276
 10
5.5884
 20
14.2276
 10
5.8291
 20
14.2276
 10
6.0697
 20
14.2276
 10
6.3104
 20
14.2276
 10
6.551
 20
14.2276
 10
6.7917
 20
14.2276
 10
7.0324
 20
14.2276
 10
7.273
 20
14.2276
 10
7.5137
 20
14.2276
 10
7.7544
 20
14.2276
 10
7.995
 20
14.2276
 10
8.2357
 20
14.2276
 10
8.4763
 20
14.2276
 10
8.717
 20
14.2276
 10
8.9577
 20
14.2276
 10
8.9577
 20
13.9869
 10
8.9577
 20
13.7463
 10
8.9577
 20
13.5056
 10
8.9577
 20
13.265
 10
8.9577
 20
13.0243
 10
8.9577
 20
12.7836
 10
8.9577
 20
12.543
 10
8.9577
 20
12.3023
 10
8.9577
 20
12.0616
 10
8.9577
 20
11.821
 10
8.9045
 20
11.6335
 10
8.6638
 20
11.6335
 10
8.4232
 20
11.6335
 10
8.1825
 20
11.6335
 10
7.9418
 20
11.6335
 10
7.7012
 20
11.6335
 10
7.4605
 20
11.6335
 10
7.2198
 20
11.6335
 10
6.9792
 20
11.6335
 10
6.7385
 20
11.6335
 10
6.4979
 20
11.6335
 10
6.2572
 20
11.6335
 10
6.0165
 20
11.6335
 10
5.7759
 20
11.6335
 10
5.5352
 20
11.6335
 10
5.2946
 20
11.6335
 10
5.0539
 20
11.6335
 10
4.8132
 20
11.6335
 10
4.5726
 20
11.6335
 10
4.3319
 20
11.6335
 10
4.0912
 20
11.6335
 10
3.8506
 20
11.6335
 10
3.6099
 20
11.6335
 10
3.3693
 20
11.6335
 10
3.1286
 20
11.6335
 10
2.8879
 20
11.6335
 10
2.8035
 20
11.6335
 10
2.8035
 20
11.4042
 10
2.8035
 20
11.0016
 10
2.8035
 20
10.5991
 10
2.8035
 20
10.1965
 10
2.8035
 20
9.7939
 10
2.8035
 20
9.3914
 10
2.8035
 20
8.9888
 10
2.8035
 20
8.5863
 10
2.8035
 20
8.1837
 10
2.8035
 20
7.7812
 10
2.8035
 20
7.3786
 10
2.8035
 20
6.976
 10
2.8035
 20
6.5735
 10
2.8035
 20
6.1709
 10
2.8035
 20
5.7684
 10
2.8035
 20
5.3658
 10
2.4154
 20
5.3514
 10
2.0128
 20
5.3514
 10
1.6102
 20
5.3514
 10
1.2077
 20
5.3514
 10
0.8051
 20
5.3514
 10
0.4026
 20
5.3514
 10
0.0
 20
5.3514
 10
0.0
 20
5.754
 10
0.0
 20
6.1565
 10
0.0
 20
6.5591
 10
0.0
 20
6.9616
 10
0.0
 20
7.3642
 10
0.0
 20
7.7668
 10
0.0
 20
8.1693
 10
0.0
 20
8.5719
 10
0.0
 20
8.9744
 10
0.0
 20
9.377
 10
0.0
 20
9.7796
 10
0.0
 20
10.1821
 10
0.0
 20
10.5847
 10
0.0
 20
10.9872
 10
0.0
 20
11.3898
 10
0.0
 20
11.6335
 10
0.0
 20
11.7924
 10
0.0
 20
11.8742
 10
0.0
 20
12.1148
 10
0.0
 20
12.1949
 10
0.0
 20
12.3555
 10
0.0
 20
12.5962
 10
0.0
 20
12.5975
 10
0.0
 20
12.8368
 10
0.0
 20
13.0
 10
0.0
 20
13.0775
 10
0.0
 20
13.3181
 10
0.0
 20
13.4026
 10
0.0
 20
13.5588
 10
0.0
 20
13.7995
 10
0.0
 20
13.8051
 10
0.0
 20
14.0401
 10
0.0
 20
14.2077
 10
0.0
 20
14.6103
 10
0.0
 20
15.0128
 10
0.0
 20
15.4154
 10
0.0
 20
15.8179
 10
0.0
 20
16.2205
 10
0.0
 20
16.6231
 10
0.0
 20
17.0256
 10
0.0
 20
17.4282
 10
0.0
 20
17.8307
 10
0.0
 20
18.2333
 10
0.0
 20
18.6359
 10
0.0
 20
19.0384
 10
0.0
 20
19.2881
 10
0.0
 20
19.441
 10
0.0
 20
19.5746
 10
0.0
 20
19.8435
 10
0.0
 20
19.861
 10
0.0
 20
20.1475
 10
0.0
 20
20.2461
 10
0.0
 20
20.434
 10
0.0
 20
20.6486
 10
0.0
 20
20.7204
 10
0.0
 20
21.0069
 10
0.0
 20
21.0512
 10
0.0
 20
21.2934
 10
0.0
 20
21.4538
 10
0.0
 20
21.5799
 10
0.0
 20
21.8563
 10
0.0
 20
21.8663
  0
LWPOLYLINE
  5
52
330
17
100
AcDbEntity
  8
OUTLINE
100
AcDbPolyline
 90
192
 70
1
 10
47.716
 20
19.4663
 10
47.6487
 20
19.4635
 10
47.5803
 20
19.4625
 10
47.512
 20
19.4635
 10
47.4447
 20
19.4663
 10
47.3784
 20
19.4709
 10
47.3131
 20
19.4774
 10
47.2489
 20
19.4858
 10
47.1856
 20
19.496
 10
47.1233
 20
19.5081
 10
47.0621
 20
19.522
 10
47.0018
 20
19.5378
 10
46.9426
 20
19.5554
 10
46.8844
 20
19.575
 10
46.8272
 20
19.5963
 10
46.771
 20
19.6195
 10
46.7158
 20
19.6446
 10
46.6616
 20
19.6716
 10
46.6084
 20
19.7004
 10
46.5562
 20
19.731
 10
46.505
 20
19.7635
 10
46.4549
 20
19.7979
 10
46.4057
 20
19.8342
 10
46.3576
 20
19.8722
 10
46.3105
 20
19.9122
 10
46.2644
 20
19.954
 10
46.2192
 20
19.9977
 10
46.1756
 20
20.0428
 10
46.1338
 20
20.0889
 10
46.0938
 20
20.136
 10
46.0557
 20
20.1841
 10
46.0195
 20
20.2332
 10
45.9851
 20
20.2834
 10
45.9526
 20
20.3345
 10
45.9219
 20
20.3867
 10
45.8931
 20
20.4399
 10
45.8662
 20
20.494
 10
45.8411
 20
20.5492
 10
45.8178
 20
20.6054
 10
45.7965
 20
20.6627
 10
45.7769
 20
20.7209
 10
45.7593
 20
20.7801
 10
45.7435
 20
20.8404
 10
45.7295
 20
20.9016
 10
45.7175
 20
20.9639
 10
45.7072
 20
21.0272
 10
45.6989
 20
21.0914
 10
45.6924
 20
21.1567
 10
45.6877
 20
21.223
 10
45.6849
 20
21.2904
 10
45.684
 20
21.3587
 10
45.6849
 20
21.427
 10
45.6877
 20
21.4943
 10
45.6923
 20
21.5607
 10
45.6988
 20
21.626
 10
45.7072
 20
21.6902
 10
45.7174
 20
21.7535
 10
45.7295
 20
21.8158
 10
45.7434
 20
21.8771
 10
45.7592
 20
21.9373
 10
45.7768
 20
21.9966
 10
45.7963
 20
22.0548
 10
45.8177
 20
22.112
 10
45.8409
 20
22.1682
 10
45.866
 20
22.2234
 10
45.8929
 20
22.2776
 10
45.9217
 20
22.3308
 10
45.9524
 20
22.383
 10
45.9849
 20
22.4341
 10
46.0193
 20
22.4843
 10
46.0555
 20
22.5334
 10
46.0936
 20
22.5815
 10
46.1335
 20
22.6286
 10
46.1753
 20
22.6748
 10
46.219
 20
22.7199
 10
46.2641
 20
22.7635
 10
46.3102
 20
22.8053
 10
46.3573
 20
22.8453
 10
46.4055
 20
22.8833
 10
46.4546
 20
22.9196
 10
46.5048
 20
22.9539
 10
46.5559
 20
22.9864
 10
46.6081
 20
23.0171
 10
46.6613
 20
23.0459
 10
46.7155
 20
23.0728
 10
46.7707
 20
23.0979
 10
46.8269
 20
23.1212
 10
46.8841
 20
23.1425
 10
46.9423
 20
23.162
 10
47.0016
 20
23.1797
 10
47.0618
 20
23.1955
 10
47.1231
 20
23.2094
 10
47.1853
 20
23.2215
 10
47.2486
 20
23.2317
 10
47.3129
 20
23.2401
 10
47.3782
 20
23.2466
 10
47.4445
 20
23.2512
 10
47.5118
 20
23.254
 10
47.5801
 20
23.255
 10
47.6484
 20
23.2541
 10
47.7157
 20
23.2513
 10
47.782
 20
23.2466
 10
47.8474
 20
23.2401
 10
47.9116
 20
23.2318
 10
47.9749
 20
23.2216
 10
48.0372
 20
23.2095
 10
48.0985
 20
23.1956
 10
48.1587
 20
23.1798
 10
48.218
 20
23.1621
 10
48.2762
 20
23.1426
 10
48.3334
 20
23.1213
 10
48.3896
 20
23.0981
 10
48.4448
 20
23.073
 10
48.499
 20
23.046
 10
48.5522
 20
23.0173
 10
48.6044
 20
22.9866
 10
48.6555
 20
22.9541
 10
48.7057
 20
22.9197
 10
48.7548
 20
22.8835
 10
48.8029
 20
22.8454
 10
48.8501
 20
22.8055
 10
48.8962
 20
22.7637
 10
48.9413
 20
22.72
 10
48.9849
 20
22.6749
 10
49.0267
 20
22.6288
 10
49.0667
 20
22.5817
 10
49.1048
 20
22.5336
 10
49.141
 20
22.4844
 10
49.1754
 20
22.4343
 10
49.2079
 20
22.3832
 10
49.2386
 20
22.331
 10
49.2674
 20
22.2778
 10
49.2943
 20
22.2236
 10
49.3194
 20
22.1684
 10
49.3426
 20
22.1122
 10
49.364
 20
22.055
 10
49.3835
 20
21.9968
 10
49.4012
 20
21.9375
 10
49.417
 20
21.8773
 10
49.4309
 20
21.816
 10
49.443
 20
21.7538
 10
49.4532
 20
21.6905
 10
49.4616
 20
21.6262
 10
49.4681
 20
21.5609
 10
49.4727
 20
21.4946
 10
49.4755
 20
21.4273
 10
49.4764
 20
21.359
 10
49.4755
 20
21.2906
 10
49.4727
 20
21.2233
 10
49.4681
 20
21.157
 10
49.4616
 20
21.0917
 10
49.4532
 20
21.0274
 10
49.443
 20
20.9641
 10
49.4309
 20
20.9019
 10
49.417
 20
20.8406
 10
49.4012
 20
20.7803
 10
49.3835
 20
20.7211
 10
49.364
 20
20.6629
 10
49.3427
 20
20.6057
 10
49.3194
 20
20.5495
 10
49.2944
 20
20.4943
 10
49.2674
 20
20.4401
 10
49.2386
 20
20.3869
 10
49.208
 20
20.3347
 10
49.1754
 20
20.2836
 10
49.1411
 20
20.2334
 10
49.1048
 20
20.1843
 10
49.0668
 20
20.1362
 10
49.0268
 20
20.089
 10
48.985
 20
20.0429
 10
48.9413
 20
19.9978
 10
48.8962
 20
19.9542
 10
48.8501
 20
19.9123
 10
48.803
 20
19.8724
 10
48.7549
 20
19.8343
 10
48.7058
 20
19.798
 10
48.6556
 20
19.7636
 10
48.6045
 20
19.7311
 10
48.5523
 20
19.7004
 10
48.4991
 20
19.6716
 10
48.445
 20
19.6447
 10
48.3898
 20
19.6196
 10
48.3336
 20
19.5964
 10
48.2763
 20
19.575
 10
48.2181
 20
19.5555
 10
48.1589
 20
19.5378
 10
48.0986
 20
19.522
 10
48.0374
 20
19.5081
 10
47.9751
 20
19.496
 10
47.9119
 20
19.4858
 10
47.8476
 20
19.4774
 10
47.7823
 20
19.4709
  0
LWPOLYLINE
  5
53
330
17
100
AcDbEntity
  8
OUTLINE
100
AcDbPolyline
 90
329
 70
1
 10
100.4203
 20
15.4492
 10
100.4243
 20
15.4492
 10
100.5444
 20
15.4492
 10
100.6257
 20
15.5032
 10
100.6513
 20
15.6359
 10
100.6806
 20
15.7649
 10
100.7137
 20
15.8902
 10
100.7505
 20
16.0118
 10
100.7911
 20
16.1298
 10
100.8355
 20
16.2441
 10
100.8835
 20
16.3547
 10
100.9353
 20
16.4617
 10
100.9909
 20
16.5649
 10
101.0502
 20
16.6645
 10
101.1133
 20
16.7605
 10
101.1801
 20
16.8527
 10
101.2507
 20
16.9413
 10
101.325
 20
17.0262
 10
101.4031
 20
17.1075
 10
101.4849
 20
17.1851
 10
101.5704
 20
17.259
 10
101.655
 20
17.3255
 10
101.7397
 20
17.3863
 10
101.8278
 20
17.4438
 10
101.9192
 20
17.498
 10
102.0139
 20
17.5488
 10
102.112
 20
17.5964
 10
102.2133
 20
17.6407
 10
102.3179
 20
17.6816
 10
102.4258
 20
17.7193
 10
102.537
 20
17.7536
 10
102.6516
 20
17.7846
 10
102.7694
 20
17.8124
 10
102.8906
 20
17.8368
 10
103.015
 20
17.8579
 10
103.1428
 20
17.8758
 10
103.2739
 20
17.8903
 10
103.4082
 20
17.9015
 10
103.5459
 20
17.9094
 10
103.6869
 20
17.914
 10
103.8302
 20
17.9153
 10
103.966
 20
17.9136
 10
104.0999
 20
17.9091
 10
104.2319
 20
17.9018
 10
104.3621
 20
17.8918
 10
104.4905
 20
17.8789
 10
104.617
 20
17.8632
 10
104.7416
 20
17.8448
 10
104.8644
 20
17.8235
 10
104.9854
 20
17.7995
 10
105.1045
 20
17.7727
 10
105.2218
 20
17.743
 10
105.3373
 20
17.7106
 10
105.4508
 20
17.6754
 10
105.5626
 20
17.6374
 10
105.6725
 20
17.5966
 10
105.7805
 20
17.553
 10
105.8867
 20
17.5066
 10
105.9911
 20
17.4574
 10
106.0936
 20
17.4054
 10
106.1943
 20
17.3507
 10
106.2931
 20
17.2931
 10
106.3901
 20
17.2327
 10
106.4852
 20
17.1696
 10
106.5785
 20
17.1037
 10
106.67
 20
17.0349
 10
106.7596
 20
16.9634
 10
106.8473
 20
16.8891
 10
106.9332
 20
16.8119
 10
107.0173
 20
16.732
 10
107.0995
 20
16.6493
 10
107.1799
 20
16.5638
 10
107.2584
 20
16.4755
 10
107.3351
 20
16.3845
 10
107.4099
 20
16.2906
 10
107.4752
 20
16.2043
 10
107.5337
 20
16.1233
 10
107.5908
 20
16.0405
 10
107.6465
 20
15.9562
 10
107.7008
 20
15.8701
 10
107.7536
 20
15.7824
 10
107.805
 20
15.693
 10
107.8549
 20
15.602
 10
107.9035
 20
15.5093
 10
107.9506
 20
15.4149
 10
107.9962
 20
15.3189
 10
108.0405
 20
15.2212
 10
108.0833
 20
15.1218
 10
108.1246
 20
15.0208
 10
108.1646
 20
14.9181
 10
108.2031
 20
14.8138
 10
108.2401
 20
14.7078
 10
108.2758
 20
14.6001
 10
108.31
 20
14.4908
 10
108.3428
 20
14.3798
 10
108.3741
 20
14.2671
 10
108.404
 20
14.1528
 10
108.4325
 20
14.0368
 10
108.4596
 20
13.9192
 10
108.4852
 20
13.7999
 10
108.5094
 20
13.6789
 10
108.5321
 20
13.5563
 10
108.5534
 20
13.432
 10
108.5733
 20
13.306
 10
108.5918
 20
13.1784
 10
108.6088
 20
13.0491
 10
108.6244
 20
12.9182
 10
108.6386
 20
12.7856
 10
108.6513
 20
12.6513
 10
108.6626
 20
12.5154
 10
108.6725
 20
12.3778
 10
108.6809
 20
12.2385
 10
108.6879
 20
12.0976
 10
108.6935
 20
11.955
 10
108.6977
 20
11.8108
 10
108.7004
 20
11.6649
 10
108.7016
 20
11.5173
 10
108.7015
 20
11.3686
 10
108.6998
 20
11.2214
 10
108.6967
 20
11.0759
 10
108.6921
 20
10.932
 10
108.6861
 20
10.7899
 10
108.6785
 20
10.6495
 10
108.6695
 20
10.5107
 10
108.659
 20
10.3737
 10
108.6471
 20
10.2384
 10
108.6336
 20
10.1047
 10
108.6187
 20
9.9728
 10
108.6023
 20
9.8426
 10
108.5844
 20
9.7141
 10
108.565
 20
9.5872
 10
108.5442
 20
9.4621
 10
108.5219
 20
9.3387
 10
108.4981
 20
9.217
 10
108.4729
 20
9.097
 10
108.4461
 20
8.9786
 10
108.4179
 20
8.862
 10
108.3882
 20
8.7471
 10
108.357
 20
8.6339
 10
108.3244
 20
8.5224
 10
108.2903
 20
8.4126
 10
108.2547
 20
8.3045
 10
108.2176
 20
8.198
 10
108.179
 20
8.0933
 10
108.139
 20
7.9903
 10
108.0975
 20
7.889
 10
108.0545
 20
7.7894
 10
108.0101
 20
7.6915
 10
107.9641
 20
7.5953
 10
107.9167
 20
7.5008
 10
107.8678
 20
7.408
 10
107.8174
 20
7.3169
 10
107.7656
 20
7.2275
 10
107.7123
 20
7.1398
 10
107.6575
 20
7.0538
 10
107.6012
 20
6.9695
 10
107.5434
 20
6.8869
 10
107.4842
 20
6.806
 10
107.4202
 20
6.7226
 10
107.3451
 20
6.6297
 10
107.2681
 20
6.5395
 10
107.1893
 20
6.4521
 10
107.1086
 20
6.3674
 10
107.0261
 20
6.2856
 10
106.9418
 20
6.2065
 10
106.8555
 20
6.1302
 10
106.7675
 20
6.0566
 10
106.6775
 20
5.9859
 10
106.5857
 20
5.9179
 10
106.4921
 20
5.8527
 10
106.3966
 20
5.7903
 10
106.2993
 20
5.7306
 10
106.2001
 20
5.6737
 10
106.099
 20
5.6196
 10
105.9962
 20
5.5683
 10
105.8914
 20
5.5197
 10
105.7848
 20
5.4739
 10
105.6763
 20
5.4309
 10
105.566
 20
5.3907
 10
105.4539
 20
5.3532
 10
105.3399
 20
5.3185
 10
105.224
 20
5.2866
 10
105.1063
 20
5.2575
 10
104.9867
 20
5.2311
 10
104.8653
 20
5.2075
 10
104.742
 20
5.1867
 10
104.6169
 20
5.1687
 10
104.4899
 20
5.1534
 10
104.361
 20
5.1409
 10
104.2303
 20
5.1312
 10
104.0978
 20
5.1243
 10
103.9634
 20
5.1201
 10
103.8272
 20
5.1187
 10
103.6879
 20
5.1205
 10
103.5515
 20
5.1257
 10
103.418
 20
5.1344
 10
103.2874
 20
5.1466
 10
103.1597
 20
5.1622
 10
103.035
 20
5.1813
 10
102.9131
 20
5.2039
 10
102.7941
 20
5.23
 10
102.678
 20
5.2595
 10
102.5648
 20
5.2926
 10
102.4544
 20
5.3291
 10
102.347
 20
5.369
 10
102.2425
 20
5.4125
 10
102.1409
 20
5.4594
 10
102.0422
 20
5.5098
 10
101.9464
 20
5.5637
 10
101.8534
 20
5.621
 10
101.7634
 20
5.6819
 10
101.6763
 20
5.7462
 10
101.5868
 20
5.8185
 10
101.5015
 20
5.8945
 10
101.4202
 20
5.9742
 10
101.343
 20
6.0575
 10
101.27
 20
6.1446
 10
101.2011
 20
6.2353
 10
101.1362
 20
6.3296
 10
101.0755
 20
6.4277
 10
101.0189
 20
6.5294
 10
100.9665
 20
6.6348
 10
100.9181
 20
6.7438
 10
100.8738
 20
6.8566
 10
100.8337
 20
6.973
 10
100.7977
 20
7.093
 10
100.7658
 20
7.2168
 10
100.738
 20
7.3442
 10
100.7143
 20
7.4753
 10
100.6758
 20
7.5849
 10
100.5557
 20
7.5849
 10
100.4536
 20
7.5849
 10
100.4536
 20
7.349
 10
100.4536
 20
7.0082
 10
100.4536
 20
6.6675
 10
100.4536
 20
6.3267
 10
100.4536
 20
5.986
 10
100.4536
 20
5.6452
 10
100.4536
 20
5.3045
 10
100.4536
 20
4.9637
 10
100.4536
 20
4.623
 10
100.4536
 20
4.2822
 10
100.4536
 20
3.9415
 10
100.4536
 20
3.6007
 10
100.4536
 20
3.26
 10
100.4536
 20
2.9192
 10
100.4536
 20
2.5785
 10
100.4536
 20
2.2377
 10
100.4536
 20
1.897
 10
100.4536
 20
1.5562
 10
100.4536
 20
1.2155
 10
100.4536
 20
0.8747
 10
100.4536
 20
0.534
 10
100.4536
 20
0.1932
 10
100.3061
 20
0.0
 10
99.9653
 20
0.0
 10
99.6246
 20
0.0
 10
99.2838
 20
0.0
 10
98.9431
 20
0.0
 10
98.6023
 20
0.0
 10
98.2616
 20
0.0
 10
97.9208
 20
0.0
 10
97.5801
 20
0.0
 10
97.5801
 20
0.3408
 10
97.5801
 20
0.6815
 10
97.5801
 20
1.0223
 10
97.5801
 20
1.363
 10
97.5801
 20
1.7038
 10
97.5801
 20
2.0445
 10
97.5801
 20
2.3853
 10
97.5801
 20
2.726
 10
97.5801
 20
3.0668
 10
97.5801
 20
3.4075
 10
97.5801
 20
3.7483
 10
97.5801
 20
4.089
 10
97.5801
 20
4.4298
 10
97.5801
 20
4.7705
 10
97.5801
 20
5.1113
 10
97.5801
 20
5.452
 10
97.5801
 20
5.7928
 10
97.5801
 20
6.1335
 10
97.5801
 20
6.4743
 10
97.5801
 20
6.815
 10
97.5801
 20
7.1558
 10
97.5801
 20
7.4965
 10
97.5801
 20
7.8373
 10
97.5801
 20
8.178
 10
97.5801
 20
8.5188
 10
97.5801
 20
8.8595
 10
97.5801
 20
9.2003
 10
97.5801
 20
9.541
 10
97.5801
 20
9.8818
 10
97.5801
 20
10.2225
 10
97.5801
 20
10.5633
 10
97.5801
 20
10.904
 10
97.5801
 20
11.2448
 10
97.5801
 20
11.5855
 10
97.5801
 20
11.9263
 10
97.5801
 20
12.267
 10
97.5801
 20
12.6078
 10
97.5801
 20
12.9485
 10
97.5801
 20
13.2893
 10
97.5801
 20
13.63
 10
97.5801
 20
13.9708
 10
97.5801
 20
14.3115
 10
97.5801
 20
14.6523
 10
97.5801
 20
14.993
 10
97.5801
 20
15.3338
 10
97.5801
 20
15.6745
 10
97.5801
 20
16.0153
 10
97.5801
 20
16.356
 10
97.5801
 20
16.6968
 10
97.5801
 20
17.0375
 10
97.5801
 20
17.3783
 10
97.6164
 20
17.6827
 10
97.9572
 20
17.6827
 10
98.2979
 20
17.6827
 10
98.6387
 20
17.6827
 10
98.9794
 20
17.6827
 10
99.3202
 20
17.6827
 10
99.6609
 20
17.6827
 10
100.0017
 20
17.6827
 10
100.2317
 20
17.5616
 10
100.262
 20
17.2222
 10
100.2923
 20
16.8828
 10
100.3226
 20
16.5434
 10
100.3529
 20
16.204
 10
100.3832
 20
15.8646
 10
100.4135
 20
15.5252
  0
LWPOLYLINE
  5
54
330
17
100
AcDbEntity
  8
OUTLINE
100
AcDbPolyline
 90
177
 70
1
 10
100.4536
 20
11.7896
 10
100.4536
 20
11.7787
 10
100.4536
 20
11.438
 10
100.4536
 20
11.3238
 10
100.4536
 20
11.3238
 10
100.455
 20
11.1701
 10
100.4586
 20
11.0199
 10
100.4645
 20
10.8731
 10
100.4726
 20
10.7297
 10
100.4829
 20
10.5897
 10
100.4955
 20
10.4532
 10
100.5103
 20
10.3201
 10
100.5273
 20
10.1904
 10
100.5466
 20
10.0642
 10
100.5681
 20
9.9413
 10
100.5918
 20
9.8219
 10
100.6178
 20
9.706
 10
100.646
 20
9.5934
 10
100.6765
 20
9.4843
 10
100.7092
 20
9.3786
 10
100.7441
 20
9.2763
 10
100.7812
 20
9.1775
 10
100.8206
 20
9.0821
 10
100.8623
 20
8.9901
 10
100.9061
 20
8.9015
 10
100.9522
 20
8.8164
 10
101.0006
 20
8.7346
 10
101.0511
 20
8.6564
 10
101.1108
 20
8.5723
 10
101.1806
 20
8.4844
 10
101.2545
 20
8.4013
 10
101.3327
 20
8.3232
 10
101.415
 20
8.2499
 10
101.5016
 20
8.1815
 10
101.5924
 20
8.118
 10
101.6874
 20
8.0594
 10
101.7866
 20
8.0057
 10
101.89
 20
7.9568
 10
101.9976
 20
7.9129
 10
102.1094
 20
7.8738
 10
102.2254
 20
7.8396
 10
102.3457
 20
7.8103
 10
102.4701
 20
7.7859
 10
102.5988
 20
7.7663
 10
102.7317
 20
7.7516
 10
102.8687
 20
7.7419
 10
103.01
 20
7.737
 10
103.1509
 20
7.737
 10
103.2857
 20
7.742
 10
103.417
 20
7.752
 10
103.5448
 20
7.7671
 10
103.6691
 20
7.7872
 10
103.7899
 20
7.8123
 10
103.9073
 20
7.8425
 10
104.0212
 20
7.8777
 10
104.1316
 20
7.9179
 10
104.2385
 20
7.9631
 10
104.342
 20
8.0134
 10
104.442
 20
8.0687
 10
104.5385
 20
8.129
 10
104.6315
 20
8.1943
 10
104.7211
 20
8.2647
 10
104.8072
 20
8.3401
 10
104.8898
 20
8.4206
 10
104.9689
 20
8.506
 10
105.0446
 20
8.5965
 10
105.1148
 20
8.6893
 10
105.17
 20
8.7691
 10
105.2228
 20
8.8519
 10
105.2733
 20
8.9377
 10
105.3214
 20
9.0266
 10
105.3672
 20
9.1186
 10
105.4107
 20
9.2136
 10
105.4518
 20
9.3116
 10
105.4906
 20
9.4127
 10
105.527
 20
9.5169
 10
105.5612
 20
9.6241
 10
105.5929
 20
9.7343
 10
105.6224
 20
9.8476
 10
105.6495
 20
9.964
 10
105.6742
 20
10.0834
 10
105.6966
 20
10.2058
 10
105.7167
 20
10.3313
 10
105.7345
 20
10.4599
 10
105.7499
 20
10.5915
 10
105.763
 20
10.7262
 10
105.7737
 20
10.8639
 10
105.7821
 20
11.0046
 10
105.7881
 20
11.1484
 10
105.7918
 20
11.2953
 10
105.7932
 20
11.4452
 10
105.7923
 20
11.5942
 10
105.7891
 20
11.7403
 10
105.7836
 20
11.8835
 10
105.7759
 20
12.0239
 10
105.7659
 20
12.1614
 10
105.7536
 20
12.2961
 10
105.7391
 20
12.428
 10
105.7223
 20
12.557
 10
105.7032
 20
12.6832
 10
105.6819
 20
12.8066
 10
105.6583
 20
12.9271
 10
105.6324
 20
13.0448
 10
105.6042
 20
13.1597
 10
105.5738
 20
13.2717
 10
105.5411
 20
13.3809
 10
105.5062
 20
13.4873
 10
105.469
 20
13.5908
 10
105.4295
 20
13.6915
 10
105.3878
 20
13.7894
 10
105.3437
 20
13.8844
 10
105.2974
 20
13.9766
 10
105.2489
 20
14.0659
 10
105.1981
 20
14.1524
 10
105.145
 20
14.2361
 10
105.0881
 20
14.3191
 10
105.0144
 20
14.4176
 10
104.9376
 20
14.5108
 10
104.8574
 20
14.5988
 10
104.774
 20
14.6816
 10
104.6874
 20
14.7592
 10
104.5975
 20
14.8315
 10
104.5043
 20
14.8987
 10
104.4079
 20
14.9606
 10
104.3083
 20
15.0173
 10
104.2054
 20
15.0688
 10
104.0992
 20
15.1151
 10
103.9898
 20
15.1562
 10
103.8772
 20
15.192
 10
103.7613
 20
15.2227
 10
103.6421
 20
15.2481
 10
103.5197
 20
15.2683
 10
103.394
 20
15.2833
 10
103.2651
 20
15.2931
 10
103.133
 20
15.2976
 10
102.9961
 20
15.297
 10
102.8609
 20
15.2913
 10
102.7292
 20
15.2804
 10
102.6013
 20
15.2645
 10
102.477
 20
15.2435
 10
102.3563
 20
15.2173
 10
102.2394
 20
15.1861
 10
102.126
 20
15.1498
 10
102.0164
 20
15.1084
 10
101.9104
 20
15.0619
 10
101.8081
 20
15.0103
 10
101.7094
 20
14.9536
 10
101.6144
 20
14.8918
 10
101.523
 20
14.8249
 10
101.4353
 20
14.7529
 10
101.3513
 20
14.6759
 10
101.2709
 20
14.5937
 10
101.1942
 20
14.5064
 10
101.1212
 20
14.4141
 10
101.0654
 20
14.3364
 10
101.013
 20
14.2566
 10
100.9629
 20
14.1736
 10
100.9151
 20
14.0871
 10
100.8697
 20
13.9973
 10
100.8267
 20
13.9041
 10
100.786
 20
13.8076
 10
100.7477
 20
13.7077
 10
100.7117
 20
13.6045
 10
100.678
 20
13.4979
 10
100.6467
 20
13.3879
 10
100.6178
 20
13.2746
 10
100.5912
 20
13.1579
 10
100.5669
 20
13.0378
 10
100.545
 20
12.9144
 10
100.5255
 20
12.7876
 10
100.5083
 20
12.6575
 10
100.4934
 20
12.524
 10
100.4809
 20
12.3872
 10
100.4707
 20
12.247
 10
100.4629
 20
12.1034
 10
100.4575
 20
11.9565
 10
100.4544
 20
11.8062
  0
LWPOLYLINE
  5
55
330
17
100
AcDbEntity
  8
OUTLINE
100
AcDbPolyline
 90
562
 70
1
 10
118.9005
 20
7.793
 10
118.8927
 20
7.9209
 10
118.8905
 20
7.9573
 10
118.8138
 20
7.9573
 10
118.7288
 20
7.9573
 10
118.6439
 20
7.9573
 10
118.6252
 20
7.9573
 10
118.6172
 20
7.8848
 10
118.6055
 20
7.7956
 10
118.5919
 20
7.7078
 10
118.5765
 20
7.6216
 10
118.5592
 20
7.5367
 10
118.5401
 20
7.4533
 10
118.5192
 20
7.3714
 10
118.4964
 20
7.2909
 10
118.4718
 20
7.2119
 10
118.4454
 20
7.1343
 10
118.4172
 20
7.0582
 10
118.3871
 20
6.9835
 10
118.3551
 20
6.9103
 10
118.3214
 20
6.8385
 10
118.2858
 20
6.7682
 10
118.2483
 20
6.6993
 10
118.2091
 20
6.6319
 10
118.168
 20
6.566
 10
118.1226
 20
6.4978
 10
118.0741
 20
6.4294
 10
118.0238
 20
6.3627
 10
117.9716
 20
6.2978
 10
117.9176
 20
6.2346
 10
117.8618
 20
6.1732
 10
117.8041
 20
6.1135
 10
117.7446
 20
6.0556
 10
117.6833
 20
5.9994
 10
117.6201
 20
5.9449
 10
117.5551
 20
5.8922
 10
117.4882
 20
5.8413
 10
117.4196
 20
5.7921
 10
117.3491
 20
5.7447
 10
117.2767
 20
5.6989
 10
117.2026
 20
5.655
 10
117.1265
 20
5.6128
 10
117.0487
 20
5.5723
 10
116.969
 20
5.5336
 10
116.8875
 20
5.4966
 10
116.8091
 20
5.4634
 10
116.7383
 20
5.4353
 10
116.6665
 20
5.4084
 10
116.5936
 20
5.3826
 10
116.5196
 20
5.3581
 10
116.4445
 20
5.3348
 10
116.3683
 20
5.3126
 10
116.291
 20
5.2917
 10
116.2127
 20
5.2719
 10
116.1332
 20
5.2534
 10
116.0526
 20
5.236
 10
115.9709
 20
5.2199
 10
115.8881
 20
5.2049
 10
115.8042
 20
5.1911
 10
115.7193
 20
5.1786
 10
115.6332
 20
5.1672
 10
115.546
 20
5.157
 10
115.4577
 20
5.1481
 10
115.3684
 20
5.1403
 10
115.2779
 20
5.1337
 10
115.1864
 20
5.1283
 10
115.0937
 20
5.1241
 10
114.9999
 20
5.1211
 10
114.9051
 20
5.1193
 10
114.8091
 20
5.1187
 10
114.7075
 20
5.1194
 10
114.6071
 20
5.1214
 10
114.5079
 20
5.1246
 10
114.4099
 20
5.1292
 10
114.3131
 20
5.135
 10
114.2176
 20
5.1422
 10
114.1232
 20
5.1507
 10
114.03
 20
5.1605
 10
113.938
 20
5.1716
 10
113.8472
 20
5.184
 10
113.7576
 20
5.1977
 10
113.6692
 20
5.2127
 10
113.582
 20
5.229
 10
113.496
 20
5.2466
 10
113.4112
 20
5.2655
 10
113.3276
 20
5.2857
 10
113.2452
 20
5.3072
 10
113.164
 20
5.33
 10
113.0841
 20
5.3542
 10
113.0053
 20
5.3796
 10
112.9277
 20
5.4063
 10
112.8513
 20
5.4344
 10
112.7761
 20
5.4637
 10
112.7021
 20
5.4944
 10
112.6293
 20
5.5263
 10
112.5578
 20
5.5596
 10
112.4874
 20
5.5942
 10
112.4182
 20
5.63
 10
112.3502
 20
5.6672
 10
112.2834
 20
5.7057
 10
112.2178
 20
5.7455
 10
112.1535
 20
5.7866
 10
112.0903
 20
5.8289
 10
112.0283
 20
5.8726
 10
111.9675
 20
5.9176
 10
111.9079
 20
5.9639
 10
111.8496
 20
6.0115
 10
111.7924
 20
6.0605
 10
111.733
 20
6.1138
 10
111.6742
 20
6.1694
 10
111.6172
 20
6.2263
 10
111.5618
 20
6.2845
 10
111.5082
 20
6.344
 10
111.4563
 20
6.4047
 10
111.4062
 20
6.4666
 10
111.3578
 20
6.5299
 10
111.3111
 20
6.5944
 10
111.2661
 20
6.6602
 10
111.2228
 20
6.7273
 10
111.1813
 20
6.7956
 10
111.1415
 20
6.8652
 10
111.1034
 20
6.9361
 10
111.0671
 20
7.0082
 10
111.0325
 20
7.0816
 10
110.9996
 20
7.1563
 10
110.9684
 20
7.2322
 10
110.939
 20
7.3094
 10
110.9113
 20
7.3879
 10
110.8853
 20
7.4677
 10
110.861
 20
7.5487
 10
110.8385
 20
7.631
 10
110.8177
 20
7.7145
 10
110.7986
 20
7.7993
 10
110.7813
 20
7.8854
 10
110.7656
 20
7.9728
 10
110.7517
 20
8.0614
 10
110.7396
 20
8.1514
 10
110.7291
 20
8.2425
 10
110.7204
 20
8.335
 10
110.7134
 20
8.4287
 10
110.7082
 20
8.5237
 10
110.7046
 20
8.6199
 10
110.7028
 20
8.7174
 10
110.7027
 20
8.815
 10
110.7043
 20
8.9105
 10
110.7075
 20
9.005
 10
110.7123
 20
9.0984
 10
110.7188
 20
9.1907
 10
110.7269
 20
9.282
 10
110.7367
 20
9.3722
 10
110.7481
 20
9.4613
 10
110.7612
 20
9.5493
 10
110.7759
 20
9.6363
 10
110.7922
 20
9.7222
 10
110.8102
 20
9.807
 10
110.8298
 20
9.8908
 10
110.851
 20
9.9734
 10
110.8739
 20
10.055
 10
110.8985
 20
10.1356
 10
110.9247
 20
10.215
 10
110.9525
 20
10.2934
 10
110.9819
 20
10.3707
 10
111.013
 20
10.447
 10
111.0458
 20
10.5222
 10
111.0802
 20
10.5963
 10
111.1162
 20
10.6693
 10
111.1539
 20
10.7412
 10
111.1932
 20
10.8121
 10
111.2341
 20
10.8819
 10
111.2767
 20
10.9507
 10
111.321
 20
11.0183
 10
111.3669
 20
11.0849
 10
111.4144
 20
11.1505
 10
111.4635
 20
11.2149
 10
111.5143
 20
11.2783
 10
111.5668
 20
11.3406
 10
111.6209
 20
11.4018
 10
111.6766
 20
11.462
 10
111.7339
 20
11.5211
 10
111.793
 20
11.5791
 10
111.8536
 20
11.636
 10
111.9159
 20
11.6919
 10
111.9798
 20
11.7467
 10
112.0454
 20
11.8004
 10
112.1126
 20
11.8531
 10
112.1752
 20
11.9
 10
112.2332
 20
11.942
 10
112.2921
 20
11.983
 10
112.352
 20
12.0232
 10
112.4128
 20
12.0626
 10
112.4745
 20
12.1011
 10
112.5372
 20
12.1388
 10
112.6008
 20
12.1757
 10
112.6654
 20
12.2116
 10
112.7309
 20
12.2468
 10
112.7973
 20
12.2811
 10
112.8647
 20
12.3145
 10
112.933
 20
12.3471
 10
113.0022
 20
12.3789
 10
113.0724
 20
12.4098
 10
113.1435
 20
12.4399
 10
113.2156
 20
12.4691
 10
113.2886
 20
12.4975
 10
113.3625
 20
12.525
 10
113.4373
 20
12.5517
 10
113.5131
 20
12.5776
 10
113.5899
 20
12.6026
 10
113.6676
 20
12.6267
 10
113.7462
 20
12.65
 10
113.8257
 20
12.6725
 10
113.9062
 20
12.6941
 10
113.9876
 20
12.7148
 10
114.07
 20
12.7348
 10
114.1533
 20
12.7538
 10
114.2375
 20
12.7721
 10
114.3227
 20
12.7895
 10
114.4088
 20
12.806
 10
114.4958
 20
12.8217
 10
114.5838
 20
12.8365
 10
114.6727
 20
12.8505
 10
114.7625
 20
12.8637
 10
114.8533
 20
12.876
 10
114.945
 20
12.8875
 10
115.0377
 20
12.8981
 10
115.1313
 20
12.9079
 10
115.2258
 20
12.9168
 10
115.3213
 20
12.9249
 10
115.4177
 20
12.9321
 10
115.5151
 20
12.9385
 10
115.6133
 20
12.944
 10
115.7126
 20
12.9487
 10
115.8127
 20
12.9526
 10
115.9138
 20
12.9556
 10
116.0158
 20
12.9577
 10
116.1188
 20
12.9591
 10
116.2227
 20
12.9595
 10
116.3191
 20
12.9593
 10
116.4141
 20
12.9586
 10
116.5079
 20
12.9574
 10
116.6007
 20
12.9557
 10
116.6923
 20
12.9535
 10
116.7829
 20
12.9508
 10
116.8724
 20
12.9476
 10
116.9608
 20
12.944
 10
117.0481
 20
12.9398
 10
117.1344
 20
12.9351
 10
117.2195
 20
12.93
 10
117.3036
 20
12.9243
 10
117.3866
 20
12.9182
 10
117.4685
 20
12.9115
 10
117.5493
 20
12.9044
 10
117.629
 20
12.8968
 10
117.7076
 20
12.8887
 10
117.7852
 20
12.8801
 10
117.8616
 20
12.8709
 10
117.937
 20
12.8613
 10
118.0113
 20
12.8513
 10
118.0878
 20
12.8402
 10
118.1739
 20
12.8269
 10
118.2595
 20
12.8128
 10
118.3447
 20
12.798
 10
118.4294
 20
12.7825
 10
118.5138
 20
12.7662
 10
118.5977
 20
12.7491
 10
118.6713
 20
12.7334
 10
118.6713
 20
12.7782
 10
118.6713
 20
12.9064
 10
118.6707
 20
13.0415
 10
118.6636
 20
13.1831
 10
118.6488
 20
13.3195
 10
118.6262
 20
13.4506
 10
118.5959
 20
13.5765
 10
118.5577
 20
13.6971
 10
118.5118
 20
13.8124
 10
118.4581
 20
13.9224
 10
118.3966
 20
14.0272
 10
118.3274
 20
14.1266
 10
118.2503
 20
14.2209
 10
118.1655
 20
14.3098
 10
118.0729
 20
14.3935
 10
117.9725
 20
14.4718
 10
117.8644
 20
14.545
 10
117.7692
 20
14.6015
 10
117.6817
 20
14.6484
 10
117.5902
 20
14.6932
 10
117.4947
 20
14.7358
 10
117.3951
 20
14.7762
 10
117.2916
 20
14.8144
 10
117.1841
 20
14.8504
 10
117.0726
 20
14.8842
 10
116.9571
 20
14.9158
 10
116.8375
 20
14.9453
 10
116.714
 20
14.9725
 10
116.5865
 20
14.9975
 10
116.455
 20
15.0203
 10
116.3194
 20
15.041
 10
116.1799
 20
15.0594
 10
116.0364
 20
15.0757
 10
115.8888
 20
15.0897
 10
115.7373
 20
15.1016
 10
115.5818
 20
15.1113
 10
115.4222
 20
15.1187
 10
115.2649
 20
15.1238
 10
115.1368
 20
15.1272
 10
115.0087
 20
15.1306
 10
114.8807
 20
15.134
 10
114.7526
 20
15.1374
 10
114.6245
 20
15.1408
 10
114.4964
 20
15.1442
 10
114.3683
 20
15.1476
 10
114.2403
 20
15.151
 10
114.1122
 20
15.1544
 10
113.9841
 20
15.1578
 10
113.856
 20
15.1612
 10
113.7279
 20
15.1646
 10
113.5999
 20
15.168
 10
113.4718
 20
15.1714
 10
113.3437
 20
15.1748
 10
113.2156
 20
15.1782
 10
113.0875
 20
15.1816
 10
112.9595
 20
15.185
 10
112.8314
 20
15.1884
 10
112.7033
 20
15.1918
 10
112.5752
 20
15.1952
 10
112.4472
 20
15.1986
 10
112.3191
 20
15.202
 10
112.2172
 20
15.2287
 10
112.2286
 20
15.3563
 10
112.2401
 20
15.4839
 10
112.2515
 20
15.6116
 10
112.2629
 20
15.7392
 10
112.2743
 20
15.8668
 10
112.2858
 20
15.9944
 10
112.2972
 20
16.122
 10
112.3086
 20
16.2496
 10
112.3201
 20
16.3772
 10
112.3315
 20
16.5048
 10
112.3429
 20
16.6325
 10
112.3544
 20
16.7601
 10
112.3658
 20
16.8877
 10
112.3772
 20
17.0153
 10
112.3887
 20
17.1429
 10
112.4001
 20
17.2705
 10
112.4115
 20
17.3981
 10
112.4229
 20
17.5258
 10
112.4344
 20
17.6534
 10
112.4458
 20
17.781
 10
112.5573
 20
17.7976
 10
112.6854
 20
17.7959
 10
112.8136
 20
17.7942
 10
112.9417
 20
17.7925
 10
113.0698
 20
17.7908
 10
113.1979
 20
17.789
 10
113.326
 20
17.7873
 10
113.4541
 20
17.7856
 10
113.5822
 20
17.7839
 10
113.7103
 20
17.7822
 10
113.8385
 20
17.7804
 10
113.9666
 20
17.7787
 10
114.0947
 20
17.777
 10
114.2228
 20
17.7753
 10
114.3509
 20
17.7736
 10
114.479
 20
17.7718
 10
114.6071
 20
17.7701
 10
114.7352
 20
17.7684
 10
114.8634
 20
17.7667
 10
114.9915
 20
17.765
 10
115.1375
 20
17.7627
 10
115.2987
 20
17.7588
 10
115.4578
 20
17.7533
 10
115.6147
 20
17.7462
 10
115.7696
 20
17.7376
 10
115.9223
 20
17.7274
 10
116.0729
 20
17.7156
 10
116.2213
 20
17.7023
 10
116.3677
 20
17.6874
 10
116.5119
 20
17.6709
 10
116.654
 20
17.6529
 10
116.794
 20
17.6333
 10
116.9319
 20
17.6121
 10
117.0676
 20
17.5894
 10
117.2012
 20
17.5651
 10
117.3327
 20
17.5392
 10
117.4621
 20
17.5118
 10
117.5893
 20
17.4828
 10
117.7145
 20
17.4522
 10
117.8375
 20
17.4201
 10
117.9583
 20
17.3864
 10
118.0771
 20
17.3511
 10
118.1937
 20
17.3143
 10
118.3083
 20
17.2759
 10
118.4206
 20
17.2359
 10
118.5309
 20
17.1944
 10
118.6391
 20
17.1513
 10
118.7451
 20
17.1067
 10
118.849
 20
17.0604
 10
118.9508
 20
17.0126
 10
119.0504
 20
16.9633
 10
119.148
 20
16.9124
 10
119.2434
 20
16.8599
 10
119.3367
 20
16.8058
 10
119.4278
 20
16.7502
 10
119.5169
 20
16.693
 10
119.6038
 20
16.6343
 10
119.6886
 20
16.5739
 10
119.7713
 20
16.512
 10
119.8518
 20
16.4486
 10
119.9456
 20
16.3706
 10
120.0376
 20
16.2895
 10
120.1268
 20
16.2061
 10
120.2129
 20
16.1205
 10
120.2961
 20
16.0327
 10
120.3764
 20
15.9427
 10
120.4537
 20
15.8505
 10
120.5281
 20
15.7562
 10
120.5995
 20
15.6596
 10
120.668
 20
15.5608
 10
120.7335
 20
15.4599
 10
120.7961
 20
15.3567
 10
120.8557
 20
15.2514
 10
120.9124
 20
15.1438
 10
120.9661
 20
15.0341
 10
121.0168
 20
14.9221
 10
121.0647
 20
14.808
 10
121.1095
 20
14.6916
 10
121.1514
 20
14.5731
 10
121.1904
 20
14.4524
 10
121.2264
 20
14.3295
 10
121.2595
 20
14.2043
 10
121.2896
 20
14.077
 10
121.3168
 20
13.9475
 10
121.341
 20
13.8158
 10
121.3622
 20
13.6819
 10
121.3806
 20
13.5458
 10
121.3959
 20
13.4075
 10
121.4083
 20
13.267
 10
121.4178
 20
13.1243
 10
121.4243
 20
12.9794
 10
121.4279
 20
12.8323
 10
121.4286
 20
12.6894
 10
121.4286
 20
12.5613
 10
121.4286
 20
12.4332
 10
121.4286
 20
12.305
 10
121.4286
 20
12.1769
 10
121.4286
 20
12.0488
 10
121.4286
 20
11.9207
 10
121.4286
 20
11.7925
 10
121.4286
 20
11.6644
 10
121.4286
 20
11.5363
 10
121.4286
 20
11.4082
 10
121.4286
 20
11.28
 10
121.4286
 20
11.1519
 10
121.4286
 20
11.0238
 10
121.4286
 20
10.8957
 10
121.4286
 20
10.7675
 10
121.4286
 20
10.6394
 10
121.4286
 20
10.5113
 10
121.4286
 20
10.3832
 10
121.4286
 20
10.255
 10
121.4286
 20
10.1269
 10
121.4286
 20
9.9988
 10
121.4286
 20
9.8707
 10
121.4286
 20
9.7425
 10
121.4286
 20
9.6144
 10
121.4286
 20
9.4863
 10
121.4286
 20
9.3582
 10
121.4286
 20
9.23
 10
121.4286
 20
9.1019
 10
121.4286
 20
8.9738
 10
121.4286
 20
8.8457
 10
121.4286
 20
8.7175
 10
121.4286
 20
8.5894
 10
121.4286
 20
8.4613
 10
121.4286
 20
8.3332
 10
121.4286
 20
8.205
 10
121.4286
 20
8.0769
 10
121.4286
 20
7.9488
 10
121.5409
 20
7.9186
 10
121.6678
 20
7.9011
 10
121.7948
 20
7.8837
 10
121.9217
 20
7.8662
 10
122.0486
 20
7.8488
 10
122.1756
 20
7.8313
 10
122.3025
 20
7.8139
 10
122.4294
 20
7.7964
 10
122.5563
 20
7.779
 10
122.6833
 20
7.7615
 10
122.8102
 20
7.744
 10
122.9371
 20
7.7266
 10
123.0641
 20
7.7091
 10
123.191
 20
7.6917
 10
123.2897
 20
7.6496
 10
123.2897
 20
7.5215
 10
123.2897
 20
7.3934
 10
123.2897
 20
7.2652
 10
123.2897
 20
7.1371
 10
123.2897
 20
7.009
 10
123.2897
 20
6.8809
 10
123.2897
 20
6.7527
 10
123.2897
 20
6.6246
 10
123.2897
 20
6.4965
 10
123.2897
 20
6.3684
 10
123.2897
 20
6.2403
 10
123.2897
 20
6.1121
 10
123.2897
 20
5.984
 10
123.2897
 20
5.8559
 10
123.2897
 20
5.7278
 10
123.2897
 20
5.5996
 10
123.2897
 20
5.4715
 10
123.2817
 20
5.3512
 10
123.1536
 20
5.3477
 10
123.0255
 20
5.3442
 10
122.8974
 20
5.3406
 10
122.7694
 20
5.3371
 10
122.6413
 20
5.3336
 10
122.5132
 20
5.3301
 10
122.3851
 20
5.3266
 10
122.2571
 20
5.3231
 10
122.129
 20
5.3196
 10
122.0009
 20
5.316
 10
121.8728
 20
5.3125
 10
121.7448
 20
5.309
 10
121.6167
 20
5.3055
 10
121.4886
 20
5.302
 10
121.3605
 20
5.2985
 10
121.2324
 20
5.295
 10
121.1044
 20
5.2914
 10
120.9763
 20
5.2879
 10
120.8482
 20
5.2844
 10
120.7201
 20
5.2809
 10
120.5921
 20
5.2774
 10
120.464
 20
5.2739
 10
120.3359
 20
5.2704
 10
120.2078
 20
5.2668
 10
120.0798
 20
5.2633
 10
119.9517
 20
5.2598
 10
119.8236
 20
5.2563
 10
119.6955
 20
5.2528
 10
119.5675
 20
5.2493
 10
119.4394
 20
5.2458
 10
119.3113
 20
5.2422
 10
119.1832
 20
5.2387
 10
119.0552
 20
5.2352
 10
119.0474
 20
5.3631
 10
119.0397
 20
5.491
 10
119.0319
 20
5.6189
 10
119.0242
 20
5.7468
 10
119.0165
 20
5.8747
 10
119.0087
 20
6.0026
 10
119.001
 20
6.1305
 10
118.9933
 20
6.2583
 10
118.9855
 20
6.3862
 10
118.9778
 20
6.5141
 10
118.9701
 20
6.642
 10
118.9623
 20
6.7699
 10
118.9546
 20
6.8978
 10
118.9469
 20
7.0257
 10
118.9391
 20
7.1536
 10
118.9314
 20
7.2815
 10
118.9237
 20
7.4094
 10
118.9159
 20
7.5372
 10
118.9082
 20
7.6651
  0
LWPOLYLINE
  5
56
330
17
100
AcDbEntity
  8
OUTLINE
100
AcDbPolyline
 90
163
 70
1
 10
118.6713
 20
10.4247
 10
118.6236
 20
10.4336
 10
118.5375
 20
10.4487
 10
118.4521
 20
10.4628
 10
118.3675
 20
10.4758
 10
118.2837
 20
10.4878
 10
118.2006
 20
10.4988
 10
118.1182
 20
10.5087
 10
118.0366
 20
10.5176
 10
117.9557
 20
10.5255
 10
117.8756
 20
10.5323
 10
117.7962
 20
10.5381
 10
117.7175
 20
10.5429
 10
117.6387
 20
10.5467
 10
117.5571
 20
10.5501
 10
117.475
 20
10.5534
 10
117.3924
 20
10.5564
 10
117.3094
 20
10.5592
 10
117.226
 20
10.5617
 10
117.1421
 20
10.564
 10
117.0577
 20
10.5661
 10
116.9729
 20
10.568
 10
116.8876
 20
10.5697
 10
116.8019
 20
10.5711
 10
116.7158
 20
10.5723
 10
116.6291
 20
10.5733
 10
116.5421
 20
10.574
 10
116.4545
 20
10.5745
 10
116.3665
 20
10.5748
 10
116.2688
 20
10.5748
 10
116.141
 20
10.5735
 10
116.0163
 20
10.5704
 10
115.8947
 20
10.5654
 10
115.7762
 20
10.5587
 10
115.6607
 20
10.5501
 10
115.5483
 20
10.5397
 10
115.439
 20
10.5275
 10
115.3327
 20
10.5135
 10
115.2296
 20
10.4977
 10
115.1295
 20
10.48
 10
115.0325
 20
10.4606
 10
114.9386
 20
10.4393
 10
114.8478
 20
10.4162
 10
114.76
 20
10.3913
 10
114.6753
 20
10.3646
 10
114.5937
 20
10.3361
 10
114.5152
 20
10.3058
 10
114.4398
 20
10.2736
 10
114.3674
 20
10.2396
 10
114.2981
 20
10.2039
 10
114.2319
 20
10.1663
 10
114.1688
 20
10.1269
 10
114.1087
 20
10.0856
 10
114.0518
 20
10.0426
 10
113.9979
 20
9.9978
 10
113.9471
 20
9.9511
 10
113.8993
 20
9.9026
 10
113.8547
 20
9.8523
 10
113.8131
 20
9.8002
 10
113.7746
 20
9.7463
 10
113.7392
 20
9.6906
 10
113.7068
 20
9.633
 10
113.6776
 20
9.5737
 10
113.6514
 20
9.5125
 10
113.6283
 20
9.4495
 10
113.6083
 20
9.3847
 10
113.5913
 20
9.3181
 10
113.5775
 20
9.2497
 10
113.5667
 20
9.1794
 10
113.559
 20
9.1074
 10
113.5544
 20
9.0335
 10
113.5528
 20
8.9578
 10
113.5551
 20
8.8615
 10
113.562
 20
8.7683
 10
113.5735
 20
8.6784
 10
113.5896
 20
8.5916
 10
113.6103
 20
8.5081
 10
113.6356
 20
8.4278
 10
113.6655
 20
8.3507
 10
113.7
 20
8.2768
 10
113.7392
 20
8.2062
 10
113.7829
 20
8.1387
 10
113.8312
 20
8.0745
 10
113.8841
 20
8.0135
 10
113.9416
 20
7.9557
 10
114.0038
 20
7.9011
 10
114.0646
 20
7.854
 10
114.123
 20
7.8137
 10
114.1844
 20
7.7759
 10
114.2487
 20
7.7405
 10
114.3159
 20
7.7075
 10
114.3859
 20
7.6771
 10
114.4589
 20
7.6491
 10
114.5347
 20
7.6235
 10
114.6134
 20
7.6005
 10
114.695
 20
7.5798
 10
114.7795
 20
7.5617
 10
114.8669
 20
7.546
 10
114.9572
 20
7.5328
 10
115.0504
 20
7.5221
 10
115.1465
 20
7.5138
 10
115.2454
 20
7.508
 10
115.3473
 20
7.5046
 10
115.451
 20
7.5037
 10
115.5482
 20
7.5047
 10
115.6439
 20
7.5074
 10
115.7382
 20
7.5118
 10
115.8311
 20
7.5177
 10
115.9224
 20
7.5253
 10
116.0123
 20
7.5346
 10
116.1008
 20
7.5455
 10
116.1877
 20
7.558
 10
116.2732
 20
7.5722
 10
116.3572
 20
7.588
 10
116.4398
 20
7.6054
 10
116.5209
 20
7.6245
 10
116.6005
 20
7.6452
 10
116.6786
 20
7.6676
 10
116.7553
 20
7.6916
 10
116.8305
 20
7.7172
 10
116.9043
 20
7.7445
 10
116.9766
 20
7.7735
 10
117.0474
 20
7.804
 10
117.1167
 20
7.8362
 10
117.1846
 20
7.8701
 10
117.2565
 20
7.9085
 10
117.3371
 20
7.9543
 10
117.4154
 20
8.0014
 10
117.4913
 20
8.0499
 10
117.5648
 20
8.0998
 10
117.636
 20
8.1511
 10
117.7048
 20
8.2037
 10
117.7712
 20
8.2577
 10
117.8353
 20
8.3131
 10
117.897
 20
8.3699
 10
117.9563
 20
8.428
 10
118.0133
 20
8.4875
 10
118.0679
 20
8.5484
 10
118.1202
 20
8.6107
 10
118.17
 20
8.6743
 10
118.2176
 20
8.7393
 10
118.2627
 20
8.8057
 10
118.3055
 20
8.8735
 10
118.3505
 20
8.9504
 10
118.3932
 20
9.0288
 10
118.4329
 20
9.1075
 10
118.4695
 20
9.1866
 10
118.503
 20
9.266
 10
118.5335
 20
9.3457
 10
118.561
 20
9.4258
 10
118.5854
 20
9.5063
 10
118.6068
 20
9.587
 10
118.6251
 20
9.6682
 10
118.6403
 20
9.7496
 10
118.6526
 20
9.8315
 10
118.6617
 20
9.9136
 10
118.6678
 20
9.9961
 10
118.6709
 20
10.079
 10
118.6713
 20
10.163
 10
118.6713
 20
10.2479
 10
118.6713
 20
10.3329
 10
118.6713
 20
10.3439
 10
118.6713
 20
10.4178
  0
LWPOLYLINE
  5
57
330
17
100
AcDbEntity
  8
OUTLINE
100
AcDbPolyline
 90
368
 70
1
 10
141.9575
 20
10.3304
 10
141.9012
 20
10.3304
 10
141.93
 20
10.2268
 10
141.9742
 20
10.0884
 10
142.023
 20
9.9538
 10
142.0764
 20
9.8231
 10
142.1344
 20
9.6962
 10
142.1971
 20
9.5731
 10
142.2644
 20
9.454
 10
142.3363
 20
9.3386
 10
142.4128
 20
9.2272
 10
142.4939
 20
9.1195
 10
142.5797
 20
9.0158
 10
142.6701
 20
8.9159
 10
142.7651
 20
8.8198
 10
142.863
 20
8.729
 10
142.9625
 20
8.6442
 10
143.0656
 20
8.5633
 10
143.1723
 20
8.4863
 10
143.2826
 20
8.4132
 10
143.3964
 20
8.3441
 10
143.5139
 20
8.2789
 10
143.6349
 20
8.2177
 10
143.7596
 20
8.1604
 10
143.8878
 20
8.107
 10
144.0196
 20
8.0576
 10
144.155
 20
8.0121
 10
144.294
 20
7.9705
 10
144.4365
 20
7.9328
 10
144.5827
 20
7.8991
 10
144.7325
 20
7.8694
 10
144.8858
 20
7.8435
 10
145.0427
 20
7.8216
 10
145.2032
 20
7.8036
 10
145.3673
 20
7.7896
 10
145.535
 20
7.7795
 10
145.7063
 20
7.7733
 10
145.8812
 20
7.7711
 10
146.0322
 20
7.7717
 10
146.1808
 20
7.7738
 10
146.329
 20
7.7774
 10
146.4766
 20
7.7824
 10
146.6238
 20
7.7889
 10
146.7705
 20
7.7969
 10
146.9167
 20
7.8064
 10
147.0624
 20
7.8173
 10
147.2077
 20
7.8297
 10
147.3524
 20
7.8435
 10
147.4967
 20
7.8588
 10
147.6396
 20
7.8752
 10
147.783
 20
7.8927
 10
147.9269
 20
7.9112
 10
148.0713
 20
7.9307
 10
148.2161
 20
7.9514
 10
148.3615
 20
7.9731
 10
148.5073
 20
7.9958
 10
148.6536
 20
8.0197
 10
148.8005
 20
8.0446
 10
148.9477
 20
8.0705
 10
149.0929
 20
8.0941
 10
149.1095
 20
7.948
 10
149.1262
 20
7.802
 10
149.1428
 20
7.656
 10
149.1595
 20
7.5099
 10
149.1761
 20
7.3639
 10
149.1928
 20
7.2179
 10
149.2094
 20
7.0718
 10
149.2261
 20
6.9258
 10
149.2427
 20
6.7798
 10
149.2594
 20
6.6337
 10
149.276
 20
6.4877
 10
149.2927
 20
6.3417
 10
149.3093
 20
6.1956
 10
149.326
 20
6.0496
 10
149.3426
 20
5.9036
 10
149.3592
 20
5.7575
 10
149.3759
 20
5.6115
 10
149.3925
 20
5.4655
 10
149.2599
 20
5.42
 10
149.1036
 20
5.3929
 10
148.9492
 20
5.3672
 10
148.7966
 20
5.343
 10
148.6458
 20
5.3203
 10
148.4968
 20
5.299
 10
148.3496
 20
5.2792
 10
148.2042
 20
5.2608
 10
148.0606
 20
5.2439
 10
147.9188
 20
5.2285
 10
147.7788
 20
5.2145
 10
147.6406
 20
5.202
 10
147.5042
 20
5.1909
 10
147.3696
 20
5.1814
 10
147.2209
 20
5.1722
 10
147.0581
 20
5.1629
 10
146.8986
 20
5.1545
 10
146.7425
 20
5.147
 10
146.5897
 20
5.1404
 10
146.4403
 20
5.1346
 10
146.2942
 20
5.1298
 10
146.1515
 20
5.1258
 10
146.0122
 20
5.1227
 10
145.8762
 20
5.1205
 10
145.7436
 20
5.1192
 10
145.6143
 20
5.1187
 10
145.4397
 20
5.12
 10
145.2673
 20
5.1238
 10
145.0971
 20
5.1302
 10
144.9291
 20
5.139
 10
144.7633
 20
5.1505
 10
144.5998
 20
5.1644
 10
144.4384
 20
5.1809
 10
144.2793
 20
5.1999
 10
144.1223
 20
5.2215
 10
143.9676
 20
5.2456
 10
143.8151
 20
5.2722
 10
143.6648
 20
5.3014
 10
143.5167
 20
5.3331
 10
143.3708
 20
5.3674
 10
143.2271
 20
5.4042
 10
143.0856
 20
5.4435
 10
142.9463
 20
5.4853
 10
142.8092
 20
5.5297
 10
142.6744
 20
5.5767
 10
142.5417
 20
5.6262
 10
142.4113
 20
5.6782
 10
142.283
 20
5.7327
 10
142.157
 20
5.7898
 10
142.0332
 20
5.8494
 10
141.9115
 20
5.9116
 10
141.7921
 20
5.9763
 10
141.6749
 20
6.0435
 10
141.5599
 20
6.1133
 10
141.4472
 20
6.1856
 10
141.3366
 20
6.2604
 10
141.2282
 20
6.3378
 10
141.122
 20
6.4177
 10
141.0181
 20
6.5002
 10
140.9163
 20
6.5852
 10
140.8168
 20
6.6727
 10
140.7194
 20
6.7627
 10
140.623
 20
6.8567
 10
140.529
 20
6.9533
 10
140.4378
 20
7.0521
 10
140.3493
 20
7.1532
 10
140.2636
 20
7.2567
 10
140.1806
 20
7.3624
 10
140.1004
 20
7.4704
 10
140.0229
 20
7.5808
 10
139.9482
 20
7.6934
 10
139.8763
 20
7.8084
 10
139.8071
 20
7.9256
 10
139.7406
 20
8.0451
 10
139.6769
 20
8.167
 10
139.616
 20
8.2911
 10
139.5578
 20
8.4175
 10
139.5023
 20
8.5463
 10
139.4497
 20
8.6773
 10
139.3997
 20
8.8106
 10
139.3526
 20
8.9463
 10
139.3081
 20
9.0842
 10
139.2665
 20
9.2245
 10
139.2275
 20
9.367
 10
139.1914
 20
9.5118
 10
139.158
 20
9.659
 10
139.1273
 20
9.8084
 10
139.0994
 20
9.9601
 10
139.0742
 20
10.1142
 10
139.0518
 20
10.2705
 10
139.0322
 20
10.4291
 10
139.0153
 20
10.5901
 10
139.0011
 20
10.7533
 10
138.9898
 20
10.9188
 10
138.9811
 20
11.0867
 10
138.9752
 20
11.2568
 10
138.9721
 20
11.4292
 10
138.9717
 20
11.6042
 10
138.9739
 20
11.7788
 10
138.9786
 20
11.9511
 10
138.9857
 20
12.1211
 10
138.9954
 20
12.2888
 10
139.0076
 20
12.4543
 10
139.0223
 20
12.6174
 10
139.0395
 20
12.7782
 10
139.0593
 20
12.9367
 10
139.0815
 20
13.0929
 10
139.1062
 20
13.2468
 10
139.1335
 20
13.3984
 10
139.1632
 20
13.5477
 10
139.1955
 20
13.6947
 10
139.2302
 20
13.8394
 10
139.2675
 20
13.9818
 10
139.3073
 20
14.1219
 10
139.3496
 20
14.2597
 10
139.3944
 20
14.3952
 10
139.4417
 20
14.5284
 10
139.4915
 20
14.6593
 10
139.5438
 20
14.7879
 10
139.5987
 20
14.9142
 10
139.656
 20
15.0382
 10
139.7159
 20
15.1599
 10
139.7782
 20
15.2793
 10
139.8431
 20
15.3964
 10
139.9104
 20
15.5112
 10
139.9803
 20
15.6238
 10
140.0527
 20
15.734
 10
140.1276
 20
15.8419
 10
140.205
 20
15.9475
 10
140.2849
 20
16.0508
 10
140.3673
 20
16.1518
 10
140.4531
 20
16.2514
 10
140.5482
 20
16.356
 10
140.6458
 20
16.4571
 10
140.7458
 20
16.5549
 10
140.8482
 20
16.6493
 10
140.9531
 20
16.7403
 10
141.0604
 20
16.8278
 10
141.1702
 20
16.912
 10
141.2824
 20
16.9928
 10
141.397
 20
17.0703
 10
141.5141
 20
17.1443
 10
141.6336
 20
17.2149
 10
141.7556
 20
17.2822
 10
141.8799
 20
17.346
 10
142.0068
 20
17.4065
 10
142.136
 20
17.4635
 10
142.2677
 20
17.5172
 10
142.4019
 20
17.5675
 10
142.5384
 20
17.6143
 10
142.6775
 20
17.6578
 10
142.8189
 20
17.6979
 10
142.9628
 20
17.7346
 10
143.1091
 20
17.768
 10
143.2579
 20
17.7979
 10
143.4091
 20
17.8244
 10
143.5627
 20
17.8476
 10
143.7188
 20
17.8673
 10
143.8773
 20
17.8837
 10
144.0383
 20
17.8966
 10
144.2017
 20
17.9062
 10
144.3675
 20
17.9124
 10
144.5358
 20
17.9151
 10
144.7066
 20
17.9145
 10
144.8756
 20
17.9105
 10
145.042
 20
17.9031
 10
145.2058
 20
17.8923
 10
145.367
 20
17.878
 10
145.5257
 20
17.8604
 10
145.6817
 20
17.8393
 10
145.8351
 20
17.8148
 10
145.986
 20
17.787
 10
146.1342
 20
17.7557
 10
146.2799
 20
17.721
 10
146.423
 20
17.6829
 10
146.5634
 20
17.6414
 10
146.7013
 20
17.5965
 10
146.8366
 20
17.5482
 10
146.9692
 20
17.4964
 10
147.0993
 20
17.4413
 10
147.2268
 20
17.3827
 10
147.3517
 20
17.3208
 10
147.474
 20
17.2554
 10
147.5937
 20
17.1867
 10
147.7108
 20
17.1145
 10
147.8253
 20
17.0389
 10
147.9372
 20
16.9599
 10
148.0466
 20
16.8775
 10
148.1533
 20
16.7917
 10
148.2574
 20
16.7025
 10
148.359
 20
16.6098
 10
148.4579
 20
16.5138
 10
148.5542
 20
16.4144
 10
148.6431
 20
16.317
 10
148.7269
 20
16.2196
 10
148.8079
 20
16.1196
 10
148.8863
 20
16.017
 10
148.9621
 20
15.9118
 10
149.0352
 20
15.804
 10
149.1056
 20
15.6936
 10
149.1733
 20
15.5806
 10
149.2384
 20
15.4649
 10
149.3008
 20
15.3467
 10
149.3605
 20
15.2258
 10
149.4176
 20
15.1024
 10
149.472
 20
14.9763
 10
149.5237
 20
14.8476
 10
149.5728
 20
14.7163
 10
149.6192
 20
14.5823
 10
149.6629
 20
14.4458
 10
149.704
 20
14.3067
 10
149.7424
 20
14.1649
 10
149.7781
 20
14.0205
 10
149.8112
 20
13.8736
 10
149.8416
 20
13.724
 10
149.8693
 20
13.5718
 10
149.8944
 20
13.417
 10
149.9168
 20
13.2595
 10
149.9365
 20
13.0995
 10
149.9536
 20
12.9369
 10
149.968
 20
12.7716
 10
149.9797
 20
12.6037
 10
149.9888
 20
12.4332
 10
149.9952
 20
12.2602
 10
149.9989
 20
12.0845
 10
150.0
 20
11.9085
 10
149.9993
 20
11.7531
 10
149.9974
 20
11.5995
 10
149.9943
 20
11.4477
 10
149.99
 20
11.2977
 10
149.9846
 20
11.1494
 10
149.9779
 20
11.0029
 10
149.9701
 20
10.8582
 10
149.961
 20
10.7153
 10
149.9508
 20
10.5742
 10
149.9394
 20
10.4348
 10
149.8943
 20
10.3304
 10
149.7473
 20
10.3304
 10
149.6004
 20
10.3304
 10
149.4534
 20
10.3304
 10
149.3064
 20
10.3304
 10
149.1594
 20
10.3304
 10
149.0124
 20
10.3304
 10
148.8655
 20
10.3304
 10
148.7185
 20
10.3304
 10
148.5715
 20
10.3304
 10
148.4245
 20
10.3304
 10
148.2776
 20
10.3304
 10
148.1306
 20
10.3304
 10
147.9836
 20
10.3304
 10
147.8366
 20
10.3304
 10
147.6896
 20
10.3304
 10
147.5427
 20
10.3304
 10
147.3957
 20
10.3304
 10
147.2487
 20
10.3304
 10
147.1017
 20
10.3304
 10
146.9547
 20
10.3304
 10
146.8078
 20
10.3304
 10
146.6608
 20
10.3304
 10
146.5138
 20
10.3304
 10
146.3668
 20
10.3304
 10
146.2199
 20
10.3304
 10
146.0729
 20
10.3304
 10
145.9259
 20
10.3304
 10
145.7789
 20
10.3304
 10
145.6319
 20
10.3304
 10
145.485
 20
10.3304
 10
145.338
 20
10.3304
 10
145.191
 20
10.3304
 10
145.044
 20
10.3304
 10
144.897
 20
10.3304
 10
144.7501
 20
10.3304
 10
144.6031
 20
10.3304
 10
144.4561
 20
10.3304
 10
144.3091
 20
10.3304
 10
144.1622
 20
10.3304
 10
144.0152
 20
10.3304
 10
143.8682
 20
10.3304
 10
143.7212
 20
10.3304
 10
143.5742
 20
10.3304
 10
143.4273
 20
10.3304
 10
143.2803
 20
10.3304
 10
143.1333
 20
10.3304
 10
142.9863
 20
10.3304
 10
142.8394
 20
10.3304
 10
142.6924
 20
10.3304
 10
142.5454
 20
10.3304
 10
142.3984
 20
10.3304
 10
142.2514
 20
10.3304
 10
142.1045
 20
10.3304
  0
LWPOLYLINE
  5
58
330
17
100
AcDbEntity
  8
OUTLINE
100
AcDbPolyline
 90
100
 70
1
 10
141.7888
 20
12.4948
 10
141.7786
 20
12.4012
 10
141.8778
 20
12.4012
 10
142.0248
 20
12.4012
 10
142.1718
 20
12.4012
 10
142.3188
 20
12.4012
 10
142.4658
 20
12.4012
 10
142.6127
 20
12.4012
 10
142.7597
 20
12.4012
 10
142.9067
 20
12.4012
 10
143.0537
 20
12.4012
 10
143.2007
 20
12.4012
 10
143.3476
 20
12.4012
 10
143.4946
 20
12.4012
 10
143.6416
 20
12.4012
 10
143.7886
 20
12.4012
 10
143.9355
 20
12.4012
 10
144.0825
 20
12.4012
 10
144.2295
 20
12.4012
 10
144.3765
 20
12.4012
 10
144.5235
 20
12.4012
 10
144.6704
 20
12.4012
 10
144.8174
 20
12.4012
 10
144.9644
 20
12.4012
 10
145.1114
 20
12.4012
 10
145.2583
 20
12.4012
 10
145.4053
 20
12.4012
 10
145.5523
 20
12.4012
 10
145.6993
 20
12.4012
 10
145.8463
 20
12.4012
 10
145.9932
 20
12.4012
 10
146.1402
 20
12.4012
 10
146.2872
 20
12.4012
 10
146.4342
 20
12.4012
 10
146.5812
 20
12.4012
 10
146.7281
 20
12.4012
 10
146.8751
 20
12.4012
 10
147.0221
 20
12.4012
 10
147.1691
 20
12.4012
 10
147.2539
 20
12.4753
 10
147.2488
 20
12.6482
 10
147.2382
 20
12.816
 10
147.2219
 20
12.9785
 10
147.2001
 20
13.1359
 10
147.1727
 20
13.2881
 10
147.1398
 20
13.4351
 10
147.1013
 20
13.5769
 10
147.0572
 20
13.7135
 10
147.0076
 20
13.8449
 10
146.9524
 20
13.9711
 10
146.8917
 20
14.0922
 10
146.8253
 20
14.208
 10
146.7535
 20
14.3186
 10
146.676
 20
14.4241
 10
146.593
 20
14.5244
 10
146.5002
 20
14.6237
 10
146.3992
 20
14.7196
 10
146.2931
 20
14.8083
 10
146.1818
 20
14.89
 10
146.0655
 20
14.9646
 10
145.944
 20
15.0321
 10
145.8174
 20
15.0925
 10
145.6857
 20
15.1459
 10
145.5488
 20
15.1921
 10
145.4069
 20
15.2314
 10
145.2598
 20
15.2635
 10
145.1076
 20
15.2885
 10
144.9503
 20
15.3065
 10
144.7879
 20
15.3174
 10
144.6204
 20
15.3212
 10
144.4562
 20
15.318
 10
144.2967
 20
15.3076
 10
144.1418
 20
15.2901
 10
143.9913
 20
15.2656
 10
143.8453
 20
15.2339
 10
143.7038
 20
15.1951
 10
143.5668
 20
15.1492
 10
143.4344
 20
15.0963
 10
143.3064
 20
15.0362
 10
143.1829
 20
14.969
 10
143.0639
 20
14.8948
 10
142.9495
 20
14.8134
 10
142.8395
 20
14.7249
 10
142.734
 20
14.6294
 10
142.6331
 20
14.5267
 10
142.5366
 20
14.4169
 10
142.4529
 20
14.3111
 10
142.3797
 20
14.2088
 10
142.3104
 20
14.1022
 10
142.2451
 20
13.9915
 10
142.1837
 20
13.8765
 10
142.1263
 20
13.7573
 10
142.0729
 20
13.6339
 10
142.0235
 20
13.5063
 10
141.9781
 20
13.3745
 10
141.9366
 20
13.2384
 10
141.8991
 20
13.0981
 10
141.8656
 20
12.9536
 10
141.836
 20
12.8049
 10
141.8104
 20
12.652
  0
LWPOLYLINE
  5
59
330
17
100
AcDbEntity
  8
OUTLINE
100
AcDbPolyline
 90
432
 70
1
 10
132.2302
 20
5.1199
 10
132.1048
 20
5.119
 10
131.98
 20
5.1187
 10
131.8264
 20
5.1197
 10
131.6744
 20
5.1224
 10
131.5241
 20
5.127
 10
131.3755
 20
5.1334
 10
131.2285
 20
5.1417
 10
131.0832
 20
5.1518
 10
130.9396
 20
5.1637
 10
130.7976
 20
5.1775
 10
130.6572
 20
5.1931
 10
130.5185
 20
5.2106
 10
130.3815
 20
5.2299
 10
130.2461
 20
5.251
 10
130.1124
 20
5.2739
 10
129.9803
 20
5.2987
 10
129.8499
 20
5.3254
 10
129.7212
 20
5.3538
 10
129.5941
 20
5.3841
 10
129.4686
 20
5.4163
 10
129.3448
 20
5.4503
 10
129.2227
 20
5.4861
 10
129.1022
 20
5.5237
 10
128.9834
 20
5.5632
 10
128.8663
 20
5.6045
 10
128.7508
 20
5.6477
 10
128.6369
 20
5.6927
 10
128.5247
 20
5.7395
 10
128.4142
 20
5.7882
 10
128.3053
 20
5.8387
 10
128.1981
 20
5.891
 10
128.0925
 20
5.9452
 10
127.9886
 20
6.0012
 10
127.8863
 20
6.0591
 10
127.7857
 20
6.1188
 10
127.6868
 20
6.1803
 10
127.5895
 20
6.2437
 10
127.4939
 20
6.3089
 10
127.3999
 20
6.3759
 10
127.3076
 20
6.4448
 10
127.2169
 20
6.5155
 10
127.1279
 20
6.588
 10
127.0406
 20
6.6624
 10
126.9549
 20
6.7386
 10
126.8691
 20
6.8183
 10
126.7837
 20
6.9014
 10
126.7004
 20
6.9862
 10
126.6193
 20
7.0728
 10
126.5403
 20
7.161
 10
126.4635
 20
7.2511
 10
126.3889
 20
7.3428
 10
126.3163
 20
7.4364
 10
126.246
 20
7.5316
 10
126.1777
 20
7.6286
 10
126.1117
 20
7.7273
 10
126.0477
 20
7.8278
 10
125.986
 20
7.93
 10
125.9263
 20
8.034
 10
125.8688
 20
8.1397
 10
125.8135
 20
8.2471
 10
125.7603
 20
8.3563
 10
125.7092
 20
8.4672
 10
125.6604
 20
8.5799
 10
125.6136
 20
8.6943
 10
125.569
 20
8.8105
 10
125.5265
 20
8.9284
 10
125.4862
 20
9.048
 10
125.4481
 20
9.1694
 10
125.4121
 20
9.2925
 10
125.3782
 20
9.4173
 10
125.3465
 20
9.5439
 10
125.3169
 20
9.6723
 10
125.2895
 20
9.8024
 10
125.2642
 20
9.9342
 10
125.2411
 20
10.0677
 10
125.2201
 20
10.203
 10
125.2013
 20
10.3401
 10
125.1846
 20
10.4789
 10
125.17
 20
10.6194
 10
125.1576
 20
10.7617
 10
125.1474
 20
10.9057
 10
125.1393
 20
11.0514
 10
125.1333
 20
11.1989
 10
125.1295
 20
11.3482
 10
125.1279
 20
11.4992
 10
125.1284
 20
11.6507
 10
125.1309
 20
11.8006
 10
125.1356
 20
11.9488
 10
125.1423
 20
12.0953
 10
125.1511
 20
12.2401
 10
125.162
 20
12.3832
 10
125.175
 20
12.5245
 10
125.1901
 20
12.6642
 10
125.2073
 20
12.8022
 10
125.2265
 20
12.9385
 10
125.2479
 20
13.073
 10
125.2713
 20
13.2059
 10
125.2968
 20
13.337
 10
125.3244
 20
13.4665
 10
125.3541
 20
13.5942
 10
125.3858
 20
13.7203
 10
125.4197
 20
13.8446
 10
125.4556
 20
13.9672
 10
125.4936
 20
14.0882
 10
125.5337
 20
14.2074
 10
125.5759
 20
14.3249
 10
125.6202
 20
14.4408
 10
125.6666
 20
14.5549
 10
125.715
 20
14.6673
 10
125.7656
 20
14.778
 10
125.8182
 20
14.887
 10
125.8729
 20
14.9943
 10
125.9297
 20
15.0999
 10
125.9885
 20
15.2038
 10
126.0495
 20
15.306
 10
126.1126
 20
15.4065
 10
126.1777
 20
15.5052
 10
126.2449
 20
15.6023
 10
126.3142
 20
15.6977
 10
126.3856
 20
15.7914
 10
126.4591
 20
15.8833
 10
126.5346
 20
15.9736
 10
126.6123
 20
16.0621
 10
126.692
 20
16.149
 10
126.7738
 20
16.2342
 10
126.8571
 20
16.3169
 10
126.942
 20
16.3975
 10
127.0288
 20
16.4761
 10
127.1173
 20
16.5525
 10
127.2075
 20
16.6269
 10
127.2996
 20
16.6991
 10
127.3934
 20
16.7693
 10
127.489
 20
16.8374
 10
127.5863
 20
16.9035
 10
127.6854
 20
16.9674
 10
127.7863
 20
17.0292
 10
127.8889
 20
17.089
 10
127.9933
 20
17.1467
 10
128.0995
 20
17.2023
 10
128.2074
 20
17.2558
 10
128.3172
 20
17.3072
 10
128.4286
 20
17.3565
 10
128.5419
 20
17.4037
 10
128.6569
 20
17.4489
 10
128.7737
 20
17.492
 10
128.8922
 20
17.533
 10
129.0125
 20
17.5718
 10
129.1346
 20
17.6087
 10
129.2585
 20
17.6434
 10
129.3841
 20
17.676
 10
129.5115
 20
17.7066
 10
129.6406
 20
17.7351
 10
129.7715
 20
17.7614
 10
129.9042
 20
17.7857
 10
130.0387
 20
17.8079
 10
130.1749
 20
17.8281
 10
130.3129
 20
17.8461
 10
130.4527
 20
17.862
 10
130.5942
 20
17.8759
 10
130.7375
 20
17.8877
 10
130.8825
 20
17.8974
 10
131.0294
 20
17.905
 10
131.1779
 20
17.9105
 10
131.3283
 20
17.9139
 10
131.4804
 20
17.9153
 10
131.6261
 20
17.9145
 10
131.769
 20
17.9116
 10
131.9103
 20
17.9066
 10
132.05
 20
17.8994
 10
132.188
 20
17.89
 10
132.3245
 20
17.8785
 10
132.4592
 20
17.8649
 10
132.5924
 20
17.8491
 10
132.724
 20
17.8312
 10
132.8539
 20
17.8111
 10
132.9822
 20
17.7889
 10
133.1088
 20
17.7645
 10
133.2339
 20
17.738
 10
133.3573
 20
17.7093
 10
133.4791
 20
17.6785
 10
133.5993
 20
17.6456
 10
133.7178
 20
17.6104
 10
133.8348
 20
17.5732
 10
133.9501
 20
17.5338
 10
134.0637
 20
17.4923
 10
134.1758
 20
17.4486
 10
134.2862
 20
17.4027
 10
134.395
 20
17.3547
 10
134.5022
 20
17.3046
 10
134.6078
 20
17.2523
 10
134.7124
 20
17.1975
 10
134.832
 20
17.131
 10
134.9484
 20
17.0621
 10
135.0616
 20
16.9907
 10
135.1716
 20
16.9169
 10
135.2784
 20
16.8407
 10
135.382
 20
16.762
 10
135.4824
 20
16.6809
 10
135.5796
 20
16.5973
 10
135.6735
 20
16.5113
 10
135.7642
 20
16.4229
 10
135.8518
 20
16.332
 10
135.9361
 20
16.2386
 10
136.0172
 20
16.1429
 10
136.0951
 20
16.0447
 10
136.1698
 20
15.944
 10
136.2413
 20
15.8409
 10
136.3096
 20
15.7354
 10
136.3746
 20
15.6275
 10
136.4365
 20
15.5171
 10
136.4951
 20
15.4042
 10
136.5505
 20
15.2889
 10
136.5896
 20
15.1747
 10
136.4883
 20
15.0955
 10
136.3871
 20
15.0164
 10
136.2858
 20
14.9373
 10
136.1845
 20
14.8582
 10
136.0833
 20
14.7791
 10
135.982
 20
14.7
 10
135.8807
 20
14.6208
 10
135.7795
 20
14.5417
 10
135.6782
 20
14.4626
 10
135.5769
 20
14.3835
 10
135.4757
 20
14.3044
 10
135.3744
 20
14.2252
 10
135.2731
 20
14.1461
 10
135.1719
 20
14.067
 10
135.0706
 20
13.9879
 10
134.9694
 20
13.9088
 10
134.8681
 20
13.8296
 10
134.7668
 20
13.7505
 10
134.6656
 20
13.6714
 10
134.5643
 20
13.5923
 10
134.4649
 20
13.5253
 10
134.3921
 20
13.6382
 10
134.3165
 20
13.7475
 10
134.2382
 20
13.8531
 10
134.1571
 20
13.955
 10
134.0732
 20
14.0533
 10
133.9866
 20
14.1479
 10
133.8972
 20
14.2388
 10
133.8051
 20
14.3261
 10
133.7102
 20
14.4097
 10
133.6125
 20
14.4896
 10
133.5121
 20
14.5659
 10
133.4089
 20
14.6385
 10
133.3029
 20
14.7074
 10
133.1942
 20
14.7727
 10
133.0822
 20
14.8346
 10
132.9683
 20
14.8923
 10
132.8528
 20
14.9456
 10
132.7358
 20
14.9944
 10
132.6172
 20
15.0388
 10
132.4971
 20
15.0788
 10
132.3754
 20
15.1143
 10
132.2522
 20
15.1454
 10
132.1274
 20
15.1721
 10
132.001
 20
15.1944
 10
131.8731
 20
15.2122
 10
131.7437
 20
15.2256
 10
131.6127
 20
15.2346
 10
131.4801
 20
15.2391
 10
131.3391
 20
15.2393
 10
131.1923
 20
15.2352
 10
131.0486
 20
15.227
 10
130.9081
 20
15.2146
 10
130.7707
 20
15.198
 10
130.6364
 20
15.1772
 10
130.5052
 20
15.1523
 10
130.3772
 20
15.1231
 10
130.2523
 20
15.0898
 10
130.1306
 20
15.0524
 10
130.012
 20
15.0107
 10
129.8965
 20
14.9649
 10
129.7841
 20
14.9149
 10
129.6749
 20
14.8608
 10
129.5688
 20
14.8025
 10
129.4658
 20
14.7399
 10
129.3659
 20
14.6733
 10
129.2692
 20
14.6024
 10
129.1757
 20
14.5274
 10
129.0852
 20
14.4482
 10
128.9979
 20
14.3648
 10
128.9153
 20
14.279
 10
128.8391
 20
14.1928
 10
128.7664
 20
14.1034
 10
128.6973
 20
14.0109
 10
128.6318
 20
13.9151
 10
128.5698
 20
13.8162
 10
128.5113
 20
13.7141
 10
128.4564
 20
13.6088
 10
128.4051
 20
13.5004
 10
128.3573
 20
13.3887
 10
128.3131
 20
13.2739
 10
128.2724
 20
13.1559
 10
128.2353
 20
13.0347
 10
128.2017
 20
12.9104
 10
128.1717
 20
12.7828
 10
128.1452
 20
12.6521
 10
128.1223
 20
12.5182
 10
128.103
 20
12.3811
 10
128.0872
 20
12.2409
 10
128.075
 20
12.0974
 10
128.0663
 20
11.9508
 10
128.0612
 20
11.801
 10
128.0596
 20
11.6481
 10
128.0616
 20
11.4968
 10
128.0671
 20
11.3485
 10
128.0763
 20
11.2031
 10
128.089
 20
11.0607
 10
128.1053
 20
10.9212
 10
128.1252
 20
10.7847
 10
128.1487
 20
10.6511
 10
128.1758
 20
10.5204
 10
128.2064
 20
10.3928
 10
128.2406
 20
10.268
 10
128.2784
 20
10.1462
 10
128.3198
 20
10.0274
 10
128.3648
 20
9.9115
 10
128.4133
 20
9.7985
 10
128.4654
 20
9.6886
 10
128.5212
 20
9.5815
 10
128.5804
 20
9.4774
 10
128.6433
 20
9.3763
 10
128.7097
 20
9.2781
 10
128.7798
 20
9.1828
 10
128.8534
 20
9.0905
 10
128.9306
 20
9.0011
 10
129.0113
 20
8.9147
 10
129.0957
 20
8.8313
 10
129.1817
 20
8.7525
 10
129.2678
 20
8.679
 10
129.3567
 20
8.6086
 10
129.4484
 20
8.541
 10
129.5429
 20
8.4764
 10
129.6401
 20
8.4147
 10
129.7402
 20
8.3559
 10
129.8429
 20
8.3
 10
129.9485
 20
8.2471
 10
130.0568
 20
8.1971
 10
130.1679
 20
8.15
 10
130.2818
 20
8.1059
 10
130.3984
 20
8.0646
 10
130.5178
 20
8.0263
 10
130.64
 20
7.991
 10
130.7649
 20
7.9585
 10
130.8927
 20
7.929
 10
131.0231
 20
7.9024
 10
131.1564
 20
7.8787
 10
131.2924
 20
7.8579
 10
131.4312
 20
7.8401
 10
131.5728
 20
7.8252
 10
131.7172
 20
7.8132
 10
131.8643
 20
7.8042
 10
132.0142
 20
7.798
 10
132.1668
 20
7.7948
 10
132.3111
 20
7.7944
 10
132.4398
 20
7.7952
 10
132.5685
 20
7.797
 10
132.697
 20
7.7997
 10
132.8255
 20
7.8034
 10
132.9539
 20
7.808
 10
133.0823
 20
7.8135
 10
133.2106
 20
7.82
 10
133.3388
 20
7.8274
 10
133.4669
 20
7.8357
 10
133.595
 20
7.845
 10
133.7231
 20
7.8552
 10
133.851
 20
7.8664
 10
133.9794
 20
7.8785
 10
134.1096
 20
7.8916
 10
134.2392
 20
7.9054
 10
134.3684
 20
7.9199
 10
134.4971
 20
7.9351
 10
134.6253
 20
7.951
 10
134.753
 20
7.9675
 10
134.8802
 20
7.9848
 10
135.0069
 20
8.0028
 10
135.1331
 20
8.0215
 10
135.2589
 20
8.0408
 10
135.3841
 20
8.0609
 10
135.5089
 20
8.0817
 10
135.6021
 20
8.0607
 10
135.6168
 20
7.9331
 10
135.6315
 20
7.8054
 10
135.6462
 20
7.6777
 10
135.6609
 20
7.5501
 10
135.6755
 20
7.4224
 10
135.6902
 20
7.2947
 10
135.7049
 20
7.1671
 10
135.7196
 20
7.0394
 10
135.7343
 20
6.9117
 10
135.749
 20
6.7841
 10
135.7636
 20
6.6564
 10
135.7783
 20
6.5287
 10
135.793
 20
6.4011
 10
135.8077
 20
6.2734
 10
135.8224
 20
6.1457
 10
135.8371
 20
6.0181
 10
135.8517
 20
5.8904
 10
135.8664
 20
5.7627
 10
135.8811
 20
5.6351
 10
135.8958
 20
5.5074
 10
135.8159
 20
5.4492
 10
135.6926
 20
5.4234
 10
135.5687
 20
5.3987
 10
135.4442
 20
5.3753
 10
135.3192
 20
5.353
 10
135.1936
 20
5.3319
 10
135.0674
 20
5.312
 10
134.9406
 20
5.2932
 10
134.8132
 20
5.2757
 10
134.6852
 20
5.2593
 10
134.5566
 20
5.2441
 10
134.4275
 20
5.23
 10
134.2977
 20
5.2172
 10
134.1674
 20
5.2055
 10
134.0365
 20
5.195
 10
133.9048
 20
5.1856
 10
133.773
 20
5.177
 10
133.6417
 20
5.169
 10
133.5109
 20
5.1616
 10
133.3806
 20
5.1547
 10
133.2508
 20
5.1485
 10
133.1215
 20
5.1428
 10
132.9927
 20
5.1378
 10
132.8643
 20
5.1333
 10
132.7365
 20
5.1294
 10
132.6092
 20
5.1262
 10
132.4823
 20
5.1235
 10
132.356
 20
5.1214
  0
LWPOLYLINE
  5
5A
330
17
100
AcDbEntity
  8
OUTLINE
100
AcDbPolyline
 90
366
 70
1
 10
72.5337
 20
11.2672
 10
72.5337
 20
11.0161
 10
72.5337
 20
10.765
 10
72.5337
 20
10.5138
 10
72.5337
 20
10.2627
 10
72.5337
 20
10.0116
 10
72.5337
 20
9.7605
 10
72.5337
 20
9.5093
 10
72.5337
 20
9.2582
 10
72.5337
 20
9.0071
 10
72.5337
 20
8.756
 10
72.5337
 20
8.5049
 10
72.5337
 20
8.2537
 10
72.5337
 20
8.0026
 10
72.5337
 20
7.7515
 10
72.5337
 20
7.5004
 10
72.5337
 20
7.2492
 10
72.5337
 20
6.9981
 10
72.5337
 20
6.747
 10
72.5337
 20
6.4959
 10
72.5337
 20
6.2447
 10
72.5337
 20
5.9936
 10
72.5337
 20
5.7425
 10
72.5337
 20
5.4914
 10
72.4226
 20
5.3514
 10
72.1714
 20
5.3514
 10
71.9203
 20
5.3514
 10
71.6692
 20
5.3514
 10
71.4181
 20
5.3514
 10
71.1669
 20
5.3514
 10
70.9158
 20
5.3514
 10
70.6647
 20
5.3514
 10
70.4136
 20
5.3514
 10
70.1625
 20
5.3514
 10
69.9113
 20
5.3514
 10
69.6602
 20
5.3514
 10
69.6602
 20
5.6025
 10
69.6602
 20
5.8537
 10
69.6602
 20
6.1048
 10
69.6602
 20
6.3559
 10
69.6602
 20
6.607
 10
69.6602
 20
6.8582
 10
69.6602
 20
7.1093
 10
69.6602
 20
7.3604
 10
69.6602
 20
7.6115
 10
69.6602
 20
7.8626
 10
69.6602
 20
8.1138
 10
69.6602
 20
8.3649
 10
69.6602
 20
8.616
 10
69.6602
 20
8.8671
 10
69.6602
 20
9.1183
 10
69.6602
 20
9.3694
 10
69.6602
 20
9.6205
 10
69.6602
 20
9.8716
 10
69.6602
 20
10.1228
 10
69.6602
 20
10.3739
 10
69.6602
 20
10.625
 10
69.6602
 20
10.8761
 10
69.6602
 20
11.1272
 10
69.6602
 20
11.3784
 10
69.6602
 20
11.6295
 10
69.6602
 20
11.8806
 10
69.6602
 20
12.1317
 10
69.6602
 20
12.3829
 10
69.6602
 20
12.634
 10
69.6602
 20
12.8851
 10
69.6602
 20
13.1362
 10
69.6602
 20
13.3874
 10
69.6602
 20
13.6385
 10
69.6602
 20
13.8896
 10
69.6602
 20
14.1407
 10
69.6602
 20
14.3919
 10
69.6602
 20
14.643
 10
69.6602
 20
14.8941
 10
69.6602
 20
15.1452
 10
69.6602
 20
15.3963
 10
69.6602
 20
15.6475
 10
69.6602
 20
15.8986
 10
69.6602
 20
16.1497
 10
69.6602
 20
16.4008
 10
69.6602
 20
16.652
 10
69.6602
 20
16.9031
 10
69.6602
 20
17.1542
 10
69.6602
 20
17.4053
 10
69.6602
 20
17.6565
 10
69.8851
 20
17.6827
 10
70.1363
 20
17.6827
 10
70.3874
 20
17.6827
 10
70.6385
 20
17.6827
 10
70.8896
 20
17.6827
 10
71.1407
 20
17.6827
 10
71.3919
 20
17.6827
 10
71.643
 20
17.6827
 10
71.8941
 20
17.6827
 10
72.1452
 20
17.6827
 10
72.2599
 20
17.5301
 10
72.2877
 20
17.2805
 10
72.3156
 20
17.0309
 10
72.3434
 20
16.7813
 10
72.3713
 20
16.5318
 10
72.3992
 20
16.2822
 10
72.427
 20
16.0326
 10
72.4549
 20
15.783
 10
72.4827
 20
15.5335
 10
72.4922
 20
15.4492
 10
72.5937
 20
15.4492
 10
72.7425
 20
15.4492
 10
72.8241
 20
15.5413
 10
72.85
 20
15.7112
 10
72.8818
 20
15.8748
 10
72.9194
 20
16.0319
 10
72.963
 20
16.1827
 10
73.0124
 20
16.3271
 10
73.0678
 20
16.4652
 10
73.129
 20
16.5969
 10
73.1962
 20
16.7222
 10
73.2692
 20
16.8411
 10
73.3482
 20
16.9537
 10
73.433
 20
17.0599
 10
73.5238
 20
17.1597
 10
73.6204
 20
17.2532
 10
73.7193
 20
17.3372
 10
73.8189
 20
17.4116
 10
73.9244
 20
17.4808
 10
74.036
 20
17.5449
 10
74.1536
 20
17.6039
 10
74.2772
 20
17.6578
 10
74.4067
 20
17.7065
 10
74.5423
 20
17.7502
 10
74.6838
 20
17.7887
 10
74.8313
 20
17.8221
 10
74.9848
 20
17.8505
 10
75.1443
 20
17.8737
 10
75.3098
 20
17.8917
 10
75.4813
 20
17.9047
 10
75.6588
 20
17.9126
 10
75.8422
 20
17.9153
 10
76.0147
 20
17.9131
 10
76.1831
 20
17.9063
 10
76.3481
 20
17.8948
 10
76.5096
 20
17.8786
 10
76.6676
 20
17.8577
 10
76.8221
 20
17.8321
 10
76.9731
 20
17.8019
 10
77.1206
 20
17.767
 10
77.2647
 20
17.7274
 10
77.4053
 20
17.6831
 10
77.5423
 20
17.6342
 10
77.6759
 20
17.5806
 10
77.806
 20
17.5223
 10
77.9326
 20
17.4593
 10
78.0558
 20
17.3916
 10
78.1754
 20
17.3193
 10
78.2915
 20
17.2423
 10
78.4042
 20
17.1606
 10
78.5134
 20
17.0742
 10
78.6191
 20
16.9831
 10
78.7213
 20
16.8874
 10
78.82
 20
16.787
 10
78.9124
 20
16.6852
 10
78.9974
 20
16.584
 10
79.0788
 20
16.4794
 10
79.1566
 20
16.3714
 10
79.2307
 20
16.2601
 10
79.3011
 20
16.1455
 10
79.3679
 20
16.0276
 10
79.431
 20
15.9062
 10
79.4905
 20
15.7816
 10
79.5463
 20
15.6536
 10
79.5984
 20
15.5223
 10
79.6469
 20
15.3876
 10
79.6917
 20
15.2496
 10
79.7329
 20
15.1082
 10
79.7704
 20
14.9636
 10
79.8042
 20
14.8155
 10
79.8344
 20
14.6641
 10
79.8609
 20
14.5094
 10
79.8838
 20
14.3514
 10
79.903
 20
14.19
 10
79.9185
 20
14.0252
 10
79.9304
 20
13.8572
 10
79.9386
 20
13.6857
 10
79.9432
 20
13.511
 10
79.9442
 20
13.3406
 10
79.9442
 20
13.1918
 10
79.9442
 20
13.043
 10
79.9442
 20
12.8942
 10
79.9442
 20
12.7454
 10
79.9442
 20
12.5966
 10
79.9442
 20
12.4478
 10
79.9442
 20
12.299
 10
79.9442
 20
12.1502
 10
79.9442
 20
12.0014
 10
79.9442
 20
11.8526
 10
79.9442
 20
11.7038
 10
79.9442
 20
11.555
 10
79.9442
 20
11.4062
 10
79.9442
 20
11.2574
 10
79.9442
 20
11.1086
 10
79.9442
 20
10.9598
 10
79.9442
 20
10.8109
 10
79.9442
 20
10.6621
 10
79.9442
 20
10.5133
 10
79.9442
 20
10.3645
 10
79.9442
 20
10.2157
 10
79.9442
 20
10.0669
 10
79.9442
 20
9.9181
 10
79.9442
 20
9.7693
 10
79.9442
 20
9.6205
 10
79.9442
 20
9.4717
 10
79.9442
 20
9.3229
 10
79.9442
 20
9.1741
 10
79.9442
 20
9.0253
 10
79.9442
 20
8.8765
 10
79.9442
 20
8.7277
 10
79.9442
 20
8.5789
 10
79.9442
 20
8.4301
 10
79.9442
 20
8.2813
 10
79.9442
 20
8.1325
 10
79.9442
 20
7.9837
 10
79.9442
 20
7.8349
 10
79.9442
 20
7.6861
 10
79.9442
 20
7.5372
 10
79.9442
 20
7.3884
 10
79.9442
 20
7.2396
 10
79.9442
 20
7.0908
 10
79.9442
 20
6.942
 10
79.9442
 20
6.7932
 10
79.9442
 20
6.6444
 10
79.9442
 20
6.4956
 10
79.9442
 20
6.3468
 10
79.9442
 20
6.198
 10
79.9442
 20
6.0492
 10
79.9442
 20
5.9004
 10
79.9442
 20
5.7516
 10
79.9442
 20
5.6028
 10
79.9442
 20
5.454
 10
79.8979
 20
5.3514
 10
79.7491
 20
5.3514
 10
79.6003
 20
5.3514
 10
79.4515
 20
5.3514
 10
79.3027
 20
5.3514
 10
79.1539
 20
5.3514
 10
79.0051
 20
5.3514
 10
78.8563
 20
5.3514
 10
78.7075
 20
5.3514
 10
78.5587
 20
5.3514
 10
78.4099
 20
5.3514
 10
78.2611
 20
5.3514
 10
78.1123
 20
5.3514
 10
77.9635
 20
5.3514
 10
77.8147
 20
5.3514
 10
77.6659
 20
5.3514
 10
77.5171
 20
5.3514
 10
77.3683
 20
5.3514
 10
77.2195
 20
5.3514
 10
77.0707
 20
5.3514
 10
77.0707
 20
5.5002
 10
77.0707
 20
5.649
 10
77.0707
 20
5.7978
 10
77.0707
 20
5.9466
 10
77.0707
 20
6.0954
 10
77.0707
 20
6.2442
 10
77.0707
 20
6.393
 10
77.0707
 20
6.5418
 10
77.0707
 20
6.6907
 10
77.0707
 20
6.8395
 10
77.0707
 20
6.9883
 10
77.0707
 20
7.1371
 10
77.0707
 20
7.2859
 10
77.0707
 20
7.4347
 10
77.0707
 20
7.5835
 10
77.0707
 20
7.7323
 10
77.0707
 20
7.8811
 10
77.0707
 20
8.0299
 10
77.0707
 20
8.1787
 10
77.0707
 20
8.3275
 10
77.0707
 20
8.4763
 10
77.0707
 20
8.6251
 10
77.0707
 20
8.7739
 10
77.0707
 20
8.9227
 10
77.0707
 20
9.0715
 10
77.0707
 20
9.2203
 10
77.0707
 20
9.3691
 10
77.0707
 20
9.5179
 10
77.0707
 20
9.6667
 10
77.0707
 20
9.8155
 10
77.0707
 20
9.9644
 10
77.0707
 20
10.1132
 10
77.0707
 20
10.262
 10
77.0707
 20
10.4108
 10
77.0707
 20
10.5596
 10
77.0707
 20
10.7084
 10
77.0707
 20
10.8572
 10
77.0707
 20
11.006
 10
77.0707
 20
11.1548
 10
77.0707
 20
11.3036
 10
77.0707
 20
11.4524
 10
77.0707
 20
11.6012
 10
77.0707
 20
11.75
 10
77.0707
 20
11.8988
 10
77.0707
 20
12.0476
 10
77.0707
 20
12.1964
 10
77.0707
 20
12.3452
 10
77.0707
 20
12.494
 10
77.0707
 20
12.6428
 10
77.0707
 20
12.7916
 10
77.0705
 20
12.9463
 10
77.0659
 20
13.1229
 10
77.0546
 20
13.2929
 10
77.0365
 20
13.456
 10
77.0117
 20
13.6124
 10
76.9801
 20
13.7621
 10
76.9418
 20
13.905
 10
76.8967
 20
14.0412
 10
76.8449
 20
14.1706
 10
76.7864
 20
14.2933
 10
76.7211
 20
14.4093
 10
76.6491
 20
14.5185
 10
76.5703
 20
14.621
 10
76.4752
 20
14.7267
 10
76.3714
 20
14.824
 10
76.2606
 20
14.9112
 10
76.1426
 20
14.9881
 10
76.0176
 20
15.0547
 10
75.8855
 20
15.1111
 10
75.7463
 20
15.1573
 10
75.6
 20
15.1933
 10
75.4466
 20
15.219
 10
75.2862
 20
15.2345
 10
75.1186
 20
15.2398
 10
74.9636
 20
15.2367
 10
74.8136
 20
15.2273
 10
74.6683
 20
15.2115
 10
74.5278
 20
15.1894
 10
74.3921
 20
15.161
 10
74.2612
 20
15.1263
 10
74.135
 20
15.0852
 10
74.0137
 20
15.0378
 10
73.8971
 20
14.984
 10
73.7853
 20
14.924
 10
73.6783
 20
14.8576
 10
73.5761
 20
14.7848
 10
73.4786
 20
14.7058
 10
73.386
 20
14.6203
 10
73.2981
 20
14.5286
 10
73.215
 20
14.4305
 10
73.1366
 20
14.3261
 10
73.0631
 20
14.2154
 10
72.9943
 20
14.0983
 10
72.9304
 20
13.9749
 10
72.8712
 20
13.8452
 10
72.8167
 20
13.7091
 10
72.7671
 20
13.5667
 10
72.7223
 20
13.418
 10
72.6822
 20
13.2629
 10
72.6469
 20
13.1015
 10
72.6164
 20
12.9338
 10
72.5907
 20
12.7597
 10
72.5697
 20
12.5794
 10
72.5536
 20
12.3926
 10
72.5422
 20
12.1996
 10
72.5356
 20
12.0002
 10
72.5337
 20
11.9434
 10
72.5337
 20
11.7695
 10
72.5337
 20
11.5183
  0
LWPOLYLINE
  5
5B
330
17
100
AcDbEntity
  8
OUTLINE
100
AcDbPolyline
 90
648
 70
1
 10
88.4699
 20
5.1214
 10
88.3318
 20
5.1194
 10
88.1921
 20
5.1187
 10
88.0755
 20
5.1191
 10
87.9594
 20
5.1203
 10
87.8437
 20
5.1223
 10
87.7284
 20
5.1251
 10
87.6136
 20
5.1287
 10
87.4991
 20
5.1332
 10
87.3851
 20
5.1384
 10
87.2715
 20
5.1444
 10
87.1583
 20
5.1512
 10
87.0456
 20
5.1588
 10
86.9332
 20
5.1672
 10
86.8213
 20
5.1764
 10
86.7098
 20
5.1864
 10
86.5987
 20
5.1972
 10
86.4881
 20
5.2088
 10
86.3778
 20
5.2212
 10
86.268
 20
5.2344
 10
86.1586
 20
5.2484
 10
86.0496
 20
5.2632
 10
85.9411
 20
5.2788
 10
85.8329
 20
5.2952
 10
85.7252
 20
5.3124
 10
85.6179
 20
5.3305
 10
85.511
 20
5.3493
 10
85.3942
 20
5.3708
 10
85.2769
 20
5.3935
 10
85.1607
 20
5.4171
 10
85.0455
 20
5.4416
 10
84.9314
 20
5.467
 10
84.8182
 20
5.4933
 10
84.7061
 20
5.5204
 10
84.595
 20
5.5485
 10
84.4849
 20
5.5774
 10
84.3758
 20
5.6073
 10
84.2677
 20
5.638
 10
84.1607
 20
5.6696
 10
84.0546
 20
5.7021
 10
83.9496
 20
5.7356
 10
83.8456
 20
5.7698
 10
83.7426
 20
5.805
 10
83.6406
 20
5.8411
 10
83.5397
 20
5.8781
 10
83.4398
 20
5.9159
 10
83.3408
 20
5.9547
 10
83.2429
 20
5.9943
 10
83.1697
 20
6.0498
 10
83.1843
 20
6.1611
 10
83.199
 20
6.2724
 10
83.2136
 20
6.3837
 10
83.2283
 20
6.495
 10
83.2429
 20
6.6063
 10
83.2576
 20
6.7176
 10
83.2722
 20
6.8289
 10
83.2869
 20
6.9402
 10
83.3015
 20
7.0515
 10
83.3162
 20
7.1628
 10
83.3308
 20
7.2741
 10
83.3455
 20
7.3853
 10
83.3601
 20
7.4966
 10
83.3748
 20
7.6079
 10
83.3894
 20
7.7192
 10
83.4041
 20
7.8305
 10
83.4187
 20
7.9418
 10
83.4334
 20
8.0531
 10
83.448
 20
8.1644
 10
83.4627
 20
8.2757
 10
83.4773
 20
8.387
 10
83.492
 20
8.4983
 10
83.5066
 20
8.6096
 10
83.5213
 20
8.7208
 10
83.5359
 20
8.8321
 10
83.6267
 20
8.8156
 10
83.7349
 20
8.7706
 10
83.843
 20
8.7264
 10
83.9508
 20
8.6832
 10
84.0585
 20
8.641
 10
84.166
 20
8.5997
 10
84.2734
 20
8.5593
 10
84.3805
 20
8.5199
 10
84.4876
 20
8.4814
 10
84.5944
 20
8.4438
 10
84.7011
 20
8.4072
 10
84.8076
 20
8.3715
 10
84.914
 20
8.3368
 10
85.0201
 20
8.303
 10
85.1261
 20
8.2701
 10
85.232
 20
8.2382
 10
85.3377
 20
8.2072
 10
85.4432
 20
8.1771
 10
85.5485
 20
8.148
 10
85.6537
 20
8.1198
 10
85.7587
 20
8.0926
 10
85.8635
 20
8.0663
 10
85.9682
 20
8.0409
 10
86.0754
 20
8.0159
 10
86.1928
 20
7.9896
 10
86.3095
 20
7.9645
 10
86.4256
 20
7.9408
 10
86.5411
 20
7.9184
 10
86.656
 20
7.8973
 10
86.7702
 20
7.8775
 10
86.8838
 20
7.859
 10
86.9967
 20
7.8417
 10
87.109
 20
7.8258
 10
87.2207
 20
7.8112
 10
87.3317
 20
7.7979
 10
87.4421
 20
7.7859
 10
87.5518
 20
7.7752
 10
87.661
 20
7.7658
 10
87.7694
 20
7.7577
 10
87.8773
 20
7.7509
 10
87.9845
 20
7.7454
 10
88.0911
 20
7.7412
 10
88.197
 20
7.7383
 10
88.3023
 20
7.7367
 10
88.4173
 20
7.7364
 10
88.557
 20
7.7384
 10
88.6931
 20
7.743
 10
88.8257
 20
7.7501
 10
88.9548
 20
7.7599
 10
89.0803
 20
7.7721
 10
89.2023
 20
7.787
 10
89.3207
 20
7.8044
 10
89.4356
 20
7.8244
 10
89.547
 20
7.847
 10
89.6548
 20
7.8721
 10
89.759
 20
7.8999
 10
89.8598
 20
7.9301
 10
89.9569
 20
7.963
 10
90.0506
 20
7.9984
 10
90.1407
 20
8.0364
 10
90.2272
 20
8.077
 10
90.3102
 20
8.1202
 10
90.3897
 20
8.1659
 10
90.4656
 20
8.2142
 10
90.5523
 20
8.2758
 10
90.6401
 20
8.3464
 10
90.7216
 20
8.421
 10
90.7967
 20
8.4998
 10
90.8655
 20
8.5826
 10
90.9279
 20
8.6695
 10
90.984
 20
8.7604
 10
91.0338
 20
8.8555
 10
91.0772
 20
8.9546
 10
91.1143
 20
9.0577
 10
91.145
 20
9.165
 10
91.1694
 20
9.2763
 10
91.1875
 20
9.3917
 10
91.1992
 20
9.5111
 10
91.2046
 20
9.6347
 10
91.2038
 20
9.7505
 10
91.1973
 20
9.8588
 10
91.1852
 20
9.9646
 10
91.1675
 20
10.0682
 10
91.1441
 20
10.1694
 10
91.115
 20
10.2682
 10
91.0804
 20
10.3646
 10
91.04
 20
10.4587
 10
90.9941
 20
10.5505
 10
90.9425
 20
10.6399
 10
90.8853
 20
10.7269
 10
90.8224
 20
10.8116
 10
90.7539
 20
10.8939
 10
90.6798
 20
10.9739
 10
90.6
 20
11.0515
 10
90.5146
 20
11.1268
 10
90.4235
 20
11.1996
 10
90.3268
 20
11.2702
 10
90.2245
 20
11.3384
 10
90.1165
 20
11.4042
 10
90.0029
 20
11.4677
 10
89.8837
 20
11.5288
 10
89.7643
 20
11.5855
 10
89.6629
 20
11.6337
 10
89.5615
 20
11.6818
 10
89.4601
 20
11.73
 10
89.3587
 20
11.7782
 10
89.2573
 20
11.8264
 10
89.1559
 20
11.8745
 10
89.0546
 20
11.9227
 10
88.9532
 20
11.9709
 10
88.8518
 20
12.0191
 10
88.7504
 20
12.0672
 10
88.649
 20
12.1154
 10
88.5476
 20
12.1636
 10
88.4462
 20
12.2118
 10
88.3448
 20
12.2599
 10
88.2434
 20
12.3081
 10
88.1421
 20
12.3563
 10
88.0407
 20
12.4045
 10
87.9393
 20
12.4527
 10
87.8379
 20
12.5008
 10
87.7365
 20
12.549
 10
87.6351
 20
12.5972
 10
87.5337
 20
12.6454
 10
87.4323
 20
12.6935
 10
87.331
 20
12.7417
 10
87.2296
 20
12.7899
 10
87.1169
 20
12.8435
 10
87.004
 20
12.8988
 10
86.8928
 20
12.955
 10
86.7834
 20
13.012
 10
86.6757
 20
13.0699
 10
86.5698
 20
13.1286
 10
86.4657
 20
13.1882
 10
86.3633
 20
13.2486
 10
86.2628
 20
13.3099
 10
86.1639
 20
13.3721
 10
86.0669
 20
13.435
 10
85.9716
 20
13.4989
 10
85.878
 20
13.5635
 10
85.7863
 20
13.6291
 10
85.6963
 20
13.6955
 10
85.608
 20
13.7627
 10
85.5215
 20
13.8308
 10
85.4368
 20
13.8997
 10
85.3539
 20
13.9695
 10
85.2727
 20
14.0401
 10
85.1933
 20
14.1116
 10
85.1156
 20
14.1839
 10
85.0397
 20
14.2571
 10
84.9656
 20
14.3312
 10
84.8933
 20
14.406
 10
84.8227
 20
14.4818
 10
84.7538
 20
14.5584
 10
84.6868
 20
14.6358
 10
84.6215
 20
14.7141
 10
84.5579
 20
14.7932
 10
84.4896
 20
14.8819
 10
84.4223
 20
14.9739
 10
84.3576
 20
15.0669
 10
84.2956
 20
15.1609
 10
84.2363
 20
15.2559
 10
84.1796
 20
15.352
 10
84.1257
 20
15.4491
 10
84.0744
 20
15.5473
 10
84.0258
 20
15.6464
 10
83.9798
 20
15.7466
 10
83.9366
 20
15.8479
 10
83.896
 20
15.9502
 10
83.8581
 20
16.0535
 10
83.8229
 20
16.1578
 10
83.7903
 20
16.2632
 10
83.7605
 20
16.3696
 10
83.7333
 20
16.477
 10
83.7088
 20
16.5855
 10
83.687
 20
16.695
 10
83.6678
 20
16.8055
 10
83.6514
 20
16.9171
 10
83.6376
 20
17.0297
 10
83.6265
 20
17.1433
 10
83.618
 20
17.2579
 10
83.6123
 20
17.3736
 10
83.6092
 20
17.4904
 10
83.6088
 20
17.6121
 10
83.6109
 20
17.7403
 10
83.6155
 20
17.8668
 10
83.6226
 20
17.9915
 10
83.6321
 20
18.1145
 10
83.6441
 20
18.2357
 10
83.6586
 20
18.3551
 10
83.6756
 20
18.4728
 10
83.6951
 20
18.5888
 10
83.717
 20
18.7029
 10
83.7414
 20
18.8154
 10
83.7683
 20
18.926
 10
83.7977
 20
19.0349
 10
83.8295
 20
19.1421
 10
83.8638
 20
19.2475
 10
83.9006
 20
19.3511
 10
83.9399
 20
19.453
 10
83.9816
 20
19.5531
 10
84.0259
 20
19.6515
 10
84.0726
 20
19.7481
 10
84.1217
 20
19.843
 10
84.1734
 20
19.9361
 10
84.2275
 20
20.0274
 10
84.2842
 20
20.117
 10
84.3432
 20
20.2049
 10
84.4048
 20
20.2909
 10
84.4689
 20
20.3753
 10
84.5354
 20
20.4578
 10
84.6044
 20
20.5386
 10
84.6759
 20
20.6177
 10
84.7498
 20
20.695
 10
84.8262
 20
20.7705
 10
84.9051
 20
20.8443
 10
84.9865
 20
20.9164
 10
85.0617
 20
20.9795
 10
85.1384
 20
21.0408
 10
85.2168
 20
21.1005
 10
85.2969
 20
21.1584
 10
85.3787
 20
21.2145
 10
85.4621
 20
21.269
 10
85.5471
 20
21.3217
 10
85.6339
 20
21.3728
 10
85.7222
 20
21.4221
 10
85.8123
 20
21.4696
 10
85.904
 20
21.5155
 10
85.9974
 20
21.5596
 10
86.0924
 20
21.602
 10
86.1891
 20
21.6427
 10
86.2875
 20
21.6817
 10
86.3875
 20
21.7189
 10
86.4892
 20
21.7545
 10
86.5926
 20
21.7883
 10
86.6976
 20
21.8203
 10
86.8042
 20
21.8507
 10
86.9126
 20
21.8793
 10
87.0226
 20
21.9063
 10
87.1342
 20
21.9314
 10
87.2476
 20
21.9549
 10
87.3626
 20
21.9767
 10
87.4792
 20
21.9967
 10
87.5975
 20
22.015
 10
87.7175
 20
22.0316
 10
87.8391
 20
22.0464
 10
87.9624
 20
22.0596
 10
88.0874
 20
22.071
 10
88.214
 20
22.0807
 10
88.3423
 20
22.0887
 10
88.4723
 20
22.0949
 10
88.6039
 20
22.0995
 10
88.7371
 20
22.1023
 10
88.8721
 20
22.1034
 10
88.9933
 20
22.1028
 10
89.1117
 20
22.1008
 10
89.2293
 20
22.0973
 10
89.3462
 20
22.0924
 10
89.4624
 20
22.0859
 10
89.5779
 20
22.078
 10
89.6927
 20
22.0687
 10
89.8068
 20
22.0578
 10
89.9202
 20
22.0455
 10
90.0328
 20
22.0317
 10
90.1448
 20
22.0164
 10
90.256
 20
21.9997
 10
90.3665
 20
21.9815
 10
90.4763
 20
21.9618
 10
90.5854
 20
21.9407
 10
90.6938
 20
21.9181
 10
90.8015
 20
21.894
 10
90.9084
 20
21.8684
 10
91.0147
 20
21.8413
 10
91.1202
 20
21.8128
 10
91.225
 20
21.7829
 10
91.3292
 20
21.7514
 10
91.4326
 20
21.7185
 10
91.5352
 20
21.6841
 10
91.6372
 20
21.6482
 10
91.7385
 20
21.6108
 10
91.8398
 20
21.5717
 10
91.9418
 20
21.5305
 10
92.0432
 20
21.4878
 10
92.1439
 20
21.4434
 10
92.2439
 20
21.3975
 10
92.3433
 20
21.35
 10
92.4419
 20
21.301
 10
92.5399
 20
21.2503
 10
92.6372
 20
21.1981
 10
92.7339
 20
21.1444
 10
92.8299
 20
21.089
 10
92.9252
 20
21.0321
 10
93.0198
 20
20.9737
 10
93.1138
 20
20.9136
 10
93.207
 20
20.852
 10
93.2997
 20
20.7888
 10
93.3916
 20
20.7241
 10
93.4829
 20
20.6578
 10
93.5734
 20
20.5899
 10
93.6634
 20
20.5204
 10
93.7526
 20
20.4494
 10
93.8412
 20
20.3768
 10
93.9291
 20
20.3026
 10
94.0163
 20
20.2269
 10
94.1028
 20
20.1496
 10
94.1887
 20
20.0707
 10
94.2127
 20
19.9894
 10
94.1373
 20
19.9062
 10
94.0619
 20
19.8231
 10
93.9865
 20
19.7399
 10
93.9111
 20
19.6567
 10
93.8357
 20
19.5736
 10
93.7603
 20
19.4904
 10
93.6849
 20
19.4073
 10
93.6096
 20
19.3241
 10
93.5342
 20
19.2409
 10
93.4588
 20
19.1578
 10
93.3834
 20
19.0746
 10
93.308
 20
18.9915
 10
93.2326
 20
18.9083
 10
93.1572
 20
18.8251
 10
93.0818
 20
18.742
 10
93.0064
 20
18.6588
 10
92.931
 20
18.5757
 10
92.8556
 20
18.4925
 10
92.7802
 20
18.4093
 10
92.7048
 20
18.3262
 10
92.6294
 20
18.243
 10
92.554
 20
18.1598
 10
92.4786
 20
18.0767
 10
92.4032
 20
17.9935
 10
92.3278
 20
17.9104
 10
92.2344
 20
17.9803
 10
92.1398
 20
18.0611
 10
92.0454
 20
18.1397
 10
91.9513
 20
18.2162
 10
91.8576
 20
18.2904
 10
91.7641
 20
18.3625
 10
91.6709
 20
18.4323
 10
91.5781
 20
18.5
 10
91.4855
 20
18.5655
 10
91.3932
 20
18.6287
 10
91.3012
 20
18.6898
 10
91.2095
 20
18.7487
 10
91.1181
 20
18.8054
 10
91.027
 20
18.8598
 10
90.9362
 20
18.9121
 10
90.8457
 20
18.9622
 10
90.7554
 20
19.0101
 10
90.6655
 20
19.0558
 10
90.5744
 20
19.1001
 10
90.4657
 20
19.1499
 10
90.3572
 20
19.1963
 10
90.2486
 20
19.2394
 10
90.1401
 20
19.2792
 10
90.0317
 20
19.3157
 10
89.9233
 20
19.3489
 10
89.815
 20
19.3787
 10
89.7067
 20
19.4051
 10
89.5985
 20
19.4283
 10
89.4903
 20
19.4481
 10
89.3822
 20
19.4646
 10
89.2741
 20
19.4777
 10
89.1661
 20
19.4876
 10
89.0581
 20
19.494
 10
88.9502
 20
19.4972
 10
88.8273
 20
19.497
 10
88.6952
 20
19.4929
 10
88.5669
 20
19.4851
 10
88.4423
 20
19.4734
 10
88.3216
 20
19.4579
 10
88.2046
 20
19.4385
 10
88.0915
 20
19.4154
 10
87.9821
 20
19.3884
 10
87.8764
 20
19.3576
 10
87.7746
 20
19.3229
 10
87.6766
 20
19.2844
 10
87.5823
 20
19.2421
 10
87.4918
 20
19.196
 10
87.4052
 20
19.146
 10
87.3223
 20
19.0922
 10
87.2431
 20
19.0346
 10
87.1638
 20
18.9696
 10
87.0854
 20
18.8967
 10
87.0128
 20
18.8193
 10
86.9461
 20
18.7377
 10
86.8853
 20
18.6517
 10
86.8303
 20
18.5614
 10
86.7811
 20
18.4668
 10
86.7378
 20
18.3678
 10
86.7003
 20
18.2646
 10
86.6687
 20
18.157
 10
86.643
 20
18.045
 10
86.623
 20
17.9288
 10
86.609
 20
17.8082
 10
86.6008
 20
17.6832
 10
86.5984
 20
17.5553
 10
86.6024
 20
17.4393
 10
86.6131
 20
17.3258
 10
86.6306
 20
17.2149
 10
86.6547
 20
17.1065
 10
86.6856
 20
17.0007
 10
86.7232
 20
16.8975
 10
86.7675
 20
16.7968
 10
86.8186
 20
16.6987
 10
86.8764
 20
16.6031
 10
86.9409
 20
16.5101
 10
87.012
 20
16.4197
 10
87.076
 20
16.3462
 10
87.1441
 20
16.2738
 10
87.2163
 20
16.2025
 10
87.2926
 20
16.1323
 10
87.3731
 20
16.0632
 10
87.4577
 20
15.9952
 10
87.5464
 20
15.9283
 10
87.6392
 20
15.8626
 10
87.7361
 20
15.798
 10
87.8371
 20
15.7344
 10
87.9423
 20
15.672
 10
88.0516
 20
15.6107
 10
88.165
 20
15.5506
 10
88.2707
 20
15.4974
 10
88.3712
 20
15.4474
 10
88.4717
 20
15.3974
 10
88.5722
 20
15.3474
 10
88.6727
 20
15.2974
 10
88.7732
 20
15.2474
 10
88.8737
 20
15.1974
 10
88.9742
 20
15.1473
 10
89.0747
 20
15.0973
 10
89.1752
 20
15.0473
 10
89.2757
 20
14.9973
 10
89.3762
 20
14.9473
 10
89.4767
 20
14.8973
 10
89.5772
 20
14.8473
 10
89.6777
 20
14.7973
 10
89.7782
 20
14.7473
 10
89.8787
 20
14.6973
 10
89.9792
 20
14.6473
 10
90.0797
 20
14.5973
 10
90.1801
 20
14.5473
 10
90.2806
 20
14.4973
 10
90.3811
 20
14.4473
 10
90.4816
 20
14.3973
 10
90.5918
 20
14.3422
 10
90.7062
 20
14.2837
 10
90.8188
 20
14.2247
 10
90.9297
 20
14.165
 10
91.0387
 20
14.1048
 10
91.146
 20
14.044
 10
91.2515
 20
13.9826
 10
91.3552
 20
13.9206
 10
91.4572
 20
13.858
 10
91.5573
 20
13.7949
 10
91.6557
 20
13.7311
 10
91.7523
 20
13.6668
 10
91.8472
 20
13.6019
 10
91.9402
 20
13.5364
 10
92.0315
 20
13.4703
 10
92.121
 20
13.4036
 10
92.2087
 20
13.3364
 10
92.2946
 20
13.2685
 10
92.3787
 20
13.2001
 10
92.4611
 20
13.1311
 10
92.5417
 20
13.0615
 10
92.6205
 20
12.9913
 10
92.6976
 20
12.9205
 10
92.7728
 20
12.8492
 10
92.8463
 20
12.7773
 10
92.918
 20
12.7047
 10
92.9879
 20
12.6316
 10
93.0561
 20
12.5579
 10
93.1224
 20
12.4836
 10
93.187
 20
12.4088
 10
93.2504
 20
12.3326
 10
93.3224
 20
12.2422
 10
93.3916
 20
12.1507
 10
93.4579
 20
12.0581
 10
93.5214
 20
11.9645
 10
93.582
 20
11.8697
 10
93.6398
 20
11.774
 10
93.6947
 20
11.6771
 10
93.7467
 20
11.5792
 10
93.7959
 20
11.4802
 10
93.8422
 20
11.3802
 10
93.8857
 20
11.2791
 10
93.9263
 20
11.1769
 10
93.964
 20
11.0736
 10
93.9989
 20
10.9693
 10
94.031
 20
10.8639
 10
94.0602
 20
10.7574
 10
94.0865
 20
10.6499
 10
94.11
 20
10.5413
 10
94.1306
 20
10.4316
 10
94.1483
 20
10.3209
 10
94.1632
 20
10.2091
 10
94.1753
 20
10.0962
 10
94.1845
 20
9.9823
 10
94.1908
 20
9.8673
 10
94.1943
 20
9.7512
 10
94.1949
 20
9.6308
 10
94.1929
 20
9.503
 10
94.1883
 20
9.377
 10
94.1811
 20
9.2527
 10
94.1713
 20
9.1303
 10
94.1589
 20
9.0097
 10
94.1439
 20
8.8908
 10
94.1264
 20
8.7737
 10
94.1063
 20
8.6585
 10
94.0835
 20
8.545
 10
94.0582
 20
8.4333
 10
94.0303
 20
8.3234
 10
93.9999
 20
8.2153
 10
93.9668
 20
8.1089
 10
93.9311
 20
8.0044
 10
93.8929
 20
7.9016
 10
93.8521
 20
7.8007
 10
93.8087
 20
7.7015
 10
93.7627
 20
7.6041
 10
93.7141
 20
7.5086
 10
93.6629
 20
7.4148
 10
93.6091
 20
7.3227
 10
93.5528
 20
7.2325
 10
93.4939
 20
7.1441
 10
93.4323
 20
7.0575
 10
93.3682
 20
6.9726
 10
93.3015
 20
6.8896
 10
93.2323
 20
6.8083
 10
93.1604
 20
6.7288
 10
93.0859
 20
6.6511
 10
93.0089
 20
6.5752
 10
92.9293
 20
6.5011
 10
92.8471
 20
6.4288
 10
92.7623
 20
6.3583
 10
92.6749
 20
6.2895
 10
92.5995
 20
6.2332
 10
92.5242
 20
6.1795
 10
92.4473
 20
6.1271
 10
92.3688
 20
6.076
 10
92.2887
 20
6.0263
 10
92.207
 20
5.9779
 10
92.1236
 20
5.9309
 10
92.0387
 20
5.8851
 10
91.9521
 20
5.8407
 10
91.864
 20
5.7976
 10
91.7742
 20
5.7558
 10
91.6828
 20
5.7154
 10
91.5898
 20
5.6763
 10
91.4952
 20
5.6385
 10
91.399
 20
5.602
 10
91.3011
 20
5.5669
 10
91.2017
 20
5.5331
 10
91.1006
 20
5.5006
 10
90.998
 20
5.4694
 10
90.8937
 20
5.4396
 10
90.7878
 20
5.4111
 10
90.6803
 20
5.3839
 10
90.5712
 20
5.3581
 10
90.4605
 20
5.3335
 10
90.3481
 20
5.3103
 10
90.2342
 20
5.2885
 10
90.1186
 20
5.2679
 10
90.0015
 20
5.2487
 10
89.8827
 20
5.2308
 10
89.7623
 20
5.2142
 10
89.6403
 20
5.199
 10
89.5167
 20
5.185
 10
89.3915
 20
5.1724
 10
89.2647
 20
5.1612
 10
89.1362
 20
5.1512
 10
89.0062
 20
5.1426
 10
88.8745
 20
5.1353
 10
88.7413
 20
5.1294
 10
88.6064
 20
5.1247
  0
ENDSEC
  0
SECTION
  2
OBJECTS
  0
DICTIONARY
  5
A
330
0
100
AcDbDictionary
281
1
  3
ACAD_COLOR
350
B
  3
ACAD_GROUP
350
C
  3
ACAD_LAYOUT
350
D
  3
ACAD_MATERIAL
350
E
  3
ACAD_MLEADERSTYLE
350
F
  3
ACAD_MLINESTYLE
350
10
  3
ACAD_PLOTSETTINGS
350
11
  3
ACAD_PLOTSTYLENAME
350
12
  3
ACAD_SCALELIST
350
14
  3
ACAD_TABLESTYLE
350
15
  3
ACAD_VISUALSTYLE
350
16
  3
EZDXF_META
350
2D
  0
DICTIONARY
  5
B
330
A
100
AcDbDictionary
281
1
  0
DICTIONARY
  5
C
330
A
100
AcDbDictionary
281
1
  0
DICTIONARY
  5
D
330
A
100
AcDbDictionary
281
1
  3
Model
350
1A
  3
Layout1
350
1E
  0
DICTIONARY
  5
E
330
A
100
AcDbDictionary
281
1
  3
ByBlock
350
1F
  3
ByLayer
350
20
  3
Global
350
21
  0
DICTIONARY
  5
F
330
A
100
AcDbDictionary
281
1
  3
Standard
350
2C
  0
DICTIONARY
  5
10
330
A
100
AcDbDictionary
281
1
  3
Standard
350
22
  0
DICTIONARY
  5
11
330
A
100
AcDbDictionary
281
1
  0
ACDBDICTIONARYWDFLT
  5
12
330
A
100
AcDbDictionary
281
1
  3
Normal
350
13
100
AcDbDictionaryWithDefault
340
13
  0
ACDBPLACEHOLDER
  5
13
330
12
  0
DICTIONARY
  5
14
330
A
100
AcDbDictionary
281
1
  0
DICTIONARY
  5
15
330
A
100
AcDbDictionary
281
1
  0
DICTIONARY
  5
16
330
A
100
AcDbDictionary
281
1
  0
LAYOUT
  5
1A
330
D
100
AcDbPlotSettings
  1

  4
A3
  6

 40
7.5
 41
20.0
 42
7.5
 43
20.0
 44
420.0
 45
297.0
 46
0.0
 47
0.0
 48
0.0
 49
0.0
140
0.0
141
0.0
142
1.0
143
1.0
 70
1024
 72
1
 73
0
 74
5
  7

 75
16
 76
0
 77
2
 78
300
147
1.0
148
0.0
149
0.0
100
AcDbLayout
  1
Model
 70
1
 71
0
 10
0.0
 20
0.0
 11
420.0
 21
297.0
 12
0.0
 22
0.0
 32
0.0
 14
1e+20
 24
1e+20
 34
1e+20
 15
-1e+20
 25
-1e+20
 35
-1e+20
146
0.0
 13
0.0
 23
0.0
 33
0.0
 16
1.0
 26
0.0
 36
0.0
 17
0.0
 27
1.0
 37
0.0
 76
1
330
17
  0
LAYOUT
  5
1E
330
D
100
AcDbPlotSettings
  1

  4
A3
  6

 40
7.5
 41
20.0
 42
7.5
 43
20.0
 44
420.0
 45
297.0
 46
0.0
 47
0.0
 48
0.0
 49
0.0
140
0.0
141
0.0
142
1.0
143
1.0
 70
0
 72
1
 73
0
 74
5
  7

 75
16
 76
0
 77
2
 78
300
147
1.0
148
0.0
149
0.0
100
AcDbLayout
  1
Layout1
 70
1
 71
1
 10
0.0
 20
0.0
 11
420.0
 21
297.0
 12
0.0
 22
0.0
 32
0.0
 14
1e+20
 24
1e+20
 34
1e+20
 15
-1e+20
 25
-1e+20
 35
-1e+20
146
0.0
 13
0.0
 23
0.0
 33
0.0
 16
1.0
 26
0.0
 36
0.0
 17
0.0
 27
1.0
 37
0.0
 76
1
330
1B
  0
MATERIAL
  5
1F
102
{ACAD_REACTORS
330
E
102
}
330
E
100
AcDbMaterial
  1
ByBlock
  2

 70
0
 40
1.0
 71
1
 41
1.0
 91
-1023410177
 42
1.0
 72
1
  3

 73
1
 74
1
 75
1
 44
0.5
 73
0
 45
1.0
 46
1.0
 77
1
  4

 78
1
 79
1
170
1
 48
1.0
171
1
  6

172
1
173
1
174
1
140
1.0
141
1.0
175
1
  7

176
1
177
1
178
1
143
1.0
179
1
  8

270
1
271
1
272
1
145
1.0
146
1.0
273
1
  9

274
1
275
1
276
1
 42
1.0
 72
1
  3

 73
1
 74
1
 75
1
 94
63
  0
MATERIAL
  5
20
102
{ACAD_REACTORS
330
E
102
}
330
E
100
AcDbMaterial
  1
ByLayer
  2

 70
0
 40
1.0
 71
1
 41
1.0
 91
-1023410177
 42
1.0
 72
1
  3

 73
1
 74
1
 75
1
 44
0.5
 73
0
 45
1.0
 46
1.0
 77
1
  4

 78
1
 79
1
170
1
 48
1.0
171
1
  6

172
1
173
1
174
1
140
1.0
141
1.0
175
1
  7

176
1
177
1
178
1
143
1.0
179
1
  8

270
1
271
1
272
1
145
1.0
146
1.0
273
1
  9

274
1
275
1
276
1
 42
1.0
 72
1
  3

 73
1
 74
1
 75
1
 94
63
  0
MATERIAL
  5
21
102
{ACAD_REACTORS
330
E
102
}
330
E
100
AcDbMaterial
  1
Global
  2

 70
0
 40
1.0
 71
1
 41
1.0
 91
-1023410177
 42
1.0
 72
1
  3

 73
1
 74
1
 75
1
 44
0.5
 73
0
 45
1.0
 46
1.0
 77
1
  4

 78
1
 79
1
170
1
 48
1.0
171
1
  6

172
1
173
1
174
1
140
1.0
141
1.0
175
1
  7

176
1
177
1
178
1
143
1.0
179
1
  8

270
1
271
1
272
1
145
1.0
146
1.0
273
1
  9

274
1
275
1
276
1
 42
1.0
 72
1
  3

 73
1
 74
1
 75
1
 94
63
  0
MLINESTYLE
  5
22
102
{ACAD_REACTORS
330
10
102
}
330
10
100
AcDbMlineStyle
  2
Standard
 70
0
  3

 62
256
 51
90.0
 52
90.0
 71
2
 49
0.5
 62
256
  6
BYLAYER
 49
-0.5
 62
256
  6
BYLAYER
  0
MLEADERSTYLE
  5
2C
102
{ACAD_REACTORS
330
F
102
}
330
F
100
AcDbMLeaderStyle
179
2
170
2
171
1
172
0
 90
2
 40
0.0
 41
0.0
173
1
 91
-1056964608
 92
-2
290
1
 42
2.0
291
1
 43
8.0
  3
Standard
 44
4.0
300

342
29
174
1
175
1
176
0
178
1
 93
-1056964608
 45
4.0
292
0
297
0
 46
4.0
 94
-1056964608
 47
1.0
 49
1.0
140
1.0
294
1
141
0.0
177
0
142
1.0
295
0
296
0
143
3.75
271
0
272
9
273
9
  0
DICTIONARY
  5
2D
330
A
100
AcDbDictionary
280
1
281
1
  3
CREATED_BY_EZDXF
350
2E
  3
WRITTEN_BY_EZDXF
350
5E
  0
DICTIONARYVAR
  5
2E
330
2D
100
DictionaryVariables
280
0
  1
0.0 @ 2000-01-01T00:00:00.000000+00:00
  0
DICTIONARYVAR
  5
5E
330
2D
100
DictionaryVariables
280
0
  1
0.0 @ 2000-01-01T00:00:00.000000+00:00
  0
ENDSEC
  0
EOF
