  0
SECTION
  2
HEADER
  9
$ACADVER
  1
AC1024
  9
$ACADMAINTVER
 70
6
  9
$DWGCODEPAGE
  3
ANSI_1252
  9
$LASTSAVEDBY
  1
ezdxf
  9
$INSBASE
 10
0.0
 20
0.0
 30
0.0
  9
$EXTMIN
 10
1e+20
 20
1e+20
 30
1e+20
  9
$EXTMAX
 10
-1e+20
 20
-1e+20
 30
-1e+20
  9
$LIMMIN
 10
0.0
 20
0.0
  9
$LIMMAX
 10
420.0
 20
297.0
  9
$ORTHOMODE
 70
0
  9
$REGENMODE
 70
1
  9
$FILLMODE
 70
1
  9
$QTEXTMODE
 70
0
  9
$MIRRTEXT
 70
1
  9
$LTSCALE
 40
1.0
  9
$ATTMODE
 70
1
  9
$TEXTSIZE
 40
2.5
  9
$TRACEWID
 40
1.0
  9
$TEXTSTYLE
  7
Standard
  9
$CLAYER
  8
0
  9
$CELTYPE
  6
ByLayer
  9
$CECOLOR
 62
256
  9
$CELTSCALE
 40
1.0
  9
$DISPSILH
 70
0
  9
$DIMSCALE
 40
1.0
  9
$DIMASZ
 40
2.5
  9
$DIMEXO
 40
0.625
  9
$DIMDLI
 40
3.75
  9
$DIMRND
 40
0.0
  9
$DIMDLE
 40
0.0
  9
$DIMEXE
 40
1.25
  9
$DIMTP
 40
0.0
  9
$DIMTM
 40
0.0
  9
$DIMTXT
 40
2.5
  9
$DIMCEN
 40
2.5
  9
$DIMTSZ
 40
0.0
  9
$DIMTOL
 70
0
  9
$DIMLIM
 70
0
  9
$DIMTIH
 70
0
  9
$DIMTOH
 70
0
  9
$DIMSE1
 70
0
  9
$DIMSE2
 70
0
  9
$DIMTAD
 70
1
  9
$DIMZIN
 70
8
  9
$DIMBLK
  1

  9
$DIMASO
 70
1
  9
$DIMSHO
 70
1
  9
$DIMPOST
  1

  9
$DIMAPOST
  1

  9
$DIMALT
 70
0
  9
$DIMALTD
 70
3
  9
$DIMALTF
 40
0.03937007874
  9
$DIMLFAC
 40
1.0
  9
$DIMTOFL
 70
1
  9
$DIMTVP
 40
0.0
  9
$DIMTIX
 70
0
  9
$DIMSOXD
 70
0
  9
$DIMSAH
 70
0
  9
$DIMBLK1
  1

  9
$DIMBLK2
  1

  9
$DIMSTYLE
  2
ISO-25
  9
$DIMCLRD
 70
0
  9
$DIMCLRE
 70
0
  9
$DIMCLRT
 70
0
  9
$DIMTFAC
 40
1.0
  9
$DIMGAP
 40
0.625
  9
$DIMJUST
 70
0
  9
$DIMSD1
 70
0
  9
$DIMSD2
 70
0
  9
$DIMTOLJ
 70
0
  9
$DIMTZIN
 70
8
  9
$DIMALTZ
 70
0
  9
$DIMALTTZ
 70
0
  9
$DIMUPT
 70
0
  9
$DIMDEC
 70
2
  9
$DIMTDEC
 70
2
  9
$DIMALTU
 70
2
  9
$DIMALTTD
 70
3
  9
$DIMTXSTY
  7
Standard
  9
$DIMAUNIT
 70
0
  9
$DIMADEC
 70
0
  9
$DIMALTRND
 40
0.0
  9
$DIMAZIN
 70
0
  9
$DIMDSEP
 70
44
  9
$DIMATFIT
 70
3
  9
$DIMFRAC
 70
0
  9
$DIMLDRBLK
  1

  9
$DIMLUNIT
 70
2
  9
$DIMLWD
 70
-2
  9
$DIMLWE
 70
-2
  9
$DIMTMOVE
 70
0
  9
$DIMFXL
 40
1.0
  9
$DIMFXLON
 70
0
  9
$DIMJOGANG
 40
0.785398163397
  9
$DIMTFILL
 70
0
  9
$DIMTFILLCLR
 70
0
  9
$DIMARCSYM
 70
0
  9
$DIMLTYPE
  6

  9
$DIMLTEX1
  6

  9
$DIMLTEX2
  6

  9
$DIMTXTDIRECTION
 70
0
  9
$LUNITS
 70
2
  9
$LUPREC
 70
4
  9
$SKETCHINC
 40
1.0
  9
$FILLETRAD
 40
10.0
  9
$AUNITS
 70
0
  9
$AUPREC
 70
2
  9
$MENU
  1
.
  9
$ELEVATION
 40
0.0
  9
$PELEVATION
 40
0.0
  9
$THICKNESS
 40
0.0
  9
$LIMCHECK
 70
0
  9
$CHAMFERA
 40
0.0
  9
$CHAMFERB
 40
0.0
  9
$CHAMFERC
 40
0.0
  9
$CHAMFERD
 40
0.0
  9
$SKPOLY
 70
0
  9
$TDCREATE
 40
2451545.0
  9
$TDUCREATE
 40
2451545.0
  9
$TDUPDATE
 40
2451545.0
  9
$TDUUPDATE
 40
2451545.0
  9
$TDINDWG
 40
0.0
  9
$TDUSRTIMER
 40
0.0
  9
$USRTIMER
 70
1
  9
$ANGBASE
 50
0.0
  9
$ANGDIR
 70
0
  9
$PDMODE
 70
0
  9
$PDSIZE
 40
0.0
  9
$PLINEWID
 40
0.0
  9
$SPLFRAME
 70
0
  9
$SPLINETYPE
 70
6
  9
$SPLINESEGS
 70
8
  9
$HANDSEED
  5
43
  9
$SURFTAB1
 70
6
  9
$SURFTAB2
 70
6
  9
$SURFTYPE
 70
6
  9
$SURFU
 70
6
  9
$SURFV
 70
6
  9
$UCSBASE
  2

  9
$UCSNAME
  2

  9
$UCSORG
 10
0.0
 20
0.0
 30
0.0
  9
$UCSXDIR
 10
1.0
 20
0.0
 30
0.0
  9
$UCSYDIR
 10
0.0
 20
1.0
 30
0.0
  9
$UCSORTHOREF
  2

  9
$UCSORTHOVIEW
 70
0
  9
$UCSORGTOP
 10
0.0
 20
0.0
 30
0.0
  9
$UCSORGBOTTOM
 10
0.0
 20
0.0
 30
0.0
  9
$UCSORGLEFT
 10
0.0
 20
0.0
 30
0.0
  9
$UCSORGRIGHT
 10
0.0
 20
0.0
 30
0.0
  9
$UCSORGFRONT
 10
0.0
 20
0.0
 30
0.0
  9
$UCSORGBACK
 10
0.0
 20
0.0
 30
0.0
  9
$PUCSBASE
  2

  9
$PUCSNAME
  2

  9
$PUCSORG
 10
0.0
 20
0.0
 30
0.0
  9
$PUCSXDIR
 10
1.0
 20
0.0
 30
0.0
  9
$PUCSYDIR
 10
0.0
 20
1.0
 30
0.0
  9
$PUCSORTHOREF
  2

  9
$PUCSORTHOVIEW
 70
0
  9
$PUCSORGTOP
 10
0.0
 20
0.0
 30
0.0
  9
$PUCSORGBOTTOM
 10
0.0
 20
0.0
 30
0.0
  9
$PUCSORGLEFT
 10
0.0
 20
0.0
 30
0.0
  9
$PUCSORGRIGHT
 10
0.0
 20
0.0
 30
0.0
  9
$PUCSORGFRONT
 10
0.0
 20
0.0
 30
0.0
  9
$PUCSORGBACK
 10
0.0
 20
0.0
 30
0.0
  9
$USERI1
 70
0
  9
$USERI2
 70
0
  9
$USERI3
 70
0
  9
$USERI4
 70
0
  9
$USERI5
 70
0
  9
$USERR1
 40
0.0
  9
$USERR2
 40
0.0
  9
$USERR3
 40
0.0
  9
$USERR4
 40
0.0
  9
$USERR5
 40
0.0
  9
$WORLDVIEW
 70
1
  9
$SHADEDGE
 70
3
  9
$SHADEDIF
 70
70
  9
$TILEMODE
 70
1
  9
$MAXACTVP
 70
64
  9
$PINSBASE
 10
0.0
 20
0.0
 30
0.0
  9
$PLIMCHECK
 70
0
  9
$PEXTMIN
 10
1e+20
 20
1e+20
 30
1e+20
  9
$PEXTMAX
 10
-1e+20
 20
-1e+20
 30
-1e+20
  9
$PLIMMIN
 10
0.0
 20
0.0
  9
$PLIMMAX
 10
420.0
 20
297.0
  9
$UNITMODE
 70
0
  9
$VISRETAIN
 70
1
  9
$PLINEGEN
 70
0
  9
$PSLTSCALE
 70
1
  9
$TREEDEPTH
 70
3020
  9
$CMLSTYLE
  2
Standard
  9
$CMLJUST
 70
0
  9
$CMLSCALE
 40
20.0
  9
$PROXYGRAPHICS
 70
1
  9
$MEASUREMENT
 70
1
  9
$CELWEIGHT
370
-1
  9
$ENDCAPS
280
0
  9
$JOINSTYLE
280
0
  9
$LWDISPLAY
290
0
  9
$INSUNITS
 70
4
  9
$HYPERLINKBASE
  1

  9
$STYLESHEET
  1

  9
$XEDIT
290
1
  9
$CEPSNTYPE
380
0
  9
$PSTYLEMODE
290
1
  9
$FINGERPRINTGUID
  2
{00000000-0000-0000-0000-000000000000}
  9
$VERSIONGUID
  2
{00000000-0000-0000-0000-000000000000}
  9
$EXTNAMES
290
1
  9
$PSVPSCALE
 40
0.0
  9
$OLESTARTUP
290
0
  9
$SORTENTS
280
127
  9
$INDEXCTL
280
0
  9
$HIDETEXT
280
1
  9
$XCLIPFRAME
280
1
  9
$HALOGAP
280
0
  9
$OBSCOLOR
 70
257
  9
$OBSLTYPE
280
0
  9
$INTERSECTIONDISPLAY
280
0
  9
$INTERSECTIONCOLOR
 70
257
  9
$DIMASSOC
280
2
  9
$PROJECTNAME
  1

  9
$CAMERADISPLAY
290
0
  9
$LENSLENGTH
 40
50.0
  9
$CAMERAHEIGHT
 40
0.0
  9
$STEPSPERSEC
 40
24.0
  9
$STEPSIZE
 40
100.0
  9
$3DDWFPREC
 40
2.0
  9
$PSOLWIDTH
 40
0.005
  9
$PSOLHEIGHT
 40
0.08
  9
$LOFTANG1
 40
1.570796326795
  9
$LOFTANG2
 40
1.570796326795
  9
$LOFTMAG1
 40
0.0
  9
$LOFTMAG2
 40
0.0
  9
$LOFTPARAM
 70
7
  9
$LOFTNORMALS
280
1
  9
$LATITUDE
 40
37.795
  9
$LONGITUDE
 40
-122.394
  9
$NORTHDIRECTION
 40
0.0
  9
$TIMEZONE
 70
-8000
  9
$LIGHTGLYPHDISPLAY
280
1
  9
$TILEMODELIGHTSYNCH
280
1
  9
$CMATERIAL
347
20
  9
$SOLIDHIST
280
0
  9
$SHOWHIST
280
1
  9
$DWFFRAME
280
2
  9
$DGNFRAME
280
2
  9
$REALWORLDSCALE
290
1
  9
$INTERFERECOLOR
 62
256
  9
$CSHADOW
280
0
  9
$SHADOWPLANELOCATION
 40
0.0
  0
ENDSEC
  0
SECTION
  2
CLASSES
  0
CLASS
  1
ACDBDICTIONARYWDFLT
  2
AcDbDictionaryWithDefault
  3
ObjectDBX Classes
 90
0
 91
0
280
0
281
0
  0
CLASS
  1
SUN
  2
AcDbSun
  3
SCENEOE
 90
1153
 91
0
280
0
281
0
  0
CLASS
  1
VISUALSTYLE
  2
AcDbVisualStyle
  3
ObjectDBX Classes
 90
4095
 91
0
280
0
281
0
  0
CLASS
  1
MATERIAL
  2
AcDbMaterial
  3
ObjectDBX Classes
 90
1153
 91
0
280
0
281
0
  0
CLASS
  1
SCALE
  2
AcDbScale
  3
ObjectDBX Classes
 90
1153
 91
0
280
0
281
0
  0
CLASS
  1
TABLESTYLE
  2
AcDbTableStyle
  3
ObjectDBX Classes
 90
4095
 91
0
280
0
281
0
  0
CLASS
  1
MLEADERSTYLE
  2
AcDbMLeaderStyle
  3
ACDB_MLEADERSTYLE_CLASS
 90
4095
 91
0
280
0
281
0
  0
CLASS
  1
DICTIONARYVAR
  2
AcDbDictionaryVar
  3
ObjectDBX Classes
 90
0
 91
0
280
0
281
0
  0
CLASS
  1
CELLSTYLEMAP
  2
AcDbCellStyleMap
  3
ObjectDBX Classes
 90
1152
 91
0
280
0
281
0
  0
CLASS
  1
MENTALRAYRENDERSETTINGS
  2
AcDbMentalRayRenderSettings
  3
SCENEOE
 90
1024
 91
0
280
0
281
0
  0
CLASS
  1
ACDBDETAILVIEWSTYLE
  2
AcDbDetailViewStyle
  3
ObjectDBX Classes
 90
1025
 91
0
280
0
281
0
  0
CLASS
  1
ACDBSECTIONVIEWSTYLE
  2
AcDbSectionViewStyle
  3
ObjectDBX Classes
 90
1025
 91
0
280
0
281
0
  0
CLASS
  1
RASTERVARIABLES
  2
AcDbRasterVariables
  3
ISM
 90
0
 91
0
280
0
281
0
  0
CLASS
  1
ACDBPLACEHOLDER
  2
AcDbPlaceHolder
  3
ObjectDBX Classes
 90
0
 91
0
280
0
281
0
  0
CLASS
  1
LAYOUT
  2
AcDbLayout
  3
ObjectDBX Classes
 90
0
 91
0
280
0
281
0
  0
ENDSEC
  0
SECTION
  2
TABLES
  0
TABLE
  2
VPORT
  5
8
330
0
100
AcDbSymbolTable
 70
1
  0
VPORT
  5
23
330
8
100
AcDbSymbolTableRecord
100
AcDbViewportTableRecord
  2
*Active
 70
0
 10
0.0
 20
0.0
 11
1.0
 21
1.0
 12
0.0
 22
0.0
 13
0.0
 23
0.0
 14
0.5
 24
0.5
 15
0.5
 25
0.5
 16
0.0
 26
0.0
 36
1.0
 17
0.0
 27
0.0
 37
0.0
 40
1000.0
 41
1.34
 42
50.0
 43
0.0
 44
0.0
 50
0.0
 51
0.0
 71
0
 72
1000
 73
1
 74
3
 75
0
 76
0
 77
0
 78
0
281
0
 65
0
146
0.0
  0
ENDTAB
  0
TABLE
  2
LTYPE
  5
2
330
0
100
AcDbSymbolTable
 70
3
  0
LTYPE
  5
24
330
2
100
AcDbSymbolTableRecord
100
AcDbLinetypeTableRecord
  2
ByBlock
 70
0
  3

 72
65
 73
0
 40
0.0
  0
LTYPE
  5
25
330
2
100
AcDbSymbolTableRecord
100
AcDbLinetypeTableRecord
  2
ByLayer
 70
0
  3

 72
65
 73
0
 40
0.0
  0
LTYPE
  5
26
330
2
100
AcDbSymbolTableRecord
100
AcDbLinetypeTableRecord
  2
Continuous
 70
0
  3

 72
65
 73
0
 40
0.0
  0
ENDTAB
  0
TABLE
  2
LAYER
  5
1
330
0
100
AcDbSymbolTable
 70
3
  0
LAYER
  5
27
330
1
100
AcDbSymbolTableRecord
100
AcDbLayerTableRecord
  2
0
 70
0
 62
7
  6
Continuous
370
-3
390
13
347
21
  0
LAYER
  5
28
330
1
100
AcDbSymbolTableRecord
100
AcDbLayerTableRecord
  2
Defpoints
 70
0
 62
7
  6
Continuous
290
0
370
-3
390
13
347
21
  0
LAYER
  5
2F
330
1
100
AcDbSymbolTableRecord
100
AcDbLayerTableRecord
  2
OUTLINE
 70
0
 62
7
  6
Continuous
370
-3
390
13
347
21
  0
ENDTAB
  0
TABLE
  2
STYLE
  5
5
330
0
100
AcDbSymbolTable
 70
1
  0
STYLE
  5
29
330
5
100
AcDbSymbolTableRecord
100
AcDbTextStyleTableRecord
  2
Standard
 70
0
 40
0.0
 41
1.0
 50
0.0
 71
0
 42
2.5
  3
txt
  4

  0
ENDTAB
  0
TABLE
  2
VIEW
  5
7
330
0
100
AcDbSymbolTable
 70
0
  0
ENDTAB
  0
TABLE
  2
UCS
  5
6
330
0
100
AcDbSymbolTable
 70
0
  0
ENDTAB
  0
TABLE
  2
APPID
  5
3
330
0
100
AcDbSymbolTable
 70
3
  0
APPID
  5
2A
330
3
100
AcDbSymbolTableRecord
100
AcDbRegAppTableRecord
  2
ACAD
 70
0
  0
APPID
  5
40
330
3
100
AcDbSymbolTableRecord
100
AcDbRegAppTableRecord
  2
HATCHBACKGROUNDCOLOR
 70
0
  0
APPID
  5
41
330
3
100
AcDbSymbolTableRecord
100
AcDbRegAppTableRecord
  2
EZDXF
 70
0
  0
ENDTAB
  0
TABLE
  2
DIMSTYLE
  5
4
330
0
100
AcDbSymbolTable
 70
1
100
AcDbDimStyleTable
  0
DIMSTYLE
105
2B
330
4
100
AcDbSymbolTableRecord
100
AcDbDimStyleTableRecord
  2
Standard
 70
0
 40
1.0
 41
2.5
 42
0.625
 43
3.75
 44
1.25
 45
0.0
 46
0.0
 47
0.0
 48
0.0
 49
2.5
140
2.5
141
2.5
142
0.0
143
0.03937007874
144
1.0
145
0.0
146
1.0
147
0.625
148
0.0
 69
0
 70
0
 71
0
 72
0
 73
0
 74
0
 75
0
 76
0
 77
1
 78
8
 79
3
170
0
171
3
172
1
173
0
174
0
175
0
176
0
177
0
178
0
179
2
271
2
272
2
273
2
274
3
275
0
276
0
277
2
278
44
279
0
280
0
281
0
282
0
283
0
284
8
285
0
286
0
288
0
289
3
290
0
371
-2
372
-2
  0
ENDTAB
  0
TABLE
  2
BLOCK_RECORD
  5
9
330
0
100
AcDbSymbolTable
 70
2
  0
BLOCK_RECORD
  5
17
330
9
100
AcDbSymbolTableRecord
100
AcDbBlockTableRecord
  2
*Model_Space
340
1A
 70
0
280
1
281
0
  0
BLOCK_RECORD
  5
1B
330
9
100
AcDbSymbolTableRecord
100
AcDbBlockTableRecord
  2
*Paper_Space
340
1E
 70
0
280
1
281
0
  0
ENDTAB
  0
ENDSEC
  0
SECTION
  2
BLOCKS
  0
BLOCK
  5
18
330
17
100
AcDbEntity
  8
0
100
AcDbBlockBegin
  2
*Model_Space
 70
0
 10
0.0
 20
0.0
 30
0.0
  3
*Model_Space
  1

  0
ENDBLK
  5
19
330
17
100
AcDbEntity
  8
0
100
AcDbBlockEnd
  0
BLOCK
  5
1C
330
1B
100
AcDbEntity
  8
0
100
AcDbBlockBegin
  2
*Paper_Space
 70
0
 10
0.0
 20
0.0
 30
0.0
  3
*Paper_Space
  1

  0
ENDBLK
  5
1D
330
1B
100
AcDbEntity
  8
0
100
AcDbBlockEnd
  0
ENDSEC
  0
SECTION
  2
ENTITIES
  0
LWPOLYLINE
  5
30
330
17
100
AcDbEntity
  8
OUTLINE
100
AcDbPolyline
 90
472
 70
1
 10
12.6695
 20
5.4849
 10
12.6695
 20
5.4251
 10
12.6695
 20
5.4119
 10
12.6695
 20
5.3654
 10
12.6695
 20
5.3056
 10
12.6695
 20
5.2851
 10
12.6695
 20
5.2458
 10
12.6695
 20
5.1861
 10
12.6695
 20
5.1584
 10
12.6695
 20
5.1263
 10
12.6695
 20
5.0665
 10
12.6695
 20
5.0068
 10
12.6695
 20
4.947
 10
12.6695
 20
4.8872
 10
12.6695
 20
4.8274
 10
12.6695
 20
4.7677
 10
12.6695
 20
4.7079
 10
12.6695
 20
4.6481
 10
12.6695
 20
4.5884
 10
12.6695
 20
4.5286
 10
12.6695
 20
4.4688
 10
12.6695
 20
4.4091
 10
12.6695
 20
4.3493
 10
12.6695
 20
4.2895
 10
12.6712
 20
4.2312
 10
12.7303
 20
4.2223
 10
12.7894
 20
4.2134
 10
12.8485
 20
4.2045
 10
12.9076
 20
4.1956
 10
12.9667
 20
4.1867
 10
13.0258
 20
4.1778
 10
13.0849
 20
4.1689
 10
13.144
 20
4.16
 10
13.2031
 20
4.1511
 10
13.2622
 20
4.1422
 10
13.3213
 20
4.1333
 10
13.3804
 20
4.1244
 10
13.4395
 20
4.1155
 10
13.4986
 20
4.1065
 10
13.5577
 20
4.0976
 10
13.5753
 20
4.053
 10
13.5753
 20
3.9932
 10
13.5753
 20
3.9335
 10
13.5753
 20
3.8737
 10
13.5753
 20
3.8139
 10
13.5753
 20
3.7541
 10
13.5753
 20
3.6944
 10
13.5753
 20
3.6346
 10
13.5753
 20
3.5748
 10
13.5753
 20
3.5151
 10
13.5753
 20
3.4553
 10
13.5753
 20
3.3955
 10
13.5753
 20
3.3358
 10
13.5753
 20
3.276
 10
13.5753
 20
3.2162
 10
13.5753
 20
3.1565
 10
13.5753
 20
3.0967
 10
13.5753
 20
3.0369
 10
13.5753
 20
2.9771
 10
13.5753
 20
2.9174
 10
13.5753
 20
2.8576
 10
13.5191
 20
2.8526
 10
13.4593
 20
2.851
 10
13.3996
 20
2.8494
 10
13.3398
 20
2.8478
 10
13.2801
 20
2.8462
 10
13.2203
 20
2.8446
 10
13.1606
 20
2.843
 10
13.1008
 20
2.8414
 10
13.0411
 20
2.8399
 10
12.9814
 20
2.8383
 10
12.9216
 20
2.8367
 10
12.8619
 20
2.8351
 10
12.8021
 20
2.8335
 10
12.7424
 20
2.8319
 10
12.6826
 20
2.8303
 10
12.6229
 20
2.8287
 10
12.5631
 20
2.8271
 10
12.5034
 20
2.8255
 10
12.4436
 20
2.8239
 10
12.3839
 20
2.8224
 10
12.3241
 20
2.8208
 10
12.2644
 20
2.8192
 10
12.2046
 20
2.8176
 10
12.1449
 20
2.816
 10
12.0851
 20
2.8144
 10
12.0254
 20
2.8128
 10
11.9656
 20
2.8112
 10
11.9059
 20
2.8096
 10
11.8461
 20
2.808
 10
11.7864
 20
2.8064
 10
11.7266
 20
2.8048
 10
11.6669
 20
2.8033
 10
11.6071
 20
2.8017
 10
11.5474
 20
2.8001
 10
11.4876
 20
2.7985
 10
11.4279
 20
2.7969
 10
11.3682
 20
2.7953
 10
11.3084
 20
2.7937
 10
11.2487
 20
2.7921
 10
11.2444
 20
2.8517
 10
11.2402
 20
2.9114
 10
11.236
 20
2.971
 10
11.2318
 20
3.0306
 10
11.2275
 20
3.0902
 10
11.2233
 20
3.1498
 10
11.2191
 20
3.2095
 10
11.2148
 20
3.2691
 10
11.2106
 20
3.3287
 10
11.2064
 20
3.3883
 10
11.2022
 20
3.4479
 10
11.1979
 20
3.5076
 10
11.1937
 20
3.5672
 10
11.1895
 20
3.6268
 10
11.1853
 20
3.6864
 10
11.181
 20
3.746
 10
11.1768
 20
3.8057
 10
11.1726
 20
3.8653
 10
11.1684
 20
3.9249
 10
11.1641
 20
3.9845
 10
11.1599
 20
4.0441
 10
11.1557
 20
4.1038
 10
11.1545
 20
4.1198
 10
11.0917
 20
4.1198
 10
11.0181
 20
4.1198
 10
10.9811
 20
4.0656
 10
10.9598
 20
3.9873
 10
10.9364
 20
3.9112
 10
10.9108
 20
3.8374
 10
10.883
 20
3.7658
 10
10.8531
 20
3.6965
 10
10.8211
 20
3.6295
 10
10.7869
 20
3.5648
 10
10.7505
 20
3.5023
 10
10.712
 20
3.4421
 10
10.6713
 20
3.3841
 10
10.6285
 20
3.3285
 10
10.5835
 20
3.2751
 10
10.5364
 20
3.2239
 10
10.4871
 20
3.175
 10
10.4356
 20
3.1284
 10
10.3818
 20
3.0839
 10
10.325
 20
3.0411
 10
10.2667
 20
3.001
 10
10.2067
 20
2.9637
 10
10.1452
 20
2.9291
 10
10.082
 20
2.8973
 10
10.0172
 20
2.8683
 10
9.9509
 20
2.842
 10
9.883
 20
2.8185
 10
9.8134
 20
2.7977
 10
9.7423
 20
2.7798
 10
9.6695
 20
2.7646
 10
9.5952
 20
2.7521
 10
9.5193
 20
2.7424
 10
9.4417
 20
2.7355
 10
9.3626
 20
2.7314
 10
9.2819
 20
2.73
 10
9.1973
 20
2.7312
 10
9.1144
 20
2.7347
 10
9.0332
 20
2.7405
 10
8.9537
 20
2.7487
 10
8.8759
 20
2.7593
 10
8.7998
 20
2.7722
 10
8.7254
 20
2.7874
 10
8.6527
 20
2.805
 10
8.5817
 20
2.8249
 10
8.5124
 20
2.8472
 10
8.4447
 20
2.8718
 10
8.3788
 20
2.8988
 10
8.3146
 20
2.9281
 10
8.2521
 20
2.9597
 10
8.1912
 20
2.9937
 10
8.1321
 20
3.03
 10
8.0747
 20
3.0687
 10
8.0189
 20
3.1098
 10
7.9649
 20
3.1531
 10
7.9125
 20
3.1988
 10
7.8619
 20
3.2469
 10
7.8129
 20
3.2973
 10
7.7659
 20
3.3498
 10
7.7245
 20
3.3995
 10
7.6849
 20
3.4508
 10
7.6469
 20
3.5037
 10
7.6106
 20
3.5582
 10
7.576
 20
3.6143
 10
7.543
 20
3.672
 10
7.5117
 20
3.7312
 10
7.4821
 20
3.792
 10
7.4541
 20
3.8545
 10
7.4278
 20
3.9185
 10
7.4032
 20
3.984
 10
7.3803
 20
4.0512
 10
7.359
 20
4.12
 10
7.3395
 20
4.1903
 10
7.3215
 20
4.2622
 10
7.3053
 20
4.3357
 10
7.2907
 20
4.4108
 10
7.2778
 20
4.4875
 10
7.2666
 20
4.5657
 10
7.257
 20
4.6456
 10
7.2492
 20
4.727
 10
7.2429
 20
4.81
 10
7.2384
 20
4.8946
 10
7.2355
 20
4.9808
 10
7.2343
 20
5.0686
 10
7.2343
 20
5.1455
 10
7.2343
 20
5.2191
 10
7.2343
 20
5.2927
 10
7.2343
 20
5.3663
 10
7.2343
 20
5.4399
 10
7.2343
 20
5.5136
 10
7.2343
 20
5.5872
 10
7.2343
 20
5.6608
 10
7.2343
 20
5.7344
 10
7.2343
 20
5.808
 10
7.2343
 20
5.8816
 10
7.2343
 20
5.9553
 10
7.2343
 20
6.0289
 10
7.2343
 20
6.1025
 10
7.2343
 20
6.1761
 10
7.2343
 20
6.2497
 10
7.2343
 20
6.3233
 10
7.2343
 20
6.397
 10
7.2343
 20
6.4706
 10
7.2343
 20
6.5442
 10
7.2343
 20
6.6178
 10
7.2343
 20
6.6914
 10
7.2343
 20
6.7651
 10
7.2343
 20
6.8387
 10
7.2343
 20
6.9123
 10
7.2343
 20
6.9859
 10
7.2343
 20
7.0595
 10
7.2343
 20
7.1331
 10
7.2343
 20
7.2068
 10
7.2343
 20
7.2804
 10
7.2343
 20
7.354
 10
7.2343
 20
7.4276
 10
7.2343
 20
7.5012
 10
7.2343
 20
7.5749
 10
7.2343
 20
7.6485
 10
7.2343
 20
7.7221
 10
7.2343
 20
7.7957
 10
7.2343
 20
7.8693
 10
7.2343
 20
7.9429
 10
7.2343
 20
8.0166
 10
7.2343
 20
8.0902
 10
7.2343
 20
8.1638
 10
7.2343
 20
8.2374
 10
7.2343
 20
8.311
 10
7.2343
 20
8.3847
 10
7.2343
 20
8.4583
 10
7.2343
 20
8.5319
 10
7.2343
 20
8.6055
 10
7.2343
 20
8.6791
 10
7.2343
 20
8.7527
 10
7.2343
 20
8.8264
 10
7.2343
 20
8.9
 10
7.2343
 20
8.9736
 10
7.2343
 20
9.0472
 10
7.2343
 20
9.1208
 10
7.2343
 20
9.1945
 10
7.2343
 20
9.2681
 10
7.2343
 20
9.3417
 10
7.2343
 20
9.4153
 10
7.2925
 20
9.4307
 10
7.3661
 20
9.4307
 10
7.4397
 20
9.4307
 10
7.5133
 20
9.4307
 10
7.5869
 20
9.4307
 10
7.6606
 20
9.4307
 10
7.7342
 20
9.4307
 10
7.8078
 20
9.4307
 10
7.8814
 20
9.4307
 10
7.955
 20
9.4307
 10
8.0287
 20
9.4307
 10
8.1023
 20
9.4307
 10
8.1759
 20
9.4307
 10
8.2495
 20
9.4307
 10
8.3231
 20
9.4307
 10
8.3967
 20
9.4307
 10
8.4704
 20
9.4307
 10
8.544
 20
9.4307
 10
8.6176
 20
9.4307
 10
8.6912
 20
9.4307
 10
8.7648
 20
9.4307
 10
8.7668
 20
9.3591
 10
8.7668
 20
9.2855
 10
8.7668
 20
9.2119
 10
8.7668
 20
9.1383
 10
8.7668
 20
9.0647
 10
8.7668
 20
8.991
 10
8.7668
 20
8.9174
 10
8.7668
 20
8.8438
 10
8.7668
 20
8.7702
 10
8.7668
 20
8.6966
 10
8.7668
 20
8.6229
 10
8.7668
 20
8.5493
 10
8.7668
 20
8.4757
 10
8.7668
 20
8.4021
 10
8.7668
 20
8.3285
 10
8.7668
 20
8.2549
 10
8.7668
 20
8.1812
 10
8.7668
 20
8.1076
 10
8.7668
 20
8.034
 10
8.7668
 20
7.9604
 10
8.7668
 20
7.8868
 10
8.7668
 20
7.8131
 10
8.7668
 20
7.7395
 10
8.7668
 20
7.6659
 10
8.7668
 20
7.5923
 10
8.7668
 20
7.5187
 10
8.7668
 20
7.4451
 10
8.7668
 20
7.3714
 10
8.7668
 20
7.2978
 10
8.7668
 20
7.2242
 10
8.7668
 20
7.1506
 10
8.7668
 20
7.077
 10
8.7668
 20
7.0033
 10
8.7668
 20
6.9297
 10
8.7668
 20
6.8561
 10
8.7668
 20
6.7825
 10
8.7668
 20
6.7089
 10
8.7668
 20
6.6353
 10
8.7668
 20
6.5616
 10
8.7668
 20
6.488
 10
8.7668
 20
6.4144
 10
8.7668
 20
6.3408
 10
8.7668
 20
6.2672
 10
8.7668
 20
6.1936
 10
8.7668
 20
6.1199
 10
8.7668
 20
6.0463
 10
8.7668
 20
5.9727
 10
8.7668
 20
5.8991
 10
8.7668
 20
5.8255
 10
8.7668
 20
5.7518
 10
8.7668
 20
5.6782
 10
8.7668
 20
5.6046
 10
8.7668
 20
5.531
 10
8.7668
 20
5.4574
 10
8.7668
 20
5.3838
 10
8.7671
 20
5.3051
 10
8.77
 20
5.2193
 10
8.7765
 20
5.1367
 10
8.7865
 20
5.0572
 10
8.8
 20
4.9809
 10
8.817
 20
4.9078
 10
8.8375
 20
4.8378
 10
8.8615
 20
4.771
 10
8.889
 20
4.7073
 10
8.92
 20
4.6468
 10
8.9545
 20
4.5895
 10
8.9925
 20
4.5353
 10
9.034
 20
4.4843
 10
9.0811
 20
4.4344
 10
9.1327
 20
4.3873
 10
9.1874
 20
4.3445
 10
9.2452
 20
4.3062
 10
9.3061
 20
4.2722
 10
9.37
 20
4.2426
 10
9.4371
 20
4.2174
 10
9.5073
 20
4.1966
 10
9.5806
 20
4.1801
 10
9.657
 20
4.1681
 10
9.7365
 20
4.1604
 10
9.819
 20
4.1571
 10
9.9031
 20
4.1581
 10
9.9846
 20
4.163
 10
10.0634
 20
4.1719
 10
10.1393
 20
4.1848
 10
10.2125
 20
4.2016
 10
10.283
 20
4.2223
 10
10.3506
 20
4.247
 10
10.4155
 20
4.2757
 10
10.4776
 20
4.3083
 10
10.537
 20
4.3449
 10
10.5936
 20
4.3854
 10
10.6474
 20
4.4299
 10
10.6984
 20
4.4783
 10
10.7467
 20
4.5307
 10
10.7922
 20
4.5871
 10
10.828
 20
4.6372
 10
10.8568
 20
4.6824
 10
10.8841
 20
4.7302
 10
10.9101
 20
4.7807
 10
10.9346
 20
4.8338
 10
10.9577
 20
4.8896
 10
10.9794
 20
4.948
 10
10.9998
 20
5.0092
 10
11.0187
 20
5.0729
 10
11.0362
 20
5.1394
 10
11.0523
 20
5.2084
 10
11.067
 20
5.2802
 10
11.0803
 20
5.3546
 10
11.0922
 20
5.4317
 10
11.1027
 20
5.5114
 10
11.1118
 20
5.5938
 10
11.1195
 20
5.6788
 10
11.1258
 20
5.7665
 10
11.1307
 20
5.8569
 10
11.1342
 20
5.9499
 10
11.1363
 20
6.0456
 10
11.137
 20
6.1211
 10
11.137
 20
6.2364
 10
11.137
 20
6.3632
 10
11.137
 20
6.4899
 10
11.137
 20
6.6167
 10
11.137
 20
6.7434
 10
11.137
 20
6.8702
 10
11.137
 20
6.9969
 10
11.137
 20
7.1237
 10
11.137
 20
7.2504
 10
11.137
 20
7.3772
 10
11.137
 20
7.5039
 10
11.137
 20
7.6307
 10
11.137
 20
7.7574
 10
11.137
 20
7.8842
 10
11.137
 20
8.0109
 10
11.137
 20
8.1377
 10
11.137
 20
8.2644
 10
11.137
 20
8.3912
 10
11.137
 20
8.5179
 10
11.137
 20
8.6447
 10
11.137
 20
8.7714
 10
11.137
 20
8.8982
 10
11.137
 20
9.0249
 10
11.137
 20
9.1517
 10
11.137
 20
9.2784
 10
11.137
 20
9.4052
 10
11.2381
 20
9.4307
 10
11.3649
 20
9.4307
 10
11.4916
 20
9.4307
 10
11.6184
 20
9.4307
 10
11.7451
 20
9.4307
 10
11.8719
 20
9.4307
 10
11.9986
 20
9.4307
 10
12.1254
 20
9.4307
 10
12.2521
 20
9.4307
 10
12.3789
 20
9.4307
 10
12.5056
 20
9.4307
 10
12.6324
 20
9.4307
 10
12.6695
 20
9.3411
 10
12.6695
 20
9.2144
 10
12.6695
 20
9.0876
 10
12.6695
 20
8.9609
 10
12.6695
 20
8.8341
 10
12.6695
 20
8.7074
 10
12.6695
 20
8.5806
 10
12.6695
 20
8.4539
 10
12.6695
 20
8.3271
 10
12.6695
 20
8.2004
 10
12.6695
 20
8.0736
 10
12.6695
 20
7.9469
 10
12.6695
 20
7.8201
 10
12.6695
 20
7.6934
 10
12.6695
 20
7.5666
 10
12.6695
 20
7.4399
 10
12.6695
 20
7.3131
 10
12.6695
 20
7.1864
 10
12.6695
 20
7.0596
 10
12.6695
 20
6.9329
 10
12.6695
 20
6.8061
 10
12.6695
 20
6.6794
 10
12.6695
 20
6.5526
 10
12.6695
 20
6.4259
 10
12.6695
 20
6.2991
 10
12.6695
 20
6.1724
 10
12.6695
 20
6.0456
 10
12.6695
 20
5.9189
 10
12.6695
 20
5.7921
 10
12.6695
 20
5.6654
 10
12.6695
 20
5.5386
  0
LWPOLYLINE
  5
31
330
17
100
AcDbEntity
  8
OUTLINE
100
AcDbPolyline
 90
672
 70
1
 10
17.117
 20
2.7302
 10
17.0497
 20
2.73
 10
16.991
 20
2.7301
 10
16.933
 20
2.7303
 10
16.8755
 20
2.7306
 10
16.8186
 20
2.7311
 10
16.7623
 20
2.7318
 10
16.7066
 20
2.7326
 10
16.6515
 20
2.7335
 10
16.5969
 20
2.7346
 10
16.543
 20
2.7358
 10
16.4897
 20
2.7372
 10
16.4369
 20
2.7387
 10
16.3848
 20
2.7403
 10
16.3332
 20
2.7421
 10
16.2823
 20
2.7441
 10
16.2319
 20
2.7462
 10
16.1821
 20
2.7484
 10
16.133
 20
2.7508
 10
16.0844
 20
2.7533
 10
16.0364
 20
2.7559
 10
15.989
 20
2.7587
 10
15.9422
 20
2.7617
 10
15.896
 20
2.7648
 10
15.8504
 20
2.768
 10
15.8053
 20
2.7714
 10
15.7609
 20
2.7749
 10
15.71
 20
2.7792
 10
15.6537
 20
2.7842
 10
15.598
 20
2.7894
 10
15.5429
 20
2.7949
 10
15.4884
 20
2.8006
 10
15.4346
 20
2.8065
 10
15.3813
 20
2.8127
 10
15.3287
 20
2.8192
 10
15.2767
 20
2.8259
 10
15.2253
 20
2.8328
 10
15.1745
 20
2.84
 10
15.1243
 20
2.8474
 10
15.0747
 20
2.855
 10
15.0258
 20
2.8629
 10
14.9774
 20
2.8711
 10
14.9297
 20
2.8794
 10
14.8826
 20
2.8881
 10
14.8361
 20
2.8969
 10
14.7902
 20
2.906
 10
14.7449
 20
2.9154
 10
14.7476
 20
2.9635
 10
14.754
 20
3.0145
 10
14.7604
 20
3.0656
 10
14.7668
 20
3.1167
 10
14.7732
 20
3.1677
 10
14.7796
 20
3.2188
 10
14.7859
 20
3.2699
 10
14.7923
 20
3.3209
 10
14.7987
 20
3.372
 10
14.8051
 20
3.423
 10
14.8115
 20
3.4741
 10
14.8179
 20
3.5252
 10
14.8242
 20
3.5762
 10
14.8306
 20
3.6273
 10
14.837
 20
3.6784
 10
14.8434
 20
3.7294
 10
14.8498
 20
3.7805
 10
14.8562
 20
3.8316
 10
14.8625
 20
3.8826
 10
14.8689
 20
3.9337
 10
14.8753
 20
3.9848
 10
14.8817
 20
4.0358
 10
14.8881
 20
4.0869
 10
14.8944
 20
4.138
 10
14.9008
 20
4.189
 10
14.9072
 20
4.2401
 10
14.9136
 20
4.2912
 10
14.92
 20
4.3422
 10
14.9654
 20
4.3496
 10
15.024
 20
4.3417
 10
15.082
 20
4.3339
 10
15.1392
 20
4.3263
 10
15.1958
 20
4.3189
 10
15.2517
 20
4.3116
 10
15.3069
 20
4.3045
 10
15.3614
 20
4.2976
 10
15.4152
 20
4.2908
 10
15.4684
 20
4.2842
 10
15.5208
 20
4.2778
 10
15.5726
 20
4.2715
 10
15.6236
 20
4.2655
 10
15.674
 20
4.2595
 10
15.7237
 20
4.2538
 10
15.7727
 20
4.2482
 10
15.8211
 20
4.2427
 10
15.8687
 20
4.2375
 10
15.9156
 20
4.2324
 10
15.9619
 20
4.2275
 10
16.0075
 20
4.2227
 10
16.0524
 20
4.2181
 10
16.0966
 20
4.2137
 10
16.1401
 20
4.2094
 10
16.1889
 20
4.2048
 10
16.2488
 20
4.1993
 10
16.3075
 20
4.1941
 10
16.3652
 20
4.1892
 10
16.4218
 20
4.1847
 10
16.4772
 20
4.1806
 10
16.5316
 20
4.1767
 10
16.5849
 20
4.1733
 10
16.6371
 20
4.1701
 10
16.6882
 20
4.1673
 10
16.7381
 20
4.1648
 10
16.787
 20
4.1627
 10
16.8348
 20
4.1609
 10
16.8815
 20
4.1594
 10
16.9271
 20
4.1583
 10
16.9716
 20
4.1575
 10
17.015
 20
4.1571
 10
17.0624
 20
4.157
 10
17.1316
 20
4.1573
 10
17.1994
 20
4.158
 10
17.2657
 20
4.1592
 10
17.3304
 20
4.1609
 10
17.3937
 20
4.163
 10
17.4555
 20
4.1655
 10
17.5157
 20
4.1685
 10
17.5745
 20
4.172
 10
17.6317
 20
4.1759
 10
17.6874
 20
4.1802
 10
17.7417
 20
4.185
 10
17.7944
 20
4.1902
 10
17.8456
 20
4.1959
 10
17.8954
 20
4.2021
 10
17.9436
 20
4.2087
 10
17.9903
 20
4.2157
 10
18.0355
 20
4.2232
 10
18.0792
 20
4.2311
 10
18.1214
 20
4.2395
 10
18.1621
 20
4.2483
 10
18.2013
 20
4.2576
 10
18.239
 20
4.2673
 10
18.2752
 20
4.2775
 10
18.3098
 20
4.2881
 10
18.343
 20
4.2992
 10
18.387
 20
4.3155
 10
18.4453
 20
4.3403
 10
18.4987
 20
4.3672
 10
18.5473
 20
4.3961
 10
18.5911
 20
4.4271
 10
18.6301
 20
4.4601
 10
18.6642
 20
4.4952
 10
18.6935
 20
4.5324
 10
18.718
 20
4.5716
 10
18.7376
 20
4.6129
 10
18.7525
 20
4.6563
 10
18.7625
 20
4.7017
 10
18.7677
 20
4.7492
 10
18.768
 20
4.8028
 10
18.7632
 20
4.8597
 10
18.7533
 20
4.9124
 10
18.7381
 20
4.9611
 10
18.7178
 20
5.0057
 10
18.6924
 20
5.0463
 10
18.6617
 20
5.0827
 10
18.6301
 20
5.112
 10
18.5962
 20
5.138
 10
18.5581
 20
5.1627
 10
18.5159
 20
5.186
 10
18.4696
 20
5.208
 10
18.4191
 20
5.2287
 10
18.3644
 20
5.2481
 10
18.3056
 20
5.2662
 10
18.2506
 20
5.2815
 10
18.201
 20
5.2953
 10
18.1514
 20
5.3091
 10
18.1019
 20
5.3229
 10
18.0523
 20
5.3368
 10
18.0027
 20
5.3506
 10
17.9532
 20
5.3644
 10
17.9036
 20
5.3782
 10
17.854
 20
5.392
 10
17.8044
 20
5.4058
 10
17.7549
 20
5.4197
 10
17.7053
 20
5.4335
 10
17.6557
 20
5.4473
 10
17.6061
 20
5.4611
 10
17.5566
 20
5.4749
 10
17.507
 20
5.4887
 10
17.4574
 20
5.5026
 10
17.4078
 20
5.5164
 10
17.3583
 20
5.5302
 10
17.3087
 20
5.544
 10
17.2591
 20
5.5578
 10
17.2095
 20
5.5716
 10
17.16
 20
5.5855
 10
17.1104
 20
5.5993
 10
17.0608
 20
5.6131
 10
17.0113
 20
5.6269
 10
16.9617
 20
5.6407
 10
16.9121
 20
5.6546
 10
16.8625
 20
5.6684
 10
16.813
 20
5.6822
 10
16.7634
 20
5.696
 10
16.7138
 20
5.7098
 10
16.6642
 20
5.7236
 10
16.6147
 20
5.7375
 10
16.5651
 20
5.7513
 10
16.5155
 20
5.7651
 10
16.4659
 20
5.7789
 10
16.4164
 20
5.7927
 10
16.3625
 20
5.8078
 10
16.3028
 20
5.8251
 10
16.2442
 20
5.8429
 10
16.1868
 20
5.8613
 10
16.1307
 20
5.8801
 10
16.0758
 20
5.8994
 10
16.0221
 20
5.9193
 10
15.9695
 20
5.9396
 10
15.9183
 20
5.9604
 10
15.8682
 20
5.9818
 10
15.8193
 20
6.0036
 10
15.7717
 20
6.0259
 10
15.7252
 20
6.0487
 10
15.68
 20
6.072
 10
15.636
 20
6.0958
 10
15.5932
 20
6.1202
 10
15.5516
 20
6.145
 10
15.5112
 20
6.1703
 10
15.472
 20
6.1961
 10
15.4341
 20
6.2224
 10
15.3973
 20
6.2492
 10
15.3618
 20
6.2765
 10
15.3275
 20
6.3043
 10
15.2944
 20
6.3326
 10
15.2625
 20
6.3614
 10
15.2318
 20
6.3906
 10
15.1998
 20
6.4232
 10
15.1681
 20
6.4581
 10
15.1378
 20
6.4943
 10
15.109
 20
6.5316
 10
15.0817
 20
6.5701
 10
15.0559
 20
6.6099
 10
15.0315
 20
6.6508
 10
15.0086
 20
6.693
 10
14.9871
 20
6.7363
 10
14.9671
 20
6.7809
 10
14.9486
 20
6.8266
 10
14.9316
 20
6.8736
 10
14.916
 20
6.9218
 10
14.9019
 20
6.9712
 10
14.8893
 20
7.0218
 10
14.8781
 20
7.0735
 10
14.8684
 20
7.1265
 10
14.8602
 20
7.1807
 10
14.8534
 20
7.2361
 10
14.8481
 20
7.2928
 10
14.8443
 20
7.3506
 10
14.8419
 20
7.4096
 10
14.841
 20
7.4698
 10
14.8415
 20
7.5279
 10
14.8433
 20
7.5849
 10
14.8464
 20
7.6411
 10
14.8507
 20
7.6964
 10
14.8564
 20
7.7509
 10
14.8633
 20
7.8045
 10
14.8715
 20
7.8573
 10
14.881
 20
7.9093
 10
14.8918
 20
7.9604
 10
14.9039
 20
8.0108
 10
14.9172
 20
8.0602
 10
14.9318
 20
8.1089
 10
14.9478
 20
8.1567
 10
14.965
 20
8.2037
 10
14.9834
 20
8.2498
 10
15.0032
 20
8.2951
 10
15.0243
 20
8.3396
 10
15.0466
 20
8.3833
 10
15.0702
 20
8.4261
 10
15.0951
 20
8.4681
 10
15.1213
 20
8.5092
 10
15.1488
 20
8.5495
 10
15.1776
 20
8.589
 10
15.2076
 20
8.6276
 10
15.2389
 20
8.6655
 10
15.2716
 20
8.7024
 10
15.3055
 20
8.7386
 10
15.3406
 20
8.7739
 10
15.3771
 20
8.8084
 10
15.4149
 20
8.842
 10
15.4539
 20
8.8748
 10
15.4942
 20
8.9068
 10
15.5358
 20
8.9379
 10
15.5787
 20
8.9683
 10
15.6229
 20
8.9977
 10
15.6683
 20
9.0264
 10
15.7123
 20
9.0526
 10
15.7449
 20
9.0711
 10
15.7782
 20
9.0893
 10
15.8121
 20
9.1072
 10
15.8467
 20
9.1247
 10
15.882
 20
9.1418
 10
15.9179
 20
9.1586
 10
15.9545
 20
9.1751
 10
15.9917
 20
9.1912
 10
16.0296
 20
9.2069
 10
16.0682
 20
9.2223
 10
16.1074
 20
9.2374
 10
16.1473
 20
9.2521
 10
16.1879
 20
9.2664
 10
16.2292
 20
9.2804
 10
16.2711
 20
9.2941
 10
16.3136
 20
9.3074
 10
16.3569
 20
9.3203
 10
16.4008
 20
9.333
 10
16.4453
 20
9.3452
 10
16.4905
 20
9.3571
 10
16.5364
 20
9.3687
 10
16.583
 20
9.3799
 10
16.6302
 20
9.3908
 10
16.6781
 20
9.4013
 10
16.7267
 20
9.4115
 10
16.7759
 20
9.4213
 10
16.8258
 20
9.4308
 10
16.8763
 20
9.4399
 10
16.9275
 20
9.4487
 10
16.9794
 20
9.4571
 10
17.032
 20
9.4652
 10
17.0852
 20
9.4729
 10
17.1391
 20
9.4803
 10
17.1936
 20
9.4873
 10
17.2488
 20
9.494
 10
17.3047
 20
9.5004
 10
17.3612
 20
9.5063
 10
17.4184
 20
9.512
 10
17.4763
 20
9.5173
 10
17.5348
 20
9.5222
 10
17.594
 20
9.5268
 10
17.6539
 20
9.5311
 10
17.7144
 20
9.535
 10
17.7756
 20
9.5385
 10
17.8375
 20
9.5417
 10
17.9
 20
9.5446
 10
17.9632
 20
9.5471
 10
18.027
 20
9.5492
 10
18.0915
 20
9.551
 10
18.1567
 20
9.5525
 10
18.2226
 20
9.5536
 10
18.2891
 20
9.5543
 10
18.3563
 20
9.5548
 10
18.4189
 20
9.5548
 10
18.4709
 20
9.5547
 10
18.5227
 20
9.5543
 10
18.5745
 20
9.5537
 10
18.6262
 20
9.5529
 10
18.6779
 20
9.5519
 10
18.7295
 20
9.5506
 10
18.781
 20
9.5492
 10
18.8325
 20
9.5476
 10
18.8839
 20
9.5457
 10
18.9352
 20
9.5436
 10
18.9865
 20
9.5414
 10
19.0377
 20
9.5389
 10
19.0889
 20
9.5362
 10
19.14
 20
9.5333
 10
19.191
 20
9.5302
 10
19.242
 20
9.5269
 10
19.2926
 20
9.5233
 10
19.3417
 20
9.5198
 10
19.391
 20
9.516
 10
19.4406
 20
9.512
 10
19.4905
 20
9.5079
 10
19.5406
 20
9.5035
 10
19.5909
 20
9.4989
 10
19.6415
 20
9.4942
 10
19.6924
 20
9.4892
 10
19.7435
 20
9.4841
 10
19.7949
 20
9.4788
 10
19.8465
 20
9.4732
 10
19.8984
 20
9.4675
 10
19.9505
 20
9.4616
 10
20.0029
 20
9.4555
 10
20.0555
 20
9.4491
 10
20.1084
 20
9.4426
 10
20.1615
 20
9.4359
 10
20.2002
 20
9.4181
 10
20.1943
 20
9.367
 10
20.1884
 20
9.3159
 10
20.1824
 20
9.2648
 10
20.1765
 20
9.2136
 10
20.1705
 20
9.1625
 10
20.1646
 20
9.1114
 10
20.1587
 20
9.0603
 10
20.1527
 20
9.0092
 10
20.1468
 20
8.958
 10
20.1409
 20
8.9069
 10
20.1349
 20
8.8558
 10
20.129
 20
8.8047
 10
20.123
 20
8.7536
 10
20.1171
 20
8.7024
 10
20.1112
 20
8.6513
 10
20.1052
 20
8.6002
 10
20.0993
 20
8.5491
 10
20.0934
 20
8.498
 10
20.0874
 20
8.4468
 10
20.0815
 20
8.3957
 10
20.0755
 20
8.3446
 10
20.0696
 20
8.2935
 10
20.0637
 20
8.2424
 10
20.0577
 20
8.1913
 10
20.0518
 20
8.1401
 10
20.0459
 20
8.089
 10
20.0368
 20
8.0413
 10
19.9786
 20
8.0466
 10
19.9213
 20
8.0517
 10
19.8647
 20
8.0566
 10
19.809
 20
8.0614
 10
19.754
 20
8.0659
 10
19.6998
 20
8.0703
 10
19.6464
 20
8.0745
 10
19.5938
 20
8.0785
 10
19.5419
 20
8.0823
 10
19.4909
 20
8.0859
 10
19.4406
 20
8.0894
 10
19.3911
 20
8.0927
 10
19.3424
 20
8.0958
 10
19.2945
 20
8.0987
 10
19.2474
 20
8.1014
 10
19.201
 20
8.1039
 10
19.1555
 20
8.1063
 10
19.1107
 20
8.1084
 10
19.0584
 20
8.1108
 10
19.002
 20
8.1132
 10
18.9464
 20
8.1155
 10
18.8916
 20
8.1175
 10
18.8377
 20
8.1194
 10
18.7846
 20
8.1211
 10
18.7324
 20
8.1226
 10
18.681
 20
8.1239
 10
18.6304
 20
8.125
 10
18.5807
 20
8.1259
 10
18.5318
 20
8.1267
 10
18.4837
 20
8.1273
 10
18.4365
 20
8.1276
 10
18.3901
 20
8.1278
 10
18.3333
 20
8.1278
 10
18.2642
 20
8.1275
 10
18.1964
 20
8.1269
 10
18.13
 20
8.1259
 10
18.0648
 20
8.1245
 10
18.0011
 20
8.1229
 10
17.9386
 20
8.1208
 10
17.8774
 20
8.1185
 10
17.8176
 20
8.1158
 10
17.7591
 20
8.1128
 10
17.702
 20
8.1094
 10
17.6461
 20
8.1057
 10
17.5916
 20
8.1017
 10
17.5384
 20
8.0973
 10
17.4866
 20
8.0926
 10
17.436
 20
8.0876
 10
17.3868
 20
8.0822
 10
17.339
 20
8.0765
 10
17.2924
 20
8.0704
 10
17.2472
 20
8.0641
 10
17.2033
 20
8.0573
 10
17.1607
 20
8.0503
 10
17.1195
 20
8.0429
 10
17.0796
 20
8.0351
 10
17.041
 20
8.027
 10
17.0037
 20
8.0186
 10
16.9678
 20
8.0099
 10
16.9332
 20
8.0008
 10
16.8999
 20
7.9914
 10
16.8553
 20
7.9775
 10
16.7918
 20
7.955
 10
16.7332
 20
7.9306
 10
16.6796
 20
7.9044
 10
16.631
 20
7.8763
 10
16.5874
 20
7.8463
 10
16.5487
 20
7.8144
 10
16.515
 20
7.7807
 10
16.4862
 20
7.7451
 10
16.4625
 20
7.7077
 10
16.4437
 20
7.6684
 10
16.4298
 20
7.6272
 10
16.421
 20
7.5841
 10
16.4171
 20
7.5392
 10
16.4184
 20
7.4832
 10
16.4254
 20
7.4275
 10
16.4383
 20
7.3765
 10
16.457
 20
7.3302
 10
16.4815
 20
7.2887
 10
16.5118
 20
7.2519
 10
16.5479
 20
7.2199
 10
16.5812
 20
7.1969
 10
16.6169
 20
7.1754
 10
16.6564
 20
7.1546
 10
16.6996
 20
7.1345
 10
16.7466
 20
7.1149
 10
16.7973
 20
7.096
 10
16.8518
 20
7.0777
 10
16.91
 20
7.06
 10
16.9719
 20
7.043
 10
17.0224
 20
7.0294
 10
17.0721
 20
7.016
 10
17.1218
 20
7.0026
 10
17.1715
 20
6.9892
 10
17.2212
 20
6.9759
 10
17.2708
 20
6.9625
 10
17.3205
 20
6.9491
 10
17.3702
 20
6.9357
 10
17.4199
 20
6.9223
 10
17.4696
 20
6.9089
 10
17.5193
 20
6.8955
 10
17.569
 20
6.8821
 10
17.6187
 20
6.8687
 10
17.6684
 20
6.8553
 10
17.718
 20
6.8419
 10
17.7677
 20
6.8285
 10
17.8174
 20
6.8151
 10
17.8671
 20
6.8017
 10
17.9168
 20
6.7883
 10
17.9665
 20
6.7749
 10
18.0162
 20
6.7615
 10
18.0659
 20
6.7482
 10
18.1156
 20
6.7348
 10
18.1653
 20
6.7214
 10
18.2149
 20
6.708
 10
18.2646
 20
6.6946
 10
18.3143
 20
6.6812
 10
18.364
 20
6.6678
 10
18.4137
 20
6.6544
 10
18.4634
 20
6.641
 10
18.5131
 20
6.6276
 10
18.5628
 20
6.6142
 10
18.6239
 20
6.5983
 10
18.6843
 20
6.5818
 10
18.7435
 20
6.565
 10
18.8016
 20
6.5477
 10
18.8587
 20
6.53
 10
18.9147
 20
6.5118
 10
18.9696
 20
6.4932
 10
19.0234
 20
6.4742
 10
19.0762
 20
6.4548
 10
19.1279
 20
6.4349
 10
19.1785
 20
6.4146
 10
19.228
 20
6.3938
 10
19.2765
 20
6.3727
 10
19.3238
 20
6.3511
 10
19.3701
 20
6.329
 10
19.4153
 20
6.3066
 10
19.4595
 20
6.2837
 10
19.5025
 20
6.2603
 10
19.5445
 20
6.2366
 10
19.5854
 20
6.2124
 10
19.6252
 20
6.1878
 10
19.664
 20
6.1627
 10
19.7016
 20
6.1372
 10
19.7382
 20
6.1113
 10
19.7737
 20
6.085
 10
19.8082
 20
6.0582
 10
19.8415
 20
6.031
 10
19.8738
 20
6.0034
 10
19.905
 20
5.9753
 10
19.9358
 20
5.9461
 10
19.9705
 20
5.9112
 10
20.0037
 20
5.8753
 10
20.0356
 20
5.8383
 10
20.066
 20
5.8004
 10
20.095
 20
5.7615
 10
20.1225
 20
5.7216
 10
20.1487
 20
5.6807
 10
20.1734
 20
5.6388
 10
20.1967
 20
5.5959
 10
20.2185
 20
5.552
 10
20.239
 20
5.5071
 10
20.258
 20
5.4612
 10
20.2755
 20
5.4143
 10
20.2917
 20
5.3664
 10
20.3064
 20
5.3175
 10
20.3197
 20
5.2677
 10
20.3316
 20
5.2168
 10
20.3421
 20
5.1649
 10
20.3511
 20
5.112
 10
20.3587
 20
5.0582
 10
20.3649
 20
5.0033
 10
20.3696
 20
4.9475
 10
20.373
 20
4.8906
 10
20.3749
 20
4.8328
 10
20.3754
 20
4.774
 10
20.3745
 20
4.7155
 10
20.3724
 20
4.6579
 10
20.369
 20
4.6012
 10
20.3644
 20
4.5454
 10
20.3585
 20
4.4904
 10
20.3513
 20
4.4363
 10
20.3428
 20
4.3831
 10
20.3331
 20
4.3307
 10
20.3221
 20
4.2792
 10
20.3099
 20
4.2286
 10
20.2963
 20
4.1788
 10
20.2816
 20
4.1299
 10
20.2655
 20
4.0819
 10
20.2482
 20
4.0348
 10
20.2296
 20
3.9885
 10
20.2097
 20
3.9431
 10
20.1886
 20
3.8986
 10
20.1662
 20
3.8549
 10
20.1425
 20
3.8121
 10
20.1176
 20
3.7702
 10
20.0914
 20
3.7291
 10
20.0639
 20
3.6889
 10
20.0352
 20
3.6496
 10
20.0052
 20
3.6112
 10
19.9739
 20
3.5736
 10
19.9414
 20
3.5369
 10
19.9076
 20
3.501
 10
19.8725
 20
3.4661
 10
19.8362
 20
3.432
 10
19.7986
 20
3.3987
 10
19.7597
 20
3.3664
 10
19.7195
 20
3.3349
 10
19.6781
 20
3.3043
 10
19.6354
 20
3.2745
 10
19.5915
 20
3.2457
 10
19.552
 20
3.2211
 10
19.5192
 20
3.2016
 10
19.4857
 20
3.1826
 10
19.4515
 20
3.1639
 10
19.4167
 20
3.1456
 10
19.3811
 20
3.1278
 10
19.3448
 20
3.1103
 10
19.3078
 20
3.0932
 10
19.2701
 20
3.0765
 10
19.2317
 20
3.0602
 10
19.1926
 20
3.0443
 10
19.1527
 20
3.0288
 10
19.1122
 20
3.0136
 10
19.071
 20
2.9989
 10
19.0291
 20
2.9846
 10
18.9864
 20
2.9706
 10
18.9431
 20
2.9571
 10
18.899
 20
2.9439
 10
18.8543
 20
2.9311
 10
18.8088
 20
2.9188
 10
18.7626
 20
2.9068
 10
18.7158
 20
2.8952
 10
18.6682
 20
2.884
 10
18.6199
 20
2.8732
 10
18.5709
 20
2.8628
 10
18.5212
 20
2.8528
 10
18.4708
 20
2.8431
 10
18.4197
 20
2.8339
 10
18.3679
 20
2.8251
 10
18.3154
 20
2.8166
 10
18.2622
 20
2.8086
 10
18.2083
 20
2.8009
 10
18.1536
 20
2.7936
 10
18.0983
 20
2.7868
 10
18.0423
 20
2.7803
 10
17.9855
 20
2.7742
 10
17.9281
 20
2.7685
 10
17.8699
 20
2.7632
 10
17.8111
 20
2.7583
 10
17.7515
 20
2.7538
 10
17.6912
 20
2.7496
 10
17.6302
 20
2.7459
 10
17.5686
 20
2.7426
 10
17.5062
 20
2.7396
 10
17.4431
 20
2.7371
 10
17.3793
 20
2.7349
 10
17.3148
 20
2.7331
 10
17.2496
 20
2.7318
 10
17.1837
 20
2.7308
  0
LWPOLYLINE
  5
32
330
17
100
AcDbEntity
  8
OUTLINE
100
AcDbPolyline
 90
192
 70
1
 10
32.5712
 20
2.7317
 10
32.4492
 20
2.73
 10
32.3276
 20
2.7317
 10
32.2084
 20
2.7369
 10
32.0916
 20
2.7456
 10
31.9772
 20
2.7577
 10
31.8653
 20
2.7732
 10
31.7557
 20
2.7922
 10
31.6486
 20
2.8147
 10
31.5439
 20
2.8406
 10
31.4416
 20
2.87
 10
31.3417
 20
2.9029
 10
31.2442
 20
2.9392
 10
31.1491
 20
2.9789
 10
31.0565
 20
3.0222
 10
30.9662
 20
3.0688
 10
30.8784
 20
3.119
 10
30.793
 20
3.1726
 10
30.71
 20
3.2296
 10
30.6294
 20
3.2901
 10
30.5512
 20
3.3541
 10
30.4754
 20
3.4215
 10
30.4021
 20
3.4924
 10
30.3312
 20
3.5667
 10
30.2644
 20
3.6424
 10
30.2051
 20
3.7149
 10
30.1482
 20
3.7897
 10
30.0937
 20
3.8668
 10
30.0417
 20
3.9463
 10
29.992
 20
4.028
 10
29.9448
 20
4.112
 10
29.9
 20
4.1983
 10
29.8577
 20
4.2869
 10
29.8177
 20
4.3778
 10
29.7802
 20
4.471
 10
29.7451
 20
4.5665
 10
29.7124
 20
4.6643
 10
29.6822
 20
4.7644
 10
29.6544
 20
4.8668
 10
29.629
 20
4.9714
 10
29.606
 20
5.0784
 10
29.5854
 20
5.1877
 10
29.5673
 20
5.2993
 10
29.5516
 20
5.4131
 10
29.5383
 20
5.5293
 10
29.5274
 20
5.6478
 10
29.519
 20
5.7685
 10
29.513
 20
5.8916
 10
29.5094
 20
6.0169
 10
29.5082
 20
6.1446
 10
29.5095
 20
6.2725
 10
29.5131
 20
6.3981
 10
29.5192
 20
6.5213
 10
29.5277
 20
6.6422
 10
29.5386
 20
6.7609
 10
29.552
 20
6.8772
 10
29.5677
 20
6.9911
 10
29.5859
 20
7.1028
 10
29.6065
 20
7.2121
 10
29.6295
 20
7.3191
 10
29.6549
 20
7.4238
 10
29.6827
 20
7.5262
 10
29.713
 20
7.6263
 10
29.7457
 20
7.724
 10
29.7808
 20
7.8194
 10
29.8183
 20
7.9125
 10
29.8582
 20
8.0033
 10
29.9005
 20
8.0917
 10
29.9453
 20
8.1778
 10
29.9925
 20
8.2616
 10
30.0421
 20
8.3431
 10
30.0941
 20
8.4223
 10
30.1485
 20
8.4991
 10
30.2054
 20
8.5737
 10
30.2646
 20
8.6459
 10
30.3314
 20
8.7213
 10
30.4024
 20
8.7954
 10
30.4758
 20
8.8661
 10
30.5516
 20
8.9333
 10
30.6298
 20
8.997
 10
30.7105
 20
9.0574
 10
30.7936
 20
9.1142
 10
30.8791
 20
9.1676
 10
30.967
 20
9.2176
 10
31.0573
 20
9.2641
 10
31.15
 20
9.3072
 10
31.2452
 20
9.3468
 10
31.3428
 20
9.383
 10
31.4427
 20
9.4157
 10
31.5452
 20
9.4449
 10
31.65
 20
9.4707
 10
31.7572
 20
9.4931
 10
31.8669
 20
9.512
 10
31.9789
 20
9.5275
 10
32.0934
 20
9.5395
 10
32.2103
 20
9.5481
 10
32.3296
 20
9.5532
 10
32.4514
 20
9.5548
 10
32.5734
 20
9.5531
 10
32.693
 20
9.5478
 10
32.8101
 20
9.5392
 10
32.9248
 20
9.5271
 10
33.037
 20
9.5115
 10
33.1468
 20
9.4925
 10
33.2541
 20
9.4701
 10
33.359
 20
9.4442
 10
33.4614
 20
9.4149
 10
33.5614
 20
9.3822
 10
33.659
 20
9.346
 10
33.7541
 20
9.3064
 10
33.8468
 20
9.2633
 10
33.937
 20
9.2168
 10
34.0248
 20
9.1668
 10
34.1101
 20
9.1134
 10
34.193
 20
9.0566
 10
34.2734
 20
8.9963
 10
34.3514
 20
8.9326
 10
34.4269
 20
8.8655
 10
34.5
 20
8.7949
 10
34.5707
 20
8.7208
 10
34.637
 20
8.6455
 10
34.6961
 20
8.5732
 10
34.7527
 20
8.4986
 10
34.8069
 20
8.4217
 10
34.8587
 20
8.3425
 10
34.9081
 20
8.261
 10
34.9551
 20
8.1771
 10
34.9997
 20
8.0909
 10
35.0419
 20
8.0024
 10
35.0816
 20
7.9116
 10
35.119
 20
7.8184
 10
35.1539
 20
7.7229
 10
35.1865
 20
7.6251
 10
35.2166
 20
7.525
 10
35.2443
 20
7.4225
 10
35.2696
 20
7.3178
 10
35.2925
 20
7.2107
 10
35.313
 20
7.1013
 10
35.331
 20
6.9895
 10
35.3467
 20
6.8755
 10
35.3599
 20
6.7591
 10
35.3708
 20
6.6404
 10
35.3792
 20
6.5193
 10
35.3852
 20
6.396
 10
35.3888
 20
6.2703
 10
35.3901
 20
6.1423
 10
35.3888
 20
6.0146
 10
35.3852
 20
5.8892
 10
35.3792
 20
5.7662
 10
35.3707
 20
5.6454
 10
35.3598
 20
5.5269
 10
35.3466
 20
5.4108
 10
35.3308
 20
5.2969
 10
35.3127
 20
5.1853
 10
35.2922
 20
5.076
 10
35.2692
 20
4.969
 10
35.2439
 20
4.8644
 10
35.2161
 20
4.762
 10
35.1859
 20
4.6619
 10
35.1533
 20
4.5641
 10
35.1182
 20
4.4686
 10
35.0808
 20
4.3755
 10
35.0409
 20
4.2846
 10
34.9987
 20
4.196
 10
34.954
 20
4.1097
 10
34.9069
 20
4.0257
 10
34.8573
 20
3.944
 10
34.8054
 20
3.8646
 10
34.751
 20
3.7875
 10
34.6943
 20
3.7127
 10
34.6351
 20
3.6402
 10
34.5684
 20
3.5645
 10
34.4977
 20
3.4904
 10
34.4246
 20
3.4197
 10
34.349
 20
3.3524
 10
34.271
 20
3.2886
 10
34.1906
 20
3.2283
 10
34.1077
 20
3.1714
 10
34.0224
 20
3.1179
 10
33.9346
 20
3.0679
 10
33.8444
 20
3.0214
 10
33.7517
 20
2.9783
 10
33.6566
 20
2.9386
 10
33.559
 20
2.9024
 10
33.459
 20
2.8697
 10
33.3566
 20
2.8403
 10
33.2517
 20
2.8145
 10
33.1444
 20
2.7921
 10
33.0347
 20
2.7731
 10
32.9225
 20
2.7576
 10
32.8078
 20
2.7455
 10
32.6907
 20
2.7369
  0
LWPOLYLINE
  5
33
330
17
100
AcDbEntity
  8
OUTLINE
100
AcDbPolyline
 90
192
 70
1
 10
32.3876
 20
4.1582
 10
32.4492
 20
4.157
 10
32.5112
 20
4.1581
 10
32.5719
 20
4.1617
 10
32.6312
 20
4.1676
 10
32.6891
 20
4.1758
 10
32.7456
 20
4.1864
 10
32.8007
 20
4.1994
 10
32.8544
 20
4.2147
 10
32.9068
 20
4.2324
 10
32.9578
 20
4.2524
 10
33.0074
 20
4.2748
 10
33.0556
 20
4.2996
 10
33.1024
 20
4.3267
 10
33.1478
 20
4.3562
 10
33.1919
 20
4.388
 10
33.2346
 20
4.4222
 10
33.2759
 20
4.4587
 10
33.3158
 20
4.4976
 10
33.3543
 20
4.5389
 10
33.3915
 20
4.5825
 10
33.4272
 20
4.6285
 10
33.4613
 20
4.6764
 10
33.487
 20
4.7154
 10
33.5116
 20
4.7555
 10
33.5353
 20
4.7967
 10
33.5581
 20
4.8392
 10
33.5799
 20
4.8829
 10
33.6007
 20
4.9277
 10
33.6205
 20
4.9737
 10
33.6394
 20
5.0209
 10
33.6573
 20
5.0692
 10
33.6742
 20
5.1188
 10
33.6902
 20
5.1695
 10
33.7052
 20
5.2214
 10
33.7192
 20
5.2744
 10
33.7323
 20
5.3287
 10
33.7444
 20
5.3841
 10
33.7555
 20
5.4407
 10
33.7657
 20
5.4985
 10
33.7749
 20
5.5575
 10
33.7831
 20
5.6176
 10
33.7904
 20
5.679
 10
33.7967
 20
5.7415
 10
33.802
 20
5.8051
 10
33.8064
 20
5.87
 10
33.8098
 20
5.936
 10
33.8122
 20
6.0033
 10
33.8137
 20
6.0717
 10
33.8142
 20
6.1412
 10
33.8137
 20
6.2111
 10
33.8123
 20
6.2798
 10
33.8099
 20
6.3473
 10
33.8065
 20
6.4135
 10
33.8022
 20
6.4786
 10
33.7968
 20
6.5425
 10
33.7906
 20
6.6052
 10
33.7833
 20
6.6667
 10
33.7751
 20
6.727
 10
33.7659
 20
6.7861
 10
33.7557
 20
6.844
 10
33.7446
 20
6.9007
 10
33.7325
 20
6.9562
 10
33.7194
 20
7.0105
 10
33.7054
 20
7.0636
 10
33.6904
 20
7.1155
 10
33.6744
 20
7.1662
 10
33.6574
 20
7.2157
 10
33.6395
 20
7.264
 10
33.6206
 20
7.3111
 10
33.6007
 20
7.357
 10
33.5799
 20
7.4018
 10
33.5581
 20
7.4453
 10
33.5353
 20
7.4876
 10
33.5116
 20
7.5287
 10
33.4869
 20
7.5687
 10
33.4612
 20
7.6074
 10
33.4277
 20
7.6543
 10
33.3916
 20
7.7004
 10
33.3543
 20
7.7442
 10
33.3155
 20
7.7856
 10
33.2755
 20
7.8246
 10
33.234
 20
7.8613
 10
33.1912
 20
7.8956
 10
33.1471
 20
7.9276
 10
33.1016
 20
7.9571
 10
33.0548
 20
7.9844
 10
33.0066
 20
8.0092
 10
32.9571
 20
8.0317
 10
32.9062
 20
8.0519
 10
32.8539
 20
8.0696
 10
32.8003
 20
8.0851
 10
32.7454
 20
8.0981
 10
32.6891
 20
8.1088
 10
32.6315
 20
8.1171
 10
32.5725
 20
8.1231
 10
32.5121
 20
8.1266
 10
32.4504
 20
8.1279
 10
32.3886
 20
8.1267
 10
32.3282
 20
8.1232
 10
32.2692
 20
8.1174
 10
32.2115
 20
8.1091
 10
32.1551
 20
8.0986
 10
32.1001
 20
8.0856
 10
32.0465
 20
8.0703
 10
31.9942
 20
8.0526
 10
31.9432
 20
8.0326
 10
31.8936
 20
8.0102
 10
31.8454
 20
7.9854
 10
31.7985
 20
7.9582
 10
31.753
 20
7.9288
 10
31.7088
 20
7.8969
 10
31.666
 20
7.8627
 10
31.6245
 20
7.8261
 10
31.5844
 20
7.7871
 10
31.5456
 20
7.7458
 10
31.5082
 20
7.7021
 10
31.4721
 20
7.6561
 10
31.4382
 20
7.6089
 10
31.4125
 20
7.5702
 10
31.3878
 20
7.5303
 10
31.364
 20
7.4892
 10
31.3412
 20
7.447
 10
31.3193
 20
7.4035
 10
31.2985
 20
7.3588
 10
31.2786
 20
7.3129
 10
31.2596
 20
7.2659
 10
31.2417
 20
7.2176
 10
31.2247
 20
7.1681
 10
31.2087
 20
7.1175
 10
31.1936
 20
7.0656
 10
31.1795
 20
7.0125
 10
31.1664
 20
6.9583
 10
31.1543
 20
6.9028
 10
31.1431
 20
6.8462
 10
31.1329
 20
6.7883
 10
31.1237
 20
6.7293
 10
31.1154
 20
6.669
 10
31.1081
 20
6.6076
 10
31.1018
 20
6.545
 10
31.0964
 20
6.4811
 10
31.0921
 20
6.4161
 10
31.0886
 20
6.3499
 10
31.0862
 20
6.2824
 10
31.0847
 20
6.2138
 10
31.0842
 20
6.144
 10
31.0847
 20
6.0744
 10
31.0861
 20
6.006
 10
31.0885
 20
5.9388
 10
31.0919
 20
5.8727
 10
31.0963
 20
5.8079
 10
31.1016
 20
5.7442
 10
31.1079
 20
5.6817
 10
31.1152
 20
5.6203
 10
31.1235
 20
5.5602
 10
31.1327
 20
5.5012
 10
31.1429
 20
5.4434
 10
31.1541
 20
5.3868
 10
31.1662
 20
5.3313
 10
31.1793
 20
5.277
 10
31.1934
 20
5.2239
 10
31.2085
 20
5.172
 10
31.2245
 20
5.1213
 10
31.2416
 20
5.0717
 10
31.2596
 20
5.0233
 10
31.2785
 20
4.9761
 10
31.2985
 20
4.9301
 10
31.3194
 20
4.8852
 10
31.3413
 20
4.8416
 10
31.3641
 20
4.7991
 10
31.388
 20
4.7577
 10
31.4128
 20
4.7176
 10
31.4386
 20
4.6786
 10
31.4725
 20
4.6311
 10
31.5085
 20
4.5848
 10
31.5459
 20
4.541
 10
31.5846
 20
4.4995
 10
31.6247
 20
4.4604
 10
31.6661
 20
4.4236
 10
31.7089
 20
4.3893
 10
31.753
 20
4.3573
 10
31.7985
 20
4.3276
 10
31.8453
 20
4.3004
 10
31.8934
 20
4.2755
 10
31.9429
 20
4.253
 10
31.9938
 20
4.2328
 10
32.046
 20
4.215
 10
32.0996
 20
4.1996
 10
32.1545
 20
4.1866
 10
32.2107
 20
4.1759
 10
32.2683
 20
4.1676
 10
32.3273
 20
4.1617
  0
LWPOLYLINE
  5
34
330
17
100
AcDbEntity
  8
OUTLINE
100
AcDbPolyline
 90
303
 70
1
 10
26.2014
 20
9.2221
 10
26.2014
 20
9.1178
 10
26.2014
 20
9.0585
 10
26.2014
 20
9.0135
 10
26.2014
 20
8.9092
 10
26.2014
 20
8.8974
 10
26.2014
 20
8.8049
 10
26.2014
 20
8.7364
 10
26.2014
 20
8.7005
 10
26.2014
 20
8.5962
 10
26.2014
 20
8.5753
 10
26.2014
 20
8.4919
 10
26.2014
 20
8.4143
 10
26.2014
 20
8.3876
 10
26.2014
 20
8.2833
 10
26.2014
 20
8.2532
 10
26.2014
 20
8.179
 10
26.2014
 20
8.0921
 10
26.2014
 20
8.0747
 10
26.2014
 20
7.9311
 10
26.2014
 20
7.77
 10
26.2014
 20
7.609
 10
26.2014
 20
7.4479
 10
26.2014
 20
7.2869
 10
26.2014
 20
7.1258
 10
26.2014
 20
6.9648
 10
26.2014
 20
6.8037
 10
26.2014
 20
6.6426
 10
26.2014
 20
6.4816
 10
26.2014
 20
6.3205
 10
26.2014
 20
6.1595
 10
26.2014
 20
5.9984
 10
26.2014
 20
5.8374
 10
26.2014
 20
5.6763
 10
26.2014
 20
5.5153
 10
26.2014
 20
5.3542
 10
26.2014
 20
5.1931
 10
26.2014
 20
5.0321
 10
26.2014
 20
4.871
 10
26.2014
 20
4.71
 10
26.2014
 20
4.5489
 10
26.2014
 20
4.3879
 10
26.2014
 20
4.2439
 10
26.2157
 20
4.2439
 10
26.2885
 20
4.2439
 10
26.3612
 20
4.2439
 10
26.434
 20
4.2439
 10
26.5068
 20
4.2439
 10
26.5796
 20
4.2439
 10
26.6523
 20
4.2439
 10
26.7251
 20
4.2439
 10
26.7979
 20
4.2439
 10
26.8706
 20
4.2439
 10
26.9434
 20
4.2439
 10
27.0162
 20
4.2439
 10
27.089
 20
4.2439
 10
27.1617
 20
4.2439
 10
27.2345
 20
4.2439
 10
27.3073
 20
4.2439
 10
27.3801
 20
4.2439
 10
27.4528
 20
4.2439
 10
27.5256
 20
4.2439
 10
27.5984
 20
4.2439
 10
27.6711
 20
4.2439
 10
27.7439
 20
4.2439
 10
27.8167
 20
4.2439
 10
27.8895
 20
4.2439
 10
27.9622
 20
4.2439
 10
28.035
 20
4.2439
 10
28.1078
 20
4.2439
 10
28.1805
 20
4.2439
 10
28.1805
 20
4.1711
 10
28.1805
 20
4.0983
 10
28.1805
 20
4.0256
 10
28.1805
 20
3.9528
 10
28.1805
 20
3.88
 10
28.1805
 20
3.8072
 10
28.1805
 20
3.7345
 10
28.1805
 20
3.6617
 10
28.1805
 20
3.5889
 10
28.1805
 20
3.5162
 10
28.1805
 20
3.4434
 10
28.1805
 20
3.3706
 10
28.1805
 20
3.2978
 10
28.1805
 20
3.2251
 10
28.1805
 20
3.1523
 10
28.1805
 20
3.0795
 10
28.1805
 20
3.0067
 10
28.1805
 20
2.934
 10
28.1805
 20
2.8612
 10
28.1149
 20
2.8541
 10
28.0421
 20
2.8541
 10
27.9693
 20
2.8541
 10
27.8966
 20
2.8541
 10
27.8238
 20
2.8541
 10
27.751
 20
2.8541
 10
27.6783
 20
2.8541
 10
27.6055
 20
2.8541
 10
27.5327
 20
2.8541
 10
27.4599
 20
2.8541
 10
27.3872
 20
2.8541
 10
27.3144
 20
2.8541
 10
27.2416
 20
2.8541
 10
27.1689
 20
2.8541
 10
27.0961
 20
2.8541
 10
27.0233
 20
2.8541
 10
26.9505
 20
2.8541
 10
26.8778
 20
2.8541
 10
26.805
 20
2.8541
 10
26.7322
 20
2.8541
 10
26.6594
 20
2.8541
 10
26.5867
 20
2.8541
 10
26.5139
 20
2.8541
 10
26.4411
 20
2.8541
 10
26.3684
 20
2.8541
 10
26.2956
 20
2.8541
 10
26.2228
 20
2.8541
 10
26.15
 20
2.8541
 10
26.1246
 20
2.8541
 10
26.0773
 20
2.8541
 10
25.9635
 20
2.8541
 10
25.8025
 20
2.8541
 10
25.6414
 20
2.8541
 10
25.4804
 20
2.8541
 10
25.3193
 20
2.8541
 10
25.1583
 20
2.8541
 10
24.9972
 20
2.8541
 10
24.8361
 20
2.8541
 10
24.7804
 20
2.8541
 10
24.6975
 20
2.8541
 10
24.6751
 20
2.8541
 10
24.6147
 20
2.8541
 10
24.5318
 20
2.8541
 10
24.449
 20
2.8541
 10
24.3661
 20
2.8541
 10
24.2832
 20
2.8541
 10
24.2004
 20
2.8541
 10
24.1175
 20
2.8541
 10
24.0347
 20
2.8541
 10
23.9518
 20
2.8541
 10
23.869
 20
2.8541
 10
23.7861
 20
2.8541
 10
23.7032
 20
2.8541
 10
23.6204
 20
2.8541
 10
23.5375
 20
2.8541
 10
23.4547
 20
2.8541
 10
23.3718
 20
2.8541
 10
23.2889
 20
2.8541
 10
23.2061
 20
2.8541
 10
23.1232
 20
2.8541
 10
23.0404
 20
2.8541
 10
22.9575
 20
2.8541
 10
22.8747
 20
2.8541
 10
22.7918
 20
2.8541
 10
22.7089
 20
2.8541
 10
22.6261
 20
2.8541
 10
22.5432
 20
2.8541
 10
22.4604
 20
2.8541
 10
22.3775
 20
2.8541
 10
22.2947
 20
2.8541
 10
22.2118
 20
2.8541
 10
22.2118
 20
2.9369
 10
22.2118
 20
3.0198
 10
22.2118
 20
3.1027
 10
22.2118
 20
3.1855
 10
22.2118
 20
3.2684
 10
22.2118
 20
3.3512
 10
22.2118
 20
3.4341
 10
22.2118
 20
3.5169
 10
22.2118
 20
3.5998
 10
22.2118
 20
3.6827
 10
22.2118
 20
3.7655
 10
22.2118
 20
3.8484
 10
22.2118
 20
3.9312
 10
22.2118
 20
4.0141
 10
22.2118
 20
4.097
 10
22.2118
 20
4.1798
 10
22.2306
 20
4.2439
 10
22.3134
 20
4.2439
 10
22.3963
 20
4.2439
 10
22.4792
 20
4.2439
 10
22.562
 20
4.2439
 10
22.6449
 20
4.2439
 10
22.7277
 20
4.2439
 10
22.8106
 20
4.2439
 10
22.8935
 20
4.2439
 10
22.9763
 20
4.2439
 10
23.0592
 20
4.2439
 10
23.142
 20
4.2439
 10
23.2249
 20
4.2439
 10
23.3077
 20
4.2439
 10
23.3906
 20
4.2439
 10
23.4735
 20
4.2439
 10
23.5563
 20
4.2439
 10
23.6392
 20
4.2439
 10
23.722
 20
4.2439
 10
23.8049
 20
4.2439
 10
23.8877
 20
4.2439
 10
23.9706
 20
4.2439
 10
24.0535
 20
4.2439
 10
24.1363
 20
4.2439
 10
24.2192
 20
4.2439
 10
24.302
 20
4.2439
 10
24.3849
 20
4.2439
 10
24.4678
 20
4.2439
 10
24.5506
 20
4.2439
 10
24.6335
 20
4.2439
 10
24.6751
 20
4.2439
 10
24.6751
 20
4.3036
 10
24.6751
 20
4.4646
 10
24.6751
 20
4.6257
 10
24.6751
 20
4.7868
 10
24.6751
 20
4.9478
 10
24.6751
 20
5.1089
 10
24.6751
 20
5.2699
 10
24.6751
 20
5.431
 10
24.6751
 20
5.592
 10
24.6751
 20
5.7531
 10
24.6751
 20
5.9141
 10
24.6751
 20
6.0752
 10
24.6751
 20
6.2363
 10
24.6751
 20
6.3973
 10
24.6751
 20
6.5584
 10
24.6751
 20
6.7194
 10
24.6751
 20
6.8805
 10
24.6751
 20
7.0415
 10
24.6751
 20
7.2026
 10
24.6751
 20
7.3636
 10
24.6751
 20
7.5247
 10
24.6751
 20
7.6857
 10
24.6751
 20
7.8468
 10
24.6751
 20
8.0079
 10
24.6751
 20
8.041
 10
24.6704
 20
8.041
 10
24.566
 20
8.041
 10
24.4617
 20
8.041
 10
24.3574
 20
8.041
 10
24.2531
 20
8.041
 10
24.1488
 20
8.041
 10
24.0445
 20
8.041
 10
23.9402
 20
8.041
 10
23.8358
 20
8.041
 10
23.7315
 20
8.041
 10
23.6272
 20
8.041
 10
23.5229
 20
8.041
 10
23.4186
 20
8.041
 10
23.3143
 20
8.041
 10
23.21
 20
8.041
 10
23.1056
 20
8.041
 10
23.0013
 20
8.041
 10
22.897
 20
8.041
 10
22.7927
 20
8.041
 10
22.6884
 20
8.041
 10
22.5841
 20
8.041
 10
22.5841
 20
8.1453
 10
22.5841
 20
8.2496
 10
22.5841
 20
8.3539
 10
22.5841
 20
8.4582
 10
22.5841
 20
8.5625
 10
22.5841
 20
8.6668
 10
22.5841
 20
8.7712
 10
22.5841
 20
8.8755
 10
22.5841
 20
8.9798
 10
22.5841
 20
9.0841
 10
22.5841
 20
9.1884
 10
22.5841
 20
9.2927
 10
22.5841
 20
9.397
 10
22.6547
 20
9.4307
 10
22.759
 20
9.4307
 10
22.8633
 20
9.4307
 10
22.9676
 20
9.4307
 10
23.0719
 20
9.4307
 10
23.1763
 20
9.4307
 10
23.2806
 20
9.4307
 10
23.3849
 20
9.4307
 10
23.4892
 20
9.4307
 10
23.5935
 20
9.4307
 10
23.6978
 20
9.4307
 10
23.8021
 20
9.4307
 10
23.9065
 20
9.4307
 10
24.0108
 20
9.4307
 10
24.1151
 20
9.4307
 10
24.2194
 20
9.4307
 10
24.3237
 20
9.4307
 10
24.428
 20
9.4307
 10
24.5323
 20
9.4307
 10
24.6367
 20
9.4307
 10
24.741
 20
9.4307
 10
24.8453
 20
9.4307
 10
24.9496
 20
9.4307
 10
25.0539
 20
9.4307
 10
25.1582
 20
9.4307
 10
25.2625
 20
9.4307
 10
25.3668
 20
9.4307
 10
25.4712
 20
9.4307
 10
25.5755
 20
9.4307
 10
25.6798
 20
9.4307
 10
25.7841
 20
9.4307
 10
25.8884
 20
9.4307
 10
25.9927
 20
9.4307
 10
26.097
 20
9.4307
 10
26.2014
 20
9.4307
 10
26.2014
 20
9.3264
  0
LWPOLYLINE
  5
35
330
17
100
AcDbEntity
  8
OUTLINE
100
AcDbPolyline
 90
245
 70
1
 10
0.1504
 20
11.6644
 10
0.207
 20
11.6644
 10
0.3032
 20
11.6644
 10
0.4217
 20
11.6644
 10
0.456
 20
11.6644
 10
0.6088
 20
11.6644
 10
0.6364
 20
11.6644
 10
0.7616
 20
11.6644
 10
0.8511
 20
11.6644
 10
0.9144
 20
11.6644
 10
1.0658
 20
11.6644
 10
1.0671
 20
11.6644
 10
1.2199
 20
11.6644
 10
1.2805
 20
11.6644
 10
1.3727
 20
11.6644
 10
1.5255
 20
11.6644
 10
1.6783
 20
11.6644
 10
1.8311
 20
11.6644
 10
1.9838
 20
11.6644
 10
2.1366
 20
11.6644
 10
2.2894
 20
11.6644
 10
2.4422
 20
11.6644
 10
2.595
 20
11.6644
 10
2.7478
 20
11.6644
 10
2.9005
 20
11.6644
 10
3.0533
 20
11.6644
 10
3.2061
 20
11.6644
 10
3.3589
 20
11.6644
 10
3.5117
 20
11.6644
 10
3.6645
 20
11.6644
 10
3.8172
 20
11.6644
 10
3.97
 20
11.6644
 10
4.1228
 20
11.6644
 10
4.2756
 20
11.6644
 10
4.4284
 20
11.6644
 10
4.5812
 20
11.6644
 10
4.7339
 20
11.6644
 10
4.8867
 20
11.6644
 10
5.0395
 20
11.6644
 10
5.1923
 20
11.6644
 10
5.3451
 20
11.6644
 10
5.4979
 20
11.6644
 10
5.6506
 20
11.6644
 10
5.8034
 20
11.6644
 10
5.9562
 20
11.6644
 10
5.9562
 20
11.5116
 10
5.9562
 20
11.3588
 10
5.9562
 20
11.206
 10
5.9562
 20
11.0532
 10
5.9562
 20
10.9005
 10
5.9562
 20
10.7477
 10
5.9562
 20
10.5949
 10
5.9562
 20
10.4421
 10
5.9562
 20
10.2893
 10
5.8058
 20
10.287
 10
5.653
 20
10.287
 10
5.5002
 20
10.287
 10
5.3474
 20
10.287
 10
5.1946
 20
10.287
 10
5.0418
 20
10.287
 10
4.8891
 20
10.287
 10
4.7363
 20
10.287
 10
4.5835
 20
10.287
 10
4.4307
 20
10.287
 10
4.2779
 20
10.287
 10
4.1251
 20
10.287
 10
3.9724
 20
10.287
 10
3.8196
 20
10.287
 10
3.6668
 20
10.287
 10
3.514
 20
10.287
 10
3.3612
 20
10.287
 10
3.2084
 20
10.287
 10
3.0557
 20
10.287
 10
2.9029
 20
10.287
 10
2.7501
 20
10.287
 10
2.5973
 20
10.287
 10
2.4445
 20
10.287
 10
2.2917
 20
10.287
 10
2.139
 20
10.287
 10
1.9862
 20
10.287
 10
1.8334
 20
10.287
 10
1.6806
 20
10.287
 10
1.5278
 20
10.287
 10
1.4952
 20
10.287
 10
1.4952
 20
10.1615
 10
1.4952
 20
9.9468
 10
1.4952
 20
9.7321
 10
1.4952
 20
9.5174
 10
1.4952
 20
9.3027
 10
1.4952
 20
9.088
 10
1.4952
 20
8.8733
 10
1.4952
 20
8.6586
 10
1.4952
 20
8.4439
 10
1.4952
 20
8.2292
 10
1.4952
 20
8.0145
 10
1.4952
 20
7.7998
 10
1.4952
 20
7.5881
 10
1.5686
 20
7.5881
 10
1.697
 20
7.5881
 10
1.8253
 20
7.5881
 10
1.9537
 20
7.5881
 10
2.082
 20
7.5881
 10
2.2104
 20
7.5881
 10
2.3387
 20
7.5881
 10
2.4671
 20
7.5881
 10
2.5954
 20
7.5881
 10
2.7238
 20
7.5881
 10
2.8521
 20
7.5881
 10
2.9805
 20
7.5881
 10
3.1088
 20
7.5881
 10
3.2372
 20
7.5881
 10
3.3655
 20
7.5881
 10
3.4939
 20
7.5881
 10
3.6222
 20
7.5881
 10
3.7506
 20
7.5881
 10
3.8789
 20
7.5881
 10
4.0073
 20
7.5881
 10
4.1357
 20
7.5881
 10
4.264
 20
7.5881
 10
4.3924
 20
7.5881
 10
4.5207
 20
7.5881
 10
4.6491
 20
7.5881
 10
4.7774
 20
7.5881
 10
4.7774
 20
7.4597
 10
4.7774
 20
7.3313
 10
4.7774
 20
7.203
 10
4.7774
 20
7.0746
 10
4.7774
 20
6.9463
 10
4.7774
 20
6.8179
 10
4.7774
 20
6.6896
 10
4.7774
 20
6.5612
 10
4.7774
 20
6.4329
 10
4.7774
 20
6.3045
 10
4.7491
 20
6.2045
 10
4.6207
 20
6.2045
 10
4.4923
 20
6.2045
 10
4.364
 20
6.2045
 10
4.2356
 20
6.2045
 10
4.1073
 20
6.2045
 10
3.9789
 20
6.2045
 10
3.8506
 20
6.2045
 10
3.7222
 20
6.2045
 10
3.5939
 20
6.2045
 10
3.4655
 20
6.2045
 10
3.3372
 20
6.2045
 10
3.2088
 20
6.2045
 10
3.0805
 20
6.2045
 10
2.9521
 20
6.2045
 10
2.8238
 20
6.2045
 10
2.6954
 20
6.2045
 10
2.5671
 20
6.2045
 10
2.4387
 20
6.2045
 10
2.3104
 20
6.2045
 10
2.182
 20
6.2045
 10
2.0536
 20
6.2045
 10
1.9253
 20
6.2045
 10
1.7969
 20
6.2045
 10
1.6686
 20
6.2045
 10
1.5402
 20
6.2045
 10
1.4952
 20
6.2045
 10
1.4952
 20
6.0822
 10
1.4952
 20
5.8675
 10
1.4952
 20
5.6528
 10
1.4952
 20
5.4381
 10
1.4952
 20
5.2234
 10
1.4952
 20
5.0087
 10
1.4952
 20
4.794
 10
1.4952
 20
4.5793
 10
1.4952
 20
4.3646
 10
1.4952
 20
4.1499
 10
1.4952
 20
3.9353
 10
1.4952
 20
3.7206
 10
1.4952
 20
3.5059
 10
1.4952
 20
3.2912
 10
1.4952
 20
3.0765
 10
1.4952
 20
2.8618
 10
1.2882
 20
2.8541
 10
1.0735
 20
2.8541
 10
0.8588
 20
2.8541
 10
0.6441
 20
2.8541
 10
0.4294
 20
2.8541
 10
0.2147
 20
2.8541
 10
0.0
 20
2.8541
 10
0.0
 20
3.0688
 10
0.0
 20
3.2835
 10
0.0
 20
3.4982
 10
0.0
 20
3.7129
 10
0.0
 20
3.9276
 10
0.0
 20
4.1423
 10
0.0
 20
4.357
 10
0.0
 20
4.5717
 10
0.0
 20
4.7864
 10
0.0
 20
5.0011
 10
0.0
 20
5.2158
 10
0.0
 20
5.4305
 10
0.0
 20
5.6452
 10
0.0
 20
5.8599
 10
0.0
 20
6.0746
 10
0.0
 20
6.2045
 10
0.0
 20
6.2893
 10
0.0
 20
6.3329
 10
0.0
 20
6.4612
 10
0.0
 20
6.504
 10
0.0
 20
6.5896
 10
0.0
 20
6.7179
 10
0.0
 20
6.7187
 10
0.0
 20
6.8463
 10
0.0
 20
6.9333
 10
0.0
 20
6.9747
 10
0.0
 20
7.103
 10
0.0
 20
7.148
 10
0.0
 20
7.2314
 10
0.0
 20
7.3597
 10
0.0
 20
7.3627
 10
0.0
 20
7.4881
 10
0.0
 20
7.5774
 10
0.0
 20
7.7921
 10
0.0
 20
8.0068
 10
0.0
 20
8.2215
 10
0.0
 20
8.4362
 10
0.0
 20
8.6509
 10
0.0
 20
8.8656
 10
0.0
 20
9.0803
 10
0.0
 20
9.295
 10
0.0
 20
9.5097
 10
0.0
 20
9.7244
 10
0.0
 20
9.9391
 10
0.0
 20
10.1538
 10
0.0
 20
10.287
 10
0.0
 20
10.3685
 10
0.0
 20
10.4398
 10
0.0
 20
10.5832
 10
0.0
 20
10.5926
 10
0.0
 20
10.7453
 10
0.0
 20
10.7979
 10
0.0
 20
10.8981
 10
0.0
 20
11.0126
 10
0.0
 20
11.0509
 10
0.0
 20
11.2037
 10
0.0
 20
11.2273
 10
0.0
 20
11.3565
 10
0.0
 20
11.442
 10
0.0
 20
11.5093
 10
0.0
 20
11.6567
 10
0.0
 20
11.662
  0
LWPOLYLINE
  5
36
330
17
100
AcDbEntity
  8
OUTLINE
100
AcDbPolyline
 90
192
 70
1
 10
25.4485
 20
10.382
 10
25.4126
 20
10.3805
 10
25.3762
 20
10.38
 10
25.3397
 20
10.3805
 10
25.3039
 20
10.382
 10
25.2685
 20
10.3845
 10
25.2337
 20
10.3879
 10
25.1994
 20
10.3924
 10
25.1657
 20
10.3979
 10
25.1324
 20
10.4043
 10
25.0998
 20
10.4117
 10
25.0676
 20
10.4202
 10
25.0361
 20
10.4296
 10
25.005
 20
10.44
 10
24.9745
 20
10.4514
 10
24.9445
 20
10.4638
 10
24.9151
 20
10.4771
 10
24.8862
 20
10.4915
 10
24.8578
 20
10.5069
 10
24.83
 20
10.5232
 10
24.8027
 20
10.5406
 10
24.7759
 20
10.5589
 10
24.7497
 20
10.5782
 10
24.7241
 20
10.5985
 10
24.6989
 20
10.6198
 10
24.6743
 20
10.6421
 10
24.6503
 20
10.6654
 10
24.627
 20
10.6895
 10
24.6047
 20
10.7141
 10
24.5834
 20
10.7392
 10
24.563
 20
10.7649
 10
24.5437
 20
10.7911
 10
24.5254
 20
10.8178
 10
24.508
 20
10.8451
 10
24.4917
 20
10.8729
 10
24.4763
 20
10.9013
 10
24.4619
 20
10.9302
 10
24.4486
 20
10.9596
 10
24.4362
 20
10.9896
 10
24.4248
 20
11.0201
 10
24.4144
 20
11.0511
 10
24.405
 20
11.0827
 10
24.3965
 20
11.1149
 10
24.3891
 20
11.1475
 10
24.3826
 20
11.1807
 10
24.3772
 20
11.2145
 10
24.3727
 20
11.2488
 10
24.3693
 20
11.2836
 10
24.3668
 20
11.319
 10
24.3653
 20
11.3549
 10
24.3648
 20
11.3913
 10
24.3653
 20
11.4277
 10
24.3668
 20
11.4636
 10
24.3692
 20
11.499
 10
24.3727
 20
11.5338
 10
24.3772
 20
11.5681
 10
24.3826
 20
11.6019
 10
24.389
 20
11.6351
 10
24.3965
 20
11.6678
 10
24.4049
 20
11.6999
 10
24.4143
 20
11.7315
 10
24.4247
 20
11.7626
 10
24.4361
 20
11.7931
 10
24.4485
 20
11.823
 10
24.4619
 20
11.8525
 10
24.4762
 20
11.8814
 10
24.4916
 20
11.9098
 10
24.5079
 20
11.9376
 10
24.5253
 20
11.9649
 10
24.5436
 20
11.9916
 10
24.5629
 20
12.0178
 10
24.5832
 20
12.0435
 10
24.6045
 20
12.0686
 10
24.6268
 20
12.0932
 10
24.6501
 20
12.1173
 10
24.6742
 20
12.1405
 10
24.6988
 20
12.1628
 10
24.7239
 20
12.1841
 10
24.7496
 20
12.2044
 10
24.7758
 20
12.2238
 10
24.8025
 20
12.2421
 10
24.8298
 20
12.2594
 10
24.8577
 20
12.2758
 10
24.886
 20
12.2911
 10
24.9149
 20
12.3055
 10
24.9444
 20
12.3189
 10
24.9743
 20
12.3313
 10
25.0049
 20
12.3427
 10
25.0359
 20
12.3531
 10
25.0675
 20
12.3625
 10
25.0996
 20
12.3709
 10
25.1323
 20
12.3784
 10
25.1655
 20
12.3848
 10
25.1992
 20
12.3903
 10
25.2335
 20
12.3947
 10
25.2684
 20
12.3982
 10
25.3037
 20
12.4007
 10
25.3396
 20
12.4022
 10
25.376
 20
12.4027
 10
25.4125
 20
12.4022
 10
25.4484
 20
12.4007
 10
25.4838
 20
12.3982
 10
25.5186
 20
12.3947
 10
25.5529
 20
12.3903
 10
25.5866
 20
12.3848
 10
25.6198
 20
12.3784
 10
25.6525
 20
12.371
 10
25.6846
 20
12.3626
 10
25.7162
 20
12.3531
 10
25.7473
 20
12.3427
 10
25.7778
 20
12.3313
 10
25.8078
 20
12.319
 10
25.8372
 20
12.3056
 10
25.8661
 20
12.2912
 10
25.8945
 20
12.2759
 10
25.9223
 20
12.2595
 10
25.9496
 20
12.2422
 10
25.9764
 20
12.2239
 10
26.0026
 20
12.2045
 10
26.0282
 20
12.1842
 10
26.0534
 20
12.1629
 10
26.078
 20
12.1406
 10
26.102
 20
12.1173
 10
26.1253
 20
12.0933
 10
26.1476
 20
12.0687
 10
26.1689
 20
12.0436
 10
26.1892
 20
12.0179
 10
26.2085
 20
11.9917
 10
26.2269
 20
11.965
 10
26.2442
 20
11.9377
 10
26.2606
 20
11.9099
 10
26.2759
 20
11.8815
 10
26.2903
 20
11.8526
 10
26.3037
 20
11.8232
 10
26.3161
 20
11.7932
 10
26.3275
 20
11.7627
 10
26.3379
 20
11.7316
 10
26.3473
 20
11.7
 10
26.3557
 20
11.6679
 10
26.3631
 20
11.6352
 10
26.3696
 20
11.602
 10
26.375
 20
11.5683
 10
26.3795
 20
11.534
 10
26.383
 20
11.4992
 10
26.3854
 20
11.4638
 10
26.3869
 20
11.4279
 10
26.3874
 20
11.3914
 10
26.3869
 20
11.355
 10
26.3854
 20
11.3191
 10
26.383
 20
11.2837
 10
26.3795
 20
11.2489
 10
26.375
 20
11.2146
 10
26.3696
 20
11.1809
 10
26.3632
 20
11.1477
 10
26.3557
 20
11.115
 10
26.3473
 20
11.0829
 10
26.3379
 20
11.0513
 10
26.3275
 20
11.0202
 10
26.3161
 20
10.9897
 10
26.3037
 20
10.9597
 10
26.2903
 20
10.9303
 10
26.276
 20
10.9014
 10
26.2606
 20
10.873
 10
26.2442
 20
10.8452
 10
26.2269
 20
10.8179
 10
26.2086
 20
10.7912
 10
26.1892
 20
10.765
 10
26.1689
 20
10.7393
 10
26.1476
 20
10.7142
 10
26.1253
 20
10.6896
 10
26.102
 20
10.6655
 10
26.078
 20
10.6422
 10
26.0534
 20
10.6199
 10
26.0283
 20
10.5986
 10
26.0026
 20
10.5783
 10
25.9764
 20
10.559
 10
25.9497
 20
10.5406
 10
25.9224
 20
10.5233
 10
25.8946
 20
10.5069
 10
25.8662
 20
10.4915
 10
25.8373
 20
10.4772
 10
25.8079
 20
10.4638
 10
25.7779
 20
10.4514
 10
25.7474
 20
10.44
 10
25.7163
 20
10.4296
 10
25.6847
 20
10.4202
 10
25.6526
 20
10.4117
 10
25.6199
 20
10.4043
 10
25.5867
 20
10.3979
 10
25.553
 20
10.3924
 10
25.5187
 20
10.3879
 10
25.4839
 20
10.3845
  0
LWPOLYLINE
  5
37
330
17
100
AcDbEntity
  8
OUTLINE
100
AcDbPolyline
 90
329
 70
1
 10
53.5575
 20
8.2396
 10
53.5596
 20
8.2396
 10
53.6237
 20
8.2396
 10
53.667
 20
8.2684
 10
53.6807
 20
8.3391
 10
53.6963
 20
8.4079
 10
53.714
 20
8.4748
 10
53.7336
 20
8.5396
 10
53.7553
 20
8.6026
 10
53.7789
 20
8.6635
 10
53.8045
 20
8.7225
 10
53.8322
 20
8.7796
 10
53.8618
 20
8.8346
 10
53.8935
 20
8.8878
 10
53.9271
 20
8.9389
 10
53.9627
 20
8.9881
 10
54.0004
 20
9.0354
 10
54.04
 20
9.0807
 10
54.0816
 20
9.124
 10
54.1253
 20
9.1654
 10
54.1709
 20
9.2048
 10
54.216
 20
9.2403
 10
54.2612
 20
9.2727
 10
54.3082
 20
9.3034
 10
54.3569
 20
9.3322
 10
54.4074
 20
9.3594
 10
54.4597
 20
9.3847
 10
54.5137
 20
9.4083
 10
54.5695
 20
9.4302
 10
54.6271
 20
9.4503
 10
54.6864
 20
9.4686
 10
54.7475
 20
9.4851
 10
54.8104
 20
9.4999
 10
54.875
 20
9.513
 10
54.9414
 20
9.5242
 10
55.0095
 20
9.5337
 10
55.0794
 20
9.5415
 10
55.1511
 20
9.5475
 10
55.2245
 20
9.5517
 10
55.2997
 20
9.5541
 10
55.3761
 20
9.5548
 10
55.4485
 20
9.5539
 10
55.5199
 20
9.5515
 10
55.5904
 20
9.5476
 10
55.6598
 20
9.5423
 10
55.7282
 20
9.5354
 10
55.7957
 20
9.5271
 10
55.8622
 20
9.5172
 10
55.9277
 20
9.5059
 10
55.9922
 20
9.4931
 10
56.0558
 20
9.4788
 10
56.1183
 20
9.4629
 10
56.1799
 20
9.4457
 10
56.2405
 20
9.4269
 10
56.3
 20
9.4066
 10
56.3587
 20
9.3848
 10
56.4163
 20
9.3616
 10
56.4729
 20
9.3368
 10
56.5286
 20
9.3106
 10
56.5833
 20
9.2829
 10
56.637
 20
9.2537
 10
56.6897
 20
9.223
 10
56.7414
 20
9.1908
 10
56.7921
 20
9.1571
 10
56.8419
 20
9.1219
 10
56.8906
 20
9.0853
 10
56.9384
 20
9.0471
 10
56.9852
 20
9.0075
 10
57.0311
 20
8.9664
 10
57.0759
 20
8.9237
 10
57.1197
 20
8.8796
 10
57.1626
 20
8.834
 10
57.2045
 20
8.787
 10
57.2454
 20
8.7384
 10
57.2853
 20
8.6883
 10
57.3201
 20
8.6423
 10
57.3513
 20
8.5991
 10
57.3818
 20
8.555
 10
57.4115
 20
8.5099
 10
57.4404
 20
8.4641
 10
57.4686
 20
8.4173
 10
57.496
 20
8.3696
 10
57.5226
 20
8.321
 10
57.5485
 20
8.2716
 10
57.5736
 20
8.2213
 10
57.598
 20
8.1701
 10
57.6216
 20
8.118
 10
57.6444
 20
8.065
 10
57.6665
 20
8.0111
 10
57.6878
 20
7.9563
 10
57.7083
 20
7.9007
 10
57.7281
 20
7.8441
 10
57.7471
 20
7.7867
 10
57.7653
 20
7.7284
 10
57.7828
 20
7.6692
 10
57.7995
 20
7.6091
 10
57.8155
 20
7.5482
 10
57.8307
 20
7.4863
 10
57.8451
 20
7.4236
 10
57.8588
 20
7.3599
 10
57.8717
 20
7.2954
 10
57.8838
 20
7.23
 10
57.8952
 20
7.1637
 10
57.9058
 20
7.0965
 10
57.9156
 20
7.0285
 10
57.9247
 20
6.9595
 10
57.933
 20
6.8897
 10
57.9406
 20
6.819
 10
57.9474
 20
6.7474
 10
57.9534
 20
6.6749
 10
57.9587
 20
6.6015
 10
57.9632
 20
6.5272
 10
57.9669
 20
6.4521
 10
57.9699
 20
6.376
 10
57.9721
 20
6.2991
 10
57.9735
 20
6.2213
 10
57.9742
 20
6.1426
 10
57.9741
 20
6.0633
 10
57.9733
 20
5.9847
 10
57.9716
 20
5.9071
 10
57.9691
 20
5.8304
 10
57.9659
 20
5.7546
 10
57.9619
 20
5.6797
 10
57.9571
 20
5.6057
 10
57.9515
 20
5.5326
 10
57.9451
 20
5.4605
 10
57.9379
 20
5.3892
 10
57.93
 20
5.3188
 10
57.9212
 20
5.2494
 10
57.9117
 20
5.1808
 10
57.9014
 20
5.1132
 10
57.8902
 20
5.0465
 10
57.8783
 20
4.9806
 10
57.8657
 20
4.9157
 10
57.8522
 20
4.8517
 10
57.8379
 20
4.7886
 10
57.8229
 20
4.7264
 10
57.807
 20
4.6651
 10
57.7904
 20
4.6047
 10
57.773
 20
4.5453
 10
57.7548
 20
4.4867
 10
57.7358
 20
4.429
 10
57.716
 20
4.3723
 10
57.6955
 20
4.3164
 10
57.6741
 20
4.2615
 10
57.652
 20
4.2075
 10
57.6291
 20
4.1544
 10
57.6054
 20
4.1021
 10
57.5809
 20
4.0508
 10
57.5556
 20
4.0004
 10
57.5295
 20
3.9509
 10
57.5026
 20
3.9024
 10
57.475
 20
3.8547
 10
57.4465
 20
3.8079
 10
57.4173
 20
3.762
 10
57.3873
 20
3.7171
 10
57.3565
 20
3.673
 10
57.3249
 20
3.6299
 10
57.2908
 20
3.5854
 10
57.2507
 20
3.5358
 10
57.2097
 20
3.4877
 10
57.1676
 20
3.4411
 10
57.1246
 20
3.396
 10
57.0806
 20
3.3523
 10
57.0356
 20
3.3101
 10
56.9896
 20
3.2694
 10
56.9426
 20
3.2302
 10
56.8947
 20
3.1925
 10
56.8457
 20
3.1562
 10
56.7958
 20
3.1214
 10
56.7449
 20
3.0881
 10
56.693
 20
3.0563
 10
56.6401
 20
3.026
 10
56.5862
 20
2.9971
 10
56.5313
 20
2.9697
 10
56.4754
 20
2.9438
 10
56.4186
 20
2.9194
 10
56.3607
 20
2.8965
 10
56.3019
 20
2.875
 10
56.2421
 20
2.8551
 10
56.1813
 20
2.8366
 10
56.1195
 20
2.8195
 10
56.0567
 20
2.804
 10
55.9929
 20
2.7899
 10
55.9281
 20
2.7774
 10
55.8624
 20
2.7663
 10
55.7957
 20
2.7566
 10
55.7279
 20
2.7485
 10
55.6592
 20
2.7418
 10
55.5895
 20
2.7367
 10
55.5188
 20
2.733
 10
55.4471
 20
2.7307
 10
55.3745
 20
2.73
 10
55.3002
 20
2.7309
 10
55.2275
 20
2.7337
 10
55.1563
 20
2.7383
 10
55.0866
 20
2.7448
 10
55.0185
 20
2.7532
 10
54.952
 20
2.7634
 10
54.887
 20
2.7754
 10
54.8235
 20
2.7893
 10
54.7616
 20
2.8051
 10
54.7012
 20
2.8227
 10
54.6424
 20
2.8422
 10
54.5851
 20
2.8635
 10
54.5293
 20
2.8867
 10
54.4751
 20
2.9117
 10
54.4225
 20
2.9386
 10
54.3714
 20
2.9673
 10
54.3218
 20
2.9979
 10
54.2738
 20
3.0303
 10
54.2273
 20
3.0646
 10
54.1797
 20
3.1032
 10
54.1341
 20
3.1437
 10
54.0908
 20
3.1862
 10
54.0496
 20
3.2307
 10
54.0107
 20
3.2771
 10
53.9739
 20
3.3255
 10
53.9393
 20
3.3758
 10
53.9069
 20
3.4281
 10
53.8768
 20
3.4823
 10
53.8488
 20
3.5385
 10
53.823
 20
3.5967
 10
53.7994
 20
3.6568
 10
53.778
 20
3.7189
 10
53.7588
 20
3.783
 10
53.7417
 20
3.849
 10
53.7269
 20
3.9169
 10
53.7143
 20
3.9868
 10
53.6938
 20
4.0453
 10
53.6297
 20
4.0453
 10
53.5752
 20
4.0453
 10
53.5752
 20
3.9195
 10
53.5752
 20
3.7377
 10
53.5752
 20
3.556
 10
53.5752
 20
3.3743
 10
53.5752
 20
3.1925
 10
53.5752
 20
3.0108
 10
53.5752
 20
2.8291
 10
53.5752
 20
2.6473
 10
53.5752
 20
2.4656
 10
53.5752
 20
2.2839
 10
53.5752
 20
2.1021
 10
53.5752
 20
1.9204
 10
53.5752
 20
1.7387
 10
53.5752
 20
1.5569
 10
53.5752
 20
1.3752
 10
53.5752
 20
1.1935
 10
53.5752
 20
1.0117
 10
53.5752
 20
0.83
 10
53.5752
 20
0.6483
 10
53.5752
 20
0.4665
 10
53.5752
 20
0.2848
 10
53.5752
 20
0.1031
 10
53.4966
 20
-0.0
 10
53.3148
 20
-0.0
 10
53.1331
 20
-0.0
 10
52.9514
 20
-0.0
 10
52.7696
 20
-0.0
 10
52.5879
 20
-0.0
 10
52.4062
 20
-0.0
 10
52.2244
 20
-0.0
 10
52.0427
 20
-0.0
 10
52.0427
 20
0.1817
 10
52.0427
 20
0.3635
 10
52.0427
 20
0.5452
 10
52.0427
 20
0.7269
 10
52.0427
 20
0.9087
 10
52.0427
 20
1.0904
 10
52.0427
 20
1.2721
 10
52.0427
 20
1.4539
 10
52.0427
 20
1.6356
 10
52.0427
 20
1.8173
 10
52.0427
 20
1.9991
 10
52.0427
 20
2.1808
 10
52.0427
 20
2.3625
 10
52.0427
 20
2.5443
 10
52.0427
 20
2.726
 10
52.0427
 20
2.9077
 10
52.0427
 20
3.0895
 10
52.0427
 20
3.2712
 10
52.0427
 20
3.4529
 10
52.0427
 20
3.6347
 10
52.0427
 20
3.8164
 10
52.0427
 20
3.9981
 10
52.0427
 20
4.1799
 10
52.0427
 20
4.3616
 10
52.0427
 20
4.5433
 10
52.0427
 20
4.7251
 10
52.0427
 20
4.9068
 10
52.0427
 20
5.0885
 10
52.0427
 20
5.2703
 10
52.0427
 20
5.452
 10
52.0427
 20
5.6337
 10
52.0427
 20
5.8155
 10
52.0427
 20
5.9972
 10
52.0427
 20
6.1789
 10
52.0427
 20
6.3607
 10
52.0427
 20
6.5424
 10
52.0427
 20
6.7241
 10
52.0427
 20
6.9059
 10
52.0427
 20
7.0876
 10
52.0427
 20
7.2693
 10
52.0427
 20
7.4511
 10
52.0427
 20
7.6328
 10
52.0427
 20
7.8145
 10
52.0427
 20
7.9963
 10
52.0427
 20
8.178
 10
52.0427
 20
8.3597
 10
52.0427
 20
8.5415
 10
52.0427
 20
8.7232
 10
52.0427
 20
8.9049
 10
52.0427
 20
9.0867
 10
52.0427
 20
9.2684
 10
52.0621
 20
9.4307
 10
52.2438
 20
9.4307
 10
52.4256
 20
9.4307
 10
52.6073
 20
9.4307
 10
52.789
 20
9.4307
 10
52.9708
 20
9.4307
 10
53.1525
 20
9.4307
 10
53.3342
 20
9.4307
 10
53.4569
 20
9.3662
 10
53.4731
 20
9.1852
 10
53.4892
 20
9.0042
 10
53.5054
 20
8.8232
 10
53.5216
 20
8.6421
 10
53.5377
 20
8.4611
 10
53.5539
 20
8.2801
  0
LWPOLYLINE
  5
38
330
17
100
AcDbEntity
  8
OUTLINE
100
AcDbPolyline
 90
177
 70
1
 10
53.5752
 20
6.2878
 10
53.5752
 20
6.282
 10
53.5752
 20
6.1003
 10
53.5752
 20
6.0393
 10
53.5753
 20
6.0394
 10
53.576
 20
5.9574
 10
53.5779
 20
5.8773
 10
53.581
 20
5.799
 10
53.5854
 20
5.7225
 10
53.5909
 20
5.6479
 10
53.5976
 20
5.575
 10
53.6055
 20
5.5041
 10
53.6146
 20
5.4349
 10
53.6248
 20
5.3676
 10
53.6363
 20
5.302
 10
53.649
 20
5.2384
 10
53.6628
 20
5.1765
 10
53.6779
 20
5.1165
 10
53.6941
 20
5.0583
 10
53.7115
 20
5.0019
 10
53.7302
 20
4.9474
 10
53.75
 20
4.8946
 10
53.771
 20
4.8438
 10
53.7932
 20
4.7947
 10
53.8166
 20
4.7475
 10
53.8412
 20
4.7021
 10
53.867
 20
4.6585
 10
53.8939
 20
4.6167
 10
53.9258
 20
4.5719
 10
53.963
 20
4.525
 10
54.0024
 20
4.4807
 10
54.0441
 20
4.439
 10
54.088
 20
4.4
 10
54.1342
 20
4.3635
 10
54.1826
 20
4.3296
 10
54.2333
 20
4.2984
 10
54.2862
 20
4.2697
 10
54.3413
 20
4.2437
 10
54.3987
 20
4.2202
 10
54.4584
 20
4.1994
 10
54.5202
 20
4.1811
 10
54.5844
 20
4.1655
 10
54.6507
 20
4.1525
 10
54.7194
 20
4.142
 10
54.7902
 20
4.1342
 10
54.8633
 20
4.129
 10
54.9387
 20
4.1264
 10
55.0138
 20
4.1264
 10
55.0857
 20
4.1291
 10
55.1557
 20
4.1344
 10
55.2239
 20
4.1425
 10
55.2902
 20
4.1532
 10
55.3546
 20
4.1666
 10
55.4172
 20
4.1827
 10
55.478
 20
4.2014
 10
55.5368
 20
4.2229
 10
55.5939
 20
4.247
 10
55.6491
 20
4.2738
 10
55.7024
 20
4.3033
 10
55.7539
 20
4.3355
 10
55.8035
 20
4.3703
 10
55.8513
 20
4.4079
 10
55.8972
 20
4.4481
 10
55.9412
 20
4.491
 10
55.9834
 20
4.5366
 10
56.0238
 20
4.5848
 10
56.0612
 20
4.6343
 10
56.0906
 20
4.6768
 10
56.1188
 20
4.721
 10
56.1457
 20
4.7668
 10
56.1714
 20
4.8142
 10
56.1958
 20
4.8632
 10
56.219
 20
4.9139
 10
56.241
 20
4.9662
 10
56.2616
 20
5.0201
 10
56.2811
 20
5.0757
 10
56.2993
 20
5.1328
 10
56.3162
 20
5.1916
 10
56.3319
 20
5.2521
 10
56.3464
 20
5.3141
 10
56.3596
 20
5.3778
 10
56.3715
 20
5.4431
 10
56.3823
 20
5.51
 10
56.3917
 20
5.5786
 10
56.3999
 20
5.6488
 10
56.4069
 20
5.7206
 10
56.4126
 20
5.7941
 10
56.4171
 20
5.8691
 10
56.4203
 20
5.9458
 10
56.4223
 20
6.0242
 10
56.4231
 20
6.1041
 10
56.4226
 20
6.1836
 10
56.4209
 20
6.2615
 10
56.4179
 20
6.3379
 10
56.4138
 20
6.4127
 10
56.4085
 20
6.4861
 10
56.4019
 20
6.5579
 10
56.3942
 20
6.6283
 10
56.3852
 20
6.6971
 10
56.375
 20
6.7644
 10
56.3637
 20
6.8302
 10
56.3511
 20
6.8945
 10
56.3373
 20
6.9572
 10
56.3223
 20
7.0185
 10
56.306
 20
7.0782
 10
56.2886
 20
7.1365
 10
56.27
 20
7.1932
 10
56.2501
 20
7.2484
 10
56.2291
 20
7.3021
 10
56.2068
 20
7.3543
 10
56.1833
 20
7.405
 10
56.1586
 20
7.4542
 10
56.1327
 20
7.5018
 10
56.1056
 20
7.548
 10
56.0773
 20
7.5926
 10
56.047
 20
7.6369
 10
56.0077
 20
7.6894
 10
55.9667
 20
7.7391
 10
55.924
 20
7.786
 10
55.8795
 20
7.8302
 10
55.8333
 20
7.8716
 10
55.7853
 20
7.9102
 10
55.7356
 20
7.946
 10
55.6842
 20
7.979
 10
55.6311
 20
8.0092
 10
55.5762
 20
8.0367
 10
55.5196
 20
8.0614
 10
55.4612
 20
8.0833
 10
55.4012
 20
8.1024
 10
55.3393
 20
8.1188
 10
55.2758
 20
8.1323
 10
55.2105
 20
8.1431
 10
55.1435
 20
8.1511
 10
55.0747
 20
8.1563
 10
55.0042
 20
8.1587
 10
54.9313
 20
8.1584
 10
54.8591
 20
8.1553
 10
54.7889
 20
8.1496
 10
54.7207
 20
8.1411
 10
54.6544
 20
8.1299
 10
54.59
 20
8.1159
 10
54.5277
 20
8.0993
 10
54.4672
 20
8.0799
 10
54.4087
 20
8.0578
 10
54.3522
 20
8.033
 10
54.2976
 20
8.0055
 10
54.245
 20
7.9753
 10
54.1943
 20
7.9423
 10
54.1456
 20
7.9066
 10
54.0988
 20
7.8682
 10
54.054
 20
7.8271
 10
54.0112
 20
7.7833
 10
53.9703
 20
7.7368
 10
53.9313
 20
7.6875
 10
53.9016
 20
7.6461
 10
53.8736
 20
7.6035
 10
53.8469
 20
7.5592
 10
53.8214
 20
7.5131
 10
53.7972
 20
7.4652
 10
53.7742
 20
7.4155
 10
53.7525
 20
7.3641
 10
53.7321
 20
7.3108
 10
53.7129
 20
7.2557
 10
53.6949
 20
7.1989
 10
53.6782
 20
7.1402
 10
53.6628
 20
7.0798
 10
53.6486
 20
7.0175
 10
53.6357
 20
6.9535
 10
53.624
 20
6.8877
 10
53.6136
 20
6.8201
 10
53.6044
 20
6.7507
 10
53.5965
 20
6.6795
 10
53.5898
 20
6.6065
 10
53.5844
 20
6.5317
 10
53.5802
 20
6.4551
 10
53.5773
 20
6.3768
 10
53.5757
 20
6.2966
  0
LWPOLYLINE
  5
39
330
17
100
AcDbEntity
  8
OUTLINE
100
AcDbPolyline
 90
562
 70
1
 10
63.4136
 20
4.1563
 10
63.4095
 20
4.2245
 10
63.4083
 20
4.2439
 10
63.3673
 20
4.2439
 10
63.322
 20
4.2439
 10
63.2767
 20
4.2439
 10
63.2668
 20
4.2439
 10
63.2625
 20
4.2052
 10
63.2563
 20
4.1577
 10
63.249
 20
4.1109
 10
63.2408
 20
4.0648
 10
63.2316
 20
4.0196
 10
63.2214
 20
3.9751
 10
63.2102
 20
3.9314
 10
63.1981
 20
3.8885
 10
63.185
 20
3.8463
 10
63.1709
 20
3.805
 10
63.1558
 20
3.7644
 10
63.1398
 20
3.7245
 10
63.1227
 20
3.6855
 10
63.1047
 20
3.6472
 10
63.0857
 20
3.6097
 10
63.0658
 20
3.573
 10
63.0448
 20
3.537
 10
63.0229
 20
3.5019
 10
62.9987
 20
3.4655
 10
62.9728
 20
3.429
 10
62.946
 20
3.3934
 10
62.9182
 20
3.3588
 10
62.8894
 20
3.3251
 10
62.8596
 20
3.2924
 10
62.8288
 20
3.2605
 10
62.7971
 20
3.2296
 10
62.7644
 20
3.1997
 10
62.7307
 20
3.1706
 10
62.696
 20
3.1425
 10
62.6604
 20
3.1154
 10
62.6238
 20
3.0891
 10
62.5862
 20
3.0638
 10
62.5476
 20
3.0394
 10
62.508
 20
3.016
 10
62.4675
 20
2.9935
 10
62.426
 20
2.9719
 10
62.3835
 20
2.9513
 10
62.34
 20
2.9315
 10
62.2982
 20
2.9138
 10
62.2605
 20
2.8988
 10
62.2222
 20
2.8845
 10
62.1833
 20
2.8707
 10
62.1438
 20
2.8576
 10
62.1038
 20
2.8452
 10
62.0631
 20
2.8334
 10
62.0219
 20
2.8222
 10
61.9801
 20
2.8117
 10
61.9377
 20
2.8018
 10
61.8947
 20
2.7925
 10
61.8511
 20
2.7839
 10
61.807
 20
2.776
 10
61.7623
 20
2.7686
 10
61.7169
 20
2.7619
 10
61.671
 20
2.7558
 10
61.6245
 20
2.7504
 10
61.5775
 20
2.7456
 10
61.5298
 20
2.7415
 10
61.4816
 20
2.738
 10
61.4327
 20
2.7351
 10
61.3833
 20
2.7329
 10
61.3333
 20
2.7313
 10
61.2827
 20
2.7303
 10
61.2315
 20
2.73
 10
61.1774
 20
2.7303
 10
61.1238
 20
2.7314
 10
61.0709
 20
2.7331
 10
61.0186
 20
2.7356
 10
60.967
 20
2.7387
 10
60.916
 20
2.7425
 10
60.8657
 20
2.747
 10
60.816
 20
2.7523
 10
60.7669
 20
2.7582
 10
60.7185
 20
2.7648
 10
60.6707
 20
2.7721
 10
60.6236
 20
2.7801
 10
60.5771
 20
2.7888
 10
60.5312
 20
2.7982
 10
60.486
 20
2.8083
 10
60.4414
 20
2.819
 10
60.3975
 20
2.8305
 10
60.3542
 20
2.8427
 10
60.3115
 20
2.8556
 10
60.2695
 20
2.8691
 10
60.2281
 20
2.8834
 10
60.1874
 20
2.8983
 10
60.1473
 20
2.914
 10
60.1078
 20
2.9303
 10
60.069
 20
2.9474
 10
60.0308
 20
2.9651
 10
59.9933
 20
2.9836
 10
59.9564
 20
3.0027
 10
59.9201
 20
3.0225
 10
59.8845
 20
3.043
 10
59.8495
 20
3.0642
 10
59.8152
 20
3.0862
 10
59.7815
 20
3.1088
 10
59.7484
 20
3.1321
 10
59.716
 20
3.1561
 10
59.6842
 20
3.1808
 10
59.6531
 20
3.2062
 10
59.6226
 20
3.2322
 10
59.591
 20
3.2607
 10
59.5596
 20
3.2904
 10
59.5292
 20
3.3207
 10
59.4996
 20
3.3517
 10
59.4711
 20
3.3834
 10
59.4434
 20
3.4158
 10
59.4166
 20
3.4489
 10
59.3908
 20
3.4826
 10
59.3659
 20
3.517
 10
59.3419
 20
3.5521
 10
59.3188
 20
3.5879
 10
59.2967
 20
3.6243
 10
59.2755
 20
3.6614
 10
59.2552
 20
3.6992
 10
59.2358
 20
3.7377
 10
59.2173
 20
3.7768
 10
59.1998
 20
3.8167
 10
59.1832
 20
3.8572
 10
59.1675
 20
3.8984
 10
59.1527
 20
3.9402
 10
59.1388
 20
3.9827
 10
59.1259
 20
4.026
 10
59.1139
 20
4.0698
 10
59.1028
 20
4.1144
 10
59.0926
 20
4.1597
 10
59.0833
 20
4.2056
 10
59.075
 20
4.2522
 10
59.0676
 20
4.2994
 10
59.0611
 20
4.3474
 10
59.0555
 20
4.396
 10
59.0509
 20
4.4453
 10
59.0472
 20
4.4953
 10
59.0443
 20
4.546
 10
59.0425
 20
4.5973
 10
59.0415
 20
4.6493
 10
59.0414
 20
4.7013
 10
59.0423
 20
4.7523
 10
59.044
 20
4.8027
 10
59.0466
 20
4.8525
 10
59.05
 20
4.9017
 10
59.0544
 20
4.9504
 10
59.0596
 20
4.9985
 10
59.0657
 20
5.046
 10
59.0726
 20
5.093
 10
59.0805
 20
5.1393
 10
59.0892
 20
5.1852
 10
59.0988
 20
5.2304
 10
59.1092
 20
5.2751
 10
59.1206
 20
5.3192
 10
59.1328
 20
5.3627
 10
59.1459
 20
5.4056
 10
59.1598
 20
5.448
 10
59.1747
 20
5.4898
 10
59.1904
 20
5.5311
 10
59.207
 20
5.5717
 10
59.2244
 20
5.6118
 10
59.2428
 20
5.6513
 10
59.262
 20
5.6903
 10
59.2821
 20
5.7287
 10
59.303
 20
5.7665
 10
59.3249
 20
5.8037
 10
59.3476
 20
5.8404
 10
59.3712
 20
5.8764
 10
59.3957
 20
5.912
 10
59.421
 20
5.9469
 10
59.4472
 20
5.9813
 10
59.4743
 20
6.0151
 10
59.5023
 20
6.0483
 10
59.5311
 20
6.081
 10
59.5608
 20
6.1131
 10
59.5914
 20
6.1446
 10
59.6229
 20
6.1755
 10
59.6553
 20
6.2059
 10
59.6885
 20
6.2357
 10
59.7226
 20
6.2649
 10
59.7575
 20
6.2936
 10
59.7934
 20
6.3216
 10
59.8268
 20
6.3467
 10
59.8577
 20
6.369
 10
59.8891
 20
6.3909
 10
59.9211
 20
6.4124
 10
59.9535
 20
6.4334
 10
59.9864
 20
6.4539
 10
60.0199
 20
6.474
 10
60.0538
 20
6.4937
 10
60.0882
 20
6.5129
 10
60.1231
 20
6.5316
 10
60.1586
 20
6.5499
 10
60.1945
 20
6.5678
 10
60.2309
 20
6.5851
 10
60.2679
 20
6.6021
 10
60.3053
 20
6.6186
 10
60.3432
 20
6.6346
 10
60.3816
 20
6.6502
 10
60.4206
 20
6.6653
 10
60.46
 20
6.68
 10
60.4999
 20
6.6942
 10
60.5403
 20
6.708
 10
60.5813
 20
6.7214
 10
60.6227
 20
6.7342
 10
60.6646
 20
6.7467
 10
60.707
 20
6.7586
 10
60.75
 20
6.7702
 10
60.7934
 20
6.7813
 10
60.8373
 20
6.7919
 10
60.8817
 20
6.8021
 10
60.9267
 20
6.8118
 10
60.9721
 20
6.821
 10
61.018
 20
6.8299
 10
61.0644
 20
6.8382
 10
61.1113
 20
6.8462
 10
61.1588
 20
6.8536
 10
61.2067
 20
6.8606
 10
61.2551
 20
6.8672
 10
61.304
 20
6.8733
 10
61.3534
 20
6.879
 10
61.4034
 20
6.8842
 10
61.4538
 20
6.8889
 10
61.5047
 20
6.8933
 10
61.5561
 20
6.8971
 10
61.608
 20
6.9005
 10
61.6604
 20
6.9035
 10
61.7134
 20
6.906
 10
61.7668
 20
6.908
 10
61.8207
 20
6.9096
 10
61.8751
 20
6.9108
 10
61.93
 20
6.9115
 10
61.9854
 20
6.9117
 10
62.0369
 20
6.9116
 10
62.0875
 20
6.9113
 10
62.1375
 20
6.9106
 10
62.187
 20
6.9097
 10
62.2359
 20
6.9085
 10
62.2842
 20
6.9071
 10
62.3319
 20
6.9054
 10
62.3791
 20
6.9034
 10
62.4257
 20
6.9012
 10
62.4717
 20
6.8987
 10
62.5171
 20
6.896
 10
62.5619
 20
6.893
 10
62.6062
 20
6.8897
 10
62.6498
 20
6.8862
 10
62.6929
 20
6.8823
 10
62.7355
 20
6.8783
 10
62.7774
 20
6.874
 10
62.8188
 20
6.8694
 10
62.8595
 20
6.8645
 10
62.8997
 20
6.8594
 10
62.9394
 20
6.854
 10
62.9802
 20
6.8481
 10
63.0261
 20
6.841
 10
63.0717
 20
6.8335
 10
63.1172
 20
6.8256
 10
63.1624
 20
6.8173
 10
63.2074
 20
6.8086
 10
63.2521
 20
6.7995
 10
63.2914
 20
6.7911
 10
63.2914
 20
6.8151
 10
63.2914
 20
6.8834
 10
63.291
 20
6.9554
 10
63.2873
 20
7.031
 10
63.2794
 20
7.1037
 10
63.2673
 20
7.1737
 10
63.2511
 20
7.2408
 10
63.2308
 20
7.3051
 10
63.2063
 20
7.3666
 10
63.1777
 20
7.4253
 10
63.1449
 20
7.4811
 10
63.1079
 20
7.5342
 10
63.0668
 20
7.5845
 10
63.0216
 20
7.6319
 10
62.9722
 20
7.6765
 10
62.9187
 20
7.7183
 10
62.861
 20
7.7573
 10
62.8103
 20
7.7874
 10
62.7636
 20
7.8125
 10
62.7148
 20
7.8364
 10
62.6638
 20
7.8591
 10
62.6107
 20
7.8806
 10
62.5555
 20
7.901
 10
62.4982
 20
7.9202
 10
62.4387
 20
7.9383
 10
62.3771
 20
7.9551
 10
62.3133
 20
7.9708
 10
62.2475
 20
7.9853
 10
62.1795
 20
7.9987
 10
62.1093
 20
8.0109
 10
62.037
 20
8.0219
 10
61.9626
 20
8.0317
 10
61.8861
 20
8.0404
 10
61.8074
 20
8.0479
 10
61.7266
 20
8.0542
 10
61.6436
 20
8.0593
 10
61.5585
 20
8.0633
 10
61.4746
 20
8.0661
 10
61.4063
 20
8.0679
 10
61.338
 20
8.0697
 10
61.2697
 20
8.0715
 10
61.2014
 20
8.0733
 10
61.1331
 20
8.0751
 10
61.0648
 20
8.0769
 10
60.9964
 20
8.0787
 10
60.9281
 20
8.0805
 10
60.8598
 20
8.0824
 10
60.7915
 20
8.0842
 10
60.7232
 20
8.086
 10
60.6549
 20
8.0878
 10
60.5866
 20
8.0896
 10
60.5183
 20
8.0914
 10
60.45
 20
8.0932
 10
60.3817
 20
8.095
 10
60.3134
 20
8.0969
 10
60.2451
 20
8.0987
 10
60.1767
 20
8.1005
 10
60.1084
 20
8.1023
 10
60.0401
 20
8.1041
 10
59.9718
 20
8.1059
 10
59.9035
 20
8.1077
 10
59.8492
 20
8.122
 10
59.8553
 20
8.19
 10
59.8614
 20
8.2581
 10
59.8675
 20
8.3262
 10
59.8736
 20
8.3942
 10
59.8796
 20
8.4623
 10
59.8857
 20
8.5303
 10
59.8918
 20
8.5984
 10
59.8979
 20
8.6665
 10
59.904
 20
8.7345
 10
59.9101
 20
8.8026
 10
59.9162
 20
8.8706
 10
59.9223
 20
8.9387
 10
59.9284
 20
9.0068
 10
59.9345
 20
9.0748
 10
59.9406
 20
9.1429
 10
59.9467
 20
9.2109
 10
59.9528
 20
9.279
 10
59.9589
 20
9.3471
 10
59.965
 20
9.4151
 10
59.9711
 20
9.4832
 10
60.0306
 20
9.4921
 10
60.0989
 20
9.4912
 10
60.1672
 20
9.4902
 10
60.2356
 20
9.4893
 10
60.3039
 20
9.4884
 10
60.3722
 20
9.4875
 10
60.4405
 20
9.4866
 10
60.5089
 20
9.4857
 10
60.5772
 20
9.4847
 10
60.6455
 20
9.4838
 10
60.7138
 20
9.4829
 10
60.7822
 20
9.482
 10
60.8505
 20
9.4811
 10
60.9188
 20
9.4802
 10
60.9872
 20
9.4792
 10
61.0555
 20
9.4783
 10
61.1238
 20
9.4774
 10
61.1921
 20
9.4765
 10
61.2605
 20
9.4756
 10
61.3288
 20
9.4746
 10
61.4067
 20
9.4734
 10
61.4926
 20
9.4713
 10
61.5775
 20
9.4684
 10
61.6612
 20
9.4646
 10
61.7438
 20
9.46
 10
61.8252
 20
9.4546
 10
61.9055
 20
9.4483
 10
61.9847
 20
9.4412
 10
62.0628
 20
9.4333
 10
62.1397
 20
9.4245
 10
62.2155
 20
9.4149
 10
62.2901
 20
9.4044
 10
62.3637
 20
9.3931
 10
62.4361
 20
9.381
 10
62.5073
 20
9.368
 10
62.5775
 20
9.3542
 10
62.6464
 20
9.3396
 10
62.7143
 20
9.3241
 10
62.781
 20
9.3078
 10
62.8466
 20
9.2907
 10
62.9111
 20
9.2727
 10
62.9745
 20
9.2539
 10
63.0367
 20
9.2343
 10
63.0977
 20
9.2138
 10
63.1577
 20
9.1925
 10
63.2165
 20
9.1704
 10
63.2742
 20
9.1474
 10
63.3307
 20
9.1236
 10
63.3861
 20
9.0989
 10
63.4404
 20
9.0734
 10
63.4936
 20
9.0471
 10
63.5456
 20
9.0199
 10
63.5965
 20
8.9919
 10
63.6462
 20
8.9631
 10
63.6948
 20
8.9334
 10
63.7423
 20
8.9029
 10
63.7887
 20
8.8716
 10
63.8339
 20
8.8394
 10
63.878
 20
8.8064
 10
63.921
 20
8.7726
 10
63.971
 20
8.731
 10
64.0201
 20
8.6877
 10
64.0676
 20
8.6432
 10
64.1136
 20
8.5976
 10
64.1579
 20
8.5508
 10
64.2008
 20
8.5028
 10
64.242
 20
8.4536
 10
64.2817
 20
8.4033
 10
64.3197
 20
8.3518
 10
64.3563
 20
8.2991
 10
64.3912
 20
8.2453
 10
64.4246
 20
8.1903
 10
64.4564
 20
8.1341
 10
64.4866
 20
8.0767
 10
64.5152
 20
8.0182
 10
64.5423
 20
7.9585
 10
64.5678
 20
7.8976
 10
64.5917
 20
7.8355
 10
64.6141
 20
7.7723
 10
64.6349
 20
7.7079
 10
64.6541
 20
7.6424
 10
64.6717
 20
7.5756
 10
64.6878
 20
7.5077
 10
64.7023
 20
7.4387
 10
64.7152
 20
7.3684
 10
64.7265
 20
7.297
 10
64.7363
 20
7.2244
 10
64.7445
 20
7.1506
 10
64.7511
 20
7.0757
 10
64.7562
 20
6.9996
 10
64.7596
 20
6.9223
 10
64.7615
 20
6.8439
 10
64.7619
 20
6.7677
 10
64.7619
 20
6.6993
 10
64.7619
 20
6.631
 10
64.7619
 20
6.5627
 10
64.7619
 20
6.4943
 10
64.7619
 20
6.426
 10
64.7619
 20
6.3577
 10
64.7619
 20
6.2893
 10
64.7619
 20
6.221
 10
64.7619
 20
6.1527
 10
64.7619
 20
6.0844
 10
64.7619
 20
6.016
 10
64.7619
 20
5.9477
 10
64.7619
 20
5.8794
 10
64.7619
 20
5.811
 10
64.7619
 20
5.7427
 10
64.7619
 20
5.6744
 10
64.7619
 20
5.606
 10
64.7619
 20
5.5377
 10
64.7619
 20
5.4694
 10
64.7619
 20
5.401
 10
64.7619
 20
5.3327
 10
64.7619
 20
5.2644
 10
64.7619
 20
5.196
 10
64.7619
 20
5.1277
 10
64.7619
 20
5.0594
 10
64.7619
 20
4.991
 10
64.7619
 20
4.9227
 10
64.7619
 20
4.8544
 10
64.7619
 20
4.786
 10
64.7619
 20
4.7177
 10
64.7619
 20
4.6494
 10
64.7619
 20
4.581
 10
64.7619
 20
4.5127
 10
64.7619
 20
4.4444
 10
64.7619
 20
4.376
 10
64.7619
 20
4.3077
 10
64.7619
 20
4.2394
 10
64.8218
 20
4.2232
 10
64.8895
 20
4.2139
 10
64.9572
 20
4.2046
 10
65.0249
 20
4.1953
 10
65.0926
 20
4.186
 10
65.1603
 20
4.1767
 10
65.228
 20
4.1674
 10
65.2957
 20
4.1581
 10
65.3634
 20
4.1488
 10
65.4311
 20
4.1395
 10
65.4988
 20
4.1302
 10
65.5665
 20
4.1208
 10
65.6342
 20
4.1115
 10
65.7019
 20
4.1022
 10
65.7545
 20
4.0798
 10
65.7545
 20
4.0115
 10
65.7545
 20
3.9431
 10
65.7545
 20
3.8748
 10
65.7545
 20
3.8065
 10
65.7545
 20
3.7381
 10
65.7545
 20
3.6698
 10
65.7545
 20
3.6015
 10
65.7545
 20
3.5331
 10
65.7545
 20
3.4648
 10
65.7545
 20
3.3965
 10
65.7545
 20
3.3281
 10
65.7545
 20
3.2598
 10
65.7545
 20
3.1915
 10
65.7545
 20
3.1231
 10
65.7545
 20
3.0548
 10
65.7545
 20
2.9865
 10
65.7545
 20
2.9181
 10
65.7502
 20
2.854
 10
65.6819
 20
2.8521
 10
65.6136
 20
2.8502
 10
65.5453
 20
2.8483
 10
65.477
 20
2.8465
 10
65.4087
 20
2.8446
 10
65.3404
 20
2.8427
 10
65.2721
 20
2.8408
 10
65.2038
 20
2.839
 10
65.1355
 20
2.8371
 10
65.0671
 20
2.8352
 10
64.9988
 20
2.8334
 10
64.9305
 20
2.8315
 10
64.8622
 20
2.8296
 10
64.7939
 20
2.8277
 10
64.7256
 20
2.8259
 10
64.6573
 20
2.824
 10
64.589
 20
2.8221
 10
64.5207
 20
2.8202
 10
64.4524
 20
2.8184
 10
64.3841
 20
2.8165
 10
64.3158
 20
2.8146
 10
64.2475
 20
2.8127
 10
64.1792
 20
2.8109
 10
64.1108
 20
2.809
 10
64.0425
 20
2.8071
 10
63.9742
 20
2.8052
 10
63.9059
 20
2.8034
 10
63.8376
 20
2.8015
 10
63.7693
 20
2.7996
 10
63.701
 20
2.7977
 10
63.6327
 20
2.7959
 10
63.5644
 20
2.794
 10
63.4961
 20
2.7921
 10
63.492
 20
2.8603
 10
63.4878
 20
2.9285
 10
63.4837
 20
2.9967
 10
63.4796
 20
3.0649
 10
63.4755
 20
3.1332
 10
63.4713
 20
3.2014
 10
63.4672
 20
3.2696
 10
63.4631
 20
3.3378
 10
63.459
 20
3.406
 10
63.4548
 20
3.4742
 10
63.4507
 20
3.5424
 10
63.4466
 20
3.6106
 10
63.4425
 20
3.6788
 10
63.4383
 20
3.747
 10
63.4342
 20
3.8152
 10
63.4301
 20
3.8834
 10
63.426
 20
3.9517
 10
63.4218
 20
4.0199
 10
63.4177
 20
4.0881
  0
LWPOLYLINE
  5
3A
330
17
100
AcDbEntity
  8
OUTLINE
100
AcDbPolyline
 90
163
 70
1
 10
63.2914
 20
5.5599
 10
63.2659
 20
5.5646
 10
63.22
 20
5.5726
 10
63.1745
 20
5.5801
 10
63.1294
 20
5.5871
 10
63.0846
 20
5.5935
 10
63.0403
 20
5.5994
 10
62.9964
 20
5.6047
 10
62.9528
 20
5.6094
 10
62.9097
 20
5.6136
 10
62.867
 20
5.6172
 10
62.8246
 20
5.6203
 10
62.7827
 20
5.6229
 10
62.7406
 20
5.6249
 10
62.6971
 20
5.6267
 10
62.6533
 20
5.6285
 10
62.6093
 20
5.6301
 10
62.565
 20
5.6316
 10
62.5205
 20
5.6329
 10
62.4758
 20
5.6342
 10
62.4308
 20
5.6353
 10
62.3856
 20
5.6363
 10
62.3401
 20
5.6372
 10
62.2944
 20
5.6379
 10
62.2484
 20
5.6386
 10
62.2022
 20
5.6391
 10
62.1558
 20
5.6395
 10
62.1091
 20
5.6397
 10
62.0622
 20
5.6399
 10
62.01
 20
5.6399
 10
61.9419
 20
5.6392
 10
61.8754
 20
5.6375
 10
61.8105
 20
5.6349
 10
61.7473
 20
5.6313
 10
61.6857
 20
5.6267
 10
61.6258
 20
5.6212
 10
61.5675
 20
5.6147
 10
61.5108
 20
5.6072
 10
61.4558
 20
5.5988
 10
61.4024
 20
5.5894
 10
61.3507
 20
5.579
 10
61.3006
 20
5.5676
 10
61.2521
 20
5.5553
 10
61.2053
 20
5.542
 10
61.1602
 20
5.5278
 10
61.1166
 20
5.5126
 10
61.0748
 20
5.4964
 10
61.0345
 20
5.4793
 10
60.9959
 20
5.4611
 10
60.959
 20
5.4421
 10
60.9237
 20
5.422
 10
60.89
 20
5.401
 10
60.858
 20
5.379
 10
60.8276
 20
5.3561
 10
60.7989
 20
5.3321
 10
60.7718
 20
5.3073
 10
60.7463
 20
5.2814
 10
60.7225
 20
5.2546
 10
60.7003
 20
5.2268
 10
60.6798
 20
5.198
 10
60.6609
 20
5.1683
 10
60.6437
 20
5.1376
 10
60.628
 20
5.106
 10
60.6141
 20
5.0733
 10
60.6018
 20
5.0397
 10
60.5911
 20
5.0052
 10
60.5821
 20
4.9697
 10
60.5747
 20
4.9332
 10
60.5689
 20
4.8957
 10
60.5648
 20
4.8573
 10
60.5623
 20
4.8179
 10
60.5615
 20
4.7775
 10
60.5627
 20
4.7261
 10
60.5664
 20
4.6764
 10
60.5725
 20
4.6285
 10
60.5811
 20
4.5822
 10
60.5922
 20
4.5377
 10
60.6057
 20
4.4948
 10
60.6216
 20
4.4537
 10
60.64
 20
4.4143
 10
60.6609
 20
4.3766
 10
60.6842
 20
4.3407
 10
60.71
 20
4.3064
 10
60.7382
 20
4.2739
 10
60.7689
 20
4.243
 10
60.802
 20
4.2139
 10
60.8344
 20
4.1888
 10
60.8656
 20
4.1673
 10
60.8984
 20
4.1471
 10
60.9326
 20
4.1282
 10
60.9685
 20
4.1107
 10
61.0058
 20
4.0944
 10
61.0447
 20
4.0795
 10
61.0852
 20
4.0659
 10
61.1272
 20
4.0536
 10
61.1707
 20
4.0426
 10
61.2158
 20
4.0329
 10
61.2624
 20
4.0245
 10
61.3105
 20
4.0175
 10
61.3602
 20
4.0118
 10
61.4115
 20
4.0073
 10
61.4642
 20
4.0042
 10
61.5186
 20
4.0025
 10
61.5738
 20
4.002
 10
61.6257
 20
4.0025
 10
61.6768
 20
4.004
 10
61.7271
 20
4.0063
 10
61.7766
 20
4.0095
 10
61.8253
 20
4.0135
 10
61.8732
 20
4.0184
 10
61.9204
 20
4.0242
 10
61.9668
 20
4.0309
 10
62.0124
 20
4.0385
 10
62.0572
 20
4.0469
 10
62.1012
 20
4.0562
 10
62.1445
 20
4.0664
 10
62.1869
 20
4.0775
 10
62.2286
 20
4.0894
 10
62.2695
 20
4.1022
 10
62.3096
 20
4.1159
 10
62.3489
 20
4.1304
 10
62.3875
 20
4.1458
 10
62.4253
 20
4.1621
 10
62.4622
 20
4.1793
 10
62.4984
 20
4.1974
 10
62.5368
 20
4.2179
 10
62.5798
 20
4.2423
 10
62.6215
 20
4.2674
 10
62.662
 20
4.2933
 10
62.7012
 20
4.3199
 10
62.7392
 20
4.3472
 10
62.7759
 20
4.3753
 10
62.8113
 20
4.4041
 10
62.8455
 20
4.4337
 10
62.8784
 20
4.4639
 10
62.91
 20
4.4949
 10
62.9404
 20
4.5267
 10
62.9696
 20
4.5592
 10
62.9974
 20
4.5924
 10
63.024
 20
4.6263
 10
63.0494
 20
4.661
 10
63.0734
 20
4.6964
 10
63.0963
 20
4.7325
 10
63.1203
 20
4.7735
 10
63.1431
 20
4.8153
 10
63.1642
 20
4.8573
 10
63.1837
 20
4.8995
 10
63.2016
 20
4.9418
 10
63.2179
 20
4.9844
 10
63.2325
 20
5.0271
 10
63.2456
 20
5.07
 10
63.2569
 20
5.1131
 10
63.2667
 20
5.1564
 10
63.2748
 20
5.1998
 10
63.2814
 20
5.2434
 10
63.2862
 20
5.2873
 10
63.2895
 20
5.3313
 10
63.2911
 20
5.3754
 10
63.2914
 20
5.4203
 10
63.2914
 20
5.4656
 10
63.2914
 20
5.5109
 10
63.2914
 20
5.5167
 10
63.2914
 20
5.5562
  0
LWPOLYLINE
  5
3B
330
17
100
AcDbEntity
  8
OUTLINE
100
AcDbPolyline
 90
368
 70
1
 10
75.7107
 20
5.5096
 10
75.6806
 20
5.5096
 10
75.696
 20
5.4543
 10
75.7196
 20
5.3805
 10
75.7456
 20
5.3087
 10
75.7741
 20
5.239
 10
75.805
 20
5.1713
 10
75.8385
 20
5.1057
 10
75.8743
 20
5.0421
 10
75.9127
 20
4.9806
 10
75.9535
 20
4.9212
 10
75.9968
 20
4.8638
 10
76.0425
 20
4.8084
 10
76.0907
 20
4.7551
 10
76.1414
 20
4.7039
 10
76.1936
 20
4.6555
 10
76.2467
 20
4.6102
 10
76.3017
 20
4.5671
 10
76.3586
 20
4.526
 10
76.4174
 20
4.4871
 10
76.4781
 20
4.4502
 10
76.5407
 20
4.4154
 10
76.6053
 20
4.3828
 10
76.6718
 20
4.3522
 10
76.7402
 20
4.3237
 10
76.8105
 20
4.2974
 10
76.8827
 20
4.2731
 10
76.9568
 20
4.2509
 10
77.0328
 20
4.2309
 10
77.1108
 20
4.2129
 10
77.1906
 20
4.197
 10
77.2724
 20
4.1832
 10
77.3561
 20
4.1715
 10
77.4417
 20
4.1619
 10
77.5292
 20
4.1545
 10
77.6187
 20
4.1491
 10
77.71
 20
4.1458
 10
77.8033
 20
4.1446
 10
77.8838
 20
4.1449
 10
77.9631
 20
4.146
 10
78.0421
 20
4.1479
 10
78.1209
 20
4.1506
 10
78.1994
 20
4.1541
 10
78.2776
 20
4.1584
 10
78.3556
 20
4.1634
 10
78.4333
 20
4.1692
 10
78.5108
 20
4.1758
 10
78.588
 20
4.1832
 10
78.6649
 20
4.1914
 10
78.7411
 20
4.2001
 10
78.8176
 20
4.2094
 10
78.8943
 20
4.2193
 10
78.9713
 20
4.2297
 10
79.0486
 20
4.2407
 10
79.1261
 20
4.2523
 10
79.2039
 20
4.2645
 10
79.2819
 20
4.2772
 10
79.3602
 20
4.2904
 10
79.4388
 20
4.3043
 10
79.5162
 20
4.3168
 10
79.5251
 20
4.2389
 10
79.534
 20
4.1611
 10
79.5428
 20
4.0832
 10
79.5517
 20
4.0053
 10
79.5606
 20
3.9274
 10
79.5695
 20
3.8495
 10
79.5784
 20
3.7716
 10
79.5872
 20
3.6938
 10
79.5961
 20
3.6159
 10
79.605
 20
3.538
 10
79.6139
 20
3.4601
 10
79.6228
 20
3.3822
 10
79.6316
 20
3.3043
 10
79.6405
 20
3.2265
 10
79.6494
 20
3.1486
 10
79.6583
 20
3.0707
 10
79.6671
 20
2.9928
 10
79.676
 20
2.9149
 10
79.6053
 20
2.8907
 10
79.5219
 20
2.8762
 10
79.4396
 20
2.8625
 10
79.3582
 20
2.8496
 10
79.2778
 20
2.8375
 10
79.1983
 20
2.8261
 10
79.1198
 20
2.8156
 10
79.0422
 20
2.8058
 10
78.9657
 20
2.7968
 10
78.89
 20
2.7885
 10
78.8154
 20
2.7811
 10
78.7417
 20
2.7744
 10
78.6689
 20
2.7685
 10
78.5971
 20
2.7634
 10
78.5178
 20
2.7585
 10
78.431
 20
2.7535
 10
78.3459
 20
2.7491
 10
78.2626
 20
2.7451
 10
78.1812
 20
2.7415
 10
78.1015
 20
2.7385
 10
78.0236
 20
2.7359
 10
77.9475
 20
2.7338
 10
77.8732
 20
2.7321
 10
77.8006
 20
2.7309
 10
77.7299
 20
2.7302
 10
77.6609
 20
2.73
 10
77.5678
 20
2.7307
 10
77.4759
 20
2.7327
 10
77.3851
 20
2.7361
 10
77.2955
 20
2.7408
 10
77.2071
 20
2.7469
 10
77.1199
 20
2.7544
 10
77.0338
 20
2.7631
 10
76.949
 20
2.7733
 10
76.8653
 20
2.7848
 10
76.7827
 20
2.7977
 10
76.7014
 20
2.8119
 10
76.6212
 20
2.8274
 10
76.5422
 20
2.8443
 10
76.4644
 20
2.8626
 10
76.3878
 20
2.8822
 10
76.3123
 20
2.9032
 10
76.238
 20
2.9255
 10
76.1649
 20
2.9492
 10
76.093
 20
2.9742
 10
76.0222
 20
3.0006
 10
75.9527
 20
3.0284
 10
75.8843
 20
3.0574
 10
75.8171
 20
3.0879
 10
75.751
 20
3.1197
 10
75.6862
 20
3.1528
 10
75.6225
 20
3.1873
 10
75.56
 20
3.2232
 10
75.4986
 20
3.2604
 10
75.4385
 20
3.299
 10
75.3795
 20
3.3389
 10
75.3217
 20
3.3802
 10
75.2651
 20
3.4228
 10
75.2096
 20
3.4668
 10
75.1554
 20
3.5121
 10
75.1023
 20
3.5588
 10
75.0504
 20
3.6068
 10
74.9989
 20
3.6569
 10
74.9488
 20
3.7084
 10
74.9002
 20
3.7611
 10
74.853
 20
3.8151
 10
74.8072
 20
3.8702
 10
74.763
 20
3.9266
 10
74.7202
 20
3.9842
 10
74.6789
 20
4.0431
 10
74.6391
 20
4.1032
 10
74.6007
 20
4.1645
 10
74.5638
 20
4.227
 10
74.5283
 20
4.2907
 10
74.4944
 20
4.3557
 10
74.4619
 20
4.4219
 10
74.4308
 20
4.4894
 10
74.4013
 20
4.558
 10
74.3732
 20
4.6279
 10
74.3465
 20
4.699
 10
74.3214
 20
4.7714
 10
74.2977
 20
4.8449
 10
74.2754
 20
4.9197
 10
74.2547
 20
4.9957
 10
74.2354
 20
5.073
 10
74.2176
 20
5.1514
 10
74.2012
 20
5.2311
 10
74.1863
 20
5.3121
 10
74.1729
 20
5.3942
 10
74.161
 20
5.4776
 10
74.1505
 20
5.5622
 10
74.1415
 20
5.648
 10
74.1339
 20
5.7351
 10
74.1279
 20
5.8234
 10
74.1233
 20
5.9129
 10
74.1201
 20
6.0036
 10
74.1185
 20
6.0956
 10
74.1182
 20
6.1889
 10
74.1194
 20
6.282
 10
74.1219
 20
6.3739
 10
74.1257
 20
6.4646
 10
74.1309
 20
6.5541
 10
74.1374
 20
6.6423
 10
74.1452
 20
6.7293
 10
74.1544
 20
6.815
 10
74.1649
 20
6.8996
 10
74.1768
 20
6.9829
 10
74.19
 20
7.0649
 10
74.2045
 20
7.1458
 10
74.2204
 20
7.2254
 10
74.2376
 20
7.3038
 10
74.2561
 20
7.381
 10
74.276
 20
7.457
 10
74.2972
 20
7.5317
 10
74.3198
 20
7.6052
 10
74.3437
 20
7.6774
 10
74.3689
 20
7.7485
 10
74.3955
 20
7.8183
 10
74.4234
 20
7.8869
 10
74.4526
 20
7.9543
 10
74.4832
 20
8.0204
 10
74.5151
 20
8.0853
 10
74.5484
 20
8.149
 10
74.583
 20
8.2114
 10
74.6189
 20
8.2727
 10
74.6562
 20
8.3327
 10
74.6948
 20
8.3914
 10
74.7347
 20
8.449
 10
74.776
 20
8.5053
 10
74.8186
 20
8.5604
 10
74.8626
 20
8.6143
 10
74.9083
 20
8.6674
 10
74.959
 20
8.7232
 10
75.0111
 20
8.7771
 10
75.0644
 20
8.8293
 10
75.1191
 20
8.8796
 10
75.175
 20
8.9281
 10
75.2322
 20
8.9748
 10
75.2908
 20
9.0198
 10
75.3506
 20
9.0629
 10
75.4117
 20
9.1041
 10
75.4742
 20
9.1436
 10
75.5379
 20
9.1813
 10
75.603
 20
9.2171
 10
75.6693
 20
9.2512
 10
75.7369
 20
9.2834
 10
75.8059
 20
9.3139
 10
75.8761
 20
9.3425
 10
75.9477
 20
9.3693
 10
76.0205
 20
9.3943
 10
76.0946
 20
9.4175
 10
76.1701
 20
9.4389
 10
76.2468
 20
9.4585
 10
76.3249
 20
9.4762
 10
76.4042
 20
9.4922
 10
76.4849
 20
9.5064
 10
76.5668
 20
9.5187
 10
76.65
 20
9.5292
 10
76.7346
 20
9.5379
 10
76.8204
 20
9.5449
 10
76.9076
 20
9.55
 10
76.996
 20
9.5533
 10
77.0858
 20
9.5547
 10
77.1768
 20
9.5544
 10
77.267
 20
9.5523
 10
77.3557
 20
9.5483
 10
77.4431
 20
9.5425
 10
77.5291
 20
9.5349
 10
77.6137
 20
9.5255
 10
77.6969
 20
9.5143
 10
77.7787
 20
9.5012
 10
77.8592
 20
9.4864
 10
77.9383
 20
9.4697
 10
78.0159
 20
9.4512
 10
78.0922
 20
9.4309
 10
78.1672
 20
9.4087
 10
78.2407
 20
9.3848
 10
78.3128
 20
9.359
 10
78.3836
 20
9.3314
 10
78.453
 20
9.302
 10
78.521
 20
9.2708
 10
78.5876
 20
9.2378
 10
78.6528
 20
9.2029
 10
78.7166
 20
9.1662
 10
78.7791
 20
9.1277
 10
78.8402
 20
9.0874
 10
78.8999
 20
9.0453
 10
78.9582
 20
9.0013
 10
79.0151
 20
8.9556
 10
79.0706
 20
8.908
 10
79.1248
 20
8.8586
 10
79.1775
 20
8.8074
 10
79.2289
 20
8.7543
 10
79.2763
 20
8.7024
 10
79.321
 20
8.6505
 10
79.3642
 20
8.5971
 10
79.4061
 20
8.5424
 10
79.4464
 20
8.4863
 10
79.4854
 20
8.4288
 10
79.523
 20
8.3699
 10
79.5591
 20
8.3096
 10
79.5938
 20
8.248
 10
79.6271
 20
8.1849
 10
79.6589
 20
8.1204
 10
79.6894
 20
8.0546
 10
79.7184
 20
7.9873
 10
79.746
 20
7.9187
 10
79.7721
 20
7.8487
 10
79.7969
 20
7.7772
 10
79.8202
 20
7.7044
 10
79.8421
 20
7.6302
 10
79.8626
 20
7.5546
 10
79.8817
 20
7.4776
 10
79.8993
 20
7.3992
 10
79.9155
 20
7.3195
 10
79.9303
 20
7.2383
 10
79.9437
 20
7.1557
 10
79.9556
 20
7.0718
 10
79.9661
 20
6.9864
 10
79.9752
 20
6.8997
 10
79.9829
 20
6.8115
 10
79.9892
 20
6.722
 10
79.994
 20
6.6311
 10
79.9974
 20
6.5388
 10
79.9994
 20
6.445
 10
80.0
 20
6.3512
 10
79.9996
 20
6.2683
 10
79.9986
 20
6.1864
 10
79.997
 20
6.1054
 10
79.9947
 20
6.0254
 10
79.9918
 20
5.9464
 10
79.9882
 20
5.8682
 10
79.984
 20
5.7911
 10
79.9792
 20
5.7148
 10
79.9738
 20
5.6396
 10
79.9677
 20
5.5652
 10
79.9436
 20
5.5096
 10
79.8652
 20
5.5096
 10
79.7869
 20
5.5096
 10
79.7085
 20
5.5096
 10
79.6301
 20
5.5096
 10
79.5517
 20
5.5096
 10
79.4733
 20
5.5096
 10
79.3949
 20
5.5096
 10
79.3165
 20
5.5096
 10
79.2381
 20
5.5096
 10
79.1598
 20
5.5096
 10
79.0814
 20
5.5096
 10
79.003
 20
5.5096
 10
78.9246
 20
5.5096
 10
78.8462
 20
5.5096
 10
78.7678
 20
5.5096
 10
78.6894
 20
5.5096
 10
78.611
 20
5.5096
 10
78.5326
 20
5.5096
 10
78.4543
 20
5.5096
 10
78.3759
 20
5.5096
 10
78.2975
 20
5.5096
 10
78.2191
 20
5.5096
 10
78.1407
 20
5.5096
 10
78.0623
 20
5.5096
 10
77.9839
 20
5.5096
 10
77.9055
 20
5.5096
 10
77.8271
 20
5.5096
 10
77.7488
 20
5.5096
 10
77.6704
 20
5.5096
 10
77.592
 20
5.5096
 10
77.5136
 20
5.5096
 10
77.4352
 20
5.5096
 10
77.3568
 20
5.5096
 10
77.2784
 20
5.5096
 10
77.2
 20
5.5096
 10
77.1216
 20
5.5096
 10
77.0433
 20
5.5096
 10
76.9649
 20
5.5096
 10
76.8865
 20
5.5096
 10
76.8081
 20
5.5096
 10
76.7297
 20
5.5096
 10
76.6513
 20
5.5096
 10
76.5729
 20
5.5096
 10
76.4945
 20
5.5096
 10
76.4162
 20
5.5096
 10
76.3378
 20
5.5096
 10
76.2594
 20
5.5096
 10
76.181
 20
5.5096
 10
76.1026
 20
5.5096
 10
76.0242
 20
5.5096
 10
75.9458
 20
5.5096
 10
75.8674
 20
5.5096
 10
75.789
 20
5.5096
  0
LWPOLYLINE
  5
3C
330
17
100
AcDbEntity
  8
OUTLINE
100
AcDbPolyline
 90
100
 70
1
 10
75.6207
 20
6.6639
 10
75.6152
 20
6.614
 10
75.6682
 20
6.614
 10
75.7466
 20
6.614
 10
75.825
 20
6.614
 10
75.9033
 20
6.614
 10
75.9817
 20
6.614
 10
76.0601
 20
6.614
 10
76.1385
 20
6.614
 10
76.2169
 20
6.614
 10
76.2953
 20
6.614
 10
76.3737
 20
6.614
 10
76.4521
 20
6.614
 10
76.5305
 20
6.614
 10
76.6088
 20
6.614
 10
76.6872
 20
6.614
 10
76.7656
 20
6.614
 10
76.844
 20
6.614
 10
76.9224
 20
6.614
 10
77.0008
 20
6.614
 10
77.0792
 20
6.614
 10
77.1576
 20
6.614
 10
77.236
 20
6.614
 10
77.3143
 20
6.614
 10
77.3927
 20
6.614
 10
77.4711
 20
6.614
 10
77.5495
 20
6.614
 10
77.6279
 20
6.614
 10
77.7063
 20
6.614
 10
77.7847
 20
6.614
 10
77.8631
 20
6.614
 10
77.9414
 20
6.614
 10
78.0198
 20
6.614
 10
78.0982
 20
6.614
 10
78.1766
 20
6.614
 10
78.255
 20
6.614
 10
78.3334
 20
6.614
 10
78.4118
 20
6.614
 10
78.4902
 20
6.614
 10
78.5354
 20
6.6535
 10
78.5327
 20
6.7457
 10
78.527
 20
6.8352
 10
78.5184
 20
6.9219
 10
78.5067
 20
7.0058
 10
78.4921
 20
7.087
 10
78.4746
 20
7.1654
 10
78.454
 20
7.241
 10
78.4305
 20
7.3139
 10
78.4041
 20
7.3839
 10
78.3746
 20
7.4513
 10
78.3422
 20
7.5158
 10
78.3068
 20
7.5776
 10
78.2685
 20
7.6366
 10
78.2272
 20
7.6929
 10
78.1829
 20
7.7463
 10
78.1335
 20
7.7993
 10
78.0796
 20
7.8504
 10
78.023
 20
7.8978
 10
77.9636
 20
7.9413
 10
77.9016
 20
7.9811
 10
77.8368
 20
8.0171
 10
77.7693
 20
8.0493
 10
77.699
 20
8.0778
 10
77.626
 20
8.1025
 10
77.5503
 20
8.1234
 10
77.4719
 20
8.1405
 10
77.3907
 20
8.1539
 10
77.3068
 20
8.1635
 10
77.2202
 20
8.1693
 10
77.1309
 20
8.1713
 10
77.0433
 20
8.1696
 10
76.9583
 20
8.164
 10
76.8756
 20
8.1547
 10
76.7953
 20
8.1416
 10
76.7175
 20
8.1247
 10
76.642
 20
8.1041
 10
76.569
 20
8.0796
 10
76.4983
 20
8.0513
 10
76.4301
 20
8.0193
 10
76.3642
 20
7.9835
 10
76.3008
 20
7.9439
 10
76.2397
 20
7.9005
 10
76.1811
 20
7.8533
 10
76.1248
 20
7.8023
 10
76.071
 20
7.7476
 10
76.0195
 20
7.689
 10
75.9749
 20
7.6326
 10
75.9358
 20
7.578
 10
75.8989
 20
7.5212
 10
75.864
 20
7.4621
 10
75.8313
 20
7.4008
 10
75.8007
 20
7.3372
 10
75.7722
 20
7.2714
 10
75.7459
 20
7.2034
 10
75.7216
 20
7.133
 10
75.6995
 20
7.0605
 10
75.6795
 20
6.9857
 10
75.6616
 20
6.9086
 10
75.6459
 20
6.8293
 10
75.6322
 20
6.7477
  0
LWPOLYLINE
  5
3D
330
17
100
AcDbEntity
  8
OUTLINE
100
AcDbPolyline
 90
432
 70
1
 10
70.5227
 20
2.7306
 10
70.4559
 20
2.7302
 10
70.3893
 20
2.73
 10
70.3074
 20
2.7305
 10
70.2264
 20
2.732
 10
70.1462
 20
2.7344
 10
70.0669
 20
2.7378
 10
69.9886
 20
2.7422
 10
69.9111
 20
2.7476
 10
69.8344
 20
2.754
 10
69.7587
 20
2.7613
 10
69.6839
 20
2.7697
 10
69.6099
 20
2.779
 10
69.5368
 20
2.7893
 10
69.4646
 20
2.8005
 10
69.3933
 20
2.8128
 10
69.3228
 20
2.826
 10
69.2533
 20
2.8402
 10
69.1846
 20
2.8554
 10
69.1168
 20
2.8715
 10
69.0499
 20
2.8887
 10
68.9839
 20
2.9068
 10
68.9188
 20
2.9259
 10
68.8545
 20
2.946
 10
68.7912
 20
2.967
 10
68.7287
 20
2.9891
 10
68.6671
 20
3.0121
 10
68.6064
 20
3.0361
 10
68.5465
 20
3.0611
 10
68.4876
 20
3.087
 10
68.4295
 20
3.114
 10
68.3723
 20
3.1419
 10
68.316
 20
3.1708
 10
68.2606
 20
3.2007
 10
68.206
 20
3.2315
 10
68.1524
 20
3.2633
 10
68.0996
 20
3.2962
 10
68.0477
 20
3.33
 10
67.9967
 20
3.3647
 10
67.9466
 20
3.4005
 10
67.8974
 20
3.4372
 10
67.849
 20
3.4749
 10
67.8016
 20
3.5136
 10
67.755
 20
3.5533
 10
67.7093
 20
3.5939
 10
67.6635
 20
3.6365
 10
67.618
 20
3.6808
 10
67.5736
 20
3.726
 10
67.5303
 20
3.7721
 10
67.4882
 20
3.8192
 10
67.4472
 20
3.8672
 10
67.4074
 20
3.9162
 10
67.3687
 20
3.9661
 10
67.3312
 20
4.0169
 10
67.2948
 20
4.0686
 10
67.2596
 20
4.1212
 10
67.2255
 20
4.1748
 10
67.1925
 20
4.2294
 10
67.1607
 20
4.2848
 10
67.13
 20
4.3412
 10
67.1005
 20
4.3985
 10
67.0722
 20
4.4567
 10
67.0449
 20
4.5159
 10
67.0189
 20
4.576
 10
66.9939
 20
4.637
 10
66.9701
 20
4.6989
 10
66.9475
 20
4.7618
 10
66.926
 20
4.8256
 10
66.9056
 20
4.8903
 10
66.8864
 20
4.956
 10
66.8684
 20
5.0226
 10
66.8515
 20
5.0901
 10
66.8357
 20
5.1585
 10
66.8211
 20
5.2279
 10
66.8076
 20
5.2982
 10
66.7952
 20
5.3695
 10
66.784
 20
5.4416
 10
66.774
 20
5.5147
 10
66.7651
 20
5.5887
 10
66.7573
 20
5.6637
 10
66.7507
 20
5.7396
 10
66.7453
 20
5.8164
 10
66.741
 20
5.8941
 10
66.7378
 20
5.9728
 10
66.7358
 20
6.0524
 10
66.7349
 20
6.1329
 10
66.7351
 20
6.2137
 10
66.7365
 20
6.2937
 10
66.739
 20
6.3727
 10
66.7426
 20
6.4508
 10
66.7473
 20
6.528
 10
66.7531
 20
6.6044
 10
66.76
 20
6.6798
 10
66.7681
 20
6.7543
 10
66.7772
 20
6.8278
 10
66.7875
 20
6.9005
 10
66.7989
 20
6.9723
 10
66.8114
 20
7.0431
 10
66.825
 20
7.1131
 10
66.8397
 20
7.1821
 10
66.8555
 20
7.2503
 10
66.8724
 20
7.3175
 10
66.8905
 20
7.3838
 10
66.9097
 20
7.4492
 10
66.9299
 20
7.5137
 10
66.9513
 20
7.5773
 10
66.9738
 20
7.64
 10
66.9974
 20
7.7017
 10
67.0222
 20
7.7626
 10
67.048
 20
7.8225
 10
67.075
 20
7.8816
 10
67.103
 20
7.9397
 10
67.1322
 20
7.997
 10
67.1625
 20
8.0533
 10
67.1939
 20
8.1087
 10
67.2264
 20
8.1632
 10
67.26
 20
8.2168
 10
67.2948
 20
8.2695
 10
67.3306
 20
8.3212
 10
67.3676
 20
8.3721
 10
67.4057
 20
8.4221
 10
67.4448
 20
8.4711
 10
67.4851
 20
8.5192
 10
67.5266
 20
8.5665
 10
67.5691
 20
8.6128
 10
67.6127
 20
8.6582
 10
67.6571
 20
8.7023
 10
67.7024
 20
8.7453
 10
67.7487
 20
8.7872
 10
67.7959
 20
8.828
 10
67.844
 20
8.8677
 10
67.8931
 20
8.9062
 10
67.9431
 20
8.9436
 10
67.9941
 20
8.98
 10
68.046
 20
9.0152
 10
68.0989
 20
9.0493
 10
68.1527
 20
9.0823
 10
68.2074
 20
9.1141
 10
68.2631
 20
9.1449
 10
68.3197
 20
9.1745
 10
68.3773
 20
9.2031
 10
68.4358
 20
9.2305
 10
68.4953
 20
9.2568
 10
68.5557
 20
9.282
 10
68.617
 20
9.3061
 10
68.6793
 20
9.329
 10
68.7425
 20
9.3509
 10
68.8067
 20
9.3717
 10
68.8718
 20
9.3913
 10
68.9379
 20
9.4098
 10
69.0048
 20
9.4272
 10
69.0728
 20
9.4435
 10
69.1417
 20
9.4587
 10
69.2115
 20
9.4728
 10
69.2823
 20
9.4857
 10
69.354
 20
9.4976
 10
69.4266
 20
9.5083
 10
69.5002
 20
9.5179
 10
69.5747
 20
9.5264
 10
69.6502
 20
9.5338
 10
69.7266
 20
9.5401
 10
69.804
 20
9.5453
 10
69.8823
 20
9.5493
 10
69.9616
 20
9.5523
 10
70.0418
 20
9.5541
 10
70.1229
 20
9.5548
 10
70.2006
 20
9.5544
 10
70.2768
 20
9.5529
 10
70.3522
 20
9.5502
 10
70.4267
 20
9.5463
 10
70.5003
 20
9.5414
 10
70.573
 20
9.5352
 10
70.6449
 20
9.5279
 10
70.716
 20
9.5195
 10
70.7861
 20
9.51
 10
70.8554
 20
9.4993
 10
70.9238
 20
9.4874
 10
70.9914
 20
9.4744
 10
71.0581
 20
9.4603
 10
71.1239
 20
9.445
 10
71.1889
 20
9.4285
 10
71.253
 20
9.411
 10
71.3162
 20
9.3922
 10
71.3785
 20
9.3724
 10
71.44
 20
9.3514
 10
71.5007
 20
9.3292
 10
71.5604
 20
9.3059
 10
71.6193
 20
9.2815
 10
71.6774
 20
9.2559
 10
71.7345
 20
9.2291
 10
71.7908
 20
9.2012
 10
71.8466
 20
9.172
 10
71.9104
 20
9.1366
 10
71.9725
 20
9.0998
 10
72.0329
 20
9.0617
 10
72.0915
 20
9.0224
 10
72.1485
 20
8.9817
 10
72.2037
 20
8.9397
 10
72.2573
 20
8.8965
 10
72.3091
 20
8.8519
 10
72.3592
 20
8.806
 10
72.4076
 20
8.7589
 10
72.4543
 20
8.7104
 10
72.4993
 20
8.6606
 10
72.5425
 20
8.6095
 10
72.5841
 20
8.5572
 10
72.6239
 20
8.5035
 10
72.662
 20
8.4485
 10
72.6984
 20
8.3922
 10
72.7331
 20
8.3346
 10
72.7661
 20
8.2758
 10
72.7974
 20
8.2156
 10
72.827
 20
8.1541
 10
72.8478
 20
8.0932
 10
72.7938
 20
8.051
 10
72.7398
 20
8.0088
 10
72.6858
 20
7.9666
 10
72.6318
 20
7.9244
 10
72.5777
 20
7.8822
 10
72.5237
 20
7.84
 10
72.4697
 20
7.7978
 10
72.4157
 20
7.7556
 10
72.3617
 20
7.7134
 10
72.3077
 20
7.6712
 10
72.2537
 20
7.629
 10
72.1997
 20
7.5868
 10
72.1457
 20
7.5446
 10
72.0917
 20
7.5024
 10
72.0377
 20
7.4602
 10
71.9837
 20
7.418
 10
71.9296
 20
7.3758
 10
71.8756
 20
7.3336
 10
71.8216
 20
7.2914
 10
71.7676
 20
7.2492
 10
71.7146
 20
7.2135
 10
71.6758
 20
7.2737
 10
71.6355
 20
7.332
 10
71.5937
 20
7.3883
 10
71.5504
 20
7.4427
 10
71.5057
 20
7.4951
 10
71.4595
 20
7.5455
 10
71.4119
 20
7.594
 10
71.3627
 20
7.6406
 10
71.3121
 20
7.6852
 10
71.26
 20
7.7278
 10
71.2064
 20
7.7685
 10
71.1514
 20
7.8072
 10
71.0949
 20
7.844
 10
71.0369
 20
7.8788
 10
70.9772
 20
7.9118
 10
70.9164
 20
7.9426
 10
70.8549
 20
7.971
 10
70.7924
 20
7.997
 10
70.7292
 20
8.0207
 10
70.6651
 20
8.042
 10
70.6002
 20
8.061
 10
70.5345
 20
8.0776
 10
70.4679
 20
8.0918
 10
70.4006
 20
8.1037
 10
70.3323
 20
8.1132
 10
70.2633
 20
8.1203
 10
70.1934
 20
8.1251
 10
70.1227
 20
8.1275
 10
70.0475
 20
8.1276
 10
69.9692
 20
8.1254
 10
69.8926
 20
8.1211
 10
69.8176
 20
8.1144
 10
69.7444
 20
8.1056
 10
69.6727
 20
8.0945
 10
69.6028
 20
8.0812
 10
69.5345
 20
8.0657
 10
69.4679
 20
8.0479
 10
69.403
 20
8.0279
 10
69.3397
 20
8.0057
 10
69.2781
 20
7.9813
 10
69.2182
 20
7.9546
 10
69.1599
 20
7.9258
 10
69.1033
 20
7.8946
 10
69.0484
 20
7.8613
 10
68.9952
 20
7.8257
 10
68.9436
 20
7.788
 10
68.8937
 20
7.7479
 10
68.8454
 20
7.7057
 10
68.7989
 20
7.6612
 10
68.7548
 20
7.6155
 10
68.7142
 20
7.5695
 10
68.6754
 20
7.5218
 10
68.6386
 20
7.4725
 10
68.6036
 20
7.4214
 10
68.5705
 20
7.3686
 10
68.5394
 20
7.3142
 10
68.5101
 20
7.258
 10
68.4827
 20
7.2002
 10
68.4572
 20
7.1407
 10
68.4336
 20
7.0794
 10
68.4119
 20
7.0165
 10
68.3922
 20
6.9519
 10
68.3742
 20
6.8855
 10
68.3582
 20
6.8175
 10
68.3441
 20
6.7478
 10
68.3319
 20
6.6764
 10
68.3216
 20
6.6033
 10
68.3132
 20
6.5285
 10
68.3066
 20
6.4519
 10
68.302
 20
6.3737
 10
68.2993
 20
6.2939
 10
68.2984
 20
6.2123
 10
68.2995
 20
6.1316
 10
68.3025
 20
6.0525
 10
68.3074
 20
5.975
 10
68.3142
 20
5.899
 10
68.3229
 20
5.8246
 10
68.3335
 20
5.7518
 10
68.346
 20
5.6806
 10
68.3604
 20
5.6109
 10
68.3768
 20
5.5428
 10
68.395
 20
5.4763
 10
68.4152
 20
5.4113
 10
68.4372
 20
5.3479
 10
68.4612
 20
5.2861
 10
68.4871
 20
5.2259
 10
68.5149
 20
5.1672
 10
68.5446
 20
5.1101
 10
68.5762
 20
5.0546
 10
68.6098
 20
5.0007
 10
68.6452
 20
4.9483
 10
68.6825
 20
4.8975
 10
68.7218
 20
4.8483
 10
68.763
 20
4.8006
 10
68.806
 20
4.7545
 10
68.851
 20
4.71
 10
68.8969
 20
4.668
 10
68.9428
 20
4.6288
 10
68.9903
 20
4.5912
 10
69.0392
 20
4.5552
 10
69.0896
 20
4.5207
 10
69.1414
 20
4.4878
 10
69.1948
 20
4.4565
 10
69.2496
 20
4.4267
 10
69.3059
 20
4.3985
 10
69.3636
 20
4.3718
 10
69.4229
 20
4.3467
 10
69.4836
 20
4.3231
 10
69.5458
 20
4.3011
 10
69.6095
 20
4.2807
 10
69.6747
 20
4.2618
 10
69.7413
 20
4.2445
 10
69.8094
 20
4.2288
 10
69.879
 20
4.2146
 10
69.9501
 20
4.202
 10
70.0226
 20
4.1909
 10
70.0967
 20
4.1814
 10
70.1722
 20
4.1734
 10
70.2492
 20
4.1671
 10
70.3276
 20
4.1622
 10
70.4076
 20
4.159
 10
70.489
 20
4.1572
 10
70.5659
 20
4.157
 10
70.6346
 20
4.1575
 10
70.7032
 20
4.1584
 10
70.7717
 20
4.1599
 10
70.8403
 20
4.1618
 10
70.9088
 20
4.1643
 10
70.9772
 20
4.1672
 10
71.0456
 20
4.1707
 10
71.114
 20
4.1746
 10
71.1824
 20
4.1791
 10
71.2507
 20
4.184
 10
71.319
 20
4.1894
 10
71.3872
 20
4.1954
 10
71.4557
 20
4.2019
 10
71.5251
 20
4.2088
 10
71.5943
 20
4.2162
 10
71.6632
 20
4.2239
 10
71.7318
 20
4.232
 10
71.8001
 20
4.2405
 10
71.8683
 20
4.2494
 10
71.9361
 20
4.2586
 10
72.0037
 20
4.2682
 10
72.071
 20
4.2781
 10
72.1381
 20
4.2885
 10
72.2049
 20
4.2992
 10
72.2714
 20
4.3102
 10
72.3211
 20
4.2991
 10
72.329
 20
4.231
 10
72.3368
 20
4.1629
 10
72.3446
 20
4.0948
 10
72.3525
 20
4.0267
 10
72.3603
 20
3.9586
 10
72.3681
 20
3.8905
 10
72.376
 20
3.8224
 10
72.3838
 20
3.7544
 10
72.3916
 20
3.6863
 10
72.3994
 20
3.6182
 10
72.4073
 20
3.5501
 10
72.4151
 20
3.482
 10
72.4229
 20
3.4139
 10
72.4308
 20
3.3458
 10
72.4386
 20
3.2777
 10
72.4464
 20
3.2096
 10
72.4543
 20
3.1416
 10
72.4621
 20
3.0735
 10
72.4699
 20
3.0054
 10
72.4777
 20
2.9373
 10
72.4351
 20
2.9062
 10
72.3694
 20
2.8925
 10
72.3033
 20
2.8793
 10
72.2369
 20
2.8668
 10
72.1702
 20
2.8549
 10
72.1032
 20
2.8437
 10
72.0359
 20
2.8331
 10
71.9683
 20
2.8231
 10
71.9004
 20
2.8137
 10
71.8321
 20
2.805
 10
71.7635
 20
2.7968
 10
71.6946
 20
2.7894
 10
71.6254
 20
2.7825
 10
71.5559
 20
2.7763
 10
71.4861
 20
2.7707
 10
71.4159
 20
2.7657
 10
71.3456
 20
2.7611
 10
71.2756
 20
2.7568
 10
71.2058
 20
2.7528
 10
71.1363
 20
2.7492
 10
71.0671
 20
2.7459
 10
70.9981
 20
2.7428
 10
70.9294
 20
2.7401
 10
70.861
 20
2.7378
 10
70.7928
 20
2.7357
 10
70.7249
 20
2.734
 10
70.6572
 20
2.7325
 10
70.5899
 20
2.7314
  0
LWPOLYLINE
  5
3E
330
17
100
AcDbEntity
  8
OUTLINE
100
AcDbPolyline
 90
366
 70
1
 10
38.6847
 20
6.0092
 10
38.6847
 20
5.8752
 10
38.6847
 20
5.7413
 10
38.6847
 20
5.6074
 10
38.6847
 20
5.4734
 10
38.6847
 20
5.3395
 10
38.6847
 20
5.2056
 10
38.6847
 20
5.0717
 10
38.6847
 20
4.9377
 10
38.6847
 20
4.8038
 10
38.6847
 20
4.6699
 10
38.6847
 20
4.5359
 10
38.6847
 20
4.402
 10
38.6847
 20
4.2681
 10
38.6847
 20
4.1341
 10
38.6847
 20
4.0002
 10
38.6847
 20
3.8663
 10
38.6847
 20
3.7323
 10
38.6847
 20
3.5984
 10
38.6847
 20
3.4645
 10
38.6847
 20
3.3305
 10
38.6847
 20
3.1966
 10
38.6847
 20
3.0627
 10
38.6847
 20
2.9287
 10
38.6254
 20
2.8541
 10
38.4914
 20
2.8541
 10
38.3575
 20
2.8541
 10
38.2236
 20
2.8541
 10
38.0896
 20
2.8541
 10
37.9557
 20
2.8541
 10
37.8218
 20
2.8541
 10
37.6878
 20
2.8541
 10
37.5539
 20
2.8541
 10
37.42
 20
2.8541
 10
37.286
 20
2.8541
 10
37.1521
 20
2.8541
 10
37.1521
 20
2.988
 10
37.1521
 20
3.122
 10
37.1521
 20
3.2559
 10
37.1521
 20
3.3898
 10
37.1521
 20
3.5237
 10
37.1521
 20
3.6577
 10
37.1521
 20
3.7916
 10
37.1521
 20
3.9255
 10
37.1521
 20
4.0595
 10
37.1521
 20
4.1934
 10
37.1521
 20
4.3273
 10
37.1521
 20
4.4613
 10
37.1521
 20
4.5952
 10
37.1521
 20
4.7291
 10
37.1521
 20
4.8631
 10
37.1521
 20
4.997
 10
37.1521
 20
5.1309
 10
37.1521
 20
5.2649
 10
37.1521
 20
5.3988
 10
37.1521
 20
5.5327
 10
37.1521
 20
5.6667
 10
37.1521
 20
5.8006
 10
37.1521
 20
5.9345
 10
37.1521
 20
6.0685
 10
37.1521
 20
6.2024
 10
37.1521
 20
6.3363
 10
37.1521
 20
6.4703
 10
37.1521
 20
6.6042
 10
37.1521
 20
6.7381
 10
37.1521
 20
6.8721
 10
37.1521
 20
7.006
 10
37.1521
 20
7.1399
 10
37.1521
 20
7.2739
 10
37.1521
 20
7.4078
 10
37.1521
 20
7.5417
 10
37.1521
 20
7.6757
 10
37.1521
 20
7.8096
 10
37.1521
 20
7.9435
 10
37.1521
 20
8.0775
 10
37.1521
 20
8.2114
 10
37.1521
 20
8.3453
 10
37.1521
 20
8.4792
 10
37.1521
 20
8.6132
 10
37.1521
 20
8.7471
 10
37.1521
 20
8.881
 10
37.1521
 20
9.015
 10
37.1521
 20
9.1489
 10
37.1521
 20
9.2828
 10
37.1521
 20
9.4168
 10
37.2721
 20
9.4307
 10
37.406
 20
9.4307
 10
37.5399
 20
9.4307
 10
37.6739
 20
9.4307
 10
37.8078
 20
9.4307
 10
37.9417
 20
9.4307
 10
38.0757
 20
9.4307
 10
38.2096
 20
9.4307
 10
38.3435
 20
9.4307
 10
38.4775
 20
9.4307
 10
38.5386
 20
9.3494
 10
38.5534
 20
9.2163
 10
38.5683
 20
9.0831
 10
38.5832
 20
8.95
 10
38.598
 20
8.8169
 10
38.6129
 20
8.6838
 10
38.6277
 20
8.5507
 10
38.6426
 20
8.4176
 10
38.6575
 20
8.2845
 10
38.6625
 20
8.2396
 10
38.7166
 20
8.2396
 10
38.796
 20
8.2396
 10
38.8395
 20
8.2887
 10
38.8533
 20
8.3793
 10
38.8703
 20
8.4665
 10
38.8904
 20
8.5504
 10
38.9136
 20
8.6308
 10
38.94
 20
8.7078
 10
38.9695
 20
8.7814
 10
39.0022
 20
8.8517
 10
39.038
 20
8.9185
 10
39.0769
 20
8.9819
 10
39.119
 20
9.042
 10
39.1643
 20
9.0986
 10
39.2127
 20
9.1519
 10
39.2642
 20
9.2017
 10
39.3169
 20
9.2465
 10
39.3701
 20
9.2862
 10
39.4264
 20
9.3231
 10
39.4859
 20
9.3573
 10
39.5486
 20
9.3887
 10
39.6145
 20
9.4175
 10
39.6836
 20
9.4435
 10
39.7559
 20
9.4668
 10
39.8314
 20
9.4873
 10
39.91
 20
9.5051
 10
39.9919
 20
9.5202
 10
40.077
 20
9.5326
 10
40.1652
 20
9.5423
 10
40.2567
 20
9.5492
 10
40.3513
 20
9.5534
 10
40.4492
 20
9.5548
 10
40.5412
 20
9.5537
 10
40.631
 20
9.55
 10
40.719
 20
9.5439
 10
40.8051
 20
9.5352
 10
40.8894
 20
9.5241
 10
40.9718
 20
9.5105
 10
41.0523
 20
9.4943
 10
41.131
 20
9.4757
 10
41.2078
 20
9.4546
 10
41.2828
 20
9.431
 10
41.3559
 20
9.4049
 10
41.4272
 20
9.3763
 10
41.4965
 20
9.3452
 10
41.5641
 20
9.3116
 10
41.6297
 20
9.2755
 10
41.6935
 20
9.2369
 10
41.7555
 20
9.1959
 10
41.8156
 20
9.1523
 10
41.8738
 20
9.1062
 10
41.9302
 20
9.0577
 10
41.9847
 20
9.0066
 10
42.0373
 20
8.9531
 10
42.0866
 20
8.8988
 10
42.132
 20
8.8448
 10
42.1754
 20
8.789
 10
42.2169
 20
8.7314
 10
42.2564
 20
8.6721
 10
42.2939
 20
8.6109
 10
42.3296
 20
8.548
 10
42.3632
 20
8.4833
 10
42.3949
 20
8.4169
 10
42.4247
 20
8.3486
 10
42.4525
 20
8.2786
 10
42.4783
 20
8.2067
 10
42.5022
 20
8.1331
 10
42.5242
 20
8.0577
 10
42.5442
 20
7.9806
 10
42.5622
 20
7.9016
 10
42.5783
 20
7.8209
 10
42.5925
 20
7.7384
 10
42.6047
 20
7.6541
 10
42.6149
 20
7.568
 10
42.6232
 20
7.4801
 10
42.6295
 20
7.3905
 10
42.6339
 20
7.2991
 10
42.6363
 20
7.2059
 10
42.6369
 20
7.115
 10
42.6369
 20
7.0356
 10
42.6369
 20
6.9563
 10
42.6369
 20
6.8769
 10
42.6369
 20
6.7975
 10
42.6369
 20
6.7182
 10
42.6369
 20
6.6388
 10
42.6369
 20
6.5595
 10
42.6369
 20
6.4801
 10
42.6369
 20
6.4007
 10
42.6369
 20
6.3214
 10
42.6369
 20
6.242
 10
42.6369
 20
6.1627
 10
42.6369
 20
6.0833
 10
42.6369
 20
6.0039
 10
42.6369
 20
5.9246
 10
42.6369
 20
5.8452
 10
42.6369
 20
5.7658
 10
42.6369
 20
5.6865
 10
42.6369
 20
5.6071
 10
42.6369
 20
5.5278
 10
42.6369
 20
5.4484
 10
42.6369
 20
5.369
 10
42.6369
 20
5.2897
 10
42.6369
 20
5.2103
 10
42.6369
 20
5.1309
 10
42.6369
 20
5.0516
 10
42.6369
 20
4.9722
 10
42.6369
 20
4.8929
 10
42.6369
 20
4.8135
 10
42.6369
 20
4.7341
 10
42.6369
 20
4.6548
 10
42.6369
 20
4.5754
 10
42.6369
 20
4.496
 10
42.6369
 20
4.4167
 10
42.6369
 20
4.3373
 10
42.6369
 20
4.258
 10
42.6369
 20
4.1786
 10
42.6369
 20
4.0992
 10
42.6369
 20
4.0199
 10
42.6369
 20
3.9405
 10
42.6369
 20
3.8611
 10
42.6369
 20
3.7818
 10
42.6369
 20
3.7024
 10
42.6369
 20
3.6231
 10
42.6369
 20
3.5437
 10
42.6369
 20
3.4643
 10
42.6369
 20
3.385
 10
42.6369
 20
3.3056
 10
42.6369
 20
3.2262
 10
42.6369
 20
3.1469
 10
42.6369
 20
3.0675
 10
42.6369
 20
2.9882
 10
42.6369
 20
2.9088
 10
42.6122
 20
2.8541
 10
42.5329
 20
2.8541
 10
42.4535
 20
2.8541
 10
42.3741
 20
2.8541
 10
42.2948
 20
2.8541
 10
42.2154
 20
2.8541
 10
42.1361
 20
2.8541
 10
42.0567
 20
2.8541
 10
41.9773
 20
2.8541
 10
41.898
 20
2.8541
 10
41.8186
 20
2.8541
 10
41.7392
 20
2.8541
 10
41.6599
 20
2.8541
 10
41.5805
 20
2.8541
 10
41.5012
 20
2.8541
 10
41.4218
 20
2.8541
 10
41.3424
 20
2.8541
 10
41.2631
 20
2.8541
 10
41.1837
 20
2.8541
 10
41.1043
 20
2.8541
 10
41.1043
 20
2.9334
 10
41.1043
 20
3.0128
 10
41.1043
 20
3.0922
 10
41.1043
 20
3.1715
 10
41.1043
 20
3.2509
 10
41.1043
 20
3.3303
 10
41.1043
 20
3.4096
 10
41.1043
 20
3.489
 10
41.1043
 20
3.5683
 10
41.1043
 20
3.6477
 10
41.1043
 20
3.7271
 10
41.1043
 20
3.8064
 10
41.1043
 20
3.8858
 10
41.1043
 20
3.9652
 10
41.1043
 20
4.0445
 10
41.1043
 20
4.1239
 10
41.1043
 20
4.2032
 10
41.1043
 20
4.2826
 10
41.1043
 20
4.362
 10
41.1043
 20
4.4413
 10
41.1043
 20
4.5207
 10
41.1043
 20
4.6001
 10
41.1043
 20
4.6794
 10
41.1043
 20
4.7588
 10
41.1043
 20
4.8381
 10
41.1043
 20
4.9175
 10
41.1043
 20
4.9969
 10
41.1043
 20
5.0762
 10
41.1043
 20
5.1556
 10
41.1043
 20
5.235
 10
41.1043
 20
5.3143
 10
41.1043
 20
5.3937
 10
41.1043
 20
5.473
 10
41.1043
 20
5.5524
 10
41.1043
 20
5.6318
 10
41.1043
 20
5.7111
 10
41.1043
 20
5.7905
 10
41.1043
 20
5.8699
 10
41.1043
 20
5.9492
 10
41.1043
 20
6.0286
 10
41.1043
 20
6.1079
 10
41.1043
 20
6.1873
 10
41.1043
 20
6.2667
 10
41.1043
 20
6.346
 10
41.1043
 20
6.4254
 10
41.1043
 20
6.5048
 10
41.1043
 20
6.5841
 10
41.1043
 20
6.6635
 10
41.1043
 20
6.7428
 10
41.1043
 20
6.8222
 10
41.1043
 20
6.9047
 10
41.1018
 20
6.9989
 10
41.0958
 20
7.0895
 10
41.0861
 20
7.1765
 10
41.0729
 20
7.26
 10
41.056
 20
7.3398
 10
41.0356
 20
7.416
 10
41.0116
 20
7.4886
 10
40.984
 20
7.5577
 10
40.9527
 20
7.6231
 10
40.9179
 20
7.685
 10
40.8795
 20
7.7432
 10
40.8375
 20
7.7978
 10
40.7868
 20
7.8542
 10
40.7314
 20
7.9062
 10
40.6723
 20
7.9526
 10
40.6094
 20
7.9936
 10
40.5427
 20
8.0292
 10
40.4722
 20
8.0593
 10
40.398
 20
8.0839
 10
40.32
 20
8.1031
 10
40.2382
 20
8.1168
 10
40.1526
 20
8.1251
 10
40.0633
 20
8.1279
 10
39.9806
 20
8.1262
 10
39.9006
 20
8.1212
 10
39.8231
 20
8.1128
 10
39.7482
 20
8.101
 10
39.6758
 20
8.0859
 10
39.606
 20
8.0673
 10
39.5387
 20
8.0454
 10
39.474
 20
8.0202
 10
39.4118
 20
7.9915
 10
39.3522
 20
7.9595
 10
39.2951
 20
7.924
 10
39.2406
 20
7.8852
 10
39.1886
 20
7.8431
 10
39.1392
 20
7.7975
 10
39.0923
 20
7.7486
 10
39.048
 20
7.6963
 10
39.0062
 20
7.6406
 10
38.967
 20
7.5815
 10
38.9303
 20
7.5191
 10
38.8962
 20
7.4533
 10
38.8646
 20
7.3841
 10
38.8356
 20
7.3115
 10
38.8091
 20
7.2356
 10
38.7852
 20
7.1563
 10
38.7638
 20
7.0736
 10
38.745
 20
6.9875
 10
38.7287
 20
6.898
 10
38.715
 20
6.8052
 10
38.7039
 20
6.709
 10
38.6952
 20
6.6094
 10
38.6892
 20
6.5064
 10
38.6856
 20
6.4001
 10
38.6847
 20
6.3698
 10
38.6847
 20
6.277
 10
38.6847
 20
6.1431
  0
LWPOLYLINE
  5
3F
330
17
100
AcDbEntity
  8
OUTLINE
100
AcDbPolyline
 90
648
 70
1
 10
47.1839
 20
2.7314
 10
47.1103
 20
2.7303
 10
47.0358
 20
2.73
 10
46.9736
 20
2.7302
 10
46.9117
 20
2.7309
 10
46.85
 20
2.7319
 10
46.7885
 20
2.7334
 10
46.7272
 20
2.7353
 10
46.6662
 20
2.7377
 10
46.6054
 20
2.7405
 10
46.5448
 20
2.7437
 10
46.4844
 20
2.7473
 10
46.4243
 20
2.7513
 10
46.3644
 20
2.7558
 10
46.3047
 20
2.7607
 10
46.2452
 20
2.7661
 10
46.186
 20
2.7718
 10
46.127
 20
2.778
 10
46.0682
 20
2.7846
 10
46.0096
 20
2.7917
 10
45.9513
 20
2.7992
 10
45.8931
 20
2.807
 10
45.8352
 20
2.8154
 10
45.7776
 20
2.8241
 10
45.7201
 20
2.8333
 10
45.6629
 20
2.8429
 10
45.6059
 20
2.8529
 10
45.5435
 20
2.8644
 10
45.481
 20
2.8766
 10
45.4191
 20
2.8891
 10
45.3576
 20
2.9022
 10
45.2967
 20
2.9157
 10
45.2364
 20
2.9297
 10
45.1766
 20
2.9442
 10
45.1173
 20
2.9592
 10
45.0586
 20
2.9746
 10
45.0004
 20
2.9906
 10
44.9428
 20
3.0069
 10
44.8857
 20
3.0238
 10
44.8291
 20
3.0411
 10
44.7731
 20
3.059
 10
44.7177
 20
3.0773
 10
44.6627
 20
3.096
 10
44.6083
 20
3.1153
 10
44.5545
 20
3.135
 10
44.5012
 20
3.1552
 10
44.4484
 20
3.1758
 10
44.3962
 20
3.197
 10
44.3572
 20
3.2266
 10
44.365
 20
3.2859
 10
44.3728
 20
3.3453
 10
44.3806
 20
3.4046
 10
44.3884
 20
3.464
 10
44.3962
 20
3.5234
 10
44.404
 20
3.5827
 10
44.4118
 20
3.6421
 10
44.4197
 20
3.7014
 10
44.4275
 20
3.7608
 10
44.4353
 20
3.8201
 10
44.4431
 20
3.8795
 10
44.4509
 20
3.9388
 10
44.4587
 20
3.9982
 10
44.4665
 20
4.0576
 10
44.4744
 20
4.1169
 10
44.4822
 20
4.1763
 10
44.49
 20
4.2356
 10
44.4978
 20
4.295
 10
44.5056
 20
4.3543
 10
44.5134
 20
4.4137
 10
44.5212
 20
4.473
 10
44.529
 20
4.5324
 10
44.5369
 20
4.5918
 10
44.5447
 20
4.6511
 10
44.5525
 20
4.7105
 10
44.6009
 20
4.7017
 10
44.6586
 20
4.6776
 10
44.7162
 20
4.6541
 10
44.7738
 20
4.6311
 10
44.8312
 20
4.6085
 10
44.8885
 20
4.5865
 10
44.9458
 20
4.565
 10
45.003
 20
4.5439
 10
45.06
 20
4.5234
 10
45.117
 20
4.5034
 10
45.1739
 20
4.4838
 10
45.2307
 20
4.4648
 10
45.2874
 20
4.4463
 10
45.3441
 20
4.4282
 10
45.4006
 20
4.4107
 10
45.4571
 20
4.3937
 10
45.5134
 20
4.3772
 10
45.5697
 20
4.3611
 10
45.6259
 20
4.3456
 10
45.682
 20
4.3306
 10
45.738
 20
4.3161
 10
45.7939
 20
4.302
 10
45.8497
 20
4.2885
 10
45.9069
 20
4.2751
 10
45.9695
 20
4.2611
 10
46.0317
 20
4.2478
 10
46.0937
 20
4.2351
 10
46.1553
 20
4.2231
 10
46.2165
 20
4.2119
 10
46.2774
 20
4.2013
 10
46.338
 20
4.1914
 10
46.3982
 20
4.1823
 10
46.4581
 20
4.1738
 10
46.5177
 20
4.166
 10
46.5769
 20
4.1589
 10
46.6358
 20
4.1525
 10
46.6943
 20
4.1468
 10
46.7525
 20
4.1418
 10
46.8104
 20
4.1374
 10
46.8679
 20
4.1338
 10
46.9251
 20
4.1309
 10
46.9819
 20
4.1286
 10
47.0384
 20
4.1271
 10
47.0946
 20
4.1262
 10
47.1559
 20
4.1261
 10
47.2304
 20
4.1272
 10
47.303
 20
4.1296
 10
47.3737
 20
4.1334
 10
47.4426
 20
4.1386
 10
47.5095
 20
4.1451
 10
47.5746
 20
4.1531
 10
47.6377
 20
4.1624
 10
47.699
 20
4.173
 10
47.7584
 20
4.1851
 10
47.8159
 20
4.1985
 10
47.8715
 20
4.2133
 10
47.9252
 20
4.2294
 10
47.977
 20
4.2469
 10
48.027
 20
4.2658
 10
48.075
 20
4.2861
 10
48.1212
 20
4.3077
 10
48.1655
 20
4.3308
 10
48.2078
 20
4.3551
 10
48.2483
 20
4.3809
 10
48.2946
 20
4.4137
 10
48.3414
 20
4.4514
 10
48.3848
 20
4.4912
 10
48.4249
 20
4.5332
 10
48.4616
 20
4.5774
 10
48.4949
 20
4.6237
 10
48.5248
 20
4.6722
 10
48.5513
 20
4.7229
 10
48.5745
 20
4.7758
 10
48.5943
 20
4.8308
 10
48.6107
 20
4.888
 10
48.6237
 20
4.9474
 10
48.6333
 20
5.0089
 10
48.6396
 20
5.0726
 10
48.6425
 20
5.1385
 10
48.642
 20
5.2003
 10
48.6386
 20
5.258
 10
48.6321
 20
5.3145
 10
48.6226
 20
5.3697
 10
48.6102
 20
5.4237
 10
48.5947
 20
5.4764
 10
48.5762
 20
5.5278
 10
48.5547
 20
5.578
 10
48.5302
 20
5.6269
 10
48.5027
 20
5.6746
 10
48.4722
 20
5.721
 10
48.4386
 20
5.7662
 10
48.4021
 20
5.8101
 10
48.3626
 20
5.8527
 10
48.32
 20
5.8941
 10
48.2744
 20
5.9343
 10
48.2259
 20
5.9731
 10
48.1743
 20
6.0108
 10
48.1197
 20
6.0471
 10
48.0622
 20
6.0822
 10
48.0016
 20
6.1161
 10
47.938
 20
6.1487
 10
47.8743
 20
6.1789
 10
47.8202
 20
6.2046
 10
47.7661
 20
6.2303
 10
47.7121
 20
6.256
 10
47.658
 20
6.2817
 10
47.6039
 20
6.3074
 10
47.5498
 20
6.3331
 10
47.4958
 20
6.3588
 10
47.4417
 20
6.3845
 10
47.3876
 20
6.4102
 10
47.3335
 20
6.4359
 10
47.2795
 20
6.4616
 10
47.2254
 20
6.4873
 10
47.1713
 20
6.5129
 10
47.1172
 20
6.5386
 10
47.0632
 20
6.5643
 10
47.0091
 20
6.59
 10
46.955
 20
6.6157
 10
46.901
 20
6.6414
 10
46.8469
 20
6.6671
 10
46.7928
 20
6.6928
 10
46.7387
 20
6.7185
 10
46.6847
 20
6.7442
 10
46.6306
 20
6.7699
 10
46.5765
 20
6.7956
 10
46.5224
 20
6.8213
 10
46.4623
 20
6.8499
 10
46.4021
 20
6.8794
 10
46.3428
 20
6.9093
 10
46.2845
 20
6.9398
 10
46.227
 20
6.9706
 10
46.1706
 20
7.0019
 10
46.115
 20
7.0337
 10
46.0605
 20
7.0659
 10
46.0068
 20
7.0986
 10
45.9541
 20
7.1318
 10
45.9023
 20
7.1654
 10
45.8515
 20
7.1994
 10
45.8016
 20
7.2339
 10
45.7527
 20
7.2688
 10
45.7047
 20
7.3042
 10
45.6576
 20
7.3401
 10
45.6115
 20
7.3764
 10
45.5663
 20
7.4132
 10
45.5221
 20
7.4504
 10
45.4788
 20
7.4881
 10
45.4364
 20
7.5262
 10
45.395
 20
7.5648
 10
45.3545
 20
7.6038
 10
45.315
 20
7.6433
 10
45.2764
 20
7.6832
 10
45.2388
 20
7.7236
 10
45.202
 20
7.7645
 10
45.1663
 20
7.8058
 10
45.1314
 20
7.8475
 10
45.0976
 20
7.8897
 10
45.0611
 20
7.937
 10
45.0252
 20
7.9861
 10
44.9907
 20
8.0357
 10
44.9576
 20
8.0858
 10
44.926
 20
8.1365
 10
44.8958
 20
8.1877
 10
44.867
 20
8.2395
 10
44.8397
 20
8.2919
 10
44.8137
 20
8.3448
 10
44.7892
 20
8.3982
 10
44.7662
 20
8.4522
 10
44.7445
 20
8.5067
 10
44.7243
 20
8.5618
 10
44.7055
 20
8.6175
 10
44.6882
 20
8.6737
 10
44.6723
 20
8.7304
 10
44.6578
 20
8.7877
 10
44.6447
 20
8.8456
 10
44.6331
 20
8.904
 10
44.6228
 20
8.9629
 10
44.6141
 20
9.0224
 10
44.6067
 20
9.0825
 10
44.6008
 20
9.1431
 10
44.5963
 20
9.2042
 10
44.5932
 20
9.2659
 10
44.5916
 20
9.3282
 10
44.5914
 20
9.3931
 10
44.5925
 20
9.4615
 10
44.5949
 20
9.529
 10
44.5987
 20
9.5955
 10
44.6038
 20
9.6611
 10
44.6102
 20
9.7257
 10
44.6179
 20
9.7894
 10
44.627
 20
9.8522
 10
44.6374
 20
9.914
 10
44.6491
 20
9.9749
 10
44.6621
 20
10.0349
 10
44.6764
 20
10.0939
 10
44.6921
 20
10.152
 10
44.7091
 20
10.2091
 10
44.7274
 20
10.2653
 10
44.747
 20
10.3206
 10
44.7679
 20
10.3749
 10
44.7902
 20
10.4283
 10
44.8138
 20
10.4808
 10
44.8387
 20
10.5323
 10
44.8649
 20
10.5829
 10
44.8925
 20
10.6326
 10
44.9214
 20
10.6813
 10
44.9515
 20
10.7291
 10
44.9831
 20
10.7759
 10
45.0159
 20
10.8218
 10
45.0501
 20
10.8668
 10
45.0855
 20
10.9108
 10
45.1223
 20
10.9539
 10
45.1605
 20
10.9961
 10
45.1999
 20
11.0373
 10
45.2407
 20
11.0776
 10
45.2827
 20
11.117
 10
45.3262
 20
11.1554
 10
45.3662
 20
11.1891
 10
45.4072
 20
11.2218
 10
45.449
 20
11.2536
 10
45.4917
 20
11.2845
 10
45.5353
 20
11.3144
 10
45.5798
 20
11.3435
 10
45.6251
 20
11.3716
 10
45.6714
 20
11.3988
 10
45.7185
 20
11.4251
 10
45.7666
 20
11.4505
 10
45.8155
 20
11.4749
 10
45.8653
 20
11.4985
 10
45.916
 20
11.5211
 10
45.9675
 20
11.5428
 10
46.02
 20
11.5636
 10
46.0733
 20
11.5834
 10
46.1276
 20
11.6024
 10
46.1827
 20
11.6204
 10
46.2387
 20
11.6375
 10
46.2956
 20
11.6537
 10
46.3534
 20
11.669
 10
46.412
 20
11.6833
 10
46.4716
 20
11.6968
 10
46.532
 20
11.7093
 10
46.5934
 20
11.7209
 10
46.6556
 20
11.7316
 10
46.7187
 20
11.7413
 10
46.7827
 20
11.7502
 10
46.8475
 20
11.7581
 10
46.9133
 20
11.7651
 10
46.9799
 20
11.7712
 10
47.0475
 20
11.7764
 10
47.1159
 20
11.7806
 10
47.1852
 20
11.784
 10
47.2554
 20
11.7864
 10
47.3265
 20
11.7879
 10
47.3984
 20
11.7885
 10
47.4631
 20
11.7882
 10
47.5262
 20
11.7871
 10
47.589
 20
11.7852
 10
47.6513
 20
11.7826
 10
47.7133
 20
11.7792
 10
47.7749
 20
11.775
 10
47.8361
 20
11.77
 10
47.897
 20
11.7642
 10
47.9574
 20
11.7576
 10
48.0175
 20
11.7502
 10
48.0772
 20
11.7421
 10
48.1365
 20
11.7332
 10
48.1955
 20
11.7235
 10
48.254
 20
11.713
 10
48.3122
 20
11.7017
 10
48.37
 20
11.6896
 10
48.4275
 20
11.6768
 10
48.4845
 20
11.6631
 10
48.5412
 20
11.6487
 10
48.5975
 20
11.6335
 10
48.6534
 20
11.6175
 10
48.7089
 20
11.6007
 10
48.764
 20
11.5832
 10
48.8188
 20
11.5648
 10
48.8732
 20
11.5457
 10
48.9272
 20
11.5258
 10
48.9812
 20
11.5049
 10
49.0356
 20
11.4829
 10
49.0897
 20
11.4601
 10
49.1434
 20
11.4365
 10
49.1968
 20
11.412
 10
49.2497
 20
11.3867
 10
49.3024
 20
11.3605
 10
49.3546
 20
11.3335
 10
49.4065
 20
11.3057
 10
49.4581
 20
11.277
 10
49.5093
 20
11.2475
 10
49.5601
 20
11.2171
 10
49.6106
 20
11.186
 10
49.6607
 20
11.1539
 10
49.7104
 20
11.1211
 10
49.7598
 20
11.0874
 10
49.8088
 20
11.0528
 10
49.8575
 20
11.0175
 10
49.9058
 20
10.9813
 10
49.9538
 20
10.9442
 10
50.0014
 20
10.9063
 10
50.0486
 20
10.8676
 10
50.0955
 20
10.8281
 10
50.142
 20
10.7877
 10
50.1882
 20
10.7464
 10
50.234
 20
10.7044
 10
50.2468
 20
10.661
 10
50.2066
 20
10.6167
 10
50.1664
 20
10.5723
 10
50.1262
 20
10.528
 10
50.0859
 20
10.4836
 10
50.0457
 20
10.4392
 10
50.0055
 20
10.3949
 10
49.9653
 20
10.3505
 10
49.9251
 20
10.3062
 10
49.8849
 20
10.2618
 10
49.8447
 20
10.2175
 10
49.8045
 20
10.1731
 10
49.7642
 20
10.1288
 10
49.724
 20
10.0844
 10
49.6838
 20
10.0401
 10
49.6436
 20
9.9957
 10
49.6034
 20
9.9514
 10
49.5632
 20
9.907
 10
49.523
 20
9.8627
 10
49.4828
 20
9.8183
 10
49.4426
 20
9.774
 10
49.4023
 20
9.7296
 10
49.3621
 20
9.6853
 10
49.3219
 20
9.6409
 10
49.2817
 20
9.5965
 10
49.2415
 20
9.5522
 10
49.1917
 20
9.5895
 10
49.1412
 20
9.6326
 10
49.0909
 20
9.6745
 10
49.0407
 20
9.7153
 10
48.9907
 20
9.7549
 10
48.9409
 20
9.7933
 10
48.8912
 20
9.8306
 10
48.8416
 20
9.8667
 10
48.7923
 20
9.9016
 10
48.743
 20
9.9353
 10
48.694
 20
9.9679
 10
48.6451
 20
9.9993
 10
48.5963
 20
10.0295
 10
48.5477
 20
10.0586
 10
48.4993
 20
10.0865
 10
48.451
 20
10.1132
 10
48.4029
 20
10.1387
 10
48.3549
 20
10.1631
 10
48.3063
 20
10.1867
 10
48.2484
 20
10.2133
 10
48.1905
 20
10.238
 10
48.1326
 20
10.261
 10
48.0747
 20
10.2823
 10
48.0169
 20
10.3017
 10
47.9591
 20
10.3194
 10
47.9013
 20
10.3353
 10
47.8436
 20
10.3494
 10
47.7859
 20
10.3618
 10
47.7282
 20
10.3723
 10
47.6705
 20
10.3811
 10
47.6129
 20
10.3881
 10
47.5552
 20
10.3934
 10
47.4977
 20
10.3968
 10
47.4401
 20
10.3985
 10
47.3746
 20
10.3984
 10
47.3041
 20
10.3962
 10
47.2357
 20
10.392
 10
47.1693
 20
10.3858
 10
47.1049
 20
10.3775
 10
47.0425
 20
10.3672
 10
46.9821
 20
10.3549
 10
46.9238
 20
10.3405
 10
46.8674
 20
10.324
 10
46.8131
 20
10.3055
 10
46.7608
 20
10.285
 10
46.7106
 20
10.2625
 10
46.6623
 20
10.2379
 10
46.6161
 20
10.2112
 10
46.5719
 20
10.1825
 10
46.5297
 20
10.1518
 10
46.4874
 20
10.1171
 10
46.4455
 20
10.0782
 10
46.4068
 20
10.037
 10
46.3713
 20
9.9934
 10
46.3388
 20
9.9476
 10
46.3095
 20
9.8994
 10
46.2833
 20
9.849
 10
46.2602
 20
9.7962
 10
46.2402
 20
9.7411
 10
46.2233
 20
9.6837
 10
46.2096
 20
9.624
 10
46.199
 20
9.562
 10
46.1915
 20
9.4977
 10
46.1871
 20
9.4311
 10
46.1858
 20
9.3628
 10
46.1879
 20
9.3009
 10
46.1937
 20
9.2404
 10
46.203
 20
9.1813
 10
46.2159
 20
9.1235
 10
46.2323
 20
9.0671
 10
46.2524
 20
9.012
 10
46.276
 20
8.9583
 10
46.3033
 20
8.9059
 10
46.3341
 20
8.855
 10
46.3685
 20
8.8054
 10
46.4064
 20
8.7572
 10
46.4405
 20
8.718
 10
46.4768
 20
8.6793
 10
46.5154
 20
8.6413
 10
46.5561
 20
8.6039
 10
46.599
 20
8.567
 10
46.6441
 20
8.5308
 10
46.6914
 20
8.4951
 10
46.7409
 20
8.46
 10
46.7926
 20
8.4256
 10
46.8465
 20
8.3917
 10
46.9026
 20
8.3584
 10
46.9608
 20
8.3257
 10
47.0213
 20
8.2936
 10
47.0777
 20
8.2653
 10
47.1313
 20
8.2386
 10
47.1849
 20
8.2119
 10
47.2385
 20
8.1853
 10
47.2921
 20
8.1586
 10
47.3457
 20
8.1319
 10
47.3993
 20
8.1053
 10
47.4529
 20
8.0786
 10
47.5065
 20
8.0519
 10
47.5601
 20
8.0252
 10
47.6137
 20
7.9986
 10
47.6673
 20
7.9719
 10
47.7209
 20
7.9452
 10
47.7745
 20
7.9186
 10
47.8281
 20
7.8919
 10
47.8817
 20
7.8652
 10
47.9353
 20
7.8386
 10
47.9889
 20
7.8119
 10
48.0425
 20
7.7852
 10
48.0961
 20
7.7585
 10
48.1497
 20
7.7319
 10
48.2033
 20
7.7052
 10
48.2569
 20
7.6785
 10
48.3156
 20
7.6492
 10
48.3766
 20
7.618
 10
48.4367
 20
7.5865
 10
48.4958
 20
7.5547
 10
48.554
 20
7.5226
 10
48.6112
 20
7.4901
 10
48.6675
 20
7.4574
 10
48.7228
 20
7.4243
 10
48.7772
 20
7.391
 10
48.8306
 20
7.3573
 10
48.8831
 20
7.3233
 10
48.9346
 20
7.289
 10
48.9851
 20
7.2543
 10
49.0348
 20
7.2194
 10
49.0834
 20
7.1842
 10
49.1312
 20
7.1486
 10
49.178
 20
7.1127
 10
49.2238
 20
7.0766
 10
49.2687
 20
7.0401
 10
49.3126
 20
7.0033
 10
49.3556
 20
6.9661
 10
49.3976
 20
6.9287
 10
49.4387
 20
6.891
 10
49.4788
 20
6.8529
 10
49.518
 20
6.8145
 10
49.5563
 20
6.7759
 10
49.5936
 20
6.7369
 10
49.6299
 20
6.6976
 10
49.6653
 20
6.6579
 10
49.6997
 20
6.618
 10
49.7335
 20
6.5774
 10
49.772
 20
6.5292
 10
49.8089
 20
6.4804
 10
49.8442
 20
6.431
 10
49.8781
 20
6.381
 10
49.9104
 20
6.3305
 10
49.9412
 20
6.2794
 10
49.9705
 20
6.2278
 10
49.9982
 20
6.1756
 10
50.0245
 20
6.1228
 10
50.0492
 20
6.0694
 10
50.0724
 20
6.0155
 10
50.094
 20
5.961
 10
50.1142
 20
5.9059
 10
50.1328
 20
5.8503
 10
50.1499
 20
5.7941
 10
50.1654
 20
5.7373
 10
50.1795
 20
5.6799
 10
50.192
 20
5.622
 10
50.203
 20
5.5635
 10
50.2124
 20
5.5045
 10
50.2204
 20
5.4449
 10
50.2268
 20
5.3847
 10
50.2317
 20
5.3239
 10
50.2351
 20
5.2625
 10
50.2369
 20
5.2006
 10
50.2373
 20
5.1364
 10
50.2362
 20
5.0683
 10
50.2337
 20
5.0011
 10
50.2299
 20
4.9348
 10
50.2247
 20
4.8695
 10
50.2181
 20
4.8052
 10
50.2101
 20
4.7418
 10
50.2007
 20
4.6793
 10
50.19
 20
4.6178
 10
50.1779
 20
4.5573
 10
50.1644
 20
4.4977
 10
50.1495
 20
4.4391
 10
50.1333
 20
4.3815
 10
50.1156
 20
4.3248
 10
50.0966
 20
4.269
 10
50.0762
 20
4.2142
 10
50.0544
 20
4.1604
 10
50.0313
 20
4.1075
 10
50.0067
 20
4.0555
 10
49.9808
 20
4.0046
 10
49.9535
 20
3.9545
 10
49.9249
 20
3.9055
 10
49.8948
 20
3.8573
 10
49.8634
 20
3.8102
 10
49.8306
 20
3.764
 10
49.7964
 20
3.7187
 10
49.7608
 20
3.6744
 10
49.7239
 20
3.6311
 10
49.6855
 20
3.5887
 10
49.6458
 20
3.5473
 10
49.6047
 20
3.5068
 10
49.5623
 20
3.4673
 10
49.5184
 20
3.4287
 10
49.4732
 20
3.3911
 10
49.4266
 20
3.3544
 10
49.3864
 20
3.3244
 10
49.3462
 20
3.2957
 10
49.3052
 20
3.2678
 10
49.2634
 20
3.2406
 10
49.2206
 20
3.214
 10
49.177
 20
3.1882
 10
49.1326
 20
3.1631
 10
49.0873
 20
3.1387
 10
49.0411
 20
3.115
 10
48.9941
 20
3.0921
 10
48.9462
 20
3.0698
 10
48.8975
 20
3.0482
 10
48.8479
 20
3.0274
 10
48.7974
 20
3.0072
 10
48.7461
 20
2.9878
 10
48.6939
 20
2.969
 10
48.6409
 20
2.951
 10
48.587
 20
2.9337
 10
48.5322
 20
2.917
 10
48.4766
 20
2.9011
 10
48.4202
 20
2.8859
 10
48.3628
 20
2.8714
 10
48.3046
 20
2.8576
 10
48.2456
 20
2.8446
 10
48.1857
 20
2.8322
 10
48.1249
 20
2.8205
 10
48.0633
 20
2.8096
 10
48.0008
 20
2.7993
 10
47.9374
 20
2.7898
 10
47.8732
 20
2.7809
 10
47.8082
 20
2.7728
 10
47.7423
 20
2.7654
 10
47.6755
 20
2.7586
 10
47.6078
 20
2.7526
 10
47.5393
 20
2.7473
 10
47.47
 20
2.7427
 10
47.3997
 20
2.7388
 10
47.3287
 20
2.7357
 10
47.2567
 20
2.7332
  0
ENDSEC
  0
SECTION
  2
OBJECTS
  0
DICTIONARY
  5
A
330
0
100
AcDbDictionary
281
1
  3
ACAD_COLOR
350
B
  3
ACAD_GROUP
350
C
  3
ACAD_LAYOUT
350
D
  3
ACAD_MATERIAL
350
E
  3
ACAD_MLEADERSTYLE
350
F
  3
ACAD_MLINESTYLE
350
10
  3
ACAD_PLOTSETTINGS
350
11
  3
ACAD_PLOTSTYLENAME
350
12
  3
ACAD_SCALELIST
350
14
  3
ACAD_TABLESTYLE
350
15
  3
ACAD_VISUALSTYLE
350
16
  3
EZDXF_META
350
2D
  0
DICTIONARY
  5
B
330
A
100
AcDbDictionary
281
1
  0
DICTIONARY
  5
C
330
A
100
AcDbDictionary
281
1
  0
DICTIONARY
  5
D
330
A
100
AcDbDictionary
281
1
  3
Model
350
1A
  3
Layout1
350
1E
  0
DICTIONARY
  5
E
330
A
100
AcDbDictionary
281
1
  3
ByBlock
350
1F
  3
ByLayer
350
20
  3
Global
350
21
  0
DICTIONARY
  5
F
330
A
100
AcDbDictionary
281
1
  3
Standard
350
2C
  0
DICTIONARY
  5
10
330
A
100
AcDbDictionary
281
1
  3
Standard
350
22
  0
DICTIONARY
  5
11
330
A
100
AcDbDictionary
281
1
  0
ACDBDICTIONARYWDFLT
  5
12
330
A
100
AcDbDictionary
281
1
  3
Normal
350
13
100
AcDbDictionaryWithDefault
340
13
  0
ACDBPLACEHOLDER
  5
13
330
12
  0
DICTIONARY
  5
14
330
A
100
AcDbDictionary
281
1
  0
DICTIONARY
  5
15
330
A
100
AcDbDictionary
281
1
  0
DICTIONARY
  5
16
330
A
100
AcDbDictionary
281
1
  0
LAYOUT
  5
1A
330
D
100
AcDbPlotSettings
  1

  4
A3
  6

 40
7.5
 41
20.0
 42
7.5
 43
20.0
 44
420.0
 45
297.0
 46
0.0
 47
0.0
 48
0.0
 49
0.0
140
0.0
141
0.0
142
1.0
143
1.0
 70
1024
 72
1
 73
0
 74
5
  7

 75
16
 76
0
 77
2
 78
300
147
1.0
148
0.0
149
0.0
100
AcDbLayout
  1
Model
 70
1
 71
0
 10
0.0
 20
0.0
 11
420.0
 21
297.0
 12
0.0
 22
0.0
 32
0.0
 14
1e+20
 24
1e+20
 34
1e+20
 15
-1e+20
 25
-1e+20
 35
-1e+20
146
0.0
 13
0.0
 23
0.0
 33
0.0
 16
1.0
 26
0.0
 36
0.0
 17
0.0
 27
1.0
 37
0.0
 76
1
330
17
  0
LAYOUT
  5
1E
330
D
100
AcDbPlotSettings
  1

  4
A3
  6

 40
7.5
 41
20.0
 42
7.5
 43
20.0
 44
420.0
 45
297.0
 46
0.0
 47
0.0
 48
0.0
 49
0.0
140
0.0
141
0.0
142
1.0
143
1.0
 70
0
 72
1
 73
0
 74
5
  7

 75
16
 76
0
 77
2
 78
300
147
1.0
148
0.0
149
0.0
100
AcDbLayout
  1
Layout1
 70
1
 71
1
 10
0.0
 20
0.0
 11
420.0
 21
297.0
 12
0.0
 22
0.0
 32
0.0
 14
1e+20
 24
1e+20
 34
1e+20
 15
-1e+20
 25
-1e+20
 35
-1e+20
146
0.0
 13
0.0
 23
0.0
 33
0.0
 16
1.0
 26
0.0
 36
0.0
 17
0.0
 27
1.0
 37
0.0
 76
1
330
1B
  0
MATERIAL
  5
1F
102
{ACAD_REACTORS
330
E
102
}
330
E
100
AcDbMaterial
  1
ByBlock
  2

 70
0
 40
1.0
 71
1
 41
1.0
 91
-1023410177
 42
1.0
 72
1
  3

 73
1
 74
1
 75
1
 44
0.5
 73
0
 45
1.0
 46
1.0
 77
1
  4

 78
1
 79
1
170
1
 48
1.0
171
1
  6

172
1
173
1
174
1
140
1.0
141
1.0
175
1
  7

176
1
177
1
178
1
143
1.0
179
1
  8

270
1
271
1
272
1
145
1.0
146
1.0
273
1
  9

274
1
275
1
276
1
 42
1.0
 72
1
  3

 73
1
 74
1
 75
1
 94
63
  0
MATERIAL
  5
20
102
{ACAD_REACTORS
330
E
102
}
330
E
100
AcDbMaterial
  1
ByLayer
  2

 70
0
 40
1.0
 71
1
 41
1.0
 91
-1023410177
 42
1.0
 72
1
  3

 73
1
 74
1
 75
1
 44
0.5
 73
0
 45
1.0
 46
1.0
 77
1
  4

 78
1
 79
1
170
1
 48
1.0
171
1
  6

172
1
173
1
174
1
140
1.0
141
1.0
175
1
  7

176
1
177
1
178
1
143
1.0
179
1
  8

270
1
271
1
272
1
145
1.0
146
1.0
273
1
  9

274
1
275
1
276
1
 42
1.0
 72
1
  3

 73
1
 74
1
 75
1
 94
63
  0
MATERIAL
  5
21
102
{ACAD_REACTORS
330
E
102
}
330
E
100
AcDbMaterial
  1
Global
  2

 70
0
 40
1.0
 71
1
 41
1.0
 91
-1023410177
 42
1.0
 72
1
  3

 73
1
 74
1
 75
1
 44
0.5
 73
0
 45
1.0
 46
1.0
 77
1
  4

 78
1
 79
1
170
1
 48
1.0
171
1
  6

172
1
173
1
174
1
140
1.0
141
1.0
175
1
  7

176
1
177
1
178
1
143
1.0
179
1
  8

270
1
271
1
272
1
145
1.0
146
1.0
273
1
  9

274
1
275
1
276
1
 42
1.0
 72
1
  3

 73
1
 74
1
 75
1
 94
63
  0
MLINESTYLE
  5
22
102
{ACAD_REACTORS
330
10
102
}
330
10
100
AcDbMlineStyle
  2
Standard
 70
0
  3

 62
256
 51
90.0
 52
90.0
 71
2
 49
0.5
 62
256
  6
BYLAYER
 49
-0.5
 62
256
  6
BYLAYER
  0
MLEADERSTYLE
  5
2C
102
{ACAD_REACTORS
330
F
102
}
330
F
100
AcDbMLeaderStyle
179
2
170
2
171
1
172
0
 90
2
 40
0.0
 41
0.0
173
1
 91
-1056964608
 92
-2
290
1
 42
2.0
291
1
 43
8.0
  3
Standard
 44
4.0
300

342
29
174
1
175
1
176
0
178
1
 93
-1056964608
 45
4.0
292
0
297
0
 46
4.0
 94
-1056964608
 47
1.0
 49
1.0
140
1.0
294
1
141
0.0
177
0
142
1.0
295
0
296
0
143
3.75
271
0
272
9
273
9
  0
DICTIONARY
  5
2D
330
A
100
AcDbDictionary
280
1
281
1
  3
CREATED_BY_EZDXF
350
2E
  3
WRITTEN_BY_EZDXF
350
42
  0
DICTIONARYVAR
  5
2E
330
2D
100
DictionaryVariables
280
0
  1
0.0 @ 2000-01-01T00:00:00.000000+00:00
  0
DICTIONARYVAR
  5
42
330
2D
100
DictionaryVariables
280
0
  1
0.0 @ 2000-01-01T00:00:00.000000+00:00
  0
ENDSEC
  0
EOF
