<?xml version="1.0" encoding="UTF-8"?>
<!DOCTYPE svg PUBLIC "-//W3C//DTD SVG 1.1//EN" "http://www.w3.org/Graphics/SVG/1.1/DTD/svg11.dtd">
<!-- FusionSpace custom symbol "fs.help", from product/icons/help.svg. Generated by tools/build/kit_symbols.py. -->
<svg version="1.1" xmlns="http://www.w3.org/2000/svg" width="3300" height="2200">
<g id="Notes"><text id="template-version" style="stroke:none;fill:black;font-family:sans-serif;font-size:13;" x="3036" y="1933">Template v.3.0</text></g>
<g id="Guides"><line id="Baseline-S" style="fill:none;stroke:#27AAE1;opacity:1;stroke-width:0.5;" x1="263" x2="3036" y1="696" y2="696"/><line id="Capline-S" style="fill:none;stroke:#27AAE1;opacity:1;stroke-width:0.5;" x1="263" x2="3036" y1="625.541" y2="625.541"/><line id="Baseline-M" style="fill:none;stroke:#27AAE1;opacity:1;stroke-width:0.5;" x1="263" x2="3036" y1="1126.0" y2="1126.0"/><line id="Capline-M" style="fill:none;stroke:#27AAE1;opacity:1;stroke-width:0.5;" x1="263" x2="3036" y1="1055.54" y2="1055.54"/><line id="Baseline-L" style="fill:none;stroke:#27AAE1;opacity:1;stroke-width:0.5;" x1="263" x2="3036" y1="1556" y2="1556"/><line id="Capline-L" style="fill:none;stroke:#27AAE1;opacity:1;stroke-width:0.5;" x1="263" x2="3036" y1="1485.54" y2="1485.54"/><line id="left-margin-Regular-S" style="fill:none;stroke:#27AAE1;opacity:1;stroke-width:0.5;" x1="1391.0" x2="1391.0" y1="614.33" y2="706.72"/><line id="right-margin-Regular-S" style="fill:none;stroke:#27AAE1;opacity:1;stroke-width:0.5;" x1="1483.39" x2="1483.39" y1="614.33" y2="706.72"/><line id="left-margin-Regular-M" style="fill:none;stroke:#27AAE1;opacity:1;stroke-width:0.5;" x1="1391.0" x2="1391.0" y1="1031.45" y2="1149.45"/><line id="right-margin-Regular-M" style="fill:none;stroke:#27AAE1;opacity:1;stroke-width:0.5;" x1="1509.00" x2="1509.00" y1="1031.45" y2="1149.45"/><line id="left-margin-Regular-L" style="fill:none;stroke:#27AAE1;opacity:1;stroke-width:0.5;" x1="1391.0" x2="1391.0" y1="1444.25" y2="1596.47"/><line id="right-margin-Regular-L" style="fill:none;stroke:#27AAE1;opacity:1;stroke-width:0.5;" x1="1543.22" x2="1543.22" y1="1444.25" y2="1596.47"/></g>
<g id="Symbols"><g id="Regular-S"><path d="M1474.732,660.524 Q1474.732,676.073 1463.737,687.064 Q1452.746,698.059 1437.197,698.059 Q1421.648,698.059 1410.657,687.064 Q1399.662,676.073 1399.662,660.524 Q1399.662,644.975 1410.657,633.984 Q1421.648,622.989 1437.197,622.989 Q1452.746,622.989 1463.737,633.984 Q1474.732,644.975 1474.732,660.524 Z M1468.957,660.524 Q1468.957,647.369 1459.656,638.064 Q1450.352,628.763 1437.197,628.763 Q1424.042,628.763 1414.738,638.064 Q1405.437,647.369 1405.437,660.524 Q1405.437,673.678 1414.738,682.983 Q1424.042,692.284 1437.197,692.284 Q1450.352,692.284 1459.656,682.983 Q1468.957,673.678 1468.957,660.524 Z"/><path d="M1423.723,650.903 Q1423.704,639.793 1434.606,637.656 Q1445.509,635.52 1449.686,645.818 Q1453.859,656.112 1444.546,662.175 Q1440.084,665.147 1440.084,669.186 L1440.084,672.073 L1434.31,672.073 L1434.31,669.186 Q1434.31,662.06 1441.397,657.332 Q1446.717,653.871 1444.331,647.989 Q1441.948,642.103 1435.715,643.323 Q1429.486,644.547 1429.498,650.896 L1429.501,653.783 L1423.727,653.791 Z"/><path d="M1442.009,679.773 C1442.009,682.43 1439.855,684.585 1437.197,684.585 C1434.539,684.585 1432.385,682.43 1432.385,679.773 C1432.385,677.115 1434.539,674.96 1437.197,674.96 C1439.855,674.96 1442.009,677.115 1442.009,679.773 Z"/></g><g id="Regular-M"><path d="M1497.938,1090.455 Q1497.938,1110.313 1483.896,1124.35 Q1469.858,1138.392 1450,1138.392 Q1430.142,1138.392 1416.104,1124.35 Q1402.062,1110.313 1402.062,1090.455 Q1402.062,1070.597 1416.104,1056.559 Q1430.142,1042.517 1450,1042.517 Q1469.858,1042.517 1483.896,1056.559 Q1497.938,1070.597 1497.938,1090.455 Z M1490.562,1090.455 Q1490.562,1073.655 1478.684,1061.771 Q1466.8,1049.892 1450,1049.892 Q1433.2,1049.892 1421.316,1061.771 Q1409.438,1073.655 1409.438,1090.455 Q1409.438,1107.255 1421.316,1119.139 Q1433.2,1131.017 1450,1131.017 Q1466.8,1131.017 1478.684,1119.139 Q1490.562,1107.255 1490.562,1090.455 Z"/><path d="M1432.792,1078.168 Q1432.767,1063.979 1446.691,1061.25 Q1460.615,1058.521 1465.95,1071.673 Q1471.279,1084.82 1459.386,1092.564 Q1453.688,1096.36 1453.688,1101.517 L1453.688,1105.205 L1446.312,1105.205 L1446.312,1101.517 Q1446.312,1092.417 1455.364,1086.379 Q1462.159,1081.959 1459.111,1074.446 Q1456.067,1066.929 1448.107,1068.487 Q1440.152,1070.051 1440.167,1078.158 L1440.172,1081.846 L1432.797,1081.856 Z"/><path d="M1456.146,1115.038 C1456.146,1118.432 1453.394,1121.184 1450,1121.184 C1446.606,1121.184 1443.854,1118.432 1443.854,1115.038 C1443.854,1111.644 1446.606,1108.892 1450,1108.892 C1453.394,1108.892 1456.146,1111.644 1456.146,1115.038 Z"/></g><g id="Regular-L"><path d="M1528.949,1520.364 Q1528.949,1545.981 1510.835,1564.089 Q1492.727,1582.203 1467.11,1582.203 Q1441.493,1582.203 1423.385,1564.089 Q1405.271,1545.981 1405.271,1520.364 Q1405.271,1494.746 1423.385,1476.638 Q1441.493,1458.524 1467.11,1458.524 Q1492.727,1458.524 1510.835,1476.638 Q1528.949,1494.746 1528.949,1520.364 Z M1519.436,1520.364 Q1519.436,1498.691 1504.112,1483.362 Q1488.782,1468.038 1467.11,1468.038 Q1445.438,1468.038 1430.108,1483.362 Q1414.784,1498.691 1414.784,1520.364 Q1414.784,1542.036 1430.108,1557.366 Q1445.438,1572.689 1467.11,1572.689 Q1488.782,1572.689 1504.112,1557.366 Q1519.436,1542.036 1519.436,1520.364 Z"/><path d="M1444.911,1504.514 Q1444.88,1486.209 1462.842,1482.689 Q1480.803,1479.169 1487.685,1496.135 Q1494.56,1513.095 1479.218,1523.085 Q1471.867,1527.981 1471.867,1534.634 L1471.867,1539.391 L1462.353,1539.391 L1462.353,1534.634 Q1462.353,1522.894 1474.03,1515.106 Q1482.795,1509.404 1478.863,1499.713 Q1474.937,1490.015 1464.668,1492.025 Q1454.406,1494.042 1454.425,1504.501 L1454.431,1509.258 L1444.918,1509.271 Z"/><path d="M1475.038,1552.076 C1475.038,1556.455 1471.489,1560.004 1467.11,1560.004 C1462.731,1560.004 1459.182,1556.455 1459.182,1552.076 C1459.182,1547.698 1462.731,1544.148 1467.11,1544.148 C1471.489,1544.148 1475.038,1547.698 1475.038,1552.076 Z"/></g></g>
</svg>
